<svg xmlns="http://www.w3.org/2000/svg" width="15" height="20" viewBox="0 0 15 20">
    <defs>
        <filter id="wrwdpfo38a">
            <feColorMatrix in="SourceGraphic" values="0 0 0 0 0.549020 0 0 0 0 0.549020 0 0 0 0 0.549020 0 0 0 1.000000 0"/>
        </filter>
        <filter id="bl3g4w00wb">
            <feColorMatrix in="SourceGraphic" values="0 0 0 0 1.000000 0 0 0 0 1.000000 0 0 0 0 1.000000 0 0 0 1.000000 0"/>
        </filter>
        <filter id="o3siot1cwc">
            <feColorMatrix in="SourceGraphic" values="0 0 0 0 1.000000 0 0 0 0 1.000000 0 0 0 0 1.000000 0 0 0 1.000000 0"/>
        </filter>
    </defs>
    <g fill="none" fill-rule="evenodd">
        <g filter="url(#wrwdpfo38a)" transform="translate(-448.000000, -1606.000000)">
            <g>
                <g filter="url(#bl3g4w00wb)" transform="translate(448.219138, 1606.000000)">
                    <g>
                        <path fill="#000" fill-rule="nonzero" d="M9.79.115c-.786 0-1.215.468-1.529.811-.26.284-.405.442-.744.442h-.015c-.35-.004-.492-.166-.751-.46-.312-.355-.74-.84-1.54-.85h-.025c-.785 0-1.214.468-1.528.81-.26.284-.405.443-.744.443h-.015c-.35-.005-.492-.167-.751-.461C1.836.495 1.408.01.608 0H.602C.272 0 .003.34 0 .761c-.003.425.264.773.596.777.35.004.493.166.752.46.312.355.739.84 1.54.85h.025c.785 0 1.213-.468 1.527-.81.26-.284.405-.443.745-.443h.014c.35.005.492.167.752.461.312.355.739.84 1.54.85h.025c.785 0 1.214-.468 1.527-.81.26-.285.405-.443.745-.443h.014c.35.005.493.167.752.461.312.355.74.84 1.54.85h.006c.33 0 .599-.34.602-.762.003-.424-.264-.772-.596-.776-.35-.005-.493-.167-.752-.461-.312-.354-.739-.84-1.54-.85h-.025zM12.106 4.813c-.35-.004-.493-.167-.752-.46-.312-.355-.739-.84-1.54-.85H9.79c-.785 0-1.214.468-1.528.81-.26.284-.405.442-.744.442h-.015c-.35-.004-.492-.166-.751-.46-.312-.355-.74-.84-1.54-.85h-.025c-.785 0-1.214.468-1.528.81-.26.285-.405.443-.744.443h-.015c-.35-.005-.492-.167-.751-.461-.312-.354-.74-.84-1.54-.85H.602c-.33 0-.599.34-.602.762-.003.424.264.772.596.776.35.005.493.167.752.461.312.354.739.84 1.54.85h.025c.785 0 1.213-.468 1.527-.811.26-.284.405-.442.745-.442h.014c.35.004.492.166.752.46.312.355.739.84 1.54.85h.025c.785 0 1.214-.468 1.527-.81.26-.284.405-.443.745-.443h.014c.35.005.493.167.752.461.312.355.74.84 1.54.85h.006c.33 0 .599-.34.602-.761.003-.425-.264-.773-.596-.777z" transform="translate(1.132384, 13.648994)"/>
                    </g>
                </g>
                <g filter="url(#o3siot1cwc)" transform="translate(448.219138, 1606.000000)">
                    <g fill="#000" fill-rule="nonzero">
                        <path d="M4.694 8.284c-.76 0-1.38.494-1.38 1.098v2.222c0 .604.62 1.098 1.38 1.098.76 0 1.38-.494 1.38-1.098V9.382c0-.604-.62-1.098-1.38-1.098z" transform="translate(6.091230, 7.297989) rotate(14.000000) translate(-6.091230, -7.297989) translate(1.397009, 0.946983)"/>
                        <path d="M8.791 1.405h-2.19C6.343.59 5.575 0 4.665 0c-.91 0-1.679.59-1.935 1.405H.57c-.313 0-.569.253-.569.562 0 .31.256.562.569.562h2.19c.143.478.456.872.883 1.125C2.105 4.104.967 5.509.967 7.167v2.95c0 .507.427.928.94.928h.767V9.443c0-1.096.91-1.995 2.02-1.995 1.11 0 2.02.9 2.02 1.995v1.602h.768c.512 0 .94-.421.94-.927V7.195c0-1.658-1.139-3.092-2.675-3.513.427-.253.74-.647.882-1.124h2.19c.313 0 .57-.253.57-.563-.029-.337-.285-.59-.598-.59zM4.666 3.12c-.626 0-1.138-.506-1.138-1.125 0-.618.512-1.124 1.138-1.124.626 0 1.138.506 1.138 1.124.028.619-.484 1.125-1.138 1.125z" transform="translate(6.091230, 7.297989) rotate(14.000000) translate(-6.091230, -7.297989) translate(1.397009, 0.946983)"/>
                    </g>
                </g>
            </g>
        </g>
    </g>
</svg>
