<svg xmlns="http://www.w3.org/2000/svg" width="15" height="20" viewBox="0 0 15 20">
    <defs>
        <filter id="l6i7v4220a">
            <feColorMatrix in="SourceGraphic" values="0 0 0 0 0.549020 0 0 0 0 0.549020 0 0 0 0 0.549020 0 0 0 1.000000 0"/>
        </filter>
        <filter id="zbhd4n6pcb">
            <feColorMatrix in="SourceGraphic" values="0 0 0 0 1.000000 0 0 0 0 1.000000 0 0 0 0 1.000000 0 0 0 1.000000 0"/>
        </filter>
        <filter id="20rjfv6g3c">
            <feColorMatrix in="SourceGraphic" values="0 0 0 0 1.000000 0 0 0 0 1.000000 0 0 0 0 1.000000 0 0 0 1.000000 0"/>
        </filter>
    </defs>
    <g fill="none" fill-rule="evenodd">
        <g filter="url(#l6i7v4220a)" transform="translate(-1247.000000, -1489.000000)">
            <g>
                <g filter="url(#zbhd4n6pcb)" transform="translate(1247.000000, 1489.000000)">
                    <g>
                        <path fill="#000" fill-rule="nonzero" d="M.756 4.265C.173 4.194-.1 3.985.033 3.71c.054-.091.132-.166.225-.217.155-.081.197-.084 1.02-.027 1.1.076 2.155.042 2.65-.086.946-.247 1.336-.609.976-.91-.231-.13-.477-.231-.733-.302-.48-.153-.63-.222-.768-.352-.114-.075-.18-.205-.172-.34 0-.234.107-.362.45-.542C4.718.39 7.18-.035 9.1.003c.623 0 .75.024.75.08 0 .121-.232.18-1.205.31-1.885.247-2.797.451-3.375.74-.578.288-.47.524.333.82.802.295 1.022.445 1.022.739 0 .492-.712 1.002-1.83 1.302-.793.215-1.303.274-2.528.29-.645 0-1.325 0-1.5-.024l-.012.005z" transform="translate(0.000000, 15.715110)"/>
                    </g>
                </g>
                <g filter="url(#20rjfv6g3c)" transform="translate(1247.000000, 1489.000000) translate(2.834698, 0.000000)">
                    <g fill="#000" fill-rule="nonzero">
                        <path d="M5.773 10.187c-.934 0-1.698.607-1.698 1.35v2.733c0 .742.764 1.35 1.698 1.35.933 0 1.697-.608 1.697-1.35v-2.733c0-.743-.764-1.35-1.697-1.35z" transform="translate(-0.000000, -0.000000)"/>
                        <path d="M10.81 1.728H8.117C7.802.726 6.857 0 5.737 0 4.619 0 3.674.726 3.36 1.728H.699c-.384 0-.699.311-.699.691 0 .38.315.691.7.691h2.694c.174.588.56 1.072 1.084 1.383-1.89.553-3.289 2.28-3.289 4.32v3.629c0 .622.525 1.14 1.155 1.14h.945v-1.97c0-1.347 1.12-2.453 2.484-2.453 1.364 0 2.483 1.106 2.483 2.453v1.97h.945c.63 0 1.155-.518 1.155-1.14V8.848c0-2.04-1.4-3.802-3.289-4.32.525-.312.91-.795 1.085-1.383h2.693c.385 0 .7-.311.7-.691-.035-.415-.35-.726-.735-.726zM5.738 3.836c-.77 0-1.4-.622-1.4-1.382 0-.76.63-1.383 1.4-1.383.77 0 1.399.622 1.399 1.383.035.76-.595 1.382-1.4 1.382z" transform="translate(-0.000000, -0.000000)"/>
                    </g>
                </g>
            </g>
        </g>
    </g>
</svg>
