<svg xmlns="http://www.w3.org/2000/svg" width="18" height="20" viewBox="0 0 18 20">
    <defs>
        <filter id="ea7f9drsda">
            <feColorMatrix in="SourceGraphic" values="0 0 0 0 0.549020 0 0 0 0 0.549020 0 0 0 0 0.549020 0 0 0 1.000000 0"/>
        </filter>
        <filter id="5osjif3g6b">
            <feColorMatrix in="SourceGraphic" values="0 0 0 0 1.000000 0 0 0 0 1.000000 0 0 0 0 1.000000 0 0 0 1.000000 0"/>
        </filter>
    </defs>
    <g fill="none" fill-rule="evenodd">
        <g filter="url(#ea7f9drsda)" transform="translate(-445.000000, -1566.000000)">
            <g>
                <g filter="url(#5osjif3g6b)" transform="translate(445.589322, 1566.000000)">
                    <g fill="#000" fill-rule="nonzero">
                        <path d="M1.407 6.442L.4 6.165c-.113.48-.202.975-.266 1.486l1.023.292c.06-.515.144-1.016.25-1.5zm-.355 3.802L0 9.829c0 .475.022.942.058 1.402l1.1.465c-.056-.473-.092-.959-.106-1.452zm.864-5.577L.95 4.432C.742 4.934.57 5.52.474 5.852l1.006.276c.123-.508.268-.996.436-1.46zm-.871 5.147c0-.526.027-1.042.076-1.546L.097 7.975c-.052.493-.081.997-.09 1.511l1.04.41-.002-.082zM4.825.443c-.524.195-1 .453-1.433.764h.55c.281-.296.577-.549.882-.764zM2.63 3.055l-.848-.179c-.265.388-.497.809-.7 1.256l.947.232c.18-.462.381-.901.601-1.31zm-1.424 9.01l-1.117-.47c.054.53.132 1.046.237 1.545l1.19.514c-.129-.51-.233-1.041-.31-1.589zm2.45-10.537h-.673c-.368.314-.7.669-.996 1.062l.81.17c.264-.454.552-.866.86-1.232zM3.54 9.814C3.55 5.23 5.347 1.329 7.657.09 6.46.2 5.238 1.216 4.303 2.879c-.992 1.762-1.65 4.219-1.65 6.935 0 2.715.658 5.173 1.65 6.934.935 1.664 2.156 2.68 3.354 2.788-2.31-1.238-4.108-5.139-4.118-9.722zm.344 7.171c-1.04-1.849-1.711-4.378-1.712-7.171 0-2.794.672-5.324 1.712-7.172C4.505 1.54 5.263.671 6.103.148 5.009.49 3.957 1.443 3.123 2.843c-1.058 1.775-1.756 4.244-1.756 6.97 0 2.727.697 5.195 1.757 6.97.833 1.4 1.885 2.352 2.98 2.696-.84-.523-1.6-1.39-2.221-2.494zm3.753-.793c-.893-1.648-1.467-3.896-1.468-6.378.001-2.483.575-4.731 1.468-6.38C8.528 1.796 9.75.71 11.116.702c.563.003 1.074.193 1.532.527C11.856.448 10.863 0 9.652 0h-.655.17c-.892-.002-1.793.489-2.593 1.361h1.71c-.098.103-.195.209-.289.321H6.298c-.275.341-.537.728-.778 1.157-.045.08-.085.167-.128.249l1.712-.098c-.06.109-.12.22-.178.333l-1.705.098c-.216.446-.408.928-.58 1.438l1.671-.113c-.039.109-.076.219-.112.33l-1.667.113c-.133.434-.246.891-.342 1.362l1.648-.152c-.025.109-.047.219-.069.33l-1.649.152c-.087.481-.147.982-.191 1.492l1.628-.236-.031.33-1.627.235c-.024.365-.04.735-.04 1.111 0 .134.01.264.013.397l1.598-.33c0 .11.002.218.005.327l-1.594.33c.022.511.066 1.01.132 1.497l1.561-.387c.012.108.026.215.04.321l-1.553.385c.081.521.184 1.025.31 1.507l1.524-.386c.025.105.052.209.078.312l-1.516.385c.155.543.336 1.056.54 1.535l1.474-.4c.04.1.082.2.124.298l-1.47.4c.124.274.255.536.394.783.108.192.22.374.335.549l1.41-.423c.058.096.118.19.178.282l-1.396.42c.325.45.674.835 1.038 1.143l1.2-.427c.081.086.164.168.248.246l-1.156.41c.578.415 1.187.642 1.793.64h.482c1.211 0 2.204-.448 2.997-1.228-.459.333-.97.523-1.533.527-1.366-.01-2.588-1.094-3.48-2.734zm-6.011-2.14l-1.21-.523c.132.548.301 1.07.5 1.564l1.257.52c-.208-.492-.392-1.013-.547-1.561zm9.384-9.79c-.585 0-1.108.462-1.515 1.23.896.724 1.462 2.645 1.462 4.91 0 1.851-.378 3.473-1.006 4.4-.003-.002-.005-.005-.008-.006.319.36.679.569 1.067.569 1.361 0 2.282-2.485 2.282-5.552 0-3.066-.921-5.551-2.282-5.551zm-7.536 13.61l-1.203-.476c.684.795 1.533 1.407 2.554 1.788-.481-.34-.936-.778-1.351-1.312zm-1.11-1.833l-1.273-.526c.227.496.488.96.79 1.382l1.244.493c-.276-.41-.53-.862-.76-1.35zM13.772 3.682c-.69-1.56-1.63-2.428-2.655-2.42H11.1c-1.03 0-2.133.891-2.971 2.44-.841 1.548-1.401 3.717-1.4 6.112-.001 2.394.559 4.562 1.4 6.111.843 1.557 1.954 2.45 2.988 2.44 1.025.008 1.966-.86 2.655-2.42.685-1.548 1.09-3.724 1.088-6.131.001-2.408-.403-4.585-1.088-6.132zm-2.75 12.567c-1.69 0-2.963-2.882-2.963-6.435 0-3.554 1.273-6.436 2.963-6.436 1.69 0 2.832 2.881 2.832 6.436 0 3.553-1.143 6.435-2.832 6.435z" transform="translate(2.075930, 0.000000)"/>
                    </g>
                </g>
                <path fill="#FFF" d="M2.67 15.986l.629 1.887H1.412l1.258.63L.154 19.76l5.661-.629-3.145-3.145z" transform="translate(445.589322, 1566.000000) translate(2.984467, 17.873290) rotate(-5.000000) translate(-2.984467, -17.873290)"/>
            </g>
        </g>
    </g>
</svg>
