<svg xmlns="http://www.w3.org/2000/svg" width="12" height="20" viewBox="0 0 12 20">
    <defs>
        <filter id="4cdtknqkja">
            <feColorMatrix in="SourceGraphic" values="0 0 0 0 0.549020 0 0 0 0 0.549020 0 0 0 0 0.549020 0 0 0 1.000000 0"/>
        </filter>
    </defs>
    <g fill="none" fill-rule="evenodd">
        <g filter="url(#4cdtknqkja)" transform="translate(-849.000000, -1526.000000)">
            <g fill="#000" fill-rule="nonzero">
                <path d="M7.683 2.031C7.683.91 6.773 0 5.652 0 4.53 0 3.62.91 3.62 2.031c0 1.122.91 2.031 2.031 2.032 1.122-.002 2.03-.91 2.032-2.032zM5.73 7.188h-.157c-.172 0-.312.14-.312.312 0 .173.14.313.312.313h.157c.172 0 .312-.14.312-.313s-.14-.312-.312-.312zM2.37 5.877c0-.875.678-1.486 1.648-1.486h.42c-.292-.151-.554-.355-.771-.6-1.127.142-1.914.968-1.92 2.072.235.052.451.17.623.34v-.326zM9.556 5.849c-.013-1.097-.798-1.916-1.92-2.059-.217.246-.479.45-.77.6h.419c.97 0 1.648.612 1.648 1.487v.258c.177-.151.393-.25.623-.286zM5.652 13.75c-.876.014-1.575.735-1.563 1.61v3.03c-.017.569.277 1.103.767 1.393.49.29 1.1.29 1.59 0 .491-.29.785-.824.768-1.394v-3.028c.012-.876-.687-1.597-1.562-1.611z" transform="translate(849.000000, 1526.000000)"/>
                <path d="M9.714 9.933c.173 0 .313-.14.313-.313 0-.172-.14-.312-.313-.312h-.601l-.29-.574.7-.401h.999c.387 0 .703-.364.703-.813v-.25c0-.448-.316-.812-.703-.812H9.74c-.388 0-.703.364-.703.812v.622l-.497.283-.916-1.816c-.088-.16-.255-.261-.437-.265H4.116c-.184.003-.351.105-.438.267l-.933 1.848-.557-.317V7.27c0-.448-.316-.812-.704-.812h-.78c-.388 0-.704.364-.704.812v.25c0 .449.316.813.703.813h.999l.76.436-.271.539h-.602c-.173 0-.312.14-.312.312 0 .173.14.313.312.313h.631c.166.284.234.615.194.942-.06.352-.29.666-.687.934-.086.059-.137.156-.138.26.016.776.109 1.548.278 2.306H1.59c-.173 0-.312.14-.312.313 0 .172.14.312.312.312h.436c.272.96.717 1.994 1.44 2.83v-2.47c-.018-.792.395-1.532 1.079-1.934.684-.401 1.531-.401 2.215 0 .684.402 1.097 1.142 1.08 1.935v2.469c.722-.836 1.167-1.87 1.44-2.83h.435c.173 0 .313-.14.313-.312 0-.173-.14-.313-.313-.313h-.278c.17-.758.262-1.53.278-2.306 0-.104-.052-.201-.137-.26-.396-.268-.629-.582-.688-.934-.04-.327.028-.658.194-.942h.631zM9.663 7.27c-.008-.071.021-.142.078-.187h.78c.057.044.087.115.079.187v.25c.008.072-.022.143-.078.188h-.86V7.27zm-8.1.438H.705c-.02-.003-.08-.067-.08-.188v-.25c-.008-.071.022-.142.078-.187h.781c.057.045.086.116.079.187v.438zm1.589 5.73c-.173 0-.313-.14-.313-.313s.14-.312.313-.312c.172 0 .312.14.312.312s-.14.312-.312.313zm2.5-1.875c-.518 0-.938-.42-.938-.938s.42-.937.938-.937c.517 0 .937.42.937.937 0 .249-.099.487-.275.663-.175.176-.414.275-.663.275zm-2.214-3.34l.76-1.504h2.907l.76 1.504H3.439zm4.714 5.215c-.173 0-.313-.14-.313-.313s.14-.312.313-.312c.172 0 .312.14.312.312s-.14.312-.312.313z" transform="translate(849.000000, 1526.000000)"/>
            </g>
        </g>
    </g>
</svg>
