<svg xmlns="http://www.w3.org/2000/svg" width="16" height="20" viewBox="0 0 16 20">
    <defs>
        <filter id="7wf0p2lz4a">
            <feColorMatrix in="SourceGraphic" values="0 0 0 0 0.549020 0 0 0 0 0.549020 0 0 0 0 0.549020 0 0 0 1.000000 0"/>
        </filter>
    </defs>
    <g fill="none" fill-rule="evenodd">
        <g filter="url(#7wf0p2lz4a)" transform="translate(-847.000000, -1566.000000)">
            <g>
                <g fill="#000" fill-rule="nonzero">
                    <path d="M1.434 6.565L.407 6.282c-.115.488-.205.994-.27 1.515l1.042.297c.062-.524.147-1.035.255-1.529zm-.362 3.874L0 10.016c0 .484.022.96.059 1.429l1.121.474c-.057-.483-.093-.977-.108-1.48zm.88-5.683l-.984-.24C.756 5.028.58 5.626.483 5.963l1.025.282c.125-.518.273-1.016.444-1.49zM1.065 10c0-.536.028-1.062.077-1.576L.1 8.127c-.053.502-.083 1.016-.092 1.54l1.06.417L1.064 10zM4.916.45c-.533.2-1.018.462-1.46.779h.562c.286-.302.587-.56.898-.779zM2.681 3.113l-.864-.182c-.27.395-.507.824-.714 1.28l.966.236c.184-.471.388-.919.612-1.334zM1.23 12.295l-1.138-.48c.054.54.135 1.066.24 1.575l1.214.524c-.131-.52-.237-1.061-.316-1.62zM3.727 1.557H3.04c-.374.32-.713.681-1.014 1.083l.825.173c.27-.463.563-.883.876-1.256zM3.607 10C3.616 5.33 5.448 1.355 7.802.092 6.583.203 5.338 1.24 4.385 2.934c-1.01 1.795-1.681 4.3-1.68 7.066-.001 2.767.67 5.272 1.68 7.066.953 1.696 2.197 2.731 3.417 2.842C5.45 18.646 3.617 14.671 3.606 10zm.35 7.308c-1.06-1.884-1.744-4.46-1.744-7.308 0-2.846.684-5.424 1.743-7.308C4.59 1.57 5.363.684 6.22.151 5.104.5 4.032 1.47 3.183 2.897 2.104 4.707 1.393 7.22 1.393 10s.71 5.294 1.79 7.103c.85 1.426 1.921 2.396 3.036 2.747-.856-.533-1.629-1.418-2.263-2.542zM7.78 16.5c-.91-1.679-1.495-3.97-1.496-6.5.001-2.53.586-4.82 1.496-6.5.91-1.67 2.154-2.776 3.547-2.786.573.003 1.094.197 1.56.537C12.082.457 11.07 0 9.837 0h-.668.174c-.91-.002-1.828.498-2.643 1.387h1.743c-.1.104-.199.212-.295.327h-1.73c-.28.348-.546.742-.792 1.179-.045.08-.086.17-.13.254l1.744-.1c-.062.11-.123.224-.182.34l-1.736.099c-.22.454-.417.946-.59 1.466l1.701-.116c-.04.111-.077.223-.114.336l-1.699.115c-.136.443-.25.909-.348 1.389L5.95 6.52c-.025.111-.048.224-.07.336l-1.68.156c-.09.49-.15 1-.196 1.52l1.66-.24-.032.335-1.658.241c-.024.372-.04.749-.04 1.132 0 .137.009.27.012.404l1.629-.337c0 .112.002.224.005.334l-1.624.336c.023.521.067 1.03.134 1.526l1.591-.395c.012.11.027.22.041.328l-1.583.392c.083.53.187 1.044.316 1.536l1.553-.393.08.317-1.545.392c.158.554.342 1.076.55 1.565l1.502-.408c.041.103.084.204.127.304l-1.499.408c.127.278.26.546.402.798.11.195.224.38.341.559l1.437-.431c.06.098.12.194.181.287l-1.422.427c.331.46.687.852 1.058 1.166l1.222-.435c.083.087.168.17.253.25l-1.178.417c.59.424 1.21.655 1.827.653h.492c1.234 0 2.245-.457 3.053-1.251-.467.34-.988.533-1.561.537-1.393-.01-2.638-1.115-3.547-2.786zM1.655 14.32l-1.233-.533c.135.56.308 1.09.51 1.594l1.281.53c-.212-.501-.399-1.033-.558-1.591zm9.564-9.976c-.597 0-1.13.47-1.544 1.254.913.737 1.49 2.695 1.49 5.002 0 1.887-.386 3.54-1.026 4.485l-.008-.007c.325.368.692.58 1.088.58 1.386 0 2.325-2.532 2.325-5.657s-.94-5.657-2.325-5.657zm-7.68 13.87l-1.226-.487c.697.811 1.563 1.435 2.603 1.823-.49-.346-.954-.793-1.377-1.337zm-1.13-1.87l-1.298-.535c.231.506.497.978.804 1.409l1.269.502c-.282-.418-.541-.879-.776-1.375zM14.033 3.753c-.703-1.59-1.66-2.474-2.706-2.466h-.017c-1.049 0-2.174.908-3.028 2.486C7.426 5.35 6.856 7.56 6.857 10c-.001 2.44.57 4.65 1.427 6.228.858 1.587 1.99 2.496 3.044 2.487 1.045.007 2.003-.878 2.706-2.466.698-1.578 1.11-3.796 1.109-6.249.001-2.453-.41-4.671-1.11-6.248zM11.23 16.558c-1.721 0-3.02-2.936-3.02-6.558 0-3.621 1.299-6.557 3.02-6.557 1.722 0 2.887 2.935 2.887 6.557 0 3.622-1.165 6.558-2.887 6.558z" transform="translate(847.000000, 1566.000000) translate(0.000000, -0.000000)"/>
                </g>
            </g>
        </g>
    </g>
</svg>
