<svg xmlns="http://www.w3.org/2000/svg" width="26" height="20" viewBox="0 0 26 20">
    <defs>
        <filter id="4bdj80tvla">
            <feColorMatrix in="SourceGraphic" values="0 0 0 0 0.549020 0 0 0 0 0.549020 0 0 0 0 0.549020 0 0 0 1.000000 0"/>
        </filter>
    </defs>
    <g fill="none" fill-rule="evenodd">
        <g filter="url(#4bdj80tvla)" transform="translate(-445.000000, -1484.000000)">
            <g fill="#000" fill-rule="nonzero">
                <path d="M18.346 6.011l-.396.869-.956-.186c-.125-.021-.25.041-.312.165l-.395.869-.957-.166c-.124-.02-.25.042-.312.166l-.395.868-.935-.207c-.125-.02-.25.042-.312.166l-.395.868-.957-.186c-.125-.02-.25.041-.312.166l-.395.868-.957-.186c-.124-.02-.25.041-.312.165l-.395.869-.956-.186c-.125-.02-.25.041-.312.165l-.395.869-.957-.186c-.125-.021-.25.04-.312.165l-.395.868-.956-.186c-.125-.02-.25.042-.312.166l-.395.868-.957-.186c-.125-.02-.25.042-.312.166L3 14.51l-.956-.186c-.125-.02-.25.041-.312.165l-.395.869-.957-.186c-.125-.02-.25.041-.312.165l-.104.27v1.157c.062-.02.104-.083.146-.145l.395-.868.956.186c.125.02.25-.041.312-.166l.395-.868.957.186c.125.02.25-.041.312-.165l.395-.869.956.186c.125.021.25-.041.312-.165l.395-.869.957.186c.125.021.25-.04.312-.165l.395-.868.957.186c.124.02.25-.042.311-.166l.396-.868.956.186c.063.02.125 0 .187-.02.063-.022.104-.084.125-.125l.395-.868.957.186c.124.02.25-.042.312-.166l.395-.868.956.186c.125.02.25-.041.312-.166l.395-.868.957.186c.125.02.25-.041.312-.165l.395-.869.956.186c.125.021.25-.041.312-.165l.395-.869.957.186c.125.021.25-.04.312-.165l.312-.703v-.765h-.02c-.167 0-.292.062-.354.165z" transform="translate(446.000000, 1485.000000)"/>
                <path d="M17.784 4.895l-.395.869-.957-.186c-.124-.02-.25.041-.311.165l-.396.869-.956-.186c-.125-.021-.25.041-.312.165l-.395.869-.957-.187c-.124-.02-.25.042-.312.166l-.395.868-.956-.186c-.125-.02-.25.042-.312.166l-.395.868-.957-.186c-.125-.02-.25.041-.312.166l-.395.868-.936-.207c-.124-.02-.25.042-.312.166l-.395.868-.956-.186c-.125-.02-.25.041-.312.165l-.395.869-.957-.186c-.125-.02-.25.041-.312.165l-.395.869-.956-.186c-.125-.021-.25.041-.312.165l-.375.869-.956-.186c-.125-.021-.25.04-.312.165l-.395.868-.832-.165v.558L.9 14.8c.125.021.25-.04.312-.165l.395-.868.956.186c.125.02.25-.042.312-.166l.395-.868.957.186c.125.02.25-.042.312-.166l.395-.868.957.186c.124.02.25-.041.311-.165l.396-.869.956.186c.125.02.25-.041.312-.165l.395-.869.957.186c.062.021.124 0 .187-.02.062-.021.104-.083.125-.124l.395-.869.956.186c.125.02.25-.041.312-.165l.395-.869.957.186c.125.021.25-.041.312-.165l.395-.869.956.187c.125.02.25-.042.312-.166l.395-.868.957.186c.125.02.25-.042.312-.166l.395-.868.957.186c.124.02.25-.041.311-.166l.396-.868.478.103v-.558l-.582-.124c-.167-.02-.292.041-.354.165z" transform="translate(446.000000, 1485.000000)"/>
                <path d="M17.535 3.835c-.125-.02-.25.042-.312.166l-.395.874-.957-.188c-.125-.02-.25.042-.312.167l-.395.873-.957-.187c-.124-.02-.25.041-.311.166l-.396.873-.956-.187c-.125-.02-.25.042-.312.167l-.395.873-.957-.187c-.124-.021-.25.041-.312.166l-.395.873-.956-.187c-.125-.02-.25.042-.312.167l-.395.873-.957-.187c-.125-.021-.25.041-.312.166l-.395.873-.956-.187c-.125-.02-.25.042-.312.167l-.395.873-.957-.187c-.125-.021-.25.041-.312.166l-.395.873-.915-.208c-.125-.02-.25.042-.312.167l-.416.873-.956-.187c-.125-.021-.25.041-.312.166l-.395.873-.25-.062v.561l.374.084c.125.02.25-.042.312-.146l.395-.873.957.187c.125.02.25-.042.312-.166l.395-.874.957.187c.124.021.249-.041.311-.166l.396-.873.956.187c.125.02.25-.042.312-.166l.395-.874.957.187c.124.021.25-.041.312-.166l.395-.873.956.187c.063.02.125 0 .187-.02.063-.022.104-.084.125-.126l.395-.873.957.187c.125.021.25-.041.312-.166l.395-.873.956.187c.125.02.25-.042.312-.166l.395-.874.957.187c.125.021.25-.041.312-.166l.395-.873.957.187c.124.02.25-.042.311-.166l.396-.874.956.188c.125.02.25-.042.312-.167l.395-.873.957.187h.083V3.606l-.187.437-.998-.208z" transform="translate(446.000000, 1485.000000)"/>
                <path d="M18.325 2.096l-.395.872-.957-.187c-.125-.02-.25.042-.312.166l-.395.872-.956-.187c-.125-.02-.25.041-.312.166l-.395.871-.957-.186c-.125-.021-.25.041-.312.166l-.395.871-.957-.187c-.124-.02-.25.042-.312.166l-.395.872-.956-.187c-.125-.02-.25.042-.312.166l-.395.872-.957-.187c-.125-.02-.25.041-.312.166l-.395.871-.956-.186c-.125-.021-.25.041-.312.166l-.395.871-.957-.187c-.125-.02-.25.042-.312.166l-.395.872-.956-.187c-.125-.02-.25.042-.312.166l-.396.872-.956-.187c-.125-.021-.25.041-.312.166l-.395.871-.915-.207c-.125-.021-.25.041-.312.166l-.104.207v1.204c.042-.021.083-.063.104-.125l.395-.871.957.186c.124.021.25-.041.312-.166l.395-.871.956.187c.125.02.25-.042.312-.166l.395-.872.957.187c.125.02.25-.041.312-.166l.395-.871.956.186c.125.021.25-.041.312-.166l.395-.871.957.187c.062.02.125 0 .187-.021.063-.02.104-.083.125-.125l.395-.871.957.187c.124.02.25-.042.311-.166l.396-.872.956.187c.125.02.25-.042.312-.166l.395-.872.957.187c.124.02.25-.041.312-.166l.395-.871.956.186c.125.021.25-.041.312-.166l.395-.871.957.187c.125.02.25-.042.312-.166l.395-.872.956.187c.125.02.25-.042.312-.166l.354-.747V1.93h-.042c-.166-.02-.312.042-.353.166zM24.011 6.341L23.787 6.126 23.787 6.406zM18.428 8.086L17.532 8.106 16.969 8.82 17.178 9.491 16.761 8.946 15.865 8.967 15.302 9.68 15.51 10.352 15.094 9.806 14.197 9.827 13.635 10.54 13.843 11.212 13.426 10.666 12.53 10.687 11.967 11.401 12.176 12.072 11.759 11.527 10.863 11.548 10.3 12.261 10.509 12.932 10.092 12.387 9.196 12.408 8.633 13.121 8.862 13.856 8.404 13.247 7.507 13.289 6.945 14.003 7.132 14.611 6.736 14.108 5.84 14.129 5.298 14.842 5.486 15.45 5.09 14.947 4.194 14.989 3.652 15.702 3.819 16.248 3.464 15.786 2.568 15.828 2.026 16.542 2.214 17.213 1.797 16.646.901 16.688.338 17.402.588 18.199.067 17.549-.037 17.549-.037 18.724 18.72 9.051 18.72 8.463zM.026 10.605L.922 10.584 1.464 9.879 1.297 9.278 1.672 9.776 2.568 9.734 3.11 9.029 2.943 8.428 3.318 8.925 4.215 8.905 4.756 8.2 4.548 7.474 5.007 8.075 5.903 8.034 6.465 7.329 6.257 6.686 6.674 7.225 7.57 7.183 8.133 6.478 7.924 5.836 8.341 6.375 9.237 6.333 9.8 5.628 9.592 4.985 10.008 5.524 10.905 5.483 11.467 4.778 11.259 4.135 11.676 4.674 12.572 4.633 13.135 3.928 12.926 3.285 13.343 3.824 14.239 3.783 14.802 3.077 14.593 2.435 15.01 2.974 15.906 2.932 16.469 2.227 16.261 1.584 16.677 2.124 17.574 2.082 18.136 1.377 17.928.734 18.345 1.273 18.72 1.253 18.72-.033-.037 9.527-.037 10.543z" transform="translate(446.000000, 1485.000000)"/>
            </g>
        </g>
    </g>
</svg>
