<svg xmlns="http://www.w3.org/2000/svg" width="176" height="90" viewBox="0 0 176 90">
    <g fill="none" fill-rule="evenodd">
        <g fill="#EAEAEA" fill-rule="nonzero">
            <g>
                <path d="M0 16L2 16 2 18 0 18zM0 20L2 20 2 22 0 22zM4 16L6 16 6 18 4 18zM4 20L6 20 6 22 4 22zM4 24L6 24 6 26 4 26zM8 16L10 16 10 18 8 18zM8 20L10 20 10 22 8 22zM12 16L14 16 14 18 12 18zM12 20L14 20 14 22 12 22zM8 24L10 24 10 26 8 26zM16 16L18 16 18 18 16 18zM16 20L18 20 18 22 16 22zM16 24L18 24 18 26 16 26zM20 16L22 16 22 18 20 18zM20 20L22 20 22 22 20 22zM20 24L22 24 22 26 20 26zM20 28L22 28 22 30 20 30zM20 32L22 32 22 34 20 34zM24 8L26 8 26 10 24 10zM24 12L26 12 26 14 24 14zM24 16L26 16 26 18 24 18zM24 20L26 20 26 22 24 22zM24 24L26 24 26 26 24 26zM24 28L26 28 26 30 24 30zM24 32L26 32 26 34 24 34zM24 36L26 36 26 38 24 38zM24 40L26 40 26 42 24 42zM28 8L30 8 30 10 28 10zM32 4L34 4 34 6 32 6zM28 12L30 12 30 14 28 14zM28 16L30 16 30 18 28 18zM28 20L30 20 30 22 28 22zM28 24L30 24 30 26 28 26zM28 28L30 28 30 30 28 30zM28 32L30 32 30 34 28 34zM28 36L30 36 30 38 28 38zM28 40L30 40 30 42 28 42zM28 44L30 44 30 46 28 46zM32 12L34 12 34 14 32 14zM32 16L34 16 34 18 32 18zM32 20L34 20 34 22 32 22zM32 24L34 24 34 26 32 26zM32 28L34 28 34 30 32 30zM32 32L34 32 34 34 32 34zM32 36L34 36 34 38 32 38zM32 40L34 40 34 42 32 42zM32 44L34 44 34 46 32 46zM32 48L34 48 34 50 32 50zM36 4L38 4 38 6 36 6zM36 8L38 8 38 10 36 10zM36 12L38 12 38 14 36 14zM40 12L42 12 42 14 40 14zM44 12L46 12 46 14 44 14zM36 16L38 16 38 18 36 18zM36 28L38 28 38 30 36 30zM36 32L38 32 38 34 36 34zM36 36L38 36 38 38 36 38zM36 40L38 40 38 42 36 42zM40 28L42 28 42 30 40 30zM40 32L42 32 42 34 40 34zM40 36L42 36 42 38 40 38zM40 40L42 40 42 42 40 42zM40 52L42 52 42 54 40 54zM44 52L46 52 46 54 44 54zM48 52L50 52 50 54 48 54zM52 52L54 52 54 54 52 54zM44 56L46 56 46 58 44 58zM48 56L50 56 50 58 48 58zM52 56L54 56 54 58 52 58zM56 56L58 56 58 58 56 58zM44 60L46 60 46 62 44 62zM48 60L50 60 50 62 48 62zM52 60L54 60 54 62 52 62zM56 60L58 60 58 62 56 62zM60 60L62 60 62 62 60 62zM44 64L46 64 46 66 44 66zM48 64L50 64 50 66 48 66zM52 64L54 64 54 66 52 66zM56 64L58 64 58 66 56 66zM48 68L50 68 50 70 48 70zM52 68L54 68 54 70 52 70zM56 68L58 68 58 70 56 70zM48 72L50 72 50 74 48 74zM52 72L54 72 54 74 52 74zM48 76L50 76 50 78 48 78zM48 80L50 80 50 82 48 82zM48 84L50 84 50 86 48 86zM52 88L54 88 54 90 52 90zM52 76L54 76 54 78 52 78zM56 72L58 72 58 74 56 74zM60 64L62 64 62 66 60 66zM44 24L46 24 46 26 44 26zM44 28L46 28 46 30 44 30zM44 16L46 16 46 18 44 18zM44 20L46 20 46 22 44 22zM44 32L46 32 46 34 44 34zM48 24L50 24 50 26 48 26zM48 28L50 28 50 30 48 30zM48 16L50 16 50 18 48 18zM48 20L50 20 50 22 48 22zM48 32L50 32 50 34 48 34zM52 28L54 28 54 30 52 30zM52 32L54 32 54 34 52 34zM44 36L46 36 46 38 44 38zM36 48L38 48 38 50 36 50zM40 0L42 0 42 2 40 2zM40 4L42 4 42 6 40 6zM44 0L46 0 46 2 44 2zM44 4L46 4 46 6 44 6zM48 4L50 4 50 6 48 6zM52 4L54 4 54 6 52 6zM52 8L54 8 54 10 52 10zM56 4L58 4 58 6 56 6zM60 4L62 4 62 6 60 6zM64 4L66 4 66 6 64 6zM68 4L70 4 70 6 68 6zM72 4L74 4 74 6 72 6zM90 4L92 4 92 6 90 6zM94 4L96 4 96 6 94 6zM56 8L58 8 58 10 56 10zM60 8L62 8 62 10 60 10zM64 8L66 8 66 10 64 10zM68 8L70 8 70 10 68 10zM56 12L58 12 58 14 56 14zM60 12L62 12 62 14 60 14zM56 16L58 16 58 18 56 18zM60 16L62 16 62 18 60 18zM60 20L62 20 62 22 60 22zM64 12L66 12 66 14 64 14zM68 12L70 12 70 14 68 14zM72 8L74 8 74 10 72 10zM78 28L80 28 80 30 78 30zM74 26L76 26 76 28 74 28zM78 44L80 44 80 46 78 46zM78 48L80 48 80 50 78 50zM78 52L80 52 80 54 78 54zM82 44L84 44 84 46 82 46zM82 48L84 48 84 50 82 50zM82 52L84 52 84 54 82 54zM86 44L88 44 88 46 86 46zM86 48L88 48 88 50 86 50zM86 52L88 52 88 54 86 54zM90 44L92 44 92 46 90 46zM82 40L84 40 84 42 82 42zM86 40L88 40 88 42 86 42zM86 32L88 32 88 34 86 34zM86 28L88 28 88 30 86 30zM90 40L92 40 92 42 90 42zM90 48L92 48 92 50 90 50zM90 52L92 52 92 54 90 54zM90 60L92 60 92 62 90 62zM90 56L92 56 92 58 90 58zM90 64L92 64 92 66 90 66zM94 44L96 44 96 46 94 46zM94 40L96 40 96 42 94 42zM94 48L96 48 96 50 94 50zM94 52L96 52 96 54 94 54zM94 60L96 60 96 62 94 62zM94 56L96 56 96 58 94 58zM94 64L96 64 96 66 94 66zM98 44L100 44 100 46 98 46zM98 48L100 48 100 50 98 50zM98 52L100 52 100 54 98 54zM98 60L100 60 100 62 98 62zM98 56L100 56 100 58 98 58zM102 52L104 52 104 54 102 54zM106 52L108 52 108 54 106 54zM102 60L104 60 104 62 102 62zM102 56L104 56 104 58 102 58zM98 64L100 64 100 66 98 66zM106 68L108 68 108 70 106 70zM106 72L108 72 108 74 106 74zM94 68L96 68 96 70 94 70zM94 72L96 72 96 74 94 74zM90 16L92 16 92 18 90 18zM90 20L92 20 92 22 90 22zM90 28L92 28 92 30 90 30zM90 24L92 24 92 26 90 26zM90 32L92 32 92 34 90 34zM94 16L96 16 96 18 94 18zM94 20L96 20 96 22 94 22zM94 28L96 28 96 30 94 30zM94 24L96 24 96 26 94 26zM98 16L100 16 100 18 98 18zM98 20L100 20 100 22 98 22zM98 28L100 28 100 30 98 30zM98 24L100 24 100 26 98 26zM102 16L104 16 104 18 102 18zM102 20L104 20 104 22 102 22zM102 28L104 28 104 30 102 30zM106 32L108 32 108 34 106 34zM102 24L104 24 104 26 102 26zM106 16L108 16 108 18 106 18zM106 20L108 20 108 22 106 22zM106 28L108 28 108 30 106 30zM106 24L108 24 108 26 106 26zM110 16L112 16 112 18 110 18zM110 20L112 20 112 22 110 22zM110 28L112 28 112 30 110 30zM110 24L112 24 112 26 110 26zM114 16L116 16 116 18 114 18zM114 20L116 20 116 22 114 22zM114 28L116 28 116 30 114 30zM114 24L116 24 116 26 114 26zM118 16L120 16 120 18 118 18zM118 20L120 20 120 22 118 22zM118 28L120 28 120 30 118 30zM118 24L120 24 120 26 118 26zM122 16L124 16 124 18 122 18zM122 20L124 20 124 22 122 22zM122 28L124 28 124 30 122 30zM122 24L124 24 124 26 122 26zM126 16L128 16 128 18 126 18zM126 20L128 20 128 22 126 22zM126 28L128 28 128 30 126 30zM126 24L128 24 128 26 126 26zM130 16L132 16 132 18 130 18zM130 20L132 20 132 22 130 22zM130 28L132 28 132 30 130 30zM130 24L132 24 132 26 130 26zM134 16L136 16 136 18 134 18zM134 20L136 20 136 22 134 22zM134 28L136 28 136 30 134 30zM134 24L136 24 136 26 134 26zM138 16L140 16 140 18 138 18zM138 20L140 20 140 22 138 22zM138 28L140 28 140 30 138 30zM102 40L104 40 104 42 102 42zM106 40L108 40 108 42 106 42zM110 40L112 40 112 42 110 42zM114 40L116 40 116 42 114 42zM118 40L120 40 120 42 118 42zM122 40L124 40 124 42 122 42zM126 40L128 40 128 42 126 42zM130 40L132 40 132 42 130 42zM134 40L136 40 136 42 134 42zM138 40L140 40 140 42 138 42zM106 44L108 44 108 46 106 46zM110 44L112 44 112 46 110 46zM114 44L116 44 116 46 114 46zM118 44L120 44 120 46 118 46zM122 44L124 44 124 46 122 46zM122 48L124 48 124 50 122 50zM122 52L124 52 124 54 122 54zM126 44L128 44 128 46 126 46zM130 44L132 44 132 46 130 46zM134 44L136 44 136 46 134 46zM130 48L132 48 132 50 130 50zM134 48L136 48 136 50 134 50zM134 52L136 52 136 54 134 54zM134 56L136 56 136 58 134 58zM138 56L140 56 140 58 138 58zM142 56L144 56 144 58 142 58zM138 60L140 60 140 62 138 62zM142 60L144 60 144 62 142 62zM152 60L154 60 154 62 152 62zM156 60L158 60 158 62 156 62zM138 44L140 44 140 46 138 46zM138 24L140 24 140 26 138 26zM142 16L144 16 144 18 142 18zM142 20L144 20 144 22 142 22zM142 28L144 28 144 30 142 30zM142 24L144 24 144 26 142 26zM146 16L148 16 148 18 146 18zM146 20L148 20 148 22 146 22zM146 28L148 28 148 30 146 30zM114 32L116 32 116 34 114 34zM118 32L120 32 120 34 118 34zM122 32L124 32 124 34 122 34zM126 32L128 32 128 34 126 34zM130 32L132 32 132 34 130 34zM134 32L136 32 136 34 134 34zM138 32L140 32 140 34 138 34zM142 32L144 32 144 34 142 34zM146 32L148 32 148 34 146 34zM138 68L140 68 140 70 138 70zM142 68L144 68 144 70 142 70zM146 68L148 68 148 70 146 70zM150 68L152 68 152 70 150 70zM138 72L140 72 140 74 138 74zM142 72L144 72 144 74 142 74zM146 72L148 72 148 74 146 74zM150 72L152 72 152 74 150 74zM154 68L156 68 156 70 154 70zM154 72L156 72 156 74 154 74zM146 76L148 76 148 78 146 78zM150 76L152 76 152 78 150 78zM154 76L156 76 156 78 154 78zM158 76L160 76 160 78 158 78zM166 76L168 76 168 78 166 78zM166 80L168 80 168 82 166 82zM114 36L116 36 116 38 114 38zM118 36L120 36 120 38 118 38zM122 36L124 36 124 38 122 38zM126 36L128 36 128 38 126 38zM130 36L132 36 132 38 130 38zM134 36L136 36 136 38 134 38zM138 36L140 36 140 38 138 38zM142 36L144 36 144 38 142 38zM146 24L148 24 148 26 146 26zM150 16L152 16 152 18 150 18zM150 20L152 20 152 22 150 22zM150 28L152 28 152 30 150 30zM150 24L152 24 152 26 150 26zM154 16L156 16 156 18 154 18zM110 12L112 12 112 14 110 14zM114 12L116 12 116 14 114 14zM110 8L112 8 112 10 110 10zM114 8L116 8 116 10 114 10zM118 12L120 12 120 14 118 14zM122 12L124 12 124 14 122 14zM126 12L128 12 128 14 126 14zM130 12L132 12 132 14 130 14zM134 12L136 12 136 14 134 14zM126 8L128 8 128 10 126 10zM130 8L132 8 132 10 130 10zM130 4L132 4 132 6 130 6zM134 8L136 8 136 10 134 10zM138 12L140 12 140 14 138 14zM142 12L144 12 144 14 142 14zM146 12L148 12 148 14 146 14zM150 12L152 12 152 14 150 14zM154 12L156 12 156 14 154 14zM154 8L156 8 156 10 154 10zM154 20L156 20 156 22 154 22zM158 16L160 16 160 18 158 18zM158 20L160 20 160 22 158 22zM162 16L164 16 164 18 162 18zM162 20L164 20 164 22 162 22zM166 16L168 16 168 18 166 18zM170 16L172 16 172 18 170 18zM174 16L176 16 176 18 174 18zM166 20L168 20 168 22 166 22zM162 24L164 24 164 26 162 26zM94 32L96 32 96 34 94 34zM98 36L100 36 100 38 98 38zM102 36L104 36 104 38 102 38zM82 32L84 32 84 34 82 34zM82 24L84 24 84 26 82 26zM78 24L80 24 80 26 78 26zM82 20L84 20 84 22 82 22zM82 28L84 28 84 30 82 30z" transform="translate(-155 -4410) translate(155 4410)"/>
            </g>
        </g>
    </g>
</svg>
