<svg xmlns="http://www.w3.org/2000/svg" width="21" height="18" viewBox="0 0 21 18">
    <defs>
        <filter id="ofzsiyke9a">
            <feColorMatrix in="SourceGraphic" values="0 0 0 0 0.549020 0 0 0 0 0.549020 0 0 0 0 0.549020 0 0 0 1.000000 0"/>
        </filter>
    </defs>
    <g fill="none" fill-rule="evenodd">
        <g filter="url(#ofzsiyke9a)" transform="translate(-446.000000, -1527.000000)">
            <g fill="#000" fill-rule="nonzero">
                <path d="M17.305 17.59c-1.336 0-2.423-1.088-2.423-2.424 0-1.336 1.087-2.423 2.423-2.423 1.337 0 2.424 1.087 2.424 2.423s-1.087 2.423-2.424 2.423zm0-3.861c-.792 0-1.437.645-1.437 1.437 0 .793.645 1.438 1.437 1.438.793 0 1.438-.645 1.438-1.438 0-.793-.645-1.437-1.438-1.437z" transform="translate(446.025698, 1527.000000)"/>
                <path d="M14.093 15.589c-.233 0-.423-.19-.423-.423 0-2.004 1.632-3.635 3.636-3.635.97 0 1.884.378 2.57 1.065.165.165.165.432 0 .597-.165.165-.433.165-.597 0-.527-.527-1.228-.817-1.973-.817-1.539 0-2.79 1.252-2.79 2.79 0 .234-.19.423-.423.423zM7.31 2.64c-.07-.148-.114-.311-.134-.49-.06-.524.077-.996.41-1.416.334-.42.763-.66 1.288-.72.447-.052.856.04 1.226.277.37.237.636.552.798.948l-.498.057c.017.037.04.19.071.458.04.344-.05.66-.27.944-.22.284-.51.446-.867.487-.434.05-.807-.095-1.118-.435-.062-.083-.108-.15-.14-.198l-.766.087zM15.37 5.843c-.76.034-1.361.527-1.361 1.132 0 .604.601 1.097 1.36 1.132V5.843z" transform="translate(446.025698, 1527.000000)"/>
                <path d="M15.203 10.395c-.076-.253-1.093-2.437-1.403-3.1-.07-.15-.219-.244-.383-.244h-.741c.15-.108.248-.282.248-.48 0-.328-.265-.592-.592-.592h-2.108l-.728-2.005c-.017-.046-.04-.088-.066-.127-.065-.132-.16-.244-.296-.319-.31-.169-.773-.219-1.071-.134-.296.085-.687.254-.856.814l-.928 3.938c-.036.165-.02.416.05.61.114.31.466.704.89.76l2.514.225H2.864c-.269 0-.495.233-.487.488.007.218.294.666.511.975-1.57.91-2.856 3.455-2.856 3.455s-.035.078-.032.169c.007.233.19.423.423.423h.853c.045 1.296 1.112 2.338 2.42 2.338 1.307 0 2.373-1.042 2.418-2.338h5.542c.038 0 .946-.01 1.53-.885.138-.188 1.904-2.599 2.022-3.07.102-.41.101-.545-.005-.9zM3.695 16.604c-.764 0-1.39-.6-1.433-1.353h2.866c-.044.753-.669 1.353-1.433 1.353zm3.182-2.533c-.037.102-.134.165-.237.165-.03 0-.06-.005-.088-.016-.132-.048-.198-.194-.15-.326.003-.009.355-1-.196-1.796-.345-.498-1.37-.498-1.735-.456-.139.016-.265-.084-.28-.223-.017-.139.083-.265.222-.28.066-.008 1.623-.177 2.21.67.704 1.017.273 2.211.254 2.262zm7.515-2.996c-.106.289-1.306 2-1.893 2.798l-.013.018c-.327.495-.815.514-.83.514h-2.01c-.61-.443-1.285-1.18-1.16-2.226.14-1.183 1.56-1.84 1.634-2.17.034-.152-.044-.216-.112-.243l1.376.123-1.123 3.333c-.113.45.24.817.45.887.377.126.987.07 1.212-.887.048-.204 1.198-3.72 1.198-3.72.169-.55-.296-1.17-.929-1.26l-3.26-.538.08-.378c-.009-.012-.923-1.854-.923-1.854-.062-.126-.01-.278.115-.34s.278-.01.34.115l.853 1.723c.068.132.263.193.413.193h2.054c-.084.077-.138.187-.138.31 0 .234.19.423.423.423h.998c.583 1.251 1.19 2.579 1.245 2.742.06.196.06.196 0 .437z" transform="translate(446.025698, 1527.000000)"/>
            </g>
        </g>
    </g>
</svg>
