<svg xmlns="http://www.w3.org/2000/svg" width="60" height="60" viewBox="0 0 60 60">
    <g fill="none" fill-rule="evenodd">
        <g>
            <g>
                <g>
                    <path fill="#0050A8" fill-rule="nonzero" d="M31.1 0C47.158.579 60 13.784 60 29.99c.004 3.516-.616 7.004-1.83 10.303 1.176 1.284 1.829 2.961 1.83 4.702v8.003c-.004 3.865-3.136 6.998-7 7.002H7c-3.864-.004-6.996-3.137-7-7.002v-8.003c.001-1.74.654-3.418 1.83-4.702C.616 36.994-.004 33.506 0 29.99 0 14.708 11.419 2.094 26.187.22c1.049.325 1.218.98.508 1.963-5.7.679-11.174 3.105-15.589 7.142C2.917 16.815-.078 28.436 3.47 38.953c1.072-.626 2.29-.957 3.53-.96h6.89c-1.239-2.486-1.885-5.225-1.89-8.003 0-1.18.116-2.355.35-3.511.27-1.393.71-2.747 1.31-4.031 2.641-5.668 8.016-9.573 14.22-10.334 1.408-.17 2.832-.17 4.24 0 6.204.76 11.579 4.666 14.22 10.334.602 1.287 1.042 2.645 1.31 4.04.234 1.153.351 2.326.35 3.502-.005 2.778-.651 5.517-1.89 8.003H53c1.24.003 2.458.334 3.53.96.977-2.887 1.474-5.915 1.47-8.963-.003-11.1-6.558-21.15-16.712-25.625-3.26-1.437-6.693-2.212-10.123-2.354-.847-.656-.885-1.313-.114-1.97zm22.62 52.247L49.05 55.8c-.358.271-.852.271-1.21 0l-4.67-3.542L38.5 55.8c-.36.266-.85.266-1.21 0l-4.67-3.542-4.66 3.542c-.358.271-.852.271-1.21 0l-4.67-3.542-4.67 3.542c-.358.271-.852.271-1.21 0l-4.66-3.542L6.88 55.8c-.358.271-.852.271-1.21 0L2 53.018c.017 2.752 2.249 4.975 5 4.981h46c1.934-.005 3.692-1.127 4.51-2.88l-3.79-2.872zm0-7.002l-4.67 3.551c-.358.272-.852.272-1.21 0l-4.67-3.54-4.67 3.54c-.36.267-.85.267-1.21 0l-4.67-3.54-4.66 3.54c-.358.272-.852.272-1.21 0l-4.67-3.54-4.67 3.54c-.358.272-.852.272-1.21 0l-4.66-3.54-4.66 3.54c-.358.272-.852.272-1.21 0L2 46.006v4.49l4.27 3.242 4.66-3.541c.358-.272.852-.272 1.21 0l4.67 3.54 4.66-3.54c.358-.272.852-.272 1.21 0l4.67 3.54 4.67-3.54c.358-.272.852-.272 1.21 0l4.67 3.54 4.66-3.54c.358-.272.852-.272 1.21 0l4.67 3.55 4.68-3.55c.358-.272.852-.272 1.21 0l3.67 2.79v-4.49l-4.28-3.252zM53 39.993H7c-2.236.01-4.194 1.506-4.79 3.662l4.06 3.08 4.66-3.54c.358-.272.852-.272 1.21 0l4.67 3.54 4.66-3.54c.358-.272.852-.272 1.21 0l4.67 3.54 4.67-3.54c.358-.272.852-.272 1.21 0l4.67 3.54 4.66-3.54c.358-.272.852-.272 1.21 0l4.67 3.55 4.68-3.55c.358-.272.852-.272 1.21 0l3.67 2.79v-.99c0-2.762-2.239-5.002-5-5.002zM31.88 14.095c-1.249-.15-2.511-.15-3.76 0-.26.03-.52.08-.77.12l.44 7.973c.012.274-.088.541-.276.741-.188.2-.45.315-.724.319-.285-.003-.556-.122-.75-.33l-5.31-5.942c-1.446 1.033-2.713 2.297-3.75 3.741l5.95 5.312c.315.285.415.738.25 1.13-.15.376-.515.622-.92.62h-.06l-7.96-.44c-.156.875-.236 1.762-.24 2.651.001.889.078 1.775.23 2.651l7.97-.44c.424-.02.815.228.98.62.165.392.065.845-.25 1.13l-4.52 4.042h6.8l.84-.93c.285-.316.737-.416 1.129-.252.391.164.636.558.611.982l-.01.2h4.44l-.01-.2c-.025-.424.22-.818.611-.982.392-.164.844-.064 1.129.251l.84.93h6.8l-4.52-4.04c-.313-.288-.413-.74-.25-1.132.164-.392.556-.64.98-.62l7.97.441c.152-.876.229-1.762.23-2.65-.004-.89-.084-1.777-.24-2.652l-7.96.44h-.06c-.405.002-.77-.244-.92-.62-.165-.392-.065-.845.25-1.13l5.95-5.312c-1.037-1.444-2.304-2.708-3.75-3.741l-5.31 5.942c-.194.208-.465.327-.75.33-.274-.004-.536-.12-.724-.319-.188-.2-.288-.467-.276-.741l.44-7.973c-.25-.04-.51-.09-.77-.12zm8.65 20.267l3.56 3.18c.505-.929.914-1.908 1.22-2.92l-4.78-.26zm-21.06 0l-4.78.26c.306 1.012.715 1.991 1.22 2.92l3.56-3.18zm-3.56-11.924c-.15.28-.3.56-.43.85-.306.672-.566 1.364-.78 2.07l4.77.26zm28.18 0l-3.56 3.18 4.77-.26c-.214-.706-.474-1.398-.78-2.07-.13-.29-.28-.57-.43-.85zm-18.72-7.753c-1.01.307-1.988.713-2.92 1.21l3.18 3.562zm9.26 0l-.26 4.772 3.18-3.562c-.932-.497-1.91-.903-2.92-1.21z" transform="translate(-126.000000, -1000.000000) translate(126.000000, 1000.000016) translate(-0.000000, 0.000000)"/>
                    <path fill="#FF7B00" d="M22.2 27.78h.06c.405 0 .77-.245.92-.62.165-.393.065-.846-.25-1.131l-5.95-5.312c1.037-1.444 2.304-2.708 3.75-3.741l5.31 5.942c.194.208.465.327.75.33.274-.004.536-.12.724-.319.188-.2.288-.467.276-.741l-.44-7.973c.25-.04.51-.09.77-.12 1.249-.15 2.511-.15 3.76 0 .26.03.52.08.77.12l-.44 7.973c-.012.274.088.541.276.741.188.2.45.315.724.319.285-.003.556-.122.75-.33l5.31-5.942c1.446 1.033 2.713 2.297 3.75 3.741l-5.95 5.312c-.315.285-.415.738-.25 1.13.15.376.515.622.92.62h.06l7.96-.44c.156.875.236 1.762.24 2.651-.001.889-.078 1.775-.23 2.651l-7.97-.44c-.424-.02-.816.227-.98.619-.163.392-.063.844.25 1.131l4.52 4.042h-6.8l-.84-.93c-.285-.316-.737-.416-1.129-.252-.391.164-.636.558-.611.982l.01.2h-4.44l.01-.2c.025-.424-.22-.818-.611-.982-.392-.164-.844-.064-1.129.251l-.84.93h-6.8l4.52-4.04c.315-.286.415-.74.25-1.131-.165-.392-.556-.64-.98-.62l-7.97.44c-.152-.876-.229-1.762-.23-2.65.004-.89.084-1.777.24-2.652l7.96.44z" transform="translate(-126.000000, -1000.000000) translate(126.000000, 1000.000016) translate(-0.000000, 0.000000)"/>
                    <path fill="#0050A8" fill-rule="nonzero" d="M30 34.614c2.549 0 4.615-2.066 4.615-4.615 0-2.55-2.066-4.616-4.615-4.616-2.549 0-4.615 2.067-4.615 4.616.003 2.548 2.067 4.612 4.615 4.615zm0-7.384c1.53 0 2.77 1.24 2.77 2.769 0 1.53-1.24 2.77-2.77 2.77s-2.77-1.24-2.77-2.77 1.24-2.77 2.77-2.77z" transform="translate(-126.000000, -1000.000000) translate(126.000000, 1000.000016) translate(-0.000000, 0.000000)"/>
                    <path fill="#FFF" d="M30 27.23c1.53 0 2.77 1.24 2.77 2.769 0 1.53-1.24 2.77-2.77 2.77s-2.77-1.24-2.77-2.77 1.24-2.77 2.77-2.77z" transform="translate(-126.000000, -1000.000000) translate(126.000000, 1000.000016) translate(-0.000000, 0.000000)"/>
                </g>
            </g>
        </g>
    </g>
</svg>
