<svg xmlns="http://www.w3.org/2000/svg" width="15" height="20" viewBox="0 0 15 20">
    <defs>
        <filter id="9xd1hps6ma">
            <feColorMatrix in="SourceGraphic" values="0 0 0 0 0.549020 0 0 0 0 0.549020 0 0 0 0 0.549020 0 0 0 1.000000 0"/>
        </filter>
    </defs>
    <g fill="none" fill-rule="evenodd">
        <g filter="url(#9xd1hps6ma)" transform="translate(-1248.000000, -1529.000000)">
            <g fill="#000" fill-rule="nonzero">
                <path d="M10.209 0c-2.08 0-3.84 4.578-3.84 10s1.76 10 3.84 10 3.835-4.578 3.835-10S12.29 0 10.21 0zm.475 17.124c-.484 0-1.195-.31-1.8-1.782-.092-.225-.172-.455-.24-.689-.006-.01-.01-.023-.013-.035-.425-1.514-.632-3.081-.613-4.654-.019-1.573.188-3.142.613-4.657.005-.01.005-.023.009-.036.076-.24.156-.471.24-.68.609-1.48 1.32-1.787 1.804-1.787 1.734 0 2.672 3.69 2.672 7.16 0 3.472-.938 7.16-2.672 7.16zM5.173 18.164l-1.409-.426c.457.786 1.131 1.422 1.943 1.83.346.15.708.257 1.08.32-.65-.459-1.198-1.045-1.614-1.724zM4.702 17.324c-.24-.492-.443-1.002-.609-1.524l-1.386-.44c.159.528.358 1.044.595 1.542l1.4.422zM2.191 13.053c.08.538.182 1.054.302 1.543l1.378.435c-.124-.471-.231-.969-.315-1.484l-1.365-.494zM3.444 12.8c-.057-.467-.097-.951-.128-1.449l-1.33-.573c.018.524.058 1.035.112 1.533l1.346.489zM1.969 9.964c0 .027.004.054.004.08l1.311.57c-.004-.218-.008-.432-.008-.65 0-.306.008-.595.017-.888l-1.27-.56c-.032.462-.054.942-.054 1.448zM3.489 6.836L2.31 6.164c-.102.512-.178 1.063-.235 1.65l1.257.55c.036-.533.085-1.048.156-1.528zM2.956 3.907c-.199.514-.364 1.041-.494 1.577l1.151.654c.103-.563.24-1.12.41-1.667l-1.067-.564z" transform="translate(1248.541628, 1529.000000)"/>
                <path d="M8.551.053c-.263.06-.52.148-.764.263-.579.285-1.09.691-1.498 1.19l.147-.03c.086-.022.177-.008.253.039.075.047.128.122.147.21.02.086.006.176-.041.252-.047.075-.122.128-.208.147l-.894.21c-.284.477-.527.978-.724 1.497l.644-.16c.178-.04.355.07.399.246.043.177-.063.356-.239.403l-1.062.258c-.164.53-.3 1.069-.409 1.613l.831-.231c.116-.037.243-.008.33.076.089.083.125.208.094.326-.031.117-.124.208-.241.238l-1.143.32c-.075.493-.133.991-.169 1.48l.867-.227c.117-.035.244-.004.33.082.087.086.12.212.087.33-.034.117-.129.206-.248.233l-1.08.284c-.013.294-.018.582-.018.862 0 .25.01.485.014.72l.87-.253c.177-.047.358.056.409.231.05.175-.048.359-.222.414l-1.026.297c.03.538.075 1.054.142 1.538l.902-.235c.178-.047.36.06.407.237.046.178-.06.36-.238.407l-.964.253c.09.526.209 1.047.355 1.56l.711-.19c.18-.047.362.06.41.24.046.178-.062.361-.24.408l-.68.178c.205.599.465 1.178.777 1.729l.52-.138c.085-.023.176-.012.252.033.076.044.13.117.152.203.048.178-.057.36-.235.408l-.311.08c.43.661 1.029 1.196 1.733 1.552.275.124.56.222.853.293-1.67-1.542-2.83-5.356-2.83-9.929 0-4.591 1.168-8.413 2.848-9.947zM5.4 1.591C5.819.982 6.344.454 6.951.031c-.393.044-.776.154-1.133.325-.385.186-.739.43-1.05.724l.632.511zM5.036 2.151l-.725-.587c-.439.526-.807 1.107-1.093 1.73l1.026.537c.211-.583.476-1.146.792-1.68z" transform="translate(1248.541628, 1529.000000)"/>
                <path d="M2.884 17.564l-.302.08c-.179.046-.361-.063-.406-.242-.046-.179.063-.361.242-.406l.164-.04c-.252-.573-.463-1.162-.63-1.765l-.459.116c-.115.029-.237-.005-.32-.09-.083-.085-.114-.208-.082-.322.032-.115.123-.203.238-.233l.458-.115c-.111-.503-.21-1.027-.285-1.57l-.466.134c-.116.037-.243.008-.33-.075-.09-.084-.125-.21-.094-.327.031-.117.123-.208.241-.238l.574-.164c-.054-.52-.094-1.058-.107-1.61l-.449.112c-.115.03-.237-.005-.32-.09-.083-.085-.114-.208-.082-.322.032-.115.123-.203.238-.233l.6-.15c0-.018-.005-.036-.005-.05 0-.528.022-1.026.054-1.51l-.436.11c-.115.029-.237-.006-.32-.091C.52 8.387.489 8.264.52 8.15c.034-.114.125-.201.24-.23l.649-.164c.058-.57.138-1.103.235-1.61l-.355.112c-.113.036-.237.01-.325-.07-.087-.079-.126-.2-.102-.315.025-.116.11-.21.222-.246l.725-.236c.118-.497.265-.987.44-1.467l-.32.08c-.178.046-.359-.062-.405-.24-.045-.18.064-.363.245-.408l.791-.2c.239-.532.527-1.04.862-1.516-.154.005-.291-.099-.329-.249-.043-.179.066-.36.245-.404L4.116.8c.28-.294.596-.553.937-.773-.418.035-.826.146-1.204.329C1.987 1.236 0 4.222 0 9.964c0 4.81 1.467 8.578 3.738 9.605.384.164.787.277 1.2.338-.875-.591-1.583-1.398-2.054-2.343zM10.684 3.471c-.395 0-.826.498-1.186 1.373-.067.16-.13.334-.187.512.295.564.54 1.153.733 1.76.247.927.368 1.884.36 2.844.013 1.041-.132 2.078-.43 3.076-.185.525-.407 1.038-.663 1.533.058.182.125.355.191.52.356.871.787 1.369 1.182 1.369.947 0 2.005-2.667 2.005-6.494 0-3.826-1.058-6.493-2.005-6.493z" transform="translate(1248.541628, 1529.000000)"/>
                <path d="M9.738 9.96c.008-.899-.106-1.794-.338-2.662-.095-.324-.214-.64-.356-.947-.246 1.189-.366 2.4-.36 3.613-.006 1.213.114 2.422.36 3.61.112-.243.21-.49.294-.743.28-.93.414-1.9.4-2.871z" transform="translate(1248.541628, 1529.000000)"/>
            </g>
        </g>
    </g>
</svg>
