<svg xmlns="http://www.w3.org/2000/svg" width="13" height="20" viewBox="0 0 13 20">
    <defs>
        <filter id="zo0jhiptea">
            <feColorMatrix in="SourceGraphic" values="0 0 0 0 0.549020 0 0 0 0 0.549020 0 0 0 0 0.549020 0 0 0 1.000000 0"/>
        </filter>
        <filter id="ki0bbajjgb">
            <feColorMatrix in="SourceGraphic" values="0 0 0 0 1.000000 0 0 0 0 1.000000 0 0 0 0 1.000000 0 0 0 1.000000 0"/>
        </filter>
    </defs>
    <g fill="none" fill-rule="evenodd">
        <g filter="url(#zo0jhiptea)" transform="translate(-849.000000, -1485.000000)">
            <g>
                <g filter="url(#ki0bbajjgb)" transform="translate(849.000000, 1485.000000)">
                    <g fill="#000" fill-rule="nonzero">
                        <path d="M8.75 0C6.968 0 5.46 3.924 5.46 8.571c0 4.648 1.509 8.572 3.291 8.572 1.783 0 3.288-3.924 3.288-8.572C12.038 3.924 10.533 0 8.75 0zm.408 14.678c-.415 0-1.025-.267-1.543-1.528-.08-.192-.148-.39-.205-.59-.006-.01-.01-.02-.012-.03-.365-1.298-.542-2.641-.526-3.989-.016-1.35.161-2.694.526-3.992.004-.008.004-.02.008-.03.064-.207.133-.405.205-.584.522-1.268 1.132-1.531 1.547-1.531 1.486 0 2.29 3.162 2.29 6.137 0 2.975-.804 6.137-2.29 6.137zM4.434 15.57l-1.207-.366c.39.673.97 1.219 1.664 1.57.297.127.608.219.926.274-.556-.394-1.027-.897-1.383-1.478zM4.03 14.85c-.205-.423-.38-.86-.521-1.307l-1.189-.377c.137.453.307.894.51 1.322l1.2.362zM1.878 11.189c.069.46.156.902.26 1.321l1.18.374c-.107-.404-.198-.83-.27-1.273l-1.17-.422zM2.952 10.971c-.05-.4-.083-.815-.11-1.241l-1.14-.492c.016.45.05.888.096 1.314l1.154.42zM1.688 8.541l.003.069 1.124.487c-.004-.187-.007-.37-.007-.556 0-.263.007-.51.015-.762l-1.09-.48c-.026.396-.045.808-.045 1.242zM2.99 5.859l-1.009-.575c-.088.438-.152.91-.202 1.413l1.078.473c.03-.458.073-.9.133-1.311zM2.533 3.349c-.17.44-.311.892-.423 1.352l.987.56c.088-.483.205-.96.35-1.429l-.914-.483z" transform="translate(0.000000, 0.000000)"/>
                        <path d="M7.33.046c-.226.05-.446.126-.656.224-.496.245-.933.593-1.284 1.021l.126-.026c.074-.019.152-.007.217.033s.11.106.126.18c.018.074.005.152-.035.216-.04.065-.104.11-.178.127L4.88 2c-.244.41-.452.839-.621 1.284l.552-.137c.153-.035.304.059.342.21.037.152-.054.306-.204.346l-.91.22c-.142.455-.259.917-.351 1.384l.712-.198c.1-.032.208-.007.283.064.076.072.106.18.08.28-.027.1-.106.179-.207.204l-.979.274c-.065.423-.114.85-.145 1.269l.743-.194c.1-.03.209-.004.284.07.074.073.102.182.073.282-.028.1-.11.177-.212.2l-.926.244c-.011.251-.015.499-.015.739 0 .213.008.415.011.617l.747-.217c.151-.04.307.048.35.198.044.15-.04.307-.19.354l-.88.256c.027.46.065.902.122 1.318l.773-.202c.153-.04.309.051.349.204.04.152-.051.308-.204.348l-.827.217c.078.451.18.897.305 1.337l.61-.163c.153-.04.31.052.35.205.04.154-.052.31-.205.35l-.583.153c.176.514.4 1.01.666 1.482l.446-.118c.073-.02.15-.01.216.028.065.038.112.1.13.174.042.152-.049.31-.201.35l-.267.069c.37.566.882 1.025 1.486 1.33.235.106.48.19.731.25-1.432-1.321-2.426-4.59-2.426-8.51C4.888 4.636 5.89 1.36 7.33.046zM4.629 1.364c.359-.522.81-.975 1.33-1.337-.338.038-.666.132-.972.278-.33.16-.633.369-.9.62l.542.439zM4.316 1.844l-.62-.503c-.377.45-.692.949-.938 1.482l.88.46c.181-.5.408-.981.678-1.44z" transform="translate(0.000000, 0.000000)"/>
                        <path d="M2.472 15.055l-.259.069c-.153.039-.31-.054-.348-.208-.04-.153.054-.31.207-.348l.141-.035c-.216-.49-.397-.996-.54-1.512l-.393.099c-.099.025-.203-.004-.274-.077-.072-.073-.098-.178-.07-.276.027-.098.104-.174.203-.2l.392-.098c-.095-.43-.179-.88-.243-1.345l-.4.114c-.1.032-.208.007-.284-.065-.075-.071-.106-.178-.08-.28.027-.1.106-.178.207-.203l.492-.141c-.046-.446-.08-.907-.092-1.38l-.384.096C.648 9.29.543 9.26.472 9.188c-.07-.073-.098-.178-.07-.276.027-.099.105-.174.204-.2l.514-.13c0-.014-.004-.03-.004-.041 0-.453.02-.88.046-1.295l-.373.095c-.1.024-.203-.006-.274-.079-.07-.073-.097-.178-.068-.276.028-.098.106-.173.204-.197l.557-.141c.05-.488.118-.945.202-1.38l-.305.096c-.097.031-.203.008-.278-.06-.076-.068-.11-.17-.088-.27.021-.1.094-.18.19-.211l.621-.202c.102-.426.228-.846.378-1.257l-.275.068c-.152.04-.307-.053-.346-.205-.04-.155.055-.312.21-.35l.677-.172c.205-.456.452-.89.74-1.3-.133.005-.25-.084-.283-.213-.037-.153.057-.308.21-.346l.667-.16c.24-.252.51-.474.803-.663-.358.03-.708.126-1.032.282C1.703 1.059 0 3.619 0 8.54c0 4.122 1.257 7.352 3.204 8.232.329.14.675.238 1.028.29-.75-.506-1.356-1.198-1.76-2.008zM9.158 2.975c-.339 0-.708.427-1.017 1.177-.057.138-.11.286-.16.438.253.484.463.989.629 1.509.21.795.314 1.615.308 2.438.011.893-.113 1.781-.37 2.636-.158.451-.348.89-.567 1.315.05.156.107.304.164.445.305.747.674 1.174 1.013 1.174.812 0 1.718-2.286 1.718-5.566S9.97 2.975 9.158 2.975z" transform="translate(0.000000, 0.000000)"/>
                        <path d="M8.347 8.537c.007-.77-.09-1.538-.29-2.282-.081-.277-.183-.549-.305-.811-.21 1.019-.314 2.057-.308 3.097-.006 1.039.097 2.076.308 3.093.096-.207.18-.42.252-.636.24-.798.355-1.628.343-2.46z" transform="translate(0.000000, 0.000000)"/>
                    </g>
                </g>
                <path fill="#FFF" d="M8.571 17.143L4.286 17.143 0 19.286 4.286 20z" transform="translate(849.000000, 1485.000000)"/>
            </g>
        </g>
    </g>
</svg>
