<svg xmlns="http://www.w3.org/2000/svg" width="20" height="20" viewBox="0 0 20 20">
    <defs>
        <filter id="fcv3mko2va">
            <feColorMatrix in="SourceGraphic" values="0 0 0 0 0.549020 0 0 0 0 0.549020 0 0 0 0 0.549020 0 0 0 1.000000 0"/>
        </filter>
    </defs>
    <g fill="none" fill-rule="evenodd">
        <g>
            <g fill="#000" fill-rule="nonzero" filter="url(#fcv3mko2va)" transform="translate(-448 -1608) translate(448 1608)">
                <path d="M14.305 16.071c.234-.56.603-1.031 1.052-1.39-.15.018-.298.03-.443.03-.759 0-1.452-.262-2.044-.782-.872.811-1.992 1.33-3.227 1.415.026.26.087.501.176.727h4.486zM13.929 9.464c0-2.658-2.163-4.821-4.822-4.821-2.659 0-4.821 2.163-4.821 4.821 0 2.659 2.162 4.822 4.821 4.822s4.822-2.163 4.822-4.822zm-8.61 0c0-2.092 1.696-3.788 3.788-3.788 2.092 0 3.788 1.696 3.788 3.788 0 2.092-1.696 3.789-3.788 3.789-2.092 0-3.788-1.697-3.788-3.789zM8.929 16.071c-.069-.233-.115-.478-.136-.733-1.238-.078-2.363-.595-3.24-1.41-.465.61-.636 1.33-.516 2.143H8.93zM18.337 5.268l-.552.552-.493-.493.738-.738c-.123-.242-.257-.476-.402-.704l-.89.889-.492-.493.978-.978c-.159-.209-.327-.41-.504-.602l-1.027 1.027-.493-.493 1.027-1.027c-.193-.177-.393-.345-.602-.504l-.978.978-.493-.492.89-.89c-.228-.144-.463-.279-.704-.401l-.738.738-.493-.493.552-.552C12.747.227 11.753.018 10.714 0l8.215 8.214c-.019-1.039-.227-2.032-.592-2.946zM3.69 10c-1.288.154-1.937 1.26-2.261 2.24.255.879.641 1.709 1.151 2.468.716.169 1.349.66 1.721 1.363-.116-.995.124-1.897.699-2.648C4.25 12.5 3.77 11.31 3.69 10zM18.571 8.887l-8.53-8.53c-.213.16-.362.4-.398.676l8.252 8.253c.277-.036.516-.186.676-.399z"/>
                <path d="M9.653 4.182c2.797.164 5.04 2.358 5.224 5.104.607-.064 1.127-.309 1.552-.73l-7.25-7.127c-.45.007-.892.05-1.322.125 1.073.606 1.695 1.51 1.796 2.628zM16.227 17.143l.877-1.811 2.896.332c-.5-.856-1.379-1.378-2.348-1.378-1.169 0-2.216.765-2.608 1.904l-.08.239H4.043l-.093-.204C3.608 15.481 2.872 15 2.077 15 .93 15 0 15.961 0 17.143s.931 2.143 2.077 2.143c.795 0 1.53-.481 1.874-1.225l.093-.204h10.919l.081.238c.391 1.14 1.439 1.905 2.608 1.905.969 0 1.849-.522 2.348-1.378l-2.896.332-.877-1.811zm-14.15 1.071c-.574 0-1.039-.48-1.039-1.071 0-.592.465-1.072 1.038-1.072.574 0 1.039.48 1.039 1.072 0 .592-.465 1.071-1.039 1.071zM5.633 5.357c.89-.749 2.035-1.228 3.296-1.308-.118-1.052-.842-1.812-2.161-2.263C5.024 2.316 3.53 3.379 2.5 4.77c1.184-.301 2.266-.103 3.133.586zM3.713 9.272C3.784 7.997 4.256 6.838 5 5.934c-.823-.708-1.847-.766-3.05-.165-.56 1.15-.879 2.454-.879 3.836 0 .497.044.987.123 1.466.58-1.075 1.448-1.699 2.519-1.8zM17.5 10.009l-.713-.723c-.524.539-1.17.841-1.927.907-.071 1.216-.544 2.322-1.289 3.185.825.676 1.85.73 3.056.158.553-1.089.853-2.291.873-3.527zM9.907 10.75l1.034 1.035.487-.487-1.034-1.034c.064-.135.103-.284.103-.443 0-.159-.039-.308-.103-.442l1.035-1.035-.487-.486-1.035 1.034c-.134-.064-.283-.103-.442-.103-.16 0-.308.039-.443.103L7.987 7.857l-.487.487 1.035 1.035c-.064.135-.103.284-.103.443 0 .159.04.308.103.442L7.501 11.3l.486.487 1.035-1.035c.135.064.284.103.443.103.159 0 .308-.04.442-.103z"/>
            </g>
        </g>
    </g>
</svg>
