<svg xmlns="http://www.w3.org/2000/svg" width="20" height="12" viewBox="0 0 20 12">
    <defs>
        <filter id="78d5kytaia">
            <feColorMatrix in="SourceGraphic" values="0 0 0 0 0.549020 0 0 0 0 0.549020 0 0 0 0 0.549020 0 0 0 1.000000 0"/>
        </filter>
    </defs>
    <g fill="none" fill-rule="evenodd">
        <g filter="url(#78d5kytaia)" transform="translate(-848 -1533)">
            <g fill="#000" fill-rule="nonzero">
                <path d="M12.24 4.848l-1.593 2.55c-.178-.043-.364-.066-.556-.066-1.222 0-2.212.936-2.212 2.091 0 1.156.99 2.092 2.212 2.092 1.221 0 2.212-.936 2.212-2.092 0-.554-.229-1.057-.6-1.431l1.63-2.612c-.342-.211-.708-.39-1.094-.532z" transform="translate(848 1533)"/>
                <path d="M18.952 5.674l-1.263.751-.586-1.045 1.261-.75c-.75-1.17-1.723-2.173-2.858-2.945l-.725 1.294-1.016-.603.727-1.296C13.305.463 11.983.084 10.586 0v1.577H9.414V0C8.017.084 6.695.463 5.509 1.08l.726 1.296-1.015.603-.726-1.294C3.359 2.457 2.386 3.46 1.636 4.63l1.261.75-.586 1.046-1.263-.75C.45 6.896.081 8.257 0 9.696h3.17C3.467 6.085 6.416 3.239 10 3.239s6.532 2.846 6.83 6.458H20c-.081-1.44-.45-2.8-1.048-4.023z" transform="translate(848 1533)"/>
            </g>
        </g>
    </g>
</svg>
