<svg xmlns="http://www.w3.org/2000/svg" width="18" height="16" viewBox="0 0 18 16">
    <defs>
        <filter id="ej401wga0a">
            <feColorMatrix in="SourceGraphic" values="0 0 0 0 0.549020 0 0 0 0 0.549020 0 0 0 0 0.549020 0 0 0 1.000000 0"/>
        </filter>
    </defs>
    <g fill="none" fill-rule="evenodd">
        <g>
            <g filter="url(#ej401wga0a)" transform="translate(-449 -1571) translate(449 1568)">
                <g>
                    <path fill="#000" fill-rule="nonzero" d="M13.179 0C11.604 0 10.096.637 9 1.768 7.904.638 6.396-.001 4.821 0 2.115 0 0 2.353 0 5.355c0 2.109 1.131 6.216 8.71 10.003.183.092.397.092.58 0C16.868 11.57 18 7.464 18 5.355 18 2.353 15.885 0 13.179 0zm-2.25 8.357H9.643v1.286c0 .355-.288.643-.643.643-.355 0-.643-.288-.643-.643V8.357H7.071c-.355 0-.642-.288-.642-.643 0-.355.287-.643.642-.643h1.286V5.786c0-.355.288-.643.643-.643.355 0 .643.288.643.643V7.07h1.286c.355 0 .642.288.642.643 0 .355-.287.643-.642.643z" transform="translate(0 3)"/>
                </g>
            </g>
        </g>
    </g>
</svg>
