<svg xmlns="http://www.w3.org/2000/svg" width="60" height="56" viewBox="0 0 60 56">
    <g fill="none" fill-rule="evenodd">
        <g fill-rule="nonzero">
            <g>
                <path fill="#FF7B00" d="M38 31L38 31.028 38 36 45 36 45 31.028 45 31zM45 55.987L45 56 38 56 38 55.987 38 49 39.145 50.26 40.329 49 41.501 50.26 42.671 49 43.855 50.26 45 49zM32 5L32 5.028 32 10 39 10 39 5.028 39 5zM37.854 25.245L36.672 24 35.5 25.245 34.33 24 33.146 25.245 32 24 32 31 39 31 39 24zM11 31L11 31.028 11 36 18 36 18 31.028 18 31zM18 55.987L18 56 11 56 11 55.987 11 49 12.146 50.26 13.33 49 14.5 50.26 15.67 49 16.854 50.26 18 49z" transform="translate(-326 -990) translate(326 990)"/>
                <g fill="#004FA5">
                    <path d="M4.041 32.984c-.405 0-.734.328-.734.734v.77c0 .405.329.733.734.733.406 0 .735-.328.735-.733v-.77c0-.406-.329-.734-.735-.734zM4.041 36.077c-.405 0-.734.328-.734.733v8.07c0 .405.329.733.734.733.406 0 .735-.328.735-.733v-8.07c0-.405-.329-.733-.735-.733z" transform="translate(-326 -990) translate(326 990)"/>
                    <path d="M59.28 24.821h-4.79V.685C54.5.5 54.431.322 54.302.19c-.13-.13-.308-.2-.492-.19H27.069c-.195-.01-.385.061-.526.195l-5.02 5.117c-.136.132-.214.312-.217.5v19.008h-15.6c-.193-.003-.38.072-.519.207L.194 30.031c-.132.138-.201.324-.193.515v24.77c-.008.184.062.364.194.494.131.13.312.199.497.19h53.601c.192.008.38-.06.52-.19l4.993-4.995c.131-.135.201-.318.193-.506v-24.77c0-.19-.075-.373-.21-.508-.135-.134-.318-.21-.508-.21zM52.038 1.468l-3.545 3.546H37.2l3.545-3.546h11.293zm.983.988V25.15l-3.429 3.54V5.995l3.429-3.54zM38.449 6.48v3.057h-6V6.48h6zM27.378 1.468h11.288l-3.545 3.546H23.917l3.46-3.546zm-4.602 5.013h8.204v3.832c-.008.186.063.366.195.498.131.131.312.202.499.194h7.533c.188.008.371-.061.506-.193.135-.13.209-.312.205-.5V6.482h8.204v23.353h-8.449v-6.102c.005-.299-.175-.57-.452-.681-.278-.112-.595-.042-.8.176l-.624.66-.656-.674c-.137-.143-.325-.224-.523-.226h-.002c-.199.002-.388.085-.526.228l-.65.672-.65-.673c-.137-.143-.326-.225-.525-.227h-.002c-.198.002-.387.083-.524.226l-.657.671-.628-.658c-.2-.218-.513-.288-.786-.176-.275.114-.451.385-.444.682v6.102h-8.448V6.481zm15.183 24.82h6v3.18h-6V31.3zm-5.265-1.467v-4.287c.114.083.25.128.392.13.196-.001.383-.08.52-.22l.659-.675.65.673c.138.142.328.223.527.223.198 0 .388-.08.526-.223l.653-.673.662.675c.137.14.325.22.52.22.144-.002.284-.047.4-.13v4.287h-5.51zm-11.388-3.546v3.546h-5.47l3.546-3.546h1.924zm-4.163 5.013v3.18h-6.122V31.3h6.122zM6.011 26.288h11.293l-3.545 3.546H2.466l3.545-3.546zm10.887 28.244h-5.632v-4.13c.126.083.274.128.425.13.201 0 .394-.08.537-.22l.667-.675.654.672c.139.143.33.223.528.223.199 0 .39-.08.528-.223l.653-.672.663.674c.146.143.344.222.548.22.153-.001.301-.046.429-.13v4.13zm26.816 0h-5.51v-4.13c.112.082.247.128.386.13.195 0 .382-.08.517-.22l.657-.675.65.672c.137.142.327.223.526.223.198 0 .388-.08.526-.223l.652-.672.663.674c.137.143.328.223.526.22.146-.001.287-.046.407-.13v4.13zm9.796 0h-8.327v-5.946c.002-.3-.18-.57-.458-.68-.279-.112-.597-.042-.803.175l-.626.66-.657-.691c-.136-.147-.324-.234-.524-.243h-.002c-.2.01-.39.097-.525.246l-.65.68-.65-.686c-.136-.147-.326-.233-.526-.24h-.002c-.2.009-.388.096-.524.243l-.657.68-.628-.654c-.197-.217-.509-.286-.78-.174-.273.116-.447.388-.436.685v5.945h-8.45v-14.06c0-.406-.328-.734-.734-.734-.406 0-.735.328-.735.733v14.06h-8.448v-5.945c-.009-.302-.198-.57-.48-.68-.282-.11-.603-.042-.815.175l-.632.66-.659-.691c-.136-.147-.326-.234-.526-.243h-.002c-.201.01-.39.097-.526.246l-.65.68-.65-.686c-.136-.147-.325-.233-.525-.24h-.002c-.2.009-.388.096-.524.243l-.657.68-.628-.654c-.212-.217-.535-.286-.817-.174-.283.111-.472.38-.479.684v5.946H1.47v-23.23h8.081v3.865c.009.42.341.76.76.78h7.534c.421-.02.756-.36.767-.78V31.3h8.204v4.28c0 .405.33.733.735.733.406 0 .735-.328.735-.733V31.3h8.204v3.866c0 .405.275.78.68.78h7.534c.406 0 .724-.375.724-.78V31.3h8.082v23.23zm.48-24.698l-3.658-.004 3.642-3.542h3.545l-3.53 3.546zm4.54 20.17l-3.55 3.492V30.85l3.55-3.497v22.652z" transform="translate(-326 -990) translate(326 990)"/>
                </g>
            </g>
        </g>
    </g>
</svg>
