<svg xmlns="http://www.w3.org/2000/svg" width="23" height="28" viewBox="0 0 23 28">
    <defs>
        <filter id="b5q3mxly4a">
            <feColorMatrix in="SourceGraphic" values="0 0 0 0 0.000000 0 0 0 0 0.329412 0 0 0 0 0.690196 0 0 0 1.000000 0"/>
        </filter>
    </defs>
    <g fill="none" fill-rule="evenodd">
        <g>
            <g fill-rule="nonzero">
                <path fill="#FFF" d="M8.427 0L5 28 18 28 15 0z" transform="translate(-226 -1298) translate(226 1298)"/>
                <path fill="#FF7B00" d="M4 4.583v3.334c0 .322.233.583.52.583h13.96c.287 0 .52-.261.52-.583V4.583c0-.322-.233-.583-.52-.583H4.52c-.287 0-.52.261-.52.583z" transform="translate(-226 -1298) translate(226 1298)"/>
                <g fill="#000" filter="url(#b5q3mxly4a)" transform="translate(-226 -1298) translate(226 1298)">
                    <path d="M11.5 3.025c.224 0 .406-.183.406-.41v-.77c0-.227-.182-.41-.406-.41-.224 0-.406.183-.406.41v.77c0 .227.182.41.406.41zM11.5 10.966c.224 0 .406-.184.406-.41v-.77c0-.227-.182-.41-.406-.41-.224 0-.406.183-.406.41v.77c0 .226.182.41.406.41zM11.5 14.937c.224 0 .406-.184.406-.41v-.77c0-.227-.182-.411-.406-.411-.224 0-.406.184-.406.41v.77c0 .227.182.41.406.41zM11.5 18.907c.224 0 .406-.184.406-.41v-.77c0-.227-.182-.41-.406-.41-.224 0-.406.183-.406.41v.77c0 .226.182.41.406.41zM11.5 22.877c.224 0 .406-.183.406-.41v-.77c0-.227-.182-.41-.406-.41-.224 0-.406.183-.406.41v.77c0 .227.182.41.406.41zM11.5 26.848c.224 0 .406-.184.406-.41v-.77c0-.227-.182-.41-.406-.41-.224 0-.406.183-.406.41v.77c0 .226.182.41.406.41z"/>
                    <path d="M22.054 6.28h-2.346V4.847c0-.528-.424-.957-.946-.957h-1.213l-.59-3.327C16.901.237 16.621 0 16.294 0H6.706C6.38 0 6.1.237 6.041.563L5.45 3.89H4.238c-.522 0-.946.43-.946.957V6.28H.946c-.521 0-.946.43-.946.957v13.91c0 .226.182.41.406.41.224 0 .405-.184.405-.41V7.237c0-.076.06-.137.135-.137h2.346v.871c0 .528.424.957.946.957h.32L2.29 21.731c-.04.223.107.436.328.476.024.004.048.007.072.007.192 0 .363-.14.399-.338L5.383 8.928h1.26L4.441 27.18H2.31c-.056 0-.09-.031-.104-.05-.015-.018-.04-.057-.03-.111l.577-3.254c.04-.223-.107-.436-.328-.476-.22-.04-.431.108-.47.331l-.577 3.254c-.05.28.025.565.206.783.18.218.444.343.725.343h18.38c.28 0 .545-.125.725-.343.18-.218.256-.503.206-.783l-2.644-14.922c-.04-.223-.25-.371-.47-.332-.221.04-.368.254-.328.477l2.644 14.922c.01.054-.015.093-.03.112-.015.018-.048.049-.103.049h-2.13L16.356 8.928h1.26l.223 1.254c.035.199.206.338.399.338.023 0 .047-.002.072-.006.22-.04.367-.253.327-.476l-.196-1.11h.32c.522 0 .946-.43.946-.957v-.87h2.346c.074 0 .135.06.135.136v13.91c0 .226.181.41.405.41.224 0 .406-.184.406-.41V7.237c0-.528-.425-.957-.946-.957zm-5.33-2.39h-.976l-.37-3.07h.803l.544 3.07zM14.562.82l.37 3.07H8.07l.37-3.07h6.122zm-7.742 0h.803l-.37 3.07h-.977L6.82.82zm10.923 26.36H5.258L7.46 8.928h8.08l2.202 18.252zM18.897 7.97c0 .076-.06.137-.135.137H4.238c-.074 0-.135-.061-.135-.137V4.847c0-.076.06-.137.135-.137h14.524c.074 0 .135.061.135.137V7.97z"/>
                </g>
            </g>
        </g>
    </g>
</svg>
