<svg xmlns="http://www.w3.org/2000/svg" xmlns:xlink="http://www.w3.org/1999/xlink" width="336" height="91" viewBox="0 0 336 91">
    <defs>
        <filter id="47jrn1f2vb" width="112.2%" height="155.9%" x="-6.1%" y="-25%" filterUnits="objectBoundingBox">
            <feOffset dy="2" in="SourceAlpha" result="shadowOffsetOuter1"/>
            <feGaussianBlur in="shadowOffsetOuter1" result="shadowBlurOuter1" stdDeviation="6"/>
            <feComposite in="shadowBlurOuter1" in2="SourceAlpha" operator="out" result="shadowBlurOuter1"/>
            <feColorMatrix in="shadowBlurOuter1" values="0 0 0 0 0 0 0 0 0 0 0 0 0 0 0 0 0 0 0.105523383 0"/>
        </filter>
        <path id="5v83tkxsoa" d="M34 169h292c5.523 0 10 4.477 10 10v40c0 5.523-4.477 10-10 10H62l-9 8-8-8H34c-5.523 0-10-4.477-10-10v-40c0-5.523 4.477-10 10-10z"/>
    </defs>
    <g fill="none" fill-rule="evenodd">
        <g transform="translate(-12 -159)">
            <g>
                <use fill="#000" filter="url(#47jrn1f2vb)" xlink:href="#5v83tkxsoa"/>
                <path fill="#FFF" stroke="#0051B4" stroke-linejoin="square" d="M326 169.5c2.623 0 4.998 1.063 6.718 2.782 1.719 1.72 2.782 4.095 2.782 6.718h0v40c0 2.623-1.063 4.998-2.782 6.718-1.72 1.719-4.095 2.782-6.718 2.782h0H61.81l-8.79 7.813-7.813-7.813H34c-2.623 0-4.998-1.063-6.718-2.782-1.719-1.72-2.782-4.095-2.782-6.718h0v-40c0-2.623 1.063-4.998 2.782-6.718 1.72-1.719 4.095-2.782 6.718-2.782h0z"/>
            </g>
        </g>
    </g>
</svg>
