<svg xmlns="http://www.w3.org/2000/svg" width="28" height="28" viewBox="0 0 28 28">
    <g fill="none" fill-rule="evenodd">
        <g fill-rule="nonzero">
            <g>
                <g>
                    <g>
                        <path fill="#FFF" d="M9.52.71l2.091-.686c.202-.066.423.006.547.18l1.292 1.793c.125.173.125.407 0 .58l-1.292 1.794c-.125.173-.345.245-.547.18l-2.09-.686c-.202-.066-.338-.255-.338-.47V1.18c0-.214.136-.404.338-.47z" transform="translate(-224 -1470) translate(224 1470) translate(11.839 8.832)"/>
                        <path fill="#FF7B00" d="M3.174.76l.524 1.627c.065.203-.007.426-.178.552L2.148 3.944c-.171.126-.403.126-.575 0L.202 2.939C.03 2.813-.042 2.59.024 2.387L.548.761C.613.557.8.42 1.013.42h1.695c.212 0 .4.137.466.34zM9.124 9.794l3.042-.998c.488-.16 1.023.016 1.324.435l1.88 2.61c.302.419.302.986 0 1.405l-1.88 2.61c-.301.419-.836.594-1.324.434l-3.042-.997c-.488-.16-.819-.619-.819-1.136V10.93c0-.518.33-.976.819-1.136z" transform="translate(-224 -1470) translate(224 1470) translate(11.839 8.832)"/>
                    </g>
                    <g fill="#0054B0">
                        <path d="M12.237 22.074c.098.186.288.291.484.291.087 0 .174-.02.255-.063.267-.141.37-.472.228-.739l-2.296-4.347c-.095-.18-.281-.292-.484-.292H6.288c-.302 0-.547.245-.547.547 0 .302.245.547.547.547h3.807l2.142 4.056zM18.141 13.35c-.24.183-.286.527-.102.767l1.734 2.266c.107.14.27.214.434.214.116 0 .233-.036.332-.112.24-.184.286-.527.102-.767l-1.733-2.266c-.184-.24-.527-.285-.767-.102zM17.917 9.27c.107.105.245.158.384.158.141 0 .283-.055.39-.163.212-.216.209-.562-.006-.774l-1.82-1.793c-.216-.212-.562-.21-.774.006-.212.215-.21.561.006.773l1.82 1.793zM21.17 13.189l2.103.683c.106.035.215.052.322.052.326 0 .64-.154.84-.43l1.3-1.788c.265-.365.265-.856 0-1.222l-1.3-1.789c-.266-.365-.733-.516-1.162-.377l-2.103.683c-.43.14-.718.537-.718.988v2.212c0 .451.289.848.718.988zm.376-3.16l2.027-.659 1.253 1.725-1.253 1.725-2.027-.659v-2.132z" transform="translate(-224 -1470) translate(224 1470)"/>
                        <path d="M27.666 20.302L25.775 17.7c-.444-.612-1.225-.865-1.944-.632l-3.06.995c-.719.233-1.202.897-1.202 1.653v2.872l-2.466-6.889c-.03-.087-.084-.165-.153-.226l-2.646-2.326 1.32-.959c.365-.265.517-.732.377-1.161l-.527-1.622c-.14-.43-.536-.718-.988-.718h-1.705c-.452 0-.849.288-.988.718l-.36 1.104-2.79-6.701c-.065-.157-.2-.275-.365-.319L5.58 2.776 5.016.419C4.957.173 4.737 0 4.484 0H.547C.402 0 .263.058.16.16.058.263 0 .402 0 .547v26.906c0 .302.245.546.547.546h4.849c.302 0 .546-.244.546-.546 0-.302-.244-.547-.546-.547H1.094V1.094h2.959l2.415 10.08c.07.294.365.475.66.404.293-.07.474-.365.404-.659L5.87 3.983l1.867.494 2.811 6.75c.032.076.081.145.144.2l5.43 4.773 2.896 8.09c.035.1.098.187.182.25l3.088 2.366h-11.97c-.303 0-.548.245-.548.547 0 .302.245.546.547.546h13.585c.234 0 .442-.149.518-.37.075-.223 0-.468-.186-.61l-2.963-2.27 2.56.832c.178.058.36.086.54.086.545 0 1.07-.258 1.404-.718l1.891-2.603c.444-.611.444-1.433 0-2.044zM12.82 9.78h1.626l.503 1.547-1.316.956-1.315-.956.502-1.547zm13.962 11.924l-1.892 2.604c-.165.226-.454.32-.72.234l-3.061-.995c-.267-.086-.446-.333-.446-.613v-3.218c0-.28.18-.527.446-.613l3.06-.995c.267-.087.557.008.721.234l1.892 2.604c.164.227.164.531 0 .758z" transform="translate(-224 -1470) translate(224 1470)"/>
                        <path d="M7.856 26.906c-.144 0-.284.058-.386.16-.102.102-.16.243-.16.387 0 .143.058.285.16.386.102.102.243.16.386.16.144 0 .285-.058.387-.16.102-.101.16-.243.16-.386 0-.144-.058-.285-.16-.387-.102-.102-.243-.16-.387-.16z" transform="translate(-224 -1470) translate(224 1470)"/>
                    </g>
                </g>
            </g>
        </g>
    </g>
</svg>
