<svg xmlns="http://www.w3.org/2000/svg" width="63" height="47" viewBox="0 0 63 47">
    <g fill="none" fill-rule="evenodd">
        <g>
            <g>
                <g>
                    <path fill="#004EA4" fill-rule="nonzero" d="M52.54 20.765C50.608 20.01 46.985 20 46.832 20c-.46 0-.832.292-.832.652 0 .36.372.651.832.651.935 0 3.649.113 4.964.628.12.047.246.069.371.069.305 0 .6-.132.745-.36.205-.322.039-.714-.372-.875z" transform="translate(-725 -995) translate(726 996)"/>
                    <path fill="#004FA4" fill-rule="nonzero" stroke="#FFF" stroke-width=".2" d="M57.318 32.306l-3.63-1.036c-.157-.044-.266-.19-.266-.352v-1.21c.295-.205.577-.434.84-.689 1.276-1.237 1.98-2.896 1.98-4.672v-1.67l.35-.702c.385-.77.589-1.631.589-2.491v-4.525c0-.485-.394-.878-.88-.878h-8.457c-3.075 0-5.578 2.5-5.578 5.572v.052c0 .716.17 1.432.49 2.072l.45.9v1.433c0 2.273 1.121 4.312 2.82 5.54v1.268c0 .195 0 .276-.726.483l-1.771.506-5.124-1.861c.019-.242-.063-.487-.24-.672l-1.636-1.719v-2.884c.173-.142.343-.289.509-.444 2.065-1.933 3.25-4.664 3.25-7.49v-2.304c.623-1.356.94-2.79.94-4.268V.878c0-.485-.394-.878-.88-.878H27.192c-4.63 0-8.397 3.763-8.397 8.388v1.877c0 1.478.316 2.913.94 4.268v1.982c0 3.282 1.46 6.239 3.759 8.188v2.953l-1.637 1.718c-.177.185-.258.43-.24.672l-5.408 1.964c-.391.143-.756.335-1.086.569l-.85-.424c2.528-1.1 3.33-2.645 3.368-2.722.123-.247.123-.538 0-.785-.634-1.266-.71-3.586-.772-5.45-.021-.621-.04-1.208-.078-1.73-.3-4.211-3.504-7.387-7.454-7.387-3.95 0-7.156 3.176-7.455 7.387-.037.522-.057 1.109-.077 1.73-.062 1.864-.139 4.184-.772 5.45-.124.247-.124.538 0 .785.038.077.837 1.62 3.37 2.72L2.044 33.33C.784 33.96 0 35.227 0 36.635v6.487c0 .484.394.878.879.878s.879-.394.879-.878v-6.487c0-.739.41-1.403 1.072-1.733l2.937-1.467 1.022.97c.714.678 1.63 1.017 2.548 1.017.916 0 1.833-.34 2.547-1.018l1.022-.97.957.48c-.45.72-.707 1.565-.707 2.45v6.758c0 .485.394.878.88.878.485 0 .878-.393.878-.878v-6.758c0-1.205.762-2.292 1.896-2.703l5.701-2.071 2.374 3.556c.303.455.79.746 1.334.8.06.006.12.01.181.01.48 0 .94-.19 1.284-.533l1.448-1.446v9.145c0 .485.394.878.879.878s.879-.393.879-.878v-9.145l1.448 1.446c.344.343.804.532 1.284.532.06 0 .12-.003.181-.009.545-.054 1.03-.345 1.334-.8l2.374-3.556 5.701 2.07c1.134.413 1.896 1.5 1.896 2.705v6.757c0 .485.393.878.879.878.485 0 .879-.393.879-.878v-6.757c0-1.221-.486-2.366-1.3-3.213l.217-.062c.219-.062.518-.148.818-.295l2.244 2.242v8.085c0 .485.393.878.879.878.485 0 .879-.393.879-.878v-8.085l2.228-2.226c.118.06.243.11.374.148l3.63 1.036c.828.237 1.407 1.003 1.407 1.864v7.263c0 .485.394.878.88.878.484 0 .878-.393.878-.878v-7.263c0-1.641-1.103-3.102-2.682-3.553zm-51.68-1.55c-1.644-.591-2.468-1.38-2.82-1.81.24-.626.395-1.344.5-2.102.485 1.161 1.297 2.152 2.32 2.86v1.052zm5.035 2.376c-.75.711-1.924.711-2.673 0l-.817-.776c.138-.258.213-.551.213-.858v-.935c.614.191 1.265.294 1.94.294s1.327-.103 1.941-.294v.935c0 .307.076.6.214.858l-.818.776zm-1.336-4.03c-2.624 0-4.76-2.134-4.76-4.755 0-.485-.393-.878-.878-.878-.05 0-.098.005-.145.013l.008-.226c.02-.604.038-1.174.073-1.663.112-1.578.743-3.031 1.777-4.094 1.043-1.071 2.437-1.662 3.925-1.662s2.882.59 3.925 1.662c1.033 1.063 1.664 2.516 1.776 4.094.035.489.054 1.059.074 1.662l.005.157c-.956-1.472-2.433-2.556-4.34-3.169-1.764-.565-3.28-.53-3.344-.529-.23.007-.449.103-.608.268l-1.586 1.643c-.337.35-.327.905.023 1.242.35.336.905.326 1.242-.023l1.32-1.367c1.136.056 4.792.48 6.214 3.608-.358 2.305-2.34 4.016-4.701 4.016zm3.698 1.657V29.71c1.022-.703 1.835-1.692 2.32-2.862.106.756.261 1.473.5 2.098-.35.426-1.178 1.22-2.82 1.812zm8.458-14.244v-2.178c0-.132-.03-.263-.088-.382-.565-1.17-.852-2.411-.852-3.69V8.388c0-3.657 2.978-6.632 6.639-6.632h12.277v8.51c0 1.278-.286 2.52-.852 3.69-.057.118-.087.249-.087.38v2.5c0 2.378-.957 4.584-2.695 6.21-.216.204-.442.394-.674.571l-.015.011c-1.628 1.235-3.622 1.835-5.704 1.7-4.458-.288-7.95-4.16-7.95-8.813zm4.948 17.666c-.006.006-.02.02-.049.018-.028-.003-.04-.02-.044-.027l-2.734-4.096.88-.923 4.147 2.831-2.2 2.197zm3.57-3.388l-4.76-3.25v-1.639c1.232.665 2.611 1.081 4.078 1.176.231.015.462.022.691.022 1.68 0 3.298-.4 4.75-1.163v1.604l-4.759 3.25zm3.664 3.379c-.005.007-.016.024-.045.027-.029.003-.043-.012-.049-.018l-2.2-2.197 4.147-2.831.88.923-2.733 4.096zm16.049-.74l-1.995-1.993c.035-.158.055-.33.054-.522v-.37c.554.181 1.137.29 1.74.307l.203.003c.667 0 1.318-.1 1.938-.293v.354c0 .175.022.347.063.512l-2.003 2.001zm3.314-5.673c-.932.903-2.162 1.38-3.461 1.34-2.544-.076-4.613-2.314-4.613-4.988v-1.642c0-.136-.032-.27-.093-.392l-.543-1.085c-.199-.398-.304-.842-.304-1.287v-.052c0-2.104 1.714-3.816 3.82-3.816h7.579v3.647c0 .589-.14 1.18-.403 1.706l-.444.887c-.061.122-.093.256-.093.392v1.878c0 1.297-.513 2.509-1.445 3.412z" transform="translate(-725 -995) translate(726 996)"/>
                    <path fill="#FF7B00" d="M26.441 34.181c-.006.006-.02.02-.049.018-.028-.003-.04-.02-.044-.027l-2.734-4.096.88-.923 4.147 2.831-2.2 2.197zM33.675 34.172c-.005.007-.016.024-.045.027-.029.003-.043-.012-.049-.018l-2.2-2.197 4.147-2.831.88.923-2.733 4.096z" transform="translate(-725 -995) translate(726 996)"/>
                    <path d="M21.493 16.515v-2.178c0-.132-.03-.263-.088-.382-.565-1.17-.852-2.411-.852-3.69V8.388c0-3.657 2.978-6.632 6.639-6.632h12.277v8.51c0 1.278-.286 2.52-.852 3.69-.057.118-.087.249-.087.38v2.5c0 2.378-.957 4.584-2.695 6.21-.216.204-.442.394-.674.571l-.015.011c-1.628 1.235-3.622 1.835-5.704 1.7-4.458-.288-7.95-4.16-7.95-8.813z" transform="translate(-725 -995) translate(726 996)"/>
                    <path fill="#0050A7" fill-rule="nonzero" stroke="#FFF" stroke-width=".2" d="M55 37c-.552 0-1 .372-1 .832v5.336c0 .46.448.832 1 .832s1-.372 1-.832v-5.336c0-.46-.448-.832-1-.832zM5 38c-.552 0-1 .379-1 .846v4.308c0 .467.448.846 1 .846s1-.379 1-.846v-4.308C6 38.379 5.552 38 5 38z" transform="translate(-725 -995) translate(726 996)"/>
                    <path fill="#0050A7" fill-rule="nonzero" d="M36.741 10.584c-3.343-3.291-10.338-2.662-13.19-2.239-.899.134-1.551.882-1.551 1.78v2.005c0 .48.396.87.884.87s.884-.39.884-.87v-2.005c0-.03.02-.055.046-.059 1.14-.169 3.4-.43 5.743-.276 2.756.18 4.753.862 5.934 2.025.345.34.905.34 1.25 0s.345-.891 0-1.23z" transform="translate(-725 -995) translate(726 996)"/>
                    <path fill="#0050A7" fill-rule="nonzero" stroke="#FFF" stroke-width=".2" d="M20 39c-.552 0-1 .428-1 .956v4.088c0 .528.448.956 1 .956s1-.428 1-.956v-4.088c0-.528-.448-.956-1-.956zM40 39c-.552 0-1 .428-1 .956v4.088c0 .528.448.956 1 .956s1-.428 1-.956v-4.088c0-.528-.448-.956-1-.956z" transform="translate(-725 -995) translate(726 996)"/>
                </g>
                <path stroke="#004FA4" stroke-linecap="round" stroke-width="1.3" d="M0 43.5L30 44.5 61 43.5" transform="translate(-725 -995) translate(726 996)"/>
            </g>
        </g>
    </g>
</svg>
