<svg xmlns="http://www.w3.org/2000/svg" width="28" height="28" viewBox="0 0 28 28">
    <g fill="none" fill-rule="evenodd">
        <g>
            <g>
                <g>
                    <path fill="#0054B0" fill-rule="nonzero" d="M27.923 27.271l-9.8-15.059c-.086-.132-.233-.212-.39-.212h-7.466c-.157 0-.304.08-.39.212l-9.8 15.06c-.095.144-.103.329-.02.481.08.152.238.247.41.247h27.066c.172 0 .33-.095.411-.247.082-.152.074-.337-.02-.482zM10.52 12.941h.451L3.64 27.06H1.331L10.52 12.94zm3.948 14.118v-1.883h-.934v1.883H4.696l7.326-14.118h1.511v.47h.934v-.47h1.51l7.326 14.118h-8.836zm9.893 0L17.033 12.94h.452l9.183 14.118H24.36z" transform="translate(-224 -1356) translate(224 1356)"/>
                    <path fill="#0054B0" fill-rule="nonzero" d="M13.333 14.222L14.222 14.222 14.222 15.111 13.333 15.111zM13.333 16L14.222 16 14.222 17.333 13.333 17.333zM13.333 18.222L14.222 18.222 14.222 20 13.333 20zM13.333 21.333L14.222 21.333 14.222 23.556 13.333 23.556zM14 11.111c.14 0 .271-.06.36-.166.395-.467 3.862-4.627 3.862-6.778C18.222 1.866 16.332 0 14 0c-2.332 0-4.222 1.866-4.222 4.167 0 2.15 3.467 6.31 3.862 6.778.089.105.221.166.36.166zM14 .926c1.813.002 3.282 1.452 3.284 3.24 0 1.38-2.117 4.297-3.284 5.748-1.168-1.45-3.284-4.366-3.284-5.747C10.719 2.377 12.187.928 14 .926z" transform="translate(-224 -1356) translate(224 1356)"/>
                    <path fill="#FF7B00" d="M14 .926c1.813.002 3.282 1.452 3.284 3.24 0 1.38-2.117 4.297-3.284 5.748-1.168-1.45-3.284-4.366-3.284-5.747C10.719 2.377 12.187.928 14 .926z" transform="translate(-224 -1356) translate(224 1356)"/>
                    <path fill="#0054B0" fill-rule="nonzero" d="M16 3.778c0-1.105-.895-2-2-2-1.104 0-2 .895-2 2s.896 2 2 2c1.105 0 2-.895 2-2zm-3 0c0-.552.448-1 1-1s1 .448 1 1-.448 1-1 1-1-.448-1-1z" transform="translate(-224 -1356) translate(224 1356)"/>
                    <path fill="#FFF" d="M13 3.778c0-.552.448-1 1-1s1 .448 1 1-.448 1-1 1-1-.448-1-1z" transform="translate(-224 -1356) translate(224 1356)"/>
                </g>
            </g>
        </g>
    </g>
</svg>
