<svg xmlns="http://www.w3.org/2000/svg" width="20" height="18" viewBox="0 0 20 18">
    <defs>
        <filter id="34gr1tplna">
            <feColorMatrix in="SourceGraphic" values="0 0 0 0 0.549020 0 0 0 0 0.549020 0 0 0 0 0.549020 0 0 0 1.000000 0"/>
        </filter>
    </defs>
    <g fill="none" fill-rule="evenodd">
        <g filter="url(#34gr1tplna)" transform="translate(-1246 -1531)">
            <g fill="#000" fill-rule="nonzero">
                <path d="M11.469 7.553c-.54 0-.979.439-.979.978 0 .54.44.979.979.979.54 0 .978-.44.978-.979 0-.54-.439-.978-.978-.978zM12.117 4.587v1.765c.502.15.932.468 1.224.89l1.678-.546c-.571-1.1-1.638-1.902-2.902-2.109zM15.42 7.929l-1.678.545.001.057c0 .52-.175.999-.47 1.382l1.037 1.426c.714-.722 1.155-1.714 1.155-2.808 0-.205-.015-.406-.045-.602z" transform="translate(1246 1531)"/>
                <path d="M11.469 0H3.586c-.358 0-.648.29-.648.648 0 .358.29.648.648.648h3.368c-.71.445-1.352.992-1.902 1.62H.648c-.358 0-.648.29-.648.648 0 .357.29.647.648.647h3.467c-.748 1.268-1.177 2.745-1.177 4.32 0 1.833.58 3.533 1.568 4.925H2.668c-.358 0-.648.29-.648.648 0 .358.29.648.648.648h2.97c.403.379.844.72 1.316 1.014H.714c-.357 0-.647.29-.647.648 0 .358.29.648.648.648h10.754c4.704 0 8.531-3.827 8.531-8.53C20 3.826 16.173 0 11.469 0zm3.147 12.784l-.036.03-.044.029c-.866.617-1.925.98-3.067.98-1.142 0-2.201-.363-3.067-.98l-.044-.03-.037-.03c-1.3-.965-2.145-2.511-2.145-4.252 0-2.918 2.374-5.292 5.293-5.292 2.918 0 5.292 2.374 5.292 5.292 0 1.74-.844 3.287-2.145 4.253z" transform="translate(1246 1531)"/>
                <path d="M7.919 6.696l1.678.546c.291-.422.721-.74 1.224-.89V4.587c-1.265.207-2.331 1.01-2.902 2.11zM12.226 10.676c-.237.083-.492.13-.757.13-.266 0-.52-.047-.757-.13l-1.037 1.426c.54.272 1.15.426 1.794.426.644 0 1.254-.154 1.793-.426l-1.036-1.426zM9.194 8.531l.002-.057-1.679-.545c-.03.196-.045.397-.045.602 0 1.094.442 2.086 1.156 2.808l1.036-1.426c-.294-.383-.47-.862-.47-1.382z" transform="translate(1246 1531)"/>
            </g>
        </g>
    </g>
</svg>
