<svg xmlns="http://www.w3.org/2000/svg" width="28" height="28" viewBox="0 0 28 28">
    <g fill="none" fill-rule="evenodd">
        <g>
            <g>
                <path fill="#FF7B00" d="M13 23L15 23 15 28 13 28zM15 23L18 23 18 28 15 28zM11.5 15.217v2.566c0 .12.064.217.143.217h2.214c.079 0 .143-.098.143-.217v-2.566c0-.12-.064-.217-.143-.217h-2.214c-.079 0-.143.098-.143.217zM11.171 12h2.658c.094 0 .171-.065.171-.145v-1.71c0-.08-.077-.145-.171-.145H11.17c-.094 0-.171.065-.171.145v1.71c0 .08.077.145.171.145zM17.114 12h1.772c.062 0 .114-.065.114-.145v-1.71c0-.08-.052-.145-.114-.145h-1.772c-.062 0-.114.065-.114.145v1.71c0 .08.051.145.114.145zM17.114 18h1.772c.062 0 .114-.098.114-.217v-2.566c0-.12-.052-.217-.114-.217h-1.772c-.062 0-.114.098-.114.217v2.566c0 .12.051.217.114.217z" transform="translate(-224 -1528) translate(224 1528)"/>
                <path fill="#72BFFC" d="M3.307 14.75H9V14H3.307c-.169 0-.307.113-.307.252V15c.002-.137.14-.25.307-.25zM3.307 23.75H9V23H3.307c-.169 0-.307.113-.307.252V24c.002-.138.14-.25.307-.25z" transform="translate(-224 -1528) translate(224 1528)"/>
                <g fill="#0054B0" fill-rule="nonzero">
                    <path d="M27.278 8.399h-4.8V7.056c0-.55-.45-.996-1.003-.996h-.758v-.971c0-.445-.364-.807-.812-.807h-.438V.41c0-.226-.185-.41-.413-.41-.228 0-.413.184-.413.41v3.872h-.942V1.934c0-.226-.185-.41-.413-.41-.229 0-.413.184-.413.41v2.348h-6.087c-.448 0-.812.362-.812.807v.97h-.758c-.553 0-1.003.448-1.003.997v2.082l-3.008 1.361c-.207.094-.299.337-.204.544.069.15.219.24.376.24.057 0 .115-.012.17-.037l2.666-1.207v3.944H3.684c-.374 0-.68.303-.68.675v1.536c0 .373.306.676.68.676h4.53v1.57h-4.53c-.374 0-.68.303-.68.676v1.535c0 .373.306.677.68.677h4.53v1.57h-4.53c-.374 0-.68.303-.68.675v1.536c0 .373.306.676.68.676h4.53v1.395H.825V13.57c0-.162.146-.255.586-.455l2.392-1.083c.208-.094.3-.337.205-.543-.095-.206-.34-.297-.547-.203L1.08 12.364l-.013.006C.618 12.575 0 12.855 0 13.571v13.763c0 .367.3.666.669.666H27.278c.398 0 .722-.322.722-.719V9.116c0-.395-.324-.717-.722-.717zm-4.8 3.553h2.256V13.2h-2.256v-1.248zm0 4.459h2.256v1.246h-2.256V16.41zm0 4.457h2.256v1.246h-2.256v-1.246zM3.83 16.049v-1.246h4.382v1.246H3.831zm0 4.459V19.26h4.382v1.248H3.831zm0 4.456v-1.246h4.382v1.246H3.831zM9.039 7.056c0-.095.081-.176.178-.176l5.255-.008c.228 0 .413-.184.412-.41 0-.227-.185-.41-.413-.41l-3.671.005v-.955h9.091v.958h-3.506c-.228 0-.413.183-.413.41 0 .226.185.41.413.41h5.09c.096 0 .177.08.177.176V27.18h-3.237v-4.091h.87c.228 0 .413-.184.413-.41 0-.227-.185-.41-.413-.41h-7.879c-.228 0-.413.183-.413.41 0 .226.185.41.413.41h.87v4.09H9.039V7.057zm4.063 16.033h1.83v4.09h-1.83v-4.09zm2.656 4.09v-4.09h1.831v4.09h-1.83zm11.416 0h-4.696v-4.245h2.401c.376 0 .681-.303.681-.675v-1.537c0-.372-.305-.675-.681-.675h-2.401v-1.57h2.401c.376 0 .681-.303.681-.675v-1.536c0-.373-.305-.676-.681-.676h-2.401v-1.57h2.401c.376 0 .681-.303.681-.676v-1.535c0-.373-.305-.677-.681-.677h-2.401V9.22h4.696v17.96z" transform="translate(-224 -1528) translate(224 1528)"/>
                    <path d="M11.443 12.405h2.47c.315 0 .572-.255.572-.568V9.969c0-.314-.257-.569-.572-.569h-2.47c-.315 0-.572.255-.572.569v1.868c0 .313.257.568.572.568zm.254-2.184h1.962v1.364h-1.962V10.22zM16.778 12.405h2.47c.315 0 .572-.255.572-.568V9.969c0-.314-.257-.569-.572-.569h-2.47c-.315 0-.572.255-.572.569v1.868c0 .313.257.568.572.568zm.254-2.184h1.962v1.364h-1.962V10.22zM11.443 18.013h2.47c.315 0 .572-.255.572-.568v-1.868c0-.313-.257-.568-.572-.568h-2.47c-.315 0-.572.255-.572.568v1.868c0 .313.257.568.572.568zm.254-2.184h1.962v1.364h-1.962v-1.364zM16.778 18.013h2.47c.315 0 .572-.255.572-.568v-1.868c0-.313-.257-.568-.572-.568h-2.47c-.315 0-.572.255-.572.568v1.868c0 .313.257.568.572.568zm.254-2.184h1.962v1.364h-1.962v-1.364z" transform="translate(-224 -1528) translate(224 1528)"/>
                </g>
            </g>
        </g>
    </g>
</svg>
