<svg xmlns="http://www.w3.org/2000/svg" width="26" height="26" viewBox="0 0 26 26">
    <g fill="none" fill-rule="evenodd">
        <g>
            <g>
                <g>
                    <path fill="#0050A8" fill-rule="nonzero" d="M13.478 0C20.436.252 26 5.973 26 12.995c.002 1.524-.267 3.035-.793 4.465.51.556.792 1.283.793 2.037v3.468c-.002 1.675-1.359 3.032-3.033 3.034H3.033C1.36 25.997.002 24.639 0 22.965v-3.468c0-.754.284-1.481.793-2.037-.526-1.43-.795-2.941-.793-4.465C0 6.373 4.948.908 11.348.095c.454.141.527.425.22.851-2.47.294-4.843 1.346-6.755 3.095-3.549 3.245-4.847 8.28-3.31 12.838.465-.271.993-.415 1.53-.416H6.02c-.537-1.077-.817-2.264-.819-3.468 0-.51.05-1.02.152-1.521.117-.604.307-1.19.567-1.747 1.145-2.456 3.474-4.148 6.162-4.478.61-.073 1.227-.073 1.838 0 2.688.33 5.017 2.022 6.162 4.478.26.558.451 1.146.567 1.751.102.5.153 1.008.152 1.517-.002 1.204-.282 2.39-.819 3.468h2.986c.537.001 1.065.145 1.53.416.423-1.251.638-2.563.636-3.884 0-4.81-2.841-9.165-7.242-11.104-1.412-.622-2.9-.958-4.386-1.02-.352-.272-.382-.545-.09-.818zm9.8 22.64l-2.023 1.538c-.155.118-.37.118-.524 0l-2.024-1.534-2.024 1.534c-.155.116-.368.116-.524 0l-2.024-1.534-2.019 1.534c-.155.118-.37.118-.524 0l-2.024-1.534-2.024 1.534c-.155.118-.369.118-.524 0L5 22.644l-2.019 1.534c-.155.118-.369.118-.524 0l-1.59-1.205c.007 1.193.974 2.156 2.166 2.16h19.934c.838-.003 1.6-.49 1.954-1.25l-1.642-1.243zm0-3.035l-2.023 1.54c-.155.117-.37.117-.524 0l-2.024-1.535-2.024 1.534c-.155.116-.368.116-.524 0l-2.024-1.534-2.019 1.534c-.155.118-.37.118-.524 0L9.568 19.61l-2.024 1.534c-.155.118-.369.118-.524 0L5 19.61l-2.019 1.534c-.155.118-.369.118-.524 0l-1.59-1.21v1.947l1.85 1.405 2.02-1.535c.154-.118.369-.118.524 0l2.023 1.535 2.02-1.535c.155-.118.37-.118.524 0l2.024 1.535 2.023-1.535c.155-.118.37-.118.525 0l2.023 1.535 2.02-1.535c.155-.118.369-.118.524 0l2.024 1.539 2.028-1.539c.155-.118.369-.118.524 0l1.59 1.21v-1.947l-1.854-1.409zm-.311-2.275H3.033c-.969.004-1.817.652-2.075 1.586l1.759 1.335 2.02-1.534c.154-.118.369-.118.524 0l2.023 1.534 2.02-1.534c.155-.118.37-.118.524 0l2.024 1.534 2.023-1.534c.155-.118.37-.118.525 0l2.023 1.534 2.02-1.534c.155-.118.369-.118.524 0l2.024 1.539 2.028-1.54c.155-.117.369-.117.524 0l1.59 1.21v-.429c0-1.197-.97-2.167-2.166-2.167zM13.815 6.107c-.542-.065-1.088-.065-1.63 0-.112.013-.225.035-.333.053l.19 3.454c.005.12-.038.235-.12.322-.08.086-.194.136-.313.138-.123-.001-.24-.053-.325-.143L8.983 7.356c-.627.448-1.176.995-1.625 1.621l2.578 2.302c.137.123.18.32.109.49-.066.162-.224.269-.399.268H9.62l-3.45-.19c-.067.379-.102.763-.103 1.148 0 .385.034.77.1 1.149l3.453-.19c.184-.01.353.098.425.268.071.17.028.366-.109.49l-1.958 1.75h2.946l.364-.402c.124-.137.32-.18.49-.11.169.072.275.242.264.426l-.004.087h1.924l-.004-.087c-.011-.184.095-.354.265-.425.17-.071.365-.028.489.109l.364.403h2.946l-1.958-1.751c-.136-.125-.18-.32-.108-.49.07-.17.24-.278.424-.269l3.454.19c.065-.379.099-.763.1-1.148-.002-.385-.037-.77-.105-1.148l-3.449.19h-.026c-.175 0-.333-.106-.399-.269-.071-.17-.028-.366.109-.49l2.578-2.301c-.45-.626-.998-1.173-1.625-1.621L14.716 9.93c-.084.09-.202.142-.325.143-.119-.002-.232-.052-.314-.138-.081-.087-.124-.203-.12-.322l.191-3.454c-.108-.018-.22-.04-.333-.053zm3.748 8.782l1.543 1.379c.218-.403.396-.827.528-1.266l-2.071-.113zm-9.126 0l-2.071.113c.132.439.31.863.528 1.266l1.543-1.379zM6.894 9.723c-.065.12-.13.242-.186.368-.132.291-.245.591-.338.897l2.067.113zm12.212 0L17.563 11.1l2.067-.113c-.093-.306-.206-.606-.338-.897-.056-.126-.121-.247-.186-.368zm-8.112-3.36c-.438.133-.862.309-1.266.525l1.378 1.543zm4.012 0l-.112 2.068 1.378-1.543c-.404-.216-.828-.392-1.266-.525z" transform="translate(-415 -184) translate(415 184.001)"/>
                    <path fill="#FF7B00" d="M9.62 12.037h.026c.175 0 .333-.106.399-.269.071-.17.028-.366-.109-.49L7.358 8.978c.45-.626.998-1.173 1.625-1.621l2.301 2.575c.084.09.202.142.325.143.119-.002.232-.052.314-.138.081-.087.124-.203.12-.322l-.191-3.454c.108-.018.22-.04.333-.053.542-.065 1.088-.065 1.63 0 .112.013.225.035.333.053l-.19 3.454c-.005.12.038.235.12.322.08.086.194.136.313.138.123-.001.24-.053.325-.143l2.301-2.575c.627.448 1.176.995 1.625 1.621l-2.578 2.302c-.137.123-.18.32-.109.49.066.162.224.269.399.268h.026l3.45-.19c.067.379.102.763.103 1.148 0 .385-.034.77-.1 1.149l-3.453-.19c-.184-.01-.354.097-.424.267-.071.17-.028.366.108.49l1.958 1.752h-2.946l-.364-.403c-.124-.137-.32-.18-.49-.11-.169.072-.275.242-.264.426l.004.087h-1.924l.004-.087c.011-.184-.095-.354-.265-.425-.17-.071-.365-.028-.489.109l-.364.403H7.978l1.958-1.751c.137-.124.18-.32.109-.49-.072-.17-.241-.277-.425-.269l-3.454.19c-.065-.379-.099-.763-.1-1.148.002-.385.037-.77.105-1.148l3.449.19z" transform="translate(-415 -184) translate(415 184.001)"/>
                    <path fill="#0050A8" fill-rule="nonzero" d="M13 14.999c1.105 0 2-.895 2-2s-.895-2-2-2-2 .895-2 2c.001 1.104.896 1.999 2 2zm0-3.2c.663 0 1.2.537 1.2 1.2 0 .663-.537 1.2-1.2 1.2-.663 0-1.2-.537-1.2-1.2 0-.663.537-1.2 1.2-1.2z" transform="translate(-415 -184) translate(415 184.001)"/>
                    <path fill="#FFF" d="M13 11.799c.663 0 1.2.537 1.2 1.2 0 .663-.537 1.2-1.2 1.2-.663 0-1.2-.537-1.2-1.2 0-.663.537-1.2 1.2-1.2z" transform="translate(-415 -184) translate(415 184.001)"/>
                </g>
            </g>
        </g>
    </g>
</svg>
