<svg xmlns="http://www.w3.org/2000/svg" width="46" height="24" viewBox="0 0 46 24">
    <g fill="none" fill-rule="evenodd">
        <g>
            <g>
                <path fill="#004FA5" fill-rule="nonzero" stroke="#004FA5" stroke-width=".1" d="M24.549 8.364c.339-.404.498-.943.439-1.48l-.418-3.74C24.497 2.493 23.975 2 23.354 2H17.85c-.99-.002-1.883.63-2.26 1.6l-1.51 3.865c-.133.343-.097.734.098 1.042.194.308.521.493.87.493h8.166c.51 0 .996-.232 1.336-.636zm-9.791-.269c-.066-.102-.078-.233-.032-.347l1.51-3.865c.268-.693.906-1.144 1.613-1.143h5.505c.267 0 .491.211.523.492l.417 3.74c.036.326-.06.654-.267.9-.207.247-.503.388-.814.388h-8.165c-.117 0-.226-.061-.29-.165h0z" transform="translate(-114 -183) translate(115 184)"/>
                <path fill="#FF7B00" d="M14.758 8.095c-.066-.102-.078-.233-.032-.347l1.51-3.865c.268-.693.906-1.144 1.613-1.143h5.505c.267 0 .491.211.523.492l.417 3.74c.036.326-.06.654-.267.9-.207.247-.503.388-.814.388h-8.165c-.117 0-.226-.061-.29-.165z" transform="translate(-114 -183) translate(115 184)"/>
                <path fill="#004FA5" fill-rule="nonzero" d="M25.652 9h-1.304c-.192 0-.348.224-.348.5s.156.5.348.5h1.304c.192 0 .348-.224.348-.5s-.156-.5-.348-.5z" transform="translate(-114 -183) translate(115 184)"/>
                <path fill="#004FA5" fill-rule="nonzero" stroke="#0054B0" stroke-width=".1" d="M44 10.297V9.82c0-1-.804-1.812-1.796-1.815l-13.713-.16c-.173-.001-.319-.131-.342-.304l-.127-.99c-.188-1.487-.446-3.523-.684-4.573-.156-.692-.391-1.737-1.818-1.841-1.835-.134-9.155-.418-11.434.651-.481.235-.94.616-1.381 1.092l-.006.006c-1.024 1.108-1.944 2.726-2.785 4.207-.425.748-.829 1.458-1.201 2.02-3.658.559-7.143 1.323-8.1 3.057-.14.256-.255.525-.341.804l-.005.015c-.373 1.204-.272 2.537-.188 3.649l.006.08c.086 1.065.967 1.887 2.027 1.891H3.79C3.99 20.09 6.044 22 8.512 22c2.467 0 4.521-1.91 4.721-4.39h17.092c.2 2.492 2.271 4.406 4.75 4.39 2.48-.014 4.528-1.954 4.698-4.447 3.06-.35 4.188-2.26 4.225-3.863l.002-.02v-3.372zm-.698 2.97c-.535-.156-.903-.65-.903-1.212v-.143c0-.562.368-1.056.903-1.213v2.569zM10.52 6.443c.793-1.396 1.66-2.92 2.58-3.96h.756c.215 0 .354.068.392.132.033.053-.003.143-.03.194l-1.971 3.549c-.692 1.214-1.166 1.721-2.314 1.721l-.37.003c.306-.493.624-1.054.957-1.639zm-9.483 5.95c.573-.061 1.286-.138 1.81-.162.025-.003.051.004.072.02.02.028.03.063.027.099 0 .698-.675 1.22-1.326 1.322-.304.044-.611.065-.918.064.008-.447.066-.891.172-1.325l.163-.018zm7.474 8.903c-1.634 0-3.107-.992-3.732-2.514-.626-1.523-.28-3.275.876-4.44 1.155-1.165 2.893-1.513 4.403-.883 1.51.631 2.494 2.116 2.494 3.764-.003 2.249-1.81 4.07-4.04 4.073zm26.536 0c-1.635 0-3.108-.992-3.733-2.514-.625-1.522-.28-3.275.876-4.44 1.155-1.165 2.893-1.513 4.403-.883 1.51.63 2.494 2.116 2.494 3.764-.003 2.248-1.81 4.07-4.04 4.073h0zm4.722-4.453c-.197-2.495-2.271-4.414-4.754-4.398-2.483.017-4.531 1.963-4.695 4.461H13.239c-.165-2.51-2.233-4.46-4.727-4.46-2.495 0-4.563 1.95-4.728 4.46H2.112c-.696-.002-1.274-.542-1.33-1.24l-.006-.08c-.029-.372-.057-.757-.07-1.146.341.002.683-.022 1.021-.071 1.092-.17 1.916-1.039 1.917-2.018.006-.228-.082-.448-.242-.609-.159-.15-.37-.226-.587-.213-.49.022-1.126.088-1.673.146.026-.054.052-.108.08-.161.825-1.492 4.36-2.214 7.72-2.723l.993-.007c1.607 0 2.247-.9 2.919-2.078l1.977-3.557.005-.01c.162-.315.165-.63.009-.89-.18-.298-.54-.47-.99-.47h-.022c.171-.136.356-.255.552-.353C16.503.432 23.782.717 25.47.84c.85.062 1.015.53 1.188 1.295.23 1.017.485 3.034.672 4.506.048.379.09.72.128.994.072.518.507.906 1.025.914l13.717.16c.608.001 1.101.498 1.102 1.111v.158c-.927.17-1.6.984-1.602 1.934v.144c.002.94.662 1.749 1.577 1.93-.16 1.266-1.149 2.563-3.508 2.856h0z" transform="translate(-114 -183) translate(115 184)"/>
                <path fill="#FF7B00" d="M10.52 6.442c.793-1.396 1.66-2.92 2.58-3.96h.756c.215 0 .354.068.392.132.033.053-.003.143-.03.194l-1.971 3.549c-.692 1.214-1.166 1.721-2.314 1.721l-.37.003c.306-.493.624-1.054.957-1.639z" transform="translate(-114 -183) translate(115 184)"/>
            </g>
        </g>
    </g>
</svg>
