<svg xmlns="http://www.w3.org/2000/svg" xmlns:xlink="http://www.w3.org/1999/xlink" width="21" height="27" viewBox="0 0 21 27">
    <defs>
        <path id="zh3jhgwnpa" d="M0 0L19.083 0 19.083 25.21 0 25.21z"/>
    </defs>
    <g fill="none" fill-rule="evenodd">
        <g>
            <g>
                <g transform="translate(-958.000000, -30.000000) translate(959.000000, 31.000000)">
                    <path fill="#FFF" stroke="#FFF" stroke-width=".25" d="M9.542 23.056s-8.103-9.037-8.103-13.51C1.356 5.07 4.915 1.374 9.39 1.29c4.475-.083 8.169 3.479 8.252 7.955.002.1.002.2 0 .301.003 4.473-8.1 13.51-8.1 13.51M9.542 0C4.275.005.006 4.276 0 9.546c0 4.885 7.604 13.502 8.47 14.473l1.072 1.191 1.072-1.188c.865-.972 8.469-9.59 8.469-14.473C19.08 4.277 14.81.005 9.542-.001"/>
                </g>
                <path fill="#FFF" d="M9.542 11.53c-1.194 0-2.162-.969-2.162-2.163s.968-2.162 2.162-2.162c1.193 0 2.16.968 2.16 2.162 0 1.193-.968 2.16-2.16 2.16v.002zM5.94 9.366c0 1.99 1.612 3.602 3.6 3.602 1.99 0 3.601-1.613 3.601-3.602 0-1.99-1.612-3.602-3.6-3.602-1.99 0-3.601 1.612-3.601 3.602z" transform="translate(-958.000000, -30.000000) translate(959.000000, 31.000000)"/>
            </g>
        </g>
    </g>
</svg>
