<svg xmlns="http://www.w3.org/2000/svg" width="26" height="26" viewBox="0 0 26 26">
    <g fill="none" fill-rule="evenodd">
        <g fill="#333" fill-rule="nonzero">
            <g>
                <path d="M25.754 24.586L19.04 17.98c1.758-1.91 2.838-4.436 2.838-7.215C21.879 4.819 16.98 0 10.939 0S0 4.82 0 10.765C0 16.71 4.897 21.53 10.939 21.53c2.61 0 5.005-.903 6.885-2.404l6.74 6.631c.328.324.86.324 1.19 0 .328-.323.328-.848 0-1.171zm-14.815-4.712c-5.112 0-9.256-4.079-9.256-9.11 0-5.03 4.144-9.108 9.256-9.108s9.256 4.078 9.256 9.109c0 5.03-4.144 9.109-9.256 9.109z" transform="translate(-1234.000000, -148.000000) translate(1234.000000, 148.000000)"/>
            </g>
        </g>
    </g>
</svg>
