<svg xmlns="http://www.w3.org/2000/svg" width="28" height="26" viewBox="0 0 28 26">
    <g fill="none" fill-rule="evenodd">
        <g>
            <g>
                <g>
                    <g fill-rule="nonzero">
                        <path fill="#DDDAEC" d="M.438.018C.288.018.143.04 0 .083L.02.018h.418z" transform="translate(-224 -1414) translate(224 1414) translate(.52 .564) translate(4.763 3.174)"/>
                        <g>
                            <path fill="#FF7B00" d="M3.971.808L.221 7.272c-.626 1.077.155 2.424 1.406 2.424H9.13c1.25 0 2.032-1.347 1.407-2.424L6.786.808C6.16-.269 4.596-.269 3.97.808z" transform="translate(-224 -1414) translate(224 1414) translate(.52 .564) translate(8.102)"/>
                            <g fill="#FFF">
                                <path d="M.822 4.23C.368 4.23 0 3.865 0 3.414V.818C0 .366.368 0 .822 0c.455 0 .823.366.823.818v2.595c0 .451-.368.818-.823.818zM.822 5.867C.368 5.867 0 5.5 0 5.049c0-.452.368-.818.822-.818.455 0 .823.366.823.818 0 .452-.368.818-.823.818z" transform="translate(-224 -1414) translate(224 1414) translate(.52 .564) translate(8.102) translate(4.556 2.438)"/>
                            </g>
                        </g>
                    </g>
                    <g>
                        <path fill="#0054B0" fill-rule="nonzero" d="M25.23 20.685c-.052 0-.104.002-.156.005v-5.528c1.568-.203 2.783-1.548 2.783-3.174V6.4c0-1.625-1.215-2.97-2.783-3.173v-.963c0-.72-.585-1.306-1.304-1.306h-1.72c-.718 0-1.303.586-1.303 1.306V3.2h-3.73l-1.258-2.182C15.392.38 14.734 0 14 0s-1.391.38-1.758 1.018L10.984 3.2h-3.73v-.936c0-.72-.585-1.306-1.304-1.306H4.23c-.718 0-1.303.586-1.303 1.306v.963C1.359 3.43.143 4.775.143 6.4v5.588c0 1.626 1.216 2.971 2.784 3.174v5.528c-.052-.003-.104-.005-.157-.005C1.243 20.685 0 21.93 0 23.46v1.31c0 .227.184.41.41.41h20.3c.227 0 .41-.183.41-.41 0-.227-.183-.411-.41-.411H.82v-.9c0-1.077.875-1.953 1.95-1.953.85 0 1.595.544 1.856 1.354.054.17.212.285.39.285.178 0 .336-.115.39-.285.26-.81 1.007-1.354 1.856-1.354.85 0 1.595.544 1.856 1.354.054.17.212.285.39.285.178 0 .336-.115.39-.285.261-.81 1.007-1.354 1.856-1.354.85 0 1.595.544 1.856 1.354.055.17.212.285.39.285.178 0 .336-.115.39-.285.261-.81 1.007-1.354 1.856-1.354.85 0 1.596.544 1.856 1.354.055.17.212.285.39.285.178 0 .336-.115.39-.285.261-.81 1.007-1.354 1.856-1.354.85 0 1.596.544 1.856 1.354.055.17.212.285.39.285.179 0 .336-.115.39-.285.261-.81 1.007-1.354 1.857-1.354 1.075 0 1.95.876 1.95 1.954v.899h-4.83c-.227 0-.411.184-.411.41 0 .228.184.412.41.412h5.24c.227 0 .41-.184.41-.411v-1.31c0-1.53-1.242-2.776-2.77-2.776zM21.568 2.264c0-.267.217-.484.484-.484h1.719c.267 0 .483.217.483.484V3.2h-2.686v-.936zM3 4h22c1.105 0 2 .895 2 2v6c0 1.105-.895 2-2 2H3c-1.105 0-2-.895-2-2V6c0-1.105.895-2 2-2zm9.952-2.571c.219-.38.61-.607 1.048-.607.438 0 .83.227 1.049.607l3.741 6.495c.22.38.22.833 0 1.213-.218.38-.61.606-1.048.606h-7.484c-.437 0-.83-.227-1.048-.606-.219-.38-.219-.834 0-1.213l3.742-6.495zm-8.721.351H5.95c.267 0 .483.217.483.484V3.2H3.747v-.936c0-.267.217-.484.484-.484zm.785 20.054c-.319-.443-.76-.781-1.269-.972v-5.673h2.687v5.622c-.571.178-1.069.537-1.418 1.023zm13.476 0c-.51-.71-1.336-1.15-2.246-1.15-.91 0-1.736.44-2.246 1.15-.51-.71-1.336-1.15-2.246-1.15-.91 0-1.736.44-2.246 1.15-.51-.71-1.336-1.15-2.246-1.15l-.008.001V15.19h13.493v5.496h-.009c-.91 0-1.736.44-2.246 1.149zm4.493 0c-.35-.486-.847-.845-1.418-1.023v-5.622h2.686v5.673c-.508.191-.95.529-1.268.972z" transform="translate(-224 -1414) translate(224 1414)"/>
                        <path fill="#FF7B00" stroke="#0054B0" stroke-width=".8" d="M14 .422c.291 0 .567.076.807.215.24.138.443.34.588.592h0l3.742 6.495c.29.505.29 1.108 0 1.612-.145.253-.349.454-.588.593-.24.138-.516.214-.807.214h0-7.484c-.29 0-.567-.076-.806-.214-.24-.139-.443-.34-.589-.593-.29-.504-.29-1.107 0-1.612h0l3.742-6.495c.146-.253.35-.454.589-.592.24-.139.515-.215.806-.215z" transform="translate(-224 -1414) translate(224 1414)"/>
                        <path fill="#0054B0" fill-rule="nonzero" stroke="#FF7B00" stroke-width=".1" d="M14 2.5c.326 0 .62.133.835.347.183.184.306.427.338.698l.008.138V6.29c0 .303-.114.58-.302.789.188.276.302.553.302.855 0 .327-.133.622-.346.837-.214.214-.51.347-.835.347-.325 0-.62-.133-.834-.347-.214-.215-.346-.51-.346-.837 0-.302.114-.579.301-.788-.156-.23-.261-.46-.292-.707l-.01-.149V3.683c0-.326.133-.622.347-.836.214-.214.509-.347.834-.347zm.326 5.109c-.08-.08-.184-.147-.63-.013h0l-.012.004h-.001l-.002.005-.013.027-.128.302c0 .128.052.243.135.326.083.084.198.135.325.135s.242-.051.326-.135c.083-.083.134-.198.134-.326 0-.127-.051-.242-.134-.325zm0-4.252c-.08-.08-.184-.146-.63-.012h0l-.012.003c-.005.008-.021.043-.144.335h0V6.29l.01.093c.018.09.063.17.125.233.083.084.198.135.325.135s.242-.051.326-.135c.083-.083.134-.199.134-.326h0V3.683l-.009-.093c-.018-.09-.063-.17-.125-.233z" transform="translate(-224 -1414) translate(224 1414)"/>
                        <path fill="#FFF" d="M14 8.345c-.226 0-.41-.184-.41-.41 0-.227.184-.412.41-.412.226 0 .41.185.41.411 0 .227-.184.411-.41.411zM13.59 3.683c0-.227.184-.41.41-.41.226 0 .41.183.41.41V6.29c0 .227-.184.411-.41.411-.226 0-.41-.184-.41-.41V3.682z" transform="translate(-224 -1414) translate(224 1414)"/>
                    </g>
                </g>
            </g>
        </g>
    </g>
</svg>
