<svg xmlns="http://www.w3.org/2000/svg" xmlns:xlink="http://www.w3.org/1999/xlink" width="32" height="30" viewBox="0 0 32 30">
    <defs>
        <path id="66jvw1emka" d="M0 0H32V30H0z"/>
    </defs>
    <g fill="none" fill-rule="evenodd">
        <g>
            <g transform="translate(-525 -1358) translate(525 1358)">
                <mask id="q137rno3ab" fill="#fff">
                    <use xlink:href="#66jvw1emka"/>
                </mask>
                <use fill="#FFF" xlink:href="#66jvw1emka"/>
                <g stroke-width=".2" mask="url(#q137rno3ab)">
                    <g>
                        <path fill="#0054B0" fill-rule="nonzero" stroke="#FFF" d="M64.1 23.55l-.378-.03V.965c0-.53-.362-.964-.807-.964H17.563c-.459 0-.832.433-.832.964v21.83h-1.923V8.8c0-.753-.564-1.364-1.258-1.364h-1.36c-.695 0-1.257.61-1.257 1.364v2.231H7.297c-.508 0-.915.323-1.21.956-.013.034-1.194 4.512-1.194 4.512l-3.207.718c-.443.078-.776.477-.776.917v5.395l-.385.02c-.292.018-.525.288-.525.613 0 .34.249.616.555.616h2.193c.08 1.76 1.433 3.17 3.1 3.17s3.022-1.41 3.099-3.17h7.99C17.02 26.569 18.398 28 20.093 28c1.239 0 2.306-.77 2.828-1.88.521 1.11 1.586 1.88 2.826 1.88 1.696 0 3.073-1.432 3.158-3.221h21.851c.085 1.79 1.461 3.221 3.158 3.221 1.24 0 2.306-.77 2.828-1.88.522 1.11 1.587 1.88 2.826 1.88 1.697 0 3.074-1.432 3.159-3.221h1.333c.306 0 .554-.276.554-.616 0-.321-.227-.59-.514-.613zM6.203 15.923l.88-3.359.08-.306H10.932v4.181h-.41l-3.927.002h-.53l.136-.518zm-.353 6.488c.566 0 1.078.246 1.453.64.367.403.597.96.597 1.574 0 .613-.229 1.167-.592 1.57-.376.395-.89.641-1.458.641-.564 0-1.074-.243-1.45-.632-.367-.407-.594-.965-.594-1.58 0-.617.228-1.176.598-1.583.375-.387.883-.63 1.446-.63zm7.849-4.329v5.465H8.783c-.423-1.303-1.57-2.249-2.934-2.249-1.362 0-2.512.946-2.932 2.25H2.02v-5.149l.32-.073 2.906-.65.044-.01h.101l.015.005 6.743-.005 1.14.005h.409v.411zm0-9.005V16.441H12.043V8.666H13.698v.411zm8.338 16.168c-.26.897-1.015 1.561-1.942 1.561-.75 0-1.376-.445-1.737-1.082-.174-.33-.3-.69-.3-1.099 0-.652.267-1.23.675-1.64.365-.347.833-.572 1.362-.572.725 0 1.334.422 1.7 1.026.207.35.357.742.357 1.187 0 .22-.06.419-.115.619zm5.612.22c-.313.79-1.049 1.34-1.901 1.34-.765 0-1.401-.46-1.759-1.117-.164-.32-.28-.67-.28-1.063 0-.647.26-1.221.662-1.63.366-.354.844-.583 1.376-.583.691 0 1.276.387 1.65.946.238.364.405.786.405 1.267 0 .3-.057.58-.153.84zm26.266 1.341c-.593 0-1.12-.275-1.496-.705-.323-.395-.534-.904-.534-1.476 0-.759.37-1.401.9-1.805.33-.236.703-.407 1.13-.407.837 0 1.551.534 1.875 1.298.116.28.185.586.187.913-.008 1.207-.926 2.182-2.062 2.182zm5.653 0c-.636 0-1.184-.323-1.562-.806-.279-.383-.47-.847-.47-1.375 0-.732.344-1.352.842-1.76.34-.266.737-.452 1.19-.452.817 0 1.508.515 1.841 1.246.131.295.22.616.22.965-.007 1.207-.926 2.182-2.06 2.182zm3.048-3.267s-.045-.09-.111-.21c-.474-1.234-1.61-2.11-2.936-2.11-1.24 0-2.304.772-2.827 1.88-.521-1.108-1.587-1.88-2.827-1.88-1.401 0-2.579.981-2.998 2.328H28.746c-.418-1.347-1.597-2.328-2.998-2.328-1.24 0-2.305.772-2.826 1.88-.522-1.108-1.588-1.88-2.828-1.88-.88 0-1.676.386-2.252 1.006v-3.501h44.773v4.815h0zm0-10.46v4.414H17.842V12.668h44.772v.411zm0-11.44V11.442H17.842V1.229h44.772v.41z" transform="matrix(-1 0 0 1 30.615 1)"/>
                        <path fill="#FF7B00" stroke="#FF7200" d="M25.765 22.411c.567 0 1.08.246 1.454.64.367.403.596.96.596 1.574 0 .613-.228 1.167-.591 1.57-.376.395-.89.641-1.459.641-.563 0-1.073-.243-1.449-.632-.367-.407-.594-.965-.594-1.58 0-.617.228-1.176.598-1.583.375-.387.883-.63 1.445-.63zM20.065 22.411c.567 0 1.08.246 1.454.64.367.403.596.96.596 1.574 0 .613-.228 1.167-.591 1.57-.376.395-.89.641-1.459.641-.563 0-1.073-.243-1.449-.632-.367-.407-.594-.965-.594-1.58 0-.617.228-1.176.598-1.583.375-.387.883-.63 1.445-.63z" transform="matrix(-1 0 0 1 30.615 1)"/>
                    </g>
                </g>
            </g>
        </g>
    </g>
</svg>
