<svg xmlns="http://www.w3.org/2000/svg" width="30" height="28" viewBox="0 0 30 28">
    <g fill="none" fill-rule="evenodd">
        <g fill-rule="nonzero">
            <g>
                <path fill="#FF7B00" d="M19 15.5L19 15.514 19 18 22.5 18 22.5 15.514 22.5 15.5zM22.5 27.994L22.5 28 19 28 19 27.994 19 24.5 19.572 25.13 20.164 24.5 20.75 25.13 21.336 24.5 21.928 25.13 22.5 24.5zM16 2.5L16 2.514 16 5 19.5 5 19.5 2.514 19.5 2.5zM18.927 12.622L18.336 12 17.75 12.622 17.165 12 16.573 12.622 16 12 16 15.5 19.5 15.5 19.5 12zM5.5 15.5L5.5 15.514 5.5 18 9 18 9 15.514 9 15.5zM9 27.994L9 28 5.5 28 5.5 27.994 5.5 24.5 6.073 25.13 6.665 24.5 7.25 25.13 7.835 24.5 8.427 25.13 9 24.5z" transform="translate(-155.000000, -271.000000) translate(155.000000, 271.000000)"/>
                <g fill="#004FA5">
                    <path d="M2.02 16.492c-.202 0-.367.164-.367.367v.385c0 .202.165.367.368.367.203 0 .367-.165.367-.367v-.385c0-.203-.164-.367-.367-.367zM2.02 18.038c-.202 0-.367.165-.367.367v4.035c0 .203.165.367.368.367.203 0 .367-.164.367-.367v-4.035c0-.202-.164-.367-.367-.367z" transform="translate(-155.000000, -271.000000) translate(155.000000, 271.000000)"/>
                    <path d="M29.64 12.41h-2.395V.343c.005-.091-.029-.181-.094-.246-.064-.066-.154-.1-.246-.096h-13.37c-.098-.004-.193.031-.264.098l-2.51 2.559c-.068.065-.107.155-.108.25v9.504h-7.8c-.097-.002-.19.035-.26.103L.098 15.015c-.066.07-.1.162-.097.258v12.385c-.004.092.032.182.097.247.066.065.156.1.249.095h26.8c.097.004.19-.03.26-.095l2.497-2.498c.066-.067.1-.159.097-.253V12.77c0-.095-.038-.186-.106-.253-.067-.068-.158-.105-.254-.105zM26.02.735l-1.773 1.773H18.6L20.372.734h5.647zm.491.494v11.347l-1.714 1.77V2.998l1.714-1.77zM19.224 3.24V4.77h-3V3.24h3zM13.69.734h5.644l-1.772 1.773h-5.602l1.73-1.773zM11.388 3.24h4.102v1.916c-.004.093.031.184.097.25.066.065.157.1.25.096h3.767c.094.005.185-.03.252-.096.068-.065.105-.156.103-.25V3.24h4.102v11.677h-4.224v-3.05c.002-.15-.088-.286-.227-.342-.138-.056-.297-.02-.4.089l-.312.33-.327-.338c-.069-.07-.163-.111-.262-.112h-.001c-.1 0-.194.042-.263.114l-.325.336-.325-.337c-.068-.072-.163-.113-.262-.113h-.001c-.1 0-.194.041-.263.112l-.328.336-.314-.33c-.1-.108-.256-.143-.393-.087-.138.057-.226.193-.222.341v3.051h-4.224V3.24zm7.592 12.41h3v1.59h-3v-1.59zm-2.633-.733v-2.143c.057.041.125.064.196.064.098 0 .192-.04.26-.11l.33-.337.325.336c.069.072.164.112.263.112.1 0 .194-.04.263-.112l.326-.336.332.337c.068.07.162.11.26.11.071 0 .141-.023.2-.064v2.143h-2.755zm-5.694-1.773v1.773H7.918l1.773-1.773h.962zm-2.081 2.507v1.59H5.51v-1.59h3.062zm-5.567-2.507h5.647l-1.773 1.773H1.233l1.772-1.773zM8.45 27.266H5.633V25.2c.063.041.137.064.212.065.101 0 .198-.04.27-.11l.332-.338.328.337c.069.07.164.11.264.11.099 0 .194-.04.264-.11l.326-.337.331.338c.074.071.172.11.275.11.076-.001.15-.024.214-.065v2.065zm13.408 0h-2.755V25.2c.056.041.123.064.193.065.097 0 .19-.04.259-.11l.328-.338.325.337c.069.07.164.11.263.11s.194-.04.263-.11l.326-.337.331.338c.07.071.164.11.264.11.072-.001.143-.024.203-.065v2.065zm4.898 0h-4.163v-2.973c0-.15-.09-.285-.23-.34-.139-.056-.298-.021-.4.088l-.314.33-.328-.346c-.068-.074-.163-.117-.263-.121-.101.004-.195.048-.263.122l-.325.34-.325-.343c-.068-.073-.163-.116-.263-.12-.1.005-.195.049-.263.122l-.329.34-.313-.327c-.099-.109-.255-.143-.39-.087-.137.058-.224.194-.219.342v2.973h-4.224v-7.03c0-.203-.165-.367-.367-.367-.203 0-.368.164-.368.367v7.03H9.184v-2.973c-.004-.151-.099-.285-.24-.34-.141-.055-.302-.02-.407.088l-.316.33-.33-.346c-.068-.073-.163-.117-.263-.121h-.001c-.1.004-.195.048-.263.122l-.325.34-.325-.342c-.068-.074-.162-.117-.262-.12H6.45c-.1.004-.195.048-.263.121l-.328.34-.314-.327c-.106-.109-.267-.143-.409-.087-.141.056-.235.19-.239.342v2.973H.735V15.65h4.04v1.932c.005.21.171.38.38.39h3.768c.21-.009.377-.18.383-.39v-1.932h4.102v2.14c0 .202.165.366.368.366.202 0 .367-.164.367-.367v-2.14h4.102v1.933c0 .203.138.39.34.39h3.767c.203 0 .362-.187.362-.39v-1.932h4.04v11.615zm.24-12.349l-1.829-.002 1.821-1.77h1.772l-1.764 1.772zm2.27 10.085l-1.775 1.746V15.425l1.775-1.749v11.326z" transform="translate(-155.000000, -271.000000) translate(155.000000, 271.000000)"/>
                </g>
            </g>
        </g>
    </g>
</svg>
