<svg xmlns="http://www.w3.org/2000/svg" width="49" height="27" viewBox="0 0 49 27">
    <g fill="none" fill-rule="evenodd">
        <g>
            <g>
                <path fill="#0053AD" fill-rule="nonzero" d="M47.82 0H16.924c-1.306.002-2.363 1.056-2.365 2.357v17.747h-.688V7.613c-.001-1.177-.958-2.13-2.139-2.132H8.968c-2.772 0-5.042 2.457-6.147 3.922C1.448 11.22.533 13.526.175 16.068c-.117.837-.176 1.68-.175 2.526v2.34c.002 1.302 1.06 2.356 2.365 2.357h3.301c.37 1.622 1.817 2.773 3.485 2.773 1.67 0 3.116-1.15 3.486-2.773h.055c.489 0 .927-.302 1.1-.757h.845c.174.455.613.757 1.102.757h16.804c.37 1.622 1.817 2.772 3.486 2.772 1.668 0 3.115-1.15 3.485-2.772h8.306c.651 0 1.179-.526 1.18-1.175V1.176C48.999.525 48.471 0 47.82 0zM16.924.775H47.82c.222 0 .402.179.402.4v19.372h-9.206c-.66-1.003-1.783-1.608-2.987-1.608-1.204 0-2.326.605-2.986 1.608H15.337V2.357c.001-.873.71-1.58 1.587-1.582zM3.443 9.868C4.46 8.52 6.533 6.256 8.968 6.256h2.764c.752.001 1.36.608 1.361 1.357v12.934h-.955c-.66-1.003-1.783-1.608-2.986-1.608-1.204 0-2.327.605-2.987 1.608H.778v-1.038c.332-.197 1.003-.616 1.43-1.029.258-.249.473-.539.636-.858.204-.4.184-.88-.054-1.261-.239-.39-.664-.628-1.123-.627h-.653c.379-2.237 1.213-4.257 2.429-5.866zM1.667 16.51c.188 0 .363.098.46.258.097.152.106.344.023.505-.124.242-.287.463-.483.652-.276.25-.573.475-.89.672v-.002c.001-.697.044-1.393.127-2.085h.763zm.698 6.007c-.726 0-1.359-.493-1.537-1.194h4.95c-.133.379-.202.778-.202 1.18v.014h-3.21zm6.786 2.773c-1.545 0-2.797-1.248-2.796-2.788 0-1.54 1.252-2.787 2.797-2.787 1.545 0 2.797 1.248 2.797 2.788-.002 1.539-1.253 2.786-2.798 2.787zm3.575-2.776v-.011c0-.402-.068-.801-.202-1.18h.569v.794c0 .207-.16.38-.367.397zm1.833-.754h-.688v-.88h.688v.88zm1.18.757c-.222 0-.401-.179-.402-.4v-.794h17.32c-.134.379-.203.778-.203 1.18v.014H15.74zm20.29 2.773c-1.545 0-2.797-1.248-2.797-2.787 0-1.54 1.252-2.788 2.797-2.788 1.545 0 2.797 1.248 2.797 2.788-.002 1.539-1.253 2.786-2.797 2.787zm11.79-2.773h-8.215v-.014c0-.402-.069-.801-.203-1.18h8.821v.794c0 .221-.18.4-.402.4z" transform="translate(-402.000000, -175.000000) translate(426.500007, 188.031916) scale(-1, 1) translate(-426.500007, -188.031916) translate(402.000004, 175.000000)"/>
                <path fill="#0053AD" d="M9.151 25.29c-1.545-.001-2.797-1.25-2.796-2.789 0-1.54 1.252-2.787 2.797-2.787 1.545 0 2.797 1.248 2.797 2.788-.002 1.539-1.253 2.786-2.798 2.787zM36.029 25.29c-1.545 0-2.797-1.249-2.797-2.788 0-1.54 1.252-2.788 2.797-2.788 1.545 0 2.797 1.248 2.797 2.788-.002 1.539-1.253 2.786-2.797 2.787z" transform="translate(-402.000000, -175.000000) translate(426.500007, 188.031916) scale(-1, 1) translate(-426.500007, -188.031916) translate(402.000004, 175.000000)"/>
                <path fill="#FFF" d="M36.029 24.296c-.993 0-1.797-.802-1.797-1.79 0-.99.804-1.792 1.797-1.792.992 0 1.797.802 1.797 1.791-.001.989-.805 1.79-1.797 1.791z" transform="translate(-402.000000, -175.000000) translate(426.500007, 188.031916) scale(-1, 1) translate(-426.500007, -188.031916) translate(402.000004, 175.000000)"/>
                <path fill="#0053AD" fill-rule="nonzero" d="M4.611 13.553h6.21c.645 0 1.168-.508 1.168-1.133V8.43c0-.625-.523-1.132-1.168-1.133h-.788c-4.298 0-5.905 3.605-6.296 4.71-.15.426-.106.877.114 1.176.175.238.46.376.76.369zm-.144-1.303c.348-.986 1.78-4.205 5.566-4.205h.788c.22 0 .398.173.398.386v3.989c0 .213-.178.385-.398.386H4.61c-.051.006-.102-.015-.132-.057-.062-.082-.091-.274-.012-.499zM9.122 21.372c-.72 0-1.303.584-1.303 1.304 0 .72.584 1.303 1.303 1.303.72 0 1.304-.584 1.304-1.303-.001-.72-.584-1.303-1.304-1.304zm0 1.848c-.3 0-.544-.244-.544-.544 0-.301.244-.545.544-.545.301 0 .545.244.545.545 0 .3-.244.544-.545.544z" transform="translate(-402.000000, -175.000000) translate(426.500007, 188.031916) scale(-1, 1) translate(-426.500007, -188.031916) translate(402.000004, 175.000000)"/>
                <path fill="#FFF" d="M9.15 24.294c-.991 0-1.795-.801-1.795-1.79s.804-1.79 1.796-1.79 1.796.802 1.796 1.79c0 .989-.805 1.79-1.796 1.79z" transform="translate(-402.000000, -175.000000) translate(426.500007, 188.031916) scale(-1, 1) translate(-426.500007, -188.031916) translate(402.000004, 175.000000)"/>
                <path fill="#0053AD" fill-rule="nonzero" d="M11.656 14.596h-.897c-.184 0-.333.116-.333.26 0 .144.149.261.333.261h.897c.184 0 .333-.117.333-.26 0-.145-.15-.261-.333-.261z" transform="translate(-402.000000, -175.000000) translate(426.500007, 188.031916) scale(-1, 1) translate(-426.500007, -188.031916) translate(402.000004, 175.000000)"/>
                <path fill="#F5822D" d="M4.467 12.25c.348-.986 1.78-4.205 5.566-4.205h.788c.22 0 .398.173.398.386v3.989c0 .213-.178.385-.398.386H4.61c-.051.006-.102-.015-.132-.057-.062-.082-.091-.274-.012-.499z" transform="translate(-402.000000, -175.000000) translate(426.500007, 188.031916) scale(-1, 1) translate(-426.500007, -188.031916) translate(402.000004, 175.000000)"/>
            </g>
        </g>
    </g>
</svg>
