<svg xmlns="http://www.w3.org/2000/svg" width="38" height="28" viewBox="0 0 38 28">
    <g fill="none" fill-rule="evenodd">
        <g>
            <g>
                <g>
                    <path fill="#004EA4" fill-rule="nonzero" d="M30.648 11.998c-1.127-.437-3.24-.442-3.33-.442-.267 0-.485.168-.485.376s.218.376.486.376c.545 0 2.128.066 2.895.363.07.027.144.04.217.04.178 0 .35-.076.434-.208.12-.186.023-.412-.217-.505z" transform="translate(-403.000000, -271.000000) translate(404.000000, 272.000000)"/>
                    <path fill="#004FA4" fill-rule="nonzero" stroke="#FFF" stroke-width=".2" d="M33.435 18.666l-2.117-.599c-.091-.026-.155-.11-.155-.203v-.7c.172-.118.336-.25.49-.397.744-.715 1.154-1.674 1.154-2.7v-.965l.205-.405c.225-.445.343-.943.343-1.44V8.643c0-.28-.23-.507-.512-.507h-4.934c-1.794 0-3.254 1.444-3.254 3.219v.03c0 .414.1.828.286 1.197l.263.52v.828c0 1.314.654 2.492 1.644 3.2v.734c0 .113 0 .16-.423.28l-1.033.291-2.989-1.075c.01-.14-.037-.282-.14-.389l-.955-.992v-1.667c.101-.082.2-.167.297-.256 1.205-1.117 1.896-2.695 1.896-4.328V8.397c.364-.783.548-1.612.548-2.466V.507c0-.28-.23-.507-.512-.507h-7.675c-2.701 0-4.898 2.174-4.898 4.846v1.085c0 .854.184 1.683.548 2.466v1.145c0 1.896.852 3.605 2.193 4.731v1.706l-.955.993c-.103.106-.15.248-.14.388l-3.155 1.135c-.228.082-.44.193-.633.328l-.496-.245c1.475-.635 1.942-1.528 1.964-1.572.073-.143.073-.311 0-.454-.37-.731-.414-2.072-.45-3.15-.012-.358-.023-.697-.045-.998C9.62 9.97 7.751 8.136 5.446 8.136c-2.304 0-4.174 1.835-4.348 4.268-.022.302-.033.64-.045.999-.036 1.077-.081 2.418-.45 3.149-.073.143-.073.31 0 .454.022.044.488.935 1.965 1.571l-1.376.68C.457 19.623 0 20.354 0 21.168v3.748c0 .28.23.507.513.507.283 0 .512-.227.512-.507v-3.748c0-.427.24-.81.626-1.002l1.713-.847.596.56c.417.392.952.588 1.486.588.535 0 1.07-.196 1.486-.588l.596-.56.559.276c-.263.417-.412.905-.412 1.417v3.904c0 .28.23.507.512.507.283 0 .513-.227.513-.507V21.01c0-.697.444-1.325 1.106-1.563l3.326-1.196 1.384 2.055c.177.262.46.43.778.462.036.003.07.005.106.005.28 0 .549-.109.75-.307l.844-.836v5.284c0 .28.23.507.512.507.284 0 .513-.227.513-.507V19.63l.845.836c.2.198.469.307.749.307.035 0 .07-.002.105-.005.318-.031.602-.2.779-.462l1.384-2.055 3.326 1.196c.661.238 1.106.866 1.106 1.563v3.904c0 .28.23.507.513.507.283 0 .512-.227.512-.507v-3.904c0-.706-.283-1.367-.758-1.856l.127-.036c.127-.036.302-.086.477-.17l1.309 1.295v4.671c0 .28.23.507.512.507.284 0 .513-.227.513-.507v-4.671l1.3-1.287c.07.035.142.065.218.086l2.118.599c.483.136.82.58.82 1.077v4.196c0 .28.23.507.513.507.283 0 .513-.227.513-.507v-4.196c0-.949-.643-1.793-1.565-2.053zM3.29 17.77c-.959-.341-1.44-.797-1.645-1.045.14-.362.23-.777.292-1.215.283.67.756 1.243 1.353 1.652v.608zm2.937 1.373c-.437.41-1.122.41-1.56 0l-.476-.449c.08-.149.125-.318.125-.495v-.54c.357.11.737.17 1.131.17s.774-.06 1.132-.17v.54c0 .177.044.346.125.496l-.477.448zm-.78-2.329c-1.53 0-2.776-1.232-2.776-2.747 0-.28-.23-.507-.513-.507-.028 0-.056.003-.084.007l.005-.13c.011-.35.022-.679.043-.961.065-.912.433-1.752 1.036-2.365.608-.62 1.421-.96 2.29-.96.867 0 1.68.34 2.289.96.603.613.97 1.453 1.036 2.365.02.282.032.612.043.96l.003.091c-.557-.85-1.419-1.477-2.532-1.83-1.028-.328-1.913-.308-1.95-.307-.134.004-.262.06-.355.155l-.925.95c-.196.201-.19.522.013.717.204.194.529.188.725-.013l.77-.79c.663.032 2.795.277 3.625 2.084-.209 1.332-1.366 2.321-2.742 2.321zm2.158.958v-.605c.596-.407 1.07-.978 1.353-1.654.062.437.152.85.292 1.212-.204.246-.687.705-1.645 1.047zm4.933-8.23V8.283c0-.076-.017-.151-.05-.22-.33-.676-.498-1.393-.498-2.132V4.846c0-2.112 1.737-3.831 3.873-3.831h7.162V5.93c0 .739-.167 1.456-.497 2.132-.034.069-.051.144-.051.22v1.445c0 1.374-.558 2.648-1.572 3.588-.127.117-.258.227-.394.33l-.008.006c-.95.713-2.113 1.06-3.327.982-2.6-.167-4.638-2.403-4.638-5.092zm2.887 10.207c-.003.004-.012.012-.029.01-.016-.001-.023-.011-.026-.015l-1.594-2.367.513-.533 2.419 1.636-1.283 1.27zm2.082-1.957l-2.776-1.878v-.947c.718.384 1.523.624 2.378.68.136.008.27.012.404.012.98 0 1.924-.232 2.77-.672v.927l-2.776 1.878zm2.138 1.952c-.003.004-.01.014-.026.015-.017.002-.025-.006-.03-.01l-1.282-1.27 2.419-1.635.513.533-1.594 2.367zm9.361-.428l-1.163-1.151c.02-.092.032-.191.032-.302v-.214c.322.105.663.167 1.015.178l.118.002c.389 0 .769-.059 1.13-.17v.205c0 .1.013.2.037.295l-1.169 1.157zm1.934-3.277c-.544.521-1.261.797-2.02.774-1.483-.044-2.69-1.337-2.69-2.882v-.949c0-.079-.019-.156-.054-.227l-.317-.626c-.116-.23-.177-.487-.177-.744v-.03c0-1.216 1-2.205 2.228-2.205h4.421v2.107c0 .34-.081.682-.235.986l-.259.512c-.036.07-.054.148-.054.227v1.085c0 .75-.3 1.45-.843 1.972z" transform="translate(-403.000000, -271.000000) translate(404.000000, 272.000000)"/>
                    <path fill="#FF7B00" d="M15.424 19.75c-.003.003-.012.01-.029.01-.016-.002-.023-.012-.026-.016l-1.594-2.367.513-.533 2.419 1.636-1.283 1.27zM19.644 19.744c-.003.004-.01.014-.026.015-.017.002-.025-.006-.03-.01l-1.282-1.27 2.419-1.635.513.533-1.594 2.367z" transform="translate(-403.000000, -271.000000) translate(404.000000, 272.000000)"/>
                    <path d="M12.537 9.542V8.283c0-.076-.017-.151-.05-.22-.33-.676-.498-1.393-.498-2.132V4.846c0-2.112 1.737-3.831 3.873-3.831h7.162V5.93c0 .739-.167 1.456-.497 2.132-.034.069-.051.144-.051.22v1.445c0 1.374-.558 2.648-1.572 3.588-.127.117-.258.227-.394.33l-.008.006c-.95.713-2.113 1.06-3.327.982-2.6-.167-4.638-2.403-4.638-5.092z" transform="translate(-403.000000, -271.000000) translate(404.000000, 272.000000)"/>
                    <path fill="#0050A7" fill-rule="nonzero" stroke="#FFF" stroke-width=".2" d="M32.083 21.378c-.322 0-.583.215-.583.48v3.084c0 .265.261.48.583.48.322 0 .584-.215.584-.48v-3.084c0-.265-.262-.48-.584-.48zM2.917 21.956c-.322 0-.584.218-.584.488v2.49c0 .27.262.488.584.488.322 0 .583-.219.583-.488v-2.49c0-.27-.261-.488-.583-.488z" transform="translate(-403.000000, -271.000000) translate(404.000000, 272.000000)"/>
                    <path fill="#0050A7" fill-rule="nonzero" d="M21.432 6.115c-1.95-1.901-6.03-1.538-7.694-1.293-.524.077-.905.51-.905 1.028v1.158c0 .278.231.503.516.503.285 0 .516-.225.516-.503V5.85c0-.017.011-.032.027-.034.664-.098 1.983-.248 3.35-.16 1.607.105 2.772.498 3.461 1.17.201.197.528.197.73 0 .2-.196.2-.514 0-.71z" transform="translate(-403.000000, -271.000000) translate(404.000000, 272.000000)"/>
                    <path fill="#0050A7" fill-rule="nonzero" stroke="#FFF" stroke-width=".2" d="M11.667 22.533c-.322 0-.584.248-.584.553v2.362c0 .305.262.552.584.552.322 0 .583-.247.583-.552v-2.362c0-.305-.261-.553-.583-.553zM23.333 22.533c-.322 0-.583.248-.583.553v2.362c0 .305.261.552.583.552.322 0 .584-.247.584-.552v-2.362c0-.305-.262-.553-.584-.553z" transform="translate(-403.000000, -271.000000) translate(404.000000, 272.000000)"/>
                </g>
                <path stroke="#004FA4" stroke-linecap="round" stroke-width="1.3" d="M0 25L17.705 26 36 25" transform="translate(-403.000000, -271.000000) translate(404.000000, 272.000000)"/>
            </g>
        </g>
    </g>
</svg>
