<svg xmlns="http://www.w3.org/2000/svg" width="57" height="26" viewBox="0 0 57 26">
    <g fill="none" fill-rule="evenodd">
        <g>
            <g>
                <g>
                    <g>
                        <path fill="#0054B0" fill-rule="nonzero" d="M54.52 0H15.95c-.972.001-1.76.79-1.761 1.764V7.14c-.104-.034-.212-.052-.32-.052h-3.103c-.847-.003-1.607.518-1.91 1.31l-2.019 5.216c-.046.122-.15.213-.277.244-.78.186-2.674.653-3.396.958-.658.277-1.475.696-2.083 1.414l-.032.038c-.346.419-.592.912-.718 1.441-.238.985-.334 2.73-.33 3.405.003.607.013 2.219 1.558 2.219h2.242c.328 1.394 1.57 2.379 3.001 2.379 1.43 0 2.674-.985 3.002-2.38h4.064c.253 0 .497-.093.685-.261.192.168.439.262.695.262h29.21c.329 1.394 1.571 2.379 3.002 2.379 1.43 0 2.673-.985 3.001-2.38h4.76c.585 0 1.059-.474 1.06-1.06V1.764C56.28.791 55.492.001 54.519 0zM9.13 9.665h2.133c.217-.01.402.157.414.374v2.971c-.012.218-.197.385-.414.375H7.69l1.44-3.72zM1.506 16.84c.242.015.692.087.78.406.073.265-.012.754-.316 1.175-.277.38-.686.641-1.146.735.04-.43.106-.857.199-1.279.089-.375.254-.728.483-1.037zm2.211 5.78H1.56c-.401 0-.676-.143-.789-.76h3.044c-.063.248-.096.503-.096.76zm3.084 2.378c-.96 0-1.824-.578-2.191-1.466-.367-.888-.164-1.91.514-2.588.679-.68 1.7-.883 2.586-.515.886.368 1.464 1.234 1.464 2.195-.002 1.31-1.063 2.373-2.373 2.375zm7.387-2.726v.027c0 .177-.144.32-.32.32H9.886c0-.256-.033-.51-.096-.759h4.398v.412zm0-1.125H9.51c-.54-.993-1.58-1.611-2.709-1.611-1.13 0-2.168.618-2.708 1.611H.712v-.037c-.002-.282.015-.73.05-1.221.714-.087 1.361-.467 1.786-1.05.397-.55.567-1.265.425-1.782-.126-.459-.486-.707-.867-.83.409-.31.858-.564 1.334-.754.693-.293 2.69-.78 3.286-.922.267-.064.5-.226.655-.453h3.882c.61.01 1.113-.476 1.125-1.087V10.04c-.012-.61-.515-1.097-1.125-1.087H9.405l.115-.296c.197-.517.693-.857 1.246-.855h3.102c.177 0 .32.144.32.321v13.025zm1.059 1.472c-.192 0-.347-.155-.347-.347v-.412h29.57c-.063.248-.095.503-.095.76H15.248zm30.02.913c-.367-.887-.164-1.909.515-2.588.678-.68 1.699-.883 2.585-.515.887.367 1.464 1.234 1.464 2.194 0 1.311-1.062 2.374-2.371 2.376-.96 0-1.825-.58-2.192-1.467zm10.301-1.26c0 .192-.155.347-.347.347h-4.678c0-.256-.032-.51-.095-.759h5.12v.412zm0-1.125h-5.4c-.54-.993-1.58-1.611-2.709-1.611-1.13 0-2.168.618-2.708 1.611H14.9V1.764c0-.58.47-1.05 1.05-1.051h38.568c.58 0 1.05.471 1.05 1.051v19.383z" transform="translate(-115.000000, -175.000000) translate(115.000000, 175.000000) translate(-0.000000, -0.000000) translate(28.140340, 12.855973) scale(-1, 1) translate(-28.140340, -12.855973) translate(-0.000000, 0.000000)"/>
                        <path fill="#0054B0" fill-rule="nonzero" d="M11.642 15.427h-1c-.198 0-.357.192-.357.429 0 .236.16.428.356.428h1.001c.197 0 .357-.192.357-.428 0-.237-.16-.429-.357-.429z" transform="translate(-115.000000, -175.000000) translate(115.000000, 175.000000) translate(-0.000000, -0.000000) translate(28.140340, 12.855973) scale(-1, 1) translate(-28.140340, -12.855973) translate(-0.000000, 0.000000)"/>
                        <path fill="#0054B0" d="M6.802 24.998c-.96 0-1.824-.578-2.191-1.466-.367-.888-.164-1.91.514-2.588.679-.68 1.7-.883 2.586-.515.886.368 1.464 1.234 1.464 2.195-.002 1.31-1.063 2.373-2.373 2.375z" transform="translate(-115.000000, -175.000000) translate(115.000000, 175.000000) translate(-0.000000, -0.000000) translate(28.140340, 12.855973) scale(-1, 1) translate(-28.140340, -12.855973) translate(-0.000000, 0.000000)"/>
                        <path fill="#FFF" d="M6.804 23.999c-.556 0-1.057-.336-1.27-.85-.212-.513-.094-1.105.299-1.498.392-.394.983-.511 1.497-.298.513.213.847.714.847 1.27 0 .76-.615 1.375-1.373 1.376z" transform="translate(-115.000000, -175.000000) translate(115.000000, 175.000000) translate(-0.000000, -0.000000) translate(28.140340, 12.855973) scale(-1, 1) translate(-28.140340, -12.855973) translate(-0.000000, 0.000000)"/>
                        <path fill="#FF7B00" d="M9.13 9.665h2.133c.217-.01.402.157.414.374v2.971c-.012.218-.197.385-.414.375H7.69l1.44-3.72z" transform="translate(-115.000000, -175.000000) translate(115.000000, 175.000000) translate(-0.000000, -0.000000) translate(28.140340, 12.855973) scale(-1, 1) translate(-28.140340, -12.855973) translate(-0.000000, 0.000000)"/>
                    </g>
                    <path fill="#0054B0" d="M36.426 25.855c-1.27 0-2.414-.765-2.9-1.94-.485-1.174-.216-2.526.681-3.424.898-.899 2.248-1.168 3.42-.681 1.173.487 1.938 1.632 1.938 2.903-.002 1.735-1.406 3.14-3.139 3.143z" transform="translate(-115.000000, -175.000000) translate(115.000000, 175.000000) translate(-0.000000, -0.000000)"/>
                    <path fill="#FFF" d="M36.394 24.11c-.578 0-1.1-.348-1.32-.883-.222-.535-.1-1.15.31-1.56.408-.41 1.023-.532 1.557-.31.535.222.883.744.883 1.323-.001.79-.64 1.43-1.43 1.431z" transform="translate(-115.000000, -175.000000) translate(115.000000, 175.000000) translate(-0.000000, -0.000000)"/>
                    <path fill="#0054B0" d="M30.427 25.855c-1.27 0-2.414-.765-2.9-1.94-.485-1.174-.217-2.526.68-3.424.899-.899 2.249-1.168 3.421-.681 1.173.487 1.938 1.632 1.937 2.903-.002 1.735-1.406 3.14-3.138 3.143z" transform="translate(-115.000000, -175.000000) translate(115.000000, 175.000000) translate(-0.000000, -0.000000)"/>
                    <path fill="#FFF" d="M30.395 24.11c-.579 0-1.1-.348-1.321-.883-.222-.535-.1-1.15.31-1.56.409-.41 1.024-.532 1.558-.31.534.222.882.744.882 1.323 0 .79-.64 1.43-1.43 1.431z" transform="translate(-115.000000, -175.000000) translate(115.000000, 175.000000) translate(-0.000000, -0.000000)"/>
                </g>
                <path fill="#0054B0" d="M6.629 23.532c-.367-.887-.164-1.909.514-2.588.679-.68 1.699-.883 2.585-.515.887.367 1.465 1.234 1.465 2.194C11.19 23.934 10.13 24.997 8.82 25c-.96 0-1.825-.58-2.192-1.467z" transform="translate(-115.000000, -175.000000) translate(115.000000, 175.000000)"/>
                <path fill="#FFF" d="M7.309 23.29c-.228-.552-.102-1.187.32-1.61.422-.422 1.056-.548 1.607-.32.551.229.91.768.91 1.365 0 .815-.66 1.476-1.474 1.477-.597 0-1.135-.36-1.363-.912z" transform="translate(-115.000000, -175.000000) translate(115.000000, 175.000000)"/>
            </g>
        </g>
    </g>
</svg>
