<svg xmlns="http://www.w3.org/2000/svg" width="60" height="44" viewBox="0 0 60 44">
    <g fill="none" fill-rule="evenodd">
        <g>
            <g>
                <path fill="#0050A8" fill-rule="nonzero" d="M58.149 31.344v-5.31c0-3.318-1.68-6.252-4.238-8.01h1.743c1.66 0 3.011-1.343 3.011-3 0-1.65-1.35-2.992-3.01-2.992h-4.347L49.4 4.881l-.009-.03-.002-.009C48.61 1.99 45.996 0 43.018 0H24.102c-1.137 0-1.137 1.747 0 1.747h18.916c1.79 0 3.401.98 4.24 2.484H12.742c.839-1.505 2.45-2.484 4.24-2.484h2.51c1.136 0 1.136-1.747 0-1.747h-2.51c-2.978 0-5.592 1.99-6.372 4.842 0 .004-.002.007-.003.011l-.008.028-1.907 7.151H4.385c-1.66 0-3.011 1.343-3.011 3 0 1.65 1.35 2.992 3.01 2.992H6.09c-2.558 1.758-4.238 4.692-4.238 8.01v5.31C.79 31.597 0 32.545 0 33.675v2.55c0 1.324 1.084 2.401 2.417 2.401h2.7v3.1C5.116 42.98 6.141 44 7.402 44h6.66c1.26 0 2.287-1.02 2.287-2.273v-3.1h27.3v3.1c0 1.253 1.026 2.273 2.288 2.273h6.659c1.26 0 2.287-1.02 2.287-2.273v-3.1h2.7c1.332 0 2.416-1.077 2.416-2.402v-2.55c0-1.13-.79-2.077-1.851-2.331zM12.125 5.978h35.75l2.828 10.606c-.753-.186-1.54-.286-2.35-.286H11.647c-.81 0-1.598.1-2.351.286l2.828-10.606zm43.53 7.801c.69 0 1.253.559 1.253 1.252 0 .687-.563 1.246-1.254 1.246H52.44l-.666-2.498h3.88zM3.13 15.024c0-.686.563-1.245 1.254-1.245h3.841l-.666 2.498H4.385c-.691 0-1.254-.559-1.254-1.253zm11.46 26.703c0 .29-.237.526-.529.526H7.403c-.292 0-.53-.236-.53-.526v-3.1h7.719v3.1zm38.535 0c0 .29-.238.526-.53.526h-6.659c-.292 0-.529-.236-.529-.526v-3.1h7.718v3.1zm5.116-5.502c0 .362-.295.655-.659.655H2.417c-.364 0-.66-.293-.66-.655v-2.549c0-.361.296-.655.66-.655h43.572c1.137 0 1.137-1.747 0-1.747H3.61v-5.24c0-4.405 3.606-7.989 8.039-7.989h36.704c4.433 0 8.04 3.584 8.04 7.989v5.24h-5.766c-1.136 0-1.136 1.747 0 1.747h6.957c.364 0 .66.294.66.655v2.55z" transform="translate(-525 -996) translate(525 996)"/>
                <path fill="#FF7B00" d="M11.869 6H48.13L51 17c-.764-.192-1.563-.296-2.384-.296H11.384c-.821 0-1.62.104-2.384.296l2.869-11z" transform="translate(-525 -996) translate(525 996)"/>
                <path fill="#0050A8" fill-rule="nonzero" d="M12 22c-2.206 0-4 1.794-4 4s1.794 4 4 4 4-1.794 4-4-1.794-4-4-4zm0 6.383c-1.31 0-2.375-1.069-2.375-2.383S10.69 23.617 12 23.617s2.375 1.069 2.375 2.383S13.31 28.383 12 28.383zM52 26c0-2.206-1.794-4-4-4s-4 1.794-4 4 1.794 4 4 4 4-1.794 4-4zm-4 2.383c-1.31 0-2.375-1.069-2.375-2.383S46.69 23.617 48 23.617s2.375 1.069 2.375 2.383S49.31 28.383 48 28.383zM38.157 22H19.844c-.466 0-.844.41-.844.917v4.166c0 .507.378.917.844.917h18.312c.466 0 .844-.41.844-.917v-4.166c0-.507-.378-.917-.843-.917zm-.844 4.167H20.687v-2.333h16.626v2.333z" transform="translate(-525 -996) translate(525 996)"/>
            </g>
        </g>
    </g>
</svg>
