<svg xmlns="http://www.w3.org/2000/svg" width="60" height="60" viewBox="0 0 60 60">
    <g fill="none" fill-rule="evenodd">
        <g fill-rule="nonzero">
            <g>
                <g>
                    <path fill="#FF7B00" d="M26.114 7.35C28.284 2.99 32.724 0 37.849 0 45.112 0 51 6.003 51 13.409c0 4.696-2.367 8.827-5.952 11.223H26.114V7.35z" transform="translate(-125 -988) translate(125 988) translate(0 9)"/>
                    <path fill="#FFF" d="M9.911 15.79c0-5.697 4.622-10.292 10.25-10.1 5.36.182 9.572 4.758 9.572 10.226 0 2.163 1.72 3.915 3.84 3.915h3.97c4.358 0 7.99 3.535 8.047 7.977.057 4.514-3.514 8.192-7.928 8.192H10.035C4.57 36 .041 31.543 0 25.97-.04 20.355 4.412 15.79 9.911 15.79z" transform="translate(-125 -988) translate(125 988) translate(0 9)"/>
                </g>
                <g fill="#0050A8">
                    <path d="M52.234 22.234c0-3.213-1.031-6.256-2.982-8.8-.296-.385-.848-.458-1.233-.162-.385.295-.458.847-.162 1.232 1.714 2.234 2.62 4.907 2.62 7.73 0 3.935-1.801 7.598-4.866 10-1.39-2.975-4.447-5.054-7.961-5.054h-3.89c-1.588 0-2.881-1.293-2.881-2.883 0-2.774-1.051-5.41-2.96-7.42-.358-.377-.739-.724-1.139-1.04 2.276-3.912 6.42-6.314 10.985-6.314 2.838 0 5.521.914 7.761 2.644.384.296.936.225 1.233-.16.296-.383.226-.935-.159-1.232-2.55-1.969-5.605-3.01-8.835-3.01-5.165 0-9.854 2.7-12.455 7.103-1.42-.776-3.004-1.217-4.655-1.272-2.897-.096-5.64.958-7.72 2.97-1.878 1.815-2.994 4.191-3.195 6.764-2.523.198-4.865 1.28-6.667 3.095C1.07 28.442-.021 31.12 0 33.963c.043 5.793 4.847 10.505 10.708 10.505h20.355c.485 0 .879-.393.879-.878 0-.486-.394-.88-.88-.88H10.709c-4.9 0-8.914-3.93-8.95-8.76-.017-2.372.892-4.604 2.562-6.287 1.67-1.682 3.896-2.608 6.266-2.608.485 0 .879-.394.879-.88 0-2.413.956-4.667 2.691-6.346 1.735-1.677 4.02-2.56 6.44-2.476 4.7.157 8.525 4.17 8.525 8.945 0 2.558 2.082 4.64 4.64 4.64h3.889c3.812 0 6.953 3.048 7.002 6.794.024 1.858-.681 3.609-1.985 4.93-1.304 1.321-3.045 2.049-4.901 2.049h-3.188c-.485 0-.878.393-.878.879 0 .485.393.878.878.878h3.188c2.33 0 4.515-.913 6.152-2.571 1.637-1.659 2.522-3.856 2.492-6.188-.008-.59-.077-1.168-.201-1.726 3.784-2.72 6.025-7.065 6.025-11.749zM37.766 5.64c.485 0 .879-.393.879-.878V.879c0-.486-.394-.879-.88-.879-.485 0-.878.393-.878.879v3.883c0 .485.393.879.879.879z" transform="translate(-125 -988) translate(125 988)"/>
                    <path d="M24.79 10.5c.17.172.396.258.62.258.226 0 .45-.086.622-.257.343-.344.343-.9 0-1.243l-2.745-2.746c-.344-.343-.9-.343-1.243 0-.344.344-.344.9 0 1.243l2.745 2.746zM50.742 33.968c-.343-.343-.9-.343-1.243 0-.343.343-.343.9 0 1.243l2.746 2.745c.171.172.396.258.621.258.225 0 .45-.086.622-.258.343-.343.343-.9 0-1.243l-2.746-2.745zM59.121 21.355h-3.883c-.485 0-.879.394-.879.88 0 .485.394.878.88.878h3.882c.486 0 .879-.393.879-.879 0-.485-.393-.879-.879-.879zM52.245 6.512l-2.746 2.746c-.343.343-.343.9 0 1.243.172.171.397.257.622.257.225 0 .45-.086.621-.257l2.746-2.746c.343-.343.343-.9 0-1.243-.344-.343-.9-.343-1.243 0zM18.745 46.686c-.435-.217-.963-.04-1.18.393l-1.94 3.883c-.218.434-.042.962.392 1.18.126.063.26.092.393.092.322 0 .632-.178.786-.486l1.942-3.882c.217-.435.04-.963-.393-1.18zM28.452 46.686c-.435-.217-.962-.04-1.18.393l-1.94 3.883c-.218.434-.042.962.392 1.18.126.063.26.092.393.092.322 0 .632-.178.786-.486l1.942-3.882c.217-.435.04-.963-.393-1.18zM32.335 54.452c-.435-.217-.963-.041-1.18.393l-1.941 3.883c-.217.434-.041.962.393 1.179.126.063.26.093.392.093.323 0 .633-.178.787-.486l1.942-3.883c.217-.434.04-.962-.393-1.179zM22.628 54.452c-.435-.217-.963-.041-1.18.393l-1.941 3.883c-.217.434-.041.962.393 1.179.126.063.26.093.392.093.323 0 .633-.178.787-.486l1.942-3.883c.217-.434.04-.962-.393-1.179zM38.159 46.686c-.435-.217-.962-.04-1.18.393l-1.94 3.883c-.218.434-.042.962.392 1.18.126.063.26.092.393.092.322 0 .632-.178.786-.486l1.942-3.882c.217-.435.04-.963-.393-1.18z" transform="translate(-125 -988) translate(125 988)"/>
                </g>
            </g>
        </g>
    </g>
</svg>
