<svg xmlns="http://www.w3.org/2000/svg" width="18" height="18" viewBox="0 0 18 18">
    <defs>
        <filter id="x9510hxdla">
            <feColorMatrix in="SourceGraphic" values="0 0 0 0 0.549020 0 0 0 0 0.549020 0 0 0 0 0.549020 0 0 0 1.000000 0"/>
        </filter>
    </defs>
    <g fill="none" fill-rule="evenodd">
        <g filter="url(#x9510hxdla)" transform="translate(-849 -1568)">
            <g>
                <path fill="#030104" fill-rule="nonzero" d="M9 0C4.03 0 0 4.03 0 9s4.03 9 9 9 9-4.03 9-9-4.03-9-9-9zm0 2.25c2.929 0 5.403 1.887 6.337 4.5H2.663C3.597 4.137 6.07 2.25 9 2.25zm0 7.875c-.622 0-1.125-.503-1.125-1.125S8.378 7.875 9 7.875s1.125.503 1.125 1.125S9.622 10.125 9 10.125zM2.25 9c3.074 0 5.564 2.962 5.616 6.636C4.685 15.09 2.25 12.333 2.25 9zm7.884 6.636C10.186 11.962 12.676 9 15.75 9c0 3.333-2.434 6.09-5.616 6.636z" transform="translate(849 1568)"/>
            </g>
        </g>
    </g>
</svg>
