<svg xmlns="http://www.w3.org/2000/svg" width="20" height="18" viewBox="0 0 20 18">
    <defs>
        <filter id="d7rlk4xdha">
            <feColorMatrix in="SourceGraphic" values="0 0 0 0 0.549020 0 0 0 0 0.549020 0 0 0 0 0.549020 0 0 0 1.000000 0"/>
        </filter>
        <filter id="6na39ch1rb">
            <feColorMatrix in="SourceGraphic" values="0 0 0 0 1.000000 0 0 0 0 1.000000 0 0 0 0 1.000000 0 0 0 1.000000 0"/>
        </filter>
    </defs>
    <g fill="none" fill-rule="evenodd">
        <g>
            <g filter="url(#d7rlk4xdha)" transform="translate(-448 -1529) translate(448 1528)">
                <g>
                    <g fill="#000" fill-rule="nonzero" filter="url(#6na39ch1rb)" transform="translate(0 1)">
                        <path d="M8.063 2.688c-2.964 0-5.375 2.411-5.375 5.375s2.411 5.375 5.375 5.375 5.375-2.411 5.375-5.375-2.411-5.375-5.375-5.375zm2.75 2.008c.06-.068.146-.107.236-.111.078-.009.179.03.244.092.697.66 1.17 1.5 1.369 2.428.032.149-.04.3-.175.37-.328.169-.719.251-1.093.251-.487 0-.95-.14-1.217-.407-.57-.57-.332-1.55.636-2.623zm-5.5 6.787c-.06.067-.146.107-.236.11l-.013.001c-.086 0-.169-.033-.231-.092-.697-.66-1.17-1.5-1.37-2.429-.03-.148.041-.3.175-.369.758-.39 1.838-.318 2.31.156.57.569.332 1.55-.635 2.623zm.636-4.164c-.268.268-.73.407-1.217.407-.374 0-.764-.082-1.094-.252-.134-.07-.206-.22-.174-.369.198-.929.672-1.769 1.369-2.428.065-.063.162-.102.244-.092.09.004.176.043.236.11.968 1.074 1.205 2.055.636 2.624zm3.546 5.224c-.466.148-.947.223-1.432.223s-.967-.075-1.432-.223c-.147-.047-.244-.189-.233-.344.084-1.209.8-2.12 1.665-2.12s1.581.911 1.665 2.12c.01.155-.086.297-.233.344zm-2.776-4.48c0-.741.603-1.344 1.344-1.344.74 0 1.344.603 1.344 1.344 0 .741-.603 1.344-1.344 1.344-.74 0-1.344-.603-1.344-1.344zm3.01-4.11c-.085 1.209-.8 2.12-1.666 2.12-.866 0-1.581-.911-1.665-2.12-.01-.154.085-.296.233-.343.93-.297 1.934-.297 2.864 0 .148.047.244.189.233.343zm2.933 5.067c-.198.93-.672 1.769-1.369 2.429-.062.059-.145.092-.23.092h-.014c-.09-.004-.176-.044-.236-.111-.968-1.074-1.205-2.055-.636-2.624.473-.473 1.553-.545 2.31-.155.135.07.207.22.175.369z"/>
                        <path d="M8.063 0C3.617 0 0 3.617 0 8.063c0 4.446 3.617 8.063 8.063 8.063 4.446 0 8.063-3.617 8.063-8.063C16.126 3.617 12.509 0 8.063 0zm0 14.11c-3.335 0-6.047-2.713-6.047-6.047 0-3.334 2.712-6.047 6.047-6.047 3.335 0 6.047 2.713 6.047 6.047 0 3.334-2.712 6.047-6.047 6.047z"/>
                    </g>
                    <path fill="#FFF" d="M14.398 16.126c.768-3.84 1.728-5.76 2.88-5.76 1.728 0 2.304 1.728 1.152 2.304-.768.384-2.112 1.536-4.032 3.456z" transform="translate(0 1) rotate(24 16.714 13.246)"/>
                    <path fill="#FFF" d="M12.76 17.258c.385-1.92.865-2.88 1.44-2.88.864 0 1.152.865.577 1.153-.384.192-1.056.768-2.016 1.727z" transform="translate(0 1) rotate(64 13.918 15.819)"/>
                </g>
            </g>
        </g>
    </g>
</svg>
