<svg xmlns="http://www.w3.org/2000/svg" width="21" height="17" viewBox="0 0 21 17">
    <defs>
        <filter id="y9u2rx21ha">
            <feColorMatrix in="SourceGraphic" values="0 0 0 0 0.549020 0 0 0 0 0.549020 0 0 0 0 0.549020 0 0 0 1.000000 0"/>
        </filter>
        <filter id="9sevohgyeb">
            <feColorMatrix in="SourceGraphic" values="0 0 0 0 1.000000 0 0 0 0 1.000000 0 0 0 0 1.000000 0 0 0 1.000000 0"/>
        </filter>
    </defs>
    <g fill="none" fill-rule="evenodd">
        <g filter="url(#y9u2rx21ha)" transform="translate(-1247 -1666)">
            <g>
                <path fill="#FFF" fill-rule="nonzero" d="M14.068 15.046c-2.832 1.634-6.321 1.634-9.153 0-2.737-1.578-4.458-4.45-4.57-7.59l2.843.001c.096 2.135 1.271 4.086 3.135 5.167 1.959 1.136 4.377 1.136 6.336 0 1.864-1.081 3.04-3.032 3.136-5.167h2.843c-.112 3.139-1.833 6.01-4.57 7.59zm-3.583-5.733l1.746 2.4c-1.614.962-3.61 1.004-5.257.125l-.222-.125 1.745-2.4c.632.286 1.357.286 1.988 0zm-2.768-.566l-1.745 2.4c-1.09-.952-1.73-2.287-1.817-3.69h2.956c.066.477.275.928.606 1.29zm5.294 2.4l-1.746-2.4c.331-.362.54-.813.606-1.29h2.956c-.087 1.403-.727 2.738-1.816 3.69zm-2.799-2.77c-.446.258-.996.258-1.442 0-.349-.201-.592-.537-.68-.92h2.803c-.089.383-.332.719-.68.92z" transform="translate(1248 1666)"/>
                <g filter="url(#9sevohgyeb)" transform="translate(1248 1666)">
                    <g>
                        <path fill="#000" fill-rule="nonzero" d="M.085 3.393h5.928c.165 0 .318-.091.386-.238l.699-1.501.864 3.463c.043.163.187.283.36.307h.056c.152 0 .3-.08.373-.211l1.186-2.13h1.356c.19 0 .356-.115.407-.287l.318-1.035.534 1.549c.055.163.216.275.402.275h4.105c.184.584.755 1.014 1.436 1.014.83 0 1.505-.634 1.505-1.413 0-.78-.675-1.414-1.505-1.414-.682 0-1.253.43-1.437 1.016h-3.794L12.399.276c-.06-.167-.216-.274-.41-.274-.187.004-.348.12-.4.286l-.614 1.999H9.683c-.157 0-.3.083-.377.215L8.53 3.895 7.632.308c-.042-.167-.19-.29-.373-.306-.182-.016-.356.08-.428.239L5.734 2.597H.084c-.237 0-.423.18-.423.398 0 .22.186.398.424.398zm18.41-.825c.362 0 .657.277.657.618 0 .34-.295.617-.657.617-.363 0-.657-.277-.657-.617 0-.341.294-.618.657-.618z"/>
                    </g>
                </g>
            </g>
        </g>
    </g>
</svg>
