<svg xmlns="http://www.w3.org/2000/svg" width="18" height="20" viewBox="0 0 18 20">
    <g fill="none" fill-rule="evenodd">
        <g>
            <g>
                <g transform="translate(-450 -1648) translate(450 1648) translate(0 1)">
                    <g fill="#8C8C8C" fill-rule="nonzero">
                        <path d="M10.42 0c-.256 0-.478.094-.665.281l-4.93 4.93H.949c-.257 0-.48.093-.667.28-.187.188-.281.41-.281.667v5.684c0 .257.094.479.281.666.188.188.41.282.667.282h3.878l4.929 4.929c.187.187.41.281.666.281.257 0 .479-.094.666-.281.188-.188.281-.41.281-.666V.948c0-.257-.093-.48-.28-.667C10.898.094 10.677 0 10.42 0z"/>
                        <path d="M10.42 0c-.256 0-.478.094-.665.281l-4.93 4.93H.949c-.257 0-.48.093-.667.28-.187.188-.281.41-.281.667v5.684c0 .257.094.479.281.666.188.188.41.282.667.282h3.878l4.929 4.929c.187.187.41.281.666.281.257 0 .479-.094.666-.281.188-.188.281-.41.281-.666V.948c0-.257-.093-.48-.28-.667C10.898.094 10.677 0 10.42 0z"/>
                    </g>
                    <path stroke="#8C8C8C" stroke-linecap="round" stroke-width="2" d="M14.495 0.568L14.495 17.621"/>
                    <circle cx="14.495" cy="12.79" r="1.989" fill="#8C8C8C" stroke="#FFF" stroke-width="1.5"/>
                </g>
            </g>
        </g>
    </g>
</svg>
