<svg xmlns="http://www.w3.org/2000/svg" width="16" height="20" viewBox="0 0 16 20">
    <defs>
        <filter id="ljlywmhapa">
            <feColorMatrix in="SourceGraphic" values="0 0 0 0 0.549020 0 0 0 0 0.549020 0 0 0 0 0.549020 0 0 0 1.000000 0"/>
        </filter>
        <filter id="gbj9g9nujb">
            <feColorMatrix in="SourceGraphic" values="0 0 0 0 1.000000 0 0 0 0 1.000000 0 0 0 0 1.000000 0 0 0 1.000000 0"/>
        </filter>
    </defs>
    <g fill="none" fill-rule="evenodd">
        <g filter="url(#ljlywmhapa)" transform="translate(-850 -1608)">
            <g>
                <path fill="#FFF" d="M9.447 2.578h-.91c-1.882 0-3.696.674-5.122 1.928-.123.109-.153.14-.153.14-.113.108-.299.106-.412-.007l-.402-.4c-.115-.116-.112-.294.002-.404 0 0 .039-.04.166-.153 1.643-1.463 3.744-2.25 5.92-2.25h.91L8.908.894C8.795.782 8.797.6 8.91.487l.402-.401c.115-.115.297-.114.41-.001L11.239 1.6c.224.224.224.587 0 .81L9.721 3.925c-.112.112-.296.113-.41 0l-.402-.401c-.115-.115-.114-.296-.002-.407l.54-.539z" transform="translate(850 1608)"/>
                <g fill="#000" fill-rule="nonzero" filter="url(#gbj9g9nujb)" transform="translate(850 1608) translate(0 4.248)">
                    <path d="M7.876 2.625c-2.895 0-5.25 2.356-5.25 5.251 0 2.895 2.355 5.25 5.25 5.25s5.25-2.355 5.25-5.25-2.355-5.25-5.25-5.25zm2.686 1.962c.06-.066.143-.105.231-.108.076-.009.174.028.239.09.68.644 1.143 1.464 1.337 2.372.03.144-.04.292-.171.36-.321.166-.702.246-1.068.246-.476 0-.927-.136-1.189-.398-.556-.556-.324-1.514.621-2.562zm-5.372 6.63c-.06.065-.142.105-.23.108h-.014c-.084 0-.164-.032-.225-.09-.681-.644-1.144-1.464-1.337-2.372-.031-.145.039-.292.17-.36.74-.382 1.795-.311 2.257.151.556.556.324 1.514-.621 2.563zm.62-4.068c-.26.262-.712.398-1.188.398-.365 0-.746-.08-1.068-.246-.131-.068-.201-.216-.17-.36.193-.908.656-1.728 1.337-2.373.064-.06.158-.099.238-.09.089.004.172.043.23.109.946 1.048 1.178 2.006.622 2.562zm3.465 5.103c-.455.145-.925.218-1.399.218s-.944-.073-1.398-.218c-.145-.046-.239-.184-.229-.335.082-1.181.782-2.072 1.627-2.072s1.545.89 1.627 2.072c.01.15-.084.29-.228.335zM6.563 7.876c0-.724.59-1.313 1.313-1.313.724 0 1.313.59 1.313 1.313 0 .724-.59 1.313-1.313 1.313-.724 0-1.313-.589-1.313-1.313zm2.94-4.015C9.42 5.042 8.72 5.933 7.876 5.933S6.331 5.043 6.25 3.86c-.01-.15.084-.289.228-.335.909-.29 1.89-.29 2.798 0 .145.046.238.185.228.335zm2.866 4.95c-.194.907-.657 1.728-1.337 2.372-.061.058-.142.09-.226.09h-.013c-.088-.004-.172-.042-.23-.108-.946-1.049-1.178-2.007-.622-2.563.462-.462 1.517-.533 2.257-.152.131.068.201.216.17.36z"/>
                    <path d="M7.876 0C3.533 0 0 3.533 0 7.876s3.533 7.876 7.876 7.876 7.876-3.533 7.876-7.876S12.22 0 7.876 0zm0 13.783c-3.257 0-5.907-2.65-5.907-5.907S4.619 1.97 7.876 1.97s5.907 2.65 5.907 5.907-2.65 5.907-5.907 5.907z"/>
                </g>
            </g>
        </g>
    </g>
</svg>
