<svg xmlns="http://www.w3.org/2000/svg" width="20" height="18" viewBox="0 0 20 18">
    <defs>
        <filter id="eridcogs9a">
            <feColorMatrix in="SourceGraphic" values="0 0 0 0 0.549020 0 0 0 0 0.549020 0 0 0 0 0.549020 0 0 0 1.000000 0"/>
        </filter>
        <filter id="jbh9tvuazb">
            <feColorMatrix in="SourceGraphic" values="0 0 0 0 1.000000 0 0 0 0 1.000000 0 0 0 0 1.000000 0 0 0 1.000000 0"/>
        </filter>
    </defs>
    <g fill="none" fill-rule="evenodd">
        <g filter="url(#eridcogs9a)" transform="translate(-1248 -1585)">
            <g>
                <g fill="#FFF">
                    <path d="M2.085 5.897C2.787 2.387 3.665.633 4.717.633c1.579 0 2.105 1.58 1.053 2.106-.702.35-1.93 1.403-3.685 3.158z" transform="translate(1248 1585) translate(12.795 10.06) rotate(24 4.201 3.265)"/>
                    <path d="M.588 6.932C.94 5.177 1.378 4.3 1.904 4.3c.79 0 1.053.79.527 1.053-.351.175-.965.702-1.843 1.579z" transform="translate(1248 1585) translate(12.795 10.06) rotate(64 1.647 5.616)"/>
                </g>
                <g fill="#FFF">
                    <path d="M2.085 5.897C2.787 2.387 3.665.633 4.717.633c1.579 0 2.105 1.58 1.053 2.106-.702.35-1.93 1.403-3.685 3.158z" transform="translate(1248 1585) matrix(-1 0 0 1 7.205 10.06) rotate(24 4.201 3.265)"/>
                    <path d="M.588 6.932C.94 5.177 1.378 4.3 1.904 4.3c.79 0 1.053.79.527 1.053-.351.175-.965.702-1.843 1.579z" transform="translate(1248 1585) matrix(-1 0 0 1 7.205 10.06) rotate(64 1.647 5.616)"/>
                </g>
                <g filter="url(#jbh9tvuazb)" transform="translate(1248 1585)">
                    <g fill="#000" fill-rule="nonzero">
                        <path d="M8.086 0C6.44 0 5.045 3.626 5.045 7.92c0 4.296 1.394 7.922 3.041 7.922 1.648 0 3.038-3.626 3.038-7.921S9.734 0 8.086 0zm.377 13.564c-.384 0-.947-.246-1.426-1.412-.073-.178-.137-.36-.19-.545-.005-.009-.008-.019-.01-.028-.337-1.2-.501-2.44-.486-3.686-.015-1.247.149-2.49.486-3.69.003-.007.003-.017.007-.028.06-.19.123-.373.19-.538.482-1.173 1.045-1.416 1.429-1.416 1.373 0 2.116 2.922 2.116 5.672 0 2.75-.743 5.671-2.116 5.671zM4.098 14.388l-1.116-.338c.361.622.896 1.126 1.538 1.45.274.118.562.203.856.254-.515-.364-.95-.829-1.278-1.366zM3.725 13.722c-.19-.39-.351-.793-.483-1.207l-1.098-.349c.126.419.284.827.472 1.222l1.109.334zM1.736 10.34c.063.425.144.834.239 1.22l1.091.346c-.098-.373-.183-.768-.25-1.176l-1.08-.39zM2.728 10.139c-.045-.37-.077-.754-.102-1.148l-1.052-.454c.014.415.045.82.088 1.214l1.066.388zM1.56 7.893l.003.063 1.039.45c-.004-.172-.007-.34-.007-.513 0-.243.007-.472.014-.704l-1.007-.444c-.025.366-.042.746-.042 1.148zM2.764 5.414l-.933-.531c-.081.405-.141.841-.187 1.306l.996.436c.028-.422.067-.83.124-1.21zM2.341 3.094c-.157.408-.288.826-.39 1.25l.911.518c.081-.446.19-.887.324-1.32l-.845-.448z" transform="translate(4.158)"/>
                        <path d="M6.773.042C6.564.09 6.361.16 6.168.25c-.458.226-.863.548-1.187.943l.117-.024c.068-.018.14-.006.2.03.06.038.102.098.116.167.017.068.005.14-.032.2s-.096.101-.165.117l-.707.165c-.226.378-.418.775-.574 1.187l.51-.127c.14-.032.281.055.316.195.034.14-.05.282-.189.319l-.841.204c-.13.42-.239.847-.324 1.278l.658-.183c.092-.03.192-.007.262.06.07.066.098.165.073.258-.024.093-.097.165-.19.189l-.905.253c-.06.391-.106.785-.134 1.173l.686-.18c.093-.028.193-.003.262.065s.095.168.068.26c-.026.094-.102.164-.196.185l-.855.226c-.01.232-.014.46-.014.683 0 .197.007.383.01.57l.69-.2c.14-.038.283.044.324.182.04.139-.038.284-.176.328l-.813.236c.024.426.06.834.112 1.218l.715-.187c.141-.037.285.048.322.188.037.141-.047.286-.188.323l-.764.2c.072.417.166.83.282 1.236l.563-.151c.142-.037.287.048.324.19.037.142-.048.287-.19.324l-.539.14c.163.475.37.933.616 1.37l.412-.11c.067-.018.14-.009.2.026.06.036.103.094.12.161.038.141-.045.286-.186.324l-.247.063c.342.524.815.948 1.373 1.23.218.097.444.175.676.231-1.324-1.221-2.242-4.242-2.242-7.864 0-3.637.926-6.664 2.256-7.879zM4.277 1.26C4.61.778 5.025.36 5.506.025c-.312.035-.615.122-.898.257-.305.147-.585.34-.83.573l.5.405zM3.989 1.704l-.574-.465c-.348.416-.64.877-.866 1.37l.813.426c.167-.462.377-.908.627-1.331z" transform="translate(4.158)"/>
                        <path d="M2.285 13.913l-.24.063c-.142.036-.286-.05-.322-.192-.036-.142.05-.286.192-.322l.13-.032c-.2-.453-.367-.92-.5-1.397l-.362.091c-.091.023-.188-.004-.254-.071-.065-.067-.09-.165-.065-.255.026-.09.097-.161.189-.184l.362-.092c-.088-.398-.165-.813-.225-1.242l-.37.105c-.091.03-.192.006-.262-.06s-.098-.165-.073-.258c.024-.093.098-.165.19-.189l.455-.13c-.042-.412-.074-.838-.084-1.274l-.356.088c-.091.023-.188-.004-.254-.072-.065-.067-.09-.164-.065-.255.026-.09.098-.16.189-.184l.475-.12c0-.014-.004-.028-.004-.038 0-.42.018-.814.043-1.197l-.345.088C.638 6.806.54 6.779.476 6.71c-.065-.068-.09-.165-.063-.255.026-.09.098-.16.189-.183l.514-.13c.046-.45.11-.873.187-1.274l-.282.088c-.09.029-.187.008-.257-.055s-.1-.158-.081-.25c.02-.092.087-.166.176-.195l.574-.187c.094-.393.21-.781.348-1.162l-.253.064c-.141.036-.284-.05-.32-.19-.036-.143.05-.288.193-.324l.627-.159c.189-.42.417-.822.683-1.2-.123.004-.231-.078-.26-.197-.035-.142.051-.285.193-.32L3.26.634C3.483.4 3.732.196 4.003.02c-.332.028-.655.116-.954.26C1.574.98 0 3.345 0 7.894c0 3.809 1.162 6.794 2.96 7.607.305.13.624.22.951.268-.693-.468-1.253-1.107-1.626-1.855zM8.463 2.75c-.313 0-.655.394-.94 1.087-.053.127-.102.264-.148.405.234.447.428.913.581 1.394.195.735.291 1.493.285 2.253.01.825-.105 1.646-.341 2.436-.147.417-.322.823-.525 1.215.046.144.099.281.152.412.281.69.623 1.084.936 1.084.75 0 1.588-2.112 1.588-5.143 0-3.031-.838-5.144-1.588-5.144z" transform="translate(4.158)"/>
                        <path d="M7.713 7.89c.007-.713-.083-1.422-.267-2.11-.076-.256-.17-.507-.282-.75-.195.942-.29 1.901-.285 2.863-.006.96.09 1.918.285 2.858.088-.191.166-.388.232-.588.222-.737.328-1.504.317-2.274z" transform="translate(4.158)"/>
                    </g>
                </g>
            </g>
        </g>
    </g>
</svg>
