<svg xmlns="http://www.w3.org/2000/svg" width="58" height="58" viewBox="0 0 58 58">
    <g fill="none" fill-rule="evenodd">
        <g>
            <g>
                <g>
                    <path fill="#0050A8" fill-rule="nonzero" d="M30.063 0C45.587.56 58 13.325 58 28.99c.004 3.399-.595 6.771-1.769 9.96 1.137 1.241 1.768 2.862 1.769 4.545v7.736c-.004 3.737-3.031 6.765-6.767 6.77H6.767C3.03 57.995.004 54.967 0 51.23v-7.736c.001-1.683.632-3.304 1.769-4.545C.595 35.761-.004 32.39 0 28.99 0 14.218 11.039 2.024 25.315.213c1.013.314 1.176.947.49 1.898-5.51.656-10.802 3.001-15.069 6.904-7.916 7.24-10.811 18.473-7.382 28.64 1.036-.605 2.213-.925 3.413-.929h6.66c-1.197-2.403-1.823-5.05-1.827-7.736 0-1.14.112-2.276.338-3.394.261-1.346.686-2.655 1.267-3.897 2.553-5.478 7.748-9.254 13.746-9.989 1.36-.164 2.737-.164 4.098 0 5.998.735 11.193 4.51 13.746 9.99.582 1.244 1.007 2.556 1.267 3.906.226 1.114.34 2.248.338 3.384-.004 2.686-.63 5.333-1.827 7.736h6.66c1.2.004 2.377.324 3.413.929.944-2.791 1.424-5.718 1.42-8.665-.002-10.73-6.338-20.445-16.154-24.77-3.15-1.39-6.47-2.138-9.785-2.276-.81-.626-.855-1.255-.136-1.883zM51.93 50.506l-4.514 3.433c-.346.262-.824.262-1.17 0l-4.514-3.423-4.514 3.423c-.348.258-.823.258-1.17 0l-4.514-3.423-4.505 3.423c-.346.262-.824.262-1.17 0l-4.514-3.423-4.514 3.423c-.346.262-.824.262-1.17 0l-4.505-3.423-4.504 3.423c-.346.262-.824.262-1.17 0L1.933 51.25c.017 2.66 2.174 4.81 4.834 4.815h44.466c1.87-.005 3.569-1.09 4.36-2.785l-3.664-2.775zm0-6.769l-4.514 3.433c-.346.263-.824.263-1.17 0l-4.514-3.423-4.514 3.423c-.348.258-.823.258-1.17 0l-4.514-3.423-4.505 3.423c-.346.263-.824.263-1.17 0l-4.514-3.423-4.514 3.423c-.346.263-.824.263-1.17 0l-4.505-3.423-4.504 3.423c-.346.263-.824.263-1.17 0l-3.548-2.698v4.342l4.128 3.133 4.505-3.423c.345-.263.824-.263 1.17 0l4.514 3.423 4.504-3.423c.346-.263.824-.263 1.17 0l4.514 3.423 4.515-3.423c.345-.263.824-.263 1.17 0l4.514 3.423 4.504-3.423c.346-.263.824-.263 1.17 0l4.514 3.432 4.524-3.432c.346-.263.824-.263 1.17 0l3.548 2.698V46.88l-4.138-3.143zm-.696-5.077H6.767c-2.162.01-4.054 1.455-4.63 3.54l3.924 2.978 4.505-3.423c.345-.263.824-.263 1.17 0l4.514 3.423 4.504-3.423c.346-.263.824-.263 1.17 0l4.514 3.423 4.515-3.423c.345-.263.824-.263 1.17 0l4.514 3.423 4.504-3.423c.346-.263.824-.263 1.17 0l4.514 3.433 4.524-3.433c.346-.263.824-.263 1.17 0l3.548 2.698v-.958c0-2.67-2.164-4.835-4.834-4.835zM30.817 13.625c-1.207-.145-2.427-.145-3.634 0-.252.03-.503.077-.745.116l.426 7.707c.011.265-.085.524-.267.717-.182.193-.435.304-.7.308-.275-.003-.537-.118-.725-.32l-5.133-5.743c-1.398.999-2.623 2.22-3.625 3.617l5.752 5.134c.304.276.401.714.241 1.093-.145.363-.498.6-.889.6h-.058l-7.695-.426c-.15.846-.228 1.703-.232 2.562.002.86.076 1.717.223 2.563l7.704-.425c.41-.019.788.22.947.6.16.378.063.816-.241 1.092l-4.37 3.906h6.574l.812-.899c.275-.304.712-.402 1.09-.243.38.159.616.54.592.949l-.01.193h4.292l-.01-.193c-.024-.41.213-.79.591-.95.379-.158.816-.06 1.091.244l.812.9h6.574l-4.37-3.907c-.302-.278-.399-.715-.24-1.094.157-.38.536-.618.946-.598l7.704.425c.147-.846.221-1.704.223-2.563-.004-.859-.082-1.716-.232-2.562l-7.695.425h-.058c-.391.002-.744-.236-.89-.6-.16-.378-.062-.816.242-1.092l5.752-5.134c-1.002-1.396-2.227-2.618-3.625-3.617l-5.133 5.744c-.188.201-.45.316-.725.319-.265-.004-.518-.115-.7-.308-.182-.193-.278-.452-.267-.717l.426-7.707c-.242-.039-.493-.087-.745-.116zm8.362 19.591l3.441 3.075c.488-.898.884-1.844 1.18-2.823l-4.621-.252zm-20.358 0l-4.62.252c.295.979.69 1.925 1.179 2.823l3.441-3.075zM15.38 21.69c-.145.27-.29.541-.416.822-.296.65-.547 1.318-.754 2.001l4.611.252zm27.24 0l-3.441 3.075 4.611-.252c-.207-.683-.458-1.352-.754-2.001-.126-.28-.27-.552-.416-.822zm-18.096-7.494c-.976.297-1.922.688-2.822 1.17l3.074 3.442zm8.952 0l-.252 4.612 3.074-3.442c-.9-.482-1.846-.873-2.822-1.17z" transform="translate(-926 -989) translate(926 989)"/>
                    <path fill="#FF7B00" d="M21.46 26.853h.058c.391.002.744-.236.89-.6.16-.378.062-.816-.242-1.092l-5.752-5.134c1.002-1.396 2.227-2.618 3.625-3.617l5.133 5.744c.188.201.45.316.725.319.265-.004.518-.115.7-.308.182-.193.278-.452.267-.717l-.426-7.707c.242-.039.493-.087.745-.116 1.207-.145 2.427-.145 3.634 0 .252.03.503.077.745.116l-.426 7.707c-.011.265.085.524.267.717.182.193.435.304.7.308.275-.003.537-.118.725-.32l5.133-5.743c1.398.999 2.623 2.22 3.625 3.617l-5.752 5.134c-.304.276-.401.714-.241 1.093.145.363.498.6.889.6h.058l7.695-.426c.15.846.228 1.703.232 2.562-.002.86-.076 1.717-.223 2.563l-7.704-.425c-.41-.02-.789.219-.947.598-.158.379-.061.816.241 1.094l4.37 3.906H33.63l-.812-.899c-.275-.304-.712-.402-1.09-.243-.38.159-.616.54-.592.949l.01.193h-4.292l.01-.193c.024-.41-.213-.79-.591-.95-.379-.158-.816-.06-1.091.244l-.812.9h-6.574l4.37-3.907c.304-.276.401-.714.241-1.093-.159-.379-.537-.618-.947-.6l-7.704.426c-.147-.846-.221-1.704-.223-2.563.004-.859.082-1.716.232-2.562l7.695.425z" transform="translate(-926 -989) translate(926 989)"/>
                    <path fill="#0050A8" fill-rule="nonzero" d="M29 33.46c2.464 0 4.462-1.997 4.462-4.461 0-2.464-1.998-4.462-4.462-4.462-2.464 0-4.462 1.998-4.462 4.462.003 2.463 2 4.459 4.462 4.462zm0-7.138c1.478 0 2.677 1.199 2.677 2.677S30.478 31.676 29 31.676s-2.677-1.199-2.677-2.677 1.199-2.677 2.677-2.677z" transform="translate(-926 -989) translate(926 989)"/>
                    <path fill="#FFF" d="M29 26.322c1.478 0 2.677 1.199 2.677 2.677S30.478 31.676 29 31.676s-2.677-1.199-2.677-2.677 1.199-2.677 2.677-2.677z" transform="translate(-926 -989) translate(926 989)"/>
                </g>
            </g>
        </g>
    </g>
</svg>
