<svg xmlns="http://www.w3.org/2000/svg" width="46" height="46" viewBox="0 0 46 46">
    <defs>
        <filter id="57kn8bgeaa">
            <feColorMatrix in="SourceGraphic" values="0 0 0 0 1.000000 0 0 0 0 1.000000 0 0 0 0 1.000000 0 0 0 1.000000 0"/>
        </filter>
    </defs>
    <g fill="none" fill-rule="evenodd">
        <g>
            <g>
                <g fill="#3375BD" transform="translate(-1126 -624) translate(1126 624)">
                    <circle cx="23" cy="23" r="23"/>
                </g>
                <g>
                    <path fill="#FFF" d="M11.994 3.274h-1.156c-2.388 0-4.691.855-6.502 2.448-.156.137-.194.178-.194.178-.144.136-.38.134-.524-.01l-.51-.509c-.146-.146-.143-.372.003-.511 0 0 .05-.052.21-.196 2.087-1.857 4.754-2.856 7.517-2.856h1.156l-.685-.683c-.142-.143-.14-.373.003-.517l.51-.51c.146-.145.377-.143.52 0l1.928 1.924c.284.284.284.744 0 1.028l-1.928 1.924c-.142.142-.376.143-.52 0l-.51-.51c-.146-.146-.145-.375-.003-.517l.685-.683z" transform="translate(-1126 -624) translate(1126 624) translate(13 10)"/>
                    <g fill="#000" fill-rule="nonzero" filter="url(#57kn8bgeaa)" transform="translate(-1126 -624) translate(1126 624) translate(13 10) translate(0 5.393)">
                        <path d="M10 3.333c-3.676 0-6.667 2.991-6.667 6.667 0 3.676 2.991 6.667 6.667 6.667 3.676 0 6.667-2.991 6.667-6.667 0-3.676-2.991-6.667-6.667-6.667zm3.41 2.49c.076-.083.181-.132.294-.137.096-.01.221.037.302.114.865.818 1.452 1.86 1.698 3.012.039.184-.05.371-.217.458-.407.21-.891.313-1.355.313-.605 0-1.178-.174-1.51-.506-.706-.706-.412-1.922.789-3.253zm-6.82 8.419c-.076.083-.181.133-.294.137H6.28c-.106 0-.209-.04-.286-.114-.865-.818-1.452-1.86-1.698-3.012-.039-.184.05-.371.217-.458.939-.484 2.278-.394 2.865.193.706.706.41 1.922-.789 3.254zm.788-5.165c-.332.332-.905.506-1.51.506-.464 0-.947-.103-1.355-.313-.167-.087-.256-.274-.217-.458.246-1.152.833-2.194 1.698-3.012.081-.077.2-.125.302-.114.113.005.218.054.293.138 1.2 1.331 1.495 2.547.789 3.253zm4.398 6.48c-.577.183-1.175.276-1.776.276s-1.199-.093-1.776-.277c-.183-.058-.302-.234-.29-.426.105-1.5.993-2.63 2.066-2.63s1.961 1.13 2.065 2.63c.013.192-.106.368-.29.426zM8.333 10c0-.92.748-1.667 1.667-1.667s1.667.748 1.667 1.667c0 .92-.748 1.667-1.667 1.667S8.333 10.919 8.333 10zm3.732-5.097c-.104 1.499-.992 2.63-2.065 2.63s-1.961-1.131-2.065-2.63c-.013-.192.105-.368.288-.426 1.154-.369 2.4-.369 3.554 0 .183.058.301.234.288.426zm3.639 6.284c-.246 1.152-.833 2.194-1.698 3.012-.077.073-.18.114-.286.114h-.016c-.113-.005-.218-.054-.293-.137-1.2-1.332-1.495-2.548-.789-3.254.587-.587 1.926-.677 2.865-.193.167.086.256.274.217.458z"/>
                        <path d="M10 0C4.486 0 0 4.486 0 10s4.486 10 10 10 10-4.486 10-10S15.514 0 10 0zm0 17.5c-4.136 0-7.5-3.365-7.5-7.5S5.864 2.5 10 2.5s7.5 3.365 7.5 7.5-3.364 7.5-7.5 7.5z"/>
                    </g>
                </g>
            </g>
        </g>
    </g>
</svg>
