<svg xmlns="http://www.w3.org/2000/svg" width="46" height="46" viewBox="0 0 46 46">
    <defs>
        <filter id="foddhbotda">
            <feColorMatrix in="SourceGraphic" values="0 0 0 0 1.000000 0 0 0 0 1.000000 0 0 0 0 1.000000 0 0 0 1.000000 0"/>
        </filter>
    </defs>
    <g fill="none" fill-rule="evenodd">
        <g>
            <g>
                <g fill="#3375BD" transform="translate(-627 -1090) translate(627 1090)">
                    <circle cx="23" cy="23" r="23"/>
                </g>
                <g>
                    <g fill="#FFF">
                        <path d="M3.412 9.612C4.58 3.89 6.027 1.026 7.752 1.02c2.588-.008 3.443 2.563 1.715 3.426-1.152.576-3.17 2.298-6.055 5.166z" transform="translate(-627 -1090) translate(627 1090) translate(7.175 9) translate(21 16.373) rotate(24 6.89 5.316)"/>
                        <path d="M.97 11.3c.581-2.878 1.3-4.317 2.159-4.32 1.287-.004 1.712 1.288.852 1.722-.573.29-1.577 1.155-3.012 2.597z" transform="translate(-627 -1090) translate(627 1090) translate(7.175 9) translate(21 16.373) rotate(64 2.7 9.14)"/>
                    </g>
                    <g fill="#FFF">
                        <path d="M3.412 9.612C4.58 3.89 6.027 1.026 7.752 1.02c2.588-.008 3.443 2.563 1.715 3.426-1.152.576-3.17 2.298-6.055 5.166z" transform="translate(-627 -1090) translate(627 1090) translate(7.175 9) matrix(-1 0 0 1 11.825 16.373) rotate(24 6.89 5.316)"/>
                        <path d="M.97 11.3c.581-2.878 1.3-4.317 2.159-4.32 1.287-.004 1.712 1.288.852 1.722-.573.29-1.577 1.155-3.012 2.597z" transform="translate(-627 -1090) translate(627 1090) translate(7.175 9) matrix(-1 0 0 1 11.825 16.373) rotate(64 2.7 9.14)"/>
                    </g>
                    <g filter="url(#foddhbotda)" transform="translate(-627 -1090) translate(627 1090) translate(7.175 9)">
                        <g fill="#000" fill-rule="nonzero">
                            <path d="M13.272 0C10.568 0 8.28 5.901 8.28 12.892c0 6.99 2.288 12.891 4.992 12.891s4.986-5.901 4.986-12.891S15.976 0 13.272 0zm.618 22.076c-.63 0-1.554-.4-2.34-2.297-.12-.29-.225-.587-.312-.888-.008-.015-.014-.03-.018-.046-.553-1.952-.821-3.972-.797-6-.024-2.028.244-4.05.797-6.004.006-.011.006-.028.012-.046.098-.31.202-.607.312-.876.792-1.908 1.716-2.304 2.346-2.304 2.253 0 3.472 4.756 3.472 9.23 0 4.476-1.219 9.231-3.472 9.231zM6.725 23.417l-1.831-.55c.593 1.013 1.47 1.833 2.525 2.36.45.192.921.33 1.404.413-.844-.592-1.558-1.349-2.098-2.223zM6.113 22.334c-.311-.635-.576-1.292-.792-1.965l-1.802-.567c.207.68.466 1.345.774 1.988l1.82.544zM2.848 16.828c.104.693.237 1.358.393 1.988l1.791.562c-.161-.608-.3-1.25-.41-1.914l-1.774-.636zM4.478 16.501c-.075-.601-.127-1.226-.168-1.868l-1.727-.739c.023.676.075 1.335.144 1.977l1.75.63zM2.56 12.846c0 .034.005.069.005.103l1.705.733c-.006-.28-.012-.555-.012-.836 0-.396.012-.768.023-1.146l-1.652-.722c-.04.596-.07 1.215-.07 1.868zM4.536 8.812l-1.532-.865c-.132.659-.23 1.37-.306 2.126l1.635.71c.047-.687.11-1.352.203-1.97zM3.842 5.036C3.584 5.7 3.37 6.38 3.201 7.07l1.496.843c.134-.727.311-1.444.532-2.149l-1.387-.728z" transform="translate(6.825)"/>
                            <path d="M11.116.069c-.342.076-.675.19-.993.338-.752.368-1.416.892-1.947 1.535l.19-.04c.112-.028.231-.01.33.05.097.061.166.159.19.271.027.111.008.228-.053.325-.06.097-.158.166-.27.19l-1.162.27c-.37.615-.685 1.261-.941 1.93l.837-.205c.231-.052.461.089.518.317.057.228-.08.459-.31.52l-1.38.331c-.214.684-.392 1.378-.532 2.08l1.08-.298c.15-.047.315-.01.43.098.115.108.16.269.12.42-.04.152-.16.27-.313.307l-1.485.413c-.098.636-.173 1.278-.22 1.908l1.127-.292c.152-.046.317-.005.43.105.113.11.156.274.112.425-.044.15-.167.266-.322.3l-1.404.367c-.017.378-.023.75-.023 1.112 0 .32.011.624.017.928l1.133-.327c.229-.06.464.072.53.298.066.226-.062.463-.288.533l-1.334.384c.04.693.098 1.358.185 1.983l1.172-.304c.232-.06.468.077.53.306.06.23-.079.465-.31.525l-1.254.326c.118.678.272 1.35.462 2.011l.925-.246c.233-.06.47.078.531.31.061.23-.079.466-.312.526l-.884.23c.268.772.606 1.518 1.012 2.228l.676-.177c.11-.03.228-.015.327.042s.17.151.198.262c.062.229-.075.465-.306.527l-.404.103c.56.852 1.337 1.541 2.253 2 .357.16.728.286 1.11.378-2.173-1.989-3.681-6.905-3.681-12.8 0-5.92 1.52-10.847 3.703-12.823zM7.02 2.051C7.565 1.266 8.248.585 9.036.041c-.51.056-1.009.197-1.473.417-.5.24-.96.555-1.363.934l.82.66zM6.546 2.773l-.942-.756c-.57.677-1.048 1.427-1.42 2.229l1.334.693c.274-.752.618-1.477 1.028-2.166z" transform="translate(6.825)"/>
                            <path d="M3.75 22.643l-.393.104c-.233.058-.47-.082-.529-.313-.059-.23.082-.465.315-.524l.214-.052c-.328-.737-.603-1.497-.82-2.274l-.596.149c-.15.038-.308-.007-.416-.116-.108-.11-.149-.268-.107-.416.042-.147.16-.261.31-.299l.595-.149c-.145-.647-.272-1.324-.37-2.023l-.607.172c-.15.048-.315.01-.43-.097-.114-.108-.16-.269-.12-.42.04-.152.16-.27.313-.308l.746-.212c-.07-.67-.122-1.363-.139-2.074l-.584.143c-.15.038-.308-.006-.416-.115-.108-.11-.148-.268-.107-.416.042-.147.16-.262.31-.3l.78-.194c0-.023-.006-.046-.006-.063 0-.682.029-1.324.07-1.948l-.567.143c-.15.037-.308-.008-.415-.118-.107-.11-.146-.269-.104-.416.043-.147.161-.26.311-.297l.844-.212c.075-.733.179-1.42.306-2.074l-.462.143c-.147.047-.308.013-.422-.089-.115-.102-.165-.257-.133-.407.032-.15.142-.27.289-.317l.942-.304c.153-.64.344-1.272.572-1.89l-.416.102c-.232.059-.467-.08-.526-.309-.06-.233.083-.469.318-.527l1.028-.258c.31-.685.686-1.34 1.12-1.954-.2.006-.378-.127-.427-.32-.056-.231.086-.464.318-.522l1.011-.24c.366-.38.775-.714 1.22-.998-.544.046-1.075.19-1.566.424C2.583 1.593 0 5.443 0 12.846c0 6.2 1.907 11.058 4.86 12.381.498.211 1.022.358 1.56.436-1.138-.761-2.058-1.802-2.67-3.02zM13.89 4.475c-.514 0-1.075.642-1.543 1.77-.087.207-.167.43-.243.66.384.726.703 1.486.954 2.268.32 1.196.477 2.43.468 3.667.017 1.342-.172 2.68-.56 3.965-.24.678-.529 1.338-.862 1.977.076.235.162.458.249.67.462 1.123 1.023 1.765 1.537 1.765 1.23 0 2.606-3.438 2.606-8.371S15.12 4.475 13.89 4.475z" transform="translate(6.825)"/>
                            <path d="M12.66 12.84c.01-1.158-.138-2.313-.44-3.432-.124-.417-.278-.825-.462-1.22-.32 1.532-.477 3.093-.468 4.658-.01 1.563.148 3.122.468 4.652.144-.312.272-.631.381-.957.363-1.2.539-2.448.52-3.7z" transform="translate(6.825)"/>
                        </g>
                    </g>
                </g>
            </g>
        </g>
    </g>
</svg>
