<svg xmlns="http://www.w3.org/2000/svg" width="46" height="46" viewBox="0 0 46 46">
    <defs>
        <filter id="py9nmvv1pa">
            <feColorMatrix in="SourceGraphic" values="0 0 0 0 1.000000 0 0 0 0 1.000000 0 0 0 0 1.000000 0 0 0 1.000000 0"/>
        </filter>
    </defs>
    <g fill="none" fill-rule="evenodd">
        <g>
            <g>
                <g fill="#3375BD" transform="translate(-994 -624) translate(994 624)">
                    <circle cx="23" cy="23" r="23"/>
                </g>
                <g filter="url(#py9nmvv1pa)" transform="translate(-994 -624) translate(994 624)">
                    <g fill="#000" fill-rule="nonzero">
                        <path d="M17.135 6.788l-2.23 3.57c-.248-.061-.509-.094-.778-.094-1.71 0-3.097 1.312-3.097 2.929 0 1.617 1.387 2.928 3.097 2.928s3.097-1.31 3.097-2.928c0-.776-.32-1.48-.84-2.005l2.283-3.656c-.48-.296-.992-.546-1.532-.744z" transform="translate(9 15)"/>
                        <path d="M26.533 7.944l-1.769 1.052-.82-1.465 1.766-1.05c-1.05-1.637-2.413-3.04-4.001-4.122l-1.016 1.812-1.422-.845 1.017-1.815C18.627.65 16.777.117 14.821 0v2.208h-1.642V0c-1.956.117-3.805.649-5.467 1.511l1.017 1.815-1.422.845L6.292 2.36C4.703 3.44 3.34 4.844 2.29 6.481l1.766 1.05-.82 1.465-1.769-1.052C.63 9.656.114 11.56 0 13.576h4.437c.418-5.057 4.547-9.04 9.563-9.04 5.016 0 9.145 3.983 9.563 9.04H28c-.114-2.015-.63-3.92-1.467-5.632z" transform="translate(9 15)"/>
                    </g>
                </g>
            </g>
        </g>
    </g>
</svg>
