<svg xmlns="http://www.w3.org/2000/svg" width="46" height="46" viewBox="0 0 46 46">
    <defs>
        <filter id="86rmwqogoa">
            <feColorMatrix in="SourceGraphic" values="0 0 0 0 1.000000 0 0 0 0 1.000000 0 0 0 0 1.000000 0 0 0 1.000000 0"/>
        </filter>
    </defs>
    <g fill="none" fill-rule="evenodd">
        <g>
            <g transform="translate(-798 -730) translate(798 730)">
                <circle cx="23" cy="23" r="23" fill="#0053AD" opacity=".8"/>
                <g filter="url(#86rmwqogoa)">
                    <g fill="#2F2F2F" fill-rule="nonzero">
                        <path d="M22.169 14.116l-4.615 1.602-1.86-1.076V11.213l1.86-1.076 4.615 1.602c.322.125.694-.075.794-.4.124-.326-.075-.702-.397-.802l-3.573-1.226 3.35-1.952c.297-.176.396-.576.223-.876-.174-.3-.571-.4-.869-.226l-3.35 1.953.72-3.73c.075-.35-.149-.676-.496-.75-.347-.076-.67.15-.744.5l-.943 4.83-1.86 1.077-1.415-.826-.025-.025-1.439-.851V6.282l3.672-3.228c.273-.226.298-.626.05-.901-.224-.276-.62-.3-.893-.05l-2.829 2.502V.651C12.145.3 11.872 0 11.5 0c-.347 0-.645.275-.645.65v3.905L8.026 2.077c-.272-.225-.67-.2-.893.05-.223.276-.198.676.05.902l3.672 3.228V8.41l-1.44.85-1.438.852-1.861-1.076-.943-4.831c-.074-.35-.397-.576-.744-.5-.347.074-.57.4-.496.75l.72 3.73-3.35-1.953c-.298-.175-.695-.075-.869.226-.173.3-.074.7.224.876l3.35 1.952-3.574 1.226c-.322.125-.52.476-.397.801.124.326.472.526.794.4l4.615-1.601 1.86 1.076V14.617h.026L5.47 15.693.856 14.091c-.322-.125-.695.075-.794.4-.124.326.075.702.397.802l3.573 1.226-3.35 1.953c-.297.175-.397.575-.223.876.174.3.57.4.869.225l3.349-1.952-.72 3.729c-.074.35.15.676.497.75.347.076.67-.15.744-.5l.943-4.83L8 15.693l1.465.851 1.439.851v2.153l-3.672 3.229c-.273.225-.298.625-.05.9.223.276.62.3.893.05l2.829-2.502v3.954c0 .35.272.651.645.651.347 0 .645-.275.645-.65v-3.905l2.828 2.503c.273.225.67.2.893-.05.224-.276.199-.676-.05-.901l-3.72-3.254V17.42l1.438-.85 1.44-.852 1.86 1.077.943 4.83c.074.35.397.576.744.5.347-.074.57-.4.496-.75l-.72-3.73 3.35 1.953c.298.175.695.075.869-.225.173-.3.074-.701-.224-.876l-3.35-1.953 3.574-1.226c.322-.125.52-.476.397-.801-.124-.325-.472-.526-.794-.4zm-7.816-1.201v1.702l-1.439.851-1.414.826-1.464-.851-1.439-.851v-3.379l1.44-.85 1.438-.852 1.44.851.024.025 1.414.826v1.702z" transform="translate(11 10)"/>
                    </g>
                </g>
            </g>
        </g>
    </g>
</svg>
