<svg xmlns="http://www.w3.org/2000/svg" width="46" height="46" viewBox="0 0 46 46">
    <defs>
        <filter id="73h76a04na">
            <feColorMatrix in="SourceGraphic" values="0 0 0 0 1.000000 0 0 0 0 1.000000 0 0 0 0 1.000000 0 0 0 1.000000 0"/>
        </filter>
    </defs>
    <g fill="none" fill-rule="evenodd">
        <g>
            <g transform="translate(-871 -730) translate(871 730)">
                <circle cx="23" cy="23" r="23" fill="#0053AD" opacity=".8"/>
                <g filter="url(#73h76a04na)">
                    <g fill="#2F2F2F" fill-rule="nonzero">
                        <path d="M18.63 13.265c0-6.92-2.206-12.387-5.071-12.718-.026-.008-.053-.014-.08-.016H7.95c-.88-.042-1.756.13-2.556.5C2.965 2.187.369 5.997.369 13.222c0 6.146 1.88 10.816 4.905 12.195.972.392 2.01.59 3.056.584h5.149c.027-.003.053-.008.08-.016 2.865-.331 5.072-5.798 5.072-12.719zM7.94 24.688c-.964-.487-1.766-1.245-2.308-2.183l1.672.508c.492.81 1.143 1.51 1.915 2.057-.44-.075-.87-.203-1.28-.382zm-2.857-3.183c-.281-.596-.518-1.211-.709-1.842l1.647.525c.197.624.438 1.232.722 1.821l-1.66-.504zM4.671 5.99l1.266.673c-.2.653-.364 1.318-.49 1.99l-1.364-.78c.154-.64.35-1.269.588-1.883zm-1.152 8.203l1.584.686c.034.592.082 1.168.151 1.727l-1.6-.584c-.065-.591-.113-1.2-.135-1.83zm-.016-.875v-.097c0-.604.025-1.173.06-1.727l1.512.67c-.013.346-.024.694-.024 1.057 0 .263.008.519.015.775l-1.563-.678zm.121-2.665c.068-.697.159-1.355.28-1.967l1.401.801c-.084.576-.142 1.191-.186 1.828l-1.495-.662zm.499 8.097c-.143-.583-.262-1.197-.358-1.84l1.618.59c.102.618.229 1.207.375 1.77l-1.635-.52zM6.199 5.9l-1.214-.644c.34-.741.775-1.434 1.296-2.06l.86.7c-.373.64-.688 1.31-.942 2.005zm1.375-2.674l-.75-.61c.37-.35.79-.642 1.247-.865.424-.203.879-.334 1.346-.385-.722.502-1.346 1.133-1.843 1.86zm-6.413 9.995c0-6.854 2.361-10.42 4.57-11.47.45-.216.936-.35 1.433-.395-.405.265-.778.576-1.114.926l-.925.226c-.211.052-.341.265-.291.478.044.18.208.303.392.296-.398.57-.74 1.176-1.023 1.812l-.943.24c-.138.035-.246.14-.285.277-.038.137-.001.284.097.386.099.102.244.144.381.109l.38-.097c-.21.573-.386 1.158-.529 1.751l-.86.28c-.134.043-.235.156-.265.295-.03.139.017.283.122.379.105.095.252.127.387.083l.422-.137c-.115.604-.21 1.241-.276 1.92l-.774.197c-.137.035-.246.14-.284.277-.039.137-.002.284.097.386.098.102.243.144.38.109l.518-.132c-.038.578-.064 1.172-.064 1.801v.058l-.708.18c-.212.054-.34.27-.287.484.054.213.27.342.481.288l.528-.134c.02.66.063 1.3.127 1.92l-.68.196c-.136.04-.241.15-.275.29-.034.139.009.285.112.384.103.1.25.136.387.096l.555-.16c.09.652.202 1.278.338 1.873l-.546.14c-.212.053-.34.27-.287.483.053.213.269.342.48.289l.546-.139c.197.72.448 1.423.752 2.104l-.196.05c-.137.035-.246.14-.284.277-.039.137-.002.284.097.386.098.102.243.144.38.109l.361-.092c.559 1.128 1.399 2.092 2.438 2.797-.49-.072-.97-.209-1.425-.406-2.698-1.228-4.44-5.73-4.44-11.47zm12.121 11.983h-1.59c-.487-.084-.962-.23-1.413-.435-.834-.426-1.544-1.063-2.058-1.85l.37-.097c.21-.056.337-.274.281-.487-.055-.212-.272-.34-.483-.283l-.618.163c-.372-.656-.68-1.348-.921-2.063l.806-.213c.212-.056.338-.274.282-.486-.056-.213-.272-.34-.484-.284l-.844.224c-.174-.61-.315-1.23-.422-1.857l1.144-.303c.211-.056.338-.274.282-.487-.056-.212-.273-.34-.484-.283l-1.068.283c-.079-.578-.134-1.196-.172-1.841l1.22-.355c.136-.04.24-.149.274-.287.034-.138-.008-.284-.11-.382-.102-.099-.249-.135-.384-.096l-1.035.302c-.009-.285-.019-.566-.019-.863 0-.335.01-.68.025-1.027l1.283-.341c.211-.056.338-.274.282-.486-.056-.213-.272-.34-.484-.284l-1.03.274c.045-.584.112-1.179.203-1.771l1.352-.38c.201-.066.315-.28.258-.485-.056-.205-.263-.329-.47-.282l-.986.278c.127-.651.29-1.295.487-1.928l1.26-.309c.141-.031.254-.136.295-.274.041-.138.005-.288-.095-.392-.1-.103-.248-.144-.386-.107l-.766.187c.234-.62.522-1.22.862-1.789l1.06-.25c.213-.05.345-.264.295-.478-.05-.214-.263-.347-.476-.297l-.176.042c.486-.598 1.094-1.084 1.783-1.425.372-.18.768-.306 1.175-.373h1.695c2.47 0 4.557 5.465 4.557 11.938 0 6.474-2.087 11.94-4.557 11.94z" transform="translate(14 10)"/>
                        <path d="M8.726 13.265c-.03-4.409.924-8.466 2.49-10.588.117-.176.077-.413-.092-.54-.169-.128-.407-.1-.542.063-1.663 2.254-2.676 6.495-2.645 11.068.032 4.77 1.116 9.096 2.829 11.29.074.097.19.153.311.153.089 0 .175-.03.244-.085.083-.065.137-.16.15-.266.012-.104-.018-.21-.083-.293-1.588-2.031-2.632-6.272-2.662-10.802z" transform="translate(14 10)"/>
                        <path d="M13.85 4.673c-.58 0-1.42.371-2.142 2.132-.729 2.058-1.077 4.232-1.027 6.416-.05 2.186.299 4.362 1.03 6.42.72 1.76 1.56 2.128 2.139 2.128 2.058 0 3.17-4.404 3.17-8.548 0-4.145-1.112-8.548-3.17-8.548zm0 16.301c-.469 0-.982-.596-1.407-1.635-.692-1.963-1.021-4.036-.97-6.118-.05-2.079.278-4.15.967-6.11.427-1.043.941-1.64 1.41-1.64 1.125 0 2.378 3.183 2.378 7.752 0 4.57-1.253 7.751-2.378 7.751z" transform="translate(14 10)"/>
                        <path d="M12.598 9.547c-.1.03-.186.097-.237.19-.051.092-.064.2-.035.302.276 1.037.41 2.106.397 3.18.016 1.159-.143 2.314-.472 3.426-.032.1-.024.21.024.304s.13.165.23.197c.04.014.082.02.123.02.172 0 .323-.111.376-.275.354-1.191.526-2.43.51-3.673.013-1.146-.131-2.289-.427-3.396-.028-.102-.095-.188-.187-.24-.092-.052-.2-.064-.302-.035z" transform="translate(14 10)"/>
                    </g>
                </g>
            </g>
        </g>
    </g>
</svg>
