<svg xmlns="http://www.w3.org/2000/svg" width="46" height="46" viewBox="0 0 46 46">
    <defs>
        <filter id="jfjq8ycmla">
            <feColorMatrix in="SourceGraphic" values="0 0 0 0 1.000000 0 0 0 0 1.000000 0 0 0 0 1.000000 0 0 0 1.000000 0"/>
        </filter>
    </defs>
    <g fill="none" fill-rule="evenodd">
        <g>
            <g transform="translate(-943 -730) translate(943 730)">
                <circle cx="23" cy="23" r="23" fill="#0053AD" opacity=".8"/>
                <g fill="#000" fill-rule="nonzero" filter="url(#jfjq8ycmla)" transform="translate(12 12)">
                    <path d="M12.405 2.423H3.854c-.266 0-.483.219-.483.486V8.6c0 .268.217.487.483.487h8.55c.267 0 .484-.22.484-.487V2.91c0-.268-.217-.487-.483-.487zm-.483 5.69H4.337V3.397h7.585v4.718z"/>
                    <path d="M22.513 20.019h-8.076v-7.85h.786c.713 0 1.29.593 1.286 1.32V14.856c0 1.438 1.142 2.6 2.554 2.6s2.554-1.162 2.554-2.6V7.095c0-.805-.294-1.58-.834-2.174L17.015.55l-.723.647 2.92 3.39c-1.055.182-1.768 1.198-1.59 2.272.154.952.964 1.649 1.913 1.649.4-.005.79-.128 1.118-.363v6.712c0 .893-.713 1.62-1.59 1.62-.877 0-1.59-.727-1.59-1.62v-1.36c.005-1.27-1.002-2.305-2.246-2.31h-.79V2.046C14.437.927 13.55 0 12.452 0H3.498C2.4 0 1.523.932 1.523 2.046v17.973H.482c-.265 0-.482.22-.482.49S.217 21 .482 21h22.036c.265 0 .482-.22.482-.49s-.217-.491-.487-.491zM19.535 7.522c-.54 0-.973-.447-.973-.991 0-.545.438-.992.973-.992.54 0 .974.447.974.992 0 .544-.439.99-.974.99zm-6.062 12.497H2.486V2.046c0-.579.444-1.065 1.012-1.065h8.954c.568 0 1.021.491 1.021 1.065v17.973z"/>
                </g>
            </g>
        </g>
    </g>
</svg>
