<svg xmlns="http://www.w3.org/2000/svg" width="20" height="20" viewBox="0 0 20 20">
    <g fill="none" fill-rule="evenodd">
        <g fill="#000" fill-rule="nonzero">
            <g>
                <path d="M20 10c0-2.8-4.39-5-10-5l.727-.545c.13-.098.198-.257.179-.418-.02-.162-.124-.3-.273-.364-.15-.064-.321-.043-.451.054L8.364 5.091l-.091.109c-.06.12-.06.262 0 .382l.09.109 1.819 1.364c.078.06.174.091.273.09.142 0 .276-.068.363-.181.15-.201.11-.486-.09-.637L10 5.91c4.927 0 9.09 1.873 9.09 4.091 0 1.455-1.817 2.727-4.4 3.482.21-1.149.313-2.314.31-3.482l.555.727c.088.153.256.24.431.226.176-.015.327-.13.388-.295.062-.165.022-.35-.101-.476l-1.364-1.818-.109-.091h-.045c-.12-.06-.262-.06-.382 0h-.046l-.109.09-1.363 1.819c-.151.2-.11.486.09.636.079.06.175.092.273.091.143-.001.277-.068.364-.182l.545-.727c.002 1.249-.123 2.495-.372 3.718-1.236.252-2.494.377-3.755.373-1.249.002-2.495-.123-3.718-.373-.25-1.223-.375-2.47-.373-3.718C5.91 5.073 7.782.91 10 .91c1.018 0 2 .908 2.773 2.472.071.146.215.243.377.254.163.011.319-.065.41-.2.09-.135.102-.308.03-.454C12.656 1.064 11.383 0 10 0 7.2 0 5 4.39 5 10c-.003 1.168.1 2.333.31 3.482C2.726 12.727.91 11.455.91 10c0-1.027.908-2.01 2.472-2.727.146-.072.243-.216.254-.378.011-.162-.065-.318-.2-.41-.135-.09-.308-.102-.454-.03C1.064 7.327 0 8.6 0 10c0 1.99 2.227 3.636 5.518 4.482C6.364 17.772 8.01 20 10 20c1.99 0 3.636-2.227 4.482-5.518C17.772 13.636 20 11.99 20 10zm-10 9.09c-1.455 0-2.727-1.817-3.482-4.4 1.149.21 2.314.313 3.482.31 1.168.003 2.333-.1 3.482-.31-.755 2.583-2.027 4.4-3.482 4.4z" transform="translate(-682 -667) translate(682 667)"/>
            </g>
        </g>
    </g>
</svg>
