<svg xmlns="http://www.w3.org/2000/svg" width="46" height="46" viewBox="0 0 46 46">
    <defs>
        <filter id="624pacssua">
            <feColorMatrix in="SourceGraphic" values="0 0 0 0 1.000000 0 0 0 0 1.000000 0 0 0 0 1.000000 0 0 0 1.000000 0"/>
        </filter>
    </defs>
    <g fill="none" fill-rule="evenodd">
        <g>
            <g transform="translate(-1015 -730) translate(1015 730)">
                <circle cx="23" cy="23" r="23" fill="#0053AD" opacity=".8"/>
                <g filter="url(#624pacssua)">
                    <g fill="#8C8C8C" fill-rule="nonzero">
                        <g>
                            <path stroke="#8C8C8C" stroke-width=".1" d="M11.959.324C8.247-.67 4.302.67 1.963 3.716c-2.339 3.048-2.611 7.204-.69 10.531 1.254 2.186 3.331 3.78 5.768 4.425.807.217 1.639.327 2.475.328 3.391-.007 6.522-1.82 8.215-4.758 1.693-2.938 1.692-6.556-.004-9.493C16.473 2.563 14.396.97 11.96.324zm6.106 11.469c-.929 3.463-3.852 6.026-7.408 6.494-3.555.468-7.043-1.252-8.836-4.357-1.58-2.74-1.58-6.116-.001-8.857C3.4 2.33 6.32.638 9.485.63c.78 0 1.556.103 2.31.306 2.27.608 4.208 2.094 5.383 4.13 1.176 2.036 1.495 4.456.886 6.727h0z" transform="translate(11 11) matrix(-1 0 0 1 19 5)"/>
                            <path stroke="#8C8C8C" stroke-width=".1" d="M13.171 14.03c.004-.004.01-.004.014-.007l.02-.021c1.598-1.31 2.386-3.365 2.074-5.406l-.002-.01c-.215-1.42-.954-2.71-2.072-3.613-.008-.006-.012-.015-.02-.021l-.011-.004c-1.621-1.303-3.813-1.65-5.758-.913-.003.002-.007 0-.01.003l-.004.003c-.572.21-1.105.516-1.573.905-.005.003-.01.003-.014.006l-.02.021C4.197 6.284 3.409 8.338 3.72 10.38l.002.01c.308 2.07 1.707 3.814 3.662 4.567 1.955.754 4.165.4 5.786-.927h0zm-2.453-3.117l-.025.016-.263.154-.539.31c-.083.05-.138.136-.147.233-.2.02-.403.014-.601-.02-.045-.15-.145-.276-.28-.354l-.575-.332c-.136-.078-.297-.1-.449-.064-.077-.091-.147-.189-.207-.292-.059-.102-.108-.21-.148-.321.108-.115.168-.266.168-.423v-.664c0-.157-.06-.308-.168-.421.07-.187.166-.364.284-.525.088.043.191.038.275-.012l.228-.131.011-.005.025-.015.263-.154.539-.31c.083-.05.138-.137.147-.233.2-.021.4-.015.599.019.045.15.146.276.282.354l.574.333c.136.078.298.101.451.064.077.091.146.189.206.29.059.104.108.212.148.323-.108.114-.168.265-.168.423v.664c0 .156.06.307.168.42-.07.188-.166.364-.285.525-.088-.04-.19-.035-.274.012l-.225.13-.014.006zm-4.282 2.758l1.544-2.22.576.332-1.154 2.444-.966-.556zM4.301 8.927l2.735.229v.665l-2.738.228c-.04-.373-.038-.75.003-1.122h0zm8.287-3.66l-1.57 2.257-.575-.332 1.173-2.482c.343.151.67.338.973.56l-.001-.002zm2.11 4.78l-2.734-.227v-.666l2.738-.227c.04.373.038.749-.003 1.121h0zm-1.633 3.265l-1.435-2.06c.199-.24.356-.51.464-.802l2.502.208c-.233 1.018-.767 1.942-1.531 2.654h0zm.97-6.438c.261.45.453.938.569 1.445l-2.51.21c-.05-.148-.115-.29-.191-.425-.08-.134-.17-.262-.272-.381l1.436-2.06c.382.353.708.762.969 1.211h0zM9.492 4.261c.524 0 1.045.08 1.546.234l-1.073 2.27c-.307-.053-.622-.054-.93-.002l-1.072-2.27c.495-.154 1.01-.232 1.529-.232h0zm-2.61.7c.163-.093.33-.177.502-.251l1.17 2.483-.295.17-.277.16L6.41 5.268c.151-.11.309-.213.472-.307zm-.945.703L7.37 7.725c-.199.24-.355.51-.464.802l-2.502-.209c.233-1.018.767-1.942 1.532-2.654zM4.965 12.1c-.261-.45-.453-.938-.569-1.445l2.51-.209c.051.147.116.288.193.423.08.134.17.261.27.38l-1.435 2.064c-.382-.354-.709-.763-.97-1.213h0zm3 2.376l1.07-2.268c.157.028.315.044.475.045.153-.001.305-.015.456-.042l1.071 2.268c-1.001.306-2.072.305-3.073-.003h0zm3.653-.21l-1.17-2.484.295-.172.277-.159 1.571 2.255c-.302.222-.628.41-.971.56h-.002z" transform="translate(11 11) matrix(-1 0 0 1 19 5)"/>
                            <path d="M9.878 8.088c-.673-.18-1.38.14-1.689.766-.308.625-.132 1.381.422 1.806.553.424 1.329.398 1.853-.061.524-.46.65-1.226.302-1.83-.193-.336-.513-.582-.888-.68zm.329 1.601c-.098.366-.46.596-.833.53-.372-.065-.634-.405-.601-.782.033-.378.348-.667.727-.668.064 0 .128.009.19.025.187.05.347.173.444.34.097.169.123.368.073.555z" transform="translate(11 11) matrix(-1 0 0 1 19 5)"/>
                        </g>
                        <g>
                            <path d="M.324 4.386c.04.01.079.014.117.014.194 0 .371-.112.425-.283l.542-1.714.376.328c.109.095.266.134.416.102.15-.032.269-.129.316-.256L3.279.503C3.353.3 3.226.083 2.994.019c-.232-.065-.48.046-.555.248l-.542 1.474-.401-.35c-.11-.096-.273-.135-.424-.1-.152.035-.271.138-.313.27L.016 3.913c-.065.205.073.417.308.473zM10.956 6.813c-.095-.199-.312-.271-.485-.162L7.93 8.255c-.1.062-.166.174-.182.302-.016.128.021.257.1.348l.7.804-1.678.482c-.192.055-.308.278-.26.498.04.187.186.311.346.311.029 0 .058-.004.087-.012l2.29-.658c.125-.036.223-.147.257-.29.035-.142 0-.295-.091-.4l-.809-.929 2.124-1.34c.173-.11.236-.36.14-.558zM8.961 4.239c.103.103.244.161.39.161.144 0 .285-.058.388-.161.102-.103.161-.244.161-.389 0-.145-.059-.286-.161-.389-.103-.102-.244-.161-.389-.161-.145 0-.286.059-.389.161-.102.103-.161.244-.161.39 0 .144.059.285.161.388zM7.663 4.6c-.087-.178-.3-.25-.476-.163L5.861 5.1c-.102.051-.174.15-.193.264-.019.114.018.23.1.313l.501.508-1.67.833c-.177.088-.25.303-.162.481.062.127.188.201.319.201.052 0 .106-.012.156-.037l2.116-1.055c.103-.051.175-.15.194-.264.018-.114-.019-.23-.1-.313l-.502-.508.882-.44c.176-.089.248-.304.161-.483zM2.417 6.536c.072.043.152.064.23.064.152 0 .3-.078.384-.218l1.656-2.77.87.875c.094.095.226.143.36.13.133-.013.254-.086.328-.198L8.725.7C8.861.491 8.806.213 8.6.075c-.205-.138-.483-.083-.62.123L5.805 3.465l-.89-.895c-.097-.098-.234-.145-.37-.128-.137.017-.259.096-.33.214L2.264 5.92c-.127.213-.059.488.153.616z" transform="translate(11 11) translate(13)"/>
                        </g>
                    </g>
                </g>
            </g>
        </g>
    </g>
</svg>
