<svg xmlns="http://www.w3.org/2000/svg" width="209" height="92" viewBox="0 0 209 92">
    <g fill="none" fill-rule="evenodd">
        <g>
            <g>
                <path fill="#0054B0" fill-rule="nonzero" stroke="#FFF" d="M205.352 75.698l-1.214-.095V3.098c0-1.703-1.159-3.098-2.586-3.098H56.264c-1.469 0-2.665 1.393-2.665 3.098v70.167h-6.16V28.288c0-2.42-1.808-4.384-4.032-4.384H39.05c-2.224 0-4.025 1.963-4.025 4.384v7.173H23.376c-1.627 0-2.932 1.036-3.877 3.071-.041.11-3.824 14.505-3.824 14.505L5.401 55.343c-1.418.25-2.485 1.535-2.485 2.947v17.343l-1.234.065C.746 75.755 0 76.62 0 77.668c0 1.09.796 1.978 1.777 1.978h7.026c.255 5.657 4.591 10.19 9.93 10.19 5.342 0 9.682-4.532 9.928-10.19h25.596C54.527 85.398 58.943 90 64.373 90c3.969 0 7.387-2.476 9.058-6.044C75.103 87.524 78.511 90 82.484 90c5.434 0 9.845-4.602 10.118-10.354h70.002C162.875 85.398 167.285 90 172.721 90c3.974 0 7.386-2.476 9.058-6.044 1.673 3.568 5.084 6.044 9.056 6.044 5.434 0 9.845-4.602 10.118-10.354h4.272c.979 0 1.775-.886 1.775-1.978-.004-1.034-.73-1.9-1.648-1.97zM19.87 51.18l2.817-10.797.255-.984h12.085V52.84h-1.314l-12.582.005h-1.699l.438-1.664zm-1.133 20.856c1.815 0 3.455.79 4.655 2.053 1.177 1.3 1.912 3.087 1.912 5.063 0 1.97-.732 3.749-1.896 5.047-1.203 1.27-2.853 2.06-4.671 2.06-1.806 0-3.44-.782-4.643-2.033-1.177-1.307-1.903-3.1-1.903-5.076 0-1.985.73-3.783 1.915-5.092 1.2-1.242 2.828-2.022 4.63-2.022zm25.146-13.915v17.565H28.135c-1.352-4.188-5.028-7.229-9.398-7.229-4.363 0-8.047 3.04-9.394 7.23H6.472V59.14l1.024-.236 9.31-2.087.14-.033H17.27l.048.015 21.6-.015 3.656.015h1.309v1.323zm0-28.945v23.67H38.58V27.854h5.303v1.323zm26.711 51.968c-.83 2.883-3.251 5.018-6.22 5.018-2.404 0-4.409-1.43-5.567-3.478-.556-1.06-.958-2.222-.958-3.532 0-2.098.852-3.954 2.161-5.27 1.17-1.117 2.669-1.84 4.363-1.84 2.323 0 4.272 1.356 5.448 3.296.662 1.124 1.143 2.385 1.143 3.816 0 .704-.194 1.346-.37 1.99zm17.978.71c-1.004 2.537-3.36 4.306-6.09 4.306-2.451 0-4.488-1.482-5.634-3.593-.526-1.029-.895-2.155-.895-3.417 0-2.08.832-3.925 2.118-5.239 1.172-1.138 2.704-1.874 4.41-1.874 2.212 0 4.085 1.243 5.284 3.041.763 1.171 1.297 2.528 1.297 4.072.002.965-.181 1.866-.49 2.704zm84.147 4.308c-1.903 0-3.59-.886-4.796-2.266-1.033-1.27-1.71-2.906-1.71-4.744 0-2.44 1.185-4.506 2.887-5.802 1.054-.758 2.249-1.309 3.619-1.309 2.68 0 4.967 1.718 6.004 4.172.373.898.593 1.883.6 2.933-.025 3.882-2.967 7.016-6.604 7.016zm18.109 0c-2.04 0-3.793-1.04-5.005-2.592-.893-1.23-1.505-2.722-1.505-4.418 0-2.353 1.101-4.348 2.695-5.66 1.089-.854 2.362-1.453 3.815-1.453 2.616 0 4.831 1.659 5.898 4.007.42.949.701 1.98.707 3.1-.027 3.882-2.968 7.016-6.605 7.016zm9.763-10.503s-.142-.287-.355-.674c-1.52-3.968-5.16-6.783-9.405-6.783-3.972 0-7.383 2.484-9.056 6.046-1.671-3.562-5.084-6.046-9.058-6.046-4.489 0-8.26 3.154-9.603 7.484H92.09c-1.342-4.33-5.118-7.484-9.607-7.484-3.972 0-7.381 2.484-9.053 6.046-1.671-3.562-5.087-6.046-9.058-6.046-2.82 0-5.369 1.243-7.214 3.235V60.184h143.433V75.66h-.001zm0-33.619v14.187H57.159v-15.51H200.59v1.323zm0-36.77v31.502H57.159V3.95H200.59V5.27z" transform="translate(-991 -1591) matrix(-1 0 0 1 1199 1592)"/>
                <path fill="#FF7B00" stroke="#FF7200" stroke-width=".2" d="M18.632 71.26c2.042 0 3.888.89 5.237 2.31 1.324 1.462 2.15 3.472 2.15 5.695 0 2.217-.822 4.217-2.131 5.678-1.354 1.428-3.21 2.317-5.256 2.317-2.031 0-3.869-.88-5.222-2.287-1.324-1.47-2.14-3.487-2.14-5.71 0-2.233.82-4.256 2.154-5.728 1.35-1.398 3.181-2.275 5.208-2.275zM172.612 71c2.042 0 3.888.89 5.238 2.31 1.323 1.462 2.15 3.472 2.15 5.695 0 2.217-.823 4.217-2.132 5.678-1.354 1.428-3.21 2.317-5.256 2.317-2.031 0-3.869-.88-5.222-2.287-1.324-1.47-2.14-3.487-2.14-5.71 0-2.233.82-4.256 2.154-5.728 1.35-1.398 3.181-2.275 5.208-2.275zM190.612 71c2.042 0 3.888.89 5.238 2.31 1.323 1.462 2.15 3.472 2.15 5.695 0 2.217-.823 4.217-2.132 5.678-1.354 1.428-3.21 2.317-5.256 2.317-2.031 0-3.869-.88-5.222-2.287-1.324-1.47-2.14-3.487-2.14-5.71 0-2.233.82-4.256 2.154-5.728 1.35-1.398 3.181-2.275 5.208-2.275z" transform="translate(-991 -1591) matrix(-1 0 0 1 1199 1592)"/>
            </g>
        </g>
    </g>
</svg>
