<svg xmlns="http://www.w3.org/2000/svg" width="157" height="90" viewBox="0 0 157 90">
    <defs>
        <filter id="urmuamj20a">
            <feColorMatrix in="SourceGraphic" values="0 0 0 0 0.000000 0 0 0 0 0.329412 0 0 0 0 0.690196 0 0 0 1.000000 0"/>
        </filter>
    </defs>
    <g fill="none" fill-rule="evenodd">
        <g filter="url(#urmuamj20a)" transform="translate(-797 -1592)">
            <g fill="#000" fill-rule="nonzero">
                <path d="M150.835 0H55.832c-3.405.004-6.164 2.766-6.168 6.176v18.816c-.362-.12-.74-.18-1.121-.18h-10.86c-2.963-.014-5.625 1.811-6.684 4.583l-7.066 18.258c-.164.427-.527.746-.97.853-2.733.652-9.36 2.286-11.89 3.354-2.302.972-5.162 2.438-7.288 4.95-.041.042-.08.086-.114.133C2.46 58.41 1.6 60.136 1.16 61.988.325 65.434-.012 71.546 0 73.905c.014 2.124.048 7.766 5.458 7.766h7.847C14.453 86.551 18.803 90 23.81 90c5.007 0 9.357-3.448 10.505-8.329h14.228c.884 0 1.737-.326 2.396-.917.673.591 1.537.917 2.432.917h62.248c1.149 4.88 5.499 8.329 10.506 8.329 5.007 0 9.357-3.449 10.505-8.329h16.663c2.046-.002 3.705-1.662 3.707-3.711V6.176c-.003-3.409-2.76-6.171-6.165-6.176zM31.955 33.83h7.47c.76-.036 1.405.549 1.447 1.31v10.4c-.042.76-.688 1.346-1.448 1.31H26.915l5.04-13.02zM5.275 58.944c.847.053 2.422.303 2.73 1.421.256.929-.042 2.64-1.105 4.113-.97 1.328-2.402 2.245-4.013 2.571.139-1.504.37-2.999.695-4.475.314-1.312.89-2.547 1.693-3.63zm7.74 20.23H5.458c-1.406 0-2.367-.5-2.763-2.658H13.35c-.221.869-.334 1.761-.334 2.658zm10.795 8.327c-3.358 0-6.386-2.026-7.671-5.132-1.285-3.107-.575-6.683 1.8-9.06 2.376-2.379 5.947-3.09 9.05-1.802 3.103 1.287 5.125 4.319 5.125 7.682-.005 4.59-3.72 8.308-8.304 8.313zm25.855-9.544v.094c0 .62-.502 1.123-1.121 1.123H34.606c0-.897-.113-1.79-.334-2.658h15.392l.001 1.441zm0-3.936H33.29c-1.89-3.477-5.527-5.641-9.48-5.641-3.953 0-7.59 2.164-9.48 5.641H2.494l-.002-.131c-.005-.986.052-2.555.173-4.273 2.503-.306 4.767-1.636 6.254-3.675 1.389-1.923 1.986-4.429 1.488-6.238C9.964 58.1 8.704 57.23 7.372 56.8c1.43-1.086 3-1.974 4.669-2.639 2.424-1.024 9.414-2.728 11.5-3.227.935-.225 1.753-.79 2.295-1.585h13.587c2.136.035 3.898-1.666 3.94-3.805V35.14c-.042-2.138-1.804-3.84-3.94-3.805h-6.502l.401-1.037c.691-1.808 2.428-2.999 4.361-2.99h10.86c.619 0 1.12.502 1.12 1.122l.002 45.592zm65.666 5.153H53.37c-.67 0-1.215-.545-1.215-1.217v-1.44h63.508c-.221.868-.333 1.76-.334 2.657zm10.795 8.327c-3.359 0-6.386-2.025-7.672-5.132-1.285-3.107-.575-6.683 1.8-9.06 2.375-2.378 5.947-3.09 9.05-1.803 3.102 1.287 5.125 4.319 5.125 7.682-.004 4.59-3.719 8.309-8.302 8.314h-.001zm28.383-9.544c0 .672-.544 1.217-1.215 1.217H136.92c-.001-.897-.113-1.79-.334-2.658h17.922v1.441zm0-3.936h-18.905c-1.889-3.477-5.526-5.641-9.48-5.641-3.952 0-7.59 2.164-9.478 5.641h-64.49V6.176c.002-2.032 1.647-3.679 3.676-3.68h95.003c2.029.002 3.671 1.649 3.674 3.68v67.846z" transform="matrix(-1 0 0 1 954 1592)"/>
                <path d="M40.752 54h-3.504c-.69 0-1.248.672-1.248 1.5s.559 1.5 1.248 1.5h3.504c.69 0 1.248-.672 1.248-1.5s-.559-1.5-1.248-1.5zM24 75c-2.21 0-4 1.79-4 4s1.79 4 4 4 4-1.79 4-4c-.003-2.208-1.792-3.997-4-4zm0 5.56c-.861 0-1.56-.699-1.56-1.56 0-.861.699-1.56 1.56-1.56.861 0 1.56.699 1.56 1.56-.002.86-.7 1.557-1.56 1.558v.001zM127 75c-2.21 0-4 1.79-4 4s1.79 4 4 4 4-1.79 4-4c-.003-2.208-1.792-3.997-4-4zm0 5.56c-.861 0-1.56-.699-1.56-1.56 0-.861.699-1.56 1.56-1.56.861 0 1.56.699 1.56 1.56-.002.86-.7 1.557-1.56 1.558v.001z" transform="matrix(-1 0 0 1 954 1592)"/>
            </g>
        </g>
    </g>
</svg>
