<svg xmlns="http://www.w3.org/2000/svg" xmlns:xlink="http://www.w3.org/1999/xlink" width="271" height="58" viewBox="0 0 271 58">
    <defs>
        <filter id="dzfxm8js2b">
            <feColorMatrix in="SourceGraphic" values="0 0 0 0 0.000000 0 0 0 0 0.329412 0 0 0 0 0.690196 0 0 0 1.000000 0"/>
        </filter>
        <path id="79sy7e8uva" d="M89 0H151V58H89z"/>
    </defs>
    <g fill="none" fill-rule="evenodd">
        <g>
            <g transform="translate(-28.000000, -1553.000000) translate(28.000000, 1553.000000)">
                <use fill="#FFF" xlink:href="#79sy7e8uva"/>
                <g>
                    <path fill="#0054B0" fill-rule="nonzero" stroke="#FFF" d="M124.005 45.419l-.733-.057V1.859c0-1.022-.7-1.859-1.562-1.859H33.976c-.887 0-1.61.836-1.61 1.859v42.1h-3.72V16.973c0-1.453-1.09-2.63-2.434-2.63h-2.631c-1.343 0-2.43 1.177-2.43 2.63v4.304h-7.035c-.982 0-1.77.621-2.341 1.842-.025.066-2.31 8.703-2.31 8.703l-6.203 1.384c-.857.15-1.501.92-1.501 1.768V45.38l-.745.039C.45 45.453 0 45.973 0 46.6c0 .654.48 1.187 1.073 1.187h4.243c.154 3.394 2.772 6.114 5.996 6.114 3.226 0 5.847-2.72 5.995-6.114h15.457c.163 3.45 2.83 6.212 6.109 6.212 2.396 0 4.46-1.486 5.47-3.626C45.352 52.514 47.41 54 49.809 54c3.281 0 5.945-2.761 6.11-6.212h42.272c.164 3.45 2.827 6.212 6.109 6.212 2.4 0 4.46-1.486 5.47-3.626 1.01 2.14 3.07 3.626 5.469 3.626 3.28 0 5.945-2.761 6.11-6.212h2.579c.591 0 1.072-.532 1.072-1.187-.002-.62-.44-1.14-.995-1.182zM11.999 30.709L13.7 24.23l.154-.59h7.298v8.063h-.794l-7.598.003h-1.025l.264-.998zm-.685 12.513c1.096 0 2.087.474 2.812 1.232.71.78 1.154 1.852 1.154 3.038 0 1.182-.442 2.25-1.145 3.028-.726.762-1.723 1.236-2.82 1.236-1.091 0-2.078-.47-2.804-1.22-.71-.784-1.15-1.86-1.15-3.045 0-1.191.441-2.27 1.157-3.056.725-.745 1.708-1.213 2.796-1.213zM26.5 34.873v10.539H16.99c-.816-2.513-3.036-4.337-5.676-4.337-2.634 0-4.859 1.824-5.672 4.337H3.908v-9.928l.619-.142 5.621-1.252.086-.02h.195l.029.01 13.044-.01 2.207.01h.79v.793zm0-17.367V31.708h-3.202V16.712h3.202v.794zm16.13 31.18c-.501 1.73-1.963 3.012-3.756 3.012-1.451 0-2.662-.859-3.362-2.087-.335-.636-.578-1.333-.578-2.12 0-1.258.514-2.371 1.305-3.161.706-.67 1.611-1.105 2.635-1.105 1.402 0 2.58.815 3.29 1.979.4.674.69 1.43.69 2.289 0 .423-.117.808-.224 1.194zm10.857.427c-.607 1.522-2.03 2.584-3.678 2.584-1.48 0-2.71-.89-3.402-2.156-.318-.617-.54-1.293-.54-2.05 0-1.248.502-2.355 1.278-3.144.708-.683 1.633-1.124 2.663-1.124 1.336 0 2.467.746 3.191 1.825.46.702.783 1.516.783 2.443.001.578-.109 1.12-.295 1.622zm50.813 2.585c-1.15 0-2.168-.532-2.896-1.36-.624-.762-1.033-1.744-1.033-2.846 0-1.464.716-2.704 1.743-3.481.637-.455 1.358-.786 2.186-.786 1.619 0 3 1.03 3.625 2.504.226.538.359 1.13.363 1.76-.015 2.328-1.792 4.209-3.988 4.209zm10.935 0c-1.231 0-2.29-.624-3.022-1.556-.54-.738-.909-1.633-.909-2.65 0-1.412.665-2.609 1.628-3.396.657-.513 1.426-.872 2.303-.872 1.58 0 2.918.995 3.562 2.404.253.57.423 1.188.427 1.86-.017 2.33-1.793 4.21-3.989 4.21zm5.896-6.302s-.086-.172-.215-.404c-.917-2.381-3.115-4.07-5.679-4.07-2.398 0-4.458 1.49-5.468 3.627-1.01-2.137-3.07-3.627-5.47-3.627-2.71 0-4.988 1.892-5.8 4.49H55.61c-.81-2.598-3.09-4.49-5.8-4.49-2.4 0-4.458 1.49-5.467 3.627-1.01-2.137-3.073-3.627-5.47-3.627-1.704 0-3.243.746-4.357 1.94V36.11h86.615v9.286h-.001zm0-20.171v8.512H34.516V24.431h86.614v.794zm0-22.062v18.901H34.516V2.37h86.614v.793z" transform="translate(207.500000, 29.000000) scale(-1, 1) translate(-207.500000, -29.000000) translate(145.000000, 2.000000)"/>
                    <path fill="#FF7B00" stroke="#FF7200" stroke-width=".2" d="M11.251 42.756c1.233 0 2.348.534 3.163 1.386.799.877 1.299 2.083 1.299 3.417 0 1.33-.498 2.53-1.288 3.407-.818.856-1.938 1.39-3.174 1.39-1.226 0-2.336-.528-3.153-1.372-.8-.883-1.293-2.093-1.293-3.426 0-1.34.496-2.554 1.301-3.437.815-.839 1.921-1.365 3.145-1.365zM104.235 42.6c1.232 0 2.347.534 3.162 1.386.8.877 1.299 2.083 1.299 3.417 0 1.33-.497 2.53-1.288 3.407-.817.856-1.938 1.39-3.173 1.39-1.227 0-2.337-.528-3.154-1.372-.8-.882-1.293-2.093-1.293-3.426 0-1.34.496-2.554 1.301-3.437.815-.839 1.921-1.365 3.146-1.365zM115.104 42.6c1.233 0 2.348.534 3.163 1.386.799.877 1.298 2.083 1.298 3.417 0 1.33-.497 2.53-1.287 3.407-.818.856-1.939 1.39-3.174 1.39-1.227 0-2.336-.528-3.154-1.372-.799-.882-1.292-2.093-1.292-3.426 0-1.34.496-2.554 1.3-3.437.816-.839 1.922-1.365 3.146-1.365z" transform="translate(207.500000, 29.000000) scale(-1, 1) translate(-207.500000, -29.000000) translate(145.000000, 2.000000)"/>
                </g>
                <g filter="url(#dzfxm8js2b)">
                    <g fill="#000" fill-rule="nonzero">
                        <path d="M91.27 0H33.784c-2.06.002-3.73 1.66-3.732 3.705v11.29c-.22-.071-.448-.108-.679-.108h-6.57c-1.794-.008-3.405 1.087-4.046 2.75l-4.275 10.955c-.1.256-.319.447-.588.512-1.653.391-5.663 1.371-7.193 2.012-1.393.583-3.124 1.463-4.411 2.97-.025.025-.048.052-.069.08-.733.88-1.253 1.916-1.52 3.027-.505 2.067-.708 5.734-.7 7.15.007 1.274.028 4.66 3.302 4.66H8.05C8.745 51.93 11.377 54 14.407 54s5.662-2.07 6.357-4.997h8.609c.535 0 1.051-.196 1.45-.55.407.354.93.55 1.472.55H69.96C70.656 51.93 73.288 54 76.318 54c3.03 0 5.661-2.07 6.356-4.997h10.083c1.238-.001 2.242-.998 2.243-2.227V3.706C94.998 1.66 93.33.002 91.27 0zM19.336 20.298h4.52c.46-.022.85.33.875.786v6.24c-.025.456-.416.807-.876.786h-7.569l3.05-7.812zM3.192 35.368c.512.031 1.465.181 1.652.852.155.557-.025 1.583-.67 2.468-.586.796-1.452 1.347-2.427 1.542.084-.903.224-1.8.42-2.685.19-.787.539-1.528 1.025-2.178zm4.683 12.137H3.303c-.851 0-1.433-.3-1.672-1.595h6.446c-.134.521-.201 1.057-.202 1.595zm6.532 4.996c-2.032 0-3.864-1.215-4.642-3.08-.777-1.863-.347-4.009 1.09-5.436 1.437-1.426 3.598-1.853 5.476-1.08 1.877.772 3.101 2.591 3.101 4.609-.003 2.754-2.251 4.985-5.025 4.988zm15.645-5.726v.056c0 .372-.304.674-.678.674H20.94c0-.538-.068-1.074-.202-1.595h9.314v.865zm0-2.362h-9.909C19 42.327 16.8 41.028 14.407 41.028c-2.392 0-4.593 1.299-5.736 3.385H1.51l-.002-.078c-.003-.592.032-1.533.105-2.564 1.514-.184 2.885-.982 3.785-2.205.84-1.154 1.201-2.657.9-3.743-.268-.963-1.03-1.485-1.836-1.744.865-.651 1.816-1.184 2.825-1.583 1.467-.614 5.696-1.637 6.959-1.936.565-.135 1.06-.474 1.388-.951h8.222c1.292.021 2.358-1 2.383-2.283v-6.242c-.025-1.283-1.09-2.304-2.383-2.283H19.92l.243-.622c.418-1.085 1.47-1.8 2.639-1.795h6.57c.376 0 .68.302.68.674v27.355zm39.734 3.092H32.295c-.406 0-.735-.327-.735-.73v-.865h38.428c-.134.522-.202 1.057-.202 1.595zm6.532 4.996c-2.032 0-3.864-1.215-4.642-3.079-.778-1.864-.348-4.01 1.09-5.436 1.436-1.427 3.597-1.854 5.475-1.082 1.877.773 3.101 2.592 3.101 4.61-.002 2.753-2.25 4.985-5.023 4.988zm17.175-5.726c0 .403-.33.73-.735.73H82.85c0-.538-.069-1.073-.203-1.595h10.845v.865zm0-2.362h-11.44c-1.143-2.086-3.343-3.385-5.735-3.385-2.393 0-4.593 1.3-5.736 3.385H31.56V3.705c0-1.219.996-2.207 2.224-2.208H91.27c1.227.002 2.221.99 2.223 2.208v40.708z" transform="translate(47.500000, 29.000000) scale(-1, 1) translate(-47.500000, -29.000000) translate(-0.000000, 2.000000)"/>
                        <path d="M24.659 32.4h-2.12c-.418 0-.756.403-.756.9s.338.9.756.9h2.12c.417 0 .755-.403.755-.9s-.338-.9-.755-.9zM14.522 45c-1.336 0-2.42 1.075-2.42 2.4s1.084 2.4 2.42 2.4c1.337 0 2.42-1.075 2.42-2.4s-1.084-2.398-2.42-2.4zm0 3.336c-.52 0-.943-.42-.943-.936 0-.517.422-.936.943-.936.521 0 .944.42.944.936-.001.516-.423.934-.944.935zM76.847 45c-1.337 0-2.42 1.075-2.42 2.4s1.083 2.4 2.42 2.4 2.42-1.075 2.42-2.4c-.001-1.325-1.084-2.398-2.42-2.4zm0 3.336c-.521 0-.944-.42-.944-.936 0-.517.423-.936.944-.936.521 0 .944.42.944.936-.001.516-.423.934-.944.935z" transform="translate(47.500000, 29.000000) scale(-1, 1) translate(-47.500000, -29.000000) translate(-0.000000, 2.000000)"/>
                    </g>
                </g>
                <circle cx="80" cy="50" r="5" fill="#FF7B00"/>
                <circle cx="19" cy="50" r="5" fill="#FFF"/>
            </g>
        </g>
    </g>
</svg>
