<svg xmlns="http://www.w3.org/2000/svg" width="176" height="176" viewBox="0 0 176 176">
    <g fill="none" fill-rule="evenodd">
        <g>
            <g transform="translate(-595.000000, -407.000000) translate(595.000000, 407.000000)">
                <circle cx="88" cy="88" r="88" fill="#ECF4FA"/>
                <g fill-rule="nonzero" transform="translate(41.000000, 55.000000)">
                    <g fill="#FFF">
                        <path d="M36.008 12.636v27.156L4.728 28.92 0 27.275S12.3 6.594 12.656 6.017C14.875 2.407 18.855 0 23.397 0c.36 0 .719.015 1.07.045 6.464.544 11.541 5.974 11.541 12.59z" transform="translate(5.000000, 4.000000)"/>
                    </g>
                    <g fill="#FFF">
                        <path d="M0 2.751l.52-.784C1.326.787 2.771 0 4.42 0 6.95 0 9 1.848 9 4.129V13" transform="translate(33.000000, 2.000000)"/>
                    </g>
                    <circle cx="21" cy="44" r="20" fill="#F5822D"/>
                    <path fill="#FFF" d="M53 18V7.082C53 4.274 55.277 2 58.089 2c1.83 0 3.436.968 4.334 2.42l.577.966"/>
                    <g fill="#FFF">
                        <path d="M48 26.733L11.735 39V12.384c0-4.197 2.143-7.906 5.419-10.146C19.214.827 21.727 0 24.436 0c4.575 0 8.583 2.36 10.818 5.897C35.613 6.462 48 26.733 48 26.733zM0 27.23H11.733V33.259H0z" transform="translate(41.000000, 5.000000)"/>
                    </g>
                    <g fill="#F5822D" transform="translate(42.000000, 20.452219)">
                        <ellipse cx="30.83" cy="23.338" rx="20.17" ry="20.21"/>
                        <path d="M0 0H11.651V12.42H0z"/>
                    </g>
                    <path fill="#0053AD" d="M21 29c-8.271 0-15 6.729-15 15s6.729 15 15 15 15-6.729 15-15-6.729-15-15-15zm0 26.779c-6.495 0-11.78-5.284-11.78-11.78 0-6.494 5.285-11.778 11.78-11.778 6.495 0 11.78 5.284 11.78 11.779S27.494 55.779 21 55.779z"/>
                    <g fill="#FFF" transform="translate(8.000000, 31.000000)">
                        <ellipse cx="65.637" cy="13.5" rx="13.363" ry="13.5"/>
                        <ellipse cx="13.363" cy="13.5" rx="13.363" ry="13.5"/>
                    </g>
                    <path fill="#FFF" d="M21.4 31c-.82 0-1.62.076-2.4.214 6.366 1.125 11.201 6.643 11.201 13.286S25.366 56.66 19 57.786c.78.138 1.58.214 2.4.214C28.91 58 35 51.956 35 44.5S28.91 31 21.4 31zM73.4 31c-.82 0-1.62.076-2.4.214 6.367 1.125 11.201 6.643 11.201 13.286S77.367 56.66 71 57.786c.78.138 1.58.214 2.4.214C80.91 58 87 51.956 87 44.5S80.91 31 73.4 31z"/>
                    <path fill="#0053AD" d="M77.871 9.724c-2.595-4.233-7.095-6.76-12.036-6.76-.705 0-1.397.054-2.075.155 0-.002-.002-.004-.003-.005C62.56 1.164 60.487 0 58.214 0c-3.59 0-6.51 2.935-6.51 6.542v11.432h-8.407V6.542c0-3.607-2.92-6.542-6.511-6.542-2.27 0-4.338 1.16-5.546 3.119-.677-.101-1.37-.155-2.075-.155-4.941 0-9.44 2.528-12.037 6.76-.035.06-.144.237-2.76 4.645-.45.758-.204 1.738.55 2.19.754.452 1.73.204 2.18-.553 2.153-3.627 2.677-4.506 2.738-4.605 2.012-3.282 5.5-5.242 9.329-5.242 6.04 0 10.952 4.937 10.952 11.006V32.91c-3.81-6.243-10.663-10.416-18.469-10.416-3.525 0-6.855.852-9.8 2.36l2.357-3.972c.45-.758.203-1.739-.552-2.19-.754-.452-1.73-.204-2.18.554C8.097 24.938 2.78 33.48 2.108 34.89.757 37.725 0 40.9 0 44.247 0 56.24 9.712 66 21.648 66c11.937 0 21.649-9.759 21.649-21.753v-4.245h8.406v4.245C51.703 56.24 61.415 66 73.352 66 85.288 66 95 56.241 95 44.247c0-3.44-.8-6.696-2.22-9.59C92.13 33.332 78.223 10.3 77.87 9.723zm-2.707 1.677c.19.31 4.165 7.007 7.988 13.452-2.945-1.508-6.275-2.36-9.8-2.36-7.806 0-14.66 4.174-18.47 10.416V17.165c0-6.069 4.914-11.006 10.953-11.006 3.83 0 7.317 1.96 9.33 5.242zM54.883 6.542c0-1.845 1.494-3.347 3.33-3.347.837 0 1.62.31 2.22.85-2.177.909-4.08 2.348-5.55 4.158v-1.66zm-3.18 14.627v9.503h-8.406V21.17h8.406zM34.57 4.046c.602-.542 1.382-.85 2.216-.85 1.837 0 3.331 1.5 3.331 3.346v1.66c-1.469-1.808-3.371-3.247-5.547-4.156zM21.648 62.805c-10.183 0-18.468-8.325-18.468-18.559 0-10.233 8.285-18.558 18.468-18.558 10.184 0 18.47 8.325 18.47 18.558 0 10.234-8.286 18.559-18.47 18.559zm21.649-25.998v-2.94h8.406v2.94h-8.406zm30.055 25.998c-10.184 0-18.469-8.326-18.469-18.559s8.285-18.558 18.469-18.558c10.183 0 18.468 8.325 18.468 18.558s-8.285 18.559-18.468 18.559z"/>
                    <path fill="#0053AD" d="M87.12 38.925c-.302-.836-1.224-1.271-2.061-.97-.837.3-1.272 1.223-.97 2.06.458 1.275.69 2.616.69 3.985 0 6.495-5.284 11.78-11.779 11.78S61.22 50.494 61.22 44c0-6.495 5.285-11.779 11.78-11.779 3.26 0 6.403 1.37 8.625 3.757.606.651 1.625.688 2.277.082.65-.606.687-1.625.081-2.276C81.154 30.744 77.151 29 73 29c-8.271 0-15 6.729-15 15s6.729 15 15 15 15-6.729 15-15c0-1.742-.296-3.45-.88-5.075zM21 29c-8.271 0-15 6.729-15 15s6.729 15 15 15 15-6.729 15-15-6.729-15-15-15zm0 26.779c-6.495 0-11.78-5.284-11.78-11.78 0-6.494 5.285-11.778 11.78-11.778 6.495 0 11.78 5.284 11.78 11.779S27.494 55.779 21 55.779z"/>
                    <path fill="#0053AD" d="M73 29c-8.271 0-15 6.729-15 15s6.729 15 15 15 15-6.729 15-15-6.729-15-15-15zm0 26.779c-6.495 0-11.78-5.284-11.78-11.78 0-6.494 5.285-11.778 11.78-11.778 6.495 0 11.78 5.284 11.78 11.779S79.494 55.779 73 55.779z"/>
                </g>
            </g>
        </g>
    </g>
</svg>
