<svg xmlns="http://www.w3.org/2000/svg" width="12" height="12" viewBox="0 0 12 12">
    <defs>
        <filter id="6oowsu0xna">
            <feColorMatrix in="SourceGraphic" values="0 0 0 0 0.552941 0 0 0 0 0.552941 0 0 0 0 0.552941 0 0 0 1.000000 0"/>
        </filter>
    </defs>
    <g fill="none" fill-rule="evenodd">
        <g filter="url(#6oowsu0xna)" transform="translate(-320.000000, -208.000000)">
            <g fill="#000" fill-rule="nonzero">
                <path d="M6 3.75C4.76 3.75 3.75 4.76 3.75 6S4.76 8.25 6 8.25 8.25 7.24 8.25 6 7.24 3.75 6 3.75zM6 7.5c-.827 0-1.5-.673-1.5-1.5S5.173 4.5 6 4.5s1.5.673 1.5 1.5S6.827 7.5 6 7.5z" transform="translate(320.000000, 208.000000)"/>
                <path d="M11.625 5.625h-1.144C10.3 3.442 8.557 1.7 6.375 1.519V.375C6.375.168 6.207 0 6 0s-.375.168-.375.375v1.144C3.442 1.7 1.7 3.443 1.519 5.625H.375C.168 5.625 0 5.793 0 6s.168.375.375.375h1.144C1.7 8.557 3.442 10.3 5.625 10.481v1.144c0 .207.168.375.375.375s.375-.168.375-.375v-1.144c2.182-.181 3.925-1.924 4.106-4.106h1.144c.207 0 .375-.167.375-.375 0-.206-.168-.375-.375-.375zM6 9.75C3.932 9.75 2.25 8.068 2.25 6S3.932 2.25 6 2.25 9.75 3.932 9.75 6 8.068 9.75 6 9.75z" transform="translate(320.000000, 208.000000)"/>
            </g>
        </g>
    </g>
</svg>
