<svg xmlns="http://www.w3.org/2000/svg" xmlns:xlink="http://www.w3.org/1999/xlink" width="189" height="168" viewBox="0 0 189 168">
    <defs>
        <path id="swqmnuj3ea" d="M0.135 0L50.135 0 50.135 50 0.135 50z"/>
    </defs>
    <g fill="none" fill-rule="evenodd">
        <g>
            <g>
                <g fill-rule="nonzero" transform="translate(-289 -155) translate(289 155)">
                    <path fill="#2C3E50" d="M163.78 26.715c-.086-.201-.144-.374-.23-.547 0-14.335-30.806-25.965-68.793-25.965-37.987 0-68.792 11.63-68.792 25.965-2.617 5.768-3.842 12.069-3.577 18.395.058 1.468.173 2.965.346 4.462C10.88 53.717 3.64 60.05 3.64 66.988 1.793 71.077.642 75.445.236 79.913c-.399 3.576-.292 7.19.318 10.737.918 4.97 2.459 9.806 4.586 14.393.969 2.1 2.318 4.003 3.98 5.614 1.175 1.095 2.472 2.05 3.865 2.85-1.759 5.852-2.105 12.037-1.01 18.049.588 3.15 1.388 6.256 2.395 9.298.785 3 2.136 5.823 3.98 8.32 2.942 3.23 6.515 5.826 10.5 7.628 4.426 2.175 9.053 3.92 13.815 5.21 5.68 1.58 11.463 2.763 17.307 3.54 6.587.918 13.223 1.446 19.873 1.584 1.327.029 2.654.029 3.98.029 16.484.386 32.903-2.168 48.487-7.542 4.472-1.534 8.72-3.654 12.633-6.305 8.25-5.9 11.163-18.855 11.278-28.383.056-5.903-1.175-11.747-3.605-17.128 0-4.721-3.317-9.125-9.115-12.925.404-2.015.721-4.03.98-5.988.482-3.7.443-7.45-.115-11.14 6.883-2.088 12.808-6.533 16.73-12.551 2.05-3.838 3.573-7.934 4.528-12.177 2.332-8.731 1.682-17.989-1.846-26.31z"/>
                    <path fill="#2B2733" d="M152.39 108.203c2.432 5.345 3.664 11.15 3.608 17.014-.115 9.464-3.031 22.332-11.287 28.194-3.917 2.633-8.169 4.739-12.645 6.262-15.597 5.339-32.03 7.876-48.528 7.492-1.328 0-2.656 0-3.984-.029-6.655-.136-13.297-.662-19.89-1.572-5.85-.773-11.637-1.948-17.321-3.517-4.767-1.282-9.397-3.015-13.828-5.176-3.988-1.79-7.564-4.369-10.508-7.578-1.846-2.479-3.198-5.283-3.984-8.264-1.008-3.021-1.809-6.107-2.396-9.236-1.097-5.971-.75-12.115 1.01-17.928.693.428 1.415.829 2.107 1.23 1.415.8 2.858 1.515 4.33 2.172.03.029.03.029.058.029l133.258-9.093z"/>
                    <path fill="#555160" d="M141.964 96.203c5.747 3.713 9.036 8.016 9.036 12.629 0 14.007-30.54 25.37-68.202 25.37-29.168 0-54.047-6.806-63.798-16.426l122.964-21.573zM127 81.277c-2.57 1.345-5.221 2.517-7.939 3.508h-.029c-15.295 5.165-31.328 7.666-47.43 7.398-12.142.084-24.253-1.251-36.1-3.979C16.003 83.517 3 75.146 3 65.596c0-7.104 7.22-13.589 19.042-18.393L127 81.277z"/>
                    <path fill="#2B2733" d="M144.666 88.977c-.26 1.946-.578 3.949-.982 5.952-.924 6.21-3.924 11.932-8.52 16.252-3.273 2.553-6.889 4.643-10.743 6.209-10.562 4.245-21.71 6.888-33.068 7.84-6.255.653-12.54.978-18.83.973-4.88 0-9.761-.172-14.642-.572-8.237-.609-16.404-1.94-24.403-3.978-4.791-1.187-9.468-2.786-13.978-4.778-.03 0-.03 0-.058-.029-1.473-.658-2.917-1.373-4.332-2.174-.693-.4-1.415-.801-2.108-1.23-1.396-.794-2.694-1.745-3.87-2.833-1.664-1.601-3.015-3.493-3.986-5.58-2.13-4.56-3.672-9.366-4.592-14.306-.61-3.526-.717-7.118-.317-10.673.406-4.44 1.558-8.783 3.407-12.847 0 9.27 13.054 17.397 32.635 21.946 11.894 2.648 24.054 3.944 36.244 3.863 16.168.26 32.266-2.168 47.624-7.182h.028c2.73-.962 5.392-2.1 7.971-3.405 1.675-.343 3.35-.715 5.025-1.145 3.857-.903 7.656-2.03 11.38-3.376.557 3.668.596 7.395.115 11.073z"/>
                    <path fill="#2B2733" d="M163.541 25.203c.087.171.145.343.231.543 3.537 8.271 4.188 17.472 1.851 26.15-.957 4.217-2.484 8.288-4.54 12.102-3.931 5.982-9.87 10.399-16.77 12.474-3.727 1.345-7.531 2.472-11.392 3.376-1.677.429-3.354.801-5.03 1.144-10.961 2.21-22.125 3.284-33.31 3.205-12.423.11-24.815-1.226-36.923-3.977-9.484-2.26-20.124-4.921-26.948-12.331-4.792-5.647-7.7-12.622-8.327-19.97-.174-1.488-.29-2.975-.347-4.434-.266-6.288.962-12.55 3.585-18.282h137.92z"/>
                    <path fill="#555160" d="M93.5.203C55.645.203 25 12.072 25 26.703c0 14.63 30.645 26.5 68.5 26.5 37.855 0 68.5-11.84 68.5-26.5S131.326.203 93.5.203z"/>
                    <path fill="#2C2F38" d="M125.96 27.807c-9.158 3.578-18.994 5.412-28.927 5.396h-.029c-1.154-.027-2.31-.027-3.493-.027-1.183 0-2.367 0-3.493.027h-.058c-9.923.01-19.748-1.824-28.897-5.396-.649-.283-1.063-.89-1.063-1.557 0-.666.414-1.273 1.063-1.556 5.658-2.55 16.715-5.45 32.448-5.45 11.11-.35 22.173 1.508 32.449 5.45.637.292 1.04.896 1.04 1.556 0 .661-.403 1.265-1.04 1.557z"/>
                    <path fill="#B2B2B2" d="M45.29 32.203c-.514 0-1.018-.136-1.458-.393-4.48-2.607-5.065-5.477-4.767-7.424 1.174-7.654 19.732-12.724 25.39-14.096.986-.247 2.032.038 2.742.745.71.708.974 1.73.692 2.678-.282.949-1.066 1.678-2.056 1.911-10.705 2.598-20.787 7.148-21.159 9.57-.03.21.434.946 2.08 1.903 1.092.637 1.611 1.902 1.27 3.093-.341 1.19-1.46 2.014-2.734 2.013z"/>
                    <circle cx="54" cy="35.203" r="3" fill="#B2B2B2"/>
                </g>
                <g transform="translate(-289 -155) translate(289 155) translate(137.854)">
                    <mask id="8xrj2om3gb" fill="#fff">
                        <use xlink:href="#swqmnuj3ea"/>
                    </mask>
                    <g mask="url(#8xrj2om3gb)">
                        <g>
                            <path fill="#F5B41D" d="M25.007.183c13.777 0 24.945 11.108 24.945 24.81 0 13.701-11.168 24.809-24.945 24.809C11.23 49.802.062 38.694.062 24.992.062 11.291 11.23.183 25.007.183" transform="translate(.135)"/>
                            <path fill="#FFF" fill-rule="nonzero" stroke="#FFF" stroke-width=".5" d="M26.732 14.12v16.998c0 .553-.78 1-1.743 1-.962 0-1.742-.447-1.742-1V14.12c0-.552.78-1 1.742-1 .963 0 1.743.448 1.743 1zm.22 23.006c.098.195.15.404.154.616.009.107.009.216 0 .324-.022.101-.06.2-.116.291-.042.103-.1.202-.174.292l-.231.243c-.184.147-.4.263-.637.34-.232.083-.481.127-.733.13-.511-.006-1-.174-1.37-.47l-.232-.243c-.073-.09-.131-.189-.174-.292-.082-.088-.147-.186-.192-.291-.01-.108-.01-.217 0-.324.003-.212.055-.421.154-.616.092-.199.23-.38.405-.535.362-.306.856-.479 1.37-.479.515 0 1.008.173 1.37.48.176.153.313.335.405.534h0z" transform="translate(.135)"/>
                        </g>
                    </g>
                </g>
            </g>
        </g>
    </g>
</svg>
