<svg xmlns="http://www.w3.org/2000/svg" xmlns:xlink="http://www.w3.org/1999/xlink" width="360" height="177" viewBox="0 0 360 177">
    <defs>
        <path id="bgcz11605a" d="M0 0H360V177H0z"/>
        <path id="ubcglt8yqd" d="M112.74 257.4l-.407-1.6-.407-.8h-.815l-1.222.8-.408 1.2-.407.8-1.63-.8-1.63-1.2-.814-.4 1.63 2 1.222 1.2 1.63 1.2 1.222.4.815.4 1.222.4.815-.8.407-.8.407.8h1.223l.407-.8-1.63-.4-1.63-1.6zM354.09 236c-.454 0-.908.4-1.817.4l-1.364-.4H350v.8l.91 1.2v.8l.908 1.2h1.364l.909-1.2.454.4V238l.455-.4V236h-.91zm29.092.41l-.818.817c0-.409-.41-.818-.41-1.227l-.818.41v.817l-.409.41-.409 1.227-.818.818c-.41.409-1.227.818-1.636 1.227l-.819.41-1.636 1.636-.409 1.227v.409h1.227l.818.409h1.228c.409-.41.818-.818 1.636-1.227l.818-1.637.41-1.227.818-.409h.818l-.41-.818.41-.818c.409-.41.818-1.228 1.227-2.046V236l-.818.41zM244.556 201.56l-.445-.78-.444-.39-.445-.391-.444.39v.78l-.89.781h-.444v.39l-.444.39-.444.391-.89.78h-.444l-.444.39-.89.39h-.444v.781l-.444.78v1.172l.444.78.445.39v.78l-.445.781v.39l-.444.39v1.561l.444.781v1.171l.445.78c.444.39 1.333.39 1.778.781l.889-.39.888-.39.445-1.561c.444-2.342 1.333-4.683 2.222-6.635v-.78l.445-.39v-.39l-.445-.781.445-.39.444.78v-.78l-.444-.39v-2.342zm115.233 15.132v-.795l-.403-1.193-.807-.796-1.21-1.193v-1.193h-.404l-.404-.398-.403.398-.404-1.193-.807-.796v-.398c-.403-.397-1.21-.795-1.614-1.193l-1.21-.795-.404-.796v-.795l-.403-.796h-.404c0-.397-.403-1.193-.403-1.59v-.398l-.404-.398-.403-.398-.807.398v-2.386l-.404-.398v-.398h-.403v-.795l-.404-.398-.403.398v.397l-.404.796-.403.795v.398l-.404.398v2.386l-.403.796v.795l-.404.398-.403.795-.807.398-1.21-.398v-.397l-.404-.398h-.404l-.807-.796-.403-.397v-1.194l-.807-.397v-.398l.403-.398.404-.397v-.398h.403l.404-.398.403-.795-1.21-.796h-.404l-.807.398-.807-.398h-.403l-.808-.398-.403-.397-.807-.398h-.404l.807.398v.397l-.807.398h-.403l-.807.398-.404.795v.398l-.403.398-.404.795.404.796h-1.614l-.807-.796-.807-.397c-.404 0-.807.397-1.21.397v.398h-.404v.398h-1.211l-.807.397v.796l-.403-.398-.404.398.404.398-.404.397-.403-1.193-.807.796v1.193l-.807.398-.404.795-.807.398-1.21.397h-1.211v.398h-.807l-.807.398h-.807l-.807.398-.403.397-.807 1.591-.404.796v-.796l-.403.796V213.114l-.404.397v.796l.404.398v.397l.403.796v.795l-.403-.398-.404-.397.404 1.193-.404-.398v.398l.807.795v.796l.404.398v.397l.403.796V221.864l.404 1.193v2.386h-.404v.796l.807.397 1.21.796h1.615l.403-.398.404-.398h.403l.807-.795h1.614l.807.398h1.614l.404-.398.403-.796.807-.397 1.21-.796h1.211c.807-.397 2.018-.795 2.825-.795h2.017l1.211.795h.807l1.614.796-.403.397.403.398.807.796v.795l.807.398.404-1.193.807-.398.807-1.193v.795l-.404.796v.795l-.403.796.807-.398.403-.796.404 1.194-.404.795h1.21l.404.398.404.795v.796l.807.795 1.21.398h.807c.404 0 1.21.398 1.614.795l.807-1.193.807-.398v.796l.807.398.807.795.807-.795.404-.398 1.21-.398h1.21l.808-.398v-1.193l.403-1.193.404-.795.403-1.194.404-.795.403-1.193.807-.796.404-1.193.403-.795v-.796c0-.398.404-1.193.404-1.59v-1.194l-.404-1.193-.807-.398zM327.6 195.2l-1.2.8-.4.8v.4l.8-.4.8-.8c.8-.4 1.6-.4 2-.8l.4-.4h-1.6l-.8.4zm-7-.4l-.4-.4-.4.4h-.8l-.4.8h.8c.8 0 1.2-.4 2-.4l-.4-.4h-.4zm3.4.4l-.8-.4-.8.4v.4h1.6l1.6-.4v-.8l-.8.8h-.8zm-7.222.4l1.222-.4-1.222-.8-1.63-.4-.407-.8-2.037-.4-.408.4h-2.037v-.4h-.407l-.815-.4h-1.222l-.815 1.2h1.222v.4l2.037.4h1.222l1.223.4 1.222.4h2.444l.408.4zm36.526-2.98l-2.054-.827v-.827h-.41l-.822-.414-2.054-.828-2.053-.827-1.232-.414c-.411-.414-1.233-.414-1.643-.828h-.822l-1.643.828-.821 1.241-1.232-.827-.41-2.07v-.413l-1.644-.414-.41.414-2.054.414.41.413.822.414.41.828h1.644v.414h-.822l-1.232.413.822.414v.414l.41.414h.411l.41-.414 1.644 1.241h.821l2.054.828.41.827.411 1.242-.821.414-.411.827h1.643l.41-.414 1.233.414.821.828h2.054l.821-.414v-.828l.821-.413.822-.414 1.643.414.41.827.822.828.821.827c.822 0 1.232.414 2.054.414l.41.414H357v-.414l-1.232-.414.41-.413h-.82v-.414h-.822l-.411-1.242-1.232-.827v-.828h1.232l-.821-.827zm-31.892-5.572v.762l-.412.761.412.762h.412v1.143l-.412 1.143.412.381h.823v-2.667l.824-.38v1.142l.823.762v.381l.412.381 1.235-.38h-1.235l.412.38.411-.38v-.763l-1.235-1.143.412-.38-1.235-1.524.823-.381.412-.762h.412v-.381l-1.236.762-.823.38-.824-.761v-.762h2.883l1.235.38.823-.38.824-1.143V184l-1.235.762h-2.883l-.823-.381-.824.762-.411.38-.412 1.525zm-14.8 3.652l.388-1.3-.387-.867h-.774l-.387-.866v-.867h-.775l-.774-.433.387-.867-.774-.433-.774-.867-.774-.867h-1.162l-1.16-1.3-.775-.433-.774-.867-.774-1.3c-.775 0-1.549-.433-2.323-.433v.433l1.161 1.3.774.867.388.867 1.16.866.388.867.387.867.774.866.774 1.734.388.866.774.867.387.867 1.548.866.774.867h1.162l.774-1.3zm12.273-12.7l-.423.774-.847.774-.846.775-.423.387-.423.774-.846.774-1.27.387h-1.269v.774l-.846.387-.846-.387-.846.775v1.935l.423.774.423.387v1.549h1.692l.424.387 1.269-.387.423.387h.846l.423.774 1.27-.387V190l.422-1.548v-1.162l1.27-.774v-1.161l.423-.774h1.269l-1.27-1.162v-.387l-.845-1.161.846-1.161.846-.387v-.388H321v-.387c-.423 0-1.27-.387-1.692-.774v-.387l-.423-.387zm7.782-1.91l-.834.365-.833.363v1.091l.833-.727h.417l.417-.364.833.364-.417.363.417.728 1.25.727.417-.364-.417-.727.417-.364.416 1.091.417-1.09c0-.728-.417-1.455-.417-2.182l-.833-.364v.727h-.833v.364l-.834.364-.416-.364zm-1.267-2.69v.8l-.4.4.8.8.4-.4.4-.8.4-.4v-1.2l-.8 1.2v-.8l-.8.4zm-4.2 0l-.4.8-.8.8-.4.8 1.6-1.2.4-.8.8-.8v-.8l-1.2 1.2zm7.6-1.4l-.4-.4h-1.2l.8.8v.4h-.8v.8h.4v.8l.4-.4-.4-.8v-.4l.8.4.4-1.2zm-3.618-7h-2.273l-.454 1.2v2l-.455-.4v1.6l.455.8v-.4l.454.4-.454.4v.4l.454.4h1.364l.909.8.454-.4.455.8.909.4v-2.8l-1.364-.8h-.909l-.454-.8v-.8l.909-.4.454-.8-.909-.8.455-.8zM102.6 162.667H105v-.334l-.8-.666h-.8v-.334l-.8-.333h-.4c-.8-.333-1.2-1-2-1.333H99l-.4-.334-1.2-.333h-2.8l-.4.333-.4.334-.4.333-.4.333h.8V160h.4l.8-.667h1.2V160l.4.333h1.6l.4.334 1.2.333h.8l.4.667.4.333h.8l.4.333-.8.667.8-.333zM336.8 146.4l.4-.4.4.4.8-.8v-.4l-.8-.4-.4.4h-.8l-.8.8v.8l.8.4.4-.8zm7-6.2l-1.6 1.6-.8-.8-1.2 2.4-1.2-.4-2.4.4-.8.8-1.2.8-.4.8-1.2.4.4.8.8.4-.4 1.2.4.4.8-.4.8-2.4-1.2-.8h1.2l1.2-.8 2-.4v1.2l.8.4 1.6-1.6h2l1.6-.8.4-.8v-.8l.4-1.2V139l1.2-1.6v-1.2l-.4-1.2-1.2.4-.4.8v1.6l-.8 1.6-.4.8zm1.6-8.467l-.4 1.4V135h1.2l.8-1.867 1.6 1.4.8-1.866 1.6-.467-.4-1.867H349.4l-.8-.466-1.2-1.867-.4 1.4-.4 2.333h-1.2zm-219.347-13.352l.368-.381h-.368l-1.106.381-.736 1.143-1.106 2.666-.737 1.143.369.381-.737.381v.381h2.947l1.106.381-.737.762h.737l1.105-1.524.368.381-.368 1.143 1.105.381h.369l.368-1.524-.368-1.143v-.762l-.737.381.368-1.142-1.105-.381-.369.38-.736-.38.368-.762-.737-.381-.737.38 1.106-2.285zm220.347-1.516l.8 1.621v2.433l-.4 1.216v3.649l.4 1.216.8-1.216.8.81v-1.216l-1.2-1.621.8-2.433 1.6.406-1.6-2.838-.4-2.027v-1.622c-.4-1.216-.4-2.027-.8-3.243l-.4.405.4.811-1.2.811.4 2.838zM178.667 118l2.083-1.313.833-1.75v-1.312l.417-1.313-1.25-1.312h-.833l-2.5 2.625.416 2.188L177 118h1.667zm3.714-7.119l.762-.81.38.405-.38.81.38.404 1.144.405.762 1.215v1.214h-1.524l-.381 1.214.762.81-1.143.404.38.81 1.525.405-1.524.404-1.524 2.024.381.405.762-.81h1.143l.762-.809.38.405 1.905-.405h1.524l1.143-.81-.381-.81.381-.404v-1.214l-1.143-.405-.38-.81-.763-2.023-.762-.405-1.142-2.429h-1.143l1.143-2.023.38-1.62h-2.285l1.143-2.428h-1.905l-.762 1.619-.381 2.024.381 1.214v2.024zM173 88.789l-1.241-2.105.413-1.684h-2.069l-1.655 1.263-1.655-.842-1.655 1.684L163.483 85l-1.655.421-.828 1.684 2.483.842v.842l-2.07.422 2.484 1.263-1.242 1.263c1.655.42 3.31.842 4.552 1.263 1.655-.842 2.896-1.684 4.138-2.526L173 88.789zm-24.4 102.864l-.401-.402h-.801l-.801-.403-1.602-1.206-1.603-.804h-1.602l-2.002-.402-1.202.402v-.804l-.4-.805-2.404-.804-1.602-.402-.801.804v-1.206h-2.003l-.4-.402.8-.804v-.804h-.4l-.8-2.011-.401-.804h-.4v-.402l-1.202-.805c-.801-.402-1.603-.402-2.404-.804h-.8v.402l-1.202-.402c-.4-.402-.801-.804-1.202-.804h-.4v-.402l-.802-.804c-.4-.402-.8-.402-1.201-.804h-.4v-.805l-1.202-.804h-.801l-.4-.402.8-.402h-2.804v.402l-.8.402h-.802l-.8-.402h-2.404v-.402l-.801-.804h-.801l-.4-.805-.401.403v.402l-.4.402v.804l.4.402-.4.804h-.401l-.4-.804.4-.804v-.402l-.4-.402h.8v-.402l.4-.403-.4-.402h-.4l-.4.402c-.401.403-.802.403-1.203.805h-.8v.402h-.802l-.8.402-.401.804v.402h-.4l-.802.804h-.4l-.401-.402-.4-.402h-2.003l-.4.402-.802.402-.4.403h-.4l-.401-.403h-.401v-.402l-1.202-1.206-.4-.804v-.402l.4-.402V169.939l.401-.402v-.804l-.4-.402h-.401l-.4-.403-.401-.402H90.12l-.4.402h-.401l-.4-.402.4-.402h.4l.401-.402v-1.608h-.4.4l.4.402c0-.402.401-.804.401-1.609l-.4-.402.4-.804.801-.804v-.402l-.4-.402H89.72l-1.201.402-.801.402v1.206l-.4.804-.802.402c-.4 0-1.201.403-1.602.403h-.801l-.801.402-.4-.402-1.202-.403-1.602-1.206v-.402l-.802-.804-.4-.804-.4-.402V157.072l.4-1.207-.4-.402v-1.206l.4-.402.801-.804 1.202-.403 1.201-.804.801-.402h.801l.801.402h.802l.8.804h.802l.4-.402h.801V150.236l-.4-.402h3.204l.801.402.4.804 1.202-.402h.4l.802 1.206.4.804-.4.805v.402c.4.804.801 1.206 1.201 2.01l.401.402v.402h.801l.4-.804v-1.206l-.4-1.608v-.403l-.4-.804-.401-1.206v-1.609l.4-.804.802-.804 1.201-.804v-.402l.4-.402h.401l.801-.805 1.202-.402.801-1.206v-1.608h-.4v-1.207l-.802-.402.802.402.8-2.412.401-.805v1.207l.4.402-.4.804c.4-.402.801-1.206.801-1.608v-.402l-.4-.403-.4-.804.4.402h.4v.402l.801-1.206.4-1.206h-.4l.4-.402h.802l1.602-.402-.4-.403-1.603.403.801-.403h1.202l.801-.402h.4l.802-.402v-.402l-.4-.402v.402h-.401l-.4-.804v-.804c.4-.402.4-.804.8-1.207.801-.402 1.602-.804 2.403-.804l1.202-.804v-.402H115.355l-2.003 1.206v1.207h.801l1.202-1.207 1.201-.804 2.404-.804 1.201-1.207-.8-.402v-1.206l-1.202 2.01-2.003.403-1.602-.805-.4-1.206-.401-1.608 1.201-1.207-.8-.804h-1.603l-2.403 1.609-1.602 2.01-.801.402 1.201-1.608 1.602-2.413 1.603-.804.8-1.206H115.756l2.404.402 2.002-.402 1.602-1.609 2.003-.804c.4-.402 1.202-.804 1.602-1.206v-2.01l-.4-.805-.801.804-.4-1.608-.802-.804-1.602-.403-1.202-1.206-1.602-1.206.4-1.206c-.8-1.609-1.601-3.62-2.803-5.228l-.801-2.01-.801 1.206-1.202 2.413-1.201.804-.802-1.207-1.201-.402-.4-2.814v-2.01h-1.603l-.4-.805-1.202-1.206-1.202-.805-.8.805-1.202-.403-2.003-.804-.801.402.4 3.62.401 2.01-1.202 2.412 1.202 1.609.801 1.608v1.207l-.801 1.206-1.202 1.206-1.602.804.801 1.207.4 2.815-.8 2.01-.4 1.206-1.603-1.608-.801-2.01-.4-2.011v-1.609h-3.205l-1.201-.804-1.202-.402-.801-.804-1.202-.804-2.002-.804-1.603.402-.4-2.413-.4-2.01-1.603-.403v-2.412l.4-1.609 1.202-2.814 1.202-2.01 1.202-.403V91.93l.8-1.207h1.603l1.201-1.608.401-1.207 1.202-2.412.4-1.206 1.202.804 1.602-.402 2.003-2.01v-1.61l-.401-1.608.801-1.608v-1.609l-1.602-1.608-1.602-.402-1.602-.402v3.619l-.801 2.814-1.202 2.011-1.202-2.01.4-2.413-1.2-1.609-1.603 2.413v-3.217l-2.003-.804.802-1.608-1.603-4.021-1.201-1.609L80.909 67l-.801 2.815v3.619l1.201 1.206 1.202 2.01-.4 3.217h-.802l-.8 2.413v-2.815l-1.603-1.206-.801.402v2.01h-1.602l-1.602.403-2.003-1.207-1.202.402-1.201-1.608-.801-.804H67.29l-.8 1.206 1.2 1.206-1.601 1.609-1.202-1.609-.801.403-3.204.402-2.003-.805 1.602-1.608-1.602-1.608h-1.202l-1.602-.402-2.803-1.207-1.202-1.206h-1.202l-.4.804-1.202.402v-2.412l-1.602 2.01-2.003-2.815-.8-.402-.401 2.01-.801.805-.801-1.206-2.003.402-1.602 1.608-1.602-.402-1.202.804-.801 1.207-1.202-.402-1.602-1.609c-1.202-.402-2.003-.804-3.204-1.206l-1.602-.804-2.003.804-.801-.402-2.003-.402-2.403-1.207-1.202.402-1.602-.402v-.804l-2.002-.402-.401.804-1.202-1.608-1.602-.804-1.602 2.01-1.202-.402-2.002 1.608-1.202.402-1.201 1.609-.401 1.608-1.202 1.207H2.003l-.801 1.608 1.602.804 1.201 1.609.801 1.608 1.202 1.206.801 1.609H4.406V84.29h-.4l-2.404 1.206L0 86.703l1.602 1.609.4 1.206 1.603.402 1.602-.402.801.402.4-.402 1.202-.402h.801l-1.201.804.8.804v.804l-.8.805-.801-.402-.801 1.206-.802-.402h-.8l-.401 1.206-.801 1.206-.4 1.207.8.804v1.206l.801 1.609.801 1.206 1.603-.402.8.804-.4.804v1.207h.801l1.202-.805.4 1.207.4-.805.802 1.207.801-.804.4.402 1.202-.805-.4 1.207v1.608l-.801.804-.4.403-1.603 1.206-.4.804-1.202.402-1.202 1.206-1.201.805-1.202.804v.402l2.003-.402.8-.804c0-.805.802-1.207 1.603-1.609h.8l1.203-.804.4-.804 1.602-1.206.4-.805 1.202-.804 1.202-.804 1.202-1.609-1.202-1.206 1.602-1.608.801-1.609 1.602-1.206.4.804-1.2.804-.401 2.413v1.206l1.201-.804.801-.804 1.202-.402h.801l-.4-1.609 1.201-.402 1.202.805 2.002 1.206h1.603c1.201.402 2.002.804 3.204 1.206l2.403 2.413 1.202.804H37.65l.8 2.01 1.603 1.609.4 1.608.801.805.801.804v.804l1.202 1.206v1.609l1.602.804v1.206l.801 1.609 2.003.804.801.804 2.003 1.609.4 1.206v1.206l-.4.402-.4-1.608-1.603-.402v.402l.4.804.401 1.608.4 2.011-.4 2.815-.4 1.608.4 1.206v1.207l-.4 1.206.4.804v1.207l.801 1.206.4.402v.402l.802 2.01 1.201 1.207v.804l.401.402h1.202l.4.402h.801v.403h.4l.802.804v.804l.4 1.206c.4.804.801 2.01 1.202 2.815l.801.402.801.804v.402l-.4.403h-.401l.801.804.801.402.4.402c.401.402.802.804 1.202.804v1.609l.4.402.802.402.801.804.4.804.401-.402v-.402c-.4-.402-.4-.804-.801-1.206h-.4v-.805c0-.402-.401-.804-.802-1.206l.4-1.206-.8-.804-.4-.402-.401-.403-.4-.804v-.804l-1.202-.804-.4-.402v-2.011l.8.402h.4l.802.402v.402l.4.805.801.804v.402l1.202 1.206h.801l.4.805.802.804.4.402v.804l.4.402.802.402.4.804 1.202.805.801 1.206.4.804v.402l.401.402v.403l-.4.402v.402h-.4l.4.402.4.804 1.202.804.4.402 1.202.402h.801l.4.403.802.402 1.201.402h.801l1.202.402.801.402.801.402h.4l.802-.402h.8l.802.402.4.402 1.202 1.207.801.402.4.402h.802l.4.402.4.402h.802l.4.402h1.202v-.402h.4v.402l.401.402.4.402.401.402c.4.402.801.402.801.805l-.4.402h.4v1.206h.4l.401.402.4-.402v-.402l.401.402v.402h.4l.401.402.401.402v.402l.4.403.802.402v-.402h1.201l.4.402h.401v.804h.801l-.4-.804v-.402h.4l.4-.403.401-.402h.4l.401.402.401.403h.4l-1.602.402.4.804.401.402.401.402v.804l-.4.402.4 1.207-.4.804.4.402c-.4.402-.801.804-.801 1.206l-.4-.402v.804h-.401v.403l-.801.402-.801.402v.402l-.4.804v.804h-.401v1.207l-.4.402.8.402.4-.402.401.402-.4.804-.801.804-.4.804.4 1.207-.4.402.8.402.801.804.4.804.401.402c.801 1.609 1.602 2.815 2.003 4.424l.801 1.608v.402l.4.804.802.805 2.002 1.206 2.404 1.206v.402l1.201.805.4 1.608v2.01c-.4 2.413-.8 5.228-.8 7.64l-.4 1.609v1.608l-.401 1.207.4 2.01-.4 2.01c-.4 1.61-1.202 2.815-1.603 4.424h-.4v1.608l.4 1.207-.4.804c-.4 1.608-.4 3.217-.801 4.825l.8.402.401-2.01.802.402-.401 3.217-1.202-.403-.4 2.815-1.202 1.609 1.602.402-1.201 1.206-.4 1.608v2.815l.4 1.207-.4 1.206.4 1.206 1.201 1.206 1.202 1.207 1.202.804h.4v-1.608l1.202-.805.4-.402h1.201l-.8-1.206-.4-2.01.4-.805 1.201-.804.802-2.01 1.201-.805.4-1.608-1.2-.402-1.203-1.207.401-1.206.801-.804h1.202l.4-.804v-1.609l2.003-1.206 1.202-.402-.401-.804-.801.402-.801-.402v-1.609l.4-.402 1.202.402 1.202-.402.8-.402-.8-.402.4-1.206-.4-.805h1.201l2.403-.402 1.603-.804 1.201-2.01v-.805l-.8-.804v-.804l-1.202-.402v-.804l.8.804h.802l1.201.402h.801l.801.402 1.202-.804.4-.804.802-.805.4-1.206.801-.804.801-1.206 1.202-2.413.801-.804.4-.805.401-1.206v-1.608l.801-1.207 1.202-.804 1.201-.402.801-.402 1.603-.402h1.201l.4-.804.802-.402v-1.207l1.201-1.608v-1.609l.401-.402c0-.804.4-1.608.4-2.412v-2.01l.401-.805h.4l.802-.804.8-1.207 1.603-1.608.4-.804.401-2.01c0-1.207-.4-2.011-.4-2.413zM58.53 70.095l-2.354 1.215.393 1.214h1.568l2.353-.405 1.961.81-1.569.404h-1.568l-1.569.405-.392.81 1.176 2.428.785-.405 1.568.81.785 1.619c1.568-.405 3.137-.405 4.706-.81l1.96-1.214h1.177l1.96.81 1.961.404.393-1.214-.785-1.214L75 75.357v-1.619c-1.176-1.214-2.745-2.024-3.922-3.238l-1.176-6.071-1.177-1.62L67.55 62l-.784.405.784 4.047-.392 1.62-.784-3.643-1.177-1.215-1.176 2.024-1.569-2.024-2.353 1.215.392-1.62-.784-.404-3.137 2.428-.785 1.62L55 69.285l1.96.81h1.57zm54.111 3.883l-.795-1.18-2.782-1.18-1.192-2.36-1.987.787v-1.573l-1.988-1.966-2.384-1.967-1.192 1.573-2.385 1.18v-2.36L95.949 61l-2.385 1.573-.795 3.146-.795-2.36L92.77 61l-2.782 1.18-1.192 1.18L88 66.506l.397 3.539h1.59l-1.192 1.573.795 1.18 1.987.393 2.385.787 3.974.786 1.987-.393.398-.787.794 1.18h.795l1.193 1.966-.795.787 2.384 1.18 1.59 1.573.397 1.18.398 1.18-1.59 2.752-.397 1.18.397.786-2.384.394h-1.988l-.397 1.966.795.786 3.18-.393v-.786c1.192.786 1.986 1.573 3.179 2.36l-.398.786 1.193 1.18 2.384 1.572 3.18.787v-.787c-.795-1.18-1.987-2.36-2.782-3.539l2.782 1.966 1.59.787.397-1.573-.795-2.753-.397-.786-1.59-1.18-1.192-1.573v-1.573l1.59-.393 1.59 2.752 1.191 1.18 1.988-3.146.397-1.966h-1.59l-1.59-2.753-1.59-.787-2.781-1.573 1.987-1.573-.795-2.752zM76.333 60l-1.166 2.083 1.166 2.5L74 64.167v1.25l2.722 2.916.778 1.25 1.167.417 1.944-1.25.389-3.333-1.556-1.667 1.167-2.083-.389-1.25-1.944.416L76.333 60zm5.067.2l-.4 1.6v2l.8 3.2H83l1.2-2.8 1.2-.8 1.6-3.6-2-.8h-2.4l-1.2 1.2zm264.236-4.024h3.637l.727-3.294-3.636-2.47-2.546-.412-1.454.824-.364 3.294L344.182 57l1.454-.824zM75.071 49.143H74V53l1.786-.429v2.572l1.071.857 1.786-.429.357-3.428V49.57L78.286 47v.857L76.5 47.43l-1.429 1.714zm-11.859 5.472l-2.545 2.116V58h1.697l2.97-2.115 3.818-.847.848-2.115v-2.538l-1.273-.423-.848.846-.424-.846-.425-2.539L65.758 47l-1.273 1.692 1.697 4.654-1.697-.423-2.121-2.961-3.394-1.693-1.273 1.693L56 54.615l1.697.847 5.515-.847zM246 69.222l2.04.794.409 1.587 3.673.397.817-.397-2.041-2.778-.408-2.777c1.224-2.381 2.449-5.16 3.673-7.54l3.674-3.968c2.449-1.588 4.898-2.778 7.347-4.365l.816-1.588-.816-1.587-2.041.794-2.041 1.587-4.082.794-3.673 2.777-2.449 2.381.408 1.984-2.857 3.572 1.224.397-2.449 3.174v1.984l-1.224.794v1.984zM83.167 49.727l1.187 1.97v2.364l.396 2.363 2.77 1.182L89.5 58h2.375l3.167-.788 1.583.394 1.583-.788.792-1.182-.396-1.97-1.187-1.575-1.98-.394-2.374.394-1.584.788-1.583-.394h-1.584l-.791-1.182-1.188-1.182.396-1.576-.791-1.575h-1.98l-1.187-1.576L80.396 45 80 46.97l1.188 1.575 1.979 1.182zM71.312 37.316L70 38.789l2.625.369 2.188 1.474L77 41l-.438-1.842-.874-2.58-3.5-1.841L70 34v2.21l1.313 1.106zM81.6 33.06h2l-.8 1.633v2.04l1.2 2.45 2.4.816 2-.408 2-4.49 1.6-1.633-1.2-2.04-.8-4.49c-1.2-.817-2.4-1.633-3.6-2.857L84.8 20l-2.4.408.4 1.633-1.2.408-.8 2.04-.8 2.858.8 2.857.8 2.857zm5.593-12.734l.795 2.788 1.988 2.39 3.976-.399 2.385.797-1.59 2.389-.795-.796-3.18-.399.397 3.186 1.59 2.39-.398 1.99-1.988 1.195-.795 1.992 1.988 1.194 1.59 3.584-2.783-2.39-.795.4.398 3.583-1.988 1.195v2.39l1.988.398 1.59.398 3.181-.797L97.53 49l2.783-2.788v-1.194h-1.988v-1.195l1.59-1.593.398-1.991 1.59-1.593 1.193-1.991-.795-2.788.795-1.194-1.59-.797 3.18-.796.796-1.195 2.385-1.195 1.988-5.177 1.988-1.99 2.784-4.381h-2.386l1.193-1.593 2.783-1.593L119 10.372v-2.39l-1.988-2.39-2.385.4c-2.784-.797-5.17-1.196-7.952-1.992l-3.181 1.593-.398-1.195-3.578.398-1.988 1.195-1.59 1.593-.795 4.779-1.193-2.39-1.193-.398-1.59 3.186-2.386 1.195H87.59L86 15.549l.398 2.787.795 1.991zm74.491 53.452h-2.824l1.21-1.613-.403-2.419c.807 1.21 1.614 2.016 2.42 3.225l2.018-.806-.403-2.822-1.614-2.016-1.614-.806.403-.807 2.421 1.613v-1.613l-1.614-3.225h1.614l1.614-.806.404-1.21-1.21-1.612 2.42-.404-1.614-3.628 1.21-.403-.403-4.032-2.017-2.419 2.017-1.612 1.614-.404-1.21-3.225v-6.047l2.42-8.467-2.42-.403 3.631-1.21.807-1.612L175 19.755l-.807-3.225-3.228-1.613-5.65 3.225-2.824 2.822 1.21-4.434-1.21-2.42-2.017 2.42-3.228-2.822-4.035.806-.807-1.21c3.631-.403 6.86-.806 10.49-1.21l2.018-3.224-6.86-7.66L149.176 0l-4.035.806-1.614 3.629-4.035-.403-3.631 5.644v3.628l2.824 4.435-2.42-2.419-1.615-.806-2.824-3.225L129 15.723l-1.21-2.419h-3.632l-3.632 1.21-2.824 2.016.403 3.628-1.614.806-4.035 4.838-.807 2.823 3.228 2.418-.403 2.42c-2.825 2.015-5.65 3.628-8.474 5.644v2.016l2.421 2.015 4.842 1.21-2.42.403-2.825 1.613 2.017 3.225 1.21 1.613c2.018-.404 3.632-.404 5.65-.404l2.42.404 2.825 2.822v2.016l1.614 1.612 2.421 7.257.807 1.613-1.21 3.225.807.806 1.21-.403c.807 1.21 2.018 2.42 2.825 3.225l-2.421-1.612h-1.21l-.404 1.612v2.42l1.21 1.209 1.211-.403c.807-.403 1.21-1.21 2.018-1.613l-.404 2.42v1.209L129 79.827l-1.21 3.628.806 1.209-.403 2.016 1.614 2.419v2.419l.404 1.612 2.017 3.226.807 2.419 1.21 1.21h2.422L138.28 102h1.614c.403-1.21.807-2.822 1.21-4.032l-.807-2.822 2.018-2.016.403-1.612v-2.016l.807-1.613c1.21-.403 2.018-.806 3.228-1.21h.807l2.421-2.015 1.614-3.225 1.211-1.21h1.21l3.229-1.21 3.228-2.418 2.824-2.822h-1.614zM399 83.888l-3.2-.4.4 2.003-.8-.801v-1.604l-2.8-2.806-2-1.603-1.2-1.203-1.2-.802-3.2-1.603h-2.4l-3.6-.802-.4 1.604.8 2.004-1.2.802-2-2.806-2 .4-2-.801h-2l-1.6.802-1.2-.802v-2.405l-.8-1.203-2.4-.4-4.4.8-2.8-2.805-.8-2.004-10-2.406-1.6 1.604.8 3.207-2-.401-.8.802-2-1.203-2 .802-1.6-1.604-1.2 3.608-2.4-1.203-1.6-2.806.8-1.603-.4-2.405-2-2.004h-1.6l-2.4-.802v2.806l-4.8-.401-.4-2.004-3.6-.802-1.6.802-.4 1.202-.4-2.405-1.2.802-1.6-1.203-1.2-.4.8-1.203 2.8-2.405 1.2-1.203.4-2.405-.8-1.604-2.4-2.405h-3.2l-1.2 1.203-.4-2.806-2.4-.802 1.6-1.203-2-1.603-2.8 2.004-1.2 2.005-.4 2.004h-2l-2.4 2.405-.8-.802-2.8.401-.4 1.203-2.8.802-2 2.004h-1.2l-1.2 2.806.8 2.004-2.4.401H281l-2 .802v4.008l.8 3.207-2-1.603h-2.4l-2 1.603.4 2.405-1.2-.801.4-3.608-.4-2.004h-.4l.4 2.806-2 2.405 1.6 2.806-.8 3.207.4 1.603 1.2.401-.4 2.004.8 1.604-.8 1.202-.4 1.604-1.2.802-.4 1.202-1.2-.4 2-4.01.4-2.004-1.2-2.004.4-4.41-.4-2.405-1.6-.801 1.2-2.806-.4-2.005-2.8-1.202-.8.802-.8 3.206-2 3.207v1.203l.4 2.405-.4 1.604 1.2.4v.802l1.2 1.604-.8 1.603-4-3.608-1.6-.801-3.2-.802-.4 1.202 1.2 2.005-1.2 2.004-1.2-2.004-1.6 1.202h-2l-.8 1.203-1.2-.401 1.2-2.004h-.8c-2 1.202-4 2.806-6.4 4.008l-.4 2.005-1.6.801-.8-.801v-1.604l1.6-.4-.8-1.604-3.2-.802.8 2.004-1.2.401.8 1.604-.8 2.004-1.2-.802H235l-2 2.406.8 2.004-.8.802-2.8-1.604-.8.802.8 1.202v1.203l-1.2-.802-1.2-.801v-4.009l-2-2.004.8-.401 4.8 2.004 2-.802 1.2-1.603v-2.004l-.8-1.203-4.4-3.608-3.2-.801-2-2.005-1.2 1.203-1.2-2.004 1.6-.802-3.2-2.005-2 .802h-2l-1.6 2.806h-2l-2.4 1.604c-1.6 2.004-3.2 4.008-4.8 6.413-1.6 3.207-3.2 6.013-4.8 9.22l-2.4 2.806-2.8 2.005-1.2 1.603.4 5.211.4 2.405 1.6 1.203 1.6-.4 2.4-2.406.8 1.203.8 2.806.8 2.405.4 2.004h1.2l.8-1.603h1.2l.8-2.005.4-3.607 1.2-.401 1.2-2.405-1.2-1.203-.8-1.603.8-3.207 2-2.005 1.6-2.004v-1.603l1.2-2.005 2-.801 1.6 1.202v1.203l-.8.4-2.4 2.807-1.2 1.603-.4 1.604.4 2.004-.4 2.405 1.2.802.8 1.202 2-.4 2-.802h2l1.2 1.202-2-.4h-1.2l-1.2-.401-1.2.4-1.6.802v1.203l.8.801.4-.4c0 .801-.4 2.004-.4 2.806h-.8l-.8-1.604-.8.802-.4 1.203v1.603l.4 1.603-1.6.802-.4.802h-1.2v-.401l-1.2-.4c-1.2.4-2 1.202-3.2 1.603l-.8.4-.4-.801-1.2-.802-.8.4-1.2.803v-.802l-1.2-.401v-.802l-.4-1.202.8-1.604.4.401.4-.802-.8-.4v-.401l.4-.802v-1.203l-.8.802-.4.4h-.8l-.4.803v2.405l.4 1.202v1.203l.4.802-1.2 1.202-.4-.4h-.8v.4h-.8l-1.6.802-1.2 2.806-.4.4c-.8.402-1.2.402-2 .803l-.4 1.603-2.4 1.203-1.2-.802.4 2.004-2-.801-1.6.4v1.203l1.6.802.8.801 1.2 1.604v3.207l-.4.802h-2.8l-1.2-.401H181l-1.2-.401-1.6 1.202.4.802V134.396l.4.401v.802l-.4.802v.4l-.4.402v.801l.4.401h.4v2.004h.8l.4-.4 1.2.4.4.802.4.401h.4l.4-.4.8-.402h2.4l.8-1.202.8-.401.4-.802.8.401-.4-.802.4-1.202.8-.802v-.4l1.6-.402 1.2-.801v-1.604l1.6-.4 2.4.4 1.2-.802h.4l.8-.801.4-.401.8.4h.4l.4 1.604.8.802 1.2.802.8.801h.8l.4.401.8.401.4.802h.4c.4.4.4 1.202.8 1.603l-.8.401-.4.802v.4h.4l.4-1.202h.4v-.802l-.8-.4.4-.802.8.4.8.802.4-.4v-.401l-.8-.802c-.8-.401-1.2-.802-2-.802l.4-.4-.4-.402h-.8l-1.2-1.202-.4-1.203-1.2-1.603-.4-.802v-1.203l.8-.4.8.4h-.4v.401l.4.401.4-.802.8.401v.401l.4.802h-.4l.8 1.203 1.2.4.8.401c.4.401 1.2.401 1.6.802l.4.4h.4v2.807l.8.4v.802c.4.401.8.802 1.2 1.604v.802l.4 1.202.8.802h.8l-.4-1.203h.8l-.4-.801 1.2.4v-.801l-.4-.401-.8-.802.4-.4-.4-.802-.4-.802.4-.401.4.802h.8l.4-.401-.8-.802 1.2-.4H217.4v.4l.4.802c.4-.401.8-.802 1.6-1.203h1.2l.4-.4-.8-.401v-.401l-.4-.802.4-1.203.4-.801.4-2.005h.4l.4-.4v-.401l.8-1.203.4-.802 1.2-.4v.801l1.6.401.4.4-1.2.803v.4l1.2.401-.4.802.8.4 1.6-.8 1.2-.402.4-.4h-1.2l-.4-.401v-.802l.8-.802h1.2l.8-.4h.8l1.2-.402v.401l-2.4.401.8.802-.8 1.202-.8.401.8.802 1.2.4 1.6 1.204.4.4h.8l.8.401.4 1.203v.802l-1.2.801h-.8l-1.2.401-2.8-.802-2-1.202h-2l-.8.802-1.2.801h-2l-.8 1.203h-1.6l-1.2 1.202.8.802-.4 1.203.8.801.8 1.203h1.2l1.2.802h.8l.4-.401h1.2l.8.802h1.6l.8-.802.8.4h.8l-.4.402h-.4l-.4.4v1.203l-.4.802-.4 1.202v.401l-.4.802-.4.802-.4.4-.4.401h-.8l-.8-.4-.4.4-.4-.801h-1.6l-.4.4-.8.802c-.8-.4-1.6-.801-2.8-.801h-1.6l-.4-.401H215l-.4-.401h-.4l-.4-.401-1.2-.802h-.8l-.8.802-.4.802.4 1.202-.4.401-.4.401-1.2-.802-1.6-.4-1.2-.401-.4-1.203-1.6-.4-.8-.402h-.4l-1.2-.4h-.8v-.802h-.4l-.4-.802.8-.802v-1.202h-.4v-.802l.4-.802v-.4l-.8.4v-.802h-.8l-1.2.401h-.8l-.4.401h-1.2l-1.2.401-.4-.4c-1.2 0-2.4 0-3.6.4l-1.2.4-.8.803-1.2.4-1.2.802h-.4l-1.2-.4h-1.2l-.4-.802h-.8l-.4.801-.8 1.604-.8.4-1.2.802-.8.802v.802l-.4 1.202.4 1.604-1.2.802-.4.4-.8.802h-1.2l-.4.401-.8 1.604-.8.4-.4.802v.802l-.4.802h-.4l-.8.801-.4.802v.4l-.4.803-.4.4v1.203l.4.4.4.402V167.668l-.4.401-.4.802-.4.4.4.401.4.802V172.077l.4.401.4.401h.4l.4.401h.4v.801l.4.402h.4l.4.4.4.802v1.202l.4.803.8.4h.4l.8.802.8.802 1.2.802 1.2.4h.8c.8-.4 1.2-.4 2-.801h2l.8.4h.4l.8.402 1.2-.401.8-.401 1.6-.802.8-.4h2.8l.8.801.4.802.4.801h.8l.4-.4h.4l1.2-.401v.4h.4l.4.401h.4l.4.802v.802l-.4 1.202h.4c0 .401-.4 1.203-.4 1.604v1.603l.8 1.203.8.802 1.2 1.202.8 1.203.4.802v.801l.4.802c0 .802.4 1.203.4 2.004l-.4.401v.401c0 .4.4.802.4 1.203l.4.4v1.604l-.4.4-.8.803-.4.4-.4 1.203v.4l-.4 1.203v2.806l.8 1.203.4.802.4 1.603.4.802.4.4v2.406l.4 2.004.4.802.4 1.203.4.801.8.802c.8 1.203 1.2 2.806 2 4.009v1.202l-.4.401.4.802v1.202l.4.802h.4l.4.401h.4l.8-.4.8-.402 1.2-.4H213.8l1.2.4.4-.4h.8v-.401h.4l1.2-.401.8-.802c.8-.802 1.2-1.603 2-2.004l.8-.802.4-.802.4-.802c.4-.4.8-.4.8-.801l2-2.005v-1.202l.4-.802v-.802h-.4v-.4l.4-.401 2.4-1.203.4-.4v-.402l-.4-.4v-2.004l-.4-.803-.4-.801v-.802l.4-.4.8-.803.4-.4 1.2-1.203 2.4-1.203.8-.801.4-.802.4-.802v-4.81l-.4-.401-.4-.802-.4-.801v-.802l.4-.802v-.4l-.8-.402v-.801l.4-1.203h.4l.4-.802.4-.4v-.802h.4l.4-.401.8-.4.4-.402.4-.4 1.2-1.203 1.2-.802 1.6-1.203 1.2-.801c.8-.802 1.6-2.005 2.4-2.806l.8-1.604c.4-.801.8-1.603 1.2-2.806l.4-1.202.4-.401V172.88h-3.2l-.4.4h-.4l-.8.401h-1.2l-1.2.4h-.4l-.4-.4-.4-.4c-.4 0-.4-.402-.8-.402l.8-.4v-.401l-1.2-.401-.4-.401-1.6-1.604-2-1.202-.8-.401v-1.203l-.8-1.202c-.4-.401-.8-.401-1.2-.802l-.4-1.603v-1.203l.4-.4-.4-1.203v-.401l-1.2-1.203v-.802l.4-.4-1.2-1.203-.4-.802-.4-.801-.8-2.005-.8-1.202-.8-.802.8 2.004c.4.401.4.802.8.802l.4-.4.4-.803.4-.801.4-.401V152.836h.4c.4.802.8 1.203 1.2 2.005l.4.801.4.401.4.802v.4l.4.802.8.401.4.401.8 1.203V161.655l.8 1.203h.4l.8.801.4.802.4.802.4.4v.402l.4.4v1.604h-.4l.4.4.4.803v1.202l.4.802h1.6v-.401h.4l.4-.4H241l.8-.402.8-.4h.8l.8-.802 1.6-.401 1.2-.401v-.4l.4-.402.8-.4h.4l.8-.401h.8l.4-.401v-.401l.4-.401h.8l.4-.4v-.402l.8-.4h.4v-1.604l.4-.401h.4l.4-.802.4-.4c0-.401.4-.802.4-1.203v-.401h-.4c-.4-.4-.4-.802-.8-1.203l-.8-.4h-.8l-.8-.401-.4-.802v-1.603l-.4.4-2.4 2.406H246.2v-.401l-.4-.401.4-.802v-.802l-.4-.4h-.4l-.4.801v.802-.802.401-1.202l-.8-.401v-.401l-.4-.401c-.4-.802-.4-1.203-.8-2.004v-.401l-.8-.401h.8l.4-.401.8.4.8-.4.8 1.603.8 1.203 1.2.4 1.2.803 1.2.4 1.2-.801.8-.401.4.4.4 1.604h1.2c1.2.401 2.4.401 3.2.802h3.6l2-.4.8.8.4.803.8.4 1.2 1.203.4.4-.4.402 1.6 1.603h.8l1.6-.802.4 1.203v1.603c.4 1.203.4 2.406.8 3.608l1.2 1.604v.801l.4 1.604.4 1.202.4.401c.4.802.8 2.005.8 2.806l1.2 1.203.4-.4.4-.803 1.2-.4-.4-.401.4-.802h.4v-2.004l.4-1.203v-.802l-.4-1.603.4-.802h.4l1.2-.4.4-.402v-.4l1.2-.802.8-.802 1.2-1.203 1.6-.801.4-.802v-.802l1.2-.4h.8v-.401h.8v-.401l.4.4.4-.801v-.401h1.2l.4.802.4.4v.802l.4.802.8.802h.8v.4l.8 1.203.4 1.203-.4 1.603.8.401h.8l1.2-.802.8-.4.4.801.4 1.604.4 1.202.4.401v1.203l.4.801-.4.802v.802l-.4 1.202v.802l.4.802v-.802l1.2 1.203v.4l.4.402.4.4v.802l.4.802v.802l.8.801v.401l1.2.802 1.2.802h.8v-.401l-1.2-.401h-.4V180.496l-.4-.802-.8-.802h-.4l-.4-.4h-.8l-.4-.802-.4-.802-.4-1.203h-.8v-.801c.4-.802.8-1.604.8-2.806v-1.203h.8v.802h.8l1.2.4.4 1.203.4.401h.8l.8.802-.4.801.4.802 1.2-1.202.8-.802 1.2-.802.8-.802v-2.004l-.4-2.004-.8-.802.4-.802c-.8-.801-1.2-2.004-2-2.806l.4-.801.8-1.203 1.6-1.203h.4l1.6.401-.4.401.4.802h.8l.4-1.203h1.2l1.6-.801.8-.401.4.4.8-.4h1.2c1.2-.802 2-1.604 3.2-2.005l1.2-1.603c.4-1.203 1.2-2.004 1.6-2.806h.8l.4-1.203v-1.202l-.8-.401-.4-.802.8-.4v-.802l-.8-1.203-.8-1.203-.4-1.202-1.2-.802.4-.802 1.2-.801.4-.802 1.6-.4v-.803h-.8l-.8-.4-1.2 1.202-.8-.4v-.803l-.8-.4-1.6-1.203.4-.802h1.2l.8-.801 1.2-1.203.8-.4.4.8-.8.803.4.4-.4.802 1.2-.4.8-.802 1.6-.401.4.4h.8v2.004h-.4l-.4.803.4.4h.4v.401h.4v-.4l.4.4.8 1.203-.8.4.4 1.604-.4 1.203v.802h1.2l.8-.401 1.2-.401.4-.802V140.81l-.8-2.004-.8-.802-.4-.4v-.802l.4-.401.8-.401.4-.4v-.402l.4-.4v-1.203l.4-.401.4-.4h.4v-.402l1.6-1.202.8.801h.8l1.6-.801c1.2-1.604 2.4-3.207 3.6-4.41l.4-1.202 1.6-2.406.4-2.806v-2.004l.8-2.004v-1.604l-.8-1.202h-1.2l-.8.801-1.2-.4-.4-1.203-1.6-.4c2.8-2.807 5.2-6.014 8-8.82l3.6-.802 3.6.401 1.2-1.202 1.6.4v1.604l1.6-.4 2.4-.402-.8-1.202 2.8-4.009 2.8-.802.8 2.806 1.2-1.202 1.6-1.604.8-2.004 1.2-.4-.8 4.008-2 2.004c-1.2 1.604-2.8 3.207-4 4.81l-1.6.401v.802l-.8 1.203-.4 2.806c.4 2.405.8 4.81 1.2 6.814l.4 1.203 1.6-1.604.4-2.004 1.6-.4.4-2.005.8-.4 1.2-.402-.4-.801.4-1.604h1.2v-2.806l-1.2-.4v-.803l1.2-2.004.4-1.603 1.6.4 1.2-.801.4.802 2.8-1.604 1.6 1.604.4-1.203c1.2-.802 2.4-2.004 3.2-3.207l.8-.4 3.2-1.604 2 .4.4-.801V94.31l-.4-.801-.8-2.005-1.2-1.202h1.6l1.2-1.203.4-.4.4-.802-.4-1.203 1.2-.802-.4 1.203.8.802 1.2-.401 1.2.4.4 1.203 1.6.802.8.802h1.2l.4-.401v-2.405l2-.401.4-.802-2-2.806zm-150.727 51.98l-1.091-.394-.364 1.184h.727l-.363.79.727.394v1.58l.364.789v.394l-1.455.395-1.454-.395-.728-.79-1.09-.394-.364-1.184v-.79l.363-.394v-1.579h.728l-.364-.395h-.364l-.363-1.184c-.727-.79-1.091-1.58-1.818-2.369v-1.184l-.364-.395 1.09-1.579 1.092-.394.363-.79 1.091-.395 1.091-.789.728.395h1.09v1.184l-.363 1.579-.727-.395-.728.395v1.184h-1.09v.395l.727.395.363 1.184 1.091.395.364.394-.364.79v.394l.364.79v-1.184l.727-.395.364 1.184.727.79-.727.394z"/>
        <filter id="u8eh0175dc" width="103.5%" height="105.4%" x="-1.7%" y="-1.9%" filterUnits="objectBoundingBox">
            <feOffset dy="2" in="SourceAlpha" result="shadowOffsetOuter1"/>
            <feGaussianBlur in="shadowOffsetOuter1" result="shadowBlurOuter1" stdDeviation="2"/>
            <feColorMatrix in="shadowBlurOuter1" values="0 0 0 0 0.450980392 0 0 0 0 0.443137255 0 0 0 0 0.443137255 0 0 0 0.18 0"/>
        </filter>
    </defs>
    <g fill="none" fill-rule="evenodd">
        <g>
            <g transform="translate(0 -1340) translate(0 1340)">
                <mask id="rku802wnob" fill="#fff">
                    <use xlink:href="#bgcz11605a"/>
                </mask>
                <use fill="#F7F7F7" xlink:href="#bgcz11605a"/>
                <g fill-rule="nonzero" mask="url(#rku802wnob)">
                    <g transform="translate(-20 -42)">
                        <use fill="#000" filter="url(#u8eh0175dc)" xlink:href="#ubcglt8yqd"/>
                        <use fill="#FFF" xlink:href="#ubcglt8yqd"/>
                    </g>
                </g>
            </g>
        </g>
    </g>
</svg>
