<?xml version="1.0" encoding="utf-8"?>
<!-- Generator: Adobe Illustrator 23.0.4, SVG Export Plug-In . SVG Version: 6.00 Build 0)  -->
<svg version="1.1" id="Layer_1" xmlns="http://www.w3.org/2000/svg" xmlns:xlink="http://www.w3.org/1999/xlink" x="0px" y="0px"
	 viewBox="0 0 180 180" style="enable-background:new 0 0 180 180;" xml:space="preserve">
<style type="text/css">
	.st0{fill:#555A5F;}
	.st1{fill:#858B92;}
	.st2{fill:none;stroke:#30516C;stroke-width:5;}
	.st3{filter:url(#Adobe_OpacityMaskFilter);}
	.st4{fill-rule:evenodd;clip-rule:evenodd;fill:#FFFFFF;}
	.st5{mask:url(#t47fo0v3cb_1_);}
	.st6{opacity:0.8;fill:#6D747B;enable-background:new    ;}
	.st7{fill:#5F9CA7;}
	.st8{fill:#538993;}
	.st9{fill:#8ECFDA;}
	.st10{fill:#74B8C4;}
	.st11{opacity:0.5;fill:#303030;enable-background:new    ;}
	.st12{opacity:0.6;fill:#A9ACB2;enable-background:new    ;}
	.st13{opacity:0.3;fill:#FFFFFF;enable-background:new    ;}
	.st14{fill:#76B2BD;}
	.st15{fill:#487D87;}
	.st16{fill:#6CA4AF;}
	.st17{fill:#40727B;}
	.st18{fill:#8FCCD6;}
	.st19{fill:#79B7C1;}
	.st20{fill:#84C3CF;}
	.st21{fill:#63A4AF;}
	.st22{fill-rule:evenodd;clip-rule:evenodd;fill:#C8D2D9;}
</style>
<g>
	<path class="st0" d="M89.4,0L44.5,81.2l44.9,81.2l1.6-0.6c20.5-7.2,38.2-20.3,50.9-37.8c13.1-18,20-39.2,20-61.4V20.4L89.4,0z"/>
	<path class="st1" d="M18.1,20.4v42.3c0,22.2,6.9,43.4,19.9,61.4c12.8,17.6,30.4,30.7,50.9,37.8l1.6,0.6V0L18.1,20.4z"/>
	<g transform="translate(18 17)">
		<path class="st2" d="M73.1-1.2l56,15.7v30c0,1.8-0.1,3.7-0.2,5.5l0,0l-0.1,1.3c-1.3,16.3-7.6,33-17.1,46.4
			c-9,12.6-20.9,22.6-34.7,29.1l0,0l-0.8,0.4l-3.1,1.4l-3.2-1.4c-14.4-6.4-26.9-16.6-36.2-29.4c-9.5-13.2-15-29.5-16.4-45.6l0,0
			l-0.1-0.9c-0.1-1.8-0.2-3.6-0.2-5.4l0,0l0-1.3V14.6L73.1-1.2L73.1-1.2z"/>
		<defs>
			<filter id="Adobe_OpacityMaskFilter" filterUnits="userSpaceOnUse" x="14" y="-16.2" width="117.3" height="143.4">
				<feColorMatrix  type="matrix" values="1 0 0 0 0  0 1 0 0 0  0 0 1 0 0  0 0 0 1 0"/>
			</filter>
		</defs>
		<mask maskUnits="userSpaceOnUse" x="14" y="-16.2" width="117.3" height="143.4" id="t47fo0v3cb_1_">
			<g class="st3">
				<path id="f8fna1gcqa_1_" class="st4" d="M71.1,124.8C57.2,118.6,45,108.7,36,96.3c-9.4-13-14.7-29.2-15.9-45.1l0,0
					c-0.2-2.2-0.3-4.4-0.3-6.6v-28l53.2-15l53.2,15v28c0,2.2-0.1,4.4-0.3,6.6h0c-1.2,15.8-7.3,32-16.5,45
					c-8.8,12.4-20.7,22.3-34.4,28.5l-1.9,0.9L71.1,124.8z"/>
			</g>
		</mask>
		<g class="st5">
			<g>
				<path class="st6" d="M128.3,16.1v33.1c0,17.3-5.3,33.9-15.2,48c-9.7,13.7-23.1,24-38.8,29.6l-1.2,0.4V0.2L128.3,16.1L128.3,16.1
					z"/>
				<path class="st7" d="M73.3,96.9c-0.4,0.2-0.9,0.2-1.3,0L48.7,83.7c-0.7-0.4-1.2-1.5-1.2-2.7V65.9c0-0.9,0.3-1.8,0.8-2.3
					c0.5-0.5,1.2-0.6,1.7-0.3l22.6,12.9l22.6-12.9l0.7-0.2c0.4,0,0.8,0.2,1.1,0.5c0.5,0.5,0.8,1.4,0.8,2.3V81c0,1.2-0.5,2.2-1.2,2.7
					L73.3,96.9L73.3,96.9z"/>
				<path class="st8" d="M73.3,126.8c-0.4,0.2-0.9,0.2-1.3,0l-23.3-13.3c-0.7-0.4-1.2-1.5-1.2-2.7V95.8c0-0.9,0.3-1.8,0.8-2.3
					c0.5-0.5,1.2-0.6,1.7-0.3L72.6,106l22.6-12.9l0.7-0.2c0.4,0,0.8,0.2,1.1,0.5c0.5,0.5,0.8,1.4,0.8,2.3v15.1
					c0,1.2-0.5,2.2-1.2,2.7L73.3,126.8L73.3,126.8z"/>
				<path class="st9" d="M96.5,25.8L73.3,39.1c-0.4,0.2-0.9,0.2-1.3,0L48.7,25.8c-0.7-0.4-1.2-1.5-1.2-2.7V8c0-0.9,0.3-1.8,0.8-2.3
					C48.8,5.2,49.4,5,50,5.4l22.6,12.9L95.2,5.4l0.7-0.2c0.4,0,0.8,0.2,1.1,0.5c0.5,0.5,0.8,1.4,0.8,2.3v15.1
					C97.7,24.4,97.3,25.4,96.5,25.8z"/>
				<path class="st10" d="M96.5,54.7L73.3,68c-0.4,0.2-0.9,0.2-1.3,0L48.7,54.7c-0.7-0.4-1.2-1.5-1.2-2.7V36.9
					c0-0.9,0.3-1.8,0.8-2.3c0.5-0.5,1.2-0.6,1.7-0.3l22.6,12.9l22.6-12.9l0.7-0.2c0.4,0,0.8,0.2,1.1,0.5c0.5,0.5,0.8,1.4,0.8,2.3
					v15.1C97.7,53.3,97.3,54.3,96.5,54.7z"/>
				<path class="st11" d="M127.3,8v102.9c0,12-16.2,10.2-24,15.8l-0.6,0.4V0.2L127.3,8L127.3,8z"/>
				<path class="st12" d="M42.5,8v102.9c0,12-16.2,10.2-24,15.8l-0.6,0.4V0.2L42.5,8L42.5,8z"/>
				<path class="st13" d="M42.5,8v102.9c0,12,20.1,10.2,29.8,15.8l0.8,0.4V0.2L42.5,8L42.5,8z"/>
				<path class="st14" d="M42.5,85L42.5,85c-0.3,0-0.5-0.1-0.8-0.2L15.3,70.5c-0.8-0.5-1.4-1.6-1.4-2.9V51.3c0-1,0.3-1.9,0.9-2.5
					c0.4-0.4,0.8-0.5,1.2-0.5c0.3,0,0.5,0.1,0.8,0.2l25.7,13.9L42.5,85L42.5,85z"/>
				<path class="st15" d="M102.7,85L102.7,85c0.3,0,0.5-0.1,0.8-0.2l26.4-14.3c0.8-0.5,1.4-1.6,1.4-2.9V51.3c0-1-0.3-1.9-0.9-2.5
					c-0.4-0.4-0.8-0.5-1.2-0.5c-0.3,0-0.5,0.1-0.8,0.2l-25.7,13.9V85z"/>
				<path class="st16" d="M42.5,117.7L42.5,117.7c-0.3,0-0.5-0.1-0.8-0.2l-26.4-14.7c-0.8-0.5-1.4-1.6-1.4-2.9V83.2
					c0-1,0.3-2,0.9-2.6c0.4-0.4,0.8-0.6,1.2-0.6c0.3,0,0.5,0.1,0.8,0.2l25.7,14.2V117.7z"/>
				<path class="st17" d="M102.7,117.7L102.7,117.7c0.3,0,0.5-0.1,0.8-0.2l26.4-14.7c0.8-0.5,1.4-1.6,1.4-2.9V83.2
					c0-1-0.3-2-0.9-2.6c-0.4-0.4-0.8-0.6-1.2-0.6c-0.3,0-0.5,0.1-0.8,0.2l-25.7,14.2V117.7z"/>
				<path class="st18" d="M42.5,21.5c-0.3,0-0.5-0.1-0.8-0.2L15.3,6.6C14.5,6.2,14,5,14,3.7v-16.8c0-1,0.3-2,0.9-2.6
					c0.4-0.4,0.8-0.6,1.2-0.6c0.3,0,0.5,0.1,0.8,0.2L42.5-1.8L42.5,21.5L42.5,21.5z"/>
				<path class="st19" d="M102.7,21.5c0.3,0,0.5-0.1,0.8-0.2l26.4-14.7c0.8-0.5,1.4-1.6,1.4-2.9v-16.8c0-1-0.3-2-0.9-2.6
					c-0.4-0.4-0.8-0.6-1.2-0.6c-0.3,0-0.5,0.1-0.8,0.2L102.7-1.8L102.7,21.5C102.7,21.5,102.7,21.5,102.7,21.5z"/>
				<path class="st20" d="M42.5,52.3c-0.3,0-0.5-0.1-0.8-0.2L15.3,37.8c-0.8-0.5-1.4-1.6-1.4-2.9V18.6c0-1,0.3-1.9,0.9-2.5
					c0.4-0.4,0.8-0.5,1.2-0.5c0.3,0,0.5,0.1,0.8,0.2l25.7,13.9L42.5,52.3L42.5,52.3z"/>
				<path class="st21" d="M102.7,52.3c0.3,0,0.5-0.1,0.8-0.2l26.4-14.3c0.8-0.5,1.4-1.6,1.4-2.9V18.6c0-1-0.3-1.9-0.9-2.5
					c-0.4-0.4-0.8-0.5-1.2-0.5c-0.3,0-0.5,0.1-0.8,0.2l-25.7,13.9L102.7,52.3C102.7,52.3,102.7,52.3,102.7,52.3z"/>
			</g>
		</g>
	</g>
	<path class="st22" d="M127.4,179.1c15.1-2.4,4.5-7.6-19.2-9.5c-23.7-1.9-57,1.3-62.4,5.2C40.5,178.6,112.3,181.5,127.4,179.1
		L127.4,179.1z"/>
</g>
</svg>
