<svg xmlns="http://www.w3.org/2000/svg" xmlns:xlink="http://www.w3.org/1999/xlink" width="80" height="80" viewBox="0 0 80 80">
    <defs>
        <path id="itvevfeina" d="M0 0H80V80H0z"/>
        <path id="v8ugk6u1yc" d="M22.776 54.728c-6.198-2.769-11.59-7.15-15.596-12.67C2.993 36.289.64 29.079.102 22.03.038 21.056 0 20.078 0 19.095V6.665L23.659.01l23.658 6.656v12.429c0 .99-.038 1.975-.112 2.954h-.015c-.531 7.043-3.25 14.244-7.351 20.01-3.928 5.52-9.216 9.9-15.293 12.669l-.865.394z"/>
    </defs>
    <g fill="none" fill-rule="evenodd">
        <g>
            <g transform="translate(-453 -551) translate(453 551)">
                <mask id="xmxb4jkotb" fill="#fff">
                    <use xlink:href="#itvevfeina"/>
                </mask>
                <g mask="url(#xmxb4jkotb)">
                    <g>
                        <path fill="#555A5F" fill-rule="nonzero" d="M31.673 0L11.707 36.098l19.966 36.097.713-.249c9.131-3.191 16.961-9.006 22.642-16.814 5.806-7.979 8.874-17.408 8.874-27.269V9.062L31.672 0z" transform="translate(-20 23)"/>
                        <path fill="#858B92" fill-rule="nonzero" d="M0 9.062v18.801c0 9.86 3.065 19.29 8.864 27.27 5.676 7.808 13.497 13.622 22.619 16.813l.712.25V0L0 9.062z" transform="translate(-20 23)"/>
                        <g transform="translate(-20 23) translate(8.78 8.293)">
                            <mask id="2lo5ckaozd" fill="#fff">
                                <use xlink:href="#v8ugk6u1yc"/>
                            </mask>
                            <path stroke="#30516C" stroke-width="5" d="M23.659-2.587l26.158 7.359v14.323c0 .794-.023 1.586-.068 2.373h0l-.05.76c-.578 7.489-3.461 15.148-7.823 21.28-4.06 5.705-9.485 10.266-15.716 13.226h0L25.59 57l-1.888.86-1.936-.844c-6.6-2.946-12.345-7.61-16.61-13.488C.83 37.565-1.671 30.164-2.336 22.871h0l-.055-.653c-.052-.782-.088-1.565-.102-2.352h0l-.007-.76V4.773l26.159-7.359z"/>
                            <g fill-rule="nonzero" mask="url(#2lo5ckaozd)">
                                <g>
                                    <path fill="#6D747B" d="M26.287 7.233v14.7c0 7.71 2.336 15.082 6.756 21.32 4.324 6.105 10.285 10.65 17.236 13.146l.543.194V.148L26.287 7.233z" opacity=".8" transform="matrix(1 0 0 -1 -2.629 55.932) rotate(180 38.555 28.37)"/>
                                    <path fill="#5F9CA7" d="M26.365 13.595c-.192-.108-.4-.108-.593 0l-10.334 5.89c-.326.187-.542.657-.542 1.182v6.731c0 .416.135.803.361 1.039.229.235.517.286.773.14l10.038-5.72 10.037 5.723.297.08c.168 0 .334-.075.477-.223.226-.236.361-.623.361-1.039v-6.731c0-.525-.215-.995-.54-1.182l-10.335-5.89z" transform="matrix(1 0 0 -1 -2.629 55.932)"/>
                                    <path fill="#538993" d="M26.365.297c-.192-.108-.4-.108-.593 0l-10.334 5.89c-.326.187-.542.656-.542 1.181V14.1c0 .416.135.803.361 1.038.229.236.517.286.773.142l10.038-5.72 10.037 5.721.297.081c.168 0 .334-.076.477-.224.226-.235.361-.622.361-1.038V7.368c0-.525-.215-.994-.54-1.181L26.365.297z" transform="matrix(1 0 0 -1 -2.629 55.932)"/>
                                    <path fill="#8ECFDA" d="M36.7 45.188l-10.335-5.89c-.192-.108-.4-.108-.593 0l-10.334 5.89c-.326.187-.542.656-.542 1.181v6.732c0 .415.135.803.361 1.038.229.237.517.286.773.142l10.037-5.722 10.037 5.722.298.082c.168 0 .334-.076.477-.224.226-.235.361-.623.361-1.038v-6.732c0-.525-.215-.994-.54-1.181z" transform="matrix(1 0 0 -1 -2.629 55.932)"/>
                                    <path fill="#74B8C4" d="M36.7 32.336l-10.335-5.89c-.192-.107-.4-.107-.593 0l-10.334 5.89c-.326.187-.542.657-.542 1.182v6.732c0 .415.135.802.361 1.038.229.237.517.288.773.141l10.037-5.722 10.037 5.722.298.083c.168 0 .334-.076.477-.224.226-.236.361-.623.361-1.038v-6.732c0-.525-.215-.995-.54-1.182z" transform="matrix(1 0 0 -1 -2.629 55.932)"/>
                                    <path fill="#303030" d="M39.43 3.641v45.733c0 5.347 7.207 4.53 10.683 7.025l.27.194V.148L39.432 3.641z" opacity=".5" transform="matrix(1 0 0 -1 -2.629 55.932) rotate(180 44.907 28.37)"/>
                                    <path fill="#FFF" d="M12.706 3.641v45.733c0 5.347 8.935 4.53 13.245 7.025l.336.194V.148L12.706 3.641z" opacity=".3" transform="matrix(1 0 0 -1 -2.629 55.932) matrix(1 0 0 -1 0 56.742)"/>
                                    <path fill="#487D87" d="M52.136 18.89h-.006c-.112.002-.225.03-.332.087l-11.752 6.346c-.37.201-.615.707-.615 1.273v7.252c0 .448.154.865.41 1.119.163.16.353.24.543.24.113 0 .227-.03.337-.088l11.415-6.163V18.89z" transform="matrix(1 0 0 -1 -2.629 55.932) matrix(-1 0 0 1 91.567 0)"/>
                                    <path fill="#40727B" d="M52.136 4.338h-.006c-.112.002-.225.031-.332.09l-11.752 6.517c-.37.206-.615.726-.615 1.307V19.7c0 .46.154.888.41 1.149.163.164.353.246.543.246.113 0 .227-.03.337-.09l11.415-6.329V4.338z" transform="matrix(1 0 0 -1 -2.629 55.932) matrix(-1 0 0 1 91.567 0)"/>
                                    <path fill="#79B7C1" d="M52.136 47.112c-.114 0-.228.03-.338.09l-11.752 6.516c-.37.207-.615.727-.615 1.307v7.448c0 .46.154.888.41 1.149.164.164.353.247.543.247.114 0 .227-.03.337-.089l11.414-6.33V47.112h.001z" transform="matrix(1 0 0 -1 -2.629 55.932) matrix(-1 0 0 1 91.567 0)"/>
                                    <path fill="#63A4AF" d="M52.136 33.442c-.114 0-.228.03-.338.087l-11.752 6.345c-.37.202-.615.707-.615 1.273v7.252c0 .447.154.864.41 1.118.164.16.353.241.543.241.114 0 .227-.029.337-.087l11.414-6.164V33.442h.001z" transform="matrix(1 0 0 -1 -2.629 55.932) matrix(-1 0 0 1 91.567 0)"/>
                                </g>
                            </g>
                        </g>
                    </g>
                </g>
            </g>
        </g>
    </g>
</svg>
