<svg xmlns="http://www.w3.org/2000/svg" xmlns:xlink="http://www.w3.org/1999/xlink" width="80" height="80" viewBox="0 0 80 80">
    <defs>
        <circle id="y06n92bska" cx="40" cy="40" r="40"/>
    </defs>
    <g fill="none" fill-rule="evenodd">
        <g>
            <g transform="translate(-207 -248) translate(207 248)">
                <mask id="croamk376b" fill="#fff">
                    <use xlink:href="#y06n92bska"/>
                </mask>
                <use fill="#F6F6F6" xlink:href="#y06n92bska"/>
                <g mask="url(#croamk376b)">
                    <g>
                        <g>
                            <path fill="#2F3676" d="M22.735 55.573L124.677 55.573 124.677 41.182 22.735 41.182z" transform="translate(.5 12) translate(.5)"/>
                            <g>
                                <path fill="#69A1AC" d="M43.394 44.617c0 9.05-7.284 16.387-16.268 16.387-8.984 0-16.267-7.337-16.267-16.387S18.142 28.23 27.126 28.23c8.984 0 16.268 7.336 16.268 16.387" transform="translate(.5 12) translate(.5) translate(0 .213)"/>
                                <path fill="#89C5CC" d="M143.674 29.133l-2.053-3.792S114.33.062 61.945.062c-29.486 0-51.13 19.275-51.13 19.275l1.215 9.796h131.644z" transform="translate(.5 12) translate(.5) translate(0 .213)"/>
                                <path fill="#69A1AC" d="M13.952 44.617l25.345 10.78 3.893-2.144c1.592-1.098 3.476-1.685 5.405-1.685h94.908l1.482-3.235c2.62-5.718 2.4-12.347-.594-17.875l-2.77-5.117s-.122-.111-.357-.316H11.521l2.43 19.592z" transform="translate(.5 12) translate(.5) translate(0 .213)"/>
                                <path fill="#FDFEFE" d="M33.714 11.122l1.348 12.441c.326 3 1.591 5.812 3.607 8.013l9.807 10.707c.81.884 1.94 1.386 3.123 1.386h49.664c2.366 0 4.284-1.966 4.284-4.39V12.385S64.852-3.098 33.714 11.122" transform="translate(.5 12) translate(.5) translate(0 .213)"/>
                                <path fill="#89C5CC" d="M30.052 44.617c0 1.627-1.31 2.947-2.926 2.947s-2.926-1.32-2.926-2.947c0-1.628 1.31-2.948 2.926-2.948s2.926 1.32 2.926 2.948" transform="translate(.5 12) translate(.5) translate(0 .213)"/>
                                <path fill="#FF9B21" d="M11.52 25.025H23.05c2.078 0 3.764-1.697 3.764-3.791H11.05l.47 3.791z" transform="translate(.5 12) translate(.5) translate(0 .213)"/>
                                <path fill="#89C5CC" d="M79.728 30.752c0-.957-.77-1.733-1.72-1.733H67.272c-1.115 0-2.019.91-2.019 2.034v9.273h11.434l-1.821-4.513c-.396-.981.004-2.105.929-2.609l3.933-2.142v-.31z" transform="translate(.5 12) translate(.5) translate(0 .213)"/>
                                <path fill="#69A1AC" d="M103.125 5.777C91.818 2.46 78.073.062 61.945.062c-8.46 0-16.271 1.588-23.114 3.85L41.517 5.8c6.175-1.807 13.057-3.012 20.428-3.012 15.561 0 28.908 2.23 39.983 5.367l1.197-2.378z" transform="translate(.5 12) translate(.5) translate(0 .213)"/>
                                <path stroke="#2F3676" stroke-linecap="round" stroke-width=".25" d="M6.089 61.052L3.383 61.052 0 61.052M138.677 61.052L105.53 61.052 100.456 61.052 95.045 61.052 88.956 61.052 13.192 61.052" transform="translate(.5 12) translate(.5) translate(0 .213)"/>
                                <path fill="#91DEDD" d="M78.008 29.019H67.272c-.853 0-1.58.533-1.876 1.286h14.267c-.197-.739-.86-1.286-1.655-1.286M76.797 40.677h-11.6c-.197 0-.358-.162-.358-.362 0-.199.16-.36.359-.36h11.599c.198 0 .358.161.358.36 0 .2-.16.362-.358.362" transform="translate(.5 12) translate(.5) translate(0 .213)"/>
                                <path fill="#89C5CC" d="M76.787 27.272L67.248 28.613 66.19 20.02 76.059 21.36z" transform="translate(.5 12) translate(.5) translate(0 .213)"/>
                                <path fill="#2F3676" d="M66.58 20.417L75.756 21.663 76.41 26.981 67.542 28.227z" transform="translate(.5 12) translate(.5) translate(0 .213)"/>
                                <path fill="#91DEDD" d="M74.598 25.91c-.755 0-1.38-.578-1.438-1.344l-.149-1.988c-.014-.186-.15-.342-.332-.378-.13-.026-.262.01-.36.1-.1.091-.148.22-.134.353l.216 2.061h-1.349l-.005-.079c-.037-.513-.449-.923-.959-.952l-1.521-.087-.424-3.275.168-.022.405 3.135 1.382.08c.568.032 1.032.469 1.11 1.03h1.005l-.196-1.873c-.02-.188.049-.37.187-.496.139-.128.325-.18.508-.143.256.052.448.271.468.533l.15 1.988c.051.696.635 1.223 1.327 1.186l1.795-.08.008.17-1.795.08-.067.002M72.499 27.631L72.367 25.904 67.056 26.247 67.045 26.077 72.523 25.723 72.667 27.618z" transform="translate(.5 12) translate(.5) translate(0 .213)"/>
                                <path fill="#91DEDD" d="M76.169 24.296L74.373 24.079 74.09 21.364 74.258 21.346 74.527 23.926 76.189 24.126zM68.527 24.993L66.913 24.993 66.913 24.823 68.341 24.823 68.287 24.217 66.764 24.017 66.785 23.848 68.443 24.066z" transform="translate(.5 12) translate(.5) translate(0 .213)"/>
                                <path fill="#FDFEFE" d="M36.384 38.033c-2.129 4.079-.738 9.743-3.943 13.03-3.883 3.984-11.325 1.236-15.571 4.824-.284.24-.537.502-.766.779 2.899 2.692 6.769 4.338 11.022 4.338 8.985 0 16.268-7.337 16.268-16.388 0-3.86-1.329-7.405-3.545-10.205-1.394.783-2.6 1.966-3.465 3.622" transform="translate(.5 12) translate(.5) translate(0 .213)"/>
                                <path fill="#2F3676" d="M14.849 55.36c2.982 3.456 7.375 5.644 12.277 5.644 4.903 0 9.295-2.188 12.278-5.644H14.849z" transform="translate(.5 12) translate(.5) translate(0 .213)"/>
                                <path stroke="#2F3676" stroke-width=".5" d="M27.126 28.23c8.984 0 16.267 7.336 16.267 16.387" transform="translate(.5 12) translate(.5) translate(0 .213)"/>
                                <path stroke="#FDFEFE" stroke-width=".5" d="M16.236 18.802L30.78 18.802" transform="translate(.5 12) translate(.5) translate(0 .213)"/>
                                <path stroke="#2F3676" d="M50.736 47.763L103.501 47.763" transform="translate(.5 12) translate(.5) translate(0 .213)"/>
                                <path fill="#89C5CC" d="M48.229 34.876h10.924c.71 0 1.287-.58 1.287-1.297v-1.542c0-.786-.688-1.391-1.46-1.285l-10.925 1.543c-.638.087-1.114.636-1.114 1.284 0 .716.577 1.297 1.288 1.297" transform="translate(.5 12) translate(.5) translate(0 .213)"/>
                                <path fill="#2F3676" d="M51.205 27.176c.467.078 8.205.341 11.52.451.88.03 1.633.646 1.843 1.508L67.1 39.746l3.383.47-.007.53-4.546.1s-3.107-10.77-3.603-10.67c-.497.1-11.121 1.3-11.121 1v-4z" transform="translate(.5 12) translate(.5) translate(0 .213)"/>
                                <path fill="#E5B5BA" d="M49.575 14.655l-.256-.213c-.183-.152-.31-.363-.35-.597-.17-.98-.738-1.885-1.652-2.437-1.673-1.01-3.843-.463-4.846 1.222-1.003 1.685 1.498 5.5 4.03 5.238.508.044 1.033.044 1.481.028.657-.025 1.164-.586 1.127-1.246l-.08-1.427.474-.165c.171-.06.212-.286.072-.403" transform="translate(.5 12) translate(.5) translate(0 .213)"/>
                                <path fill="#1F28CF" d="M76.622 38.38l-3.875 1.358-8.884-9.945c-.376-.338-.855-.532-1.358-.552-2.304-.088-9.977-.345-10.233-.387l-2.28 3.182s.467.47.622.574c.156.104 11.58-.626 11.58-.626l10.303 9.136L77.008 39l-.386-.622z" transform="translate(.5 12) translate(.5) translate(0 .213)"/>
                                <path fill="#2F3676" d="M42.47 12.63c-.03.053-.057.11-.084.167-.522 1.21.462 3.273 1.925 4.362.224-.048.552-.141.862-.922-.54-.092-1.066-.502-1.115-1.051-.05-.55.574-1.092 1.058-.836-.049-.46-.356-.883-.777-1.069 1.134.266 2.375-.145 3.19-.968.143-.143.282-.288.385-.439-.083-.078-.17-.153-.259-.226-.108-.084-.218-.167-.338-.24-1.15-.695-2.535-.653-3.615-.012-.49.292-.917.707-1.231 1.234" transform="translate(.5 12) translate(.5) translate(0 .213)"/>
                                <path fill="#E5B5BA" d="M44.311 17.159L44.866 18.576 46.367 19.567 46.16 17.011z" transform="translate(.5 12) translate(.5) translate(0 .213)"/>
                                <path fill="#2B44FF" d="M59.421 18.41l-.983-.562-4.15 3.169-8.822-2.045-.6-.396s-1.036.94-1.14 1.982c-.103 1.044 6.267 11.478 6.267 11.478l3.78-3.287.144-1.212-3.705-4.862 3.05.533c.698.122 1.41-.099 1.92-.594l4.24-4.203z" transform="translate(.5 12) translate(.5) translate(0 .213)"/>
                                <path fill="#E5B5BA" d="M60.291 17.482c0 .54-.435.98-.972.98-.537 0-.973-.44-.973-.98 0-.541.436-.98.973-.98.537 0 .972.439.972.98" transform="translate(.5 12) translate(.5) translate(0 .213)"/>
                                <path fill="#1F28CF" d="M50.211 22.675L46.537 22.075 52.392 26.394z" transform="translate(.5 12) translate(.5) translate(0 .213)"/>
                                <path fill="#89C5CC" d="M45.908 31.392l.147-.28c-4.976-2.642-6.773-9.095-4.005-14.383l-.277-.147c-2.849 5.442-.994 12.086 4.135 14.81" transform="translate(.5 12) translate(.5) translate(0 .213)"/>
                                <path fill="#91DEDD" d="M41.25 14.506c.598-.26 1.291.017 1.55.618l1.769 4.12c.259.602-.016 1.3-.614 1.56-.597.261-1.29-.016-1.549-.617l-1.77-4.12c-.258-.602.017-1.3.614-1.561" transform="translate(.5 12) translate(.5) translate(0 .213)"/>
                                <path fill="#69A1AC" d="M46.326 42.051h13.346l-.366-1.014c-.534-1.48-1.93-2.464-3.492-2.464h-5.63c-1.563 0-2.958.984-3.492 2.464l-.366 1.014z" transform="translate(.5 12) translate(.5) translate(0 .213)"/>
                                <path fill="#89C5CC" d="M59.672 35.094H46.326l.366 1.015c.534 1.479 1.93 2.464 3.492 2.464h5.63c1.563 0 2.958-.985 3.492-2.464l.366-1.015z" transform="translate(.5 12) translate(.5) translate(0 .213)"/>
                                <path fill="#91DEDD" d="M47.525 35.433l2.35-.865c.942-.347 1.333-1.475.811-2.338l-6.638-10.962c-.395-.651-1.19-.932-1.903-.67-.825.304-1.249 1.223-.947 2.054l4.289 11.826c.3.83 1.214 1.258 2.038.955" transform="translate(.5 12) translate(.5) translate(0 .213)"/>
                                <path fill="#91DEDD" d="M47.288 35.508h13.12c.71 0 1.287-.58 1.287-1.297V32.67c0-.786-.688-1.391-1.461-1.285l-13.12 1.543c-.638.087-1.114.636-1.114 1.284 0 .716.577 1.297 1.288 1.297" transform="translate(.5 12) translate(.5) translate(0 .213)"/>
                                <path fill="#2F3676" d="M94.198 27.176c-.467.078-8.206.341-11.52.451-.881.03-1.634.646-1.844 1.508l-2.53 10.611-3.384.47.007.53 4.546.1s3.107-10.77 3.604-10.67c.496.1 11.12 1.3 11.12 1v-4z" transform="translate(.5 12) translate(.5) translate(0 .213)"/>
                                <path fill="#E5B5BA" d="M79.952 35.266L78.413 40.246 75.086 40.453 75.214 41.175 79.744 41.175 81.675 36.051z" transform="translate(.5 12) translate(.5) translate(0 .213)"/>
                                <path fill="#2F3676" d="M79.744 41.175L75.214 41.175 75.086 40.453 78.413 40.246z" transform="translate(.5 12) translate(.5) translate(0 .213)"/>
                            </g>
                        </g>
                    </g>
                </g>
            </g>
        </g>
    </g>
</svg>
