<?xml version="1.0" encoding="utf-8"?>
<!-- Generator: Adobe Illustrator 22.0.0, SVG Export Plug-In . SVG Version: 6.00 Build 0)  -->
<svg version="1.1" id="Layer_1" xmlns="http://www.w3.org/2000/svg" xmlns:xlink="http://www.w3.org/1999/xlink" x="0px" y="0px"
	 viewBox="0 0 63.9 42.6" style="enable-background:new 0 0 63.9 42.6;" xml:space="preserve">
<style type="text/css">
	.st0{fill:#FFFFFF;}
</style>
<g id="Layer_2_1_">
</g>
<g id="Layer_1_1_">
	<path class="st0" d="M0,42.3c0,0,2.9,0,5.3-0.6c0,0,1.1-0.2,2.4-0.7c0,0,1.5-0.5,2.9-1.2c0,0,0.9-0.4,2.2-1.2c0,0,1.2-0.8,2.1-1.5
		c0,0,0.9-0.7,2-1.8c0,0,2.9-2.7,3.5-3.2l2.3-2.2l1.7-1.6l1.3-1.2l1-0.9l1-0.9l1-0.9l0.9-0.8l0.8-0.8l0.9-0.9l0.9-0.8l0.9-0.8
		l0.9-0.8l1-1l0.8-0.7l1-0.9l0.9-0.8l1.1-1l0.9-0.8l0.9-0.9l0.7-0.6l0.7-0.6l0.6-0.6l0.6-0.6l0.9-0.8l0.7-0.6l0.9-0.8l0.7-0.7
		l0.7-0.6L47.6,7L48,6.6l0.2-0.2l0.3-0.3l0.3-0.3c0,0,0.2-0.2,0.4-0.3c0.1-0.1,1.5-1.1,2.9-1.9s2.9-1.5,4.4-2c1.6-0.5,2.6-0.7,4.4-1
		c0,0,1.6-0.2,3-0.2v42.1H0V42.3z"/>
</g>
</svg>
