<svg xmlns="http://www.w3.org/2000/svg" xmlns:xlink="http://www.w3.org/1999/xlink" width="120" height="120" viewBox="0 0 120 120">
    <defs>
        <circle id="t0j9q20rja" cx="60" cy="60" r="60"/>
    </defs>
    <g fill="none" fill-rule="evenodd">
        <g>
            <g transform="translate(-330 -1506) translate(330 1506)">
                <mask id="bugx2ot4ub" fill="#fff">
                    <use xlink:href="#t0j9q20rja"/>
                </mask>
                <use fill="#F8F8F8" xlink:href="#t0j9q20rja"/>
                <path fill="#89C5CC" fill-rule="nonzero" d="M53.3 50.642c-.194-.348-.185-.774.025-1.113 3.21-5.205 2.424-11.935-1.898-16.26-4.321-4.324-11.046-5.108-16.246-1.895-.334.215-.758.233-1.109.047-.35-.186-.574-.547-.584-.944-.01-.397.195-.769.536-.972 6.067-3.751 13.914-2.837 18.957 2.21 5.044 5.046 5.96 12.9 2.213 18.972-.201.324-.555.52-.936.52-.399 0-.765-.217-.959-.565z" mask="url(#bugx2ot4ub)" transform="rotate(-44 45.488 39.207)"/>
                <circle cx="100" cy="23" r="16" fill="#5C63AB" fill-rule="nonzero" stroke="#979797" mask="url(#bugx2ot4ub)" opacity=".1"/>
                <path fill="#89C5CC" fill-rule="nonzero" d="M55.3 129.642c-.194-.348-.185-.774.025-1.113 3.21-5.205 2.424-11.935-1.898-16.26-4.321-4.324-11.046-5.108-16.246-1.895-.334.215-.758.233-1.109.047-.35-.186-.574-.547-.584-.944-.01-.397.195-.769.536-.972 6.067-3.751 13.914-2.837 18.957 2.21 5.044 5.046 5.96 12.9 2.213 18.972-.201.324-.555.52-.936.52-.399 0-.765-.217-.959-.565z" mask="url(#bugx2ot4ub)" transform="scale(1 -1) rotate(-44 -245.085 0)"/>
                <path fill="#89C5CC" fill-rule="nonzero" d="M11.3 90.642c-.194-.348-.185-.774.025-1.113 3.21-5.205 2.424-11.935-1.898-16.26-4.321-4.324-11.046-5.108-16.246-1.895-.334.215-.758.233-1.109.047-.35-.186-.574-.547-.584-.944-.01-.397.195-.769.536-.972 6.067-3.751 13.914-2.837 18.957 2.21 5.044 5.046 5.96 12.9 2.213 18.972-.201.324-.555.52-.936.52-.399 0-.765-.217-.959-.565z" mask="url(#bugx2ot4ub)" transform="rotate(-122 3.488 79.207)"/>
                <path fill="#89C5CC" fill-rule="nonzero" d="M93.3 89.642c-.194-.348-.185-.774.025-1.113 3.21-5.205 2.424-11.935-1.898-16.26-4.321-4.324-11.046-5.108-16.246-1.895-.334.215-.758.233-1.109.047-.35-.186-.574-.547-.584-.944-.01-.397.195-.769.536-.972 6.067-3.751 13.914-2.837 18.957 2.21 5.044 5.046 5.96 12.9 2.213 18.972-.201.324-.555.52-.936.52-.399 0-.765-.217-.959-.565z" mask="url(#bugx2ot4ub)" transform="rotate(45 85.488 78.207)"/>
                <g fill-rule="nonzero" mask="url(#bugx2ot4ub)">
                    <g>
                        <path fill="#FF7A00" d="M77.058 22.412c-3.75-6.93-9.464-12.644-16.397-16.398-5.47-2.96-11.695-4.696-18.314-4.844-.286-.008-.573-.012-.862-.012h-.072c-6.966 0-13.519 1.757-19.245 4.856-6.93 3.754-12.643 9.466-16.394 16.398C2.676 28.137.916 34.694.916 41.659c0 6.963 1.76 13.52 4.858 19.244C9.523 67.835 15.238 73.55 22.171 77.3c5.725 3.098 12.279 4.858 19.242 4.858h.072c.293 0 .586-.004.877-.012 6.613-.15 12.834-1.888 18.3-4.846 6.932-3.752 12.647-9.465 16.396-16.397 3.098-5.724 4.858-12.28 4.858-19.244 0-6.965-1.76-13.522-4.858-19.247zM60.452 49.72c-2.092 4.932-6.043 8.881-10.973 10.972-2.457 1.043-5.158 1.624-7.994 1.633h-.072c-2.86 0-5.584-.581-8.061-1.633-4.93-2.091-8.88-6.04-10.972-10.972-1.052-2.477-1.633-5.201-1.633-8.062 0-2.863.58-5.59 1.633-8.066 2.092-4.93 6.043-8.879 10.972-10.97 2.477-1.052 5.202-1.633 8.061-1.633h.072c2.836.009 5.537.59 7.994 1.633 4.928 2.091 8.879 6.04 10.973 10.97 1.052 2.477 1.633 5.203 1.633 8.066 0 2.86-.58 5.585-1.633 8.062z" transform="scale(1 -1) rotate(-44 -105.243 -23.475)"/>
                        <path fill="#E0701C" d="M77.338 21.935c-3.696-6.933-9.327-12.648-16.16-16.403C55.786 2.572 49.651.835 43.128.687c-2.439.802-4.779 1.825-6.997 3.044-7.175 3.946-13.09 9.949-16.975 17.231-3.208 6.016-5.03 12.905-5.03 20.227 0 7.318 1.822 14.207 5.03 20.22 3.883 7.285 9.8 13.29 16.978 17.23 2.222 1.223 4.567 2.245 7.009 3.048 6.517-.15 12.648-1.89 18.035-4.848 6.833-3.752 12.466-9.467 16.16-16.402 3.054-5.725 4.788-12.283 4.788-19.248 0-6.969-1.734-13.527-4.788-19.254zM60.972 49.252c-2.061 4.933-5.955 8.884-10.814 10.976-2.423 1.043-5.084 1.624-7.88 1.633h-.07c-2.819 0-5.504-.581-7.945-1.633-4.858-2.092-8.752-6.043-10.814-10.976-1.037-2.478-1.61-5.203-1.61-8.064 0-2.864.573-5.591 1.61-8.069 2.062-4.93 5.956-8.881 10.814-10.973 2.44-1.052 5.126-1.633 7.945-1.633h.07c2.796.008 5.457.59 7.88 1.633 4.856 2.092 8.75 6.042 10.814 10.973 1.037 2.478 1.61 5.205 1.61 8.069 0 2.861-.573 5.586-1.61 8.064z" transform="scale(1 -1) rotate(-44 -105.243 -23.475)"/>
                        <path fill="#BF5D04" d="M81.712 41.313c0 6.964-1.785 13.52-4.927 19.244-3.8 6.932-9.597 12.646-16.627 16.397-5.787 3.089-12.409 4.846-19.446 4.858V61.981c2.876-.01 5.615-.59 8.107-1.633 5-2.092 9.006-6.041 11.126-10.973 1.068-2.477 1.657-5.2 1.657-8.062 0-2.862-.59-5.589-1.657-8.066-2.123-4.93-6.13-8.878-11.126-10.97-2.492-1.043-5.23-1.624-8.107-1.633V.812c7.037.013 13.659 1.767 19.446 4.856 7.03 3.754 12.823 9.467 16.627 16.398 3.142 5.725 4.927 12.282 4.927 19.247z" transform="scale(1 -1) rotate(-44 -105.243 -23.475)"/>
                        <path fill="#FFF" d="M33.311 22.165c-4.826 2.047-8.694 5.913-10.742 10.74l-7.26-4.89-8.998-6.057c3.672-6.785 9.266-12.379 16.05-16.054l3.462 5.14 7.488 11.12zM33.382 61.2l-7.489 11.123-3.458 5.135c-6.788-3.67-12.383-9.267-16.053-16.053l8.995-6.058 7.263-4.89c2.047 4.829 5.916 8.695 10.742 10.743z" transform="scale(1 -1) rotate(-44 -105.243 -23.475)"/>
                        <path fill="#A7A7A7" d="M77.52 60.764c-3.94 7.038-9.95 12.84-17.24 16.648l-11.76-16.86c5.185-2.123 9.34-6.133 11.539-11.14L77.52 60.764zM77.45 22.695L60.59 34.858c-2.125-5.362-6.137-9.658-11.14-11.933L60.803 4.858c7.039 4.083 12.84 10.299 16.647 17.837z" transform="scale(1 -1) rotate(-44 -105.243 -23.475)"/>
                        <path fill="#D1D4D1" d="M33.645 22.333l-7.487-11.192c-2.976 2.93-5.516 6.31-7.517 10.026-1.203 2.237-2.21 4.595-2.996 7.054l7.26 4.92c2.047-4.856 5.915-8.747 10.74-10.808zM23.307 49.324l-7.664 5.011c.832 2.505 1.894 4.907 3.164 7.184 2.108 3.788 4.79 7.23 7.933 10.216l7.903-11.4c-5.094-2.1-9.176-6.062-11.336-11.01z" transform="scale(1 -1) rotate(-44 -105.243 -23.475)"/>
                    </g>
                </g>
            </g>
        </g>
    </g>
</svg>
