<?xml version="1.0" encoding="UTF-8"?>
<svg width="120px" height="121px" viewBox="0 0 120 121" version="1.1" xmlns="http://www.w3.org/2000/svg" xmlns:xlink="http://www.w3.org/1999/xlink">
    <title>bias</title>
    <g id="Page-1" stroke="none" stroke-width="1" fill="none" fill-rule="evenodd">
        <g id="Artboard" transform="translate(-574.000000, -839.000000)">
            <g id="bias" transform="translate(574.000000, 840.000000)">
                <polygon id="Fill-1" fill="#CECECE" points="40.0218324 108.791163 10.6167641 79.3850552 80.6466537 9.35516569 110.051722 38.7612736"></polygon>
                <polygon id="Fill-2" fill="#CECECE" points="110.051514 79.3853671 80.6464457 108.791475 10.6165562 38.7605458 40.0216244 9.35547758"></polygon>
                <g id="Group-12" transform="translate(1.481481, 0.447044)"></g>
                <g id="Group-2" transform="translate(1.989846, 0.508364)" stroke="#636363" stroke-linecap="round" stroke-linejoin="round" stroke-width="1.3">
                    <line x1="96.909312" y1="9.42809042" x2="9.42809042" y2="96.909312" id="Stroke-13"></line>
                    <line x1="87.4812216" y1="0" x2="1.0526559e-14" y2="87.4812216" id="Stroke-13"></line>
                    <line x1="107.279682" y1="19.7984608" x2="19.7984608" y2="107.279682" id="Stroke-15"></line>
                    <line x1="116.377822" y1="29.9364442" x2="28.8966002" y2="117.417666" id="Stroke-16"></line>
                </g>
                <g id="Group-2" transform="translate(60.508364, 59.767623) rotate(-90.000000) translate(-60.508364, -59.767623) translate(1.989846, 0.508364)" stroke="#636363" stroke-linecap="round" stroke-linejoin="round" stroke-width="1.3">
                    <line x1="96.909312" y1="9.42809042" x2="9.42809042" y2="96.909312" id="Stroke-13"></line>
                    <line x1="87.4812216" y1="0" x2="1.0526559e-14" y2="87.4812216" id="Stroke-13"></line>
                    <line x1="107.279682" y1="19.7984608" x2="19.7984608" y2="107.279682" id="Stroke-15"></line>
                    <line x1="116.377822" y1="29.9364442" x2="28.8966002" y2="117.417666" id="Stroke-16"></line>
                </g>
            </g>
        </g>
    </g>
</svg>