<svg xmlns="http://www.w3.org/2000/svg" xmlns:xlink="http://www.w3.org/1999/xlink" width="212" height="127" viewBox="0 0 212 127">
    <defs>
        <path id="yubesekz7a" d="M0.783 0.689L62.416 0.689 62.416 82.324 0.783 82.324z"/>
    </defs>
    <g fill="none" fill-rule="evenodd">
        <g>
            <g>
                <g>
                    <path stroke="#FFCB06" stroke-width="4" d="M142.154 106.485c6.592 9.756 17.753 16.171 30.414 16.171 20.255 0 36.676-16.421 36.676-36.677 0-6.286-1.581-12.202-4.368-17.374M69.343 108.141c-6.59 9.756-17.752 16.17-30.412 16.17-20.257 0-36.677-16.42-36.677-36.677 0-6.285 1.58-12.202 4.367-17.373" transform="translate(-1036 -225) translate(1036 225)"/>
                    <path fill="#858586" d="M149.297 12.015L157.641 12.015 151.836 18.063z" transform="translate(-1036 -225) translate(1036 225)"/>
                    <path fill="#434343" d="M130.97 9.624l10.4-4.436c2.63-1.099 5.568.695 5.793 3.538l.388 4.921c.097 1.226-.136 2.455-.674 3.56l-6.57 13.493-9.338-21.076z" transform="translate(-1036 -225) translate(1036 225)"/>
                    <path fill="#858586" d="M140.54 12.338s9.556-.725 11.491 0c0 0 9.554 11.368-.484 21.044h-8.103l-13.545-19.834 10.642-1.21z" transform="translate(-1036 -225) translate(1036 225)"/>
                    <path fill="#434343" d="M173.23 106.898c-12.444.722-23.116-8.78-23.837-21.225-.722-12.443 8.78-23.115 21.224-23.836 12.443-.72 23.115 8.782 23.836 21.225.721 12.442-8.781 23.115-21.224 23.836m30.915-29.666c-3.95-17.78-21.567-28.992-39.349-25.042-17.78 3.95-28.992 21.566-25.042 39.348 3.95 17.78 21.567 28.992 39.348 25.042 17.78-3.95 28.992-21.567 25.043-39.348M62.436 89.633c-2.04 12.583-13.895 21.131-26.478 19.09-12.585-2.039-21.132-13.894-19.092-26.478 2.04-12.583 13.895-21.131 26.479-19.092 12.584 2.041 21.132 13.895 19.091 26.48M39.672 52.98c-18.214 0-32.98 14.766-32.98 32.98 0 18.215 14.766 32.98 32.98 32.98 18.215 0 32.981-14.765 32.981-32.98 0-18.214-14.766-32.98-32.981-32.98M89.464 43.312L127.228 43.312 116.301 77.181 93.654 74.885z" transform="translate(-1036 -225) translate(1036 225)"/>
                    <path fill="#BEBDC0" d="M117.574 81.365c0 5.593-4.535 10.126-10.127 10.126-5.593 0-10.126-4.533-10.126-10.126 0-4.736 3.25-8.713 7.643-9.82.794-.2 1.626-.307 2.483-.307 5.592 0 10.127 4.534 10.127 10.127" transform="translate(-1036 -225) translate(1036 225)"/>
                    <path fill="#BEBDC0" d="M65.664 81.365c-5.9-6.155 31.074-24.26 47.868-8.093l.393 13.474-8.124 4.61s-33.048-2.596-40.137-9.99" transform="translate(-1036 -225) translate(1036 225)"/>
                    <path fill="#C9C9C9" d="M12.62 75.766C16.81 64.91 27.34 57.209 39.673 57.209c16.01 0 28.986 12.976 28.986 28.986 0 .184-.003.369-.007.553l2.134-.807 6.222 2.384c.04-.706.063-1.415.063-2.13 0-20.654-16.744-37.398-37.398-37.398-19.001 0-34.693 14.173-37.08 32.525 1.165.15 5.421.225 10.029-5.556" transform="translate(-1036 -225) translate(1036 225)"/>
                    <path fill="#E8E8E8" d="M40.456 79.736L53.58 41.418 62.738 45.143 49.613 83.461z" transform="translate(-1036 -225) translate(1036 225)"/>
                    <path fill="#434343" d="M91.844 51.397H53.758c-7.79 0-14.107-5.732-14.107-12.803v-2.129h35.74c9.088 0 16.453 6.686 16.453 14.932" transform="translate(-1036 -225) translate(1036 225)"/>
                    <path fill="#C9C9C9" d="M184.668 58.541s7.988.981 9.48-4.06c-8.392-6.163-19.297-8.811-30.26-6.376-18.55 4.122-30.794 21.36-29.145 39.793 1.17-.106 5.342-.956 8.586-7.6 1.734-11.505 10.345-21.308 22.384-23.982 6.65-1.478 13.272-.54 18.956 2.226h-.001z" transform="translate(-1036 -225) translate(1036 225)"/>
                    <path fill="#C8C3CA" d="M173.974 79.61l-36.125-59.93c-1.186.548-2.381 1.082-3.57 1.629-.968.443-1.929.903-2.87 1.4-.36.19-.714.391-1.069.591-.164.108-.33.217-.492.328-.207.143-.412.29-.614.44L165.71 84.58c1.211 2.012 3.818 2.67 5.839 1.473l.94-.556c2.044-1.21 2.71-3.853 1.485-5.887" transform="translate(-1036 -225) translate(1036 225)"/>
                    <g transform="translate(-1036 -225) translate(1036 225) translate(110.1 .14)">
                        <mask id="su2izpnytb" fill="#fff">
                            <use xlink:href="#yubesekz7a"/>
                        </mask>
                        <path fill="#C9C9C9" d="M53.538 80.255L13.65 14.085c-.468-.78-1.174-1.388-2.013-1.74L3.412 8.91C1.223 7.997.196 5.475 1.126 3.291 2.02 1.191 4.404.164 6.544.955l12.05 4.458c.91.337 1.677.973 2.178 1.804l41.03 68.067c1.226 2.035.559 4.678-1.485 5.887l-.94.556c-2.021 1.196-4.627.539-5.84-1.472" mask="url(#su2izpnytb)"/>
                    </g>
                    <path fill="#C9C9C9" d="M80.024 95.466H30.006c-2.243 0-4.062-1.818-4.062-4.061v-5.978c0-2.244 1.82-4.062 4.062-4.062h50.018c2.243 0 4.061 1.818 4.061 4.062v5.978c0 2.243-1.818 4.061-4.061 4.061" transform="translate(-1036 -225) translate(1036 225)"/>
                    <path fill="#C9C9C9" d="M38.79 92.274H1.804C.807 92.274 0 91.466 0 90.469v-2.657c0-.995.807-1.803 1.804-1.803H38.79c.997 0 1.805.808 1.805 1.803v2.657c0 .997-.808 1.805-1.805 1.805M113.234 92.274H76.248c-.996 0-1.803-.808-1.803-1.805v-2.657c0-.995.807-1.803 1.803-1.803h36.986c.996 0 1.805.808 1.805 1.803v2.657c0 .997-.809 1.805-1.805 1.805" transform="translate(-1036 -225) translate(1036 225)"/>
                    <path fill="#C9C9C9" d="M135.764 48.422l-18.531 43.357c-.391.917-1.452 1.342-2.369.95l-2.442-1.043c-.917-.392-1.342-1.452-.95-2.369l18.531-43.357c.392-.917 1.452-1.342 2.368-.95l2.443 1.043c.916.392 1.342 1.452.95 2.369" transform="translate(-1036 -225) translate(1036 225)"/>
                    <path fill="#434343" d="M52.2 54.778s-7.888 17.515 4.62 24.253c0 0 20.315-2.174 18.831-16.036 0 0-5.071-10.643-23.45-8.217" transform="translate(-1036 -225) translate(1036 225)"/>
                    <path fill="#434343" d="M89.464 58.924c0 5.592-3.79 10.126-8.467 10.126-4.676 0-8.466-4.534-8.466-10.126 0-5.593 3.79-10.127 8.466-10.127 4.676 0 8.467 4.534 8.467 10.127M140.719 37.946s5.27-3.084 7.218-1.932c0 0 1.792 8.616-2.096 9.548 0 0-6.884-1.199-6.559-3.267l1.437-4.35zM11.878 56.608s-7.222-3.083-9.89-1.932c0 0-2.455 8.617 2.87 9.548 0 0 9.434-1.198 8.989-3.266l-1.969-4.35z" transform="translate(-1036 -225) translate(1036 225)"/>
                    <path fill="#FBB540" d="M87.774 43.89s13.632 5.51 41.88 2.563c0 0 15.062-2.659 5.867-17.898 0 0-14.497-20.018-49.522.76 0 0-6.138 4.04 1.775 14.575" transform="translate(-1036 -225) translate(1036 225)"/>
                    <path fill="#434343" d="M43.683 33.767H22.665c-12.892.9-1.343 14.701-1.343 14.701 1.389.68 2.914 1.056 4.515 1.056h31.418c0-8.702-6.076-15.757-13.572-15.757M14.702 63.346H8.383c-1.375 0-2.49-1.115-2.49-2.49V57.19c0-1.375 1.115-2.489 2.49-2.489h6.319c1.375 0 2.49 1.114 2.49 2.49v3.666c0 1.374-1.115 2.489-2.49 2.489" transform="translate(-1036 -225) translate(1036 225)"/>
                </g>
            </g>
        </g>
    </g>
</svg>
