<?xml version="1.0" encoding="UTF-8"?>
<svg width="80px" height="80px" viewBox="0 0 80 80" version="1.1" xmlns="http://www.w3.org/2000/svg" xmlns:xlink="http://www.w3.org/1999/xlink">
    <title>Group 13 Copy</title>
    <defs>
        <rect id="path-1" x="0" y="0" width="80" height="80"></rect>
        <polygon id="path-3" points="0 62.3790441 44.0368265 62.3790441 44.0368265 0 0 0"></polygon>
    </defs>
    <g id="Desktop" stroke="none" stroke-width="1" fill="none" fill-rule="evenodd">
        <g id="Group-13-Copy">
            <mask id="mask-2" fill="white">
                <use xlink:href="#path-1"></use>
            </mask>
            <g id="Mask"></g>
            <g id="Group-44-Copy" mask="url(#mask-2)">
                <g transform="translate(-9.999091, 15.992022)" id="Group-42">
                    <g transform="translate(29.373331, 36.027357) rotate(13.000000) translate(-29.373331, -36.027357) translate(6.873331, 4.527357)">
                        <path d="M5.74902811,16.0233413 C5.7607481,16.3064598 6.07313516,16.5236363 6.44697002,16.5083939 L11.257424,16.3133783 C11.6308207,16.2982441 11.9242586,16.0565285 11.9124291,15.77341 L11.8883319,15.1916063 C11.8765024,14.9084878 11.5638963,14.6913113 11.1904995,14.7062294 L6.38015511,14.9014611 C6.00632025,14.9163792 5.71310141,15.1584191 5.7248214,15.4415376 L5.74902811,16.0233413 Z" id="Fill-1" fill="#313030"></path>
                        <polygon id="Fill-3" fill="#313030" points="11.3812944 16.7999552 11.9541501 16.7767133 11.8464795 14.1882165 11.2736239 14.2114584"></polygon>
                        <path d="M0.167354903,4.47448351 C0.743715593,6.17211367 2.63852053,7.07616876 4.399148,6.49382454 C6.159885,5.91158841 7.12026708,4.06337249 6.54390639,2.36574233 C5.9675457,0.668220268 4.07274076,-0.235834817 2.31200376,0.346401305 C0.551266765,0.928637426 -0.409005787,2.77696145 0.167354903,4.47448351" id="Fill-5" fill="#8A8A8A"></path>
                        <path d="M1.78466988,6.31162982 C1.04422931,5.94170557 0.448700412,5.30314842 0.16731109,4.47444027 C-0.161615393,3.50552413 0.0107889639,2.48763788 0.546403516,1.68400934 C1.14587559,1.95156121 3.19818845,3.23753984 3.81354275,3.57665509 C3.42382566,4.10851579 2.11753954,5.85284591 1.78466988,6.31162982" id="Fill-7" fill="#686A6A"></path>
                        <path d="M15.9026151,14.9391022 C15.9929795,14.909158 16.0553036,14.8222442 16.0486221,14.7239797 C16.043255,14.6436601 15.9132398,12.7478794 15.7070994,12.140996 C15.5004113,11.5321669 14.9229553,11.2375896 14.7961165,11.1793227 L3.7784485,3.4564243 C3.68162166,3.3886445 3.54755372,3.41112966 3.47887676,3.50658352 C3.41009027,3.60203739 3.43287306,3.73424585 3.52959037,3.80224186 L14.5643455,11.5369233 C14.5770513,11.5457877 14.5908524,11.5534629 14.6053107,11.5595166 C14.6098015,11.5614624 15.1345723,11.7891248 15.2997475,12.2756908 C15.4884723,12.8313339 15.6187066,14.7331683 15.6200209,14.7521942 C15.6277978,14.8690522 15.7302108,14.9573714 15.8487251,14.9496962 C15.8674552,14.9483989 15.8856376,14.9447235 15.9026151,14.9391022" id="Fill-9" fill="#C4C4C3"></path>
                        <path d="M17.5288132,17.775325 C17.5288132,17.775325 15.547587,15.0987253 10.9833624,16.4184316 L10.9915773,14.8098773 C10.9915773,14.8098773 15.7514272,13.7168604 17.8125027,16.5033996 L17.5288132,17.775325 Z" id="Fill-11" fill="#313030"></path>
                        <mask id="mask-4" fill="white">
                            <use xlink:href="#path-3"></use>
                        </mask>
                        <g id="Clip-14"></g>
                        <polygon id="Fill-13" fill="#D5DDE2" mask="url(#mask-4)" points="27.7523916 45.3052347 33.3484135 45.3052347 33.3484135 43.6301978 27.7523916 43.6301978"></polygon>
                        <polygon id="Fill-15" fill="#D5DDE2" mask="url(#mask-4)" points="11.7094761 45.3052347 17.3054981 45.3052347 17.3054981 43.6301978 11.7094761 43.6301978"></polygon>
                        <path d="M38.6091342,15.8146616 C38.6235925,16.0976721 38.3325644,16.3420902 37.958839,16.3603594 L33.1503566,16.5985076 C32.7770694,16.616993 32.4626013,16.4026272 32.4482525,16.1196167 L32.4185692,15.5380292 C32.4042204,15.2550188 32.6955772,15.0107088 33.0687548,14.9920072 L37.8771277,14.7540752 C38.250853,14.7354817 38.5651021,14.9500637 38.5794509,15.2330741 L38.6091342,15.8146616 Z" id="Fill-16" fill="#313030" mask="url(#mask-4)"></path>
                        <polygon id="Fill-17" fill="#313030" mask="url(#mask-4)" points="32.7432567 17.0941758 32.1705106 17.1224985 32.0390715 14.5350826 32.6118176 14.50676"></polygon>
                        <path d="M43.9500219,4.01003508 C43.532593,5.75231127 41.7292478,6.82295118 39.922069,6.40124618 C38.1149997,5.97964929 36.9880185,4.2253738 37.4054473,2.48309761 C37.8227666,0.740821415 39.6262214,-0.329818494 41.4332907,0.0917784009 C43.2404695,0.513483397 44.3673412,2.26775889 43.9500219,4.01003508" id="Fill-18" fill="#8A8A8A" mask="url(#mask-4)"></path>
                        <path d="M42.5088792,5.9848706 C43.2121882,5.54986909 43.7462693,4.86050412 43.95,4.01006751 C44.1882334,3.01553124 43.9226168,2.01731952 43.3150393,1.26525552 C42.7428409,1.58545296 40.8176954,3.05055622 40.2360771,3.44361424 C40.6732219,3.93817983 42.1351538,5.55786862 42.5088792,5.9848706" id="Fill-19" fill="#686A6A" mask="url(#mask-4)"></path>
                        <path d="M29.2454856,15.845168 C29.1526019,15.8235476 29.0827201,15.7424713 29.0803104,15.6440987 C29.0782293,15.563671 29.0328828,13.6639986 29.1820662,13.0411162 C29.3316878,12.416288 29.8796795,12.0710109 30.000494,12.0016096 L40.2600867,3.32071334 C40.350232,3.2445016 40.4857239,3.25477127 40.5628349,3.34373902 C40.6401649,3.43259867 40.6297593,3.56632056 40.5397235,3.64264041 L30.2643581,12.3368332 C30.252419,12.3468867 30.2393847,12.355751 30.2255835,12.3629938 C30.2213118,12.3653721 29.7197619,12.6391938 29.6000427,13.138624 C29.4634555,13.7088608 29.5092402,15.6145869 29.5096783,15.6336128 C29.5126357,15.750687 29.4188757,15.8478705 29.3001424,15.8508484 C29.2814123,15.8512217 29.2629013,15.8492758 29.2454856,15.845168" id="Fill-20" fill="#C4C4C3" mask="url(#mask-4)"></path>
                        <path d="M26.6732871,18.2446056 C26.6732871,18.2446056 28.5306318,15.4828216 33.1503895,16.59854 L33.0687877,14.9919315 C33.0687877,14.9919315 28.2638104,14.1113345 26.3319834,16.9866253 L26.6732871,18.2446056 Z" id="Fill-21" fill="#313030" mask="url(#mask-4)"></path>
                        <path d="M31.6164836,27.9517768 C31.5609506,31.8428999 27.1214836,34.9363401 21.7006043,34.8609932 C16.2796155,34.7857544 11.9301843,31.5702673 11.9856079,27.6791442 C12.0410314,23.788021 16.4804983,20.6945808 21.9014872,20.7699278 C27.3223665,20.8451666 31.6719071,24.0606537 31.6164836,27.9517768" id="Fill-22" fill="#FBB540" mask="url(#mask-4)"></path>
                        <path d="M16.8580244,33.7503448 C16.8580244,33.7503448 15.3169003,33.7482909 15.2741826,34.8549287 C15.2313554,35.9614584 17.7702122,47.3795995 17.7702122,47.3795995 C17.7702122,47.3795995 18.1919128,49.3687801 19.5639185,49.2216536 L19.4222928,33.7275354 L16.8580244,33.7503448 Z" id="Fill-23" fill="#858586" mask="url(#mask-4)"></path>
                        <path d="M27.2442697,33.6578191 C27.2442697,33.6578191 28.7851747,33.6289249 28.8478274,34.6939435 C28.9103705,35.7588541 26.5767779,46.7992876 26.5767779,46.7992876 C26.5767779,46.7992876 26.1910039,48.72231 24.8162599,48.6045871 L24.6798918,33.6807057 L27.2442697,33.6578191 Z" id="Fill-24" fill="#858586" mask="url(#mask-4)"></path>
                        <path d="M19.3400557,44.506287 C19.3501327,45.6042766 18.8836332,46.4987106 18.2980718,46.5038995 L17.6259796,46.5098678 C17.0406372,46.515034 16.5579269,45.62914 16.5478499,44.5311504 L16.3492673,22.8092892 C16.3392998,21.7114077 16.8056897,20.8169737 17.3910321,20.8117848 L18.0633434,20.8057084 C18.6486857,20.8005422 19.1315056,21.6865443 19.1415826,22.7845339 L19.3400557,44.506287 Z" id="Fill-25" fill="#E5EDF3" mask="url(#mask-4)"></path>
                        <path d="M28.2615102,44.506287 C28.2714776,45.6042766 27.8049782,46.4987106 27.2195263,46.5038995 L26.5474341,46.5098678 C25.9619822,46.515034 25.4792719,45.62914 25.4691949,44.5311504 L25.2707218,22.8092892 C25.2607543,21.7114077 25.7271442,20.8169737 26.3124866,20.8117848 L26.9846883,20.8057084 C27.5701402,20.8005422 28.05296,21.6865443 28.0630371,22.7845339 L28.2615102,44.506287 Z" id="Fill-26" fill="#E5EDF3" mask="url(#mask-4)"></path>
                        <path d="M14.8575643,29.4767144 C14.8677509,30.5880006 13.9632304,31.496704 12.8374541,31.5067575 C11.7115682,31.516811 10.7906178,30.6242147 10.7804313,29.5130366 C10.7703543,28.4020747 11.6747652,27.4932632 12.8006511,27.4832097 C13.9264274,27.4732643 14.8473778,28.3657525 14.8575643,29.4767144" id="Fill-27" fill="#D5DDE2" mask="url(#mask-4)"></path>
                        <path d="M14.7027838,29.6323918 C14.712094,30.6583856 13.8771268,31.4974716 12.8375526,31.5067683 C11.7979785,31.5160651 10.9474576,30.6918972 10.9381473,29.6659033 C10.9287275,28.6399094 11.7640233,27.8008235 12.8035975,27.7915268 C13.8430622,27.78223 14.693364,28.6063979 14.7027838,29.6323918" id="Fill-28" fill="#E5EDF3" mask="url(#mask-4)"></path>
                        <path d="M13.9093075,31.1632101 C14.3939894,30.82323 14.7085671,30.2635872 14.7027619,29.6323809 C14.6956422,28.8551292 14.2054837,28.1945193 13.5163044,27.9235082 C13.2806997,28.4095338 13.0301986,29.1664623 12.7861599,29.649461 C13.2031506,30.2190492 13.548507,30.5557863 13.9093075,31.1632101" id="Fill-29" fill="#D5DDE2" mask="url(#mask-4)"></path>
                        <path d="M33.5029203,29.4283605 C33.5131068,30.5396467 32.6088054,31.4483501 31.4829195,31.4584036 C30.3571432,31.468457 29.4360833,30.5758607 29.4258968,29.4646827 C29.4158198,28.3537208 30.3203402,27.4449092 31.4461166,27.4348558 C32.5720025,27.4249104 33.4928433,28.3173986 33.5029203,29.4283605" id="Fill-30" fill="#D5DDE2" mask="url(#mask-4)"></path>
                        <path d="M33.3483588,29.5840486 C33.3576691,30.6100425 32.5223732,31.4491284 31.4829086,31.4584252 C30.4433344,31.467722 29.5930326,30.6435541 29.5837223,29.6175602 C29.5743025,28.5915663 30.4093793,27.7524804 31.4488439,27.7431836 C32.4884181,27.7338869 33.338939,28.5580548 33.3483588,29.5840486" id="Fill-31" fill="#E5EDF3" mask="url(#mask-4)"></path>
                        <path d="M32.5548935,31.114867 C33.0393563,30.7748869 33.3541531,30.2152441 33.3483478,29.5840378 C33.3412282,28.8067861 32.8510697,28.1461762 32.1618904,27.8751651 C31.9261762,28.3611906 31.6757846,29.1181192 31.4316364,29.6011179 C31.8487366,30.1707061 32.194093,30.5074431 32.5548935,31.114867" id="Fill-32" fill="#D5DDE2" mask="url(#mask-4)"></path>
                        <path d="M25.9967259,19.3927112 C26.017099,21.6144188 24.2084962,23.4317176 21.9573817,23.4517164 C19.7063766,23.4717153 17.8651331,21.6869551 17.8448696,19.4652475 C17.8246061,17.2436481 19.6328802,15.4263493 21.8838853,15.4063505 C24.1349998,15.3862435 25.9763529,17.1710037 25.9967259,19.3927112" id="Fill-33" fill="#878888" mask="url(#mask-4)"></path>
                        <path d="M27.1238276,19.3826794 C27.1496773,22.2187293 24.8410581,24.5384851 21.9675791,24.5641052 C19.0941002,24.5896173 16.7436395,22.3113725 16.7176803,19.4753226 C16.6918306,16.6392727 19.0002307,14.3195169 21.8736002,14.2938968 C24.7472982,14.2683848 27.0979779,16.5466295 27.1238276,19.3826794" id="Fill-34" fill="#E5EDF3" mask="url(#mask-4)"></path>
                        <path d="M25.6663098,19.3956624 C25.6849303,21.4373805 24.0228822,23.1074447 21.9543586,23.1259301 C19.8858349,23.1443074 18.1935558,21.5040793 18.1748257,19.4623612 C18.1563147,17.4206431 19.8182532,15.7505789 21.8867769,15.7320935 C23.9554101,15.7137162 25.6475797,17.3539443 25.6663098,19.3956624" id="Fill-35" fill="#FFFFFF" mask="url(#mask-4)"></path>
                        <path d="M26.7155183,43.473248 L33.4127071,55.9048575 L36.4487519,55.3535291 C36.8059337,55.2886883 37.1503322,55.5229288 37.2169022,55.8759719 L37.2436326,56.0185722 L32.8287112,56.8023573 L26.1872169,43.7297325 L26.7155183,43.473248 Z" id="Fill-36" fill="#858586" mask="url(#mask-4)" transform="translate(31.715425, 50.137803) rotate(-13.000000) translate(-31.715425, -50.137803) "></path>
                        <polygon id="Fill-37" fill="#D5DDE2" mask="url(#mask-4)" points="15.2765157 27.8154497 28.8523182 27.8154497 28.8523182 25.2258718 15.2765157 25.2258718"></polygon>
                        <polygon id="Fill-38" fill="#A8A7A1" mask="url(#mask-4)" points="20.1361936 52.9469919 18.5298976 52.9612613 18.4777601 47.2543528 20.0839465 47.2400834"></polygon>
                        <polygon id="Fill-39" fill="#A8A7A1" mask="url(#mask-4)" points="25.9235691 52.8954706 24.3177112 52.90974 24.2655737 47.2028315 25.871322 47.1885621"></polygon>
                        <path d="M25.9925096,60.4339906 C26.002093,61.4854965 24.7533115,62.3492296 23.2029867,62.3630667 L21.4233006,62.3790178 C19.8734139,62.3926866 18.6088597,61.5513305 18.5992208,60.4998246 L18.4090167,39.6943422 C18.3994333,38.6426201 19.6484339,37.7788869 21.198211,37.7650499 L22.9780067,37.7490988 C24.528441,37.73543 25.7926666,38.5767861 25.8023055,39.6285082 L25.9925096,60.4339906 Z" id="Fill-40" fill="#514B5B" mask="url(#mask-4)"></path>
                        <path d="M26.5729552,44.3037799 L26.4881769,35.0285401 C26.4813859,34.2940967 25.0105818,33.7117525 23.2026362,33.7278597 L21.1269929,33.7463451 C19.3194855,33.7624522 17.859306,34.370849 17.8660734,35.1052924 L17.9508753,44.3805322 L26.5729552,44.3037799 Z" id="Fill-41" fill="#858586" mask="url(#mask-4)"></path>
                    </g>
                </g>
            </g>
        </g>
    </g>
</svg>