<?xml version="1.0" encoding="UTF-8"?>
<svg width="131px" height="74px" viewBox="0 0 131 74" version="1.1" xmlns="http://www.w3.org/2000/svg" xmlns:xlink="http://www.w3.org/1999/xlink">
    <title>RE frequently</title>
    <defs>
        <polygon id="path-1" points="4.54747351e-13 0.137136385 124 0.137136385 124 0.433472927 4.54747351e-13 0.433472927"></polygon>
        <polygon id="path-3" points="0.0848964562 0.0901623687 49.1148121 0.0901623687 49.1148121 2.70225784 0.0848964562 2.70225784"></polygon>
        <polygon id="path-5" points="0.945112291 43.9534884 124.945112 43.9534884 124.945112 0 0.945112291 0"></polygon>
        <polygon id="path-7" points="0.102660345 0.0463137931 21.6770741 0.0463137931 21.6770741 21.6206897 0.102660345 21.6206897"></polygon>
        <polygon id="path-9" points="0 0.0384810345 13.2776259 0.0384810345 13.2776259 2.08770517 0 2.08770517"></polygon>
        <polygon id="path-11" points="0.0870306337 0.00587931034 8.59608276 0.00587931034 8.59608276 8.50614882 0.0870306337 8.50614882"></polygon>
        <polygon id="path-13" points="0.0860655172 0.00587931034 4.42366897 0.00587931034 4.42366897 8.50614882 0.0860655172 8.50614882"></polygon>
    </defs>
    <g id="Desktop" stroke="none" stroke-width="1" fill="none" fill-rule="evenodd">
        <g id="4-Wheeler-Tool-2-Copy-2" transform="translate(-156.000000, -349.000000)">
            <g id="RE-frequently" transform="translate(156.000000, 349.000000)">
                <g id="Group-7-Copy">
                    <path d="M117.461157,64.9023447 C137.72599,67.1837543 123.956909,71.9226996 92.6055487,73.5495856 C61.2541887,75.1764716 16.7805142,72.1389856 9.40639717,68.554207 C2.0322801,64.9694284 97.1963245,62.620935 117.461157,64.9023447 Z" id="Background-Shape-Copy-4" fill="#D9E3E9"></path>
                    <g id="Group-38" opacity="0.239467076">
                        <g id="Group-3" transform="translate(6.945112, 43.719113)">
                            <mask id="mask-2" fill="white">
                                <use xlink:href="#path-1"></use>
                            </mask>
                            <g id="Clip-2"></g>
                            <path d="M135.744121,0.433487376 L-16.8666176,0.433487376 C-16.9399961,0.433487376 -17.0001041,0.366877036 -17.0001041,0.285384126 C-17.0001041,0.203891216 -16.9399961,0.137136385 -16.8666176,0.137136385 L135.744121,0.137136385 C135.817369,0.137136385 135.877477,0.203891216 135.877477,0.285384126 C135.877477,0.366877036 135.817369,0.433487376 135.744121,0.433487376" id="Fill-1" fill="#283250" mask="url(#mask-2)"></path>
                        </g>
                        <g id="Group-6" transform="translate(13.150592, 0.000000)">
                            <mask id="mask-4" fill="white">
                                <use xlink:href="#path-3"></use>
                            </mask>
                            <g id="Clip-5"></g>
                            <path d="M49.1148121,2.70225784 L0.0848964562,2.70225784 L0.0848964562,1.26424237 C0.0848964562,0.61576687 0.637165861,0.0901499838 1.31839356,0.0901499838 L46.5502208,0.0901499838 C46.9525811,0.0901499838 47.3296962,0.27691489 47.5605459,0.59062544 L49.1148121,2.70225784 Z" id="Fill-4" fill="#C3C9D2" mask="url(#mask-4)"></path>
                        </g>
                        <polygon id="Fill-7" fill="#C3C9D2" points="13.1505917 2.09302326 13.1505917 3.13953488 61.6711397 3.13953488 61.0485002 2.09302326"></polygon>
                        <path d="M113.347514,3.13953488 L9.99463475,3.13953488 C8.24242948,3.13953488 6.82182462,4.53085401 6.82182462,6.24722264 L6.82182462,34.5415896 C6.82182462,35.3042499 7.37727161,35.9583052 8.1428842,36.0971564 L16.8420205,37.6744186 L26.5059903,37.6744186 C26.5059903,34.3410977 29.2649839,31.6387328 32.6682857,31.6387328 C36.0715874,31.6387328 38.8304508,34.3410977 38.8304508,37.6744186 L96.3445563,37.6744186 C96.3445563,34.3410977 99.1034197,31.6387328 102.506721,31.6387328 C105.910023,31.6387328 108.669017,34.3410977 108.669017,37.6744186 L114.947926,37.6744186 C115.816341,37.6744186 116.520455,36.9850125 116.520455,36.1344216 L116.520455,6.24722264 C116.520455,4.53085401 115.09972,3.13953488 113.347514,3.13953488" id="Fill-9" fill="#C3C9D2"></path>
                        <path d="M108.082099,34.5348837 C108.722969,35.428516 109.098155,36.50965 109.098155,37.6744186 L115.033876,37.6744186 C115.854826,37.6744186 116.520455,37.0389833 116.520455,36.2549818 C116.520455,35.3050049 115.714039,34.5348837 114.719292,34.5348837 L108.082099,34.5348837 Z" id="Fill-11" fill="#7F7F7F"></path>
                        <path d="M6.82182462,34.5348837 L6.82182462,34.7868464 C6.82182462,35.4896834 7.38641904,36.0926529 8.16445769,36.220634 L17.0046504,37.6744186 L26.8254685,37.6744186 C26.8254685,36.50965 27.228788,35.428516 27.917715,34.5348837 L6.82182462,34.5348837 Z" id="Fill-13" fill="#7F7F7F"></path>
                        <path d="M38.4656602,34.5348837 C39.1366952,35.428516 39.5296157,36.50965 39.5296157,37.6744186 L96.4701979,37.6744186 C96.4701979,36.50965 96.8631184,35.428516 97.5341534,34.5348837 L38.4656602,34.5348837 Z" id="Fill-15" fill="#7F7F7F"></path>
                        <mask id="mask-6" fill="white">
                            <use xlink:href="#path-5"></use>
                        </mask>
                        <g id="Clip-18"></g>
                        <polygon id="Fill-17" fill="#AFAFAF" mask="url(#mask-6)" points="6.82182462 33.4883721 7.87661914 33.4883721 7.87661914 26.1627907 6.82182462 26.1627907"></polygon>
                        <polyline id="Fill-19" fill="#AFAFAF" mask="url(#mask-6)" points="7.87661914 24.0697674 7.87661914 25.1162791 6.82182462 25.1162791"></polyline>
                        <polyline id="Fill-20" fill="#AFAFAF" mask="url(#mask-6)" points="115.46566 26.1627907 116.520455 26.1627907 116.520455 32.4418605 115.46566 32.4418605"></polyline>
                        <path d="M116.520455,23.0232558 L116.520455,23.0232558 L116.520455,9.55267882 C116.520455,8.32269867 115.537284,7.3255814 114.324507,7.3255814 L109.223382,7.3255814 C108.010605,7.3255814 107.027304,8.32269867 107.027304,9.55267882 L107.027304,13.3955756 C107.027304,18.7127872 111.277613,23.0232558 116.520455,23.0232558" id="Fill-21" fill="#163560" mask="url(#mask-6)"></path>
                        <path d="M47.0158682,23.0232558 L72.1072331,23.0232558 C73.3342208,23.0232558 74.3286739,22.0261385 74.3286739,20.7961584 L74.3286739,9.55267882 C74.3286739,8.32269867 73.3342208,7.3255814 72.1072331,7.3255814 L47.0158682,7.3255814 C45.7890121,7.3255814 44.7944274,8.32269867 44.7944274,9.55267882 L44.7944274,20.7961584 C44.7944274,22.0261385 45.7890121,23.0232558 47.0158682,23.0232558" id="Fill-22" fill="#AFAFAF" mask="url(#mask-6)"></path>
                        <path d="M96.5638484,23.0232558 L102.723636,23.0232558 C103.935251,23.0232558 104.917715,22.0261385 104.917715,20.7961584 L104.917715,9.55267882 C104.917715,8.32269867 103.935251,7.3255814 102.723636,7.3255814 L96.5638484,7.3255814 C95.3521039,7.3255814 94.3697698,8.32269867 94.3697698,9.55267882 L94.3697698,20.7961584 C94.3697698,22.0261385 95.3521039,23.0232558 96.5638484,23.0232558" id="Fill-23" fill="#AFAFAF" mask="url(#mask-6)"></path>
                        <path d="M116.520455,23.0232558 L116.520455,23.0232558 L116.520455,9.55267882 C116.520455,8.32269867 115.537284,7.3255814 114.324507,7.3255814 L109.223382,7.3255814 C108.010605,7.3255814 107.027304,8.32269867 107.027304,9.55267882 L107.027304,13.3955756 C107.027304,18.7127872 111.277613,23.0232558 116.520455,23.0232558" id="Fill-24" fill="#AFAFAF" mask="url(#mask-6)"></path>
                        <path d="M12.1758194,23.0232558 L39.4405623,23.0232558 C40.6498395,23.0232558 41.6300438,22.0261385 41.6300438,20.7961584 L41.6300438,9.55267882 C41.6300438,8.32269867 40.6498395,7.3255814 39.4405623,7.3255814 L12.1758194,7.3255814 C10.9665421,7.3255814 9.98620818,8.32269867 9.98620818,9.55267882 L9.98620818,20.7961584 C9.98620818,22.0261385 10.9665421,23.0232558 12.1758194,23.0232558" id="Fill-25" fill="#163560" mask="url(#mask-6)"></path>
                        <path d="M12.1758194,23.0232558 L39.4405623,23.0232558 C40.6498395,23.0232558 41.6300438,22.0261385 41.6300438,20.7961584 L41.6300438,9.55267882 C41.6300438,8.32269867 40.6498395,7.3255814 39.4405623,7.3255814 L12.1758194,7.3255814 C10.9665421,7.3255814 9.98620818,8.32269867 9.98620818,9.55267882 L9.98620818,20.7961584 C9.98620818,22.0261385 10.9665421,23.0232558 12.1758194,23.0232558" id="Fill-26" fill="#AFAFAF" mask="url(#mask-6)"></path>
                        <path d="M91.232836,7.3255814 L83.5454764,7.3255814 L82.6358292,7.3255814 L77.4657381,7.3255814 C76.898235,7.3255814 76.438263,7.77540246 76.438263,8.33038147 L76.438263,37.6744186 L82.6358292,37.6744186 L83.5454764,37.6744186 L92.2601808,37.6744186 L92.2601808,8.33038147 C92.2601808,7.77540246 91.8003391,7.3255814 91.232836,7.3255814" id="Fill-27" fill="#AFAFAF" mask="url(#mask-6)"></path>
                        <path d="M38.4656602,38.1976744 C38.4656602,41.3765557 35.8683613,43.9534884 32.6643564,43.9534884 C29.4602194,43.9534884 26.8629205,41.3765557 26.8629205,38.1976744 C26.8629205,35.0187931 29.4602194,32.4418605 32.6643564,32.4418605 C35.8683613,32.4418605 38.4656602,35.0187931 38.4656602,38.1976744" id="Fill-28" fill="#AFAFAF" mask="url(#mask-6)"></path>
                        <path d="M108.082099,38.1976744 C108.082099,41.3765557 105.4848,43.9534884 102.280795,43.9534884 C99.0766578,43.9534884 96.4793589,41.3765557 96.4793589,38.1976744 C96.4793589,35.0187931 99.0766578,32.4418605 102.280795,32.4418605 C105.4848,32.4418605 108.082099,35.0187931 108.082099,38.1976744" id="Fill-29" fill="#AFAFAF" mask="url(#mask-6)"></path>
                        <path d="M64.8336367,27.2092376 L64.8335066,27.2091082 C64.8349378,27.2092376 64.8362388,27.209367 64.8375399,27.2094965 C64.8363689,27.209367 64.8349378,27.209367 64.8336367,27.2092376" id="Fill-30" fill="#163560" mask="url(#mask-6)"></path>
                        <path d="M78.547852,32.4418605 L78.5477245,32.4418605 C77.8226569,32.414013 77.0694078,32.3990385 76.2868295,32.3990385 C76.2868295,32.3990385 71.9555515,28.5270637 66.9451123,27.2093023 C72.0965864,28.5197077 78.547852,32.4418605 78.547852,32.4418605" id="Fill-31" fill="#7F7F7F" mask="url(#mask-6)"></path>
                        <path d="M52.1499897,34.8193829 L52.1499897,30.5030894 C52.1499897,30.5030894 57.1311985,29.9243122 60.1435898,28.815166 C67.1174909,26.2109337 70.8651718,26.1627907 77.1984995,26.1627907 C82.0069753,26.1627907 86.8768991,29.4361181 88.943303,31.0123709 C89.6398451,31.5438009 90.4842018,31.8373009 91.3550425,31.8566642 C98.9614284,32.0260268 103.663577,33.5696538 105.998865,34.6116915 C107.093189,35.1000182 107.797428,36.2024005 107.797428,37.4172491 L107.797428,38.8704256 C107.954636,38.8704256 108.082099,39.0000006 108.082099,39.1598142 L108.082099,41.5710765 C108.082099,41.7308901 107.954636,41.8604651 107.797428,41.8604651 L104.547855,41.8604651 L103.258489,41.8604651 C103.708065,41.0413707 103.956205,40.0923033 103.931156,39.0818305 C103.860185,36.203992 101.547988,33.860236 98.7169407,33.7965758 C95.7139427,33.7290695 93.2588895,36.1834351 93.2588895,39.2206892 C93.2588895,40.179173 93.5042904,41.0790363 93.9333833,41.8604651 L66.0059459,41.8604651 C66.455652,41.0413707 66.7036622,40.0923033 66.6786133,39.0818305 C66.6076414,36.203992 64.2955757,33.860236 61.4643975,33.7965758 C58.46153,33.7290695 56.0063463,36.1834351 56.0063463,39.2206892 C56.0063463,40.179173 56.2517473,41.0790363 56.6808402,41.8604651 L55.5657727,41.8604651 C51.7064154,41.8604651 51.1595144,37.8482817 51.1231945,35.8813144 C51.1126782,35.2976301 51.5758219,34.8193829 52.1499897,34.8193829" id="Fill-32" fill="#C4C4C4" mask="url(#mask-6)"></path>
                        <path d="M79.8118455,27.4341005 C84.292047,28.5676401 89.0957972,32.4418605 89.0957972,32.4418605 L76.3800269,32.1698481 C75.8812391,32.1592381 75.4320649,31.865608 75.2223353,31.413094 L73.2738794,27.2093023 L77.9887499,27.2093023 C78.6034792,27.2093023 79.2159534,27.2833067 79.8118455,27.4341005" id="Fill-33" fill="#7F7F7F" mask="url(#mask-6)"></path>
                        <path d="M72.4737276,27.2093023 L74.2877855,30.8087787 C74.4271522,31.0854819 74.1931672,31.395226 73.8446157,31.3953488 C72.0142489,31.3960433 67.2085253,31.3372001 64.4420836,30.7368592 C63.7774637,30.59267 63.5543962,29.8683382 64.0489187,29.4574865 C65.1730173,28.5233505 67.61746,27.2093023 72.4737276,27.2093023" id="Fill-34" fill="#7F7F7F" mask="url(#mask-6)"></path>
                        <path d="M38.4656602,35.5813953 L38.9538143,35.5813953 C39.2271173,35.5813953 39.4767236,35.4112192 39.5933645,35.1426556 C39.875488,34.4942703 40.4951593,33.26271 41.4457958,32.3872325 C41.8138861,32.0481673 41.5935058,31.3953488 41.1110127,31.3953488 L38.4656602,31.3953488 L38.4656602,35.5813953 Z" id="Fill-35" fill="#7F7F7F" mask="url(#mask-6)"></path>
                        <path d="M65.8903178,39.244186 C65.8903178,41.8449937 63.7652344,43.9534884 61.1438066,43.9534884 C58.5222504,43.9534884 56.3971671,41.8449937 56.3971671,39.244186 C56.3971671,36.6432511 58.5222504,34.5348837 61.1438066,34.5348837 C63.7652344,34.5348837 65.8903178,36.6432511 65.8903178,39.244186" id="Fill-36" fill="#AFAFAF" mask="url(#mask-6)"></path>
                        <path d="M102.808126,39.244186 C102.808126,41.8449937 100.683043,43.9534884 98.0614865,43.9534884 C95.4400586,43.9534884 93.3149753,41.8449937 93.3149753,39.244186 C93.3149753,36.6432511 95.4400586,34.5348837 98.0614865,34.5348837 C100.683043,34.5348837 102.808126,36.6432511 102.808126,39.244186" id="Fill-37" fill="#AFAFAF" mask="url(#mask-6)"></path>
                    </g>
                </g>
                <g id="Group-91-Copy" transform="translate(32.000000, 13.000000)">
                    <path d="M37.0169534,19.4557379 C36.8904534,19.5630828 36.0036259,19.4671172 35.8044879,19.3095138 C35.6057293,19.1519103 34.0243845,19.1993241 34.0243845,19.1993241 L34.2229534,18.238531 C34.2229534,18.238531 35.12685,18.3830483 35.3665741,18.332031 C35.6062983,18.2810138 36.7588328,17.7158414 37.1449707,17.8886172 C37.5311086,18.0615828 38.4526431,19.1727724 38.1571603,19.6196 C38.1571603,19.6196 37.6885224,19.5930483 37.2921431,19.1132207" id="Fill-1" fill="#C7A288"></path>
                    <polygon id="Fill-3" fill="#BEBDC0" points="48.8320534 20.0208155 51.5615707 20.0208155 49.6627431 21.9987293"></polygon>
                    <path d="M42.8373569,19.2383931 L46.2390121,17.787531 C47.0998569,17.4283241 48.0602707,18.0149276 48.1338569,18.9449966 L48.2611155,20.5542207 C48.2927879,20.9553414 48.2167362,21.3574103 48.0407362,21.7190828 L45.8919431,26.132169 L42.8373569,19.2383931 Z" id="Fill-5" fill="#434343"></path>
                    <path d="M45.9681466,20.1263017 C45.9681466,20.1263017 49.0932845,19.8890431 49.7261638,20.1263017 C49.7261638,20.1263017 52.8513017,23.844681 49.5678017,27.0092672 L46.9175603,27.0092672 L42.4872155,20.5219224 L45.9681466,20.1263017 Z" id="Fill-7" fill="#BEBDC0"></path>
                    <path d="M56.6597672,51.0549069 C52.5897672,51.2908379 49.0993534,48.182769 48.8634224,44.112769 C48.6273017,40.0429586 51.7353707,36.5525448 55.8053707,36.3166138 C59.875181,36.0804931 63.3657845,39.1887517 63.6017155,43.2585621 C63.8376466,47.3283724 60.7295776,50.8189759 56.6597672,51.0549069 M66.7712328,41.351769 C65.4793017,35.5359931 59.7171983,31.8688207 53.9014224,33.1607517 C48.0856466,34.4528724 44.4182845,40.2149759 45.7105948,46.0307517 C47.0025259,51.8465276 52.7646293,55.5137 58.5804052,54.221769 C64.396181,52.9296483 68.0633534,47.1675448 66.7712328,41.351769" id="Fill-9" fill="#434343"></path>
                    <g id="Group-13" transform="translate(2.086207, 33.373431)">
                        <mask id="mask-8" fill="white">
                            <use xlink:href="#path-7"></use>
                        </mask>
                        <g id="Clip-12"></g>
                        <path d="M18.3355397,12.0344172 C17.6681431,16.1503138 13.7906431,18.9460207 9.67474655,18.2788138 C5.55885,17.6116069 2.7631431,13.7341069 3.43035,9.61821034 C4.0975569,5.50212414 7.9750569,2.70641724 12.0909534,3.37362414 C16.20685,4.04102069 19.0027466,7.91833103 18.3355397,12.0344172 M10.8898672,0.0463137931 C4.93222931,0.0463137931 0.102660345,4.87588276 0.102660345,10.8335207 C0.102660345,16.7911586 4.93222931,21.6207276 10.8898672,21.6207276 C16.8473155,21.6207276 21.6770741,16.7911586 21.6770741,10.8335207 C21.6770741,4.87588276 16.8473155,0.0463137931 10.8898672,0.0463137931" id="Fill-11" fill="#434343" mask="url(#mask-8)"></path>
                    </g>
                    <polygon id="Fill-14" fill="#434343" points="30.9879862 30.2571121 42.1725207 30.2571121 39.2011931 41.3350603 31.7936414 40.5840259"></polygon>
                    <path d="M38.456019,42.7035931 C38.456019,44.5330069 36.9731052,46.015731 35.143881,46.015731 C33.3146569,46.015731 31.8315534,44.5330069 31.8315534,42.7035931 C31.8315534,41.1546793 32.8951397,39.8540241 34.3315879,39.4917828 C34.5914155,39.4263517 34.8635707,39.3914552 35.143881,39.3914552 C36.9731052,39.3914552 38.456019,40.874369 38.456019,42.7035931" id="Fill-16" fill="#766D78"></path>
                    <path d="M21.4774431,42.7035931 C19.5473224,40.6904034 31.6410638,34.7686103 37.1344259,40.0563862 L37.2624431,44.4637828 L34.6057534,45.9715414 C34.6057534,45.9715414 23.7963569,45.1222655 21.4774431,42.7035931" id="Fill-18" fill="#BEBDC0"></path>
                    <path d="M4.12807241,40.8722448 C5.49776207,37.3215207 8.94246897,34.802331 12.9760552,34.802331 C18.2122448,34.802331 22.4569172,39.0470034 22.4569172,44.2831931 C22.4569172,44.3436931 22.4557793,44.4040034 22.4546414,44.4643138 L23.1523828,44.2005034 L25.1877621,44.9801759 C25.2006586,44.7493655 25.2078655,44.5170379 25.2078655,44.2831931 C25.2078655,37.5276759 19.7313828,32.0513828 12.9760552,32.0513828 C6.76086552,32.0513828 1.62841724,36.6871241 0.847417241,42.6895207 C1.22900345,42.738831 2.62088276,42.7632966 4.12807241,40.8722448" id="Fill-20" fill="#C8C3CA"></path>
                    <polygon id="Fill-22" fill="#E8E8E8" points="13.2322603 42.1708328 17.5252948 29.63785 20.5201397 30.8561948 16.2271052 43.3889879"></polygon>
                    <path d="M30.0402603,32.9018155 L17.5831397,32.9018155 C15.0349328,32.9018155 12.969019,31.0268845 12.969019,28.71385 L12.969019,28.0178155 L24.6591741,28.0178155 C27.6312603,28.0178155 30.0402603,30.2045397 30.0402603,32.9018155" id="Fill-24" fill="#434343"></path>
                    <path d="M60.4013793,35.2384241 C60.4013793,35.2384241 63.0136897,35.559131 63.5020517,33.9104586 C60.7573621,31.8946138 57.1901379,31.0284586 53.6045172,31.8250103 C47.5372586,33.1728897 43.5326897,38.8113379 44.0718793,44.8402862 C44.4549828,44.805769 45.8189828,44.5277345 46.8801034,42.3548552 C47.4471724,38.5917172 50.2637414,35.3852172 54.2013621,34.5105276 C56.3761379,34.0272862 58.542569,34.333769 60.4013793,35.2386138 L60.4013793,35.2384241 Z" id="Fill-26" fill="#C8C3CA"></path>
                    <path d="M56.9033224,42.1295448 L45.0878052,22.5273552 C44.6997707,22.706769 44.309081,22.881631 43.9199086,23.0602862 C43.6035638,23.2055621 43.2893052,23.355769 42.9813052,23.5184931 C42.8635293,23.5807 42.74765,23.6463207 42.6317707,23.7117517 C42.5779086,23.7472172 42.5240466,23.7824931 42.4707534,23.8190966 C42.4030466,23.8657517 42.3359086,23.9135448 42.2699086,23.9624759 L54.2003569,43.7554586 C54.5969259,44.4131828 55.4494259,44.6280621 56.1103741,44.2369931 L56.4178052,44.0551138 C57.0863397,43.6594931 57.3042534,42.7948552 56.9033224,42.1295448" id="Fill-28" fill="#C8C3CA"></path>
                    <path d="M53.5224914,42.3860534 L40.476681,20.7429845 C40.3230603,20.4882776 40.0924397,20.2891397 39.817819,20.1743983 L37.1275603,19.0506914 C36.4112328,18.7517948 36.0757328,17.9267948 36.3795603,17.2127431 C36.671819,16.5260017 37.4518707,16.1897431 38.1516983,16.4486224 L42.0931121,17.906881 C42.390681,18.016881 42.6417845,18.2247431 42.8054569,18.496519 L56.2254569,40.7601397 C56.6263879,41.42545 56.4082845,42.2900879 55.73975,42.6857086 L55.432319,42.8675879 C54.7713707,43.2586569 53.9188707,43.0435879 53.5224914,42.3860534" id="Fill-30" fill="#C8C3CA"></path>
                    <path d="M25.4409328,47.3158931 L10.5476914,47.3158931 C9.40900172,47.3158931 8.48613966,46.3928414 8.48613966,45.2543414 L8.48613966,44.7652207 C8.48613966,43.626531 9.40900172,42.703669 10.5476914,42.703669 L25.4409328,42.703669 C26.5796224,42.703669 27.5026741,43.626531 27.5026741,44.7652207 L27.5026741,45.2543414 C27.5026741,46.3928414 26.5796224,47.3158931 25.4409328,47.3158931" id="Fill-32" fill="#E8E8E8"></path>
                    <g id="Group-36" transform="translate(0.000000, 44.183776)">
                        <mask id="mask-10" fill="white">
                            <use xlink:href="#path-9"></use>
                        </mask>
                        <g id="Clip-35"></g>
                        <path d="M12.3615914,2.08770517 L0.915901724,2.08770517 C0.410091379,2.08770517 -0.000132758621,1.67767069 -0.000132758621,1.17186034 L-0.000132758621,0.954515517 C-0.000132758621,0.448705172 0.410091379,0.0384810345 0.915901724,0.0384810345 L12.3615914,0.0384810345 C12.8675914,0.0384810345 13.2776259,0.448705172 13.2776259,0.954515517 L13.2776259,1.17186034 C13.2776259,1.67767069 12.8675914,2.08770517 12.3615914,2.08770517" id="Fill-34" fill="#E8E8E8" mask="url(#mask-10)"></path>
                    </g>
                    <path d="M36.7107931,46.271481 L25.2651034,46.271481 C24.7592931,46.271481 24.349069,45.8614466 24.349069,45.3556362 L24.349069,45.1382914 C24.349069,44.632481 24.7592931,44.2222569 25.2651034,44.2222569 L36.7107931,44.2222569 C37.2166034,44.2222569 37.6268276,44.632481 37.6268276,45.1382914 L37.6268276,45.3556362 C37.6268276,45.8614466 37.2166034,46.271481 36.7107931,46.271481" id="Fill-37" fill="#E8E8E8"></path>
                    <path d="M44.2775603,32.2280276 L38.4725948,45.8103724 C38.2738362,46.2755966 37.7355948,46.4914241 37.2703707,46.2926655 L37.0704741,46.207131 C36.6054397,46.0083724 36.3894224,45.470131 36.588181,45.0050966 L42.3933362,31.4227517 C42.5920948,30.9575276 43.1303362,30.7417 43.5955603,30.9404586 L43.7954569,31.0258034 C44.2604914,31.2245621 44.4765086,31.7628034 44.2775603,32.2280276" id="Fill-39" fill="#E8E8E8"></path>
                    <path d="M17.0738966,34.0075241 C17.0738966,34.0075241 14.4936379,39.7366276 18.5845,41.9404207 C18.5845,41.9404207 25.2292586,41.2294034 24.743931,36.6953172 C24.743931,36.6953172 23.0852069,33.2141966 17.0738966,34.0075241" id="Fill-41" fill="#434343"></path>
                    <path d="M29.2618207,35.3634448 C29.2618207,37.192669 28.0220448,38.6755828 26.4926655,38.6755828 C24.9632862,38.6755828 23.7235103,37.192669 23.7235103,35.3634448 C23.7235103,33.5342207 24.9632862,32.0513069 26.4926655,32.0513069 C28.0220448,32.0513069 29.2618207,33.5342207 29.2618207,35.3634448" id="Fill-43" fill="#434343"></path>
                    <path d="M46.0263138,28.5019672 C46.0263138,28.5019672 47.7502793,27.4935707 48.3871414,27.8700362 C48.3871414,27.8700362 48.9733655,30.6883121 47.7019172,30.9930879 C47.7019172,30.9930879 45.4501414,30.600881 45.5563483,29.9247603 L46.0263138,28.5019672 Z" id="Fill-45" fill="#434343"></path>
                    <path d="M3.88506724,34.6061138 C3.88506724,34.6061138 1.52291207,33.5977172 0.650118966,33.9741828 C0.650118966,33.9741828 -0.152881034,36.7924586 1.58910172,37.0972345 C1.58910172,37.0972345 4.67460172,36.7050276 4.52894655,36.0289069 L3.88506724,34.6061138 Z" id="Fill-47" fill="#434343"></path>
                    <path d="M28.7091655,30.4463879 C28.7091655,30.4463879 33.167769,32.2483017 42.4070103,31.2846638 C42.4070103,31.2846638 47.3338724,30.4150948 44.3263207,25.4305776 C44.3263207,25.4305776 39.5847517,18.8829224 28.1288207,25.6790259 C28.1288207,25.6790259 26.121131,27.0007328 28.7091655,30.4463879" id="Fill-49" fill="#FBB540"></path>
                    <path d="M14.2881466,27.1351983 L7.41333621,27.1351983 C3.1965431,27.4293534 6.97428448,31.9437155 6.97428448,31.9437155 C7.42831897,32.1659914 7.92730172,32.2888879 8.45112931,32.2888879 L18.7268362,32.2888879 C18.7268362,29.4427328 16.7396293,27.1351983 14.2881466,27.1351983" id="Fill-51" fill="#434343"></path>
                    <path d="M4.73648621,36.8100207 L2.81395172,36.8100207 C2.32445172,36.8100207 1.92750345,36.4130724 1.92750345,35.9235724 L1.92750345,34.8689 C1.92750345,34.3792103 2.32445172,33.9824517 2.81395172,33.9824517 L4.73648621,33.9824517 C5.22617586,33.9824517 5.62312414,34.3792103 5.62312414,34.8689 L5.62312414,35.9235724 C5.62312414,36.4130724 5.22617586,36.8100207 4.73648621,36.8100207" id="Fill-53" fill="#434343"></path>
                    <path d="M24.3948707,10.1545741 C22.5787328,10.7246776 19.4901983,8.93603966 19.4901983,8.93603966 C19.4901983,8.93603966 20.6340086,8.07898793 20.9833534,6.30741897 C21.0009914,6.21809138 21.0163534,6.12686724 21.0296293,6.03317759 C21.2204224,5.98235 21.579819,5.88657414 21.9646293,5.78435 L23.4348362,6.97159138 C23.4348362,6.97159138 23.4295259,7.49617759 23.2998017,8.4040569 C23.2774224,8.56241897 23.25125,8.73253966 23.2199569,8.91385 C23.9983017,9.34228103 24.3948707,10.1545741 24.3948707,10.1545741" id="Fill-55" fill="#C7A288"></path>
                    <path d="M23.4347414,6.97155345 C23.4347414,6.97155345 23.4296207,7.49613966 23.2997069,8.40401897 C21.9042241,8.03058793 21.2180517,6.82267414 20.9832586,6.30757069 C21.0010862,6.21805345 21.0162586,6.12682931 21.0295345,6.03313966 C21.2203276,5.98231207 21.5799138,5.88653621 21.9645345,5.78431207 L23.4347414,6.97155345 Z" id="Fill-57" fill="#ED975D"></path>
                    <path d="M24.2065241,7.75463966 C24.2065241,7.75463966 20.7115586,7.35408793 20.9943345,5.18139828 C21.2774897,3.00870862 21.0169034,1.4937431 23.2603345,1.65760517 C25.5037655,1.82146724 25.8286448,2.70677759 25.9103862,3.45496724 C25.9923172,4.2031569 25.1231276,7.80281207 24.2065241,7.75463966" id="Fill-59" fill="#FFB27D"></path>
                    <path d="M21.1077672,6.07932069 C21.1077672,6.07932069 21.0301983,5.34288966 21.4641293,4.89644138 C21.4641293,4.89644138 21.2676466,4.1639931 21.5542155,4.02687241 C21.8407845,3.88994138 21.9337155,4.50916552 22.0630603,4.40466552 C22.1924052,4.30016552 22.7664914,3.80573448 22.987819,3.10894138 C23.2089569,2.41233793 25.5972845,3.11994138 25.8770259,3.2289931 C26.1567672,3.33804483 24.5475431,-0.3608 22.4281466,0.310768966 C20.30875,0.982527586 20.0686466,2.02278621 20.2355431,2.8952 C20.402819,3.76780345 20.2127845,5.82954483 21.1077672,6.07932069" id="Fill-61" fill="#2B478B"></path>
                    <path d="M16.617719,24.0555207 C16.617719,24.0555207 16.5255466,27.7706759 17.2813224,28.8928655 C18.0372879,30.0150552 34.2078569,30.9250207 34.2078569,30.9250207 C34.2078569,30.9250207 34.4720466,28.5596414 33.8901845,27.8983138 C33.3087017,27.2369862 30.5050293,25.2450379 21.1774086,23.483331 L16.617719,24.0555207 Z" id="Fill-63" fill="#BDBDBD"></path>
                    <path d="M17.0349983,16.2979983 C17.0386017,19.4955845 16.29705,24.2987914 16.5276707,25.1602052 C16.7262397,25.9032741 19.69605,25.713619 20.8868948,25.5685328 C21.3278431,25.5142914 21.863619,25.4302741 22.4183603,25.3236879 C23.9653776,25.0270672 25.6631707,24.5610845 25.8765328,24.1292397 C25.8848776,24.1123603 25.8918948,24.09605 25.8968259,24.07955 C25.9190155,24.0163948 25.9205328,23.9551362 25.9093431,23.89255 C25.8795672,23.7207224 25.7579983,23.5314466 25.7047052,23.215481 C25.686119,23.1045328 25.6762569,22.9780328 25.6811879,22.8306707 C25.7007224,22.2531707 25.7566707,21.5846362 25.7959293,20.8631879 C25.7991534,20.7969983 25.8025672,20.7302397 25.805981,20.663481 C25.8116707,20.5733948 25.8184983,20.4759121 25.8152741,20.3858259 L25.8171707,20.3528259 C25.8184983,20.3361362 25.8190672,20.3192569 25.8198259,20.3021879 C25.86705,19.4125155 25.8913259,18.4758086 25.9074466,17.54555 C25.9121879,17.2557569 25.9150328,16.9671017 25.9157914,16.6816707 C25.917119,16.5809638 25.9167397,16.4806362 25.917119,16.3808776 C25.9167397,16.1946362 25.9163603,16.0095328 25.9142741,15.8270845 C25.8987224,14.393481 25.8239983,13.113119 25.6542569,12.2939983 C25.3762224,10.9582569 24.5976879,10.038619 23.876619,9.35244655 L23.3533603,8.87679138 C22.720481,8.94791207 21.9903086,8.80642931 21.3468086,8.46922241 C20.6513431,8.10223966 20.4205328,7.86156724 20.2879638,7.93477414 C18.5281534,8.95227414 17.0416362,12.3890155 17.0349983,16.2979983" id="Fill-65" fill="#5C63AB"></path>
                    <path d="M27.4076948,42.6165414 C27.4076948,42.6165414 27.3623672,44.9299552 27.8050224,44.999369 C27.8638155,45.0086621 30.0632466,45.1884552 30.0632466,45.1884552 L32.8722293,45.4016276 C32.8722293,45.4016276 32.9092121,44.7234207 32.1001431,44.5132828 C31.2912638,44.3033345 29.9644362,43.6143172 29.555919,42.4889034 C29.12635,41.3050759 27.4076948,42.6165414 27.4076948,42.6165414" id="Fill-67" fill="#585858"></path>
                    <path d="M26.8083466,42.7185 C26.8083466,42.7185 27.317381,43.1805 28.4187086,43.324069 C28.7024328,43.3606724 28.9647259,43.3673103 29.1959155,43.3565 C29.8119155,43.3291897 30.2071569,43.1841034 30.2071569,43.1841034 L34.2081224,30.9246034 C34.2081224,30.9246034 31.2110017,27.8411897 29.3836741,29.4568621 C29.1454672,29.6677586 28.9256569,30.0487759 28.7234845,30.5528793 C27.3738983,33.9126207 26.8083466,42.7185 26.8083466,42.7185" id="Fill-69" fill="#BDBDBD"></path>
                    <path d="M21.9302828,14.26755 C21.9302828,14.26755 23.3948,22.087981 25.7046103,23.215481 C25.6862138,23.1045328 25.6761621,22.9780328 25.6810931,22.8306707 C25.7008172,22.2531707 25.7567655,21.5846362 25.7960241,20.8631879 C25.7990586,20.7969983 25.8024724,20.7302397 25.8060759,20.663481 C25.8117655,20.5735845 25.8184034,20.4759121 25.8151793,20.3858259 L25.8170759,20.3528259 C25.8184034,20.3361362 25.8191621,20.3192569 25.8199207,20.3021879 C25.8671448,19.4125155 25.8914207,18.4758086 25.9075414,17.54555 C25.9120931,17.2557569 25.9151276,16.9671017 25.9158862,16.6816707 C24.9691276,15.3267741 23.6180241,14.2980845 21.9302828,14.26755" id="Fill-71" fill="#5C63AB"></path>
                    <path d="M22.26015,10.2333 C22.26015,10.2333 27.524219,15.5189897 28.9754603,16.1055931 C30.4268914,16.6923862 35.6054259,18.1451448 35.6054259,18.1451448 C35.6054259,18.1451448 35.6486672,19.4027483 35.1168741,19.830231 C35.1168741,19.830231 28.387719,18.8857483 27.5602534,18.6386276 C26.7329776,18.3916966 20.725081,14.6281793 20.2333052,14.3408517 C19.7419086,14.0535241 20.1807707,9.66319655 22.26015,10.2333" id="Fill-73" fill="#5C63AB"></path>
                    <path d="M26.8083466,42.7185 C26.8083466,42.7185 27.317381,43.1805 28.4187086,43.324069 C28.7024328,43.3606724 28.9647259,43.3673103 29.1959155,43.3565 C27.6722259,41.0685 28.7234845,30.5528793 28.7234845,30.5528793 C27.3738983,33.9126207 26.8083466,42.7185 26.8083466,42.7185" id="Fill-75" fill="#939393"></path>
                    <g id="Group-79" transform="translate(18.965517, 0.183776)">
                        <mask id="mask-12" fill="white">
                            <use xlink:href="#path-11"></use>
                        </mask>
                        <g id="Clip-78"></g>
                        <path d="M8.59608276,3.46706724 L8.13635862,7.32617069 C8.10828966,7.40715345 8.08003103,7.48320517 8.05670345,7.55394655 C7.85016897,8.11589483 7.31135862,8.49065345 6.71470345,8.50563621 C6.5241,8.51056724 6.33785862,8.48003276 6.16034138,8.40929138 L4.45325517,7.75005 L0.586944828,6.26694655 C0.307962069,6.14860172 0.125703448,5.88232586 0.118496552,5.59158448 L0.0881517241,4.38841207 C0.0430137931,2.59863621 1.36661724,0.700946552 3.0243931,0.197791379 C3.43253103,0.0771706897 3.8473069,0.01155 4.25847931,0.00623965517 C5.11097931,-0.00513965517 5.96632414,0.229084483 6.69535862,0.692412069 C7.68953103,1.32453276 8.37741034,2.34886034 8.59608276,3.46706724" id="Fill-77" fill="#FFBB00" mask="url(#mask-12)"></path>
                    </g>
                    <g id="Group-82" transform="translate(23.137931, 0.183776)">
                        <mask id="mask-14" fill="white">
                            <use xlink:href="#path-13"></use>
                        </mask>
                        <g id="Clip-81"></g>
                        <path d="M4.42366897,3.46706724 L3.96394483,7.32617069 C3.93587586,7.40715345 3.90761724,7.48320517 3.88428966,7.55394655 C3.67775517,8.11589483 3.13894483,8.49065345 2.54228966,8.50563621 C2.35168621,8.51056724 2.16544483,8.48003276 1.98792759,8.40929138 L0.280841379,7.75005 L0.0860655172,0.00623965517 C0.938565517,-0.00513965517 1.79391034,0.229084483 2.52294483,0.692412069 C3.51711724,1.32453276 4.20499655,2.34886034 4.42366897,3.46706724" id="Fill-80" fill="#FFBB00" mask="url(#mask-14)"></path>
                    </g>
                    <path d="M21.1077672,5.79464828 C20.5547328,5.80868276 20.093681,5.3702 20.0798362,4.81735517 C20.0659914,4.26432069 20.5042845,3.80326897 21.0571293,3.78942414 C21.6101638,3.77557931 22.0712155,4.21387241 22.0850603,4.7669069 C22.0990948,5.31975172 21.6606121,5.78080345 21.1077672,5.79464828" id="Fill-83" fill="#57555C"></path>
                    <path d="M27.5616,3.6508431 L24.5576517,3.35251552 L24.0673931,3.80351552 L24.1131,5.62117069 L24.6335138,6.36063621 L27.1018759,7.50994655 L27.3304103,7.61956724 C27.3658759,7.63379138 27.4011517,7.64289483 27.4413586,7.64194655 C27.4864966,7.64080862 27.5314448,7.62961897 27.5708931,7.60344655 C27.644669,7.55148103 27.6879103,7.47011897 27.6856345,7.38496379 L27.5966862,3.84561897 C27.5849276,3.7807569 27.5782897,3.71570517 27.5616,3.6508431" id="Fill-85" fill="#3C3A41"></path>
                    <path d="M24.5576707,3.35014483 L24.6331534,6.35807586 L23.5318259,5.84392069 C23.4709466,5.81547241 23.4149983,5.78171379 23.3636017,5.73790345 C23.2046707,5.60154138 23.1043431,5.39823103 23.0988431,5.18278276 L23.0703948,4.05471379 C23.0650845,3.83926552 23.1551707,3.63633448 23.3070845,3.4920069 L23.3120155,3.48688621 C23.4688603,3.33743793 23.6827914,3.26688621 23.8988086,3.28661034 L24.5576707,3.35014483 Z" id="Fill-87" fill="#57555C"></path>
                    <path d="M24.5576707,3.35014483 L24.6331534,6.35807586 L23.5318259,5.84392069 C23.4709466,5.81547241 23.4149983,5.78171379 23.3636017,5.73790345 L23.3070845,3.4920069 L23.3120155,3.48688621 C23.4688603,3.33743793 23.6827914,3.26688621 23.8988086,3.28661034 L24.5576707,3.35014483 Z" id="Fill-89" fill="#3C3A41"></path>
                </g>
            </g>
        </g>
    </g>
</svg>