<?xml version="1.0" encoding="UTF-8"?>
<svg width="80px" height="80px" viewBox="0 0 80 80" version="1.1" xmlns="http://www.w3.org/2000/svg" xmlns:xlink="http://www.w3.org/1999/xlink">
    <title>Group 13 Copy 6</title>
    <defs>
        <rect id="path-1" x="0" y="0" width="80" height="80"></rect>
        <polygon id="path-3" points="0 0.158183333 110.909577 0.158183333 110.909577 0.5 0 0.5"></polygon>
        <polygon id="path-5" points="0 31.9324754 110.909577 31.9324754 110.909577 0.0927536232 0 0.0927536232"></polygon>
        <polygon id="path-7" points="0.0470978749 0.0210517241 9.94487334 0.0210517241 9.94487334 9.82758621 0.0470978749 9.82758621"></polygon>
        <polygon id="path-9" points="0 0.0174913793 6.09142666 0.0174913793 6.09142666 0.948956897 0 0.948956897"></polygon>
        <polygon id="path-11" points="0.0399273732 0.00267241379 3.94365742 0.00267241379 3.94365742 3.86643128 0.0399273732 3.86643128"></polygon>
        <polygon id="path-13" points="0.039484603 0.00267241379 2.02946335 0.00267241379 2.02946335 3.86643128 0.039484603 3.86643128"></polygon>
    </defs>
    <g id="Desktop" stroke="none" stroke-width="1" fill="none" fill-rule="evenodd">
        <g id="Group-13-Copy-6">
            <mask id="mask-2" fill="white">
                <use xlink:href="#path-1"></use>
            </mask>
            <g id="Mask"></g>
            <g id="Group-5" mask="url(#mask-2)">
                <g transform="translate(-60.000000, 39.000000)">
                    <g id="Group-38" opacity="0.239467076" stroke-width="1" fill="none">
                        <g id="Group-3" transform="translate(0.000000, 31.654214)">
                            <mask id="mask-4" fill="white">
                                <use xlink:href="#path-3"></use>
                            </mask>
                            <g id="Clip-2"></g>
                            <path d="M110.812848,0.500016667 L0.0967663265,0.500016667 C0.0435316327,0.500016667 -7.55102041e-05,0.423183333 -7.55102041e-05,0.329183333 C-7.55102041e-05,0.235183333 0.0435316327,0.158183333 0.0967663265,0.158183333 L110.812848,0.158183333 C110.865988,0.158183333 110.909595,0.235183333 110.909595,0.329183333 C110.909595,0.423183333 110.865988,0.500016667 110.812848,0.500016667" id="Fill-1" fill="#283250" mask="url(#mask-4)"></path>
                        </g>
                        <path d="M89.3367832,2.04901101 L14.4662449,2.04901101 C13.1969184,2.04901101 12.1678087,3.06021101 12.1678087,4.30765449 L12.1678087,24.871782 C12.1678087,25.4260777 12.5701837,25.90144 13.1248061,26.0023559 L19.4266046,27.148698 L26.4273444,27.148698 C26.4273444,24.7260661 28.4260051,22.7620081 30.8914133,22.7620081 C33.3568214,22.7620081 35.3553878,24.7260661 35.3553878,27.148698 L77.0195587,27.148698 C77.0195587,24.7260661 79.018125,22.7620081 81.4835332,22.7620081 C83.9489413,22.7620081 85.947602,24.7260661 85.947602,27.148698 L90.496148,27.148698 C91.1252423,27.148698 91.6353138,26.6476429 91.6353138,26.02944 L91.6353138,4.30765449 C91.6353138,3.06021101 90.6061097,2.04901101 89.3367832,2.04901101" id="Fill-9" fill="#C3C9D2"></path>
                        <path d="M85.1689691,24.6731501 C85.6600686,25.3777994 85.9475737,26.230298 85.9475737,27.1487443 L90.4961196,27.1487443 C91.125214,27.1487443 91.6352855,26.6476893 91.6352855,26.0294864 C91.6352855,25.2804081 91.0173288,24.6731501 90.2550533,24.6731501 L85.1689691,24.6731501 Z" id="Fill-11" fill="#7F7F7F"></path>
                        <path d="M34.5768587,24.6731501 C35.0678638,25.3777994 35.3553689,26.230298 35.3553689,27.1487443 L77.0195398,27.1487443 C77.0195398,26.230298 77.3070449,25.3777994 77.79805,24.6731501 L34.5768587,24.6731501 Z" id="Fill-15" fill="#7F7F7F"></path>
                        <mask id="mask-6" fill="white">
                            <use xlink:href="#path-5"></use>
                        </mask>
                        <g id="Clip-18"></g>
                        <polyline id="Fill-20" fill="#AFAFAF" mask="url(#mask-6)" points="91.1111597 18.3708012 91.6352949 18.3708012 91.6352949 23.153178 91.1111597 23.153178"></polyline>
                        <path d="M91.635276,16.1065832 L91.635276,16.1065832 L91.635276,6.6309658 C91.635276,5.76576 90.9215158,5.0643571 90.0410668,5.0643571 L86.3377633,5.0643571 C85.4573143,5.0643571 84.7434597,5.76576 84.7434597,6.6309658 L84.7434597,9.33417739 C84.7434597,13.0744672 87.8290898,16.1065832 91.635276,16.1065832" id="Fill-21" fill="#163560" mask="url(#mask-6)"></path>
                        <path d="M41.1395732,16.1065832 L59.1463028,16.1065832 C60.0268462,16.1065832 60.740512,15.4051803 60.740512,14.5399745 L60.740512,6.6309658 C60.740512,5.76576 60.0268462,5.0643571 59.1463028,5.0643571 L41.1395732,5.0643571 C40.2591242,5.0643571 39.545364,5.76576 39.545364,6.6309658 L39.545364,14.5399745 C39.545364,15.4051803 40.2591242,16.1065832 41.1395732,16.1065832" id="Fill-22" fill="#AFAFAF" mask="url(#mask-6)"></path>
                        <path d="M77.2722064,16.1065832 L81.7478849,16.1065832 C82.6282395,16.1065832 83.3420941,15.4051803 83.3420941,14.5399745 L83.3420941,6.6309658 C83.3420941,5.76576 82.6282395,5.0643571 81.7478849,5.0643571 L77.2722064,5.0643571 C76.3917574,5.0643571 75.6779972,5.76576 75.6779972,6.6309658 L75.6779972,14.5399745 C75.6779972,15.4051803 76.3917574,16.1065832 77.2722064,16.1065832" id="Fill-23" fill="#AFAFAF" mask="url(#mask-6)"></path>
                        <path d="M91.635276,16.1065832 L91.635276,16.1065832 L91.635276,6.6309658 C91.635276,5.76576 90.9215158,5.0643571 90.0410668,5.0643571 L86.3377633,5.0643571 C85.4573143,5.0643571 84.7434597,5.76576 84.7434597,6.6309658 L84.7434597,9.33417739 C84.7434597,13.0744672 87.8290898,16.1065832 91.635276,16.1065832" id="Fill-24" fill="#AFAFAF" mask="url(#mask-6)"></path>
                        <path d="M73.2179503,5.06436638 L67.6510548,5.06436638 L66.9923227,5.06436638 L63.248338,5.06436638 C62.8373737,5.06436638 62.5042793,5.39169391 62.5042793,5.79554319 L62.5042793,27.1487258 L66.9923227,27.1487258 L67.6510548,27.1487258 L73.9619145,27.1487258 L73.9619145,5.79554319 C73.9619145,5.39169391 73.6289145,5.06436638 73.2179503,5.06436638" id="Fill-27" fill="#AFAFAF" mask="url(#mask-6)"></path>
                        <path d="M85.6240408,27.1098899 C85.6240408,29.3587014 83.7689439,31.1816812 81.4805128,31.1816812 C79.1919872,31.1816812 77.3368903,29.3587014 77.3368903,27.1098899 C77.3368903,24.8610783 79.1919872,23.0380986 81.4805128,23.0380986 C83.7689439,23.0380986 85.6240408,24.8610783 85.6240408,27.1098899" id="Fill-29" fill="#AFAFAF" mask="url(#mask-6)"></path>
                        <path d="M64.3567523,23.2522296 L64.3566579,23.2522296 C63.8199691,23.2325658 63.2624207,23.2219919 62.683163,23.2219919 C62.683163,23.2219919 59.4771885,20.4878933 55.7685048,19.557389 C59.5815814,20.4826991 64.3567523,23.2522296 64.3567523,23.2522296" id="Fill-31" fill="#7F7F7F" mask="url(#mask-6)"></path>
                        <path d="M35.3196997,25.3046725 L35.3196997,22.2860058 C35.3196997,22.2860058 38.9235186,21.881229 41.1029319,21.1055304 C46.1484293,19.2842203 48.859812,19.2505507 53.4418656,19.2505507 C56.9207151,19.2505507 60.4440212,21.5398029 61.9390288,22.6421797 C62.4429651,23.0138435 63.0538426,23.2191072 63.6838809,23.2326493 C69.1869702,23.3510957 72.5888936,24.4306551 74.2784344,25.1594203 C75.0701589,25.5009391 75.579664,26.2719072 75.579664,27.1215304 L75.579664,28.1378319 C75.6934013,28.1378319 75.7856181,28.2284522 75.7856181,28.3402203 L75.7856181,30.0265739 C75.7856181,30.138342 75.6934013,30.2289623 75.579664,30.2289623 L73.2286538,30.2289623 L72.2958196,30.2289623 C72.6210798,29.6561159 72.8006054,28.992371 72.7824829,28.2856812 C72.731136,26.2730203 71.0583018,24.6338783 69.0100875,24.5893565 C66.8374702,24.5421449 65.0612814,26.2586435 65.0612814,28.3827942 C65.0612814,29.0531246 65.2388247,29.682458 65.5492661,30.2289623 L45.3442457,30.2289623 C45.6696003,29.6561159 45.8490314,28.992371 45.8309089,28.2856812 C45.779562,26.2730203 44.1068222,24.6338783 42.0585135,24.5893565 C39.8859906,24.5421449 38.1097074,26.2586435 38.1097074,28.3827942 C38.1097074,29.0531246 38.2872508,29.682458 38.5976921,30.2289623 L37.7909599,30.2289623 C34.9987814,30.2289623 34.6031079,27.4229797 34.5768311,26.0473507 C34.5692227,25.639142 34.9042992,25.3046725 35.3196997,25.3046725" id="Fill-32" fill="#C4C4C4" mask="url(#mask-6)"></path>
                        <path d="M55.2107204,19.795571 C58.3984781,20.5883362 61.8164474,23.2978551 61.8164474,23.2978551 L52.7689092,23.1076174 C52.4140112,23.1001971 52.0944143,22.8948406 51.9451872,22.5783652 L50.5588199,19.6383536 L53.9135495,19.6383536 C54.3509423,19.6383536 54.7867306,19.6901101 55.2107204,19.795571" id="Fill-33" fill="#7F7F7F" mask="url(#mask-6)"></path>
                        <path d="M72.3941811,28.2940754 C72.3941811,30.1894029 70.830648,31.7259594 68.9018342,31.7259594 C66.9731148,31.7259594 65.4095816,30.1894029 65.4095816,28.2940754 C65.4095816,26.3986551 66.9731148,24.8621913 68.9018342,24.8621913 C70.830648,24.8621913 72.3941811,26.3986551 72.3941811,28.2940754" id="Fill-37" fill="#AFAFAF" mask="url(#mask-6)"></path>
                    </g>
                    <path d="M107.541995,32.4511723 C127.635092,33.5918772 113.982698,35.9613498 82.8970271,36.7747928 C51.8113566,37.5882358 7.71457767,36.0694928 0.402953122,34.2771035 C-6.90867142,32.4847142 87.448898,31.3104675 107.541995,32.4511723 Z" id="Background-Shape-Copy-4" fill="#D9E3E9"></path>
                    <g id="Group-91" stroke-width="1" fill="none" transform="translate(86.000000, 9.000000)">
                        <path d="M16.9824078,8.84351724 C16.9243729,8.89231034 16.5175197,8.84868966 16.4261604,8.77705172 C16.3349752,8.70541379 15.6094956,8.72696552 15.6094956,8.72696552 L15.7005939,8.29024138 C15.7005939,8.29024138 16.1152779,8.35593103 16.2252571,8.33274138 C16.3352362,8.30955172 16.8639888,8.05265517 17.0411388,8.13118966 C17.2182887,8.20981034 17.6410646,8.71489655 17.5055049,8.918 C17.5055049,8.918 17.2905061,8.90593103 17.1086576,8.68782759" id="Fill-1" fill="#C7A288"></path>
                        <polygon id="Fill-3" fill="#BEBDC0" points="22.402866 9.10037069 23.6550969 9.10037069 22.7839646 9.99942241"></polygon>
                        <path d="M19.6526563,8.74472414 L21.2132466,8.08524138 C21.6081796,7.92196552 22.0487923,8.18860345 22.0825517,8.61136207 L22.1409346,9.34282759 C22.1554651,9.52515517 22.1205745,9.70791379 22.0398304,9.87231034 L21.0540204,11.8782586 L19.6526563,8.74472414 Z" id="Fill-5" fill="#434343"></path>
                        <path d="M21.0889806,9.14831897 C21.0889806,9.14831897 22.5227119,9.04047414 22.8130603,9.14831897 C22.8130603,9.14831897 24.2467917,10.8384914 22.740408,12.2769397 L21.5245467,12.2769397 L19.4920206,9.32814655 L21.0889806,9.14831897 Z" id="Fill-7" fill="#BEBDC0"></path>
                        <path d="M25.9940158,23.2067759 C24.1268065,23.3140172 22.5254962,21.9012586 22.4172572,20.0512586 C22.3089312,18.2013448 23.7348318,16.6147931 25.6020411,16.5075517 C27.4691634,16.4002241 29.0705607,17.813069 29.1787997,19.6629828 C29.2870387,21.5128966 27.8611381,23.0995345 25.9940158,23.2067759 M30.6328911,18.7962586 C30.040187,16.1527241 27.396685,14.4858276 24.7285595,15.073069 C22.060434,15.6603966 20.3779445,18.2795345 20.9708226,20.923069 C21.5635267,23.5666034 24.2070287,25.2335 26.8751542,24.6462586 C29.5432797,24.058931 31.2256822,21.4397931 30.6328911,18.7962586" id="Fill-9" fill="#434343"></path>
                        <g id="Group-13" transform="translate(0.957097, 15.169741)">
                            <mask id="mask-8" fill="white">
                                <use xlink:href="#path-7"></use>
                            </mask>
                            <g id="Clip-12"></g>
                            <path d="M8.41186492,5.47018966 C8.10568087,7.34105172 6.32678553,8.61182759 4.43852009,8.30855172 C2.55025465,8.00527586 1.26765762,6.24277586 1.57375465,4.37191379 C1.87985168,2.50096552 3.65874703,1.23018966 5.54701247,1.53346552 C7.43527791,1.83682759 8.71796195,3.59924138 8.41186492,5.47018966 M4.99598561,0.0210517241 C2.26277751,0.0210517241 0.0470978749,2.21631034 0.0470978749,4.92432759 C0.0470978749,7.63234483 2.26277751,9.82760345 4.99598561,9.82760345 C7.7291067,9.82760345 9.94487334,7.63234483 9.94487334,4.92432759 C9.94487334,2.21631034 7.7291067,0.0210517241 4.99598561,0.0210517241" id="Fill-11" fill="#434343" mask="url(#mask-8)"></path>
                        </g>
                        <polygon id="Fill-14" fill="#434343" points="14.2164757 13.7532328 19.3476469 13.7532328 17.9844797 18.7886638 14.5860892 18.4472845"></polygon>
                        <path d="M17.6426134,19.4107241 C17.6426134,20.2422759 16.9622914,20.9162414 16.1230913,20.9162414 C15.2838912,20.9162414 14.6034822,20.2422759 14.6034822,19.4107241 C14.6034822,18.7066724 15.0914277,18.1154655 15.7504325,17.9508103 C15.8696346,17.921069 15.9944923,17.9052069 16.1230913,17.9052069 C16.9622914,17.9052069 17.6426134,18.5792586 17.6426134,19.4107241" id="Fill-16" fill="#766D78"></path>
                        <path d="M9.85328785,19.4107241 C8.96779908,18.4956379 14.5160906,15.8039138 17.0363011,18.2074483 L17.095032,20.2108103 L15.8762125,20.8961552 C15.8762125,20.8961552 10.9171447,20.5101207 9.85328785,19.4107241" id="Fill-18" fill="#BEBDC0"></path>
                        <path d="M1.8938514,18.5782931 C2.52222911,16.9643276 4.10257033,15.8192414 5.95307394,15.8192414 C8.35530048,15.8192414 10.3026449,17.7486379 10.3026449,20.1287241 C10.3026449,20.1562241 10.3021229,20.1836379 10.3016008,20.2110517 L10.6217063,20.0911379 L11.5554849,20.4455345 C11.5614015,20.3406207 11.5647079,20.2350172 11.5647079,20.1287241 C11.5647079,17.0580345 9.05224114,14.5688103 5.95307394,14.5688103 C3.10170786,14.5688103 0.74707514,16.6759655 0.388772815,19.4043276 C0.563834563,19.4267414 1.2023923,19.4378621 1.8938514,18.5782931" id="Fill-20" fill="#C8C3CA"></path>
                        <polygon id="Fill-22" fill="#E8E8E8" points="6.07061415 19.1685603 8.04014583 13.47175 9.41410213 14.0255431 7.44457045 19.7222672"></polygon>
                        <path d="M13.7816839,14.9553707 L8.06668352,14.9553707 C6.897633,14.9553707 5.94984591,14.1031293 5.94984591,13.05175 L5.94984591,12.7353707 L11.3129826,12.7353707 C12.6764979,12.7353707 13.7816839,13.7293362 13.7816839,14.9553707" id="Fill-24" fill="#434343"></path>
                        <path d="M27.7105694,16.0174655 C27.7105694,16.0174655 28.9090289,16.1632414 29.1330766,15.4138448 C27.8738849,14.4975517 26.237336,14.1038448 24.5923472,14.4659138 C21.808848,15.0785862 19.9716568,17.6415172 20.2190229,20.3819483 C20.3947807,20.3662586 21.0205481,20.2398793 21.5073625,19.2522069 C21.7675188,17.5416897 23.0596868,16.0841897 24.866164,15.6866034 C25.8638941,15.4669483 26.8577959,15.6062586 27.7105694,16.0175517 L27.7105694,16.0174655 Z" id="Fill-26" fill="#C8C3CA"></path>
                        <path d="M26.1057526,19.1497931 L20.685103,10.2397069 C20.507083,10.3212586 20.3278448,10.4007414 20.1493027,10.4819483 C20.004172,10.5479828 19.8599984,10.6162586 19.718696,10.6902241 C19.6646636,10.7185 19.6115012,10.7483276 19.5583388,10.778069 C19.5336283,10.7941897 19.5089178,10.8102241 19.4844683,10.8268621 C19.4534061,10.848069 19.422605,10.8697931 19.3923259,10.8920345 L24.8657028,19.8888448 C25.0476383,20.1878103 25.4387429,20.2854828 25.7419687,20.1077241 L25.88301,20.0250517 C26.1897161,19.8452241 26.2896892,19.4522069 26.1057526,19.1497931" id="Fill-28" fill="#C8C3CA"></path>
                        <path d="M24.5547159,19.2663879 L18.5696401,9.42862931 C18.499163,9.31285345 18.3933603,9.22233621 18.2673715,9.17018103 L17.0331514,8.65940517 C16.704519,8.5235431 16.5506004,8.1485431 16.6899886,7.82397414 C16.8240692,7.51181897 17.1819364,7.35897414 17.502999,7.47664655 L19.3112163,8.13949138 C19.4477332,8.18949138 19.5629328,8.28397414 19.6380215,8.40750862 L25.7947656,18.5273362 C25.9787023,18.82975 25.8786421,19.2227672 25.571936,19.4025948 L25.4308947,19.4852672 C25.127669,19.6630259 24.7365644,19.5652672 24.5547159,19.2663879" id="Fill-30" fill="#C8C3CA"></path>
                        <path d="M11.671633,21.5072241 L4.83900429,21.5072241 C4.31660333,21.5072241 3.8932184,21.0876552 3.8932184,20.5701552 L3.8932184,20.3478276 C3.8932184,19.8302414 4.31660333,19.4107586 4.83900429,19.4107586 L11.671633,19.4107586 C12.194034,19.4107586 12.6175059,19.8302414 12.6175059,20.3478276 L12.6175059,20.5701552 C12.6175059,21.0876552 12.194034,21.5072241 11.671633,21.5072241" id="Fill-32" fill="#E8E8E8"></path>
                        <g id="Group-36" transform="translate(0.000000, 20.083534)">
                            <mask id="mask-10" fill="white">
                                <use xlink:href="#path-9"></use>
                            </mask>
                            <g id="Clip-35"></g>
                            <path d="M5.67117406,0.948956897 L0.4201917,0.948956897 C0.188139174,0.948956897 -6.09061748e-05,0.762577586 -6.09061748e-05,0.532663793 L-6.09061748e-05,0.43387069 C-6.09061748e-05,0.203956897 0.188139174,0.0174913793 0.4201917,0.0174913793 L5.67117406,0.0174913793 C5.90331359,0.0174913793 6.09142666,0.203956897 6.09142666,0.43387069 L6.09142666,0.532663793 C6.09142666,0.762577586 5.90331359,0.948956897 5.67117406,0.948956897" id="Fill-34" fill="#E8E8E8" mask="url(#mask-10)"></path>
                        </g>
                        <path d="M16.8419495,21.0324914 L11.5909671,21.0324914 C11.3589146,21.0324914 11.1707145,20.8461121 11.1707145,20.6161983 L11.1707145,20.5174052 C11.1707145,20.2874914 11.3589146,20.1010259 11.5909671,20.1010259 L16.8419495,20.1010259 C17.074002,20.1010259 17.2622021,20.2874914 17.2622021,20.5174052 L17.2622021,20.6161983 C17.2622021,20.8461121 17.074002,21.0324914 16.8419495,21.0324914" id="Fill-37" fill="#E8E8E8"></path>
                        <path d="M20.3133839,14.6491034 L17.6502179,20.8228966 C17.5590327,21.0343621 17.3121016,21.1324655 17.098669,21.0421207 L17.0069617,21.0032414 C16.7936161,20.9128966 16.694513,20.6682414 16.7856983,20.4568621 L19.4489513,14.283069 C19.5401365,14.0716034 19.7870676,13.9735 20.0005002,14.0638448 L20.0922075,14.1026379 C20.3055531,14.1929828 20.4046562,14.4376379 20.3133839,14.6491034" id="Fill-39" fill="#E8E8E8"></path>
                        <path d="M7.83305613,15.4579655 C7.83305613,15.4579655 6.64930112,18.0621034 8.5260814,19.0638276 C8.5260814,19.0638276 11.5745225,18.7406379 11.3518669,16.6796897 C11.3518669,16.6796897 10.5908877,15.0973621 7.83305613,15.4579655" id="Fill-41" fill="#434343"></path>
                        <path d="M13.4245562,16.0742931 C13.4245562,16.9057586 12.8557796,17.5798103 12.1541404,17.5798103 C11.4525013,17.5798103 10.8837246,16.9057586 10.8837246,16.0742931 C10.8837246,15.2428276 11.4525013,14.5687759 12.1541404,14.5687759 C12.8557796,14.5687759 13.4245562,15.2428276 13.4245562,16.0742931" id="Fill-43" fill="#434343"></path>
                        <path d="M21.1156662,12.9554397 C21.1156662,12.9554397 21.9065763,12.4970776 22.198752,12.6681983 C22.198752,12.6681983 22.4676962,13.9492328 21.8843891,14.0877672 C21.8843891,14.0877672 20.8513334,13.9094914 20.9000583,13.6021638 L21.1156662,12.9554397 Z" id="Fill-45" fill="#434343"></path>
                        <path d="M1.782367,15.7300517 C1.782367,15.7300517 0.698672133,15.2716897 0.298257538,15.4428103 C0.298257538,15.4428103 -0.0701378107,16.7238448 0.729038212,16.8623793 C0.729038212,16.8623793 2.14458472,16.6841034 2.07776195,16.3767759 L1.782367,15.7300517 Z" id="Fill-47" fill="#434343"></path>
                        <path d="M13.1710125,13.8392672 C13.1710125,13.8392672 15.2165029,14.658319 19.4552246,14.2203017 C19.4552246,14.2203017 21.7155398,13.8250431 20.3357539,11.5593534 C20.3357539,11.5593534 18.1604464,8.58314655 12.9047655,11.6722845 C12.9047655,11.6722845 11.9836901,12.2730603 13.1710125,13.8392672" id="Fill-49" fill="#FBB540"></path>
                        <path d="M6.55502706,12.334181 L3.40104431,12.334181 C1.46649018,12.4678879 3.19961889,14.5198707 3.19961889,14.5198707 C3.407918,14.6209052 3.63683821,14.6767672 3.87715658,14.6767672 L8.59138152,14.6767672 C8.59138152,13.3830603 7.67970309,12.334181 6.55502706,12.334181" id="Fill-51" fill="#434343"></path>
                        <path d="M2.1729757,16.7318276 L1.29096728,16.7318276 C1.06639751,16.7318276 0.884288051,16.5513966 0.884288051,16.3288966 L0.884288051,15.8495 C0.884288051,15.6269138 1.06639751,15.446569 1.29096728,15.446569 L2.1729757,15.446569 C2.39763248,15.446569 2.57974194,15.6269138 2.57974194,15.8495 L2.57974194,16.3288966 C2.57974194,16.5513966 2.39763248,16.7318276 2.1729757,16.7318276" id="Fill-53" fill="#434343"></path>
                        <path d="M11.1917271,4.61571552 C10.3585307,4.87485345 8.94159202,4.06183621 8.94159202,4.06183621 C8.94159202,4.06183621 9.46634222,3.67226724 9.62661247,2.86700862 C9.63470429,2.82640517 9.641752,2.78493966 9.64784262,2.74235345 C9.7353735,2.71925 9.90025521,2.67571552 10.0767961,2.62925 L10.7512885,3.16890517 C10.7512885,3.16890517 10.7488522,3.40735345 10.6893382,3.82002586 C10.6790712,3.89200862 10.667064,3.96933621 10.6527075,4.05175 C11.0097917,4.24649138 11.1917271,4.61571552 11.1917271,4.61571552" id="Fill-55" fill="#C7A288"></path>
                        <path d="M10.751245,3.16888793 C10.751245,3.16888793 10.7488957,3.40733621 10.6892947,3.82000862 C10.0490838,3.65026724 9.73428589,3.10121552 9.62656897,2.86707759 C9.63474779,2.82638793 9.6417085,2.78492241 9.64779912,2.74233621 C9.73532999,2.71923276 9.90029872,2.67569828 10.0767526,2.62923276 L10.751245,3.16888793 Z" id="Fill-57" fill="#ED975D"></path>
                        <path d="M11.1053187,3.52483621 C11.1053187,3.52483621 9.50192013,3.34276724 9.63165028,2.35518103 C9.76155445,1.36759483 9.64200433,0.678974138 10.6712317,0.753456897 C11.700459,0.827939655 11.8495051,1.23035345 11.8870059,1.57043966 C11.9245937,1.91052586 11.5258323,3.54673276 11.1053187,3.52483621" id="Fill-59" fill="#FFB27D"></path>
                        <path d="M9.68369026,2.76332759 C9.68369026,2.76332759 9.64810365,2.42858621 9.84717983,2.22565517 C9.84717983,2.22565517 9.75703869,1.89272414 9.88850902,1.83039655 C10.0199794,1.76815517 10.0626137,2.04962069 10.1219537,2.00212069 C10.1812937,1.95462069 10.4446694,1.72987931 10.5462087,1.41315517 C10.647661,1.09651724 11.7433631,1.41815517 11.8717011,1.46772414 C12.0000391,1.5172931 11.2617692,-0.164 10.2894457,0.141258621 C9.31712209,0.446603448 9.20696893,0.919448276 9.28353669,1.316 C9.36027847,1.71263793 9.27309563,2.6497931 9.68369026,2.76332759" id="Fill-61" fill="#2B478B"></path>
                        <path d="M7.62377382,10.9343276 C7.62377382,10.9343276 7.58148753,12.6230345 7.92821768,13.1331207 C8.27503484,13.6432069 15.693668,14.0568276 15.693668,14.0568276 C15.693668,14.0568276 15.8148713,12.9816552 15.5479282,12.6810517 C15.2811591,12.3804483 13.9949077,11.4750172 9.7156399,10.6742414 L7.62377382,10.9343276 Z" id="Fill-63" fill="#BDBDBD"></path>
                        <path d="M7.81521063,7.40818103 C7.81686379,8.86162931 7.4766593,11.0449052 7.58246203,11.4364569 C7.67356026,11.7742155 9.0360314,11.6880086 9.58235978,11.6220603 C9.78465529,11.5974052 10.0304552,11.5592155 10.284956,11.5107672 C10.994687,11.3759397 11.7735899,11.1641293 11.8714749,10.9678362 C11.8753032,10.9601638 11.8785226,10.95275 11.8807848,10.94525 C11.8909648,10.9165431 11.8916609,10.8886983 11.8865274,10.86025 C11.872867,10.7821466 11.8170943,10.6961121 11.7926449,10.5524914 C11.784118,10.5020603 11.7795935,10.4445603 11.7818558,10.3775776 C11.7908177,10.1150776 11.8164853,9.81119828 11.8344961,9.48326724 C11.8359753,9.45318103 11.8375414,9.42283621 11.8391076,9.39249138 C11.8417178,9.3515431 11.8448502,9.30723276 11.843371,9.26628448 L11.8442411,9.25128448 C11.8448502,9.24369828 11.8451112,9.23602586 11.8454592,9.22826724 C11.8671244,8.82387069 11.8782615,8.39809483 11.8856573,7.97525 C11.8878325,7.84352586 11.8891377,7.71231897 11.8894857,7.58257759 C11.8900947,7.53680172 11.8899207,7.49119828 11.8900947,7.44585345 C11.8899207,7.36119828 11.8897467,7.27706034 11.8887896,7.19412931 C11.8816549,6.54249138 11.8473734,5.96050862 11.7695005,5.58818103 C11.6419456,4.98102586 11.2847744,4.56300862 10.9539668,4.25111207 L10.7139095,4.03490517 C10.4235611,4.06723276 10.0885771,4.00292241 9.79335617,3.84964655 C9.47429483,3.68283621 9.36840509,3.57343966 9.30758593,3.60671552 C8.50023107,4.06921552 7.81825593,5.63137069 7.81521063,7.40818103" id="Fill-65" fill="#5C63AB"></path>
                        <path d="M12.5739319,19.3711552 C12.5739319,19.3711552 12.5531368,20.4227069 12.7562154,20.4542586 C12.7831881,20.4584828 13.7922294,20.5402069 13.7922294,20.5402069 L15.080917,20.6371034 C15.080917,20.6371034 15.0978838,20.3288276 14.7267041,20.2333103 C14.3556115,20.1378793 13.7468978,19.8246897 13.5594808,19.3131379 C13.3624058,18.7750345 12.5739319,19.3711552 12.5739319,19.3711552" id="Fill-67" fill="#585858"></path>
                        <path d="M12.2989666,19.4175 C12.2989666,19.4175 12.5324983,19.6275 13.0377585,19.6927586 C13.1679237,19.7093966 13.2882569,19.7124138 13.3943206,19.7075 C13.6769253,19.6950862 13.8582517,19.6291379 13.8582517,19.6291379 L15.6937898,14.0566379 C15.6937898,14.0566379 14.3187894,12.6550862 13.4804594,13.3894828 C13.3711763,13.4853448 13.2703331,13.6585345 13.1775817,13.8876724 C12.5584269,15.4148276 12.2989666,19.4175 12.2989666,19.4175" id="Fill-69" fill="#BDBDBD"></path>
                        <path d="M10.0610388,6.48525 C10.0610388,6.48525 10.7329209,10.0399914 11.7926014,10.5524914 C11.7841615,10.5020603 11.77955,10.4445603 11.7818123,10.3775776 C11.7908612,10.1150776 11.8165288,9.81119828 11.8345396,9.48326724 C11.8359318,9.45318103 11.8374979,9.42283621 11.8391511,9.39249138 C11.8417613,9.35162931 11.8448067,9.30723276 11.8433275,9.26628448 L11.8441976,9.25128448 C11.8448067,9.24369828 11.8451547,9.23602586 11.8455027,9.22826724 C11.8671679,8.82387069 11.8783051,8.39809483 11.8857008,7.97525 C11.887789,7.84352586 11.8891812,7.71231897 11.8895292,7.58257759 C11.4551812,6.96671552 10.8353303,6.49912931 10.0610388,6.48525" id="Fill-71" fill="#5C63AB"></path>
                        <path d="M10.2123733,4.6515 C10.2123733,4.6515 12.6273901,7.05408621 13.2931816,7.32072414 C13.9590601,7.58744828 16.334836,8.2477931 16.334836,8.2477931 C16.334836,8.2477931 16.354674,8.81943103 16.1107012,9.01374138 C16.1107012,9.01374138 13.0235413,8.58443103 12.6439218,8.47210345 C12.2643893,8.35986207 9.50812386,6.64917241 9.28250998,6.51856897 C9.05707013,6.38796552 9.25840854,4.39236207 10.2123733,4.6515" id="Fill-73" fill="#5C63AB"></path>
                        <path d="M12.2989666,19.4175 C12.2989666,19.4175 12.5324983,19.6275 13.0377585,19.6927586 C13.1679237,19.7093966 13.2882569,19.7124138 13.3943206,19.7075 C12.6952918,18.6675 13.1775817,13.8876724 13.1775817,13.8876724 C12.5584269,15.4148276 12.2989666,19.4175 12.2989666,19.4175" id="Fill-75" fill="#939393"></path>
                        <g id="Group-79" transform="translate(8.700882, 0.083534)">
                            <mask id="mask-12" fill="white">
                                <use xlink:href="#path-11"></use>
                            </mask>
                            <g id="Clip-78"></g>
                            <path d="M3.94365742,1.57593966 L3.73274804,3.33007759 C3.71987073,3.36688793 3.70690642,3.4014569 3.69620433,3.43361207 C3.60145172,3.6890431 3.35425966,3.85938793 3.08052991,3.86619828 C2.99308605,3.86843966 2.90764338,3.85456034 2.82620313,3.82240517 L2.04303673,3.52275 L0.2692749,2.84861207 C0.141284924,2.79481897 0.0576694467,2.67378448 0.0543631115,2.54162931 L0.0404417001,1.99473276 C0.0197336006,1.18119828 0.626968164,0.318612069 1.38751227,0.0899051724 C1.57475525,0.0350775862 1.76504354,0.00525 1.95367867,0.0028362069 C2.34478332,-0.0023362069 2.7371931,0.10412931 3.07165501,0.314732759 C3.52775525,0.602060345 3.84333625,1.06766379 3.94365742,1.57593966" id="Fill-77" fill="#FFBB00" mask="url(#mask-12)"></path>
                        </g>
                        <g id="Group-82" transform="translate(10.615076, 0.083534)">
                            <mask id="mask-14" fill="white">
                                <use xlink:href="#path-13"></use>
                            </mask>
                            <g id="Clip-81"></g>
                            <path d="M2.02946335,1.57593966 L1.81855397,3.33007759 C1.80567666,3.36688793 1.79271235,3.4014569 1.78201026,3.43361207 C1.68725766,3.6890431 1.4400656,3.85938793 1.16633585,3.86619828 C1.07889198,3.86843966 0.993449318,3.85456034 0.912009062,3.82240517 L0.128842662,3.52275 L0.039484603,0.0028362069 C0.430589254,-0.0023362069 0.822999038,0.10412931 1.15746095,0.314732759 C1.61356119,0.602060345 1.92914218,1.06766379 2.02946335,1.57593966" id="Fill-80" fill="#FFBB00" mask="url(#mask-14)"></path>
                        </g>
                        <path d="M9.68369026,2.63393103 C9.42997253,2.64031034 9.21845409,2.441 9.21210245,2.1897069 C9.2057508,1.93832759 9.40682819,1.72875862 9.6604589,1.72246552 C9.91417662,1.71617241 10.1256951,1.91539655 10.1320467,2.16677586 C10.1384854,2.41806897 9.93732097,2.62763793 9.68369026,2.63393103" id="Fill-83" fill="#57555C"></path>
                        <path d="M12.6445395,1.65947414 L11.2664068,1.52387069 L11.041489,1.72887069 L11.0624581,2.55507759 L11.3012103,2.89119828 L12.4336302,3.41361207 L12.5384758,3.46343966 C12.5547464,3.46990517 12.5709301,3.4740431 12.5893759,3.47361207 C12.610084,3.47309483 12.6307051,3.46800862 12.648803,3.45611207 C12.6826494,3.43249138 12.7024874,3.39550862 12.7014433,3.35680172 L12.6606362,1.74800862 C12.6552416,1.71852586 12.6521963,1.6889569 12.6445395,1.65947414" id="Fill-85" fill="#3C3A41"></path>
                        <path d="M11.2664155,1.5227931 L11.301045,2.89003448 L10.7957848,2.65632759 C10.767855,2.64339655 10.7421874,2.62805172 10.718608,2.60813793 C10.6456946,2.54615517 10.5996669,2.45374138 10.5971437,2.35581034 L10.5840923,1.84305172 C10.5816561,1.74512069 10.6229853,1.65287931 10.6926794,1.58727586 L10.6949416,1.58494828 C10.7668979,1.51701724 10.8650438,1.48494828 10.9641469,1.49391379 L11.2664155,1.5227931 Z" id="Fill-87" fill="#57555C"></path>
                        <path d="M11.2664155,1.5227931 L11.301045,2.89003448 L10.7957848,2.65632759 C10.767855,2.64339655 10.7421874,2.62805172 10.718608,2.60813793 L10.6926794,1.58727586 L10.6949416,1.58494828 C10.7668979,1.51701724 10.8650438,1.48494828 10.9641469,1.49391379 L11.2664155,1.5227931 Z" id="Fill-89" fill="#3C3A41"></path>
                    </g>
                </g>
            </g>
        </g>
    </g>
</svg>