<?xml version="1.0" encoding="UTF-8"?>
<svg width="109px" height="75px" viewBox="0 0 109 75" version="1.1" xmlns="http://www.w3.org/2000/svg" xmlns:xlink="http://www.w3.org/1999/xlink">
    <title>RE excessive</title>
    <defs>
        <polygon id="path-1" points="0.323311143 0.515087853 107.308605 0.515087853 107.308605 1.06655844 0.323311143 1.06655844"></polygon>
        <polygon id="path-3" points="0.102660345 0.0463137931 21.6770741 0.0463137931 21.6770741 21.6206897 0.102660345 21.6206897"></polygon>
        <polygon id="path-5" points="0 0.0384810345 13.2776259 0.0384810345 13.2776259 2.08770517 0 2.08770517"></polygon>
        <polygon id="path-7" points="0.0870306337 0.00587931034 8.59608276 0.00587931034 8.59608276 8.50614882 0.0870306337 8.50614882"></polygon>
        <polygon id="path-9" points="0.0860655172 0.00587931034 4.42366897 0.00587931034 4.42366897 8.50614882 0.0860655172 8.50614882"></polygon>
    </defs>
    <g id="Desktop" stroke="none" stroke-width="1" fill="none" fill-rule="evenodd">
        <g id="4-Wheeler-Tool-2-Copy-2" transform="translate(-162.000000, -463.000000)">
            <g id="RE-excessive" transform="translate(162.413729, 462.999925)">
                <g id="Group-3" transform="translate(53.768382, 74.412188) scale(1, -1) translate(-53.768382, -74.412188) translate(0.000000, 73.860718)">
                    <mask id="mask-2" fill="white">
                        <use xlink:href="#path-1"></use>
                    </mask>
                    <g id="Clip-2"></g>
                    <path d="M107.232559,1.06655844 L0.39920792,1.06655844 C0.357483386,1.06655844 0.323311143,1.00014947 0.323311143,0.918918358 L0.323311143,0.662727937 C0.323311143,0.581496828 0.357483386,0.515087853 0.39920792,0.515087853 L107.232559,0.515087853 C107.274358,0.515087853 107.308605,0.581496828 107.308605,0.662727937 L107.308605,0.918918358 C107.308605,1.00014947 107.274358,1.06655844 107.232559,1.06655844" id="Fill-1" fill="#2E3552" mask="url(#mask-2)"></path>
                </g>
                <path d="M23.1450021,33.6191731 C20.3880585,33.6191731 18.153912,31.3937283 18.153912,28.6367847 C18.153912,27.9620517 18.2887204,27.3214352 18.5331989,26.7310957 C19.2836235,24.91864 21.0625152,23.6456945 23.1450021,23.6456945 C25.9019458,23.6456945 28.1360923,25.879841 28.1360923,28.6367847 C28.1360923,31.0227288 26.4668707,33.0041094 24.232586,33.4927901 C23.8868631,33.5771835 23.5160017,33.6191731 23.1450021,33.6191731 M23.1450021,18.0725521 C20.5988348,18.0725521 18.2551564,18.9662107 16.4171479,20.4586344 C14.0057891,22.4230259 12.4713759,25.407597 12.4713759,28.7463165 C12.4713759,34.6397671 23.1450021,47.7410508 23.1450021,47.7410508 C23.1450021,47.7410508 27.9928583,41.789174 31.14594,36.1064998 C32.6803532,33.3581198 33.8184903,30.6683041 33.8184903,28.7463165 C33.8184903,22.8532803 29.0381765,18.0725521 23.1450021,18.0725521" id="Fill-4" fill="#FFBB00"></path>
                <path d="M5.34635439,57.2135705 C4.67659388,57.2135705 4.13376879,56.6707455 4.13376879,56.0009849 C4.13376879,55.3313625 4.67659388,54.7883993 5.34635439,54.7883993 C6.01611491,54.7883993 6.55880187,55.3313625 6.55880187,56.0009849 C6.55880187,56.6707455 6.01611491,57.2135705 5.34635439,57.2135705 M5.34635439,53.4332704 C3.91360004,53.4332704 2.75225823,54.5947503 2.75225823,56.0273665 C2.75225823,57.4601209 5.34635439,60.6452472 5.34635439,60.6452472 C5.34635439,60.6452472 7.94045056,57.4601209 7.94045056,56.0273665 C7.94045056,54.5947503 6.77897062,53.4332704 5.34635439,53.4332704" id="Fill-8" fill="#C3C9D2"></path>
                <path d="M100.743212,42.4754275 C100.739621,42.4596814 100.657023,42.0783226 100.478567,41.3852193 C100.453705,41.2872897 100.377599,41.2375653 100.309228,41.273063 C100.240304,41.3092514 100.205083,41.4168495 100.23036,41.5149172 C100.405638,42.197385 100.489203,42.582335 100.490308,42.5862025 C100.507711,42.6675572 100.56006,42.7196297 100.616829,42.7196297 C100.629536,42.7196297 100.642658,42.716591 100.655365,42.7112042 C100.725256,42.6802645 100.764345,42.5748764 100.743212,42.4754275" id="Fill-10" fill="#FF9136"></path>
                <path d="M100.193273,40.3192102 C100.098521,39.976526 99.997,39.6215488 99.8920262,39.2644997 C99.8634346,39.1687802 99.7862236,39.1236138 99.7189575,39.1635315 C99.651277,39.2042779 99.6196468,39.3142242 99.6481002,39.4099437 C99.7525215,39.7647828 99.8529373,40.1172738 99.9471374,40.4570574 C99.9677178,40.5309535 100.01758,40.5769486 100.070482,40.5769486 C100.086366,40.5769486 100.102803,40.5723905 100.118687,40.5634125 C100.18692,40.524876 100.220207,40.4156204 100.193273,40.3192102" id="Fill-12" fill="#FF9136"></path>
                <path d="M13.9255184,40.4642813 C13.5843535,40.7108316 13.2470561,40.9678793 12.9217754,41.2274132 C12.832962,41.2986849 12.8756422,41.4188523 13.0173568,41.4952346 C13.1589333,41.571755 13.3463668,41.5758987 13.4353183,41.504627 C13.7559028,41.2485461 14.0886422,40.9946753 14.426354,40.7517161 C14.4527355,40.7323789 14.4701391,40.7084835 14.4764928,40.6827925 C14.492377,40.6185652 14.445415,40.5409398 14.3473473,40.4841711 C14.2089477,40.4055788 14.0202711,40.3957721 13.9255184,40.4642813" id="Fill-14" fill="#FF9136"></path>
                <path d="M11.9778951,42.0215401 C11.6748523,42.2893614 11.3758151,42.5662989 11.090314,42.8451701 C11.0114455,42.9219667 11.0683523,43.0418579 11.2161444,43.1132677 C11.364489,43.1839869 11.5476406,43.1795669 11.626371,43.1029084 C11.908419,42.8276284 12.2027601,42.5538678 12.5027642,42.2890852 C12.5221015,42.2716816 12.5349469,42.2511012 12.5401956,42.2294159 C12.5573229,42.1603541 12.5015211,42.0769276 12.3919892,42.0209876 C12.2469596,41.9473678 12.0611836,41.9473678 11.9778951,42.0215401" id="Fill-16" fill="#FF9136"></path>
                <path d="M99.5761793,38.2202451 C99.4702387,37.8797709 99.3597399,37.5316998 99.2468931,37.1851482 C99.2162297,37.090948 99.1379137,37.0502016 99.0712001,37.0939867 C99.0050389,37.1376337 98.9758949,37.2490993 99.0071108,37.3441282 C99.1187145,37.6876412 99.228937,38.0341929 99.3341871,38.3724572 C99.3558725,38.4433145 99.4040775,38.4847515 99.454907,38.4847515 C99.4730011,38.4847515 99.4909572,38.4793647 99.5083607,38.4688673 C99.5756268,38.4267397 99.6057377,38.3151359 99.5761793,38.2202451" id="Fill-18" fill="#FF9136"></path>
                <path d="M10.2610623,43.6958171 C9.99586533,43.9797989 9.73577891,44.2744161 9.48674237,44.5712434 C9.41699003,44.65246 9.48563738,44.7715224 9.63854002,44.8375454 C9.7917189,44.9035684 9.97045062,44.8914135 10.0389598,44.8099207 C10.2860627,44.5164084 10.5440772,44.2248298 10.8058211,43.9438868 C10.8197716,43.9288313 10.8290259,43.9118421 10.8335839,43.893748 C10.8516781,43.8204044 10.7870363,43.7318673 10.6659021,43.6759273 C10.5157619,43.6078325 10.3341296,43.616258 10.2610623,43.6958171" id="Fill-20" fill="#FF9136"></path>
                <path d="M8.76640105,45.4703164 C8.53683991,45.7703205 8.31238933,46.0805457 8.09829801,46.3904947 C8.03890494,46.4757169 8.11915465,46.5939505 8.27481976,46.6547248 C8.4318661,46.7149467 8.60742098,46.6954713 8.66557094,46.6098347 C8.87759041,46.3032007 9.09983101,45.9969811 9.32635344,45.6990488 C9.33574583,45.6866177 9.34306637,45.6728054 9.34638134,45.6588549 C9.36571862,45.580677 9.29209883,45.4870294 9.16129594,45.43399 C9.00632145,45.3704532 8.82924721,45.3866136 8.76640105,45.4703164" id="Fill-22" fill="#FF9136"></path>
                <path d="M7.48132827,47.3298446 C7.28560737,47.6426941 7.09499703,47.9650742 6.91350284,48.2873162 C6.86239717,48.3753008 6.95314427,48.4925676 7.11253871,48.5482313 C7.27179502,48.6040332 7.44265371,48.578066 7.49265439,48.4891145 C7.67221485,48.1699113 7.86089146,47.8501555 8.05454051,47.5403447 C8.06089419,47.5301235 8.06586663,47.5201786 8.0686291,47.5091288 C8.08879512,47.4274978 8.00619731,47.3292921 7.86614015,47.2776339 C7.70743633,47.2192077 7.53602515,47.2426887 7.48132827,47.3298446" id="Fill-24" fill="#FF9136"></path>
                <path d="M6.39374437,49.2611554 C6.22992998,49.5833974 6.07012117,49.9155842 5.91873789,50.2498429 C5.87702462,50.3415569 5.97453976,50.4567518 6.13655854,50.5071669 C6.29954419,50.5586869 6.46432545,50.5260898 6.5059006,50.4349283 C6.65645514,50.1042609 6.81460647,49.7738696 6.97648713,49.4541139 C6.98076896,49.4470696 6.98270268,49.4393347 6.98449829,49.4317379 C7.00604554,49.3451345 6.91516033,49.2436138 6.76805887,49.1945799 C6.6067307,49.1412643 6.43891073,49.1709608 6.39374437,49.2611554" id="Fill-26" fill="#FF9136"></path>
                <path d="M98.905521,36.1589877 C98.7907404,35.8214141 98.671678,35.4794205 98.5515107,35.1419849 C98.5186373,35.049166 98.4392163,35.0115964 98.3736077,35.0582821 C98.3085515,35.1057966 98.2825843,35.2187815 98.3154577,35.3114624 C98.434382,35.6473786 98.55303,35.9879909 98.6672581,36.3232165 C98.6900485,36.3902064 98.7371486,36.4294334 98.7864586,36.4294334 C98.8053815,36.4294334 98.8256857,36.4234941 98.8441942,36.4106486 C98.9096647,36.3654823 98.9371513,36.2523592 98.905521,36.1589877" id="Fill-28" fill="#FF9136"></path>
                <path d="M98.1861742,34.1331314 C98.0633825,33.8009445 97.9363089,33.4648902 97.8092353,33.133394 C97.7744282,33.0422325 97.6940404,33.0090829 97.6299511,33.0588073 C97.5658619,33.1085318 97.5421046,33.2230361 97.5770499,33.3141976 C97.7035709,33.6434838 97.8299539,33.9778806 97.9517787,34.3086863 C97.9756741,34.3726374 98.0216692,34.4089639 98.0691836,34.4089639 C98.0899022,34.4089639 98.111035,34.4020577 98.1306486,34.387831 C98.1951522,34.3387972 98.2201525,34.2249835 98.1861742,34.1331314" id="Fill-30" fill="#FF9136"></path>
                <path d="M97.4213709,32.142676 C97.2907062,31.8157379 97.1567264,31.4849323 97.0221942,31.1602041 C96.9853153,31.070562 96.9036843,31.0411417 96.8412525,31.0939048 C96.7782682,31.146668 96.7569972,31.2620011 96.7941524,31.3516432 C96.9281322,31.6747139 97.0615594,32.0033095 97.1911192,32.3287283 C97.215567,32.3897789 97.2604571,32.4237572 97.3065904,32.4237572 C97.3286901,32.4237572 97.350928,32.4160223 97.3716465,32.3995856 C97.4351833,32.3475131 97.4574212,32.2330088 97.4213709,32.142676" id="Fill-32" fill="#FF9136"></path>
                <path d="M15.8629932,30.2335616 C15.8037382,30.1732017 15.7212785,30.1936439 15.6788746,30.278728 C15.5263863,30.585362 15.3729312,30.8987641 15.2236198,31.2084368 C15.1823209,31.2943496 15.1977907,31.4110639 15.2580125,31.4705951 C15.2808029,31.4924186 15.3067701,31.5030541 15.3327373,31.5030541 C15.3751412,31.5030541 15.4164401,31.4743244 15.4417167,31.4216994 C15.5904756,31.1128554 15.7429639,30.8016633 15.8947615,30.4964105 C15.9371654,30.4113265 15.9229387,30.2939215 15.8629932,30.2335616" id="Fill-34" fill="#FF9136"></path>
                <path d="M96.6120505,30.1883124 C96.4733746,29.8651035 96.3322124,29.5412041 96.1911884,29.2254539 C96.1520995,29.1373312 96.0706067,29.1109496 96.0087274,29.1667515 C95.9467099,29.2225533 95.9287539,29.338577 95.9679809,29.4266998 C96.1077619,29.7407925 96.2483715,30.0633107 96.3864949,30.3841714 C96.4114953,30.443012 96.454866,30.4746422 96.4993418,30.4746422 C96.523099,30.4746422 96.5464419,30.4656642 96.5682654,30.4468794 C96.630559,30.3925969 96.6501726,30.2764351 96.6120505,30.1883124" id="Fill-36" fill="#FF9136"></path>
                <path d="M16.8020667,28.4096417 C16.7432262,28.3479005 16.6607665,28.3643372 16.6167051,28.4472113 C16.4574488,28.7492872 16.2981925,29.0560594 16.1430798,29.3581353 C16.1001235,29.4425287 16.1129689,29.5600718 16.1720858,29.6218129 C16.1954286,29.6459845 16.2230533,29.6571725 16.2499874,29.6571725 C16.2907338,29.6571725 16.3309277,29.630791 16.3568949,29.5803759 C16.5110407,29.2789906 16.6697445,28.9738759 16.8278958,28.6741481 C16.8719572,28.5904453 16.8602167,28.4729022 16.8020667,28.4096417" id="Fill-38" fill="#FF9136"></path>
                <path d="M95.7599809,28.2717116 C95.6143988,27.9560996 95.4650873,27.6388301 95.3174334,27.3284667 C95.2761345,27.242554 95.1940892,27.2207305 95.1337292,27.2787423 C95.0728168,27.3375829 95.0576232,27.4542972 95.0983696,27.5402099 C95.245333,27.8490539 95.3936775,28.1648041 95.5381546,28.4788968 C95.5635693,28.5338699 95.6059732,28.5641189 95.6492059,28.5641189 C95.6742062,28.5641189 95.6990684,28.5534834 95.7218588,28.5331793 C95.7826331,28.4759962 95.7996223,28.3591438 95.7599809,28.2717116" id="Fill-40" fill="#FF9136"></path>
                <path d="M17.7775635,26.6263025 C17.7203804,26.5615226 17.6372301,26.574368 17.5916493,26.6557227 C17.4271443,26.9488207 17.2615343,27.2486866 17.0995155,27.5462045 C17.0544873,27.6282498 17.0651228,27.7474503 17.1228584,27.8107109 C17.1471681,27.8369543 17.1757597,27.8497998 17.2037987,27.8497998 C17.2434402,27.8497998 17.2826672,27.8249376 17.3084963,27.7774231 C17.4699626,27.480734 17.6346057,27.1822493 17.7981439,26.8908088 C17.8437246,26.8094541 17.8346084,26.6910823 17.7775635,26.6263025" id="Fill-42" fill="#FF9136"></path>
                <path d="M94.8643333,26.3957883 C94.7123975,26.0883255 94.556318,25.7779622 94.4010673,25.4743668 C94.3578347,25.3899734 94.2752369,25.3711886 94.2159819,25.4329298 C94.1572794,25.4939804 94.1440196,25.6115234 94.1868379,25.6959168 C94.341398,25.9979928 94.4965106,26.3061462 94.6478939,26.6127802 C94.6738611,26.6647146 94.7146075,26.6926155 94.7563208,26.6926155 C94.7828405,26.6926155 94.8093602,26.6821181 94.8321505,26.6587753 C94.8918199,26.5984153 94.9067372,26.4810104 94.8643333,26.3957883" id="Fill-44" fill="#FF9136"></path>
                <path d="M18.790022,24.8845245 C18.7339439,24.8173966 18.6507936,24.8272033 18.603141,24.9063481 C18.4333873,25.1918492 18.2612855,25.4841184 18.0929131,25.7756969 C18.0463655,25.8556704 18.0543766,25.9747328 18.1110072,26.0402033 C18.135317,26.0696236 18.165566,26.0839884 18.1951244,26.0839884 C18.2332465,26.0839884 18.2708161,26.0598168 18.2973358,26.0146505 C18.4646032,25.7252819 18.6354619,25.4337033 18.8048012,25.1497215 C18.8524538,25.0705768 18.8455477,24.9515144 18.790022,24.8845245" id="Fill-46" fill="#FF9136"></path>
                <path d="M93.9270139,24.5627522 C93.7676194,24.2621956 93.6046338,23.9592909 93.4420625,23.6632924 C93.3977249,23.581109 93.3140221,23.5660535 93.256839,23.6301428 C93.1991034,23.6940939 93.188606,23.8123276 93.2334961,23.894511 C93.3949624,24.1891283 93.5569812,24.4905136 93.7158231,24.7895509 C93.7416522,24.8385847 93.7812937,24.8649663 93.8210732,24.8649663 C93.8492504,24.8649663 93.8772894,24.8521208 93.9010467,24.8264298 C93.9591966,24.763998 93.970799,24.6456263 93.9270139,24.5627522" id="Fill-48" fill="#FF9136"></path>
                <path d="M19.8391662,23.1871119 C19.7846074,23.1177739 19.7010427,23.1238514 19.6522852,23.200648 C19.4749347,23.4802098 19.2971698,23.7648822 19.1229962,24.0474827 C19.0747911,24.1257987 19.0807304,24.2448611 19.1357035,24.3133703 C19.1605658,24.3450006 19.1917817,24.3600561 19.2224451,24.3600561 C19.2596003,24.3600561 19.2960648,24.3382326 19.3220321,24.2961049 C19.4956532,24.0143331 19.6724512,23.731042 19.8485586,23.4529995 C19.8973161,23.3762029 19.8931724,23.2571405 19.8391662,23.1871119" id="Fill-50" fill="#FF9136"></path>
                <path d="M92.9471939,22.7749654 C92.7810314,22.4811768 92.6111396,22.1865596 92.4418002,21.8987103 C92.3951145,21.8190131 92.3114117,21.8083776 92.2553336,21.8746769 C92.1993936,21.9418048 92.191935,22.0600385 92.239035,22.1398738 C92.406855,22.4268943 92.5760562,22.7199923 92.74139,23.0115708 C92.7677715,23.0574278 92.8060317,23.0815994 92.8445682,23.0815994 C92.8737122,23.0815994 92.9027181,23.0680633 92.9275804,23.0394718 C92.9843491,22.9746919 92.9933271,22.8556295 92.9471939,22.7749654" id="Fill-52" fill="#FF9136"></path>
                <path d="M20.9241948,21.5379319 C20.8717079,21.4656934 20.7881432,21.4679034 20.7373138,21.5431806 C20.5530571,21.8151457 20.3689386,22.0924975 20.1900688,22.3658438 C20.1403443,22.4419498 20.1435212,22.5610122 20.1969749,22.6318695 C20.2223896,22.6657097 20.2545724,22.6831133 20.2870314,22.6831133 C20.322391,22.6831133 20.3577506,22.6628092 20.3838559,22.6227534 C20.5621733,22.3507883 20.7453249,22.075094 20.9279241,21.8038195 C20.9787535,21.7292329 20.9770961,21.6094799 20.9241948,21.5379319" id="Fill-54" fill="#FF9136"></path>
                <path d="M91.9262407,21.0346654 C91.7526196,20.7491643 91.5758216,20.4628344 91.3999905,20.1832726 C91.351371,20.1064759 91.2678063,20.0997079 91.2132476,20.1690459 C91.1586888,20.2383838 91.1539926,20.3574462 91.2027502,20.4349335 C91.3777526,20.7129759 91.5535837,20.9969577 91.7260999,21.2810776 C91.7520671,21.3238959 91.7890842,21.3465481 91.8261012,21.3465481 C91.8569028,21.3465481 91.8875662,21.3314927 91.9124284,21.300553 C91.9680921,21.2320438 91.9738933,21.1138101 91.9262407,21.0346654" id="Fill-56" fill="#FF9136"></path>
                <path d="M22.0457709,19.9377029 C21.9949414,19.8631163 21.9112386,19.8615969 21.8588899,19.9348023 C21.671042,20.1953031 21.4804317,20.4643676 21.2936888,20.7324651 C21.2423069,20.8063612 21.2423069,20.9254236 21.2942413,20.9984909 C21.3200704,21.0353698 21.3539106,21.053464 21.3871983,21.053464 C21.4217292,21.053464 21.4557076,21.0346792 21.4815366,20.9976621 C21.6673127,20.7310839 21.856818,20.4636769 22.0435609,20.2037287 C22.0960478,20.131352 22.0971528,20.0122896 22.0457709,19.9377029" id="Fill-58" fill="#FF9136"></path>
                <path d="M90.8638782,19.345554 C90.6827983,19.0683402 90.4992323,18.7909884 90.3171856,18.5213714 C90.2663562,18.4459561 90.1826534,18.4437461 90.1297521,18.5161228 C90.0774033,18.5876707 90.0757459,18.7074237 90.1260228,18.7820104 C90.3071026,19.0502461 90.4897018,19.3259404 90.6696766,19.6016348 C90.6955057,19.6416906 90.7310034,19.6619947 90.7665011,19.6619947 C90.798822,19.6619947 90.8311429,19.6454199 90.8564195,19.6114416 C90.9105639,19.541413 90.9136026,19.42166 90.8638782,19.345554" id="Fill-60" fill="#FF9136"></path>
                <path d="M23.2033557,18.3902232 C23.1536313,18.3134266 23.0699285,18.3081779 23.0160603,18.3782065 C22.8217207,18.6313868 22.6253092,18.8905063 22.4331795,19.1496259 C22.3797257,19.2213119 22.3775157,19.3402362 22.4279308,19.4156516 C22.453898,19.4548787 22.4887051,19.4750447 22.5236503,19.4750447 C22.5565237,19.4750447 22.5893971,19.4577792 22.6146737,19.4232484 C22.806389,19.1662007 23.001143,18.9079099 23.1947921,18.656249 C23.2487983,18.5860823 23.2525277,18.4663293 23.2033557,18.3902232" id="Fill-62" fill="#FF9136"></path>
                <path d="M89.7603824,17.7106698 C89.5733633,17.4431247 89.3830292,17.1757177 89.1935239,16.9143882 C89.1411751,16.8420115 89.0573342,16.8435309 89.0066429,16.9181175 C88.9558135,16.9935329 88.9569184,17.1124572 89.0092672,17.1848339 C89.1976676,17.4447822 89.3871729,17.7106698 89.5730871,17.9766955 C89.5989162,18.0135745 89.6327564,18.0316686 89.6665966,18.0316686 C89.7004369,18.0316686 89.7340009,18.0135745 89.75983,17.9766955 C89.8116262,17.9034901 89.8116262,17.7845658 89.7603824,17.7106698" id="Fill-64" fill="#FF9136"></path>
                <path d="M24.3953471,16.8970399 C24.3476945,16.8178952 24.2641299,16.8089171 24.2084661,16.8767358 C24.0083253,17.1199711 23.8066651,17.3701126 23.6077673,17.6202542 C23.5532086,17.6889015 23.5478217,17.8079639 23.5965793,17.8862799 C23.6225465,17.9284076 23.6590111,17.9495404 23.6956138,17.9495404 C23.7268297,17.9495404 23.7580456,17.9336562 23.7834603,17.902026 C23.9808387,17.6534038 24.181532,17.4047816 24.3805679,17.1622369 C24.4360935,17.095247 24.4424472,16.9761846 24.3953471,16.8970399" id="Fill-66" fill="#FF9136"></path>
                <path d="M25.6211926,15.4610396 C25.5756118,15.3796849 25.491909,15.3668395 25.4352784,15.4317575 C25.228922,15.6660148 25.0214606,15.9070402 24.8177286,16.1466844 C24.7609598,16.2129836 24.7536393,16.332046 24.800325,16.4118813 C24.8261541,16.4570477 24.8638618,16.4803906 24.9018457,16.4803906 C24.9315423,16.4803906 24.9617913,16.4660257 24.9865154,16.4367436 C25.1887281,16.1986188 25.395637,15.9589746 25.6006122,15.7262366 C25.6577953,15.6607661 25.6666352,15.5423943 25.6211926,15.4610396" id="Fill-68" fill="#FF9136"></path>
                <path d="M88.6165409,16.1331068 C88.4234443,15.8753685 88.2259278,15.6177683 88.0300688,15.3661074 C87.97551,15.2967694 87.8919454,15.3028469 87.8431878,15.3796435 C87.7940158,15.4572689 87.798712,15.5763313 87.8527183,15.6463599 C88.0476105,15.8958108 88.2438839,16.1518916 88.4360136,16.4081106 C88.4614283,16.4419508 88.4937491,16.4585256 88.5266225,16.4585256 C88.5615678,16.4585256 88.5969274,16.4389121 88.6228946,16.3989944 C88.672619,16.3230265 88.6699946,16.2039641 88.6165409,16.1331068" id="Fill-70" fill="#FF9136"></path>
                <path d="M26.8803534,14.0845844 C26.8364301,14.0017103 26.7538323,13.9844449 26.6951299,14.0470148 C26.4844916,14.269946 26.2712291,14.5004741 26.0610052,14.7318308 C26.0032696,14.7950913 25.9926341,14.913325 26.037248,14.9955084 C26.063077,15.0437135 26.1023041,15.0692663 26.1419455,15.0692663 C26.1699846,15.0692663 26.1985761,15.056559 26.2228859,15.0293487 C26.4315904,14.80034 26.643748,14.5713314 26.8534193,14.348262 C26.9121218,14.2865209 26.9242766,14.1681491 26.8803534,14.0845844" id="Fill-72" fill="#FF9136"></path>
                <path d="M87.4335966,14.6150336 C87.2340082,14.3686214 87.0302761,14.1215186 86.8275109,13.8796645 C86.7714328,13.8133652 86.68773,13.8238626 86.6407681,13.9038361 C86.5940823,13.9836714 86.601541,14.1019051 86.6576191,14.1690331 C86.8592793,14.4093678 87.0620445,14.6549513 87.2599754,14.8998441 C87.2848376,14.9306457 87.3159154,14.9458392 87.3467169,14.9458392 C87.3838721,14.9458392 87.4201986,14.9238776 87.4468564,14.8809212 C87.4943709,14.8026052 87.4885697,14.6835428 87.4335966,14.6150336" id="Fill-74" fill="#FF9136"></path>
                <path d="M28.1718903,12.7699256 C28.1300389,12.6848416 28.0475793,12.6637087 27.9876337,12.7232399 C27.7706418,12.9371931 27.5521305,13.1572237 27.3372105,13.3771162 C27.2778174,13.4374761 27.2646957,13.5557098 27.3069614,13.6401032 C27.3329286,13.691347 27.373675,13.7184192 27.4149739,13.7184192 C27.4414936,13.7184192 27.4684277,13.7064024 27.4916324,13.6830596 C27.7055856,13.4638577 27.9229919,13.2453464 28.1386026,13.0320839 C28.1982719,12.9733814 28.2131893,12.8558384 28.1718903,12.7699256" id="Fill-76" fill="#FF9136"></path>
                <path d="M86.2113838,13.160953 C86.0044749,12.923657 85.794251,12.6878803 85.5863752,12.4588716 C85.5286396,12.3947823 85.4454893,12.4105284 85.4005992,12.4927119 C85.3561235,12.5747572 85.3666209,12.693129 85.4243564,12.7563895 C85.6307129,12.9838788 85.8398317,13.2189649 86.0457738,13.4547416 C86.0700835,13.4826425 86.0992275,13.4961786 86.1282335,13.4961786 C86.166908,13.4961786 86.2055826,13.4721451 86.2315498,13.42615 C86.2775449,13.3447953 86.2685669,13.2265616 86.2113838,13.160953" id="Fill-78" fill="#FF9136"></path>
                <path d="M29.4935106,11.5193284 C29.4538692,11.4318963 29.3722382,11.4063434 29.3103589,11.4628359 C29.0885327,11.6669824 28.8646346,11.8756869 28.6450183,12.085082 C28.5846584,12.1430938 28.5683598,12.2599463 28.6091063,12.3465496 C28.6343828,12.4008322 28.6762342,12.4301143 28.7191906,12.4301143 C28.7440528,12.4301143 28.7700201,12.4196169 28.7922579,12.3977934 C29.0107692,12.1897795 29.2330098,11.9819038 29.4538692,11.7799673 C29.515196,11.7234748 29.533152,11.6067605 29.4935106,11.5193284" id="Fill-80" fill="#FF9136"></path>
                <path d="M84.9522229,11.7731855 C84.7393747,11.5479062 84.5230734,11.3234556 84.3085677,11.1056349 C84.2493128,11.0454131 84.166715,11.0650266 84.1238967,11.1494201 C84.0814928,11.2338135 84.0953052,11.3520471 84.1545601,11.4124071 C84.3674083,11.6285702 84.5827428,11.8515015 84.7939335,12.0760902 C84.8176907,12.1009524 84.8453154,12.1129691 84.872802,12.1129691 C84.9135484,12.1129691 84.9533279,12.0865875 84.979157,12.0368631 C85.0226659,11.9541272 85.0103729,11.8357554 84.9522229,11.7731855" id="Fill-82" fill="#FF9136"></path>
                <path d="M30.8447997,10.3334697 C30.8072302,10.2438276 30.7262898,10.215236 30.6633055,10.2678611 C30.4373356,10.4608195 30.2080507,10.6588885 29.9837383,10.8570956 C29.9211684,10.9120687 29.9021073,11.0280924 29.9407819,11.1170439 C29.9656441,11.174227 30.0090149,11.2058573 30.0534906,11.2058573 C30.0772478,11.2058573 30.1011432,11.1968793 30.1228286,11.1772657 C30.3468648,10.9798874 30.5738016,10.7831996 30.7993571,10.5918986 C30.8617889,10.5384449 30.8823693,10.4231118 30.8447997,10.3334697" id="Fill-84" fill="#FF9136"></path>
                <path d="M83.6565147,10.4555432 C83.4378653,10.2422806 83.2156247,10.0298468 82.9954559,9.82349036 C82.933991,9.76616914 82.8519457,9.79034074 82.8117517,9.87763475 C82.7715578,9.96423814 82.7884089,10.0810906 82.8498738,10.1384118 C83.0683851,10.3432488 83.2896588,10.5541633 83.5066507,10.7659065 C83.5294411,10.7885588 83.5554083,10.7990562 83.5812374,10.7990562 C83.6237794,10.7990562 83.6650783,10.7704646 83.6903549,10.7177015 C83.7316538,10.6317887 83.7163221,10.5142456 83.6565147,10.4555432" id="Fill-86" fill="#FF9136"></path>
                <path d="M32.2241418,9.21472515 C32.188644,9.12356369 32.1082562,9.09041406 32.0441669,9.14082912 C31.8123958,9.32246143 31.5789672,9.50920431 31.3503729,9.69608531 C31.2868362,9.74801972 31.2651508,9.86252404 31.3014772,9.95299489 C31.3259251,10.0140454 31.3704008,10.0478857 31.4163959,10.0478857 C31.4386338,10.0478857 31.4615623,10.0395983 31.4821427,10.0231616 C31.709632,9.83697121 31.9415412,9.65091895 32.171793,9.47080599 C32.2357441,9.42039094 32.259087,9.30588662 32.2241418,9.21472515" id="Fill-88" fill="#FF9136"></path>
                <path d="M82.3258611,9.21020852 C82.1036205,9.01048203 81.8753025,8.81020306 81.6478132,8.61503465 C81.5853814,8.56158088 81.504303,8.59017243 81.4661809,8.6789858 C81.4287495,8.76793729 81.4487774,8.88396097 81.5113473,8.93741474 C81.7371791,9.13189253 81.9638396,9.33079027 82.1845609,9.52885927 C82.2067987,9.5484728 82.2311085,9.55745082 82.2548657,9.55745082 C82.2989271,9.55745082 82.3416072,9.5266493 82.36716,9.47015681 C82.406249,9.38189594 82.3877404,9.26518164 82.3258611,9.21020852" id="Fill-90" fill="#FF9136"></path>
                <path d="M33.6293957,8.16368871 C33.596108,8.07100789 33.5168251,8.03412894 33.4510784,8.08081466 C33.2161304,8.25112085 32.97842,8.42667573 32.7444389,8.60223061 C32.6799353,8.6511263 32.6554874,8.76494001 32.6893277,8.85679209 C32.713223,8.92088136 32.7592181,8.9570697 32.8063182,8.9570697 C32.8275892,8.9570697 32.8487221,8.95030165 32.8683356,8.93510808 C33.1006592,8.76038194 33.3372647,8.58634641 33.5712458,8.41686896 C33.6363019,8.37018324 33.6622691,8.25636954 33.6293957,8.16368871" id="Fill-92" fill="#FF9136"></path>
                <path d="M80.9617541,8.03939144 C80.7326074,7.85030046 80.4991788,7.66341946 80.2683745,7.48261589 C80.2044234,7.43220083 80.1240355,7.46535046 80.0885378,7.55651192 C80.0535926,7.64767339 80.0769354,7.76217771 80.1408866,7.81259276 C80.3701715,7.99187698 80.6019426,8.17806736 80.8299844,8.36563898 C80.8507029,8.38221379 80.8733551,8.3905012 80.895593,8.3905012 C80.9417262,8.3905012 80.986202,8.35652284 81.0105117,8.29630102 C81.0469763,8.2059683 81.0252909,8.09132585 80.9617541,8.03939144" id="Fill-94" fill="#FF9136"></path>
                <path d="M35.0590423,7.1820593 C35.0278264,7.08785912 34.9495104,7.04711271 34.8827968,7.09089784 C34.6441195,7.24904917 34.4022654,7.41258731 34.1641406,7.57750668 C34.0983938,7.62281117 34.0709073,7.73579614 34.10309,7.8293057 C34.1258804,7.89629556 34.1729805,7.93552262 34.2221524,7.93552262 C34.2413516,7.93552262 34.2615176,7.92861645 34.279888,7.91577097 C34.5164935,7.75237095 34.7572426,7.58966155 34.9945387,7.43289145 C35.0606998,7.38855383 35.0898438,7.2769501 35.0590423,7.1820593" id="Fill-96" fill="#FF9136"></path>
                <path d="M79.5671633,6.94546768 C79.3326297,6.76991279 79.0945049,6.59587727 78.8588663,6.42791918 C78.7938102,6.38123346 78.7138367,6.41880303 78.681654,6.51148385 C78.6489187,6.60499342 78.6753003,6.71797838 78.7403564,6.7646641 C78.9743375,6.93110284 79.2114955,7.10444775 79.4443716,7.27848327 C79.463847,7.29353872 79.485118,7.30030677 79.5058365,7.30030677 C79.5533509,7.30030677 79.599346,7.26342781 79.6226889,7.19933854 C79.6570816,7.10748646 79.6322194,6.99367275 79.5671633,6.94546768" id="Fill-98" fill="#FF9136"></path>
                <path d="M36.5109682,6.27043084 C36.4823766,6.1747113 36.4050275,6.13023556 36.337347,6.17098197 C36.0948023,6.31711656 35.849357,6.46932858 35.6075028,6.62223122 C35.5407892,6.66449699 35.5105402,6.77527198 35.5402367,6.8708534 C35.5624746,6.94088198 35.6105415,6.98231901 35.6615091,6.98231901 C35.679327,6.98231901 35.6974212,6.97707032 35.7148247,6.96657294 C35.9552976,6.81436091 36.1997761,6.66297763 36.4410777,6.51753366 C36.5082057,6.47692537 36.5395597,6.36615038 36.5109682,6.27043084" id="Fill-100" fill="#FF9136"></path>
                <path d="M78.1433041,5.92991515 C77.9050412,5.7687251 77.6622202,5.60753506 77.4213329,5.45297494 C77.3546193,5.41001855 77.2763033,5.45145558 77.2461924,5.5464845 C77.2159434,5.6413753 77.2456399,5.75284091 77.3122154,5.7957973 C77.5515833,5.95021929 77.7928849,6.10919936 78.0294904,6.27038941 C78.048137,6.28254427 78.0676124,6.28848358 78.0866735,6.28848358 C78.1358454,6.28848358 78.183498,6.2485659 78.2057359,6.18157604 C78.2376424,6.08737586 78.2094652,5.97508151 78.1433041,5.92991515" id="Fill-102" fill="#FF9136"></path>
                <path d="M37.9839165,5.4288724 C37.9575349,5.33177163 37.8812908,5.28342843 37.8130578,5.32044551 C37.5663693,5.45608272 37.317609,5.59613988 37.0724399,5.73702578 C37.0047595,5.77625283 36.9725767,5.88550846 37.0000633,5.98191862 C37.0206437,6.05567653 37.0699537,6.10015228 37.1223025,6.10015228 C37.1392917,6.10015228 37.1555902,6.0955942 37.1720269,6.08592556 C37.4155385,5.94573028 37.6631939,5.80636374 37.9082248,5.67224589 C37.9764578,5.63453819 38.0104362,5.5261113 37.9839165,5.4288724" id="Fill-104" fill="#FF9136"></path>
                <path d="M76.6930081,4.9956897 C76.4500489,4.84720701 76.202808,4.7003818 75.9584676,4.55866716 C75.8905109,4.51957823 75.813438,4.56543521 75.7859515,4.66198349 C75.7583268,4.75839364 75.7912002,4.86833989 75.8588807,4.90756695 C76.1018398,5.04845285 76.3474232,5.19458744 76.5887249,5.34155077 C76.605714,5.35204815 76.6231176,5.35660622 76.6406593,5.35660622 C76.6919031,5.35660622 76.7406606,5.31434045 76.762346,5.24279251 C76.7909376,5.1472111 76.7602742,5.03629799 76.6930081,4.9956897" id="Fill-106" fill="#FF9136"></path>
                <path d="M39.4760363,4.65746685 C39.4517265,4.5587086 39.3758968,4.50677419 39.3072494,4.54144317 C39.0579366,4.66492552 38.8058614,4.79296594 38.5577917,4.92197322 C38.4894206,4.95802344 38.454061,5.06575971 38.4793376,5.16368923 C38.4989511,5.23979524 38.549228,5.2873097 38.6032343,5.2873097 C38.618566,5.2873097 38.6338977,5.28344224 38.648815,5.27598358 C38.8955035,5.14711441 39.1463356,5.01976461 39.3945434,4.89697288 C39.4633289,4.8623039 39.4999316,4.75539636 39.4760363,4.65746685" id="Fill-108" fill="#FF9136"></path>
                <path d="M40.9845928,3.95524733 C40.9629074,3.8566272 40.8887351,3.80082533 40.8188446,3.83162686 C40.5653881,3.9439212 40.310136,4.06077363 40.0609614,4.17748793 C39.9916234,4.21063755 39.9540538,4.31685447 39.9767061,4.41561272 C39.9953527,4.49475745 40.0465965,4.5451725 40.1021222,4.5451725 C40.1159345,4.5451725 40.1301612,4.54213379 40.1439736,4.53536574 C40.391767,4.41934206 40.645776,4.30331837 40.8977131,4.19185276 C40.9670511,4.1602225 41.0062781,4.0546962 40.9845928,3.95524733" id="Fill-110" fill="#FF9136"></path>
                <path d="M75.2178912,4.14212833 C74.9723078,4.00801048 74.7213375,3.87458324 74.4721628,3.7458522 C74.4033774,3.71049261 74.3276857,3.76090766 74.3026854,3.85883717 C74.2778232,3.95676668 74.3133209,4.06450296 74.3815539,4.09986256 C74.6292092,4.2280411 74.8792126,4.3606396 75.1231386,4.49392871 C75.1384703,4.50221611 75.154907,4.50594545 75.1702387,4.50594545 C75.2236924,4.50594545 75.2739694,4.46008847 75.2941354,4.38550181 C75.3199645,4.28826292 75.2861242,4.17900728 75.2178912,4.14212833" id="Fill-112" fill="#FF9136"></path>
                <path d="M42.5084119,3.32316688 C42.4887984,3.22288927 42.4157311,3.16418681 42.3452881,3.19208774 C42.0903123,3.29305597 41.8329883,3.39775353 41.5804987,3.50327983 C41.5100557,3.532562 41.4698618,3.63725956 41.4905803,3.73753717 C41.5075695,3.81972062 41.5604708,3.87248377 41.6176539,3.87248377 C41.6298087,3.87248377 41.642378,3.87013567 41.6550853,3.86488698 C41.9060556,3.75936068 42.1622746,3.65535373 42.4162836,3.55521424 C42.4867265,3.52745144 42.5280254,3.42413511 42.5084119,3.32316688" id="Fill-114" fill="#FF9136"></path>
                <path d="M73.7210614,3.37065372 C73.4711961,3.24938134 73.2166347,3.13031895 72.9645594,3.01581462 C72.8953596,2.98418436 72.8206348,3.03846686 72.7983969,3.13777761 C72.7762972,3.2373646 72.8148336,3.34275278 72.8841716,3.37438305 C73.1345893,3.48819676 73.3876315,3.60712103 73.6358393,3.72701217 C73.6495135,3.73378022 73.6638783,3.73750955 73.678105,3.73750955 C73.7332163,3.73750955 73.7845982,3.68778511 73.8036592,3.60946913 C73.8270021,3.51153962 73.7898469,3.40449396 73.7210614,3.37065372" id="Fill-116" fill="#FF9136"></path>
                <path d="M44.0454356,2.7604244 C44.0280321,2.65945617 43.9564841,2.59688625 43.8856268,2.62174847 C43.6283029,2.71069996 43.3690452,2.8040714 43.1139312,2.89827158 C43.0429358,2.92465316 43.00067,3.02783136 43.0191785,3.12810897 C43.0345102,3.213193 43.0885165,3.26899487 43.1472189,3.26899487 C43.1584069,3.26899487 43.1694568,3.26747551 43.1805067,3.26291744 C43.4341013,3.16871726 43.6923921,3.07686518 43.9480586,2.98791369 C44.019054,2.96305147 44.0624248,2.8612545 44.0454356,2.7604244" id="Fill-118" fill="#FF9136"></path>
                <path d="M72.2041347,2.68125205 C71.951645,2.57351577 71.6944592,2.46812759 71.4393452,2.36715936 C71.3693166,2.33925843 71.2963875,2.39809901 71.2767739,2.4982385 C71.2572985,2.59837799 71.2979068,2.70238493 71.3682117,2.73028586 C71.6218063,2.83042535 71.8776109,2.93512291 72.1283049,3.04216857 C72.1411504,3.04741726 72.1538577,3.05045598 72.1665651,3.05045598 C72.2237482,3.05045598 72.276097,2.99769283 72.2930862,2.91550939 C72.314219,2.81619864 72.2744395,2.71136295 72.2041347,2.68125205" id="Fill-120" fill="#FF9136"></path>
                <path d="M45.5936612,2.2639121 C45.578882,2.16225325 45.508439,2.09733524 45.4368911,2.11846813 C45.3157568,2.15534708 45.1944844,2.19305478 45.0727977,2.23076248 C44.9346743,2.27371886 44.7969652,2.31736587 44.6599468,2.36184161 C44.5885369,2.38518447 44.5440612,2.4861527 44.5599454,2.58794967 C44.5741721,2.67524368 44.628869,2.73394614 44.6890908,2.73394614 C44.6987594,2.73394614 44.7087043,2.7325649 44.7187873,2.72952619 C44.8552533,2.68505044 44.9918574,2.64140344 45.1295664,2.59913767 C45.2507007,2.56142997 45.3714206,2.5238604 45.4921404,2.48684332 C45.5634121,2.46584856 45.6089929,2.36557094 45.5936612,2.2639121" id="Fill-122" fill="#FF9136"></path>
                <path d="M70.6707436,2.07406144 C70.416044,1.97986126 70.1560957,1.88800918 69.8983574,1.80057705 C69.8270857,1.77640545 69.7555377,1.83897536 69.7386867,1.93994359 C69.7216975,2.04091182 69.7656207,2.14257066 69.8364781,2.16674227 C70.092697,2.2541744 70.351126,2.34519774 70.6045825,2.4387073 C70.6157705,2.44243663 70.6268203,2.44478473 70.6378702,2.44478473 C70.6965727,2.44478473 70.7500264,2.38815413 70.7654963,2.30307009 C70.7838667,2.2029306 70.741739,2.0997524 70.6707436,2.07406144" id="Fill-124" fill="#FF9136"></path>
                <path d="M47.1507818,1.81791154 C47.1371076,1.71611457 47.0677697,1.64912471 46.9958074,1.66873823 C46.738069,1.73876681 46.4754964,1.81266285 46.2155481,1.88794012 C46.1435858,1.90824426 46.0975907,2.00783126 46.1119555,2.11018072 C46.1245248,2.19913221 46.1801885,2.26087338 46.2415153,2.26087338 C46.2504933,2.26087338 46.259057,2.25935403 46.2678969,2.25714405 C46.5272927,2.1825574 46.7888985,2.10866136 47.0455318,2.03863278 C47.1176322,2.01915738 47.1645942,1.92039913 47.1507818,1.81791154" id="Fill-126" fill="#FF9136"></path>
                <path d="M69.1225319,1.5473968 C68.8647935,1.46687084 68.6027734,1.38855485 68.3433776,1.31465882 C68.2719678,1.29352593 68.2020773,1.35982518 68.1877125,1.46148403 C68.1734858,1.56397161 68.2194809,1.66272986 68.2914432,1.68386275 C68.5487671,1.75693004 68.8096823,1.83524603 69.0659012,1.91508137 C69.0754318,1.91812009 69.0849623,1.91963945 69.0939403,1.91963945 C69.1547146,1.91963945 69.2098259,1.85927951 69.2232238,1.7719855 C69.2389699,1.67018853 69.1940798,1.57004904 69.1225319,1.5473968" id="Fill-128" fill="#FF9136"></path>
                <path d="M48.7138418,1.42160779 C48.701687,1.3191202 48.633454,1.24978224 48.5613536,1.26718579 C48.3015434,1.32961759 48.0378658,1.39522622 47.7776412,1.46152546 C47.7055408,1.48031025 47.6578882,1.57837789 47.6711481,1.68072735 C47.6821979,1.7711982 47.7384142,1.83528747 47.800846,1.83528747 C47.808719,1.83528747 47.8167302,1.83445873 47.8247413,1.83224875 C48.083999,1.7659495 48.3465716,1.70034087 48.605415,1.6385997 C48.6772391,1.62119615 48.7259967,1.52409538 48.7138418,1.42160779" id="Fill-130" fill="#FF9136"></path>
                <path d="M67.5621653,1.10065037 C67.302217,1.03366051 67.0386775,0.96805188 66.7776242,0.907139447 C66.7063525,0.890564635 66.6374289,0.959764474 66.6258265,1.0630808 C66.6136717,1.16543026 66.6628436,1.26184042 66.734944,1.27924397 C66.9942017,1.33946579 67.2562219,1.40424568 67.5145127,1.47137366 C67.5225238,1.47358364 67.5303969,1.47441238 67.5382699,1.47441238 C67.6007017,1.47441238 67.6569179,1.41115185 67.6681059,1.31985226 C67.6812277,1.2175028 67.6337132,1.11957328 67.5621653,1.10065037" id="Fill-132" fill="#FF9136"></path>
                <path d="M50.282703,1.07502848 C50.2720675,0.972679015 50.2053539,0.900992954 50.1329772,0.916186531 C49.8719239,0.969640299 49.6072794,1.0268234 49.3463643,1.08483524 C49.274402,1.10141005 49.2246775,1.19782021 49.2362799,1.30030779 C49.2463629,1.39298862 49.302441,1.45928786 49.3665303,1.45928786 C49.3734365,1.45928786 49.3803426,1.45859725 49.3878013,1.45707789 C49.6474734,1.39906605 49.911151,1.34257356 50.1709612,1.28898167 C50.2430616,1.27392622 50.2933385,1.1783448 50.282703,1.07502848" id="Fill-134" fill="#FF9136"></path>
                <path d="M51.8573654,0.78271786 C51.8483874,0.679539657 51.7827787,0.605643621 51.7102639,0.617798483 C51.4497631,0.662964845 51.1841518,0.710479305 50.9210266,0.760065617 C50.8485118,0.773739837 50.7976824,0.868630634 50.8072129,0.971808837 C50.8156385,1.06683776 50.8728216,1.13534698 50.9380158,1.13534698 C50.943817,1.13534698 50.9496182,1.13451824 50.9554194,1.13382762 C51.217992,1.08410319 51.4826365,1.03658873 51.7418942,0.992251105 C51.814409,0.979405626 51.865929,0.886034186 51.8573654,0.78271786" id="Fill-136" fill="#FF9136"></path>
                <path d="M65.991688,0.733021049 C65.7313254,0.678738541 65.4661284,0.626804131 65.2030032,0.578599053 C65.1300741,0.565062957 65.0643273,0.638130252 65.0549349,0.741308455 C65.0458188,0.843796041 65.0967863,0.938686838 65.169163,0.952222935 C65.4306307,0.999737395 65.6943083,1.05167181 65.9531516,1.10595431 C65.9595053,1.10747367 65.965859,1.10816429 65.9720745,1.10816429 C66.0367163,1.10816429 66.0933469,1.04034568 66.1034299,0.946974244 C66.1140654,0.843796041 66.0636503,0.748076503 65.991688,0.733021049" id="Fill-138" fill="#FF9136"></path>
                <path d="M53.2922883,0.375902918 C53.0298538,0.411262516 52.7635518,0.449798954 52.5005648,0.489716625 C52.4279118,0.500904623 52.3754249,0.593585446 52.3830217,0.696901772 C52.3904804,0.794002544 52.4480779,0.865550482 52.5147915,0.865550482 C52.5194877,0.865550482 52.5241839,0.864859864 52.5290182,0.864169247 C52.7910383,0.824113452 53.0562353,0.785715138 53.3171505,0.75035554 C53.3896653,0.740548776 53.4431191,0.648696695 53.4362129,0.545380368 C53.4293067,0.441511548 53.3648031,0.366096154 53.2922883,0.375902918" id="Fill-140" fill="#FF9136"></path>
                <path d="M64.4133792,0.442202165 C64.1503922,0.400074518 63.8840902,0.360847464 63.6215176,0.325487866 C63.5490028,0.315542979 63.484361,0.390958372 63.477593,0.494965316 C63.4706868,0.598143519 63.5237262,0.689995601 63.5966554,0.699940488 C63.8577087,0.735990703 64.122215,0.775217758 64.3836827,0.816654787 C64.3883789,0.817345404 64.3937657,0.818174145 64.3986,0.818174145 C64.4651755,0.818174145 64.5223586,0.746626207 64.5298173,0.650906669 C64.5382428,0.546899726 64.485894,0.454218903 64.4133792,0.442202165" id="Fill-142" fill="#FF9136"></path>
                <path d="M54.8780143,0.191314765 C54.6155798,0.217005723 54.3487253,0.244768532 54.0846333,0.275708181 C54.0117042,0.284686204 53.9576979,0.375157051 53.9634991,0.479025872 C53.9693003,0.577784125 54.0270359,0.651680161 54.0952688,0.651680161 L54.1063187,0.651680161 C54.3693057,0.620740512 54.6350552,0.592148962 54.8961085,0.566458004 C54.9690377,0.559689956 55.024287,0.470047849 55.0189002,0.366179028 C55.0140659,0.262172085 54.9527391,0.183856099 54.8780143,0.191314765" id="Fill-144" fill="#FF9136"></path>
                <path d="M62.8291449,0.226729612 C62.5672629,0.196618704 62.3004084,0.169408388 62.0352114,0.146203652 C61.9611773,0.13929748 61.899298,0.218442206 61.8950161,0.32162041 C61.8901818,0.425627353 61.9457074,0.51526946 62.0183604,0.522037508 C62.2818999,0.545380368 62.5475112,0.572590684 62.808012,0.601872851 C62.8117413,0.602701592 62.8153326,0.602701592 62.8186475,0.602701592 C62.8868805,0.602701592 62.9451686,0.528114939 62.9504173,0.429356686 C62.9562185,0.325487866 62.9016597,0.235017018 62.8291449,0.226729612" id="Fill-146" fill="#FF9136"></path>
                <path d="M56.4669725,0.0670174888 C56.2050904,0.0820729428 55.937131,0.100857729 55.6724865,0.121299997 C55.5995573,0.127377428 55.5433411,0.215500177 55.5476229,0.319368998 C55.5513522,0.420337226 55.6095022,0.497962594 55.6793927,0.497962594 C55.682017,0.497962594 55.684227,0.497962594 55.6868513,0.497271977 C55.9510815,0.476829709 56.2171072,0.45873554 56.4781605,0.443818209 C56.5510896,0.439122012 56.6078584,0.350999263 56.6045434,0.247130443 C56.6015047,0.143123499 56.5385204,0.0632881562 56.4669725,0.0670174888" id="Fill-148" fill="#FF9136"></path>
                <path d="M61.2407254,0.0836061129 C60.9777384,0.0655119434 60.7103315,0.0504564894 60.4451345,0.0383016275 C60.3733103,0.0360916526 60.3112929,0.116755736 60.3086685,0.22076268 C60.3064585,0.324769624 60.3636416,0.411373015 60.4368471,0.415102348 C60.7003866,0.427119086 60.9666886,0.44217454 61.2280181,0.459578093 L61.2343718,0.459578093 C61.3048147,0.459578093 61.3631028,0.381123984 61.366694,0.280155755 C61.370009,0.176286935 61.3137927,0.0881641861 61.2407254,0.0836061129" id="Fill-150" fill="#FF9136"></path>
                <path d="M58.0597014,0.00598074457 L58.0580439,0.00598074457 C57.7956094,0.0105388178 57.5276499,0.0179974831 57.2625911,0.0286329873 C57.1895238,0.0316717028 57.1317882,0.117446354 57.1339981,0.222143914 C57.1355175,0.323940883 57.1947725,0.405295584 57.2657679,0.405295584 L57.2693591,0.405295584 C57.5334511,0.39466008 57.8003056,0.387201415 58.0612207,0.382643341 C58.134288,0.381123984 58.1931286,0.29603995 58.1920236,0.192033006 C58.1909186,0.0888548033 58.1320781,0.00598074457 58.0597014,0.00598074457" id="Fill-152" fill="#FF9136"></path>
                <path d="M59.6497369,0.0104973808 C59.3860593,0.00455807323 59.1182379,0.000690617156 58.8541459,2.2878921e-13 L58.8535934,2.2878921e-13 C58.7805261,2.2878921e-13 58.7212712,0.0843934165 58.7212712,0.18757162 C58.7212712,0.29226918 58.7805261,0.376662597 58.8535934,0.376662597 C59.1167186,0.377353214 59.3828824,0.38122067 59.6454551,0.387298101 L59.6475269,0.387298101 C59.7196273,0.387298101 59.7788823,0.30511466 59.7798492,0.201936456 C59.7809541,0.0979295127 59.7226661,0.0120167385 59.6497369,0.0104973808" id="Fill-154" fill="#FF9136"></path>
                <path d="M31.1459124,36.1064722 C27.9928307,41.7891464 23.1449745,47.7410232 23.1449745,47.7410232 C23.1449745,47.7410232 12.4713483,34.6397395 12.4713483,28.7462889 C12.4713483,25.4077075 14.0057615,22.4229982 16.4171203,20.4586068 C16.821822,22.3892961 17.4794276,24.5983042 18.5333094,26.7310681 C18.2886928,27.3214076 18.1538843,27.9620241 18.1538843,28.636757 C18.1538843,31.3937007 20.3880308,33.6191454 23.1449745,33.6191454 C23.5159741,33.6191454 23.8868355,33.5771559 24.2325584,33.4927625 C26.0957054,34.7659843 28.3722558,35.7017705 31.1459124,36.1064722" id="Fill-156" fill="#FF9D00"></path>
                <g id="Group-91-Copy-2" transform="translate(20.586271, 18.000075)">
                    <path d="M37.0169534,19.4557379 C36.8904534,19.5630828 36.0036259,19.4671172 35.8044879,19.3095138 C35.6057293,19.1519103 34.0243845,19.1993241 34.0243845,19.1993241 L34.2229534,18.238531 C34.2229534,18.238531 35.12685,18.3830483 35.3665741,18.332031 C35.6062983,18.2810138 36.7588328,17.7158414 37.1449707,17.8886172 C37.5311086,18.0615828 38.4526431,19.1727724 38.1571603,19.6196 C38.1571603,19.6196 37.6885224,19.5930483 37.2921431,19.1132207" id="Fill-1" fill="#C7A288"></path>
                    <polygon id="Fill-3" fill="#BEBDC0" points="48.8320534 20.0208155 51.5615707 20.0208155 49.6627431 21.9987293"></polygon>
                    <path d="M42.8373569,19.2383931 L46.2390121,17.787531 C47.0998569,17.4283241 48.0602707,18.0149276 48.1338569,18.9449966 L48.2611155,20.5542207 C48.2927879,20.9553414 48.2167362,21.3574103 48.0407362,21.7190828 L45.8919431,26.132169 L42.8373569,19.2383931 Z" id="Fill-5" fill="#434343"></path>
                    <path d="M45.9681466,20.1263017 C45.9681466,20.1263017 49.0932845,19.8890431 49.7261638,20.1263017 C49.7261638,20.1263017 52.8513017,23.844681 49.5678017,27.0092672 L46.9175603,27.0092672 L42.4872155,20.5219224 L45.9681466,20.1263017 Z" id="Fill-7" fill="#BEBDC0"></path>
                    <path d="M56.6597672,51.0549069 C52.5897672,51.2908379 49.0993534,48.182769 48.8634224,44.112769 C48.6273017,40.0429586 51.7353707,36.5525448 55.8053707,36.3166138 C59.875181,36.0804931 63.3657845,39.1887517 63.6017155,43.2585621 C63.8376466,47.3283724 60.7295776,50.8189759 56.6597672,51.0549069 M66.7712328,41.351769 C65.4793017,35.5359931 59.7171983,31.8688207 53.9014224,33.1607517 C48.0856466,34.4528724 44.4182845,40.2149759 45.7105948,46.0307517 C47.0025259,51.8465276 52.7646293,55.5137 58.5804052,54.221769 C64.396181,52.9296483 68.0633534,47.1675448 66.7712328,41.351769" id="Fill-9" fill="#434343"></path>
                    <g id="Group-13" transform="translate(2.086207, 33.373431)">
                        <mask id="mask-4" fill="white">
                            <use xlink:href="#path-3"></use>
                        </mask>
                        <g id="Clip-12"></g>
                        <path d="M18.3355397,12.0344172 C17.6681431,16.1503138 13.7906431,18.9460207 9.67474655,18.2788138 C5.55885,17.6116069 2.7631431,13.7341069 3.43035,9.61821034 C4.0975569,5.50212414 7.9750569,2.70641724 12.0909534,3.37362414 C16.20685,4.04102069 19.0027466,7.91833103 18.3355397,12.0344172 M10.8898672,0.0463137931 C4.93222931,0.0463137931 0.102660345,4.87588276 0.102660345,10.8335207 C0.102660345,16.7911586 4.93222931,21.6207276 10.8898672,21.6207276 C16.8473155,21.6207276 21.6770741,16.7911586 21.6770741,10.8335207 C21.6770741,4.87588276 16.8473155,0.0463137931 10.8898672,0.0463137931" id="Fill-11" fill="#434343" mask="url(#mask-4)"></path>
                    </g>
                    <polygon id="Fill-14" fill="#434343" points="30.9879862 30.2571121 42.1725207 30.2571121 39.2011931 41.3350603 31.7936414 40.5840259"></polygon>
                    <path d="M38.456019,42.7035931 C38.456019,44.5330069 36.9731052,46.015731 35.143881,46.015731 C33.3146569,46.015731 31.8315534,44.5330069 31.8315534,42.7035931 C31.8315534,41.1546793 32.8951397,39.8540241 34.3315879,39.4917828 C34.5914155,39.4263517 34.8635707,39.3914552 35.143881,39.3914552 C36.9731052,39.3914552 38.456019,40.874369 38.456019,42.7035931" id="Fill-16" fill="#766D78"></path>
                    <path d="M21.4774431,42.7035931 C19.5473224,40.6904034 31.6410638,34.7686103 37.1344259,40.0563862 L37.2624431,44.4637828 L34.6057534,45.9715414 C34.6057534,45.9715414 23.7963569,45.1222655 21.4774431,42.7035931" id="Fill-18" fill="#BEBDC0"></path>
                    <path d="M4.12807241,40.8722448 C5.49776207,37.3215207 8.94246897,34.802331 12.9760552,34.802331 C18.2122448,34.802331 22.4569172,39.0470034 22.4569172,44.2831931 C22.4569172,44.3436931 22.4557793,44.4040034 22.4546414,44.4643138 L23.1523828,44.2005034 L25.1877621,44.9801759 C25.2006586,44.7493655 25.2078655,44.5170379 25.2078655,44.2831931 C25.2078655,37.5276759 19.7313828,32.0513828 12.9760552,32.0513828 C6.76086552,32.0513828 1.62841724,36.6871241 0.847417241,42.6895207 C1.22900345,42.738831 2.62088276,42.7632966 4.12807241,40.8722448" id="Fill-20" fill="#C8C3CA"></path>
                    <polygon id="Fill-22" fill="#E8E8E8" points="13.2322603 42.1708328 17.5252948 29.63785 20.5201397 30.8561948 16.2271052 43.3889879"></polygon>
                    <path d="M30.0402603,32.9018155 L17.5831397,32.9018155 C15.0349328,32.9018155 12.969019,31.0268845 12.969019,28.71385 L12.969019,28.0178155 L24.6591741,28.0178155 C27.6312603,28.0178155 30.0402603,30.2045397 30.0402603,32.9018155" id="Fill-24" fill="#434343"></path>
                    <path d="M60.4013793,35.2384241 C60.4013793,35.2384241 63.0136897,35.559131 63.5020517,33.9104586 C60.7573621,31.8946138 57.1901379,31.0284586 53.6045172,31.8250103 C47.5372586,33.1728897 43.5326897,38.8113379 44.0718793,44.8402862 C44.4549828,44.805769 45.8189828,44.5277345 46.8801034,42.3548552 C47.4471724,38.5917172 50.2637414,35.3852172 54.2013621,34.5105276 C56.3761379,34.0272862 58.542569,34.333769 60.4013793,35.2386138 L60.4013793,35.2384241 Z" id="Fill-26" fill="#C8C3CA"></path>
                    <path d="M56.9033224,42.1295448 L45.0878052,22.5273552 C44.6997707,22.706769 44.309081,22.881631 43.9199086,23.0602862 C43.6035638,23.2055621 43.2893052,23.355769 42.9813052,23.5184931 C42.8635293,23.5807 42.74765,23.6463207 42.6317707,23.7117517 C42.5779086,23.7472172 42.5240466,23.7824931 42.4707534,23.8190966 C42.4030466,23.8657517 42.3359086,23.9135448 42.2699086,23.9624759 L54.2003569,43.7554586 C54.5969259,44.4131828 55.4494259,44.6280621 56.1103741,44.2369931 L56.4178052,44.0551138 C57.0863397,43.6594931 57.3042534,42.7948552 56.9033224,42.1295448" id="Fill-28" fill="#C8C3CA"></path>
                    <path d="M53.5224914,42.3860534 L40.476681,20.7429845 C40.3230603,20.4882776 40.0924397,20.2891397 39.817819,20.1743983 L37.1275603,19.0506914 C36.4112328,18.7517948 36.0757328,17.9267948 36.3795603,17.2127431 C36.671819,16.5260017 37.4518707,16.1897431 38.1516983,16.4486224 L42.0931121,17.906881 C42.390681,18.016881 42.6417845,18.2247431 42.8054569,18.496519 L56.2254569,40.7601397 C56.6263879,41.42545 56.4082845,42.2900879 55.73975,42.6857086 L55.432319,42.8675879 C54.7713707,43.2586569 53.9188707,43.0435879 53.5224914,42.3860534" id="Fill-30" fill="#C8C3CA"></path>
                    <path d="M25.4409328,47.3158931 L10.5476914,47.3158931 C9.40900172,47.3158931 8.48613966,46.3928414 8.48613966,45.2543414 L8.48613966,44.7652207 C8.48613966,43.626531 9.40900172,42.703669 10.5476914,42.703669 L25.4409328,42.703669 C26.5796224,42.703669 27.5026741,43.626531 27.5026741,44.7652207 L27.5026741,45.2543414 C27.5026741,46.3928414 26.5796224,47.3158931 25.4409328,47.3158931" id="Fill-32" fill="#E8E8E8"></path>
                    <g id="Group-36" transform="translate(0.000000, 44.183776)">
                        <mask id="mask-6" fill="white">
                            <use xlink:href="#path-5"></use>
                        </mask>
                        <g id="Clip-35"></g>
                        <path d="M12.3615914,2.08770517 L0.915901724,2.08770517 C0.410091379,2.08770517 -0.000132758621,1.67767069 -0.000132758621,1.17186034 L-0.000132758621,0.954515517 C-0.000132758621,0.448705172 0.410091379,0.0384810345 0.915901724,0.0384810345 L12.3615914,0.0384810345 C12.8675914,0.0384810345 13.2776259,0.448705172 13.2776259,0.954515517 L13.2776259,1.17186034 C13.2776259,1.67767069 12.8675914,2.08770517 12.3615914,2.08770517" id="Fill-34" fill="#E8E8E8" mask="url(#mask-6)"></path>
                    </g>
                    <path d="M36.7107931,46.271481 L25.2651034,46.271481 C24.7592931,46.271481 24.349069,45.8614466 24.349069,45.3556362 L24.349069,45.1382914 C24.349069,44.632481 24.7592931,44.2222569 25.2651034,44.2222569 L36.7107931,44.2222569 C37.2166034,44.2222569 37.6268276,44.632481 37.6268276,45.1382914 L37.6268276,45.3556362 C37.6268276,45.8614466 37.2166034,46.271481 36.7107931,46.271481" id="Fill-37" fill="#E8E8E8"></path>
                    <path d="M44.2775603,32.2280276 L38.4725948,45.8103724 C38.2738362,46.2755966 37.7355948,46.4914241 37.2703707,46.2926655 L37.0704741,46.207131 C36.6054397,46.0083724 36.3894224,45.470131 36.588181,45.0050966 L42.3933362,31.4227517 C42.5920948,30.9575276 43.1303362,30.7417 43.5955603,30.9404586 L43.7954569,31.0258034 C44.2604914,31.2245621 44.4765086,31.7628034 44.2775603,32.2280276" id="Fill-39" fill="#E8E8E8"></path>
                    <path d="M17.0738966,34.0075241 C17.0738966,34.0075241 14.4936379,39.7366276 18.5845,41.9404207 C18.5845,41.9404207 25.2292586,41.2294034 24.743931,36.6953172 C24.743931,36.6953172 23.0852069,33.2141966 17.0738966,34.0075241" id="Fill-41" fill="#434343"></path>
                    <path d="M29.2618207,35.3634448 C29.2618207,37.192669 28.0220448,38.6755828 26.4926655,38.6755828 C24.9632862,38.6755828 23.7235103,37.192669 23.7235103,35.3634448 C23.7235103,33.5342207 24.9632862,32.0513069 26.4926655,32.0513069 C28.0220448,32.0513069 29.2618207,33.5342207 29.2618207,35.3634448" id="Fill-43" fill="#434343"></path>
                    <path d="M46.0263138,28.5019672 C46.0263138,28.5019672 47.7502793,27.4935707 48.3871414,27.8700362 C48.3871414,27.8700362 48.9733655,30.6883121 47.7019172,30.9930879 C47.7019172,30.9930879 45.4501414,30.600881 45.5563483,29.9247603 L46.0263138,28.5019672 Z" id="Fill-45" fill="#434343"></path>
                    <path d="M3.88506724,34.6061138 C3.88506724,34.6061138 1.52291207,33.5977172 0.650118966,33.9741828 C0.650118966,33.9741828 -0.152881034,36.7924586 1.58910172,37.0972345 C1.58910172,37.0972345 4.67460172,36.7050276 4.52894655,36.0289069 L3.88506724,34.6061138 Z" id="Fill-47" fill="#434343"></path>
                    <path d="M28.7091655,30.4463879 C28.7091655,30.4463879 33.167769,32.2483017 42.4070103,31.2846638 C42.4070103,31.2846638 47.3338724,30.4150948 44.3263207,25.4305776 C44.3263207,25.4305776 39.5847517,18.8829224 28.1288207,25.6790259 C28.1288207,25.6790259 26.121131,27.0007328 28.7091655,30.4463879" id="Fill-49" fill="#FBB540"></path>
                    <path d="M14.2881466,27.1351983 L7.41333621,27.1351983 C3.1965431,27.4293534 6.97428448,31.9437155 6.97428448,31.9437155 C7.42831897,32.1659914 7.92730172,32.2888879 8.45112931,32.2888879 L18.7268362,32.2888879 C18.7268362,29.4427328 16.7396293,27.1351983 14.2881466,27.1351983" id="Fill-51" fill="#434343"></path>
                    <path d="M4.73648621,36.8100207 L2.81395172,36.8100207 C2.32445172,36.8100207 1.92750345,36.4130724 1.92750345,35.9235724 L1.92750345,34.8689 C1.92750345,34.3792103 2.32445172,33.9824517 2.81395172,33.9824517 L4.73648621,33.9824517 C5.22617586,33.9824517 5.62312414,34.3792103 5.62312414,34.8689 L5.62312414,35.9235724 C5.62312414,36.4130724 5.22617586,36.8100207 4.73648621,36.8100207" id="Fill-53" fill="#434343"></path>
                    <path d="M24.3948707,10.1545741 C22.5787328,10.7246776 19.4901983,8.93603966 19.4901983,8.93603966 C19.4901983,8.93603966 20.6340086,8.07898793 20.9833534,6.30741897 C21.0009914,6.21809138 21.0163534,6.12686724 21.0296293,6.03317759 C21.2204224,5.98235 21.579819,5.88657414 21.9646293,5.78435 L23.4348362,6.97159138 C23.4348362,6.97159138 23.4295259,7.49617759 23.2998017,8.4040569 C23.2774224,8.56241897 23.25125,8.73253966 23.2199569,8.91385 C23.9983017,9.34228103 24.3948707,10.1545741 24.3948707,10.1545741" id="Fill-55" fill="#C7A288"></path>
                    <path d="M23.4347414,6.97155345 C23.4347414,6.97155345 23.4296207,7.49613966 23.2997069,8.40401897 C21.9042241,8.03058793 21.2180517,6.82267414 20.9832586,6.30757069 C21.0010862,6.21805345 21.0162586,6.12682931 21.0295345,6.03313966 C21.2203276,5.98231207 21.5799138,5.88653621 21.9645345,5.78431207 L23.4347414,6.97155345 Z" id="Fill-57" fill="#ED975D"></path>
                    <path d="M24.2065241,7.75463966 C24.2065241,7.75463966 20.7115586,7.35408793 20.9943345,5.18139828 C21.2774897,3.00870862 21.0169034,1.4937431 23.2603345,1.65760517 C25.5037655,1.82146724 25.8286448,2.70677759 25.9103862,3.45496724 C25.9923172,4.2031569 25.1231276,7.80281207 24.2065241,7.75463966" id="Fill-59" fill="#FFB27D"></path>
                    <path d="M21.1077672,6.07932069 C21.1077672,6.07932069 21.0301983,5.34288966 21.4641293,4.89644138 C21.4641293,4.89644138 21.2676466,4.1639931 21.5542155,4.02687241 C21.8407845,3.88994138 21.9337155,4.50916552 22.0630603,4.40466552 C22.1924052,4.30016552 22.7664914,3.80573448 22.987819,3.10894138 C23.2089569,2.41233793 25.5972845,3.11994138 25.8770259,3.2289931 C26.1567672,3.33804483 24.5475431,-0.3608 22.4281466,0.310768966 C20.30875,0.982527586 20.0686466,2.02278621 20.2355431,2.8952 C20.402819,3.76780345 20.2127845,5.82954483 21.1077672,6.07932069" id="Fill-61" fill="#2B478B"></path>
                    <path d="M16.617719,24.0555207 C16.617719,24.0555207 16.5255466,27.7706759 17.2813224,28.8928655 C18.0372879,30.0150552 34.2078569,30.9250207 34.2078569,30.9250207 C34.2078569,30.9250207 34.4720466,28.5596414 33.8901845,27.8983138 C33.3087017,27.2369862 30.5050293,25.2450379 21.1774086,23.483331 L16.617719,24.0555207 Z" id="Fill-63" fill="#BDBDBD"></path>
                    <path d="M17.0349983,16.2979983 C17.0386017,19.4955845 16.29705,24.2987914 16.5276707,25.1602052 C16.7262397,25.9032741 19.69605,25.713619 20.8868948,25.5685328 C21.3278431,25.5142914 21.863619,25.4302741 22.4183603,25.3236879 C23.9653776,25.0270672 25.6631707,24.5610845 25.8765328,24.1292397 C25.8848776,24.1123603 25.8918948,24.09605 25.8968259,24.07955 C25.9190155,24.0163948 25.9205328,23.9551362 25.9093431,23.89255 C25.8795672,23.7207224 25.7579983,23.5314466 25.7047052,23.215481 C25.686119,23.1045328 25.6762569,22.9780328 25.6811879,22.8306707 C25.7007224,22.2531707 25.7566707,21.5846362 25.7959293,20.8631879 C25.7991534,20.7969983 25.8025672,20.7302397 25.805981,20.663481 C25.8116707,20.5733948 25.8184983,20.4759121 25.8152741,20.3858259 L25.8171707,20.3528259 C25.8184983,20.3361362 25.8190672,20.3192569 25.8198259,20.3021879 C25.86705,19.4125155 25.8913259,18.4758086 25.9074466,17.54555 C25.9121879,17.2557569 25.9150328,16.9671017 25.9157914,16.6816707 C25.917119,16.5809638 25.9167397,16.4806362 25.917119,16.3808776 C25.9167397,16.1946362 25.9163603,16.0095328 25.9142741,15.8270845 C25.8987224,14.393481 25.8239983,13.113119 25.6542569,12.2939983 C25.3762224,10.9582569 24.5976879,10.038619 23.876619,9.35244655 L23.3533603,8.87679138 C22.720481,8.94791207 21.9903086,8.80642931 21.3468086,8.46922241 C20.6513431,8.10223966 20.4205328,7.86156724 20.2879638,7.93477414 C18.5281534,8.95227414 17.0416362,12.3890155 17.0349983,16.2979983" id="Fill-65" fill="#5C63AB"></path>
                    <path d="M27.4076948,42.6165414 C27.4076948,42.6165414 27.3623672,44.9299552 27.8050224,44.999369 C27.8638155,45.0086621 30.0632466,45.1884552 30.0632466,45.1884552 L32.8722293,45.4016276 C32.8722293,45.4016276 32.9092121,44.7234207 32.1001431,44.5132828 C31.2912638,44.3033345 29.9644362,43.6143172 29.555919,42.4889034 C29.12635,41.3050759 27.4076948,42.6165414 27.4076948,42.6165414" id="Fill-67" fill="#585858"></path>
                    <path d="M26.8083466,42.7185 C26.8083466,42.7185 27.317381,43.1805 28.4187086,43.324069 C28.7024328,43.3606724 28.9647259,43.3673103 29.1959155,43.3565 C29.8119155,43.3291897 30.2071569,43.1841034 30.2071569,43.1841034 L34.2081224,30.9246034 C34.2081224,30.9246034 31.2110017,27.8411897 29.3836741,29.4568621 C29.1454672,29.6677586 28.9256569,30.0487759 28.7234845,30.5528793 C27.3738983,33.9126207 26.8083466,42.7185 26.8083466,42.7185" id="Fill-69" fill="#BDBDBD"></path>
                    <path d="M21.9302828,14.26755 C21.9302828,14.26755 23.3948,22.087981 25.7046103,23.215481 C25.6862138,23.1045328 25.6761621,22.9780328 25.6810931,22.8306707 C25.7008172,22.2531707 25.7567655,21.5846362 25.7960241,20.8631879 C25.7990586,20.7969983 25.8024724,20.7302397 25.8060759,20.663481 C25.8117655,20.5735845 25.8184034,20.4759121 25.8151793,20.3858259 L25.8170759,20.3528259 C25.8184034,20.3361362 25.8191621,20.3192569 25.8199207,20.3021879 C25.8671448,19.4125155 25.8914207,18.4758086 25.9075414,17.54555 C25.9120931,17.2557569 25.9151276,16.9671017 25.9158862,16.6816707 C24.9691276,15.3267741 23.6180241,14.2980845 21.9302828,14.26755" id="Fill-71" fill="#5C63AB"></path>
                    <path d="M22.26015,10.2333 C22.26015,10.2333 27.524219,15.5189897 28.9754603,16.1055931 C30.4268914,16.6923862 35.6054259,18.1451448 35.6054259,18.1451448 C35.6054259,18.1451448 35.6486672,19.4027483 35.1168741,19.830231 C35.1168741,19.830231 28.387719,18.8857483 27.5602534,18.6386276 C26.7329776,18.3916966 20.725081,14.6281793 20.2333052,14.3408517 C19.7419086,14.0535241 20.1807707,9.66319655 22.26015,10.2333" id="Fill-73" fill="#5C63AB"></path>
                    <path d="M26.8083466,42.7185 C26.8083466,42.7185 27.317381,43.1805 28.4187086,43.324069 C28.7024328,43.3606724 28.9647259,43.3673103 29.1959155,43.3565 C27.6722259,41.0685 28.7234845,30.5528793 28.7234845,30.5528793 C27.3738983,33.9126207 26.8083466,42.7185 26.8083466,42.7185" id="Fill-75" fill="#939393"></path>
                    <g id="Group-79" transform="translate(18.965517, 0.183776)">
                        <mask id="mask-8" fill="white">
                            <use xlink:href="#path-7"></use>
                        </mask>
                        <g id="Clip-78"></g>
                        <path d="M8.59608276,3.46706724 L8.13635862,7.32617069 C8.10828966,7.40715345 8.08003103,7.48320517 8.05670345,7.55394655 C7.85016897,8.11589483 7.31135862,8.49065345 6.71470345,8.50563621 C6.5241,8.51056724 6.33785862,8.48003276 6.16034138,8.40929138 L4.45325517,7.75005 L0.586944828,6.26694655 C0.307962069,6.14860172 0.125703448,5.88232586 0.118496552,5.59158448 L0.0881517241,4.38841207 C0.0430137931,2.59863621 1.36661724,0.700946552 3.0243931,0.197791379 C3.43253103,0.0771706897 3.8473069,0.01155 4.25847931,0.00623965517 C5.11097931,-0.00513965517 5.96632414,0.229084483 6.69535862,0.692412069 C7.68953103,1.32453276 8.37741034,2.34886034 8.59608276,3.46706724" id="Fill-77" fill="#FFBB00" mask="url(#mask-8)"></path>
                    </g>
                    <g id="Group-82" transform="translate(23.137931, 0.183776)">
                        <mask id="mask-10" fill="white">
                            <use xlink:href="#path-9"></use>
                        </mask>
                        <g id="Clip-81"></g>
                        <path d="M4.42366897,3.46706724 L3.96394483,7.32617069 C3.93587586,7.40715345 3.90761724,7.48320517 3.88428966,7.55394655 C3.67775517,8.11589483 3.13894483,8.49065345 2.54228966,8.50563621 C2.35168621,8.51056724 2.16544483,8.48003276 1.98792759,8.40929138 L0.280841379,7.75005 L0.0860655172,0.00623965517 C0.938565517,-0.00513965517 1.79391034,0.229084483 2.52294483,0.692412069 C3.51711724,1.32453276 4.20499655,2.34886034 4.42366897,3.46706724" id="Fill-80" fill="#FFBB00" mask="url(#mask-10)"></path>
                    </g>
                    <path d="M21.1077672,5.79464828 C20.5547328,5.80868276 20.093681,5.3702 20.0798362,4.81735517 C20.0659914,4.26432069 20.5042845,3.80326897 21.0571293,3.78942414 C21.6101638,3.77557931 22.0712155,4.21387241 22.0850603,4.7669069 C22.0990948,5.31975172 21.6606121,5.78080345 21.1077672,5.79464828" id="Fill-83" fill="#57555C"></path>
                    <path d="M27.5616,3.6508431 L24.5576517,3.35251552 L24.0673931,3.80351552 L24.1131,5.62117069 L24.6335138,6.36063621 L27.1018759,7.50994655 L27.3304103,7.61956724 C27.3658759,7.63379138 27.4011517,7.64289483 27.4413586,7.64194655 C27.4864966,7.64080862 27.5314448,7.62961897 27.5708931,7.60344655 C27.644669,7.55148103 27.6879103,7.47011897 27.6856345,7.38496379 L27.5966862,3.84561897 C27.5849276,3.7807569 27.5782897,3.71570517 27.5616,3.6508431" id="Fill-85" fill="#3C3A41"></path>
                    <path d="M24.5576707,3.35014483 L24.6331534,6.35807586 L23.5318259,5.84392069 C23.4709466,5.81547241 23.4149983,5.78171379 23.3636017,5.73790345 C23.2046707,5.60154138 23.1043431,5.39823103 23.0988431,5.18278276 L23.0703948,4.05471379 C23.0650845,3.83926552 23.1551707,3.63633448 23.3070845,3.4920069 L23.3120155,3.48688621 C23.4688603,3.33743793 23.6827914,3.26688621 23.8988086,3.28661034 L24.5576707,3.35014483 Z" id="Fill-87" fill="#57555C"></path>
                    <path d="M24.5576707,3.35014483 L24.6331534,6.35807586 L23.5318259,5.84392069 C23.4709466,5.81547241 23.4149983,5.78171379 23.3636017,5.73790345 L23.3070845,3.4920069 L23.3120155,3.48688621 C23.4688603,3.33743793 23.6827914,3.26688621 23.8988086,3.28661034 L24.5576707,3.35014483 Z" id="Fill-89" fill="#3C3A41"></path>
                </g>
                <path d="M94.0861617,46.0000751 C92.1530342,46.0000751 90.5862709,44.4331423 90.5862709,42.5002935 C90.5862709,40.5672263 92.1530342,39.0000751 94.0861617,39.0000751 C96.0192892,39.0000751 97.5862709,40.5672263 97.5862709,42.5002935 C97.5862709,44.4331423 96.0192892,46.0000751 94.0861617,46.0000751 M94.5860376,35.0000751 C90.1680297,35.0000751 86.5862709,38.5430288 86.5862709,42.9134022 C86.5862709,47.2837757 94.5860376,57.0000751 94.5860376,57.0000751 C94.5860376,57.0000751 102.586271,47.2837757 102.586271,42.9134022 C102.586271,38.5430288 99.0042788,35.0000751 94.5860376,35.0000751" id="Fill-6" fill="#C3C9D2"></path>
            </g>
        </g>
    </g>
</svg>