<?xml version="1.0" encoding="UTF-8"?>
<svg width="80px" height="80px" viewBox="0 0 80 80" version="1.1" xmlns="http://www.w3.org/2000/svg" xmlns:xlink="http://www.w3.org/1999/xlink">
    <title>BIKE EXCESS</title>
    <defs>
        <rect id="path-1" x="0" y="0" width="80" height="80"></rect>
        <polygon id="path-3" points="4.60411437e-05 0.001425 131.747654 0.001425 131.747654 0.4758 4.60411437e-05 0.4758"></polygon>
        <polygon id="path-5" points="0.0686232252 0.0309584178 14.4900228 0.0309584178 14.4900228 14.4523327 0.0686232252 14.4523327"></polygon>
        <polygon id="path-7" points="0 0.0257226166 8.87541836 0.0257226166 8.87541836 1.39552485 0 1.39552485"></polygon>
        <polygon id="path-9" points="0.0581755573 0.00393002028 5.74604462 0.00393002028 5.74604462 5.68592836 0.0581755573 5.68592836"></polygon>
        <polygon id="path-11" points="0.057530426 0.00393002028 2.95699797 0.00393002028 2.95699797 5.68592836 0.057530426 5.68592836"></polygon>
    </defs>
    <g id="Desktop" stroke="none" stroke-width="1" fill="none" fill-rule="evenodd">
        <g id="BIKE-EXCESS">
            <mask id="mask-2" fill="white">
                <use xlink:href="#path-1"></use>
            </mask>
            <g id="Mask"></g>
            <g id="Group-7-Copy" mask="url(#mask-2)">
                <g transform="translate(-47.000000, 26.000000)">
                    <g id="Group-3" stroke-width="1" fill="none" transform="translate(0.000000, 49.240478)">
                        <mask id="mask-4" fill="white">
                            <use xlink:href="#path-3"></use>
                        </mask>
                        <g id="Clip-2"></g>
                        <path d="M131.654052,0.4758 L0.0935095629,0.4758 C0.0421276465,0.4758 4.60411437e-05,0.418675 4.60411437e-05,0.3488 L4.60411437e-05,0.128425 C4.60411437e-05,0.05855 0.0421276465,0.001425 0.0935095629,0.001425 L131.654052,0.001425 C131.705526,0.001425 131.7477,0.05855 131.7477,0.128425 L131.7477,0.3488 C131.7477,0.418675 131.705526,0.4758 131.654052,0.4758" id="Fill-1" fill="#2E3552" mask="url(#mask-4)"></path>
                    </g>
                    <path d="M96.4286267,33.7516575 C95.6133301,33.7516575 94.9525476,33.0907829 94.9525476,32.2755784 C94.9525476,31.4602818 95.6133301,30.7993152 96.4286267,30.7993152 C97.2439233,30.7993152 97.9047978,31.4602818 97.9047978,32.2755784 C97.9047978,33.0907829 97.2439233,33.7516575 96.4286267,33.7516575 M96.4286267,29.1495689 C94.6845882,29.1495689 93.2706646,30.5634924 93.2706646,32.307623 C93.2706646,34.0517537 96.4286267,37.9293388 96.4286267,37.9293388 C96.4286267,37.9293388 99.5867729,34.0517537 99.5867729,32.307623 C99.5867729,30.5634924 98.1727573,29.1495689 96.4286267,29.1495689" id="Fill-6" fill="#C3C9D2"></path>
                    <path d="M94.8877769,28.3169517 C94.8853828,28.3064543 94.8303176,28.0522151 94.7113473,27.5901462 C94.6947725,27.5248598 94.6440351,27.4917102 94.5984544,27.5153754 C94.5525053,27.5395009 94.5290243,27.611233 94.5458754,27.6766114 C94.6627278,28.13159 94.7184376,28.3882234 94.7191743,28.3908017 C94.7307766,28.4450381 94.7656758,28.4797532 94.8035216,28.4797532 C94.8119932,28.4797532 94.820741,28.4777273 94.8292126,28.4741361 C94.8758062,28.4535097 94.9018655,28.3832509 94.8877769,28.3169517" id="Fill-10" fill="#FF9136"></path>
                    <path d="M94.5211513,26.8794735 C94.4579829,26.6510173 94.3903024,26.4143659 94.3203198,26.1763331 C94.3012588,26.1125201 94.2497848,26.0824092 94.2049407,26.109021 C94.1598204,26.1361853 94.1387336,26.2094828 94.1577025,26.2732958 C94.2273167,26.5098552 94.2942605,26.7448492 94.3570607,26.9713716 C94.3707809,27.0206356 94.4040226,27.051299 94.4392901,27.051299 C94.4498796,27.051299 94.4608374,27.0482603 94.4714269,27.042275 C94.5169155,27.016584 94.5391073,26.9437469 94.5211513,26.8794735" id="Fill-12" fill="#FF9136"></path>
                    <path d="M94.1097553,25.4801634 C94.0391282,25.2531806 93.9654623,25.0211332 93.8902311,24.7900988 C93.8697888,24.7272986 93.8175782,24.7001344 93.7731024,24.7293245 C93.728995,24.7584225 93.7095656,24.8327329 93.7303762,24.8960855 C93.8047787,25.1250941 93.8782604,25.3561286 93.9484271,25.5816381 C93.962884,25.6288763 93.9950207,25.656501 94.028907,25.656501 C94.0409698,25.656501 94.0529405,25.6529098 94.0645429,25.6459115 C94.1093869,25.6178264 94.1294609,25.543424 94.1097553,25.4801634" id="Fill-18" fill="#FF9136"></path>
                    <path d="M93.6626497,24.1059918 C93.5861293,23.8809427 93.5067544,23.652947 93.4266428,23.4279899 C93.4047272,23.3661106 93.3517799,23.3410643 93.3080408,23.3721881 C93.2646701,23.4038644 93.2473586,23.4791877 93.2692742,23.5409749 C93.348557,23.764919 93.4276557,23.991994 93.5038078,24.2154777 C93.5190014,24.2601376 93.5504014,24.2862889 93.5832748,24.2862889 C93.5958901,24.2862889 93.6094262,24.2823294 93.6217652,24.2737658 C93.6654122,24.2436548 93.6837366,24.1682395 93.6626497,24.1059918" id="Fill-28" fill="#FF9136"></path>
                    <path d="M93.1830852,22.7554209 C93.101224,22.533963 93.0165083,22.3099268 92.9317926,22.0889293 C92.9085879,22.028155 92.854996,22.0060553 92.8122698,22.0392049 C92.7695436,22.0723545 92.7537055,22.1486907 92.7770023,22.209465 C92.8613497,22.4289892 92.9456049,22.6519204 93.0268215,22.8724575 C93.0427518,22.9150916 93.0734152,22.9393092 93.1050915,22.9393092 C93.1189038,22.9393092 93.1329924,22.9347051 93.1460681,22.9252207 C93.1890705,22.8925314 93.2057374,22.8166556 93.1830852,22.7554209" id="Fill-30" fill="#FF9136"></path>
                    <path d="M92.6732163,21.4284507 C92.5861065,21.2104919 92.4967867,20.9899548 92.4070985,20.7734694 C92.3825126,20.713708 92.3280919,20.6940945 92.2864707,20.7292699 C92.2444812,20.7644453 92.2303005,20.841334 92.2550707,20.9010954 C92.3443905,21.1164759 92.433342,21.3355397 92.5197152,21.5524855 C92.5360137,21.5931859 92.5659405,21.6158382 92.596696,21.6158382 C92.6114291,21.6158382 92.6262544,21.6106815 92.6400667,21.5997238 C92.6824246,21.5650087 92.6972498,21.4886725 92.6732163,21.4284507" id="Fill-32" fill="#FF9136"></path>
                    <path d="M92.1336694,20.1255416 C92.0412188,19.910069 91.9471107,19.6941361 91.8530946,19.483636 C91.8270354,19.4248875 91.7727068,19.4072997 91.7314539,19.444501 C91.690109,19.4817022 91.6781383,19.5590513 91.7042897,19.6177998 C91.7974769,19.827195 91.8912167,20.0422071 91.983299,20.2561143 C91.9999659,20.2953413 92.0288797,20.3164282 92.0585302,20.3164282 C92.0743684,20.3164282 92.0899303,20.3104428 92.1044793,20.2979196 C92.1460084,20.2617313 92.1590841,20.1842901 92.1336694,20.1255416" id="Fill-36" fill="#FF9136"></path>
                    <path d="M91.6196806,18.7152888 C91.52723,18.4998163 91.4331219,18.2838833 91.3391059,18.0733832 C91.3130466,18.0146347 91.2587181,17.997047 91.2174652,18.0342482 C91.1761202,18.0714495 91.1641495,18.1487986 91.1903009,18.2075471 C91.2834882,18.4169422 91.377228,18.6319543 91.4693102,18.8458615 C91.4859771,18.8850885 91.514891,18.9061754 91.5445415,18.9061754 C91.5603796,18.9061754 91.5759415,18.90019 91.5904905,18.8876669 C91.6320196,18.8514785 91.6450953,18.7740373 91.6196806,18.7152888" id="Fill-36-Copy" fill="#FF9136"></path>
                    <path d="M90.9685246,17.5971922 C90.8672341,17.392217 90.7631811,17.1853081 90.6596806,16.9829112 C90.6308588,16.926649 90.5757936,16.9141258 90.5362903,16.9552865 C90.4971553,16.9959869 90.4883154,17.0743489 90.5168609,17.1306112 C90.619901,17.3319952 90.7233094,17.5374308 90.8242316,17.7418534 C90.8415431,17.7764764 90.8687074,17.795077 90.8965162,17.795077 C90.914196,17.795077 90.9318758,17.7880788 90.9470694,17.7725168 C90.9868489,17.7322769 90.9967938,17.6540069 90.9685246,17.5971922" id="Fill-44" fill="#FF9136"></path>
                    <path d="M90.343645,16.3751681 C90.237382,16.1747971 90.1287249,15.9728606 90.020344,15.7755283 C89.9907856,15.7207393 89.9349838,15.7107023 89.8968617,15.7534285 C89.8583713,15.7960626 89.851373,15.8748851 89.8812998,15.929674 C89.988944,16.1260855 90.0969565,16.3270091 90.2028511,16.5263673 C90.2200705,16.5590565 90.2464981,16.5766442 90.2730178,16.5766442 C90.2918026,16.5766442 90.3104953,16.5680805 90.3263335,16.5509532 C90.3651001,16.509332 90.372835,16.4304175 90.343645,16.3751681" id="Fill-48" fill="#FF9136"></path>
                    <path d="M89.6904316,15.1833103 C89.5796566,14.9874512 89.4663954,14.7910397 89.3535025,14.5991402 C89.3223787,14.5460087 89.2665769,14.5389184 89.2291914,14.5831179 C89.1918981,14.6278699 89.1869257,14.7066923 89.2183257,14.7599159 C89.3302057,14.9512629 89.4430065,15.1466615 89.553229,15.3410472 C89.5708167,15.3716185 89.5963235,15.3877329 89.6220145,15.3877329 C89.6414439,15.3877329 89.6607811,15.3787089 89.6773559,15.3596478 C89.7152018,15.3164612 89.7211871,15.2370863 89.6904316,15.1833103" id="Fill-52" fill="#FF9136"></path>
                    <path d="M89.0097962,14.0231103 C88.8940488,13.8327762 88.7761834,13.6418896 88.6589627,13.455515 C88.6265497,13.4043173 88.5708399,13.3998053 88.5344674,13.4460306 C88.4980949,13.4922559 88.4949641,13.5716308 88.5274692,13.623289 C88.6441374,13.8086506 88.7613582,13.9979718 88.876369,14.1873851 C88.8936804,14.2159306 88.9183585,14.2310321 88.9430365,14.2310321 C88.9635709,14.2310321 88.9840132,14.2209951 89.000588,14.2003687 C89.0376971,14.1546959 89.0415646,14.0758734 89.0097962,14.0231103" id="Fill-56" fill="#FF9136"></path>
                    <path d="M88.3015545,12.897036 C88.1808346,12.7122268 88.0584572,12.5273256 87.9370928,12.347581 C87.9032065,12.297304 87.8474046,12.2958307 87.8121371,12.3440818 C87.7772379,12.3917805 87.776133,12.4716158 87.8096509,12.5213402 C87.9303708,12.700164 88.0521036,12.8839603 88.1720868,13.0677565 C88.1893062,13.0944604 88.2129713,13.1079965 88.2366365,13.1079965 C88.2581837,13.1079965 88.279731,13.0969466 88.296582,13.0742944 C88.3326783,13.0276087 88.3347041,12.9477733 88.3015545,12.897036" id="Fill-60" fill="#FF9136"></path>
                    <path d="M87.5658907,11.8071132 C87.4412113,11.6287498 87.3143219,11.4504785 87.187985,11.2762588 C87.1530858,11.2280077 87.0971918,11.2290206 87.0633976,11.278745 C87.0295113,11.3290219 87.030248,11.4083048 87.0651472,11.4565559 C87.1907474,11.6298548 87.3170843,11.8071132 87.4410271,11.9844637 C87.4582465,12.0090496 87.4808066,12.0211124 87.5033668,12.0211124 C87.525927,12.0211124 87.548303,12.0090496 87.5655223,11.9844637 C87.6000532,11.9356601 87.6000532,11.8563772 87.5658907,11.8071132" id="Fill-64" fill="#FF9136"></path>
                    <path d="M86.8033296,10.7554045 C86.6745986,10.583579 86.5429209,10.4118455 86.4123482,10.2440716 C86.3759757,10.1978463 86.3202659,10.2018979 86.2877609,10.2530957 C86.2549796,10.3048459 86.2581104,10.3842208 86.2941146,10.4309066 C86.4240427,10.5972072 86.5548916,10.7679277 86.6829781,10.9387404 C86.6999212,10.9613005 86.7214685,10.9723504 86.7433841,10.9723504 C86.7666809,10.9723504 86.7902539,10.9592747 86.8075654,10.932663 C86.840715,10.8820177 86.8389655,10.8026428 86.8033296,10.7554045" id="Fill-70" fill="#FF9136"></path>
                    <path d="M86.0147001,9.74335575 C85.8816412,9.57908095 85.7458198,9.41434574 85.610643,9.25310965 C85.5732576,9.20891015 85.5174557,9.21590841 85.4861478,9.26922405 C85.4550239,9.32244762 85.4599964,9.40127005 85.4973818,9.44602205 C85.6318219,9.60624523 85.7669987,9.76996753 85.8989526,9.93322943 C85.9155275,9.95376378 85.936246,9.96389283 85.9567803,9.96389283 C85.9815505,9.96389283 86.0057681,9.94925175 86.02354,9.92061415 C86.0552163,9.8684035 86.0513488,9.78902857 86.0147001,9.74335575" id="Fill-74" fill="#FF9136"></path>
                    <path d="M85.1998915,8.77396868 C85.0619523,8.61577131 84.921803,8.45858684 84.7832192,8.30591441 C84.7447288,8.26318823 84.6892953,8.27368561 84.6593685,8.32847457 C84.629718,8.38317145 84.6367163,8.46208597 84.6752067,8.50425966 C84.8127776,8.65591919 84.9521902,8.81264324 85.0894849,8.9698277 C85.1056914,8.98842833 85.1251207,8.99745239 85.144458,8.99745239 C85.1702411,8.99745239 85.1960241,8.98143007 85.2133356,8.95076667 C85.243999,8.8965302 85.2380136,8.81770776 85.1998915,8.77396868" id="Fill-78" fill="#FF9136"></path>
                    <path d="M47.3879761,7.67955228 C47.3615485,7.62126419 47.3071279,7.60422896 47.265875,7.64189062 C47.1179908,7.77798824 46.9687254,7.91712458 46.8223146,8.05672132 C46.7820746,8.09539589 46.7712089,8.1732975 46.7983732,8.2310331 C46.8152243,8.26722143 46.8431252,8.28674288 46.8717628,8.28674288 C46.8883376,8.28674288 46.9056491,8.27974463 46.9204743,8.26519562 C47.0661485,8.1265197 47.2143089,7.98793586 47.3615485,7.85331155 C47.402433,7.8156499 47.4144037,7.73784036 47.3879761,7.67955228" id="Fill-80" fill="#FF9136"></path>
                    <path d="M84.360451,7.84879031 C84.2185522,7.6986041 84.0743513,7.54897038 83.9313475,7.40375662 C83.8918442,7.36360874 83.836779,7.37668442 83.8082335,7.4329467 C83.7799643,7.48920898 83.7891725,7.56803142 83.8286758,7.60827138 C83.9705746,7.75238016 84.1141309,7.90100097 84.2549247,8.05072677 C84.2707629,8.06730158 84.2891793,8.07531274 84.3075037,8.07531274 C84.334668,8.07531274 84.3611877,8.05772502 84.378407,8.0245754 C84.407413,7.96941811 84.3992176,7.89050359 84.360451,7.84879031" id="Fill-82" fill="#FF9136"></path>
                    <path d="M48.2888355,6.8889798 C48.2637892,6.82921839 48.2098289,6.81015736 48.1678394,6.84524071 C48.0171928,6.97387967 47.8643362,7.10592567 47.7147946,7.23806375 C47.6730813,7.2747125 47.6603739,7.35206162 47.686157,7.41136261 C47.7027318,7.44948468 47.7316456,7.47057152 47.7612961,7.47057152 C47.7771343,7.47057152 47.7930645,7.46458618 47.8075214,7.45151049 C47.9568789,7.3199249 48.1081701,7.18879972 48.2585405,7.06126576 C48.3001617,7.02562991 48.3138819,6.9487412 48.2888355,6.8889798" id="Fill-84" fill="#FF9136"></path>
                    <path d="M83.4966455,6.97036212 C83.3508792,6.82818707 83.2027188,6.68656451 83.0559396,6.54899357 C83.014963,6.51077943 82.9602662,6.52689383 82.9334702,6.58508983 C82.9066743,6.64282543 82.9179083,6.72072704 82.9588849,6.75894119 C83.1045591,6.89549922 83.2520749,7.03610888 83.3967362,7.17727102 C83.4119298,7.19237252 83.4292412,7.19937077 83.4464606,7.19937077 C83.474822,7.19937077 83.5023546,7.18030974 83.5192056,7.1451343 C83.5467382,7.08785912 83.5365171,7.00949709 83.4966455,6.97036212" id="Fill-86" fill="#FF9136"></path>
                    <path d="M49.2083969,6.1431501 C49.1847317,6.08237579 49.1311398,6.06027604 49.0884137,6.09388608 C48.9338996,6.21497429 48.7782805,6.33946954 48.6258843,6.46405687 C48.5835265,6.49867981 48.5690696,6.57501603 48.5932872,6.63532993 C48.6095858,6.6760303 48.6392363,6.69859046 48.6698997,6.69859046 C48.6847249,6.69859046 48.7000106,6.69306552 48.7137308,6.68210773 C48.8653904,6.55798081 49.0199965,6.43394596 49.1734977,6.31387066 C49.2161318,6.28026063 49.2316937,6.20392441 49.2083969,6.1431501" id="Fill-88" fill="#FF9136"></path>
                    <path d="M82.6095431,6.14013901 C82.4613827,6.00698802 82.3091707,5.87346871 82.1575112,5.74335643 C82.11589,5.70772059 82.0618377,5.72678162 82.036423,5.78599053 C82.0114687,5.84529153 82.0248206,5.92264065 82.0665339,5.95827649 C82.2170884,6.08792835 82.3681955,6.22052685 82.515343,6.35257285 C82.5301682,6.36564853 82.5463747,6.37163388 82.5622128,6.37163388 C82.5915871,6.37163388 82.6200405,6.35109953 82.6370757,6.31343788 C82.663135,6.25459729 82.650796,6.17678776 82.6095431,6.14013901" id="Fill-90" fill="#FF9136"></path>
                    <path d="M50.1452329,5.44245914 C50.123041,5.38067193 50.0701858,5.35608596 50.0263546,5.38720977 C49.8697227,5.50074723 49.711249,5.61778382 49.5552617,5.73482041 C49.5122592,5.76741754 49.4959607,5.84329334 49.5185208,5.90452806 C49.5344511,5.94725424 49.5651145,5.9713798 49.5965145,5.9713798 C49.6106952,5.9713798 49.6247838,5.96686777 49.6378595,5.95673872 C49.7927419,5.84025462 49.9504788,5.72423094 50.1064662,5.61124598 C50.149837,5.58012216 50.1671485,5.50424636 50.1452329,5.44245914" id="Fill-92" fill="#FF9136"></path>
                    <path d="M81.7001385,5.35959429 C81.5473739,5.23353364 81.3917549,5.10894631 81.2378854,4.98841059 C81.1952513,4.95480056 81.1416594,4.97690031 81.1179942,5.03767462 C81.0946974,5.09844893 81.1102593,5.17478514 81.1528934,5.20839518 C81.30575,5.32791799 81.4602641,5.45204491 81.612292,5.57709266 C81.6261043,5.58814253 81.6412058,5.59366747 81.656031,5.59366747 C81.6867865,5.59366747 81.716437,5.57101522 81.7326435,5.53086735 C81.7569532,5.47064553 81.7424963,5.39421723 81.7001385,5.35959429" id="Fill-94" fill="#FF9136"></path>
                    <path d="M51.0983306,4.78803953 C51.07752,4.72523941 51.0253093,4.69807514 50.9808336,4.72726522 C50.8217154,4.83269944 50.6604793,4.94172487 50.5017294,5.05167112 C50.4578983,5.08187411 50.4395739,5.15719742 50.4610291,5.21953713 C50.4762226,5.26419704 50.5076227,5.29034841 50.540404,5.29034841 C50.5532034,5.29034841 50.5666475,5.2857443 50.5788944,5.27718064 C50.7366314,5.1682473 50.8971308,5.05977436 51.0553282,4.95526097 C51.0994356,4.92570255 51.1188649,4.85130007 51.0983306,4.78803953" id="Fill-96" fill="#FF9136"></path>
                    <path d="M80.7704112,4.63031178 C80.6140555,4.5132752 80.4553056,4.39725151 80.2982133,4.28527945 C80.2548425,4.25415564 80.2015269,4.27920202 80.1800717,4.34098924 C80.1582482,4.40332895 80.1758359,4.47865226 80.2192067,4.50977607 C80.3751941,4.62073523 80.5332993,4.7362985 80.6885501,4.85232218 C80.7015337,4.86235915 80.7157144,4.86687118 80.7295267,4.86687118 C80.761203,4.86687118 80.7918664,4.84228521 80.8074283,4.79955903 C80.8303568,4.73832431 80.813782,4.6624485 80.7704112,4.63031178" id="Fill-98" fill="#FF9136"></path>
                    <path d="M52.0662812,4.18028723 C52.0472201,4.1164742 51.9956541,4.08682371 51.9505337,4.11398798 C51.7888372,4.21141104 51.625207,4.31288572 51.4639709,4.41482081 C51.4194952,4.44299799 51.3993292,4.51684799 51.4191269,4.58056893 C51.4339521,4.62725465 51.4659967,4.65487934 51.4999751,4.65487934 C51.5118537,4.65487934 51.5239165,4.65138021 51.5355189,4.64438196 C51.6958341,4.54290728 51.8588198,4.44198509 52.0196875,4.34502244 C52.0644395,4.31795025 52.0853422,4.24410025 52.0662812,4.18028723" id="Fill-100" fill="#FF9136"></path>
                    <path d="M79.8211718,3.95327677 C79.6623298,3.84581674 79.5004492,3.73835671 79.3398576,3.63531663 C79.2953819,3.60667904 79.2431712,3.63430372 79.2230973,3.69765634 C79.2029313,3.76091687 79.222729,3.83522727 79.2671126,3.86386486 C79.4266912,3.96681286 79.587559,4.07279957 79.745296,4.1802596 C79.7577271,4.18836285 79.7707107,4.19232238 79.783418,4.19232238 C79.8161993,4.19232238 79.8479677,4.1657106 79.862793,4.12105069 C79.884064,4.05825057 79.8652792,3.98338767 79.8211718,3.95327677" id="Fill-102" fill="#FF9136"></path>
                    <path d="M53.0482467,3.61924827 C53.030659,3.55451442 52.9798295,3.52228562 52.9343409,3.54696367 C52.7698819,3.63738848 52.6040417,3.73075992 52.4405957,3.82468385 C52.3954753,3.85083522 52.3740202,3.92367231 52.3923446,3.98794575 C52.4060648,4.03711769 52.4389382,4.06676818 52.4738374,4.06676818 C52.4851635,4.06676818 52.4960292,4.06372947 52.506987,4.05728371 C52.6693281,3.96382019 52.8344316,3.87090916 52.9977856,3.78149726 C53.0432742,3.75635879 53.0659265,3.6840742 53.0482467,3.61924827" id="Fill-104" fill="#FF9136"></path>
                    <path d="M78.8543077,3.3304598 C78.692335,3.23147134 78.5275077,3.13358787 78.3646141,3.03911144 C78.3193097,3.01305215 78.2679277,3.04362347 78.2496034,3.10798899 C78.2311869,3.17226243 78.2531025,3.24555993 78.2982228,3.2717113 C78.4601956,3.36563523 78.6239179,3.46305829 78.7847856,3.56103385 C78.7961117,3.5680321 78.8077141,3.57107081 78.8194086,3.57107081 C78.8535711,3.57107081 78.8860761,3.54289363 78.9005331,3.49519501 C78.9195941,3.43147407 78.8991518,3.35753199 78.8543077,3.3304598" id="Fill-106" fill="#FF9136"></path>
                    <path d="M54.0429932,3.1049779 C54.0267867,3.03913906 53.9762336,3.00451612 53.9304687,3.02762878 C53.7642601,3.10995034 53.59621,3.19531062 53.4308302,3.28131548 C53.3852494,3.30534896 53.3616764,3.37717314 53.3785274,3.44245948 C53.3916031,3.49319682 53.4251211,3.52487313 53.4611252,3.52487313 C53.4713464,3.52487313 53.4815675,3.52229483 53.4915124,3.51732238 C53.6559714,3.43140961 53.8231928,3.34650974 53.9886647,3.26464859 C54.0345216,3.24153593 54.0589235,3.17026424 54.0429932,3.1049779" id="Fill-108" fill="#FF9136"></path>
                    <path d="M55.0486975,2.63683155 C55.0342406,2.5710848 54.9847924,2.53388355 54.9381988,2.5544179 C54.7692278,2.6292808 54.5990597,2.70718242 54.4329433,2.78499195 C54.386718,2.8070917 54.3616716,2.87790298 54.3767731,2.94374181 C54.3892042,2.99650497 54.4233667,3.030115 54.4603838,3.030115 C54.469592,3.030115 54.4790765,3.02808919 54.4882847,3.02357716 C54.6534804,2.94622804 54.8228197,2.86887892 54.9907778,2.79456851 C55.0370031,2.77348167 55.0631545,2.7031308 55.0486975,2.63683155" id="Fill-110" fill="#FF9136"></path>
                    <path d="M77.8708965,2.76141889 C77.7071742,2.67200698 77.5398607,2.58305549 77.3737443,2.4972348 C77.3278873,2.47366174 77.2774262,2.50727177 77.2607593,2.57255811 C77.2441845,2.63784446 77.2678496,2.70966864 77.3133383,2.73324171 C77.4784418,2.81869407 77.6451108,2.90709306 77.8077281,2.99595247 C77.8179492,3.00147741 77.828907,3.00396363 77.8391282,3.00396363 C77.874764,3.00396363 77.9082819,2.97339231 77.921726,2.92366788 C77.9389454,2.85884195 77.9163852,2.78600486 77.8708965,2.76141889" id="Fill-112" fill="#FF9136"></path>
                    <path d="M56.064577,2.21544459 C56.0515013,2.14859285 56.0027898,2.10945787 55.9558278,2.1280585 C55.7858439,2.19537065 55.6142946,2.26516902 55.4459682,2.33551989 C55.3990062,2.35504133 55.3722102,2.42483971 55.3860226,2.49169145 C55.3973487,2.54648041 55.4326162,2.58165584 55.4707383,2.58165584 C55.4788415,2.58165584 55.487221,2.58009045 55.4956926,2.57659132 C55.6630061,2.50624045 55.8338188,2.43690249 56.0031581,2.37014283 C56.05012,2.35163429 56.0776527,2.28275674 56.064577,2.21544459" id="Fill-114" fill="#FF9136"></path>
                    <path d="M76.87301,2.24710248 C76.7064331,2.16625423 76.5367255,2.0868793 76.3686753,2.01054308 C76.3225421,1.98945624 76.2727256,2.02564458 76.2579003,2.09185174 C76.2431672,2.15824307 76.2688581,2.22850186 76.3150834,2.2495887 C76.4820286,2.3254645 76.6507234,2.40474735 76.8161952,2.48467478 C76.8253114,2.48918681 76.8348879,2.49167303 76.8443724,2.49167303 C76.8811132,2.49167303 76.9153679,2.45852341 76.9280752,2.40631275 C76.9436371,2.34102641 76.918867,2.26966264 76.87301,2.24710248" id="Fill-116" fill="#FF9136"></path>
                    <path d="M57.0892595,1.84028293 C57.0776571,1.77297078 57.0299585,1.7312575 56.9827202,1.74783231 C56.8111709,1.80713331 56.6383325,1.86938093 56.4682565,1.93218105 C56.4209262,1.94976877 56.392749,2.01855424 56.4050881,2.08540598 C56.4153092,2.14212867 56.4513134,2.17932991 56.4904483,2.17932991 C56.497907,2.17932991 56.5052736,2.17831701 56.5126402,2.17527829 C56.6817032,2.11247817 56.8538971,2.05124345 57.0243414,1.99194246 C57.0716717,1.97536765 57.1005856,1.907503 57.0892595,1.84028293" id="Fill-118" fill="#FF9136"></path>
                    <path d="M75.8617255,1.78750136 C75.6933991,1.71567718 75.5219418,1.64541839 75.3518659,1.57810624 C75.3051801,1.55950562 75.2565607,1.59873267 75.243485,1.66549233 C75.2305014,1.73225199 75.2575736,1.80158995 75.3044435,1.82019058 C75.4735066,1.88695023 75.644043,1.95674861 75.8111723,2.02811238 C75.819736,2.03161151 75.8282075,2.03363732 75.8366791,2.03363732 C75.8748012,2.03363732 75.9097004,1.99846188 75.9210265,1.94367292 C75.9351151,1.87746576 75.9085954,1.8075753 75.8617255,1.78750136" id="Fill-120" fill="#FF9136"></path>
                    <path d="M58.1214098,1.50927473 C58.111557,1.44150217 58.064595,1.39822349 58.0168964,1.41231208 C57.9361403,1.43689805 57.855292,1.46203652 57.7741675,1.48717498 C57.6820852,1.51581258 57.5902792,1.54491058 57.4989336,1.57456107 C57.451327,1.59012298 57.4216765,1.65743513 57.432266,1.72529978 C57.4417505,1.78349578 57.478215,1.82263076 57.5183629,1.82263076 C57.5248087,1.82263076 57.5314386,1.82170993 57.5381606,1.81968412 C57.6291379,1.79003363 57.7202073,1.76093562 57.8120133,1.73275844 C57.8927695,1.70761998 57.9732494,1.6825736 58.0537293,1.65789554 C58.1012438,1.64389904 58.1316309,1.5770473 58.1214098,1.50927473" id="Fill-122" fill="#FF9136"></path>
                    <path d="M74.8394648,1.38270763 C74.669665,1.31990751 74.4963662,1.25867279 74.3245406,1.2003847 C74.2770262,1.1842703 74.2293275,1.22598358 74.2180935,1.29329573 C74.2067674,1.36060788 74.2360495,1.42838044 74.2832877,1.44449484 C74.4541004,1.50278293 74.6263863,1.56346516 74.7953573,1.62580487 C74.802816,1.62829109 74.8101826,1.62985649 74.8175492,1.62985649 C74.8566842,1.62985649 74.89232,1.59210275 74.9026332,1.53538006 C74.9148802,1.4686204 74.8867951,1.39983493 74.8394648,1.38270763" id="Fill-124" fill="#FF9136"></path>
                    <path d="M59.1594903,1.21194103 C59.1503741,1.14407638 59.1041488,1.09941647 59.0561739,1.11249216 C58.8843484,1.15917788 58.7093,1.2084419 58.5360011,1.25862675 C58.4880262,1.27216284 58.4573628,1.33855417 58.4669394,1.40678715 C58.4753189,1.46608814 58.512428,1.50724892 58.5533126,1.50724892 C58.5592979,1.50724892 58.565007,1.50623602 58.5709003,1.5047627 C58.7438308,1.45503827 58.9182347,1.40577424 59.0893236,1.35908852 C59.1373905,1.34610492 59.1686985,1.28026608 59.1594903,1.21194103" id="Fill-126" fill="#FF9136"></path>
                    <path d="M73.8073236,1.03159787 C73.6354981,0.977913893 73.460818,0.925703236 73.2878874,0.876439212 C73.2402809,0.862350622 73.1936872,0.90655012 73.1841107,0.974322684 C73.1746262,1.04264774 73.2052896,1.10848658 73.2532645,1.12257517 C73.4248138,1.1712867 73.5987572,1.22349735 73.7695699,1.27672092 C73.7759236,1.27874673 73.7822772,1.27975963 73.7882626,1.27975963 C73.8287788,1.27975963 73.8655196,1.23951967 73.8744516,1.18132367 C73.884949,1.11345902 73.8550222,1.04669936 73.8073236,1.03159787" id="Fill-128" fill="#FF9136"></path>
                    <path d="M60.2015303,0.947738527 C60.193427,0.87941347 60.1479384,0.833188162 60.0998714,0.84479053 C59.9266646,0.886411724 59.7508796,0.93015081 59.5773965,0.974350308 C59.5293296,0.986873499 59.4975612,1.05225192 59.5064011,1.1204849 C59.5137677,1.1807988 59.5512452,1.22352498 59.5928664,1.22352498 C59.598115,1.22352498 59.6034558,1.22297248 59.6087966,1.22149917 C59.781635,1.17729967 59.9566835,1.13356058 60.1292457,1.0923998 C60.1771285,1.08079743 60.2096335,1.01606358 60.2015303,0.947738527" id="Fill-130" fill="#FF9136"></path>
                    <path d="M72.7670792,0.733766916 C72.5937804,0.689107006 72.4180873,0.64536792 72.2440518,0.604759631 C72.1965374,0.593709757 72.1505883,0.639842983 72.1428534,0.708720534 C72.1347502,0.776953509 72.1675314,0.841226945 72.2155984,0.852829314 C72.3884369,0.892977191 72.563117,0.936163784 72.7353108,0.980915775 C72.7406516,0.982389092 72.7459003,0.982941586 72.751149,0.982941586 C72.7927702,0.982941586 72.8302477,0.940767898 72.8377063,0.879901506 C72.8464541,0.811668531 72.8147778,0.746382189 72.7670792,0.733766916" id="Fill-132" fill="#FF9136"></path>
                    <path d="M61.2474377,0.716685652 C61.2403474,0.648452677 61.1958716,0.600661969 61.1476205,0.610791021 C60.973585,0.646426866 60.7971553,0.684548933 60.6232119,0.723223494 C60.575237,0.734273368 60.5420874,0.798546805 60.5498223,0.866871862 C60.5565443,0.928659077 60.5939297,0.972858575 60.6366559,0.972858575 C60.64126,0.972858575 60.6458641,0.972398164 60.6508366,0.971385259 C60.8239513,0.932710698 60.9997364,0.895049042 61.1729432,0.859321115 C61.2210101,0.849284145 61.2545281,0.785563203 61.2474377,0.716685652" id="Fill-134" fill="#FF9136"></path>
                    <path d="M62.2972126,0.521811907 C62.2912273,0.453026438 62.2474882,0.403762414 62.199145,0.411865655 C62.0254778,0.441976563 61.8484036,0.47365287 61.6729868,0.506710411 C61.6246436,0.515826558 61.5907573,0.579087089 61.597111,0.647872558 C61.602728,0.711225172 61.6408501,0.756897986 61.6843129,0.756897986 C61.6881804,0.756897986 61.6920478,0.756345493 61.6959153,0.755885081 C61.8709637,0.722735458 62.0473934,0.691059151 62.2202318,0.661500737 C62.268575,0.652937084 62.3029217,0.590689458 62.2972126,0.521811907" id="Fill-136" fill="#FF9136"></path>
                    <path d="M71.7200944,0.4886807 C71.5465193,0.452492361 71.3697213,0.41786942 71.1943045,0.385732702 C71.1456851,0.376708638 71.1018539,0.425420168 71.0955923,0.494205637 C71.0895149,0.562530694 71.1234933,0.625791226 71.1717444,0.63481529 C71.3460561,0.666491597 71.5218412,0.701114537 71.6944034,0.737302876 C71.6986392,0.738315781 71.702875,0.738776192 71.7070187,0.738776192 C71.7501132,0.738776192 71.787867,0.693563789 71.794589,0.631316163 C71.8016793,0.562530694 71.7680693,0.498717669 71.7200944,0.4886807" id="Fill-138" fill="#FF9136"></path>
                    <path d="M63.2538279,0.250601945 C63.0788715,0.274175011 62.9013369,0.299865969 62.7260122,0.32647775 C62.6775769,0.333936415 62.6425857,0.39572363 62.6476502,0.464601181 C62.6526226,0.529335029 62.691021,0.577033654 62.7354967,0.577033654 C62.7386275,0.577033654 62.7417583,0.576573243 62.7449812,0.576112831 C62.9196613,0.549408968 63.0964593,0.523810092 63.2704027,0.500237027 C63.3187459,0.493699184 63.3543818,0.432464463 63.3497776,0.363586912 C63.3451735,0.294341032 63.3021711,0.244064103 63.2538279,0.250601945" id="Fill-140" fill="#FF9136"></path>
                    <path d="M70.6678885,0.294801443 C70.4925638,0.266716346 70.3150292,0.240564976 70.1399808,0.21699191 C70.0916376,0.210361986 70.0485431,0.260638915 70.044031,0.329976877 C70.0394269,0.398762346 70.0747865,0.459997067 70.123406,0.466626992 C70.2974415,0.490660469 70.4737791,0.516811838 70.6480908,0.544436525 C70.6512216,0.544896936 70.6548128,0.54544943 70.6580357,0.54544943 C70.7024194,0.54544943 70.7405414,0.497750805 70.7455139,0.43393778 C70.7511309,0.364599817 70.7162317,0.302812602 70.6678885,0.294801443" id="Fill-142" fill="#FF9136"></path>
                    <path d="M64.3109786,0.127543176 C64.1360222,0.144670482 63.9581193,0.163179022 63.7820579,0.183805454 C63.7334385,0.189790803 63.6974343,0.250104701 63.7013018,0.319350581 C63.7051692,0.385189417 63.7436596,0.43445344 63.7891483,0.43445344 L63.7965149,0.43445344 C63.9718395,0.413827008 64.1490059,0.394765975 64.3230414,0.377638669 C64.3716608,0.373126637 64.4084937,0.313365232 64.4049025,0.244119352 C64.4016796,0.17478139 64.3607951,0.122570733 64.3109786,0.127543176" id="Fill-144" fill="#FF9136"></path>
                    <path d="M69.6117323,0.151153075 C69.4371443,0.131079136 69.2592413,0.112938926 69.0824433,0.0974691013 C69.0330872,0.0928649869 68.9918343,0.145628138 68.9889798,0.214413606 C68.9857569,0.283751569 69.022774,0.343512973 69.0712093,0.348025005 C69.2469023,0.363586912 69.4239765,0.381727123 69.5976437,0.401248568 C69.6001299,0.401801061 69.6025241,0.401801061 69.6047341,0.401801061 C69.6502227,0.401801061 69.6890814,0.352076626 69.6925806,0.286237791 C69.696448,0.21699191 69.6600755,0.156678012 69.6117323,0.151153075" id="Fill-146" fill="#FF9136"></path>
                    <path d="M65.370284,0.0446783259 C65.195696,0.0547152952 65.0170564,0.0672384863 64.8406267,0.0808666648 C64.7920073,0.0849182855 64.7545298,0.143666785 64.7573843,0.212912665 C64.7598705,0.280224817 64.7986372,0.331975063 64.8452308,0.331975063 C64.8469804,0.331975063 64.8484537,0.331975063 64.8502033,0.331514651 C65.0263567,0.317886473 65.2037072,0.305823693 65.3777427,0.295878806 C65.4263621,0.292748008 65.464208,0.233999509 65.461998,0.164753629 C65.4599722,0.0954156663 65.4179826,0.0421921041 65.370284,0.0446783259" id="Fill-148" fill="#FF9136"></path>
                    <path d="M68.552786,0.0557374086 C68.3774613,0.0436746289 68.19919,0.0336376596 68.022392,0.0255344183 C67.9745092,0.0240611017 67.9331643,0.0778371576 67.9314147,0.14717512 C67.9299414,0.216513083 67.9680635,0.274248677 68.0168671,0.276734899 C68.1925601,0.284746058 68.3700947,0.294783027 68.5443144,0.306385395 L68.5485502,0.306385395 C68.5955122,0.306385395 68.6343709,0.254082656 68.636765,0.186770504 C68.638975,0.117524623 68.6014975,0.0587761241 68.552786,0.0557374086" id="Fill-150" fill="#FF9136"></path>
                    <path d="M66.4321033,0.00398716305 L66.4309983,0.00398716305 C66.256042,0.00702587853 66.0774023,0.0119983221 65.9006964,0.0190886582 C65.8519849,0.0211144685 65.8134945,0.078297569 65.8149678,0.148095943 C65.8159807,0.215960589 65.855484,0.270197056 65.9028143,0.270197056 L65.9052084,0.270197056 C66.0812698,0.26310672 66.2591728,0.258134276 66.4331162,0.255095561 C66.4818277,0.254082656 66.5210548,0.197359967 66.5203181,0.128022004 C66.5195815,0.0592365355 66.4803544,0.00398716305 66.4321033,0.00398716305" id="Fill-152" fill="#FF9136"></path>
                    <path d="M67.492127,0.00699825385 C67.3163419,0.00303871549 67.1377943,0.000460411437 66.961733,-2.577595e-14 L66.9613647,-2.577595e-14 C66.9126531,-2.577595e-14 66.8731498,0.0562622776 66.8731498,0.125047746 C66.8731498,0.19484612 66.9126531,0.251108398 66.9613647,0.251108398 C67.1367814,0.251568809 67.314224,0.254147113 67.4892724,0.258198734 L67.4906536,0.258198734 C67.5387206,0.258198734 67.5782239,0.203409773 67.5788685,0.134624304 C67.5796051,0.0652863418 67.5407464,0.00801115901 67.492127,0.00699825385" id="Fill-154" fill="#FF9136"></path>
                    <g id="Group-91-Copy" stroke-width="1" fill="none" transform="translate(41.176471, 13.235322)">
                        <path d="M24.7439528,13.0051724 C24.659394,13.076927 24.0665948,13.0127789 23.9334812,12.907429 C23.8006212,12.8020791 22.7435725,12.8337728 22.7435725,12.8337728 L22.8763058,12.1915314 C22.8763058,12.1915314 23.4805147,12.2881339 23.6407581,12.2540314 C23.8010015,12.219929 24.5714123,11.84214 24.8295259,11.9576318 C25.0876395,12.0732505 25.7036384,12.8160243 25.5061232,13.1147059 C25.5061232,13.1147059 25.1928626,13.0969574 24.9279031,12.776217" id="Fill-1" fill="#C7A288"></path>
                        <polygon id="Fill-3" fill="#BEBDC0" points="32.641747 13.3828981 34.4662906 13.3828981 33.1970208 14.705033"></polygon>
                        <path d="M28.6345969,12.8598884 L30.9084305,11.8900609 C31.4838616,11.6499493 32.1258494,12.0420639 32.175038,12.6637677 L32.260104,13.7394523 C32.2812754,14.0075811 32.2304386,14.2763438 32.1127916,14.5181034 L30.6764326,17.4680274 L28.6345969,12.8598884 Z" id="Fill-5" fill="#434343"></path>
                        <path d="M30.7273707,13.4534102 C30.7273707,13.4534102 32.8163666,13.2948149 33.2394143,13.4534102 C33.2394143,13.4534102 35.3284102,15.9389579 33.1335573,18.054323 L31.3620056,18.054323 L28.4005451,13.7178626 L30.7273707,13.4534102 Z" id="Fill-7" fill="#BEBDC0"></path>
                        <path d="M37.874176,34.1276116 C35.1535877,34.2853195 32.8204234,32.2077333 32.6627155,29.487145 C32.5048808,26.7666836 34.582467,24.4335193 37.3030553,24.2758114 C40.0235167,24.1179767 42.3568078,26.1956897 42.5145157,28.9161511 C42.6722236,31.6366126 40.5946374,33.9699037 37.874176,34.1276116 M44.633177,27.6415568 C43.7695867,23.7540061 39.9179133,21.3026876 36.0303626,22.1662779 C32.1428119,23.0299949 29.6913666,26.8816684 30.5552104,30.7692191 C31.4188007,34.6567698 35.2704741,37.1080882 39.1580248,36.244498 C43.0455756,35.3807809 45.496894,31.5291075 44.633177,27.6415568" id="Fill-9" fill="#434343"></path>
                        <g id="Group-13" transform="translate(1.394523, 22.308443)">
                            <mask id="mask-6" fill="white">
                                <use xlink:href="#path-5"></use>
                            </mask>
                            <g id="Clip-12"></g>
                            <path d="M12.2563768,8.04439655 C11.8102561,10.7956643 9.21834432,12.6644523 6.46707657,12.2184584 C3.71580882,11.7724645 1.84702079,9.18055274 2.29301471,6.42928499 C2.73900862,3.67789047 5.33092039,1.80910243 8.08218813,2.25509635 C10.8334559,2.70121704 12.7023707,5.29300203 12.2563768,8.04439655 M7.27932302,0.0309584178 C3.29694473,0.0309584178 0.0686232252,3.25927992 0.0686232252,7.24165822 C0.0686232252,11.2240365 3.29694473,14.452358 7.27932302,14.452358 C11.2615745,14.452358 14.4900228,11.2240365 14.4900228,7.24165822 C14.4900228,3.25927992 11.2615745,0.0309584178 7.27932302,0.0309584178" id="Fill-11" fill="#434343" mask="url(#mask-6)"></path>
                        </g>
                        <polygon id="Fill-14" fill="#434343" points="20.7138945 20.2253423 28.1901876 20.2253423 26.2040061 27.6303879 21.2524341 27.1283595"></polygon>
                        <path d="M25.705895,28.5451826 C25.705895,29.7680527 24.7146425,30.7591785 23.4918991,30.7591785 C22.2691557,30.7591785 21.2777764,29.7680527 21.2777764,28.5451826 C21.2777764,27.5098124 21.9887297,26.6403905 22.9489224,26.3982505 C23.122604,26.3545132 23.3045259,26.3311866 23.4918991,26.3311866 C24.7146425,26.3311866 25.705895,27.3224391 25.705895,28.5451826" id="Fill-16" fill="#766D78"></path>
                        <path d="M14.3565796,28.5451826 C13.066392,27.1994675 21.1504437,23.2410497 24.8224772,26.7756592 L24.9080502,29.7217799 L23.1321881,30.72964 C23.1321881,30.72964 15.9066557,30.1619422 14.3565796,28.5451826" id="Fill-18" fill="#BEBDC0"></path>
                        <path d="M2.75940669,27.3210193 C3.67497465,24.9475406 5.97758621,23.2635903 8.67383367,23.2635903 C12.1739604,23.2635903 15.0113083,26.1009381 15.0113083,29.6010649 C15.0113083,29.6415061 15.0105477,29.6818205 15.009787,29.7221349 L15.4761917,29.5457911 L16.8367394,30.0669625 C16.84536,29.9126775 16.8501775,29.7573783 16.8501775,29.6010649 C16.8501775,25.0853448 13.189427,21.4247211 8.67383367,21.4247211 C4.51929513,21.4247211 1.0885142,24.5234787 0.566455375,28.5357759 C0.821526369,28.5687373 1.75192698,28.5850913 2.75940669,27.3210193" id="Fill-20" fill="#C8C3CA"></path>
                        <polygon id="Fill-22" fill="#E8E8E8" points="8.84509381 28.1890593 11.7147693 19.8113971 13.7166709 20.6257987 10.8469954 29.0033342"></polygon>
                        <path d="M20.0803879,21.9931922 L11.7534356,21.9931922 C10.0500887,21.9931922 8.66913032,20.739896 8.66913032,19.19375 L8.66913032,18.7284863 L16.4834052,18.7284863 C18.4700938,18.7284863 20.0803879,20.1902003 20.0803879,21.9931922" id="Fill-24" fill="#434343"></path>
                        <path d="M40.3752535,23.5550963 C40.3752535,23.5550963 42.1214503,23.7694726 42.4478955,22.6674189 C40.6132099,21.319929 38.2287018,20.7409483 35.8318966,21.2734026 C31.7762424,22.1743915 29.0993915,25.9434077 29.4598124,29.9734533 C29.7158976,29.9503803 30.6276623,29.7645284 31.3369675,28.312069 C31.7160243,25.7966024 33.5987576,23.6532201 36.230857,23.0685345 C37.6845842,22.7455122 39.1327333,22.9503803 40.3752535,23.5552231 L40.3752535,23.5550963 Z" id="Fill-26" fill="#C8C3CA"></path>
                        <path d="M38.0369802,28.1614604 L30.1389072,15.0583925 C29.8795259,15.1783215 29.6183697,15.2952079 29.3582277,15.4146298 C29.1467672,15.5117394 28.9367013,15.612145 28.730819,15.7209178 C28.6520918,15.7625 28.5746324,15.8063641 28.4971729,15.8501014 C28.4611689,15.8738083 28.4251648,15.8973884 28.3895411,15.921856 C28.3442825,15.9530426 28.2994042,15.9849899 28.2552865,16.0176978 L36.2301851,29.2483012 C36.4952713,29.6879564 37.0651242,29.8315923 37.5069346,29.5701826 L37.7124366,29.4486055 C38.159318,29.1841531 38.3049823,28.6061866 38.0369802,28.1614604" id="Fill-28" fill="#C8C3CA"></path>
                        <path d="M35.7770664,28.3329234 L27.056605,13.8656313 C26.9539173,13.6953727 26.7997591,13.5622591 26.6161891,13.4855603 L24.8178879,12.7344194 C24.3390593,12.5346222 24.1147946,11.9831516 24.3178879,11.5058443 C24.513248,11.0467926 25.0346729,10.8220208 25.5024721,10.9950685 L28.137107,11.9698403 C28.3360167,12.0433697 28.5038666,12.1823149 28.6132733,12.3639833 L37.5838616,27.2460827 C37.8518636,27.6908088 37.7060725,28.2687754 37.2591912,28.5332277 L37.0536891,28.6548048 C36.6118788,28.9162145 36.0420259,28.7724518 35.7770664,28.3329234" id="Fill-30" fill="#C8C3CA"></path>
                        <path d="M17.0059711,31.6282708 L7.05059584,31.6282708 C6.28943966,31.6282708 5.67255325,31.0112576 5.67255325,30.2502282 L5.67255325,29.9232759 C5.67255325,29.1621197 6.28943966,28.5452333 7.05059584,28.5452333 L17.0059711,28.5452333 C17.7671273,28.5452333 18.3841405,29.1621197 18.3841405,29.9232759 L18.3841405,30.2502282 C18.3841405,31.0112576 17.7671273,31.6282708 17.0059711,31.6282708" id="Fill-32" fill="#E8E8E8"></path>
                        <g id="Group-36" transform="translate(0.000000, 29.534610)">
                            <mask id="mask-8" fill="white">
                                <use xlink:href="#path-7"></use>
                            </mask>
                            <g id="Clip-35"></g>
                            <path d="M8.26309584,1.39552485 L0.612233773,1.39552485 C0.274125254,1.39552485 -8.87423935e-05,1.12143763 -8.87423935e-05,0.783329108 L-8.87423935e-05,0.638045132 C-8.87423935e-05,0.299936613 0.274125254,0.0257226166 0.612233773,0.0257226166 L8.26309584,0.0257226166 C8.60133114,0.0257226166 8.87541836,0.299936613 8.87541836,0.638045132 L8.87541836,0.783329108 C8.87541836,1.12143763 8.60133114,1.39552485 8.26309584,1.39552485" id="Fill-34" fill="#E8E8E8" mask="url(#mask-8)"></path>
                        </g>
                        <path d="M24.5393002,30.9301344 L16.8884381,30.9301344 C16.5503296,30.9301344 16.2761156,30.6560472 16.2761156,30.3179386 L16.2761156,30.1726547 C16.2761156,29.8345461 16.5503296,29.5603322 16.8884381,29.5603322 L24.5393002,29.5603322 C24.8774087,29.5603322 25.1516227,29.8345461 25.1516227,30.1726547 L25.1516227,30.3179386 C25.1516227,30.6560472 24.8774087,30.9301344 24.5393002,30.9301344" id="Fill-37" fill="#E8E8E8"></path>
                        <path d="M29.5972997,21.5427992 L25.7169752,30.6219067 C25.5841151,30.9328854 25.2243281,31.0771552 24.9133494,30.9442951 L24.7797287,30.8871197 C24.4688768,30.7542596 24.3244802,30.3944726 24.4573403,30.0836207 L28.3377916,21.0045132 C28.4706516,20.6935345 28.8304386,20.5492647 29.1414173,20.6821247 L29.275038,20.7391734 C29.58589,20.8720335 29.7302865,21.2318205 29.5972997,21.5427992" id="Fill-39" fill="#E8E8E8"></path>
                        <path d="M11.4130325,22.7323022 C11.4130325,22.7323022 9.68826065,26.5619168 12.4227941,28.0350406 C12.4227941,28.0350406 16.8644777,27.5597617 16.5400609,24.5289554 C16.5400609,24.5289554 15.431288,22.202003 11.4130325,22.7323022" id="Fill-41" fill="#434343"></path>
                        <path d="M19.5600406,23.6386663 C19.5600406,24.8614097 18.7313134,25.8526623 17.709001,25.8526623 C16.6866886,25.8526623 15.8579615,24.8614097 15.8579615,23.6386663 C15.8579615,22.4159229 16.6866886,21.4246704 17.709001,21.4246704 C18.7313134,21.4246704 19.5600406,22.4159229 19.5600406,23.6386663" id="Fill-43" fill="#434343"></path>
                        <path d="M30.7662525,19.0521171 C30.7662525,19.0521171 31.9186359,18.3780553 32.3443458,18.6297033 C32.3443458,18.6297033 32.7362069,20.5135776 31.8863083,20.7173048 C31.8863083,20.7173048 30.3811105,20.4551344 30.4521045,20.003182 L30.7662525,19.0521171 Z" id="Fill-45" fill="#434343"></path>
                        <path d="M19.1906187,20.3518636 C19.1906187,20.3518636 22.1709686,21.5563514 28.346932,20.9122084 C28.346932,20.9122084 31.640289,20.3309457 29.6298935,16.9990492 C29.6298935,16.9990492 26.4603955,12.6222743 18.8026876,17.1651242 C18.8026876,17.1651242 17.4606491,18.0486182 19.1906187,20.3518636" id="Fill-49" fill="#FBB540"></path>
                        <path d="M9.5509001,18.1385015 L4.95543864,18.1385015 C2.13672667,18.3351293 4.66195487,21.352751 4.66195487,21.352751 C4.96545385,21.5013311 5.29899848,21.5834812 5.64915061,21.5834812 L12.5179386,21.5834812 C12.5179386,19.6809711 11.1895918,18.1385015 9.5509001,18.1385015" id="Fill-51" fill="#434343"></path>
                        <path d="M16.3067317,6.78781694 C15.0927358,7.16890213 13.0282074,5.97328854 13.0282074,5.97328854 C13.0282074,5.97328854 13.7927865,5.400393 14.0263058,4.21618915 C14.0380958,4.15647819 14.0483646,4.09549949 14.0572388,4.03287272 C14.1847743,3.99889706 14.4250127,3.93487576 14.6822388,3.86654412 L15.6649975,4.66015467 C15.6649975,4.66015467 15.6614478,5.01081389 15.5747338,5.61768509 C15.5597743,5.72354209 15.5422794,5.83725913 15.5213616,5.95845588 C16.0416455,6.24484026 16.3067317,6.78781694 16.3067317,6.78781694" id="Fill-55" fill="#C7A288"></path>
                        <path d="M15.6649341,4.66012931 C15.6649341,4.66012931 15.6615112,5.01078854 15.5746704,5.61765974 C14.6418611,5.36804006 14.1831897,4.56061105 14.0262424,4.21629057 C14.0381592,4.15645284 14.0483012,4.09547414 14.0571755,4.03284736 C14.184711,3.9988717 14.4250761,3.93485041 14.6821755,3.86651876 L15.6649341,4.66012931 Z" id="Fill-57" fill="#ED975D"></path>
                        <path d="M16.1808316,5.18358266 C16.1808316,5.18358266 13.8446247,4.91583418 14.033646,3.46350152 C14.2229209,2.01116886 14.0487323,0.998491379 15.5483519,1.10802485 C17.0479716,1.21755832 17.2651369,1.80934331 17.3197769,2.30947008 C17.3745436,2.80959686 16.7935345,5.21578347 16.1808316,5.18358266" id="Fill-59" fill="#FFB27D"></path>
                        <path d="M14.1094701,4.06371704 C14.1094701,4.06371704 14.0576192,3.5714503 14.34768,3.27302231 C14.34768,3.27302231 14.2163413,2.78341785 14.4078981,2.69175963 C14.5994549,2.60022819 14.6615745,3.01414807 14.748035,2.94429513 C14.8344954,2.87444219 15.2182429,2.54394016 15.3661891,2.07816937 C15.5140086,1.61252535 17.1104843,2.08552231 17.2974772,2.15841785 C17.4844701,2.23131339 16.4087855,-0.241176471 14.9920766,0.207733266 C13.5753676,0.656769777 13.4148707,1.35212982 13.5264326,1.93529412 C13.638248,2.51858519 13.5112196,3.89675456 14.1094701,4.06371704" id="Fill-61" fill="#2B478B"></path>
                        <path d="M11.1081009,16.0798935 C11.1081009,16.0798935 11.0464883,18.563286 11.5516861,19.3134128 C12.0570106,20.0635396 22.8662145,20.6718053 22.8662145,20.6718053 C22.8662145,20.6718053 23.0428119,19.0906694 22.6538666,18.6486055 C22.2651749,18.2065416 20.3910624,16.8750254 14.1560218,15.6974138 L11.1081009,16.0798935 Z" id="Fill-63" fill="#BDBDBD"></path>
                        <path d="M11.3870309,10.8943839 C11.3894397,13.0318078 10.89375,16.2425076 11.0479082,16.818319 C11.1806415,17.3150228 13.1658088,17.188248 13.9618281,17.0912652 C14.2565796,17.0550076 14.6147186,16.9988463 14.985535,16.9275989 C16.0196374,16.729323 17.1545259,16.4178372 17.2971476,16.1291709 C17.3027257,16.1178879 17.3074163,16.1069853 17.3107125,16.0959559 C17.3255451,16.0537399 17.3265593,16.0127916 17.3190796,15.9709559 C17.299176,15.8560979 17.2179133,15.7295766 17.1822896,15.5183697 C17.1698656,15.4442064 17.1632733,15.3596476 17.1665695,15.2611435 C17.1796273,14.8751141 17.2170259,14.4282328 17.2432683,13.9459812 C17.2454234,13.9017368 17.2477054,13.8571121 17.2499873,13.8124873 C17.2537906,13.7522693 17.2583545,13.687107 17.2561993,13.6268889 L17.257467,13.6048301 C17.2583545,13.5936739 17.2587348,13.582391 17.2592419,13.5709812 C17.2908088,12.9762804 17.307036,12.3501395 17.3178119,11.7283088 C17.3209812,11.5345969 17.3228829,11.3416455 17.32339,11.1508494 C17.3242774,11.0835319 17.3240238,11.0164681 17.3242774,10.9497845 C17.3240238,10.8252916 17.3237703,10.7015593 17.3223758,10.5796019 C17.3119802,9.62131085 17.2620309,8.76545385 17.1485674,8.21791329 C16.9627155,7.32503803 16.4423048,6.7103068 15.9603068,6.2516354 L15.610535,5.93368408 C15.1874873,5.98122465 14.6994042,5.88665061 14.2692571,5.66124493 C13.8043737,5.4159356 13.6500887,5.25505832 13.5614731,5.30399341 C12.3851293,5.98414047 11.3914681,8.28142748 11.3870309,10.8943839" id="Fill-65" fill="#5C63AB"></path>
                        <path d="M18.3206516,28.4869929 C18.3206516,28.4869929 18.2903524,30.0333925 18.5862449,30.0797921 C18.6255451,30.0860041 20.095753,30.2061866 20.095753,30.2061866 L21.9734153,30.3486815 C21.9734153,30.3486815 21.9981364,29.8953347 21.4573149,29.7548682 C20.9166202,29.6145284 20.0297033,29.1539554 19.7566303,28.4016734 C19.4694853,27.6103448 18.3206516,28.4869929 18.3206516,28.4869929" id="Fill-67" fill="#585858"></path>
                        <path d="M17.9200177,28.5551471 C17.9200177,28.5551471 18.2602814,28.8639706 18.996463,28.9599391 C19.1861182,28.9844067 19.3614478,28.9888438 19.5159863,28.9816176 C19.927751,28.9633621 20.1919498,28.8663793 20.1919498,28.8663793 L22.866392,20.6715264 C22.866392,20.6715264 20.8629691,18.6104209 19.6414934,19.6904158 C19.4822642,19.8313895 19.3353322,20.0860801 19.2001902,20.4230477 C18.2980603,22.6688641 17.9200177,28.5551471 17.9200177,28.5551471" id="Fill-69" fill="#BDBDBD"></path>
                        <path d="M14.6592799,9.53713235 C14.6592799,9.53713235 15.6382353,14.7646932 17.1822262,15.5183697 C17.169929,15.4442064 17.1632099,15.3596476 17.1665061,15.2611435 C17.1796907,14.8751141 17.2170892,14.4282328 17.2433316,13.9459812 C17.24536,13.9017368 17.247642,13.8571121 17.2500507,13.8124873 C17.253854,13.752396 17.2582911,13.687107 17.2561359,13.6268889 L17.2574037,13.6048301 C17.2582911,13.5936739 17.2587982,13.582391 17.2593053,13.5709812 C17.2908722,12.9762804 17.3070994,12.3501395 17.3178753,11.7283088 C17.3209178,11.5345969 17.3229462,11.3416455 17.3234533,11.1508494 C16.6905933,10.2451699 15.7874493,9.5575431 14.6592799,9.53713235" id="Fill-71" fill="#5C63AB"></path>
                        <path d="M14.8797794,6.84044118 C14.8797794,6.84044118 18.3985421,10.3736562 19.3686232,10.7657708 C20.3388311,11.1580122 23.8004184,12.1291075 23.8004184,12.1291075 C23.8004184,12.1291075 23.829323,12.9697515 23.4738463,13.255502 C23.4738463,13.255502 18.975748,12.6241633 18.4226293,12.4589757 C17.8696374,12.2939148 13.8536638,9.77819473 13.5249366,9.58613083 C13.196463,9.39406694 13.48982,6.45935598 14.8797794,6.84044118" id="Fill-73" fill="#5C63AB"></path>
                        <path d="M17.9200177,28.5551471 C17.9200177,28.5551471 18.2602814,28.8639706 18.996463,28.9599391 C19.1861182,28.9844067 19.3614478,28.9888438 19.5159863,28.9816176 C18.4974772,27.4522059 19.2001902,20.4230477 19.2001902,20.4230477 C18.2980603,22.6688641 17.9200177,28.5551471 17.9200177,28.5551471" id="Fill-75" fill="#939393"></path>
                        <g id="Group-79" transform="translate(12.677485, 0.122845)">
                            <mask id="mask-10" fill="white">
                                <use xlink:href="#path-9"></use>
                            </mask>
                            <g id="Clip-78"></g>
                            <path d="M5.74604462,2.31755832 L5.43874239,4.89717292 C5.41997972,4.95130578 5.40109026,5.00214249 5.38549696,5.04942951 C5.24743915,5.42506339 4.88727181,5.67557049 4.48843813,5.6855857 C4.36102941,5.68888185 4.23653651,5.6684711 4.11787525,5.62118408 L2.97677485,5.18051471 L0.392342799,4.1891354 C0.205856998,4.11002789 0.0840263692,3.932036 0.0792089249,3.73769016 L0.0589249493,2.93343053 C0.0287525355,1.73705629 0.913514199,0.46854716 2.02165314,0.132213489 C2.29447262,0.0515846856 2.57172921,0.00772058824 2.84657708,0.00417089249 C3.41643002,-0.00343559838 3.98818458,0.153131339 4.4755071,0.462842292 C5.14006085,0.88538286 5.59987323,1.57009381 5.74604462,2.31755832" id="Fill-77" fill="#FFBB00" mask="url(#mask-10)"></path>
                        </g>
                        <g id="Group-82" transform="translate(15.466531, 0.122845)">
                            <mask id="mask-12" fill="white">
                                <use xlink:href="#path-11"></use>
                            </mask>
                            <g id="Clip-81"></g>
                            <path d="M2.95699797,2.31755832 L2.64969574,4.89717292 C2.63093306,4.95130578 2.61204361,5.00214249 2.5964503,5.04942951 C2.45839249,5.42506339 2.09822515,5.67557049 1.69939148,5.6855857 C1.57198276,5.68888185 1.44748986,5.6684711 1.3288286,5.62118408 L0.187728195,5.18051471 L0.057530426,0.00417089249 C0.627383367,-0.00343559838 1.19913793,0.153131339 1.68646045,0.462842292 C2.3510142,0.88538286 2.81082657,1.57009381 2.95699797,2.31755832" id="Fill-80" fill="#FFBB00" mask="url(#mask-12)"></path>
                        </g>
                        <path d="M14.1094701,3.87342799 C13.7397946,3.88280933 13.431605,3.58970588 13.4223504,3.2201572 C13.4130958,2.85048174 13.7060725,2.54229209 14.0756212,2.53303753 C14.4452967,2.52378296 14.7534863,2.81675963 14.7627409,3.18643509 C14.7721222,3.55598377 14.4790188,3.86417343 14.1094701,3.87342799" id="Fill-83" fill="#57555C"></path>
                        <path d="M18.4235294,2.44040314 L16.4155426,2.24098631 L16.0878296,2.5424569 L16.1183824,3.75746704 L16.4662525,4.25176217 L18.1162272,5.02001775 L18.2689909,5.09329361 C18.2926978,5.10280172 18.3162779,5.10888692 18.3431542,5.10825304 C18.3733266,5.10749239 18.4033722,5.10001268 18.4297414,5.08251775 C18.4790568,5.04778144 18.5079615,4.99339503 18.5064402,4.93647312 L18.4469828,2.57060091 C18.4391227,2.52724391 18.4346856,2.48376014 18.4235294,2.44040314" id="Fill-85" fill="#3C3A41"></path>
                        <path d="M16.4155553,2.23940162 L16.4660117,4.25005071 L15.7298301,3.9063641 C15.6891354,3.88734787 15.6517368,3.86478195 15.6173808,3.83549696 C15.5111435,3.74434584 15.4440796,3.6084432 15.4404031,3.46442698 L15.4213869,2.71037018 C15.4178372,2.56635396 15.4780553,2.43070487 15.5796019,2.33422921 L15.5828981,2.33080629 C15.6877409,2.23090771 15.8307429,2.18374746 15.9751395,2.19693205 L16.4155553,2.23940162 Z" id="Fill-87" fill="#57555C"></path>
                        <path d="M16.4155553,2.23940162 L16.4660117,4.25005071 L15.7298301,3.9063641 C15.6891354,3.88734787 15.6517368,3.86478195 15.6173808,3.83549696 L15.5796019,2.33422921 L15.5828981,2.33080629 C15.6877409,2.23090771 15.8307429,2.18374746 15.9751395,2.19693205 L16.4155553,2.23940162 Z" id="Fill-89" fill="#3C3A41"></path>
                    </g>
                </g>
            </g>
        </g>
    </g>
</svg>