<svg xmlns="http://www.w3.org/2000/svg" xmlns:xlink="http://www.w3.org/1999/xlink" width="142" height="178" viewBox="0 0 142 178">
    <defs>
        <path id="m8m9n38e3a" d="M0 154.743L107.814 154.743 107.814 0 0 0z"/>
    </defs>
    <g fill="none" fill-rule="evenodd">
        <g>
            <g>
                <g transform="translate(-144 -239) translate(144 239.992) rotate(13 14.227 157.604)">
                    <path fill="#313030" d="M14.075 39.749c.029.702.794 1.24 1.709 1.203l11.777-.484c.914-.037 1.633-.637 1.604-1.34l-.06-1.442c-.028-.703-.793-1.242-1.708-1.205l-11.777.485c-.915.037-1.633.637-1.604 1.34l.06 1.443z"/>
                    <path fill="#313030" d="M27.865 41.675L29.267 41.618 29.003 35.196 27.601 35.254z"/>
                    <path fill="#8A8A8A" d="M.41 11.1c1.41 4.211 6.05 6.454 10.36 5.01 4.311-1.445 6.662-6.03 5.251-10.241-1.41-4.211-6.05-6.454-10.36-5.01C1.35 2.304-1.002 6.89.41 11.1"/>
                    <path fill="#686A6A" d="M4.37 15.657C2.556 14.74 1.098 13.155.41 11.1c-.806-2.404-.384-4.929.928-6.923 1.467.664 6.492 3.854 7.999 4.696-.955 1.319-4.153 5.646-4.968 6.784"/>
                    <path fill="#C4C4C3" d="M38.934 37.06c.221-.075.374-.29.357-.534-.013-.2-.331-4.903-.836-6.408-.506-1.51-1.92-2.241-2.23-2.386L9.251 8.574c-.237-.168-.566-.112-.734.125-.168.237-.112.564.124.733L35.658 28.62c.03.022.064.041.1.056.01.005 1.296.57 1.7 1.777.462 1.378.78 6.096.784 6.143.02.29.27.51.56.49.046-.003.09-.012.132-.026"/>
                    <path fill="#313030" d="M42.915 44.095s-4.85-6.64-16.025-3.366l.02-3.99s11.654-2.712 16.7 4.2l-.695 3.156z"/>
                    <mask id="ymv4ryz7ab" fill="#fff">
                        <use xlink:href="#m8m9n38e3a"/>
                    </mask>
                    <path fill="#D5DDE2" d="M67.946 112.388L81.646 112.388 81.646 108.233 67.946 108.233zM28.668 112.388L42.369 112.388 42.369 108.233 28.668 108.233z" mask="url(#ymv4ryz7ab)"/>
                    <path fill="#313030" d="M94.526 39.231c.035.702-.677 1.309-1.592 1.354l-11.773.59c-.914.046-1.684-.485-1.719-1.187l-.072-1.443c-.036-.702.678-1.308 1.591-1.355l11.773-.59c.915-.046 1.684.486 1.72 1.188l.072 1.443z" mask="url(#ymv4ryz7ab)"/>
                    <path fill="#313030" d="M80.165 42.405L78.762 42.475 78.44 36.057 79.843 35.987z" mask="url(#ymv4ryz7ab)"/>
                    <path fill="#8A8A8A" d="M107.602 9.948c-1.022 4.322-5.437 6.978-9.862 5.931-4.424-1.045-7.183-5.397-6.161-9.72C92.6 1.839 97.016-.817 101.44.229c4.425 1.046 7.183 5.398 6.162 9.72" mask="url(#ymv4ryz7ab)"/>
                    <path fill="#686A6A" d="M104.073 14.847c1.722-1.08 3.03-2.79 3.529-4.9.583-2.466-.067-4.943-1.555-6.808-1.4.794-6.114 4.428-7.538 5.404 1.07 1.226 4.65 5.244 5.564 6.304" mask="url(#ymv4ryz7ab)"/>
                    <path fill="#C4C4C3" d="M71.601 39.307c-.227-.054-.398-.255-.404-.499-.005-.2-.116-4.912.249-6.457.366-1.55 1.708-2.407 2.003-2.579L98.568 8.238c.22-.19.552-.164.741.057.19.22.164.552-.057.741L74.095 30.604c-.029.025-.06.047-.094.065-.01.006-1.239.685-1.532 1.924-.334 1.414-.222 6.142-.221 6.189.007.29-.222.532-.513.539-.046 0-.091-.004-.134-.014" mask="url(#ymv4ryz7ab)"/>
                    <path fill="#313030" d="M65.304 45.26s4.547-6.852 15.857-4.084l-.2-3.986s-11.763-2.184-16.493 4.948l.836 3.121z" mask="url(#ymv4ryz7ab)"/>
                    <path fill="#FBB540" d="M77.406 69.34C77.27 78.991 66.4 86.665 53.129 86.478c-13.272-.187-23.92-8.163-23.785-17.816.136-9.652 11.005-17.326 24.277-17.14 13.272.187 23.92 8.164 23.785 17.816" mask="url(#ymv4ryz7ab)"/>
                    <path fill="#858586" d="M41.273 83.724s-3.773-.005-3.878 2.74c-.104 2.745 6.111 31.07 6.111 31.07s1.033 4.934 4.392 4.57l-.347-38.437-6.278.057zM66.701 83.494s3.773-.071 3.926 2.57c.154 2.642-5.56 30.03-5.56 30.03s-.944 4.77-4.31 4.479l-.334-37.022 6.278-.057z" mask="url(#ymv4ryz7ab)"/>
                    <path fill="#E5EDF3" d="M47.35 110.406c.024 2.724-1.118 4.943-2.551 4.955l-1.646.015c-1.433.013-2.615-2.185-2.64-4.908l-.485-53.885c-.025-2.724 1.117-4.943 2.55-4.956l1.646-.015c1.433-.012 2.615 2.185 2.64 4.91l.486 53.884zM69.192 110.406c.024 2.724-1.118 4.943-2.551 4.955l-1.646.015c-1.433.013-2.615-2.185-2.64-4.908l-.485-53.885c-.025-2.724 1.117-4.943 2.55-4.956l1.646-.015c1.433-.012 2.615 2.185 2.64 4.91l.486 53.884z" mask="url(#ymv4ryz7ab)"/>
                    <path fill="#D5DDE2" d="M36.375 73.122c.025 2.757-2.19 5.011-4.945 5.036-2.757.025-5.012-2.19-5.037-4.946-.024-2.755 2.19-5.01 4.947-5.035 2.756-.025 5.01 2.19 5.035 4.945" mask="url(#ymv4ryz7ab)"/>
                    <path fill="#E5EDF3" d="M35.996 73.509c.023 2.545-2.021 4.626-4.566 4.65-2.545.022-4.628-2.022-4.65-4.567-.023-2.545 2.022-4.627 4.567-4.65 2.545-.023 4.626 2.021 4.65 4.567" mask="url(#ymv4ryz7ab)"/>
                    <path fill="#D5DDE2" d="M34.054 77.306c1.186-.843 1.957-2.232 1.942-3.797-.017-1.929-1.217-3.567-2.904-4.24-.577 1.206-1.19 3.084-1.788 4.282 1.021 1.413 1.866 2.248 2.75 3.755M82.024 73.002c.025 2.757-2.189 5.011-4.945 5.036-2.756.025-5.011-2.189-5.036-4.945-.025-2.756 2.19-5.01 4.946-5.036 2.756-.025 5.01 2.19 5.035 4.945" mask="url(#ymv4ryz7ab)"/>
                    <path fill="#E5EDF3" d="M81.646 73.389c.023 2.545-2.022 4.626-4.567 4.65-2.545.022-4.627-2.022-4.65-4.567-.023-2.545 2.022-4.627 4.566-4.65 2.546-.023 4.628 2.021 4.651 4.567" mask="url(#ymv4ryz7ab)"/>
                    <path fill="#D5DDE2" d="M79.703 77.186c1.186-.843 1.957-2.232 1.943-3.797-.017-1.929-1.218-3.567-2.905-4.24-.577 1.206-1.19 3.084-1.788 4.282 1.021 1.413 1.867 2.248 2.75 3.755" mask="url(#ymv4ryz7ab)"/>
                    <path fill="#878888" d="M63.647 48.107c.05 5.511-4.378 10.02-9.89 10.07-5.51.049-10.018-4.379-10.068-9.89-.05-5.511 4.378-10.02 9.889-10.069 5.511-.05 10.02 4.378 10.07 9.89" mask="url(#ymv4ryz7ab)"/>
                    <path fill="#E5EDF3" d="M66.407 48.082c.063 7.036-5.59 12.79-12.624 12.854-7.035.063-12.79-5.589-12.854-12.624-.063-7.035 5.589-12.79 12.624-12.853 7.035-.064 12.79 5.588 12.854 12.623" mask="url(#ymv4ryz7ab)"/>
                    <path fill="#FFF" d="M62.838 48.114c.046 5.065-4.023 9.208-9.088 9.254-5.064.046-9.207-4.023-9.253-9.088-.045-5.065 4.024-9.208 9.088-9.254 5.064-.045 9.207 4.024 9.253 9.088" mask="url(#ymv4ryz7ab)"/>
                    <path fill="#858586" d="M65.45 107.889l16.318 30.77 7.442-1.387c.876-.164 1.718.415 1.879 1.29l.064.353-10.822 1.974-16.178-32.36 1.296-.64z" mask="url(#ymv4ryz7ab)" transform="rotate(-13 77.653 124.389)"/>
                    <path fill="#D5DDE2" d="M37.401 69.001L70.638 69.001 70.638 62.577 37.401 62.577z" mask="url(#ymv4ryz7ab)"/>
                    <path fill="#A8A7A1" d="M49.299 131.345L45.366 131.38 45.239 117.223 49.171 117.188zM63.468 131.217L59.536 131.252 59.409 117.095 63.34 117.06z" mask="url(#ymv4ryz7ab)"/>
                    <path fill="#514B5B" d="M63.637 149.918c.023 2.608-3.034 4.75-6.83 4.785l-4.357.04c-3.794.033-6.89-2.054-6.914-4.662l-.466-51.612c-.023-2.609 3.035-4.752 6.83-4.786l4.356-.04c3.796-.033 6.892 2.054 6.915 4.663l.466 51.612z" mask="url(#ymv4ryz7ab)"/>
                    <path fill="#858586" d="M65.058 109.904l-.208-23.01c-.016-1.821-3.617-3.266-8.044-3.226l-5.081.046c-4.426.04-8 1.55-7.984 3.371l.208 23.009 21.109-.19z" mask="url(#ymv4ryz7ab)"/>
                </g>
            </g>
        </g>
    </g>
</svg>
