<?xml version="1.0" encoding="UTF-8"?>
<svg width="80px" height="80px" viewBox="0 0 80 80" version="1.1" xmlns="http://www.w3.org/2000/svg" xmlns:xlink="http://www.w3.org/1999/xlink">
    <title>bike-rear</title>
    <defs>
        <rect id="path-1" x="0" y="0" width="80" height="80"></rect>
        <polygon id="path-3" points="0.281981717 0.24794702 22.4697599 0.24794702 22.4697599 29.6366025 0.281981717 29.6366025"></polygon>
    </defs>
    <g id="Desktop" stroke="none" stroke-width="1" fill="none" fill-rule="evenodd">
        <g id="bike-rear">
            <mask id="mask-2" fill="white">
                <use xlink:href="#path-1"></use>
            </mask>
            <g id="Mask"></g>
            <g id="Group-64-Copy-2" mask="url(#mask-2)">
                <g transform="translate(33.000000, 26.000000)">
                    <path d="M1.74984406,24.9524661 L3.01753343,25.6355207 C2.04668626,27.4373277 1.53137086,29.4548455 1.53137086,31.5483974 C1.53137086,38.4429439 7.12051205,44.0321722 14.0151457,44.0321722 C18.1528174,44.0321722 21.9460474,42.0045229 24.2641467,38.6775482 L24.3669526,38.5277132 L25.56016,39.3338497 C22.9874032,43.1419304 18.6980263,45.4721722 14.0151457,45.4721722 C6.32521698,45.4721722 0.0913708609,39.2382289 0.0913708609,31.5483974 C0.0913708609,29.2927048 0.628874011,27.1131296 1.64321387,25.1543092 L1.74984406,24.9524661 Z" id="Stroke-3" fill="#FFCB06" fill-rule="nonzero"></path>
                    <path d="M50.5947219,4.44170861 C50.5947219,4.44170861 54.0343907,4.18064901 54.7311457,4.44170861 C54.7311457,4.44170861 58.1705166,8.5343245 54.5568079,12.0175033 L51.6398543,12.0175033 L46.7634636,4.87710596 L50.5947219,4.44170861 Z" id="Fill-9" fill="#C3C9D2" fill-rule="evenodd"></path>
                    <path d="M22.4770232,32.2678013 C21.7427185,36.7979007 17.4748709,39.8751854 12.9447715,39.1405828 C8.41437417,38.4062781 5.33738742,34.1384305 6.07169205,29.6083311 C6.8062947,25.0782318 11.0738444,22.000947 15.6042417,22.7352517 C20.1343411,23.4698543 23.2116258,27.737404 22.4770232,32.2678013 M14.281957,19.0732649 C7.72477152,19.0732649 2.40910927,24.3889272 2.40910927,30.9461126 C2.40910927,37.503298 7.72477152,42.8189603 14.281957,42.8189603 C20.8394404,42.8189603 26.1551026,37.503298 26.1551026,30.9461126 C26.1551026,24.3889272 20.8394404,19.0732649 14.281957,19.0732649" id="Fill-13" fill="#434343" fill-rule="evenodd"></path>
                    <polygon id="Fill-15" fill="#C3C9D2" fill-rule="evenodd" points="32.2069768 15.5921722 45.802043 15.5921722 41.8685662 27.7850861 33.7155199 26.9586954"></polygon>
                    <path d="M42.3266126,29.2914536 C42.3266126,31.3048311 40.694096,32.9367517 38.6810166,32.9367517 C36.6676391,32.9367517 35.0354205,31.3048311 35.0354205,29.2914536 C35.0354205,27.5865199 36.2057185,26.1548642 37.7869768,25.7564205 C38.0730695,25.6843013 38.3722748,25.6458576 38.6810166,25.6458576 C40.694096,25.6458576 42.3266126,27.2780762 42.3266126,29.2914536" id="Fill-17" fill="#C3C9D2" fill-rule="evenodd"></path>
                    <path d="M4.54353974,27.2756623 C6.05118874,23.3678146 9.84251325,20.5950993 14.2820166,20.5950993 C20.0452947,20.5950993 24.7169503,25.266755 24.7169503,31.0300331 C24.7169503,31.0964901 24.7157583,31.162947 24.7145662,31.229404 L25.4825464,30.9388411 L27.7227119,31.7968212 C27.7370166,31.5429139 27.7450629,31.2875166 27.7450629,31.0300331 C27.7450629,23.5946026 21.717447,17.5669868 14.2820166,17.5669868 C7.44142053,17.5669868 1.79257947,22.6692715 0.932811258,29.2759272 C1.35271192,29.3301656 2.88479801,29.3569868 4.54353974,27.2756623" id="Fill-19" fill="#C9C9C9" fill-rule="evenodd"></path>
                    <polygon id="Fill-21" fill="#C9C9C9" fill-rule="evenodd" points="13.5433013 30.0459636 19.2889967 14.9107649 22.5856192 16.2515265 17.8603212 30.0459636"></polygon>
                    <path d="M33.0637649,18.5030464 L19.3527715,18.5030464 C16.5481689,18.5030464 14.2743278,16.4393046 14.2743278,13.8936755 L14.2743278,13.1274834 L27.1410497,13.1274834 C30.4123411,13.1274834 33.0637649,15.5342384 33.0637649,18.5030464" id="Fill-23" fill="#434343" fill-rule="evenodd"></path>
                    <path d="M62.7358709,28.5541391 L49.7311689,6.97917219 C49.3041159,7.17645695 48.8740828,7.36897351 48.4458377,7.56566225 C48.0977583,7.72569536 47.7517649,7.8907947 47.4126258,8.06990066 C47.2826921,8.13844371 47.1557384,8.21056291 47.0278907,8.28268212 C46.9685861,8.32142384 46.9092815,8.36046358 46.8505728,8.40069536 C46.7760695,8.45195364 46.7024603,8.50470199 46.629447,8.55864238 L59.7611026,30.3437086 C60.197096,31.0675828 61.1355397,31.3042053 61.8629901,30.8735762 L62.2015331,30.6736093 C62.9373278,30.2382119 63.1772285,29.2863576 62.7358709,28.5541391" id="Fill-27" fill="#C3C9D2" fill-rule="evenodd"></path>
                    <g id="Group-31" stroke-width="1" fill="none" fill-rule="evenodd" transform="translate(39.635762, 0.050066)">
                        <mask id="mask-4" fill="white">
                            <use xlink:href="#path-3"></use>
                        </mask>
                        <g id="Clip-30"></g>
                        <path d="M19.273649,28.8917285 L4.91447682,5.07033775 C4.74580132,4.78990728 4.49159603,4.57086755 4.18970861,4.44450993 L1.22835099,3.20775497 C0.440403974,2.87874834 0.0705695364,1.971 0.405536424,1.18484106 C0.727092715,0.42907947 1.58537086,0.0589470199 2.3557351,0.343847682 L6.69391391,1.94864901 C7.02143046,2.0699404 7.29768874,2.29881457 7.47798675,2.59801987 L22.2484172,27.1021589 C22.6900728,27.8346755 22.4498742,28.7862318 21.7140795,29.2216291 L21.3758344,29.421894 C20.6480861,29.8522252 19.7099404,29.6156026 19.273649,28.8917285" id="Fill-29" fill="#C3C9D2" mask="url(#mask-4)"></path>
                    </g>
                    <path d="M13.9644238,33.2184636 L0.649490066,33.2184636 C0.290682119,33.2184636 0.000119205298,32.9276026 0.000119205298,32.5687947 L0.000119205298,31.6124702 C0.000119205298,31.2539603 0.290682119,30.9630993 0.649490066,30.9630993 L13.9644238,30.9630993 C14.3229338,30.9630993 14.6140927,31.2539603 14.6140927,31.6124702 L14.6140927,32.5687947 C14.6140927,32.9276026 14.3229338,33.2184636 13.9644238,33.2184636" id="Fill-32" fill="#C9C9C9" fill-rule="evenodd"></path>
                    <path d="M40.7643675,33.2184636 L27.4494338,33.2184636 C27.0906258,33.2184636 26.8000629,32.9276026 26.8000629,32.5687947 L26.8000629,31.6124702 C26.8000629,31.2539603 27.0906258,30.9630993 27.4494338,30.9630993 L40.7643675,30.9630993 C41.1228775,30.9630993 41.4140364,31.2539603 41.4140364,31.6124702 L41.4140364,32.5687947 C41.4140364,32.9276026 41.1228775,33.2184636 40.7643675,33.2184636" id="Fill-34" fill="#C3C9D2" fill-rule="evenodd"></path>
                    <path d="M48.8750364,17.4317483 L42.2037119,33.0404901 C42.0627517,33.3703907 41.6809967,33.5235695 41.351096,33.3826093 L40.471957,33.0068146 C40.1417583,32.8658543 39.9888775,32.4840993 40.1298377,32.1541987 L46.8011623,16.545457 C46.9421225,16.2155563 47.3238775,16.0623775 47.6534801,16.2033377 L48.5332152,16.5791325 C48.8628179,16.7200927 49.0159967,17.1018477 48.8750364,17.4317483" id="Fill-36" fill="#C3C9D2" fill-rule="evenodd"></path>
                    <path d="M18.792298,19.7199834 C18.792298,19.7199834 15.9522318,26.0256457 20.4549139,28.4511755 C20.4549139,28.4511755 27.768457,27.6685927 27.2344172,22.6783609 C27.2344172,22.6783609 25.4087881,18.8468046 18.792298,19.7199834" id="Fill-38" fill="#434343" fill-rule="evenodd"></path>
                    <path d="M29.1590166,24.8579404 C29.1354735,24.8579404 29.1128245,24.8543642 29.0895795,24.8537682 C25.3241821,26.0398609 22.5866325,28.1933046 23.6392152,29.2914834 C24.6450099,30.3401921 27.1009371,31.1206887 29.708553,31.6818477 L29.708553,24.7959536 C29.530043,24.8346954 29.3470629,24.8579404 29.1590166,24.8579404" id="Fill-40" fill="#BEBDC0" fill-rule="evenodd"></path>
                    <path d="M41.0129106,31.2286887 L40.8716523,26.3776291 C38.1951954,23.8010066 34.0945331,23.6433576 30.5398311,24.4596159 C30.2814536,24.6169669 30.0028113,24.731702 29.7083742,24.7957748 L29.7083742,31.6819669 C33.7193344,32.5450132 38.0885066,32.8883245 38.0885066,32.8883245 L41.0129106,31.2286887 Z" id="Fill-42" fill="#C3C9D2" fill-rule="evenodd"></path>
                    <path d="M29.7084934,17.6292119 C29.5299834,17.5901722 29.3470033,17.5669272 29.158957,17.5669272 C27.4757781,17.5669272 26.1111755,19.1991457 26.1111755,21.2125232 C26.1111755,23.1978874 27.4388245,24.808947 29.0895199,24.853947 C29.2927649,24.7895762 29.4995861,24.7284834 29.7084934,24.6703709 L29.7084934,17.6292119 Z" id="Fill-44" fill="#434343" fill-rule="evenodd"></path>
                    <path d="M30.5399503,24.4595265 C31.5284603,23.8569437 32.2070364,22.6306192 32.2070364,21.2123742 C32.2070364,19.4239967 31.1291225,17.9389967 29.7084934,17.6293609 L29.7084934,24.6705199 C29.9817715,24.5945265 30.2589238,24.5238974 30.5399503,24.4595265" id="Fill-46" fill="#C3C9D2" fill-rule="evenodd"></path>
                    <path d="M29.7084934,24.7958046 L29.7084934,24.6706391 C29.4995861,24.7284536 29.2927649,24.7895464 29.0895199,24.8539172 C29.1127649,24.8545132 29.1354139,24.8577914 29.158957,24.8577914 C29.3470033,24.8577914 29.5299834,24.8345464 29.7084934,24.7958046" id="Fill-48" fill="#434343" fill-rule="evenodd"></path>
                    <path d="M29.7084934,24.7958046 C30.0026325,24.7317318 30.2815728,24.6169967 30.5399503,24.4596457 C30.2589238,24.5240166 29.9817715,24.5946457 29.7084934,24.6706391 L29.7084934,24.7958046 Z" id="Fill-50" fill="#434343" fill-rule="evenodd"></path>
                    <path d="M4.27607285,20.3790099 C4.27607285,20.3790099 1.6762053,19.2689106 0.715708609,19.683447 C0.715708609,19.683447 -0.168198675,22.7854669 1.74921854,23.1207318 C1.74921854,23.1207318 5.14507947,22.6892086 4.98474834,21.9447715 L4.27607285,20.3790099 Z" id="Fill-54" fill="#434343" fill-rule="evenodd"></path>
                    <path d="M31.5987318,15.800543 C31.5987318,15.800543 36.5061159,17.7838212 46.6749238,16.7231921 C46.6749238,16.7231921 52.0978709,15.7659735 48.7875397,10.2798477 C48.7875397,10.2798477 43.5687318,3.07329139 30.9597914,10.5534238 C30.9597914,10.5534238 28.7500232,12.0080265 31.5987318,15.800543" id="Fill-56" fill="#FCE0B9" fill-rule="evenodd"></path>
                    <path d="M15.7260099,12.1561391 L8.15945364,12.1561391 C3.51789735,12.4797815 7.67607616,17.4485563 7.67607616,17.4485563 C8.17584437,17.6932252 8.72508278,17.8285232 9.3014404,17.8285232 L20.6119371,17.8285232 C20.6119371,14.6958079 18.4245199,12.1561391 15.7260099,12.1561391" id="Fill-58" fill="#434343" fill-rule="evenodd"></path>
                    <path d="M5.29265563,22.8045695 L3.01792053,22.8045695 C2.52292053,22.8045695 2.12149669,22.4031457 2.12149669,21.9084437 L2.12149669,20.588543 C2.12149669,20.093543 2.52292053,19.6924172 3.01792053,19.6924172 L5.29265563,19.6924172 C5.78765563,19.6924172 6.18907947,20.093543 6.18907947,20.588543 L6.18907947,21.9084437 C6.18907947,22.4031457 5.78765563,22.8045695 5.29265563,22.8045695" id="Fill-60" fill="#434343" fill-rule="evenodd"></path>
                    <path d="M28.8086126,34.3678709 L10.8020563,34.3678709 C9.99473841,34.3678709 9.34000331,33.7134338 9.34000331,32.9058179 L9.34000331,30.7535662 C9.34000331,29.9459503 9.99473841,29.2915132 10.8020563,29.2915132 L28.8086126,29.2915132 C29.6162285,29.2915132 30.2706656,29.9459503 30.2706656,30.7535662 L30.2706656,32.9058179 C30.2706656,33.7134338 29.6162285,34.3678709 28.8086126,34.3678709" id="Fill-62" fill="#C9C9C9" fill-rule="evenodd"></path>
                </g>
            </g>
        </g>
    </g>
</svg>