<?xml version="1.0" encoding="UTF-8"?>
<svg width="80px" height="80px" viewBox="0 0 80 80" version="1.1" xmlns="http://www.w3.org/2000/svg" xmlns:xlink="http://www.w3.org/1999/xlink">
    <title>bike-both</title>
    <defs>
        <rect id="path-1" x="0" y="0" width="80" height="80"></rect>
        <polygon id="path-3" points="0.281981717 0.24794702 22.4697599 0.24794702 22.4697599 29.6366025 0.281981717 29.6366025"></polygon>
    </defs>
    <g id="Desktop" stroke="none" stroke-width="1" fill="none" fill-rule="evenodd">
        <g id="bike-both">
            <mask id="mask-2" fill="white">
                <use xlink:href="#path-1"></use>
            </mask>
            <g id="Mask"></g>
            <g id="Group-57-Copy" mask="url(#mask-2)">
                <g transform="translate(2.000000, 25.000000)" id="Group-56">
                    <path d="M74.3893215,24.3564396 C75.4725832,26.3668781 76.0477947,28.6188958 76.0477947,30.9523709 C76.0477947,38.6421538 69.8139972,44.8761457 62.1243179,44.8761457 C57.5036257,44.8761457 53.2662399,42.6076635 50.6828292,38.8893576 L50.5790055,38.7378232 L51.772213,37.9316868 C54.0799854,41.3475493 57.9246318,43.4361457 62.1243179,43.4361457 C69.0186971,43.4361457 74.6077947,37.8468738 74.6077947,30.9523709 C74.6077947,28.9335888 74.1286303,26.9855066 73.2239056,25.233364 L73.1216321,25.0394942 L74.3893215,24.3564396 Z" id="Stroke-1" fill="#FFCB06" fill-rule="nonzero"></path>
                    <path d="M1.74981426,24.9524661 L3.01750363,25.6355207 C2.04665645,27.4373277 1.53134106,29.4548455 1.53134106,31.5483974 C1.53134106,38.4429439 7.12048225,44.0321722 14.0151159,44.0321722 C18.1527876,44.0321722 21.9460176,42.0045229 24.2641169,38.6775482 L24.3669228,38.5277132 L25.5601302,39.3338497 C22.9873734,43.1419304 18.6979965,45.4721722 14.0151159,45.4721722 C6.32518718,45.4721722 0.0913410596,39.2382289 0.0913410596,31.5483974 C0.0913410596,29.2927048 0.62884421,27.1131296 1.64318407,25.1543092 L1.74981426,24.9524661 Z" id="Stroke-3" fill="#FFCB06" fill-rule="nonzero"></path>
                    <polygon id="Fill-5" fill="#858586" points="53.7468377 4.32557285 56.7508113 4.32557285 54.6608444 6.5025596"></polygon>
                    <path d="M47.1489437,3.46458278 L50.8928841,1.8675298 C51.8402682,1.47206623 52.8976192,2.11786093 52.9786788,3.14153642 L53.118447,4.91292715 C53.1533146,5.35428477 53.0695728,5.79683444 52.8758642,6.19468212 L50.5108311,11.052 L47.1489437,3.46458278 Z" id="Fill-7" fill="#434343"></path>
                    <path d="M50.5947219,4.44170861 C50.5947219,4.44170861 54.0343907,4.18064901 54.7311457,4.44170861 C54.7311457,4.44170861 58.1705166,8.5343245 54.5568079,12.0175033 L51.6398543,12.0175033 L46.7634636,4.87710596 L50.5947219,4.44170861 Z" id="Fill-9" fill="#858586"></path>
                    <path d="M62.3624603,38.4831656 C57.8830232,38.7430331 54.0410364,35.3221391 53.7814669,30.842404 C53.5215993,26.3629669 56.9424934,22.5209801 61.4222285,22.2614106 C65.9016656,22.0018411 69.7436523,25.4227351 70.0032219,29.9021722 C70.2627914,34.3816093 66.8418974,38.223596 62.3624603,38.4831656 M73.4917649,27.8035629 C72.0696457,21.4025364 65.7276258,17.366245 59.3263013,18.7883642 C52.9252748,20.2104834 48.8889834,26.5522053 50.3111026,32.9535298 C51.7332219,39.3545563 58.0752417,43.3908477 64.4762682,41.9687285 C70.8772947,40.5466093 74.9135861,34.2045894 73.4917649,27.8035629" id="Fill-11" fill="#434343"></path>
                    <path d="M22.4769934,32.2678013 C21.7426887,36.7979007 17.4748411,39.8751854 12.9447417,39.1405828 C8.41434437,38.4062781 5.33735762,34.1384305 6.07166225,29.6083311 C6.8062649,25.0782318 11.0738146,22.000947 15.6042119,22.7352517 C20.1343113,23.4698543 23.211596,27.737404 22.4769934,32.2678013 M14.2819272,19.0732649 C7.72474172,19.0732649 2.40907947,24.3889272 2.40907947,30.9461126 C2.40907947,37.503298 7.72474172,42.8189603 14.2819272,42.8189603 C20.8394106,42.8189603 26.1550728,37.503298 26.1550728,30.9461126 C26.1550728,24.3889272 20.8394106,19.0732649 14.2819272,19.0732649" id="Fill-13" fill="#434343"></path>
                    <polygon id="Fill-15" fill="#434343" points="32.206947 15.5921722 45.8020132 15.5921722 41.8685364 27.7850861 33.7154901 26.9586954"></polygon>
                    <path d="M42.3265828,29.2914536 C42.3265828,31.3048311 40.6940662,32.9367517 38.6809868,32.9367517 C36.6676093,32.9367517 35.0353907,31.3048311 35.0353907,29.2914536 C35.0353907,27.5865199 36.2056887,26.1548642 37.786947,25.7564205 C38.0730397,25.6843013 38.372245,25.6458576 38.6809868,25.6458576 C40.6940662,25.6458576 42.3265828,27.2780762 42.3265828,29.2914536" id="Fill-17" fill="#BEBDC0"></path>
                    <path d="M23.6390662,29.2914536 C21.5148278,27.0754272 34.8255894,20.5578775 40.8716821,26.3777781 L41.0129404,31.2285397 L38.0885364,32.8881755 C38.0885364,32.8881755 26.1912517,31.953606 23.6390662,29.2914536" id="Fill-19" fill="#BEBDC0"></path>
                    <path d="M4.54350993,27.2756623 C6.05115894,23.3678146 9.84248344,20.5950993 14.2819868,20.5950993 C20.0452649,20.5950993 24.7169205,25.266755 24.7169205,31.0300331 C24.7169205,31.0964901 24.7157285,31.162947 24.7145364,31.229404 L25.4825166,30.9388411 L27.7226821,31.7968212 C27.7369868,31.5429139 27.7450331,31.2875166 27.7450331,31.0300331 C27.7450331,23.5946026 21.7174172,17.5669868 14.2819868,17.5669868 C7.44139073,17.5669868 1.79254967,22.6692715 0.932781457,29.2759272 C1.35268212,29.3301656 2.88476821,29.3569868 4.54350993,27.2756623" id="Fill-21" fill="#C9C9C9"></path>
                    <polygon id="Fill-23" fill="#E8E8E8" points="14.5642053 28.705053 19.2889073 14.9106159 22.5855298 16.2513775 17.8605298 30.0461126"></polygon>
                    <path d="M33.0637351,18.5030464 L19.3527417,18.5030464 C16.5481391,18.5030464 14.274298,16.4393046 14.274298,13.8936755 L14.274298,13.1274834 L27.1410199,13.1274834 C30.4123113,13.1274834 33.0637351,15.5342384 33.0637351,18.5030464" id="Fill-25" fill="#434343"></path>
                    <path d="M66.4804967,21.0748709 C66.4804967,21.0748709 69.3560265,21.4280166 69.8933444,19.6134139 C66.8720861,17.3944073 62.9463576,16.4410629 58.9997682,17.3178179 C52.3215894,18.8016258 47.9139735,25.0074536 48.5076159,31.6433146 C48.9290066,31.6051689 50.4306954,31.2991093 51.5983113,28.907553 C52.222649,24.7654669 55.3225828,21.236394 59.6565894,20.2738113 C62.0505298,19.7418576 64.4346358,20.0792086 66.4807947,21.0751689 L66.4804967,21.0748709 Z" id="Fill-27" fill="#C9C9C9"></path>
                    <path d="M62.6304934,28.6596358 L49.6254934,7.08466887 C49.1987384,7.28195364 48.7684073,7.4744702 48.3404603,7.67115894 C47.9920828,7.83089404 47.6460894,7.99629139 47.3072483,8.17509934 C47.1773146,8.24364238 47.0503609,8.3160596 46.9225132,8.38817881 C46.8632086,8.42692053 46.803904,8.46596026 46.7451954,8.50619205 C46.6706921,8.55745033 46.5967848,8.61019868 46.5240695,8.66413907 L59.6557252,30.4489073 C60.0917185,31.1730795 61.0301623,31.409702 61.7576126,30.9790728 L62.0961556,30.7788079 C62.8319503,30.3434106 63.071851,29.3918543 62.6304934,28.6596358" id="Fill-29" fill="#C8C3CA"></path>
                    <g id="Group-33" transform="translate(39.635762, 0.050066)">
                        <mask id="mask-4" fill="white">
                            <use xlink:href="#path-3"></use>
                        </mask>
                        <g id="Clip-32"></g>
                        <path d="M19.273649,28.8917285 L4.91447682,5.07033775 C4.74580132,4.78990728 4.49159603,4.57086755 4.18970861,4.44450993 L1.22835099,3.20775497 C0.440403974,2.87874834 0.0705695364,1.971 0.405536424,1.18484106 C0.727092715,0.42907947 1.58537086,0.0589470199 2.3557351,0.343847682 L6.69391391,1.94864901 C7.02143046,2.0699404 7.29768874,2.29881457 7.47798675,2.59801987 L22.2484172,27.1021589 C22.6900728,27.8346755 22.4498742,28.7862318 21.7140795,29.2216291 L21.3758344,29.421894 C20.6480861,29.8522252 19.7099404,29.6156026 19.273649,28.8917285" id="Fill-31" fill="#C9C9C9" mask="url(#mask-4)"></path>
                    </g>
                    <path d="M28.8086126,34.3678709 L10.8020563,34.3678709 C9.99473841,34.3678709 9.34000331,33.7134338 9.34000331,32.9058179 L9.34000331,30.7535662 C9.34000331,29.9459503 9.99473841,29.2915132 10.8020563,29.2915132 L28.8086126,29.2915132 C29.6162285,29.2915132 30.2706656,29.9459503 30.2706656,30.7535662 L30.2706656,32.9058179 C30.2706656,33.7134338 29.6162285,34.3678709 28.8086126,34.3678709" id="Fill-34" fill="#C9C9C9"></path>
                    <path d="M13.964394,33.2184636 L0.649460265,33.2184636 C0.290652318,33.2184636 8.94039735e-05,32.9276026 8.94039735e-05,32.5687947 L8.94039735e-05,31.6124702 C8.94039735e-05,31.2539603 0.290652318,30.9630993 0.649460265,30.9630993 L13.964394,30.9630993 C14.323202,30.9630993 14.6140629,31.2539603 14.6140629,31.6124702 L14.6140629,32.5687947 C14.6140629,32.9276026 14.323202,33.2184636 13.964394,33.2184636" id="Fill-36" fill="#C9C9C9"></path>
                    <path d="M40.7643377,33.2184636 L27.449404,33.2184636 C27.090596,33.2184636 26.8000331,32.9276026 26.8000331,32.5687947 L26.8000331,31.6124702 C26.8000331,31.2539603 27.090596,30.9630993 27.449404,30.9630993 L40.7643377,30.9630993 C41.1228477,30.9630993 41.4140066,31.2539603 41.4140066,31.6124702 L41.4140066,32.5687947 C41.4140066,32.9276026 41.1228477,33.2184636 40.7643377,33.2184636" id="Fill-38" fill="#C9C9C9"></path>
                    <path d="M48.8750364,17.4317483 L42.2037119,33.0404901 C42.0630497,33.3703907 41.6809967,33.5235695 41.351096,33.3826093 L40.471957,33.0068146 C40.1417583,32.8658543 39.9888775,32.4840993 40.1298377,32.1541987 L46.8011623,16.545457 C46.9421225,16.2155563 47.3238775,16.0623775 47.6534801,16.2033377 L48.5332152,16.5791325 C48.8628179,16.7200927 49.0159967,17.1018477 48.8750364,17.4317483" id="Fill-40" fill="#C9C9C9"></path>
                    <path d="M18.7922682,19.7199834 C18.7922682,19.7199834 15.952202,26.0256457 20.4548841,28.4511755 C20.4548841,28.4511755 27.7684272,27.6685927 27.2343874,22.6783609 C27.2343874,22.6783609 25.4087583,18.8468046 18.7922682,19.7199834" id="Fill-42" fill="#434343"></path>
                    <path d="M32.206947,21.2125232 C32.206947,23.2259007 30.8423444,24.8578212 29.1588675,24.8578212 C27.4756887,24.8578212 26.1110861,23.2259007 26.1110861,21.2125232 C26.1110861,19.1991457 27.4756887,17.5669272 29.1588675,17.5669272 C30.8423444,17.5669272 32.206947,19.1991457 32.206947,21.2125232" id="Fill-44" fill="#434343"></path>
                    <path d="M50.6587351,13.6604801 C50.6587351,13.6604801 52.5561854,12.5503808 53.2574106,12.9649172 C53.2574106,12.9649172 53.9023113,16.0669371 52.5028411,16.402202 C52.5028411,16.402202 50.0245629,15.9706788 50.1416821,15.2262417 L50.6587351,13.6604801 Z" id="Fill-46" fill="#434343"></path>
                    <path d="M4.27607285,20.3790099 C4.27607285,20.3790099 1.6762053,19.2689106 0.715708609,19.683447 C0.715708609,19.683447 -0.168198675,22.7854669 1.74921854,23.1207318 C1.74921854,23.1207318 5.14507947,22.6892086 4.98474834,21.9447715 L4.27607285,20.3790099 Z" id="Fill-48" fill="#434343"></path>
                    <path d="M31.598702,15.800543 C31.598702,15.800543 36.5060861,17.7838212 46.6751921,16.7231921 C46.6751921,16.7231921 52.0978411,15.7659735 48.7875099,10.2798477 C48.7875099,10.2798477 43.568702,3.07329139 30.9597616,10.5534238 C30.9597616,10.5534238 28.7499934,12.0080265 31.598702,15.800543" id="Fill-50" fill="#FBB540"></path>
                    <path d="M15.7260099,12.1561391 L8.15945364,12.1561391 C3.51819536,12.4797815 7.67607616,17.4485563 7.67607616,17.4485563 C8.17584437,17.6932252 8.72508278,17.8285232 9.3014404,17.8285232 L20.6119371,17.8285232 C20.6119371,14.6958079 18.4245199,12.1561391 15.7260099,12.1561391" id="Fill-52" fill="#434343"></path>
                    <path d="M5.29262583,22.8045695 L3.01789073,22.8045695 C2.52289073,22.8045695 2.12146689,22.4031457 2.12146689,21.9084437 L2.12146689,20.588543 C2.12146689,20.093543 2.52289073,19.6924172 3.01789073,19.6924172 L5.29262583,19.6924172 C5.78762583,19.6924172 6.18904967,20.093543 6.18904967,20.588543 L6.18904967,21.9084437 C6.18904967,22.4031457 5.78762583,22.8045695 5.29262583,22.8045695" id="Fill-54" fill="#434343"></path>
                </g>
            </g>
        </g>
    </g>
</svg>