<svg xmlns="http://www.w3.org/2000/svg" xmlns:xlink="http://www.w3.org/1999/xlink" width="323" height="103" viewBox="0 0 323 103">
    <defs>
        <path id="yyyp1ix80a" d="M0 0.248L306.533 0.248 306.533 0.783 0 0.783z"/>
        <path id="wqrnhwntrc" d="M0.17 0.19L98.46 0.19 98.46 5.692 0.17 5.692z"/>
        <path id="zwchknuhce" d="M0 89.81L306.533 89.81 306.533 0.261 0 0.261z"/>
        <path id="i95h2f7glg" d="M0.131 0.059L27.589 0.059 27.589 27.517 0.131 27.517z"/>
        <path id="dohwns9vai" d="M0 0.049L16.899 0.049 16.899 2.657 0 2.657z"/>
        <path id="ld7c24xz6k" d="M0.111 0.007L10.94 0.007 10.94 10.826 0.111 10.826z"/>
        <path id="wfk8uqcvrm" d="M0.11 0.007L5.63 0.007 5.63 10.826 0.11 10.826z"/>
    </defs>
    <g fill="none" fill-rule="evenodd">
        <g>
            <g>
                <g opacity=".239" transform="translate(-495 -255) translate(495 255)">
                    <g transform="translate(0 89.027)">
                        <mask id="cq7q171enb" fill="#fff">
                            <use xlink:href="#yyyp1ix80a"/>
                        </mask>
                        <path fill="#283250" d="M306.265.783H.267C.12.783 0 .663 0 .515 0 .368.12.248.267.248h305.998c.147 0 .268.12.268.267 0 .147-.12.268-.268.268" mask="url(#cq7q171enb)"/>
                    </g>
                    <g transform="translate(45.913 .071)">
                        <mask id="ivjky6qc0d" fill="#fff">
                            <use xlink:href="#wqrnhwntrc"/>
                        </mask>
                        <path fill="#C3C9D2" d="M98.46 5.692H.17v-3.03C.17 1.298 1.277.19 2.643.19h90.676c.806 0 1.562.393 2.025 1.054l3.116 4.448z" mask="url(#ivjky6qc0d)"/>
                    </g>
                    <path fill="#C3C9D2" d="M46.083 3.962L46.083 5.763 144.373 5.763 143.112 3.962zM246.91 5.763H39.982c-3.508 0-6.353 2.844-6.353 6.352v57.837c0 1.559 1.113 2.896 2.645 3.18l17.417 3.224h19.35c0-6.814 5.523-12.338 12.337-12.338s12.337 5.524 12.337 12.338h115.152c0-6.814 5.524-12.338 12.338-12.338 6.814 0 12.338 5.524 12.338 12.338h12.57c1.74 0 3.15-1.41 3.15-3.148V12.115c0-3.508-2.845-6.352-6.353-6.352"/>
                    <path fill="#7F7F7F" d="M235.39 69.393c1.358 1.982 2.153 4.38 2.153 6.963h12.57c1.74 0 3.15-1.41 3.15-3.148 0-2.107-1.709-3.815-3.815-3.815H235.39zM33.63 69.393v.559c0 1.559 1.112 2.896 2.645 3.18l17.416 3.224H73.04c0-2.583.795-4.98 2.152-6.963H33.629zM95.564 69.393c1.357 1.982 2.151 4.38 2.151 6.963h115.152c0-2.583.795-4.98 2.152-6.963H95.564z"/>
                    <mask id="1p0pvwr1of" fill="#fff">
                        <use xlink:href="#zwchknuhce"/>
                    </mask>
                    <path fill="#AFAFAF" d="M32.306 67.295L35.116 67.295 35.116 52.422 32.306 52.422zM35.116 48.389L35.116 51.199 32.306 51.199M251.814 51.668L253.262 51.668 253.262 65.118 251.814 65.118" mask="url(#1p0pvwr1of)"/>
                    <path fill="#163560" d="M253.262 45.3V18.65c0-2.434-1.972-4.406-4.406-4.406h-10.235c-2.433 0-4.406 1.972-4.406 4.406v7.602c0 10.52 8.528 19.048 19.047 19.048" mask="url(#1p0pvwr1of)"/>
                    <path fill="#AFAFAF" d="M113.702 45.3h49.767c2.434 0 4.406-1.973 4.406-4.406V18.65c0-2.434-1.972-4.406-4.406-4.406h-49.767c-2.434 0-4.406 1.972-4.406 4.406v22.244c0 2.433 1.972 4.406 4.406 4.406M213.565 45.3h12.37c2.434 0 4.406-1.973 4.406-4.406V18.65c0-2.434-1.972-4.406-4.406-4.406h-12.37c-2.433 0-4.406 1.972-4.406 4.406v22.244c0 2.433 1.973 4.406 4.406 4.406M253.262 45.3V18.65c0-2.434-1.972-4.406-4.406-4.406h-10.235c-2.433 0-4.406 1.972-4.406 4.406v7.602c0 10.52 8.528 19.048 19.047 19.048" mask="url(#1p0pvwr1of)"/>
                    <path fill="#163560" d="M43.453 45.3h54.864c2.433 0 4.405-1.973 4.405-4.406V18.65c0-2.434-1.972-4.406-4.405-4.406H43.453c-2.434 0-4.407 1.972-4.407 4.406v22.244c0 2.433 1.973 4.406 4.407 4.406" mask="url(#1p0pvwr1of)"/>
                    <path fill="#AFAFAF" d="M43.453 45.3h54.864c2.433 0 4.405-1.973 4.405-4.406V18.65c0-2.434-1.972-4.406-4.405-4.406H43.453c-2.434 0-4.407 1.972-4.407 4.406v22.244c0 2.433 1.973 4.406 4.407 4.406M202.36 14.244H174.806c-1.136 0-2.056.92-2.056 2.056v60.056h31.666V16.3c0-1.136-.92-2.056-2.056-2.056M96.74 76.477c0 6.324-5.127 11.452-11.451 11.452-6.325 0-11.453-5.128-11.453-11.452 0-6.325 5.128-11.452 11.453-11.452 6.324 0 11.452 5.127 11.452 11.452M236.648 76.247c0 6.324-5.127 11.451-11.452 11.451s-11.452-5.127-11.452-11.451c0-6.325 5.127-11.452 11.452-11.452s11.452 5.127 11.452 11.452" mask="url(#1p0pvwr1of)"/>
                    <path fill="#163560" d="M149.457 54.211l.007.001h-.007" mask="url(#1p0pvwr1of)"/>
                    <path fill="#7F7F7F" d="M177.87 65.397c-1.484-.055-3.025-.085-4.626-.085 0 0-8.86-7.69-19.11-10.307 10.538 2.603 23.736 10.392 23.736 10.392" mask="url(#1p0pvwr1of)"/>
                    <path fill="#C4C4C4" d="M97.617 71.17v-8.49s9.96-1.139 15.984-3.32c13.944-5.123 21.438-5.218 34.102-5.218 9.615 0 19.353 6.439 23.485 9.54 1.392 1.044 3.08 1.622 4.822 1.66 15.21.333 24.612 3.37 29.281 5.419 2.188.96 3.597 3.129 3.597 5.518v2.859c.314 0 .569.255.569.569v4.743c0 .314-.255.569-.57.569h-9.075c.899-1.611 1.395-3.478 1.345-5.466-.142-5.66-4.766-10.27-10.426-10.395-6.005-.133-10.914 4.694-10.914 10.669 0 1.885.49 3.655 1.349 5.192h-55.843c.899-1.611 1.395-3.478 1.345-5.466-.142-5.66-4.765-10.27-10.426-10.395-6.005-.133-10.914 4.694-10.914 10.669 0 1.885.49 3.655 1.349 5.192h-2.23c-7.717 0-8.81-7.892-8.883-11.76-.021-1.149.905-2.09 2.053-2.09" mask="url(#1p0pvwr1of)"/>
                    <path fill="#7F7F7F" d="M152.592 55.675c8.81 2.23 18.257 9.85 18.257 9.85l-25.006-.535c-.98-.02-1.864-.598-2.277-1.488l-3.831-8.27h9.272c1.209 0 2.413.146 3.585.443M138.264 55.423l3.511 8.042c.27.618-.183 1.31-.857 1.31-3.543.002-12.844-.13-18.199-1.47-1.286-.323-1.718-1.941-.76-2.86 2.175-2.086 6.906-5.022 16.305-5.022M97.617 71.17h.967c.542 0 1.036-.311 1.267-.801.56-1.183 1.787-3.43 3.671-5.026.73-.619.293-1.81-.663-1.81h-5.242v7.636z" mask="url(#1p0pvwr1of)"/>
                    <path fill="#AFAFAF" d="M125.715 79.577c0 5.33-4.322 9.652-9.652 9.652-5.331 0-9.653-4.321-9.653-9.652 0-5.33 4.322-9.652 9.653-9.652 5.33 0 9.652 4.321 9.652 9.652M200.084 79.577c0 5.33-4.322 9.652-9.653 9.652-5.33 0-9.652-4.321-9.652-9.652 0-5.33 4.322-9.652 9.652-9.652 5.331 0 9.653 4.321 9.653 9.652" mask="url(#1p0pvwr1of)"/>
                </g>
                <path fill="#D9E3E9" d="M295.97 90.21c55.3 3.059 17.726 9.413-67.826 11.594-85.552 2.181-206.912-1.891-227.035-6.698-20.123-4.806 239.562-7.955 294.861-4.896z" transform="translate(-495 -255) translate(495 255)"/>
                <g>
                    <path fill="#C7A288" d="M47.112 24.762c-.16.136-1.29.014-1.543-.186-.253-.2-2.265-.14-2.265-.14l.252-1.223s1.15.184 1.456.119c.305-.065 1.772-.785 2.263-.565.492.22 1.665 1.635 1.289 2.203 0 0-.597-.033-1.101-.644" transform="translate(-495 -255) translate(495 255) translate(237 26)"/>
                    <path fill="#BEBDC0" d="M62.15 25.481L65.624 25.481 63.207 27.998z" transform="translate(-495 -255) translate(495 255) translate(237 26)"/>
                    <path fill="#434343" d="M54.52 24.485l4.33-1.846c1.095-.457 2.318.29 2.411 1.473l.162 2.048c.04.51-.056 1.022-.28 1.482l-2.735 5.617-3.888-8.774z" transform="translate(-495 -255) translate(495 255) translate(237 26)"/>
                    <path fill="#BEBDC0" d="M58.505 25.615s3.977-.302 4.783 0c0 0 3.977 4.733-.202 8.76h-3.373l-5.638-8.256 4.43-.504z" transform="translate(-495 -255) translate(495 255) translate(237 26)"/>
                    <path fill="#434343" d="M72.112 64.979c-5.18.3-9.622-3.655-9.922-8.835-.3-5.18 3.655-9.623 8.835-9.923 5.18-.3 9.622 3.656 9.923 8.835.3 5.18-3.656 9.623-8.836 9.923m12.87-12.35c-1.645-7.401-8.978-12.069-16.38-10.424-7.402 1.644-12.07 8.978-10.425 16.38 1.644 7.401 8.978 12.069 16.38 10.425 7.402-1.645 12.07-8.979 10.425-16.38" transform="translate(-495 -255) translate(495 255) translate(237 26)"/>
                    <g transform="translate(-495 -255) translate(495 255) translate(237 26) translate(2.655 42.475)">
                        <mask id="6td4lrp3fh" fill="#fff">
                            <use xlink:href="#i95h2f7glg"/>
                        </mask>
                        <path fill="#434343" d="M23.336 15.317c-.85 5.238-5.784 8.796-11.023 7.947-5.238-.85-8.796-5.784-7.947-11.023.85-5.238 5.784-8.796 11.022-7.947 5.239.85 8.797 5.784 7.948 11.023M13.86.059C6.277.059.13 6.206.13 13.789c0 7.582 6.147 13.728 13.73 13.728 7.582 0 13.729-6.146 13.729-13.729 0-7.582-6.147-13.73-13.73-13.73" mask="url(#6td4lrp3fh)"/>
                    </g>
                    <path fill="#434343" d="M39.439 38.509L53.674 38.509 49.892 52.608 40.465 51.652z" transform="translate(-495 -255) translate(495 255) translate(237 26)"/>
                    <path fill="#766D78" d="M48.944 54.35c0 2.328-1.887 4.215-4.215 4.215-2.329 0-4.216-1.887-4.216-4.215 0-1.971 1.354-3.627 3.182-4.088.33-.083.677-.127 1.034-.127 2.328 0 4.215 1.887 4.215 4.215" transform="translate(-495 -255) translate(495 255) translate(237 26)"/>
                    <path fill="#BEBDC0" d="M27.335 54.35c-2.457-2.562 12.935-10.099 19.927-3.37l.163 5.61-3.381 1.92s-13.758-1.082-16.71-4.16" transform="translate(-495 -255) translate(495 255) translate(237 26)"/>
                    <path fill="#C8C3CA" d="M5.254 52.02c1.743-4.52 6.127-7.726 11.261-7.726 6.664 0 12.067 5.402 12.067 12.066 0 .077-.002.154-.003.23l.888-.335 2.59.992c.017-.293.026-.589.026-.887 0-8.598-6.97-15.567-15.568-15.567-7.91 0-14.442 5.9-15.436 13.54.485.062 2.257.093 4.175-2.314" transform="translate(-495 -255) translate(495 255) translate(237 26)"/>
                    <path fill="#E8E8E8" d="M16.841 53.672L22.305 37.721 26.117 39.272 20.653 55.222z" transform="translate(-495 -255) translate(495 255) translate(237 26)"/>
                    <path fill="#434343" d="M38.233 41.875H22.38c-3.244 0-5.873-2.386-5.873-5.33v-.886h14.878c3.783 0 6.85 2.783 6.85 6.216" transform="translate(-495 -255) translate(495 255) translate(237 26)"/>
                    <path fill="#C8C3CA" d="M76.874 44.849s3.325.408 3.947-1.69c-3.493-2.566-8.034-3.668-12.597-2.654-7.722 1.715-12.819 8.891-12.133 16.564.488-.043 2.224-.397 3.575-3.163.721-4.79 4.306-8.87 9.318-9.984 2.767-.615 5.525-.224 7.89.927z" transform="translate(-495 -255) translate(495 255) translate(237 26)"/>
                    <path fill="#C8C3CA" d="M72.422 53.62L57.384 28.67c-.493.229-.99.451-1.486.678-.403.185-.803.377-1.195.584-.15.079-.297.162-.444.246l-.205.136c-.086.06-.172.12-.256.183l15.184 25.19c.505.838 1.59 1.111 2.431.614l.391-.232c.851-.503 1.129-1.604.618-2.45" transform="translate(-495 -255) translate(495 255) translate(237 26)"/>
                    <path fill="#C8C3CA" d="M68.12 53.946L51.516 26.4c-.196-.324-.49-.577-.839-.723l-3.424-1.43c-.911-.381-1.338-1.431-.952-2.34.372-.874 1.365-1.302 2.256-.972l5.016 1.856c.379.14.698.404.907.75l17.08 28.336c.51.846.232 1.947-.618 2.45l-.392.232c-.841.497-1.926.224-2.43-.613" transform="translate(-495 -255) translate(495 255) translate(237 26)"/>
                    <path fill="#E8E8E8" d="M32.38 60.22H13.423c-1.449 0-2.623-1.175-2.623-2.624v-.622c0-1.45 1.174-2.624 2.623-2.624H32.38c1.45 0 2.624 1.175 2.624 2.624v.622c0 1.45-1.174 2.624-2.624 2.624" transform="translate(-495 -255) translate(495 255) translate(237 26)"/>
                    <g transform="translate(-495 -255) translate(495 255) translate(237 26) translate(0 56.234)">
                        <mask id="i4s4cp0k6j" fill="#fff">
                            <use xlink:href="#dohwns9vai"/>
                        </mask>
                        <path fill="#E8E8E8" d="M15.733 2.657H1.166C.522 2.657 0 2.135 0 1.491v-.276C0 .57.522.049 1.166.049h14.567c.644 0 1.166.522 1.166 1.166v.276c0 .644-.522 1.166-1.166 1.166" mask="url(#i4s4cp0k6j)"/>
                    </g>
                    <path fill="#E8E8E8" d="M46.723 58.891H32.156c-.644 0-1.166-.522-1.166-1.166v-.276c0-.644.522-1.166 1.166-1.166h14.567c.644 0 1.166.522 1.166 1.166v.276c0 .644-.522 1.166-1.166 1.166" transform="translate(-495 -255) translate(495 255) translate(237 26)"/>
                    <path fill="#E8E8E8" d="M56.353 41.017l-7.388 17.287c-.253.592-.938.867-1.53.614l-.254-.109c-.592-.253-.867-.938-.614-1.53l7.388-17.286c.253-.593.938-.867 1.53-.614l.255.108c.592.253.866.938.613 1.53" transform="translate(-495 -255) translate(495 255) translate(237 26)"/>
                    <path fill="#434343" d="M21.73 43.282s-3.284 7.292 1.923 10.097c0 0 8.457-.905 7.84-6.676 0 0-2.112-4.43-9.763-3.42" transform="translate(-495 -255) translate(495 255) translate(237 26)"/>
                    <path fill="#434343" d="M37.242 45.008c0 2.328-1.578 4.215-3.524 4.215-1.947 0-3.524-1.887-3.524-4.215s1.577-4.215 3.524-4.215c1.946 0 3.524 1.887 3.524 4.215M58.579 36.275s2.194-1.283 3.005-.804c0 0 .746 3.587-.872 3.975 0 0-2.866-.5-2.731-1.36l.598-1.81zM4.945 44.044S1.938 42.761.827 43.24c0 0-1.022 3.587 1.195 3.975 0 0 3.927-.5 3.742-1.36l-.82-1.81z" transform="translate(-495 -255) translate(495 255) translate(237 26)"/>
                    <path fill="#FBB540" d="M36.539 38.75s5.675 2.293 17.434 1.067c0 0 6.27-1.107 2.442-7.45 0 0-6.034-8.334-20.615.315 0 0-2.555 1.683.739 6.068" transform="translate(-495 -255) translate(495 255) translate(237 26)"/>
                    <path fill="#434343" d="M18.185 34.536h-8.75c-5.367.374-.559 6.12-.559 6.12.578.283 1.213.439 1.88.439h13.078c0-3.622-2.529-6.56-5.65-6.56M6.028 46.85H3.581c-.623 0-1.128-.506-1.128-1.13V44.38c0-.624.505-1.129 1.128-1.129h2.447c.623 0 1.129.505 1.129 1.129v1.342c0 .623-.506 1.128-1.129 1.128" transform="translate(-495 -255) translate(495 255) translate(237 26)"/>
                    <path fill="#C7A288" d="M31.048 12.924c-2.311.726-6.242-1.55-6.242-1.55s1.455-1.092 1.9-3.346c.023-.114.042-.23.059-.35l1.19-.316 1.871 1.51s-.007.669-.172 1.824c-.028.202-.061.418-.101.649.99.545 1.495 1.579 1.495 1.579" transform="translate(-495 -255) translate(495 255) translate(237 26)"/>
                    <path fill="#ED975D" d="M29.826 8.873s-.006.668-.172 1.823c-1.776-.475-2.65-2.013-2.948-2.668.023-.114.042-.23.059-.35l1.19-.316 1.871 1.51z" transform="translate(-495 -255) translate(495 255) translate(237 26)"/>
                    <path fill="#FFB27D" d="M30.808 9.87s-4.448-.51-4.088-3.275c.36-2.766.029-4.694 2.884-4.485 2.855.208 3.269 1.335 3.373 2.287.104.952-1.002 5.534-2.169 5.473" transform="translate(-495 -255) translate(495 255) translate(237 26)"/>
                    <path fill="#2B478B" d="M26.864 7.737s-.098-.937.454-1.505c0 0-.25-.932.115-1.107.364-.174.483.614.647.48.165-.132.896-.761 1.177-1.648.282-.887 3.321.014 3.677.153.356.138-1.692-4.57-4.39-3.714-2.697.854-3.002 2.178-2.79 3.289.213 1.11-.029 3.734 1.11 4.052" transform="translate(-495 -255) translate(495 255) translate(237 26)"/>
                    <path fill="#BDBDBD" d="M21.15 30.616s-.117 4.728.844 6.157c.963 1.428 21.543 2.586 21.543 2.586s.337-3.01-.404-3.852c-.74-.842-4.308-3.377-16.18-5.62l-5.803.73z" transform="translate(-495 -255) translate(495 255) translate(237 26)"/>
                    <path fill="#5C63AB" d="M21.68 20.743c.005 4.07-.938 10.183-.645 11.28.253.945 4.033.703 5.548.519.562-.07 1.243-.176 1.95-.312 1.968-.377 4.13-.97 4.4-1.52.011-.022.02-.042.027-.063.028-.08.03-.159.016-.238-.038-.219-.193-.46-.26-.862-.025-.141-.037-.302-.03-.49.024-.735.095-1.586.145-2.504l.013-.254c.007-.115.016-.239.012-.353l.002-.042.004-.065c.06-1.132.09-2.324.111-3.508.006-.37.01-.737.01-1.1.002-.128.002-.256.002-.383 0-.237 0-.472-.003-.704-.02-1.825-.115-3.455-.331-4.497-.354-1.7-1.345-2.87-2.263-3.744l-.666-.605c-.805.09-1.734-.09-2.553-.519-.885-.467-1.18-.773-1.348-.68-2.24 1.295-4.132 5.669-4.14 10.644" transform="translate(-495 -255) translate(495 255) translate(237 26)"/>
                    <path fill="#585858" d="M34.883 54.24s-.058 2.944.505 3.032c.075.012 2.874.24 2.874.24l3.575.272s.047-.863-.982-1.13c-1.03-.268-2.718-1.145-3.238-2.577-.547-1.507-2.734.162-2.734.162" transform="translate(-495 -255) translate(495 255) translate(237 26)"/>
                    <path fill="#BDBDBD" d="M34.12 54.369s.648.588 2.05.77c.36.047.694.056.988.042.784-.035 1.287-.22 1.287-.22l5.093-15.602s-3.815-3.925-6.14-1.868c-.304.268-.584.753-.84 1.394C34.84 43.162 34.12 54.37 34.12 54.37" transform="translate(-495 -255) translate(495 255) translate(237 26)"/>
                    <path fill="#5C63AB" d="M27.911 18.159s1.864 9.953 4.804 11.388c-.023-.141-.036-.302-.03-.49.025-.735.096-1.586.146-2.504l.013-.254c.007-.114.016-.239.012-.353l.002-.042.004-.065c.06-1.132.09-2.324.111-3.508.006-.37.01-.737.01-1.1-1.204-1.724-2.924-3.033-5.072-3.072" transform="translate(-495 -255) translate(495 255) translate(237 26)"/>
                    <path fill="#5C63AB" d="M28.331 13.024s6.7 6.727 8.547 7.474c1.847.747 8.438 2.596 8.438 2.596s.055 1.6-.622 2.144c0 0-8.564-1.202-9.617-1.516-1.053-.314-8.7-5.104-9.326-5.47-.625-.366-.066-5.953 2.58-5.228" transform="translate(-495 -255) translate(495 255) translate(237 26)"/>
                    <path fill="#939393" d="M34.12 54.369s.648.588 2.05.77c.36.047.694.056.988.042-1.939-2.912-.6-16.296-.6-16.296C34.84 43.162 34.12 54.37 34.12 54.37" transform="translate(-495 -255) translate(495 255) translate(237 26)"/>
                    <g transform="translate(-495 -255) translate(495 255) translate(237 26) translate(24.138 .234)">
                        <mask id="j6djgt3qkl" fill="#fff">
                            <use xlink:href="#ld7c24xz6k"/>
                        </mask>
                        <path fill="#FB0" d="M10.94 4.413l-.585 4.911c-.035.103-.071.2-.101.29-.263.715-.949 1.192-1.708 1.211-.243.007-.48-.032-.706-.122l-2.172-.84L.747 7.977c-.355-.15-.587-.49-.596-.86l-.039-1.53C.055 3.306 1.74.891 3.85.251 4.37.098 4.897.015 5.42.008 6.506-.007 7.595.292 8.522.88c1.266.805 2.141 2.108 2.42 3.532" mask="url(#j6djgt3qkl)"/>
                    </g>
                    <g transform="translate(-495 -255) translate(495 255) translate(237 26) translate(29.448 .234)">
                        <mask id="5skoqharmn" fill="#fff">
                            <use xlink:href="#wfk8uqcvrm"/>
                        </mask>
                        <path fill="#FB0" d="M5.63 4.413l-.585 4.911c-.036.103-.072.2-.101.29-.263.715-.949 1.192-1.708 1.211-.243.007-.48-.032-.706-.122l-2.173-.84L.11.009C1.195-.007 2.283.292 3.21.88c1.265.805 2.14 2.108 2.42 3.532" mask="url(#5skoqharmn)"/>
                    </g>
                    <path fill="#57555C" d="M26.864 7.375c-.703.018-1.29-.54-1.308-1.244-.017-.704.54-1.29 1.244-1.308.704-.018 1.29.54 1.308 1.244.018.704-.54 1.29-1.244 1.308" transform="translate(-495 -255) translate(495 255) translate(237 26)"/>
                    <path fill="#3C3A41" d="M35.078 4.647l-3.823-.38-.624.574.058 2.313.663.941 3.141 1.463.291.14c.045.018.09.03.141.028.058-.001.115-.016.165-.049.094-.066.15-.17.146-.278l-.113-4.505c-.015-.082-.023-.165-.045-.247" transform="translate(-495 -255) translate(495 255) translate(237 26)"/>
                    <path fill="#57555C" d="M31.255 4.264l.096 3.828-1.401-.654c-.078-.036-.15-.08-.215-.135-.202-.174-.33-.433-.336-.707l-.037-1.435c-.006-.275.108-.533.302-.717l.006-.006c.2-.19.472-.28.747-.255l.838.08z" transform="translate(-495 -255) translate(495 255) translate(237 26)"/>
                    <path fill="#3C3A41" d="M31.255 4.264l.096 3.828-1.401-.654c-.078-.036-.15-.08-.215-.135l-.071-2.859.006-.006c.2-.19.472-.28.747-.255l.838.08z" transform="translate(-495 -255) translate(495 255) translate(237 26)"/>
                </g>
            </g>
        </g>
    </g>
</svg>
