<?xml version="1.0" encoding="UTF-8"?>
<svg width="80px" height="80px" viewBox="0 0 80 80" version="1.1" xmlns="http://www.w3.org/2000/svg" xmlns:xlink="http://www.w3.org/1999/xlink">
    <title>bike-front</title>
    <defs>
        <rect id="path-1" x="0" y="0" width="80" height="80"></rect>
        <polygon id="path-3" points="0.285790463 0.251275168 22.7713034 0.251275168 22.7713034 30.0344727 0.285790463 30.0344727"></polygon>
    </defs>
    <g id="Desktop" stroke="none" stroke-width="1" fill="none" fill-rule="evenodd">
        <g id="bike-front">
            <mask id="mask-2" fill="white">
                <use xlink:href="#path-1"></use>
            </mask>
            <g id="Mask"></g>
            <g id="Group-64-Copy" mask="url(#mask-2)">
                <g transform="translate(-30.000000, 26.000000)">
                    <path d="M75.3795091,24.6879257 C76.4765568,26.7239498 77.0590872,29.0046221 77.0590872,31.3678087 C77.0590872,39.1554202 70.745692,45.4688154 62.9580805,45.4688154 C58.2780397,45.4688154 53.9860632,43.1706608 51.3695914,39.4038423 L51.2658291,39.2523882 L52.4589896,38.4461823 C54.7998341,41.9105615 58.6990735,44.0288154 62.9580805,44.0288154 C69.950402,44.0288154 75.6190872,38.3601301 75.6190872,31.3678087 C75.6190872,29.3177613 75.1318752,27.3395799 74.2120278,25.5607956 L74.1118197,25.3709803 L75.3795091,24.6879257 Z" id="Stroke-1" fill="#FFCB06" fill-rule="nonzero"></path>
                    <polygon id="Fill-3" fill="#858586" fill-rule="evenodd" points="54.468151 4.38363423 57.5127483 4.38363423 55.3947282 6.58984228"></polygon>
                    <path d="M47.7816644,3.51108725 L51.5758591,1.89259732 C52.5359597,1.4918255 53.6075034,2.14628859 53.689651,3.1837047 L53.8312953,4.97887248 C53.8666309,5.42615436 53.7817651,5.8746443 53.5857584,6.27813423 L51.1889799,11.200349 L47.7816644,3.51108725 Z" id="Fill-5" fill="#434343" fill-rule="evenodd"></path>
                    <path d="M51.2739966,4.50132886 C51.2739966,4.50132886 54.7598356,4.2367651 55.4656409,4.50132886 C55.4656409,4.50132886 58.9514799,8.64887919 55.2892651,12.1788121 L52.3328557,12.1788121 L47.3913121,4.94257047 L51.2739966,4.50132886 Z" id="Fill-7" fill="#858586" fill-rule="evenodd"></path>
                    <path d="M63.1993893,38.9997181 C58.6598255,39.2630738 54.7662685,35.7962617 54.5032148,31.256396 C54.2401611,26.7168322 57.7066711,22.8232752 62.2465369,22.5602215 C66.7861007,22.2971678 70.6796577,25.7639799 70.9427114,30.3035436 C71.2060671,34.8431074 67.738953,38.7366644 63.1993893,38.9997181 M74.4780805,28.1767651 C73.0368725,21.6898188 66.6097248,17.599349 60.1224765,19.040557 C53.6358322,20.4817651 49.5450604,26.9086107 50.9865705,33.3958591 C52.4274765,39.8828054 58.8546242,43.9732752 65.3418725,42.5320671 C71.8288188,41.0908591 75.9192886,34.6640134 74.4780805,28.1767651" id="Fill-9" fill="#434343" fill-rule="evenodd"></path>
                    <polygon id="Fill-13" fill="#434343" fill-rule="evenodd" points="32.639406 15.8014631 46.4169564 15.8014631 42.4303792 28.1580403 34.168198 27.320557"></polygon>
                    <path d="M42.894604,29.6846275 C42.894604,31.7250302 41.2404765,33.3788557 39.2003758,33.3788557 C37.1599732,33.3788557 35.5055436,31.7250302 35.5055436,29.6846275 C35.5055436,27.9568087 36.6918523,26.5059362 38.2943356,26.1021443 C38.5842685,26.029057 38.8874899,25.9900973 39.2003758,25.9900973 C41.2404765,25.9900973 42.894604,27.6442248 42.894604,29.6846275" id="Fill-15" fill="#BEBDC0" fill-rule="evenodd"></path>
                    <path d="M67.3730336,21.3577248 C67.3730336,21.3577248 70.2868591,21.7156107 70.8313893,19.876651 C67.7698792,17.6278591 63.7911544,16.6617181 59.7915906,17.5502416 C53.0240738,19.0539664 48.5569933,25.343094 49.158604,32.0680268 C49.585953,32.0293691 51.1077987,31.7192013 52.2910872,29.2955436 C52.9235034,25.0978591 56.065349,21.5214161 60.4572282,20.5459128 C62.883302,20.0068188 65.2997114,20.348698 67.3730336,21.3580268 L67.3730336,21.3577248 Z" id="Fill-21" fill="#C9C9C9" fill-rule="evenodd"></path>
                    <path d="M63.5780839,28.9374161 L50.3985201,7.07285235 C49.9660369,7.27278523 49.5299295,7.46788591 49.0962383,7.66721477 C48.7431846,7.82939597 48.392547,7.99671141 48.0491577,8.17822148 C47.9174799,8.24768456 47.7885201,8.32077181 47.6592584,8.39385906 C47.5991577,8.43312081 47.539057,8.47268456 47.4795604,8.51345638 C47.403755,8.56540268 47.3291577,8.61885906 47.2554664,8.67352349 L60.5630839,30.7510067 C61.0052315,31.4845973 61.9562718,31.724396 62.6934866,31.2879866 L63.0362718,31.0853356 C63.782245,30.644094 64.0250638,29.6797651 63.5780839,28.9374161" id="Fill-23" fill="#C9C9C9" fill-rule="evenodd"></path>
                    <g id="Group-27" stroke-width="1" fill="none" fill-rule="evenodd" transform="translate(40.167785, 0.050738)">
                        <mask id="mask-4" fill="white">
                            <use xlink:href="#path-3"></use>
                        </mask>
                        <g id="Clip-26"></g>
                        <path d="M19.5322047,29.2796879 L4.98059396,5.13854698 C4.80935235,4.85435235 4.5517349,4.63207047 4.24609732,4.50431879 L1.24498993,3.25096309 C0.446466443,2.91723826 0.0716677852,1.99730537 0.410828859,1.20089597 C0.737003356,0.434687919 1.6065,0.0595872483 2.3872047,0.348614094 L6.78361409,1.97495638 C7.11582886,2.09787584 7.39549329,2.32982215 7.57851342,2.63274161 L22.5472047,27.4660973 C22.9944866,28.2081443 22.7510638,29.1727752 22.0053926,29.6137148 L21.6629094,29.8166678 C20.9253926,30.2530772 19.9743523,30.0132785 19.5322047,29.2796879 Z" id="Fill-25" fill="#C9C9C9" mask="url(#mask-4)"></path>
                    </g>
                    <path d="M49.5309262,17.6657315 L42.7700537,33.4839866 C42.6275034,33.8183154 42.2403221,33.9735503 41.9062953,33.830698 L41.0150537,33.4498591 C40.6807248,33.3070067 40.5257919,32.9201275 40.6683423,32.5857987 L47.4292148,16.7675436 C47.5720671,16.4332148 47.9589463,16.2779799 48.2932752,16.4208322 L49.1845168,16.8016711 C49.5188456,16.9445235 49.6740805,17.3314027 49.5309262,17.6657315" id="Fill-30" fill="#C9C9C9" fill-rule="evenodd"></path>
                    <path d="M29.5505638,25.191604 C29.5267047,25.191604 29.5037517,25.1879799 29.4798926,25.1873758 C25.664255,26.3893893 22.8896577,28.5717383 23.9566711,29.6846577 C24.9756644,30.747443 27.4648591,31.5384161 30.1074765,32.1071074 L30.1074765,25.1287852 C29.9262685,25.168047 29.7408322,25.191604 29.5505638,25.191604" id="Fill-34" fill="#C3C9D2" fill-rule="evenodd"></path>
                    <path d="M41.5632685,31.6478658 L41.4204161,26.7316913 C38.7077315,24.1204832 34.5523289,23.9607181 30.9496107,24.7879329 C30.6880671,24.947396 30.4056846,25.0636711 30.1072953,25.128604 L30.1072953,32.1072282 C34.172094,32.9818591 38.5999128,33.3297785 38.5999128,33.3297785 L41.5632685,31.6478658 Z" id="Fill-36" fill="#BEBDC0" fill-rule="evenodd"></path>
                    <path d="M30.1073859,17.8658456 C29.9261779,17.8262819 29.7407416,17.8027248 29.5504732,17.8027248 C27.8447013,17.8027248 26.4617819,19.4568523 26.4617819,21.497255 C26.4617819,23.5092685 27.8069497,25.141953 29.479802,25.187557 C29.6860772,25.1223221 29.8953725,25.0604094 30.1073859,25.0015168 L30.1073859,17.8658456 Z" id="Fill-38" fill="#C3C9D2" fill-rule="evenodd"></path>
                    <path d="M30.9497315,24.7878121 C31.9515101,24.1771409 32.6394966,22.9343557 32.6394966,21.4970738 C32.6394966,19.6846913 31.5471141,18.1797584 30.1074161,17.8659664 L30.1074161,25.0016376 C30.3840604,24.9246242 30.6652349,24.853047 30.9497315,24.7878121" id="Fill-40" fill="#434343" fill-rule="evenodd"></path>
                    <path d="M30.1073859,25.1286342 L30.1073859,25.0017886 C29.8953725,25.0603792 29.6860772,25.1222919 29.479802,25.1875268 C29.5036611,25.1881309 29.5266141,25.191453 29.5504732,25.191453 C29.7407416,25.191453 29.9261779,25.167896 30.1073859,25.1286342" id="Fill-42" fill="#434343" fill-rule="evenodd"></path>
                    <path d="M30.1073859,25.1286342 C30.4054732,25.0637013 30.6881577,24.9474262 30.9497013,24.7879631 C30.6652047,24.853198 30.3840302,24.9247752 30.1073859,25.0017886 L30.1073859,25.1286342 Z" id="Fill-44" fill="#434343" fill-rule="evenodd"></path>
                    <path d="M51.3385973,13.8438121 C51.3385973,13.8438121 53.2615168,12.7188121 53.9721544,13.1389128 C53.9721544,13.1389128 54.6260134,16.2825705 53.2077584,16.6223356 C53.2077584,16.6223356 50.6959128,16.1850201 50.814604,15.4305906 L51.3385973,13.8438121 Z" id="Fill-46" fill="#C3C9D2" fill-rule="evenodd"></path>
                    <path d="M32.0226946,16.0126309 C32.0226946,16.0126309 36.9959497,18.0225302 47.3015537,16.9476644 C47.3015537,16.9476644 52.7972919,15.9775973 49.4425268,10.4178322 C49.4425268,10.4178322 44.1536678,3.11454362 31.3754799,10.6950805 C31.3754799,10.6950805 29.1360503,12.1692081 32.0226946,16.0126309" id="Fill-50" fill="#FBB540" fill-rule="evenodd"></path>
                    <path d="M41.3113893,33.664349 L27.8177315,33.664349 C27.4544094,33.664349 27.1596443,33.3695839 27.1596443,33.0059597 L27.1596443,32.0367987 C27.1596443,31.6734765 27.4544094,31.3787114 27.8177315,31.3787114 L41.3113893,31.3787114 C41.6750134,31.3787114 41.9697785,31.6734765 41.9697785,32.0367987 L41.9697785,33.0059597 C41.9697785,33.3695839 41.6750134,33.664349 41.3113893,33.664349" id="Fill-56" fill="#C9C9C9" fill-rule="evenodd"></path>
                    <path d="M29.1954564,34.8291846 L10.9472013,34.8291846 C10.128745,34.8291846 9.46552349,34.1659631 9.46552349,33.3475067 L9.46552349,31.1663658 C9.46552349,30.3479094 10.128745,29.6846879 10.9472013,29.6846879 L29.1954564,29.6846879 C30.0136107,29.6846879 30.6768322,30.3479094 30.6768322,31.1663658 L30.6768322,33.3475067 C30.6768322,34.1659631 30.0136107,34.8291846 29.1954564,34.8291846" id="Fill-58" fill="#C3C9D2" fill-rule="evenodd"></path>
                    <path d="M27.5054799,13.3036611 L14.4660503,13.3036611 L14.4660503,14.0801376 C14.4660503,16.6599362 16.7701107,18.7513792 19.6126611,18.7513792 L30.1070235,18.7513792 L30.1070235,13.8478893 C29.3193725,13.5026879 28.4390034,13.3036611 27.5054799,13.3036611" id="Fill-60" fill="#C3C9D2" fill-rule="evenodd"></path>
                    <path d="M30.1071141,13.8477987 L30.1071141,18.7512886 L33.5077852,18.7512886 C33.5077852,16.5900805 32.1173154,14.7284698 30.1071141,13.8477987" id="Fill-62" fill="#434343" fill-rule="evenodd"></path>
                </g>
            </g>
        </g>
    </g>
</svg>