<svg xmlns="http://www.w3.org/2000/svg" xmlns:xlink="http://www.w3.org/1999/xlink" width="215" height="127" viewBox="0 0 215 127">
    <defs>
        <path id="85m9kn3xqa" d="M0.794 0.698L63.254 0.698 63.254 83.429 0.794 83.429z"/>
    </defs>
    <g fill="none" fill-rule="evenodd">
        <g>
            <g>
                <path stroke="#FFCB06" stroke-width="4" d="M144.062 107.915c6.68 9.886 17.992 16.387 30.822 16.387 20.527 0 37.169-16.642 37.169-37.17 0-6.37-1.602-12.365-4.426-17.606" transform="translate(-139 -225) translate(139 225)"/>
                <path fill="#858586" d="M151.3 12.177L159.758 12.177 153.874 18.305z" transform="translate(-139 -225) translate(139 225)"/>
                <path fill="#434343" d="M132.727 9.753l10.54-4.496c2.666-1.113 5.643.705 5.87 3.587l.394 4.986c.099 1.243-.137 2.488-.682 3.61l-6.657 13.672-9.465-21.359z" transform="translate(-139 -225) translate(139 225)"/>
                <path fill="#858586" d="M142.428 12.504s9.683-.735 11.643 0c0 0 9.683 11.52-.49 21.326h-8.212l-13.726-20.1 10.785-1.226z" transform="translate(-139 -225) translate(139 225)"/>
                <path fill="#434343" d="M175.554 108.333c-12.61.731-23.425-8.899-24.156-21.51-.73-12.61 8.898-23.425 21.509-24.156 12.61-.73 23.425 8.9 24.156 21.51.732 12.61-8.9 23.425-21.51 24.156m31.33-30.064c-4.003-18.02-21.856-29.382-39.876-25.379-18.019 4.004-29.382 21.856-25.378 39.876 4.003 18.02 21.856 29.382 39.876 25.379 18.02-4.004 29.382-21.856 25.379-39.876" transform="translate(-139 -225) translate(139 225)"/>
                <path fill="#C3C9D2" d="M63.275 90.836c-2.068 12.752-14.082 21.415-26.834 19.347-12.754-2.067-21.416-14.081-19.348-26.834 2.067-12.753 14.08-21.415 26.834-19.348C56.68 66.07 65.342 78.083 63.275 90.836m-23.07-37.144c-18.459 0-33.423 14.964-33.423 33.423 0 18.46 14.964 33.423 33.423 33.423 18.459 0 33.423-14.964 33.423-33.423 0-18.459-14.964-33.423-33.423-33.423" transform="translate(-139 -225) translate(139 225)"/>
                <path fill="#434343" d="M90.665 43.893L128.936 43.893 117.862 78.217 94.912 75.89z" transform="translate(-139 -225) translate(139 225)"/>
                <path fill="#BEBDC0" d="M119.152 82.457c0 5.668-4.595 10.262-10.262 10.262-5.668 0-10.263-4.594-10.263-10.262 0-4.8 3.295-8.83 7.746-9.951.806-.203 1.648-.311 2.517-.311 5.667 0 10.262 4.595 10.262 10.262" transform="translate(-139 -225) translate(139 225)"/>
                <path fill="#C3C9D2" d="M12.79 76.783c4.244-11.001 14.917-18.806 27.415-18.806 16.223 0 29.375 13.15 29.375 29.375 0 .187-.004.374-.007.56l2.162-.817 6.306 2.415c.04-.715.063-1.434.063-2.158 0-20.932-16.968-37.9-37.899-37.9-19.257 0-35.158 14.363-37.579 32.962 1.182.152 5.495.228 10.164-5.631" transform="translate(-139 -225) translate(139 225)"/>
                <path fill="#C3C9D2" d="M38.125 84.581L54.3 41.975 63.58 45.749 50.278 84.581z" transform="translate(-139 -225) translate(139 225)"/>
                <path fill="#C9C9C9" d="M187.147 59.327s8.094.994 9.607-4.114c-8.504-6.247-19.556-8.93-30.666-6.462-18.799 4.177-31.207 21.646-29.536 40.327 1.187-.108 5.414-.97 8.701-7.701 1.757-11.66 10.484-21.595 22.684-24.305 6.739-1.498 13.451-.548 19.21 2.256v-.001z" transform="translate(-139 -225) translate(139 225)"/>
                <path fill="#C9C9C9" d="M176.606 80.382l-36.61-60.735c-1.201.555-2.413 1.097-3.618 1.65-.98.451-1.954.916-2.908 1.42-.366.193-.724.396-1.083.6-.167.108-.334.218-.5.331-.21.145-.417.293-.622.445l36.966 61.326c1.228 2.038 3.87 2.704 5.918 1.492l.952-.563c2.072-1.226 2.746-3.904 1.505-5.966" transform="translate(-139 -225) translate(139 225)"/>
                <g transform="translate(-139 -225) translate(139 225) translate(111.577 .14)">
                    <mask id="nzbuwpkf7b" fill="#fff">
                        <use xlink:href="#85m9kn3xqa"/>
                    </mask>
                    <path fill="#C9C9C9" d="M54.256 81.332L13.835 14.274c-.476-.79-1.191-1.407-2.04-1.762L3.458 9.03C1.24 8.103.2 5.548 1.141 3.336 2.047 1.207 4.463.166 6.631.968l12.212 4.518c.923.341 1.7.986 2.208 1.827l41.58 68.982c1.243 2.061.566 4.74-1.505 5.965l-.951.564c-2.049 1.212-4.69.546-5.919-1.492z" mask="url(#nzbuwpkf7b)"/>
                </g>
                <path fill="#C3C9D2" d="M39.31 93.512H1.83C.819 93.512 0 92.693 0 91.683v-2.692c0-1.01.818-1.828 1.828-1.828H39.31c1.01 0 1.83.819 1.83 1.828v2.692c0 1.01-.82 1.83-1.83 1.83" transform="translate(-139 -225) translate(139 225)"/>
                <path fill="#C9C9C9" d="M137.586 49.071l-18.78 43.94c-.396.929-1.472 1.36-2.4.963l-2.475-1.058c-.929-.397-1.36-1.471-.963-2.4l18.78-43.94c.397-.928 1.471-1.36 2.4-.963l2.476 1.058c.928.397 1.36 1.472.962 2.4" transform="translate(-139 -225) translate(139 225)"/>
                <path fill="#C3C9D2" d="M52.901 55.513s-7.994 17.751 4.68 24.58c0 0 20.589-2.204 19.085-16.252 0 0-5.14-10.786-23.765-8.328" transform="translate(-139 -225) translate(139 225)"/>
                <path fill="#C3C9D2" d="M82.085 69.977c-.066 0-.13-.01-.196-.012-10.6 3.339-18.307 9.4-15.343 12.492 2.83 2.953 9.745 5.15 17.086 6.73V69.801c-.503.11-1.019.175-1.547.175" transform="translate(-139 -225) translate(139 225)"/>
                <path fill="#BEBDC0" d="M115.454 87.91l-.397-13.655c-7.536-7.254-19.078-7.697-29.086-5.4-.726.443-1.51.766-2.34.947v19.385c11.291 2.43 23.591 3.396 23.591 3.396l8.232-4.672z" transform="translate(-139 -225) translate(139 225)"/>
                <path fill="#C3C9D2" d="M83.632 49.627c-.504-.11-1.019-.175-1.547-.175-4.739 0-8.58 4.595-8.58 10.263 0 5.589 3.737 10.124 8.383 10.25.573-.18 1.155-.353 1.744-.516V49.627z" transform="translate(-139 -225) translate(139 225)"/>
                <path fill="#434343" d="M85.971 68.855c2.783-1.696 4.694-5.148 4.694-9.14 0-5.035-3.034-9.216-7.033-10.087v19.821c.768-.214 1.55-.413 2.34-.594M83.632 69.802v-.353c-.59.163-1.17.335-1.744.516.067.002.13.011.197.011.528 0 1.043-.065 1.547-.174" transform="translate(-139 -225) translate(139 225)"/>
                <path fill="#434343" d="M83.632 69.802c.828-.18 1.613-.504 2.34-.947-.79.182-1.572.38-2.34.594v.353z" transform="translate(-139 -225) translate(139 225)"/>
                <path fill="#C3C9D2" d="M142.607 38.455s5.342-3.125 7.316-1.958c0 0 1.816 8.732-2.124 9.676 0 0-6.977-1.215-6.647-3.31l1.455-4.408zM12.038 57.368s-7.32-3.125-10.024-1.958c0 0-2.488 8.733 2.91 9.676 0 0 9.56-1.214 9.108-3.31l-1.994-4.408z" transform="translate(-139 -225) translate(139 225)"/>
                <path fill="#FBB540" d="M88.952 44.48s13.815 5.583 42.441 2.597c0 0 15.266-2.695 5.947-18.139 0 0-14.69-20.286-50.186.77 0 0-6.22 4.095 1.798 14.772" transform="translate(-139 -225) translate(139 225)"/>
                <path fill="#C3C9D2" d="M44.27 34.22H22.97c-13.065.911-1.36 14.899-1.36 14.899 1.407.689 2.953 1.07 4.576 1.07h31.838c0-8.82-6.156-15.969-13.753-15.969M14.899 64.196H8.495c-1.392 0-2.522-1.129-2.522-2.522v-3.716c0-1.393 1.13-2.523 2.522-2.523H14.9c1.393 0 2.523 1.13 2.523 2.523v3.716c0 1.393-1.13 2.522-2.523 2.522" transform="translate(-139 -225) translate(139 225)"/>
                <path fill="#C9C9C9" d="M114.754 93.512H77.27c-1.009 0-1.828-.819-1.828-1.829v-2.692c0-1.01.82-1.828 1.828-1.828h37.483c1.01 0 1.829.819 1.829 1.828v2.692c0 1.01-.82 1.83-1.83 1.83" transform="translate(-139 -225) translate(139 225)"/>
                <path fill="#C3C9D2" d="M81.098 96.748h-50.69c-2.273 0-4.115-1.843-4.115-4.116v-6.059c0-2.273 1.842-4.116 4.116-4.116h50.69c2.272 0 4.114 1.843 4.114 4.116v6.059c0 2.273-1.842 4.116-4.115 4.116M76.404 36.955h-36.22v2.156c0 7.167 6.4 12.976 14.296 12.976h29.15v-13.62c-2.187-.96-4.633-1.512-7.226-1.512" transform="translate(-139 -225) translate(139 225)"/>
                <path fill="#434343" d="M83.63 38.466v13.62h9.447c0-6.002-3.862-11.174-9.446-13.62" transform="translate(-139 -225) translate(139 225)"/>
            </g>
        </g>
    </g>
</svg>
