<svg xmlns="http://www.w3.org/2000/svg" xmlns:xlink="http://www.w3.org/1999/xlink" width="205" height="127" viewBox="0 0 205 127">
    <defs>
        <path id="07b9d8x1oa" d="M0.783 0.689L62.416 0.689 62.416 82.324 0.783 82.324z"/>
    </defs>
    <g fill="none" fill-rule="evenodd">
        <g>
            <g>
                <path stroke="#FFCB06" stroke-width="4" d="M69.343 108.141c-6.59 9.756-17.752 16.17-30.412 16.17-20.257 0-36.677-16.42-36.677-36.677 0-6.285 1.58-12.202 4.367-17.373" transform="translate(-578 -225) translate(578 225)"/>
                <path fill="#C3C9D2" d="M149.297 12.015L157.641 12.015 151.836 18.063zM130.97 9.624l10.4-4.436c2.63-1.099 5.567.695 5.793 3.538l.388 4.921c.097 1.226-.136 2.455-.674 3.56l-6.57 13.493-9.338-21.076z" transform="translate(-578 -225) translate(578 225)"/>
                <path fill="#C3C9D2" d="M140.54 12.338s9.556-.725 11.491 0c0 0 9.554 11.368-.484 21.044h-8.103l-13.545-19.834 10.642-1.21zM173.23 106.898c-12.444.722-23.116-8.78-23.838-21.225-.72-12.443 8.782-23.115 21.225-23.836 12.442-.72 23.115 8.782 23.836 21.225.721 12.442-8.781 23.115-21.224 23.836m30.915-29.666c-3.95-17.78-21.567-28.992-39.349-25.042-17.78 3.95-28.992 21.566-25.042 39.348 3.95 17.78 21.567 28.992 39.348 25.042 17.78-3.95 28.992-21.567 25.043-39.348" transform="translate(-578 -225) translate(578 225)"/>
                <path fill="#434343" d="M62.436 89.633c-2.04 12.583-13.895 21.131-26.478 19.09-12.585-2.039-21.132-13.894-19.092-26.478 2.04-12.583 13.895-21.131 26.48-19.092 12.583 2.041 21.13 13.895 19.09 26.48M39.672 52.98c-18.214 0-32.98 14.766-32.98 32.98 0 18.215 14.766 32.98 32.98 32.98 18.215 0 32.981-14.765 32.981-32.98 0-18.214-14.766-32.98-32.98-32.98" transform="translate(-578 -225) translate(578 225)"/>
                <path fill="#C3C9D2" d="M89.464 43.312L127.228 43.312 116.302 77.181 93.654 74.885z" transform="translate(-578 -225) translate(578 225)"/>
                <path fill="#C3C9D2" d="M117.574 81.365c0 5.593-4.535 10.126-10.127 10.126-5.592 0-10.126-4.533-10.126-10.126 0-4.736 3.25-8.713 7.643-9.82.795-.2 1.626-.307 2.483-.307 5.592 0 10.127 4.534 10.127 10.127" transform="translate(-578 -225) translate(578 225)"/>
                <path fill="#C9C9C9" d="M12.62 75.766C16.81 64.91 27.34 57.209 39.673 57.209c16.01 0 28.986 12.976 28.986 28.986 0 .184-.003.369-.006.553l2.133-.807 6.223 2.384c.04-.706.062-1.415.062-2.13 0-20.654-16.744-37.398-37.398-37.398-19.001 0-34.693 14.173-37.08 32.525 1.166.15 5.421.225 10.029-5.556" transform="translate(-578 -225) translate(578 225)"/>
                <path fill="#C9C9C9" d="M37.62 83.461L53.581 41.419 62.738 45.143 49.612 83.461z" transform="translate(-578 -225) translate(578 225)"/>
                <path fill="#434343" d="M91.844 51.397H53.758c-7.79 0-14.107-5.732-14.107-12.803v-2.129h35.74c9.088 0 16.453 6.686 16.453 14.932" transform="translate(-578 -225) translate(578 225)"/>
                <path fill="#C3C9D2" d="M184.668 58.541s7.988.981 9.48-4.06c-8.392-6.163-19.297-8.811-30.26-6.376-18.55 4.122-30.794 21.36-29.145 39.793 1.171-.106 5.342-.956 8.586-7.6 1.734-11.505 10.345-21.308 22.384-23.982 6.65-1.478 13.272-.54 18.955 2.226z" transform="translate(-578 -225) translate(578 225)"/>
                <path fill="#C3C9D2" d="M174.266 79.317l-36.124-59.93c-1.186.548-2.38 1.082-3.57 1.629-.967.444-1.928.903-2.87 1.4-.361.19-.714.391-1.069.591-.165.108-.33.217-.493.328-.206.143-.41.29-.614.439l36.477 60.514c1.211 2.01 3.818 2.668 5.839 1.472l.94-.556c2.044-1.209 2.71-3.853 1.484-5.887" transform="translate(-578 -225) translate(578 225)"/>
                <g transform="translate(-578 -225) translate(578 225) translate(110.1 .14)">
                    <mask id="96rgk68nib" fill="#fff">
                        <use xlink:href="#07b9d8x1oa"/>
                    </mask>
                    <path fill="#C3C9D2" d="M53.538 80.255L13.65 14.085c-.468-.78-1.174-1.388-2.013-1.74L3.412 8.91C1.223 7.997.196 5.475 1.126 3.291 2.02 1.191 4.404.164 6.544.955l12.05 4.458c.91.337 1.677.973 2.178 1.804l41.03 68.067c1.226 2.035.559 4.678-1.485 5.887l-.94.556c-2.021 1.196-4.627.539-5.84-1.472" mask="url(#96rgk68nib)"/>
                </g>
                <path fill="#C9C9C9" d="M38.79 92.274H1.804C.807 92.274 0 91.466 0 90.469v-2.657c0-.995.807-1.803 1.804-1.803H38.79c.996 0 1.805.808 1.805 1.803v2.657c0 .997-.81 1.805-1.805 1.805" transform="translate(-578 -225) translate(578 225)"/>
                <path fill="#C3C9D2" d="M113.234 92.274H76.248c-.996 0-1.803-.808-1.803-1.805v-2.657c0-.995.807-1.803 1.803-1.803h36.986c.996 0 1.805.808 1.805 1.803v2.657c0 .997-.809 1.805-1.805 1.805" transform="translate(-578 -225) translate(578 225)"/>
                <path fill="#C3C9D2" d="M135.764 48.422l-18.531 43.357c-.392.917-1.452 1.342-2.369.95l-2.442-1.043c-.917-.392-1.342-1.452-.95-2.369l18.531-43.357c.392-.917 1.452-1.342 2.368-.95l2.443 1.043c.916.392 1.342 1.452.95 2.369" transform="translate(-578 -225) translate(578 225)"/>
                <path fill="#434343" d="M52.2 54.778s-7.888 17.515 4.62 24.253c0 0 20.315-2.174 18.831-16.036 0 0-5.071-10.643-23.45-8.217" transform="translate(-578 -225) translate(578 225)"/>
                <path fill="#BEBDC0" d="M80.997 69.05c-.065 0-.128-.01-.193-.012-10.459 3.295-18.063 9.277-15.14 12.327 2.794 2.913 9.616 5.081 16.86 6.64V68.878c-.496.107-1.004.172-1.527.172" transform="translate(-578 -225) translate(578 225)"/>
                <path fill="#C3C9D2" d="M113.925 86.746l-.393-13.475c-7.434-7.157-18.825-7.595-28.7-5.328-.717.437-1.49.756-2.309.934v19.128c11.142 2.398 23.278 3.351 23.278 3.351l8.124-4.61z" transform="translate(-578 -225) translate(578 225)"/>
                <path fill="#434343" d="M82.524 48.97c-.496-.108-1.005-.173-1.527-.173-4.675 0-8.466 4.534-8.466 10.127 0 5.515 3.688 9.99 8.273 10.115.565-.18 1.14-.349 1.72-.51V48.97z" transform="translate(-578 -225) translate(578 225)"/>
                <path fill="#C3C9D2" d="M84.833 67.943c2.746-1.674 4.631-5.08 4.631-9.02 0-4.967-2.994-9.092-6.94-9.953v19.56c.759-.212 1.529-.408 2.31-.587" transform="translate(-578 -225) translate(578 225)"/>
                <path fill="#434343" d="M82.524 68.877v-.347c-.58.16-1.155.33-1.72.509.065.001.128.01.193.01.522 0 1.03-.064 1.527-.172M82.524 68.877c.817-.178 1.591-.496 2.31-.934-.781.18-1.551.375-2.31.587v.347z" transform="translate(-578 -225) translate(578 225)"/>
                <path fill="#C3C9D2" d="M140.719 37.946s5.27-3.084 7.218-1.932c0 0 1.792 8.616-2.096 9.548 0 0-6.885-1.199-6.558-3.267l1.436-4.35z" transform="translate(-578 -225) translate(578 225)"/>
                <path fill="#434343" d="M11.878 56.608s-7.222-3.083-9.89-1.932c0 0-2.455 8.617 2.87 9.548 0 0 9.434-1.198 8.989-3.266l-1.969-4.35z" transform="translate(-578 -225) translate(578 225)"/>
                <path fill="#FCE0B9" d="M87.774 43.89s13.632 5.51 41.879 2.563c0 0 15.063-2.659 5.868-17.898 0 0-14.497-20.018-49.522.76 0 0-6.138 4.04 1.775 14.575" transform="translate(-578 -225) translate(578 225)"/>
                <path fill="#434343" d="M43.683 33.767H22.665c-12.893.9-1.343 14.701-1.343 14.701 1.389.68 2.914 1.056 4.515 1.056h31.418c0-8.702-6.076-15.757-13.572-15.757M14.702 63.346H8.383c-1.375 0-2.49-1.115-2.49-2.49V57.19c0-1.375 1.115-2.489 2.49-2.489h6.319c1.375 0 2.49 1.114 2.49 2.49v3.666c0 1.374-1.115 2.489-2.49 2.489" transform="translate(-578 -225) translate(578 225)"/>
                <path fill="#C9C9C9" d="M80.024 95.466H30.006c-2.243 0-4.062-1.818-4.062-4.061v-5.978c0-2.244 1.82-4.062 4.062-4.062h50.018c2.243 0 4.061 1.818 4.061 4.062v5.978c0 2.243-1.818 4.061-4.061 4.061" transform="translate(-578 -225) translate(578 225)"/>
            </g>
        </g>
    </g>
</svg>
