<svg id="Layer_1" data-name="Layer 1" xmlns="http://www.w3.org/2000/svg" xmlns:xlink="http://www.w3.org/1999/xlink" viewBox="0 0 192 172"><defs><style>.cls-1,.cls-4{fill:#c8d2d9;}.cls-1,.cls-3{clip-rule:evenodd;}.cls-2,.cls-3{fill:none;}.cls-4{fill-rule:evenodd;}.cls-5{clip-path:url(#clip-path);}.cls-6{clip-path:url(#clip-path-2);}.cls-7{fill:#c5d1d9;}.cls-8{clip-path:url(#clip-path-3);}.cls-9{clip-path:url(#clip-path-4);}.cls-10{fill:#545a60;}.cls-11{clip-path:url(#clip-path-5);}.cls-12{clip-path:url(#clip-path-6);}</style><clipPath id="clip-path"><path class="cls-1" d="M130.11,167.69c13.78-2.2,4.07-7-17.54-8.68s-51.95,1.16-56.81,4.7S116.33,169.9,130.11,167.69Z"/></clipPath><clipPath id="clip-path-2"><rect class="cls-2" x="-243.5" y="-214.5" width="1366" height="600"/></clipPath><clipPath id="clip-path-3"><path class="cls-2" d="M121.24,139.77V150.5c4.28,0,7.76-4.11,7.76-9.19v-4.39A46.54,46.54,0,0,1,121.24,139.77Zm0-13.78v9.21a43.62,43.62,0,0,0,7.76-3.1v-9A47.45,47.45,0,0,1,121.24,126Zm0-13.78v9.21a43.62,43.62,0,0,0,7.76-3.1v-9A46.58,46.58,0,0,1,121.24,112.21ZM128.15,8.5a7.74,7.74,0,0,0-6.91-5v7.67A44.24,44.24,0,0,0,128.15,8.5ZM129,21.85v-9a45.71,45.71,0,0,1-7.76,2.86V25A43.62,43.62,0,0,0,129,21.85Zm0,13.78v-9a45.67,45.67,0,0,1-7.76,2.85v9.21A43.62,43.62,0,0,0,129,35.63Zm-7.76,62.8v9.21a43.62,43.62,0,0,0,7.76-3.1v-9A46.58,46.58,0,0,1,121.24,98.43Zm0-13.78v9.21a43.62,43.62,0,0,0,7.76-3.1v-9A46.58,46.58,0,0,1,121.24,84.65Zm0-13.78v9.21A42.92,42.92,0,0,0,129,77V68A46.58,46.58,0,0,1,121.24,70.87Zm0-13.79V66.3A43.66,43.66,0,0,0,129,63.19v-9A45.67,45.67,0,0,1,121.24,57.08Zm0-9.36v4.8A43.66,43.66,0,0,0,129,49.41v-9a45.67,45.67,0,0,1-7.76,2.85ZM101.82,51V41.76a45.15,45.15,0,0,1,15.53,8.15v8.51A47.59,47.59,0,0,0,101.82,51Zm0,13.78a47.79,47.79,0,0,1,15.53,7.44V63.69a45,45,0,0,0-15.53-8.14Zm0,13.78V69.33a44.81,44.81,0,0,1,15.53,8.15V86A47.79,47.79,0,0,0,101.82,78.54Zm0,13.78a48,48,0,0,1,15.53,7.44v-8.5a44.81,44.81,0,0,0-15.53-8.15Zm0,13.78V96.89A45,45,0,0,1,117.35,105v8.5A48,48,0,0,0,101.82,106.1Zm0,13.78a47.81,47.81,0,0,1,15.53,7.45v-8.51a45.15,45.15,0,0,0-15.53-8.15Zm0,13.79v-9.22a45.15,45.15,0,0,1,15.53,8.15v8.51A47.59,47.59,0,0,0,101.82,133.67Zm0,16.83h7.72a47.39,47.39,0,0,0,7.2-4.59,45,45,0,0,0-14.92-7.68Zm0-140.87a47.81,47.81,0,0,1,15.53,7.45V3.5H101.82Zm0,13.79V14.2a45.15,45.15,0,0,1,15.53,8.15v8.51A47.59,47.59,0,0,0,101.82,23.42ZM74.65,150.5H82a49.38,49.38,0,0,1-7.35-4.39ZM70.76,9.63V3.5C66.48,3.5,63,7.61,63,12.69v-.2A46.58,46.58,0,0,1,70.76,9.63Zm0,13.79V14.2A43.66,43.66,0,0,0,63,17.31v9A45.67,45.67,0,0,1,70.76,23.42ZM63,141.31c0,5.08,3.48,9.19,7.76,9.19V138.23A43.66,43.66,0,0,0,63,141.34Zm0-13.75v9a45.67,45.67,0,0,1,7.76-2.85v-9.22A43.66,43.66,0,0,0,63,127.56Zm0-13.78v9a46.58,46.58,0,0,1,7.76-2.86v-9.21A42.92,42.92,0,0,0,63,113.78ZM63,100v9a46.58,46.58,0,0,1,7.76-2.86V96.89A43.62,43.62,0,0,0,63,100ZM70.76,37.2V28A43.66,43.66,0,0,0,63,31.09v9A45.67,45.67,0,0,1,70.76,37.2Zm0,13.78V41.77A43.62,43.62,0,0,0,63,44.87v9A46.54,46.54,0,0,1,70.76,51ZM63,86.21v9a46.58,46.58,0,0,1,7.76-2.86V83.11A43.62,43.62,0,0,0,63,86.21Zm0-13.78v9a46.58,46.58,0,0,1,7.76-2.86V69.33A43.62,43.62,0,0,0,63,72.43Zm7.76-12.09V55.55A43.62,43.62,0,0,0,63,58.65v9a46.54,46.54,0,0,1,7.76-2.85Zm19.42-3.26V66.3a45.15,45.15,0,0,1-15.53-8.15V49.64A47.59,47.59,0,0,0,90.18,57.08Zm0-13.78v9.22a45.15,45.15,0,0,1-15.53-8.15V35.86A47.59,47.59,0,0,0,90.18,43.3Zm0-13.78a47.59,47.59,0,0,1-15.53-7.44v8.51a45.15,45.15,0,0,0,15.53,8.15Zm0-13.78V25A44.81,44.81,0,0,1,74.65,16.8V8.3A47.79,47.79,0,0,0,90.18,15.74Zm0-12.24H75.25a44.81,44.81,0,0,0,14.93,7.67Zm0,136.27V149a45.15,45.15,0,0,1-15.53-8.15v-8.51A47.59,47.59,0,0,0,90.18,139.77Zm0-13.78a47.79,47.79,0,0,1-15.53-7.44v8.51a45,45,0,0,0,15.53,8.14Zm0-13.78v9.21a44.81,44.81,0,0,1-15.53-8.15v-8.5A47.79,47.79,0,0,0,90.18,112.21Zm0-13.78A48,48,0,0,1,74.65,91v8.5a44.81,44.81,0,0,0,15.53,8.15Zm0-13.78v9.21a45.15,45.15,0,0,1-15.53-8.15V77.2A47.81,47.81,0,0,0,90.18,84.65ZM94.06,81V150.5h3.88V3.5H94.06V81ZM90.18,70.87a47.81,47.81,0,0,1-15.53-7.45v8.51a45.15,45.15,0,0,0,15.53,8.15ZM101.82,37.2a47.59,47.59,0,0,1,15.53,7.44V36.13A45.15,45.15,0,0,0,101.82,28Z"/></clipPath><clipPath id="clip-path-4"><rect class="cls-2" x="-243" y="-214.5" width="1366" height="600"/></clipPath><clipPath id="clip-path-5"><path class="cls-3" d="M342.79,164c8-2.21,2.36-7-10.17-8.69s-30.15,1.16-33,4.71S334.79,166.2,342.79,164Z"/></clipPath><clipPath id="clip-path-6"><path class="cls-3" d="M342,131.34c-3.3,1.7-7.63,5.76-11.83,15.16h5a11,11,0,0,0,11-11v-5.37a10,10,0,0,0-4.12,1.17"/></clipPath></defs><title>sporty-tyre (1)</title><path class="cls-4" d="M130.11,167.69c13.78-2.2,4.07-7-17.54-8.68s-51.95,1.16-56.81,4.7S116.33,169.9,130.11,167.69Z"/><g class="cls-5"><g class="cls-6"><rect class="cls-7" x="50.5" y="153.5" width="91" height="20"/></g></g><g class="cls-8"><g class="cls-9"><rect class="cls-10" x="58" y="-1.5" width="76" height="157"/></g></g></svg>