<?xml version="1.0" encoding="UTF-8"?>
<svg width="80px" height="80px" viewBox="0 0 80 80" version="1.1" xmlns="http://www.w3.org/2000/svg" xmlns:xlink="http://www.w3.org/1999/xlink">
    <title>blocky</title>
    <defs>
        <rect id="path-1" x="0" y="0" width="80" height="80"></rect>
    </defs>
    <g id="Desktop" stroke="none" stroke-width="1" fill="none" fill-rule="evenodd">
        <g id="blocky">
            <mask id="mask-2" fill="white">
                <use xlink:href="#path-1"></use>
            </mask>
            <g id="Mask"></g>
            <path d="M16,46.6382275 C19.9416667,47.7149949 23.645,49.5463823 27,52 L27,51.6579939 L27,48.416659 L27,45.8714719 C23.6954167,43.1883791 19.9838333,41.1782661 16,40 L16,46.6382275 L16,46.6382275 Z M7,71.3617725 C3.05833333,70.2850051 -0.645,68.4536177 -4,66 L-4,66.3420061 L-4,69.583341 L-4,72.1285281 C-0.695416667,74.8116209 3.01616667,76.8217339 7,78 L7,71.3617725 L7,71.3617725 Z M10,78.3645312 L10,81.5779687 L10,88.2082812 L10,91.4217187 L10,98.0520312 L10,101.265469 L10,107.895781 L10,111.109219 L10,117.739531 L10,120.952969 L10,127.583281 L10,128 L13,128 L13,118.572969 L13,115.359531 L13,108.729219 L13,105.515781 L13,98.8854688 L13,95.6720313 L13,89.0417188 L13,85.8282813 L13,79.1979688 L13,75.9845313 L13,69.3542188 L13,66.1407813 L13,59.5104688 L13,56.2970313 L13,49.6667188 L13,46.4532813 L13,39.8229688 L13,36.6095313 L13,29.9792188 L13,26.7657812 L13,23 L10,23 L10,29.1457812 L10,32.3592187 L10,38.9895312 L10,42.2029687 L10,48.8332812 L10,52.0467187 L10,58.6770312 L10,61.8904688 L10,68.5207812 L10,71.7342187 L10,78.3645312 L10,78.3645312 Z M7,81.3628758 L7,88 C3.01616667,86.8217339 -0.695416667,84.8116209 -4,82.1285281 L-4,79.583341 L-4,76.3420061 L-4,76 C-0.645,78.454721 3.05833333,80.2861083 7,81.3628758 L7,81.3628758 Z M7,90.3617725 C3.05833333,89.2850051 -0.645,87.4536177 -4,85 L-4,85.3420061 L-4,88.583341 L-4,91.1285281 C-0.695416667,93.8116209 3.01616667,95.8217339 7,97 L7,90.3617725 L7,90.3617725 Z M7,100.361773 L7,107 C3.01616667,105.821734 -0.695416667,103.810518 -4,101.128528 L-4,98.583341 L-4,95.3420061 L-4,95 C-0.645,97.4536177 3.05833333,99.2850051 7,100.361773 L7,100.361773 Z M7,110.361773 C3.05833333,109.285005 -0.645,107.453618 -4,105 L-4,105.342006 L-4,108.583341 L-4,111.128528 C-0.695416667,113.811621 3.01616667,115.821734 7,117 L7,110.361773 L7,110.361773 Z M7,120.361773 L7,127 C3.01616667,125.821734 -0.695416667,123.810518 -4,121.128528 L-4,118.583341 L-4,115.342006 L-4,115 C-0.645,117.453618 3.05833333,119.285005 7,120.361773 L7,120.361773 Z M8,23 L-3,23 C0.325470471,25.2710038 4.03252103,26.9802435 8,28 L8,23 L8,23 Z M7,31.3623828 L7,38 C3.01616667,36.8218423 -0.695416667,34.8108108 -4,32.1290678 L-4,29.5830116 L-4,26.3419746 L-4,26 C-0.645,28.4544953 3.05833333,30.2857143 7,31.3623828 L7,31.3623828 Z M7,41.3617725 C3.05833333,40.2850051 -0.645,38.4536177 -4,36 L-4,36.3420061 L-4,39.583341 L-4,42.1285281 C-0.695416667,44.8116209 3.01616667,46.8217339 7,48 L7,41.3617725 L7,41.3617725 Z M7,51.3617725 L7,58 C3.01616667,56.8217339 -0.695416667,54.8116209 -4,52.1285281 L-4,49.583341 L-4,46.3420061 L-4,46 C-0.645,48.4536177 3.05833333,50.2850051 7,51.3617725 L7,51.3617725 Z M7,61.3617725 L7,68 C3.01616667,66.8217339 -0.695416667,64.8105176 -4,62.1285281 L-4,59.583341 L-4,56.3420061 L-4,56 C-0.645,58.4536177 3.05833333,60.2850051 7,61.3617725 L7,61.3617725 Z M-6,63.5778455 L-6,60 C-8.073,60.5812714 -10.078,61.3589646 -12,62.3148078 L-12,69 C-10.069,68.119528 -8.064,67.4046441 -6,66.8701941 L-6,63.5778455 L-6,63.5778455 Z M-12,72.3148078 L-12,79 C-10.069,78.119528 -8.064,77.4046441 -6,76.8701941 L-6,73.5778455 L-6,70 C-8.073,70.5812714 -10.078,71.3589646 -12,72.3148078 L-12,72.3148078 Z M-12,82.3148078 L-12,89 C-10.069,88.119528 -8.064,87.4046441 -6,86.8701941 L-6,83.5778455 L-6,80 C-8.073,80.5812714 -10.078,81.3589646 -12,82.3148078 L-12,82.3148078 Z M-6,56.8701941 L-6,53.5778455 L-6,50 C-8.073,50.5812714 -10.078,51.3589646 -12,52.3148078 L-12,59 C-10.069,58.12067 -8.064,57.4057861 -6,56.8701941 L-6,56.8701941 Z M-6,46.8693225 L-6,43.5773915 L-6,40 C-8.073,40.5811977 -10.078,41.3587922 -12,42.3145141 L-12,49 C-10.069,48.1196397 -8.064,47.4037046 -6,46.8693225 L-6,46.8693225 Z M-12,92.3148078 L-12,99 C-10.069,98.119528 -8.064,97.4046441 -6,96.8701941 L-6,93.5778455 L-6,90 C-8.073,90.5812714 -10.078,91.3589646 -12,92.3148078 L-12,92.3148078 Z M-12,101.314808 L-12,108 C-10.069,107.119528 -8.064,106.404644 -6,105.870194 L-6,102.577845 L-6,99 C-8.073,99.5812714 -10.078,100.358965 -12,101.314808 L-12,101.314808 Z M-12,111.314808 L-12,118 C-10.069,117.119528 -8.064,116.404644 -6,115.870194 L-6,112.577845 L-6,109 C-8.073,109.581271 -10.078,110.358965 -12,111.314808 L-12,111.314808 Z M-12,121.259269 C-12,124.981276 -9.312,128 -6,128 L-6,122.520909 L-6,119 C-8.073,119.571839 -10.078,120.336912 -12,121.277244 L-12,121.259269 L-12,121.259269 Z M-6,36.8701941 L-6,33.5778455 L-6,30 C-8.073,30.5812714 -10.078,31.3589646 -12,32.3148078 L-12,39 C-10.069,38.12067 -8.064,37.4046441 -6,36.8701941 L-6,36.8701941 Z M-6,27.6736667 L-6,24.3101667 L-6,23 C-9.313,23 -12,26.1348333 -12,30 L-11.998,29.8495 C-10.067,28.95 -8.064,28.2196667 -6,27.6736667 L-6,27.6736667 Z M-4,128 L1,128 C-0.739704329,127.153175 -2.41077086,126.14829 -4,125 L-4,128 L-4,128 Z M16,37.6382275 L16,31 C19.9838333,32.1782661 23.6954167,34.1883791 27,36.8714719 L27,39.416659 L27,42.6579939 L27,43 C23.645,40.5463823 19.9416667,38.7149949 16,37.6382275 L16,37.6382275 Z M16,27.5183848 C19.9416667,28.6192195 23.645,30.4915407 27,33 L27,32.6503497 L27,29.3376946 L27,23 L16,23 L16,27.5183848 L16,27.5183848 Z M15,128 L20.6860364,128 C22.5444926,127.049438 24.320902,125.919101 26,124.629213 C22.6751951,122.07191 18.966869,120.148315 15,119 L15,128 L15,128 Z M16,115.638227 L16,109 C19.9838333,110.178266 23.6954167,112.189482 27,114.871472 L27,117.416659 L27,120.657994 L27,121 C23.645,118.546382 19.9416667,116.714995 16,115.638227 L16,115.638227 Z M16,105.638227 C19.9416667,106.714995 23.645,108.546382 27,111 L27,110.657994 L27,107.416659 L27,104.871472 C23.6954167,102.188379 19.9838333,100.178266 16,99 L16,105.638227 L16,105.638227 Z M16,96.6382275 L16,90 C19.9838333,91.1782661 23.6954167,93.1894824 27,95.8714719 L27,98.416659 L27,101.657994 L27,102 C23.645,99.5463823 19.9416667,97.7149949 16,96.6382275 L16,96.6382275 Z M16,86.6382275 C19.9416667,87.7149949 23.645,89.5463823 27,92 L27,91.6579939 L27,88.416659 L27,85.8714719 C23.6954167,83.1883791 19.9838333,81.1782661 16,80 L16,86.6382275 L16,86.6382275 Z M16,76.6382275 L16,70 C19.9838333,71.1782661 23.6954167,73.1894824 27,75.8714719 L27,78.416659 L27,81.6579939 L27,82 C23.645,79.5463823 19.9416667,77.7149949 16,76.6382275 L16,76.6382275 Z M16,66.6382275 C19.9416667,67.7149949 23.645,69.5463823 27,72 L27,71.6579939 L27,68.416659 L27,65.8714719 C23.6954167,63.1883791 19.9838333,61.1782661 16,60 L16,66.6382275 L16,66.6382275 Z M16,56.6382275 L16,50 C19.9838333,51.1782661 23.6954167,53.1894824 27,55.8714719 L27,58.416659 L27,61.6579939 L27,62 C23.645,59.5463823 19.9416667,57.7149949 16,56.6382275 L16,56.6382275 Z M29,54.4221545 L29,58 C31.073,57.4187286 33.078,56.6410354 35,55.6851922 L35,49 C33.069,49.880472 31.064,50.5953559 29,51.1298059 L29,54.4221545 L29,54.4221545 Z M29,61.1298059 L29,64.4221545 L29,68 C31.073,67.4187286 33.078,66.6410354 35,65.6851922 L35,59 C33.069,59.87933 31.064,60.5942139 29,61.1298059 L29,61.1298059 Z M29,71.1306775 L29,74.4226085 L29,78 C31.073,77.4188023 33.078,76.6412078 35,75.6854859 L35,69 C33.069,69.8803603 31.064,70.5962954 29,71.1306775 L29,71.1306775 Z M29,81.1298059 L29,84.4221545 L29,88 C31.073,87.4187286 33.078,86.6410354 35,85.6851922 L35,79 C33.069,79.87933 31.064,80.5942139 29,81.1298059 L29,81.1298059 Z M29,91.1298059 L29,94.4221545 L29,98 C31.073,97.4187286 33.078,96.6410354 35,95.6851922 L35,89 C33.069,89.87933 31.064,90.5942139 29,91.1298059 L29,91.1298059 Z M35,45.6851922 L35,39 C33.069,39.880472 31.064,40.5953559 29,41.1298059 L29,44.4221545 L29,48 C31.073,47.4187286 33.078,46.6410354 35,45.6851922 L35,45.6851922 Z M35,36.6851922 L35,30 C33.069,30.880472 31.064,31.5953559 29,32.1298059 L29,35.4221545 L29,39 C31.073,38.4187286 33.078,37.6410354 35,36.6851922 L35,36.6851922 Z M34,26.2558372 C33.0683521,24.3220914 31.1797753,23 29,23 L29,28 C30.7200375,27.5489922 32.3895131,26.9642786 34,26.2558372 L34,26.2558372 Z M29,100.129806 L29,103.422155 L29,107 C31.073,106.418729 33.078,105.641035 35,104.685192 L35,98 C33.069,98.87933 31.064,99.5953559 29,100.129806 L29,100.129806 Z M29,110.129806 L29,113.422155 L29,117 C31.073,116.418729 33.078,115.641035 35,114.685192 L35,108 C33.069,108.87933 31.064,109.594214 29,110.129806 L29,110.129806 Z M29,120.102356 L29,121.732386 L29,123.352271 L29,125.884117 L29,127.504002 L29,128 C32.312,128 35,124.971029 35,121.236388 L35,118 C33.069,118.867997 31.064,119.573667 29,120.102356 Z" id="Shape" fill="#555A5F" fill-rule="nonzero" mask="url(#mask-2)"></path>
        </g>
    </g>
</svg>