<?xml version="1.0" encoding="UTF-8"?>
<svg width="68px" height="51px" viewBox="0 0 68 51" version="1.1" xmlns="http://www.w3.org/2000/svg" xmlns:xlink="http://www.w3.org/1999/xlink">
    <title>Group 29</title>
    <defs>
        <linearGradient x1="44.7476946%" y1="78.6293605%" x2="55.2522521%" y2="21.3703488%" id="linearGradient-1">
            <stop stop-color="#A6A6B9" offset="1.5%"></stop>
            <stop stop-color="#CACAD5" offset="100%"></stop>
        </linearGradient>
        <linearGradient x1="4.3785%" y1="89.7881046%" x2="95.62125%" y2="10.2116774%" id="linearGradient-2">
            <stop stop-color="#CACAD5" offset="1.5%"></stop>
            <stop stop-color="#DCDCE3" offset="100%"></stop>
        </linearGradient>
    </defs>
    <g id="Desktop" stroke="none" stroke-width="1" fill="none" fill-rule="evenodd">
        <g id="02-Support-Desktop" transform="translate(-706.000000, -3089.000000)" fill-rule="nonzero">
            <g id="Group-29" transform="translate(706.000000, 3089.000000)">
                <g id="calendar">
                    <path d="M21.1233541,7.29017897 C20.3797572,7.29017897 19.7769528,6.68313489 19.7769528,5.93430805 C19.7749742,4.18787144 18.3695889,2.77260175 16.6353496,2.77060924 C15.8917527,2.77060924 15.2889483,2.16356515 15.2889483,1.41473832 C15.2889483,0.665911484 15.8917527,0.0588673958 16.6353496,0.0588673958 C19.8560907,0.0625411509 22.4661074,2.69091472 22.4697555,5.93430805 C22.4697555,6.68313489 21.8669511,7.29017897 21.1233541,7.29017897 L21.1233541,7.29017897 Z" id="Path" fill="#9595AC"></path>
                    <path d="M34.5873676,7.29017897 C33.8437707,7.29017897 33.2409662,6.68313489 33.2409662,5.93430805 C33.2389876,4.18787144 31.8336024,2.77260175 30.0993631,2.77060924 C29.3557662,2.77060924 28.7529618,2.16356515 28.7529618,1.41473832 C28.7529618,0.665911484 29.3557662,0.0588673958 30.0993631,0.0588673958 C33.3201042,0.0625411509 35.9301208,2.69091472 35.9337689,5.93430805 C35.9337689,6.68313489 35.3309645,7.29017897 34.5873676,7.29017897 Z" id="Path" fill="#9595AC"></path>
                    <path d="M48.0513811,7.29017897 C47.3077841,7.29017897 46.7049797,6.68313489 46.7049797,5.93430805 C46.7030011,4.18787144 45.2976158,2.77260175 43.5633766,2.77060924 C42.8197796,2.77060924 42.2169752,2.16356515 42.2169752,1.41473832 C42.2169752,0.665911484 42.8197796,0.0588673958 43.5633766,0.0588673958 C46.7841176,0.0625411509 49.3941343,2.69091472 49.3977824,5.93430805 C49.3977824,6.68313489 48.794978,7.29017897 48.0513811,7.29017897 L48.0513811,7.29017897 Z" id="Path" fill="#9595AC"></path>
                    <rect id="Rectangle" fill="url(#linearGradient-1)" x="49.3977824" y="5.93442104" width="7.18080718" height="38.8682997" rx="3.59040359"></rect>
                    <rect id="Rectangle" fill="url(#linearGradient-2)" x="7.21054021" y="5.93442104" width="44.8800449" height="38.8682997" rx="12"></rect>
                    <path d="M51.8027918,6.4516858 C51.5475107,6.12486425 51.1574295,5.93408201 50.7445203,5.93408201 L8.55727816,5.93408201 C7.93535748,5.93408201 7.39422676,6.36266802 7.24812725,6.97143632 L0.0673200673,36.8005966 C-0.0299540708,37.2047048 0.0622809355,37.6314167 0.317549395,37.9582462 C0.572817854,38.2850756 0.962890221,38.4758881 1.37579778,38.4758881 L43.56304,38.4758881 C44.1844457,38.4758881 44.7251248,38.047601 44.8715177,37.4394378 L52.0523249,7.6102775 C52.1500964,7.20598102 52.0581053,6.77886271 51.8027918,6.4516858 L51.8027918,6.4516858 Z" id="Path" fill="#FFFFFF"></path>
                    <path d="M52.0526615,7.60971256 C52.1499356,7.20560429 52.0577006,6.77889245 51.8024321,6.45206298 C51.5471637,6.1252335 51.1570913,5.93442104 50.7441837,5.93442104 L8.55694156,5.93442104 C7.93524543,5.93442104 7.39432945,6.3629257 7.24812725,6.97143632 L5.21281721,15.4260824 L50.1714022,15.4260824 L52.0526615,7.60971256 Z" id="Path" fill="#C1DAF6"></path>
                    <g id="Group" transform="translate(6.732007, 19.886107)" fill="#9595AC">
                        <path d="M25.6113586,2.77060924 L22.020955,2.77060924 C21.2773581,2.77060924 20.6745537,2.16356515 20.6745537,1.41473832 C20.6745537,0.665911484 21.2773581,0.0588673958 22.020955,0.0588673958 L25.6113586,0.0588673958 C26.3549555,0.0588673958 26.95776,0.665911484 26.95776,1.41473832 C26.95776,2.16356515 26.3549555,2.77060924 25.6113586,2.77060924 Z" id="Path"></path>
                        <path d="M16.6353496,2.77060924 L13.044946,2.77060924 C12.3013491,2.77060924 11.6985447,2.16356515 11.6985447,1.41473832 C11.6985447,0.665911484 12.3013491,0.0588673958 13.044946,0.0588673958 L16.6353496,0.0588673958 C17.3789466,0.0588673958 17.981751,0.665911484 17.981751,1.41473832 C17.981751,2.16356515 17.3789466,2.77060924 16.6353496,2.77060924 Z" id="Path"></path>
                        <path d="M7.65934066,2.77060924 L4.06893707,2.77060924 C3.32534014,2.77060924 2.72253572,2.16356515 2.72253572,1.41473832 C2.72253572,0.665911484 3.32534014,0.0588673958 4.06893707,0.0588673958 L7.65934066,0.0588673958 C8.40293759,0.0588673958 9.00574201,0.665911484 9.00574201,1.41473832 C9.00574201,2.16356515 8.40293759,2.77060924 7.65934066,2.77060924 Z" id="Path"></path>
                        <path d="M34.5873676,2.77060924 L30.996964,2.77060924 C30.2533671,2.77060924 29.6505627,2.16356515 29.6505627,1.41473832 C29.6505627,0.665911484 30.2533671,0.0588673958 30.996964,0.0588673958 L34.5873676,0.0588673958 C35.3309645,0.0588673958 35.9337689,0.665911484 35.9337689,1.41473832 C35.9337689,2.16356515 35.3309645,2.77060924 34.5873676,2.77060924 Z" id="Path"></path>
                        <path d="M23.8161568,8.19409292 L20.2257532,8.19409292 C19.4821563,8.19409292 18.8793519,7.58704883 18.8793519,6.838222 C18.8793519,6.08939517 19.4821563,5.48235108 20.2257532,5.48235108 L23.8161568,5.48235108 C24.5597537,5.48235108 25.1625581,6.0893952 25.1625581,6.838222 C25.1625581,7.5870488 24.5597537,8.19409292 23.8161568,8.19409292 L23.8161568,8.19409292 Z" id="Path"></path>
                        <path d="M14.8401478,8.19409292 L11.2497442,8.19409292 C10.5061473,8.19409292 9.9033429,7.58704883 9.9033429,6.838222 C9.9033429,6.08939517 10.5061473,5.48235108 11.2497442,5.48235108 L14.8401478,5.48235108 C15.5837447,5.48235108 16.1865491,6.0893952 16.1865491,6.838222 C16.1865491,7.5870488 15.5837447,8.19409292 14.8401478,8.19409292 L14.8401478,8.19409292 Z" id="Path"></path>
                        <path d="M2.27373527,8.19409292 C1.53013834,8.19409292 0.927333927,7.58704883 0.927333927,6.838222 C0.927333927,6.08939517 1.53013834,5.48235108 2.27373527,5.48235108 L5.86413886,5.48235108 C6.60773576,5.48235108 7.21054013,6.0893952 7.21054013,6.838222 C7.21054013,7.5870488 6.60773576,8.19409292 5.86413886,8.19409292 L2.27373527,8.19409292 Z" id="Path"></path>
                        <path d="M32.7921658,8.19409292 L29.2017622,8.19409292 C28.4581653,8.19409292 27.8553609,7.58704883 27.8553609,6.838222 C27.8553609,6.08939517 28.4581653,5.48235108 29.2017622,5.48235108 L32.7921658,5.48235108 C33.5357627,5.48235108 34.1385671,6.0893952 34.1385671,6.838222 C34.1385671,7.5870488 33.5357627,8.19409292 32.7921658,8.19409292 L32.7921658,8.19409292 Z" id="Path"></path>
                        <path d="M22.9185559,13.6175766 L19.3281523,13.6175766 C18.5845554,13.6175766 17.981751,13.0105325 17.981751,12.2617057 C17.981751,11.5128789 18.5845554,10.9058348 19.3281523,10.9058348 L22.9185559,10.9058348 C23.6621528,10.9058348 24.2649573,11.5128789 24.2649573,12.2617057 C24.2649573,13.0105325 23.6621528,13.6175766 22.9185559,13.6175766 L22.9185559,13.6175766 Z" id="Path"></path>
                        <path d="M13.9425469,13.6175766 L10.3521434,13.6175766 C9.60854642,13.6175766 9.00574201,13.0105325 9.00574201,12.2617057 C9.00574201,11.5128789 9.60854642,10.9058348 10.3521434,10.9058348 L13.9425469,10.9058348 C14.6861439,10.9058348 15.2889483,11.5128789 15.2889483,12.2617057 C15.2889483,13.0105325 14.6861439,13.6175766 13.9425469,13.6175766 L13.9425469,13.6175766 Z" id="Path"></path>
                        <path d="M4.96653797,13.6175766 L1.37613438,13.6175766 C0.632537445,13.6175766 0.0297330297,13.0105325 0.0297330297,12.2617057 C0.0297330297,11.5128789 0.632537445,10.9058348 1.37613438,10.9058348 L4.96653797,10.9058348 C5.7101349,10.9058348 6.31293931,11.5128789 6.31293931,12.2617057 C6.31293931,13.0105325 5.7101349,13.6175766 4.96653797,13.6175766 L4.96653797,13.6175766 Z" id="Path"></path>
                        <path d="M31.8945649,13.6175766 L28.3041613,13.6175766 C27.5605644,13.6175766 26.95776,13.0105325 26.95776,12.2617057 C26.95776,11.5128789 27.5605644,10.9058348 28.3041613,10.9058348 L31.8945649,10.9058348 C32.6381618,10.9058348 33.2409662,11.5128789 33.2409662,12.2617057 C33.2409662,13.0105325 32.6381618,13.6175766 31.8945649,13.6175766 L31.8945649,13.6175766 Z" id="Path"></path>
                    </g>
                    <path d="M43.5633766,11.8097487 C40.3411232,11.8097487 37.7289707,9.17922433 37.7289707,5.93430805 C37.7289707,2.68939178 40.3411232,0.0588673958 43.5633766,0.0588673958 C44.3069735,0.0588673958 44.9097779,0.665911484 44.9097779,1.41473832 C44.9097779,2.16356515 44.3069735,2.77060924 43.5633766,2.77060924 C41.8283171,2.77060926 40.4217735,4.18704546 40.4217735,5.93430805 C40.4217735,7.68157064 41.8283171,9.09800684 43.5633766,9.09800687 C44.3069735,9.09800687 44.9097779,9.70505096 44.9097779,10.4538778 C44.9097779,11.2027046 44.3069735,11.8097487 43.5633766,11.8097487 L43.5633766,11.8097487 Z" id="Path" fill="#9595AC"></path>
                    <path d="M30.0993631,11.8097487 C26.8771097,11.8097487 24.2649573,9.17922433 24.2649573,5.93430805 C24.2649573,2.68939178 26.8771097,0.0588673958 30.0993631,0.0588673958 C30.84296,0.0588673958 31.4457644,0.665911484 31.4457644,1.41473832 C31.4457644,2.16356515 30.84296,2.77060924 30.0993631,2.77060924 C28.3643036,2.77060926 26.95776,4.18704546 26.95776,5.93430805 C26.95776,7.68157064 28.3643036,9.09800684 30.0993631,9.09800687 C30.84296,9.09800687 31.4457644,9.70505096 31.4457644,10.4538778 C31.4457644,11.2027046 30.84296,11.8097487 30.0993631,11.8097487 Z" id="Path" fill="#9595AC"></path>
                    <path d="M16.6353496,11.8097487 C13.4130963,11.8097487 10.8009438,9.17922433 10.8009438,5.93430805 C10.8009438,2.68939178 13.4130963,0.0588673958 16.6353496,0.0588673958 C17.3789466,0.0588673958 17.981751,0.665911484 17.981751,1.41473832 C17.981751,2.16356515 17.3789466,2.77060924 16.6353496,2.77060924 C15.5129629,2.77060922 14.4758348,3.37360681 13.9146415,4.35245863 C13.3534481,5.33131046 13.3534481,6.53730565 13.9146415,7.51615748 C14.4758348,8.4950093 15.5129629,9.09800689 16.6353496,9.09800687 C17.3789466,9.09800687 17.981751,9.70505096 17.981751,10.4538778 C17.981751,11.2027046 17.3789466,11.8097487 16.6353496,11.8097487 Z" id="Path" fill="#9595AC"></path>
                </g>
                <g id="phone" transform="translate(51.809524, 34.239130) scale(-1, 1) translate(-51.809524, -34.239130) translate(35.619048, 18.478261)" fill="#F5822D">
                    <path d="M2.12144569,3.55164004 L5.02280352,0.629852957 C5.85673552,-0.209950986 7.20890594,-0.209950986 8.04283794,0.629852957 L11.7549798,4.36813301 C12.5889118,5.20793695 12.5889118,6.56962838 11.7549798,7.4095193 L9.18011217,10.0025173 C8.97514887,10.2089238 8.88264331,10.5023115 8.93256695,10.7898715 C9.17881657,12.2081877 9.95522411,15.2280027 12.5729328,17.8640564 C13.3208372,18.617227 15.7286593,20.8593426 19.6038735,21.5315337 C19.8870044,21.5806781 20.1763542,21.4854336 20.3794173,21.2808537 L22.9544577,18.6876818 C23.7883897,17.8478779 25.1405601,17.8478779 25.9745785,18.6876818 L29.6867203,22.4259618 C30.5206523,23.2657658 30.5206523,24.6274572 29.6867203,25.4672612 L26.7853625,28.3890482 C24.9087348,30.2788898 22.1219076,30.9300314 19.6177796,30.0448233 C16.2842109,28.8664013 11.8947314,26.6849986 7.85411278,22.6159289 C3.81349415,18.5468592 1.6473439,14.1264722 0.477161536,10.7694309 C-0.401857208,8.24793154 0.244817975,5.4414816 2.12144569,3.55164004 L2.12144569,3.55164004 Z" id="Path"></path>
                    <g id="Group" transform="translate(5.486772, 0.000000)">
                        <path d="M14.5615712,21.7739227 C10.6477679,21.0941473 8.2159688,18.8270271 7.46061679,18.0655449 C4.81684113,15.4000055 4.03270218,12.3465129 3.78400041,10.9124672 C3.73357964,10.6217003 3.82700636,10.3250406 4.03401067,10.1163322 L6.63460591,7.49441661 C7.47684216,6.64524699 7.47684216,5.26836969 6.63460591,4.41920007 L2.88541154,0.639229911 C2.10258108,-0.150044885 0.868406199,-0.204662631 0.0217210591,0.473177892 C0.235965722,0.6934079 3.72581589,4.20477484 3.93857759,4.41928802 C4.78081383,5.26845764 4.78081383,6.64533494 3.93857759,7.49450456 L1.33798235,10.1164202 C1.13097804,10.3251286 1.03755131,10.6217883 1.08797209,10.9125552 C1.33676108,12.3466008 2.12081281,15.4001814 4.76458846,18.0656329 C5.72136186,19.0302825 8.14042488,21.3071653 11.8655429,21.7740107 C12.9785509,21.9134135 13.9180521,21.8535187 14.5615712,21.7739227 Z" id="Path"></path>
                        <path d="M24.7448225,22.6784137 L20.9956281,18.8984436 C20.2100062,18.1063543 18.9694633,18.0537595 18.1226037,18.7393397 C18.1836669,18.7887683 18.2430727,18.8413632 18.299687,18.8984436 L22.0488814,22.6784137 C22.8911176,23.5275833 22.8911176,24.9044606 22.0488814,25.7536303 L19.1185447,28.7080897 C18.1173697,29.7175066 16.8595546,30.3770532 15.522968,30.6431058 C17.7855347,31.0955272 20.1532174,30.3830339 21.8145731,28.7080897 L24.7449097,25.7536303 C25.5870587,24.9043727 25.5870587,23.5275833 24.7448225,22.6784137 Z" id="Path"></path>
                    </g>
                </g>
            </g>
        </g>
    </g>
</svg>