<svg xmlns="http://www.w3.org/2000/svg" width="69" height="51" viewBox="0 0 69 51">
    <defs>
        <linearGradient id="9bt585j5wa" x1="44.674%" x2="55.326%" y1="78.629%" y2="21.37%">
            <stop offset="1.5%" stop-color="#A6A6B9"/>
            <stop offset="100%" stop-color="#CACAD5"/>
        </linearGradient>
        <linearGradient id="epz5vxenlb" x1="4.378%" x2="95.621%" y1="89.234%" y2="10.766%">
            <stop offset="1.5%" stop-color="#CACAD5"/>
            <stop offset="100%" stop-color="#DCDCE3"/>
        </linearGradient>
    </defs>
    <g fill="none">
        <path fill="#9595AC" d="M21.272 7.29c-.749 0-1.356-.607-1.356-1.356-.002-1.746-1.417-3.161-3.164-3.163-.748 0-1.356-.607-1.356-1.356 0-.75.608-1.356 1.356-1.356 3.244.004 5.872 2.632 5.876 5.875 0 .75-.607 1.356-1.356 1.356zM34.83 7.29c-.748 0-1.355-.607-1.355-1.356-.002-1.746-1.418-3.161-3.164-3.163-.749 0-1.356-.607-1.356-1.356 0-.75.607-1.356 1.356-1.356 3.243.004 5.872 2.632 5.876 5.875 0 .75-.608 1.356-1.356 1.356zM48.39 7.29c-.75 0-1.357-.607-1.357-1.356-.002-1.746-1.417-3.161-3.163-3.163-.75 0-1.356-.607-1.356-1.356 0-.75.607-1.356 1.356-1.356 3.243.004 5.872 2.632 5.875 5.875 0 .75-.607 1.356-1.356 1.356z"/>
        <rect width="7.231" height="38.868" x="49.745" y="5.934" fill="url(#9bt585j5wa)" rx="3.616"/>
        <rect width="45.196" height="38.868" x="7.261" y="5.934" fill="url(#epz5vxenlb)" rx="12"/>
        <path fill="#FFF" d="M52.167 6.452c-.257-.327-.65-.518-1.066-.518H8.617c-.626 0-1.17.429-1.318 1.037L.068 36.801c-.098.404-.005.83.252 1.157.257.327.65.518 1.065.518H43.87c.626 0 1.17-.428 1.318-1.037L52.418 7.61c.099-.404.006-.831-.25-1.158z"/>
        <path fill="#C1DAF6" d="M52.419 7.61c.098-.404.005-.831-.252-1.158-.257-.327-.65-.518-1.066-.518H8.617c-.626 0-1.17.429-1.318 1.037l-2.05 8.455h45.275L52.42 7.61z"/>
        <g fill="#9595AC">
            <path d="M25.791 2.77h-3.615c-.749 0-1.356-.606-1.356-1.355 0-.75.607-1.356 1.356-1.356h3.615c.75 0 1.356.607 1.356 1.356 0 .749-.607 1.356-1.356 1.356zM16.752 2.77h-3.615c-.75 0-1.356-.606-1.356-1.355 0-.75.607-1.356 1.356-1.356h3.615c.75 0 1.356.607 1.356 1.356 0 .749-.607 1.356-1.356 1.356zM7.713 2.77H4.098c-.75 0-1.356-.606-1.356-1.355 0-.75.607-1.356 1.356-1.356h3.615c.749 0 1.356.607 1.356 1.356 0 .749-.607 1.356-1.356 1.356zM34.83 2.77h-3.615c-.749 0-1.356-.606-1.356-1.355 0-.75.607-1.356 1.356-1.356h3.616c.748 0 1.355.607 1.355 1.356 0 .749-.607 1.356-1.355 1.356zM23.984 8.194h-3.616c-.749 0-1.356-.607-1.356-1.356 0-.749.607-1.356 1.356-1.356h3.616c.748 0 1.356.607 1.356 1.356 0 .749-.608 1.356-1.356 1.356zM14.945 8.194h-3.616c-.749 0-1.356-.607-1.356-1.356 0-.749.607-1.356 1.356-1.356h3.616c.748 0 1.355.607 1.355 1.356 0 .749-.607 1.356-1.355 1.356zM2.29 8.194c-.75 0-1.356-.607-1.356-1.356 0-.749.607-1.356 1.356-1.356h3.615c.75 0 1.356.607 1.356 1.356 0 .749-.607 1.356-1.356 1.356H2.29zM33.023 8.194h-3.616c-.749 0-1.356-.607-1.356-1.356 0-.749.607-1.356 1.356-1.356h3.616c.749 0 1.356.607 1.356 1.356 0 .749-.607 1.356-1.356 1.356zM23.08 13.618h-3.616c-.749 0-1.356-.607-1.356-1.356 0-.75.607-1.356 1.356-1.356h3.616c.749 0 1.356.607 1.356 1.356 0 .749-.607 1.356-1.356 1.356zM14.04 13.618h-3.615c-.749 0-1.356-.607-1.356-1.356 0-.75.607-1.356 1.356-1.356h3.616c.748 0 1.355.607 1.355 1.356 0 .749-.607 1.356-1.355 1.356zM5.001 13.618H1.386c-.749 0-1.356-.607-1.356-1.356 0-.75.607-1.356 1.356-1.356H5c.75 0 1.356.607 1.356 1.356 0 .749-.607 1.356-1.356 1.356zM32.119 13.618h-3.616c-.749 0-1.356-.607-1.356-1.356 0-.75.607-1.356 1.356-1.356h3.616c.749 0 1.356.607 1.356 1.356 0 .749-.607 1.356-1.356 1.356z" transform="translate(6.78 19.886)"/>
        </g>
        <path fill="#9595AC" d="M43.87 11.81c-3.245 0-5.876-2.63-5.876-5.876 0-3.245 2.63-5.875 5.876-5.875.749 0 1.356.607 1.356 1.356 0 .749-.607 1.356-1.356 1.356-1.747 0-3.164 1.416-3.164 3.163 0 1.748 1.417 3.164 3.164 3.164.749 0 1.356.607 1.356 1.356 0 .749-.607 1.356-1.356 1.356zM30.311 11.81c-3.245 0-5.875-2.63-5.875-5.876 0-3.245 2.63-5.875 5.875-5.875.749 0 1.356.607 1.356 1.356 0 .749-.607 1.356-1.356 1.356-1.747 0-3.164 1.416-3.164 3.163 0 1.748 1.417 3.164 3.164 3.164.749 0 1.356.607 1.356 1.356 0 .749-.607 1.356-1.356 1.356zM16.752 11.81c-3.245 0-5.875-2.63-5.875-5.876 0-3.245 2.63-5.875 5.875-5.875.75 0 1.356.607 1.356 1.356 0 .749-.607 1.356-1.356 1.356-1.13 0-2.174.603-2.74 1.581-.565.98-.565 2.185 0 3.164.566.979 1.61 1.582 2.74 1.582.75 0 1.356.607 1.356 1.356 0 .749-.607 1.356-1.356 1.356z"/>
        <g fill="#F5822D">
            <path d="M2.136 3.552L5.058.63c.84-.84 2.202-.84 3.041 0l3.739 3.738c.84.84.84 2.202 0 3.042l-2.593 2.593c-.207.206-.3.5-.25.787.248 1.418 1.03 4.438 3.666 7.074.754.753 3.178 2.995 7.08 3.668.286.049.577-.047.782-.251l2.593-2.593c.84-.84 2.201-.84 3.041 0l3.739 3.738c.84.84.84 2.201 0 3.041l-2.922 2.922c-1.89 1.89-4.697 2.541-7.218 1.656-3.357-1.179-7.778-3.36-11.847-7.43C3.84 18.548 1.66 14.127.481 10.77-.405 8.248.247 5.441 2.136 3.552z" transform="matrix(-1 0 0 1 68.478 18.478)"/>
            <g>
                <path d="M14.664 21.774c-3.941-.68-6.39-2.947-7.15-3.708C4.85 15.4 4.06 12.346 3.81 10.912c-.051-.29.043-.587.251-.796l2.62-2.622c.847-.849.847-2.226 0-3.075L2.905.64C2.117-.15.875-.205.022.473c.216.22 3.73 3.732 3.944 3.946.848.85.848 2.226 0 3.076l-2.619 2.621c-.208.21-.302.506-.251.797.25 1.434 1.04 4.487 3.702 7.153.964.964 3.4 3.241 7.151 3.708 1.12.14 2.067.08 2.715 0zM24.919 22.678l-3.776-3.78c-.79-.792-2.04-.844-2.893-.159.062.05.121.102.178.16l3.776 3.78c.848.849.848 2.225 0 3.075l-2.951 2.954c-1.008 1.01-2.275 1.67-3.62 1.935 2.278.453 4.662-.26 6.335-1.935l2.95-2.954c.849-.85.849-2.226 0-3.076z" transform="matrix(-1 0 0 1 68.478 18.478) translate(5.525)"/>
            </g>
        </g>
    </g>
</svg>
