<?xml version="1.0" encoding="UTF-8"?>
<svg width="242px" height="91px" viewBox="0 0 242 91" version="1.1" xmlns="http://www.w3.org/2000/svg" xmlns:xlink="http://www.w3.org/1999/xlink">
    <title>Group 28</title>
    <g id="Desktop" stroke="none" stroke-width="1" fill="none" fill-rule="evenodd">
        <g id="tyre-selector_4-wheeler_desktop_Step-5" transform="translate(-109.000000, -137.000000)">
            <g id="Group-28" transform="translate(109.000000, 137.000000)">
                <g id="car-(2)" transform="translate(120.510638, 45.500000) scale(-1, 1) translate(-120.510638, -45.500000) translate(0.010638, 0.000000)" fill-rule="nonzero">
                    <path d="M213.110608,19.9225175 C208.148088,16.8266859 202.984467,14.0726505 197.651497,11.6740238 L185.453858,23.8728414 L62.9769924,23.8728414 C43.2963699,26.1619328 37.0937116,26.2387684 22.759498,31.776514 C13.2033556,35.4683445 5.93948007,40.8191276 0.967871486,47.8288635 L0.967871486,71.2948761 L221.012537,71.2948761 L233.813479,66.1573379 C238.01393,64.4786013 240.767357,60.4072878 240.767357,55.8837737 L240.767357,23.8728414 L213.110608,19.9225175 Z" id="Path" fill="#FFFFFF"></path>
                    <path d="M197.651497,11.6740238 C180.860277,4.09551186 162.653786,0.170898293 144.231074,0.163336514 L139.57701,0.163336514 C117.830831,0.163336514 96.4324208,5.619986 77.3413857,16.0372259 L62.9769924,23.8728414 L185.453858,23.8728414 L197.651497,11.6740238 Z" id="Path" fill="#30516C"></path>
                    <path d="M114.338015,23.8728414 L185.453858,23.8728414 L197.651497,11.6740238 C188.630658,7.6208584 179.180399,4.60518219 169.477629,2.68749052 L114.338015,23.8728414 Z" id="Path" fill="#25313B"></path>
                    <polygon id="Path" fill="#F5822D" points="224.963501 31.776514 240.767357 31.776514 240.767357 39.6801863 224.963501 39.6801863"></polygon>
                    <polygon id="Path" fill="#CCCBCB" points="106.436087 31.776514 122.239944 31.776514 122.239944 39.6801863 106.436087 39.6801863"></polygon>
                    <path d="M0.735228948,55.4875312 L0.735228948,71.2948761 L221.76052,71.2948761 L234.076776,66.1573379 C238.118184,64.4786013 240.767357,60.4072878 240.767357,55.8837737 L240.767357,55.4875312 L0.735228948,55.4875312 Z" id="Path" fill="#CCCBCB"></path>
                    <path d="M46.9347007,43.5638298 C33.8404221,43.5638298 23.2289157,54.179191 23.2289157,67.2748473 C23.2289157,80.372016 33.8404221,90.9858649 46.9347007,90.9858649 C60.0274673,90.9858649 70.6389738,80.372016 70.6389738,67.2748473 C70.6389738,54.179191 60.0274673,43.5638298 46.9347007,43.5638298 Z" id="Path" fill="#25313B"></path>
                    <path d="M61.201126,67.3945512 C61.201126,75.2086585 54.8667615,81.5444215 47.054378,81.5444215 C39.2401905,81.5444215 32.9076305,75.2086585 32.9076305,67.3945512 C32.9076305,59.5804439 39.2401905,53.2446809 47.054378,53.2446809 C54.8667615,53.2446809 61.201126,59.5804439 61.201126,67.3945512 Z" id="Path" fill="#EFE8E0"></path>
                    <path d="M196.953269,43.5638298 C183.860503,43.5638298 173.248996,54.179191 173.248996,67.2748473 C173.248996,80.372016 183.860503,90.9858649 196.953269,90.9858649 C210.047548,90.9858649 220.659054,80.372016 220.659054,67.2748473 C220.659054,54.179191 210.047548,43.5638298 196.953269,43.5638298 Z" id="Path" fill="#25313B"></path>
                    <path d="M211.221207,67.3945515 C211.221207,75.208659 204.888647,81.5444222 197.074459,81.5444222 C189.262076,81.5444222 182.927711,75.208659 182.927711,67.3945515 C182.927711,59.580444 189.262076,53.2446809 197.074459,53.2446809 C204.888647,53.2446809 211.221207,59.580444 211.221207,67.3945515 Z" id="Path" fill="#EFE8E0"></path>
                    <polygon id="Path" fill="#CCCBCB" points="134.092836 23.8728414 141.994764 23.8728414 141.994764 71.2948761 134.092836 71.2948761"></polygon>
                </g>
                <circle id="Oval" fill="#F5822D" cx="44.0106383" cy="67" r="6"></circle>
                <circle id="Oval" fill="#F5822D" cx="195.010638" cy="67" r="6"></circle>
            </g>
        </g>
    </g>
</svg>