<svg xmlns="http://www.w3.org/2000/svg" xmlns:xlink="http://www.w3.org/1999/xlink" width="140" height="140" viewBox="0 0 140 140">
    <defs>
        <path id="026d9tq6wa" d="M69.887.209C31.371.209.147 31.047.147 69.088c0 38.04 31.224 68.879 69.74 68.879 38.517 0 69.74-30.838 69.74-68.879 0-38.041-31.223-68.88-69.74-68.88z"/>
    </defs>
    <g fill="none" fill-rule="evenodd">
        <g>
            <g>
                <path fill="#F0F0F0" d="M.147 69.136C.147 31.096 31.371.257 69.887.257c38.517 0 69.74 30.838 69.74 68.88 0 38.04-31.223 68.878-69.74 68.878-38.516 0-69.74-30.838-69.74-68.879" transform="translate(-534 -1345) translate(534 1345)"/>
                <g transform="translate(-534 -1345) translate(534 1345) translate(0 .048)">
                    <mask id="f7t7vvqvkb" fill="#fff">
                        <use xlink:href="#026d9tq6wa"/>
                    </mask>
                    <path fill="#F0F0F0" d="M23.823 102.166L65.914 102.166 65.914 99.707 23.823 99.707z" mask="url(#f7t7vvqvkb)"/>
                    <path fill="#D7D5D7" d="M20.888 131.311L22.915 131.311 22.915 102.166 20.888 102.166z" mask="url(#f7t7vvqvkb)"/>
                    <path fill="#F0F0F0" d="M22.148 131.311L23.555 131.311 23.555 102.166 22.148 102.166z" mask="url(#f7t7vvqvkb)"/>
                    <path fill="#D7D5D7" d="M8.059 131.311L10.086 131.311 10.086 102.166 8.059 102.166z" mask="url(#f7t7vvqvkb)"/>
                    <path fill="#F0F0F0" d="M9.319 131.311L10.726 131.311 10.726 102.166 9.319 102.166z" mask="url(#f7t7vvqvkb)"/>
                    <path fill="#E0E0E0" d="M49.981 131.311L52.008 131.311 52.008 102.166 49.981 102.166z" mask="url(#f7t7vvqvkb)"/>
                    <path fill="#F0F0F0" d="M51.241 131.311L52.648 131.311 52.648 102.166 51.241 102.166z" mask="url(#f7t7vvqvkb)"/>
                    <path fill="#D7D5D7" d="M8.059 102.166L23.823 102.166 23.823 99.707 8.059 99.707z" mask="url(#f7t7vvqvkb)"/>
                    <path fill="#E0E0E0" d="M23.555 89.293L40.475 89.293 42.926 99.159 26.007 99.159zM26.007 99.159L26.077 99.707 42.997 99.707 42.929 99.159z" mask="url(#f7t7vvqvkb)"/>
                    <path fill="#F0F0F0" d="M24.076 89.293L40.996 89.293 43.447 99.159 26.53 99.159z" mask="url(#f7t7vvqvkb)"/>
                    <path fill="#FFF" d="M26.886 98.71L24.659 89.742 40.639 89.742 42.867 98.71z" mask="url(#f7t7vvqvkb)"/>
                    <path fill="#EBEBEB" d="M30.938 99.159L31.006 99.707 49.637 99.707 49.57 99.159z" mask="url(#f7t7vvqvkb)"/>
                    <path fill="#E0E0E0" d="M9.256 82.063L44.756 82.063 44.756 54.512 9.256 54.512z" mask="url(#f7t7vvqvkb)"/>
                    <path fill="#D7D5D7" d="M9.672 82.063L45.172 82.063 45.172 54.512 9.672 54.512z" mask="url(#f7t7vvqvkb)"/>
                    <path fill="#FFF" d="M12.009 79.755L42.835 79.755 42.835 56.82 12.009 56.82z" mask="url(#f7t7vvqvkb)"/>
                    <path fill="#E6E6E6" d="M12.01 63.939v15.816h26.76c.818-3.271-.236-6.564-4.423-8.358-3.615-1.542-7.921.12-11.679-.67-4.338-.915-5.774-4.426-9.34-6.233-.425-.216-.866-.401-1.319-.555M12.01 56.82v.9c3.002 2.41 6.695 6.966 10.642 8.198 6.246 1.95 14.64-3.321 15.02-9.098H12.01zM37.511 69.554c1.202 3.054 3.1 5.372 5.324 7.44V58.023c-4.278 1.267-7.354 6.38-5.324 11.532" mask="url(#f7t7vvqvkb)"/>
                    <path fill="#E0E0E0" d="M63.338 134.641L85.529 134.641 85.529 134.542 63.338 134.542zM120.245 136.477L125.608 136.477 125.608 136.377 120.245 136.377zM116.267 136.477L118.017 136.477 118.017 136.377 116.267 136.377z" mask="url(#f7t7vvqvkb)"/>
                    <path fill="#F0F0F0" d="M84.385 131.675L86.557 131.675 86.557 82.921 84.385 82.921z" mask="url(#f7t7vvqvkb)"/>
                    <path fill="#6673BA" d="M2.782 144.196L2.782 145.092 144.037 145.092 144.037 87.234 134.544 87.234 118.233 97.765 102.678 97.765 85.236 109.025 85.236 113.556 78.062 113.556 58.211 126.37 45.024 126.37 28.598 136.976 16.864 136.976z" mask="url(#f7t7vvqvkb)"/>
                    <path fill="#7D89DE" d="M12.276 145.092L144.038 145.092 144.038 88.13 127.727 98.657 112.172 98.657 94.73 109.917 94.73 114.452 87.556 114.452 67.705 127.266 54.518 127.266 38.096 137.872 26.358 137.872z" mask="url(#f7t7vvqvkb)"/>
                    <path fill="#B28B67" d="M52.792 54.645l-.22.108-.269.137c-.181.1-.371.196-.557.304-.37.208-.742.438-1.109.68-.738.47-1.45.994-2.155 1.54-.704.546-1.37 1.137-2.032 1.741l-.966.929-.472.483-.232.246-.089.091c-.296.503-.408 1.092-.316 1.666.068.83.227 1.647.476 2.441.543 1.727 1.221 3.41 2.029 5.032l-1.581 1.02c-1.249-1.56-2.296-3.27-3.117-5.085-.441-.97-.76-1.99-.949-3.037-.103-.597-.128-1.204-.076-1.807.06-.717.285-1.411.658-2.029.102-.166.216-.325.342-.474l.236-.292.48-.575c.325-.383.663-.754 1.004-1.12.696-.73 1.43-1.426 2.198-2.083.775-.664 1.592-1.28 2.445-1.845.422-.283.869-.554 1.333-.808.224-.133.46-.254.7-.375l.375-.179c.135-.062.237-.108.422-.187l1.442 3.478z" mask="url(#f7t7vvqvkb)"/>
                    <path fill="#B55B52" d="M58.717 39.805c.144 2.22.48 7.08-1.265 8.33 0 0 .308 2.274 4.382 2.803 4.482.578 2.433-1.92 2.433-1.92-2.37-.892-2.07-2.679-1.421-4.303l-4.129-4.91z" mask="url(#f7t7vvqvkb)"/>
                    <path fill="#263238" d="M56.592 49.255s-.396-1.25-.54-1.978c-.143-.73 5.394-.492 7.228-.03 1.834.463 2.417 2.587 2.417 2.587l-9.105-.579z" mask="url(#f7t7vvqvkb)"/>
                    <path fill="#B28B67" d="M38.163 130.527L41.76 131.489 45.168 123.571 41.571 122.609z" mask="url(#f7t7vvqvkb)"/>
                    <path fill="#263238" d="M43.021 128.807l-4.136-.646c-.148-.023-.29.064-.334.204l-.987 3.157c-.085.318.106.644.427.73l.058.011c1.447.2 2.155.225 3.973.509 1.117.175 2.737.545 4.28.783 1.544.237 1.868-1.25 1.265-1.491-2.787-1.063-3.108-1.979-3.951-2.916-.151-.18-.362-.3-.595-.341" mask="url(#f7t7vvqvkb)"/>
                    <path fill="#407BFF" d="M54.534 48.884c-1.476-.566-5.938 3.107-5.938 3.107l1.99 6.773s4.998-2.866 5.445-4.852c.468-2.067.249-4.357-1.497-5.028" mask="url(#f7t7vvqvkb)"/>
                    <path fill="#FFC948" d="M71.132 52.287c0 2.366.089 6.752-1.472 14.578-.282 1.42.274 2.053.026 3.502-.165.95-.704.809-.78 1.27H53.775c0-.44-.662-.678-.818-1.64-.35-2.2.94-2.383.898-3.77-.106-3.498-.624-7.434-2.172-14.34-.314-1.345.535-2.686 1.896-2.997.07-.016.141-.029.213-.039 1.088-.154 2.395-.304 3.72-.366 2.287-.163 4.585-.163 6.873 0 1.34.12 2.762.324 3.918.512 1.632.263 2.83 1.657 2.83 3.29" mask="url(#f7t7vvqvkb)"/>
                    <path fill="#D9A832" d="M66.953 54.345c.675 1.59 2.826 3.977 3.863 5.077.16-1.533.24-2.832.283-3.932l-4.146-1.145z" mask="url(#f7t7vvqvkb)"/>
                    <path fill="#B28B67" d="M71.533 51.104c1.24 1.25 2.59 2.524 3.934 3.703 1.308 1.176 2.708 2.247 4.188 3.203.177.12.358.204.536.312l.265.15c.038.02 0 0 0 0h-.08c-.11 0 .135.046.422-.058.734-.285 1.426-.666 2.058-1.133 1.464-1.057 2.865-2.196 4.196-3.411l1.446 1.195c-1.091 1.624-2.364 3.123-3.795 4.465-.787.759-1.689 1.39-2.674 1.874-.314.147-.644.26-.982.338-.44.1-.896.113-1.342.041-.13-.022-.26-.054-.387-.095-.068-.019-.134-.041-.199-.067l-.164-.07-.359-.167c-.231-.117-.484-.225-.704-.35-1.747-.961-3.393-2.091-4.912-3.374-1.5-1.235-2.918-2.562-4.247-3.973l2.8-2.583z" mask="url(#f7t7vvqvkb)"/>
                    <path fill="#B28B67" d="M88.068 52.587c-.69.498-1.244 1.16-1.607 1.924l.317 1.4c.03.13.161.21.293.18.018-.004.036-.01.052-.018l2.265-1.1.944-.474c.209-.105.326-.33.292-.558l-.156-1.062c-.04-.272-.28-.47-.557-.459l-1.468.046c-.134.004-.264.046-.375.121M47.407 71.226c-.094.839-.398 1.642-.885 2.336l-1.388.417c-.129.039-.266-.032-.306-.16-.005-.017-.009-.035-.01-.053l-.165-2.499-.063-1.274c-.005-.094.05-.182.14-.217l1.488-.583c.107-.04.228.004.282.104l.844 1.529c.06.124.081.263.063.4" mask="url(#f7t7vvqvkb)"/>
                    <path fill="#407BFF" d="M34.001 86.624l18.555 2.128c.873.093 1.669-.502 1.813-1.358l1.805-11.208c.14-.805-.407-1.57-1.222-1.707-.03-.006-.062-.01-.093-.013l-18.556-2.129c-.873-.09-1.668.506-1.813 1.363l-1.805 11.207c-.14.803.406 1.565 1.219 1.703.032.006.064.01.097.014" mask="url(#f7t7vvqvkb)"/>
                    <path fill="#E87613" d="M34.001 86.624l18.555 2.128c.873.093 1.669-.502 1.813-1.358l1.805-11.208c.14-.805-.407-1.57-1.222-1.707-.03-.006-.062-.01-.093-.013l-18.556-2.129c-.873-.09-1.668.506-1.813 1.363l-1.805 11.207c-.14.803.406 1.565 1.219 1.703.032.006.064.01.097.014" mask="url(#f7t7vvqvkb)"/>
                    <path fill="#407BFF" d="M43.11 75.374l5.385.616c.03.003.057-.017.063-.046l.376-2.344c.043-.243-.018-.492-.169-.688-.152-.196-.38-.322-.628-.35l-3.593-.4c-.505-.044-.96.3-1.05.792l-.388 2.415-.034.417.038-.412zm5.39 1.45h-.102l-5.385-.621c-.233-.025-.446-.144-.586-.33-.145-.184-.204-.42-.165-.65l.392-2.415c.158-.933 1.025-1.584 1.978-1.483l3.602.417c.962.107 1.655.965 1.546 1.916l-.011.083-.38 2.34c-.075.428-.45.74-.89.742z" mask="url(#f7t7vvqvkb)"/>
                    <path fill="#FF9B21" d="M54.534 88.98l-18.555-2.127c-.876-.114-1.52-.866-1.489-1.737l.574-11.35c.028-.795.704-1.417 1.51-1.39.044.002.09.006.134.011l18.555 2.129c.882.102 1.533.861 1.49 1.737l-.574 11.35c-.029.794-.705 1.417-1.51 1.389-.045-.002-.09-.006-.135-.011" mask="url(#f7t7vvqvkb)"/>
                    <path fill="#FFC948" d="M68.657 49.138c2.863.683 5.828 3.47 5.828 3.47l-2.53 6.156s-5.904-3.557-6.453-5.519c-.716-2.607.393-4.765 3.155-4.107" mask="url(#f7t7vvqvkb)"/>
                    <path fill="#B28B67" d="M56.44 37.785c.603 3.603.784 5.14 2.83 6.814 3.082 2.499 7.434.99 7.932-2.716.447-3.332-.616-8.672-4.36-9.75-2.684-.772-5.493.75-6.274 3.4-.216.731-.26 1.501-.128 2.252" mask="url(#f7t7vvqvkb)"/>
                    <path fill="#263238" d="M65.456 32.42c-2.42-.27-6.747-3.749-9.21-.187-2.252 3.282-3.395 3.748-6.878 5.085-5.811 2.208-2.577 4.548-5.06 8.088-2.484 3.541-6.68 2.5-7.275 7.285-.915 7.326 11.947 16.315 19.643 8.051 7.696-8.263 2.627-11.07 6.094-13.432 4.39-3.007 3.28-8.013 1.77-8.696 1.654-1.667 3.978-5.844.916-6.194" mask="url(#f7t7vvqvkb)"/>
                    <path fill="#B28B67" d="M65.844 37.872c.515.551.828 1.256.89 2.004.055.936-.844 1.011-1.594.416-.692-.525-1.556-1.666-1.265-2.432.29-.767 1.332-.684 1.97.012" mask="url(#f7t7vvqvkb)"/>
                    <path fill="#5B91A2" d="M64.912 71.654s-1.484 21.983-7.232 33.262c-2.34 4.582-13.031 21.637-13.031 21.637l-5.23-.858s7.562-18.546 12.2-22.907c.486-12.266-3.14-25.132 2.156-31.146l11.137.012z" mask="url(#f7t7vvqvkb)"/>
                    <path fill="#447685" d="M59.894 77.577c-.165 5.198.452 10.391 1.83 15.41.843-3.54 1.468-7.143 1.944-10.354-1.045-1.83-2.313-3.529-3.774-5.056" mask="url(#f7t7vvqvkb)"/>
                    <path fill="#B28B67" d="M86.921 110.864L90.716 111.414 89.957 102.946 86.162 102.392z" mask="url(#f7t7vvqvkb)"/>
                    <path fill="#263238" d="M90.729 108.89l-4.137-.625c-.147-.023-.289.064-.333.204l-.97 3.165c-.083.319.111.644.434.725.02.006.04.01.06.013 1.446.191 2.154.212 3.976.483 1.118.17 2.737.528 4.28.762 1.544.233 1.864-1.25 1.24-1.5-2.791-1.045-3.116-1.961-3.968-2.915-.15-.17-.356-.281-.582-.312" mask="url(#f7t7vvqvkb)"/>
                    <path fill="#5B91A2" d="M68.906 71.654s24.96 4.165 23.974 11.4c-1.556 11.425-2.164 22.012-2.164 22.012l-4.845-.416s-2.033-11.246-.633-18.776c-5.832-2.603-30.519 7.518-27.47-14.22h11.138z" mask="url(#f7t7vvqvkb)"/>
                    <path fill="#FFF" d="M53.547 70.78l-.683 1.337c-.055.104.072.208.245.208h15.894c.135 0 .249-.062.257-.15l.14-1.337c0-.092-.11-.17-.262-.17H53.792c-.096-.008-.189.034-.245.112" mask="url(#f7t7vvqvkb)"/>
                    <path fill="#447685" d="M55.605 72.47h-.422c-.084 0-.147-.041-.139-.09l.19-1.738c0-.054.08-.095.16-.095h.422c.084 0 .147.041.14.095l-.19 1.737c-.01.05-.08.092-.16.092M65.553 72.47h-.422c-.084 0-.143-.041-.139-.09l.194-1.738c0-.054.076-.095.156-.095h.422c.08 0 .143.041.135.095l-.19 1.737c-.004.05-.08.092-.156.092" mask="url(#f7t7vvqvkb)"/>
                </g>
            </g>
        </g>
    </g>
</svg>
