<svg xmlns="http://www.w3.org/2000/svg" xmlns:xlink="http://www.w3.org/1999/xlink" width="60" height="60" viewBox="0 0 60 60">
    <defs>
        <path id="f2av5tn2ya" d="M0 0H60V60H0z"/>
    </defs>
    <g fill="none" fill-rule="evenodd">
        <g>
            <g transform="translate(-816 -529) translate(816 529)">
                <mask id="a0twna3s9b" fill="#fff">
                    <use xlink:href="#f2av5tn2ya"/>
                </mask>
                <g mask="url(#a0twna3s9b)">
                    <g>
                        <path fill="#CCA582" d="M10.163 28.465l1.06-8.212c0-2.946 3.712-5.46 6.358-2.815l1.804 1.805-9.222 9.222z" transform="translate(1 3)"/>
                        <path fill="#FFCEBF" d="M19.385 19.242l-1.21 1.211h-.002L16.37 18.65c-1.44-1.44-3.193-1.353-4.494-.499 1.181-1.794 3.737-2.68 5.705-.713l1.804 1.804z" transform="translate(1 3)"/>
                        <path fill="#E1B287" d="M27.56 9.377l1.805 1.804-3.609 3.609-1.804-1.804c-.996-.996-.996-2.611 0-3.608.5-.499 1.152-.748 1.804-.748.654 0 1.306.248 1.804.747" transform="translate(1 3)"/>
                        <path fill="#FFB09E" d="M28.785 10.602l.58.58-3.609 3.608-.58-.58c-.995-.996-.995-2.61.001-3.607.499-.499 1.152-.748 1.804-.748.654 0 1.306.248 1.804.747z" transform="translate(1 3)"/>
                        <path fill="#E1B287" d="M23.952 12.986l1.804 1.804-3.608 3.608-1.804-1.805c-.996-.996-.996-2.61 0-3.607.499-.498 1.151-.747 1.804-.748.653 0 1.306.25 1.804.748" transform="translate(1 3)"/>
                        <path fill="#FFB09E" d="M25.178 14.211l.578.579-3.608 3.608-.578-.579c-.997-.997-.997-2.612 0-3.609.497-.497 1.15-.746 1.803-.747.653 0 1.306.25 1.805.748" transform="translate(1 3)"/>
                        <path fill="#E1B287" d="M20.344 16.593l1.804 1.805-3.608 3.608-1.805-1.804c-.996-.996-.995-2.612.001-3.608.499-.498 1.152-.747 1.805-.748.653 0 1.305.249 1.803.747" transform="translate(1 3)"/>
                        <path fill="#FFB09E" d="M21.57 17.819l.578.579-3.608 3.608-.579-.578c-.997-.997-.996-2.613 0-3.61.498-.497 1.151-.747 1.804-.747.654 0 1.307.25 1.805.748" transform="translate(1 3)"/>
                        <path fill="#E1B287" d="M16.736 20.202l1.804 1.804-3.608 3.608-1.804-1.804c-.996-.996-.996-2.611 0-3.608.499-.498 1.151-.747 1.804-.748.653.001 1.305.25 1.804.748" transform="translate(1 3)"/>
                        <path fill="#FFB09E" d="M17.961 21.428l.579.578-3.608 3.608-.579-.579c-.996-.996-.996-2.611 0-3.608.499-.499 1.15-.747 1.804-.748.653.001 1.306.25 1.804.749" transform="translate(1 3)"/>
                        <path fill="#E1B287" d="M29.365 11.181l18.804 18.804-5.07 6.95-7.811 5.931c-.758-.757-1.49-1.567-2.329-2.237-.96-.769-2.065-1.375-3.23-1.77-1.544-.523-2.947-1.395-4.099-2.547L14.932 25.614l14.433-14.433z" transform="translate(1 3)"/>
                        <path fill="#CCA582" d="M27.446 11.181l14.432 14.433L31.18 36.312c-1.152 1.152-2.554 2.024-4.099 2.548-2.29.775-3.897 2.345-5.559 4.006l-6.748-5.378-6.133-7.503 18.805-18.804z" transform="translate(1 3)"/>
                        <path fill="#CCA582" d="M31.054 14.79l1.804-1.805c.996-.996.996-2.611 0-3.608-.996-.996-2.612-.996-3.608 0l-1.804 1.805 3.608 3.608zM34.662 18.398l1.804-1.804c.996-.997.996-2.612 0-3.608-.996-.997-2.612-.997-3.608 0l-1.804 1.804 3.608 3.608zM38.27 22.006l1.804-1.804c.997-.997.997-2.612 0-3.608-.996-.997-2.611-.997-3.608 0l-1.804 1.804 3.608 3.608zM43.682 20.202c.997.997.997 2.612 0 3.608l-1.804 1.804-3.608-3.608 1.805-1.804c.498-.498 1.15-.747 1.803-.748.223.001.444.03.66.087.42.112.815.332 1.144.66" transform="translate(1 3)"/>
                        <path fill="#CCA582" d="M43.683 23.81l-1.805 1.804-3.608-3.608 1.804 1.803 1.804-1.804c.668-.667.889-1.612.66-2.464.419.112.815.332 1.144.66.996.998.996 2.613.001 3.608" transform="translate(1 3)"/>
                        <path fill="#E1B287" d="M39.266 19.814l3.33 3.33c1.438 1.438 2.953 3.367 3.9 5.168l-3.132.692-4.136.912-5.124-5.125c-1.622-1.621-4.585-2.022-6.71-2.651-2.843-.51-2.355-4.761.483-4.761h6.366c.068 0 .137.002.207.004 1.895.06 3.476 1.09 4.816 2.431" transform="translate(1 3)"/>
                        <path fill="#FFF0AD" d="M28.405 3.624c-.495 0-.896-.401-.896-.896V.896c0-.495.401-.896.896-.896s.896.401.896.896v1.832c0 .495-.4.896-.896.896M24.174 4.492c-.345 0-.674-.2-.821-.537l-.734-1.678c-.198-.454.008-.982.462-1.18.453-.199.981.008 1.18.462l.734 1.678c.198.453-.009.981-.462 1.18-.117.05-.239.075-.359.075M20.644 6.983c-.217 0-.435-.079-.608-.238L18.691 5.5c-.363-.336-.385-.903-.05-1.266.337-.364.903-.386 1.267-.05l1.345 1.244c.363.336.385.903.05 1.266-.177.191-.418.288-.659.288M32.636 4.492c-.12 0-.241-.024-.358-.075-.454-.199-.66-.727-.462-1.18l.734-1.678c.198-.453.727-.66 1.18-.462.453.198.66.726.462 1.18l-.734 1.678c-.148.336-.477.537-.822.537M36.166 6.983c-.241 0-.481-.097-.658-.288-.336-.363-.314-.93.05-1.266l1.345-1.244c.363-.336.93-.313 1.266.05.336.363.313.93-.05 1.266l-1.345 1.244c-.172.159-.39.238-.608.238" transform="translate(1 3)"/>
                        <path fill="#DDEAFB" d="M48.169 29.985l6.18 6.18-6.631 7.461-8.408 7.578-5.437-5.436c-.41-.41-.41-1.076 0-1.487L48.17 29.985z" transform="translate(1 3)"/>
                        <path fill="#CBE2FF" d="M54.348 36.165L47.718 43.626 39.31 51.205 37.636 49.531 52.676 34.492z" transform="translate(1 3)"/>
                        <path fill="#F5822D" d="M54.349 36.165l2.153 2.154c.411.41.411 1.076 0 1.487L42.951 53.358c-.411.41-1.077.41-1.488 0l-2.154-2.154 15.04-15.039z" transform="translate(1 3)"/>
                        <g>
                            <path fill="#F5822D" d="M16.446 2.896L2.895 16.446c-.411.411-1.078.411-1.489 0l-1.37-1.371c.412.399 1.068.394 1.474-.012L15.063 1.51c.41-.41.41-1.077 0-1.487l1.383 1.383c.411.411.411 1.078 0 1.489z" transform="translate(1 3) translate(40.056 36.911)"/>
                        </g>
                        <path fill="#DDEAFB" d="M8.642 29.985l14.295 14.296c.41.41.41 1.077 0 1.487l-5.436 5.436-7.672-6.795-7.367-8.244 6.18-6.18z" transform="translate(1 3)"/>
                        <path fill="#CBE2FF" d="M22.937 45.768l-.946.946-15.039-15.04 1.69-1.689 14.295 14.296c.41.41.41 1.076 0 1.487" transform="translate(1 3)"/>
                        <path fill="#FFF9DF" d="M17.5 44.125c.558 0 1.01.452 1.01 1.01 0 .557-.452 1.009-1.01 1.009-.557 0-1.009-.452-1.009-1.01 0-.557.452-1.01 1.01-1.01" transform="translate(1 3)"/>
                        <path fill="#528FD8" d="M2.462 36.165L17.5 51.205l-2.154 2.153c-.41.41-1.077.41-1.487 0L.308 39.806c-.41-.41-.41-1.076 0-1.487l2.154-2.154z" transform="translate(1 3)"/>
                        <path fill="#0473CE" d="M1.008 37.611L2.457 36.162 17.494 51.199 16.045 52.648z" transform="translate(1 3)"/>
                        <path fill="#E1B287" d="M14.185 24.867l-1.804-1.804 3.609-3.609 1.804 1.805c.996.996.996 2.61-.001 3.607-.498.499-1.151.748-1.803.748-.654 0-1.306-.248-1.805-.747" transform="translate(1 3)"/>
                        <path fill="#E1B287" d="M17.794 21.259l-1.805-1.805 3.608-3.608 1.805 1.805c.996.996.996 2.611-.001 3.608-.498.497-1.15.746-1.804.747-.653 0-1.305-.249-1.803-.747" transform="translate(1 3)"/>
                        <path fill="#E1B287" d="M21.402 17.651l-1.805-1.804 3.609-3.609 1.804 1.804c.996.996.995 2.612 0 3.608-.5.499-1.152.748-1.805.749-.653-.001-1.305-.25-1.803-.748" transform="translate(1 3)"/>
                        <path fill="#E1B287" d="M25.01 14.042l-1.804-1.804 3.608-3.608 1.804 1.805c.996.995.996 2.61-.001 3.607-.498.499-1.15.747-1.803.748-.653 0-1.305-.25-1.804-.748" transform="translate(1 3)"/>
                    </g>
                </g>
            </g>
        </g>
    </g>
</svg>
