<svg xmlns="http://www.w3.org/2000/svg" xmlns:xlink="http://www.w3.org/1999/xlink" width="60" height="60" viewBox="0 0 60 60">
    <defs>
        <path id="1xf2ncseha" d="M0 0H60V60H0z"/>
        <path id="bc9rwvv4vc" d="M0 0.103L53.278 0.103 53.278 38.621 0 38.621z"/>
        <path id="zcjzrcxoae" d="M0 0.103L6.093 0.103 6.093 38.622 0 38.622z"/>
        <path id="owjt5io95g" d="M0 0.103L53.278 0.103 53.278 32.502 0 32.502z"/>
        <path id="qj51meseyi" d="M0 0.094L6.093 0.094 6.093 32.502 0 32.502z"/>
    </defs>
    <g fill="none" fill-rule="evenodd">
        <g>
            <g transform="translate(-816 -430) translate(816 430)">
                <mask id="yhgvt49mhb" fill="#fff">
                    <use xlink:href="#1xf2ncseha"/>
                </mask>
                <g mask="url(#yhgvt49mhb)">
                    <g>
                        <path fill="#CCC" d="M20.365 42.712c-.09.744-.497 1.519-1.117 1.939l-1.019.691h16.82l-1.02-.691c-.619-.42-1.026-1.195-1.117-1.939l-.495-4.188H20.86l-.495 4.188z" transform="translate(0 5)"/>
                        <path fill="#BABABA" d="M23.653 43.217l.495-4.693H20.86l-.495 4.188c-.09.744-.497 1.519-1.117 1.939l-1.019.691h4.365c.586-.48.972-1.319 1.059-2.125" transform="translate(0 5)"/>
                        <g transform="translate(0 5) translate(0 .01)">
                            <mask id="jz4ot22l2d" fill="#fff">
                                <use xlink:href="#bc9rwvv4vc"/>
                            </mask>
                            <path fill="#EFEFEF" d="M50.248 38.621H3.03c-1.666 0-3.03-1.363-3.03-3.03V3.133C0 1.467 1.364.103 3.03.103h47.218c1.666 0 3.03 1.364 3.03 3.03v32.458c0 1.667-1.364 3.03-3.03 3.03" mask="url(#jz4ot22l2d)"/>
                        </g>
                        <g transform="translate(0 5) translate(0 .01)">
                            <mask id="h4p722jitf" fill="#fff">
                                <use xlink:href="#zcjzrcxoae"/>
                            </mask>
                            <path fill="#DDD" d="M3.063 35.591V3.133c0-1.666 1.364-3.03 3.03-3.03H3.03C1.364.103 0 1.467 0 3.133v32.458c0 1.667 1.364 3.03 3.03 3.03h3.063c-1.666 0-3.03-1.363-3.03-3.03" mask="url(#h4p722jitf)"/>
                        </g>
                        <g transform="translate(0 5) translate(0 .01)">
                            <mask id="cfj7ooqz6h" fill="#fff">
                                <use xlink:href="#owjt5io95g"/>
                            </mask>
                            <path fill="#666" d="M50.248.103H3.03C1.364.103 0 1.467 0 3.133v29.369h53.278V3.133c0-1.666-1.364-3.03-3.03-3.03" mask="url(#cfj7ooqz6h)"/>
                        </g>
                        <g transform="translate(0 5) translate(0 .01)">
                            <mask id="mnl5tlw3pj" fill="#fff">
                                <use xlink:href="#qj51meseyi"/>
                            </mask>
                            <path fill="#535454" d="M0 3.133v29.369h3.063V3.133c0-1.666 1.364-3.03 3.03-3.03-3.158.005-3.581-.107-4.437.333C.676.939 0 1.96 0 3.133" mask="url(#mnl5tlw3pj)"/>
                        </g>
                        <path fill="#F5F5F5" d="M49.698 29.454H3.58c-.285 0-.517-.232-.517-.517V3.672c0-.286.232-.517.517-.517h46.118c.285 0 .517.231.517.517v25.264c0 .286-.232.518-.517.518" transform="translate(0 5)"/>
                        <path fill="#EFEFEF" d="M36.553 45.235H16.725c-.842 0-1.53.688-1.53 1.529 0 .84.689 1.53 1.53 1.53h19.828c.841 0 1.53-.69 1.53-1.53 0-.841-.689-1.53-1.53-1.53" transform="translate(0 5)"/>
                        <path fill="#DDD" d="M21.188 46.764c0-.84.689-1.529 1.53-1.529h-5.994c-.84 0-1.529.688-1.529 1.53 0 .84.688 1.528 1.53 1.528h5.993c-.841 0-1.53-.688-1.53-1.529" transform="translate(0 5)"/>
                        <path fill="#CCC" d="M26.639 34.758c.447 0 .81.363.81.81 0 .447-.363.81-.81.81-.447 0-.81-.363-.81-.81 0-.447.363-.81.81-.81" transform="translate(0 5)"/>
                        <path fill="#F58532" d="M3.063 3.672v2.524h47.152V3.672c0-.286-.232-.517-.517-.517H3.58c-.286 0-.517.231-.517.517" transform="translate(0 5)"/>
                        <path fill="#CBE2FF" d="M59.703 39.374l-5.802-5.802 2.825-2.804c.239-.24.338-.597.258-.936-.079-.338-.318-.596-.656-.716l-16.868-5.63c-.358-.118-.756-.019-1.015.26-.278.258-.378.656-.259 1.014l5.63 16.869c.12.338.378.576.716.656.338.08.696-.02.935-.259l2.805-2.824 5.802 5.802c.397.397 1.034.397 1.412 0l4.217-4.218c.398-.377.398-1.014 0-1.412" transform="translate(0 5)"/>
                        <path fill="#0473CE" d="M38.982 19.31c-.55 0-.994-.445-.994-.995v-5.968c0-.55.444-.994.994-.994s.995.445.995.994v5.968c0 .55-.445.995-.995.995M35.461 20.762c-.378.398-1.014.398-1.392 0l-4.237-4.217c-.378-.378-.378-1.015 0-1.413.398-.378 1.034-.378 1.412 0l4.217 4.237c.398.378.398 1.015 0 1.393M33.015 25.277h-5.968c-.55 0-.995-.445-.995-.994 0-.55.445-.995.995-.995h5.968c.55 0 .994.445.994.995s-.445.994-.994.994" transform="translate(0 5)"/>
                        <path fill="#0473CE" d="M29.832 15.132l5.63 5.63c-.379.398-1.015.398-1.393 0l-4.237-4.217c-.378-.378-.378-1.015 0-1.413" transform="translate(0 5)"/>
                        <path fill="#B7CDE8" d="M57.595 42.895l-2.109 2.109c-.378.397-1.015.397-1.412 0l-5.802-5.802-2.805 2.824c-.239.239-.597.338-.935.259-.338-.08-.597-.318-.716-.657l-5.63-16.868c-.119-.358-.02-.756.259-1.014l19.15 19.149z" transform="translate(0 5)"/>
                    </g>
                </g>
            </g>
        </g>
    </g>
</svg>
