<svg xmlns="http://www.w3.org/2000/svg" xmlns:xlink="http://www.w3.org/1999/xlink" width="140" height="140" viewBox="0 0 140 140">
    <defs>
        <path id="gm6oaknowa" d="M69.74.116C31.224.116 0 30.955 0 68.996c0 38.04 31.224 68.878 69.74 68.878 38.516 0 69.74-30.838 69.74-68.879 0-38.04-31.224-68.879-69.74-68.879z"/>
    </defs>
    <g fill="none" fill-rule="evenodd">
        <g>
            <g>
                <path fill="#F0F0F0" d="M0 69.136C0 31.096 31.224.257 69.74.257c38.516 0 69.74 30.838 69.74 68.88 0 38.04-31.224 68.878-69.74 68.878C31.224 138.015 0 107.177 0 69.136" transform="translate(-120 -1345) translate(120 1345)"/>
                <g transform="translate(-120 -1345) translate(120 1345) translate(0 .14)">
                    <mask id="v3nm7q7kwb" fill="#fff">
                        <use xlink:href="#gm6oaknowa"/>
                    </mask>
                    <path fill="#EBEBEB" d="M1.823 134.889L15.173 134.889 15.173 134.804 1.823 134.804zM18.233 134.889L21.908 134.889 21.908 134.804 18.233 134.804zM48.967 136.321L67.725 136.321 67.725 136.237 48.967 136.237z" mask="url(#v3nm7q7kwb)"/>
                    <path fill="#F0F0F0" d="M8.458 76.37s.186 4.075 7.313 4.075c7.128 0 7.317-4.075 7.317-4.075H8.458z" mask="url(#v3nm7q7kwb)"/>
                    <path fill="#E6E6E6" d="M34.454 131.921L43.328 131.921 43.328 83.423 34.454 83.423z" mask="url(#v3nm7q7kwb)"/>
                    <path fill="#F0F0F0" d="M41.643 131.921L43.331 131.921 43.331 128.43 39.876 128.43z" mask="url(#v3nm7q7kwb)"/>
                    <path fill="#E6E6E6" d="M1.286 131.921L10.16 131.921 10.16 83.423 1.286 83.423z" mask="url(#v3nm7q7kwb)"/>
                    <path fill="#F0F0F0" d="M8.692 129.782L43.332 129.782 43.332 83.423 8.692 83.423z" mask="url(#v3nm7q7kwb)"/>
                    <path fill="#E6E6E6" d="M26.577 125.418L42.025 125.418 42.025 85.559 26.577 85.559zM9.999 125.418L25.446 125.418 25.446 85.559 9.999 85.559z" mask="url(#v3nm7q7kwb)"/>
                    <path fill="#F0F0F0" d="M19.25 86.533h-3.056c-1.26.022-2.492-.363-3.51-1.096h10.074c-1.017.733-2.249 1.118-3.507 1.096M35.984 86.533h-3.056c-1.26.022-2.493-.363-3.51-1.096h10.066c-1.015.731-2.244 1.117-3.5 1.096M10.377 131.921L8.692 131.921 8.692 128.43 12.144 128.43z" mask="url(#v3nm7q7kwb)"/>
                    <path fill="#E6E6E6" d="M8.458 79.331s.186 4.075 7.313 4.075c7.128 0 7.317-4.075 7.317-4.075H8.458z" mask="url(#v3nm7q7kwb)"/>
                    <path fill="#F5F5F5" d="M30.603 79.151s.114 2.486 4.446 2.486 4.435-2.486 4.435-2.486h-8.88z" mask="url(#v3nm7q7kwb)"/>
                    <path fill="#E6E6E6" d="M30.603 80.937s.114 2.483 4.446 2.483 4.435-2.483 4.435-2.483h-8.88zM5.484 67.392L35.338 67.392 35.338 27.366 5.484 27.366z" mask="url(#v3nm7q7kwb)"/>
                    <path fill="#F0F0F0" d="M6.093 67.392L36.641 67.392 36.641 27.366 6.093 27.366z" mask="url(#v3nm7q7kwb)"/>
                    <path fill="#FAFAFA" d="M7.918 65.137L34.812 65.137 34.812 29.621 7.918 29.621z" mask="url(#v3nm7q7kwb)"/>
                    <path fill="#E6E6E6" d="M34.578 65.137L34.812 65.137 34.812 29.621 34.578 29.621zM20.949 34.936c-4.525-.008-8.2 3.608-8.208 8.077-.003 1.777.586 3.505 1.675 4.918 1.332 1.69 2.204 3.687 2.534 5.803.138.935.948 1.63 1.905 1.634h4.181c.944-.005 1.743-.69 1.88-1.613.328-2.12 1.2-4.122 2.535-5.814 2.747-3.55 2.06-8.629-1.535-11.343-1.362-1.028-3.016-1.608-4.73-1.659l-.237-.003zm2.104 20.876h-4.18c-1.18-.004-2.18-.86-2.352-2.013-.32-2.04-1.161-3.967-2.445-5.596-2.894-3.75-2.162-9.107 1.634-11.965 1.574-1.185 3.512-1.8 5.49-1.744 4.77.132 8.529 4.057 8.396 8.768-.051 1.794-.673 3.526-1.778 4.95-1.28 1.634-2.118 3.564-2.43 5.607-.17 1.144-1.164 1.993-2.335 1.993zM18.718 60.047h4.47c.836-.004 1.514-.674 1.516-1.5-.002-.827-.68-1.497-1.517-1.498h-4.47c-.837.001-1.515.67-1.52 1.497.003.828.682 1.499 1.52 1.501" mask="url(#v3nm7q7kwb)"/>
                    <path fill="#E6E6E6" d="M20.952 42.477c-.824 0-1.492.66-1.492 1.474s.668 1.474 1.492 1.474c.825 0 1.493-.66 1.493-1.474s-.668-1.474-1.493-1.474m0 3.396c-1.074.002-1.947-.857-1.949-1.918-.002-1.062.868-1.924 1.943-1.926 1.074-.002 1.947.857 1.949 1.919v.007c-.002 1.058-.87 1.916-1.943 1.918" mask="url(#v3nm7q7kwb)"/>
                    <path fill="#E6E6E6" d="M18.69 42.477c-.824 0-1.492.66-1.492 1.474s.668 1.474 1.492 1.474 1.492-.66 1.492-1.474-.668-1.474-1.492-1.474zm0 3.396c-1.075 0-1.946-.86-1.946-1.922 0-1.061.871-1.922 1.946-1.922s1.946.86 1.946 1.922v.004c0 1.06-.87 1.918-1.942 1.918h-.004zM23.211 42.477c-.824 0-1.492.66-1.492 1.474s.668 1.474 1.492 1.474 1.492-.66 1.492-1.474-.668-1.474-1.492-1.474m0 3.396c-1.074 0-1.946-.86-1.946-1.922 0-1.061.872-1.922 1.946-1.922 1.075 0 1.946.86 1.946 1.922v.004c-.002 1.06-.872 1.918-1.946 1.918" mask="url(#v3nm7q7kwb)"/>
                    <path fill="#D7D5D7" d="M130.049 115.53L49.169 115.53 51.82 74.968 56.011 74.968 53.632 111.39 104.919 111.39 105.108 108.494 77.803 108.494 78.074 104.354 119.466 104.354 121.77 69.059 118.837 69.059 116.719 101.458 75.33 101.458 74.87 108.494 56.754 108.494 61.052 42.688 112.806 42.688 112.996 39.788 58.308 39.788 56.2 72.071 52.01 72.071 53.202 53.792 50.27 53.792 46.048 118.43 132.792 118.43 133.067 114.219 130.135 114.219z" mask="url(#v3nm7q7kwb)"/>
                    <path fill="#D7D5D7" d="M51.645 32.752L50.706 47.079 53.643 47.079 54.388 35.652 118.6 35.652 118.139 42.688 127.683 42.688 126.494 60.899 122.303 60.899 123.221 46.827 83.764 46.827 83.575 49.724 104.27 49.724 103.998 53.863 71.638 53.863 68.894 95.872 68.798 97.318 68.53 101.458 64.339 101.458 66.371 70.346 63.438 70.346 61.217 104.354 71.273 104.354 71.731 97.318 97.414 97.318 97.603 94.422 83.795 94.422 84.067 90.283 91.259 90.283 91.449 87.386 79.504 87.386 79.649 85.155 76.716 85.155 76.383 90.283 81.134 90.283 80.863 94.422 71.923 94.422 74.382 56.76 112.514 56.76 111.049 79.179 113.986 79.179 115.64 53.863 106.934 53.863 107.202 49.724 120.099 49.724 119.181 63.796 126.304 63.796 125.18 81.015 128.113 81.015 130.805 39.788 121.264 39.788 121.533 35.652 135.264 35.652 131.96 86.282 124.837 86.282 123.386 108.494 111.906 108.494 111.716 111.39 126.129 111.39 127.58 89.179 131.771 89.179 130.575 107.505 133.507 107.505 138.39 32.752z" mask="url(#v3nm7q7kwb)"/>
                    <path fill="#D7D5D7" d="M66.807 63.633L67.715 49.724 76.771 49.724 76.96 46.827 64.971 46.827 63.875 63.633zM102.743 97.318L112.8 97.318 113.546 85.892 110.613 85.892 110.056 94.422 105.865 94.422 106.136 90.282 106.229 88.836 108.055 60.899 78.301 60.899 77.156 78.442 80.089 78.442 81.045 63.796 104.933 63.796 103.393 87.386 98.246 87.386 98.057 90.282 103.2 90.282z" mask="url(#v3nm7q7kwb)"/>
                    <path fill="#D7D5D7" d="M94.354 80.35L94.165 83.247 99.473 83.247 100.474 67.932 84.968 67.932 83.967 83.247 87.598 83.247 87.787 80.35 87.089 80.35 87.711 70.828 97.348 70.828 96.73 80.35z" mask="url(#v3nm7q7kwb)"/>
                    <g fill="#D7D5D7" mask="url(#v3nm7q7kwb)">
                        <g>
                            <path d="M84.25 82.889L3.37 82.889 6.021 42.327 10.212 42.327 7.833 78.75 59.12 78.75 59.309 75.853 32.003 75.853 32.275 71.714 73.667 71.714 75.971 36.419 73.038 36.419 70.92 68.817 29.531 68.817 29.071 75.853 10.955 75.853 15.252 10.048 67.007 10.048 67.196 7.148 12.509 7.148 10.401 39.431 6.21 39.431 7.403 21.152 4.47 21.152 0.248 85.789 86.993 85.789 87.268 81.578 84.335 81.578z" transform="translate(45.8 32.64)"/>
                            <path d="M5.846 0.112L4.907 14.438 7.843 14.438 8.589 3.012 72.801 3.012 72.34 10.048 81.884 10.048 80.694 28.259 76.503 28.259 77.421 14.187 37.965 14.187 37.776 17.084 58.47 17.084 58.199 21.223 25.839 21.223 23.095 63.231 22.999 64.678 22.731 68.817 18.539 68.817 20.571 37.706 17.638 37.706 15.417 71.714 25.474 71.714 25.932 64.678 51.614 64.678 51.804 61.781 37.996 61.781 38.268 57.642 45.46 57.642 45.649 54.745 33.705 54.745 33.85 52.515 30.917 52.515 30.583 57.642 35.335 57.642 35.063 61.781 26.124 61.781 28.582 24.12 66.715 24.12 65.25 46.538 68.187 46.538 69.84 21.223 61.135 21.223 61.403 17.084 74.299 17.084 73.382 31.155 80.505 31.155 79.381 48.375 82.314 48.375 85.006 7.148 75.465 7.148 75.733 3.012 89.465 3.012 86.161 53.642 79.037 53.642 77.586 75.853 66.106 75.853 65.917 78.75 80.33 78.75 81.781 56.539 85.972 56.539 84.775 74.865 87.708 74.865 92.591 0.112z" transform="translate(45.8 32.64)"/>
                            <path d="M21.008 30.993L21.916 17.084 30.972 17.084 31.161 14.187 19.172 14.187 18.075 30.993z" transform="translate(45.8 32.64)"/>
                        </g>
                    </g>
                    <path fill="#D7D5D7" d="M92.731 77.583L91.218 77.583 91.363 75.358 93.247 75.358 93.319 74.279 91.064 74.279 91.043 74.594 89.53 74.594 89.647 72.784 94.931 72.784 94.663 76.856 92.779 76.856zM92.624 79.253L91.108 79.253 91.184 78.112 92.696 78.112z" mask="url(#v3nm7q7kwb)"/>
                    <path fill="#27415C" d="M16.717 107.081c1.99-14.089 2.248-23.508 4.339-30.453l12.033-.18s-5.741 22.358-8.375 31.669c-2.634 9.311-7.368 32.293-7.368 32.293h-4.033s-.107-22.425 3.404-33.329" mask="url(#v3nm7q7kwb)"/>
                    <path fill="#000" d="M27.282 86.87c-.88 2.013-2.603 14.94-2.592 21.393l.041-.15c.925-3.27 2.235-8.15 3.545-13.114l-.994-8.13z" mask="url(#v3nm7q7kwb)"/>
                    <path fill="#27415C" d="M28.197 107.478c-2.407-14.014-3.408-30.9-3.408-30.9l13.24-.211s-1.522 22.772-2.062 32.31c-.55 9.92-.935 31.743-.935 31.743H30.62s-3.758-20.683-2.424-32.942" mask="url(#v3nm7q7kwb)"/>
                    <path fill="#B28B67" d="M26.42 40.63c-.589 2.52-1.032 5.756-1.765 7.617 1.28 1.175 3.353 2.632 6.117 2.59 2.764-.04 2.259-1.884 1.516-2.834-1.98-.989-2.063-1.987-1.575-2.863l-4.294-4.51z" mask="url(#v3nm7q7kwb)"/>
                    <path fill="#B28B67" d="M26.863 37.805c-.499 3.056-.95 4.839.25 6.724 1.806 2.835 5.918 2.258 7.338-.612 1.282-2.58 1.884-7.165-.853-9.009-1.98-1.334-4.679-.83-6.03 1.125-.366.531-.608 1.137-.705 1.772" mask="url(#v3nm7q7kwb)"/>
                    <path fill="#263238" d="M31.415 41.775c-.987 1.144-1.375 2.489-3.119 2.574-1.743.085-2.932.315-2.847-1.02.145-2.23-1.03-5.093-1.22-6.519-.19-1.426-.082-3.698 1.888-3.087-.688-1.324.292-2.458 1.822-2.316 2.778.258 5.556 2.16 7.065 1.725 1.448-.42.148-.838.148-.838s2.874-.153 2.38 2.553c-.554 3.012-3.363 1.96-3.363 1.96s1.915 2.34-2.754 4.968" mask="url(#v3nm7q7kwb)"/>
                    <path fill="#B28B67" d="M31.143 40.311c-.184.638-.115 1.322.193 1.912.409.73 1.213.394 1.599-.394.343-.71.556-1.946-.093-2.398-.65-.451-1.472.062-1.699.88" mask="url(#v3nm7q7kwb)"/>
                    <path fill="#7AB8C8" d="M22.262 48.512c4.28-.52 10.36-.472 14.393.22 2.053.362 3.6 2.049 3.76 4.102.503 6.075-.859 16.7-2.035 27.39-9.492 3.148-19.126-.04-19.126-.04-.21-2.16.966-9.227 1.698-13-.54-3.898-1.904-8.356-2.678-13.531-.36-2.477 1.38-4.772 3.888-5.128.033-.005.067-.01.1-.013" mask="url(#v3nm7q7kwb)"/>
                    <path fill="#7AB8C8" d="M35.152 57.021c.646 3.661 2.7 8.021 4.573 10.907.258-2.526.474-4.937.612-7.154l-5.185-3.753z" mask="url(#v3nm7q7kwb)"/>
                    <path fill="#7AB8C8" d="M39.983 51.945l.484 1.283.513 1.325c.344.88.687 1.742 1.062 2.57.182.415.375.819.567 1.202.193.384.382.757.575 1.087.192.33.392.618.54.829.147.21.274.305.048.227l-4.57 2.415c-.032.19-.032.386 0 .577.01.079.033.156.069.227.038.075.051.03.034-.044-.08-.256-.196-.501-.343-.727-.393-.653-.824-1.284-1.29-1.887-.488-.656-1.031-1.315-1.554-1.987-.522-.673-1.096-1.358-1.605-2.038l-.052-.067c-.607-.812-.433-1.956.388-2.556.55-.401 1.281-.47 1.898-.178.85.407 1.677.86 2.476 1.358.798.5 1.571 1.019 2.341 1.627.382.295.757.61 1.131.944.396.346.772.714 1.125 1.103.42.457.797.952 1.124 1.477.228.369.411.762.547 1.172.094.284.162.576.203.873.058.409.058.823 0 1.232-.267 1.742-1.912 2.94-3.675 2.677l-.008-.001c-.251-.036-.497-.103-.732-.197l-.151-.064c-.504-.206-.979-.474-1.414-.798-.34-.248-.662-.52-.962-.815-.49-.486-.94-1.01-1.344-1.569-.701-.953-1.324-1.959-1.864-3.009-.533-.995-.98-1.993-1.4-2.994-.202-.506-.405-1.02-.584-1.519-.093-.254-.182-.509-.268-.77l-.254-.812c-.587-1.903.5-3.916 2.427-4.496 1.833-.55 3.785.393 4.47 2.16l.048.163z" mask="url(#v3nm7q7kwb)"/>
                    <path fill="#B28B67" d="M43.431 56.18l.664 1.755c.12.234.093.515-.069.723l-.416.404c-.312.26-.779.22-1.042-.087-.03-.035-.056-.073-.079-.113l-1.251-1.817c-.262-.322-.21-.792.115-1.05.04-.031.081-.058.125-.08l.977-.401c.323-.133.811.187.976.665" mask="url(#v3nm7q7kwb)"/>
                </g>
            </g>
        </g>
    </g>
</svg>
