<?xml version="1.0" encoding="UTF-8"?>
<svg width="80px" height="80px" viewBox="0 0 80 80" version="1.1" xmlns="http://www.w3.org/2000/svg" xmlns:xlink="http://www.w3.org/1999/xlink">
    <title>Group 2</title>
    <defs>
        <rect id="path-1" x="0" y="0" width="80" height="80"></rect>
        <rect id="path-3" x="0.758517034" y="0" width="195" height="95"></rect>
        <polygon id="path-5" points="0.387585871 86 176.387586 86 176.387586 0 0.387585871 0"></polygon>
    </defs>
    <g id="Desktop" stroke="none" stroke-width="1" fill="none" fill-rule="evenodd">
        <g id="all-icons-for-result-screen" transform="translate(-498.000000, -74.000000)">
            <g id="Group-2" transform="translate(498.000000, 74.000000)">
                <mask id="mask-2" fill="white">
                    <use xlink:href="#path-1"></use>
                </mask>
                <g id="Mask"></g>
                <g mask="url(#mask-2)">
                    <g transform="translate(-65.758517, -6.000000)">
                        <mask id="mask-4" fill="white">
                            <use xlink:href="#path-3"></use>
                        </mask>
                        <g id="Mask" stroke="none" fill="none"></g>
                    </g>
                </g>
                <g mask="url(#mask-2)">
                    <g transform="translate(-95.000000, -3.000000)">
                        <mask id="mask-6" fill="white">
                            <use xlink:href="#path-5"></use>
                        </mask>
                        <g id="Mask" stroke="none" fill="none"></g>
                        <g id="Group-2" stroke="none" stroke-width="1" fill="none" fill-rule="evenodd" mask="url(#mask-6)">
                            <g transform="translate(-54.612414, 35.000000)">
                                <path d="M227.982487,5.86133933 L227.982487,1.99624502 C227.982487,1.49277425 227.742161,1.08395528 227.445389,1.08395528 L225.02674,1.03304938 L221.991455,1.03304938 C221.744288,1.03304938 221.543304,1.37384827 221.543304,1.79358188 L221.543304,5.33080023 L217.270471,5.33080023 L217.270471,11.3224168 L216.658111,11.3224168 L216.658111,5.68443475 L215.087871,5.68443475 L215.087871,1.76267161 L210.261691,1.76267161 L210.261691,5.19947522 L209.663871,5.19947522 L209.663871,13.5366928 L206.567863,13.5366928 L206.567863,7.67806026 L204.232173,7.67806026 L204.232173,5.95049015 L202.819299,5.95049015 L202.819299,4.07282184 L200.483609,4.07282184 L200.483609,10.6072892 L196.697414,10.6072892 L196.697414,34.5675558 L230.917708,34.5695641 L230.917708,5.86133933 L227.982487,5.86133933" id="Fill-2" fill="#A0C1E0"></path>
                                <path d="M194.002519,6.21314018 L194.002519,7.53224059 L192.432278,7.53224059 L192.432278,10.5083588 L191.819919,10.5083588 L191.819919,4.51639304 L187.547086,4.51639304 L187.547086,1.58751337 L185.178041,1.58751337 L185.178041,4.63531901 L184.472459,4.63531901 L184.472459,13.1226348 L180.723895,13.1226348 L180.723895,11.0946936 L179.582991,11.0946936 L179.582991,5.53651947 L176.867569,5.53651947 L176.867569,2.5322851 L175.454695,2.5322851 L175.454695,5.08587559 L174.25991,5.08587559 L174.25991,11.0946936 L171.453832,11.0946936 L171.453832,4.56005162 L169.118142,4.56005162 L169.118142,6.43771993 L167.706123,6.43771993 L167.706123,8.16529004 L165.369578,8.16529004 L165.369578,14.0238352 L162.27357,14.0238352 L162.27357,5.68687963 L161.67575,5.68687963 L161.67575,2.24981407 L156.84957,2.24981407 L156.84957,6.17183917 L155.27933,6.17183917 L155.27933,11.8096466 L154.66697,11.8096466 L154.66697,5.8179427 L150.394137,5.8179427 L150.394137,2.28081166 C150.394137,1.86099074 150.193153,1.52027916 149.945986,1.52027916 L146.910701,1.52027916 L144.492052,1.57127238 C144.19528,1.57127238 143.954954,1.98000403 143.954954,2.48356212 L143.954954,6.34848179 L137.771491,6.34848179 L137.771491,1.44029663 L136.438155,1.44029663 L136.438155,4.90526965e-15 L134.453118,4.90526965e-15 L134.453118,1.44029663 L130.784948,1.44029663 L130.784948,10.5979463 L125.933965,10.5979463 L125.933965,2.82654394 C125.933965,1.65701784 125.484103,0.687709991 124.741746,0.687709991 L121.742381,0.687709991 C121.000023,0.687709991 120.398782,1.51783428 120.398782,2.68753502 L120.398782,10.0973569 L119.346824,10.0383305 L119.346824,6.97699074 L117.777439,6.97699074 L117.777439,5.57118439 L112.696394,5.57118439 L112.696394,6.97699074 L111.126153,6.97699074 L111.126153,8.20458276 L110.437676,8.20458276 L110.437676,11.1419322 L108.220011,11.1419322 C107.923239,11.1419322 107.682914,11.3954139 107.682914,11.7078347 L107.682914,13.9884718 L102.751538,13.9884718 L102.751538,10.8317816 L102.062206,10.8317816 L102.062206,9.78135613 L100.491965,9.78135613 L100.491965,8.57803828 L95.4109205,8.57803828 L95.4109205,9.78135613 L93.8415353,9.78135613 L93.8415353,10.8317816 L93.1522032,10.8317816 L93.1522032,13.4188146 L90.095537,13.4188146 L90.095537,11.5944097 L87.5845207,11.5944097 L87.5845207,13.4188146 L86.5813116,13.4188146 L86.5813116,14.1135099 L84.4962102,14.1135099 L84.4962102,11.470594 C84.4962102,11.1259531 84.2690556,10.8466255 83.9895596,10.8466255 L81.8517748,10.8466255 L81.8517748,4.87526658 C81.8517748,4.3081416 81.4161956,3.84815477 80.8790981,3.84815477 L78.0331656,3.84815477 C77.4959826,3.84815477 77.0604034,4.3081416 77.0604034,4.87526658 L77.0604034,14.5728855 L74.6291821,14.5728855 L74.6291821,10.5083588 L73.9401065,10.5083588 L73.9401065,7.53224059 L72.3702937,7.53224059 L72.3702937,6.21314018 L67.2889923,6.21314018 L67.2889923,7.53224059 L65.7193506,7.53224059 L65.7193506,10.5083588 L65.1070766,10.5083588 L65.1070766,4.51639304 L60.8337306,4.51639304 L60.8337306,1.58751337 L58.4653702,1.58751337 L58.4653702,4.63531901 L57.7592751,4.63531901 L57.7592751,13.1226348 L54.0109676,13.1226348 L54.0109676,11.0946936 L52.8703196,11.0946936 L52.8703196,5.53651947 L50.1542998,5.53651947 L50.1542998,2.5322851 L48.7419386,2.5322851 L48.7419386,5.08587559 L47.5467257,5.08587559 L47.5467257,10.6344448 L44.4555928,10.6344448 L44.4555928,1.47688253 L40.7876789,1.47688253 L40.7876789,0.0365858921 L38.8023853,0.0365858921 L38.8023853,1.47688253 L37.469648,1.47688253 L37.469648,6.38506768 L31.2856718,6.38506768 L31.2856718,2.5200607 C31.2856718,2.01650261 31.0450042,1.60785827 30.7484033,1.60785827 L28.3300107,1.55686505 L25.2942981,1.55686505 C25.0470451,1.55686505 24.8467453,1.89757663 24.8467453,2.31739756 L24.8467453,5.85452859 L20.5734849,5.85452859 L20.5734849,11.8463198 L19.9608687,11.8463198 L19.9608687,6.20833774 L18.391227,6.20833774 L18.391227,2.28639996 L13.5646193,2.28639996 L13.5646193,5.72337821 L12.9671411,5.72337821 L12.9671411,14.0604211 L9.87053464,14.0604211 L9.87053464,8.20196325 L7.5348448,8.20196325 L7.5348448,6.47430582 L6.1225692,6.47430582 L6.1225692,4.59663751 L3.78662278,4.59663751 L3.78662278,11.1311922 L0,11.1311922 L0,35.0912842 L194.997175,35.1029847 L194.997175,6.21314018 L194.002519,6.21314018" id="Fill-3" fill="#A0C1E0"></path>
                                <path d="M183.1109,34.8718032 L183.116032,34.8773042 C164.895769,37.5393426 149.561978,41.5348887 141.989588,48.0872561 L230.917708,48.0872561 L230.917708,32.4891797 C214.330119,32.5961433 198.667912,33.4510656 183.1109,34.8718032" id="Fill-32" fill="#81ADD6"></path>
                                <path d="M230.917708,36.4986966 C230.283111,36.5406089 229.650226,36.5857518 229.018196,36.6329031 C223.521499,40.1337102 218.036776,43.6438602 212.565737,47.164139 C215.005767,47.2397557 217.368825,47.3109192 219.553135,47.3750973 C223.352159,44.3728712 227.140065,41.3658427 230.917708,38.3542737 L230.917708,36.4986966" id="Fill-34" fill="#A0C1E0"></path>
                                <path d="M214.270251,38.2422458 C207.565085,40.9912521 200.865906,43.7551896 194.173569,46.5347569 C197.450034,46.6632878 201.13702,46.7933904 204.88644,46.917992 C211.287137,43.6446461 217.679281,40.3588139 224.058596,37.0589236 C220.739368,37.3823463 217.474021,37.7778931 214.270251,38.2422458" id="Fill-35" fill="#A0C1E0"></path>
                                <path d="M230.917708,47.697385 L230.917708,41.7520465 C229.004512,43.6794856 227.093881,45.6081472 225.189238,47.5380311 C227.837094,47.6132985 229.863183,47.6687449 230.917708,47.697385" id="Fill-36" fill="#A0C1E0"></path>
                                <path d="M197.139578,41.5076458 C191.903733,42.7615203 186.903937,44.2108979 182.180387,45.8363942 C182.610578,46.0231657 187.558204,46.2753376 194.173569,46.5347569 C200.865906,43.7551896 207.565085,40.9912521 214.270251,38.2422458 C208.333956,39.1024072 202.608052,40.1978883 197.139578,41.5076458" id="Fill-37" fill="#6890B5"></path>
                                <path d="M224.058596,37.0589236 C217.679281,40.3588139 211.287137,43.6446461 204.88644,46.917992 C207.453047,47.0033881 210.050444,47.0862521 212.565737,47.164139 C218.036776,43.6438602 223.521499,40.1337102 229.018196,36.6329031 C227.352167,36.7570681 225.698967,36.8990458 224.058596,37.0589236" id="Fill-38" fill="#6890B5"></path>
                                <path d="M219.553135,47.3750973 C221.620276,47.436132 223.52663,47.4909672 225.189238,47.5380311 C227.093881,45.6081472 229.004512,43.6794856 230.917708,41.7520465 L230.917708,38.3542737 C227.140065,41.3658427 223.352159,44.3728712 219.553135,47.3750973" id="Fill-39" fill="#6890B5"></path>
                                <path d="M123.132164,27.9456459 C123.130453,27.9458205 123.129598,27.9461698 123.127887,27.9461698 C164.480117,31.1693956 201.857142,37.1676483 230.917708,46.974239 L230.917708,65.1475606 L0,65.1475606 L0,30.1661214 C41.8893274,27.9998698 82.5711262,27.118927 123.132164,27.9456459" id="Fill-60" fill="#81ADD6"></path>
                            </g>
                        </g>
                    </g>
                </g>
            </g>
        </g>
    </g>
</svg>