<?xml version="1.0" encoding="utf-8"?>
<!-- Generator: Adobe Illustrator 23.0.4, SVG Export Plug-In . SVG Version: 6.00 Build 0)  -->
<svg version="1.1" id="Layer_1" xmlns="http://www.w3.org/2000/svg" xmlns:xlink="http://www.w3.org/1999/xlink" x="0px" y="0px"
	 viewBox="0 0 2732 294.9" style="enable-background:new 0 0 2732 294.9;" xml:space="preserve">
<style type="text/css">
	.st0{fill:#CADAE8;}
	.st1{fill:#D6E7F5;}
	.st2{fill:#81ADD6;}
	.st3{fill:#A0C1E0;}
	.st4{fill:#6890B5;}
	.st5{fill:#ACC9E5;}
</style>
<title>Group 2</title>
<g>
	<path class="st0" d="M2732,34h-17.4V11.6c0-2.9-1.4-5.3-3.2-5.3L2697.2,6h-18c-1.5,0-2.7,2-2.7,4.4v20.5h-25.3v34.7h-3.6V32.9h-9.3
		V10.2h-28.5v19.9h-3.5v48.3H2588V44.5h-13.8v-10h-8.4V23.6H2552v37.9h-22.4v134.3c65.9-4.4,132.8-7.1,202.4-7.5V34z"/>
	<path class="st1" d="M2094.4,161.9L2094.4,161.9c123,9.4,240.1,22.9,348,41.2c2.3-0.3,4.5-0.7,6.8-1l0,0c23.4-2.1,46.8-4,70.3-5.6
		V36h-5.9v7.6h-9.3v17.2h-3.6V26.2h-25.3v-17h-14v17.7h-4.2V76H2435V64.3h-6.7V32.1h-16.1V14.7h-8.4v14.8h-7.1v34.8h-16.6V26.4
		h-13.8v10.9h-8.4v10h-13.8v33.9h-18.3V33h-3.5V13h-28.5v22.7h-9.3v32.7h-3.6V33.7h-25.3V13.2c0-2.4-1.2-4.4-2.7-4.4h-18l-14.3,0.3
		c-1.8,0-3.2,2.4-3.2,5.3v22.4H2181V8.3h-7.9V0h-11.7v8.3h-21.7v53.1H2111v-45c0-6.8-2.7-12.4-7.1-12.4h-17.7
		c-4.4,0-7.9,4.8-7.9,11.6v42.9l-6.2-0.3V40.4h-9.3v-8.1h-30.1v8.1h-9.3v7.1h-4.1v17h-13.1c-1.8,0-3.2,1.5-3.2,3.3V81h-29.2V62.8
		h-4.1v-6.1h-9.3v-7h-30.1v7h-9.3v6.1h-4v15h-18V67.2h-14.9v10.6h-5.9v4h-12.3V66.5c0-2-1.3-3.6-3-3.6h-12.6V28.2c0-3.3-2.6-6-5.8-6
		h-16.8c-3.2,0-5.8,2.7-5.8,6v56.2h-14.4V60.9h-4.1V43.6h-9.3V36H1764v7.6h-9.3v17.2h-3.6V26.2h-25.3v-17h-14v17.7h-4.2V76h-22.2
		V64.3h-6.7V32.1h-16.1V14.7h-8.4v14.8h-7.1v32.1H1629v-53h-21.7V0.2h-11.7v8.3h-7.9V37h-36.6V14.6c0-2.9-1.4-5.3-3.2-5.3L1533.6,9
		h-18c-1.5,0-2.6,2-2.6,4.4v20.5h-25.3v34.7h-3.6V36h-9.3V13.2h-28.6v19.9h-3.5v48.3h-18.3V47.5h-13.8v-10h-8.4V26.6h-13.8v37.9
		H1366v110.3C1613.8,162.2,1854.5,157.1,2094.4,161.9z"/>
	<path class="st2" d="M2449.2,202.1c-2.3,0.3-4.6,0.7-6.8,1c47.9,8.1,93.9,17.2,137.9,27.3c17.4-3.3,35.1-6.2,53.2-8.8
		c19-2.7,38.3-5,57.9-6.9c9.7-0.9,19.5-1.7,29.3-2.5c3.7-0.3,7.5-0.5,11.2-0.8v-11.2v-12.1c-69.7,0.4-136.6,3.1-202.4,7.5
		c-3.4,0.2-6.7,0.4-10.1,0.7C2496,198.1,2472.6,200,2449.2,202.1L2449.2,202.1z"/>
	<path class="st3" d="M2659.9,250.4c8.9,2.5,17.7,5,26.3,7.5c15.3-11.9,30.6-23.8,45.8-35.7v-10.8c-3.8,0.2-7.5,0.5-11.2,0.8
		C2700.4,224.9,2680.1,237.7,2659.9,250.4z"/>
	<path class="st3" d="M2633.5,221.6c-11.1,4.5-22.2,9-33.4,13.4c11.5,2.8,22.9,5.6,34.2,8.5c19-9.6,38.1-19.2,57.1-28.8
		C2671.8,216.6,2652.5,218.9,2633.5,221.6z"/>
	<path class="st3" d="M2732,272.2v-30.3c-7.7,7.6-15.4,15.2-23.1,22.9C2716.7,267.2,2724.4,269.7,2732,272.2z"/>
	<path class="st4" d="M2580.3,230.4c6.7,1.5,13.3,3.1,19.9,4.7c11.1-4.5,22.2-9,33.4-13.4C2615.4,224.1,2597.7,227.1,2580.3,230.4z"
		/>
	<path class="st4" d="M2691.4,214.7c-19,9.6-38,19.2-57.1,28.8c8.6,2.2,17.1,4.5,25.5,6.8c20.3-12.7,40.6-25.4,60.9-38.1
		C2710.9,213,2701.1,213.8,2691.4,214.7z"/>
	<path class="st4" d="M2708.9,264.8c7.7-7.6,15.4-15.2,23.1-22.9v-19.7c-15.2,11.9-30.5,23.8-45.8,35.7
		C2693.8,260.1,2701.4,262.4,2708.9,264.8z"/>
	<path class="st5" d="M2732,278.6v-2.3v-4.2c-7.6-2.5-15.3-5-23.1-7.4c-7.5-2.3-15.1-4.6-22.7-6.9c-8.7-2.6-17.4-5.1-26.3-7.5
		c-8.4-2.3-16.9-4.6-25.5-6.8c-11.2-2.9-22.6-5.8-34.2-8.5c-6.6-1.6-13.2-3.1-19.9-4.7c-44-10.1-90-19.2-137.9-27.3
		c-107.9-18.3-225-31.8-348-41.2l0,0c-239.9-4.8-480.6,0.3-728.4,12.9v28.5v91.5h1366V278.6z"/>
</g>
<title>Group 2</title>
<g>
	<path class="st0" d="M0,188.4c69.6,0.4,136.5,3.1,202.4,7.5V61.6H180V23.7h-13.8v10.9h-8.4v10H144v33.9h-18.3V30.2h-3.5V10.3H93.7
		V33h-9.3v32.7h-3.6V31H55.5V10.5c0-2.4-1.2-4.4-2.7-4.4h-18L20.6,6.4c-1.8,0-3.2,2.4-3.2,5.3v22.4H0L0,188.4z"/>
	<path class="st1" d="M1366,174.9V64.6h-22.4V26.7h-13.8v10.9h-8.4v10h-13.8v33.9h-18.3V33.2h-3.5V13.3h-28.6v22.8h-9.3v32.6h-3.6
		V34H1219V13.5c0-2.4-1.1-4.4-2.6-4.4h-18l-14.3,0.3c-1.8,0-3.2,2.4-3.2,5.3v22.4h-36.6V8.6h-7.9V0.3h-11.7v8.4H1103v53h-18.1V29.6
		h-7.1V14.8h-8.4v17.4h-16.1v32.2h-6.7v11.7h-22.2V27h-4.2V9.3h-14v17h-25.3v34.6h-3.6V43.7H968v-7.6h-30.1v7.6h-9.3V61h-4.1v23.5
		h-14.4V28.3c0-3.3-2.6-6-5.8-6h-16.8c-3.2,0-5.8,2.7-5.8,6V63h-12.6c-1.7,0-3,1.6-3,3.6v15.3h-12.3v-4h-5.9V67.3H833v10.6h-18v-15
		h-4v-6.1h-9.3v-7h-30.1v7h-9.3v6.1h-4.1v18.2H729V67.9c0-1.8-1.4-3.3-3.2-3.3h-13.1v-17h-4.1v-7.1h-9.3v-8.1h-30.1v8.1h-9.3v17.8
		l-6.2,0.3V15.7c0-6.8-3.5-11.6-7.9-11.6h-17.7c-4.4,0-7.1,5.6-7.1,12.4v45h-28.7V8.4h-21.7V0.1h-11.7v8.3H551v28.5h-36.4V14.5
		c0-2.9-1.4-5.3-3.2-5.3l-14.3-0.3h-18c-1.5,0-2.7,2-2.7,4.4v20.5h-25.3v34.7h-3.6V35.8h-9.3V13.1h-28.5v20h-3.5v48.2h-18.3V47.4
		h-13.8v-10h-8.4V26.5h-13.8v37.9h-16.6V29.6h-7.1V14.8h-8.4v17.4h-16.1v32.2H297v11.7h-22.2V27h-4.2V9.3h-14v17h-25.3v34.6h-3.6
		V43.7h-9.3v-7.6h-5.9v160.5c23.5,1.6,46.9,3.5,70.3,5.6l0,0c2.3,0.3,4.5,0.7,6.8,1c107.9-18.3,225-31.8,348-41.2l0,0
		C877.5,157.2,1118.2,162.3,1366,174.9z"/>
	<path class="st2" d="M282.8,202.2c-23.4-2.1-46.8-4-70.2-5.8c-3.4-0.3-6.7-0.5-10.1-0.7c-65.8-4.4-132.7-7.1-202.4-7.5v12.1v11.2
		c3.7,0.3,7.5,0.5,11.2,0.8c9.8,0.8,19.6,1.6,29.3,2.5c19.6,1.9,38.9,4.2,57.9,6.9c18.1,2.6,35.8,5.5,53.2,8.8
		c44-10.1,90-19.2,137.9-27.3C287.4,202.9,285.1,202.5,282.8,202.2L282.8,202.2z"/>
	<path class="st3" d="M11.2,212.3c-3.7-0.3-7.4-0.6-11.2-0.8l0,10.8c15.2,11.9,30.5,23.8,45.8,35.7c8.6-2.5,17.4-5,26.3-7.5
		C51.9,237.8,31.6,225,11.2,212.3z"/>
	<path class="st3" d="M40.6,214.8c19,9.6,38.1,19.2,57.1,28.8c11.3-2.9,22.7-5.7,34.2-8.5c-11.2-4.4-22.3-8.9-33.4-13.4
		C79.5,219,60.2,216.7,40.6,214.8z"/>
	<path class="st3" d="M23.1,264.9C15.4,257.2,7.7,249.6,0,242l0,30.3C7.6,269.8,15.3,267.3,23.1,264.9z"/>
	<path class="st4" d="M98.4,221.8c11.2,4.4,22.3,8.9,33.4,13.4c6.6-1.6,13.2-3.2,19.9-4.7C134.3,227.2,116.6,224.2,98.4,221.8z"/>
	<path class="st4" d="M11.3,212.3c20.3,12.7,40.6,25.4,60.9,38.1c8.4-2.3,16.9-4.6,25.5-6.8c-19.1-9.6-38.1-19.2-57.1-28.8
		C30.9,213.9,21.1,213.1,11.3,212.3z"/>
	<path class="st4" d="M45.8,258C30.5,246.1,15.2,234.2,0,222.3L0,242c7.7,7.7,15.4,15.3,23.1,22.9C30.6,262.5,38.2,260.2,45.8,258z"
		/>
	<path class="st5" d="M0,294.8l1366,0v-91.5v-28.5c-247.8-12.6-488.5-17.7-728.4-12.9l0,0c-123,9.4-240.1,22.9-348,41.2
		c-47.9,8.1-93.9,17.2-137.9,27.3c-6.7,1.6-13.3,3.1-19.9,4.7c-11.6,2.7-23,5.6-34.2,8.5c-8.6,2.2-17.1,4.5-25.5,6.8
		c-8.9,2.4-17.6,4.9-26.3,7.5c-7.6,2.3-15.2,4.6-22.7,6.9c-7.8,2.4-15.5,4.9-23.1,7.4l0,4.2l0,2.3L0,294.8z"/>
</g>
</svg>
