<svg xmlns="http://www.w3.org/2000/svg" xmlns:xlink="http://www.w3.org/1999/xlink" width="80" height="80" viewBox="0 0 80 80">
    <defs>
        <path id="q7o9kjs6za" d="M0 0H80V80H0z"/>
    </defs>
    <g fill="none" fill-rule="evenodd">
        <g>
            <g transform="translate(-182 -74) translate(182 74)">
                <mask id="qhs3ced91b" fill="#fff">
                    <use xlink:href="#q7o9kjs6za"/>
                </mask>
                <g mask="url(#qhs3ced91b)">
                    <g>
                        <path fill="#A0C1E0" d="M216.207 6.607V2.92c0-.48-.231-.87-.517-.87L213.357 2h-2.927c-.238 0-.432.325-.432.726V6.1h-4.12v5.717h-.591v-5.38h-1.514V2.696h-4.654v3.28h-.577v7.955h-2.986V8.34h-2.252V6.692h-1.362V4.901h-2.253v6.235h-3.651v22.862l33 .002V6.607h-2.83M185.1 5.84v1.241h-1.482v2.798h-.578V4.246h-4.032V1.492h-2.235v2.866h-.666v7.978h-3.537V10.43h-1.077V5.205h-2.562V2.38h-1.333v2.4h-1.128v5.649h-2.648V4.287h-2.204v1.765h-1.332v1.624h-2.205v5.508h-2.921V5.346h-.564V2.115h-4.554v3.687h-1.482v5.3h-.578V5.47h-4.032V2.144c0-.394-.19-.715-.422-.715h-2.865l-2.282.048c-.28 0-.507.384-.507.858v3.633h-5.834V1.354h-1.258V0h-1.874v1.354h-3.46v8.609h-4.578V2.657c0-1.1-.425-2.01-1.125-2.01h-2.83c-.7 0-1.268.78-1.268 1.88v6.965l-.993-.055V6.559h-1.48V5.237h-4.795V6.56h-1.482v1.154h-.65v2.761h-2.092c-.28 0-.507.239-.507.532v2.144h-4.653v-2.967h-.65v-.988h-1.482v-1.13h-4.795v1.13h-1.48v.988h-.651v2.432h-2.885V10.9h-2.369v1.715h-.947v.653H81.77v-2.485c0-.324-.214-.586-.478-.586h-2.017V4.583c0-.533-.411-.965-.918-.965H75.67c-.506 0-.918.432-.918.965V13.7h-2.294V9.879h-.65V7.08h-1.481v-1.24h-4.795v1.24h-1.481v2.798h-.578V4.246h-4.032V1.492h-2.235v2.866h-.666v7.978h-3.537V10.43h-1.076V5.205h-2.563V2.38H48.03v2.4h-1.128v5.216h-2.917V1.388h-3.46V.034h-1.874v1.354h-1.257v4.615h-5.836V2.369c0-.473-.227-.857-.507-.857l-2.282-.048h-2.864c-.233 0-.422.32-.422.715v3.325H21.45v5.633h-.578v-5.3h-1.48V2.148h-4.555V5.38h-.564v7.838h-2.922V7.711H9.148V6.086H7.815V4.321H5.611v6.143H2.038V32.99l184 .011V5.84h-.939" transform="translate(-137.038 33)"/>
                        <path fill="#81ADD6" d="M173.343 33.291l.005.006c-17.416 2.56-32.072 6.402-39.31 12.703h85V31c-15.855.103-30.825.925-45.695 2.291" transform="translate(-137.038 33)"/>
                        <path fill="#A0C1E0" d="M219.038 33c-.622.042-1.243.088-1.863.136-5.391 3.54-10.77 7.09-16.137 10.65 2.393.077 4.711.15 6.853.214 3.727-3.036 7.442-6.078 11.147-9.123V33M203.54 36.08c-6.507 2.51-13.008 5.033-19.502 7.57 3.18.117 6.757.236 10.396.35 6.21-2.988 12.414-5.988 18.604-9-3.22.295-6.39.656-9.498 1.08M219.038 46v-6c-2.004 1.945-4.005 3.892-6 5.84 2.773.075 4.896.131 6 .16" transform="translate(-137.038 33)"/>
                        <path fill="#6890B5" d="M188.023 38.15c-4.895 1.21-9.569 2.608-13.985 4.176.402.18 5.028.424 11.212.674 6.257-2.682 12.52-5.348 18.788-8-5.55.83-10.903 1.887-16.015 3.15M213.311 33.445c-6.08 3.447-12.172 6.879-18.273 10.298 2.446.09 4.922.176 7.32.257 5.214-3.677 10.441-7.343 15.68-11-1.588.13-3.164.278-4.727.445M208.038 43.84c2 .06 3.846.114 5.455.16 1.844-1.891 3.693-3.781 5.545-5.67V35c-3.656 2.951-7.323 5.898-11 8.84" transform="translate(-137.038 33)"/>
                        <path fill="#81ADD6" d="M116.815 26.286h-.004c39.218 3.008 74.666 8.605 102.227 17.756V61h-219V28.358c39.727-2.021 78.31-2.843 116.777-2.072" transform="translate(-137.038 33)"/>
                    </g>
                </g>
            </g>
        </g>
    </g>
</svg>
