<?xml version="1.0" encoding="utf-8"?>
<!-- Generator: Adobe Illustrator 23.0.4, SVG Export Plug-In . SVG Version: 6.00 Build 0)  -->
<svg version="1.1" id="Layer_1" xmlns="http://www.w3.org/2000/svg" xmlns:xlink="http://www.w3.org/1999/xlink" x="0px" y="0px"
	 viewBox="0 0 2542 378" style="enable-background:new 0 0 2542 378;" xml:space="preserve">
<style type="text/css">
	.st0{fill:#A0C1E0;}
	.st1{fill:#81ADD6;}
	.st2{fill:#6890B5;}
</style>
<title>City recolor 2</title>
<g id="Page-1">
	<g id="City-recolor-2">
		<g id="Group" transform="translate(0.000000, 0.000000)">
			<path id="Fill-2" class="st0" d="M2523.6,34V11.6c0-2.9-1.4-5.3-3.2-5.3L2506.2,6h-18c-1.5,0-2.7,2-2.7,4.4v20.5h-25.3v34.7h-3.6
				V32.9h-9.3V10.2h-28.5v19.9h-3.5v48.3H2397V44.5h-13.8v-10h-8.4V23.6H2361v37.9h-22.4v138.8l202.4,0V34H2523.6"/>
			<path id="Fill-3" class="st0" d="M2322.6,36v7.6h-9.3v17.2h-3.6V26.2h-25.3v-17h-14v17.7h-4.2V76h-22.2V64.3h-6.7V32.1h-16.1
				V14.7h-8.4v14.8h-7.1v34.8h-16.6V26.4h-13.8v10.9h-8.4v10h-13.8v33.9h-18.3V33h-3.5V13h-28.5v22.7h-9.3v32.7h-3.6V33.7h-25.3
				V13.2c0-2.4-1.2-4.4-2.7-4.4h-18l-14.3,0.3c-1.8,0-3.2,2.4-3.2,5.3v22.4H1990V8.3h-7.9V0h-11.7v8.3h-21.7v53.1H1920v-45
				c0-6.8-2.7-12.4-7.1-12.4h-17.7c-4.4,0-7.9,4.8-7.9,11.6v42.9l-6.2-0.3V40.4h-9.3v-8.1h-30.1v8.1h-9.3v7.1h-4.1v17h-13.1
				c-1.8,0-3.2,1.5-3.2,3.3v13.2h-29.2V62.8h-4.1v-6.1h-9.3v-7h-30.1v7h-9.3v6.1h-4.1v15H1708V67.2h-14.9v10.6h-5.9v4h-12.3V66.5
				c0-2-1.3-3.6-3-3.6h-12.6V28.2c0-3.3-2.6-6-5.8-6h-16.8c-3.2,0-5.8,2.7-5.8,6v56.2h-14.4V60.9h-4.1V43.6h-9.3V36H1573v7.6h-9.3
				v17.2h-3.6V26.2h-25.3v-17h-14v17.7h-4.2V76h-22.2V64.3h-6.7V32.1h-16.1V14.7h-8.4v14.8h-7.1v32.1H1438V8.6h-21.7V0.2h-11.7v8.3
				h-7.9V37h-36.6V14.6c0-2.9-1.4-5.3-3.2-5.3L1342.6,9h-18c-1.5,0-2.6,2-2.6,4.4v20.5h-25.3v34.7h-3.6V36h-9.3V13.2h-28.6v19.9
				h-3.5v48.3h-18.3V47.5h-13.8v-10h-8.4V26.6h-13.8v37.9H1175v138.8l1153.5,0.1V36H2322.6"/>
			<path id="Fill-32" class="st1" d="M2258.2,202.1L2258.2,202.1c-107.8,15.5-198.5,38.6-243.3,76.6H2541v-90.4
				C2442.9,188.9,2350.2,193.8,2258.2,202.1"/>
			<path id="Fill-34" class="st0" d="M2541,211.5c-3.8,0.2-7.5,0.5-11.2,0.8c-32.5,20.3-65,40.6-97.3,61c14.4,0.4,28.4,0.9,41.3,1.2
				c22.5-17.4,44.9-34.8,67.2-52.3V211.5"/>
			<path id="Fill-35" class="st0" d="M2442.5,221.6c-39.7,15.9-79.3,31.9-118.9,48c19.4,0.7,41.2,1.5,63.4,2.2
				c37.9-19,75.7-38,113.4-57.1C2480.8,216.6,2461.5,218.9,2442.5,221.6"/>
			<path id="Fill-36" class="st0" d="M2541,276.4v-34.4c-11.3,11.2-22.6,22.3-33.9,33.5C2522.8,275.9,2534.8,276.2,2541,276.4"/>
			<path id="Fill-37" class="st2" d="M2341.2,240.5c-31,7.3-60.5,15.7-88.5,25.1c2.5,1.1,31.8,2.5,70.9,4
				c39.6-16.1,79.2-32.1,118.9-48C2407.4,226.6,2373.5,232.9,2341.2,240.5"/>
			<path id="Fill-38" class="st2" d="M2500.4,214.7c-37.7,19.1-75.5,38.2-113.4,57.1c15.2,0.5,30.5,1,45.4,1.4
				c32.4-20.4,64.8-40.7,97.3-61C2519.9,213,2510.1,213.8,2500.4,214.7"/>
			<path id="Fill-39" class="st2" d="M2473.8,274.5c12.2,0.4,23.5,0.7,33.3,0.9c11.3-11.2,22.6-22.4,33.9-33.5v-19.7
				C2518.7,239.7,2496.2,257.1,2473.8,274.5"/>
			<path id="Fill-60" class="st2" d="M1903.4,161.9C1903.4,161.9,1903.4,161.9,1903.4,161.9c244.6,18.7,465.7,53.4,637.6,110.3
				v105.3H1175V174.8C1422.8,162.2,1663.5,157.1,1903.4,161.9"/>
		</g>
	</g>
</g>
<g id="Page-1_1_">
	<g id="City-recolor-2_1_">
		<g id="Group_1_" transform="translate(0.000000, 0.000000)">
			<path id="Fill-2_1_" class="st0" d="M17.4,34V11.6c0-2.9,1.4-5.3,3.2-5.3L34.8,6h18c1.5,0,2.7,2,2.7,4.4v20.5h25.3v34.7h3.6V32.9
				h9.3V10.2h28.5v19.9h3.5v48.3H144V44.5h13.8v-10h8.4V23.6H180v37.9h22.4v138.8L0,200.3V34H17.4"/>
			<path id="Fill-3_1_" class="st0" d="M218.4,36v7.6h9.3v17.2h3.6V26.2h25.3v-17h14v17.7h4.2V76h22.2V64.3h6.7V32.1h16.1V14.7h8.4
				v14.8h7.1v34.8h16.6V26.4h13.8v10.9h8.4v10h13.8v33.9h18.3V33h3.5V13h28.5v22.7h9.3v32.7h3.6V33.7h25.3V13.2
				c0-2.4,1.2-4.4,2.7-4.4h18l14.3,0.3c1.8,0,3.2,2.4,3.2,5.3v22.4H551V8.3h7.9V0h11.7v8.3h21.7v53.1H621v-45
				c0-6.8,2.7-12.4,7.1-12.4h17.7c4.4,0,7.9,4.8,7.9,11.6v42.9l6.2-0.3V40.4h9.3v-8.1h30.1v8.1h9.3v7.1h4.1v17h13.1
				c1.8,0,3.2,1.5,3.2,3.3v13.2h29.2V62.8h4.1v-6.1h9.3v-7h30.1v7h9.3v6.1h4.1v15H833V67.2h14.9v10.6h5.9v4h12.3V66.5
				c0-2,1.3-3.6,3-3.6h12.6V28.2c0-3.3,2.6-6,5.8-6h16.8c3.2,0,5.8,2.7,5.8,6v56.2h14.4V60.9h4.1V43.6h9.3V36H968v7.6h9.3v17.2h3.6
				V26.2h25.3v-17h14v17.7h4.2V76h22.2V64.3h6.7V32.1h16.1V14.7h8.4v14.8h7.1v32.1h18.3V8.6h21.7V0.2h11.7v8.3h7.9V37h36.6V14.6
				c0-2.9,1.4-5.3,3.2-5.3l14.3-0.3h18c1.5,0,2.6,2,2.6,4.4v20.5h25.3v34.7h3.6V36h9.3V13.2h28.6v19.9h3.5v48.3h18.3V47.5h13.8v-10
				h8.4V26.6h13.8v37.9h22.4v138.8l-1153.5,0.1V36H218.4"/>
			<path id="Fill-32_1_" class="st1" d="M282.8,202.1L282.8,202.1c107.8,15.5,198.5,38.6,243.3,76.6H0v-90.4
				C98.1,188.9,190.8,193.8,282.8,202.1"/>
			<path id="Fill-34_1_" class="st0" d="M0,211.5c3.8,0.2,7.5,0.5,11.2,0.8c32.5,20.3,65,40.6,97.3,61c-14.4,0.4-28.4,0.9-41.3,1.2
				C44.8,257.1,22.3,239.7,0,222.2V211.5"/>
			<path id="Fill-35_1_" class="st0" d="M98.5,221.6c39.7,15.9,79.3,31.9,118.9,48c-19.4,0.7-41.2,1.5-63.4,2.2
				c-37.9-19-75.7-38-113.4-57.1C60.2,216.6,79.5,218.9,98.5,221.6"/>
			<path id="Fill-36_1_" class="st0" d="M0,276.4v-34.4c11.3,11.2,22.6,22.3,33.9,33.5C18.2,275.9,6.2,276.2,0,276.4"/>
			<path id="Fill-37_1_" class="st2" d="M199.8,240.5c31,7.3,60.5,15.7,88.5,25.1c-2.5,1.1-31.8,2.5-70.9,4
				c-39.6-16.1-79.2-32.1-118.9-48C133.6,226.6,167.5,232.9,199.8,240.5"/>
			<path id="Fill-38_1_" class="st2" d="M40.6,214.7c37.7,19.1,75.5,38.2,113.4,57.1c-15.2,0.5-30.5,1-45.4,1.4
				c-32.4-20.4-64.8-40.7-97.3-61C21.1,213,30.9,213.8,40.6,214.7"/>
			<path id="Fill-39_1_" class="st2" d="M67.2,274.5c-12.2,0.4-23.5,0.7-33.3,0.9C22.6,264.3,11.3,253.1,0,241.9v-19.7
				C22.3,239.7,44.8,257.1,67.2,274.5"/>
			<path id="Fill-60_1_" class="st2" d="M637.6,161.9C637.6,161.9,637.6,161.9,637.6,161.9C393,180.6,171.9,215.4,0,272.2v105.3
				h1366V166.6C1118.2,154,877.5,157.1,637.6,161.9"/>
		</g>
	</g>
</g>
</svg>
