<?xml version="1.0" encoding="UTF-8"?>
<svg width="80px" height="80px" viewBox="0 0 80 80" version="1.1" xmlns="http://www.w3.org/2000/svg" xmlns:xlink="http://www.w3.org/1999/xlink">
    <title>Group 2</title>
    <defs>
        <rect id="path-1" x="0" y="0" width="80" height="80"></rect>
        <rect id="path-3" x="0.758517034" y="0" width="195" height="95"></rect>
    </defs>
    <g id="Desktop" stroke="none" stroke-width="1" fill="none" fill-rule="evenodd">
        <g id="all-icons-for-result-screen" transform="translate(-412.000000, -74.000000)">
            <g id="Group-2" transform="translate(412.000000, 74.000000)">
                <mask id="mask-2" fill="white">
                    <use xlink:href="#path-1"></use>
                </mask>
                <g id="Mask"></g>
                <g mask="url(#mask-2)">
                    <g transform="translate(-66.000000, -6.000000)">
                        <mask id="mask-4" fill="white">
                            <use xlink:href="#path-3"></use>
                        </mask>
                        <g id="Mask" stroke="none" fill="none"></g>
                        <g id="Group-2" stroke="none" stroke-width="1" fill="none" fill-rule="evenodd" mask="url(#mask-4)">
                            <g transform="translate(0.758517, 39.000000)">
                                <path d="M218.934389,8.3076183 L217.162352,8.3076183 L217.162352,11.5901017 L216.471296,11.5901017 L216.471296,4.98131585 L211.649348,4.98131585 L211.649348,1.75093387 L208.97585,1.75093387 L208.97585,5.11248421 L208.179592,5.11248421 L208.179592,14.4734942 L203.949288,14.4734942 L203.949288,12.2367944 L202.661762,12.2367944 L202.661762,6.1064553 L199.597374,6.1064553 L199.597374,2.79296151 L198.002926,2.79296151 L198.002926,5.6094216 L196.654596,5.6094216 L196.654596,12.2367944 L193.4879,12.2367944 L193.4879,5.0294687 L190.852043,5.0294687 L190.852043,7.1004264 L189.258561,7.1004264 L189.258561,9.0058346 L186.62174,9.0058346 L186.62174,15.4674653 L183.127854,15.4674653 L183.127854,6.27229371 L182.453206,6.27229371 L182.453206,2.48141258 L177.006798,2.48141258 L177.006798,6.80717555 L175.234762,6.80717555 L175.234762,13.0253455 L174.543706,13.0253455 L174.543706,6.41684856 L169.721758,6.41684856 L169.721758,2.5156011 C169.721758,2.05256331 169.494945,1.67677848 169.216013,1.67677848 L165.790654,1.67677848 L163.061177,1.73302101 C162.726266,1.73302101 162.455055,2.18382798 162.455055,2.73922293 L162.455055,7.00200197 L155.476936,7.00200197 L155.476936,1.58856246 L153.972249,1.58856246 L153.972249,5.41022388e-15 L151.732109,5.41022388e-15 L151.732109,1.58856246 L147.59253,1.58856246 L147.59253,11.6889113 L142.118133,11.6889113 L142.118133,3.1175117 C142.118133,1.8275932 141.610458,0.758503666 140.772697,0.758503666 L137.387875,0.758503666 C136.550115,0.758503666 135.871606,1.67408192 135.871606,2.96419303 L135.871606,11.1367908 L134.684457,11.0716881 L134.684457,7.69521038 L132.913385,7.69521038 L132.913385,6.14468866 L127.17936,6.14468866 L127.17936,7.69521038 L125.407323,7.69521038 L125.407323,9.04917217 L124.630368,9.04917217 L124.630368,12.2888958 L122.127703,12.2888958 C121.792792,12.2888958 121.521582,12.5684712 121.521582,12.913053 L121.521582,15.4284615 L115.956459,15.4284615 L115.956459,11.946818 L115.178539,11.946818 L115.178539,10.7882604 L113.406502,10.7882604 L113.406502,9.46107163 L107.672476,9.46107163 L107.672476,10.7882604 L105.901404,10.7882604 L105.901404,11.946818 L105.123484,11.946818 L105.123484,14.8001631 L101.673996,14.8001631 L101.673996,12.7879519 L98.8402812,12.7879519 L98.8402812,14.8001631 L97.7081465,14.8001631 L97.7081465,15.5663713 L95.3550823,15.5663713 L95.3550823,12.6513904 C95.3550823,12.2712719 95.0987353,11.9631899 94.7833205,11.9631899 L92.3708022,11.9631899 L92.3708022,5.37713226 C92.3708022,4.75162676 91.8792454,4.24428835 91.2731238,4.24428835 L88.0614517,4.24428835 C87.4552336,4.24428835 86.9636767,4.75162676 86.9636767,5.37713226 L86.9636767,16.0730355 L84.2200115,16.0730355 L84.2200115,11.5901017 L83.4423807,11.5901017 L83.4423807,8.3076183 L81.6708264,8.3076183 L81.6708264,6.85272814 L75.9365111,6.85272814 L75.9365111,8.3076183 L74.1651498,8.3076183 L74.1651498,11.5901017 L73.4741905,11.5901017 L73.4741905,4.98131585 L68.6516635,4.98131585 L68.6516635,1.75093387 L65.9789376,1.75093387 L65.9789376,5.11248421 L65.1821001,5.11248421 L65.1821001,14.4734942 L60.9520859,14.4734942 L60.9520859,12.2367944 L59.6648497,12.2367944 L59.6648497,6.1064553 L56.5997856,6.1064553 L56.5997856,2.79296151 L55.0059175,2.79296151 L55.0059175,5.6094216 L53.657104,5.6094216 L53.657104,11.7291671 L50.16872,11.7291671 L50.16872,1.62891455 L46.029431,1.62891455 L46.029431,0.0403520869 L43.7890011,0.0403520869 L43.7890011,1.62891455 L42.2849896,1.62891455 L42.2849896,7.04235406 L35.3062913,7.04235406 L35.3062913,2.77947871 C35.3062913,2.22408376 35.0346948,1.7733731 34.6999767,1.7733731 L31.9707889,1.71713057 L28.5449474,1.71713057 C28.2659191,1.71713057 28.0398782,2.0929154 28.0398782,2.55595319 L28.0398782,6.45720065 L23.2174477,6.45720065 L23.2174477,13.0657939 L22.5261024,13.0657939 L22.5261024,6.84743133 L20.7547411,6.84743133 L20.7547411,2.52176466 L15.3078509,2.52176466 L15.3078509,6.31254949 L14.6335889,6.31254949 L14.6335889,15.5078174 L11.1390279,15.5078174 L11.1390279,9.04628299 L8.50317125,9.04628299 L8.50317125,7.14077848 L6.90939971,7.14077848 L6.90939971,5.06982078 L4.27325351,5.06982078 L4.27325351,12.2770502 L0,12.2770502 L0,38.7036223 L220.056872,38.7165272 L220.056872,6.85272814 L218.934389,6.85272814 L218.934389,8.3076183 Z" id="Fill-3" fill="#A0C1E0"></path>
                                <path d="M138.951437,30.8229814 C152.572825,30.8227286 238.921194,29.4336663 260.593664,36.5813961 C282.457151,43.7921246 282.457151,55.5496349 260.593664,71.8539271 L0,71.8539271 L0,33.2714574 C31.5151039,31.6786254 77.8338582,30.8622741 138.956263,30.8224036 C138.954333,30.8227888 138.952724,30.8229814 138.951437,30.8229814 Z" id="Fill-60" fill="#81ADD6"></path>
                            </g>
                        </g>
                    </g>
                </g>
            </g>
        </g>
    </g>
</svg>