<?xml version="1.0" encoding="UTF-8"?>
<svg width="80px" height="80px" viewBox="0 0 80 80" version="1.1" xmlns="http://www.w3.org/2000/svg" xmlns:xlink="http://www.w3.org/1999/xlink">
    <title>KING OF THE OFF-ROADING</title>
    <defs>
        <rect id="path-1" x="0" y="0" width="80" height="80"></rect>
        <rect id="path-3" x="0" y="0" width="683" height="252"></rect>
        <polygon id="path-5" points="0.159862657 0.0817460703 156.969329 0.0817460703 156.969329 32.839257 0.159862657 32.839257"></polygon>
        <polygon id="path-7" points="0.0588566419 0.0414087388 88.8569227 0.0414087388 88.8569227 31.9909246 0.0588566419 31.9909246"></polygon>
        <path d="M12.7227455,0.099609375 C12.7352727,0.102421875 12.7475636,0.102421875 12.7631636,0.10875 C12.8187091,0.580546875 12.8929273,1.16296875 12.8156364,1.57640625 C12.5868364,2.74710938 11.7309636,2.90039063 10.8776909,3.48585937 C10.2258,3.93304687 9.99085455,4.7053125 9.5212,5.31515625 C9.29547273,5.60929687 8.85370909,5.88210937 8.68967273,6.22242187 C8.44267273,6.74625 8.68967273,7.37742188 8.5878,7.91695313 C8.36230909,9.09375 7.40101818,10.2459375 6.48629091,10.9692187 C5.59,11.67375 4.52683636,11.6526563 3.48234545,12.1490625 C2.3946,12.6667969 0.626836364,13.7760938 0.1508,14.8549219 C0.153872727,13.8773438 0.0921818182,12.5716406 0.401345455,11.6034375 C0.994618182,9.7340625 2.22134545,8.0915625 2.84581818,6.20695313 C3.02190909,5.67679688 3.16703636,5.1834375 3.31854545,4.71445313 C4.94118182,3.81351563 6.86329091,3.31710937 7.32065455,2.63695312" id="path-9"></path>
        <path d="M13.8604667,0.110588235 C13.5461667,0.528941176 13.2167,1.02729412 13.1467,1.39341176 C13.0704,1.784 13.3513333,1.90094118 13.3298667,2.26705882 C13.3023333,2.65152941 13.0400667,2.68235294 12.8051,2.944 C12.3475333,3.45764706 12.1734667,3.87294118 12.0486333,4.62047059 C11.914,5.42352941 11.9445667,5.78023529 11.2217,6.28494118 C10.4925333,6.78941176 9.7328,7.10635294 9.12566667,7.77694118 C8.5918,8.36752941 8.03646667,9.28447059 7.23426667,9.44423529 C6.61196667,9.56752941 6.74286667,9.35529412 6.22743333,9.73364706 C5.91943333,9.96117647 5.57153333,10.1981176 5.2878,10.4411765 C4.61976667,11.0164706 4.50986667,11.3854118 3.62203333,11.6378824 C3.12176667,11.7825882 2.64273333,12.0409412 2.33753333,11.6992941 C2.0874,11.4162353 2.08436667,10.6995294 1.84963333,10.3272941 C1.6023,9.93364706 1.2761,9.712 0.9709,9.37976471 C0.1533,8.48447059 0.2632,7.50941176 0.214433333,6.40188235 C1.63613333,5.45717647 2.99366667,4.56823529 3.78676667,4.06988235 C6.03213333,2.65458824 9.9617,1.23929412 11.0845,0.673411765" id="path-11"></path>
        <polygon id="path-13" points="0 0.10091886 68.9222925 0.10091886 68.9222925 18.9781522 0 18.9781522"></polygon>
    </defs>
    <g id="Desktop" stroke="none" stroke-width="1" fill="none" fill-rule="evenodd">
        <g id="KING-OF-THE-OFF-ROADING">
            <mask id="mask-2" fill="white">
                <use xlink:href="#path-1"></use>
            </mask>
            <g id="Mask"></g>
            <g id="king-of-the-off-roading" mask="url(#mask-2)">
                <g transform="translate(-308.000000, -89.000000)">
                    <mask id="mask-4" fill="white">
                        <use xlink:href="#path-3"></use>
                    </mask>
                    <g id="Mask" stroke="none" fill="none"></g>
                    <g id="Group-22" stroke="none" stroke-width="1" fill="none" fill-rule="evenodd" mask="url(#mask-4)">
                        <g transform="translate(277.000000, 142.000000)">
                            <path d="M98.6859452,20.1265016 C98.7696318,20.5219822 97.7584948,20.4087552 97.5439903,20.2911108 C97.2894817,20.1511464 96.9032356,19.8063505 97.3110931,19.6064015 C97.5343341,19.4968945 97.7766575,19.5403718 97.9941509,19.382505 C98.2231396,19.2167333 98.3328059,19.0160867 98.0851946,18.853105 C97.3876526,18.3946171 96.3744464,19.0349191 95.7272543,18.5004041 C95.7419684,18.3011525 96.0852216,18.2495378 96.2353518,18.2069905 C95.9665889,17.7289727 96.5691788,17.7422251 96.7823038,17.4269566 C96.8213882,17.3692969 96.9257666,17.1365654 96.9007066,17.0303134 C96.8597829,16.8564042 96.5875714,16.808277 96.4450282,16.7517797 C96.1509754,16.6357628 95.8502553,16.5323007 95.5476958,16.4406962 C95.4453866,16.4097738 95.3129594,16.3955914 95.2541029,16.2898044 C95.0331609,15.8933937 95.7415086,15.5906801 95.9102614,15.3300488 C95.8688778,15.2026394 95.5490753,15.1617196 95.4276837,15.1428872 C95.1563918,15.1005724 95.050404,15.0952249 94.9320012,14.8173887 C95.0391385,14.5802398 95.6782838,14.7332241 95.7208169,14.4135381 C95.7327721,14.322166 95.6162085,14.1580218 95.5614903,14.0991995 C95.3612402,13.8839055 95.1894986,13.8153184 95.0352301,13.5451546 C95.0768435,13.4384376 95.1488048,13.3689204 95.251114,13.3363706 C95.3205464,13.3238156 95.3660682,13.2845233 95.3869899,13.2187261 C95.06052,12.8904377 95.5966663,12.5544767 95.7734659,12.3498777 C95.2851405,12.2743155 94.8499239,12.0885489 94.3733239,11.9550945 C94.275153,11.9274271 93.8872976,11.8097827 93.7226832,11.6581934 C93.8105082,11.6709808 93.8983332,11.6828383 93.9873077,11.6981832 C94.1089292,11.7193406 94.2443453,11.737708 94.3675762,11.7435205 C94.4441356,11.747473 94.4979342,11.7239906 94.5703553,11.7139931 C94.6492139,11.7032982 94.7023228,11.6995782 94.7781925,11.6721433 C94.8627988,11.6414535 94.9370592,11.6451734 95.0239646,11.6293635 C95.0929371,11.6168086 95.1561619,11.6130886 95.2249045,11.6040211 C95.2720357,11.5977437 95.2734152,11.6161111 95.2947966,11.5719363 C95.3033032,11.5544989 95.2968658,11.4445269 95.2947966,11.4305769 C95.2750245,11.2945651 95.2306522,11.3343224 95.1297224,11.3717547 C95.022815,11.411512 94.9857998,11.3787297 94.8837205,11.3603623 C94.8207256,11.3492023 94.7450857,11.3638497 94.6809413,11.3629197 C94.5703553,11.3612923 94.5225344,11.2938676 94.4163167,11.2657352 C94.2627379,11.2248154 94.1930757,11.199008 94.0762822,11.0806661 C93.9907563,10.993944 93.926382,10.9018744 93.8169456,10.8430522 C93.8240728,10.8470046 93.7353281,10.8121298 93.7288907,10.8032948 C93.6799202,10.7316852 93.7528012,10.653798 93.7948744,10.6121807 C93.9020117,10.5063937 94.0284613,10.454314 94.1677858,10.3985142 C94.2806708,10.3534094 94.5765629,10.225535 94.546215,10.0525558 C94.5326504,9.97490119 94.4641377,9.98861862 94.4050512,9.95955626 C94.345275,9.9300289 94.3018224,9.89329407 94.2307807,9.87934413 C94.1273219,9.85865173 94.0606485,9.88817909 93.964087,9.83795932 C93.8967238,9.80308449 93.8282111,9.77309212 93.7596984,9.74426226 C93.7100382,9.72333736 93.6003719,9.67451258 93.5939345,9.6054604 C93.5891064,9.55663563 93.5966934,9.57337555 93.6210637,9.54431319 C93.6247422,9.53989571 93.6921054,9.47874849 93.6992325,9.47456351 C93.7187747,9.46828604 93.7385468,9.46410106 93.7590087,9.46131107 C93.7819995,9.44317616 93.8045305,9.42434374 93.825912,9.40458134 C93.8714339,9.38598142 93.9192548,9.40690633 93.9659262,9.39202639 C94.0070798,9.37900645 94.1059404,9.33645915 94.1291612,9.29716683 C94.1427258,9.27368444 94.1441052,9.21300223 94.1291612,9.18975233 C94.0990432,9.14348505 94.0737533,9.16789743 94.0321398,9.15882998 C93.9620178,9.14348505 93.8976434,9.10465773 93.8277513,9.08768531 C93.768205,9.07373537 93.6870474,9.07257288 93.6311796,9.04769549 C93.5665754,9.01886563 93.5169152,8.94283848 93.4530006,8.90726614 C93.3037901,8.82403153 93.1842378,8.74033192 93.0775603,8.59897258 C92.9938736,8.48760559 92.8453528,8.25719916 93.0267505,8.18303201 C93.1642357,8.12699977 93.2913751,8.11793231 93.4412753,8.12606977 C93.3470129,8.07259502 93.4279406,8.00098535 93.3833384,7.93658315 C93.3486222,7.88659588 93.2571187,7.8821784 93.1980323,7.8833409 C93.0357169,7.88636338 92.9042094,7.84753607 92.7917842,7.72826412 C92.669243,7.59806472 92.6625756,7.41927305 92.8400649,7.33906093 C92.9651351,7.28256369 93.1387159,7.33789843 93.2350475,7.22885644 C93.2053893,7.18584414 93.1566487,7.19746908 93.1125063,7.18677413 C93.0568685,7.1732892 92.9993914,7.14306434 92.9499611,7.11586196 C92.9131758,7.09563456 92.8796092,7.06866468 92.8419042,7.04773978 C92.789715,7.01890991 92.762126,6.98636006 92.7179836,6.95241522 C92.6674037,6.9135879 92.6278595,6.89359299 92.5816479,6.8498832 C92.5423336,6.81314837 92.4954323,6.7838535 92.4579572,6.74758367 C92.4489908,6.73921371 92.4411739,6.72991375 92.4326673,6.72131129 C92.3873753,6.52996468 92.302999,6.30234824 92.1625249,6.26933339 C92.1753998,6.27235588 91.8452514,6.75804612 91.8266288,6.78873598 C91.7994996,6.83291078 91.7744396,6.90847292 91.7443216,6.94474276 C91.7047774,6.99147504 91.6231599,7.0430898 91.5730399,7.08238212 C91.4709605,7.16305924 91.339453,7.16840672 91.2392129,7.22885644 C91.0681611,7.33278345 91.3739392,7.34045592 91.4367042,7.40044064 C91.4785475,7.44066295 91.5001589,7.52017758 91.5217703,7.57341984 C91.562694,7.67455687 91.4882037,7.69408678 91.4162424,7.754769 C91.3300267,7.82754116 91.261514,7.9265857 91.1709301,7.98750042 C91.1267877,8.01726028 91.0550563,8.04818263 91.000568,8.05725009 C90.9341245,8.06887504 90.8623931,8.03981267 90.7964094,8.06143507 C90.74468,8.07863999 90.6106434,8.17024457 90.6913412,8.22162683 C90.7189302,8.23929675 90.7741083,8.2286018 90.8042263,8.2276718 C90.8768773,8.22557931 90.9226291,8.23650676 90.9922913,8.25371168 C91.123569,8.28626153 91.2764581,8.36112618 91.4093451,8.36647366 C91.4939514,8.36996114 91.5309666,8.36810115 91.5472901,8.46900568 C91.5633837,8.56828272 91.5026879,8.63431241 91.4518781,8.70987456 C91.401988,8.78427422 91.3576157,8.84960641 91.2750786,8.89168872 C91.2054164,8.92679605 91.1228793,8.93446852 91.0594246,8.97608583 C91.0044765,9.01212316 90.9626331,9.06931789 90.900328,9.09907775 C90.814802,9.13976507 90.7414613,9.09907775 90.6584643,9.12163015 C90.5973087,9.13790507 90.5310951,9.21276973 90.4968388,9.26298949 C90.4439598,9.34017913 90.4798255,9.37110149 90.556385,9.4341087 C90.6281164,9.49316342 90.7127227,9.53245574 90.8039963,9.53733822 C90.8819353,9.5417557 90.978037,9.51408833 91.0431011,9.55919312 C91.0702302,9.57802553 91.1198905,9.64103274 91.1077053,9.67800007 C91.093451,9.72124487 91.0706901,9.70589994 91.0286168,9.71659489 C90.9559658,9.7347298 90.885154,9.76425717 90.8239984,9.80192199 C90.7423809,9.85190926 90.6899618,9.91096398 90.5917909,9.91631146 C90.5053454,9.92119394 90.4039558,9.89561906 90.3195794,9.91375397 C90.2483078,9.9293314 90.0786354,9.96281124 90.0763363,10.0534858 C90.0728877,10.1771752 90.2071542,10.2211175 90.2949792,10.2513424 C90.3952193,10.2859847 90.4963789,10.3348095 90.6005274,10.3566644 C90.6088041,10.3582919 90.6173107,10.3587569 90.6253575,10.3603844 C90.7285864,10.6456606 90.5451195,10.6758854 90.2575041,10.7540051 C90.2292254,10.9241943 90.5078744,11.0013839 90.5193698,11.1729681 C90.5331643,11.3787297 90.3848734,11.416627 90.2370423,11.4905617 C89.9986273,11.6105311 89.7643507,11.7265481 89.5061636,11.7974602 C89.1178483,11.9037122 88.7109105,11.8418675 88.3419076,12.0192642 C88.3814518,12.2199108 88.5787132,12.4461322 88.747236,12.5507567 C88.9435778,12.6725862 89.2256754,12.5858641 89.3905197,12.7339659 C89.499956,12.8320804 89.4496061,13.0499319 89.5682388,13.1308415 C89.6965277,13.2187261 89.9797748,13.1075916 90.1326639,13.1508364 C90.5161511,13.2591809 90.4885621,13.6602416 90.165081,13.8171783 C89.9901207,13.9025055 89.6949183,13.8790231 89.5031748,13.9092479 C89.0943977,13.9734176 88.654353,13.9778351 88.265578,14.1250069 C88.2561517,14.3993556 88.4322616,14.4305105 88.6341211,14.5260676 C88.8240254,14.6158121 88.9005849,14.7048592 89.0277242,14.8497061 C89.1661291,15.0066428 89.2714271,14.9589805 89.4815634,14.9631655 C89.6289346,14.966188 89.8273456,14.964793 89.9154005,15.1096398 C89.8606823,15.2756441 89.7815938,15.4909381 89.6542246,15.5618502 C89.5029449,15.826434 89.2323427,15.931756 89.0702573,16.1816924 C88.8923082,16.4562736 89.0449674,16.5223033 89.1882003,16.794792 C89.266599,16.9440563 89.384542,17.0737907 89.4576529,17.2135226 C89.1544038,17.3846418 88.840119,17.1937602 88.5626196,17.0770457 C88.2287926,16.9366164 87.9579606,16.7982795 87.5878081,16.7887471 C87.186618,16.7782846 86.5631065,16.9347564 86.5001116,16.3239817 C86.4683842,16.0166181 87.0348785,15.8961837 86.9879771,15.7034421 C86.5780505,15.5732427 86.5631065,15.080345 86.9084288,14.8855109 C87.0797106,14.7892563 87.4160665,14.7790264 87.3910065,14.5037477 C87.3749129,14.3256535 87.1696048,14.2905462 87.0422355,14.1926641 C87.0401663,14.0510723 87.2415661,13.9557477 87.2859384,13.7976484 C87.3332995,13.6297842 87.3358285,13.4112352 87.2194949,13.2735959 C87.0325794,13.0524894 86.692315,13.0748093 86.5198837,12.8255705 C86.40378,12.6579387 86.4106772,12.5133244 86.4962031,12.3431352 C86.3950434,12.2068908 85.9060283,12.1722485 86.0612165,11.947422 C86.2198533,11.7172481 86.6886364,11.7776978 86.8599182,11.5079991 C86.9923454,11.2985175 86.7596781,11.2615502 86.6125368,11.1557632 C86.4428644,11.0334688 86.2745715,10.8990844 86.1223721,10.7563301 C85.9285594,10.5740509 85.4073571,10.1274205 85.7140548,9.8214519 C85.8326876,9.70287745 86.2327281,9.78518207 86.2134158,9.52269079 C86.2016905,9.36528902 85.9860364,9.34320162 85.8708524,9.25787452 C85.7301484,9.153715 85.6317476,9.00747318 85.4901241,8.90470866 C85.4087365,8.84565393 85.2163032,8.79194668 85.2013592,8.67430223 C85.1923927,8.60432005 85.3084965,8.52573542 85.3133245,8.45784573 C85.3206816,8.34764124 85.1429624,8.21581436 85.1130743,8.11002735 C85.0604253,7.92426071 85.1236501,7.86683348 85.236995,7.72547413 C85.3770092,7.55109994 85.5282889,7.34161841 85.2556175,7.26791626 C85.0167427,7.20351406 84.8194814,7.24141138 84.6100348,7.12237193 C84.5127836,7.06726969 84.5084153,7.11004949 84.4316259,7.00681997 C84.37116,6.92567785 84.2916117,6.7208463 84.3033371,6.61924427 C84.3304662,6.39186032 84.5350847,6.37884038 84.7114244,6.31257819 C84.913284,6.23678354 85.0753694,6.06078186 85.1606654,5.8587403 C84.9114447,5.74458333 84.3798965,5.84641786 84.258275,5.51138691 C84.3421916,5.32841026 84.7479798,5.32957276 84.9059269,5.23773568 C85.0553673,5.15078109 85.0332961,5.06940646 85.0270886,4.89805476 C84.7732698,4.81993512 84.2421814,4.78296779 84.1630929,4.50582908 C84.1320553,4.39748458 84.1042364,4.11104591 84.1819454,4.02571881 C84.2865537,3.91039934 84.5148528,3.98805398 84.5541671,3.76694751 C84.4357643,3.64325808 84.3690908,3.55188601 84.2276972,3.46074643 C83.9315752,3.27032982 83.600967,2.98435614 83.4432498,2.66722762 C83.3765764,2.53307574 83.2305846,2.43240371 83.2101227,2.30290181 C83.1790851,2.10527773 83.41773,2.02274061 83.5368225,1.92509106 C83.7154613,1.77884924 83.7655814,1.64446486 83.5329141,1.56309024 C83.3731278,1.5072905 83.3078338,1.4649757 83.1788552,1.34547125 C83.0448186,1.22131683 82.8539947,1.14900967 82.74019,0.999977857 C82.5277547,0.72144415 82.612361,0.315966033 82.5086723,0 C82.5392501,0.25412132 82.4261352,0.530097539 82.3550935,0.764456451 C82.3217568,0.873498444 82.3171586,1.05066262 82.1996754,1.1206448 C82.0750651,1.19457945 81.9458566,1.11483232 81.81182,1.16040211 C81.7658383,1.29850647 81.8384894,1.44056331 81.899645,1.56309024 C81.9918383,1.74676439 82.0529939,1.79489167 82.0014944,1.98275079 C81.8757345,2.44077367 81.3966055,2.10458023 81.1565811,2.4131063 C81.2685465,2.73255981 81.5920276,3.10851057 81.2731447,3.37146685 C81.144396,3.47748635 81.0098996,3.56351096 80.8547114,3.65046555 C80.6537715,3.76322753 80.5310004,3.7269577 80.3358082,3.77880496 C80.4165061,3.89575191 80.5022619,4.00990888 80.5845691,4.12615834 C80.6588295,4.23101536 80.8314907,4.34772981 80.8588498,4.46932675 C80.5965243,4.6299835 80.2776414,4.66741583 80.0079589,4.82319011 C79.9488724,4.85713495 79.7380465,4.95013452 79.7180444,5.01221173 C79.6837881,5.11985873 79.7134463,5.05917651 79.759198,5.13845864 C80.0456639,5.63437884 80.6930858,5.13706365 81.094046,5.28981544 C81.0894479,5.51882688 80.768036,5.69110858 80.5969841,5.76388074 C80.2249924,5.92174751 79.7879366,5.99428717 79.455719,6.25398846 C79.5352673,6.33489809 79.6575785,6.35907798 79.7559793,6.40860025 C79.7458633,6.44998505 79.7359773,6.49113736 79.7260912,6.53228967 C80.0173851,6.59924936 80.5084694,6.56739701 80.2013118,6.94427776 C80.0206038,7.16561673 79.7465531,7.17561418 79.4837678,7.18398415 C79.3609967,7.18816913 79.0062481,7.16654673 78.9798086,7.32441349 C79.2115563,7.39369817 79.4219224,7.43508298 79.6401055,7.53970749 C79.9143862,7.67153438 80.379031,7.87683093 80.6882578,7.81289373 C80.5452548,7.84242109 80.3962741,8.01377279 80.3312101,8.13862471 C80.4512222,8.35996369 80.5588194,8.42948086 80.5514623,8.69638962 C80.542036,9.03746554 80.4785813,9.1320926 80.1610779,9.18207987 C80.0504919,9.53687322 80.7282618,9.84191181 80.7041214,10.1911252 C80.3436251,10.2571549 80.1309599,10.328067 79.8015012,10.1609003 C79.5580282,10.0369784 79.3644453,9.89166657 79.4593975,9.57709553 C79.5203232,9.55640313 79.5973425,9.56198311 79.6603374,9.56151811 C79.5573385,9.37807646 79.3136356,9.04444051 79.365365,8.8084541 C79.4055989,8.62501246 79.6046996,8.61222501 79.7559793,8.51759795 C79.8060993,8.27789157 79.2327078,8.18047452 79.0956825,8.09165993 C79.0359063,8.05283261 78.9375055,7.97378298 78.8929033,7.91542575 C78.8377253,7.84265359 78.8570376,7.84846606 78.8200223,7.77894888 C78.7848463,7.71291919 78.8080671,7.69501677 78.745532,7.63782204 C78.6795483,7.57783732 78.6303479,7.60829468 78.5882747,7.53389502 C78.5588464,7.48158276 78.5993103,7.41462307 78.5689624,7.35766084 C78.5441323,7.31046356 78.4682625,7.29465363 78.4432025,7.24699135 C78.3604355,7.08842709 78.4592961,7.0635497 78.5650539,7.00472748 C78.7696724,6.8915005 79.0554485,6.77129856 79.1887953,6.55972454 C79.0924637,6.5267097 78.9892349,6.57855696 78.8945126,6.55181958 C78.8112858,6.52856969 78.745532,6.44556757 78.6629949,6.40674025 C78.4887243,6.32536563 78.3569868,6.21911363 78.190993,6.10821164 C78.0585658,6.01986205 77.8980897,6.02079205 77.7780776,5.93406995 C77.6879535,5.86920275 77.4916117,5.60113149 77.5667918,5.48069705 C77.6187511,5.39722994 77.7258884,5.45395968 77.7665821,5.31818031 C77.8001488,5.20541833 77.7233594,5.23215571 77.7245089,5.15101358 C77.7270379,4.97408191 77.8840653,4.94362455 78.0307469,4.88015234 C78.1617946,4.82319011 78.5261994,4.75413793 78.5153937,4.56093132 C78.5068871,4.4151545 78.2836461,4.38795213 78.1916827,4.36446974 C78.0443115,4.32703741 77.8911925,4.32308493 77.7502586,4.25496274 C77.6118538,4.18800306 77.4729891,4.12825083 77.3281469,4.06431363 C77.1623829,3.99130897 77.0104135,3.93876421 76.8570646,3.84832213 C76.7393515,3.77926995 76.5922102,3.75974004 76.4820841,3.67162295 C76.3728776,3.58397086 76.2887311,3.43703154 76.1717077,3.35007695 C76.0287047,3.24382494 75.9843324,3.26079736 75.9149001,3.09363064 C75.8502958,2.93855386 75.8707577,2.81416693 75.8445481,2.65351018 C75.9604219,2.70489244 76.0721574,2.77394462 76.1926294,2.81230694 C76.3218379,2.85322675 76.449667,2.86345671 76.5922102,2.85531924 C76.6535957,2.85159926 76.7625723,2.8429968 76.8166007,2.81835191 C76.9304054,2.76650466 76.8131521,2.72604984 76.770849,2.68327004 C76.735673,2.64746521 76.7395814,2.63723526 76.6965886,2.6056154 C76.6533658,2.57353055 76.6099131,2.5412132 76.5666903,2.50889585 C76.4995571,2.45867608 76.4517361,2.39566888 76.3887413,2.34451911 C76.3170098,2.28639438 76.2457382,2.24547457 76.1834331,2.17316741 C76.1363019,2.11829767 76.0854921,2.07389037 76.0296244,2.02739059 C75.9247862,1.939506 75.7916692,1.84115895 75.7066031,1.73211696 C75.6656794,1.6795722 75.6424587,1.60959003 75.6387801,1.54565282 C75.6339521,1.47264816 75.6762552,1.4438183 75.6810833,1.37732361 C75.7518951,1.41568593 75.8344322,1.43591333 75.9116814,1.47660064 C75.9990466,1.52240293 76.1482571,1.53286538 76.248957,1.50589551 C76.2797647,1.38685606 76.1694087,1.27641907 76.0905501,1.20108942 C76.0422693,1.15505464 75.9799642,1.12110979 75.9314535,1.076005 C75.8868513,1.03508519 75.8502958,0.976960464 75.8086824,0.933018168 C75.7571829,0.878380922 75.7141901,0.810026239 75.6659093,0.752366507 C75.6148697,0.691684289 75.5385401,0.656111954 75.4849714,0.599149718 C75.4123204,0.522192576 75.4141597,0.354793353 75.3288636,0.298063616 C75.3196673,0.291786145 75.3107009,0.288298661 75.3017345,0.285741173 C75.292768,0.252726327 75.2794333,0.223431463 75.257822,0.204134052 L75.2667884,0.28643867 C75.2509247,0.290391152 75.2357508,0.298296115 75.2210366,0.310851057 C75.1941373,0.333403452 75.1837915,0.387343202 75.1725259,0.415010573 C75.1214863,0.539164997 75.0605606,0.657274448 75.0263042,0.787706343 C74.996876,0.900700818 74.9672178,0.993467887 74.9154884,1.0976274 C74.8200764,1.29060151 74.7058119,1.47171817 74.5920073,1.65050984 C74.5411976,1.73002447 74.4499239,1.76117932 74.4032525,1.84790142 C74.3664672,1.91579111 74.3740542,1.99902572 74.4814214,1.95368843 C74.5414275,1.92811355 74.6372993,1.8302315 74.68558,1.77908174 C74.7467356,1.71491204 74.8191568,1.6807347 74.8918078,1.62191247 C74.9462961,1.57797017 74.9948068,1.45497824 75.0518241,1.43126335 C75.1079217,1.40778096 75.149765,1.48078562 75.1642492,1.54379283 C75.179883,1.61168252 75.1536735,1.71607453 75.1217162,1.77722175 C75.0663083,1.88370625 75.0026237,1.99437574 74.923995,2.08714281 C74.8297326,2.19850979 74.7644386,2.32824419 74.6770734,2.44286616 C74.5862596,2.5623706 74.4910775,2.65327768 74.3791121,2.75115973 C74.2699057,2.84671678 74.1574805,2.93529887 74.0459749,3.02643845 C73.9694154,3.08921316 73.8427359,3.17779525 73.8029618,3.26056486 C73.985509,3.3170621 74.1450654,3.21081009 74.3025527,3.13757293 C74.4129087,3.08642317 74.5386686,3.06201078 74.6421273,2.99551609 C74.7582311,2.92088394 74.8281232,2.77998959 74.923995,2.68257255 C75.0113602,2.59375796 75.0412483,2.55655813 75.1633296,2.60491791 C75.2559827,2.64165274 75.2782838,2.67815507 75.2663286,2.79324203 C75.2513845,2.93320638 75.1734456,3.0364359 75.0743551,3.12966797 C74.9474457,3.24847492 74.8375494,3.38262679 74.7037428,3.49538877 C74.5871792,3.59420081 74.4703858,3.70068532 74.3434763,3.78601242 C74.2662271,3.83785968 74.1813909,3.87854699 74.1048315,3.92969675 C74.0880481,3.94527418 74.0744836,3.9634091 74.0641377,3.9841015 C74.0471245,3.98991398 74.0301112,3.99456395 74.0128681,3.99874893 C73.9825202,4.01804634 73.9661967,4.03478627 73.9294114,4.05129369 C73.8406667,4.0912835 73.7516922,4.11034842 73.6638672,4.15475571 C73.5817899,4.19614052 73.5275315,4.23357284 73.4371775,4.25705524 C73.3649863,4.27612015 73.2927951,4.29239507 73.220144,4.30959999 C73.1541603,4.32517742 73.0357575,4.33424488 72.9785103,4.36935221 C72.9408054,4.39213711 72.9513811,4.40399455 72.9162052,4.43979939 C72.8778105,4.4790917 72.8196436,4.48908916 72.7771106,4.5228015 C72.730899,4.55907133 72.7125063,4.59696866 72.6490516,4.6099886 C72.5632958,4.62719352 72.4888055,4.57255627 72.4041992,4.5658138 C72.3028096,4.55767634 72.2000406,4.55256136 72.0984211,4.5455864 C72.0832471,4.5446564 71.8308077,4.55070137 71.85012,4.59045869 C71.9188626,4.73251553 71.9643845,4.87945485 72.0765798,4.98128937 C72.2055584,5.09893383 72.4170741,5.08103141 72.5163945,5.25982308 C72.3814383,5.36630759 72.1991209,5.48092955 72.3430436,5.67134617 C72.5239815,5.91058756 72.9851777,5.65855873 73.2217534,5.76806572 C73.1631268,6.00033214 72.7872266,6.16540637 72.6108868,6.29421078 C72.349481,6.48509239 72.1706123,6.62156926 71.8701221,6.76013861 C71.7213713,6.82337832 71.5790581,6.89963797 71.4434121,6.98915005 C71.3422524,7.02844237 71.2502891,7.08191712 71.1672922,7.14957431 C71.1268283,7.23280892 71.1045272,7.26280128 71.1914325,7.34766339 C71.4047875,7.55621492 71.8032187,7.35556835 72.0625554,7.42764301 C72.1092268,7.65758445 72.02577,7.9038008 72.073591,8.13397474 C72.2354465,8.14559968 72.5140954,8.00168285 72.6777902,7.95960054 C72.8568888,7.91379826 73.0601278,7.72012666 73.2445143,7.74128406 C73.2645163,7.87962092 73.0835785,8.15768963 73.0175948,8.28905152 C72.9435643,8.43622333 72.8267708,8.55572778 72.7417047,8.69569213 C72.6860669,8.7872967 72.6485918,8.88959623 72.5734118,8.96585587 C72.1255503,9.42085626 71.3824864,9.39551388 70.9095649,9.78169458 C70.9530175,9.85841923 70.9679616,9.94514133 70.9785374,10.0320959 C71.2810968,10.1776402 71.7443622,9.94421133 72.0662339,10.0579033 C71.9639247,10.3090021 71.6583764,10.5787009 71.4328363,10.7207577 C70.9911823,10.9985939 70.4688305,11.1429758 70.0221185,11.4173245 C70.1386821,11.5445014 70.1225885,11.6788858 70.289502,11.7916478 C70.5364236,11.9588145 70.8369138,11.9829944 71.1190114,12.0406541 C71.0932617,12.605394 71.7827569,12.3573176 72.0689928,12.2850105 C72.5157048,12.172946 72.9277006,12.062044 73.3836089,12.1827109 C73.2587686,12.1936384 73.2231328,12.3343002 73.170024,12.4242773 C73.092315,12.5554067 73.0235724,12.5881891 72.898962,12.6651462 C72.7171045,12.7779082 72.5786997,12.9476324 72.3867262,13.0576044 C72.0303682,13.2612734 71.7733306,13.4972598 71.3721405,13.6125793 C70.9206005,13.7423137 70.4936606,13.9190129 70.0366028,14.0292174 C69.9372823,14.2426514 70.4157217,14.1956866 70.1694898,14.4844503 C70.0584441,14.6146496 69.9000372,14.6244146 69.9995875,14.8101812 C70.0653413,14.9331732 70.2170808,14.9522381 70.3380126,14.9866479 C70.6706901,15.08081 71.0185414,15.0431452 71.3622545,15.0445402 C71.519052,15.0452376 71.6728607,15.0566301 71.827589,15.0268702 C71.9993306,14.9936229 72.1683132,14.9199207 72.3455726,14.9729305 C72.2747608,15.1689271 72.0742807,15.2570442 71.9025391,15.3300488 C71.6983805,15.4167709 71.5631944,15.5755677 71.3705312,15.6776347 C71.1532677,15.7927217 70.9284174,15.8773513 70.7249484,16.0210356 C70.6088447,16.1028752 70.5069953,16.1812274 70.3736484,16.2356321 C70.1917909,16.3097993 69.9952193,16.3690865 69.8085337,16.4281412 C69.5873618,16.4981234 69.381134,16.4595286 69.1519153,16.469526 C68.8369409,16.4837085 68.5366805,16.5734531 68.2182574,16.5588056 C68.0504243,16.5513657 67.6315313,16.5485757 67.4986442,16.4162838 C67.3671366,16.2853869 67.551983,16.2365621 67.6662474,16.149375 C67.8087906,16.040798 67.9492646,15.931291 68.071346,15.8027191 C68.2421679,15.622765 68.4410386,15.4530408 68.6058829,15.2749466 C68.7160091,15.1559071 68.6794536,15.1652071 68.5959969,15.0489576 C68.5113906,14.9310807 68.4037935,14.8473811 68.2982655,14.7567065 C68.2325117,14.7004417 68.0842208,14.6151146 68.06123,14.531415 C68.0012239,14.3154235 68.3090712,14.323096 68.3709166,14.1710417 C68.4166684,14.0587447 68.3189573,13.9738826 68.3060824,13.8671656 C68.5610508,13.8220608 68.8385502,13.7688186 69.0829428,13.676749 C69.2349123,13.6195543 69.7427799,13.461455 69.7064543,13.2317461 C69.4209081,13.1594389 69.1634108,13.1017792 68.9456875,12.9002026 C68.83901,12.8016231 68.4237955,12.5170444 68.4631098,12.3584801 C68.7189979,12.3505752 69.0038543,12.0222867 69.238131,11.9260321 C69.2107719,11.8446575 69.0909896,11.8046677 69.0082226,11.7690954 C68.8626906,11.7063206 68.7017547,11.6133211 68.5534638,11.5663563 C68.284471,11.4810292 68.0255942,11.4438294 67.7641884,11.3124675 C67.6138283,11.2369053 67.1638976,11.0034764 67.2222944,10.767955 C67.2450553,10.6779779 67.4276025,10.5893958 67.4954255,10.5182512 C67.5765832,10.4326916 67.652223,10.339692 67.7405078,10.2564574 C67.7119992,10.1392779 67.50922,10.0706907 67.4167968,9.98420114 C67.2993137,9.87446165 67.1572303,9.74867974 67.0572201,9.62499031 C66.9275518,9.46503106 66.9487034,9.3476191 67.1186057,9.24601707 C67.313568,9.12953511 67.53428,9.0253756 67.7405078,8.91238112 C67.6862495,8.68546217 67.6230246,8.63175492 67.7938466,8.45691574 C67.9603002,8.28649403 68.2306725,8.19930693 68.3527538,7.98912791 C68.1711262,7.92798069 67.8968455,7.97727046 67.702343,7.97727046 C67.4503635,7.97727046 67.2374683,7.99215039 67.002272,7.90752079 C66.7804105,7.82800616 66.5603881,7.79289882 66.3350779,7.71966166 C66.1311492,7.65339947 65.9125063,7.7110592 65.715015,7.64409951 C65.7292694,7.50622765 65.9594076,7.46716783 66.051371,7.37300577 C66.1479325,7.27372873 66.2359874,7.16398924 66.3350779,7.0640147 C66.5617676,6.83523576 66.7562701,6.71573132 67.0408966,6.58785691 C67.1668864,6.53089468 67.3680563,6.49392735 67.4282923,6.34373305 C67.4853095,6.20144371 67.448984,6.01986205 67.5195659,5.8801302 C67.642107,5.63786632 68.2798729,5.64786378 68.2978057,5.31515782 C68.3106806,5.07917142 68.0632992,5.12822869 67.9053521,5.12055623 C67.732461,5.11195377 67.5434763,5.05499153 67.3733442,5.02151169 C67.2296514,4.99337932 67.0328498,4.89875226 66.8847889,4.82109762 C66.7233932,4.73646801 66.5661358,4.72158808 66.4134767,4.64207345 C65.6159245,4.22706287 65.1262197,3.31520211 65,2.41891877 L65,20.8412032 L99,21 L98.6859452,20.1265016 Z" id="Fill-1" fill="#D9E6F4"></path>
                            <path d="M51.6859452,23.1265016 C51.7696318,23.5219822 50.7584948,23.4087552 50.5439903,23.2911108 C50.2894817,23.1511464 49.9032356,22.8063505 50.3110931,22.6064015 C50.5343341,22.4968945 50.7766575,22.5403718 50.9941509,22.382505 C51.2231396,22.2167333 51.3328059,22.0160867 51.0851946,21.853105 C50.3876526,21.3946171 49.3744464,22.0349191 48.7272543,21.5004041 C48.7419684,21.3011525 49.0852216,21.2495378 49.2353518,21.2069905 C48.9665889,20.7289727 49.5691788,20.7422251 49.7823038,20.4269566 C49.8213882,20.3692969 49.9257666,20.1365654 49.9007066,20.0303134 C49.8597829,19.8564042 49.5875714,19.808277 49.4450282,19.7517797 C49.1509754,19.6357628 48.8502553,19.5323007 48.5476958,19.4406962 C48.4453866,19.4097738 48.3129594,19.3955914 48.2541029,19.2898044 C48.0331609,18.8933937 48.7415086,18.5906801 48.9102614,18.3300488 C48.8688778,18.2026394 48.5490753,18.1617196 48.4276837,18.1428872 C48.1563918,18.1005724 48.050404,18.0952249 47.9320012,17.8173887 C48.0391385,17.5802398 48.6782838,17.7332241 48.7208169,17.4135381 C48.7327721,17.322166 48.6162085,17.1580218 48.5614903,17.0991995 C48.3612402,16.8839055 48.1894986,16.8153184 48.0352301,16.5451546 C48.0768435,16.4384376 48.1488048,16.3689204 48.251114,16.3363706 C48.3205464,16.3238156 48.3660682,16.2845233 48.3869899,16.2187261 C48.06052,15.8904377 48.5966663,15.5544767 48.7734659,15.3498777 C48.2851405,15.2743155 47.8499239,15.0885489 47.3733239,14.9550945 C47.275153,14.9274271 46.8872976,14.8097827 46.7226832,14.6581934 C46.8105082,14.6709808 46.8983332,14.6828383 46.9873077,14.6981832 C47.1089292,14.7193406 47.2443453,14.737708 47.3675762,14.7435205 C47.4441356,14.747473 47.4979342,14.7239906 47.5703553,14.7139931 C47.6492139,14.7032982 47.7023228,14.6995782 47.7781925,14.6721433 C47.8627988,14.6414535 47.9370592,14.6451734 48.0239646,14.6293635 C48.0929371,14.6168086 48.1561619,14.6130886 48.2249045,14.6040211 C48.2720357,14.5977437 48.2734152,14.6161111 48.2947966,14.5719363 C48.3033032,14.5544989 48.2968658,14.4445269 48.2947966,14.4305769 C48.2750245,14.2945651 48.2306522,14.3343224 48.1297224,14.3717547 C48.022815,14.411512 47.9857998,14.3787297 47.8837205,14.3603623 C47.8207256,14.3492023 47.7450857,14.3638497 47.6809413,14.3629197 C47.5703553,14.3612923 47.5225344,14.2938676 47.4163167,14.2657352 C47.2627379,14.2248154 47.1930757,14.199008 47.0762822,14.0806661 C46.9907563,13.993944 46.926382,13.9018744 46.8169456,13.8430522 C46.8240728,13.8470046 46.7353281,13.8121298 46.7288907,13.8032948 C46.6799202,13.7316852 46.7528012,13.653798 46.7948744,13.6121807 C46.9020117,13.5063937 47.0284613,13.454314 47.1677858,13.3985142 C47.2806708,13.3534094 47.5765629,13.225535 47.546215,13.0525558 C47.5326504,12.9749012 47.4641377,12.9886186 47.4050512,12.9595563 C47.345275,12.9300289 47.3018224,12.8932941 47.2307807,12.8793441 C47.1273219,12.8586517 47.0606485,12.8881791 46.964087,12.8379593 C46.8967238,12.8030845 46.8282111,12.7730921 46.7596984,12.7442623 C46.7100382,12.7233374 46.6003719,12.6745126 46.5939345,12.6054604 C46.5891064,12.5566356 46.5966934,12.5733756 46.6210637,12.5443132 C46.6247422,12.5398957 46.6921054,12.4787485 46.6992325,12.4745635 C46.7187747,12.468286 46.7385468,12.4641011 46.7590087,12.4613111 C46.7819995,12.4431762 46.8045305,12.4243437 46.825912,12.4045813 C46.8714339,12.3859814 46.9192548,12.4069063 46.9659262,12.3920264 C47.0070798,12.3790065 47.1059404,12.3364592 47.1291612,12.2971668 C47.1427258,12.2736844 47.1441052,12.2130022 47.1291612,12.1897523 C47.0990432,12.143485 47.0737533,12.1678974 47.0321398,12.15883 C46.9620178,12.143485 46.8976434,12.1046577 46.8277513,12.0876853 C46.768205,12.0737354 46.6870474,12.0725729 46.6311796,12.0476955 C46.5665754,12.0188656 46.5169152,11.9428385 46.4530006,11.9072661 C46.3037901,11.8240315 46.1842378,11.7403319 46.0775603,11.5989726 C45.9938736,11.4876056 45.8453528,11.2571992 46.0267505,11.183032 C46.1642357,11.1269998 46.2913751,11.1179323 46.4412753,11.1260698 C46.3470129,11.072595 46.4279406,11.0009854 46.3833384,10.9365832 C46.3486222,10.8865959 46.2571187,10.8821784 46.1980323,10.8833409 C46.0357169,10.8863634 45.9042094,10.8475361 45.7917842,10.7282641 C45.669243,10.5980647 45.6625756,10.4192731 45.8400649,10.3390609 C45.9651351,10.2825637 46.1387159,10.3378984 46.2350475,10.2288564 C46.2053893,10.1858441 46.1566487,10.1974691 46.1125063,10.1867741 C46.0568685,10.1732892 45.9993914,10.1430643 45.9499611,10.115862 C45.9131758,10.0956346 45.8796092,10.0686647 45.8419042,10.0477398 C45.789715,10.0189099 45.762126,9.98636006 45.7179836,9.95241522 C45.6674037,9.9135879 45.6278595,9.89359299 45.5816479,9.8498832 C45.5423336,9.81314837 45.4954323,9.7838535 45.4579572,9.74758367 C45.4489908,9.73921371 45.4411739,9.72991375 45.4326673,9.72131129 C45.3873753,9.52996468 45.302999,9.30234824 45.1625249,9.26933339 C45.1753998,9.27235588 44.8452514,9.75804612 44.8266288,9.78873598 C44.7994996,9.83291078 44.7744396,9.90847292 44.7443216,9.94474276 C44.7047774,9.99147504 44.6231599,10.0430898 44.5730399,10.0823821 C44.4709605,10.1630592 44.339453,10.1684067 44.2392129,10.2288564 C44.0681611,10.3327835 44.3739392,10.3404559 44.4367042,10.4004406 C44.4785475,10.440663 44.5001589,10.5201776 44.5217703,10.5734198 C44.562694,10.6745569 44.4882037,10.6940868 44.4162424,10.754769 C44.3300267,10.8275412 44.261514,10.9265857 44.1709301,10.9875004 C44.1267877,11.0172603 44.0550563,11.0481826 44.000568,11.0572501 C43.9341245,11.068875 43.8623931,11.0398127 43.7964094,11.0614351 C43.74468,11.07864 43.6106434,11.1702446 43.6913412,11.2216268 C43.7189302,11.2392967 43.7741083,11.2286018 43.8042263,11.2276718 C43.8768773,11.2255793 43.9226291,11.2365068 43.9922913,11.2537117 C44.123569,11.2862615 44.2764581,11.3611262 44.4093451,11.3664737 C44.4939514,11.3699611 44.5309666,11.3681011 44.5472901,11.4690057 C44.5633837,11.5682827 44.5026879,11.6343124 44.4518781,11.7098746 C44.401988,11.7842742 44.3576157,11.8496064 44.2750786,11.8916887 C44.2054164,11.9267961 44.1228793,11.9344685 44.0594246,11.9760858 C44.0044765,12.0121232 43.9626331,12.0693179 43.900328,12.0990778 C43.814802,12.1397651 43.7414613,12.0990778 43.6584643,12.1216301 C43.5973087,12.1379051 43.5310951,12.2127697 43.4968388,12.2629895 C43.4439598,12.3401791 43.4798255,12.3711015 43.556385,12.4341087 C43.6281164,12.4931634 43.7127227,12.5324557 43.8039963,12.5373382 C43.8819353,12.5417557 43.978037,12.5140883 44.0431011,12.5591931 C44.0702302,12.5780255 44.1198905,12.6410327 44.1077053,12.6780001 C44.093451,12.7212449 44.0706901,12.7058999 44.0286168,12.7165949 C43.9559658,12.7347298 43.885154,12.7642572 43.8239984,12.801922 C43.7423809,12.8519093 43.6899618,12.910964 43.5917909,12.9163115 C43.5053454,12.9211939 43.4039558,12.8956191 43.3195794,12.913754 C43.2483078,12.9293314 43.0786354,12.9628112 43.0763363,13.0534858 C43.0728877,13.1771752 43.2071542,13.2211175 43.2949792,13.2513424 C43.3952193,13.2859847 43.4963789,13.3348095 43.6005274,13.3566644 C43.6088041,13.3582919 43.6173107,13.3587569 43.6253575,13.3603844 C43.7285864,13.6456606 43.5451195,13.6758854 43.2575041,13.7540051 C43.2292254,13.9241943 43.5078744,14.0013839 43.5193698,14.1729681 C43.5331643,14.3787297 43.3848734,14.416627 43.2370423,14.4905617 C42.9986273,14.6105311 42.7643507,14.7265481 42.5061636,14.7974602 C42.1178483,14.9037122 41.7109105,14.8418675 41.3419076,15.0192642 C41.3814518,15.2199108 41.5787132,15.4461322 41.747236,15.5507567 C41.9435778,15.6725862 42.2256754,15.5858641 42.3905197,15.7339659 C42.499956,15.8320804 42.4496061,16.0499319 42.5682388,16.1308415 C42.6965277,16.2187261 42.9797748,16.1075916 43.1326639,16.1508364 C43.5161511,16.2591809 43.4885621,16.6602416 43.165081,16.8171783 C42.9901207,16.9025055 42.6949183,16.8790231 42.5031748,16.9092479 C42.0943977,16.9734176 41.654353,16.9778351 41.265578,17.1250069 C41.2561517,17.3993556 41.4322616,17.4305105 41.6341211,17.5260676 C41.8240254,17.6158121 41.9005849,17.7048592 42.0277242,17.8497061 C42.1661291,18.0066428 42.2714271,17.9589805 42.4815634,17.9631655 C42.6289346,17.966188 42.8273456,17.964793 42.9154005,18.1096398 C42.8606823,18.2756441 42.7815938,18.4909381 42.6542246,18.5618502 C42.5029449,18.826434 42.2323427,18.931756 42.0702573,19.1816924 C41.8923082,19.4562736 42.0449674,19.5223033 42.1882003,19.794792 C42.266599,19.9440563 42.384542,20.0737907 42.4576529,20.2135226 C42.1544038,20.3846418 41.840119,20.1937602 41.5626196,20.0770457 C41.2287926,19.9366164 40.9579606,19.7982795 40.5878081,19.7887471 C40.186618,19.7782846 39.5631065,19.9347564 39.5001116,19.3239817 C39.4683842,19.0166181 40.0348785,18.8961837 39.9879771,18.7034421 C39.5780505,18.5732427 39.5631065,18.080345 39.9084288,17.8855109 C40.0797106,17.7892563 40.4160665,17.7790264 40.3910065,17.5037477 C40.3749129,17.3256535 40.1696048,17.2905462 40.0422355,17.1926641 C40.0401663,17.0510723 40.2415661,16.9557477 40.2859384,16.7976484 C40.3332995,16.6297842 40.3358285,16.4112352 40.2194949,16.2735959 C40.0325794,16.0524894 39.692315,16.0748093 39.5198837,15.8255705 C39.40378,15.6579387 39.4106772,15.5133244 39.4962031,15.3431352 C39.3950434,15.2068908 38.9060283,15.1722485 39.0612165,14.947422 C39.2198533,14.7172481 39.6886364,14.7776978 39.8599182,14.5079991 C39.9923454,14.2985175 39.7596781,14.2615502 39.6125368,14.1557632 C39.4428644,14.0334688 39.2745715,13.8990844 39.1223721,13.7563301 C38.9285594,13.5740509 38.4073571,13.1274205 38.7140548,12.8214519 C38.8326876,12.7028775 39.2327281,12.7851821 39.2134158,12.5226908 C39.2016905,12.365289 38.9860364,12.3432016 38.8708524,12.2578745 C38.7301484,12.153715 38.6317476,12.0074732 38.4901241,11.9047087 C38.4087365,11.8456539 38.2163032,11.7919467 38.2013592,11.6743022 C38.1923927,11.6043201 38.3084965,11.5257354 38.3133245,11.4578457 C38.3206816,11.3476412 38.1429624,11.2158144 38.1130743,11.1100273 C38.0604253,10.9242607 38.1236501,10.8668335 38.236995,10.7254741 C38.3770092,10.5510999 38.5282889,10.3416184 38.2556175,10.2679163 C38.0167427,10.2035141 37.8194814,10.2414114 37.6100348,10.1223719 C37.5127836,10.0672697 37.5084153,10.1100495 37.4316259,10.00682 C37.37116,9.92567785 37.2916117,9.7208463 37.3033371,9.61924427 C37.3304662,9.39186032 37.5350847,9.37884038 37.7114244,9.31257819 C37.913284,9.23678354 38.0753694,9.06078186 38.1606654,8.8587403 C37.9114447,8.74458333 37.3798965,8.84641786 37.258275,8.51138691 C37.3421916,8.32841026 37.7479798,8.32957276 37.9059269,8.23773568 C38.0553673,8.15078109 38.0332961,8.06940646 38.0270886,7.89805476 C37.7732698,7.81993512 37.2421814,7.78296779 37.1630929,7.50582908 C37.1320553,7.39748458 37.1042364,7.11104591 37.1819454,7.02571881 C37.2865537,6.91039934 37.5148528,6.98805398 37.5541671,6.76694751 C37.4357643,6.64325808 37.3690908,6.55188601 37.2276972,6.46074643 C36.9315752,6.27032982 36.600967,5.98435614 36.4432498,5.66722762 C36.3765764,5.53307574 36.2305846,5.43240371 36.2101227,5.30290181 C36.1790851,5.10527773 36.41773,5.02274061 36.5368225,4.92509106 C36.7154613,4.77884924 36.7655814,4.64446486 36.5329141,4.56309024 C36.3731278,4.5072905 36.3078338,4.4649757 36.1788552,4.34547125 C36.0448186,4.22131683 35.8539947,4.14900967 35.74019,3.99997786 C35.5277547,3.72144415 35.612361,3.31596603 35.5086723,3 C35.5392501,3.25412132 35.4261352,3.53009754 35.3550935,3.76445645 C35.3217568,3.87349844 35.3171586,4.05066262 35.1996754,4.1206448 C35.0750651,4.19457945 34.9458566,4.11483232 34.81182,4.16040211 C34.7658383,4.29850647 34.8384894,4.44056331 34.899645,4.56309024 C34.9918383,4.74676439 35.0529939,4.79489167 35.0014944,4.98275079 C34.8757345,5.44077367 34.3966055,5.10458023 34.1565811,5.4131063 C34.2685465,5.73255981 34.5920276,6.10851057 34.2731447,6.37146685 C34.144396,6.47748635 34.0098996,6.56351096 33.8547114,6.65046555 C33.6537715,6.76322753 33.5310004,6.7269577 33.3358082,6.77880496 C33.4165061,6.89575191 33.5022619,7.00990888 33.5845691,7.12615834 C33.6588295,7.23101536 33.8314907,7.34772981 33.8588498,7.46932675 C33.5965243,7.6299835 33.2776414,7.66741583 33.0079589,7.82319011 C32.9488724,7.85713495 32.7380465,7.95013452 32.7180444,8.01221173 C32.6837881,8.11985873 32.7134463,8.05917651 32.759198,8.13845864 C33.0456639,8.63437884 33.6930858,8.13706365 34.094046,8.28981544 C34.0894479,8.51882688 33.768036,8.69110858 33.5969841,8.76388074 C33.2249924,8.92174751 32.7879366,8.99428717 32.455719,9.25398846 C32.5352673,9.33489809 32.6575785,9.35907798 32.7559793,9.40860025 C32.7458633,9.44998505 32.7359773,9.49113736 32.7260912,9.53228967 C33.0173851,9.59924936 33.5084694,9.56739701 33.2013118,9.94427776 C33.0206038,10.1656167 32.7465531,10.1756142 32.4837678,10.1839841 C32.3609967,10.1881691 32.0062481,10.1665467 31.9798086,10.3244135 C32.2115563,10.3936982 32.4219224,10.435083 32.6401055,10.5397075 C32.9143862,10.6715344 33.379031,10.8768309 33.6882578,10.8128937 C33.5452548,10.8424211 33.3962741,11.0137728 33.3312101,11.1386247 C33.4512222,11.3599637 33.5588194,11.4294809 33.5514623,11.6963896 C33.542036,12.0374655 33.4785813,12.1320926 33.1610779,12.1820799 C33.0504919,12.5368732 33.7282618,12.8419118 33.7041214,13.1911252 C33.3436251,13.2571549 33.1309599,13.328067 32.8015012,13.1609003 C32.5580282,13.0369784 32.3644453,12.8916666 32.4593975,12.5770955 C32.5203232,12.5564031 32.5973425,12.5619831 32.6603374,12.5615181 C32.5573385,12.3780765 32.3136356,12.0444405 32.365365,11.8084541 C32.4055989,11.6250125 32.6046996,11.612225 32.7559793,11.517598 C32.8060993,11.2778916 32.2327078,11.1804745 32.0956825,11.0916599 C32.0359063,11.0528326 31.9375055,10.973783 31.8929033,10.9154257 C31.8377253,10.8426536 31.8570376,10.8484661 31.8200223,10.7789489 C31.7848463,10.7129192 31.8080671,10.6950168 31.745532,10.637822 C31.6795483,10.5778373 31.6303479,10.6082947 31.5882747,10.533895 C31.5588464,10.4815828 31.5993103,10.4146231 31.5689624,10.3576608 C31.5441323,10.3104636 31.4682625,10.2946536 31.4432025,10.2469914 C31.3604355,10.0884271 31.4592961,10.0635497 31.5650539,10.0047275 C31.7696724,9.8915005 32.0554485,9.77129856 32.1887953,9.55972454 C32.0924637,9.5267097 31.9892349,9.57855696 31.8945126,9.55181958 C31.8112858,9.52856969 31.745532,9.44556757 31.6629949,9.40674025 C31.4887243,9.32536563 31.3569868,9.21911363 31.190993,9.10821164 C31.0585658,9.01986205 30.8980897,9.02079205 30.7780776,8.93406995 C30.6879535,8.86920275 30.4916117,8.60113149 30.5667918,8.48069705 C30.6187511,8.39722994 30.7258884,8.45395968 30.7665821,8.31818031 C30.8001488,8.20541833 30.7233594,8.23215571 30.7245089,8.15101358 C30.7270379,7.97408191 30.8840653,7.94362455 31.0307469,7.88015234 C31.1617946,7.82319011 31.5261994,7.75413793 31.5153937,7.56093132 C31.5068871,7.4151545 31.2836461,7.38795213 31.1916827,7.36446974 C31.0443115,7.32703741 30.8911925,7.32308493 30.7502586,7.25496274 C30.6118538,7.18800306 30.4729891,7.12825083 30.3281469,7.06431363 C30.1623829,6.99130897 30.0104135,6.93876421 29.8570646,6.84832213 C29.7393515,6.77926995 29.5922102,6.75974004 29.4820841,6.67162295 C29.3728776,6.58397086 29.2887311,6.43703154 29.1717077,6.35007695 C29.0287047,6.24382494 28.9843324,6.26079736 28.9149001,6.09363064 C28.8502958,5.93855386 28.8707577,5.81416693 28.8445481,5.65351018 C28.9604219,5.70489244 29.0721574,5.77394462 29.1926294,5.81230694 C29.3218379,5.85322675 29.449667,5.86345671 29.5922102,5.85531924 C29.6535957,5.85159926 29.7625723,5.8429968 29.8166007,5.81835191 C29.9304054,5.76650466 29.8131521,5.72604984 29.770849,5.68327004 C29.735673,5.64746521 29.7395814,5.63723526 29.6965886,5.6056154 C29.6533658,5.57353055 29.6099131,5.5412132 29.5666903,5.50889585 C29.4995571,5.45867608 29.4517361,5.39566888 29.3887413,5.34451911 C29.3170098,5.28639438 29.2457382,5.24547457 29.1834331,5.17316741 C29.1363019,5.11829767 29.0854921,5.07389037 29.0296244,5.02739059 C28.9247862,4.939506 28.7916692,4.84115895 28.7066031,4.73211696 C28.6656794,4.6795722 28.6424587,4.60959003 28.6387801,4.54565282 C28.6339521,4.47264816 28.6762552,4.4438183 28.6810833,4.37732361 C28.7518951,4.41568593 28.8344322,4.43591333 28.9116814,4.47660064 C28.9990466,4.52240293 29.1482571,4.53286538 29.248957,4.50589551 C29.2797647,4.38685606 29.1694087,4.27641907 29.0905501,4.20108942 C29.0422693,4.15505464 28.9799642,4.12110979 28.9314535,4.076005 C28.8868513,4.03508519 28.8502958,3.97696046 28.8086824,3.93301817 C28.7571829,3.87838092 28.7141901,3.81002624 28.6659093,3.75236651 C28.6148697,3.69168429 28.5385401,3.65611195 28.4849714,3.59914972 C28.4123204,3.52219258 28.4141597,3.35479335 28.3288636,3.29806362 C28.3196673,3.29178615 28.3107009,3.28829866 28.3017345,3.28574117 C28.292768,3.25272633 28.2794333,3.22343146 28.257822,3.20413405 L28.2667884,3.28643867 C28.2509247,3.29039115 28.2357508,3.29829612 28.2210366,3.31085106 C28.1941373,3.33340345 28.1837915,3.3873432 28.1725259,3.41501057 C28.1214863,3.539165 28.0605606,3.65727445 28.0263042,3.78770634 C27.996876,3.90070082 27.9672178,3.99346789 27.9154884,4.0976274 C27.8200764,4.29060151 27.7058119,4.47171817 27.5920073,4.65050984 C27.5411976,4.73002447 27.4499239,4.76117932 27.4032525,4.84790142 C27.3664672,4.91579111 27.3740542,4.99902572 27.4814214,4.95368843 C27.5414275,4.92811355 27.6372993,4.8302315 27.68558,4.77908174 C27.7467356,4.71491204 27.8191568,4.6807347 27.8918078,4.62191247 C27.9462961,4.57797017 27.9948068,4.45497824 28.0518241,4.43126335 C28.1079217,4.40778096 28.149765,4.48078562 28.1642492,4.54379283 C28.179883,4.61168252 28.1536735,4.71607453 28.1217162,4.77722175 C28.0663083,4.88370625 28.0026237,4.99437574 27.923995,5.08714281 C27.8297326,5.19850979 27.7644386,5.32824419 27.6770734,5.44286616 C27.5862596,5.5623706 27.4910775,5.65327768 27.3791121,5.75115973 C27.2699057,5.84671678 27.1574805,5.93529887 27.0459749,6.02643845 C26.9694154,6.08921316 26.8427359,6.17779525 26.8029618,6.26056486 C26.985509,6.3170621 27.1450654,6.21081009 27.3025527,6.13757293 C27.4129087,6.08642317 27.5386686,6.06201078 27.6421273,5.99551609 C27.7582311,5.92088394 27.8281232,5.77998959 27.923995,5.68257255 C28.0113602,5.59375796 28.0412483,5.55655813 28.1633296,5.60491791 C28.2559827,5.64165274 28.2782838,5.67815507 28.2663286,5.79324203 C28.2513845,5.93320638 28.1734456,6.0364359 28.0743551,6.12966797 C27.9474457,6.24847492 27.8375494,6.38262679 27.7037428,6.49538877 C27.5871792,6.59420081 27.4703858,6.70068532 27.3434763,6.78601242 C27.2662271,6.83785968 27.1813909,6.87854699 27.1048315,6.92969675 C27.0880481,6.94527418 27.0744836,6.9634091 27.0641377,6.9841015 C27.0471245,6.98991398 27.0301112,6.99456395 27.0128681,6.99874893 C26.9825202,7.01804634 26.9661967,7.03478627 26.9294114,7.05129369 C26.8406667,7.0912835 26.7516922,7.11034842 26.6638672,7.15475571 C26.5817899,7.19614052 26.5275315,7.23357284 26.4371775,7.25705524 C26.3649863,7.27612015 26.2927951,7.29239507 26.220144,7.30959999 C26.1541603,7.32517742 26.0357575,7.33424488 25.9785103,7.36935221 C25.9408054,7.39213711 25.9513811,7.40399455 25.9162052,7.43979939 C25.8778105,7.4790917 25.8196436,7.48908916 25.7771106,7.5228015 C25.730899,7.55907133 25.7125063,7.59696866 25.6490516,7.6099886 C25.5632958,7.62719352 25.4888055,7.57255627 25.4041992,7.5658138 C25.3028096,7.55767634 25.2000406,7.55256136 25.0984211,7.5455864 C25.0832471,7.5446564 24.8308077,7.55070137 24.85012,7.59045869 C24.9188626,7.73251553 24.9643845,7.87945485 25.0765798,7.98128937 C25.2055584,8.09893383 25.4170741,8.08103141 25.5163945,8.25982308 C25.3814383,8.36630759 25.1991209,8.48092955 25.3430436,8.67134617 C25.5239815,8.91058756 25.9851777,8.65855873 26.2217534,8.76806572 C26.1631268,9.00033214 25.7872266,9.16540637 25.6108868,9.29421078 C25.349481,9.48509239 25.1706123,9.62156926 24.8701221,9.76013861 C24.7213713,9.82337832 24.5790581,9.89963797 24.4434121,9.98915005 C24.3422524,10.0284424 24.2502891,10.0819171 24.1672922,10.1495743 C24.1268283,10.2328089 24.1045272,10.2628013 24.1914325,10.3476634 C24.4047875,10.5562149 24.8032187,10.3555683 25.0625554,10.427643 C25.1092268,10.6575844 25.02577,10.9038008 25.073591,11.1339747 C25.2354465,11.1455997 25.5140954,11.0016828 25.6777902,10.9596005 C25.8568888,10.9137983 26.0601278,10.7201267 26.2445143,10.7412841 C26.2645163,10.8796209 26.0835785,11.1576896 26.0175948,11.2890515 C25.9435643,11.4362233 25.8267708,11.5557278 25.7417047,11.6956921 C25.6860669,11.7872967 25.6485918,11.8895962 25.5734118,11.9658559 C25.1255503,12.4208563 24.3824864,12.3955139 23.9095649,12.7816946 C23.9530175,12.8584192 23.9679616,12.9451413 23.9785374,13.0320959 C24.2810968,13.1776402 24.7443622,12.9442113 25.0662339,13.0579033 C24.9639247,13.3090021 24.6583764,13.5787009 24.4328363,13.7207577 C23.9911823,13.9985939 23.4688305,14.1429758 23.0221185,14.4173245 C23.1386821,14.5445014 23.1225885,14.6788858 23.289502,14.7916478 C23.5364236,14.9588145 23.8369138,14.9829944 24.1190114,15.0406541 C24.0932617,15.605394 24.7827569,15.3573176 25.0689928,15.2850105 C25.5157048,15.172946 25.9277006,15.062044 26.3836089,15.1827109 C26.2587686,15.1936384 26.2231328,15.3343002 26.170024,15.4242773 C26.092315,15.5554067 26.0235724,15.5881891 25.898962,15.6651462 C25.7171045,15.7779082 25.5786997,15.9476324 25.3867262,16.0576044 C25.0303682,16.2612734 24.7733306,16.4972598 24.3721405,16.6125793 C23.9206005,16.7423137 23.4936606,16.9190129 23.0366028,17.0292174 C22.9372823,17.2426514 23.4157217,17.1956866 23.1694898,17.4844503 C23.0584441,17.6146496 22.9000372,17.6244146 22.9995875,17.8101812 C23.0653413,17.9331732 23.2170808,17.9522381 23.3380126,17.9866479 C23.6706901,18.08081 24.0185414,18.0431452 24.3622545,18.0445402 C24.519052,18.0452376 24.6728607,18.0566301 24.827589,18.0268702 C24.9993306,17.9936229 25.1683132,17.9199207 25.3455726,17.9729305 C25.2747608,18.1689271 25.0742807,18.2570442 24.9025391,18.3300488 C24.6983805,18.4167709 24.5631944,18.5755677 24.3705312,18.6776347 C24.1532677,18.7927217 23.9284174,18.8773513 23.7249484,19.0210356 C23.6088447,19.1028752 23.5069953,19.1812274 23.3736484,19.2356321 C23.1917909,19.3097993 22.9952193,19.3690865 22.8085337,19.4281412 C22.5873618,19.4981234 22.381134,19.4595286 22.1519153,19.469526 C21.8369409,19.4837085 21.5366805,19.5734531 21.2182574,19.5588056 C21.0504243,19.5513657 20.6315313,19.5485757 20.4986442,19.4162838 C20.3671366,19.2853869 20.551983,19.2365621 20.6662474,19.149375 C20.8087906,19.040798 20.9492646,18.931291 21.071346,18.8027191 C21.2421679,18.622765 21.4410386,18.4530408 21.6058829,18.2749466 C21.7160091,18.1559071 21.6794536,18.1652071 21.5959969,18.0489576 C21.5113906,17.9310807 21.4037935,17.8473811 21.2982655,17.7567065 C21.2325117,17.7004417 21.0842208,17.6151146 21.06123,17.531415 C21.0012239,17.3154235 21.3090712,17.323096 21.3709166,17.1710417 C21.4166684,17.0587447 21.3189573,16.9738826 21.3060824,16.8671656 C21.5610508,16.8220608 21.8385502,16.7688186 22.0829428,16.676749 C22.2349123,16.6195543 22.7427799,16.461455 22.7064543,16.2317461 C22.4209081,16.1594389 22.1634108,16.1017792 21.9456875,15.9002026 C21.83901,15.8016231 21.4237955,15.5170444 21.4631098,15.3584801 C21.7189979,15.3505752 22.0038543,15.0222867 22.238131,14.9260321 C22.2107719,14.8446575 22.0909896,14.8046677 22.0082226,14.7690954 C21.8626906,14.7063206 21.7017547,14.6133211 21.5534638,14.5663563 C21.284471,14.4810292 21.0255942,14.4438294 20.7641884,14.3124675 C20.6138283,14.2369053 20.1638976,14.0034764 20.2222944,13.767955 C20.2450553,13.6779779 20.4276025,13.5893958 20.4954255,13.5182512 C20.5765832,13.4326916 20.652223,13.339692 20.7405078,13.2564574 C20.7119992,13.1392779 20.50922,13.0706907 20.4167968,12.9842011 C20.2993137,12.8744617 20.1572303,12.7486797 20.0572201,12.6249903 C19.9275518,12.4650311 19.9487034,12.3476191 20.1186057,12.2460171 C20.313568,12.1295351 20.53428,12.0253756 20.7405078,11.9123811 C20.6862495,11.6854622 20.6230246,11.6317549 20.7938466,11.4569157 C20.9603002,11.286494 21.2306725,11.1993069 21.3527538,10.9891279 C21.1711262,10.9279807 20.8968455,10.9772705 20.702343,10.9772705 C20.4503635,10.9772705 20.2374683,10.9921504 20.002272,10.9075208 C19.7804105,10.8280062 19.5603881,10.7928988 19.3350779,10.7196617 C19.1311492,10.6533995 18.9125063,10.7110592 18.715015,10.6440995 C18.7292694,10.5062276 18.9594076,10.4671678 19.051371,10.3730058 C19.1479325,10.2737287 19.2359874,10.1639892 19.3350779,10.0640147 C19.5617676,9.83523576 19.7562701,9.71573132 20.0408966,9.58785691 C20.1668864,9.53089468 20.3680563,9.49392735 20.4282923,9.34373305 C20.4853095,9.20144371 20.448984,9.01986205 20.5195659,8.8801302 C20.642107,8.63786632 21.2798729,8.64786378 21.2978057,8.31515782 C21.3106806,8.07917142 21.0632992,8.12822869 20.9053521,8.12055623 C20.732461,8.11195377 20.5434763,8.05499153 20.3733442,8.02151169 C20.2296514,7.99337932 20.0328498,7.89875226 19.8847889,7.82109762 C19.7233932,7.73646801 19.5661358,7.72158808 19.4134767,7.64207345 C18.6159245,7.22706287 18.1262197,6.31520211 18,5.41891877 L18,23.8412032 L52,24 L51.6859452,23.1265016 Z" id="Fill-1-Copy" fill="#D9E6F4"></path>
                            <g id="Group-5" stroke-width="1" fill="none" transform="translate(18.000000, 4.000000)">
                                <mask id="mask-6" fill="white">
                                    <use xlink:href="#path-5"></use>
                                </mask>
                                <g id="Clip-4"></g>
                                <path d="M156.969352,22.7654871 L156.969352,32.839257 L68.3819718,32.839257 L69.7796082,9.89697589 C69.7796082,9.89697589 72.5776695,8.02644861 75.1631226,6.329226 C76.5786507,5.39524179 77.9307449,4.5163894 78.7205315,4.02369237 C80.9565174,2.62446074 84.8696672,1.2252291 85.9877763,0.665769068 C86.5405572,0.388946849 87.6435631,0.179120259 88.7521455,0.109100522 C89.879549,0.0360566756 91.0127615,0.103052305 91.5776251,0.385922741 C92.6927136,0.945615395 97.4442128,2.0650007 97.4442128,2.0650007 L104.43193,3.74361342 L111.975217,6.81866629 C111.975217,6.81866629 116.167894,9.61712956 117.286003,10.1765896 C118.40388,10.7362823 122.875852,12.9748202 123.714434,12.9748202 C124.553016,12.9748202 129.860549,14.6538982 129.860549,14.6538982 C129.860549,14.6538982 144.950608,18.5712815 146.068717,18.5712815 C147.186594,18.5712815 153.615024,20.2501269 153.615024,20.2501269 L156.969352,22.7654871 Z" id="Fill-3" fill="#8AACD2" mask="url(#mask-6)"></path>
                                <polygon id="Path-2" fill="#8AACD2" mask="url(#mask-6)" points="2.88124556 12.2018116 8.44134467 5.92136684 10.1215368 0.697871141 11.3953362 0.697871141 13.6410731 0.740327066 16.4091582 2.50447749 25.3642553 5.92136684 32.7186976 10.8665515 28.2138954 23.074644 14.8923016 24.9821585 16.0280902 26.50817 4.21498342 26.50817"></polygon>
                            </g>
                            <g id="Group-8" stroke-width="1" fill="none" transform="translate(34.000000, 6.000000)">
                                <mask id="mask-8" fill="white">
                                    <use xlink:href="#path-7"></use>
                                </mask>
                                <g id="Clip-7"></g>
                                <path d="M88.8569227,22.1658763 L88.8569227,31.9909472 L0.0588566419,31.9909472 L0.226086831,29.3211798 C0.226086831,29.3211798 4.26453287,7.79015315 6.85613498,6.13479297 C8.27502957,5.22384572 9.63033942,4.36667045 10.4220043,3.88612592 C12.6633081,2.52140669 16.5857644,1.15668746 17.7065328,0.611026659 C18.2606283,0.341259217 19.3662575,0.136381168 20.4777094,0.0680884855 C21.6075612,-0.00315371526 22.7434688,0.0621894498 23.3096758,0.338082813 C24.4274163,0.883970505 29.1902159,1.97574589 29.1902159,1.97574589 L36.1945522,3.61318208 L43.756012,6.61216109 C43.756012,6.61216109 47.9584275,9.34159955 49.0791958,9.88748724 C50.1997312,10.433148 54.6823388,12.6164719 55.523148,12.6164719 C56.3634913,12.6164719 61.6836473,14.254135 61.6836473,14.254135 C61.6836473,14.254135 76.8095946,18.075122 77.930363,18.075122 C79.0508984,18.075122 85.4948506,19.7125581 85.4948506,19.7125581 L88.8569227,22.1658763 Z" id="Fill-6" fill="#708FB2" mask="url(#mask-8)"></path>
                            </g>
                            <path d="M160,36.3075905 L28.7639468,36.3075905 L13,37 C13.9744217,36.9449353 21.9246534,36.4577883 23.4971476,35.3977339 C25.1727258,34.2704303 41.8384248,27.0674967 43.5140029,25.3764241 C44.1696538,24.714476 44.867792,24.399084 45.5264612,24.2427939 C46.5496388,23.9976974 47.4722864,24.1385225 47.9823661,23.9670017 C48.6138712,23.7556469 51.8317613,22.1533809 54.0961251,20.8941562 C54.8427871,20.4773046 55.4865973,20.1007557 55.8993973,19.8219173 C57.5749754,18.6943794 58.9197099,17.4292968 60.3162185,16.0198744 C61.7124949,14.610452 63.1090035,11.7918414 64.7848138,10.3826533 C65.1154253,10.1070954 65.4857381,9.86176455 65.8774106,9.64103704 C67.4712645,8.74055319 69.3592791,8.24403347 69.80853,7.5640428 C70.3671334,6.71862367 73.4392202,4.74543227 75.1147983,5.02731676 C75.1271034,5.03036289 75.1391763,5.03036289 75.1544995,5.03645516 C76.8298455,5.34903529 79.3222012,7.85201955 81.5382735,8.69158074 C83.7694368,9.53699988 87.400127,10.1007688 89.3550068,12.0737259 C91.3098867,14.046683 99.6882417,17.147178 99.6882417,17.147178 C99.6882417,17.147178 109.739389,20.5265114 112.252872,22.217584 C114.766123,23.9088909 125.654943,26.7275014 128.447961,26.7275014 C131.240513,26.7275014 141.850032,27.5731549 144.642817,28.1366895 C147.435602,28.7004585 154.41443,28.982343 155.810939,28.982343 C157.207447,28.982343 159.441629,28.7004585 159.441629,28.7004585 L160,36.3075905 Z" id="Fill-9" fill="#A7C0DD"></path>
                            <g id="Group-13" stroke-width="1" fill="none" transform="translate(62.000000, 6.000000)">
                                <mask id="mask-10" fill="white">
                                    <use xlink:href="#path-9"></use>
                                </mask>
                                <g id="Clip-12"></g>
                                <path d="M12.8156364,1.57640625 C12.5868364,2.74710938 11.7309636,2.90039063 10.8776909,3.48585937 C10.2258,3.93304687 9.99085455,4.7053125 9.5212,5.31515625 C9.29547273,5.60929687 8.85370909,5.88210937 8.68967273,6.22242187 C8.44267273,6.74625 8.68967273,7.37742188 8.5878,7.91695313 C8.36230909,9.09375 7.40101818,10.2459375 6.48629091,10.9692187 C5.59,11.67375 4.52683636,11.6526563 3.48234545,12.1490625 C2.3946,12.6667969 0.626836364,13.7760938 0.1508,14.8549219 C0.153872727,13.8773438 0.0921818182,12.5716406 0.401345455,11.6034375 C0.994618182,9.7340625 2.22134545,8.0915625 2.84581818,6.20695313 C3.02190909,5.67679688 3.16703636,5.1834375 3.31854545,4.71445313 C4.94118182,3.81351563 6.86329091,3.31710937 7.32065455,2.63695312 C7.88934545,1.79109375 11.0169091,-0.182578125 12.7227455,0.099609375 C12.7352727,0.102421875 12.7475636,0.102421875 12.7631636,0.10875 C12.8187091,0.580546875 12.8929273,1.16296875 12.8156364,1.57640625" id="Fill-11" mask="url(#mask-10)"></path>
                            </g>
                            <g id="Group-16" stroke-width="1" fill="none" transform="translate(93.000000, 4.000000)">
                                <mask id="mask-12" fill="white">
                                    <use xlink:href="#path-11"></use>
                                </mask>
                                <g id="Clip-15"></g>
                                <path d="M13.3298667,2.26705882 C13.3023333,2.65152941 13.0400667,2.68235294 12.8051,2.944 C12.3475333,3.45764706 12.1734667,3.87294118 12.0486333,4.62047059 C11.914,5.42352941 11.9445667,5.78023529 11.2217,6.28494118 C10.4925333,6.78941176 9.7328,7.10635294 9.12566667,7.77694118 C8.5918,8.36752941 8.03646667,9.28447059 7.23426667,9.44423529 C6.61196667,9.56752941 6.74286667,9.35529412 6.22743333,9.73364706 C5.91943333,9.96117647 5.57153333,10.1981176 5.2878,10.4411765 C4.61976667,11.0164706 4.50986667,11.3854118 3.62203333,11.6378824 C3.12176667,11.7825882 2.64273333,12.0409412 2.33753333,11.6992941 C2.0874,11.4162353 2.08436667,10.6995294 1.84963333,10.3272941 C1.6023,9.93364706 1.2761,9.712 0.9709,9.37976471 C0.1533,8.48447059 0.2632,7.50941176 0.214433333,6.40188235 C1.63613333,5.45717647 2.99366667,4.56823529 3.78676667,4.06988235 C6.03213333,2.65458824 9.9617,1.23929412 11.0845,0.673411765 C11.6396,0.393411765 12.7472333,0.181176471 13.8604667,0.110588235 C13.5461667,0.528941176 13.2167,1.02729412 13.1467,1.39341176 C13.0704,1.784 13.3513333,1.90094118 13.3298667,2.26705882" id="Fill-14" mask="url(#mask-12)"></path>
                            </g>
                            <g id="Group-19" stroke-width="1" fill="none" transform="translate(0.000000, 16.000000)">
                                <mask id="mask-14" fill="white">
                                    <use xlink:href="#path-13"></use>
                                </mask>
                                <g id="Clip-18"></g>
                                <path d="M68.9222925,5.37076914 C68.9222925,5.41458706 68.5963997,4.978702 68.4880788,4.74286525 C68.3823147,4.512305 68.3579076,4.34230983 68.1524232,4.14937334 C67.9983099,4.00438421 67.8093293,3.88348346 67.8418721,3.64971142 C67.8699983,3.44713958 67.9822709,3.49898696 67.9585612,3.26085607 C67.9485659,3.16174958 67.8569812,2.98670732 67.8183948,2.89081261 C67.6263923,2.4122567 67.041552,2.15783748 66.811428,1.66872857 C66.692182,1.41591524 66.6115224,1.15323714 66.5431825,0.880006037 C66.4846055,0.644628109 66.5833961,0.162172181 66.2754019,0.10091886 C66.2633146,0.346620382 66.0694526,0.633386863 66.0078537,0.880006037 C65.9708944,1.02797754 66.0092484,1.1316723 65.9855387,1.27597319 C65.9581098,1.44229775 65.862341,1.56939266 65.8390961,1.73824076 C65.7949309,2.05987805 65.8300307,2.19913185 65.6129238,2.46823352 C65.5134359,2.5914284 65.4074394,2.59762255 65.3026051,2.69282903 C65.1503514,2.83070635 65.1787101,2.89608911 65.1559301,3.10623159 C64.8530498,3.13467882 64.7031205,3.13880826 64.6350131,3.45081019 C64.5813175,3.69651171 64.7498427,4.09454359 64.6166497,4.3209744 C64.5534237,4.42788095 64.4116302,4.46894591 64.3356195,4.5714936 C64.2517056,4.68390606 64.2066106,4.8584895 64.1380383,4.98122555 C64.0506377,5.13814417 63.9286023,5.45083434 63.7289291,5.35333374 C63.559939,5.27051558 63.5762104,4.66440594 63.5708641,4.51092852 C63.5583119,4.16634992 63.4369738,4.20076189 63.2651944,3.95345448 C63.1152651,3.73757667 63.2012711,3.49646341 63.0704026,3.25053248 C63.0148474,3.14569065 62.9258196,3.11540811 62.8935093,3.00001328 C62.8528308,2.85387708 62.937907,2.67447597 62.9046668,2.52627505 C62.8570149,2.31177373 62.6868626,2.15669041 62.599462,1.93966554 C62.529495,1.76577035 62.5555292,1.27207317 62.2607846,1.42555059 C62.03345,1.54369838 62.0976058,2.00734243 62.096676,2.20073774 C62.0950488,2.55908114 62.0150866,2.63754045 61.8277331,2.9272893 C61.6724576,3.16748491 61.6622298,3.39804516 61.5650664,3.66003502 C61.4769684,3.89747766 61.2326651,3.85182444 61.1501459,4.03994325 C61.1048184,4.1434086 61.1933813,4.34070394 61.1671146,4.45288698 C61.1420102,4.56048177 61.0613506,4.60429969 61.0227641,4.70638855 C60.980226,4.81834219 60.9892915,4.89748974 60.9323417,5.00370804 C60.8398272,5.17645617 60.6882708,5.31708645 60.5945941,5.49212871 C60.2105892,5.57035861 59.9758163,4.90138976 59.9560581,4.6428411 C59.9304888,4.30904492 59.8151944,4.18562062 59.5474138,3.96446631 C59.5771672,4.13927916 59.453737,4.28013886 59.4160804,4.44577518 C59.3872568,4.57241125 59.422124,4.64352934 59.343324,4.76511833 C59.3012508,4.83050109 59.2054821,4.8568836 59.1538785,4.91469573 C58.8512306,5.25308017 58.6564388,5.70364767 58.3861013,6.06313813 C58.2531407,6.23978628 58.1924717,6.33958102 57.9551418,6.27786887 C57.7340833,6.22028616 57.4460797,5.98192586 57.4005198,5.76696571 C57.3596089,5.57494687 57.3926166,5.36962207 57.3458944,5.17255615 C57.3077729,5.01265516 57.3033564,4.73116518 57.1782991,4.61806448 C57.1022884,4.87386018 57.0822979,5.05119657 56.8156795,5.11222048 C56.4858351,5.18769742 56.3617077,5.0899674 56.245251,4.8185716 C56.1111282,4.50611084 55.9674751,4.20007365 55.7745429,3.91468365 C55.5548791,3.58937575 55.5341911,3.48430452 55.5423268,3.08374909 C55.5218714,3.59786404 55.3342855,4.08169645 55.2831468,4.58869959 C55.2443279,4.97388433 55.2422359,5.09363801 55.0376812,5.40013403 C54.7685059,5.80275417 54.6722723,6.35586936 54.5802227,6.81308983 C54.3335949,6.81974282 54.265255,6.42698744 54.2141164,6.2278568 C54.1485659,5.97435523 54.1350839,5.89704298 53.9665588,5.671071 C53.8310413,5.84771915 53.7689776,6.12829148 53.6657704,6.33086332 C53.6011498,6.45772881 53.4491285,6.64080053 53.4082176,6.77018957 C53.361263,6.91930814 53.4370412,7.06705023 53.3777668,7.21983941 C53.311519,7.3918993 53.0381596,7.60777711 52.8926469,7.71743661 C52.7080828,7.40107583 52.578609,7.03929123 52.4549464,6.697695 C52.3556909,6.42423448 52.3724272,6.17509177 52.3008331,5.9025489 C52.0304956,6.00578483 51.764807,6.56578242 51.5184116,6.76238952 C51.2820115,6.95119657 51.3136245,6.95394953 51.2610912,7.21983941 C51.2315702,7.37010505 51.1504457,7.47861748 51.0865224,7.61603598 C50.9865695,7.83053731 51.0649047,8.20149843 50.867091,8.2879872 C50.6978685,8.36208766 50.418698,8.20654552 50.280856,8.1244156 C49.9156795,7.90762014 49.8968512,7.81011954 49.9298588,7.44902318 C49.8780228,7.43594663 49.471238,8.47450012 49.363382,8.63921879 C48.9196379,8.32744627 48.7146183,8.00213837 48.7143859,7.49123521 C48.7143859,7.1326624 48.7666868,6.74174233 48.4761262,6.46438179 C48.3603669,6.92527288 48.1813816,7.32101063 47.9879844,7.74932504 C47.8724576,8.00557957 48.050978,8.71515455 47.6460528,8.75209007 C47.4480067,8.48665902 47.2071901,8.00902077 47.130947,7.68325404 C47.0670236,7.40910529 47.1204868,7.18336271 46.9814826,6.92022579 C46.855728,6.68140667 46.7894802,6.53458223 46.7067285,6.28888071 C46.6409456,6.09433832 46.5579615,5.81697778 46.3243508,5.75434798 C46.2102186,6.23152741 46.0468074,8.32354624 45.8552698,8.79361386 C45.5100839,8.75231949 45.319941,6.73485994 45.1332849,6.48778194 C44.9108318,6.19321541 44.9724306,6.06520285 44.9682465,5.73163608 C44.9649923,5.46643444 44.9942808,4.82155397 44.7713627,4.62678218 C44.8694559,4.98007848 44.8417946,5.26088022 44.7018606,5.62541777 C44.4928894,6.1686682 44.5170641,6.74197175 44.3564422,7.28682806 C44.2441696,7.6685716 44.0544916,8.01383844 43.8445907,8.34350519 C43.6639782,8.62751872 43.7090732,8.77594905 43.6160939,9.07166264 C43.2576583,8.95305603 43.1876913,8.56511833 43.0305562,8.27995774 C42.9054989,8.05260927 42.6735154,7.4893999 42.418287,7.40268172 C42.1976934,7.70940715 42.1942066,8.16249819 42.1600367,8.52061217 C42.1288886,8.84385535 41.9817488,8.9317206 41.8583186,9.20632818 C41.6144802,9.08359213 41.540794,8.64678942 41.4354949,8.41622917 C41.3322878,8.19071601 41.198165,7.9904383 41.0819408,7.77226636 C40.9708304,8.45224704 40.4587465,9.04160951 40.1096089,9.60252475 C39.9887357,9.79683772 39.8727439,10.209552 39.6168182,10.2455699 C39.0975283,10.3185233 39.1905077,8.78374909 39.0484817,8.39627022 C38.8634527,7.89064356 38.6409995,7.46898213 38.5205912,6.93330234 C38.1128766,6.79726032 38.1447221,7.91748491 38.108925,8.13863922 C38.0647598,8.41439387 37.9018134,8.62407752 37.8704329,8.89432625 C37.8376577,9.17489858 37.8957698,9.31667592 37.7463054,9.54517146 C37.6189237,9.73994325 37.4469118,9.91200314 37.3023289,10.0950749 C37.1828504,9.90970901 37.157281,9.67456049 37.1075371,9.46395919 C37.0457058,9.20173992 36.8976361,9.01385052 36.8265069,8.76608428 C36.7374791,8.45568824 36.9947996,7.96474402 36.5006141,7.89844361 C36.2509645,8.06820937 36.2786259,8.40475851 36.2033126,8.67087781 C36.1149821,8.98287974 35.9999202,9.19898696 35.8585915,9.4797887 C35.8130316,9.57017749 35.7730505,9.77435523 35.7170304,9.84088505 C35.5487377,10.0411628 35.306294,9.98449771 35.0719859,10.0161567 C35.0757051,10.2535994 34.9220567,10.4137298 34.8272177,10.6204311 C34.6310312,11.047369 34.6756613,11.0758162 34.126618,11.0503514 C33.9074191,11.0400278 33.2770189,10.7459201 33.1194189,10.5926721 C32.8879002,10.3676177 32.6921786,9.97440353 32.5541042,9.69635475 C32.4123107,9.41142357 32.1861383,9.16205144 32.0473666,8.87574378 C31.9787943,8.73396643 32.0578268,8.44651171 31.9787943,8.34671698 C31.8286326,8.15699227 31.6696379,8.35428761 31.6108284,8.53804757 C31.5538785,8.71653103 31.5850266,8.91313813 31.5843293,9.09827457 C31.5838644,9.21343999 31.5543434,9.35842912 31.576426,9.47152982 C31.5910703,9.54654794 31.6970668,9.6729546 31.6942774,9.73512557 C31.6812603,10.0283156 31.2482088,9.99321541 31.1775445,10.3189821 C31.1008365,10.6734255 31.2231044,11.0872869 31.1854477,11.4495303 C31.136866,11.9152391 30.7798252,11.8009913 30.5032115,12.0574752 C30.5462145,11.8950507 30.451143,11.5805252 30.3825707,11.4426479 C30.2944728,11.2646233 30.1475654,11.1003634 30.0450556,10.9227976 C29.8902449,10.6550724 29.844685,10.435524 29.8439877,10.1265045 C29.8437552,9.91360903 29.8683948,9.65574861 29.6027062,9.61078363 C29.5701634,9.83767327 29.5483132,9.92576793 29.4425492,10.1258162 C29.350732,10.1930343 29.303545,10.2818172 29.301453,10.3923943 C29.3260925,10.4749831 29.3221409,10.5557365 29.2889008,10.6339664 C29.1722116,10.7411024 28.8783968,10.5444953 28.7905313,10.6770961 C28.6766315,10.8489266 28.8874623,10.8996269 28.9169832,11.0430101 C28.9771874,11.3378061 28.7744923,11.3004117 28.6624522,11.4756834 C28.568543,11.6227373 28.6780262,11.8232444 28.6464132,11.9819983 C28.5973666,12.2286175 28.3965311,12.6560142 28.2012744,12.8301389 C27.7654336,12.0616047 28.1796567,11.1852463 27.9502301,10.4034062 C27.7435834,10.4219887 27.6173639,10.5277481 27.4653426,10.6543842 C27.4462818,10.6704431 27.1864045,10.9099505 27.1838475,10.9182094 C27.1499101,11.0303924 27.2996069,11.1184871 27.3128564,11.2446643 C27.339588,11.4997718 27.1496776,11.4545774 27.0564658,11.6078254 C26.9346628,11.8081031 27.0478652,12.2779413 27.0367077,12.5032251 C27.0236905,12.7603972 26.8760858,13.3607716 26.6320149,13.4277602 C26.4976597,13.2531768 26.2226732,13.2150942 26.0969185,13.034546 C26.0153291,12.9175453 25.8960831,12.7771444 25.8558695,12.6355965 C25.8263485,12.5321311 25.8614483,12.4066421 25.8177479,12.3151063 C25.7505703,12.1742466 25.5646116,12.1132227 25.4895307,11.9799336 C25.3984109,11.8177385 25.4844169,11.5782311 25.2596392,11.4931188 C25.0039459,11.8317327 24.7833523,12.1120756 24.6915352,12.5029957 C24.6201735,12.8071975 24.5113876,12.9264924 24.2903291,13.163935 C24.1685261,13.2947006 24.0506748,13.3564127 24.0792659,13.5635728 C24.1020459,13.7266856 24.2728955,13.757427 24.2326819,13.95954 C24.1701533,14.2742949 23.7463997,14.4514018 23.4969825,14.2756713 C23.2928928,14.1320587 23.0857812,13.6986972 23.030226,13.4823605 C22.9393387,13.1265407 23.1313411,12.8248624 22.8507758,12.5362606 C22.5827628,12.2602765 22.3909928,12.0457752 22.2127048,11.7037201 C22.0685868,11.4275066 22.1766753,10.8766856 21.6931825,11.0707691 C21.6896958,11.3148648 21.8851849,11.3947006 21.7419967,11.6445315 C21.6413465,11.8200326 21.3858857,11.9487334 21.3061558,12.136164 C21.2403729,12.290559 21.2861653,12.4708778 21.2815163,12.6346788 C21.2729157,12.9441572 21.1713357,12.9732927 20.9265675,13.1269995 C21.2075977,13.3967894 20.6725013,13.5823847 20.6029993,13.8170744 C20.5374488,14.0382287 20.6457698,14.0724113 20.4860777,14.25273 C20.3138334,14.4468136 20.045123,14.4351135 20.0516315,14.7418389 C19.8510285,14.7055916 19.6167205,14.3139833 19.5325741,14.1286175 C19.6190449,14.7317447 19.039086,14.6948092 18.6855319,14.9304166 C18.4939944,15.0584291 18.1495058,15.5023436 18.2048285,15.7615805 C17.8108284,15.3100954 17.8061794,14.551426 17.799206,13.9960167 C17.7971139,14.2018003 17.8245429,14.4135487 17.787816,14.6163499 C17.7501593,14.8216747 17.6139445,15.0010758 17.5614112,15.1735945 C17.5128295,15.3344132 17.5409557,15.4413197 17.4377486,15.5771323 C17.2889816,15.772363 17.1111585,15.7535511 17.1141804,16.0499529 C16.931011,16.0988179 16.759464,16.0256351 16.5804787,16.061653 C16.4458911,16.0887237 16.4782014,16.1614477 16.3443111,16.1788831 C16.0837364,16.2126069 15.6239533,15.876746 15.3812771,16.151583 C15.4063816,15.814575 15.5265574,15.1192236 15.0088947,15.1192236 C14.9393926,14.8691632 15.1141938,14.4380959 14.7543636,14.3591777 C14.5377217,14.7656979 14.3475788,15.2236066 14.3227068,15.6725682 C14.294813,16.1837008 13.9026725,16.0208174 13.5440045,16.1878302 C13.377339,15.6551328 13.6334972,15.1024765 13.0112327,14.7624861 C12.9052362,14.7044446 12.6844101,14.6998563 12.6007287,14.5901968 C12.5105387,14.4718196 12.5923605,14.1956061 12.6007287,14.0625465 C12.0607509,13.7425151 12.2178861,14.8299336 12.1853433,15.0097935 C12.1516383,15.1976829 12.0944559,15.4784847 12.0186777,15.6505446 C11.9342989,15.6822036 11.8622399,15.7317568 11.8027331,15.7989749 C11.7855319,15.8907402 11.7706552,15.9827348 11.7571732,16.0749589 C11.5654032,15.9907643 11.347599,15.5310203 11.2708911,15.3871782 C11.077029,15.0224113 10.9740544,14.6158911 10.8306337,14.2307064 C10.7697322,14.0673642 10.5361215,13.6349203 10.5830761,13.4685957 C9.85435015,14.0462582 10.2457934,14.5757438 10.0256647,15.2125948 C9.91408941,15.5356085 10.0851715,15.8196221 9.93012835,16.0956061 C9.67234301,16.5551207 10.2553237,16.7797163 9.51148868,16.9662292 C9.09122187,17.0715298 8.95779646,17.2213366 8.70675212,16.893964 C8.42827887,16.5308029 8.31600627,16.0529353 8.05636134,15.6771565 C7.92223858,16.0391705 7.75812997,16.3842079 7.62191517,16.7349807 C7.54660187,16.9290642 7.5342821,17.0235825 7.38714223,17.2146837 C7.22977463,16.7455337 7.4143387,15.9760819 6.96176156,15.6147561 C6.63447413,15.8889049 6.52894253,16.5106146 6.33275603,16.8781345 C6.09263677,17.3289314 5.82648329,17.4167967 5.37251145,17.6044567 C5.50523952,17.5328797 5.68190035,17.4711676 5.82927267,17.5418269 C5.74489388,17.7526576 5.25349784,17.8574994 5.04266709,17.8948937 C4.77000505,17.9430705 4.69864338,17.9091174 4.55452533,17.6950749 C4.32347157,17.3523316 4.31091935,16.8542755 4.26489456,16.4631261 C4.22468097,16.1226769 4.0996237,15.7737394 4.15889806,15.428702 C3.81743128,16.4353671 3.69260645,16.0572941 2.5563984,17.6732806 C2.70260848,17.5955095 1.57895263,18.062136 1.75282408,18.084389 C2.40553935,18.8191995 0.402530993,19.0047947 -6.97345371e-05,18.9752004 L68.7786393,18.9752004 L68.9222925,5.41458706" id="Fill-17" fill="#8AACD2" mask="url(#mask-14)"></path>
                            </g>
                            <path d="M63,21.3041224 C63,21.3482252 63.3262598,20.9095054 63.4349355,20.6721349 C63.5408187,20.4400753 63.5652533,20.2689745 63.7709692,20.0747833 C63.9252561,19.9288512 64.1144496,19.8071642 64.0818702,19.5718719 C64.0537122,19.3679826 63.9413132,19.4201672 63.9650496,19.1804876 C63.9748234,19.0807366 64.066744,18.904556 64.1053739,18.8080376 C64.2975926,18.3263695 64.8830917,18.0702956 65.1134749,17.5780058 C65.2328553,17.3235484 65.3136058,17.059162 65.3817899,16.7841539 C65.4406656,16.5472452 65.3417637,16.0616517 65.6498722,16 C65.6622058,16.2472994 65.8560535,16.5359309 65.9177217,16.7841539 C65.9547227,16.9330877 65.9163255,17.0374569 65.9402946,17.1826962 C65.9677544,17.3501025 66.0636311,17.4780239 66.0869021,17.6479701 C66.1311171,17.9716991 66.0957451,18.1118586 66.3133292,18.3827103 C66.4129292,18.5067064 66.5188124,18.5129408 66.6239975,18.6087665 C66.7764227,18.7475405 66.7477994,18.8133484 66.7708377,19.0248576 C67.0740592,19.0534898 67.2239246,19.0576461 67.2921088,19.3716771 C67.3458648,19.6189765 67.1773826,20.019597 67.3107256,20.2475004 C67.3737901,20.3551022 67.5157434,20.3964342 67.5920723,20.4996488 C67.675848,20.6127923 67.7212266,20.7885111 67.7896434,20.9120454 C67.8773752,21.0699845 67.9995481,21.3847082 68.1994462,21.2865736 C68.3683939,21.2032168 68.3521042,20.5931654 68.3576892,20.4386898 C68.3702556,20.0918703 68.4917304,20.1265061 68.6634706,19.8775903 C68.8135687,19.6603085 68.7274659,19.4176272 68.8584818,19.1700969 C68.9143323,19.0645732 69.0034603,19.0340938 69.035807,18.9179485 C69.0762986,18.7708619 68.9913594,18.590294 69.0244042,18.4411293 C69.0721098,18.225233 69.2426865,18.0691411 69.3299529,17.8507048 C69.3999987,17.6756787 69.3741678,17.1787708 69.6692445,17.3332464 C69.8966024,17.4521625 69.8326071,17.9188219 69.8335379,18.1134749 C69.8351669,18.4741488 69.9149865,18.5531183 70.102551,18.8447515 C70.2580015,19.0865092 70.2684735,19.3185689 70.3655137,19.5822626 C70.4537109,19.8212494 70.6985221,19.7752993 70.7811343,19.9646415 C70.8262801,20.0687798 70.7378502,20.2673582 70.7639137,20.3802708 C70.7892791,20.4885653 70.8697969,20.5326682 70.9086595,20.635421 C70.9512455,20.7481027 70.9419371,20.827765 70.9989511,20.9346741 C71.0918025,21.1085457 71.2432969,21.2500905 71.3370792,21.4262712 C71.7217493,21.5050098 71.9567867,20.8316904 71.9763344,20.5714603 C72.0021652,20.2354933 72.1175895,20.1112663 72.3856718,19.8886737 C72.3556522,20.0646235 72.4792213,20.2063992 72.5169204,20.3731128 C72.5460092,20.5005724 72.5111026,20.572153 72.5897587,20.6945327 C72.632112,20.7603407 72.7277559,20.7868948 72.7794176,20.8450829 C73.0826391,21.185668 73.2776504,21.6391657 73.5482924,22.0009941 C73.68117,22.1787911 73.7419074,22.2792348 73.9797373,22.2171213 C74.2010448,22.1591641 74.4893729,21.9192537 74.5349841,21.7028956 C74.5759411,21.5096279 74.5428963,21.3029678 74.589671,21.1046203 C74.6276028,20.9436794 74.6320243,20.6603588 74.7574552,20.5465225 C74.8335514,20.8039818 74.8535645,20.9824715 75.1202505,21.0438922 C75.4504664,21.11986 75.5747337,21.0214944 75.6915543,20.7483336 C75.8255954,20.4338408 75.9696431,20.1258133 76.1627927,19.8385673 C76.3824712,19.5111438 76.4031824,19.4053892 76.3950375,19.0022288 C76.4157488,19.5196873 76.6033133,20.0066663 76.6547422,20.5169667 C76.6936049,20.9046564 76.6954665,21.0251889 76.9002516,21.3336782 C77.1697301,21.7389168 77.2663049,22.2956291 77.3584582,22.7558231 C77.6053638,22.7625193 77.6735479,22.3672097 77.7247442,22.166784 C77.7906012,21.9116338 77.8038657,21.8338188 77.9728134,21.6063772 C78.1084835,21.7841742 78.1703844,22.0665712 78.2739405,22.2704604 C78.338634,22.398151 78.4908265,22.5824133 78.5315508,22.7126438 C78.578791,22.8627322 78.5029274,23.0114351 78.5620358,23.1652179 C78.628591,23.3383968 78.9022583,23.5556785 79.0479349,23.6660512 C79.2327069,23.347633 79.3620939,22.9834956 79.4861284,22.6396778 C79.5854957,22.3644388 79.5687406,22.1136758 79.6404154,21.8393605 C79.9110574,21.9432678 80.1770453,22.5069073 80.4237182,22.704793 C80.6603846,22.894828 80.6285033,22.8975988 80.6810958,23.1652179 C80.7108827,23.3164608 80.7920986,23.4256789 80.856094,23.5639911 C80.9561594,23.7798874 80.8775033,24.1532611 81.0757725,24.2403123 C81.2451856,24.3148947 81.524438,24.158341 81.6626679,24.0756769 C82.0282558,23.8574716 82.0471053,23.7593369 82.0138277,23.3958922 C82.0659548,23.3827306 82.4731978,24.4280382 82.5811754,24.5938281 C83.0251867,24.280028 83.2306699,23.9526045 83.2306699,23.4383787 C83.2309026,23.077474 83.1785428,22.6840116 83.4691979,22.4048472 C83.5850877,22.8687357 83.7645073,23.2670471 83.9581223,23.698147 C84.0737793,23.9560681 83.8950578,24.6702577 84.3002064,24.7074335 C84.4987083,24.4402762 84.7397962,23.9595317 84.8161251,23.6316463 C84.8801205,23.3557147 84.8265971,23.128504 84.9655251,22.8636558 C85.0916541,22.6232835 85.1579766,22.4755042 85.2408214,22.2282048 C85.3064457,22.0323972 85.389756,21.7532329 85.6236299,21.6901958 C85.7376579,22.1704785 85.901486,24.2761026 86.0930065,24.7492273 C86.4388141,24.7076644 86.6291711,22.6770844 86.8160374,22.4283996 C87.0387412,22.1319173 86.9768403,22.0030723 86.9812618,21.6673362 C86.9845197,21.4004098 86.9551982,20.7513354 87.1783674,20.5552969 C87.0801636,20.9108909 87.1076235,21.1935188 87.2479478,21.5604271 C87.4569216,22.1072105 87.4327197,22.6842425 87.5935226,23.2326422 C87.7061543,23.6168684 87.8960459,23.9643807 88.1061833,24.2961914 C88.2867665,24.582052 88.2418535,24.7314476 88.3347049,25.0290843 C88.6937769,24.9097064 88.7638227,24.5192457 88.9211348,24.2322306 C89.046333,24.0034036 89.2785778,23.4365315 89.5340937,23.3492493 C89.7549358,23.6579695 89.7581938,24.1140072 89.7926349,24.4744501 C89.8235854,24.7997955 89.9711237,24.8882322 90.0944601,25.1646257 C90.3385732,25.0410914 90.4123424,24.601448 90.5179929,24.3693883 C90.6210836,24.1424085 90.7555901,23.9408283 90.8719453,23.7212375 C90.9829481,24.4056404 91.4958416,24.9988358 91.8451397,25.5633989 C91.9663818,25.7589755 92.0825042,26.1743739 92.3387183,26.210626 C92.8585931,26.2840539 92.7652763,24.7392984 92.907695,24.3492996 C93.0929324,23.8403846 93.3154034,23.4159809 93.43618,22.8768174 C93.8443539,22.7398906 93.8122399,23.8674005 93.8480773,24.0899931 C93.8925249,24.3675411 94.0556549,24.5785884 94.0870708,24.8505946 C94.1196502,25.1329917 94.0617053,25.275691 94.2111053,25.5056726 C94.3388633,25.7017111 94.5108362,25.8748899 94.655582,26.0591522 C94.7754278,25.8725809 94.8010259,25.6359031 94.8505932,25.4239322 C94.9127269,25.1600076 95.0607306,24.9708962 95.13194,24.7215187 C95.2213007,24.409104 94.9636904,23.914967 95.4581998,23.8482354 C95.7083634,24.0191052 95.6806709,24.357843 95.756069,24.625693 C95.8444989,24.939724 95.9596905,25.1572367 96.1011784,25.4398646 C96.1465569,25.5308412 96.1865831,25.7363468 96.242899,25.8033093 C96.4113812,26.0048895 96.6540981,25.947856 96.88867,25.9797209 C96.8849467,26.2187077 97.0387682,26.3798795 97.133714,26.587925 C97.3298888,27.0176395 97.2854411,27.0462718 97.8348701,27.0206413 C98.0543159,27.0102506 98.6854263,26.7142302 98.8432038,26.5599855 C99.0749833,26.3334676 99.2709254,25.9376961 99.409388,25.6578391 C99.5513413,25.3710549 99.7777684,25.120061 99.9166965,24.8318913 C99.985346,24.6891919 99.9059918,24.3998678 99.985346,24.299424 C100.135677,24.1084655 100.294851,24.3070439 100.353494,24.4919989 C100.410508,24.6716432 100.379557,24.8695289 100.380255,25.0558693 C100.380721,25.1717837 100.410042,25.3177158 100.387935,25.431552 C100.373507,25.507058 100.267391,25.6342868 100.269951,25.696862 C100.283215,25.9919588 100.716754,25.9566303 100.787498,26.2845157 C100.864293,26.6412641 100.741887,27.057817 100.779586,27.4224163 C100.82799,27.8911538 101.185666,27.776163 101.462358,28.0343149 C101.41954,27.8708341 101.514718,27.5542631 101.583135,27.4154891 C101.671565,27.2363067 101.818638,27.0709786 101.921263,26.892258 C102.076248,26.6227917 102.121859,26.4018155 102.122325,26.0907862 C102.12279,25.8765063 102.09789,25.6169689 102.364111,25.5717115 C102.396457,25.8000767 102.418565,25.8887442 102.524448,26.0900935 C102.616369,26.1577487 102.663376,26.247109 102.665703,26.3584053 C102.640803,26.4415312 102.644992,26.5228098 102.678037,26.6015485 C102.79509,26.7093812 103.089236,26.5114954 103.176968,26.6449586 C103.290996,26.8179066 103.08016,26.8689366 103.050606,27.0132523 C102.990101,27.3099655 103.193257,27.2723279 103.305191,27.4487395 C103.399206,27.5967497 103.289832,27.7985608 103.321481,27.9583472 C103.37035,28.2065702 103.571644,28.6367465 103.767121,28.8120035 C104.203453,28.0384712 103.788763,27.1564135 104.018448,26.3694888 C104.225095,26.3881921 104.351689,26.4946394 104.503882,26.622099 C104.522731,26.6382624 104.783134,26.8793274 104.785694,26.8876399 C104.81967,27.0005526 104.669572,27.0892201 104.65654,27.216218 C104.629778,27.4729845 104.81967,27.4274962 104.912987,27.5817408 C105.034927,27.783321 104.921597,28.2562148 104.932767,28.4829637 C104.945799,28.7418083 105.093802,29.3460871 105.338148,29.4135114 C105.472655,29.2377926 105.747951,29.1994624 105.873847,29.01774 C105.955296,28.8999784 106.074909,28.7586644 106.114935,28.6161959 C106.144722,28.5120577 106.109583,28.3857526 106.1531,28.2936214 C106.220353,28.1518457 106.406521,28.0904249 106.481919,27.956269 C106.573142,27.7930191 106.486806,27.5519541 106.711837,27.4662883 C106.968051,27.8071043 107.188893,28.0892704 107.280581,28.4827328 C107.352256,28.788913 107.461164,28.9089837 107.682472,29.1479705 C107.804412,29.2795865 107.922396,29.3416999 107.89354,29.5502073 C107.870967,29.7143809 107.699925,29.7453222 107.740184,29.9487496 C107.80255,30.2655515 108.227014,30.4438103 108.476712,30.2669369 C108.680799,30.1223903 108.888377,29.6862104 108.943762,29.4684669 C109.034751,29.110333 108.842765,28.8066927 109.123414,28.516214 C109.391729,28.2384351 109.583948,28.0225388 109.762437,27.6782592 C109.906484,27.4002494 109.798507,26.8458461 110.282311,27.0411919 C110.286035,27.286875 110.090325,27.36723 110.233675,27.6186857 C110.334206,27.7953281 110.589954,27.9248659 110.670007,28.1135154 C110.735631,28.2689146 110.69002,28.450406 110.694441,28.6152723 C110.703284,28.9267634 110.804979,28.9560883 111.04979,29.1107948 C110.768676,29.3823393 111.304142,29.5691415 111.373955,29.8053575 C111.43958,30.0279501 111.330904,30.0623549 111.491009,30.2438464 C111.663214,30.4391922 111.93246,30.427416 111.925711,30.7361362 C112.126773,30.6996532 112.361345,30.3054981 112.445354,30.1189267 C112.358785,30.7259764 112.939398,30.6888006 113.29335,30.9259402 C113.485336,31.0547853 113.82998,31.5015868 113.774827,31.7625096 C114.169039,31.3080883 114.173693,30.5444849 114.180674,29.9854635 C114.183001,30.1925854 114.155309,30.4057109 114.19231,30.6098311 C114.229776,30.8164912 114.366377,30.997059 114.418737,31.1706997 C114.467606,31.3325642 114.439215,31.440166 114.542771,31.5768619 C114.691473,31.7733621 114.869497,31.7544279 114.866472,32.0527574 C115.049847,32.1019402 115.221587,32.0282814 115.400774,32.0645335 C115.535746,32.0917804 115.5034,32.1649773 115.637441,32.1825261 C115.898076,32.2164691 116.35861,31.878424 116.601327,32.1550484 C116.576427,31.8158487 116.456116,31.1159752 116.974361,31.1159752 C117.043942,30.8642885 116.868944,30.4304178 117.228946,30.3509864 C117.446065,30.7601503 117.636189,31.221037 117.661089,31.6729184 C117.689247,32.1873751 118.08183,32.0234324 118.440902,32.1915314 C118.607522,31.6553696 118.351076,31.0991191 118.974041,30.7569176 C119.080157,30.6984986 119.301464,30.6938805 119.38524,30.5835079 C119.475532,30.4643608 119.393618,30.186351 119.38524,30.052426 C119.925593,29.7303133 119.768281,30.8248038 119.800861,31.0058334 C119.834836,31.1949447 119.89185,31.4775726 119.967947,31.6507515 C120.052188,31.6826164 120.124561,31.7324919 120.184135,31.8001471 C120.201355,31.8925092 120.216249,31.9851022 120.229513,32.077926 C120.421499,31.9931839 120.639781,31.5304499 120.716576,31.3856724 C120.910656,31.0185332 121.013747,30.6093693 121.157096,30.2216795 C121.218066,30.057275 121.452173,29.6220188 121.404933,29.4546126 C122.134712,30.0360317 121.742828,30.5689609 121.963205,31.2099536 C122.074673,31.535068 121.903631,31.8209286 122.058849,32.0987075 C122.316924,32.5612105 121.733287,32.7872667 122.47796,32.9749926 C122.8987,33.080978 123.032276,33.2317591 123.283603,32.9022575 C123.56239,32.5367346 123.674789,32.0557592 123.934494,31.6775365 C124.069,32.0419048 124.233294,32.3891862 124.369662,32.7422402 C124.44506,32.9375859 124.457394,33.0327189 124.604467,33.2250629 C124.762244,32.7528618 124.577472,31.9784059 125.030559,31.6147303 C125.358215,31.890662 125.463866,32.5164149 125.660041,32.886325 C125.900663,33.3400536 126.167116,33.4284903 126.621367,33.6173707 C126.488722,33.5453283 126.311862,33.4832148 126.164324,33.5543336 C126.248565,33.7665355 126.740515,33.8720591 126.951583,33.9096967 C127.224552,33.9581867 127.295994,33.9240128 127.440507,33.7085783 C127.671588,33.363606 127.684387,32.8623109 127.730464,32.4686176 C127.77049,32.1259543 127.895921,31.7747476 127.83658,31.4274662 C128.178431,32.440678 128.303164,32.0601464 129.440652,33.6866423 C129.294277,33.6083654 130.419432,34.0780265 130.245364,34.1004243 C129.591914,34.8400135 131.597178,35.0268158 132,34.997029 L63.1440477,34.997029 L63,21.3482252" id="Fill-20" fill="#8AACD2"></path>
                        </g>
                    </g>
                </g>
            </g>
        </g>
    </g>
</svg>