<?xml version="1.0" encoding="UTF-8"?>
<svg width="1334px" height="252px" viewBox="0 0 1334 252" version="1.1" xmlns="http://www.w3.org/2000/svg" xmlns:xlink="http://www.w3.org/1999/xlink">
    <title>Group 59</title>
    <defs>
        <rect id="path-1" x="0" y="0" width="683" height="252"></rect>
        <filter id="filter-3">
            <feColorMatrix in="SourceGraphic" type="matrix" values="0 0 0 0 0.498039 0 0 0 0 0.627451 0 0 0 0 0.752941 0 0 0 1.000000 0"></feColorMatrix>
        </filter>
        <filter id="filter-4">
            <feColorMatrix in="SourceGraphic" type="matrix" values="0 0 0 0 0.496920 0 0 0 0 0.628509 0 0 0 0 0.752123 0 0 0 1.000000 0"></feColorMatrix>
        </filter>
        <rect id="path-5" x="0" y="0" width="683" height="252"></rect>
        <filter id="filter-7">
            <feColorMatrix in="SourceGraphic" type="matrix" values="0 0 0 0 0.498039 0 0 0 0 0.627451 0 0 0 0 0.752941 0 0 0 1.000000 0"></feColorMatrix>
        </filter>
        <filter id="filter-8">
            <feColorMatrix in="SourceGraphic" type="matrix" values="0 0 0 0 0.496920 0 0 0 0 0.628509 0 0 0 0 0.752123 0 0 0 1.000000 0"></feColorMatrix>
        </filter>
    </defs>
    <g id="Desktop" stroke="none" stroke-width="1" fill="none" fill-rule="evenodd">
        <g id="Group-59">
            <g id="Group-54-Copy" transform="translate(651.000000, 0.000000)">
                <mask id="mask-2" fill="white">
                    <use xlink:href="#path-1"></use>
                </mask>
                <g id="Mask"></g>
                <g id="rule-the-roads" mask="url(#mask-2)">
                    <g transform="translate(-6.000000, -19.000000)">
                        <rect id="Mask" fill="none" x="6" y="0" width="683" height="252"></rect>
                        <path d="M99.2510247,105.692853 L99.2510247,93.1305676 C99.2510247,91.4941926 98.5346896,90.1654538 97.650105,90.1654538 L90.4408677,90 L81.3936319,90 C80.6569029,90 80.0578327,91.1076607 80.0578327,92.4718741 L80.0578327,103.968501 L67.3218534,103.968501 L67.3218534,123.442385 L65.496601,123.442385 L65.496601,105.11788 L60.8162051,105.11788 L60.8162051,92.3714099 L46.4308707,92.3714099 L46.4308707,103.54167 L44.6489553,103.54167 L44.6489553,130.6392 L35.4207238,130.6392 L35.4207238,111.597539 L28.4587624,111.597539 L28.4587624,105.98261 L24.2474258,105.98261 L24.2474258,99.879834 L17.2854644,99.879834 L17.2854644,121.118086 L6,121.118086 L6,198.993473 L108,199 L108,105.692853 L99.2510247,105.692853" id="Fill-2" fill="#BBD2EC" fill-rule="evenodd" opacity="0.698846726"></path>
                        <path d="M220.449765,97.9885934 L220.449765,84.3890548 C220.449765,82.6175663 219.585949,81.1791151 218.519244,81.1791151 L209.825752,81 L198.91585,81 C198.027442,81 197.305033,82.1991189 197.305033,83.6759738 L197.305033,96.1218636 L181.946941,96.1218636 L181.946941,117.203683 L179.745901,117.203683 L179.745901,97.3661453 L174.101894,97.3661453 L174.101894,83.5672144 L156.754874,83.5672144 L156.754874,95.6597896 L154.606093,95.6597896 L154.606093,124.99473 L143.477932,124.99473 L143.477932,104.380822 L135.082625,104.380822 L135.082625,98.3022753 L130.004249,98.3022753 L130.004249,91.6956001 L121.608942,91.6956001 L121.608942,114.687469 L108,114.687469 L108,198.992934 L231,199 L231,97.9885934 L220.449765,97.9885934" id="Fill-2-Copy" fill="#BBD2EC" fill-rule="evenodd"></path>
                        <path d="M338.221733,105.692853 L338.221733,93.1305676 C338.221733,91.4941926 337.421124,90.1654538 336.43247,90.1654538 L328.375087,90 L318.263471,90 C317.440068,90 316.770519,91.1076607 316.770519,92.4718741 L316.770519,103.968501 L302.536189,103.968501 L302.536189,123.442385 L300.496201,123.442385 L300.496201,105.11788 L295.26517,105.11788 L295.26517,92.3714099 L279.187444,92.3714099 L279.187444,103.54167 L277.195891,103.54167 L277.195891,130.6392 L266.881985,130.6392 L266.881985,111.597539 L259.10097,111.597539 L259.10097,105.98261 L254.394182,105.98261 L254.394182,99.879834 L246.613166,99.879834 L246.613166,121.118086 L234,121.118086 L234,198.993473 L348,199 L348,105.692853 L338.221733,105.692853" id="Fill-2" fill="#BBD2EC" fill-rule="evenodd" opacity="0.698846726"></path>
                        <path d="M460.449765,97.9885934 L460.449765,84.3890548 C460.449765,82.6175663 459.585949,81.1791151 458.519244,81.1791151 L449.825752,81 L438.91585,81 C438.027442,81 437.305033,82.1991189 437.305033,83.6759738 L437.305033,96.1218636 L421.946941,96.1218636 L421.946941,117.203683 L419.745901,117.203683 L419.745901,97.3661453 L414.101894,97.3661453 L414.101894,83.5672144 L396.754874,83.5672144 L396.754874,95.6597896 L394.606093,95.6597896 L394.606093,124.99473 L383.477932,124.99473 L383.477932,104.380822 L375.082625,104.380822 L375.082625,98.3022753 L370.004249,98.3022753 L370.004249,91.6956001 L361.608942,91.6956001 L361.608942,114.687469 L348,114.687469 L348,198.992934 L471,199 L471,97.9885934 L460.449765,97.9885934" id="Fill-2-Copy" fill="#BBD2EC" fill-rule="evenodd"></path>
                        <path d="M564.993702,112.541084 L564.993702,100.900801 C564.993702,99.3845271 564.256298,98.1533104 563.345696,98.1533104 L555.924423,98 L546.611092,98 C545.852694,98 545.236004,99.0263645 545.236004,100.290452 L545.236004,110.94329 L532.125437,110.94329 L532.125437,128.987898 L530.246501,128.987898 L530.246501,112.008311 L525.428446,112.008311 L525.428446,100.197361 L510.620014,100.197361 L510.620014,110.547786 L508.785689,110.547786 L508.785689,135.656506 L499.286039,135.656506 L499.286039,118.012399 L492.119314,118.012399 L492.119314,112.809575 L487.784115,112.809575 L487.784115,107.154709 L480.61739,107.154709 L480.61739,126.834189 L469,126.834189 L469,198.993952 L574,199 L574,112.541084 L564.993702,112.541084" id="Fill-2" fill="#BBD2EC" fill-rule="evenodd" opacity="0.698846726"></path>
                        <path d="M676.621314,97.9885934 L676.621314,84.3890548 C676.621314,82.6175663 675.771544,81.1791151 674.722183,81.1791151 L666.170049,81 L655.437544,81 C654.563581,81 653.852919,82.1991189 653.852919,83.6759738 L653.852919,96.1218636 L638.744552,96.1218636 L638.744552,117.203683 L636.579301,117.203683 L636.579301,97.3661453 L631.027067,97.3661453 L631.027067,83.5672144 L613.962111,83.5672144 L613.962111,95.6597896 L611.848271,95.6597896 L611.848271,124.99473 L600.901055,124.99473 L600.901055,104.380822 L592.642257,104.380822 L592.642257,98.3022753 L587.646456,98.3022753 L587.646456,91.6956001 L579.387659,91.6956001 L579.387659,114.687469 L566,114.687469 L566,198.992934 L687,199 L687,97.9885934 L676.621314,97.9885934" id="Fill-2-Copy" fill="#BBD2EC" fill-rule="evenodd"></path>
                        <path d="M351,208.982233 L351,271 L6,271 L0,148.307103 C66.3141281,158.409224 129.364461,141.224552 189.964222,144.04579 C251.739667,155.047068 307.582389,175.516536 351,208.982233 Z" id="Fill-60" fill="#A7C0DD" fill-rule="evenodd"></path>
                        <path d="M475.086252,144.04579 C475.082889,144.046386 475.081207,144.047578 475.077844,144.047578 C556.379156,155.047068 629.864941,175.516536 687,208.982233 L687,271 L233,271 L233,151.623322 C315.357281,144.230833 395.340479,141.224552 475.086252,144.04579" id="Fill-60-Copy" fill="#A7C0DD" fill-rule="evenodd" transform="translate(460.000000, 207.000000) scale(-1, 1) translate(-460.000000, -207.000000) "></path>
                        <g filter="url(#filter-3)" fill="none" fill-rule="evenodd" id="Group-30" stroke-width="1">
                            <g transform="translate(6.000000, 163.000000)">
                                <polygon id="Fill-1" fill="#7A7874" points="0 108 444 108 444 101 0 101"></polygon>
                                <polygon id="Fill-2" fill="#3B5777" points="0 101 444 101 444 65 0 65"></polygon>
                                <polygon id="Fill-3" fill="#3B5777" points="0 65 444 65 444 31 0 31"></polygon>
                                <polygon id="Fill-4" fill="#061525" points="0 12 444 12 444 0 0 0"></polygon>
                                <polygon id="Fill-5" fill="#C9C9C9" points="0 14 444 14 444 12 0 12"></polygon>
                                <polygon id="Fill-6" fill="#919191" points="0 31 5 31 5 19 0 19"></polygon>
                                <polygon id="Fill-7" fill="#7C7C7C" points="0 19 5 19 5 15 0 15"></polygon>
                                <polygon id="Fill-8" fill="#919191" points="39 31 44 31 44 19 39 19"></polygon>
                                <polygon id="Fill-9" fill="#7C7C7C" points="39 19 44 19 44 15 39 15"></polygon>
                                <polygon id="Fill-10" fill="#919191" points="77 31 82 31 82 19 77 19"></polygon>
                                <polygon id="Fill-11" fill="#7C7C7C" points="77 19 82 19 82 15 77 15"></polygon>
                                <polygon id="Fill-12" fill="#919191" points="117 31 122 31 122 19 117 19"></polygon>
                                <polygon id="Fill-13" fill="#7C7C7C" points="117 19 122 19 122 15 117 15"></polygon>
                                <polygon id="Fill-14" fill="#919191" points="155 31 160 31 160 19 155 19"></polygon>
                                <polygon id="Fill-15" fill="#7C7C7C" points="155 19 160 19 160 15 155 15"></polygon>
                                <polygon id="Fill-16" fill="#919191" points="194 31 199 31 199 19 194 19"></polygon>
                                <polygon id="Fill-17" fill="#7C7C7C" points="194 19 199 19 199 15 194 15"></polygon>
                                <polygon id="Fill-18" fill="#919191" points="233 31 238 31 238 19 233 19"></polygon>
                                <polygon id="Fill-19" fill="#7C7C7C" points="233 19 238 19 238 15 233 15"></polygon>
                                <polygon id="Fill-20" fill="#919191" points="272 31 277 31 277 19 272 19"></polygon>
                                <polygon id="Fill-21" fill="#7C7C7C" points="272 19 277 19 277 15 272 15"></polygon>
                                <polygon id="Fill-22" fill="#919191" points="310 31 315 31 315 19 310 19"></polygon>
                                <polygon id="Fill-23" fill="#7C7C7C" points="310 19 315 19 315 15 310 15"></polygon>
                                <polygon id="Fill-24" fill="#919191" points="350 31 355 31 355 19 350 19"></polygon>
                                <polygon id="Fill-25" fill="#7C7C7C" points="350 19 355 19 355 15 350 15"></polygon>
                                <polygon id="Fill-26" fill="#919191" points="388 31 393 31 393 19 388 19"></polygon>
                                <polygon id="Fill-27" fill="#7C7C7C" points="388 19 393 19 393 15 388 15"></polygon>
                                <polygon id="Fill-28" fill="#919191" points="427 31 432 31 432 19 427 19"></polygon>
                                <polygon id="Fill-29" fill="#7C7C7C" points="427 19 432 19 432 15 427 15"></polygon>
                            </g>
                        </g>
                        <g filter="url(#filter-4)" fill="none" fill-rule="evenodd" id="Group-30" stroke-width="1">
                            <g transform="translate(231.000000, 163.000000)">
                                <polygon id="Fill-1" fill="#7A7874" points="0 108 456 108 456 101 0 101"></polygon>
                                <polygon id="Fill-2" fill="#3B5777" points="0 101 456 101 456 65 0 65"></polygon>
                                <polygon id="Fill-3" fill="#3B5777" points="0 65 456 65 456 31 0 31"></polygon>
                                <polygon id="Fill-4" fill="#3B5777" points="0 12 456 12 456 0 0 0"></polygon>
                                <polygon id="Fill-5" fill="#C9C9C9" points="0 14 456 14 456 12 0 12"></polygon>
                                <polygon id="Fill-6" fill="#919191" points="12 31 17 31 17 19 12 19"></polygon>
                                <polygon id="Fill-7" fill="#7C7C7C" points="12 19 17 19 17 15 12 15"></polygon>
                                <polygon id="Fill-8" fill="#919191" points="51 31 56 31 56 19 51 19"></polygon>
                                <polygon id="Fill-9" fill="#7C7C7C" points="51 19 56 19 56 15 51 15"></polygon>
                                <polygon id="Fill-10" fill="#919191" points="89 31 94 31 94 19 89 19"></polygon>
                                <polygon id="Fill-11" fill="#7C7C7C" points="89 19 94 19 94 15 89 15"></polygon>
                                <polygon id="Fill-12" fill="#919191" points="129 31 134 31 134 19 129 19"></polygon>
                                <polygon id="Fill-13" fill="#7C7C7C" points="129 19 134 19 134 15 129 15"></polygon>
                                <polygon id="Fill-14" fill="#919191" points="167 31 172 31 172 19 167 19"></polygon>
                                <polygon id="Fill-15" fill="#7C7C7C" points="167 19 172 19 172 15 167 15"></polygon>
                                <polygon id="Fill-16" fill="#919191" points="206 31 211 31 211 19 206 19"></polygon>
                                <polygon id="Fill-17" fill="#7C7C7C" points="206 19 211 19 211 15 206 15"></polygon>
                                <polygon id="Fill-18" fill="#919191" points="245 31 250 31 250 19 245 19"></polygon>
                                <polygon id="Fill-19" fill="#7C7C7C" points="245 19 250 19 250 15 245 15"></polygon>
                                <polygon id="Fill-20" fill="#919191" points="284 31 289 31 289 19 284 19"></polygon>
                                <polygon id="Fill-21" fill="#7C7C7C" points="284 19 289 19 289 15 284 15"></polygon>
                                <polygon id="Fill-22" fill="#919191" points="322 31 327 31 327 19 322 19"></polygon>
                                <polygon id="Fill-23" fill="#7C7C7C" points="322 19 327 19 327 15 322 15"></polygon>
                                <polygon id="Fill-24" fill="#919191" points="362 31 367 31 367 19 362 19"></polygon>
                                <polygon id="Fill-25" fill="#7C7C7C" points="362 19 367 19 367 15 362 15"></polygon>
                                <polygon id="Fill-26" fill="#919191" points="400 31 405 31 405 19 400 19"></polygon>
                                <polygon id="Fill-27" fill="#7C7C7C" points="400 19 405 19 405 15 400 15"></polygon>
                                <polygon id="Fill-28" fill="#919191" points="439 31 444 31 444 19 439 19"></polygon>
                                <polygon id="Fill-29" fill="#7C7C7C" points="439 19 444 19 444 15 439 15"></polygon>
                            </g>
                        </g>
                    </g>
                </g>
            </g>
            <g id="Group-54">
                <mask id="mask-6" fill="white">
                    <use xlink:href="#path-5"></use>
                </mask>
                <g id="Mask"></g>
                <g id="rule-the-roads" mask="url(#mask-6)">
                    <g transform="translate(0.000000, -19.000000)">
                        <rect id="Mask" fill="none" x="0" y="0" width="683" height="252"></rect>
                        <path d="M93.2510247,105.692853 L93.2510247,93.1305676 C93.2510247,91.4941926 92.5346896,90.1654538 91.650105,90.1654538 L84.4408677,90 L75.3936319,90 C74.6569029,90 74.0578327,91.1076607 74.0578327,92.4718741 L74.0578327,103.968501 L61.3218534,103.968501 L61.3218534,123.442385 L59.496601,123.442385 L59.496601,105.11788 L54.8162051,105.11788 L54.8162051,92.3714099 L40.4308707,92.3714099 L40.4308707,103.54167 L38.6489553,103.54167 L38.6489553,130.6392 L29.4207238,130.6392 L29.4207238,111.597539 L22.4587624,111.597539 L22.4587624,105.98261 L18.2474258,105.98261 L18.2474258,99.879834 L11.2854644,99.879834 L11.2854644,121.118086 L0,121.118086 L0,198.993473 L102,199 L102,105.692853 L93.2510247,105.692853" id="Fill-2" fill="#BBD2EC" fill-rule="evenodd" opacity="0.698846726"></path>
                        <path d="M214.449765,97.9885934 L214.449765,84.3890548 C214.449765,82.6175663 213.585949,81.1791151 212.519244,81.1791151 L203.825752,81 L192.91585,81 C192.027442,81 191.305033,82.1991189 191.305033,83.6759738 L191.305033,96.1218636 L175.946941,96.1218636 L175.946941,117.203683 L173.745901,117.203683 L173.745901,97.3661453 L168.101894,97.3661453 L168.101894,83.5672144 L150.754874,83.5672144 L150.754874,95.6597896 L148.606093,95.6597896 L148.606093,124.99473 L137.477932,124.99473 L137.477932,104.380822 L129.082625,104.380822 L129.082625,98.3022753 L124.004249,98.3022753 L124.004249,91.6956001 L115.608942,91.6956001 L115.608942,114.687469 L102,114.687469 L102,198.992934 L225,199 L225,97.9885934 L214.449765,97.9885934" id="Fill-2-Copy" fill="#BBD2EC" fill-rule="evenodd"></path>
                        <path d="M332.221733,105.692853 L332.221733,93.1305676 C332.221733,91.4941926 331.421124,90.1654538 330.43247,90.1654538 L322.375087,90 L312.263471,90 C311.440068,90 310.770519,91.1076607 310.770519,92.4718741 L310.770519,103.968501 L296.536189,103.968501 L296.536189,123.442385 L294.496201,123.442385 L294.496201,105.11788 L289.26517,105.11788 L289.26517,92.3714099 L273.187444,92.3714099 L273.187444,103.54167 L271.195891,103.54167 L271.195891,130.6392 L260.881985,130.6392 L260.881985,111.597539 L253.10097,111.597539 L253.10097,105.98261 L248.394182,105.98261 L248.394182,99.879834 L240.613166,99.879834 L240.613166,121.118086 L228,121.118086 L228,198.993473 L342,199 L342,105.692853 L332.221733,105.692853" id="Fill-2" fill="#BBD2EC" fill-rule="evenodd" opacity="0.698846726"></path>
                        <path d="M454.449765,97.9885934 L454.449765,84.3890548 C454.449765,82.6175663 453.585949,81.1791151 452.519244,81.1791151 L443.825752,81 L432.91585,81 C432.027442,81 431.305033,82.1991189 431.305033,83.6759738 L431.305033,96.1218636 L415.946941,96.1218636 L415.946941,117.203683 L413.745901,117.203683 L413.745901,97.3661453 L408.101894,97.3661453 L408.101894,83.5672144 L390.754874,83.5672144 L390.754874,95.6597896 L388.606093,95.6597896 L388.606093,124.99473 L377.477932,124.99473 L377.477932,104.380822 L369.082625,104.380822 L369.082625,98.3022753 L364.004249,98.3022753 L364.004249,91.6956001 L355.608942,91.6956001 L355.608942,114.687469 L342,114.687469 L342,198.992934 L465,199 L465,97.9885934 L454.449765,97.9885934" id="Fill-2-Copy" fill="#BBD2EC" fill-rule="evenodd"></path>
                        <path d="M558.993702,112.541084 L558.993702,100.900801 C558.993702,99.3845271 558.256298,98.1533104 557.345696,98.1533104 L549.924423,98 L540.611092,98 C539.852694,98 539.236004,99.0263645 539.236004,100.290452 L539.236004,110.94329 L526.125437,110.94329 L526.125437,128.987898 L524.246501,128.987898 L524.246501,112.008311 L519.428446,112.008311 L519.428446,100.197361 L504.620014,100.197361 L504.620014,110.547786 L502.785689,110.547786 L502.785689,135.656506 L493.286039,135.656506 L493.286039,118.012399 L486.119314,118.012399 L486.119314,112.809575 L481.784115,112.809575 L481.784115,107.154709 L474.61739,107.154709 L474.61739,126.834189 L463,126.834189 L463,198.993952 L568,199 L568,112.541084 L558.993702,112.541084" id="Fill-2" fill="#BBD2EC" fill-rule="evenodd" opacity="0.698846726"></path>
                        <path d="M670.621314,97.9885934 L670.621314,84.3890548 C670.621314,82.6175663 669.771544,81.1791151 668.722183,81.1791151 L660.170049,81 L649.437544,81 C648.563581,81 647.852919,82.1991189 647.852919,83.6759738 L647.852919,96.1218636 L632.744552,96.1218636 L632.744552,117.203683 L630.579301,117.203683 L630.579301,97.3661453 L625.027067,97.3661453 L625.027067,83.5672144 L607.962111,83.5672144 L607.962111,95.6597896 L605.848271,95.6597896 L605.848271,124.99473 L594.901055,124.99473 L594.901055,104.380822 L586.642257,104.380822 L586.642257,98.3022753 L581.646456,98.3022753 L581.646456,91.6956001 L573.387659,91.6956001 L573.387659,114.687469 L560,114.687469 L560,198.992934 L681,199 L681,97.9885934 L670.621314,97.9885934" id="Fill-2-Copy" fill="#BBD2EC" fill-rule="evenodd"></path>
                        <path d="M183.964222,144.04579 C183.961667,144.046386 183.960389,144.047578 183.957833,144.047578 C245.739667,155.047068 301.582389,175.516536 345,208.982233 L345,271 L0,271 L0,151.623322 C62.5842778,144.230833 123.364461,141.224552 183.964222,144.04579" id="Fill-60" fill="#A7C0DD" fill-rule="evenodd"></path>
                        <path d="M469.086252,144.04579 C469.082889,144.046386 469.081207,144.047578 469.077844,144.047578 C550.379156,155.047068 623.864941,175.516536 681,208.982233 L681,271 L227,271 L227,151.623322 C309.357281,144.230833 389.340479,141.224552 469.086252,144.04579" id="Fill-60-Copy" fill="#A7C0DD" fill-rule="evenodd" transform="translate(454.000000, 207.000000) scale(-1, 1) translate(-454.000000, -207.000000) "></path>
                        <g filter="url(#filter-7)" fill="none" fill-rule="evenodd" id="Group-30" stroke-width="1">
                            <g transform="translate(0.000000, 163.000000)">
                                <polygon id="Fill-1" fill="#7A7874" points="0 108 444 108 444 101 0 101"></polygon>
                                <polygon id="Fill-2" fill="#3B5777" points="0 101 444 101 444 65 0 65"></polygon>
                                <polygon id="Fill-3" fill="#3B5777" points="0 65 444 65 444 31 0 31"></polygon>
                                <polygon id="Fill-4" fill="#061525" points="0 12 444 12 444 0 0 0"></polygon>
                                <polygon id="Fill-5" fill="#C9C9C9" points="0 14 444 14 444 12 0 12"></polygon>
                                <polygon id="Fill-6" fill="#919191" points="0 31 5 31 5 19 0 19"></polygon>
                                <polygon id="Fill-7" fill="#7C7C7C" points="0 19 5 19 5 15 0 15"></polygon>
                                <polygon id="Fill-8" fill="#919191" points="39 31 44 31 44 19 39 19"></polygon>
                                <polygon id="Fill-9" fill="#7C7C7C" points="39 19 44 19 44 15 39 15"></polygon>
                                <polygon id="Fill-10" fill="#919191" points="77 31 82 31 82 19 77 19"></polygon>
                                <polygon id="Fill-11" fill="#7C7C7C" points="77 19 82 19 82 15 77 15"></polygon>
                                <polygon id="Fill-12" fill="#919191" points="117 31 122 31 122 19 117 19"></polygon>
                                <polygon id="Fill-13" fill="#7C7C7C" points="117 19 122 19 122 15 117 15"></polygon>
                                <polygon id="Fill-14" fill="#919191" points="155 31 160 31 160 19 155 19"></polygon>
                                <polygon id="Fill-15" fill="#7C7C7C" points="155 19 160 19 160 15 155 15"></polygon>
                                <polygon id="Fill-16" fill="#919191" points="194 31 199 31 199 19 194 19"></polygon>
                                <polygon id="Fill-17" fill="#7C7C7C" points="194 19 199 19 199 15 194 15"></polygon>
                                <polygon id="Fill-18" fill="#919191" points="233 31 238 31 238 19 233 19"></polygon>
                                <polygon id="Fill-19" fill="#7C7C7C" points="233 19 238 19 238 15 233 15"></polygon>
                                <polygon id="Fill-20" fill="#919191" points="272 31 277 31 277 19 272 19"></polygon>
                                <polygon id="Fill-21" fill="#7C7C7C" points="272 19 277 19 277 15 272 15"></polygon>
                                <polygon id="Fill-22" fill="#919191" points="310 31 315 31 315 19 310 19"></polygon>
                                <polygon id="Fill-23" fill="#7C7C7C" points="310 19 315 19 315 15 310 15"></polygon>
                                <polygon id="Fill-24" fill="#919191" points="350 31 355 31 355 19 350 19"></polygon>
                                <polygon id="Fill-25" fill="#7C7C7C" points="350 19 355 19 355 15 350 15"></polygon>
                                <polygon id="Fill-26" fill="#919191" points="388 31 393 31 393 19 388 19"></polygon>
                                <polygon id="Fill-27" fill="#7C7C7C" points="388 19 393 19 393 15 388 15"></polygon>
                                <polygon id="Fill-28" fill="#919191" points="427 31 432 31 432 19 427 19"></polygon>
                                <polygon id="Fill-29" fill="#7C7C7C" points="427 19 432 19 432 15 427 15"></polygon>
                            </g>
                        </g>
                        <g filter="url(#filter-8)" fill="none" fill-rule="evenodd" id="Group-30" stroke-width="1">
                            <g transform="translate(225.000000, 163.000000)">
                                <polygon id="Fill-1" fill="#7A7874" points="0 108 456 108 456 101 0 101"></polygon>
                                <polygon id="Fill-2" fill="#3B5777" points="0 101 456 101 456 65 0 65"></polygon>
                                <polygon id="Fill-3" fill="#3B5777" points="0 65 456 65 456 31 0 31"></polygon>
                                <polygon id="Fill-4" fill="#3B5777" points="0 12 456 12 456 0 0 0"></polygon>
                                <polygon id="Fill-5" fill="#C9C9C9" points="0 14 456 14 456 12 0 12"></polygon>
                                <polygon id="Fill-6" fill="#919191" points="12 31 17 31 17 19 12 19"></polygon>
                                <polygon id="Fill-7" fill="#7C7C7C" points="12 19 17 19 17 15 12 15"></polygon>
                                <polygon id="Fill-8" fill="#919191" points="51 31 56 31 56 19 51 19"></polygon>
                                <polygon id="Fill-9" fill="#7C7C7C" points="51 19 56 19 56 15 51 15"></polygon>
                                <polygon id="Fill-10" fill="#919191" points="89 31 94 31 94 19 89 19"></polygon>
                                <polygon id="Fill-11" fill="#7C7C7C" points="89 19 94 19 94 15 89 15"></polygon>
                                <polygon id="Fill-12" fill="#919191" points="129 31 134 31 134 19 129 19"></polygon>
                                <polygon id="Fill-13" fill="#7C7C7C" points="129 19 134 19 134 15 129 15"></polygon>
                                <polygon id="Fill-14" fill="#919191" points="167 31 172 31 172 19 167 19"></polygon>
                                <polygon id="Fill-15" fill="#7C7C7C" points="167 19 172 19 172 15 167 15"></polygon>
                                <polygon id="Fill-16" fill="#919191" points="206 31 211 31 211 19 206 19"></polygon>
                                <polygon id="Fill-17" fill="#7C7C7C" points="206 19 211 19 211 15 206 15"></polygon>
                                <polygon id="Fill-18" fill="#919191" points="245 31 250 31 250 19 245 19"></polygon>
                                <polygon id="Fill-19" fill="#7C7C7C" points="245 19 250 19 250 15 245 15"></polygon>
                                <polygon id="Fill-20" fill="#919191" points="284 31 289 31 289 19 284 19"></polygon>
                                <polygon id="Fill-21" fill="#7C7C7C" points="284 19 289 19 289 15 284 15"></polygon>
                                <polygon id="Fill-22" fill="#919191" points="322 31 327 31 327 19 322 19"></polygon>
                                <polygon id="Fill-23" fill="#7C7C7C" points="322 19 327 19 327 15 322 15"></polygon>
                                <polygon id="Fill-24" fill="#919191" points="362 31 367 31 367 19 362 19"></polygon>
                                <polygon id="Fill-25" fill="#7C7C7C" points="362 19 367 19 367 15 362 15"></polygon>
                                <polygon id="Fill-26" fill="#919191" points="400 31 405 31 405 19 400 19"></polygon>
                                <polygon id="Fill-27" fill="#7C7C7C" points="400 19 405 19 405 15 400 15"></polygon>
                                <polygon id="Fill-28" fill="#919191" points="439 31 444 31 444 19 439 19"></polygon>
                                <polygon id="Fill-29" fill="#7C7C7C" points="439 19 444 19 444 15 439 15"></polygon>
                            </g>
                        </g>
                    </g>
                </g>
            </g>
        </g>
    </g>
</svg>