<?xml version="1.0" encoding="UTF-8"?>
<svg width="80px" height="80px" viewBox="0 0 80 80" version="1.1" xmlns="http://www.w3.org/2000/svg" xmlns:xlink="http://www.w3.org/1999/xlink">
    <title>RULE THE CITY ROADS Copy</title>
    <defs>
        <rect id="path-1" x="0" y="0" width="80" height="80"></rect>
        <rect id="path-3" x="0" y="0" width="217" height="80"></rect>
        <filter id="filter-5">
            <feColorMatrix in="SourceGraphic" type="matrix" values="0 0 0 0 0.498039 0 0 0 0 0.627451 0 0 0 0 0.752941 0 0 0 1.000000 0"></feColorMatrix>
        </filter>
        <rect id="path-6" x="0" y="0" width="217" height="80"></rect>
        <filter id="filter-8">
            <feColorMatrix in="SourceGraphic" type="matrix" values="0 0 0 0 0.496920 0 0 0 0 0.628509 0 0 0 0 0.752123 0 0 0 1.000000 0"></feColorMatrix>
        </filter>
    </defs>
    <g id="Desktop" stroke="none" stroke-width="1" fill="none" fill-rule="evenodd">
        <g id="RULE-THE-CITY-ROADS-Copy">
            <mask id="mask-2" fill="white">
                <use xlink:href="#path-1"></use>
            </mask>
            <g id="Mask"></g>
            <g id="Group-59" mask="url(#mask-2)">
                <g transform="translate(-188.000000, 13.000000)">
                    <g id="Group-54-Copy" transform="translate(207.000000, 0.000000)">
                        <mask id="mask-4" fill="white">
                            <use xlink:href="#path-3"></use>
                        </mask>
                        <g id="Mask"></g>
                        <g id="rule-the-roads" mask="url(#mask-4)">
                            <g transform="translate(-1.906296, -6.031746)">
                                <rect id="Mask" fill="none" x="1.90629575" y="0" width="217" height="80"></rect>
                                <path d="M31.5336345,33.5532867 L31.5336345,29.5652595 C31.5336345,29.0457754 31.3060434,28.6239536 31.0249967,28.6239536 L28.734507,28.5714286 L25.8600558,28.5714286 C25.6259853,28.5714286 25.4356511,28.9230669 25.4356511,29.3561505 L25.4356511,33.0058734 L21.3892272,33.0058734 L21.3892272,39.1880588 L20.8093154,39.1880588 L20.8093154,33.3707556 L19.3222789,33.3707556 L19.3222789,29.3242571 L14.7518286,29.3242571 L14.7518286,32.8703714 L14.1856857,32.8703714 L14.1856857,41.4727619 L11.2537292,41.4727619 L11.2537292,35.4277902 L9.04180298,35.4277902 L9.04180298,33.6452731 L7.70379413,33.6452731 L7.70379413,31.7078838 L5.49186789,31.7078838 L5.49186789,38.4501859 L1.90629575,38.4501859 L1.90629575,63.172531 L34.3133236,63.1746032 L34.3133236,33.5532867 L31.5336345,33.5532867" id="Fill-2" fill="#BBD2EC" fill-rule="evenodd" opacity="0.698846726"></path>
                                <path d="M70.0404085,31.10749 L70.0404085,26.7901761 C70.0404085,26.2277988 69.7659604,25.7711477 69.4270512,25.7711477 L66.6649901,25.7142857 L63.1987401,25.7142857 C62.9164786,25.7142857 62.6869579,26.0949584 62.6869579,26.5638012 L62.6869579,30.5148773 L57.8074468,30.5148773 L57.8074468,37.2075184 L57.1081414,37.2075184 L57.1081414,30.9098874 L55.3149504,30.9098874 L55.3149504,26.5292744 L49.803525,26.5292744 L49.803525,30.3681872 L49.1208232,30.3681872 L49.1208232,39.6808667 L45.5852286,39.6808667 L45.5852286,33.1367689 L42.9179058,33.1367689 L42.9179058,31.2070715 L41.3044246,31.2070715 L41.3044246,29.1097143 L38.6371017,29.1097143 L38.6371017,36.4087203 L34.3133236,36.4087203 L34.3133236,63.1723599 L73.3923865,63.1746032 L73.3923865,31.10749 L70.0404085,31.10749" id="Fill-2-Copy" fill="#BBD2EC" fill-rule="evenodd"></path>
                                <path d="M111.518302,66.343566 L111.518302,86.031746 L1.90629575,86.031746 L0,47.08162 C21.0690568,50.2886425 41.1011538,44.8331911 60.354665,45.7288222 C79.9817096,49.2212913 97.7238337,55.7195354 111.518302,66.343566 Z" id="Fill-60" fill="#A7C0DD" fill-rule="evenodd"></path>
                                <g filter="url(#filter-5)" fill="none" fill-rule="evenodd" id="Group-30" stroke-width="1">
                                    <g transform="translate(1.906296, 51.746032)">
                                        <polygon id="Fill-2" fill="#3B5777" points="0 32.0634921 141.065886 32.0634921 141.065886 20.6349206 0 20.6349206"></polygon>
                                        <polygon id="Fill-3" fill="#3B5777" points="0 20.6349206 141.065886 20.6349206 141.065886 9.84126984 0 9.84126984"></polygon>
                                        <polygon id="Fill-4" fill="#061525" points="0 3.80952381 141.065886 3.80952381 141.065886 0 0 0"></polygon>
                                        <polygon id="Fill-5" fill="#C9C9C9" points="0 4.44444444 141.065886 4.44444444 141.065886 3.80952381 0 3.80952381"></polygon>
                                        <polygon id="Fill-6" fill="#919191" points="0 9.84126984 1.5885798 9.84126984 1.5885798 6.03174603 0 6.03174603"></polygon>
                                        <polygon id="Fill-7" fill="#7C7C7C" points="0 6.03174603 1.5885798 6.03174603 1.5885798 4.76190476 0 4.76190476"></polygon>
                                        <polygon id="Fill-8" fill="#919191" points="12.3909224 9.84126984 13.9795022 9.84126984 13.9795022 6.03174603 12.3909224 6.03174603"></polygon>
                                        <polygon id="Fill-9" fill="#7C7C7C" points="12.3909224 6.03174603 13.9795022 6.03174603 13.9795022 4.76190476 12.3909224 4.76190476"></polygon>
                                        <polygon id="Fill-10" fill="#919191" points="24.4641288 9.84126984 26.0527086 9.84126984 26.0527086 6.03174603 24.4641288 6.03174603"></polygon>
                                        <polygon id="Fill-11" fill="#7C7C7C" points="24.4641288 6.03174603 26.0527086 6.03174603 26.0527086 4.76190476 24.4641288 4.76190476"></polygon>
                                        <polygon id="Fill-12" fill="#919191" points="37.1727672 9.84126984 38.761347 9.84126984 38.761347 6.03174603 37.1727672 6.03174603"></polygon>
                                        <polygon id="Fill-13" fill="#7C7C7C" points="37.1727672 6.03174603 38.761347 6.03174603 38.761347 4.76190476 37.1727672 4.76190476"></polygon>
                                        <polygon id="Fill-14" fill="#919191" points="49.2459736 9.84126984 50.8345534 9.84126984 50.8345534 6.03174603 49.2459736 6.03174603"></polygon>
                                        <polygon id="Fill-15" fill="#7C7C7C" points="49.2459736 6.03174603 50.8345534 6.03174603 50.8345534 4.76190476 49.2459736 4.76190476"></polygon>
                                    </g>
                                </g>
                            </g>
                        </g>
                    </g>
                    <g id="Group-54">
                        <mask id="mask-7" fill="white">
                            <use xlink:href="#path-6"></use>
                        </mask>
                        <g id="Mask"></g>
                        <g id="rule-the-roads" mask="url(#mask-7)">
                            <g transform="translate(0.000000, -6.031746)">
                                <rect id="Mask" fill="none" x="0" y="0" width="217" height="80"></rect>
                                <path d="M213.067094,31.10749 L213.067094,26.7901761 C213.067094,26.2277988 212.797108,25.7711477 212.46371,25.7711477 L209.74656,25.7142857 L206.336672,25.7142857 C206.059,25.7142857 205.833211,26.0949584 205.833211,26.5638012 L205.833211,30.5148773 L201.033042,30.5148773 L201.033042,37.2075184 L200.345107,37.2075184 L200.345107,30.9098874 L198.581074,30.9098874 L198.581074,26.5292744 L193.159265,26.5292744 L193.159265,30.3681872 L192.487664,30.3681872 L192.487664,39.6808667 L189.009559,39.6808667 L189.009559,33.1367689 L186.385607,33.1367689 L186.385607,31.2070715 L184.798362,31.2070715 L184.798362,29.1097143 L182.17441,29.1097143 L182.17441,36.4087203 L177.920937,36.4087203 L177.920937,63.1723599 L216.364568,63.1746032 L216.364568,31.10749 L213.067094,31.10749" id="Fill-2-Copy" fill="#BBD2EC" fill-rule="evenodd"></path>
                                <path d="M149.036188,45.7288222 C149.03512,45.7290114 149.034586,45.7293898 149.033517,45.7293898 C174.864241,49.2212913 198.211848,55.7195354 216.364568,66.343566 L216.364568,86.031746 L72.1215227,86.031746 L72.1215227,48.134388 C98.2877454,45.787566 123.699684,44.8331911 149.036188,45.7288222" id="Fill-60-Copy" fill="#A7C0DD" fill-rule="evenodd" transform="translate(144.243045, 65.714286) scale(-1, 1) translate(-144.243045, -65.714286) "></path>
                                <g filter="url(#filter-8)" fill="none" fill-rule="evenodd" id="Group-30" stroke-width="1">
                                    <g transform="translate(71.486091, 51.746032)">
                                        <polygon id="Fill-2" fill="#3B5777" points="0 32.0634921 144.878477 32.0634921 144.878477 20.6349206 0 20.6349206"></polygon>
                                        <polygon id="Fill-3" fill="#3B5777" points="0 20.6349206 144.878477 20.6349206 144.878477 9.84126984 0 9.84126984"></polygon>
                                        <polygon id="Fill-4" fill="#3B5777" points="0 3.80952381 144.878477 3.80952381 144.878477 0 0 0"></polygon>
                                        <polygon id="Fill-5" fill="#C9C9C9" points="0 4.44444444 144.878477 4.44444444 144.878477 3.80952381 0 3.80952381"></polygon>
                                        <polygon id="Fill-24" fill="#919191" points="115.013177 9.84126984 116.601757 9.84126984 116.601757 6.03174603 115.013177 6.03174603"></polygon>
                                        <polygon id="Fill-25" fill="#7C7C7C" points="115.013177 6.03174603 116.601757 6.03174603 116.601757 4.76190476 115.013177 4.76190476"></polygon>
                                        <polygon id="Fill-26" fill="#919191" points="127.086384 9.84126984 128.674963 9.84126984 128.674963 6.03174603 127.086384 6.03174603"></polygon>
                                        <polygon id="Fill-27" fill="#7C7C7C" points="127.086384 6.03174603 128.674963 6.03174603 128.674963 4.76190476 127.086384 4.76190476"></polygon>
                                        <polygon id="Fill-28" fill="#919191" points="139.477306 9.84126984 141.065886 9.84126984 141.065886 6.03174603 139.477306 6.03174603"></polygon>
                                        <polygon id="Fill-29" fill="#7C7C7C" points="139.477306 6.03174603 141.065886 6.03174603 141.065886 4.76190476 139.477306 4.76190476"></polygon>
                                    </g>
                                </g>
                            </g>
                        </g>
                    </g>
                </g>
            </g>
        </g>
    </g>
</svg>