<?xml version="1.0" encoding="utf-8"?>
<!-- Generator: Adobe Illustrator 23.0.4, SVG Export Plug-In . SVG Version: 6.00 Build 0)  -->
<svg version="1.1" id="Layer_1" xmlns="http://www.w3.org/2000/svg" xmlns:xlink="http://www.w3.org/1999/xlink" x="0px" y="0px"
	 viewBox="0 0 180 180" style="enable-background:new 0 0 180 180;" xml:space="preserve">
<style type="text/css">
	.st0{fill-rule:evenodd;clip-rule:evenodd;fill:#CDD1D4;}
	.st1{fill:#89C5CC;}
	.st2{fill:#5C63AB;}
	.st3{fill:#69A1AC;}
	.st4{fill:#3B3944;}
	.st5{fill:#568D98;}
	.st6{fill:#2F3676;}
	.st7{fill:#FFFFFF;}
</style>
<g>
	<path class="st0" d="M14,149.6c-30.4,8.7-8.5,23.1,39.6,26.2c48.1,3.1,115.3-9.7,125.8-21.8C190,142,44.4,140.9,14,149.6z"/>
	<path class="st1" d="M77.2,3.7h21.5c5.9,0,10.7,4.8,10.7,10.7l1.6,8c0,5.9-4.8,10.7-10.7,10.7H75.6c-5.9,0-10.7-4.8-10.7-10.7
		l1.6-8C66.4,8.4,71.2,3.7,77.2,3.7z M135.8,133.4H40c-3,0-5.5,2.4-5.5,5.4c0,0.4,0,0.7,0.1,1.1l3.3,16.3c0.5,2.5,2.8,4.4,5.4,4.4
		h89.3c2.6,0,4.8-1.8,5.4-4.4l3.3-16.3c0.6-2.9-1.3-5.8-4.3-6.4C136.5,133.5,136.2,133.4,135.8,133.4L135.8,133.4z M57.6,33h58.5
		c8.3,0,15.3,6.2,16.3,14.3l5.3,43.6c0.8,6.6,0.4,13.2-1.2,19.6l-5.8,22.9H43l-5.8-22.9c-1.6-6.4-2-13.1-1.2-19.6l5.3-43.6
		C42.2,39.1,49.3,33,57.6,33z"/>
	<path class="st2" d="M56.5,33h60.7v100.5H56.5V33z M65.9,133.4h44v15.7h-44V133.4z"/>
	<path class="st3" d="M137.7,91l-5.5-43.5c-0.5-4-2.6-7.7-5.9-10.4c-1.7,11.9-5.1,23.6-10.2,34.6v61.7h14.3l6-22.8
		C138.1,104.2,138.6,97.6,137.7,91z"/>
	<path class="st4" d="M57.6,33.3v0.3c0.4-0.1,0.7-0.3,1-0.3H57.6z M118.3,33.3h-1c0.4,0,0.7,0.2,1,0.3V33.3z"/>
	<path class="st3" d="M135.8,133.4h-7.7c-9.3,11.7-21.3,21.1-34.9,27.2h39.4c2.6,0,4.9-1.8,5.4-4.4l3.3-16.3
		c0.6-2.9-1.3-5.8-4.3-6.4C136.5,133.5,136.2,133.4,135.8,133.4L135.8,133.4z"/>
	<path class="st5" d="M104.4,6.8c1.3,1.8,2,3.9,2,6l1.6,7.9c0,5.8-5.1,10.6-11.4,10.6H72.4c-2.3,0-4.6-0.7-6.5-1.9
		c2.1,2.8,5.6,4.6,9.3,4.6h24.3c6.3,0,11.4-4.7,11.4-10.6l-1.6-7.9C109.3,12,107.5,8.8,104.4,6.8z"/>
	<path class="st6" d="M118,70.6c-12.9,36.1-51.8,58.9-59.4,62.8h59.7v-13.7L118,70.6z"/>
	<path class="st7" d="M65.9,49.7h44v5.2h-44V49.7z M65.9,65.4h44v5.2h-44V65.4z"/>
	<path class="st7" d="M60.7,33v100.5h-4.2V33H60.7z"/>
	<path class="st7" d="M118.3,33v100.5h-4.2V33H118.3z"/>
</g>
</svg>
