<?xml version="1.0" encoding="UTF-8"?>
<svg width="80px" height="80px" viewBox="0 0 80 80" version="1.1" xmlns="http://www.w3.org/2000/svg" xmlns:xlink="http://www.w3.org/1999/xlink">
    <title>CITY ROADS,  HIGHWAYS &amp; OFF-ROAD</title>
    <defs>
        <rect id="path-1" x="0" y="0" width="80" height="80"></rect>
        <rect id="path-3" x="0" y="0" width="103" height="35"></rect>
        <polygon id="path-5" points="0.1265293 0.0646515747 124.239267 0.0646515747 124.239267 25.972009 0.1265293 25.972009"></polygon>
        <rect id="path-7" x="52.670571" y="0" width="103" height="38.0172414"></rect>
        <rect id="path-9" x="0" y="0" width="103" height="38"></rect>
        <polygon id="path-11" points="0.1265293 0.0646222542 124.239267 0.0646222542 124.239267 25.9602304 0.1265293 25.9602304"></polygon>
        <path d="M9.89926258,0.0781552458 C9.90900975,0.0803619822 9.91857301,0.0803619822 9.930711,0.085327139 C9.97392958,0.455507162 10.031677,0.912485482 9.97153876,1.23687573 C9.79351498,2.15542973 9.12758097,2.27569686 8.46366996,2.73506581 C7.95644931,3.0859369 7.7736439,3.69186992 7.40821698,4.17036392 C7.23258401,4.40115176 6.88885834,4.61520519 6.76122558,4.88222029 C6.56904082,5.29322493 6.76122558,5.78845335 6.68196086,6.21177894 C6.5065118,7.13511421 5.75855444,8.03914053 5.04682713,8.60663957 C4.3494447,9.15942702 3.52222262,9.1428765 2.70952934,9.53236547 C1.86318073,9.93858885 0.487726315,10.8089624 0.117333857,11.6554297 C0.119724672,10.888405 0.0717244581,9.8639276 0.312277256,9.10425861 C0.773888512,7.63751452 1.72837553,6.34878049 2.21426276,4.87008324 C2.35127486,4.45411343 2.46419491,4.0670151 2.58208049,3.69904181 C3.84461486,2.9921506 5.34016177,2.60266163 5.69602543,2.06899923" id="path-13"></path>
        <polygon id="path-15" points="0 0.0808952768 54.5300273 0.0808952768 54.5300273 15.2126458 0 15.2126458"></polygon>
    </defs>
    <g id="Desktop" stroke="none" stroke-width="1" fill="none" fill-rule="evenodd">
        <g id="CITY-ROADS,--HIGHWAYS-&amp;-OFF-ROAD">
            <mask id="mask-2" fill="white">
                <use xlink:href="#path-1"></use>
            </mask>
            <g id="Mask"></g>
            <g id="Group-23" mask="url(#mask-2)">
                <g transform="translate(-34.000000, 42.000000)">
                    <g id="Group-17" transform="translate(102.000000, 3.000000)">
                        <mask id="mask-4" fill="white">
                            <use xlink:href="#path-3"></use>
                        </mask>
                        <g id="Mask"></g>
                        <g mask="url(#mask-4)">
                            <g transform="translate(-52.067350, -3.017241)">
                                <g id="Group-9" stroke="none" stroke-width="1" fill="none" fill-rule="evenodd" transform="translate(78.765739, 26.155172) scale(-1, 1) translate(-78.765739, -26.155172) translate(0.765739, 9.655172)">
                                    <g id="Group-2" transform="translate(61.239385, 16.500000) scale(-1, 1) translate(-61.239385, -16.500000) translate(0.739385, 0.000000)">
                                        <g id="Group-7" transform="translate(14.929722, 0.000000)" fill="#D9E6F4" opacity="0.698846726">
                                            <path d="M15.7171867,3.72521493 L15.7171867,1.83004252 C15.7171867,1.5831756 15.5964506,1.38271932 15.4473564,1.38271932 L14.2322606,1.35775862 L12.7073756,1.35775862 C12.5832021,1.35775862 12.4822305,1.52486261 12.4822305,1.73067067 L12.4822305,3.4650756 L10.3356186,3.4650756 L10.3356186,6.40294605 L10.0279776,6.40294605 L10.0279776,3.63847328 L9.23911062,3.63847328 L9.23911062,1.71551442 L6.8145047,1.71551442 L6.8145047,3.40068298 L6.51416808,3.40068298 L6.51416808,7.48867241 L4.95877672,7.48867241 L4.95877672,4.61600804 L3.78535854,4.61600804 L3.78535854,3.76892827 L3.0755501,3.76892827 L3.0755501,2.84825082 L1.90213192,2.84825082 L1.90213192,6.05229741 L0,6.05229741 L0,17.8007394 L17.1918009,17.8017241 L17.1918009,3.72521493 L15.7171867,3.72521493" id="Fill-2"></path>
                                        </g>
                                        <g id="Group-5-Copy" transform="translate(0.000000, 9.353448)">
                                            <path d="M36.6687105,0.157770023 C36.6682011,0.157859929 36.6679464,0.158039743 36.667437,0.158039743 C48.982115,1.81744556 60.1129783,4.90551195 68.7672035,9.95421617 L68.7672035,19.3103448 L-4.28614359e-15,19.3103448 L-4.28614359e-15,1.30093224 C12.4746254,0.185686017 24.5896493,-0.267847745 36.6687105,0.157770023" id="Fill-60" fill="#DEE8F0"></path>
                                            <path d="M69.6206854,2.87328726 C69.61989,2.87337717 69.6194923,2.87355698 69.618697,2.87355698 C88.8468784,4.5329628 106.226647,7.62102919 119.739385,12.6697334 L119.739385,22.0258621 L12.3660322,22.0258621 L12.3660322,4.01644948 C31.8439561,2.90120326 50.7603969,2.4476695 69.6206854,2.87328726" id="Fill-60-Copy" fill="#B2C8E2" transform="translate(66.052709, 12.370690) scale(-1, 1) translate(-66.052709, -12.370690) "></path>
                                        </g>
                                    </g>
                                    <g id="Group-22" transform="translate(15.874085, 4.676724)">
                                        <g id="Group-5" transform="translate(14.609720, 0.004967)">
                                            <mask id="mask-6" fill="white">
                                                <use xlink:href="#path-5"></use>
                                            </mask>
                                            <g id="Clip-4"></g>
                                            <path d="M115.190969,18.004836 L115.190969,25.972009 L45.0751621,25.972009 L46.181374,7.82734966 C46.181374,7.82734966 48.3960045,6.3479815 50.4423585,5.00567704 C51.5627313,4.26700484 52.632897,3.57193545 53.2580032,3.18226976 C55.0277583,2.0756413 58.1249675,0.969012826 59.009937,0.526545416 C59.4474562,0.307611438 60.3204716,0.141663162 61.1979008,0.0862857443 C62.0902266,0.0285166106 62.9871501,0.0815023129 63.4342326,0.305219722 C64.3168112,0.74787111 68.0775637,1.63317389 68.0775637,1.63317389 L78.0161992,3.42545265 L83.4151829,3.7475591 C83.4151829,3.7475591 82.8971241,7.60602397 83.7820935,8.04849138 C84.6668791,8.49114277 88.2063891,10.2615643 88.8701162,10.2615643 C89.5338433,10.2615643 93.7346897,11.5895185 93.7346897,11.5895185 C93.7346897,11.5895185 105.678283,14.6877103 106.563253,14.6877103 C107.448038,14.6877103 112.536061,16.0154804 112.536061,16.0154804 L115.190969,18.004836 Z" id="Fill-3" fill="#8AACD2" mask="url(#mask-6)"></path>
                                        </g>
                                        <path d="M120.394505,25.5631544 L16.4389148,25.5631544 L3.95187051,26.1068098 C4.72373603,26.063575 11.0213274,25.6810844 12.2669421,24.8487673 C13.5942124,23.9636485 26.7955587,18.3081607 28.122829,16.9803906 C28.6421876,16.4606523 29.1952016,16.2130178 29.716951,16.0903044 C30.5274374,15.8978632 31.2582913,16.0084341 31.662339,15.8737621 C32.1625712,15.7078138 34.711548,14.4497713 36.5052112,13.4610729 C37.0966621,13.1337758 37.6066414,12.8381229 37.9336314,12.6191889 C39.2609017,11.7338861 40.3261018,10.7405882 41.4323137,9.63395974 C42.5383416,8.52733127 43.6445534,6.31425831 44.9720076,5.20781381 C45.2338939,4.99145553 45.5272285,4.79883042 45.8374828,4.62552302 C47.1000171,3.91849506 48.595564,3.5286454 48.9514277,2.99474085 C49.3939124,2.33094775 51.8273946,0.781667893 53.1546649,1.00299359 C53.164412,1.0053853 53.1739753,1.0053853 53.1861133,1.01016873 C54.5131997,1.25559556 56.4874613,3.22084998 58.2428715,3.88004363 C60.0102357,4.54383673 62.8862025,4.98648812 64.4347152,6.535584 C65.9832279,8.08467988 72.6199471,10.5190785 72.6199471,10.5190785 C72.6199471,10.5190785 79.887449,13.4500706 82.5727272,14.5001813 C85.2580054,15.5502921 95.9357641,13.5441776 98.1481878,13.5441776 C100.360244,13.5441776 106.01743,18.7051856 108.229669,19.147653 C110.441909,19.5903044 115.970026,19.81163 117.076238,19.81163 C118.182449,19.81163 119.952204,19.5903044 119.952204,19.5903044 L120.394505,25.5631544 Z" id="Fill-9" fill="#A7C0DD"></path>
                                        <path d="M44.431334,13.5109677 C44.431334,13.5461075 44.6891742,13.1965491 44.7750596,13.0074196 C44.8587382,12.8225216 44.8780486,12.6861938 45.040624,12.5314681 C45.1625556,12.415194 45.3120735,12.3182375 45.2863263,12.1307638 C45.2640733,11.9683111 45.1752453,12.0098901 45.194004,11.8189208 C45.2017282,11.7394423 45.2743722,11.599067 45.3049011,11.5221641 C45.4568098,11.1383857 45.9195245,10.934354 46.1015943,10.5421126 C46.1959395,10.3393687 46.2597559,10.1287137 46.3136412,9.90959577 C46.3601702,9.72083421 46.2820089,9.3339282 46.5255042,9.28480603 C46.5352514,9.48184661 46.6884475,9.71181928 46.7371833,9.90959577 C46.7664248,10.0282617 46.7360799,10.1114198 46.7550225,10.227142 C46.7767237,10.3605262 46.8524942,10.4624501 46.8708851,10.597858 C46.9058278,10.8557953 46.8778736,10.96747 47.0498284,11.1832764 C47.1285414,11.2820726 47.2122199,11.2870401 47.2953467,11.363391 C47.4158071,11.4739618 47.3931863,11.5263956 47.4113932,11.6949196 C47.6510265,11.7177329 47.7694638,11.7210445 47.8233491,11.9712547 C47.8658321,12.1682953 47.732682,12.4874974 47.8380618,12.6690838 C47.8879011,12.7548176 48.0000855,12.7877497 48.0604076,12.8699879 C48.1266148,12.9601372 48.1624771,13.1001446 48.2165463,13.1985729 C48.2858799,13.3244139 48.3824321,13.5751761 48.5404098,13.4969854 C48.6739276,13.4305693 48.661054,12.9444991 48.6654678,12.8214177 C48.6753989,12.5450825 48.7713993,12.5726792 48.9071241,12.3743508 C49.0257453,12.2012274 48.957699,12.0078664 49.0612397,11.8106418 C49.1053778,11.7265638 49.1758149,11.7022787 49.2013782,11.6097377 C49.2333784,11.4925436 49.1662517,11.3486727 49.1923667,11.2298229 C49.230068,11.0578033 49.3648732,10.9334341 49.4338391,10.7593908 C49.4891956,10.6199353 49.4687817,10.2240144 49.7019782,10.3470958 C49.8816571,10.4418445 49.8310822,10.8136643 49.8318178,10.9687579 C49.8331052,11.2561317 49.8961859,11.3190522 50.0444165,11.5514166 C50.1672676,11.7440417 50.1755435,11.9289398 50.2522335,12.1390428 C50.321935,12.3294602 50.5154071,12.2928485 50.5806947,12.4437106 C50.6163731,12.5266847 50.5464877,12.6849059 50.5670855,12.7748712 C50.5871316,12.861157 50.650764,12.8962968 50.6814768,12.9781671 C50.7151321,13.0679484 50.7077758,13.1314208 50.7528334,13.2166027 C50.8262131,13.3551382 50.9459378,13.4679168 51.020053,13.6082922 C51.3240544,13.6710287 51.5098023,13.1345485 51.5252507,12.9272051 C51.5456646,12.6595169 51.6368834,12.5605367 51.8487464,12.3831818 C51.8250221,12.5233731 51.9226777,12.6363357 51.952471,12.7691679 C51.9754596,12.8707238 51.9478733,12.927757 52.0100345,13.0252655 C52.0435059,13.0776992 52.1190924,13.0988567 52.1599202,13.1452192 C52.3995534,13.4165869 52.5536691,13.77792 52.7675551,14.0662137 C52.872567,14.2078769 52.9205673,14.2879074 53.1085221,14.2384173 C53.2834195,14.1922388 53.5112825,14.0010855 53.5473287,13.828698 C53.5796966,13.6747083 53.5535816,13.5100478 53.5905473,13.3520106 C53.6205244,13.2237779 53.6240187,12.9980367 53.7231456,12.9073355 C53.7832838,13.1124711 53.7990999,13.2546862 54.0098595,13.3036244 C54.2708262,13.3641532 54.3690335,13.2857785 54.4613557,13.0681324 C54.5672873,12.8175541 54.6811268,12.5721273 54.8337712,12.3432585 C55.0073812,12.0823775 55.0237491,11.9981155 55.0173123,11.6768897 C55.0336801,12.0891847 55.1819107,12.4771946 55.2225545,12.8837863 C55.2532673,13.1926856 55.2547386,13.2887221 55.4165784,13.5345169 C55.6295449,13.8573985 55.705867,14.3009698 55.778695,14.6676382 C55.9738223,14.6729736 56.0277076,14.358003 56.0681675,14.19831 C56.1202137,13.9950142 56.1306965,13.9330136 56.2642144,13.7517951 C56.3714332,13.8934583 56.420353,14.1184635 56.5021924,14.2809162 C56.5533191,14.3826561 56.6735955,14.5294707 56.7057796,14.6332343 C56.7431131,14.7528201 56.6831588,14.871302 56.7298716,14.9938315 C56.7824696,15.1318151 56.9987464,15.3049385 57.1138733,15.39288 C57.259897,15.1391742 57.3621503,14.8490407 57.4601737,14.5750972 C57.5387028,14.3557953 57.5254614,14.1559951 57.5821053,13.937429 C57.7959913,14.0202192 58.0061992,14.4693098 58.2011426,14.6269791 C58.3881779,14.7783931 58.3629824,14.7806008 58.4045458,14.9938315 C58.4280861,15.1143372 58.4922703,15.2013588 58.5428452,15.3115617 C58.621926,15.4835813 58.5597648,15.7810739 58.7164552,15.8504337 C58.8503409,15.9098586 59.0710315,15.7851214 59.1802734,15.7192573 C59.4691942,15.5453979 59.4840908,15.4672072 59.4577918,15.1776256 C59.4989874,15.1671389 59.8208279,16.0000079 59.9061617,16.1321042 C60.2570598,15.8820779 60.4194513,15.6211969 60.4194513,15.2114776 C60.4196352,14.9239198 60.3782557,14.610421 60.6079579,14.3879915 C60.6995445,14.7576036 60.8413382,15.0749658 60.9943504,15.418453 C61.0857531,15.6239566 60.9445111,16.1930009 61.2646965,16.2226214 C61.4215707,16.0097587 61.6121003,15.6267163 61.6724224,15.3654673 C61.7229974,15.1456134 61.6806983,14.964579 61.7904919,14.753556 C61.8901705,14.5620348 61.9425845,14.4442888 62.0080561,14.2472482 C62.0599184,14.0912348 62.1257578,13.8688052 62.3105862,13.8185792 C62.4007015,14.2012537 62.5301734,15.8789503 62.6815304,16.2559215 C62.9548189,16.2228054 63.1052564,14.6049017 63.2529352,14.4067573 C63.428936,14.1705293 63.3800162,14.0678695 63.3835105,13.8003653 C63.3860852,13.5876866 63.3629127,13.0705241 63.5392813,12.9143266 C63.4616718,13.197653 63.483373,13.4228422 63.5942701,13.7151835 C63.7594202,14.1508437 63.7402937,14.610605 63.8673747,15.0475531 C63.9563866,15.3536927 64.1064563,15.6305798 64.272526,15.8949564 C64.4152393,16.1227213 64.3797448,16.2417552 64.4531245,16.478903 C64.7368959,16.3837863 64.7922524,16.0726792 64.9165748,15.8439944 C65.0155178,15.6616721 65.1990589,15.2100058 65.4009908,15.140462 C65.5755203,15.3864408 65.578095,15.7497976 65.6053135,16.0369875 C65.6297734,16.2962127 65.7463716,16.3666763 65.8438433,16.5868981 C66.0367637,16.4884698 66.0950629,16.1381755 66.1785575,15.9532774 C66.2600291,15.7724269 66.3663284,15.611814 66.4582829,15.4368508 C66.5460074,15.982162 66.9513425,16.4548018 67.2273897,16.9046284 C67.3232063,17.0604578 67.4149768,17.3914345 67.6174605,17.4203191 C68.0283129,17.4788241 67.9545654,16.2480104 68.0671176,15.9372713 C68.2135091,15.5317835 68.389326,15.1936317 68.4847747,14.7640428 C68.8073508,14.6549438 68.7819714,15.553309 68.8102934,15.7306639 C68.84542,15.9518056 68.9743401,16.1199616 68.9991678,16.3366879 C69.024915,16.5616931 68.9791217,16.6753916 69.0971912,16.8586338 C69.1981572,17.0148313 69.3340658,17.1528149 69.4484571,17.2996294 C69.5431702,17.1509751 69.5634002,16.9623975 69.6025728,16.7935056 C69.6516764,16.5832186 69.7686425,16.4325405 69.8249186,16.2338441 C69.8955396,15.9849217 69.6919525,15.5912085 70.0827588,15.5380388 C70.2804608,15.6741826 70.2585757,15.9440785 70.3181622,16.1574932 C70.3880475,16.4077034 70.4790824,16.5810108 70.590899,16.8062001 C70.6267612,16.8786874 70.6583936,17.042428 70.7028995,17.0957816 C70.8360495,17.2563946 71.0278665,17.210952 71.2132466,17.2363409 C71.2103041,17.4267583 71.3318678,17.555175 71.4069027,17.7209393 C71.5619378,18.0633226 71.5268112,18.0861359 71.9610201,18.0657144 C72.1344461,18.0574353 72.633207,17.8215754 72.7578972,17.698678 C72.9410704,17.5181954 73.0959217,17.2028569 73.2053475,16.9798754 C73.3175319,16.7513746 73.4964752,16.5513903 73.6062688,16.3217856 C73.6605219,16.2080872 73.597809,15.9775626 73.6605219,15.8975321 C73.779327,15.7453821 73.9051207,15.9036033 73.9514657,16.0509698 C73.9965234,16.1941048 73.9720635,16.3517741 73.9726153,16.5002444 C73.9729831,16.5926015 73.9961556,16.7088756 73.9786842,16.7995769 C73.9672819,16.8597377 73.8834195,16.9611097 73.8854425,17.0109677 C73.8959253,17.2460918 74.2385475,17.2179431 74.2944558,17.4791921 C74.3551457,17.7634383 74.2584096,18.0953348 74.2882029,18.3858363 C74.3264559,18.7593119 74.6091238,18.6676908 74.8277915,18.8733784 C74.7939523,18.7431218 74.869171,18.4908878 74.9232402,18.380317 C74.9931256,18.2375499 75.109356,18.1058216 75.1904598,17.9634225 C75.3129431,17.74872 75.3489892,17.572653 75.349357,17.3248344 C75.3497249,17.1541027 75.3300466,16.9473113 75.5404383,16.9112516 C75.5660017,17.093206 75.583473,17.1638536 75.6671516,17.3242825 C75.7397956,17.3781881 75.7769451,17.4493876 75.7787842,17.5380651 C75.759106,17.6042972 75.7624163,17.6690575 75.7885314,17.731794 C75.8810376,17.8177118 76.1134984,17.6600426 76.182832,17.7663819 C76.2729474,17.9041816 76.1063259,17.9448407 76.0829695,18.0598271 C76.0351532,18.296239 76.1957056,18.2662505 76.2841658,18.4068098 C76.358465,18.5247398 76.2720278,18.6855367 76.2970394,18.8128496 C76.3356603,19.0106261 76.4947415,19.3533773 76.6492249,19.4930167 C76.994054,18.87669 76.6663284,18.1738935 76.8478465,17.546896 C77.0111576,17.5617983 77.111204,17.6466122 77.2314804,17.7481681 C77.246377,17.7610466 77.452171,17.9531197 77.454194,17.959743 C77.4810447,18.0497083 77.3624235,18.1203559 77.3521246,18.2215438 C77.3309751,18.4261275 77.4810447,18.3898838 77.5547922,18.5127812 C77.6511604,18.6733941 77.5615968,19.0501813 77.5704244,19.2308479 C77.5807233,19.4370874 77.6976894,19.9185581 77.8907937,19.9722798 C77.997093,19.8322724 78.2146572,19.801732 78.3141519,19.6569412 C78.37852,19.5631124 78.4730491,19.4505178 78.5046815,19.3370033 C78.5282218,19.2540291 78.5004516,19.1533931 78.5348425,19.0799858 C78.5879922,18.9670232 78.7351193,18.9180851 78.7947057,18.8111938 C78.866798,18.6811212 78.7985678,18.489048 78.9764077,18.4207922 C79.1788914,18.6923439 79.3534209,18.9171652 79.425881,19.2306639 C79.4825249,19.4746189 79.5685943,19.5702875 79.7434916,19.7607049 C79.8398598,19.8655724 79.9331016,19.9150626 79.9102969,20.0811948 C79.8924578,20.2120033 79.7572848,20.2366563 79.789101,20.3987411 C79.8383886,20.6511591 80.1738383,20.7931902 80.3711726,20.6522629 C80.5324606,20.5370926 80.6965073,20.1895579 80.7402776,20.0160665 C80.812186,19.7307165 80.6604612,19.4887852 80.8822553,19.2573407 C81.0943022,19.036015 81.2462109,18.8639955 81.387269,18.5896841 C81.5011086,18.3681744 81.4157749,17.9264429 81.7981215,18.0820884 C81.801064,18.2778411 81.6463966,18.3418655 81.7596845,18.5422177 C81.8391331,18.682961 82.041249,18.7861727 82.1045136,18.9364829 C82.1563759,19.0603001 82.1203298,19.204907 82.1238241,19.3362673 C82.1308126,19.5844538 82.2111808,19.6078191 82.4046529,19.7310844 C82.182491,19.9474427 82.6056653,20.096281 82.6608379,20.2844906 C82.7127002,20.4618456 82.6268148,20.4892583 82.7533441,20.6338651 C82.8894367,20.7895106 83.1022192,20.7801277 83.0968859,21.0261065 C83.2557831,20.997038 83.4411633,20.6829873 83.5075544,20.5343329 C83.4391403,21.0180115 83.8979929,20.988391 84.1777183,21.1773365 C84.3294431,21.2799963 84.6018121,21.635994 84.5582257,21.8438893 C84.8697673,21.4818203 84.8734455,20.8734046 84.8789628,20.4279936 C84.8808019,20.593022 84.8589167,20.7628338 84.8881582,20.9254705 C84.9177676,21.0901309 85.0257221,21.2340018 85.0671016,21.3723533 C85.1057224,21.501322 85.0832855,21.5870558 85.165125,21.6959709 C85.2826428,21.8525363 85.423333,21.8374501 85.4209422,22.0751498 C85.5658624,22.1143372 85.7015872,22.0556481 85.843197,22.0845327 C85.9498641,22.1062421 85.9243008,22.1645632 86.0302323,22.1785455 C86.2362102,22.2055903 86.6001659,21.9362463 86.7919828,22.1566521 C86.7723046,21.8863882 86.6772237,21.3287505 87.0867887,21.3287505 C87.1417775,21.1282144 87.003478,20.7825194 87.287985,20.719231 C87.459572,21.0452402 87.6098256,21.4124606 87.6295038,21.7725058 C87.6517568,22.1824091 87.962011,22.0517846 88.2457824,22.1857207 C88.3774612,21.7585234 88.1747936,21.3153201 88.6671176,21.0426645 C88.7509801,20.9961181 88.9258774,20.9924385 88.9920846,20.904497 C89.0634412,20.8095642 88.9987053,20.5880546 88.9920846,20.4813472 C89.419121,20.2246978 89.2947986,21.0967541 89.3205458,21.240993 C89.3473965,21.391671 89.3924542,21.6168603 89.4525924,21.7548439 C89.5191674,21.7802329 89.5763631,21.8199721 89.6234437,21.8738777 C89.637053,21.947469 89.6488232,22.0212442 89.659306,22.0952034 C89.8110308,22.0276835 89.9835373,21.6589913 90.0442272,21.543637 C90.1976072,21.2511118 90.2790788,20.9251025 90.3923667,20.6162032 C90.4405508,20.4852108 90.6255632,20.138412 90.5882297,20.0050279 C91.1649679,20.4682848 90.8552653,20.8929063 91.029427,21.4036296 C91.1175194,21.6626708 90.9823464,21.8904358 91.1050136,22.1117615 C91.3089685,22.4802697 90.8477251,22.6603843 91.4362334,22.8099585 C91.7687407,22.8944044 91.8743044,23.0145422 92.0729259,22.7520054 C92.2932488,22.460768 92.3820767,22.0775415 92.587319,21.7761853 C92.6936184,22.0665028 92.823458,22.343206 92.9312286,22.6245085 C92.9908151,22.780154 93.0005623,22.855953 93.1167927,23.0092068 C93.2414829,22.6329715 93.0954592,22.0159089 93.4535298,21.7261433 C93.7124735,21.9459972 93.7959681,22.4445779 93.9510033,22.7393109 C94.1411651,23.1008279 94.3517407,23.1712915 94.7107308,23.3217856 C94.6059028,23.2643845 94.466132,23.2148943 94.3495338,23.2715596 C94.4161088,23.4406355 94.8048922,23.5247135 94.9716975,23.554702 C95.1874226,23.5933374 95.2438826,23.5661086 95.35809,23.394457 C95.5407115,23.1195937 95.5508265,22.7201771 95.5872405,22.4064944 C95.6188728,22.1334709 95.7179997,21.8536401 95.6711029,21.576937 C95.941265,22.3842331 96.0398402,22.0810371 96.9387867,23.3769791 C96.8231081,23.3146105 97.7123074,23.688822 97.5747436,23.7066679 C97.0583275,24.2959499 98.6430702,24.4447882 98.9614165,24.421055 L44.5451736,24.421055 L44.431334,13.5461075" id="Fill-20" fill="#8AACD2"></path>
                                    </g>
                                </g>
                                <mask id="mask-8" fill="white">
                                    <use xlink:href="#path-7"></use>
                                </mask>
                                <g id="Mask" stroke="none" fill="none" transform="translate(104.170571, 19.008621) scale(-1, 1) translate(-104.170571, -19.008621) "></g>
                            </g>
                        </g>
                    </g>
                    <g id="Group-9-Copy">
                        <mask id="mask-10" fill="white">
                            <use xlink:href="#path-9"></use>
                        </mask>
                        <g id="Mask"></g>
                        <g id="Group-9" mask="url(#mask-10)">
                            <g transform="translate(-1.396779, 9.650794)">
                                <g id="Group-2" transform="translate(61.239385, 16.500000) scale(-1, 1) translate(-61.239385, -16.500000) translate(0.739385, 0.000000)">
                                    <g id="Group-7" transform="translate(20.207906, 0.000000)" fill="#D9E6F4">
                                        <path d="M15.7171867,3.72352549 L15.7171867,1.82921257 C15.7171867,1.58245761 15.5964506,1.38209224 15.4473564,1.38209224 L14.2322606,1.35714286 L12.7073756,1.35714286 C12.5832021,1.35714286 12.4822305,1.52417106 12.4822305,1.72988578 L12.4822305,3.46350414 L10.3356186,3.46350414 L10.3356186,6.40004222 L10.0279776,6.40004222 L10.0279776,3.63682318 L9.23911062,3.63682318 L9.23911062,1.71473641 L6.8145047,1.71473641 L6.8145047,3.39914072 L6.51416808,3.39914072 L6.51416808,7.48527618 L4.95877672,7.48527618 L4.95877672,4.61391462 L3.78535854,4.61391462 L3.78535854,3.76721901 L3.0755501,3.76721901 L3.0755501,2.84695909 L1.90213192,2.84695909 L1.90213192,6.04955261 L0,6.04955261 L0,17.7926665 L17.1918009,17.7936508 L17.1918009,3.72352549 L15.7171867,3.72352549" id="Fill-2" opacity="0.698846726"></path>
                                        <path d="M28.8716337,2.56177203 L28.8716337,0.511047946 C28.8716337,0.243918723 28.7413657,0.0270094237 28.580501,0.0270094237 L27.2694766,0 L25.6242058,0 C25.4902291,0 25.3812862,0.180819521 25.3812862,0.403519863 L25.3812862,2.28028102 L23.0652049,2.28028102 L23.0652049,5.45928555 L22.7332765,5.45928555 L22.7332765,2.4679108 L21.8821305,2.4679108 L21.8821305,0.38711963 L19.2661083,0.38711963 L19.2661083,2.21060319 L18.9420609,2.21060319 L18.9420609,6.63412599 L17.2638755,6.63412599 L17.2638755,3.52567952 L15.997819,3.52567952 L15.997819,2.60907326 L15.2319731,2.60907326 L15.2319731,1.61282859 L13.9659166,1.61282859 L13.9659166,5.07985642 L11.9136164,5.07985642 L11.9136164,17.7925852 L30.4626647,17.7936508 L30.4626647,2.56177203 L28.8716337,2.56177203" id="Fill-2-Copy"></path>
                                    </g>
                                    <g id="Group-7-Copy-2" transform="translate(51.122987, 0.000000)" fill="#D9E6F4">
                                        <path d="M15.7171867,3.72352549 L15.7171867,1.82921257 C15.7171867,1.58245761 15.5964506,1.38209224 15.4473564,1.38209224 L14.2322606,1.35714286 L12.7073756,1.35714286 C12.5832021,1.35714286 12.4822305,1.52417106 12.4822305,1.72988578 L12.4822305,3.46350414 L10.3356186,3.46350414 L10.3356186,6.40004222 L10.0279776,6.40004222 L10.0279776,3.63682318 L9.23911062,3.63682318 L9.23911062,1.71473641 L6.8145047,1.71473641 L6.8145047,3.39914072 L6.51416808,3.39914072 L6.51416808,7.48527618 L4.95877672,7.48527618 L4.95877672,4.61391462 L3.78535854,4.61391462 L3.78535854,3.76721901 L3.0755501,3.76721901 L3.0755501,2.84695909 L1.90213192,2.84695909 L1.90213192,6.04955261 L0,6.04955261 L0,17.7926665 L17.1918009,17.7936508 L17.1918009,3.72352549 L15.7171867,3.72352549" id="Fill-2" opacity="0.698846726"></path>
                                        <path d="M34.1498182,2.56177203 L34.1498182,0.511047946 C34.1498182,0.243918723 34.0195502,0.0270094237 33.8586854,0.0270094237 L32.547661,0 L30.9023903,0 C30.7684136,0 30.6594706,0.180819521 30.6594706,0.403519863 L30.6594706,2.28028102 L28.3433893,2.28028102 L28.3433893,5.45928555 L28.0114609,5.45928555 L28.0114609,2.4679108 L27.160315,2.4679108 L27.160315,0.38711963 L24.5442928,0.38711963 L24.5442928,2.21060319 L24.2202454,2.21060319 L24.2202454,6.63412599 L22.54206,6.63412599 L22.54206,3.52567952 L21.2760035,3.52567952 L21.2760035,2.60907326 L20.5101576,2.60907326 L20.5101576,1.61282859 L19.2441011,1.61282859 L19.2441011,5.07985642 L17.1918009,5.07985642 L17.1918009,17.7925852 L35.7408492,17.7936508 L35.7408492,2.56177203 L34.1498182,2.56177203" id="Fill-2-Copy"></path>
                                    </g>
                                    <g id="Group-5-Copy" transform="translate(0.000000, 9.349206)">
                                        <path d="M36.6687105,0.157698472 C36.6682011,0.157788338 36.6679464,0.157968069 36.667437,0.157968069 C48.982115,1.81662132 60.1129783,4.90328723 68.7672035,9.94970179 L68.7672035,19.3015873 L-4.28614359e-15,19.3015873 L-4.28614359e-15,1.30034225 C12.4746254,0.185601806 24.5896493,-0.267726272 36.6687105,0.157698472" id="Fill-60" fill="#DEE8F0"></path>
                                        <path d="M69.6206854,2.87198419 C69.61989,2.87207405 69.6194923,2.87225378 69.618697,2.87225378 C88.8468784,4.53090704 106.226647,7.61757295 119.739385,12.6639875 L119.739385,22.015873 L12.3660322,22.015873 L12.3660322,4.01462796 C31.8439561,2.89988752 50.7603969,2.44655944 69.6206854,2.87198419" id="Fill-60-Copy" fill="#B2C8E2" transform="translate(66.052709, 12.365079) scale(-1, 1) translate(-66.052709, -12.365079) "></path>
                                    </g>
                                </g>
                                <g id="Group-22" transform="translate(15.874085, 4.674603)">
                                    <path d="M54.3759669,16.8238269 C54.4429097,17.1366318 53.6340785,17.0470751 53.4624915,16.9540244 C53.2589044,16.8433198 52.9499375,16.5706039 53.2761918,16.4124545 C53.4547673,16.3258401 53.6486073,16.3602284 53.8225851,16.2353639 C54.0057583,16.104247 54.0934828,15.9455459 53.895413,15.8166357 C53.3374335,15.4539954 52.5269471,15.9604413 52.0092437,15.5376674 C52.0210138,15.3800697 52.2955898,15.3392451 52.4156822,15.3055923 C52.2006928,14.9275048 52.6827179,14.9379868 52.8532014,14.6886256 C52.884466,14.6430197 52.9679606,14.4589412 52.9479145,14.3749013 C52.9151787,14.237348 52.6974306,14.1992818 52.5834071,14.1545954 C52.3481877,14.062832 52.1076349,13.9809988 51.8656108,13.9085443 C51.7837714,13.8840863 51.6778399,13.8728688 51.6307592,13.7891967 C51.4540228,13.4756562 52.020646,13.2362253 52.1556351,13.0300794 C52.1225315,12.9293051 51.8667143,12.8969396 51.7696104,12.8820441 C51.5525979,12.8485753 51.4678159,12.8443457 51.3731029,12.6245916 C51.4588044,12.437019 51.9700711,12.5580217 52.0040942,12.3051665 C52.0136575,12.2328959 51.9204157,12.1030662 51.8766454,12.0565408 C51.7164607,11.8862544 51.5790808,11.8320054 51.455678,11.6183198 C51.4889655,11.5339121 51.5465289,11.4789276 51.6283684,11.4531823 C51.6839089,11.443252 51.7203228,11.4121738 51.7370585,11.3601316 C51.4759079,11.1004723 51.9047834,10.8347445 52.0462093,10.6729172 C51.6555869,10.6131514 51.3074474,10.4662195 50.9262043,10.360664 C50.8476752,10.3387805 50.537421,10.2457298 50.4057422,10.1258304 C50.4759954,10.1359446 50.5462486,10.1453233 50.6174213,10.1574603 C50.7147091,10.1741947 50.8230315,10.1887224 50.9216066,10.1933198 C50.9828483,10.196446 51.0258829,10.1778726 51.0838142,10.1699652 C51.146895,10.161506 51.1893779,10.1585637 51.2500678,10.1368641 C51.3177463,10.11259 51.3771489,10.1155323 51.4466664,10.1030275 C51.5018391,10.0930972 51.552414,10.0901549 51.6074028,10.082983 C51.6451041,10.0780178 51.6462075,10.0925455 51.6633111,10.0576055 C51.6701157,10.0438134 51.6649663,9.9568312 51.6633111,9.94579752 C51.6474949,9.83821913 51.6120005,9.86966512 51.5312645,9.89927216 C51.4457469,9.93071816 51.4161376,9.90479868 51.334482,9.89026132 C51.284091,9.88143438 51.223585,9.89301974 51.1722744,9.89228417 C51.0838142,9.8909969 51.0455612,9.83766744 50.9605953,9.81541618 C50.8377442,9.78305072 50.7820198,9.7626384 50.6885941,9.669036 C50.62018,9.60044328 50.5686855,9.52762098 50.4811449,9.48109563 C50.4868461,9.48422184 50.4158572,9.45663763 50.4107078,9.44964963 C50.3715352,9.39301007 50.4298343,9.33140534 50.4634896,9.29848819 C50.5491912,9.21481611 50.650341,9.17362369 50.7617898,9.12948897 C50.8520891,9.0938134 51.0887798,8.99267131 51.0645038,8.85585366 C51.0536532,8.79443283 50.9988483,8.80528262 50.9515838,8.78229578 C50.9037675,8.75894115 50.8690087,8.72988579 50.8121808,8.71885211 C50.7294218,8.70248548 50.6760883,8.72584011 50.5988466,8.68611885 C50.5449613,8.65853465 50.4901564,8.63481223 50.4353516,8.61200929 C50.3956273,8.59545877 50.3079027,8.55684088 50.3027533,8.50222416 C50.2988912,8.46360627 50.3049602,8.47684669 50.3244545,8.45385985 C50.3273971,8.45036585 50.3812824,8.40200155 50.3869835,8.39869144 C50.4026158,8.39372629 50.418432,8.39041618 50.4347998,8.38820945 C50.4531907,8.37386566 50.4712138,8.35897019 50.4883173,8.34333914 C50.5247313,8.32862756 50.5629843,8.34517809 50.6003178,8.33340883 C50.6332375,8.32311072 50.7123183,8.28945799 50.7308931,8.25837979 C50.7417437,8.23980643 50.7428472,8.19180991 50.7308931,8.17342044 C50.7068011,8.1368254 50.6865711,8.15613434 50.6532836,8.14896245 C50.5971914,8.1368254 50.5456969,8.10611498 50.4897886,8.09269067 C50.4421562,8.08165699 50.3772364,8.08073751 50.3325465,8.06106078 C50.2808681,8.03825784 50.2411438,7.97812427 50.1900171,7.94998839 C50.0706603,7.88415408 49.9750277,7.81795199 49.889694,7.70614402 C49.8227511,7.61805846 49.703946,7.43581882 49.8490501,7.37715641 C49.9590276,7.33283779 50.0607292,7.32566589 50.1806378,7.33210221 C50.1052352,7.28980643 50.1699711,7.23316686 50.1342928,7.18222803 C50.1065225,7.14269067 50.0333268,7.13919667 49.9860622,7.14011614 C49.8562225,7.14250678 49.7510267,7.11179636 49.6610952,7.01745838 C49.5630718,6.91447735 49.5577385,6.77306233 49.6997161,6.70961866 C49.7997625,6.66493225 49.9386137,6.70869919 50.0156715,6.62245257 C49.9919473,6.58843206 49.9529586,6.59762679 49.9176481,6.58916763 C49.8731422,6.57850174 49.8271649,6.55459543 49.7876245,6.53307975 C49.7581991,6.51708091 49.7313484,6.49574913 49.7011874,6.47919861 C49.6594401,6.45639566 49.637371,6.43065041 49.6020605,6.40380178 C49.5616005,6.37309137 49.5299682,6.35727642 49.4930025,6.32270422 C49.4615541,6.29364886 49.4240367,6.27047813 49.3940596,6.24179055 C49.3868871,6.23517034 49.3806342,6.22781456 49.3738296,6.22101045 C49.3375995,6.06966512 49.270105,5.88963221 49.1577367,5.86351916 C49.1680356,5.86590979 48.9039424,6.25006581 48.8890458,6.27433991 C48.8673446,6.30927991 48.8472985,6.36904568 48.8232064,6.39773326 C48.7915741,6.43469609 48.7262865,6.47552071 48.6861943,6.50659892 C48.6045388,6.57041038 48.4993429,6.57463995 48.4191587,6.62245257 C48.2823305,6.7046535 48.5269293,6.71072203 48.5771364,6.75816686 C48.6106078,6.78998064 48.6278952,6.85287263 48.6451827,6.89498451 C48.6779184,6.97497871 48.618332,6.99042586 48.5607685,7.03842238 C48.4918027,7.09598142 48.4369978,7.17432056 48.3645377,7.22250097 C48.3292272,7.24603949 48.2718477,7.27049748 48.2282613,7.27766938 C48.1751116,7.28686411 48.117732,7.26387727 48.0649502,7.28097948 C48.0235707,7.29458769 47.9163518,7.3670422 47.9809038,7.40768293 C48.0029729,7.42165892 48.047111,7.41319977 48.0712031,7.41246419 C48.1293183,7.41080914 48.1659162,7.41945219 48.2216405,7.43306039 C48.3266525,7.45880565 48.4489519,7.51801974 48.5552512,7.52224932 C48.6229297,7.52500774 48.652539,7.52353659 48.6655965,7.60334688 C48.6784702,7.68186992 48.6299182,7.73409601 48.5892744,7.79386179 C48.5493661,7.85270809 48.5138717,7.9043825 48.4478484,7.93766744 C48.3921241,7.96543554 48.3261008,7.97150407 48.2753419,8.00442122 C48.2313877,8.03292489 48.1979163,8.07816299 48.148077,8.10170151 C48.0796629,8.13388308 48.020996,8.10170151 47.9546049,8.1195393 C47.9056851,8.13241192 47.8527194,8.19162602 47.8253169,8.23134727 C47.7830179,8.29240031 47.8117077,8.3168583 47.8729493,8.36669377 C47.9303289,8.41340302 47.9980074,8.44448122 48.0710192,8.44834301 C48.1333643,8.45183701 48.2102382,8.42995354 48.2622844,8.46562911 C48.2839856,8.48052458 48.32371,8.53036005 48.3139628,8.5595993 C48.3025604,8.59380372 48.2843535,8.58166667 48.2506981,8.59012582 C48.1925829,8.60446961 48.135939,8.62782424 48.0870192,8.65761518 C48.0217316,8.69715254 47.9798004,8.74386179 47.9012713,8.74809137 C47.8321216,8.75195316 47.7510177,8.73172474 47.6835232,8.74606852 C47.6265114,8.75838947 47.4907867,8.78487031 47.4889476,8.85658924 C47.486189,8.95442122 47.5935918,8.98917731 47.6638449,9.01308362 C47.7440292,9.04048393 47.8249491,9.07910182 47.9082598,9.09638792 C47.9148805,9.09767518 47.9216852,9.09804297 47.928122,9.09933024 C48.0106971,9.32496903 47.8639378,9.34887534 47.6338678,9.41066396 C47.611247,9.54527487 47.8341446,9.60632791 47.84334,9.7420422 C47.8543745,9.90479868 47.7357533,9.93476384 47.6174999,9.99324235 C47.4267864,10.088132 47.2393833,10.1798955 47.0328536,10.2359834 C46.7222315,10.3200232 46.3967129,10.2711072 46.1015391,10.4114189 C46.1331714,10.57012 46.2909653,10.7490496 46.4257705,10.8318022 C46.5828286,10.928163 46.8084848,10.8595703 46.9403475,10.9767112 C47.0278881,11.0543148 46.987612,11.2266241 47.082509,11.2906194 C47.1851302,11.3601316 47.4117059,11.27223 47.5340053,11.3064344 C47.8407653,11.3921293 47.8186962,11.7093477 47.5599364,11.8334766 C47.4199818,11.9009659 47.1838428,11.8823926 47.0304628,11.9062989 C46.7034728,11.9570538 46.3514713,11.9605478 46.0404814,12.0769532 C46.0329411,12.2939489 46.1738153,12.3185908 46.3352873,12.3941715 C46.487196,12.4651549 46.5484377,12.5355865 46.6501393,12.6501529 C46.7608524,12.7742818 46.8450827,12.7365834 47.0131754,12.7398935 C47.131061,12.7422842 47.2897743,12.7411808 47.3602114,12.8557472 C47.3164411,12.987048 47.2531764,13.1573345 47.1512909,13.2134224 C47.0302789,13.4226945 46.8138182,13.5059988 46.6841624,13.7036856 C46.5418169,13.9208653 46.6639324,13.9730914 46.7785077,14.188616 C46.8412206,14.3066763 46.9355658,14.4092896 46.9940489,14.5198103 C46.7514731,14.6551568 46.5000696,14.5041792 46.2780916,14.4118641 C46.011056,14.3007917 45.7944113,14.1913744 45.498318,14.1838347 C45.1773971,14.1755594 44.6786362,14.2993206 44.6282452,13.8162292 C44.6028658,13.5731204 45.0560172,13.477863 45.0184998,13.3254142 C44.6905903,13.2224332 44.6786362,12.8325765 44.9548673,12.6784727 C45.0918794,12.6023403 45.3609381,12.5942489 45.340892,12.3765176 C45.3280184,12.2356543 45.1637878,12.2078862 45.0619023,12.1304665 C45.0602471,12.0184746 45.2213513,11.9430778 45.2568457,11.8180294 C45.2947309,11.6852575 45.2967539,11.5123964 45.203696,11.4035308 C45.0541781,11.2286469 44.781993,11.2463008 44.6440614,11.0491657 C44.5511874,10.9165776 44.5567046,10.8021951 44.6251187,10.6675842 C44.5441988,10.5598219 44.1530247,10.5324216 44.2771632,10.3545954 C44.4040603,10.1725397 44.7790505,10.2203523 44.9160626,10.0070345 C45.0219941,9.84134533 44.8358783,9.81210608 44.7181766,9.72843399 C44.5824519,9.63170538 44.4478306,9.52541425 44.3260829,9.4125029 C44.1710477,9.26832946 43.7541263,8.91506775 43.9994608,8.67306233 C44.0943577,8.57927604 44.4143592,8.64437476 44.3989108,8.43675765 C44.3895315,8.31226094 44.217025,8.29479094 44.1248866,8.22730159 C44.0123344,8.14491676 43.9336214,8.029247 43.8203335,7.94796554 C43.7552298,7.90125629 43.6012981,7.85877662 43.589344,7.7657259 C43.5821716,7.7103736 43.6750455,7.64821719 43.6789076,7.59451994 C43.6847927,7.50735385 43.5426311,7.40308556 43.518723,7.31941347 C43.4766079,7.17248161 43.5271828,7.12705962 43.6178499,7.01525165 C43.7298504,6.87733062 43.8508624,6.7116415 43.6327465,6.65334688 C43.4416652,6.60240805 43.2838714,6.63238289 43.1163304,6.5382288 C43.0385369,6.49464576 43.0350427,6.52848238 42.9736171,6.44683314 C42.9252491,6.38265389 42.8616166,6.22064266 42.870996,6.14028068 C42.8926972,5.96043167 43.0563761,5.95013357 43.1974342,5.89772358 C43.3589062,5.83777391 43.4885619,5.69856562 43.5567921,5.53876113 C43.3574349,5.44846883 42.9322376,5.52901471 42.8349498,5.26402245 C42.9020766,5.11929733 43.2266757,5.1202168 43.3530211,5.0475784 C43.4725619,4.97880178 43.4549066,4.91443864 43.4499411,4.77890825 C43.2469057,4.71711963 42.8220762,4.68788037 42.7588116,4.46867789 C42.7339839,4.38298297 42.7117309,4.1564247 42.7738921,4.08893535 C42.8575706,3.99772358 43.0401921,4.05914441 43.0716405,3.88426055 C42.9769275,3.78642857 42.9235939,3.71415796 42.8104899,3.64207123 C42.5736153,3.49146148 42.3091544,3.265271 42.1829929,3.01443864 C42.1296593,2.9083314 42.0128772,2.82870499 41.9965093,2.72627565 C41.9716816,2.56996516 42.162579,2.50468254 42.2578438,2.42744677 C42.400741,2.311777 42.4408331,2.20548587 42.2547174,2.14112273 C42.1269007,2.096988 42.0746706,2.06351916 41.9714977,1.96899729 C41.8642788,1.87079752 41.7116345,1.81360627 41.6205996,1.69572977 C41.4506678,1.47542393 41.5183462,1.15471158 41.4354033,0.904798684 C41.4598632,1.10579559 41.3693801,1.32407859 41.3125522,1.50944444 C41.2858854,1.59569106 41.2822073,1.73581882 41.1882298,1.79117112 C41.0885512,1.84964963 40.9851944,1.78657375 40.8779756,1.82261711 C40.8411938,1.93185056 40.899309,2.04421022 40.9482288,2.14112273 C41.0219762,2.28639954 41.070896,2.32446574 41.0297004,2.47305265 C40.9291022,2.8353252 40.5458362,2.56941347 40.3538353,2.81344173 C40.4433989,3.06611305 40.7021587,3.36347077 40.4470771,3.57145567 C40.3440881,3.65531165 40.2365014,3.72335269 40.112363,3.79212931 C39.9516266,3.88131823 39.8534193,3.85263066 39.6972806,3.89363918 C39.7618327,3.98613821 39.8304307,4.07643051 39.89627,4.16837786 C39.9556726,4.25131436 40.0937882,4.3436295 40.1156733,4.43980643 C39.9058333,4.56687766 39.6507517,4.59648471 39.4350266,4.71969415 C39.387762,4.74654278 39.2191176,4.82010066 39.2031175,4.86920054 C39.1757151,4.95434379 39.1994393,4.90634727 39.2360372,4.96905536 C39.4651877,5.36130275 39.983075,4.96795199 40.3038121,5.08877081 C40.3001339,5.26990708 40.0430293,5.40617305 39.9062011,5.46373209 C39.6086366,5.58859659 39.2590258,5.64597174 38.9932775,5.85138211 C39.05691,5.91537747 39.1547495,5.93450252 39.2334625,5.97367209 C39.2253705,6.00640534 39.2174624,6.0389547 39.2095543,6.07150407 C39.4425669,6.12446574 39.8353962,6.09927216 39.589694,6.39736547 C39.4451416,6.57243322 39.2259222,6.58034069 39.0157144,6.5869609 C38.9175071,6.590271 38.6337357,6.5731688 38.6125862,6.69803329 C38.7979663,6.75283391 38.9662429,6.78556717 39.1407724,6.86831978 C39.3601757,6.97258808 39.7318555,7.13496709 39.9792129,7.08439605 C39.8648216,7.10775068 39.7456487,7.24328107 39.6936025,7.34203252 C39.7896029,7.51710027 39.8756722,7.57208479 39.8697872,7.7831959 C39.8622469,8.05296942 39.8114881,8.12781456 39.5575099,8.16735192 C39.4690497,8.44797522 40.0112131,8.68924506 39.9919027,8.9654549 C39.7035335,9.01768099 39.5334178,9.07376887 39.2698764,8.94154859 C39.075117,8.84353271 38.9202657,8.72859853 38.99622,8.47978901 C39.0449559,8.46342238 39.1065654,8.46783585 39.1569564,8.46746806 C39.0745652,8.32237515 38.8796218,8.05848626 38.9210013,7.87183314 C38.9531854,7.72674022 39.1124505,7.71662602 39.2334625,7.64178087 C39.2735546,7.45218544 38.8148859,7.37513357 38.7052762,7.30488579 C38.6574599,7.27417538 38.5787469,7.21165118 38.5430686,7.16549361 C38.4989305,7.10793457 38.5143788,7.11253194 38.4847695,7.05754743 C38.4566314,7.00532133 38.4752062,6.99116144 38.425183,6.94592334 C38.3724012,6.89847851 38.3330447,6.92256872 38.2993894,6.86372242 C38.275849,6.82234611 38.308217,6.76938444 38.283941,6.72433024 C38.2640788,6.68699961 38.2033889,6.67449477 38.1833429,6.63679636 C38.1171357,6.51138018 38.1962165,6.49170345 38.2808146,6.44517809 C38.4444934,6.35562137 38.6730922,6.26054781 38.7797593,6.09320364 C38.7027015,6.06709059 38.6201264,6.10809911 38.544356,6.08695122 C38.477781,6.06856175 38.425183,6.00291134 38.3591597,5.97220093 C38.2197568,5.90783779 38.114377,5.82379791 37.9815948,5.73608014 C37.8756633,5.66620015 37.7472949,5.66693573 37.6512945,5.59834301 C37.5792022,5.54703639 37.4221441,5.33500581 37.4822823,5.23974835 C37.5238457,5.17373016 37.6095472,5.21860046 37.6420991,5.11120596 C37.6689498,5.02201703 37.6075242,5.04316492 37.6084437,4.97898568 C37.6104667,4.83904181 37.7360765,4.81495161 37.8534103,4.76474835 C37.9582384,4.71969415 38.249734,4.66507743 38.2410902,4.51226094 C38.2342856,4.39695896 38.0557101,4.37544328 37.9821466,4.35686992 C37.864261,4.32726287 37.7417777,4.32413666 37.6290415,4.27025552 C37.5183284,4.21729384 37.4072474,4.17003291 37.2913849,4.11946187 C37.1587866,4.06171893 37.0372228,4.02015873 36.9145556,3.94862369 C36.8203942,3.89400697 36.7026926,3.87855981 36.6146002,3.80886372 C36.5272435,3.73953542 36.4599329,3.62331398 36.3663233,3.55453736 C36.2519319,3.47049748 36.2164375,3.4839218 36.160897,3.35170151 C36.1092187,3.22904375 36.1255865,3.13066009 36.1046209,3.00358885 C36.197311,3.04422958 36.2866907,3.0988463 36.383059,3.12918893 C36.4864157,3.16155439 36.5886691,3.16964576 36.7026926,3.16320945 C36.7517962,3.16026713 36.838969,3.15346303 36.8821876,3.13397019 C36.9732225,3.09296167 36.879429,3.060964 36.8455898,3.02712737 C36.8174517,2.99880759 36.8205782,2.99071622 36.7861872,2.96570654 C36.7516123,2.94032907 36.7168536,2.91476771 36.6822787,2.88920635 C36.6285773,2.84948509 36.5903243,2.79964963 36.5399332,2.7591928 C36.4825537,2.71321913 36.4255419,2.68085366 36.3757026,2.62366241 C36.3380013,2.58026326 36.2973574,2.54513937 36.2526676,2.50836043 C36.1688051,2.43884824 36.0623219,2.36106078 35.9942756,2.27481417 C35.9615398,2.23325397 35.942965,2.17790166 35.9400225,2.12733062 C35.9361604,2.06958769 35.9699996,2.04678475 35.9738617,1.99419086 C36.0305057,2.02453349 36.0965289,2.04053233 36.1583223,2.0727139 C36.2282077,2.10894115 36.3475645,2.11721642 36.4281166,2.09588463 C36.4527604,2.00173055 36.3644842,1.91438057 36.3014034,1.85479868 C36.2627826,1.81838753 36.2129433,1.79153891 36.1741385,1.75586334 C36.1384602,1.72349787 36.1092187,1.6775242 36.0759312,1.6427681 C36.0347356,1.59955285 36.0003446,1.5454878 35.9617237,1.49988192 C35.920896,1.4518854 35.8598382,1.42374952 35.8169875,1.37869532 C35.7588723,1.31782617 35.7603435,1.18542199 35.6921133,1.14055168 C35.684757,1.13558653 35.6775845,1.13282811 35.6704121,1.13080527 C35.6632397,1.10469222 35.6525729,1.08152149 35.6352855,1.06625823 L35.642458,1.13135695 C35.6297682,1.13448316 35.6176303,1.14073558 35.6058601,1.15066589 C35.5843427,1.16850368 35.5760668,1.21116725 35.5670553,1.23305072 C35.5262275,1.33125048 35.4774917,1.42466899 35.4500893,1.52783391 C35.4265489,1.61720674 35.4028247,1.69058072 35.3614452,1.77296554 C35.285123,1.92559814 35.1937203,2.06885211 35.1026854,2.21026713 C35.0620416,2.27315912 34.9890297,2.29780101 34.9516962,2.36639373 C34.9222708,2.42009098 34.9283398,2.48592528 35.0142253,2.45006581 C35.0622255,2.4298374 35.1389155,2.35241773 35.1775363,2.3119609 C35.2264561,2.26120596 35.2843874,2.23417344 35.3425026,2.18764808 C35.386089,2.15289199 35.4248938,2.05561169 35.4705032,2.03685443 C35.5153769,2.01828107 35.5488483,2.076024 35.5604346,2.12585947 C35.5729404,2.17955672 35.5519748,2.26212544 35.5264115,2.31048974 C35.4820894,2.39471351 35.4311467,2.48224739 35.3682498,2.55562137 C35.2928472,2.64370693 35.2406171,2.74632017 35.1707317,2.83698026 C35.0980877,2.93150213 35.0219494,3.00340496 34.9323858,3.08082462 C34.8450291,3.15640534 34.7550977,3.22646922 34.6659019,3.29855594 C34.6046602,3.34820751 34.5033264,3.41827139 34.4715102,3.4837379 C34.6175338,3.52842431 34.7451666,3.44438444 34.8711442,3.38645761 C34.9594204,3.34600077 35.0600186,3.32669183 35.1427776,3.27409795 C35.2356515,3.21506775 35.2915598,3.10362756 35.3682498,3.02657569 C35.4381352,2.95632791 35.4620434,2.92690476 35.559699,2.96515486 C35.6338142,2.99421022 35.6516534,3.02308169 35.6420901,3.11410956 C35.6301361,3.22481417 35.567791,3.30646341 35.4885262,3.38020519 C35.3870085,3.47417538 35.2991001,3.58028262 35.1920651,3.66947154 C35.0988233,3.74762679 35.0053976,3.83185056 34.9038799,3.89933991 C34.8420866,3.94034843 34.7742242,3.97253 34.7129825,4.01298684 C34.6995572,4.02530778 34.6887066,4.03965157 34.6804307,4.0560182 C34.6668214,4.06061556 34.6532122,4.06429346 34.639419,4.06760356 C34.615143,4.08286682 34.6020855,4.09610724 34.5726601,4.10916376 C34.5016712,4.14079365 34.4304985,4.15587302 34.3602453,4.1909969 C34.2945899,4.22373016 34.2511874,4.2533372 34.1789112,4.27191057 C34.1211638,4.28698993 34.0634164,4.29986256 34.0053012,4.31347077 C33.9525194,4.32579172 33.8578063,4.33296361 33.812013,4.36073171 C33.7818519,4.37875339 33.7903118,4.38813202 33.7621737,4.4164518 C33.7314609,4.44753 33.684932,4.45543748 33.6509088,4.48210221 C33.6139431,4.51078978 33.5992304,4.54076461 33.5484716,4.55106272 C33.4798736,4.56467093 33.4202871,4.52145567 33.3526086,4.51612273 C33.2715048,4.50968641 33.1892976,4.50564073 33.1080099,4.50012389 C33.0958719,4.49938831 32.8939399,4.50416957 32.9093883,4.53561556 C32.964377,4.64797522 33.000791,4.76419667 33.0905385,4.84474255 C33.1937114,4.93779326 33.3629075,4.92363337 33.4423562,5.06504839 C33.3344017,5.14927216 33.1885619,5.23993225 33.3036889,5.39054201 C33.4484252,5.57976965 33.8173464,5.3804278 34.0065886,5.4670422 C33.9596918,5.650753 33.6590008,5.78131823 33.5179427,5.8831959 C33.3088383,6.03417344 33.1657572,6.14211963 32.9253884,6.25172087 C32.8063993,6.30174022 32.6925597,6.36205768 32.5840535,6.43285714 C32.5031336,6.46393535 32.42957,6.50623113 32.3631789,6.55974448 C32.330811,6.62557878 32.3129718,6.6493012 32.3824894,6.71642276 C32.5531568,6.88137631 32.8718709,6.72267518 33.0793201,6.77968254 C33.1166536,6.96155439 33.0498947,7.15629888 33.0881477,7.33835463 C33.2176195,7.34754936 33.4405171,7.23371854 33.5714602,7.2004336 C33.7147252,7.16420635 33.8773006,7.01102207 34.0247956,7.02775648 C34.0407956,7.13717383 33.8960594,7.35711189 33.8432775,7.46101239 C33.7840589,7.57741773 33.6906331,7.67193961 33.6225869,7.78264421 C33.5780809,7.85509872 33.5481038,7.93601239 33.4879656,7.99632985 C33.1297111,8.35621177 32.5353176,8.33616725 32.1570171,8.64161634 C32.1917759,8.70230159 32.20373,8.77089431 32.2121898,8.83967093 C32.4542138,8.95478901 32.8247902,8.77015873 33.0822626,8.86008324 C33.0004232,9.05868951 32.7560083,9.27200736 32.5755937,9.38436702 C32.2223048,9.60412118 31.8044638,9.71831978 31.4471289,9.93531552 C31.5403707,10.0359059 31.5274971,10.1421971 31.6610149,10.231386 C31.858533,10.3636063 32.0989019,10.3827313 32.3245581,10.4283372 C32.3039603,10.8750174 32.855503,10.6788018 33.0844695,10.6216105 C33.4418044,10.5329733 33.7713691,10.4452555 34.1360604,10.5406969 C34.0361979,10.5493399 34.007692,10.6605962 33.9652091,10.7317635 C33.9030479,10.8354801 33.8480591,10.8614092 33.7483805,10.9222784 C33.6029086,11.0114673 33.4921955,11.1457104 33.3386316,11.2326926 C33.0535728,11.3937844 32.8479627,11.5804375 32.5270417,11.6716492 C32.1658447,11.7742625 31.824326,11.9140225 31.4587151,12.0011885 C31.3792665,12.1700039 31.7619809,12.1328571 31.5650145,12.3612544 C31.4761865,12.4642354 31.3494733,12.471959 31.4291058,12.6188908 C31.4817037,12.7161711 31.6030836,12.7312505 31.6998197,12.7584669 C31.9659358,12.8329443 32.2441899,12.8031533 32.5191337,12.8042567 C32.6445595,12.8048084 32.7675945,12.8138192 32.8913652,12.7902807 C33.0287451,12.7639837 33.1639182,12.7056891 33.3057119,12.7476171 C33.249068,12.9026403 33.0886994,12.9723364 32.9513195,13.0300794 C32.7880084,13.0986721 32.67987,13.2242722 32.5257544,13.3050019 C32.3519605,13.3960298 32.1720976,13.4629675 32.0093383,13.5766144 C31.9164643,13.6413453 31.8349927,13.7033178 31.7283255,13.7463492 C31.5828536,13.8050116 31.4256115,13.8519048 31.2762775,13.898614 C31.0993572,13.9539663 30.934391,13.9234398 30.7510338,13.9313473 C30.4990787,13.9425648 30.2588937,14.0135482 30.0041799,14.0019628 C29.8699264,13.9960782 29.5348445,13.9938715 29.4285452,13.8892354 C29.3233493,13.7857027 29.471212,13.7470848 29.5626147,13.6781243 C29.6766382,13.5922455 29.7890065,13.505631 29.8866621,13.4039373 C30.0233064,13.2616028 30.1823876,13.1273597 30.3142503,12.9864963 C30.4023426,12.8923422 30.3731011,12.899698 30.3063422,12.8077507 C30.2386637,12.7145161 30.1525944,12.648314 30.0681802,12.576595 C30.0155823,12.5320925 29.896961,12.4646032 29.8785702,12.3984011 C29.8305699,12.2275629 30.0768239,12.2336314 30.1262954,12.1133643 C30.1628933,12.0245432 30.084732,11.9574216 30.0744331,11.8730139 C30.278388,11.8373384 30.500366,11.7952265 30.6958612,11.7224042 C30.8174249,11.6771661 31.2236796,11.5521177 31.194622,11.3704297 C30.9662072,11.3132385 30.7602293,11.2676326 30.5860676,11.1081959 C30.5007338,11.0302245 30.1685944,10.8051374 30.2000429,10.6797213 C30.4047334,10.6734688 30.6325965,10.4138095 30.8199996,10.3376771 C30.7981145,10.273314 30.702298,10.2416841 30.6360908,10.2135482 C30.5196765,10.1638966 30.3909403,10.0903388 30.272319,10.053192 C30.0571457,9.98570267 29.8500643,9.95627952 29.6409599,9.85237902 C29.5206835,9.79261324 29.1607738,9.60798297 29.2074867,9.42169764 C29.2256937,9.35053039 29.3717173,9.28046651 29.4259704,9.22419473 C29.4908903,9.15652149 29.5513963,9.08296361 29.6220173,9.01712931 C29.5992126,8.92444638 29.437005,8.87019744 29.3630736,8.80178862 C29.2690962,8.71499032 29.1554405,8.61550329 29.0754401,8.51767131 C28.9717155,8.39115176 28.9886351,8.29828494 29.1245438,8.21792296 C29.2804985,8.12579172 29.457051,8.04340689 29.6220173,7.95403407 C29.5786148,7.77455285 29.5280399,7.73207317 29.6646841,7.59378436 C29.7978342,7.45898955 30.014111,7.39002904 30.1117666,7.22378823 C29.9664786,7.17542393 29.7470753,7.2144096 29.5914884,7.2144096 C29.3899243,7.2144096 29.2196247,7.22617886 29.0314859,7.15924119 C28.8540139,7.09634921 28.6780131,7.06858111 28.4977824,7.01065428 C28.3346552,6.95824429 28.1597579,7.00385017 28.0017802,6.9508885 C28.0131825,6.84183895 28.1972753,6.81094464 28.2708388,6.73646729 C28.3480806,6.65794425 28.4185177,6.57114595 28.4977824,6.49207123 C28.6791165,6.31111885 28.8347034,6.21659698 29.0623826,6.1154549 C29.1631647,6.0704007 29.3240849,6.04116144 29.372269,5.92236547 C29.4178784,5.80982191 29.3888208,5.66620015 29.4452809,5.55567944 C29.5433043,5.36406117 30.0534675,5.37196864 30.0678124,5.10881533 C30.0781113,4.92216221 29.8802253,4.960964 29.7538799,4.95489547 C29.6155805,4.94809137 29.4644074,4.90303717 29.3283148,4.87655633 C29.2133718,4.85430507 29.0559458,4.77945993 28.9375085,4.7180391 C28.8084045,4.65110143 28.6826108,4.63933217 28.5604953,4.57644019 C27.9225154,4.24818815 27.5307896,3.52695316 27.4298236,2.8180391 L27.4298236,17.3891192 L54.6271864,17.5147193 L54.3759669,16.8238269 Z" id="Fill-1" fill="#A7C0DD" transform="translate(41.028505, 9.209759) scale(-1, 1) translate(-41.028505, -9.209759) "></path>
                                    <g id="Group-5" transform="translate(14.609720, 0.004965)">
                                        <mask id="mask-12" fill="white">
                                            <use xlink:href="#path-11"></use>
                                        </mask>
                                        <g id="Clip-4"></g>
                                        <path d="M113.682917,17.9966705 L113.682917,25.9602304 L43.5671094,25.9602304 L44.6733213,7.82379985 C44.6733213,7.82379985 46.8879518,6.34510259 48.9343058,5.00340689 C50.0546786,4.26506969 51.1248443,3.57031552 51.7499505,3.18082656 C53.5197056,2.07469996 56.6169148,0.968573364 57.5018843,0.52630662 C57.9394035,0.307471932 58.8124188,0.141598916 59.6898481,0.0862466125 C60.5821739,0.0285036779 61.4790974,0.0814653504 61.9261799,0.305081301 C62.8087585,0.74753194 66.5695109,1.63243322 66.5695109,1.63243322 L75.6778686,2.86999231 L78.0706198,5.39032133 C78.0706198,5.39032133 81.3890713,7.60257453 82.2740408,8.04484127 C83.1588264,8.48729191 86.6983364,10.2569106 87.3620635,10.2569106 C88.0257906,10.2569106 92.226637,11.5842625 92.226637,11.5842625 C92.226637,11.5842625 104.170231,14.6810492 105.0552,14.6810492 C105.939986,14.6810492 111.028008,16.0082172 111.028008,16.0082172 L113.682917,17.9966705 Z" id="Fill-3" fill="#8AACD2" mask="url(#mask-12)"></path>
                                    </g>
                                    <path d="M120.394505,25.5515612 L16.4389148,25.5515612 L3.95187051,26.09497 C4.72373603,26.0517547 11.0213274,25.6694377 12.2669421,24.8374981 C13.5942124,23.9527807 26.7955587,18.2998577 28.122829,16.9726897 C28.6421876,16.4531872 29.1952016,16.2056649 29.716951,16.0830072 C30.5274374,15.8906533 31.2582913,16.001174 31.662339,15.8665631 C32.1625712,15.7006901 34.711548,14.4432182 36.5052112,13.4549681 C37.0966621,13.1278194 37.6066414,12.8323006 37.9336314,12.6134659 C39.2609017,11.7285647 40.3261018,10.7357172 41.4323137,9.62959059 C42.5383416,8.523464 43.6445534,6.3113947 44.9720076,5.20545199 C45.2338939,4.98919183 45.5272285,4.79665408 45.8374828,4.62342528 C47.1000171,3.91671796 48.595564,3.5270451 48.9514277,2.99338269 C49.3939124,2.32989063 51.8273946,0.781313395 53.1546649,1.00253871 C53.164412,1.00492935 53.1739753,1.00492935 53.1861133,1.00971061 C54.5131997,1.25502613 56.4874613,3.21938928 58.2428715,3.87828397 C60.0102357,4.54177604 62.8862025,4.98422667 64.4347152,6.53262002 C65.9832279,8.08101336 72.6199471,10.514308 72.6199471,10.514308 C72.6199471,10.514308 80.5817298,13.1664373 82.5727272,14.4936053 C84.5635407,15.8209572 103.136589,12.5798684 105.349013,12.5798684 C107.561069,12.5798684 106.01743,18.6967025 108.229669,19.1389692 C110.441909,19.5814199 115.970026,19.8026452 117.076238,19.8026452 C118.182449,19.8026452 119.952204,19.5814199 119.952204,19.5814199 L120.394505,25.5515612 Z" id="Fill-9" fill="#A7C0DD"></path>
                                    <g id="Group-13" transform="translate(49.287576, 0.924439)">
                                        <mask id="mask-14" fill="white">
                                            <use xlink:href="#path-13"></use>
                                        </mask>
                                        <g id="Clip-12"></g>
                                        <path d="M9.97153876,1.23687573 C9.79351498,2.15542973 9.12758097,2.27569686 8.46366996,2.73506581 C7.95644931,3.0859369 7.7736439,3.69186992 7.40821698,4.17036392 C7.23258401,4.40115176 6.88885834,4.61520519 6.76122558,4.88222029 C6.56904082,5.29322493 6.76122558,5.78845335 6.68196086,6.21177894 C6.5065118,7.13511421 5.75855444,8.03914053 5.04682713,8.60663957 C4.3494447,9.15942702 3.52222262,9.1428765 2.70952934,9.53236547 C1.86318073,9.93858885 0.487726315,10.8089624 0.117333857,11.6554297 C0.119724672,10.888405 0.0717244581,9.8639276 0.312277256,9.10425861 C0.773888512,7.63751452 1.72837553,6.34878049 2.21426276,4.87008324 C2.35127486,4.45411343 2.46419491,4.0670151 2.58208049,3.69904181 C3.84461486,2.9921506 5.34016177,2.60266163 5.69602543,2.06899923 C6.13851016,1.40532327 8.57199229,-0.143253968 9.89926258,0.0781552458 C9.90900975,0.0803619822 9.91857301,0.0803619822 9.930711,0.085327139 C9.97392958,0.455507162 10.031677,0.912485482 9.97153876,1.23687573" id="Fill-11" mask="url(#mask-14)"></path>
                                    </g>
                                    <g id="Group-19" transform="translate(0.000000, 9.199700)">
                                        <mask id="mask-16" fill="white">
                                            <use xlink:href="#path-15"></use>
                                        </mask>
                                        <g id="Clip-18"></g>
                                        <path d="M48.4978165,4.30514034 C48.4978165,4.34026423 48.2399763,3.99086431 48.1542747,3.80182056 C48.0705962,3.61700639 48.0512858,3.48074042 47.8887103,3.32608498 C47.7667787,3.20986353 47.6172608,3.11295103 47.6430081,2.92556233 C47.665261,2.76318331 47.754089,2.80474352 47.7353303,2.61386082 C47.7274222,2.53441831 47.6549621,2.39410666 47.6244333,2.31723868 C47.4725246,1.93363434 47.0098098,1.72969512 46.8277401,1.33763163 C46.7333948,1.13497967 46.6695784,0.924420248 46.6155092,0.705401665 C46.5691642,0.516725707 46.6473255,0.129995161 46.4036462,0.0808952768 C46.394083,0.277846496 46.240703,0.507714866 46.1919671,0.705401665 C46.1627256,0.824013744 46.1930706,0.907134146 46.1743119,1.02280391 C46.1526106,1.15612756 46.0768402,1.25800523 46.0584493,1.39335172 C46.0235066,1.65117209 46.0512768,1.76279617 45.8795059,1.97850465 C45.800793,2.0772561 45.7169305,2.08222125 45.6339876,2.15853755 C45.5135273,2.26905827 45.5359642,2.32146825 45.5179411,2.4899158 C45.2783079,2.51271874 45.1596866,2.51602884 45.1058013,2.76612563 C45.0633184,2.96307685 45.1966523,3.28213415 45.0912725,3.46363821 C45.0412493,3.54933314 44.9290649,3.58225029 44.8689267,3.66445122 C44.8025356,3.75455962 44.7668573,3.89450348 44.7126042,3.99288715 C44.6434545,4.11867112 44.5469023,4.36931959 44.3889246,4.29116434 C44.2552228,4.22477836 44.2680965,3.73892857 44.2638666,3.61590302 C44.2539355,3.33969319 44.157935,3.36727739 44.0220264,3.16903891 C43.9034052,2.995994 43.9714515,2.80272067 43.8679108,2.60558556 C43.8239565,2.52154568 43.7535194,2.49727158 43.7279561,2.40477255 C43.6957721,2.28763163 43.7630827,2.14382598 43.7367837,2.02503 C43.6990824,1.85308846 43.5644611,1.72877565 43.4953114,1.55481127 C43.4399548,1.41541909 43.4605526,1.0196777 43.2273562,1.14270325 C43.0474933,1.23740902 43.0982522,1.6090602 43.0975165,1.76408343 C43.0962292,2.05132695 43.0329645,2.11421893 42.884734,2.34647793 C42.7618828,2.53901568 42.7537908,2.72382985 42.6769169,2.93383759 C42.6072155,3.1241686 42.4139273,3.08757356 42.3486396,3.23836721 C42.3127774,3.32130372 42.3828467,3.47945316 42.362065,3.56937766 C42.3422028,3.65562427 42.2783864,3.69074816 42.2478576,3.7725813 C42.2142022,3.86232191 42.2213747,3.92576558 42.176317,4.01090883 C42.1031213,4.14938153 41.9832127,4.26210898 41.9090974,4.40242063 C41.60528,4.46512873 41.419532,3.92889179 41.4038998,3.72164247 C41.3836698,3.45407569 41.292451,3.35514034 41.080588,3.17786585 C41.1041283,3.31799361 41.0064727,3.43090496 40.9766795,3.56367693 C40.9538748,3.6651868 40.9814611,3.72219415 40.919116,3.81965834 C40.8858285,3.87206833 40.810058,3.89321622 40.7692303,3.93955768 C40.5297809,4.21080236 40.3756653,4.57197154 40.1617793,4.86013453 C40.0565834,5.00173345 40.0085832,5.08172764 39.8208122,5.03225997 C39.6459149,4.9861024 39.4180518,4.79503581 39.3820057,4.62272648 C39.3496377,4.46880662 39.3757528,4.30422087 39.3387871,4.14625532 C39.308626,4.01808072 39.3051318,3.79244193 39.2061888,3.70178184 C39.1460506,3.90682443 39.1302344,4.04897503 38.919291,4.09789102 C38.6583243,4.15839237 38.560117,4.08005323 38.4679786,3.86250581 C38.3618632,3.61204123 38.2482075,3.36672571 38.0955632,3.1379607 C37.9217693,2.87719803 37.9054014,2.79297425 37.9118382,2.47189412 C37.8956542,2.88400213 37.7472398,3.27183604 37.7067798,3.67824332 C37.676067,3.98700252 37.6744118,4.08299555 37.512572,4.32867886 C37.2996056,4.65141405 37.2234673,5.09478417 37.1506394,5.4612863 C36.9555121,5.46661924 36.9014429,5.15179152 36.8609829,4.99217093 C36.8091206,4.78896729 36.7984539,4.72699477 36.66512,4.5458585 C36.5579011,4.68745741 36.5087975,4.91236063 36.4271419,5.07473964 C36.3760152,5.17643341 36.2557388,5.32318138 36.2233709,5.42689799 C36.1862213,5.54642954 36.2461756,5.66485772 36.1992788,5.78733159 C36.1468648,5.92525261 35.930588,6.09829752 35.815461,6.18619919 C35.6694374,5.9326084 35.5670001,5.64260647 35.4691606,5.36878726 C35.3906315,5.14958479 35.403873,4.94987515 35.347229,4.73140825 C35.133343,4.81416086 34.9231352,5.26304781 34.7281918,5.42064557 C34.5411565,5.5719909 34.5661681,5.57419764 34.5246047,5.78733159 C34.5012483,5.90778262 34.4370641,5.99476481 34.3864891,6.10491773 C34.3074083,6.27685927 34.3693856,6.574217 34.2128792,6.6435453 C34.0789935,6.70294328 33.858119,6.57826268 33.749061,6.51242838 C33.4601402,6.33864789 33.4452435,6.26049264 33.4713586,5.97104239 C33.4303469,5.96056039 33.1085064,6.79305168 33.0231727,6.92508808 C32.6720907,6.67517518 32.509883,6.4144125 32.5096991,6.00487902 C32.5096991,5.71745161 32.5510786,5.40409504 32.3211926,5.18176636 C32.2296059,5.5512108 32.0879961,5.86842915 31.9349839,6.21176055 C31.8435812,6.41717093 31.9848232,6.98595722 31.664454,7.01556427 C31.5077636,6.8027981 31.317234,6.41992935 31.2569119,6.15879888 C31.206337,5.93904472 31.248636,5.75809233 31.1386585,5.54716512 C31.0391638,5.35573074 30.9867498,5.23803813 30.9212783,5.04108691 C30.869232,4.88514421 30.8035766,4.66281552 30.6187482,4.61261227 C30.5284489,4.99511324 30.399161,6.67204897 30.2476201,7.04884921 C29.9745154,7.01574816 29.824078,5.3985782 29.6763991,5.20052362 C29.5003984,4.96440283 29.5491342,4.86178959 29.5458238,4.5944067 C29.5432491,4.38182443 29.5664216,3.86489644 29.390053,3.70876984 C29.4676626,3.99196767 29.4457774,4.21705478 29.3350643,4.50926345 C29.1697302,4.94472609 29.1888567,5.40427894 29.0617757,5.84102884 C28.9729477,6.14702962 28.8228781,6.42379113 28.6568084,6.68804781 C28.5139112,6.91570945 28.5495895,7.03468931 28.476026,7.27172958 C28.1924385,7.17665602 28.1370819,6.86569009 28.0127595,6.63710898 C27.9138166,6.45486934 27.7302755,6.00340786 27.5283436,5.93389566 C27.3538141,6.17976287 27.3510554,6.5429549 27.3240208,6.83001452 C27.299377,7.08912214 27.1829627,7.15955381 27.0853071,7.37967576 C26.8923867,7.2812921 26.8340876,6.9311566 26.7507769,6.74634243 C26.6691213,6.56557395 26.5630059,6.40503388 26.4710515,6.23015002 C26.3831431,6.7752139 25.9779918,7.24763937 25.7017607,7.6972619 C25.6061281,7.85302071 25.5143576,8.18384727 25.3118739,8.21271874 C24.9010215,8.27119725 24.974585,7.04094173 24.8622167,6.73034359 C24.7158253,6.32503968 24.5398245,5.98704123 24.4445597,5.55764712 C24.1219835,5.44859756 24.1471791,6.34655536 24.1188571,6.52382985 C24.0839144,6.74487127 23.9549943,6.91295103 23.9301666,7.12957898 C23.9042354,7.35448219 23.9502127,7.46812911 23.8319593,7.65128823 C23.7311772,7.80741483 23.5950846,7.94533585 23.4806933,8.09208382 C23.3861642,7.9434969 23.3659342,7.75500484 23.3265777,7.58618951 C23.2776579,7.37599787 23.160508,7.22538811 23.1042319,7.02678184 C23.0337948,6.77797232 23.2373819,6.38443767 22.8463916,6.3312921 C22.6488735,6.46737418 22.6707587,6.7371477 22.6111722,6.95046554 C22.5412868,7.20056233 22.4502519,7.37379113 22.3384353,7.59887824 C22.3023892,7.67133275 22.2707569,7.83499903 22.2264348,7.88832849 C22.0932848,8.04886856 21.9014679,8.00344657 21.7160877,8.02882404 C21.7190303,8.21915505 21.5974665,8.34751355 21.5224317,8.51320267 C21.3672126,8.8554307 21.4025231,8.87823364 20.9681304,8.85782133 C20.7947043,8.84954607 20.2959435,8.61379307 20.1712533,8.49095141 C19.98808,8.31055072 19.8332288,7.99535521 19.7239869,7.77247484 C19.6118025,7.54407762 19.4328592,7.34418409 19.3230656,7.11468351 C19.2688124,7.00103659 19.3313415,6.77061653 19.2688124,6.69062234 C19.1500073,6.53854142 19.0242137,6.69669086 18.9776847,6.84399051 C18.932627,6.98706059 18.9572708,7.14465834 18.9567191,7.29306136 C18.9563513,7.3853765 18.9329949,7.50159795 18.9504662,7.59225803 C18.9620525,7.6523916 19.0459149,7.75371758 19.043708,7.80355304 C19.0334091,8.03857046 18.6907869,8.01043457 18.6348786,8.27156504 C18.5741887,8.55568235 18.6709247,8.88742838 18.6411315,9.1777981 C18.6026945,9.55110434 18.3202105,9.45952478 18.101359,9.66511905 C18.1353821,9.5349216 18.0601634,9.28280197 18.0059103,9.17228126 C17.9362088,9.02957898 17.8199784,8.89791038 17.7388746,8.75557588 C17.6163913,8.54097077 17.5803451,8.36498355 17.5797934,8.11727739 C17.5796095,7.94662311 17.5991038,7.73992547 17.388896,7.70388211 C17.3631488,7.88575397 17.3458613,7.95636953 17.2621828,8.11672571 C17.1895388,8.17060685 17.1522053,8.2417741 17.1505501,8.33041134 C17.1700445,8.39661343 17.166918,8.46134437 17.140619,8.52405246 C17.0482968,8.60993128 16.815836,8.45233353 16.7463184,8.55862466 C16.6562031,8.69636179 16.8230084,8.73700252 16.8463649,8.8519367 C16.8939973,9.08824139 16.7336287,9.05826655 16.6449846,9.1987621 C16.5706855,9.3166386 16.6573065,9.47736256 16.6322949,9.60461769 C16.5934902,9.80230449 16.4345929,10.1449003 16.2801095,10.2844764 C15.9352803,9.66842915 16.2630059,8.96595141 16.0814879,8.33923829 C15.9179929,8.35413376 15.8181304,8.43890921 15.697854,8.54041909 C15.6827735,8.55329172 15.4771633,8.74527778 15.4751403,8.75189799 C15.4482896,8.84182249 15.566727,8.91243806 15.5772098,9.01358014 C15.5983593,9.21807104 15.4481057,9.18184379 15.3743583,9.30468544 C15.27799,9.46522551 15.3675537,9.84184185 15.358726,10.0224264 C15.3484271,10.2285724 15.231645,10.7098248 15.0385407,10.7635221 C14.9322414,10.6235782 14.7146772,10.5930517 14.6151825,10.4483266 C14.5506305,10.3545403 14.4562852,10.2419967 14.424469,10.1285337 C14.4011126,10.0455972 14.4288828,9.94500678 14.3943079,9.87163279 C14.3411583,9.75872145 14.1940312,9.70980546 14.1346286,9.60296264 C14.0625363,9.47294909 14.1305826,9.28096303 13.9527427,9.2127381 C13.750443,9.48416667 13.5759135,9.70888599 13.5032695,10.0222425 C13.4468094,10.2660869 13.3607401,10.3617122 13.1858428,10.5520432 C13.0894745,10.6568631 12.9962327,10.7063308 13.0188535,10.8723877 C13.0368766,11.0031369 13.1720496,11.0277787 13.1402334,11.18979 C13.0907619,11.4420935 12.755496,11.5840602 12.5581618,11.4431969 C12.3966898,11.3280788 12.232827,10.9807017 12.1888728,10.807289 C12.1169644,10.5220683 12.2688732,10.2802468 12.0468952,10.0489073 C11.8348482,9.82768196 11.6831234,9.65574042 11.5420653,9.38155343 C11.4280418,9.16014421 11.5135594,8.71861305 11.131029,8.87418796 C11.1282704,9.06985192 11.2829377,9.13384727 11.1696499,9.33410859 C11.0900173,9.47478804 10.8879015,9.57795296 10.8248207,9.72819493 C10.7727745,9.85195606 10.8090046,9.99649729 10.8053264,10.1277981 C10.7985218,10.375872 10.7181536,10.3992267 10.5244976,10.5224361 C10.7468434,10.7386963 10.3234852,10.8874671 10.2684964,11.0755914 C10.2166341,11.2528659 10.3023356,11.2802662 10.1759903,11.4248074 C10.0397138,11.5803823 9.82711513,11.5710037 9.83226458,11.8168709 C9.67355123,11.7878155 9.48817109,11.4739073 9.42159608,11.3253204 C9.49001018,11.8087795 9.03115755,11.7791725 8.75143217,11.9680323 C8.59989126,12.0706456 8.32733832,12.4264818 8.37110863,12.6342828 C8.0593831,12.272378 8.05570492,11.6642383 8.05018766,11.2190292 C8.04853248,11.3839828 8.07023372,11.5537176 8.04117612,11.7162805 C8.01138289,11.8808662 7.90361229,12.0246719 7.86204889,12.1629607 C7.82361193,12.2918709 7.84586491,12.3775658 7.76420937,12.4864315 C7.6465077,12.6429259 7.50581741,12.6278465 7.50820823,12.8654384 C7.36328804,12.904608 7.2275633,12.8459456 7.08595347,12.8748171 C6.97947024,12.8965166 7.00503357,12.9548113 6.89910206,12.9687873 C6.69294022,12.9958198 6.32916848,12.7265979 6.13716762,12.9469038 C6.15702978,12.6767625 6.25211067,12.1193777 5.84254562,12.1193777 C5.78755687,11.9189324 5.92585634,11.5733943 5.64116541,11.5101345 C5.46976235,11.8359959 5.31932489,12.2030497 5.29964665,12.5629317 C5.27757758,12.9726491 4.96732332,12.8420838 4.68355194,12.9759592 C4.55168928,12.5489557 4.75435685,12.1059533 4.26203282,11.8334214 C4.17817037,11.7868961 4.00345695,11.7832182 3.93724976,11.6953165 C3.86589312,11.6004268 3.93062904,11.3790176 3.93724976,11.2723587 C3.51002946,11.0158256 3.63435186,11.8874864 3.60860461,12.0316599 C3.58193783,12.1822696 3.53669625,12.4073568 3.47674196,12.5452778 C3.40998304,12.5706552 3.35297129,12.6103765 3.30589062,12.6642576 C3.29228136,12.7378155 3.2805112,12.8115573 3.26984448,12.885483 C3.11811967,12.8179936 2.94579706,12.4494686 2.88510713,12.3341667 C2.73172714,12.0417741 2.65025551,11.7159127 2.53678374,11.4071535 C2.48859961,11.2762205 2.3037712,10.929579 2.34092079,10.7962553 C1.7643665,11.2593022 2.07406903,11.6837311 1.89990733,12.1942228 C1.81163108,12.4531465 1.946988,12.6808082 1.82432079,12.9020335 C1.62036585,13.2703746 2.08160929,13.4504075 1.49310092,13.5999139 C1.16059369,13.6843215 1.05503,13.8044048 0.856408421,13.541987 C0.636085598,13.2508817 0.547257615,12.8678291 0.341831411,12.5666096 C0.235715995,12.8567954 0.105876335,13.133373 -0.00189426133,13.414548 C-0.0614807342,13.5701229 -0.0712279042,13.6458875 -0.187642217,13.7990718 C-0.31214852,13.4230072 -0.166124879,12.8062244 -0.524195443,12.5165902 C-0.783139128,12.7363444 -0.866633754,13.234699 -1.02185284,13.5292983 C-1.2118307,13.8906514 -1.42240635,13.961083 -1.78158037,14.1115089 C-1.6765684,14.0541338 -1.53679766,14.0046661 -1.42019944,14.0613057 C-1.48695836,14.2303049 -1.87574171,14.3143448 -2.04254705,14.3443196 C-2.25827215,14.3829375 -2.31473217,14.3557211 -2.42875567,14.1841473 C-2.61156108,13.9094086 -2.62149216,13.5101732 -2.65790612,13.1966328 C-2.68972235,12.9237331 -2.78866532,12.6440292 -2.74176856,12.3674516 C-3.01193069,13.1743815 -3.11068975,12.8713231 -4.00963629,14.1666773 C-3.89395761,14.104337 -4.78297307,14.4783788 -4.64540924,14.4962166 C-4.12899314,15.0852313 -5.71373585,15.2340021 -6.03226601,15.2102797 L48.3841608,15.2102797 L48.4978165,4.34026423" id="Fill-17" fill="#8AACD2" mask="url(#mask-16)"></path>
                                    </g>
                                    <path d="M44.431334,13.5048403 C44.431334,13.5399642 44.6891742,13.1905643 44.7750596,13.0015205 C44.8587382,12.8167063 44.8780486,12.6804404 45.040624,12.5257849 C45.1625556,12.4095635 45.3120735,12.312651 45.2863263,12.1252623 C45.2640733,11.9628833 45.1752453,12.0044435 45.194004,11.8135608 C45.2017282,11.7341183 45.2743722,11.5938066 45.3049011,11.5169386 C45.4568098,11.1333343 45.9195245,10.9293951 46.1015943,10.5373316 C46.1959395,10.3346796 46.2597559,10.1241202 46.3136412,9.90510163 C46.3601702,9.71642567 46.2820089,9.32969512 46.5255042,9.28059524 C46.5352514,9.47754646 46.6884475,9.70741483 46.7371833,9.90510163 C46.7664248,10.0237137 46.7360799,10.1068341 46.7550225,10.2225039 C46.7767237,10.3558275 46.8524942,10.4577052 46.8708851,10.5930517 C46.9058278,10.850872 46.8778736,10.9624961 47.0498284,11.1782046 C47.1285414,11.2769561 47.2122199,11.2819212 47.2953467,11.3582375 C47.4158071,11.4687582 47.3931863,11.5211682 47.4113932,11.6896158 C47.6510265,11.7124187 47.7694638,11.7157288 47.8233491,11.9658256 C47.8658321,12.1627768 47.732682,12.4818341 47.8380618,12.6633382 C47.8879011,12.7490331 48.0000855,12.7819503 48.0604076,12.8641512 C48.1266148,12.9542596 48.1624771,13.0942034 48.2165463,13.1925871 C48.2858799,13.3183711 48.3824321,13.5690196 48.5404098,13.4908643 C48.6739276,13.4244783 48.661054,12.9386285 48.6654678,12.815603 C48.6753989,12.5393931 48.7713993,12.5669774 48.9071241,12.3687389 C49.0257453,12.195694 48.957699,12.0024206 49.0612397,11.8052855 C49.1053778,11.7212456 49.1758149,11.6969715 49.2013782,11.6044725 C49.2333784,11.4873316 49.1662517,11.3435259 49.1923667,11.22473 C49.230068,11.0527884 49.3648732,10.9284756 49.4338391,10.7545112 C49.4891956,10.615119 49.4687817,10.2193777 49.7019782,10.3424032 C49.8816571,10.437109 49.8310822,10.8087602 49.8318178,10.9637834 C49.8331052,11.2510269 49.8961859,11.3139189 50.0444165,11.5461779 C50.1672676,11.7387156 50.1755435,11.9235298 50.2522335,12.1335376 C50.321935,12.3238686 50.5154071,12.2872735 50.5806947,12.4380672 C50.6163731,12.5210037 50.5464877,12.6791531 50.5670855,12.7690776 C50.5871316,12.8553242 50.650764,12.8904481 50.6814768,12.9722813 C50.7151321,13.0620219 50.7077758,13.1254655 50.7528334,13.2106088 C50.8262131,13.3490815 50.9459378,13.4618089 51.020053,13.6021206 C51.3240544,13.6648287 51.5098023,13.1285918 51.5252507,12.9213424 C51.5456646,12.6537756 51.6368834,12.5548403 51.8487464,12.3775658 C51.8250221,12.5176936 51.9226777,12.6306049 51.952471,12.7633769 C51.9754596,12.8648868 51.9478733,12.9218941 52.0100345,13.0193583 C52.0435059,13.0717683 52.1190924,13.0929162 52.1599202,13.1392576 C52.3995534,13.4105023 52.5536691,13.7716715 52.7675551,14.0598345 C52.872567,14.2014334 52.9205673,14.2814276 53.1085221,14.2319599 C53.2834195,14.1858024 53.5112825,13.9947358 53.5473287,13.8224264 C53.5796966,13.6685066 53.5535816,13.5039208 53.5905473,13.3459553 C53.6205244,13.2177807 53.6240187,12.9921419 53.7231456,12.9014818 C53.7832838,13.1065244 53.7990999,13.248675 54.0098595,13.297591 C54.2708262,13.3580923 54.3690335,13.2797532 54.4613557,13.0622058 C54.5672873,12.8117412 54.6811268,12.5664257 54.8337712,12.3376607 C55.0073812,12.076898 55.0237491,11.9926742 55.0173123,11.6715941 C55.0336801,12.0837021 55.1819107,12.471536 55.2225545,12.8779433 C55.2532673,13.1867025 55.2547386,13.2826955 55.4165784,13.5283788 C55.6295449,13.851114 55.705867,14.2944841 55.778695,14.6609863 C55.9738223,14.6663192 56.0277076,14.3514915 56.0681675,14.1918709 C56.1202137,13.9886672 56.1306965,13.9266947 56.2642144,13.7455585 C56.3714332,13.8871574 56.420353,14.1120606 56.5021924,14.2744396 C56.5533191,14.3761334 56.6735955,14.5228813 56.7057796,14.6265979 C56.7431131,14.7461295 56.6831588,14.8645577 56.7298716,14.9870316 C56.7824696,15.1249526 56.9987464,15.2979975 57.1138733,15.3858991 C57.259897,15.1323084 57.3621503,14.8423064 57.4601737,14.5684872 C57.5387028,14.3492847 57.5254614,14.1495751 57.5821053,13.9311082 C57.7959913,14.0138608 58.0061992,14.4627478 58.2011426,14.6203455 C58.3881779,14.7716909 58.3629824,14.7738976 58.4045458,14.9870316 C58.4280861,15.1074826 58.4922703,15.1944648 58.5428452,15.3046177 C58.621926,15.4765592 58.5597648,15.773917 58.7164552,15.8432453 C58.8503409,15.9026432 59.0710315,15.7779626 59.1802734,15.7121283 C59.4691942,15.5383479 59.4840908,15.4601926 59.4577918,15.1707424 C59.4989874,15.1602604 59.8208279,15.9927516 59.9061617,16.124788 C60.2570598,15.8748751 60.4194513,15.6141125 60.4194513,15.204579 C60.4196352,14.9171516 60.3782557,14.603795 60.6079579,14.3814663 C60.6995445,14.7509108 60.8413382,15.0681291 60.9943504,15.4114605 C61.0857531,15.6168709 60.9445111,16.1856572 61.2646965,16.2152642 C61.4215707,16.0024981 61.6121003,15.6196293 61.6724224,15.3584988 C61.7229974,15.1387447 61.6806983,14.9577923 61.7904919,14.7468651 C61.8901705,14.5554307 61.9425845,14.4377381 62.0080561,14.2407869 C62.0599184,14.0848442 62.1257578,13.8625155 62.3105862,13.8123122 C62.4007015,14.1948132 62.5301734,15.8717489 62.6815304,16.2485492 C62.9548189,16.2154481 63.1052564,14.5982782 63.2529352,14.4002236 C63.428936,14.1641028 63.3800162,14.0614895 63.3835105,13.7941067 C63.3860852,13.5815244 63.3629127,13.0645964 63.5392813,12.9084698 C63.4616718,13.1916676 63.483373,13.4167547 63.5942701,13.7089634 C63.7594202,14.1444261 63.7402937,14.6039789 63.8673747,15.0407288 C63.9563866,15.3467296 64.1064563,15.6234911 64.272526,15.8877478 C64.4152393,16.1154094 64.3797448,16.2343893 64.4531245,16.4714295 C64.7368959,16.376356 64.7922524,16.0653901 64.9165748,15.8368089 C65.0155178,15.6545693 65.1990589,15.2031078 65.4009908,15.1335956 C65.5755203,15.3794628 65.578095,15.7426549 65.6053135,16.0297145 C65.6297734,16.2888221 65.7463716,16.3592538 65.8438433,16.5793757 C66.0367637,16.4809921 66.0950629,16.1308566 66.1785575,15.9460424 C66.2600291,15.7652739 66.3663284,15.6047338 66.4582829,15.42985 C66.5460074,15.9749139 66.9513425,16.4473393 67.2273897,16.8969619 C67.3232063,17.0527207 67.4149768,17.3835472 67.6174605,17.4124187 C68.0283129,17.4708972 67.9545654,16.2406417 68.0671176,15.9300436 C68.2135091,15.5247396 68.389326,15.1867412 68.4847747,14.7573471 C68.8073508,14.6482975 68.7819714,15.5462553 68.8102934,15.7235298 C68.84542,15.9445712 68.9743401,16.112651 68.9991678,16.3292789 C69.024915,16.5541822 68.9791217,16.6678291 69.0971912,16.8509882 C69.1981572,17.0071148 69.3340658,17.1450358 69.4484571,17.2917838 C69.5431702,17.1431969 69.5634002,16.9547048 69.6025728,16.7858895 C69.6516764,16.5756978 69.7686425,16.4250881 69.8249186,16.2264818 C69.8955396,15.9776723 69.6919525,15.5841376 70.0827588,15.5309921 C70.2804608,15.6670741 70.2585757,15.9368477 70.3181622,16.1501655 C70.3880475,16.4002623 70.4790824,16.5734911 70.590899,16.7985782 C70.6267612,16.8710327 70.6583936,17.034699 70.7028995,17.0880285 C70.8360495,17.2485685 71.0278665,17.2031465 71.2132466,17.228524 C71.2103041,17.418855 71.3318678,17.5472135 71.4069027,17.7129026 C71.5619378,18.0551307 71.5268112,18.0779336 71.9610201,18.0575213 C72.1344461,18.049246 72.633207,17.813493 72.7578972,17.6906514 C72.9410704,17.5102507 73.0959217,17.1950552 73.2053475,16.9721748 C73.3175319,16.7437776 73.4964752,16.543884 73.6062688,16.3143835 C73.6605219,16.2007365 73.597809,15.9703165 73.6605219,15.8903223 C73.779327,15.7382414 73.9051207,15.8963908 73.9514657,16.0436905 C73.9965234,16.1867605 73.9720635,16.3443583 73.9726153,16.4927613 C73.9729831,16.5850765 73.9961556,16.7012979 73.9786842,16.791958 C73.9672819,16.8520916 73.8834195,16.9534175 73.8854425,17.003253 C73.8959253,17.2382704 74.2385475,17.2101345 74.2944558,17.471265 C74.3551457,17.7553823 74.2584096,18.0871283 74.2882029,18.3774981 C74.3264559,18.7508043 74.6091238,18.6592247 74.8277915,18.864819 C74.7939523,18.7346216 74.869171,18.4825019 74.9232402,18.3719812 C74.9931256,18.2292789 75.109356,18.0976103 75.1904598,17.9552758 C75.3129431,17.7406707 75.3489892,17.5646835 75.349357,17.3169774 C75.3497249,17.1463231 75.3300466,16.9396254 75.5404383,16.9035821 C75.5660017,17.0854539 75.583473,17.1560695 75.6671516,17.3164257 C75.7397956,17.3703068 75.7769451,17.4414741 75.7787842,17.5301113 C75.759106,17.5963134 75.7624163,17.6610443 75.7885314,17.7237524 C75.8810376,17.8096312 76.1134984,17.6520335 76.182832,17.7583246 C76.2729474,17.8960617 76.1063259,17.9367025 76.0829695,18.0516367 C76.0351532,18.2879413 76.1957056,18.2579665 76.2841658,18.3984621 C76.358465,18.5163386 76.2720278,18.6770625 76.2970394,18.8043177 C76.3356603,19.0020045 76.4947415,19.3446003 76.6492249,19.4841763 C76.994054,18.8681291 76.6663284,18.1656514 76.8478465,17.5389383 C77.0111576,17.5538337 77.111204,17.6386092 77.2314804,17.740119 C77.246377,17.7529917 77.452171,17.9449777 77.454194,17.9515979 C77.4810447,18.0415225 77.3624235,18.112138 77.3521246,18.2132801 C77.3309751,18.417771 77.4810447,18.3815437 77.5547922,18.5043854 C77.6511604,18.6649255 77.5615968,19.0415418 77.5704244,19.2221264 C77.5807233,19.4282724 77.6976894,19.9095248 77.8907937,19.963222 C77.997093,19.8232782 78.2146572,19.7927516 78.3141519,19.6480265 C78.37852,19.5542402 78.4730491,19.4416967 78.5046815,19.3282336 C78.5282218,19.2452971 78.5004516,19.1447067 78.5348425,19.0713328 C78.5879922,18.9584214 78.7351193,18.9095054 78.7947057,18.8026626 C78.866798,18.6726491 78.7985678,18.480663 78.9764077,18.4124381 C79.1788914,18.6838666 79.3534209,18.9085859 79.425881,19.2219425 C79.4825249,19.4657869 79.5685943,19.5614121 79.7434916,19.7517431 C79.8398598,19.8565631 79.9331016,19.9060308 79.9102969,20.0720877 C79.8924578,20.2028368 79.7572848,20.2274787 79.789101,20.3894899 C79.8383886,20.6417935 80.1738383,20.7837602 80.3711726,20.6428968 C80.5324606,20.5277787 80.6965073,20.1804017 80.7402776,20.006989 C80.812186,19.7217683 80.6604612,19.4799468 80.8822553,19.2486072 C81.0943022,19.0273819 81.2462109,18.8554404 81.387269,18.5812534 C81.5011086,18.3598442 81.4157749,17.918313 81.7981215,18.0738879 C81.801064,18.2695519 81.6463966,18.3335472 81.7596845,18.5338086 C81.8391331,18.674488 82.041249,18.7776529 82.1045136,18.9278949 C82.1563759,19.051656 82.1203298,19.1961973 82.1238241,19.3274981 C82.1308126,19.575572 82.2111808,19.5989266 82.4046529,19.7221361 C82.182491,19.9383962 82.6056653,20.0871671 82.6608379,20.2752913 C82.7127002,20.4525658 82.6268148,20.4799661 82.7533441,20.6245074 C82.8894367,20.7800823 83.1022192,20.7707036 83.0968859,21.0165708 C83.2557831,20.9875155 83.4411633,20.6736072 83.5075544,20.5250203 C83.4391403,21.0084795 83.8979929,20.9788724 84.1777183,21.1677323 C84.3294431,21.2703455 84.6018121,21.6261818 84.5582257,21.8339828 C84.8697673,21.472078 84.8734455,20.8639383 84.8789628,20.4187292 C84.8808019,20.5836827 84.8589167,20.7534175 84.8881582,20.9159804 C84.9177676,21.0805662 85.0257221,21.2243719 85.0671016,21.3626607 C85.1057224,21.4915708 85.0832855,21.5772658 85.165125,21.6861314 C85.2826428,21.8426258 85.423333,21.8275465 85.4209422,22.0651384 C85.5658624,22.104308 85.7015872,22.0456456 85.843197,22.074517 C85.9498641,22.0962166 85.9243008,22.1545112 86.0302323,22.1684872 C86.2362102,22.1955197 86.6001659,21.9262979 86.7919828,22.1466038 C86.7723046,21.8764624 86.6772237,21.3190776 87.0867887,21.3190776 C87.1417775,21.1186324 87.003478,20.7730943 87.287985,20.7098345 C87.459572,21.0356959 87.6098256,21.4027497 87.6295038,21.7626316 C87.6517568,22.172349 87.962011,22.0417838 88.2457824,22.1756591 C88.3774612,21.7486556 88.1747936,21.3056533 88.6671176,21.0331214 C88.7509801,20.986596 88.9258774,20.9829181 88.9920846,20.8950165 C89.0634412,20.8001268 88.9987053,20.5787176 88.9920846,20.4720587 C89.419121,20.2155256 89.2947986,21.0871864 89.3205458,21.2313599 C89.3473965,21.3819696 89.3924542,21.6070567 89.4525924,21.7449777 C89.5191674,21.7703552 89.5763631,21.8100765 89.6234437,21.8639576 C89.637053,21.9375155 89.6488232,22.0112573 89.659306,22.0851829 C89.8110308,22.0176936 89.9835373,21.6491686 90.0442272,21.5338666 C90.1976072,21.2414741 90.2790788,20.9156127 90.3923667,20.6068535 C90.4405508,20.4759204 90.6255632,20.1292789 90.5882297,19.9959553 C91.1649679,20.4590021 90.8552653,20.8834311 91.029427,21.3939228 C91.1175194,21.6528465 90.9823464,21.8805081 91.1050136,22.1017334 C91.3089685,22.4700745 90.8477251,22.6501074 91.4362334,22.7996138 C91.7687407,22.8840215 91.8743044,23.0041047 92.0729259,22.741687 C92.2932488,22.4505817 92.3820767,22.067529 92.587319,21.7663095 C92.6936184,22.0564954 92.823458,22.333073 92.9312286,22.614248 C92.9908151,22.7698229 93.0005623,22.8455875 93.1167927,22.9987718 C93.2414829,22.6227071 93.0954592,22.0059243 93.4535298,21.7162902 C93.7124735,21.9360443 93.7959681,22.434399 93.9510033,22.7289983 C94.1411651,23.0903513 94.3517407,23.160783 94.7107308,23.3112089 C94.6059028,23.2538337 94.466132,23.204366 94.3495338,23.2610056 C94.4161088,23.4300048 94.8048922,23.5140447 94.9716975,23.5440196 C95.1874226,23.5826374 95.2438826,23.555421 95.35809,23.3838473 C95.5407115,23.1091086 95.5508265,22.7098732 95.5872405,22.3963328 C95.6188728,22.123433 95.7179997,21.8437292 95.6711029,21.5671516 C95.941265,22.3740815 96.0398402,22.071023 96.9387867,23.3663773 C96.8231081,23.304037 97.7123074,23.6780788 97.5747436,23.6959166 C97.0583275,24.2849313 98.6430702,24.4337021 98.9614165,24.4099797 L44.5451736,24.4099797 L44.431334,13.5399642" id="Fill-20" fill="#8AACD2"></path>
                                </g>
                            </g>
                        </g>
                    </g>
                </g>
            </g>
        </g>
    </g>
</svg>