<?xml version="1.0" encoding="UTF-8"?>
<svg width="1338px" height="252px" viewBox="0 0 1338 252" version="1.1" xmlns="http://www.w3.org/2000/svg" xmlns:xlink="http://www.w3.org/1999/xlink">
    <title>Group 53</title>
    <defs>
        <rect id="path-1" x="0" y="0" width="683" height="252"></rect>
        <rect id="path-3" x="0" y="0" width="683" height="252"></rect>
    </defs>
    <g id="Desktop" stroke="none" stroke-width="1" fill="none" fill-rule="evenodd">
        <g id="Group-53">
            <g id="Group-2-Copy">
                <mask id="mask-2" fill="white">
                    <use xlink:href="#path-1"></use>
                </mask>
                <g id="Mask"></g>
                <g id="Group-2" mask="url(#mask-2)">
                    <g transform="translate(-111.000000, 81.000000)">
                        <g id="Group-7" transform="translate(99.000000, 0.000000)">
                            <path d="M104.221733,24.6928533 L104.221733,12.1305676 C104.221733,10.4941926 103.421124,9.1654538 102.43247,9.1654538 L94.3750875,9 L84.263471,9 C83.440068,9 82.7705188,10.1076607 82.7705188,11.4718741 L82.7705188,22.9685011 L68.5361891,22.9685011 L68.5361891,42.4423853 L66.4962011,42.4423853 L66.4962011,24.11788 L61.2651704,24.11788 L61.2651704,11.3714099 L45.1874438,11.3714099 L45.1874438,22.54167 L43.1958912,22.54167 L43.1958912,49.6392 L32.8819854,49.6392 L32.8819854,30.597539 L25.1009697,30.597539 L25.1009697,24.9826103 L20.3941817,24.9826103 L20.3941817,18.879834 L12.6131661,18.879834 L12.6131661,40.1180857 L0,40.1180857 L0,117.993473 L114,118 L114,24.6928533 L104.221733,24.6928533" id="Fill-2" fill="#C6DDF5" opacity="0.698846726"></path>
                            <path d="M226.449765,16.9885934 L226.449765,3.3890548 C226.449765,1.61756627 225.585949,0.179115125 224.519244,0.179115125 L215.825752,0 L204.91585,0 C204.027442,0 203.305033,1.19911893 203.305033,2.67597383 L203.305033,15.1218636 L187.946941,15.1218636 L187.946941,36.2036831 L185.745901,36.2036831 L185.745901,16.3661453 L180.101894,16.3661453 L180.101894,2.56721439 L162.754874,2.56721439 L162.754874,14.6597896 L160.606093,14.6597896 L160.606093,43.9947302 L149.477932,43.9947302 L149.477932,23.3808221 L141.082625,23.3808221 L141.082625,17.3022753 L136.004249,17.3022753 L136.004249,10.6956001 L127.608942,10.6956001 L127.608942,33.6874689 L114,33.6874689 L114,117.992934 L237,118 L237,16.9885934 L226.449765,16.9885934" id="Fill-2-Copy" fill="#C6DDF5"></path>
                        </g>
                        <g id="Group-7-Copy-2" transform="translate(339.000000, 0.000000)">
                            <path d="M104.221733,24.6928533 L104.221733,12.1305676 C104.221733,10.4941926 103.421124,9.1654538 102.43247,9.1654538 L94.3750875,9 L84.263471,9 C83.440068,9 82.7705188,10.1076607 82.7705188,11.4718741 L82.7705188,22.9685011 L68.5361891,22.9685011 L68.5361891,42.4423853 L66.4962011,42.4423853 L66.4962011,24.11788 L61.2651704,24.11788 L61.2651704,11.3714099 L45.1874438,11.3714099 L45.1874438,22.54167 L43.1958912,22.54167 L43.1958912,49.6392 L32.8819854,49.6392 L32.8819854,30.597539 L25.1009697,30.597539 L25.1009697,24.9826103 L20.3941817,24.9826103 L20.3941817,18.879834 L12.6131661,18.879834 L12.6131661,40.1180857 L0,40.1180857 L0,117.993473 L114,118 L114,24.6928533 L104.221733,24.6928533" id="Fill-2" fill="#AACBE2" opacity="0.698846726"></path>
                            <path d="M226.449765,16.9885934 L226.449765,3.3890548 C226.449765,1.61756627 225.585949,0.179115125 224.519244,0.179115125 L215.825752,0 L204.91585,0 C204.027442,0 203.305033,1.19911893 203.305033,2.67597383 L203.305033,15.1218636 L187.946941,15.1218636 L187.946941,36.2036831 L185.745901,36.2036831 L185.745901,16.3661453 L180.101894,16.3661453 L180.101894,2.56721439 L162.754874,2.56721439 L162.754874,14.6597896 L160.606093,14.6597896 L160.606093,43.9947302 L149.477932,43.9947302 L149.477932,23.3808221 L141.082625,23.3808221 L141.082625,17.3022753 L136.004249,17.3022753 L136.004249,10.6956001 L127.608942,10.6956001 L127.608942,33.6874689 L114,33.6874689 L114,117.992934 L237,118 L237,16.9885934 L226.449765,16.9885934" id="Fill-2-Copy" fill="#AACBE2"></path>
                        </g>
                        <g id="Group-7-Copy-3" transform="translate(574.000000, 0.000000)">
                            <path d="M95.9937019,31.5410842 L95.9937019,19.9008011 C95.9937019,18.3845271 95.2562981,17.1533104 94.3456963,17.1533104 L86.9244227,17 L77.6110917,17 C76.8526942,17 76.2360042,18.0263645 76.2360042,19.2904522 L76.2360042,29.94329 L63.1254374,29.94329 L63.1254374,47.9878983 L61.246501,47.9878983 L61.246501,31.0083108 L56.4284465,31.0083108 L56.4284465,19.1973615 L41.620014,19.1973615 L41.620014,29.547786 L39.7856893,29.547786 L39.7856893,54.6565064 L30.2860392,54.6565064 L30.2860392,37.0123986 L23.1193142,37.0123986 L23.1193142,31.8095746 L18.7841148,31.8095746 L18.7841148,26.1547086 L11.6173898,26.1547086 L11.6173898,45.8341895 L0,45.8341895 L0,117.993952 L105,118 L105,31.5410842 L95.9937019,31.5410842" id="Fill-2" fill="#D1D1D1" opacity="0.698846726"></path>
                            <path d="M209.449765,16.9885934 L209.449765,3.3890548 C209.449765,1.61756627 208.585949,0.179115125 207.519244,0.179115125 L198.825752,0 L187.91585,0 C187.027442,0 186.305033,1.19911893 186.305033,2.67597383 L186.305033,15.1218636 L170.946941,15.1218636 L170.946941,36.2036831 L168.745901,36.2036831 L168.745901,16.3661453 L163.101894,16.3661453 L163.101894,2.56721439 L145.754874,2.56721439 L145.754874,14.6597896 L143.606093,14.6597896 L143.606093,43.9947302 L132.477932,43.9947302 L132.477932,23.3808221 L124.082625,23.3808221 L124.082625,17.3022753 L119.004249,17.3022753 L119.004249,10.6956001 L110.608942,10.6956001 L110.608942,33.6874689 L97,33.6874689 L97,117.992934 L220,118 L220,16.9885934 L209.449765,16.9885934" id="Fill-2-Copy" fill="#989898"></path>
                        </g>
                        <g id="Group-5-Copy" transform="translate(0.000000, 62.000000)">
                            <path d="M243.152711,1.04578987 C243.149333,1.04638582 243.147644,1.04757772 243.144267,1.04757772 C324.803733,12.0470677 398.613244,32.5165364 456,65.9822329 L456,128 L-2.84217094e-14,128 L-2.84217094e-14,8.62332226 C82.7200889,1.23083303 163.055636,-1.77544791 243.152711,1.04578987" id="Fill-60" fill="#B3D0E5"></path>
                            <path d="M461.659496,1.04578987 C461.654222,1.04638582 461.651585,1.04757772 461.646311,1.04757772 C589.149689,12.0470677 704.396119,32.5165364 794,65.9822329 L794,128 L82,128 L82,8.62332226 C211.159437,1.23083303 336.595641,-1.77544791 461.659496,1.04578987" id="Fill-60-Copy" fill="#8BA6C5" transform="translate(438.000000, 64.000000) scale(-1, 1) translate(-438.000000, -64.000000) "></path>
                        </g>
                    </g>
                </g>
            </g>
            <g id="Group-2-Copy" transform="translate(996.500000, 126.000000) scale(-1, 1) translate(-996.500000, -126.000000) translate(655.000000, 0.000000)">
                <mask id="mask-4" fill="white">
                    <use xlink:href="#path-3"></use>
                </mask>
                <g id="Mask"></g>
                <g id="Group-2" mask="url(#mask-4)">
                    <g transform="translate(-111.000000, 81.000000)">
                        <g id="Group-7" transform="translate(99.000000, 0.000000)">
                            <path d="M104.221733,24.6928533 L104.221733,12.1305676 C104.221733,10.4941926 103.421124,9.1654538 102.43247,9.1654538 L94.3750875,9 L84.263471,9 C83.440068,9 82.7705188,10.1076607 82.7705188,11.4718741 L82.7705188,22.9685011 L68.5361891,22.9685011 L68.5361891,42.4423853 L66.4962011,42.4423853 L66.4962011,24.11788 L61.2651704,24.11788 L61.2651704,11.3714099 L45.1874438,11.3714099 L45.1874438,22.54167 L43.1958912,22.54167 L43.1958912,49.6392 L32.8819854,49.6392 L32.8819854,30.597539 L25.1009697,30.597539 L25.1009697,24.9826103 L20.3941817,24.9826103 L20.3941817,18.879834 L12.6131661,18.879834 L12.6131661,40.1180857 L0,40.1180857 L0,117.993473 L114,118 L114,24.6928533 L104.221733,24.6928533" id="Fill-2" fill="#D1D1D1" opacity="0.698846726"></path>
                            <path d="M226.449765,16.9885934 L226.449765,3.3890548 C226.449765,1.61756627 225.585949,0.179115125 224.519244,0.179115125 L215.825752,0 L204.91585,0 C204.027442,0 203.305033,1.19911893 203.305033,2.67597383 L203.305033,15.1218636 L187.946941,15.1218636 L187.946941,36.2036831 L185.745901,36.2036831 L185.745901,16.3661453 L180.101894,16.3661453 L180.101894,2.56721439 L162.754874,2.56721439 L162.754874,14.6597896 L160.606093,14.6597896 L160.606093,43.9947302 L149.477932,43.9947302 L149.477932,23.3808221 L141.082625,23.3808221 L141.082625,17.3022753 L136.004249,17.3022753 L136.004249,10.6956001 L127.608942,10.6956001 L127.608942,33.6874689 L114,33.6874689 L114,117.992934 L237,118 L237,16.9885934 L226.449765,16.9885934" id="Fill-2-Copy" fill="#B3D0E5"></path>
                        </g>
                        <g id="Group-7-Copy-2" transform="translate(339.000000, 0.000000)">
                            <path d="M104.221733,24.6928533 L104.221733,12.1305676 C104.221733,10.4941926 103.421124,9.1654538 102.43247,9.1654538 L94.3750875,9 L84.263471,9 C83.440068,9 82.7705188,10.1076607 82.7705188,11.4718741 L82.7705188,22.9685011 L68.5361891,22.9685011 L68.5361891,42.4423853 L66.4962011,42.4423853 L66.4962011,24.11788 L61.2651704,24.11788 L61.2651704,11.3714099 L45.1874438,11.3714099 L45.1874438,22.54167 L43.1958912,22.54167 L43.1958912,49.6392 L32.8819854,49.6392 L32.8819854,30.597539 L25.1009697,30.597539 L25.1009697,24.9826103 L20.3941817,24.9826103 L20.3941817,18.879834 L12.6131661,18.879834 L12.6131661,40.1180857 L0,40.1180857 L0,117.993473 L114,118 L114,24.6928533 L104.221733,24.6928533" id="Fill-2" fill="#B3D0E5" opacity="0.698846726"></path>
                            <path d="M226.449765,16.9885934 L226.449765,3.3890548 C226.449765,1.61756627 225.585949,0.179115125 224.519244,0.179115125 L215.825752,0 L204.91585,0 C204.027442,0 203.305033,1.19911893 203.305033,2.67597383 L203.305033,15.1218636 L187.946941,15.1218636 L187.946941,36.2036831 L185.745901,36.2036831 L185.745901,16.3661453 L180.101894,16.3661453 L180.101894,2.56721439 L162.754874,2.56721439 L162.754874,14.6597896 L160.606093,14.6597896 L160.606093,43.9947302 L149.477932,43.9947302 L149.477932,23.3808221 L141.082625,23.3808221 L141.082625,17.3022753 L136.004249,17.3022753 L136.004249,10.6956001 L127.608942,10.6956001 L127.608942,33.6874689 L114,33.6874689 L114,117.992934 L237,118 L237,16.9885934 L226.449765,16.9885934" id="Fill-2-Copy" fill="#B3D0E5"></path>
                        </g>
                        <g id="Group-7-Copy-3" transform="translate(574.000000, 0.000000)">
                            <path d="M95.9937019,31.5410842 L95.9937019,19.9008011 C95.9937019,18.3845271 95.2562981,17.1533104 94.3456963,17.1533104 L86.9244227,17 L77.6110917,17 C76.8526942,17 76.2360042,18.0263645 76.2360042,19.2904522 L76.2360042,29.94329 L63.1254374,29.94329 L63.1254374,47.9878983 L61.246501,47.9878983 L61.246501,31.0083108 L56.4284465,31.0083108 L56.4284465,19.1973615 L41.620014,19.1973615 L41.620014,29.547786 L39.7856893,29.547786 L39.7856893,54.6565064 L30.2860392,54.6565064 L30.2860392,37.0123986 L23.1193142,37.0123986 L23.1193142,31.8095746 L18.7841148,31.8095746 L18.7841148,26.1547086 L11.6173898,26.1547086 L11.6173898,45.8341895 L0,45.8341895 L0,117.993952 L105,118 L105,31.5410842 L95.9937019,31.5410842" id="Fill-2" fill="#D1D1D1" opacity="0.698846726"></path>
                            <path d="M209.449765,16.9885934 L209.449765,3.3890548 C209.449765,1.61756627 208.585949,0.179115125 207.519244,0.179115125 L198.825752,0 L187.91585,0 C187.027442,0 186.305033,1.19911893 186.305033,2.67597383 L186.305033,15.1218636 L170.946941,15.1218636 L170.946941,36.2036831 L168.745901,36.2036831 L168.745901,16.3661453 L163.101894,16.3661453 L163.101894,2.56721439 L145.754874,2.56721439 L145.754874,14.6597896 L143.606093,14.6597896 L143.606093,43.9947302 L132.477932,43.9947302 L132.477932,23.3808221 L124.082625,23.3808221 L124.082625,17.3022753 L119.004249,17.3022753 L119.004249,10.6956001 L110.608942,10.6956001 L110.608942,33.6874689 L97,33.6874689 L97,117.992934 L220,118 L220,16.9885934 L209.449765,16.9885934" id="Fill-2-Copy" fill="#989898"></path>
                        </g>
                        <g id="Group-5-Copy" transform="translate(0.000000, 62.000000)">
                            <path d="M243.152711,1.04578987 C243.149333,1.04638582 243.147644,1.04757772 243.144267,1.04757772 C324.803733,12.0470677 398.613244,32.5165364 456,65.9822329 L456,128 L0,128 L0,8.62332226 C82.7200889,1.23083303 163.055636,-1.77544791 243.152711,1.04578987" id="Fill-60" fill="#B3D0E5"></path>
                            <path d="M508.646311,1.04757772 C636.149689,12.0470677 751.396119,32.5165364 841,65.9822329 L841,128 L129,128 L82,5.5 C212.377984,12.7713856 383.595641,-1.77544791 508.659496,1.04578987 C508.654222,1.04638582 508.651585,1.04757772 508.646311,1.04757772 Z" id="Fill-60-Copy" fill="#8BA6C5" transform="translate(461.500000, 64.338762) scale(-1, 1) translate(-461.500000, -64.338762) "></path>
                        </g>
                    </g>
                </g>
            </g>
        </g>
    </g>
</svg>