<?xml version="1.0" encoding="UTF-8"?>
<svg width="80px" height="80px" viewBox="0 0 80 80" version="1.1" xmlns="http://www.w3.org/2000/svg" xmlns:xlink="http://www.w3.org/1999/xlink">
    <title>CITY ROADS &amp; HIGHWAYS Copy</title>
    <defs>
        <rect id="path-1" x="0" y="0" width="80" height="80"></rect>
        <rect id="path-3" x="0" y="0" width="152" height="56"></rect>
        <rect id="path-5" x="0" y="0" width="152" height="56"></rect>
    </defs>
    <g id="Desktop" stroke="none" stroke-width="1" fill="none" fill-rule="evenodd">
        <g id="CITY-ROADS-&amp;-HIGHWAYS-Copy">
            <mask id="mask-2" fill="white">
                <use xlink:href="#path-1"></use>
            </mask>
            <g id="Mask"></g>
            <g id="Group-53" mask="url(#mask-2)">
                <g transform="translate(-97.000000, 27.000000)" id="Group-2-Copy">
                    <g>
                        <mask id="mask-4" fill="white">
                            <use xlink:href="#path-3"></use>
                        </mask>
                        <g id="Mask"></g>
                        <g id="Group-2" mask="url(#mask-4)">
                            <g transform="translate(-24.702782, 18.000000)">
                                <g id="Group-7-Copy-2" transform="translate(75.443631, 0.000000)">
                                    <path d="M50.3958482,3.77524299 L50.3958482,0.753123289 C50.3958482,0.359459171 50.203608,0.0398033612 49.9662154,0.0398033612 L48.0314998,0 L45.6035274,0 C45.4058143,0 45.2450441,0.266470873 45.2450441,0.594660851 L45.2450441,3.36041413 L41.8271377,3.36041413 L41.8271377,8.04526291 L41.3373016,8.04526291 L41.3373016,3.63692118 L40.0812415,3.63692118 L40.0812415,0.570492086 L36.2207039,0.570492086 L36.2207039,3.25773102 L35.742498,3.25773102 L35.742498,9.77660672 L33.2659526,9.77660672 L33.2659526,5.19573824 L31.3975974,5.19573824 L31.3975974,3.84495007 L30.267417,3.84495007 L30.267417,2.37680002 L28.3990618,2.37680002 L28.3990618,7.4861042 L25.3704246,7.4861042 L25.3704246,26.2206519 L52.7437775,26.2222222 L52.7437775,3.77524299 L50.3958482,3.77524299" id="Fill-2-Copy" fill="#BDD0E4"></path>
                                </g>
                                <g id="Group-7-Copy-3" transform="translate(127.742313, 0.000000)">
                                    <path d="M21.3631665,7.00912982 L21.3631665,4.42240025 C21.3631665,4.08545046 21.199059,3.81184676 20.9964068,3.81184676 L19.3448203,3.77777778 L17.272161,3.77777778 C17.1033814,3.77777778 16.9661386,4.00585878 16.9661386,4.28676715 L16.9661386,6.65406445 L14.0484136,6.65406445 L14.0484136,10.6639774 L13.6302608,10.6639774 L13.6302608,6.89073574 L12.5580144,6.89073574 L12.5580144,4.26608033 L9.26243357,4.26608033 L9.26243357,6.56617466 L8.85420904,6.56617466 L8.85420904,12.1458903 L6.74008486,12.1458903 L6.74008486,8.22497746 L5.14514752,8.22497746 L5.14514752,7.06879437 L4.18035936,7.06879437 L4.18035936,5.81215746 L2.58542203,5.81215746 L2.58542203,10.1853754 L0,10.1853754 L0,26.2208782 L23.3674963,26.2222222 L23.3674963,7.00912982 L21.3631665,7.00912982" id="Fill-2" fill="#BFD4EB" opacity="0.698846726"></path>
                                    <path d="M46.6125392,3.77524299 L46.6125392,0.753123289 C46.6125392,0.359459171 46.4202991,0.0398033612 46.1829065,0.0398033612 L44.2481908,0 L41.8202185,0 C41.6225053,0 41.4617351,0.266470873 41.4617351,0.594660851 L41.4617351,3.36041413 L38.0438287,3.36041413 L38.0438287,8.04526291 L37.5539927,8.04526291 L37.5539927,3.63692118 L36.2979326,3.63692118 L36.2979326,0.570492086 L32.437395,0.570492086 L32.437395,3.25773102 L31.9591891,3.25773102 L31.9591891,9.77660672 L29.4826436,9.77660672 L29.4826436,5.19573824 L27.6142885,5.19573824 L27.6142885,3.84495007 L26.4841081,3.84495007 L26.4841081,2.37680002 L24.6157529,2.37680002 L24.6157529,7.4861042 L21.5871157,7.4861042 L21.5871157,26.2206519 L48.9604685,26.2222222 L48.9604685,3.77524299 L46.6125392,3.77524299" id="Fill-2-Copy" fill="#D9E6F4"></path>
                                </g>
                                <g id="Group-5-Copy" transform="translate(0.000000, 13.777778)">
                                    <path d="M102.741206,0.232397748 C102.740032,0.232530182 102.739445,0.232795049 102.738271,0.232795049 C131.11384,2.67712616 156.761654,7.22589697 176.702782,14.6627184 L176.702782,28.4444444 L18.2489019,28.4444444 L18.2489019,1.91629384 C46.9930226,0.273518451 74.9085469,-0.394543981 102.741206,0.232397748" id="Fill-60-Copy" fill="#83A4CA" transform="translate(97.475842, 14.222222) scale(-1, 1) translate(-97.475842, -14.222222) "></path>
                                </g>
                            </g>
                        </g>
                    </g>
                    <g transform="translate(222.000000, 28.000000) scale(-1, 1) translate(-222.000000, -28.000000) translate(146.000000, 0.000000)">
                        <mask id="mask-6" fill="white">
                            <use xlink:href="#path-5"></use>
                        </mask>
                        <g id="Mask"></g>
                        <g id="Group-2" mask="url(#mask-6)">
                            <g transform="translate(-24.702782, 18.000000)">
                                <g id="Group-7-Copy-3" transform="translate(127.742313, 0.000000)">
                                    <path d="M21.3631665,7.00912982 L21.3631665,4.42240025 C21.3631665,4.08545046 21.199059,3.81184676 20.9964068,3.81184676 L19.3448203,3.77777778 L17.272161,3.77777778 C17.1033814,3.77777778 16.9661386,4.00585878 16.9661386,4.28676715 L16.9661386,6.65406445 L14.0484136,6.65406445 L14.0484136,10.6639774 L13.6302608,10.6639774 L13.6302608,6.89073574 L12.5580144,6.89073574 L12.5580144,4.26608033 L9.26243357,4.26608033 L9.26243357,6.56617466 L8.85420904,6.56617466 L8.85420904,12.1458903 L6.74008486,12.1458903 L6.74008486,8.22497746 L5.14514752,8.22497746 L5.14514752,7.06879437 L4.18035936,7.06879437 L4.18035936,5.81215746 L2.58542203,5.81215746 L2.58542203,10.1853754 L0,10.1853754 L0,26.2208782 L23.3674963,26.2222222 L23.3674963,7.00912982 L21.3631665,7.00912982" id="Fill-2" fill="#D9E6F4" opacity="0.698846726"></path>
                                    <path d="M46.6125392,3.77524299 L46.6125392,0.753123289 C46.6125392,0.359459171 46.4202991,0.0398033612 46.1829065,0.0398033612 L44.2481908,0 L41.8202185,0 C41.6225053,0 41.4617351,0.266470873 41.4617351,0.594660851 L41.4617351,3.36041413 L38.0438287,3.36041413 L38.0438287,8.04526291 L37.5539927,8.04526291 L37.5539927,3.63692118 L36.2979326,3.63692118 L36.2979326,0.570492086 L32.437395,0.570492086 L32.437395,3.25773102 L31.9591891,3.25773102 L31.9591891,9.77660672 L29.4826436,9.77660672 L29.4826436,5.19573824 L27.6142885,5.19573824 L27.6142885,3.84495007 L26.4841081,3.84495007 L26.4841081,2.37680002 L24.6157529,2.37680002 L24.6157529,7.4861042 L21.5871157,7.4861042 L21.5871157,26.2206519 L48.9604685,26.2222222 L48.9604685,3.77524299 L46.6125392,3.77524299" id="Fill-2-Copy" fill="#BFD4EB"></path>
                                </g>
                                <g id="Group-5-Copy" transform="translate(0.000000, 13.777778)">
                                    <path d="M113.198008,0.232795049 C141.573576,2.67712616 167.221391,7.22589697 187.162518,14.6627184 L187.162518,28.4444444 L28.7086384,28.4444444 L18.2489019,1.22222222 C47.2642072,2.8380857 85.3682833,-0.394543981 113.200942,0.232397748 C113.199768,0.232530182 113.199181,0.232795049 113.198008,0.232795049 Z" id="Fill-60-Copy" fill="#83A4CA" transform="translate(102.705710, 14.297503) scale(-1, 1) translate(-102.705710, -14.297503) "></path>
                                </g>
                            </g>
                        </g>
                    </g>
                </g>
            </g>
        </g>
    </g>
</svg>