<svg xmlns="http://www.w3.org/2000/svg" xmlns:xlink="http://www.w3.org/1999/xlink" width="80" height="80" viewBox="0 0 80 80">
    <defs>
        <path id="tvkzpxj6uc" d="M0.013 0.004L13.738 0.004 13.738 10.716 0.013 10.716z"/>
        <path id="s715d3f0le" d="M0.03 0.015L19.909 0.015 19.909 16.174 0.03 16.174z"/>
        <path id="mwa0dmtmcg" d="M0 83.395L96.733 83.395 96.733 0.124 0 0.124z"/>
        <circle id="wudalsjdsa" cx="40" cy="40" r="40"/>
    </defs>
    <g fill="none" fill-rule="evenodd">
        <g>
            <g transform="translate(-60 -248) translate(60 248)">
                <mask id="oxmrr69aeb" fill="#fff">
                    <use xlink:href="#wudalsjdsa"/>
                </mask>
                <use fill="#F6F6F6" xlink:href="#wudalsjdsa"/>
                <g mask="url(#oxmrr69aeb)">
                    <g transform="translate(-17.228 2)">
                        <circle cx="28.728" cy="9.5" r="1" fill="#D8D8D8"/>
                        <g>
                            <g transform="translate(61.228 49) translate(17.588 14.342)">
                                <mask id="as5it2b6yd" fill="#fff">
                                    <use xlink:href="#tvkzpxj6uc"/>
                                </mask>
                                <path fill="#C1DEE2" d="M.44 4.553S-.805 1.009 1.9.118c0 0 1.872-.36 3.086.2 0 0-2.872 2.365-2.413 2.89C3.032 3.733 5.59.334 5.59.334s3.594 1.002 4.508 1.99c0 0-3.878 1.353-3.308 1.745.57.392 4.669-.823 4.669-.823s3.02 1.823 2.107 3.79c-.913 1.967-2.254 2.163-2.723 1.918-.47-.244-2.918-2.483-3.131-2.094-.213.39 1.015 2.411 2.198 2.943 0 0-3.22 1.707-4.46.371-1.24-1.336-.937-2.572-1.718-3.384-.78-.811-1.586-1.123-1.362-.518.224.605 1.77 1.71 1.95 2.904.18 1.195.421 2.047-1.055 1.196C1.79 9.52-.323 7.348.06 5.95L.44 4.553z" mask="url(#as5it2b6yd)"/>
                            </g>
                            <path fill="#C1DEE2" d="M29.543 20.873s-8.617-3.737-11.49-1.91c0 0-.908 1.151-2.66 1.84l-.415.496s2.116-1.057 2.695-.947c0 0 .318-3.52 11.87.521" transform="translate(61.228 49)"/>
                            <path fill="#C1DEE2" d="M15.376 20.649s-2.37.727-3.421 3.321l.325.17s1.546-2.496 2.99-3.131c1.442-.635.106-.36.106-.36M11.536 16.968s3.145-1.827 1.677-4.306c0 0-1.174-1.523-2.432-1.914 0 0 .671 3.697 0 3.784-.67.087-.461-4.176-.461-4.176S7.007 8.703 5.707 8.834c0 0 2.055 3.61 1.384 3.523-.67-.087-2.977-3.74-2.977-3.74S.717 7.963.172 10.051c-.545 2.088.335 3.132.839 3.262.503.13 3.732.087 3.648.522-.084.435-2.265 1.131-3.48.74 0 0 1.341 3.436 3.102 3.262 1.762-.174 2.307-1.305 3.397-1.392 1.09-.087 1.887.218 1.342.522-.545.305-2.39.1-3.27.876-.881.777-1.594 1.255.041 1.604 1.636.348 4.57.13 5.158-1.175l.587-1.305z" transform="translate(61.228 49)"/>
                            <path fill="#C1DEE2" d="M1.649 10.792s8.861 2.955 9.874 6.257c0 0-.042 1.478.844 3.173v.651s-.928-2.216-1.435-2.52c0 0 1.983-2.868-9.283-7.561" transform="translate(61.228 49)"/>
                            <path fill="#C8DBF4" d="M12.51 20.283s1.352 2.123.581 4.708l-.347-.096s.337-2.848-.37-4.28c-.706-1.432.137-.332.137-.332" transform="translate(61.228 49)"/>
                            <g transform="translate(61.228 49) translate(12.23)">
                                <mask id="vi2gs0t12f" fill="#fff">
                                    <use xlink:href="#s715d3f0le"/>
                                </mask>
                                <path fill="#C1DEE2" d="M3.051 12.34S-1.545 9.676.601 6.059c0 0 1.715-2.22 3.553-2.792 0 0-.98 5.394 0 5.521.98.127.674-6.092.674-6.092S9.67.283 11.568.474c0 0-3.002 5.267-2.021 5.14.98-.127 4.35-5.458 4.35-5.458s4.964-.952 5.76 2.094c.797 3.047-.49 4.57-1.225 4.76-.736.19-5.454.127-5.331.762.122.634 3.309 1.65 5.086 1.079 0 0-1.961 5.013-4.535 4.76-2.573-.255-3.37-1.905-4.963-2.032s-2.758.318-1.961.762c.796.444 3.493.145 4.78 1.278 1.286 1.133 2.328 1.832-.062 2.34-2.39.507-6.679.19-7.537-1.714l-.858-1.904z" mask="url(#vi2gs0t12f)"/>
                            </g>
                            <path fill="#C1DEE2" d="M29.543 3.124S16.706 7.452 15.238 12.29c0 0 .062 2.164-1.222 4.647v.955s1.345-3.247 2.078-3.692c0 0-2.873-4.202 13.45-11.076" transform="translate(61.228 49)"/>
                            <path fill="#C1DEE2" d="M13.96 16.923s-1.95 3.127-.838 6.932l.502-.142s-.487-4.192.534-6.3c1.02-2.108-.197-.49-.197-.49" transform="translate(61.228 49)"/>
                        </g>
                        <path fill="#F2F2F2" d="M1.228 73.912L97.228 74.139 97.228 74.088 1.228 73.861z"/>
                        <g transform="translate(.228)">
                            <path fill="#F2F2F2" d="M8.537 11.178c-.576 0-1.043.472-1.045 1.056l-.114 52.578c-.001.583.464 1.058 1.04 1.06l36.937.082c.576 0 1.044-.472 1.047-1.055l.114-52.578c0-.584-.466-1.058-1.043-1.06l-36.936-.083zm36.818 54.824L8.418 65.92c-.602-.002-1.089-.498-1.088-1.108l.114-52.578c.007-.607.494-1.094 1.093-1.094l36.937.082c.603.001 1.09.497 1.09 1.108L46.448 64.9c0 .61-.49 1.105-1.094 1.103zM81.082 77.838L86.055 77.849 86.055 77.898 81.082 77.887zM69.266 76.014L80.894 76.04 80.894 76.088 69.265 76.063zM15.415 76.22L25.991 76.243 25.991 76.292 15.414 76.268zM32.451 77.075L46.696 77.107 46.696 77.155 32.451 77.124z"/>
                            <path fill="#FAFAFA" d="M15.034 54.336L19.089 54.345 19.045 74.583 14.99 74.575z"/>
                            <path fill="#FAFAFA" d="M17.764 37.931L21.82 37.94 21.74 74.589 17.685 74.58z"/>
                            <path fill="#FAFAFA" d="M20.962 40.791L31.845 40.815 31.772 74.612 20.889 74.588zM78.716 74.716L74.083 74.706 74.104 64.978 78.737 64.988z"/>
                            <path fill="#FAFAFA" d="M74.657 74.707L70.024 74.697 70.04 67.103 74.674 67.114z"/>
                            <path fill="#FAFAFA" d="M71.696 74.7L67.063 74.69 67.093 60.838 71.726 60.848z"/>
                            <path fill="#FAFAFA" d="M68.616 74.694L63.983 74.683 64.037 49.6 68.67 49.61z"/>
                            <path fill="#F0F0F0" d="M52.321 44.015L66.54 44.046 66.474 74.689 52.255 74.657z"/>
                            <path fill="#F5F5F5" d="M64.506 45.326L65.183 45.327 65.175 49.056 64.498 49.055zM64.493 51.158L65.17 51.16 65.162 54.889 64.485 54.887zM64.481 56.989L65.158 56.991 65.15 60.719 64.472 60.718zM64.468 62.82L65.145 62.821 65.137 66.55 64.46 66.549zM64.455 68.652L65.132 68.654 65.124 72.383 64.447 72.381zM62.107 45.321L62.784 45.322 62.776 49.051 62.099 49.05zM62.094 51.153L62.771 51.155 62.763 54.884 62.086 54.882zM62.082 56.984L62.759 56.985 62.751 60.714 62.074 60.713zM62.069 62.814L62.746 62.816 62.738 66.545 62.061 66.543zM62.056 68.647L62.734 68.649 62.726 72.377 62.048 72.376zM59.708 45.315L60.385 45.317 60.377 49.046 59.7 49.044zM59.696 51.148L60.373 51.149 60.365 54.878 59.687 54.877zM59.683 56.978L60.36 56.98 60.352 60.709 59.675 60.707zM59.67 62.809L60.347 62.811 60.339 66.539 59.662 66.538zM59.658 68.642L60.335 68.643 60.327 72.372 59.65 72.371zM57.309 45.31L57.987 45.311 57.979 49.04 57.301 49.039zM57.297 51.142L57.974 51.144 57.966 54.873 57.289 54.871zM57.284 56.973L57.961 56.975 57.953 60.703 57.276 60.702zM57.272 62.804L57.949 62.805 57.941 66.534 57.263 66.533zM57.259 68.636L57.936 68.638 57.928 72.367 57.251 72.365zM54.909 45.305L55.586 45.306 55.578 49.035 54.901 49.034zM54.896 51.137L55.573 51.139 55.565 54.868 54.888 54.866zM54.883 56.968L55.561 56.969 55.553 60.698 54.875 60.697zM54.871 62.798L55.548 62.8 55.54 66.529 54.863 66.527zM54.858 68.631L55.535 68.632 55.527 72.361 54.85 72.36z"/>
                            <path fill="#E0E0E0" d="M52.321 44.015L55.25 44.021 56.458 74.667 52.255 74.657z"/>
                            <path fill="#F0F0F0" d="M45.357 32.16L53.786 33.794 53.697 74.661 45.265 74.642z"/>
                            <path fill="#E6E6E6" d="M38.611 32.145L45.357 32.16 45.265 74.642 38.518 74.627z"/>
                            <path fill="#E0E0E0" d="M53.781 35.917L38.602 35.883 38.603 35.666 53.782 35.7zM53.776 38.23L38.597 38.196 38.598 37.979 53.777 38.013zM53.771 40.543L38.592 40.509 38.593 40.292 53.772 40.326zM53.766 42.854L38.587 42.82 38.588 42.603 53.767 42.637zM53.761 45.168L38.582 45.135 38.583 44.918 53.762 44.951zM53.756 47.481L38.577 47.448 38.578 47.231 53.757 47.264zM53.751 49.794L38.572 49.76 38.573 49.543 53.752 49.577zM53.746 52.107L38.567 52.073 38.568 51.856 53.747 51.89zM53.741 54.422L38.562 54.388 38.563 54.171 53.742 54.205zM53.736 56.735L38.557 56.701 38.558 56.484 53.737 56.518zM53.731 59.048L38.552 59.014 38.553 58.797 53.732 58.831zM53.726 61.358L38.547 61.325 38.548 61.108 53.727 61.141zM53.721 63.673L38.542 63.64 38.543 63.423 53.722 63.456zM53.716 65.986L38.537 65.953 38.538 65.735 53.717 65.769zM53.711 68.299L38.532 68.265 38.533 68.048 53.712 68.082zM53.706 70.612L38.527 70.578 38.528 70.361 53.707 70.395zM53.701 72.927L38.522 72.893 38.523 72.676 53.702 72.71z"/>
                            <path fill="#F0F0F0" d="M27.887 23.092L34.94 23.108 34.829 74.618 27.776 74.603z"/>
                            <path fill="#FAFAFA" d="M34.94 23.108L27.887 23.092 30.493 18.549 40.593 18.572z"/>
                            <path fill="#F2F2F2" d="M34.94 23.108L40.593 18.572 40.471 74.631 34.828 74.618z"/>
                            <path fill="#E0E0E0" d="M27.882 25.492L40.578 25.52 40.577 25.795 27.881 25.767zM27.876 28.407L40.572 28.435 40.571 28.711 27.875 28.682zM27.869 31.323L40.565 31.351 40.565 31.626 27.869 31.598zM27.863 34.24L40.559 34.268 40.558 34.543 27.862 34.515zM27.857 37.155L40.553 37.183 40.552 37.458 27.856 37.43zM27.85 40.07L40.546 40.099 40.546 40.374 27.85 40.346zM27.844 42.986L40.54 43.014 40.539 43.289 27.844 43.261zM27.838 45.901L40.534 45.929 40.533 46.204 27.837 46.176zM27.831 48.816L40.527 48.845 40.527 49.12 27.831 49.092zM27.825 51.734L40.521 51.762 40.52 52.037 27.825 52.009zM27.819 54.649L40.515 54.677 40.514 54.952 27.818 54.924zM27.812 57.564L40.508 57.592 40.508 57.868 27.812 57.839zM27.806 60.48L40.502 60.508 40.502 60.783 27.806 60.755zM27.8 63.395L40.496 63.423 40.495 63.698 27.799 63.67zM27.793 66.31L40.49 66.338 40.489 66.613 27.793 66.585zM27.787 69.227L40.483 69.256 40.483 69.531 27.787 69.503zM27.781 72.143L40.477 72.171 40.476 72.446 27.78 72.418z"/>
                            <path fill="#F0F0F0" d="M18.909 47.998L26.609 48.016 26.551 74.6 18.852 74.583z"/>
                            <path fill="#E6E6E6" d="M20.421 49.375L21.657 49.378 21.648 53.645 20.412 53.643zM23.453 49.382L24.689 49.385 24.68 53.652 23.444 53.649zM20.409 54.902L21.645 54.904 21.636 59.172 20.4 59.169zM23.441 54.908L24.677 54.911 24.668 59.179 23.432 59.176zM20.398 60.426L21.633 60.429 21.624 64.697 20.388 64.694zM23.429 60.433L24.665 60.436 24.656 64.703 23.42 64.7zM20.386 65.953L21.621 65.956 21.612 70.223 20.376 70.22zM23.418 65.96L24.653 65.962 24.644 70.23 23.408 70.227z"/>
                            <path fill="#FFF" d="M26.607 48.016L18.909 47.999 20.719 46.16 28.419 46.177z"/>
                            <path fill="#E6E6E6" d="M26.607 48.016L28.419 46.177 30.22 48.024 30.163 74.608 26.549 74.6z"/>
                            <path fill="#5C63AB" d="M75.625 75.207H42.35V64.704h29.33l2.738 2.253c.766.63 1.21 1.577 1.207 2.577v5.673z"/>
                            <path fill="#2B2C33" d="M75.625 75.207H42.35V64.704h29.33l2.738 2.253c.766.63 1.21 1.577 1.207 2.577v5.673z"/>
                            <path fill="#263238" d="M42.158 74.26c0-3.833 1.722-6.94 3.826-6.94h-4.06c-2.117 0-3.825 3.099-3.825 6.94s1.722 6.943 3.826 6.943h4.067c-2.122 0-3.834-3.11-3.834-6.943"/>
                            <path fill="#263238" d="M45.992 67.32c2.117 0 3.833 3.107 3.833 6.94s-1.716 6.94-3.833 6.94-3.834-3.107-3.834-6.94 1.717-6.94 3.834-6.94"/>
                            <path fill="#FFF" d="M46.3 68.848c1.501 0 2.718 2.423 2.718 5.412s-1.217 5.412-2.718 5.412-2.718-2.423-2.718-5.412c0-2.99 1.217-5.412 2.718-5.412"/>
                            <path fill="#263238" d="M20.062 74.26c0-3.833 1.722-6.94 3.826-6.94h-4.06c-2.117 0-3.825 3.099-3.825 6.94s1.722 6.943 3.826 6.943h4.067c-2.118 0-3.834-3.11-3.834-6.943"/>
                            <path fill="#263238" d="M23.896 67.32c2.117 0 3.833 3.107 3.833 6.94s-1.716 6.94-3.833 6.94-3.834-3.107-3.834-6.94 1.717-6.94 3.834-6.94M68.428 74.26c0-3.833 1.722-6.94 3.826-6.94h-4.059c-2.116 0-3.826 3.099-3.826 6.94s1.722 6.943 3.826 6.943h4.067c-2.116 0-3.834-3.11-3.834-6.943"/>
                            <path fill="#263238" d="M72.262 67.32c2.117 0 3.833 3.107 3.833 6.94s-1.716 6.94-3.833 6.94-3.834-3.107-3.834-6.94 1.717-6.94 3.834-6.94"/>
                            <path fill="#FFF" d="M72.572 68.848c1.501 0 2.718 2.423 2.718 5.412s-1.217 5.412-2.718 5.412c-1.502 0-2.718-2.423-2.718-5.412 0-2.99 1.216-5.412 2.718-5.412"/>
                            <path fill="#5C63AB" d="M37.629 76.197H32.71l-.276-.271c-.283-.287-.667-.449-1.067-.45H19.075c-.4.001-.784.163-1.067.45l-.168.168h-.448c-1.458 0-2.64-1.196-2.64-2.673v-4.11h27.894l-2.219 4.885c-.42 1.2-1.541 2.003-2.798 2.001"/>
                            <path fill="#2F3676" d="M37.629 76.197H32.71l-.276-.271c-.283-.287-.667-.449-1.067-.45H19.075c-.4.001-.784.163-1.067.45l-.168.168h-.448c-1.458 0-2.64-1.196-2.64-2.673v-4.11h27.894l-2.219 4.885c-.42 1.2-1.541 2.003-2.798 2.001"/>
                            <path fill="#5C63AB" d="M73.727 63.408v-2.642c0-1.389-1.993-7.942-4.734-9.17-2.742-1.228-9.374-1.774-13.551-1.55-4.178.225-9.756 9.074-9.756 9.074l.606 7.609c.85 0 3.554-.26 3.95 7.268.055 1.102.955 1.966 2.045 1.964h14.626c1.016 0 1.876-.76 2.017-1.778.382-2.683 1.38-7.46 3.79-7.46 1.688 0 2.899 1.464 2.899 3.144 0-1.845-.442-3.663-1.29-5.296l-.602-1.163z"/>
                            <path fill="#5C63AB" d="M40.138 50.046c-7.607 0-16.227 9.074-16.227 9.074h21.782s5.573-8.847 9.756-9.074H40.14z"/>
                            <path fill="#FFF" d="M40.605 50.046c-6.408 0-13.13 6.44-15.09 8.468-.137.14-.135.366.003.503.066.066.156.103.249.103h17.572c1.434.004 2.784-.686 3.634-1.856 1.89-2.607 5.53-7.057 8.476-7.218H40.605z"/>
                            <path fill="#5C63AB" d="M45.693 59.12l-8.045 6.429-21.653-.07s-1.243 1.83-1.243 3.832h27.894c.457-1.226 2.06-2.582 3.654-2.582 0-2.282-.607-7.61-.607-7.61"/>
                            <path fill="#000" d="M40.427 63.655c-.047-.001-.087-.036-.093-.084-.007-.052.028-.1.08-.108 1.931-.317 3.738-1.169 5.222-2.46.608-.518.728-1.419.277-2.08-.032-.043-.024-.104.017-.137.042-.032.102-.025.135.018l.005.008c.505.744.37 1.756-.312 2.338-1.51 1.315-3.35 2.182-5.316 2.503l-.015.002z"/>
                            <path fill="#5C63AB" d="M15.995 65.48s3.803-4.49 7.916-6.36h21.782l-8.045 6.429-21.653-.07z"/>
                            <mask id="6af1uj0ryh" fill="#fff">
                                <use xlink:href="#mwa0dmtmcg"/>
                            </mask>
                            <path fill="#263238" d="M18.555 65.9L32.839 65.9 32.839 65.479 18.555 65.479z" mask="url(#6af1uj0ryh)"/>
                            <path fill="#FFF" d="M32.542 64.639l.765-.775c.172-.174.39-.295.628-.347l5.779-1.275c.203-.045.414-.038.614.02l.31.087c.675.192 1.068.903.878 1.587-.051.184-.142.353-.266.497l-1.244 1.44c-.214.247-.514.402-.838.433l-5.61.516c-.375.036-.747-.1-1.014-.368-.494-.502-.495-1.313-.002-1.815M18.959 65.05l-.634-1.2c-.089-.168-.221-.308-.382-.407-.312-.189-.698-.2-1.02-.029l-.48.256c-.236.126-.415.339-.501.595l-.293.877c-.186.552.105 1.152.65 1.34.052.018.105.032.16.041l1.321.23c.442.078.884-.14 1.096-.54l.088-.164c.165-.313.163-.689-.005-1M50.143 59.377h20.139c.604 0 1.095-.495 1.095-1.107 0-.109-.016-.216-.047-.32-.459-1.55-1.339-3.973-2.66-5.209-.148-.136-.328-.23-.523-.271-2.374-.51-6.19-.849-9.021-1.046-2.597-.18-5.142.8-6.965 2.68-1.077 1.103-2.05 2.304-2.906 3.59-.327.498-.194 1.17.297 1.502.175.118.38.181.59.181" mask="url(#6af1uj0ryh)"/>
                            <path fill="#263238" d="M37.122 71.581c0 .635-.643 1.153-1.435 1.153s-1.435-.518-1.435-1.153.641-1.15 1.435-1.15 1.435.515 1.435 1.15M25.562 64.6c.47 0 .7.488.513 1.088-.188.6-.72 1.091-1.192 1.091-.473 0-.7-.488-.513-1.09.188-.603.721-1.09 1.192-1.09" mask="url(#6af1uj0ryh)"/>
                            <path fill="#2B2C33" d="M49.523 59.193v-.652c0-.696.555-1.26 1.242-1.261.086 0 .172.009.256.027l2.452.517c.577.122.99.637.991 1.234v.135c0 .696-.556 1.26-1.243 1.261h-2.453c-.687 0-1.245-.564-1.245-1.26M62.426 51.695s-.327-.033-.898-.083c2.522 5.23 1.879 7.765 1.879 7.765h1.924c.02-3.184-2.905-7.682-2.905-7.682" mask="url(#6af1uj0ryh)"/>
                            <path fill="#F2F2F2" d="M41.162 57.035c-.081.852-.787 1.502-1.632 1.504h-9.915c-.723 0-.985-.818-.46-1.426.945-1.09 1.972-2.106 3.072-3.037 1.867-1.593 4.185-2.42 6.352-2.267l.82.06c.725.057 1.327.591 1.48 1.312.289 1.262.384 2.562.283 3.854" mask="url(#6af1uj0ryh)"/>
                            <path fill="#000" d="M63.637 74.584c-.053 0-.096-.044-.096-.097 0-1.96.987-10.044 1.245-11.255.25-1.176.25-2.489 0-3.343-.015-.052.014-.105.065-.12.05-.014.103.015.119.066.258.883.258 2.233 0 3.438s-1.242 9.261-1.242 11.214c0 .052-.04.094-.091.097" mask="url(#6af1uj0ryh)"/>
                            <path fill="#2B2C33" d="M63.382 63.335H61.05c-.16.005-.293-.122-.298-.283 0-.025.002-.05.008-.075l.047-.274c.04-.202.212-.35.415-.358h2.332c.16-.005.293.121.298.283.001.025-.001.05-.007.075l-.048.274c-.04.202-.211.35-.415.358" mask="url(#6af1uj0ryh)"/>
                            <path fill="#B55B52" d="M62.579 80.821L63.7 80.474 63.003 77.904 61.882 78.252zM59.996 45.33c.262.532.559 1.096.855 1.633.297.536.61 1.07.945 1.572.086.125.167.254.255.372l.216.299c.044.058.069.085.076.099.008.013.012.032.067.036.204-.037.392-.13.546-.27.105-.082.212-.175.317-.274.105-.099.21-.213.302-.304l.764.43c-.064.171-.14.337-.226.498-.086.164-.184.32-.295.469-.117.161-.252.31-.401.441-.178.16-.384.284-.607.366-.28.104-.583.12-.872.049-.271-.068-.522-.2-.73-.388-.047-.04-.091-.081-.133-.126l-.061-.063-.044-.05-.168-.195c-.113-.13-.216-.263-.324-.387-.408-.532-.785-1.088-1.128-1.666-.169-.286-.335-.58-.488-.87-.153-.288-.302-.58-.444-.908l1.578-.763z" mask="url(#6af1uj0ryh)"/>
                            <path fill="#5C63AB" d="M57.927 45.337c-.312 1.074 1.878 3.997 1.878 3.997l2.21-1.44c-.416-.93-.93-1.811-1.53-2.63-.906-1.168-2.218-1.106-2.558.073" mask="url(#6af1uj0ryh)"/>
                            <path fill="#FF9B21" d="M57.927 45.337c-.312 1.074 1.878 3.997 1.878 3.997l2.21-1.44c-.416-.93-.93-1.811-1.53-2.63-.906-1.168-2.218-1.106-2.558.073" mask="url(#6af1uj0ryh)"/>
                            <path fill="#000" d="M59.273 46.597c.454.193 1.123 1.305 1.471 2.13l-.937.61c-.525-.709-.996-1.456-1.41-2.237.297-.333.635-.606.876-.503" mask="url(#6af1uj0ryh)"/>
                            <path fill="#B55B52" d="M63.443 48.702l.8-1.31.698 1.13c-.168.301-.44.528-.765.637l-.733-.457zM65.358 47.406v.405c0 .126-.043.25-.122.347l-.291.364-.698-1.13.721-.265c.152-.054.32.027.374.18.01.032.016.066.016.1" mask="url(#6af1uj0ryh)"/>
                            <path fill="#5C63AB" d="M64.578 49.08L63.319 49.06 64.015 46.42 65.274 46.44z" mask="url(#6af1uj0ryh)"/>
                            <path fill="#263238" d="M64.706 49.08L63.447 49.06 64.144 46.42 65.402 46.44z" mask="url(#6af1uj0ryh)"/>
                            <path fill="#000" d="M61.882 78.252L63.005 77.904 63.363 79.229 62.24 79.577z" mask="url(#6af1uj0ryh)"/>
                            <path fill="#5C63AB" d="M53.052 45.901c.943 4.11.739 8.188.842 9.068l6.158-.465c.59-6.681-.81-10.073-.81-10.073s-.395-.078-.933-.134c-.168-.017-.352-.033-.541-.042-.106 0-.21-.01-.32-.012-.875.014-1.749.078-2.617.194-.164.02-.33.044-.493.071l-.436.082h-.018c-.579.116-.955.686-.84 1.273l.008.038" mask="url(#6af1uj0ryh)"/>
                            <path fill="#FF9B21" d="M53.052 45.901c.943 4.11.739 8.188.842 9.068l6.158-.465c.59-6.681-.81-10.073-.81-10.073s-.395-.078-.933-.134c-.168-.017-.352-.033-.541-.042-.106 0-.21-.01-.32-.012-.875.014-1.749.078-2.617.194-.164.02-.33.044-.493.071l-.436.082h-.018c-.579.116-.955.686-.84 1.273l.008.038" mask="url(#6af1uj0ryh)"/>
                            <path fill="#000" d="M54.095 46.769l-.708.92v.035c.1.624.176 1.234.233 1.823.68-.847.58-2.375.475-2.778" mask="url(#6af1uj0ryh)"/>
                            <path fill="#B55B52" d="M55.128 42.62c.147.627.138 1.325-.306 1.824.492.427 1.128.913 2.13.874 1.003-.039.78-.724.487-1.071-.855-.14-.857-.703-.865-1.323 0-.129-.083-.242-.205-.281l-.94-.306c-.125-.04-.257.029-.296.154-.014.042-.015.086-.005.129" mask="url(#6af1uj0ryh)"/>
                            <path fill="#2026A2" d="M57.525 46.631c-.135.003-.262.066-.346.173-.218.309-.304.693-.238 1.067.079.684.488 1.26.896 1.26.135-.003.263-.066.348-.173.217-.31.302-.694.237-1.067-.075-.684-.484-1.26-.89-1.26h-.007zm.31 2.693c-.517 0-.993-.628-1.087-1.43-.074-.429.029-.87.285-1.22.121-.148.3-.234.49-.236.515 0 .993.627 1.084 1.43.075.428-.027.87-.283 1.22-.121.146-.3.233-.49.236z" mask="url(#6af1uj0ryh)"/>
                            <path fill="#000" d="M56.576 42.959l-.947.124c.021.042.048.083.073.124.18.29.574.482.983.552-.089-.257-.126-.529-.109-.8" mask="url(#6af1uj0ryh)"/>
                            <path fill="#263238" d="M57.804 40.477c.526.09 1.51-.515 1.28-1.32-.295.373-1.28.247-1.28.247v1.073zM55.75 41.33c.057.538-.6 1.497-1.38 1.216.383-.275.322-1.28.322-1.28l1.058.064z" mask="url(#6af1uj0ryh)"/>
                            <path fill="#B55B52" d="M54.979 40.284c-.142 1.15-.283 1.818.178 2.518.69 1.04 2.175.775 2.653-.304.43-.969.589-2.695-.429-3.357-.724-.476-1.692-.267-2.161.466-.13.204-.213.435-.241.677" mask="url(#6af1uj0ryh)"/>
                            <path fill="#263238" d="M54.822 41.446c.277.296 1.04-.915.9-1.356.288.128.839-.116.804-.597.86.465 2.105.833 2.124 0 .019-.833-.766-1.462-1.53-1.528.091.25-.152.356-.651.25-.5-.107-2.424-1.004-2.211.788-.72.043-.814.965.564 2.443" mask="url(#6af1uj0ryh)"/>
                            <path fill="#B55B52" d="M54.26 40.998c.04.29.19.55.42.727.306.23.498-.014.526-.378.027-.33 0-.845-.365-.932-.263-.058-.523.111-.58.378-.015.067-.016.137-.002.205" mask="url(#6af1uj0ryh)"/>
                            <path fill="#69A1AC" d="M55.994 54.812l4.048-.304s.524 8.412.484 11.979c-.04 3.711-1.721 12.81-1.721 12.81l-1.955.03s.155-8.825.155-12.469c0-4.906-1.016-12.046-1.016-12.046" mask="url(#6af1uj0ryh)"/>
                            <path fill="#000" d="M57.56 63.558c.053.242 1.558 7.062 2.044 11.041.258-1.654.524-3.512.704-5.153l-2.749-5.888z" mask="url(#6af1uj0ryh)"/>
                            <path fill="#69A1AC" d="M57.858 54.674s3.081 7.644 3.776 10.997c.765 3.67 1.98 12.955 1.98 12.955l-2.091.33s-1.582-6.941-2.468-10.486c-1.006-4.04-4.996-10.439-5.165-13.498l3.968-.298z" mask="url(#6af1uj0ryh)"/>
                            <path fill="#5C63AB" d="M63.876 78.806L61.278 79.422 60.951 78.409 63.788 77.917z" mask="url(#6af1uj0ryh)"/>
                            <path fill="#B55B52" d="M54.89 46.265c-.382.688-.764 1.422-1.109 2.145-.347.706-.644 1.436-.89 2.185-.028.09-.05.18-.076.269-.01.04-.027.099-.032.126-.007.022-.012.045-.016.068-.016.121-.013.245.01.366.077.331.203.65.373.943.397.677.86 1.312 1.381 1.897l-.555.674c-.74-.496-1.397-1.107-1.947-1.812-.307-.392-.544-.835-.702-1.31-.091-.282-.132-.58-.12-.877 0-.079.015-.162.024-.242.01-.079.021-.12.033-.182.023-.112.044-.23.069-.34.214-.861.505-1.7.868-2.507.349-.794.745-1.565 1.186-2.31l1.504.907z" mask="url(#6af1uj0ryh)"/>
                            <path fill="#5C63AB" d="M53.69 44.679c-1.066.296-2.105 3.328-2.105 3.328l2.565.72c.45-.638.809-1.337 1.066-2.076.54-1.474-.237-2.329-1.527-1.972" mask="url(#6af1uj0ryh)"/>
                            <path fill="#FF9B21" d="M53.69 44.679c-1.066.296-2.105 3.328-2.105 3.328l2.565.72c.45-.638.809-1.337 1.066-2.076.54-1.474-.237-2.329-1.527-1.972" mask="url(#6af1uj0ryh)"/>
                            <path fill="#B55B52" d="M54.04 54.064l1.17.312-.465 1.114s-1.05-.225-1.044-.804l.338-.622zM55.66 55.131L55.313 56.013 54.745 55.49 55.21 54.376z" mask="url(#6af1uj0ryh)"/>
                            <path stroke="#798593" stroke-dasharray="2" stroke-linecap="round" stroke-linejoin="round" stroke-width=".75" d="M65.402 46.44S38.295 13.855 7.374 15.615M66.538 44.005s.16-42.794 30.189-40.553" mask="url(#6af1uj0ryh)" opacity=".296"/>
                            <path stroke="#798593" stroke-dasharray="2" stroke-linecap="round" stroke-linejoin="round" stroke-width=".75" d="M27.73 9.534S39.501-8.711 51.993 5.853c0 0 9.136 12.131 12.947 37.674" mask="url(#6af1uj0ryh)" opacity=".296"/>
                        </g>
                    </g>
                </g>
            </g>
        </g>
    </g>
</svg>
