<svg xmlns="http://www.w3.org/2000/svg" xmlns:xlink="http://www.w3.org/1999/xlink" width="80" height="80" viewBox="0 0 80 80">
    <defs>
        <circle id="cyf4o9wqda" cx="40" cy="40" r="40"/>
    </defs>
    <g fill="none" fill-rule="evenodd">
        <g>
            <g transform="translate(-252 -983) translate(252 983)">
                <mask id="felzkgp3wb" fill="#fff">
                    <use xlink:href="#cyf4o9wqda"/>
                </mask>
                <use fill="#F0F0F0" xlink:href="#cyf4o9wqda"/>
                <g mask="url(#felzkgp3wb)">
                    <g>
                        <g>
                            <g>
                                <path fill="#191847" d="M6.273 12.491c2.113 0 2.88-2.552 4.08-3.952.86-1.002 2.325-.703 2.758-2.105 1.091-3.527-1.828-6.01-5.636-6.01-3.809 0-6.376 2.177-6.93 5.45-.555 3.273 1.92 6.617 5.728 6.617z" transform="translate(-6.429 14) translate(.429 33) translate(16.455)"/>
                                <g fill="#B28B67">
                                    <path d="M7.05 1.703c1.07 2.015.943 7.124-.441 7.484-.552.143-1.728-.208-2.925-.936l.751 5.362H0l1.527-7.182C.675 5.423.099 4.187.195 2.802.473-1.188 5.978-.311 7.05 1.703z" transform="translate(-6.429 14) translate(.429 33) translate(16.455) translate(4.98 3.781)"/>
                                </g>
                                <path fill="#191847" d="M12.295 5.496c-.848.16-2.557.978-3.92 2.15-.159-.086-.344-.135-.54-.135-.629 0-1.138.5-1.138 1.119 0 .252.085.486.229.673-.27.447-.455.918-.515 1.403-.935 0-4.345-3.568-.948-6.925C8.861.424 13.77 5.216 12.295 5.496z" transform="translate(-6.429 14) translate(.429 33) translate(16.455)"/>
                            </g>
                            <g>
                                <path fill="#B28B67" d="M6.803 17.592l3.917.016c-2.418 7.878-3.724 12.057-3.917 12.54-.433 1.084.484 2.736.877 3.623-.54.245-.829.003-1.103-.3l-.15-.169c-.326-.367-.695-.712-1.502-.334-1.472.69-2.591 1.943-4.292.884-.209-.13-.438-.62.116-1.003 1.379-.954 3.366-2.624 3.635-3.174.366-.75 1.172-4.777 2.42-12.083zm23.568-.737l5.31 5.227c1.544.665 2.81 1.399 3.797 2.202.222.27.464.788-.58.556-1.045-.231-2.153-.427-2.35-.085-.196.343.383.868.02 1.316-.242.299-1.055-.652-2.44-2.852l-5.52-3.285 1.763-3.079z" transform="translate(-6.429 14) translate(.429 33) translate(6.03 12.831)"/>
                                <path fill="#191847" d="M16.861 1.74l1.59-.421c3.393 6.764 8.803 12.705 16.231 17.826l-4.673 6.874c-7.64-7.547-12.644-15.586-13.148-24.28z" transform="translate(-6.429 14) translate(.429 33) translate(6.03 12.831) rotate(5 25.772 13.669)"/>
                                <path fill="#DDE3E9" d="M10.87 21.56h14.432C21.958 13.357 20.286 6.388 20.286.655L15.933 0c-3.422 5.552-4.388 12.388-5.064 21.56z" transform="translate(-6.429 14) translate(.429 33) translate(6.03 12.831)"/>
                                <path fill="#2F3676" d="M16.126 0c.34.012.858.033 1.554.064l1.052 3.033c.111 3.699.761 11.152 1.95 22.36H11.22c.025.774.066 1.556.123 2.344H4.309C5.361 15.823 9.204 6.556 15.837 0l.003.003.002-.003z" transform="translate(-6.429 14) translate(.429 33) translate(6.03 12.831)"/>
                                <path fill="#000" fill-opacity=".1" d="M13.868 25.532h-2.645c-.115-3.472.092-6.797.623-9.978.27 4.825.943 8.15 2.022 9.978z" transform="translate(-6.429 14) translate(.429 33) translate(6.03 12.831)"/>
                                <path fill="#FFF" fill-opacity=".2" d="M13.327 19.669L17.992 17.481 17.992 19.669z" transform="translate(-6.429 14) translate(.429 33) translate(6.03 12.831)"/>
                            </g>
                        </g>
                        <g>
                            <g>
                                <path fill="#191847" d="M7.051.192c1.71 0 3.188.999 3.881 2.444.074.138.151.327.23.574.664 2.083 1.73 8.368.787 9.294H6.405l-.003-.053C4.334 12.138 2.75 10.353 2.75 8.2V4.494C2.75 2.118 4.676.192 7.051.192z" transform="translate(-6.429 14) matrix(-1 0 0 1 99.278 31) translate(23.85 5)"/>
                                <g fill="#B28B67">
                                    <path d="M7.292 1.757c1.108 2.077.976 7.345-.455 7.717-.571.148-1.788-.215-3.026-.965l.777 5.53H0l1.579-7.407C.699 5.592.102 4.317.202 2.89c.287-4.116 5.982-3.21 7.09-1.133z" transform="translate(-6.429 14) matrix(-1 0 0 1 99.278 31) translate(23.85 5) translate(3.324 .962)"/>
                                </g>
                                <path fill="#191847" d="M6.956.385C9.17.385 9.87 1.42 10.464 2.3c-.445 1.535-2.172 1.763-3.707 2.72-.18-.148-.41-.236-.661-.236-.581 0-1.052.473-1.052 1.057 0 .585.47 1.058 1.052 1.058l.047-.002c.212 2.284.127 4.894-.503 5.513H.096C-.213 7.012 2.772 9.103 2.772 4.02c.187-.183.362-.364.536-.52l-.006-.15C4.262 1.373 5.48.385 6.956.385z" transform="translate(-6.429 14) matrix(-1 0 0 1 99.278 31) translate(23.85 5)"/>
                            </g>
                            <g>
                                <path fill="#997659" d="M9.744 14.333l4.106.015C9.348 24.751 7 30.198 6.808 30.688c-.434 1.104.484 2.785.877 3.689-1.28.587-1.143-1.589-2.756-.818-1.472.703-2.592 1.978-4.294.9-.209-.133-.438-.632.116-1.021 1.38-.972 3.367-2.672 3.636-3.231.366-.763 2.152-6.055 5.357-15.874zm34.823-3.684c-.829.71-1.67 1.495-1.523 1.874.148.38.92.238 1.047.821.085.389-1.167.452-3.756.19l-6.007 2.445L33 12.573l7.403-1.037c1.48-.845 2.843-1.418 4.087-1.717.35-.01.907.12.077.83z" transform="translate(-6.429 14) matrix(-1 0 0 1 99.278 31) translate(9.85 15)"/>
                                <path fill="#AFB9C5" d="M20.128 1.839l3.222-.061c1.43 7.257 6.13 11.509 15.612 9.1l2.103 9.324c-8.886 1.979-17.093-1.027-19.584-10.89-.645-2.554-1.211-5.22-1.353-7.473z" transform="translate(-6.429 14) matrix(-1 0 0 1 99.278 31) translate(9.85 15) rotate(5 30.596 11.278)"/>
                                <path fill="#C5CFD6" d="M19.402 0l.001.003 4.872 1.145c0 8.37 2.526 13.79 3.924 19.902l.113.511H15.159c-.185 2.185-.299 4.431-.358 6.738H4.95C7.182 16.106 11.893 6.673 19.083 0h.319z" transform="translate(-6.429 14) matrix(-1 0 0 1 99.278 31) translate(9.85 15)"/>
                                <path fill="#000" fill-opacity=".1" d="M17.233 9.293c-.338 5.358-.139 9.448.599 12.268h-2.674c.365-4.299 1.006-8.362 2.053-12.19z" transform="translate(-6.429 14) matrix(-1 0 0 1 99.278 31) translate(9.85 15)"/>
                            </g>
                        </g>
                        <g fill-rule="nonzero">
                            <g>
                                <path fill="#6B61B1" d="M16.744.002H2.394C1.073.002 0 1.065 0 2.377V14.19c0 1.302 1.056 2.358 2.364 2.375l.667.375H6.84l.893-.375h9.012c1.323 0 2.395-1.063 2.395-2.375V2.377c0-1.312-1.072-2.375-2.395-2.375z" transform="translate(-6.429 14) translate(26.429) translate(.088)"/>
                                <g fill="#5E54AC">
                                    <path d="M19.042.002H14.24c1.322 0 2.395 1.063 2.395 2.375V14.19c0 1.312-1.073 2.375-2.395 2.375h4.802c1.323 0 2.395-1.063 2.395-2.375V2.377c0-1.312-1.072-2.375-2.395-2.375zM.072 22.084c0 .346.44.498.657.226l4.287-5.383c.181-.228.458-.362.752-.362H.072v5.519z" transform="translate(-6.429 14) translate(26.429) translate(.088) translate(2.292)"/>
                                </g>
                                <path fill="#89C5CC" d="M29.459 26.654l.86 1.08c.148-.005.267-.116.287-.262.086-.649.503-1.207 1.114-1.492.934-.436 1.58-1.378 1.58-2.47V9.94c0-1.506-1.23-2.728-2.75-2.728H13.346c-1.52 0-2.751 1.222-2.751 2.729v13.57c0 1.506 1.232 2.728 2.751 2.728h15.249c.337 0 .655.153.864.415z" transform="translate(-6.429 14) translate(26.429) translate(.088)"/>
                                <path fill="#89C5CC" d="M35.102 7.212h-4.819c1.52 0 2.752 1.222 2.752 2.729v13.57c0 1.091-.647 2.033-1.582 2.47-.688.32-1.134 1-1.134 1.754l4.064 5.103c.249.312.755.138.755-.26v-6.34c1.502-.019 2.715-1.233 2.715-2.728V9.94c0-1.506-1.232-2.728-2.751-2.728z" transform="translate(-6.429 14) translate(26.429) translate(.088)"/>
                            </g>
                            <g fill="#F0F7FF">
                                <path d="M18.92 1.214H.603C.284 1.214.025.953.025.63c0-.322.259-.584.577-.584h18.319c.318 0 .577.262.577.584 0 .322-.259.583-.577.583zM18.92 5.672H.603c-.318 0-.577-.26-.577-.583 0-.322.259-.583.577-.583h18.319c.318 0 .577.26.577.583 0 .322-.259.583-.577.583z" transform="translate(-6.429 14) translate(26.429) translate(15 13.655)"/>
                            </g>
                        </g>
                    </g>
                </g>
            </g>
        </g>
    </g>
</svg>
