<svg xmlns="http://www.w3.org/2000/svg" xmlns:xlink="http://www.w3.org/1999/xlink" width="80" height="80" viewBox="0 0 80 80">
    <defs>
        <path id="nht6sxpkja" d="M0 0H80V80H0z"/>
    </defs>
    <g fill="none" fill-rule="evenodd">
        <g>
            <g transform="translate(-58 -226) translate(58 226)">
                <mask id="elg4ugqd1b" fill="#fff">
                    <use xlink:href="#nht6sxpkja"/>
                </mask>
                <g mask="url(#elg4ugqd1b)">
                    <g fill-rule="nonzero" transform="translate(-4.285 25.778)">
                        <g>
                            <path fill="#8B8B8B" d="M43.37 63.969c0 3.453-2.812 6.253-6.281 6.253H6.38c-3.469 0-6.28-2.8-6.28-6.253V6.254C.1 2.8 2.91 0 6.38 0H37.09c3.47 0 6.281 2.8 6.281 6.254v57.715z"/>
                            <path fill="#6B6B6B" d="M21.5 70.222c-3.469 0-6.28-2.8-6.28-6.254V6.253C15.22 2.805 18.021.01 21.482 0H6.38C2.911 0 .1 2.8.1 6.254v57.715c0 3.453 2.811 6.253 6.28 6.253h30.726H21.5z"/>
                            <path fill="#AA9EA9" d="M24.955 29.776c0 3.38 1.854 7.35 5.667 12.136 2.716 3.41 5.737 6.356 7.3 7.814.866.805 1.995 1.248 3.179 1.248.803 0 1.58-.205 2.27-.589V31.766c-.556.627-1.367 1.025-2.27 1.025-1.671 0-3.03-1.353-3.03-3.015 0-1.664 1.359-3.017 3.03-3.017.903 0 1.714.398 2.27 1.025V13.86c-.743-.104-1.5-.16-2.27-.16-8.903 0-16.146 7.212-16.146 16.076z"/>
                            <path fill="#B8D990" d="M33.593 4.235c-.184 0-.35.115-.412.289l-.172.474c-.4 1.103-1.45 1.837-2.626 1.837H13.227c-1.176 0-2.225-.734-2.625-1.837l-.171-.474c-.063-.174-.229-.29-.413-.29H6.38c-1.12 0-2.028.906-2.028 2.02v49.013l2.07.502-.342 4.49-1.728 2.876v.833c0 1.115.908 2.019 2.028 2.019h26.424l1.57-.815 4.736-1.111c.002-.031.005-.062.005-.093V6.253c0-1.113-.907-2.018-2.027-2.018h-3.496z"/>
                            <path fill="#E7EFDA" d="M39.116 50.531V32.05c-.638-.553-1.045-1.366-1.045-2.273 0-.908.407-1.721 1.045-2.275v-13.68c-7.97.977-14.161 7.76-14.161 15.955 0 3.38 1.854 7.35 5.667 12.136 2.716 3.41 5.737 6.356 7.3 7.814.358.332.761.602 1.194.805zM15.22 63.968V6.835h-1.993c-1.176 0-2.225-.734-2.625-1.837l-.171-.474c-.063-.174-.229-.29-.413-.29H6.381c-1.12 0-2.028.906-2.028 2.02v49.013l2.02-.906v4.953l-2.02 3.821v.833c0 1.115.908 2.019 2.028 2.019h9.175c-.217-.634-.337-1.312-.337-2.019z"/>
                            <path fill="#C4C4C4" d="M39.114 64.06c-.048 1.072-.936 1.927-2.025 1.927h-4.284l-16.12-14.583c-.055-.05-.137-.048-.19.002L4.353 63.135v-7.868l21.06-20.343 9.113-8.645 4.586 4.235-10.808 9.484-7.53 7.276c-.059.055-.057.147.002.2L39.114 64.06z"/>
                            <path fill="#838383" d="M38.071 29.776c0-.073.004-.144.009-.215l-3.554-3.282-8.565 8.125c.645 1.59 1.602 3.293 2.878 5.124l9.562-8.39c-.21-.41-.33-.872-.33-1.362zM4.353 55.267L4.353 63.135 15.219 52.639 15.219 44.771z"/>
                            <path fill="#F9F7F8" d="M14.883 31.573c-.587 0-1.064-.474-1.064-1.06V22.93c0-.585.477-1.06 1.064-1.06.587 0 1.063.475 1.063 1.06v7.585c0 .585-.476 1.059-1.063 1.059z"/>
                        </g>
                        <ellipse cx="14.883" cy="20.955" fill="#FFA209" rx="3.542" ry="3.527"/>
                        <ellipse cx="41.101" cy="29.775" fill="#F9F7F8" rx="9.155" ry="9.114"/>
                        <g fill="#FDBF01">
                            <path d="M12.603.006c6.96 0 12.601 5.618 12.601 12.547 0 5.892-9.119 14.831-11.841 17.37-.429.398-1.09.398-1.519 0C9.122 27.384.002 18.445.002 12.553c0-6.93 5.643-12.547 12.6-12.547zm6.575 12.547c0-3.616-2.944-6.547-6.575-6.547-3.63 0-6.574 2.931-6.574 6.547 0 3.614 2.944 6.544 6.574 6.544 3.631 0 6.575-2.93 6.575-6.544z" transform="translate(28.497 17.223)"/>
                        </g>
                        <path fill="#FFA30B" d="M40.152 36.252c-3.18-.458-5.626-3.183-5.626-6.476 0-2.984 2.007-5.5 4.749-6.289 1.39-2.454 3.588-4.395 6.233-5.468-1.372-.51-2.857-.79-4.408-.79-6.958 0-12.6 5.618-12.6 12.547 0 5.892 9.12 14.831 11.842 17.37.428.398 1.09.398 1.518 0 .838-.782 2.283-2.17 3.88-3.888-1.882-2.014-3.994-4.502-5.588-7.006z"/>
                    </g>
                </g>
            </g>
        </g>
    </g>
</svg>
