<svg xmlns="http://www.w3.org/2000/svg" xmlns:xlink="http://www.w3.org/1999/xlink" width="60" height="60" viewBox="0 0 60 60">
    <defs>
        <path id="khf7261t6a" d="M0 0H60V60H0z"/>
    </defs>
    <g fill="none" fill-rule="evenodd">
        <g>
            <g transform="translate(-821 -1483) translate(821 1483)">
                <mask id="pmaoqyme7b" fill="#fff">
                    <use xlink:href="#khf7261t6a"/>
                </mask>
                <g mask="url(#pmaoqyme7b)">
                    <g>
                        <g>
                            <g>
                                <path fill="#F5F2F2" fill-rule="nonzero" d="M3.401 13.65H49.318V42.655H3.401z" transform="translate(0 7) translate(5.77) translate(.283)"/>
                                <path fill="#FFF" stroke="#DBD9DC" d="M9.872 22.833H28.788V37.113H9.872z" transform="translate(0 7) translate(5.77) translate(.283)"/>
                                <path fill="#F8F8F8" fill-rule="nonzero" d="M3.401 19.62c.983.412 2.06.641 3.189.641 2.602 0 5.04-1.243 6.59-3.272 1.55 2.029 3.988 3.272 6.59 3.272s5.039-1.243 6.59-3.272c1.55 2.029 3.987 3.272 6.59 3.272 2.602 0 5.039-1.243 6.59-3.272 1.55 2.029 3.987 3.272 6.59 3.272 1.13 0 2.206-.229 3.188-.641v-5.97H3.401v5.97z" transform="translate(0 7) translate(5.77) translate(.283)"/>
                                <path fill="#F5822D" fill-rule="nonzero" d="M52.72 11.944c0 3.651-2.951 6.611-6.59 6.611-2.635 0-4.909-1.551-5.964-3.793-.257-.547-.996-.547-1.253 0-1.055 2.242-3.329 3.793-5.963 3.793-2.635 0-4.909-1.551-5.963-3.793-.257-.547-.997-.547-1.254 0-1.055 2.242-3.328 3.793-5.963 3.793-2.635 0-4.909-1.551-5.963-3.793-.257-.547-.997-.547-1.254 0-1.055 2.242-3.328 3.793-5.963 3.793-3.64 0-6.59-2.96-6.59-6.611L6.313.86C6.616.328 7.179 0 7.789 0H44.93c.61 0 1.174.328 1.477.86l6.312 11.084z" transform="translate(0 7) translate(5.77) translate(.283)"/>
                                <path fill="#F5822D" fill-rule="nonzero" d="M44.93 0H7.79c-.61 0-1.174.328-1.477.86L0 11.944h52.72L46.406.86C46.104.328 45.54 0 44.93 0z" transform="translate(0 7) translate(5.77) translate(.283)"/>
                                <path fill="#DBD9DC" fill-rule="nonzero" d="M51.019 43.509H1.7c-.47 0-.85-.382-.85-.853 0-.472.38-.854.85-.854h49.318c.47 0 .85.382.85.854 0 .471-.38.853-.85.853z" transform="translate(0 7) translate(5.77) translate(.283)"/>
                                <path fill="#30516C" fill-rule="nonzero" d="M36.563 35.83v1.28c0 .236.19.427.426.427h5.952c.235 0 .425-.191.425-.427v-8.104l-6.803 6.825z" transform="translate(0 7) translate(5.77) translate(.283)"/>
                            </g>
                            <g fill-rule="nonzero">
                                <path fill="#FFF" d="M0.691 0.691H9.56V19.218999999999998H0.691z" transform="translate(0 7) translate(5.77) translate(35.136 22.333)"/>
                                <path fill="#DBD9DC" d="M10.135 20.844H8.86V1.663H1.275v19.18H0V.832C0 .372.285 0 .637 0h8.861c.352 0 .637.372.637.831v20.013z" transform="translate(0 7) translate(5.77) translate(35.136 22.333)"/>
                                <path fill="#DBD9DC" d="M7.547 10.602H6.274c-.348 0-.63-.309-.63-.69 0-.382.282-.692.63-.692h1.273c.348 0 .63.31.63.691 0 .382-.282.691-.63.691z" transform="translate(0 7) translate(5.77) translate(35.136 22.333)"/>
                            </g>
                        </g>
                        <g fill-rule="nonzero" transform="translate(0 7) translate(0 25.385)">
                            <circle cx="10.385" cy="10.385" r="10.385" fill="#AFB9D2"/>
                            <circle cx="10.385" cy="10.385" r="9.231" fill="#8F96AC"/>
                            <circle cx="10.385" cy="10.385" r="8.654" fill="#FFF"/>
                            <path fill="#AFB9D2" d="M6.141 15c-.095 0-.19-.036-.263-.109-.145-.145-.145-.381 0-.526l5.025-5.025c.145-.146.381-.146.526 0 .146.145.146.38 0 .526l-5.024 5.025c-.073.073-.168.109-.264.109z"/>
                            <g fill="#5B5D6E">
                                <path d="M7.888 1.817c-.198 0-.357-.16-.357-.357V.39c0-.198.16-.358.357-.358.197 0 .357.16.357.357V1.46c0 .198-.16.357-.357.357zM7.888 15.743c-.198 0-.357-.16-.357-.357v-1.071c0-.197.16-.357.357-.357.197 0 .357.16.357.357v1.071c0 .197-.16.357-.357.357zM13.958 7.888c0-.198.16-.357.357-.357h1.071c.197 0 .357.16.357.357 0 .197-.16.357-.357.357h-1.071c-.197 0-.357-.16-.357-.357zM.032 7.888c0-.198.16-.357.357-.357H1.46c.198 0 .357.16.357.357 0 .197-.16.357-.357.357H.39c-.198 0-.358-.16-.358-.357z" transform="translate(2.308 2.308)"/>
                            </g>
                            <g fill="#8F96AC">
                                <path d="M13.45 10.623c-.097.167-.312.225-.48.128l-.304-.175c-.168-.097-.225-.312-.129-.48.097-.168.312-.225.48-.129l.304.176c.168.097.226.312.129.48zM.984 3.426c-.097.168-.312.225-.48.128L.202 3.38c-.168-.097-.226-.312-.129-.48.097-.168.312-.225.48-.128l.304.175c.168.097.225.312.128.48zM.072 10.623c.097.167.312.225.48.128l.304-.175c.168-.097.225-.312.128-.48-.097-.168-.312-.225-.48-.129l-.303.176c-.168.097-.226.312-.129.48zM12.537 3.426c.097.168.312.225.48.128l.304-.175c.168-.097.225-.312.129-.48-.097-.168-.312-.225-.48-.128l-.304.175c-.168.097-.225.312-.129.48zM2.9 13.45c-.169-.097-.226-.312-.13-.48l.176-.304c.097-.168.312-.225.48-.129.168.097.225.312.128.48l-.175.304c-.097.168-.312.226-.48.129zM10.096.984c-.168-.097-.225-.312-.129-.48l.176-.303c.097-.168.312-.226.48-.129.168.097.225.312.128.48l-.175.304c-.097.168-.312.225-.48.128zM2.9.072c-.169.097-.226.312-.13.48l.176.304c.097.168.312.225.48.128.168-.097.225-.312.128-.48L3.38.202c-.097-.168-.312-.226-.48-.129zM10.096 12.537c-.168.097-.225.312-.129.48l.176.304c.097.168.312.225.48.129.168-.097.225-.312.128-.48l-.175-.304c-.097-.168-.312-.225-.48-.129z" transform="translate(3.462 3.462)"/>
                            </g>
                            <path fill="#5B5D6E" d="M15.212 10.249h-4.736V6.143c0-.207-.163-.374-.365-.374-.2 0-.364.167-.364.374v4.106h-.729c-.201 0-.364.167-.364.373s.163.373.364.373h.729v.747c0 .206.163.373.364.373.202 0 .365-.167.365-.373v-.747h4.737c.2 0 .364-.167.364-.373s-.163-.373-.365-.373z"/>
                            <circle cx="10.385" cy="10.385" r="1" fill="#C7CFE2"/>
                        </g>
                    </g>
                </g>
            </g>
        </g>
    </g>
</svg>
