<svg xmlns="http://www.w3.org/2000/svg" xmlns:xlink="http://www.w3.org/1999/xlink" width="60" height="60" viewBox="0 0 60 60">
    <defs>
        <path id="xl2zefzvba" d="M0 0H60V60H0z"/>
    </defs>
    <g fill="none" fill-rule="evenodd">
        <g>
            <g transform="translate(-815 -1584) translate(815 1584)">
                <mask id="xdblqjvuub" fill="#fff">
                    <use xlink:href="#xl2zefzvba"/>
                </mask>
                <g mask="url(#xdblqjvuub)">
                    <g fill-rule="nonzero">
                        <g>
                            <path fill="#FCBD8E" d="M6.834 3.553l16.003.018c1.853.002 3.354 1.503 3.356 3.356l.018 15.927c.002 1.855-1.5 3.361-3.356 3.363h-.008L6.845 26.2c-1.853-.002-3.354-1.503-3.356-3.356L3.47 6.917c-.003-1.856 1.5-3.362 3.356-3.364h.007z" transform="translate(8) translate(15.845 21.091) rotate(-16.968 14.84 14.885)"/>
                            <path fill="#F5822D" d="M13.482 3.462L15.045 8.569 14.244 10.263 12.908 8.692 12.264 11.553 11.555 9.239 10.592 11.041 8.715 4.908z" transform="translate(8) translate(15.845 21.091)"/>
                            <path fill="#F5822D" d="M7.732 14.695L24.335 14.714 24.344 22.887 7.742 22.868z" transform="translate(8) translate(15.845 21.091) rotate(-16.968 16.038 18.791)"/>
                            <g fill="#F6B863">
                                <path d="M-0.073 2.029L13.854 2.044 13.855 2.799 -0.072 2.783z" transform="translate(8) translate(15.845 21.091) translate(8.492 14.236) rotate(-16.968 6.891 2.414)"/>
                                <path d="M0.583 4.169L14.51 4.185 14.511 4.94 0.584 4.924z" transform="translate(8) translate(15.845 21.091) translate(8.492 14.236) rotate(-16.968 7.547 4.555)"/>
                                <path d="M1.369 7.185L9.3 7.194 9.301 7.949 1.37 7.94z" transform="translate(8) translate(15.845 21.091) translate(8.492 14.236) rotate(-16.968 5.335 7.567)"/>
                            </g>
                        </g>
                        <g>
                            <path fill="#FCBD8E" d="M6.834 3.553l16.003.018c1.853.002 3.354 1.503 3.356 3.356l.018 15.927c.002 1.855-1.5 3.361-3.356 3.363h-.008L6.845 26.2c-1.853-.002-3.354-1.503-3.356-3.356L3.47 6.917c-.003-1.856 1.5-3.362 3.356-3.364h.007z" transform="translate(8) translate(8.894 .322) rotate(-16.968 14.84 14.885)"/>
                            <path fill="#F5822D" d="M13.482 3.462L15.045 8.569 14.244 10.263 12.908 8.692 12.264 11.553 11.555 9.239 10.592 11.041 8.715 4.908z" transform="translate(8) translate(8.894 .322)"/>
                            <path fill="#F5822D" d="M7.732 14.695L24.335 14.714 24.344 22.887 7.742 22.868z" transform="translate(8) translate(8.894 .322) rotate(-16.968 16.038 18.791)"/>
                            <g fill="#F6B863">
                                <path d="M-0.073 2.029L13.854 2.044 13.855 2.799 -0.072 2.783z" transform="translate(8) translate(8.894 .322) translate(8.492 14.236) rotate(-16.968 6.891 2.414)"/>
                                <path d="M0.583 4.169L14.51 4.185 14.511 4.94 0.584 4.924z" transform="translate(8) translate(8.894 .322) translate(8.492 14.236) rotate(-16.968 7.547 4.555)"/>
                                <path d="M1.369 7.185L9.3 7.194 9.301 7.949 1.37 7.94z" transform="translate(8) translate(8.894 .322) translate(8.492 14.236) rotate(-16.968 5.335 7.567)"/>
                            </g>
                        </g>
                        <path fill="#B9B9B9" d="M20.42 53.948c-.718-.001-1.35-.474-1.551-1.16L7.812 15.122l-5.654 1.532c-.862.234-1.752-.273-1.987-1.132-.235-.86.274-1.746 1.137-1.98l7.185-1.944c.852-.231 1.732.26 1.979 1.104l11.04 37.618 23.756-7.21c.557-.18 1.168-.047 1.598.349.43.395.612.99.477 1.558-.136.567-.568 1.017-1.13 1.177l-25.32 7.684c-.154.046-.313.07-.473.07z" transform="translate(8)"/>
                        <path fill="#475F6C" d="M27.921 52.335c0 2.864-1.732 5.447-4.389 6.543s-5.715.49-7.75-1.535c-2.033-2.025-2.641-5.071-1.54-7.718 1.1-2.646 3.693-4.371 6.569-4.371 3.926 0 7.11 3.17 7.11 7.08z" transform="translate(8)"/>
                        <path fill="#BBBBCD" d="M20.81 55.656c-1.348 0-2.564-.81-3.08-2.05-.516-1.242-.23-2.67.723-3.62.954-.95 2.388-1.233 3.634-.72 1.246.515 2.058 1.726 2.058 3.07-.002 1.832-1.494 3.318-3.334 3.32z" transform="translate(8)"/>
                    </g>
                </g>
            </g>
        </g>
    </g>
</svg>
