<svg xmlns="http://www.w3.org/2000/svg" xmlns:xlink="http://www.w3.org/1999/xlink" width="60" height="60" viewBox="0 0 60 60">
    <defs>
        <path id="78d55gdssa" d="M0 0H60V60H0z"/>
    </defs>
    <g fill="none" fill-rule="evenodd">
        <g>
            <g transform="translate(-816 -1370) translate(816 1370)">
                <mask id="7nx8y6wfcb" fill="#fff">
                    <use xlink:href="#78d55gdssa"/>
                </mask>
                <g mask="url(#7nx8y6wfcb)">
                    <g fill-rule="nonzero">
                        <path fill="#325C7F" d="M28.448 0l-25 25 2.865 2.864 12.653 12.653 25-25V0H28.448zm10.345 6.897c-.952 0-1.724-.772-1.724-1.725 0-.952.772-1.724 1.724-1.724s1.724.772 1.724 1.724c.002.458-.18.897-.503 1.221-.324.324-.763.505-1.22.504z" transform="translate(5 7)"/>
                        <path fill="#30516C" d="M41.563 0c-.65 1.251-1.327 2.455-2.034 3.613.608.287.993.901.988 1.573-.006.672-.402 1.28-1.014 1.557-.612.277-1.33.173-1.838-.267C29.49 18.228 18.21 24.756 6.313 27.864l12.653 12.653 25-25V0h-2.404z" transform="translate(5 7)"/>
                        <path fill="#E0E0DE" d="M47.345 11.207h-3.38V9.483h3.399c.927 0 1.726-.711 1.772-1.638.023-.471-.148-.932-.473-1.274-.326-.342-.777-.536-1.25-.537h-7.758c-.476 0-.862-.385-.862-.862 0-.476.386-.862.862-.862h7.759c1.88.002 3.413 1.509 3.448 3.389.032 1.929-1.588 3.508-3.517 3.508z" transform="translate(5 7)"/>
                        <path fill="#F5822D" d="M36.218 13.793c1.602-1.06.786-3.48-1.155-3.429.651-1.766-1.484-3.262-3.023-2.12-.549-1.797-3.187-1.797-3.736 0-1.54-1.142-3.674.354-3.023 2.12-1.94-.052-2.756 2.37-1.154 3.43-1.602 1.058-.786 3.48 1.155 3.428-.651 1.766 1.484 3.262 3.023 2.12.548 1.797 3.187 1.797 3.736 0 1.539 1.142 3.674-.354 3.023-2.12 1.94.052 2.756-2.37 1.154-3.429z" transform="translate(5 7)"/>
                        <path fill="#FCBD8E" d="M8.62 4.31c2.123-.53 3.78-2.187 4.311-4.31.53 2.123 2.188 3.78 4.31 4.31-2.122.53-3.78 2.188-4.31 4.31-.53-2.122-2.188-3.78-4.31-4.31z" transform="translate(5 7)"/>
                        <g fill="#2D7DBF">
                            <path d="M-0.428 6.68L6.886 6.68 6.886 8.404 -0.428 8.404z" transform="translate(5 7) translate(7.112 15.733) rotate(-45 3.229 7.542)"/>
                            <path d="M2.157 9.266L9.471 9.266 9.471 10.99 2.157 10.99z" transform="translate(5 7) translate(7.112 15.733) rotate(-45 5.814 10.128)"/>
                            <path d="M4.743 11.852L12.057 11.852 12.057 13.576 4.743 13.576z" transform="translate(5 7) translate(7.112 15.733) rotate(-45 8.4 12.714)"/>
                            <path d="M7.329 14.438L14.642 14.438 14.642 16.162 7.329 16.162z" transform="translate(5 7) translate(7.112 15.733) rotate(-45 10.986 15.3)"/>
                            <path d="M13.036 15.732L16.693 15.732 16.693 17.456 13.036 17.456z" transform="translate(5 7) translate(7.112 15.733) rotate(-45 14.864 16.594)"/>
                            <path d="M11.176 0.212L12.899 0.212 12.899 3.183 11.176 3.183z" transform="translate(5 7) translate(7.112 15.733) rotate(-45 12.038 1.697)"/>
                            <path d="M16.051 2.764L17.775 2.764 17.775 10.383 16.051 10.383z" transform="translate(5 7) translate(7.112 15.733) rotate(-45 16.913 6.574)"/>
                            <path d="M11.848 2.667L13.572 2.667 13.572 12.419 11.848 12.419z" transform="translate(5 7) translate(7.112 15.733) rotate(-45 12.71 7.543)"/>
                        </g>
                        <path fill="#CFCFCF" d="M42.241 34.483L50 34.483 50 50 42.241 50z" transform="translate(5 7)"/>
                        <path fill="#FEC9A3" d="M42.241 37.069V50h-26.82c-1.07 0-2.126-.25-3.084-.728L1.76 43.982C.435 43.322-.258 41.834.088 40.395c.345-1.439 1.638-2.45 3.118-2.438l.37.002c.483.004.96.118 1.392.333l9.687 4.812h3.448c-1.904 0-3.448-1.543-3.448-3.448 0-1.904 1.544-3.448 3.448-3.448h7.471l1.707-.96c4.255-2.394 9.507-2.128 13.5.683.21.149.416.304.619.465l.841.674z" transform="translate(5 7)"/>
                        <path fill="#FEB784" d="M25.862 43.966h-7.759c-.476 0-.862-.386-.862-.863 0-.476.386-.862.862-.862h7.76c.475 0 .861.386.861.862 0 .477-.386.863-.862.863z" transform="translate(5 7)"/>
                    </g>
                </g>
            </g>
        </g>
    </g>
</svg>
