<?xml version="1.0" encoding="UTF-8"?>
<svg width="80px" height="80px" viewBox="0 0 80 80" version="1.1" xmlns="http://www.w3.org/2000/svg" xmlns:xlink="http://www.w3.org/1999/xlink">
    <title>drive</title>
    <defs>
        <rect id="path-1" x="0" y="0" width="80" height="80"></rect>
        <polygon id="path-3" points="0.614307692 0.172784615 12.287 0.172784615 12.287 11.8461538 0.614307692 11.8461538"></polygon>
        <path d="M4.96692308,0.168384615 C2.39123077,0.168384615 0.302923077,2.25669231 0.302923077,4.83153846 L0.302923077,4.83153846 L0.302923077,11.4044615 L14.3533077,11.4044615 L14.3533077,0.168384615 L4.96692308,0.168384615 Z" id="path-5"></path>
        <path d="M4.96692308,0.168384615 C2.39123077,0.168384615 0.302923077,2.25669231 0.302923077,4.83153846 L0.302923077,4.83153846 L0.302923077,11.4044615 L14.3533077,11.4044615 L14.3533077,0.168384615 L4.96692308,0.168384615 Z" id="path-7"></path>
        <path d="M4.96692308,0.168384615 C2.39123077,0.168384615 0.302923077,2.25669231 0.302923077,4.83153846 L0.302923077,4.83153846 L0.302923077,11.4044615 L14.3533077,11.4044615 L14.3533077,0.168384615 L4.96692308,0.168384615 Z" id="path-9"></path>
        <polygon id="path-11" points="0 54.1538462 147.504923 54.1538462 147.504923 0.293615385 0 0.293615385"></polygon>
    </defs>
    <g id="Page-1" stroke="none" stroke-width="1" fill="none" fill-rule="evenodd">
        <g id="Artboard" transform="translate(-514.000000, -91.000000)">
            <g id="drive" transform="translate(514.000000, 91.000000)">
                <mask id="mask-2" fill="white">
                    <use xlink:href="#path-1"></use>
                </mask>
                <g id="Mask"></g>
                <g id="Group-56" mask="url(#mask-2)">
                    <g transform="translate(-21.000000, 49.000000) scale(-1, 1) translate(21.000000, -49.000000) translate(-95.000000, 21.000000)">
                        <polygon id="Fill-2" fill="#181818" points="30.0562308 44.3989615 47.4066154 44.3989615 47.4066154 40.7148077 30.0562308 40.7148077"></polygon>
                        <polygon id="Fill-3" fill="#181818" points="31.2552308 43.1720385 38.1344615 43.1720385 38.1344615 26.4621923 31.2552308 26.4621923"></polygon>
                        <polygon id="Fill-4" fill="#181818" points="45.5306923 46.2258077 75.372 46.2258077 75.372 40.4195 45.5306923 40.4195"></polygon>
                        <polygon id="Fill-6" fill="#B2B2B2" points="18.3831154 12.1806385 34.9702692 12.1806385 34.9702692 3.07179231"></polygon>
                        <g id="Group-20" stroke-width="1" fill="none" transform="translate(7.615385, 9.860654)">
                            <path d="M4.66780769,0.245892308 L27.3548846,0.245892308 L27.3548846,39.6072769 L23.1511923,39.6072769 C23.1689615,39.4101231 23.1791154,39.2112769 23.1791154,39.0098923 C23.1791154,35.3782 20.2353462,32.4344308 16.6045,32.4344308 C12.9728077,32.4344308 10.0298846,35.3782 10.0298846,39.0098923 C10.0298846,39.2112769 10.0408846,39.4101231 10.0578077,39.6072769 L4.66780769,39.6072769 L0.0520384615,39.6072769 L0.0520384615,4.96912308 L4.66780769,0.245892308 Z" id="Fill-9" fill="#CDCDCD"></path>
                            <g id="Group-13" transform="translate(10.153846, 33.000000)">
                                <mask id="mask-4" fill="white">
                                    <use xlink:href="#path-3"></use>
                                </mask>
                                <g id="Clip-12"></g>
                                <path d="M6.45107692,0.172784615 C9.67492308,0.172784615 12.287,2.78570769 12.287,6.00955385 C12.287,6.18809231 12.2785385,6.36493846 12.2624615,6.54009231 C11.9942308,9.51516923 9.49553846,11.8463231 6.45107692,11.8463231 C3.40576923,11.8463231 0.907076923,9.51516923 0.639692308,6.54009231 C0.623615385,6.36493846 0.614307692,6.18809231 0.614307692,6.00955385 C0.614307692,2.78570769 3.22723077,0.172784615 6.45107692,0.172784615" id="Fill-11" fill="#FFA20A" mask="url(#mask-4)"></path>
                            </g>
                            <path d="M16.6049231,35.6575154 C18.4563077,35.6575154 19.9565385,37.1577462 19.9565385,39.0091308 C19.9565385,39.1123615 19.9514615,39.2139 19.9421538,39.3137462 C19.7881538,41.0221308 18.3530769,42.3615923 16.6049231,42.3615923 C14.8567692,42.3615923 13.4208462,41.0221308 13.2676923,39.3137462 C13.2583846,39.2139 13.2524615,39.1123615 13.2524615,39.0091308 C13.2524615,37.1577462 14.7535385,35.6575154 16.6049231,35.6575154" id="Fill-14" fill="#C88516"></path>
                            <path d="M16.6049231,36.8565154 C17.7937692,36.8565154 18.7575385,37.8202846 18.7575385,39.0091308 C18.7575385,39.0759769 18.7541538,39.1402846 18.7482308,39.2054385 C18.6492308,40.3020538 17.7277692,41.1625923 16.6049231,41.1625923 C15.4820769,41.1625923 14.5597692,40.3020538 14.4616154,39.2054385 C14.4556923,39.1402846 14.4514615,39.0759769 14.4514615,39.0091308 C14.4514615,37.8202846 15.4160769,36.8565154 16.6049231,36.8565154" id="Fill-16" fill="#DADADA"></path>
                            <path d="M16.8916,6.93786923 L7.50436923,6.93786923 C4.92952308,6.93786923 2.84206154,9.02533077 2.84206154,11.6010231 L2.84206154,18.1739462 L16.8916,18.1739462 L16.8916,6.93786923 Z" id="Fill-18" fill="#FFFFFF"></path>
                        </g>
                        <g id="Group-30" stroke-width="1" fill="none" transform="translate(10.153846, 16.629885)">
                            <g id="Group-23">
                                <mask id="mask-6" fill="white">
                                    <use xlink:href="#path-5"></use>
                                </mask>
                                <g id="Clip-22"></g>
                                <polygon id="Fill-21" fill="#FCFDFF" mask="url(#mask-6)" points="8.94655385 25.4040769 6.34632308 23.749 22.2920923 -1.309 24.8931692 0.346076923"></polygon>
                            </g>
                            <g id="Group-26">
                                <mask id="mask-8" fill="white">
                                    <use xlink:href="#path-7"></use>
                                </mask>
                                <g id="Clip-25"></g>
                                <polygon id="Fill-24" fill="#FCFDFF" mask="url(#mask-8)" points="-7.55344615 12.7638077 -10.1536769 11.1087308 5.79209231 -13.9492692 8.39316923 -12.2941923"></polygon>
                            </g>
                            <g id="Group-29">
                                <mask id="mask-10" fill="white">
                                    <use xlink:href="#path-9"></use>
                                </mask>
                                <g id="Clip-28"></g>
                                <polygon id="Fill-27" fill="#FCFDFF" mask="url(#mask-10)" points="-6.52469231 14.6267846 -7.67969231 13.8914769 8.26523077 -11.1665231 9.42192308 -10.4312154"></polygon>
                            </g>
                        </g>
                        <g id="Group-55" stroke-width="1" fill="none" transform="translate(0.000000, 0.552962)">
                            <path d="M10.4570231,27.4814692 L10.4570231,36.1300077 C10.4570231,38.3570846 12.2627154,40.1619308 14.4897923,40.1619308 L24.5065615,40.1619308 L24.5065615,27.4814692 L10.4570231,27.4814692 Z" id="Fill-31" fill="#B0B0B0"></path>
                            <path d="M19.8242,30.1897538 L21.4488154,30.1897538 C22.0250462,30.1897538 22.4921231,29.7226769 22.4921231,29.1464462 L12.4728154,29.1464462 L16.1832,29.1464462 L18.7808923,29.1464462 C18.7808923,29.7226769 19.2471231,30.1897538 19.8242,30.1897538" id="Fill-33" fill="#262626"></path>
                            <mask id="mask-12" fill="white">
                                <use xlink:href="#path-11"></use>
                            </mask>
                            <g id="Clip-36"></g>
                            <polygon id="Fill-35" fill="#CDCDCD" mask="url(#mask-12)" points="40.8793846 37.6411538 147.504923 37.6411538 147.504923 0.292769231 40.8793846 0.292769231"></polygon>
                            <polygon id="Fill-37" fill="#262626" mask="url(#mask-12)" points="40.8793846 42.6190769 75.3711538 42.6190769 75.3711538 39.8665385 40.8793846 39.8665385"></polygon>
                            <path d="M57.9606923,42.4804769 C61.1845385,42.4804769 63.7966154,45.0934 63.7966154,48.3172462 C63.7966154,48.4957846 63.7881538,48.6726308 63.7720769,48.8477846 C63.5038462,51.8228615 61.0051538,54.1540154 57.9606923,54.1540154 C54.9153846,54.1540154 52.4166923,51.8228615 52.1493077,48.8477846 C52.1332308,48.6726308 52.1239231,48.4957846 52.1239231,48.3172462 C52.1239231,45.0934 54.7368462,42.4804769 57.9606923,42.4804769" id="Fill-39" fill="#181818" mask="url(#mask-12)"></path>
                            <polygon id="Fill-51" fill="#CDCDCD" mask="url(#mask-12)" points="40.8793846 51.9208462 50.1811538 51.9208462 50.1811538 42.6190769 40.8793846 42.6190769"></polygon>
                            <polyline id="Fill-53" fill="#CDCDCD" mask="url(#mask-12)" points="7.66742308 25.0591 5.75173077 27.7160231 5.75173077 46.9389462 9.60003846 48.9147154"></polyline>
                            <path d="M6.93448462,42.0045154 L6.93448462,42.0045154 C5.90133077,42.0045154 5.05602308,42.8498231 5.05602308,43.8829769 L5.05602308,48.1679 C5.05602308,49.2010538 5.90133077,50.0463615 6.93448462,50.0463615 C7.96848462,50.0463615 8.81379231,49.2010538 8.81379231,48.1679 L8.81379231,43.8829769 C8.81379231,42.8498231 7.96848462,42.0045154 6.93448462,42.0045154" id="Fill-54" fill="#CDCDCD" mask="url(#mask-12)"></path>
                        </g>
                    </g>
                </g>
            </g>
        </g>
    </g>
</svg>