<?xml version="1.0" encoding="UTF-8"?>
<svg width="96px" height="36px" viewBox="0 0 96 36" version="1.1" xmlns="http://www.w3.org/2000/svg" xmlns:xlink="http://www.w3.org/1999/xlink">
    <title>drive</title>
    <defs>
        <polygon id="path-1" points="0.394912088 0.111075824 7.89878571 0.111075824 7.89878571 7.61538462 0.394912088 7.61538462"></polygon>
        <path d="M3.19302198,0.108247253 C1.53721978,0.108247253 0.194736264,1.45073077 0.194736264,3.10598901 L0.194736264,3.10598901 L0.194736264,7.33143956 L9.22712637,7.33143956 L9.22712637,0.108247253 L3.19302198,0.108247253 Z" id="path-3"></path>
        <path d="M3.19302198,0.108247253 C1.53721978,0.108247253 0.194736264,1.45073077 0.194736264,3.10598901 L0.194736264,3.10598901 L0.194736264,7.33143956 L9.22712637,7.33143956 L9.22712637,0.108247253 L3.19302198,0.108247253 Z" id="path-5"></path>
        <path d="M3.19302198,0.108247253 C1.53721978,0.108247253 0.194736264,1.45073077 0.194736264,3.10598901 L0.194736264,3.10598901 L0.194736264,7.33143956 L9.22712637,7.33143956 L9.22712637,0.108247253 L3.19302198,0.108247253 Z" id="path-7"></path>
        <polygon id="path-9" points="0 34.8131868 94.8245934 34.8131868 94.8245934 0.188752747 0 0.188752747"></polygon>
    </defs>
    <g id="Page-1" stroke="none" stroke-width="1" fill="none" fill-rule="evenodd">
        <g id="Artboard" transform="translate(-102.000000, -640.000000)">
            <g id="drive" transform="translate(102.000000, 640.000000)">
                <polygon id="Fill-1" fill="#181818" points="50.0765934 30.6701456 70.5799286 30.6701456 70.5799286 25.2469038 50.0765934 25.2469038"></polygon>
                <polygon id="Fill-2" fill="#181818" points="19.3218626 28.5421896 30.4756813 28.5421896 30.4756813 26.1738049 19.3218626 26.1738049"></polygon>
                <polygon id="Fill-3" fill="#181818" points="20.0926484 27.7534533 24.515011 27.7534533 24.515011 17.0114093 20.0926484 17.0114093"></polygon>
                <polygon id="Fill-4" fill="#181818" points="29.2697308 29.7165907 48.4534286 29.7165907 48.4534286 25.9839643 29.2697308 25.9839643"></polygon>
                <polygon id="Fill-5" fill="#181818" points="70.326989 29.2618434 93.4538242 29.2618434 93.4538242 25.269206 70.326989 25.269206"></polygon>
                <polygon id="Fill-6" fill="#B2B2B2" points="11.817717 7.83041044 22.4808874 7.83041044 22.4808874 1.97472363"></polygon>
                <g id="Group-20" transform="translate(4.895604, 6.338992)">
                    <path d="M3.00073352,0.158073626 L17.585283,0.158073626 L17.585283,25.4618209 L14.8829093,25.4618209 C14.8943324,25.3350791 14.9008599,25.2072495 14.9008599,25.0777879 C14.9008599,22.7431286 13.0084368,20.8507055 10.6743214,20.8507055 C8.33966209,20.8507055 6.44778297,22.7431286 6.44778297,25.0777879 C6.44778297,25.2072495 6.4548544,25.3350791 6.46573352,25.4618209 L3.00073352,25.4618209 L0.0334532967,25.4618209 L0.0334532967,3.19443626 L3.00073352,0.158073626 Z" id="Fill-9" fill="#CDCDCD"></path>
                    <g id="Group-13" transform="translate(6.527473, 21.214286)">
                        <mask id="mask-2" fill="white">
                            <use xlink:href="#path-1"></use>
                        </mask>
                        <g id="Clip-12"></g>
                        <path d="M4.14712088,0.111075824 C6.21959341,0.111075824 7.89878571,1.79081209 7.89878571,3.86328462 C7.89878571,3.97805934 7.89334615,4.09174615 7.88301099,4.20434505 C7.71057692,6.11689451 6.10427473,7.61549341 4.14712088,7.61549341 C2.18942308,7.61549341 0.583120879,6.11689451 0.411230769,4.20434505 C0.400895604,4.09174615 0.394912088,3.97805934 0.394912088,3.86328462 C0.394912088,1.79081209 2.07464835,0.111075824 4.14712088,0.111075824" id="Fill-11" fill="#181818" mask="url(#mask-2)"></path>
                    </g>
                    <path d="M10.6745934,22.9226885 C11.8647692,22.9226885 12.8292033,23.8871225 12.8292033,25.0772984 C12.8292033,25.143661 12.8259396,25.2089357 12.819956,25.2731225 C12.720956,26.3713698 11.7984066,27.2324522 10.6745934,27.2324522 C9.55078022,27.2324522 8.62768681,26.3713698 8.52923077,25.2731225 C8.52324725,25.2089357 8.51943956,25.143661 8.51943956,25.0772984 C8.51943956,23.8871225 9.48441758,22.9226885 10.6745934,22.9226885" id="Fill-14" fill="#AEAEAE"></path>
                    <path d="M10.6745934,23.6934742 C11.4388516,23.6934742 12.0584176,24.3130401 12.0584176,25.0772984 C12.0584176,25.1202709 12.0562418,25.1616115 12.0524341,25.2034962 C11.9887912,25.9084632 11.3964231,26.4616665 10.6745934,26.4616665 C9.95276374,26.4616665 9.35985165,25.9084632 9.29675275,25.2034962 C9.29294505,25.1616115 9.29022527,25.1202709 9.29022527,25.0772984 C9.29022527,24.3130401 9.91033516,23.6934742 10.6745934,23.6934742" id="Fill-16" fill="#DADADA"></path>
                    <path d="M10.8588857,4.46005879 L4.82423736,4.46005879 C3.16897912,4.46005879 1.82703956,5.80199835 1.82703956,7.45780055 L1.82703956,11.6832511 L10.8588857,11.6832511 L10.8588857,4.46005879 Z" id="Fill-18" fill="#FFFFFF"></path>
                </g>
                <g id="Group-30" transform="translate(6.527473, 10.690640)">
                    <g id="Group-23">
                        <mask id="mask-4" fill="white">
                            <use xlink:href="#path-3"></use>
                        </mask>
                        <g id="Clip-22"></g>
                        <polygon id="Fill-21" fill="#FCFDFF" mask="url(#mask-4)" points="5.75135604 16.3311923 4.07977912 15.2672143 14.3306308 -0.8415 16.0027516 0.222478022"></polygon>
                    </g>
                    <g id="Group-26">
                        <mask id="mask-6" fill="white">
                            <use xlink:href="#path-5"></use>
                        </mask>
                        <g id="Clip-25"></g>
                        <polygon id="Fill-24" fill="#FCFDFF" mask="url(#mask-6)" points="-4.85578681 8.20530495 -6.52736374 7.14132692 3.72348791 -8.96738736 5.39560879 -7.90340934"></polygon>
                    </g>
                    <g id="Group-29">
                        <mask id="mask-8" fill="white">
                            <use xlink:href="#path-7"></use>
                        </mask>
                        <g id="Clip-28"></g>
                        <polygon id="Fill-27" fill="#FCFDFF" mask="url(#mask-8)" points="-4.19444505 9.40293297 -4.93694505 8.93023516 5.31336264 -7.17847912 6.05695055 -6.70578132"></polygon>
                    </g>
                </g>
                <g id="Group-55" transform="translate(0.000000, 0.355475)">
                    <path d="M6.72237198,17.6666588 L6.72237198,23.2264335 C6.72237198,24.6581258 7.88317418,25.8183841 9.31486648,25.8183841 L15.7542181,25.8183841 L15.7542181,17.6666588 L6.72237198,17.6666588 Z" id="Fill-31" fill="#B0B0B0"></path>
                    <path d="M12.7441286,19.4076989 L13.7885242,19.4076989 C14.1589582,19.4076989 14.459222,19.1074352 14.459222,18.7370011 L8.01823846,18.7370011 L10.4034857,18.7370011 L12.0734308,18.7370011 C12.0734308,19.1074352 12.3731505,19.4076989 12.7441286,19.4076989" id="Fill-33" fill="#262626"></path>
                    <mask id="mask-10" fill="white">
                        <use xlink:href="#path-9"></use>
                    </mask>
                    <g id="Clip-36"></g>
                    <polygon id="Fill-35" fill="#CDCDCD" mask="url(#mask-10)" points="26.2796044 24.1978846 94.8245934 24.1978846 94.8245934 0.188208791 26.2796044 0.188208791"></polygon>
                    <polygon id="Fill-37" fill="#262626" mask="url(#mask-10)" points="26.2796044 27.397978 48.4528846 27.397978 48.4528846 25.628489 26.2796044 25.628489"></polygon>
                    <polygon id="Fill-38" fill="#262626" mask="url(#mask-10)" points="93.3053242 25.7982033 94.8245934 25.7982033 94.8245934 0.188752747 93.3053242 0.188752747"></polygon>
                    <path d="M37.2604451,27.308878 C39.3329176,27.308878 41.0121099,28.9886143 41.0121099,31.0610868 C41.0121099,31.1758615 41.0066703,31.2895484 40.9963352,31.4021473 C40.8239011,33.3146967 39.2175989,34.8132956 37.2604451,34.8132956 C35.3027473,34.8132956 33.6964451,33.3146967 33.5245549,31.4021473 C33.5142198,31.2895484 33.5082363,31.1758615 33.5082363,31.0610868 C33.5082363,28.9886143 35.1879725,27.308878 37.2604451,27.308878" id="Fill-39" fill="#FFA20A" mask="url(#mask-10)"></path>
                    <path d="M37.2604451,28.9062049 C38.4506209,28.9062049 39.4150549,29.870639 39.4150549,31.0608148 C39.4150549,31.1271775 39.4117912,31.1924522 39.4058077,31.256639 C39.3068077,32.3548863 38.3842582,33.2159687 37.2604451,33.2159687 C36.1366319,33.2159687 35.2135385,32.3548863 35.1150824,31.256639 C35.1090989,31.1924522 35.1052912,31.1271775 35.1052912,31.0608148 C35.1052912,29.870639 36.0702692,28.9062049 37.2604451,28.9062049" id="Fill-40" fill="#C88516" mask="url(#mask-10)"></path>
                    <path d="M37.2604451,29.6769907 C38.0247033,29.6769907 38.6442692,30.2965566 38.6442692,31.0608148 C38.6442692,31.1037874 38.6420934,31.145128 38.6382857,31.1870126 C38.5746429,31.8919797 37.9822747,32.445183 37.2604451,32.445183 C36.5386154,32.445183 35.9457033,31.8919797 35.8826044,31.1870126 C35.8787967,31.145128 35.8766209,31.1037874 35.8766209,31.0608148 C35.8766209,30.2965566 36.4961868,29.6769907 37.2604451,29.6769907" id="Fill-41" fill="#DADADA" mask="url(#mask-10)"></path>
                    <path d="M44.2032824,27.308878 C46.2757549,27.308878 47.9549473,28.9886143 47.9549473,31.0610868 C47.9549473,31.1758615 47.9495077,31.2895484 47.9391725,31.4021473 C47.7667385,33.3146967 46.1604363,34.8132956 44.2032824,34.8132956 C42.2461286,34.8132956 40.6398264,33.3146967 40.4673923,31.4021473 C40.4570571,31.2895484 40.4516176,31.1758615 40.4516176,31.0610868 C40.4516176,28.9886143 42.1308099,27.308878 44.2032824,27.308878" id="Fill-42" fill="#FFA20A" mask="url(#mask-10)"></path>
                    <path d="M44.2032824,28.9062049 C45.3934582,28.9062049 46.3578923,29.870639 46.3578923,31.0608148 C46.3578923,31.1271775 46.3546286,31.1924522 46.3486451,31.256639 C46.250189,32.3548863 45.3270956,33.2159687 44.2032824,33.2159687 C43.0794692,33.2159687 42.1569198,32.3548863 42.0579198,31.256639 C42.0519363,31.1924522 42.0486725,31.1271775 42.0486725,31.0608148 C42.0486725,29.870639 43.0131066,28.9062049 44.2032824,28.9062049" id="Fill-43" fill="#C88516" mask="url(#mask-10)"></path>
                    <path d="M44.2032824,29.6769907 C44.9675407,29.6769907 45.5871066,30.2965566 45.5871066,31.0608148 C45.5871066,31.1037874 45.5849308,31.145128 45.5811231,31.1870126 C45.5174802,31.8919797 44.9251121,32.445183 44.2032824,32.445183 C43.4814527,32.445183 42.8890846,31.8919797 42.8254418,31.1870126 C42.8216341,31.145128 42.8194582,31.1037874 42.8194582,31.0608148 C42.8194582,30.2965566 43.4390242,29.6769907 44.2032824,29.6769907" id="Fill-44" fill="#DADADA" mask="url(#mask-10)"></path>
                    <path d="M78.5362648,27.308878 C80.6087374,27.308878 82.2879297,28.9886143 82.2879297,31.0610868 C82.2879297,31.1758615 82.2824901,31.2895484 82.2721549,31.4021473 C82.0997209,33.3146967 80.4934187,34.8132956 78.5362648,34.8132956 C76.578567,34.8132956 74.9722648,33.3146967 74.8003747,31.4021473 C74.7900396,31.2895484 74.784056,31.1758615 74.784056,31.0610868 C74.784056,28.9886143 76.4637923,27.308878 78.5362648,27.308878" id="Fill-45" fill="#181818" mask="url(#mask-10)"></path>
                    <path d="M78.5362648,28.9062049 C79.7264407,28.9062049 80.6908747,29.870639 80.6908747,31.0608148 C80.6908747,31.1271775 80.687611,31.1924522 80.6816275,31.256639 C80.5826275,32.3548863 79.660078,33.2159687 78.5362648,33.2159687 C77.4124516,33.2159687 76.4893582,32.3548863 76.3909022,31.256639 C76.3849187,31.1924522 76.381111,31.1271775 76.381111,31.0608148 C76.381111,29.870639 77.346089,28.9062049 78.5362648,28.9062049" id="Fill-46" fill="#AEAEAE" mask="url(#mask-10)"></path>
                    <path d="M78.5362648,29.6769907 C79.3005231,29.6769907 79.920089,30.2965566 79.920089,31.0608148 C79.920089,31.1037874 79.9179132,31.145128 79.9141055,31.1870126 C79.8504626,31.8919797 79.2580945,32.445183 78.5362648,32.445183 C77.8144352,32.445183 77.2215231,31.8919797 77.1584242,31.1870126 C77.1546165,31.145128 77.1518967,31.1037874 77.1518967,31.0608148 C77.1518967,30.2965566 77.7720066,29.6769907 78.5362648,29.6769907" id="Fill-47" fill="#DADADA" mask="url(#mask-10)"></path>
                    <path d="M85.4791566,27.308878 C87.5516291,27.308878 89.2308214,28.9886143 89.2308214,31.0610868 C89.2308214,31.1758615 89.2253819,31.2895484 89.2150467,31.4021473 C89.0426126,33.3146967 87.4363104,34.8132956 85.4791566,34.8132956 C83.5214588,34.8132956 81.9151566,33.3146967 81.7432665,31.4021473 C81.7329313,31.2895484 81.7269478,31.1758615 81.7269478,31.0610868 C81.7269478,28.9886143 83.4066841,27.308878 85.4791566,27.308878" id="Fill-48" fill="#181818" mask="url(#mask-10)"></path>
                    <path d="M85.4791566,28.9062049 C86.6693324,28.9062049 87.6337665,29.870639 87.6337665,31.0608148 C87.6337665,31.1271775 87.6305027,31.1924522 87.6245192,31.256639 C87.5255192,32.3548863 86.6029698,33.2159687 85.4791566,33.2159687 C84.3553434,33.2159687 83.43225,32.3548863 83.333794,31.256639 C83.3278104,31.1924522 83.3245467,31.1271775 83.3245467,31.0608148 C83.3245467,29.870639 84.2889808,28.9062049 85.4791566,28.9062049" id="Fill-49" fill="#AEAEAE" mask="url(#mask-10)"></path>
                    <path d="M85.4791566,29.6769907 C86.2434148,29.6769907 86.8629808,30.2965566 86.8629808,31.0608148 C86.8629808,31.1037874 86.8608049,31.145128 86.8569973,31.1870126 C86.7933544,31.8919797 86.2009863,32.445183 85.4791566,32.445183 C84.7573269,32.445183 84.1649588,31.8919797 84.1013159,31.1870126 C84.0975082,31.145128 84.0953324,31.1037874 84.0953324,31.0608148 C84.0953324,30.2965566 84.7148984,29.6769907 85.4791566,29.6769907" id="Fill-50" fill="#DADADA" mask="url(#mask-10)"></path>
                    <polygon id="Fill-51" fill="#CDCDCD" mask="url(#mask-10)" points="26.2796044 33.3776868 32.2593132 33.3776868 32.2593132 27.397978 26.2796044 27.397978"></polygon>
                    <polygon id="Fill-52" fill="#CDCDCD" mask="url(#mask-10)" points="94.0652308 29.6390769 94.8245934 29.6390769 94.8245934 23.821467 94.0652308 23.821467"></polygon>
                    <polyline id="Fill-53" fill="#CDCDCD" mask="url(#mask-10)" points="4.92905769 16.1094214 3.69754121 17.8174434 3.69754121 30.1750368 6.1714533 31.4451742"></polyline>
                    <path d="M4.45788297,27.0029027 L4.45788297,27.0029027 C3.79371264,27.0029027 3.25030055,27.5463148 3.25030055,28.2104852 L3.25030055,30.9650786 C3.25030055,31.6292489 3.79371264,32.172661 4.45788297,32.172661 C5.12259725,32.172661 5.66600934,31.6292489 5.66600934,30.9650786 L5.66600934,28.2104852 C5.66600934,27.5463148 5.12259725,27.0029027 4.45788297,27.0029027" id="Fill-54" fill="#CDCDCD" mask="url(#mask-10)"></path>
                </g>
            </g>
        </g>
    </g>
</svg>