<svg xmlns="http://www.w3.org/2000/svg" xmlns:xlink="http://www.w3.org/1999/xlink" width="80" height="80" viewBox="0 0 80 80">
    <defs>
        <path id="zakjbv8aoa" d="M0 0H80V80H0z"/>
    </defs>
    <g fill="none" fill-rule="evenodd">
        <g>
            <g transform="translate(-186 -551) translate(186 551)">
                <mask id="vlfp2ptn4b" fill="#fff">
                    <use xlink:href="#zakjbv8aoa"/>
                </mask>
                <g mask="url(#vlfp2ptn4b)">
                    <g>
                        <g fill-rule="nonzero">
                            <path fill="#6B6F74" d="M62.142 28.681c-.176-2.41-.633-4.79-1.363-7.094-.868-.262-1.57-.903-1.91-1.743-.338-.84-.277-1.787.167-2.576-1.168-2.358-2.63-4.559-4.351-6.55-.897.093-1.788-.222-2.426-.859-.638-.636-.954-1.525-.86-2.42-1.836-1.578-3.85-2.937-6-4.05-.8.424-1.748.465-2.58.11-.833-.354-1.46-1.065-1.706-1.934C38.617.718 36.023.192 33.393 0c-.568.699-1.422 1.104-2.324 1.104-.902 0-1.755-.405-2.323-1.104-2.416.175-4.802.631-7.112 1.36-.262.866-.904 1.567-1.746 1.905-.841.338-1.791.277-2.582-.166-2.363 1.165-4.568 2.623-6.563 4.34.093.896-.223 1.785-.86 2.421-.638.636-1.53.952-2.426.858-1.582 1.832-2.945 3.84-4.061 5.986.425.797.466 1.744.111 2.574-.355.831-1.068 1.457-1.939 1.702C.72 23.47.192 26.06 0 28.683.7 29.249 1.107 30.1 1.107 31c0 .9-.407 1.752-1.107 2.319.175 2.41.632 4.79 1.362 7.095.867.264 1.569.905 1.91 1.743.335.84.275 1.785-.166 2.574 1.167 2.357 2.63 4.558 4.35 6.548.898-.093 1.79.223 2.427.859.638.636.954 1.526.86 2.42 1.835 1.579 3.848 2.939 5.999 4.052.8-.421 1.746-.462 2.579-.11.83.356 1.457 1.066 1.706 1.934 2.496.847 5.09 1.373 7.72 1.565.568-.699 1.421-1.105 2.323-1.105.902 0 1.756.406 2.324 1.105 2.415-.175 4.802-.631 7.111-1.36.263-.866.905-1.567 1.746-1.905.842-.338 1.791-.277 2.583.166 2.363-1.164 4.569-2.623 6.565-4.34-.094-.896.222-1.785.86-2.421.638-.637 1.529-.952 2.426-.859 1.582-1.831 2.945-3.84 4.06-5.985-.424-.797-.465-1.743-.11-2.574.355-.83 1.068-1.456 1.939-1.701.848-2.49 1.375-5.079 1.568-7.702-.699-.569-1.105-1.42-1.108-2.32.003-.898.409-1.75 1.108-2.318z" transform="translate(-15 27)"/>
                            <g transform="translate(-15 27) translate(2.33 1.938)">
                                <ellipse cx="28.878" cy="28.812" fill="#555A5F" rx="28.878" ry="28.812" transform="matrix(-1 0 0 1 57.757 0)"/>
                                <path fill="#3B4045" d="M43.577 55.064c-15.943 0-28.848-12.875-28.878-28.782 0-8.134 5.44-18.118 11.487-23.58-14.47 6.722-20.727 23.83-14.018 38.266 6.708 14.436 23.884 20.679 38.354 13.956 2.647-1.23 5.083-2.851 7.25-4.802-3.821 1.77-9.984 4.942-14.195 4.942z" transform="matrix(-1 0 0 1 67.247 0)"/>
                                <ellipse cx="28.102" cy="28.812" fill="#F7FBFF" rx="16.846" ry="16.807" transform="matrix(-1 0 0 1 56.203 0)"/>
                                <path fill="#A5AAAF" d="M29.517 13.175c-9.211 0-16.7 7.446-16.7 16.662 0 9.217 7.463 16.663 16.7 16.663 9.238 0 16.7-7.446 16.7-16.663-.025-9.19-7.488-16.636-16.7-16.662zm1.91 29.062v-7.251h-4.208v7.252c-2.971-.49-5.68-2.04-7.626-4.31l6.39-3.613-2.103-3.587-6.39 3.613c-1.052-2.787-1.052-5.858 0-8.645l6.39 3.613 2.103-3.587-6.39-3.587c1.92-2.297 4.629-3.82 7.626-4.31v7.251h4.208v-7.251c2.971.49 5.68 2.039 7.626 4.31l-6.39 3.612 2.104 3.587 6.39-3.612c1.052 2.787 1.052 5.858 0 8.645l-6.39-3.613-2.104 3.587 6.39 3.613c-1.946 2.245-4.655 3.793-7.626 4.283z" transform="matrix(-1 0 0 1 59.035 0)"/>
                                <path fill="#32393F" d="M28.951 47.275c-9.544 0-18.175-7.754-18.458-18.6-.284-10.846 9.755-18.213 18.847-18.213 9.091 0 18.043 7.367 18.043 18.213s-8.888 18.6-18.432 18.6zM29.13 12.4c-9.209 0-16.7 7.087-16.7 16.275 0 9.188 7.491 16.662 16.7 16.662S45.44 37.864 45.44 28.675c0-9.188-7.103-16.275-16.312-16.275z"/>
                                <ellipse cx="28.878" cy="28.812" fill="#A5AAAF" rx="7.22" ry="7.203" transform="matrix(-1 0 0 1 57.757 0)"/>
                            </g>
                        </g>
                        <g>
                            <path fill="#BF360C" d="M33.305 3.118L32.918 2.729 33.304 3.119 33.305 3.119zM32.207 3.446L32.207 3.445 32.467 3.182z" transform="translate(-15 27) translate(34.199 5.027)"/>
                            <path fill="#FFAB00" d="M27.883 16.228c0-.564-.415-1.022-.927-1.022s-.927.458-.927 1.022v10.435c0 1.968.082 5.532 0 6.731-.082 1.2-.632 3.938-3.78 3.938H.014v1.036L0 39.378h22.25c3.085 0 5.633-1.739 5.633-5.487V16.228z" transform="translate(-15 27) translate(34.199 5.027)"/>
                            <path fill="#72AAB5" stroke="#FFF" stroke-width="4" d="M26.722-2c3.65 0 6.955 1.466 9.348 3.833 2.4 2.375 3.882 5.656 3.882 9.279 0 3.622-1.482 6.904-3.882 9.278-2.393 2.368-5.697 3.833-9.348 3.833-3.651 0-6.956-1.465-9.348-3.833-2.4-2.374-3.883-5.656-3.883-9.278 0-3.623 1.483-6.904 3.883-9.28C19.766-.533 23.07-2 26.722-2h0z" transform="translate(-15 27) translate(34.199 5.027)"/>
                            <path fill="#FFF" d="M26.915 2.34c2.406 0 4.585.981 6.162 2.569.8.806 1.448 1.773 1.89 2.85.427 1.035.662 2.168.662 3.353s-.235 2.317-.662 3.353c-.442 1.077-1.09 2.043-1.89 2.85-.801.806-1.761 1.457-2.831 1.904-1.03.428-2.154.665-3.33.665-1.178 0-2.303-.237-3.331-.665-1.07-.447-2.03-1.098-2.831-1.904-.801-.807-1.448-1.773-1.891-2.85-.426-1.036-.661-2.168-.661-3.353 0-2.423.975-4.616 2.552-6.203.8-.807 1.76-1.458 2.83-1.904 1.03-.429 2.154-.666 3.331-.666" transform="translate(-15 27) translate(34.199 5.027)"/>
                            <path fill="#FFAB00" d="M20.437 11.09c.188.028 12.754.237 12.945.215.19-.022.329-.207.308-.413-.192-1.955-1.086-3.729-2.5-4.964-1.413-1.235-3.204-1.806-5.011-1.597-1.52.175-2.931.895-4.027 2.045-1.097 1.15-1.804 2.657-2.01 4.295-.026.203.107.392.295.42z" transform="translate(-15 27) translate(34.199 5.027)"/>
                            <path fill="#915B3C" d="M31.096 7.95c.388 0 .74.156.994.41.254.253.41.603.41.99 0 .386-.156.736-.41.99-.042.04-.086.078-.132.111-.238.187-.538.298-.862.299-.255 0-.495-.07-.701-.19l-.04.023-3.404 1.828c-.384.206-.863.062-1.07-.32-.206-.383-.062-.86.322-1.067l3.405-1.828c.032-.017.064-.032.098-.044.044-.305.187-.579.397-.788l.237.235.002-.001-.24-.238.011-.01.005-.005.007-.007c.252-.24.595-.389.971-.389" transform="translate(-15 27) translate(34.199 5.027) rotate(-177 29.144 10.227)"/>
                        </g>
                    </g>
                </g>
            </g>
        </g>
    </g>
</svg>
