<?xml version="1.0" encoding="utf-8"?>
<!-- Generator: Adobe Illustrator 23.0.4, SVG Export Plug-In . SVG Version: 6.00 Build 0)  -->
<svg version="1.1" id="Layer_1" xmlns="http://www.w3.org/2000/svg" xmlns:xlink="http://www.w3.org/1999/xlink" x="0px" y="0px"
	 viewBox="0 0 180 180" style="enable-background:new 0 0 180 180;" xml:space="preserve">
<style type="text/css">
	.st0{fill-rule:evenodd;clip-rule:evenodd;fill:#D9E3E9;}
	.st1{fill:#6B6F74;}
	.st2{fill:#555A5F;}
	.st3{fill:#3B4045;}
	.st4{fill:#F7FBFF;}
	.st5{fill:#A5AAAF;}
	.st6{fill:#32393F;}
	.st7{fill-rule:evenodd;clip-rule:evenodd;fill:#BF360C;}
	.st8{fill-rule:evenodd;clip-rule:evenodd;fill:#FFAB00;}
	.st9{fill-rule:evenodd;clip-rule:evenodd;fill:#72AAB5;stroke:#FFFFFF;stroke-width:4;}
	.st10{fill-rule:evenodd;clip-rule:evenodd;fill:#FFFFFF;}
	.st11{fill-rule:evenodd;clip-rule:evenodd;fill:#915B3C;}
</style>
<g>
	<path class="st0" d="M152.8,143.4c27.2,7.5,8.7,23.1-33.4,28.5c-42.1,5.4-101.8-4.6-111.7-16.4C-2.2,143.6,125.6,135.9,152.8,143.4
		z"/>
	<g>
		<path class="st1" d="M153.3,77.1c-0.4-5.9-1.6-11.8-3.4-17.4c-2.1-0.6-3.9-2.2-4.7-4.3c-0.8-2.1-0.7-4.4,0.4-6.3
			c-2.9-5.8-6.5-11.2-10.7-16.1c-2.2,0.2-4.4-0.5-6-2.1c-1.6-1.6-2.4-3.7-2.1-5.9c-4.5-3.9-9.5-7.2-14.8-9.9c-2,1-4.3,1.1-6.4,0.3
			c-2.1-0.9-3.6-2.6-4.2-4.7c-6.2-2.1-12.6-3.4-19-3.8c-1.4,1.7-3.5,2.7-5.7,2.7c-2.2,0-4.3-1-5.7-2.7c-6,0.4-11.8,1.6-17.5,3.3
			c-0.6,2.1-2.2,3.8-4.3,4.7c-2.1,0.8-4.4,0.7-6.4-0.4c-5.8,2.9-11.3,6.4-16.2,10.7c0.2,2.2-0.5,4.4-2.1,5.9c-1.6,1.6-3.8,2.3-6,2.1
			c-3.9,4.5-7.3,9.4-10,14.7c1,2,1.1,4.3,0.3,6.3c-0.9,2-2.6,3.6-4.8,4.2C1.8,64.3,0.5,70.7,0,77.1c1.7,1.4,2.7,3.5,2.7,5.7
			c0,2.2-1,4.3-2.7,5.7c0.4,5.9,1.6,11.8,3.4,17.4c2.1,0.7,3.9,2.2,4.7,4.3c0.8,2.1,0.7,4.4-0.4,6.3c2.9,5.8,6.5,11.2,10.7,16.1
			c2.2-0.2,4.4,0.5,6,2.1c1.6,1.6,2.4,3.7,2.1,5.9c4.5,3.9,9.5,7.2,14.8,9.9c2-1,4.3-1.1,6.4-0.3c2,0.9,3.6,2.6,4.2,4.7
			c6.2,2.1,12.6,3.4,19,3.8c1.4-1.7,3.5-2.7,5.7-2.7c2.2,0,4.3,1,5.7,2.7c6-0.4,11.8-1.6,17.5-3.3c0.6-2.1,2.2-3.8,4.3-4.7
			c2.1-0.8,4.4-0.7,6.4,0.4c5.8-2.9,11.3-6.4,16.2-10.7c-0.2-2.2,0.5-4.4,2.1-5.9c1.6-1.6,3.8-2.3,6-2.1c3.9-4.5,7.3-9.4,10-14.7
			c-1-2-1.1-4.3-0.3-6.3c0.9-2,2.6-3.6,4.8-4.2c2.1-6.1,3.4-12.5,3.9-18.9c-1.7-1.4-2.7-3.5-2.7-5.7
			C150.5,80.6,151.5,78.5,153.3,77.1L153.3,77.1z"/>
		<g transform="translate(5.588 4.625)">
			<ellipse class="st2" cx="71.4" cy="77.6" rx="71.2" ry="70.7"/>
			<path class="st3" d="M58.5,142c39.3,0,71.1-31.6,71.2-70.7c0-20-13.4-44.5-28.3-57.9c35.7,16.5,51.1,58.5,34.6,94
				c-16.5,35.4-58.9,50.8-94.6,34.3c-6.5-3-12.5-7-17.9-11.8C33,134.2,48.1,142,58.5,142z"/>
			<ellipse class="st4" cx="69.5" cy="77.6" rx="41.5" ry="41.3"/>
			<path class="st5" d="M73,39.2c22.7,0,41.2,18.3,41.2,40.9c0,22.6-18.4,40.9-41.2,40.9c-22.8,0-41.2-18.3-41.2-40.9
				C31.8,57.5,50.2,39.2,73,39.2z M68.2,110.5V92.7h10.4v17.8c7.3-1.2,14-5,18.8-10.6l-15.8-8.9l5.2-8.8l15.8,8.9
				c2.6-6.8,2.6-14.4,0-21.2l-15.8,8.9L81.7,70l15.8-8.8c-4.7-5.6-11.4-9.4-18.8-10.6v17.8H68.2V50.6c-7.3,1.2-14,5-18.8,10.6
				L65.2,70L60,78.8L44.3,70c-2.6,6.8-2.6,14.4,0,21.2L60,82.3l5.2,8.8L49.4,100C54.2,105.5,60.9,109.3,68.2,110.5z"/>
			<path class="st6" d="M71.6,122.9c-23.5,0-44.8-19-45.5-45.7c-0.7-26.6,24.1-44.7,46.5-44.7S117,50.6,117,77.2
				S95.1,122.9,71.6,122.9z M72,37.3c-22.7,0-41.2,17.4-41.2,40s18.5,40.9,41.2,40.9c22.7,0,40.2-18.4,40.2-40.9S94.7,37.3,72,37.3z
				"/>
			<ellipse class="st5" cx="71.4" cy="77.6" rx="17.8" ry="17.7"/>
		</g>
	</g>
	<g>
		<path class="st7" d="M166.5,26.7l-1-1L166.5,26.7L166.5,26.7L166.5,26.7z M163.8,27.5L163.8,27.5l0.6-0.6L163.8,27.5z"/>
		<path class="st8" d="M153.1,58.9c0-1.4-1-2.5-2.3-2.5c-1.3,0-2.3,1.1-2.3,2.5v25.6c0,4.8,0.2,13.6,0,16.5
			c-0.2,2.9-1.6,9.7-9.3,9.7H84.4v2.5l0,2.5h54.9c7.6,0,13.9-4.3,13.9-13.5L153.1,58.9L153.1,58.9z"/>
		<path class="st9" d="M150.2,17c8.2,0,15.6,3.3,21,8.6c5.4,5.3,8.7,12.7,8.7,20.8c0,8.1-3.3,15.4-8.7,20.8
			c-5.4,5.3-12.8,8.6-21,8.6c-8.2,0-15.6-3.3-21-8.6c-5.4-5.3-8.7-12.7-8.7-20.8c0-8.1,3.3-15.4,8.7-20.8
			C134.6,20.3,142,17,150.2,17L150.2,17z"/>
		<path class="st10" d="M150.7,24.8c5.9,0,11.3,2.4,15.2,6.3c2,2,3.6,4.4,4.7,7c1.1,2.5,1.6,5.3,1.6,8.2c0,2.9-0.6,5.7-1.6,8.2
			c-1.1,2.6-2.7,5-4.7,7c-2,2-4.3,3.6-7,4.7c-2.5,1.1-5.3,1.6-8.2,1.6c-2.9,0-5.7-0.6-8.2-1.6c-2.6-1.1-5-2.7-7-4.7
			c-2-2-3.6-4.4-4.7-7c-1.1-2.5-1.6-5.3-1.6-8.2c0-5.9,2.4-11.3,6.3-15.2c2-2,4.3-3.6,7-4.7C145,25.4,147.8,24.8,150.7,24.8"/>
		<path class="st8" d="M134.7,46.3c0.5,0.1,31.5,0.6,31.9,0.5c0.5-0.1,0.8-0.5,0.8-1c-0.5-4.8-2.7-9.2-6.2-12.2
			c-3.5-3-7.9-4.4-12.4-3.9c-3.7,0.4-7.2,2.2-9.9,5s-4.4,6.5-5,10.5C134,45.7,134.3,46.2,134.7,46.3z"/>
		<path class="st11" d="M151.1,49.5c-1,0-1.8-0.5-2.4-1.1c-0.6-0.7-0.9-1.5-0.9-2.5c0-0.9,0.5-1.8,1.1-2.4c0.1-0.1,0.2-0.2,0.3-0.3
			c0.6-0.4,1.4-0.7,2.2-0.6c0.6,0,1.2,0.2,1.7,0.6c0,0,0.1,0,0.1-0.1l8.6-4c1-0.5,2.1,0,2.6,0.9c0.5,1,0,2.1-0.9,2.6l-8.6,4
			c-0.1,0-0.2,0.1-0.2,0.1c-0.1,0.7-0.5,1.4-1.1,1.9l-0.6-0.6l0,0l0.6,0.6l0,0l0,0l0,0C152.9,49.2,152,49.5,151.1,49.5"/>
	</g>
</g>
</svg>
