<svg xmlns="http://www.w3.org/2000/svg" xmlns:xlink="http://www.w3.org/1999/xlink" width="80" height="81" viewBox="0 0 80 81">
    <defs>
        <path id="qga4tuvjwa" d="M39.957.07C17.948.07.106 17.913.106 39.922c0 22.01 17.842 39.851 39.851 39.851 22.01 0 39.852-17.842 39.852-39.851"/>
        <path id="kvb8le605c" d="M39.957.07C17.948.07.106 17.913.106 39.922c0 22.01 17.842 39.851 39.851 39.851 22.01 0 39.852-17.842 39.852-39.851C79.809 17.912 61.967.07 39.957.07z"/>
    </defs>
    <g fill="none" fill-rule="evenodd">
        <g>
            <g>
                <path fill="#F0F0F0" d="M.106 40C.106 17.99 17.948.15 39.958.15 61.967.149 79.809 17.99 79.809 40c0 22.01-17.842 39.852-39.851 39.852C17.948 79.852.106 62.01.106 40" transform="translate(-141 -983) translate(141 983)"/>
                <g transform="translate(-141 -983) translate(141 983) translate(0 .078)">
                    <g>
                        <mask id="t017zvq52b" fill="#fff">
                            <use xlink:href="#qga4tuvjwa"/>
                        </mask>
                        <path fill="#263238" d="M6.113 40.566c-.48-.017-.821-.483-.97-.94-.147-.456-.18-.957-.422-1.373-.216-.367-.57-.62-.853-.944-1.087-1.219-.98-3.088.238-4.175.404-.36.9-.603 1.434-.701.693-.127 1.49.04 1.903.607.487.659.31 1.574.096 2.366-.214.793-.434 1.684-.008 2.382.258.42.704.682 1.104.954.4.272.827.61.958 1.085s-.186 1.092-.68 1.077" mask="url(#t017zvq52b)"/>
                    </g>
                    <mask id="w5rzpe969d" fill="#fff">
                        <use xlink:href="#kvb8le605c"/>
                    </mask>
                    <path fill="#E0E0E0" d="M54.533 59.235L62.276 59.235 62.276 46.201 54.533 46.201zM22.155 50.32c.057.017.111.043.16.076.102.054.247.133.423.234.355.194.842.485 1.377.805.535.32 1.018.61 1.357.826.175.106.314.194.41.258.051.03.1.065.143.106-.057-.02-.11-.045-.161-.075-.101-.055-.247-.134-.423-.235-.355-.194-.841-.487-1.376-.804-.535-.319-1.018-.611-1.357-.827-.175-.106-.315-.193-.41-.257-.052-.03-.1-.066-.143-.107M29.786 63.104L23.339 63.104 25.443 79.029 27.682 79.029z" mask="url(#w5rzpe969d)"/>
                    <path fill="#F5F5F5" d="M23.675 65.06s0 .023.035.058c.042.049.095.087.155.11.227.083.48.054.682-.077.26-.143.487-.426.836-.55.386-.124.803-.116 1.184.023.389.134.76.313 1.106.535.288.18.588.342.897.483.21.095.433.16.661.194.064.009.13.014.194.013h.064c-.305-.047-.603-.137-.884-.265-.302-.15-.595-.317-.878-.499-.35-.231-.726-.417-1.123-.552-.403-.146-.844-.15-1.25-.014-.172.071-.332.17-.471.293-.117.103-.24.198-.369.285-.183.127-.413.167-.628.109-.08-.033-.152-.083-.211-.146M23.91 67.993s.05-.064.15-.17c.147-.144.323-.255.516-.326.287-.104.591-.15.896-.136.377.028.752.08 1.123.154.378.073.764.089 1.147.048.313-.04.617-.128.904-.26.192-.087.375-.195.545-.322.064-.042.121-.095.17-.155-.237.155-.486.292-.744.41-.283.117-.582.195-.886.23-.375.035-.752.016-1.12-.056-.375-.074-.754-.122-1.135-.145-.317-.01-.633.045-.927.162-.2.08-.376.207-.517.369-.038.044-.07.092-.1.143-.017.035-.026.052-.023.054M29.055 69.564c-.053-.041-.113-.072-.177-.091-.171-.065-.352-.103-.535-.115-.27-.017-.54-.002-.806.045-.3.05-.624.132-.97.203-.317.076-.643.113-.969.11-.262-.007-.52-.063-.762-.166-.221-.102-.419-.249-.581-.43.024.063.062.12.11.169.122.138.27.25.436.329.248.117.516.183.79.194.331.009.663-.025.986-.1.341-.074.661-.16.956-.212.26-.05.523-.073.787-.068.25.013.496.058.735.132" mask="url(#w5rzpe969d)"/>
                    <path fill="#E0E0E0" d="M33.796 25.083c.09.061.173.132.248.212.143.138.34.331.552.547.212.215.404.415.54.562.077.074.146.157.205.248-.09-.06-.172-.132-.245-.211-.145-.138-.34-.33-.556-.547-.215-.217-.403-.417-.537-.562-.079-.074-.148-.158-.207-.249" mask="url(#w5rzpe969d)"/>
                    <path fill="#F5F5F5" d="M75.683 71.215L81.986 71.215 81.986 59.468 75.683 59.468z" mask="url(#w5rzpe969d)"/>
                    <path fill="#F5F5F5" d="M76.244 71.215L83.049 71.215 83.049 59.468 76.244 59.468zM68.63 71.215L75.984 71.215 75.984 59.468 68.63 59.468zM68.63 59.235L75.984 59.235 75.984 46.201 68.63 46.201z" mask="url(#w5rzpe969d)"/>
                    <path fill="#E0E0E0" d="M44.97 45.257L51.273 45.257 51.273 31.768 44.97 31.768zM45 27.411L51.303 27.411 51.303 13.922 45 13.922zM44.97 59.235L51.273 59.235 51.273 46.201 44.97 46.201z" mask="url(#w5rzpe969d)"/>
                    <path fill="#F5F5F5" d="M67.835 59.235L74.64 59.235 74.64 46.201 67.835 46.201z" mask="url(#w5rzpe969d)"/>
                    <path fill="#E0E0E0" d="M54.533 45.257L62.276 45.257 62.276 31.768 54.533 31.768zM54.563 27.411L62.306 27.411 62.306 13.922 54.563 13.922z" mask="url(#w5rzpe969d)"/>
                    <path fill="#F5F5F5" d="M44.97 71.215L51.273 71.215 51.273 59.468 44.97 59.468zM51.533 71.215L59.276 71.215 59.276 59.468 51.533 59.468zM67.835 71.215L74.64 71.215 74.64 59.468 67.835 59.468zM60.22 71.215L67.574 71.215 67.574 59.468 60.22 59.468zM60.22 59.235L67.574 59.235 67.574 46.201 60.22 46.201z" mask="url(#w5rzpe969d)"/>
                    <path fill="#263238" d="M54.464 77.003L55.213 90.254 56.696 90.254 56.713 77.04z" mask="url(#w5rzpe969d)"/>
                    <path fill="#7AB8C8" d="M53.274 68.45h26.814c.7 0 1.268.567 1.268 1.267v7.028c0 .7-.568 1.268-1.268 1.268H53.274c-.7 0-1.268-.568-1.268-1.268v-7.028c0-.7.568-1.268 1.268-1.268M82.692 64.172c.35-2.646.638-5.498-.634-7.844-1.322-2.439-4.236-3.821-6.999-3.573-2.762.248-5.28 1.997-6.735 4.358-1.454 2.362-1.896 5.268-1.508 8.013" mask="url(#w5rzpe969d)"/>
                    <path fill="#28415C" d="M61.97 62.129L51.197 60.43c-1.061-.164-2.141.134-2.967.82-.898.742-1.4 1.86-1.357 3.024l.766 19.599h6.66V68.649l6.378.118 5.058-4.46 3.649-.647 2.714-1.655-10.126.124z" mask="url(#w5rzpe969d)"/>
                    <path fill="#B28B67" d="M49.257 50.888L46.139 49.3c-.812-.35-1.122-.552-1.047-.7.101-.193.055-.125 1.621.303 0 0-2.231-.632-1.64-.874.103-.043.461.011.853.093-.566-.194-.775-.388-.744-.537.058-.256 1.394.056 2.014.215-.512-.138-1.487-.411-1.69-.537-.278-.173.096-.299.436-.314.387-.02 2.61.194 3.257.22.212.03.408-.117.438-.329l.004-.046c-.134-.93.257-1.724.465-1.89.207-.167.504.063.423.346-.058.314-.072.633-.043.95.013.254.07.504.167.739.112.273.219.5.314.69l2.55 2.532-2.048 2.596-2.212-1.869z" mask="url(#w5rzpe969d)"/>
                    <path fill="#9B7556" d="M47.526 49.217c-.01.039-.497-.072-1.086-.248-.59-.177-1.057-.353-1.043-.388.013-.035.498.074 1.086.25.587.177 1.052.347 1.043.386M47.935 48.56c-.01.04-.533-.05-1.164-.194-.63-.144-1.147-.305-1.138-.345.01-.04.533.05 1.164.194.63.143 1.147.306 1.138.345M48.253 47.996c-.01.04-.506-.037-1.113-.171s-1.088-.275-1.08-.316c.008-.04.508.037 1.113.173.605.135 1.087.275 1.08.314" mask="url(#w5rzpe969d)"/>
                    <path fill="#263238" d="M63.035 29.345c.795-.242 1.621.467 2.435.308.495-.096.869-.492 1.309-.736.697-.382 1.534-.414 2.259-.088.672.342 1.105.706 1.196 1.455.61-.351 1.632.418 1.98 1.163.346.744.259 1.51.061 2.305-.34 1.375-.949 2.67-1.79 3.81-.073.1-.193.21-.304.158-.073-.05-.117-.132-.118-.22-.116-.728-.025-1.47.039-2.205.064-.735.093-1.49-.138-2.19-.23-.7-.775-1.338-1.502-1.482-.544-.076-1.097.042-1.563.334-.475.265-.892.622-1.343.926-.44.327-.96.528-1.505.582-.545.025-1.126-.233-1.357-.725-.23-.492.03-1.192.56-1.305-.588-.053-1.023-.573-.97-1.161.039-.435.338-.802.755-.929h-.004z" mask="url(#w5rzpe969d)"/>
                    <path fill="#B28B67" d="M71.131 33.975l-.787 8.228c-.134 1.4-1.601 3.474-2.993 3.27-1.297-.194-2.028-2.437-1.902-3.743.06-.619.109-1.136.11-1.2 0 0-2.074-.398-2.027-2.486.023-1.008.238-3.082.457-4.957.229-2.016 1.973-3.514 4-3.437h.193c2.176.21 3.213 2.165 2.95 4.325" mask="url(#w5rzpe969d)"/>
                    <path fill="#9B7556" d="M65.558 40.506c.962.053 1.919-.184 2.747-.678 0 0-.696 1.48-2.77 1.217l.023-.539z" mask="url(#w5rzpe969d)"/>
                    <path fill="#B28B67" d="M70.908 35.514c.035-.013 1.449-.374 1.357 1.05-.09 1.426-1.508 1.036-1.506.996.002-.041.15-2.046.15-2.046" mask="url(#w5rzpe969d)"/>
                    <path fill="#263238" d="M63.563 32.639c.928.273 1.931.084 2.696-.51.524-.413.937-1.018 1.58-1.19.443-.102.907-.021 1.29.223.378.243.702.562.951.936-.44 1.047-.21 2.241.026 3.35.011.126.065.244.153.335.165.136.42.043.581-.104.226-.258.372-.577.42-.917.176-.76.199-1.547.067-2.315-.134-.77-.491-1.485-1.027-2.055-.7-.693-1.64-1.087-2.625-1.097-.98-.004-1.934.3-2.73.87-.38.246-.694.582-.911.98" mask="url(#w5rzpe969d)"/>
                    <path fill="#455A64" d="M62.419 29.828c-.006.041-.002.084.01.124.031.118.099.223.193.3.151.119.336.187.528.194.118.011.237.008.354-.01.135-.016.263-.07.369-.154.12-.094.19-.236.194-.388-.017-.17-.13-.317-.291-.376-.081-.034-.169-.048-.256-.041-.09.009-.177.044-.248.1-.145.123-.229.302-.23.491-.004.198.07.39.207.533.138.146.313.253.506.31.406.109.837.077 1.223-.089.381-.157.743-.358 1.078-.599.306-.22.63-.414.97-.581.308-.143.647-.21.988-.194.297.02.585.105.845.25.377.214.692.52.915.892.062.1.12.204.17.31.018.038.036.075.057.11v-.03c0-.02-.017-.049-.035-.086-.046-.11-.099-.215-.159-.318-.22-.382-.536-.7-.917-.923-.265-.15-.561-.241-.866-.263-.351-.017-.7.053-1.018.203-.347.165-.678.36-.991.582-.33.238-.688.436-1.064.591-.371.16-.786.192-1.177.09-.182-.054-.347-.154-.477-.291-.126-.13-.196-.304-.194-.485 0-.17.074-.333.204-.444.125-.1.296-.12.442-.054.142.048.243.174.26.323 0 .139-.063.27-.171.355-.1.08-.219.133-.345.151-.114.017-.23.022-.345.014-.188-.01-.367-.077-.514-.194-.092-.073-.16-.171-.194-.283-.01-.04-.017-.08-.021-.12M72.424 32.682c-.143.046-.29.079-.44.099-.161.008-.324-.015-.477-.068-.187-.066-.364-.158-.525-.276-.292-.217-.505-.523-.607-.872-.036-.147-.062-.296-.077-.446-.013.04-.017.082-.014.124.001.113.016.226.045.336.09.367.306.691.61.916.168.121.353.215.55.28.16.054.33.073.5.054.112-.012.223-.041.327-.087.039-.014.076-.035.108-.06M72.328 33.72c0-.013-.17.018-.439 0-.713-.061-1.337-.507-1.626-1.162-.11-.247-.136-.415-.15-.413-.002.04.002.08.012.12.02.107.05.211.091.312.137.337.366.628.661.84.296.21.646.33 1.008.348.11.007.218.001.326-.015.04-.004.08-.014.117-.03" mask="url(#w5rzpe969d)"/>
                    <path fill="#28415C" d="M69.323 63.507c-.175.016-11.245 1.326-12.978 2.302-.96.538-.875 1.48-1.024 1.882-.582 1.574-.087 3.168.73 4.636l8.113 14.152 5.145-3.46-5.17-11.3 7.915-.775c1.788-.25 3.23-1.59 3.61-3.356l.942-4.366-7.283.285z" mask="url(#w5rzpe969d)"/>
                    <path fill="#7D89DE" d="M74.755 56.287l.417-13.334-4.202-.896-.453-.738-2.823 1.814-.566 1.274-.685-1.454-1.017-.776-.466.908-3.158 1.299c-.294.121-.534.344-.676.628l-3.55 7.084-6.293-4.358-1.949 3.431 7.29 6.204c1.359.867 3.16.512 4.087-.806l1.869-2.654.775 4.459.128 4.53 5.487 1.022 7.683-.713-1.898-6.924z" mask="url(#w5rzpe969d)"/>
                    <path fill="#000" d="M68.694 63.866c2.687.273 5.383-.42 7.604-1.954l-.419-1.528-7.185 3.482z" mask="url(#w5rzpe969d)"/>
                    <path fill="#7585D1" d="M75.172 42.953s-2.614.803-2.817 3.449c-.204 2.646-.303 10.229-.303 10.229s-.407.304-.306.61c.1.307-7.532 4.58-7.532 4.58l1.522 2.66s4.864-.582 10.318-3.438c2.788-1.46 1.69-12.904 1.638-13.057-.052-.153-.73-5.039-2.52-5.033" mask="url(#w5rzpe969d)"/>
                    <path fill="#6274B7" d="M71.858 57.338c.358.358.562.842.57 1.348-.009.147-.002.295.02.442.026.148.132.27.275.318.209.02.396-.13.423-.338.017-.201-.026-.404-.122-.581-.237-.537-.57-1.082-1.111-1.307M57.514 52.053c.308.351.539 1.268.508 1.734-.031.465-.146.581-.103 1.05.01.086-.138.117-.07.169.117.064.263.022.327-.095.007-.013.013-.028.018-.043.038-.14.03-.288-.021-.424.007.164.146.29.31.283.018 0 .038-.003.056-.008.174-.056.3-.207.326-.388.024-.177.011-.357-.037-.529-.063-.403-.194-.792-.388-1.152-.203-.362-.56-.613-.969-.684" mask="url(#w5rzpe969d)"/>
                    <path fill="#7AB8C8" d="M69.54 78.013c-.813-3.63.581-9.86 3.158-12.534 2.658-2.697 6.473-3.912 10.201-3.25v15.962l-13.36-.178z" mask="url(#w5rzpe969d)"/>
                    <path fill="#B28B67" d="M64.379 62.096c-.433-.011-.864-.068-1.286-.169-.501-.156-1.026-.222-1.55-.194-.361.057-1.288.421-1.88.582-.59.16-1.065.027-1.094.308-.03.281.28.63.87.63 0 0-.646.214-.533.353.112.14.308.479.581.479.014.284.226.518.506.562 0 0 .17.42.983.617 0 0-.062.366.559.479.62.112 4.104-1.462 4.104-1.462l-1.26-2.185z" mask="url(#w5rzpe969d)"/>
                    <path fill="#D3AA89" d="M12.662 35.57c-.09-1.37-1.003-3.05-2.368-2.908L6.03 33.75c-.415.044-.727.399-.717.816l.479 10.275h-.03s.97 2.908 3.789 2.015c.558-.177.814-.787.925-1.416h.029v-.215c.055-.468.06-.941.017-1.411V42.65s1.745-.295 2.108-2.58c.192-1.116.131-2.979.033-4.5" mask="url(#w5rzpe969d)"/>
                    <path fill="#B28B67" d="M10.537 42.67c-1.076.02-2.136-.26-3.061-.807 0 0 .744 1.569 3.03 1.358l.03-.551z" mask="url(#w5rzpe969d)"/>
                    <path fill="#1D279D" d="M18.739 57.945L20.785 53.592 17.766 51.945 16.206 53.853 17.398 57.133z" mask="url(#w5rzpe969d)"/>
                    <path fill="#1D279D" d="M11.008 45.648c1.403.505 2.549 1.548 3.183 2.898l4.34 9.232 3.737 1.515-3.296.95-2.935-2.15-5.03-12.445z" mask="url(#w5rzpe969d)"/>
                    <path fill="#FAFAFA" d="M18.976 60.242l-1.582 1.214-7.856-8.08-4.49-8.112.52-1.508 3.49 1.446 1.002 1.262.517-1.757.223.316.363.982s3.408 2.836 4.145 5.085c.613 1.878.42 5.756.795 6.809l2.873 2.343z" mask="url(#w5rzpe969d)"/>
                    <path fill="#1D279D" d="M4.21 45.16c-.052.156-3.357 1.484-3.514 2.642C.539 48.959 3.07 57.908 3.07 57.908l4.015 3.548h10.308l-3.27-6.124c-.706-1.32-1.597-2.532-2.647-3.599-.97-.98-2.133-2.194-2.743-2.917-.654-.785-3.424-4.46-3.424-4.46l-1.1.803z" mask="url(#w5rzpe969d)"/>
                    <path fill="#17208C" d="M12.644 59.924c.6.103 1.214.194 1.81.092.598-.103 1.183-.49 1.37-1.068.03-.19.107-.367.225-.518.228-.213.597-.082.909-.11.352-.054.66-.27.83-.582.166-.31.283-.642.347-.987.05-.167.07-.34.062-.514-.013-.175-.113-.332-.268-.417-.237-.106-.502.049-.713.194-1.7 1.225-3.25 2.643-4.795 4.058" mask="url(#w5rzpe969d)"/>
                    <path fill="#455A64" d="M39.323 72.255l2.995 3.755s4.824-1.785 5.444-1.146l-7.07 6.072-4.91-5.657 3.54-3.024z" mask="url(#w5rzpe969d)"/>
                    <path fill="#FFF" d="M40.692 80.936l-.471-.581 6.954-5.601s.432-.134.581.118l-7.064 6.064z" mask="url(#w5rzpe969d)"/>
                    <path fill="#000" d="M39.914 72.999L40.449 73.668 36.948 76.621 36.442 76.039z" mask="url(#w5rzpe969d)"/>
                    <path fill="#1D279D" d="M7.809 50.543l2.392 5.107 5.305-2.305s2.2 1.285 1.896 2.689l-4.78 3.925c-.904.743-2.073 1.083-3.235.94-1.248-.152-2.366-.846-3.057-1.897L2.87 53.738.932 50.576c-.635-1.008-.602-2.298.082-3.272.184-.256.416-.473.682-.64.869-.526 3.434-.754 6.113 3.88" mask="url(#w5rzpe969d)"/>
                    <path fill="#B28B67" d="M17.5 56.04l.053-.032.153-.081.6-.299 2.184-1.085h-.01c.252-.268.479-.558.679-.865.112-.158.179-.344.194-.537.018-.202-.003-.405-.062-.6v-.03c.055-.253-.014-.516-.184-.71l-.024-.03.024-.03c.137-.182.275-.376.399-.581.073-.084.109-.193.1-.303-.028-.106-.098-.197-.193-.254h.045c-.03.01-.062 0-.078-.027-.005-.016-.005-.033 0-.048.002-.016.006-.03.012-.045.011-.023.02-.045.033-.066l.075-.12c.05-.078.11-.155.16-.229.097-.153.148-.332.147-.514 0-.081-.012-.162-.037-.24l.073.025-2.053 1.223-.134.08.064-.142.214-.463.062.064c-.88.405-1.697.775-2.38 1.12-.14.112-.258.251-.344.41-.095.15-.178.3-.254.444-.153.288-.28.554-.388.787l-.868.438-.227.112c-.026.014-.054.025-.082.033.024-.017.049-.032.074-.046l.223-.122.857-.46-.012.012c.103-.237.225-.504.374-.795.074-.147.158-.299.25-.452.048-.08.1-.157.156-.23.056-.083.129-.154.213-.208.69-.366 1.499-.73 2.379-1.142l.116-.052-.054.116c-.068.151-.14.307-.212.463l-.067-.062 2.05-1.227.055-.033.02.058c.027.09.042.182.044.276.001.202-.056.4-.165.57-.056.085-.11.153-.16.23-.026.037-.05.076-.07.113-.011.018-.021.037-.03.056v.021h-.05c-.008 0 0 0 0 0 0 .028-.012-.038-.01-.03h.043c.119.07.205.187.238.321.013.07.006.142-.02.208-.028.057-.058.113-.092.166-.13.208-.268.4-.41.582v-.027c.087.117.153.248.195.388.042.136.042.282 0 .418v-.033c.064.207.087.425.066.64-.006.105-.03.209-.07.307-.04.093-.088.183-.144.269-.205.311-.438.603-.696.872l-2.2 1.055-.607.285-.16.072c-.025.01-.05.014-.076.015" mask="url(#w5rzpe969d)"/>
                    <path fill="#B28B67" d="M19.897 50.448c-.258.222-.537.416-.834.582-.278.191-.575.355-.886.488.258-.221.537-.416.834-.581.279-.192.575-.355.886-.489M21.494 50.394c-.223.29-.472.558-.744.802-.248.275-.521.526-.816.749.223-.29.472-.56.744-.805.248-.274.521-.524.816-.746M21.281 51.629c-.089.18-.207.346-.349.488-.118.163-.262.306-.426.423.088-.181.206-.346.349-.489.117-.163.261-.306.426-.422M21.353 52.458c.021.018-.066.154-.178.315-.113.16-.21.289-.233.275-.023-.014.035-.169.15-.333.114-.165.242-.276.26-.257" mask="url(#w5rzpe969d)"/>
                    <path fill="#1D279D" d="M31.562 61.456L40.31 73.081 36.219 76.596 32.006 71.088z" mask="url(#w5rzpe969d)"/>
                    <path fill="#1D279D" d="M13.04 62.01s14.075-4.286 15.364-4.232c1.29.055 3.736 4.71 3.736 4.71l-3.951-.144-4.996 7.63-8.079-.387-2.074-7.576z" mask="url(#w5rzpe969d)"/>
                    <path fill="#1D279D" d="M27.815 62.268h3.95c1.972.001 3.729 1.244 4.386 3.102.308.876.443 1.803.398 2.73l-.307 16.076h-5.32l-.097-5.138-.672-9.765-4.605.194-2.61-.163 4.877-7.036z" mask="url(#w5rzpe969d)"/>
                    <path fill="#17208C" d="M22.939 69.306c1.074.204 2.25-.134 3.17-.723.926-.601 1.59-1.53 1.86-2.602.119-.475.154-.97.272-1.446.092-.486.345-.927.72-1.25.45-.346 1.55-.565 1.888-1.026 0-.07-1.315.087-1.745.11-.481.027-1.286.153-1.268.095-.127.479-.282.95-.463 1.41" mask="url(#w5rzpe969d)"/>
                    <path fill="#7AB8C8" d="M.74 50.446s-2.093.084-2.737.97c-1.13 1.55-.494 2.892-.558 3.35-.064.457 3.561 25.926 3.561 25.926h1.493l26.983.25 1.29-3.154-.625-8.513-7.214.031s-2.947-8.48-5.539-9.046c-1.745-.388-5.857-.248-8.327-.12-1.233.064-2.408-.535-3.079-1.573L.74 50.447z" mask="url(#w5rzpe969d)"/>
                    <path fill="#263238" d="M4.141 33.657c-.014-.48.43-.851.876-1.028.446-.176.944-.242 1.344-.51.353-.238.581-.608.888-.91 1.146-1.163 3.018-1.176 4.18-.03.387.381.66.86.793 1.386.17.685.054 1.491-.485 1.939-.626.527-1.551.41-2.356.246-.804-.163-1.708-.326-2.377.144-.403.285-.636.746-.882 1.163-.246.417-.556.865-1.021 1.025-.466.161-1.102-.116-1.119-.61" mask="url(#w5rzpe969d)"/>
                    <path fill="#263238" d="M5.482 40.236s.985.234.875-1.727c0 0-1.643-2.148.36-2 0 0-.546-1.901 1.908-1.89l-3.313-.053-.733 2.202.903 3.468z" mask="url(#w5rzpe969d)"/>
                    <path fill="#FAB424" d="M21.62 49.348c.075.17.491 1.848 1.049 2.608.636.87 1.04 1.069 1.04 1.069l2.429-.068s1.732-1.14 1.732-3.771c0 0-.486-.595-3.122-.493-1.771-.023-2.506.292-3.128.655" mask="url(#w5rzpe969d)"/>
                    <path fill="#FAB424" d="M22.76 51.996c-.47.281-1.276.401-1.75.13-.646-.346-.889-1.149-.544-1.794.24-.446.711-.717 1.217-.699l.192.729s-1.023.212-.729.82c.295.606 1.144.03 1.144.03l.47.784z" mask="url(#w5rzpe969d)"/>
                    <path fill="#FF931A" d="M27.415 49.034c1.597.334-3.25.718-5.09.221-.024-.007-.037-.033-.03-.058.005-.014.016-.025.03-.03.48-.173 2.316-.713 5.09-.133" mask="url(#w5rzpe969d)"/>
                    <path fill="#D3AA89" d="M16.605 52.862s.632-1.452.97-1.654c.337-.202 2.398-1.14 2.398-1.14l-.212.461 2.053-1.225c.088.297.029.617-.159.863-.32.438-.213.4-.213.4s.347.207.173.517c-.143.239-.3.469-.47.688 0 0 .32.388.194.756.078.246.094.507.047.76-.076.442-.875 1.284-.875 1.284l-3.988 1.898-1.607-2.73 1.689-.878z" mask="url(#w5rzpe969d)"/>
                </g>
            </g>
        </g>
    </g>
</svg>
