<svg xmlns="http://www.w3.org/2000/svg" xmlns:xlink="http://www.w3.org/1999/xlink" width="80" height="80" viewBox="0 0 80 80">
    <defs>
        <path id="5un2yheqic" d="M0.134 0.076L120.582 0.076 120.582 0.273 0.134 0.273z"/>
        <path id="3m0o4e5ote" d="M0 81.216L131.301 81.216 131.301 0 0 0z"/>
        <path id="orae7g05hg" d="M0.116 0.007L10.909 0.007 10.909 15.532 0.116 15.532z"/>
        <path id="lovtfzxxri" d="M0.086 0.135L7.696 0.135 7.696 12.234 0.086 12.234z"/>
        <path id="htgiz683zk" d="M0.159 0.06L14.882 0.06 14.882 24.467 0.159 24.467z"/>
        <path id="s4sqqntulm" d="M0.076 0.12L6.346 0.12 6.346 8.571 0.076 8.571z"/>
        <path id="a65oeu1g0o" d="M0 0.054L12.955 0.054 12.955 4.413 0 4.413z"/>
        <circle id="hpuidob7ya" cx="40" cy="40" r="40"/>
    </defs>
    <g fill="none" fill-rule="evenodd">
        <g>
            <g transform="translate(-207 -405) translate(207 405)">
                <mask id="46js3ppb6b" fill="#fff">
                    <use xlink:href="#hpuidob7ya"/>
                </mask>
                <use fill="#F6F6F6" xlink:href="#hpuidob7ya"/>
                <g mask="url(#46js3ppb6b)">
                    <g>
                        <g transform="translate(-53 -15)">
                            <path fill="#F2F2F2" d="M131.3 57.5c-2.34-2.358-5.737-3.308-9.026-3.697-3.29-.388-6.64-.317-9.87-1.057-7.96-1.828-14.051-8.283-21.614-11.386-6.358-2.577-13.44-2.685-19.873-.304-4.963 1.869-9.608 5.218-14.903 5.16-4.004-.045-8.004-2.08-11.88-1.065-3.527.923-5.951 4.11-9.046 6.06-5.186 3.256-11.757 2.762-17.862 2.508-6.105-.254-12.908.116-17.226 4.469l131.3-.688zM54.282 26.884h16.201s-1.433-2.616-5.602-2.243c-3.984.374-4.186-1.29-6.211-1.495-2.025-.203-3.714 1.359-4.388 3.738M82.957 19.771h22.412s-1.98-3.631-7.75-3.102c-5.509.505-5.79-1.787-8.592-2.069-2.803-.282-5.135 1.88-6.07 5.171"/>
                            <g transform="translate(6.722 80.997)">
                                <mask id="ewdwivfmfd" fill="#fff">
                                    <use xlink:href="#5un2yheqic"/>
                                </mask>
                                <path fill="#263238" d="M120.582.212c0 .033-26.966.06-60.22.06C27.107.273.134.246.134.213s26.96-.06 60.228-.06c33.267 0 60.22.025 60.22.06" mask="url(#ewdwivfmfd)"/>
                            </g>
                            <path fill="#455A64" d="M92.903 75.33L10.588 75.2 10.607 62.934 92.922 63.065z"/>
                            <path fill="#89C5CC" d="M97.207 54.03s-2.058.231-2.424 0c-.828-.537-18.845-7.85-34.325-7.867-12.417-.016-23.597 3.299-34.47 10.608 0 0-13.243 1.469-18.415 5.371-1.208.707-3.675 3.491-2.734 9.816.6 4.032 3.583 4.203 7.657 4.11 0 0-1.516-12.25 9.328-11.313 9.214.794 7.45 12.12 7.45 12.12l46.17.072s.203-5.03.4-6.25c.392-2.44 3.404-6.44 9.029-5.845 6.17.652 8.223 6.32 7.827 11.105 0 0 6.51 1.416 7.39-3.856l1.554-.486s.597-10.936-4.826-15.534l1.163-.779-.774-1.273z"/>
                            <path fill="#455A64" d="M94.137 53.68s-.384 1.054-1.708.934c-1.078-.095-7.239-2.446-9.485-3.313-.65-.24-1.149-.777-1.342-1.447-.047-.138-.057-.287-.03-.431 0 0 9.578 2.317 12.565 4.257"/>
                            <path fill="#FFF" d="M85.006 54.616c.34.294.38.81.089 1.152-.027.032-.057.062-.089.09-.653.67-3.766 3-5.212 3.143-1.446.142-45.36 3.093-47.958 2.343-2.598-.75-4.12-2.076-3.467-2.839l1.178-.392 20.701.426 34.758-3.923z"/>
                            <path fill="#FABE2C" d="M100.98 64.017s-2.557.762-3.648-1.268c-1.092-2.03-2.295-4.174-2.295-4.638 0-.581.414-2.45 1.78-2.07 0 0 3.8 3.048 4.162 7.976"/>
                            <path fill="#263238" d="M73.89 76.904s0-.033-.014-.099c-.013-.065-.013-.16-.02-.288-.017-.254-.032-.631-.028-1.12.006-1.37.156-2.735.447-4.073.2-.925.493-1.827.873-2.693.437-.997 1.034-1.915 1.769-2.716.818-.883 1.823-1.57 2.94-2.009 1.203-.462 2.48-.699 3.768-.7 1.283-.052 2.565.099 3.802.446.074.023.15.04.222.064l.218.08.432.163c.282.112.557.258.82.385.255.157.517.299.756.469l.35.26c.059.043.12.084.174.13l.161.144c.817.717 1.498 1.576 2.012 2.536.443.836.789 1.721 1.029 2.637.35 1.324.536 2.686.556 4.056.01.484 0 .861-.02 1.121 0 .127-.015.224-.022.29-.008.065-.015.097-.015.097-.003-.033-.003-.066 0-.1 0-.068 0-.163.015-.289 0-.254.016-.63 0-1.112-.034-1.365-.23-2.721-.581-4.04-.245-.909-.592-1.787-1.034-2.617-.514-.95-1.194-1.798-2.007-2.506l-.16-.142c-.055-.045-.114-.084-.17-.129l-.35-.256c-.235-.166-.495-.306-.742-.461-.269-.126-.532-.27-.813-.374l-.427-.16-.215-.078c-.072-.026-.148-.043-.223-.063-1.224-.348-2.496-.5-3.768-.452-1.274.002-2.537.238-3.727.695-1.107.432-2.104 1.109-2.916 1.98-.73.793-1.325 1.701-1.762 2.688-.378.861-.672 1.758-.876 2.677-.295 1.332-.454 2.692-.475 4.057-.01.484 0 .86.01 1.121 0 .125 0 .22.012.29.013.069-.002.091-.002.091"/>
                            <path fill="#DDE3E9" d="M84.572 54.614s-3.839 3.364-5.502 3.364c-1.663 0-45.498 2.677-47.449 1.882-1.028-.397-2.021-.88-2.97-1.443 0 0 14.304-10.372 30.973-9.875 12.236.365 24.948 6.072 24.948 6.072"/>
                            <path fill="#000" d="M74.047 63.034l-5.197-.008.001-1.045c0-.13.106-.237.237-.237l4.725.008c.13 0 .236.106.236.237l-.002 1.036v.01zM53.79 63.003l-5.197-.009.001-1.035c0-.131.106-.237.236-.237l4.728.008c.13 0 .236.106.236.237l-.002 1.036h-.002z"/>
                            <path fill="#263238" d="M71.782 50.34L76.321 58.105 72.092 58.334 72.638 54.597 69.861 49.892zM55.236 48.653L54.529 59.26 56.071 59.184 56.738 48.557zM78.63 68.58c2.87-2.889 7.52-2.889 10.388 0 2.869 2.887 2.869 7.57 0 10.457-2.868 2.888-7.519 2.888-10.387 0-2.869-2.888-2.869-7.57 0-10.458"/>
                            <path fill="#E0E0E0" d="M79.913 73.806c.002-2.18 1.758-3.944 3.922-3.942 2.164.002 3.917 1.77 3.915 3.95-.002 2.178-1.758 3.943-3.923 3.94h-.016c-2.156-.014-3.897-1.777-3.898-3.948m3.918-4.925c-2.702-.007-4.899 2.193-4.906 4.913-.007 2.721 2.178 4.933 4.88 4.94 2.703.007 4.9-2.193 4.906-4.913v-.002c.006-2.72-2.178-4.93-4.88-4.938"/>
                            <path fill="#F5F5F5" d="M83.83 69.859c-2.167-.006-3.928 1.756-3.934 3.938-.006 2.18 1.745 3.953 3.911 3.96 2.166.006 3.927-1.757 3.934-3.938v-.002c.003-2.18-1.747-3.951-3.912-3.958"/>
                            <path fill="#263238" d="M82.665 73.83c0 .644.517 1.167 1.157 1.168.64.001 1.16-.52 1.16-1.164.001-.644-.517-1.167-1.156-1.168h-.002c-.64 0-1.157.52-1.159 1.164M87.302 59.915c-.008.634-.526 1.142-1.156 1.134-.63-.009-1.135-.53-1.127-1.165.009-.634.526-1.142 1.157-1.134h.002c.63.01 1.133.53 1.124 1.165M73.861 74.297h-.434l-1.247.024-4.585.075-15.13.187c-5.91.062-11.262.101-15.134.107-1.936 0-3.505 0-4.587-.019-1.082-.019-1.686-.043-1.67-.078.142.023.286.032.43.028.284 0 .706.01 1.245.013 1.083 0 2.651 0 4.587-.012l15.132-.138 15.13-.16 4.587-.044h1.573l.103.017z"/>
                            <path fill="#263238" d="M55.134 76.869c-.028 0 0-3.925.076-8.758.076-4.833.149-8.759.175-8.757.025.002 0 3.924-.079 8.757-.077 4.833-.146 8.758-.172 8.758"/>
                            <path fill="#F5F5F5" d="M71.278 47.44H71.2l-.224-.037-.858-.15c-.742-.127-1.826-.3-3.168-.462-3.496-.437-7.027-.527-10.54-.269-4.115.325-7.776 1.151-10.395 1.798-1.312.329-2.368.615-3.098.817l-.84.23-.22.058c-.025.008-.05.013-.076.016.024-.011.049-.02.074-.026l.215-.067.836-.249c.728-.213 1.782-.51 3.092-.846 2.621-.664 6.284-1.495 10.408-1.828 3.52-.26 7.056-.16 10.555.297 1.344.172 2.424.355 3.168.494.372.067.66.128.854.166l.223.046c.024.002.048.006.07.012M53.725 60.668c0 .028-2.699.21-6.031.41-3.332.2-6.035.34-6.036.315-.002-.027 2.697-.211 6.03-.411 3.334-.2 6.035-.34 6.037-.314"/>
                            <path fill="#FF9B21" d="M127.059 80.986L115.996 81.108 115.996 53.091 127.059 53.091z"/>
                            <path fill="#191847" d="M127.059 80.986L115.996 81.108 115.996 53.091 127.059 53.091z"/>
                            <path fill="#5C63AB" d="M122.073 81.04L111.01 81.108 111.01 53.091 122.073 53.091z"/>
                            <path fill="#263238" d="M110.752 50.729L110.752 51.062 122.495 51.062 127.245 44.149 127.128 43.683z"/>
                            <mask id="9tjftkcolf" fill="#fff">
                                <use xlink:href="#3m0o4e5ote"/>
                            </mask>
                            <path fill="#263238" d="M114.333 53.091L114.711 53.091 114.711 50.981 114.333 50.981zM123.334 49.454L123.334 53.091 123.792 53.091 123.792 49.064z" mask="url(#9tjftkcolf)"/>
                            <path fill="#455A64" d="M115.558 43.683L110.752 50.729 122.322 50.729 127.128 43.683z" mask="url(#9tjftkcolf)"/>
                            <path fill="#F2F2F2" d="M114.704 50.729c-.022-.015 1.062-1.605 2.413-3.55 1.351-1.946 2.477-3.51 2.497-3.494.02.017-1.06 1.604-2.413 3.551-1.353 1.947-2.475 3.508-2.497 3.493M118.576 50.729c-.02-.015 1.062-1.605 2.413-3.55 1.352-1.946 2.477-3.51 2.499-3.494.022.017-1.062 1.604-2.413 3.551-1.352 1.947-2.476 3.508-2.499 3.493" mask="url(#9tjftkcolf)"/>
                            <path fill="#F2F2F2" d="M113.275 47.206c0-.026 2.569-.048 5.737-.048 3.169 0 5.74.022 5.74.048 0 .026-2.569.049-5.74.049-3.17 0-5.737-.02-5.737-.049M113.49 63.28L119.831 63.28 119.831 56.081 113.49 56.081z" mask="url(#9tjftkcolf)"/>
                            <path fill="#263238" d="M115.066 65.314c0 .36-.29.652-.648.652-.161 0-.573-.017-.573-.017-.206-.164-.33-.41-.342-.673.005-.262.159-.498.396-.607h.52c.354 0 .643.287.647.645" mask="url(#9tjftkcolf)"/>
                            <path fill="#455A64" d="M113.986 64.661c.358 0 .648.292.648.653 0 .36-.29.652-.648.652-.358 0-.648-.292-.648-.652 0-.36.29-.653.648-.653" mask="url(#9tjftkcolf)"/>
                            <path fill="#263238" d="M117.427 65.314c0 .36-.29.652-.648.652-.161 0-.573-.017-.573-.017-.205-.164-.33-.41-.342-.673.006-.262.16-.498.396-.607h.52c.354 0 .643.287.647.645" mask="url(#9tjftkcolf)"/>
                            <path fill="#455A64" d="M116.347 64.661c.358 0 .648.292.648.653 0 .36-.29.652-.648.652-.358 0-.648-.292-.648-.652 0-.36.29-.653.648-.653" mask="url(#9tjftkcolf)"/>
                            <path fill="#263238" d="M119.764 65.314c0 .36-.29.652-.648.652-.161 0-.573-.017-.573-.017-.205-.164-.33-.41-.342-.673.007-.26.16-.494.396-.603h.52c.353 0 .641.285.647.64" mask="url(#9tjftkcolf)"/>
                            <path fill="#455A64" d="M119.332 65.314c0 .36-.29.652-.648.652-.358 0-.648-.292-.648-.652 0-.36.29-.653.648-.653.358 0 .648.292.648.653" mask="url(#9tjftkcolf)"/>
                            <path fill="#FF9B21" d="M116.813 57.599L115.37 57.619 116.702 59.681 115.693 59.694 117.106 62.527 116.62 60.421 117.949 60.404z" mask="url(#9tjftkcolf)" transform="matrix(-1 0 0 1 233.32 0)"/>
                            <path fill="#263238" d="M120.425 79.655v-.836c0-.547 0-1.333-.013-2.33 0-1.992-.013-4.808-.022-8.129l.044.045h-7.53c-.012.01.09-.09.048-.045v11.29l-.04-.038 5.477.02 1.516.01h.539H118.413l-5.5.02h-.04V68.366c-.042.042.058-.063.05-.052h7.574v.043c0 3.332-.016 6.167-.022 8.16 0 .99 0 1.775-.01 2.317v.768c-.011.02-.024.038-.04.054" mask="url(#9tjftkcolf)"/>
                            <path fill="#263238" d="M119.382 73.968c.01.012-.043.068-.023.172.01.057.041.108.09.139.094.04.203-.004.243-.099.012-.028.017-.058.015-.088-.015-.056-.053-.103-.104-.13-.093-.05-.164-.016-.17-.03-.005-.012.066-.078.198-.033.077.028.137.091.161.17.026.104-.015.212-.104.271-.083.066-.198.073-.288.017-.066-.048-.106-.125-.109-.207-.004-.133.087-.193.09-.182" mask="url(#9tjftkcolf)"/>
                            <path fill="#E0E0E0" d="M91 35.627L97.857 35.715 95.348 46.698 102.635 31.924 97.435 31.856 104.301 21.107 96.861 21z" mask="url(#9tjftkcolf)"/>
                        </g>
                        <g>
                            <g transform="translate(-53 -15) translate(116 59) translate(16.013 .173)">
                                <mask id="6pm6y4ydah" fill="#fff">
                                    <use xlink:href="#orae7g05hg"/>
                                </mask>
                                <path fill="#89C5CC" d="M9.999.241c-.44-.257-.971-.31-1.442-.12-3.199 1.288-6.48 6.102-6.487 7.86C2.062 10.054.831 10.056.24 11.575c-.482 1.235.576 3.033.99 3.663.098.15.255.243.43.258.767.067 2.94.153 3.742-.904.98-1.294.356-2.379 2.099-3.438 1.479-.899 3.87-6.233 3.332-9.704C10.753.939 10.438.498 10 .24" mask="url(#6pm6y4ydah)"/>
                            </g>
                            <path fill="#89C5CC" d="M.506 7.114C.184 7.39-.01 7.8 0 8.23c.068 2.923 2.804 6.922 4.145 7.431 1.58.601 1.23 1.584 2.22 2.493.805.738 2.481.409 3.081.26.142-.036.259-.134.32-.27.271-.593.96-2.304.382-3.247-.706-1.153-1.714-.966-2.024-2.66-.262-1.439-3.65-4.876-6.456-5.442-.413-.084-.84.041-1.162.319" transform="translate(-53 -15) translate(116 59)"/>
                            <path fill="#69A1AC" d="M23.151 11.465c-.335-.153-.721-.153-1.047.018-2.216 1.162-4.245 4.87-4.128 6.137.139 1.494-.748 1.585-1.07 2.724-.26.925.627 2.143.97 2.567.08.1.2.157.327.155.557-.008 2.13-.104 2.634-.924.616-1.004.091-1.74 1.273-2.63 1.003-.756 2.355-4.774 1.726-7.237-.093-.362-.35-.657-.685-.81M7.752 19.253c-.269.195-.446.502-.465.839-.132 2.289 1.753 5.596 2.77 6.083 1.197.574.86 1.32 1.577 2.095.583.63 1.914.484 2.392.407.113-.019.21-.088.268-.19.249-.446.896-1.737.504-2.512-.48-.949-1.28-.87-1.414-2.214-.115-1.142-2.546-4.053-4.703-4.681-.318-.092-.66-.023-.929.173" transform="translate(-53 -15) translate(116 59)"/>
                            <path fill="#290920" d="M16.478 31.298c.154-1.742.416-3.474.737-5.194.322-1.72.731-3.422 1.22-5.102.508-1.672 1.097-3.325 1.866-4.894.772-1.56 1.713-3.068 2.996-4.238-.617.608-1.15 1.295-1.619 2.023-.47.727-.892 1.487-1.256 2.276-.363.788-.703 1.588-1.003 2.405-.298.818-.569 1.646-.816 2.48-.5 1.67-.906 3.368-1.256 5.078-.177.854-.336 1.713-.48 2.574-.147.861-.277 1.725-.389 2.592" transform="translate(-53 -15) translate(116 59)"/>
                            <g transform="translate(-53 -15) translate(116 59) translate(7.919 19.603)">
                                <mask id="bu8s896hwj" fill="#fff">
                                    <use xlink:href="#lovtfzxxri"/>
                                </mask>
                                <path fill="#290920" d="M.086.135c.786.901 1.536 1.835 2.269 2.782.732.948 1.435 1.92 2.118 2.905.67.996 1.323 2.005 1.903 3.06.29.528.56 1.068.797 1.622.23.557.439 1.13.523 1.73-.124-.591-.347-1.152-.601-1.694-.253-.543-.534-1.072-.837-1.588-.6-1.036-1.25-2.042-1.929-3.027-.67-.992-1.373-1.96-2.081-2.924-.353-.483-.713-.961-1.074-1.438C.816 1.083.45.61.086.135" mask="url(#bu8s896hwj)"/>
                            </g>
                            <path fill="#290920" d="M25.694.818L23.59 4.354 21.473 7.88l-2.128 3.52c-.355.587-.716 1.17-1.046 1.767-.325.6-.622 1.217-.885 1.849-1.054 2.525-1.577 5.283-1.502 8.032.017.686.072 1.373.118 2.062l.14 2.064.26 4.13c-.225-2.75-.482-5.493-.653-8.252-.104-2.769.424-5.554 1.476-8.106.268-.637.57-1.258.9-1.863.337-.603.7-1.185 1.056-1.769l2.15-3.506 2.16-3.5 2.175-3.49z" transform="translate(-53 -15) translate(116 59)"/>
                            <g transform="translate(-53 -15) translate(116 59) translate(.704 7.37)">
                                <mask id="u2mc9lo3nl" fill="#fff">
                                    <use xlink:href="#htgiz683zk"/>
                                </mask>
                                <path fill="#290920" d="M14.882 24.467c-.346-1.16-.746-2.303-1.168-3.436-.42-1.134-.867-2.257-1.343-3.367-.947-2.221-2.002-4.395-3.187-6.493-.592-1.049-1.218-2.078-1.877-3.084-.663-1.004-1.373-1.973-2.108-2.923-.746-.94-1.538-1.843-2.37-2.704C1.986 1.606 1.098.802.158.06c.956.719 1.866 1.502 2.73 2.337.848.851 1.653 1.746 2.415 2.68.754.939 1.463 1.916 2.135 2.918.666 1.007 1.3 2.036 1.897 3.086 1.176 2.112 2.236 4.29 3.159 6.529.462 1.119.896 2.25 1.3 3.39.395 1.145.768 2.298 1.087 3.467" mask="url(#u2mc9lo3nl)"/>
                            </g>
                            <path fill="#290920" d="M8.107 22.211c.467.125.913.3 1.354.487.439.193.873.397 1.286.653-.467-.125-.914-.3-1.354-.487-.44-.193-.873-.397-1.286-.653M1.186 10.398c.397.125.787.269 1.176.416.39.144.775.302 1.16.46.382.162.765.324 1.143.499l.566.263c.186.094.375.182.56.28-.2-.06-.395-.132-.593-.198l-.584-.217c-.39-.145-.775-.302-1.16-.46-.382-.163-.765-.325-1.143-.5-.378-.173-.755-.35-1.125-.543" transform="translate(-53 -15) translate(116 59)"/>
                        </g>
                        <g>
                            <path fill="#B28B67" d="M17.503 8.818c-.7 0-1.267-.564-1.267-1.259V6.121s-1.041-.162-1.054-1.196c-.013-1.033.168-3.415.168-3.415 1.206-.514 2.598-.34 3.638.454l-.246 5.685c-.042.651-.582 1.16-1.239 1.169" transform="translate(-53 -15) translate(71 50)"/>
                            <path fill="#AA6550" d="M16.25 6.112c.481.008.954-.126 1.358-.385 0 0-.322.746-1.361.653l.003-.268z" transform="translate(-53 -15) translate(71 50)"/>
                            <path fill="#B78876" d="M18.886 3.164c.019 0 .725-.209.694.498-.03.706-.733.539-.733.517l.04-1.015" transform="translate(-53 -15) translate(71 50)"/>
                            <path fill="#AA6550" d="M19.073 3.919s.01.009.033.02c.03.012.062.012.092 0 .096-.056.153-.159.15-.268.004-.062-.006-.123-.029-.18-.012-.046-.046-.082-.09-.097-.03-.01-.06.003-.074.03-.01.02 0 .034-.01.036-.009.002-.014-.012 0-.041.005-.018.016-.033.031-.043.02-.015.045-.02.069-.016.058.014.105.057.125.113.029.062.042.13.038.198.004.13-.072.248-.192.3-.039.009-.08.001-.112-.022-.031-.016-.035-.029-.031-.03" transform="translate(-53 -15) translate(71 50)"/>
                            <path fill="#263238" d="M14.856.877c-.014-.13.04-.26.143-.342.11-.084.266-.072.362.027-.038-.171.07-.341.244-.38l.03-.004c.17-.01.315.116.48.161.163.036.334.016.485-.055.154-.062.298-.146.454-.204.687-.248 1.446.098 1.704.777.238-.057.488.036.628.236.132.2.185.442.149.68-.023.158-.063.313-.12.463v.04c-.01.57-.076 1.236-.32 1.24-.426 0-.324-.79-.324-.79-.524-.2-.328-.979-.46-1.096-.132-.117-.404-.392-1.498.164-.407.18-.863.23-1.3.138h-.027c-.099-.024-.194-.063-.28-.117-.103-.058-.184-.148-.232-.255-.047-.11-.023-.238.06-.325-.096-.098-.158-.223-.178-.358" transform="translate(-53 -15) translate(71 50)"/>
                            <g transform="translate(-53 -15) translate(71 50) translate(21.546 6.954)">
                                <mask id="fyve6w4tzn" fill="#fff">
                                    <use xlink:href="#s4sqqntulm"/>
                                </mask>
                                <path fill="#B28B67" d="M6.189.908c-.026.043-.323.598-.323.598l.245-.94C6.187.27 6.002.3 5.948.406c-.054.106-.39 1.001-.39 1.001C5.873.242 5.775.138 5.686.12c-.088-.018-.362 1.048-.362 1.048-.072-.12-.169-.226-.284-.307-.284-.194-.757 0-.779.133-.021.133.145.169.145.169.188-.142.456-.105.599.082.066.087.096.195.084.303-.015.145-.145.251-.291.236-.108-.01-.198-.084-.229-.186-.118-.525-.299-.36-.299-.36l.181 1.16-.191.582L3.2 5.826l-2.02-2.089S.094 6.11.076 6.187c-.018.08 1.012 1.119 1.69 1.811.737.75 1.947.766 2.703.034.262-.255.446-.578.528-.933l.799-4.086.375-1.34.166-.67C6.38.847 6.26.794 6.19.908" mask="url(#fyve6w4tzn)"/>
                            </g>
                            <g transform="translate(-53 -15) translate(71 50) translate(0 11.448)">
                                <mask id="7238tiu1dp" fill="#fff">
                                    <use xlink:href="#a65oeu1g0o"/>
                                </mask>
                                <path fill="#B28B67" d="M9.785 4.397c.602.106 1.294-.325 1.665-.809l1.505-1.968L11.186.054l-1.584 1.96-5.95-.314L2.251.924C2.154.87 2.043.85 1.934.866L0 1.406l1.81.553 3.167 1.183 4.808 1.255z" mask="url(#7238tiu1dp)"/>
                            </g>
                            <path fill="#AFB9C5" d="M23.27 44.798l.25 1.04s1.713 2.208 2.241 2.1c.346-.07-.08-.647-.724-2.324l-.136-.692-1.631-.124zM15.904 45.106v-1.02l1.46-.18.034 2.028-.163.013c-.724.048-3.672.195-4.164.055-.53-.154 2.833-.896 2.833-.896" transform="translate(-53 -15) translate(71 50)"/>
                            <path fill="#C5CFD6" d="M24.901 44.922L20.876 17.783 13.686 18.871 15.904 44.086 17.364 43.906 17.594 22.254 23.27 44.798z" transform="translate(-53 -15) translate(71 50)"/>
                            <path fill="#1F28CF" d="M21.671 20.384l-8.218-.303.233-7.449-1.077 1.221-2.198-1.89 2.417-3.27c.628-.842 1.573-1.396 2.618-1.537.306-.04.543-.062.692-.08.873.274 1.809.274 2.681 0 .38.012.754.084 1.11.212.672.236 1.279.626 1.771 1.138l2.696 3.619-2.305 1.977-1.312-1.147.892 7.51z" transform="translate(-53 -15) translate(71 50)"/>
                            <path fill="#455A64" d="M13.81 9.82c.025 0 0 1.241-.058 2.767-.058 1.527-.125 2.765-.15 2.764-.026-.002 0-1.24.055-2.767.057-1.528.125-2.763.153-2.763M20.487 10.31c.1.528.168 1.063.203 1.6.068.533.104 1.07.11 1.609-.1-.53-.167-1.063-.203-1.6-.067-.534-.104-1.071-.11-1.61M16.464 7.156c.016.022-.047.096-.14.17-.092.073-.18.113-.197.093-.016-.02.047-.095.14-.17.092-.073.18-.112.197-.093M16.837 7.237c.023.013 0 .088-.018.18s-.05.158-.076.156c-.027-.001-.042-.084-.015-.18.027-.095.087-.168.109-.156M17.262 7.291c.028 0 .051.069.057.157.005.088-.015.158-.04.16-.026.001-.051-.069-.055-.157-.003-.088.013-.16.038-.16M17.81 7.25c.026 0 .048.075.073.165.026.09.042.168.02.18-.021.013-.083-.052-.112-.154-.029-.103-.007-.191.018-.191M18.42 7.185c.025-.009.066.045.115.11.05.065.09.118.074.14-.016.022-.09 0-.148-.084-.058-.085-.065-.157-.042-.166M18.74 7.094c.014-.022.078 0 .14.034.06.034.1.09.086.111-.014.022-.076 0-.137-.032-.062-.033-.102-.092-.09-.113M21.655 20.04c0 .026-1.827 0-4.08-.055-2.252-.056-4.077-.122-4.077-.147 0-.025 1.827 0 4.08.054 2.252.054 4.077.122 4.077.149" transform="translate(-53 -15) translate(71 50)"/>
                        </g>
                    </g>
                </g>
            </g>
        </g>
    </g>
</svg>
