<svg xmlns="http://www.w3.org/2000/svg" xmlns:xlink="http://www.w3.org/1999/xlink" width="154" height="110" viewBox="0 0 154 110">
    <defs>
        <path id="08gwy6pc9a" d="M0.509 0.212L13.605 0.212 13.605 13.308 0.509 13.308z"/>
        <path id="x3nbu2228c" d="M0 0.529L153.551 0.529 153.551 5.113 0 5.113z"/>
    </defs>
    <g fill="none" fill-rule="evenodd">
        <g>
            <g>
                <path fill="#CBCACA" d="M1.381 67.985c1.227-8.9 6.126-16.998 13.44-22.218l1.081-.771c1.032-.735 2.463-.496 3.198.534.735 1.03.496 2.463-.535 3.198l-1.08.771C11.191 53.99 6.976 60.955 5.921 68.611c-.157 1.148-1.141 1.98-2.268 1.98" transform="translate(-606 -420) translate(606 420)"/>
                <path fill="#22313C" d="M32.838 56.854c13.191 0 23.884 10.693 23.884 23.885 0 13.19-10.693 23.884-23.884 23.884-13.19 0-23.883-10.694-23.883-23.884 0-13.192 10.692-23.885 23.883-23.885" transform="translate(-606 -420) translate(606 420)"/>
                <path fill="#F0E7DE" d="M19.313 78.532c1.21-7.462 8.24-12.53 15.7-11.32 7.462 1.21 12.53 8.24 11.32 15.7-1.21 7.462-8.238 12.53-15.7 11.32-7.462-1.21-12.53-8.238-11.32-15.7" transform="translate(-606 -420) translate(606 420)"/>
                <path fill="#E8E8E8" d="M33.484 75.609L44.298 44.036 51.843 47.105 41.029 78.678z" transform="translate(-606 -420) translate(606 420)"/>
                <path fill="#FFF" d="M109.216 16.9l15.324 6.92c3.824 1.728 6.46 5.339 6.937 9.507.704 6.135-3.392 11.79-9.44 13.036l-2.727.561-9.366-13.687-.728-16.337z" transform="translate(-606 -420) translate(606 420)"/>
                <path fill="#22313C" d="M106.6 14.864l8.57-3.655c2.169-.905 4.588.573 4.774 2.916l.32 4.055c.08 1.01-.112 2.023-.555 2.934l-5.413 11.117-7.696-17.367z" transform="translate(-606 -420) translate(606 420)"/>
                <path fill="#CBCACA" d="M48.936 49.617l2.955 4.044c5.58 8.19 13.337 14.66 22.397 18.676l21.158-25.204-14.07-6.022-32.44 8.506z" transform="translate(-606 -420) translate(606 420)"/>
                <path fill="#22313C" d="M126.516 58.077c13.192 0 23.884 10.693 23.884 23.884 0 13.19-10.692 23.884-23.884 23.884-13.19 0-23.883-10.694-23.883-23.884s10.693-23.884 23.883-23.884" transform="translate(-606 -420) translate(606 420)"/>
                <path fill="#F0E7DE" d="M113.204 78.87c1.738-7.356 9.11-11.91 16.467-10.17 7.356 1.739 11.91 9.111 10.17 16.467-1.738 7.356-9.111 11.909-16.466 10.17-7.356-1.738-11.91-9.111-10.171-16.467" transform="translate(-606 -420) translate(606 420)"/>
                <path fill="#CBCACA" d="M103.184 52.256L93.692 71.61c-4.422 9.02-13.594 14.737-23.64 14.737l-16.815-3.056V72.338L86.75 43.41l16.435 8.846z" transform="translate(-606 -420) translate(606 420)"/>
                <path fill="#22313C" d="M74.288 49.924H51.21c-4.721 0-8.548-3.828-8.548-8.548v-1.421H64.32c5.507 0 9.97 4.463 9.97 9.969" transform="translate(-606 -420) translate(606 420)"/>
                <path fill="#22313C" d="M49.297 47.243h-27.55c-5.636 0-10.205-3.925-10.205-8.766v-1.458h25.854c6.573 0 11.901 4.578 11.901 10.224" transform="translate(-606 -420) translate(606 420)"/>
                <path fill="#FFF" d="M74.44 50.345l-4.59-7.453c-.698-1.135-.504-2.605.466-3.52l6.06-5.711c5.049-4.995 12.45-6.78 19.22-4.634l7.24 2.237c6.164 1.905 10.347 7.63 10.287 14.081l-.064 7.1c-.009.887-.768 1.581-1.654 1.51l-35.784-2.888c-.487-.039-.924-.307-1.18-.722" transform="translate(-606 -420) translate(606 420)"/>
                <path fill="#CBCACA" d="M121.932 79.884L101.646 19.54c-.238-.71-.698-1.326-1.31-1.757l-6.005-4.23c-1.598-1.127-1.974-3.34-.837-4.93 1.094-1.53 3.195-1.93 4.775-.912l8.9 5.735c.67.433 1.175 1.081 1.43 1.839l20.868 62.073c.623 1.855-.384 3.863-2.244 4.471l-.856.28c-1.838.602-3.818-.392-4.435-2.225" transform="translate(-606 -420) translate(606 420)"/>
                <g transform="translate(-606 -420) translate(606 420) translate(84.375 .64)">
                    <mask id="72htx2v39b" fill="#fff">
                        <use xlink:href="#08gwy6pc9a"/>
                    </mask>
                    <path fill="#CBCACA" d="M7.057.212c3.616 0 6.548 2.932 6.548 6.548s-2.932 6.548-6.548 6.548S.509 10.376.509 6.76 3.44.212 7.057.212" mask="url(#72htx2v39b)"/>
                </g>
                <g transform="translate(-606 -420) translate(606 420) translate(0 103.765)"/>
                <path fill="#9E9E9E" d="M94.713 71.819c-.447 0-.899-.13-1.295-.403L72.116 56.812c-1.043-.716-1.31-2.143-.593-3.187.716-1.044 2.143-1.31 3.187-.594l21.3 14.605c1.046.716 1.312 2.142.596 3.186-.445.648-1.164.997-1.893.997M63.895 64.841c-1.047-.711-1.32-2.137-.608-3.184.711-1.047 2.136-1.32 3.184-.608l22.883 15.539c1.049.712 1.32 2.138.609 3.185-.443.652-1.164 1.004-1.899 1.004" transform="translate(-606 -420) translate(606 420)"/>
                <path fill="#22313C" d="M71.303 87.672H27.441c-1.648 0-2.985-1.336-2.985-2.984V79.35c0-1.65 1.337-2.986 2.985-2.986h43.862c1.649 0 2.985 1.337 2.985 2.986v5.338c0 1.648-1.336 2.984-2.985 2.984" transform="translate(-606 -420) translate(606 420)"/>
                <path fill="#22313C" d="M34.111 85.004H4.941c-1.649 0-2.985-1.337-2.985-2.985 0-1.65 1.336-2.986 2.985-2.986h29.17c1.65 0 2.986 1.337 2.986 2.986 0 1.648-1.336 2.985-2.986 2.985M80.737 85.061H70.172c-.597 0-1.081-1.336-1.081-2.985 0-1.649.484-2.985 1.08-2.985h10.566c.597 0 1.081 1.336 1.081 2.985 0 1.649-.484 2.985-1.081 2.985" transform="translate(-606 -420) translate(606 420)"/>
                <path fill="#FF7A00" d="M7.697 52.629H5.8c-2.123 0-3.843-1.722-3.843-3.845 0-2.124 1.72-3.844 3.843-3.844h1.897c2.123 0 3.845 1.72 3.845 3.844 0 2.123-1.722 3.845-3.845 3.845M120.258 50.77h-1.897c-2.123 0-3.844-1.722-3.844-3.845 0-2.124 1.721-3.845 3.844-3.845h1.897c2.123 0 3.844 1.72 3.844 3.845 0 2.123-1.721 3.844-3.844 3.844" transform="translate(-606 -420) translate(606 420)"/>
            </g>
        </g>
    </g>
</svg>
