<svg xmlns="http://www.w3.org/2000/svg" xmlns:xlink="http://www.w3.org/1999/xlink" width="80" height="80" viewBox="0 0 80 80">
    <defs>
        <path id="f3fmp7ir9a" d="M0 0H80V80H0z"/>
    </defs>
    <g fill="none" fill-rule="evenodd">
        <g>
            <g transform="translate(-321 -226) translate(321 226)">
                <mask id="awtu1mkm9b" fill="#fff">
                    <use xlink:href="#f3fmp7ir9a"/>
                </mask>
                <g mask="url(#awtu1mkm9b)">
                    <g fill-rule="nonzero">
                        <path fill="#6B6B6B" d="M77.616 27.925L57.748 56.631v.001c3.156 7.317 10.434 12.442 18.912 12.442 11.37 0 20.586-9.216 20.586-20.586 0-11.05-8.703-20.063-19.63-20.563z" transform="translate(-32 23)"/>
                        <path fill="#8B8B8B" d="M83.074 29.078l-.001-.155c-1.73-.567-3.56-.91-5.457-.998L57.748 56.631v.001c.74 1.718 1.711 3.313 2.868 4.75 1.52-.563 2.988-1.23 4.397-1.993 9.453-5.122 16.24-14.54 17.745-25.634.21-1.53.316-3.092.316-4.677z" transform="translate(-32 23)"/>
                        <path fill="#FFF" d="M77.373 33.017l-14.945 21.59c2.374 5.512 7.85 9.37 14.232 9.37 8.554 0 15.488-6.935 15.488-15.489 0-8.315-6.552-15.098-14.775-15.47z" transform="translate(-32 23)"/>
                        <path fill="#D3E9F4" d="M82.688 34.221c-1.646-.696-3.436-1.119-5.315-1.204l-14.945 21.59c.73 1.693 1.752 3.23 3.004 4.547 9.101-5.096 15.651-14.206 17.256-24.933z" transform="translate(-32 23)"/>
                        <path fill="#6B6B6B" d="M39.496 56.63L19.63 27.925C8.703 28.425 0 37.438 0 48.488c0 11.37 9.217 20.586 20.586 20.586 8.478 0 15.756-5.125 18.912-12.442v-.001l-.002-.001z" transform="translate(-32 23)"/>
                        <path fill="#8B8B8B" d="M19.63 27.925c-1.898.087-3.728.431-5.457.998l-.001.155c0 1.585.107 3.147.316 4.677 1.504 11.094 8.292 20.512 17.745 25.634 1.409.764 2.878 1.43 4.397 1.994 1.157-1.438 2.127-3.033 2.868-4.75v-.002l-.001-.001L19.63 27.925z" transform="translate(-32 23)"/>
                        <path fill="#FFF" d="M19.873 33.017c-8.223.373-14.775 7.156-14.775 15.471 0 8.554 6.934 15.489 15.488 15.489 6.382 0 11.858-3.859 14.232-9.37l-14.945-21.59z" transform="translate(-32 23)"/>
                        <path fill="#D3E9F4" d="M31.814 59.154c1.252-1.318 2.275-2.854 3.004-4.547l-14.945-21.59c-1.879.085-3.668.508-5.314 1.204 1.604 10.727 8.154 19.837 17.255 24.933z" transform="translate(-32 23)"/>
                        <path fill="#8B8B8B" d="M77.616 27.925C77.013 12.435 64.263.061 48.623.061c-15.64 0-28.39 12.374-28.993 27.864-.016.383-.024.767-.024 1.153 0 1.335.09 2.651.267 3.94 1.266 9.343 6.983 17.276 14.945 21.59 1.487.805 3.051 1.485 4.68 2.023v.001c2.869.95 5.937 1.463 9.125 1.463 3.188 0 6.256-.514 9.125-1.463v-.001c1.629-.538 3.193-1.218 4.68-2.024 7.962-4.313 13.679-12.246 14.945-21.59.177-1.288.267-2.604.267-3.939 0-.386-.008-.77-.024-1.153z" transform="translate(-32 23)"/>
                        <path fill="#6B6B6B" d="M50.086 56.632v-.001c-1.63-.538-3.194-1.218-4.68-2.024-7.962-4.313-13.68-12.246-14.946-21.59-.176-1.288-.267-2.604-.267-3.939 0-.386.008-.77.024-1.153.534-13.7 10.569-24.96 23.7-27.38C52.2.23 50.43.061 48.623.061c-15.64 0-28.39 12.374-28.993 27.864-.016.383-.024.767-.024 1.153 0 1.335.09 2.65.267 3.939 1.266 9.344 6.983 17.277 14.945 21.59 1.487.806 3.051 1.486 4.68 2.023v.002c2.869.95 5.937 1.463 9.125 1.463 1.808 0 3.577-.166 5.294-.482-1.31-.24-2.59-.57-3.831-.98z" transform="translate(-32 23)"/>
                        <path fill="#FFF" d="M66.241 12.325c-4.347-4.568-10.45-7.448-17.226-7.554-.13-.002-.26-.004-.392-.004-13.426 0-24.312 10.885-24.312 24.311 0 .065 0 .131.002.196.104 13.336 10.948 24.116 24.31 24.116 13.426 0 24.311-10.886 24.311-24.312 0-6.493-2.546-12.393-6.693-16.753z" transform="translate(-32 23)"/>
                        <path fill="#D3E9F4" d="M27.06 31.431c-.003-.065-.003-.131-.003-.196 0-13.426 10.886-24.312 24.312-24.312.131 0 .263.002.392.004 4.887.077 9.424 1.597 13.205 4.152-4.229-3.84-9.814-6.212-15.95-6.308-.13-.002-.261-.004-.393-.004-13.426 0-24.311 10.885-24.311 24.311 0 .065 0 .132.002.196.064 8.31 4.3 15.628 10.717 19.963-4.853-4.407-7.917-10.748-7.972-17.806z" transform="translate(-32 23)"/>
                        <path fill="#FFA30B" d="M59.21 41.363v1.702c0 1.263-1.023 2.286-2.286 2.286H40.322c-1.263 0-2.286-1.023-2.286-2.286v-1.702c0-1.262 1.023-2.286 2.286-2.286h16.602c1.263 0 2.286 1.024 2.286 2.286z" transform="translate(-32 23)"/>
                        <path fill="#C5C5C5" d="M51.22 29.663c-.611 0-1.183-.385-1.391-.997-.262-.768.149-1.604.917-1.866l11.505-3.921c.769-.262 1.604.148 1.866.917s-.148 1.605-.917 1.867l-11.505 3.92c-.157.054-.317.08-.474.08z" transform="translate(-32 23)"/>
                        <path fill="#FFA30B" d="M51.22 28.192c.49 1.435-.276 2.996-1.711 3.484-1.435.49-2.996-.276-3.484-1.712-.49-1.435.276-2.996 1.712-3.484 1.435-.49 2.996.277 3.484 1.712z" transform="translate(-32 23)"/>
                        <g fill="#C5C5C5">
                            <path d="M34.378.018c-.361 0-.72.01-1.078.025v3.308c0 .813.658 1.47 1.47 1.47.813 0 1.47-.657 1.47-1.47V.091c-.486-.037-.976-.06-1.47-.069-.13-.002-.26-.004-.392-.004zM51.996 7.576c-.338-.355-.688-.699-1.046-1.033L48.784 8.71c-.574.574-.574 1.505 0 2.08.287.286.664.43 1.04.43s.753-.143 1.04-.43l2.114-2.114c-.317-.376-.644-.743-.982-1.099zM55.16 23.448c-.812 0-1.47.658-1.47 1.47 0 .812.658 1.47 1.47 1.47h3.333c.037 0 .073-.002.11-.005.056-.677.086-1.361.086-2.053 0-.292-.007-.581-.017-.87-.059-.007-.118-.012-.179-.012H55.16zM16.218 8.169l2.343 2.343c.287.287.664.431 1.04.431s.752-.144 1.04-.43c.574-.575.574-1.506 0-2.08l-2.339-2.339c-.736.65-1.432 1.342-2.084 2.075zM68.491 48.544c-.239 0-.481-.059-.706-.182l-6.077-3.333c-.713-.39-.973-1.284-.583-1.996s1.284-.973 1.997-.583l6.078 3.333c.712.39.972 1.284.582 1.997-.268.488-.771.764-1.29.764z" transform="translate(-32 23) translate(14.245 4.748)"/>
                        </g>
                    </g>
                </g>
            </g>
        </g>
    </g>
</svg>
