<svg xmlns="http://www.w3.org/2000/svg" xmlns:xlink="http://www.w3.org/1999/xlink" width="80" height="80" viewBox="0 0 80 80">
    <defs>
        <circle id="sdycv9qe2a" cx="40" cy="40" r="40"/>
    </defs>
    <g fill="none" fill-rule="evenodd">
        <g>
            <g transform="translate(-141 -823) translate(141 823)">
                <mask id="4769zwflfb" fill="#fff">
                    <use xlink:href="#sdycv9qe2a"/>
                </mask>
                <use fill="#F0F0F0" xlink:href="#sdycv9qe2a"/>
                <g mask="url(#4769zwflfb)">
                    <g>
                        <g>
                            <path fill="#AFB9D2" fill-rule="nonzero" d="M50.11 19.54H36.444c-1.134 0-2.084.867-2.197 2.005l-1.273 12.833h20.608l-1.273-12.833c-.113-1.138-1.063-2.004-2.197-2.004z" transform="translate(-30 -1) translate(0 30)"/>
                            <g>
                                <g>
                                    <g fill="#915B3C">
                                        <path d="M7.171 1.715c1.09 2.029.96 7.174-.448 7.536-.561.145-1.757-.21-2.975-.942l.764 5.4H0l1.553-7.233C.687 5.461.1 4.216.199 2.822.48-1.198 6.082-.313 7.17 1.715z" transform="translate(-30 -1) translate(0 30) translate(15.655) translate(23.417 .709) translate(1.153 1.822)"/>
                                    </g>
                                    <path fill="#191847" d="M2.36 9.203C1.792 6.687.18 4.971.425 3.846c.164-.75.602-1.216 1.313-1.399C2.107.961 3.294.328 5.3.55c3.008.333 4.844 1.581 4.051 4.327-.729 0-1.608-.264-2.825.187-.386.144-.662.587-.828 1.332h-.55c-.534-.884-1.06-1.208-1.578-.974-.52.234-.637.803-.354 1.706l-.27 2.075h-.586z" transform="translate(-30 -1) translate(0 30) translate(15.655) translate(23.417 .709)"/>
                                </g>
                                <g>
                                    <path fill="#C5CFD6" d="M16.079 0c6.43 0 11.643 5.213 11.643 11.643 0 6.43-5.213 11.643-11.643 11.643h-4.351c-6.43 0-11.644-5.212-11.644-11.643C.084 5.213 5.297 0 11.728 0h4.35zm2.379 5.258h-9.11c-2.208 0-4 1.791-4 4v4.77c0 2.21 1.792 4 4 4h9.11c2.209 0 4-1.79 4-4v-4.77c0-2.209-1.791-4-4-4z" transform="translate(-30 -1) translate(0 30) translate(15.655) translate(8 31.826) translate(.88 7.887)"/>
                                    <path fill="#B28B67" d="M47.245 30.235c-3.707-4.522-6.215-7.873-7.525-10.056-2.242-3.737-4.077-7.062-4.656-8.332-1.38-3.03 3.18-4.447 4.211-3.035C40.837 10.951 44.173 17.68 49.283 29l-2.038 1.236z" transform="translate(-30 -1) translate(0 30) translate(15.655) translate(8 31.826)"/>
                                    <path fill="#2F3676" d="M39.649 28.92L32.75 11.575c-1.475-3.162 5.65-5.24 6.735-3.769 2.461 3.34 8.312 16.52 9.046 17.515l-8.882 3.6z" transform="translate(-30 -1) translate(0 30) translate(15.655) translate(8 31.826)"/>
                                    <path fill="#915B3C" d="M26.574 29.146c-.188-2.367-.535-10.562-.181-14.356.101-1.09.208-2.144.316-3.133.32-2.939 5.77-2.849 5.337-.057-1.082 6.954-2.985 16.699-3.121 17.54-.192 1.181-2.233 1.494-2.351.006z" transform="translate(-30 -1) translate(0 30) translate(15.655) translate(8 31.826) rotate(39 29.155 19.814)"/>
                                    <path fill="#5C63AB" d="M30.268 12.441c-5.734-.933-9.574-1.57-11.521-1.914-5.551-.977-7.17-3.96-6.213-10.47h10.227C24.115.447 29.77 2.86 39.726 7.3c1.791.888 1.458 3.507 1.13 4.37-.013.035-3.033 5.204-9.06 15.506l-8.365-5.323 6.853-8.784c.18-.364.176-.574-.016-.628z" transform="translate(-30 -1) translate(0 30) translate(15.655) translate(8 31.826)"/>
                                </g>
                                <g>
                                    <path fill="#915B3C" d="M6.843 18.469l3.928.015c-2.425 7.822-3.735 11.973-3.928 12.451-.435 1.077.485 2.717.879 3.599-1.282.573-1.146-1.55-2.763-.798-.317.147-.617.32-.91.49l-.291.168c-.965.551-1.886.97-3.105.22-.21-.13-.439-.616.116-.996 1.384-.948 3.377-2.606 3.646-3.152.368-.744 1.177-4.743 2.428-11.997zm23.026-.152l5.997 4.399c1.626.438 2.985.983 4.077 1.636.257.234.569.71-.5.628-1.07-.083-2.197-.121-2.345.243-.147.365.5.8.201 1.292-.198.327-1.138-.494-2.817-2.465l-5.939-2.46 1.326-3.273z" transform="translate(-30 -1) translate(0 30) translate(15.655) translate(9.136 11.108)"/>
                                    <path fill="#E87613" d="M17.076 2.8l1.595-.42c6.463 4.66 9.802 14.405 17.63 19.037l-1.581 2.35C21.804 23.305 17.574 11.432 17.076 2.8z" transform="translate(-30 -1) translate(0 30) translate(15.655) translate(9.136 11.108) rotate(5 26.688 13.074)"/>
                                    <path fill="#DDE3E9" d="M10.92 22.408h14.386c.657 0 .533-.948.438-1.426-1.096-5.521-5.377-11.473-5.377-19.332L16.217 1c-3.432 5.513-4.618 12.301-5.296 21.408z" transform="translate(-30 -1) translate(0 30) translate(15.655) translate(9.136 11.108)"/>
                                    <path fill="#FF9B21" d="M15.905 1c.138 0 .265.008.38.025l1.305.075c3.727 12.616 4.754 21.034 3.083 25.252H9.351c-.67 1.563-1.312 2.877-1.925 3.944H4.34c-.29-9.378 1.941-17.337 6.696-23.878-.603-.171-1.08-.575-1.432-1.21-1.517-2.733-.97-4.238.652-4.732C11.877-.02 13.323 1 15.905 1z" transform="translate(-30 -1) translate(0 30) translate(15.655) translate(9.136 11.108)"/>
                                    <path fill="#000" fill-opacity=".1" d="M13.553 26.352l-4.202.001c.782-1.822 1.604-3.982 2.466-6.48.356 2.976.935 5.135 1.736 6.48z" transform="translate(-30 -1) translate(0 30) translate(15.655) translate(9.136 11.108)"/>
                                </g>
                            </g>
                            <path fill="#E1C3A0" fill-rule="nonzero" d="M3.297 35.203H84.081V61.581H3.297z" transform="translate(-30 -1) translate(0 30)"/>
                            <g fill="#EBD2AF" fill-rule="nonzero">
                                <path d="M82.444 34.616c-.826 0-1.496-.671-1.496-1.498V.158h2.993v32.96c0 .827-.67 1.498-1.497 1.498z" transform="translate(-30 -1) translate(0 30) translate(1.649 34.378)"/>
                            </g>
                            <path fill="#F0DCBE" fill-rule="nonzero" d="M85.062 32.73H1.492C.668 32.73 0 33.468 0 34.378c0 .91.668 1.649 1.492 1.649h83.57c.824 0 1.492-.738 1.492-1.649 0-.91-.668-1.648-1.492-1.648z" transform="translate(-30 -1) translate(0 30)"/>
                            <path fill="#C7CFE2" fill-rule="nonzero" d="M74.372 33.554c-.81 0-1.465-.66-1.465-1.472V20.916l-4.145-4.164c-.553-.555-1.29-.862-2.073-.862h-1.11v2.944c0 .813-.656 1.472-1.465 1.472-.81 0-1.465-.66-1.465-1.472v-4.416c0-.813.656-1.472 1.465-1.472h2.576c1.565 0 3.036.612 4.145 1.724l4.574 4.595c.274.276.429.65.429 1.04v11.777c0 .813-.657 1.472-1.466 1.472z" transform="translate(-30 -1) translate(0 30)"/>
                            <g fill="#AFB9D2" fill-rule="nonzero">
                                <path d="M6.002.137H3.01C1.357.137.018 1.44.018 3.047V4.14c0 .2.167.364.374.364H8.62c.206 0 .374-.163.374-.364V3.047c0-1.607-1.34-2.91-2.993-2.91zM17.971 14.69H7.498v-1.455c0-.804.67-1.456 1.497-1.456h7.48c.827 0 1.497.652 1.497 1.456v1.455z" transform="translate(-30 -1) translate(0 30) translate(59.351 18.716)"/>
                            </g>
                            <g fill="#959CB3" fill-rule="nonzero" transform="translate(-30 -1) translate(0 30) translate(62.649 12.122)">
                                <ellipse cx="1.658" cy="1.569" rx="1.527" ry="1.482"/>
                                <ellipse cx="12.349" cy="7.498" rx="1.527" ry="1.482"/>
                            </g>
                            <path fill="#C5D0E4" fill-rule="nonzero" d="M62.305 33.554h-3.434c-.19 0-.344-.161-.344-.36v-5.05c0-.199.154-.36.344-.36h3.434c.19 0 .344.161.344.36v5.05c0 .199-.154.36-.344.36z" transform="translate(-30 -1) translate(0 30)"/>
                        </g>
                        <g fill-rule="nonzero" transform="translate(-30 -1) translate(65)">
                            <circle cx="18" cy="18" r="18" fill="#AFB9D2"/>
                            <circle cx="18" cy="18" r="16" fill="#8F96AC"/>
                            <circle cx="18" cy="18" r="15" fill="#FFF"/>
                            <path fill="#AFB9D2" d="M10.645 26c-.165 0-.33-.063-.456-.189-.252-.252-.252-.66 0-.912l8.71-8.71c.252-.252.66-.252.912 0s.252.66 0 .912l-8.71 8.71c-.126.126-.29.189-.456.189z"/>
                            <g fill="#5B5D6E">
                                <path d="M13.672 3.15c-.342 0-.62-.277-.62-.619V.675c0-.342.278-.62.62-.62.342 0 .619.278.619.62V2.53c0 .342-.277.62-.62.62zM13.672 27.288c-.342 0-.62-.277-.62-.619v-1.857c0-.341.278-.619.62-.619.342 0 .619.278.619.62v1.856c0 .342-.277.62-.62.62zM24.194 13.672c0-.342.277-.62.618-.62h1.857c.342 0 .62.278.62.62 0 .342-.278.619-.62.619h-1.857c-.341 0-.618-.277-.618-.62zM.056 13.672c0-.342.277-.62.619-.62H2.53c.342 0 .62.278.62.62 0 .342-.278.619-.62.619H.675c-.342 0-.62-.277-.62-.62z" transform="translate(4 4)"/>
                            </g>
                            <g fill="#8F96AC">
                                <path d="M23.313 18.412c-.168.291-.54.391-.832.223l-.527-.304c-.29-.168-.39-.54-.222-.831.168-.291.54-.391.83-.223l.528.304c.291.168.39.54.223.831zM1.706 5.938c-.168.29-.54.39-.831.223l-.527-.305c-.291-.168-.391-.54-.223-.83.168-.292.54-.392.831-.224l.527.305c.291.168.39.54.223.83zM.125 18.412c.168.291.54.391.831.223l.527-.304c.291-.168.39-.54.223-.831-.168-.291-.54-.391-.831-.223l-.527.304c-.291.168-.391.54-.223.831zM21.732 5.938c.168.29.54.39.83.223l.528-.305c.29-.168.39-.54.223-.83-.168-.292-.54-.392-.832-.224l-.527.305c-.29.168-.39.54-.222.83zM5.025 23.313c-.291-.168-.39-.54-.223-.832l.305-.527c.168-.29.54-.39.83-.222.292.168.392.54.224.83l-.305.528c-.168.291-.54.39-.83.223zM17.5 1.706c-.291-.168-.391-.54-.223-.831l.304-.527c.168-.291.54-.391.832-.223.29.168.39.54.222.831l-.304.527c-.168.291-.54.39-.831.223zM5.025.125c-.291.168-.39.54-.223.831l.305.527c.168.291.54.39.83.223.292-.168.392-.54.224-.831L5.856.348c-.168-.291-.54-.391-.83-.223zM17.5 21.732c-.291.168-.391.54-.223.83l.304.528c.168.29.54.39.832.223.29-.168.39-.54.222-.832l-.304-.527c-.168-.29-.54-.39-.831-.222z" transform="translate(6 6)"/>
                            </g>
                            <path fill="#5B5D6E" d="M26.368 17.765h-8.21v-7.118c0-.357-.283-.647-.632-.647-.348 0-.631.29-.631.647v7.118h-1.263c-.35 0-.632.29-.632.647 0 .357.283.647.632.647h1.263v1.294c0 .357.283.647.631.647.35 0 .632-.29.632-.647v-1.294h8.21c.35 0 .632-.29.632-.647 0-.358-.283-.647-.632-.647z"/>
                            <circle cx="18" cy="18" r="1" fill="#C7CFE2"/>
                        </g>
                    </g>
                </g>
            </g>
        </g>
    </g>
</svg>
