<?xml version="1.0" encoding="utf-8"?>
<!-- Generator: Adobe Illustrator 23.0.4, SVG Export Plug-In . SVG Version: 6.00 Build 0)  -->
<svg version="1.1" id="Layer_1" xmlns="http://www.w3.org/2000/svg" xmlns:xlink="http://www.w3.org/1999/xlink" x="0px" y="0px"
	 viewBox="0 0 180 180" style="enable-background:new 0 0 180 180;" xml:space="preserve">
<style type="text/css">
	.st0{fill:#5C63AB;}
	.st1{fill:#2F3676;}
	.st2{fill:#7D83C9;}
	.st3{fill:#FDBF00;}
	.st4{fill:#A5AAAF;}
	.st5{fill:#585E91;}
	.st6{fill:#FF9F00;}
	.st7{fill:#555A5F;}
	.st8{fill:#FFFFFF;}
	.st9{fill:#DFF2F5;}
</style>
<g>
	<path class="st0" d="M121.5,61.3v112.6H27.2V61.3c0-3.5,2.3-6.2,5.2-6.2h83.8C119.2,55.1,121.5,57.8,121.5,61.3z"/>
	<path class="st1" d="M121.5,70.6v103.3H75v-109h41.4C119.3,64.9,121.5,67.4,121.5,70.6z"/>
	<path class="st2" d="M114,0H34.8c-8.2,0-14.9,6.3-14.9,14v46.7c0,7.7,6.6,14,14.9,14H114c8.2,0,14.9-6.3,14.9-14V14
		C128.9,6.3,122.2,0,114,0z"/>
	<path class="st3" d="M78.1,97.6c-1-1.5-2.7-2.1-4.4-2.1c-1.7,0-3.4,0.6-4.4,2.1c-3.5,4.9-11.6,17.2-11.6,23.8
		c0,8.7,7.1,15.7,15.9,15.7s15.9-7,15.9-15.7C89.7,114.8,81.6,102.5,78.1,97.6z"/>
	<path class="st4" d="M143.6,174.5c0,3.1-2.3,5.5-5.3,5.5H11.7c-3,0-5.3-2.4-5.3-5.5c0-3.1,2.3-5.5,5.3-5.5h126.6
		C141.3,169,143.6,171.4,143.6,174.5z"/>
	<path class="st5" d="M128.9,14v46.7c0,7.7-6.6,14-14.7,14H75V0h39.2C122.3,0,128.9,6.3,128.9,14z"/>
	<path class="st6" d="M75,137.1V95.5c1.6,0,3.1,0.6,4,2.1c3.2,4.9,10.7,17.2,10.7,23.8C89.7,130.1,83.1,137.1,75,137.1z"/>
	<path class="st7" d="M143.6,174.5c0,3.1-2.3,5.5-5.3,5.5H75v-11h63.3C141.3,169,143.6,171.4,143.6,174.5z"/>
	<path class="st8" d="M106.5,18.4h-63c-2.9,0-5.2,2-5.2,4.6v27.6c0,2.6,2.3,4.6,5.2,4.6h63c2.9,0,5.2-2,5.2-4.6V23
		C111.7,20.4,109.4,18.4,106.5,18.4L106.5,18.4z"/>
	<path class="st9" d="M106.5,55.1H75V18.4h31.5c2.9,0,5.2,2,5.2,4.6v27.6C111.7,53.1,109.4,55.1,106.5,55.1L106.5,55.1z"/>
	<g>
		<path class="st1" d="M152.8,153.1c-9.1,0-16.5-5.7-16.5-12.7V99.3c0-4.7-4.9-8.5-11-8.5h-3.7v-5.7h3.7c10.1,0,18.4,6.3,18.4,14.2
			v41.1c0,3.9,4.1,7.1,9.2,7.1s9.2-3.2,9.2-7.1V70.9h7.3v69.4C169.3,147.4,161.9,153.1,152.8,153.1z M155.1,42.5l-10.5-16.8h-10
			v-7.3h11.4c0.9,0,1.7,0.5,2.2,1.4l11.4,18.2L155.1,42.5L155.1,42.5z"/>
	</g>
	<path class="st2" d="M160,33.1l-13.9,12.5c-3.2,3.1-3.3,8-0.4,11.4l13.7,15.6c0.5,0.6,1.3,1,2.2,1H173V48.4L160,33.1z"/>
</g>
</svg>
