<svg xmlns="http://www.w3.org/2000/svg" width="68" height="51" viewBox="0 0 68 51">
    <defs>
        <linearGradient id="bp05yeoxwa" x1="44.748%" x2="55.252%" y1="78.629%" y2="21.37%">
            <stop offset="1.5%" stop-color="#A6A6B9"/>
            <stop offset="100%" stop-color="#CACAD5"/>
        </linearGradient>
        <linearGradient id="2n4fin8kfb" x1="4.378%" x2="95.621%" y1="89.788%" y2="10.212%">
            <stop offset="1.5%" stop-color="#CACAD5"/>
            <stop offset="100%" stop-color="#DCDCE3"/>
        </linearGradient>
    </defs>
    <g fill="none" fill-rule="evenodd">
        <g fill-rule="nonzero">
            <g>
                <g transform="translate(-703 -3654) translate(703 3654)">
                    <path fill="#9595AC" d="M21.123 7.29c-.743 0-1.346-.607-1.346-1.356-.002-1.746-1.407-3.161-3.142-3.163-.743 0-1.346-.607-1.346-1.356 0-.75.603-1.356 1.346-1.356 3.221.004 5.831 2.632 5.835 5.875 0 .75-.603 1.356-1.347 1.356zM34.587 7.29c-.743 0-1.346-.607-1.346-1.356-.002-1.746-1.407-3.161-3.142-3.163-.743 0-1.346-.607-1.346-1.356 0-.75.603-1.356 1.346-1.356 3.221.004 5.831 2.632 5.835 5.875 0 .75-.603 1.356-1.347 1.356zM48.051 7.29c-.743 0-1.346-.607-1.346-1.356-.002-1.746-1.407-3.161-3.142-3.163-.743 0-1.346-.607-1.346-1.356 0-.75.603-1.356 1.346-1.356 3.221.004 5.831 2.632 5.835 5.875 0 .75-.603 1.356-1.347 1.356z"/>
                    <rect width="7.181" height="38.868" x="49.398" y="5.934" fill="url(#bp05yeoxwa)" rx="3.59"/>
                    <rect width="44.88" height="38.868" x="7.211" y="5.934" fill="url(#2n4fin8kfb)" rx="12"/>
                    <path fill="#FFF" d="M51.803 6.452c-.255-.327-.646-.518-1.058-.518H8.557c-.622 0-1.163.429-1.309 1.037l-7.18 29.83c-.098.404-.006.83.25 1.157.255.327.645.518 1.058.518h42.187c.621 0 1.162-.428 1.309-1.037l7.18-29.829c.098-.404.006-.831-.25-1.158z"/>
                    <path fill="#C1DAF6" d="M52.053 7.61c.097-.404.005-.831-.25-1.158-.256-.327-.646-.518-1.059-.518H8.557c-.622 0-1.163.429-1.309 1.037l-2.035 8.455H50.17l1.882-7.816z"/>
                    <g fill="#9595AC">
                        <path d="M25.611 2.77h-3.59c-.744 0-1.346-.606-1.346-1.355 0-.75.602-1.356 1.346-1.356h3.59c.744 0 1.347.607 1.347 1.356 0 .749-.603 1.356-1.347 1.356zM16.635 2.77h-3.59c-.744 0-1.346-.606-1.346-1.355 0-.75.602-1.356 1.346-1.356h3.59c.744 0 1.347.607 1.347 1.356 0 .749-.603 1.356-1.347 1.356zM7.66 2.77H4.068c-.744 0-1.346-.606-1.346-1.355 0-.75.602-1.356 1.346-1.356h3.59c.744 0 1.347.607 1.347 1.356 0 .749-.603 1.356-1.347 1.356zM34.587 2.77h-3.59c-.744 0-1.346-.606-1.346-1.355 0-.75.602-1.356 1.346-1.356h3.59c.744 0 1.347.607 1.347 1.356 0 .749-.603 1.356-1.347 1.356zM23.816 8.194h-3.59c-.744 0-1.347-.607-1.347-1.356 0-.749.603-1.356 1.347-1.356h3.59c.744 0 1.347.607 1.347 1.356 0 .749-.603 1.356-1.347 1.356zM14.84 8.194h-3.59c-.744 0-1.347-.607-1.347-1.356 0-.749.603-1.356 1.347-1.356h3.59c.744 0 1.347.607 1.347 1.356 0 .749-.603 1.356-1.347 1.356zM2.274 8.194c-.744 0-1.347-.607-1.347-1.356 0-.749.603-1.356 1.347-1.356h3.59c.744 0 1.347.607 1.347 1.356 0 .749-.603 1.356-1.347 1.356h-3.59zM32.792 8.194h-3.59c-.744 0-1.347-.607-1.347-1.356 0-.749.603-1.356 1.347-1.356h3.59c.744 0 1.347.607 1.347 1.356 0 .749-.603 1.356-1.347 1.356zM22.919 13.618h-3.59c-.744 0-1.347-.607-1.347-1.356 0-.75.603-1.356 1.346-1.356h3.59c.744 0 1.347.607 1.347 1.356 0 .749-.603 1.356-1.346 1.356zM13.943 13.618h-3.59c-.744 0-1.347-.607-1.347-1.356 0-.75.603-1.356 1.346-1.356h3.59c.744 0 1.347.607 1.347 1.356 0 .749-.603 1.356-1.346 1.356zM4.967 13.618h-3.59c-.744 0-1.347-.607-1.347-1.356 0-.75.603-1.356 1.346-1.356h3.59c.744 0 1.347.607 1.347 1.356 0 .749-.603 1.356-1.346 1.356zM31.895 13.618h-3.59c-.744 0-1.347-.607-1.347-1.356 0-.75.603-1.356 1.346-1.356h3.59c.744 0 1.347.607 1.347 1.356 0 .749-.603 1.356-1.346 1.356z" transform="translate(6.732 19.886)"/>
                    </g>
                    <path fill="#9595AC" d="M43.563 11.81c-3.222 0-5.834-2.63-5.834-5.876 0-3.245 2.612-5.875 5.834-5.875.744 0 1.347.607 1.347 1.356 0 .749-.603 1.356-1.347 1.356-1.735 0-3.141 1.416-3.141 3.163 0 1.748 1.406 3.164 3.141 3.164.744 0 1.347.607 1.347 1.356 0 .749-.603 1.356-1.347 1.356zM30.1 11.81c-3.223 0-5.835-2.63-5.835-5.876 0-3.245 2.612-5.875 5.834-5.875.744 0 1.347.607 1.347 1.356 0 .749-.603 1.356-1.347 1.356-1.735 0-3.141 1.416-3.141 3.163 0 1.748 1.406 3.164 3.141 3.164.744 0 1.347.607 1.347 1.356 0 .749-.603 1.356-1.347 1.356zM16.635 11.81c-3.222 0-5.834-2.63-5.834-5.876C10.8 2.69 13.413.06 16.635.06c.744 0 1.347.607 1.347 1.356 0 .749-.603 1.356-1.347 1.356-1.122 0-2.16.603-2.72 1.581-.562.98-.562 2.185 0 3.164.56.979 1.598 1.582 2.72 1.582.744 0 1.347.607 1.347 1.356 0 .749-.603 1.356-1.347 1.356z"/>
                </g>
                <g fill="#F5822D">
                    <path d="M2.121 3.552L5.023.63c.834-.84 2.186-.84 3.02 0l3.712 3.738c.834.84.834 2.202 0 3.042L9.18 10.003c-.205.206-.297.5-.247.787.246 1.418 1.022 4.438 3.64 7.074.748.753 3.156 2.995 7.03 3.668.284.049.573-.047.776-.251l2.575-2.593c.834-.84 2.187-.84 3.02 0l3.713 3.738c.834.84.834 2.201 0 3.041l-2.902 2.922c-1.876 1.89-4.663 2.541-7.167 1.656-3.334-1.179-7.723-3.36-11.764-7.43-4.04-4.068-6.207-8.489-7.377-11.846-.879-2.521-.232-5.328 1.644-7.217z" transform="translate(-703 -3654) translate(703 3654) matrix(-1 0 0 1 68 18.478)"/>
                    <g>
                        <path d="M14.562 21.774c-3.914-.68-6.346-2.947-7.101-3.708-2.644-2.666-3.428-5.72-3.677-7.154-.05-.29.043-.587.25-.796l2.6-2.622c.843-.849.843-2.226 0-3.075L2.886.64C2.103-.15.868-.205.022.473c.214.22 3.704 3.732 3.917 3.946.842.85.842 2.226 0 3.076l-2.601 2.621c-.207.21-.3.506-.25.797.249 1.434 1.033 4.487 3.677 7.153.956.964 3.375 3.241 7.1 3.708 1.114.14 2.053.08 2.697 0zM24.745 22.678l-3.75-3.78c-.785-.792-2.026-.844-2.872-.159.06.05.12.102.177.16l3.749 3.78c.842.849.842 2.225 0 3.075l-2.93 2.954c-1.002 1.01-2.26 1.67-3.596 1.935 2.263.453 4.63-.26 6.292-1.935l2.93-2.954c.842-.85.842-2.226 0-3.076z" transform="translate(-703 -3654) translate(703 3654) matrix(-1 0 0 1 68 18.478) translate(5.487)"/>
                    </g>
                </g>
            </g>
        </g>
    </g>
</svg>
