<svg xmlns="http://www.w3.org/2000/svg" width="44" height="50" viewBox="0 0 44 50">
    <g fill="none">
        <path fill="#F3F3F3" d="M39.655 1.724C39.652.774 38.882.003 37.931 0H11.207v8.62c0 .953-.772 1.725-1.724 1.725H0v37.93c.003.952.773 1.722 1.724 1.725h36.207c.95-.003 1.721-.773 1.724-1.724V1.724z"/>
        <path fill="#F3F3F3" d="M11.207 50H37.93c.952 0 1.724-.772 1.724-1.724V23.354C34.946 36.253 24.385 46.144 11.207 50z"/>
        <path fill="#C2C2C2" d="M11.207 8.62V0L0 10.345h9.483c.952 0 1.724-.772 1.724-1.724zM24.138 23.276H6.034c-.476 0-.862-.386-.862-.862s.386-.862.862-.862h18.104c.476 0 .862.386.862.862s-.386.862-.862.862zM18.966 28.448H6.034c-.476 0-.862-.386-.862-.862s.386-.862.862-.862h12.932c.476 0 .862.386.862.862s-.386.862-.862.862zM13.793 33.62H6.034c-.476 0-.862-.385-.862-.861s.386-.862.862-.862h7.76c.475 0 .861.386.861.862s-.386.862-.862.862zM29.31 18.103H12.931c-.476 0-.862-.386-.862-.862s.386-.862.862-.862h16.38c.475 0 .861.386.861.862s-.386.862-.862.862zM9.483 18.103H6.034c-.476 0-.862-.386-.862-.862s.386-.862.862-.862h3.449c.476 0 .862.386.862.862s-.386.862-.862.862z"/>
        <g>
            <path fill="#C2C2C2" d="M0 23.995L0.914 17.595 5.029 18.966 6.401 23.081z" transform="translate(20 19)"/>
            <path fill="#C1DAF6" d="M14.63 3.879L16.459 2.051 21.945 7.537 20.116 9.365zM19.7.022c-.218.022-.434.063-.646.123-.635.18-1.214.521-1.68.99l-.912.917 5.483 5.483.911-.912c1.164-1.162 1.467-2.932.758-4.417-.71-1.484-2.277-2.359-3.913-2.184z" transform="translate(20 19)"/>
            <path fill="#F5822D" d="M14.633 3.876L.913 17.596l3.662 1.827 8.227-8.23-8.227 8.23.826 1.65 1.005 2.004L19.705 9.78l.414-.414-1.062-1.061-4.424-4.428zm.059 5.427l.915-.914-.915.914z" transform="translate(20 19)"/>
        </g>
    </g>
</svg>
