<?xml version="1.0" encoding="UTF-8"?>
<svg width="162px" height="115px" viewBox="0 0 162 115" version="1.1" xmlns="http://www.w3.org/2000/svg" xmlns:xlink="http://www.w3.org/1999/xlink">
    <title>goods</title>
    <g id="Page-1" stroke="none" stroke-width="1" fill="none" fill-rule="evenodd">
        <g id="Artboard" transform="translate(-766.000000, -858.000000)">
            <g id="goods" transform="translate(766.000000, 858.000000)">
                <path d="M12.5379439,91.0522568 C-14.7346361,98.8929785 4.91656509,111.774551 48.0283133,114.573902 C91.1400616,117.373253 151.344022,105.867765 160.777323,95.0391039 C170.210625,84.2104432 39.8105239,83.2115351 12.5379439,91.0522568 Z" id="Background-Shape-Copy-2" fill="#CDD1D4"></path>
                <g id="Group-42" transform="translate(15.862069, 0.000000)">
                    <polygon id="Fill-1" fill="#C68C65" points="30.3720632 0 30.3720632 41.8460517 24.0826676 41.8460517 0 41.8460517 0 101.781609 24.0826676 101.781609 41.747033 101.781609 65.8297006 101.781609 65.8297006 46.6291657 77.9885057 46.6291657 77.9885057 0"></polygon>
                    <polygon id="Fill-2" fill="#C78B5B" points="55.5172414 101.781609 89.8850575 101.781609 89.8850575 55.5172414 55.5172414 55.5172414"></polygon>
                    <polygon id="Fill-3" fill="#E5BE84" points="23.7931034 101.781609 71.3793103 101.781609 71.3793103 55.5172414 23.7931034 55.5172414"></polygon>
                    <polygon id="Fill-4" fill="#EAD1B7" points="40.9770115 67.4137931 54.1954023 67.4137931 54.1954023 55.5172414 40.9770115 55.5172414"></polygon>
                    <polygon id="Fill-5" fill="#EAD1B7" points="40.9770115 101.781609 54.1954023 101.781609 54.1954023 89.8850575 40.9770115 89.8850575"></polygon>
                    <polygon id="Fill-6" fill="#F7EEE5" points="26.4367816 99.137931 38.3333333 99.137931 38.3333333 91.2068966 26.4367816 91.2068966"></polygon>
                    <polygon id="Fill-7" fill="#444248" points="25.6027011 97.816092 27.2708621 97.816092 27.2708621 92.5287356 25.6027011 92.5287356"></polygon>
                    <polygon id="Fill-8" fill="#444248" points="28.7883333 97.816092 29.3725862 97.816092 29.3725862 92.5287356 28.7883333 92.5287356"></polygon>
                    <polygon id="Fill-9" fill="#444248" points="31.0394253 97.816092 32.4088506 97.816092 32.4088506 92.5287356 31.0394253 92.5287356"></polygon>
                    <polygon id="Fill-10" fill="#444248" points="28.6640805 97.816092 29.4968391 97.816092 29.4968391 92.5287356 28.6640805 92.5287356"></polygon>
                    <polygon id="Fill-11" fill="#444248" points="32.7631034 97.816092 33.3288506 97.816092 33.3288506 92.5287356 32.7631034 92.5287356"></polygon>
                    <polygon id="Fill-12" fill="#444248" points="35.123908 97.816092 36.2554023 97.816092 36.2554023 92.5287356 35.123908 92.5287356"></polygon>
                    <polygon id="Fill-13" fill="#444248" points="35.4094253 97.816092 35.9698851 97.816092 35.9698851 92.5287356 35.4094253 92.5287356"></polygon>
                    <polygon id="Fill-14" fill="#444248" points="33.9818391 97.816092 34.7537931 97.816092 34.7537931 92.5287356 33.9818391 92.5287356"></polygon>
                    <polygon id="Fill-15" fill="#444248" points="36.5937931 97.816092 37.4291954 97.816092 37.4291954 92.5287356 36.5937931 92.5287356"></polygon>
                    <polygon id="Fill-16" fill="#E5BE84" points="75.3448276 101.781609 122.931034 101.781609 122.931034 55.5172414 75.3448276 55.5172414"></polygon>
                    <polygon id="Fill-17" fill="#EAD1B7" points="92.5287356 67.4137931 105.747126 67.4137931 105.747126 55.5172414 92.5287356 55.5172414"></polygon>
                    <polygon id="Fill-18" fill="#EAD1B7" points="92.5287356 101.781609 105.747126 101.781609 105.747126 89.8850575 92.5287356 89.8850575"></polygon>
                    <polygon id="Fill-19" fill="#F7EEE5" points="77.9885057 99.137931 89.8850575 99.137931 89.8850575 91.2068966 77.9885057 91.2068966"></polygon>
                    <polygon id="Fill-20" fill="#444248" points="78.4775862 97.816092 80.1431034 97.816092 80.1431034 92.5287356 78.4775862 92.5287356"></polygon>
                    <polygon id="Fill-21" fill="#444248" points="80.3400575 97.816092 80.9243103 97.816092 80.9243103 92.5287356 80.3400575 92.5287356"></polygon>
                    <polygon id="Fill-22" fill="#444248" points="82.5924713 97.816092 83.9592529 97.816092 83.9592529 92.5287356 82.5924713 92.5287356"></polygon>
                    <polygon id="Fill-23" fill="#444248" points="81.5376437 97.816092 82.3704023 97.816092 82.3704023 92.5287356 81.5376437 92.5287356"></polygon>
                    <polygon id="Fill-24" fill="#444248" points="85.6366667 97.816092 86.2024138 97.816092 86.2024138 92.5287356 85.6366667 92.5287356"></polygon>
                    <polygon id="Fill-25" fill="#444248" points="86.6756322 97.816092 87.8071264 97.816092 87.8071264 92.5287356 86.6756322 92.5287356"></polygon>
                    <polygon id="Fill-26" fill="#444248" points="88.2829885 97.816092 88.8434483 97.816092 88.8434483 92.5287356 88.2829885 92.5287356"></polygon>
                    <polygon id="Fill-27" fill="#444248" points="85.5322414 97.816092 86.3068391 97.816092 86.3068391 92.5287356 85.5322414 92.5287356"></polygon>
                    <polygon id="Fill-28" fill="#444248" points="89.4686782 97.816092 90.3014368 97.816092 90.3014368 92.5287356 89.4686782 92.5287356"></polygon>
                    <polygon id="Fill-29" fill="#E5BE84" points="50.2298851 55.5172414 97.816092 55.5172414 97.816092 9.25287356 50.2298851 9.25287356"></polygon>
                    <polygon id="Fill-30" fill="#EAD1B7" points="67.4137931 21.1494253 80.6321839 21.1494253 80.6321839 9.25287356 67.4137931 9.25287356"></polygon>
                    <polygon id="Fill-31" fill="#EAD1B7" points="67.4137931 55.5172414 80.6321839 55.5172414 80.6321839 43.6206897 67.4137931 43.6206897"></polygon>
                    <polygon id="Fill-32" fill="#F7EEE5" points="52.8735632 52.8735632 64.7701149 52.8735632 64.7701149 44.9425287 52.8735632 44.9425287"></polygon>
                    <polygon id="Fill-33" fill="#444248" points="52.0408046 51.5517241 53.7063218 51.5517241 53.7063218 46.2643678 52.0408046 46.2643678"></polygon>
                    <polygon id="Fill-34" fill="#444248" points="55.2251149 51.5517241 55.8093678 51.5517241 55.8093678 46.2643678 55.2251149 46.2643678"></polygon>
                    <polygon id="Fill-35" fill="#444248" points="57.4775287 51.5517241 58.8443103 51.5517241 58.8443103 46.2643678 57.4775287 46.2643678"></polygon>
                    <polygon id="Fill-36" fill="#444248" points="55.1008621 51.5517241 55.9336207 51.5517241 55.9336207 46.2643678 55.1008621 46.2643678"></polygon>
                    <polygon id="Fill-37" fill="#444248" points="59.1998851 51.5517241 59.7656322 51.5517241 59.7656322 46.2643678 59.1998851 46.2643678"></polygon>
                    <polygon id="Fill-38" fill="#444248" points="61.5606897 51.5517241 62.6921839 51.5517241 62.6921839 46.2643678 61.5606897 46.2643678"></polygon>
                    <polygon id="Fill-39" fill="#444248" points="61.8462069 51.5517241 62.4066667 51.5517241 62.4066667 46.2643678 61.8462069 46.2643678"></polygon>
                    <polygon id="Fill-40" fill="#444248" points="60.4186207 51.5517241 61.1905747 51.5517241 61.1905747 46.2643678 60.4186207 46.2643678"></polygon>
                    <polygon id="Fill-41" fill="#444248" points="63.0318966 51.5517241 63.8646552 51.5517241 63.8646552 46.2643678 63.0318966 46.2643678"></polygon>
                    <polygon id="Path-2" fill="#C68C65" points="97.816092 9.25287356 77.9885057 0 71.3793103 6.61646735 71.3793103 9.25287356"></polygon>
                    <polygon id="Path-3" fill="#C68C65" points="122.931034 55.5172414 97.816092 48.2612583 97.816092 55.5172414"></polygon>
                </g>
            </g>
        </g>
    </g>
</svg>