<svg xmlns="http://www.w3.org/2000/svg" xmlns:xlink="http://www.w3.org/1999/xlink" width="120" height="120" viewBox="0 0 120 120">
    <defs>
        <circle id="c9k0xrs81a" cx="60" cy="60" r="60"/>
    </defs>
    <g fill="none" fill-rule="evenodd">
        <g>
            <g transform="translate(-530 -1506) translate(530 1506)">
                <mask id="tpx7ovcngb" fill="#fff">
                    <use xlink:href="#c9k0xrs81a"/>
                </mask>
                <use fill="#F8F8F8" xlink:href="#c9k0xrs81a"/>
                <g mask="url(#tpx7ovcngb)">
                    <g>
                        <path fill="#DBE0E4" fill-rule="nonzero" d="M67.5 7c-2.416 0-4.635 1.148-5.953 3.175l-.212.346L21.92 79.389c-2.61 4.561.656 10.368 5.838 10.604l.326.007h78.834c5.26 0 8.687-5.714 6.32-10.324l-.156-.287-39.416-68.868C72.38 8.279 70.05 7 67.5 7z" transform="translate(-2 30)"/>
                        <path fill="#FABE2C" fill-rule="nonzero" d="M44.508 0c-2.312 0-4.437 1.096-5.698 3.03l-.202.33L.879 69.09c-2.498 4.353.628 9.895 5.589 10.12l.312.007h75.457c5.035 0 8.315-5.454 6.05-9.854l-.15-.273L50.41 3.36C49.181 1.22 46.949 0 44.509 0z" transform="translate(-2 30)"/>
                        <g>
                            <path fill="#4D5961" fill-rule="nonzero" d="M16.503 23.5c-.001 2.818 1.521 5.424 3.997 6.84l-7.328 12.503c-.182.311-.485.535-.84.62-.353.085-.727.023-1.034-.171C4.942 39.177.938 32.346.501 24.87c-.013-.362.126-.714.384-.973s.613-.402.981-.397h14.637zm29.634 0c.364-.001.714.142.97.397.257.256.398.602.393.96-.226 3.69-1.314 7.28-3.179 10.486-1.874 3.206-4.491 5.93-7.637 7.95-.307.196-.684.256-1.039.166-.355-.09-.655-.321-.83-.639L27.5 30.344c1.222-.692 2.237-1.69 2.94-2.895.698-1.203 1.065-2.564 1.065-3.949h14.632zm-19.89-4.398c1.393.804 2.251 2.29 2.253 3.897h-.009c0 .79-.207 1.567-.6 2.252-1.244 2.149-3.99 2.886-6.14 1.649-1.392-.804-2.25-2.289-2.251-3.896.001-.79.209-1.566.6-2.252.402-.68.969-1.247 1.648-1.649 1.392-.804 3.107-.804 4.5 0zM34.78 2.9c.326.159.568.436.67.767.1.331.052.687-.136.983L27.996 16.5c-2.476-1.35-5.535-1.35-8.01 0L12.695 4.65c-.194-.295-.246-.652-.144-.985.101-.333.348-.61.678-.765 6.777-3.2 14.773-3.2 21.55 0z" transform="translate(-2 30) translate(20.5 27.5)"/>
                        </g>
                    </g>
                </g>
            </g>
        </g>
    </g>
</svg>
