<?xml version="1.0" encoding="utf-8"?>
<!-- Generator: Adobe Illustrator 23.0.4, SVG Export Plug-In . SVG Version: 6.00 Build 0)  -->
<svg version="1.1" id="Layer_1" xmlns="http://www.w3.org/2000/svg" xmlns:xlink="http://www.w3.org/1999/xlink" x="0px" y="0px"
	 viewBox="0 0 2646 196" style="enable-background:new 0 0 2646 196;" xml:space="preserve">
<style type="text/css">
	.st0{fill:#A0C1E0;}
	.st1{fill:#81ADD6;}
	.st2{fill:#6890B5;}
</style>
<path class="st0" d="M1293.8,12.1c0,0-246.3,11.2-388.9,30s-550.4-15.9-627-15C201.3,28,0,24.5,0,24.5v125l1280,7.5L1293.8,12.1z"/>
<path class="st1" d="M1280,79.4c0,0-156.7,37.3-259.6,22.5c-156.7-22.5-532.6-37.5-709-47.7S67.2,48.5,67.2,48.5L0,47.6v100.9h1280
	V79.4z"/>
<title>Highway_fullscale</title>
<g id="Page-1">
	<g id="Highway_fullscale">
		<path id="Fill-60" class="st0" d="M2008.4,3.3L2008.4,3.3C2253,16.8,2474.1,41.9,2646,82.9V159H1280V12.6
			C1527.8,3.5,1768.5-0.2,2008.4,3.3"/>
		<path id="Fill-60-Copy" class="st1" d="M1917.6,1.3L1917.6,1.3C1673,14.8,1451.9,39.9,1280,80.9V157h1366V10.6
			C2398.2,1.5,2157.5-2.2,1917.6,1.3"/>
		<g id="Group-30" transform="translate(0.000000, 394.000000)">
			<g id="Group">
				<path id="Combined-Shape" class="st2" d="M1316-291h14v16h102v-16h14v16h103v-16h14v16h102v-16h14v16h102v-16h14v16h102v-16h14
					v16h104v-16h14v16h102v-16h14v16h102v-16h14v16h102v-16h14v16h103v-16h14v16h102v-16h14v16h36v77H1280v-77h36V-291z M2646-306
					v14H1280v-14H2646z"/>
			</g>
		</g>
	</g>
</g>
<g id="Group-30_1_" transform="translate(0.000000, 394.000000)">
	<g id="Group_1_">
		<path id="Combined-Shape_1_" class="st2" d="M36-291h14v16h102v-16h14v16h103v-16h14v16h102v-16h14v16h102v-16h14v16h102v-16h14
			v16h104v-16h14v16h102v-16h14v16h102v-16h14v16h102v-16h14v16h103v-16h14v16h102v-16h14v16h36v77H0v-77h36V-291z M1366-306v14H0
			v-14H1366z"/>
	</g>
</g>
</svg>
