<?xml version="1.0" encoding="utf-8"?>
<!-- Generator: Adobe Illustrator 23.0.4, SVG Export Plug-In . SVG Version: 6.00 Build 0)  -->
<svg version="1.1" id="Layer_1" xmlns="http://www.w3.org/2000/svg" xmlns:xlink="http://www.w3.org/1999/xlink" x="0px" y="0px"
	 viewBox="0 0 2726.2 196" style="enable-background:new 0 0 2726.2 196;" xml:space="preserve">
<style type="text/css">
	.st0{fill-rule:evenodd;clip-rule:evenodd;fill:#DEE8F0;}
	.st1{fill-rule:evenodd;clip-rule:evenodd;fill:#CADAE8;}
	.st2{fill-rule:evenodd;clip-rule:evenodd;fill:#9FC0DF;}
	.st3{fill:#DEE8F0;}
	.st4{fill:#CADAE8;}
	.st5{fill:#9FC0DF;}
</style>
<path class="st0" d="M1366.4,12.4c0,0-234.5,25.1-398.2,20.7S466.5,8,377.9,12.4S1.2,11.8,1.2,11.8v143.4l1364,0.7L1366.4,12.4z"/>
<path class="st1" d="M1365.5,80.7c0,0-99.4,12.9-220.9,13.2S641.8,64.2,483.3,63.1c-158.4-1-482.2-32-482.2-32l2,127.1H1113
	l260.2-7.3L1365.5,80.7z"/>
<title>Group 4</title>
<g id="Group-30_1_">
	<g transform="translate(0.000000, 394.000000)">
		<polygon class="st2" points="1.2,-198.1 1367.2,-198.1 1367.2,-205.1 1.2,-205.1 		"/>
		<polygon class="st2" points="1.2,-205.1 1367.2,-205.1 1367.2,-241.1 1.2,-241.1 		"/>
		<polygon class="st2" points="1.2,-241.1 1367.2,-241.1 1367.2,-275.1 1.2,-275.1 		"/>
		<polygon class="st2" points="1.2,-294.1 1367.2,-294.1 1367.2,-306.1 1.2,-306.1 		"/>
		<polygon class="st2" points="1.2,-292.1 1367.2,-292.1 1367.2,-294.1 1.2,-294.1 		"/>
		<polygon class="st2" points="37.2,-275.1 51.2,-275.1 51.2,-287.1 37.2,-287.1 		"/>
		<polygon class="st2" points="37.2,-287.1 51.2,-287.1 51.2,-291.1 37.2,-291.1 		"/>
		<polygon class="st2" points="153.2,-275.1 167.2,-275.1 167.2,-287.1 153.2,-287.1 		"/>
		<polygon class="st2" points="153.2,-287.1 167.2,-287.1 167.2,-291.1 153.2,-291.1 		"/>
		<polygon class="st2" points="270.2,-275.1 284.2,-275.1 284.2,-287.1 270.2,-287.1 		"/>
		<polygon class="st2" points="270.2,-287.1 284.2,-287.1 284.2,-291.1 270.2,-291.1 		"/>
		<polygon class="st2" points="386.2,-275.1 400.2,-275.1 400.2,-287.1 386.2,-287.1 		"/>
		<polygon class="st2" points="386.2,-287.1 400.2,-287.1 400.2,-291.1 386.2,-291.1 		"/>
		<polygon class="st2" points="502.2,-275.1 516.2,-275.1 516.2,-287.1 502.2,-287.1 		"/>
		<polygon class="st2" points="502.2,-287.1 516.2,-287.1 516.2,-291.1 502.2,-291.1 		"/>
		<polygon class="st2" points="618.2,-275.1 632.2,-275.1 632.2,-287.1 618.2,-287.1 		"/>
		<polygon class="st2" points="618.2,-287.1 632.2,-287.1 632.2,-291.1 618.2,-291.1 		"/>
		<polygon class="st2" points="736.2,-275.1 750.2,-275.1 750.2,-287.1 736.2,-287.1 		"/>
		<polygon class="st2" points="736.2,-287.1 750.2,-287.1 750.2,-291.1 736.2,-291.1 		"/>
		<polygon class="st2" points="852.2,-275.1 866.2,-275.1 866.2,-287.1 852.2,-287.1 		"/>
		<polygon class="st2" points="852.2,-287.1 866.2,-287.1 866.2,-291.1 852.2,-291.1 		"/>
		<polygon class="st2" points="968.2,-275.1 982.2,-275.1 982.2,-287.1 968.2,-287.1 		"/>
		<polygon class="st2" points="968.2,-287.1 982.2,-287.1 982.2,-291.1 968.2,-291.1 		"/>
		<polygon class="st2" points="1084.2,-275.1 1098.2,-275.1 1098.2,-287.1 1084.2,-287.1 		"/>
		<polygon class="st2" points="1084.2,-287.1 1098.2,-287.1 1098.2,-291.1 1084.2,-291.1 		"/>
		<polygon class="st2" points="1201.2,-275.1 1215.2,-275.1 1215.2,-287.1 1201.2,-287.1 		"/>
		<polygon class="st2" points="1201.2,-287.1 1215.2,-287.1 1215.2,-291.1 1201.2,-291.1 		"/>
		<polygon class="st2" points="1317.2,-275.1 1331.2,-275.1 1331.2,-287.1 1317.2,-287.1 		"/>
		<polygon class="st2" points="1317.2,-287.1 1331.2,-287.1 1331.2,-291.1 1317.2,-291.1 		"/>
	</g>
</g>
<g id="Desktop_1_">
	<g id="Highway_svg">
		<path id="Fill-60_1_" class="st3" d="M2090.4,3.3C2090.4,3.3,2090.4,3.3,2090.4,3.3C2335,16.8,2556.1,41.9,2728,82.9V159H1362
			V12.6C1609.8,3.5,1850.5-0.2,2090.4,3.3"/>
		<path id="Fill-60-Copy_1_" class="st4" d="M1999.6,1.3C1999.6,1.3,1999.6,1.3,1999.6,1.3C1755,14.8,1533.9,39.9,1362,80.9V157
			h1366V10.6C2480.2,1.5,2239.5-2.2,1999.6,1.3"/>
		<g id="Group-30_2_" transform="translate(0.000000, 394.000000)">
			<g id="Group">
				<path id="Combined-Shape" class="st5" d="M1362-275h1366v77H1362V-275z"/>
				<polygon id="Fill-4" class="st5" points="1362,-294 2728,-294 2728,-306 1362,-306 				"/>
				<polygon id="Fill-5" class="st5" points="1362,-292 2728,-292 2728,-294 1362,-294 				"/>
				<polygon id="Fill-6" class="st5" points="1398,-275 1412,-275 1412,-287 1398,-287 				"/>
				<polygon id="Fill-7" class="st5" points="1398,-287 1412,-287 1412,-291 1398,-291 				"/>
				<polygon id="Fill-8" class="st5" points="1514,-275 1528,-275 1528,-287 1514,-287 				"/>
				<polygon id="Fill-9" class="st5" points="1514,-287 1528,-287 1528,-291 1514,-291 				"/>
				<polygon id="Fill-10" class="st5" points="1631,-275 1645,-275 1645,-287 1631,-287 				"/>
				<polygon id="Fill-11" class="st5" points="1631,-287 1645,-287 1645,-291 1631,-291 				"/>
				<polygon id="Fill-12" class="st5" points="1747,-275 1761,-275 1761,-287 1747,-287 				"/>
				<polygon id="Fill-13" class="st5" points="1747,-287 1761,-287 1761,-291 1747,-291 				"/>
				<polygon id="Fill-14" class="st5" points="1863,-275 1877,-275 1877,-287 1863,-287 				"/>
				<polygon id="Fill-15" class="st5" points="1863,-287 1877,-287 1877,-291 1863,-291 				"/>
				<polygon id="Fill-16" class="st5" points="1979,-275 1993,-275 1993,-287 1979,-287 				"/>
				<polygon id="Fill-17" class="st5" points="1979,-287 1993,-287 1993,-291 1979,-291 				"/>
				<polygon id="Fill-18" class="st5" points="2097,-275 2111,-275 2111,-287 2097,-287 				"/>
				<polygon id="Fill-19" class="st5" points="2097,-287 2111,-287 2111,-291 2097,-291 				"/>
				<polygon id="Fill-20" class="st5" points="2213,-275 2227,-275 2227,-287 2213,-287 				"/>
				<polygon id="Fill-21" class="st5" points="2213,-287 2227,-287 2227,-291 2213,-291 				"/>
				<polygon id="Fill-22" class="st5" points="2329,-275 2343,-275 2343,-287 2329,-287 				"/>
				<polygon id="Fill-23" class="st5" points="2329,-287 2343,-287 2343,-291 2329,-291 				"/>
				<polygon id="Fill-24" class="st5" points="2445,-275 2459,-275 2459,-287 2445,-287 				"/>
				<polygon id="Fill-25" class="st5" points="2445,-287 2459,-287 2459,-291 2445,-291 				"/>
				<polygon id="Fill-26" class="st5" points="2562,-275 2576,-275 2576,-287 2562,-287 				"/>
				<polygon id="Fill-27" class="st5" points="2562,-287 2576,-287 2576,-291 2562,-291 				"/>
				<polygon id="Fill-28" class="st5" points="2678,-275 2692,-275 2692,-287 2678,-287 				"/>
				<polygon id="Fill-29" class="st5" points="2678,-287 2692,-287 2692,-291 2678,-291 				"/>
			</g>
		</g>
	</g>
</g>
</svg>
