<svg xmlns="http://www.w3.org/2000/svg" xmlns:xlink="http://www.w3.org/1999/xlink" width="80" height="80" viewBox="0 0 80 80">
    <defs>
        <path id="7vdnva8d6e" d="M0 0L20.824 0 20.824 24.989 0 24.989z"/>
        <path id="ni422q2mjg" d="M0.099 0.079L15.78 0.079 15.78 22.828 0.099 22.828z"/>
        <path id="zs94efep5i" d="M0 48.988L59.901 48.988 59.901 0.13 0 0.13z"/>
        <circle id="yb6ty9u1ia" cx="40" cy="40" r="40"/>
        <circle id="myvztvaivc" cx="40" cy="40" r="40"/>
    </defs>
    <g fill="none" fill-rule="evenodd">
        <g>
            <g>
                <g transform="translate(-25 -985) translate(25 985)">
                    <mask id="we6mc6netb" fill="#fff">
                        <use xlink:href="#yb6ty9u1ia"/>
                    </mask>
                    <use fill="#F7F8F9" xlink:href="#yb6ty9u1ia"/>
                    <g mask="url(#we6mc6netb)">
                        <g transform="translate(-41 36)">
                            <g fill-rule="nonzero">
                                <path fill="#FFF" d="M94.43 9.334c-2.326-1.45-4.746-2.74-7.245-3.864l-5.716 5.715H24.07c-7.281 0-14.434 1.9-20.755 5.513C1.265 17.868 0 20.049 0 22.41v10.994h98.133l6-2.407c1.968-.786 3.258-2.694 3.258-4.813V11.185L94.43 9.335z" transform="matrix(-1 0 0 1 107.5 0)"/>
                                <path fill="#30516C" d="M87.185 5.47C79.315 1.919 70.784.08 62.15.077h-2.181c-10.191 0-20.22 2.556-29.167 7.437l-6.731 3.671h57.398l5.716-5.715z" transform="matrix(-1 0 0 1 107.5 0)"/>
                                <path fill="#25313B" d="M48.14 11.185H81.47l5.716-5.715c-4.228-1.9-8.656-3.312-13.203-4.21L48.14 11.184z" transform="matrix(-1 0 0 1 107.5 0)"/>
                                <path fill="#CCCBCB" d="M44.438 14.889L51.844 14.889 51.844 18.592 44.438 18.592zM0 25.998v7.406h98.133l6-2.407c1.968-.786 3.258-2.694 3.258-4.813v-.186H0z" transform="matrix(-1 0 0 1 107.5 0)"/>
                                <path fill="#25313B" d="M16.485 20.425c-6.137 0-11.11 4.974-11.11 11.11 0 6.136 4.973 11.11 11.11 11.11 6.135 0 11.108-4.974 11.108-11.11 0-6.136-4.973-11.11-11.108-11.11z" transform="matrix(-1 0 0 1 107.5 0)"/>
                                <path fill="#EFE8E0" d="M23.472 31.355c0 3.661-2.969 6.63-6.63 6.63-3.662 0-6.63-2.969-6.63-6.63s2.968-6.63 6.63-6.63c3.661 0 6.63 2.969 6.63 6.63z" transform="matrix(-1 0 0 1 107.5 0)"/>
                                <path fill="#CCCBCB" d="M57.399 11.185L61.102 11.185 61.102 33.404 57.399 33.404z" transform="matrix(-1 0 0 1 107.5 0)"/>
                            </g>
                            <circle cx="90.838" cy="31.175" r="2.688" fill="#F5822D"/>
                        </g>
                    </g>
                </g>
                <g transform="translate(-25 -985) translate(25 985)">
                    <mask id="hs23xktpwd" fill="#fff">
                        <use xlink:href="#myvztvaivc"/>
                    </mask>
                    <use fill="#F0F0F0" xlink:href="#myvztvaivc"/>
                    <g mask="url(#hs23xktpwd)">
                        <g transform="translate(25 23)">
                            <path fill="#2F8C5B" d="M33.319 13.587v4.165c0 5.75-4.662 10.412-10.412 10.412H12.495v-5.987c.002-5.893 4.779-10.67 10.672-10.673h8.07c1.15 0 2.082.932 2.082 2.082z"/>
                            <g transform="translate(0 15.67)">
                                <mask id="vovxecm53f" fill="#fff">
                                    <use xlink:href="#7vdnva8d6e"/>
                                </mask>
                                <path fill="#349966" d="M20.824 10.672V24.99H16.66v-8.33h-6.247C4.662 16.66 0 11.998 0 6.247V2.082C0 .932.931 0 2.081 0h8.071c5.894 0 10.672 4.778 10.672 10.672z" mask="url(#vovxecm53f)"/>
                            </g>
                            <path fill="#C4D4E0" d="M49.978 31.287l-5.247 11.246c-1.182 2.532-3.333 4.484-5.97 5.414h-7.936c-.012-.046-.023-.093-.032-.14l-.875-4.367c-.492-2.465-.077-5.025 1.17-7.208l6.396-11.192 12.494 6.247z"/>
                            <path fill="#A6B2BC" d="M39.439 38.033L34.031 47.947 31.659 47.947 37.611 37.036zM49.978 11.504L39.304 31.882c-.443.846-.176 1.89.618 2.42.858.571 2.017.34 2.589-.518.036-.055.07-.111.1-.17l10.49-20.027-3.123-2.083z"/>
                            <g transform="translate(44.121 .051)">
                                <mask id="s2qeiovdah" fill="#fff">
                                    <use xlink:href="#ni422q2mjg"/>
                                </mask>
                                <path fill="#966342" d="M2.495 22.507c1.898.813 4.101.03 5.059-1.799l7.774-14.841c1.013-1.934.266-4.323-1.668-5.336-.09-.047-.183-.091-.277-.131-1.897-.814-4.1-.03-5.058 1.799L.55 17.039c-1.013 1.935-.267 4.324 1.667 5.337.09.047.183.09.277.131" mask="url(#s2qeiovdah)"/>
                            </g>
                            <path fill="#AD7D4D" d="M24.99 41.7v4.164H4.164c0-1.725 1.398-3.123 3.123-3.123.837 0 1.638.335 2.225.93-.515-1.645.402-3.397 2.048-3.911.823-.258 1.716-.163 2.467.26.925-1.453 2.854-1.881 4.307-.956.37.235.686.546.927.911.952-1.438 2.89-1.832 4.328-.88.874.578 1.4 1.556 1.4 2.605"/>
                            <path fill="#966342" d="M12.495 45.864h-2.083c.001-.82-.322-1.609-.9-2.193-.248-.798-.167-1.662.227-2.4 1.695.906 2.754 2.672 2.756 4.593M17.7 42.74h-2.082c0-1.126-.608-2.166-1.59-2.72.405-.635 1.026-1.103 1.749-1.318 1.218.987 1.925 2.471 1.924 4.039"/>
                            <mask id="api46ydjjj" fill="#fff">
                                <use xlink:href="#zs94efep5i"/>
                            </mask>
                            <path fill="#966342" d="M1.041 46.906L24.989 46.906 24.989 44.823 1.041 44.823z" mask="url(#api46ydjjj)"/>
                            <path fill="#966342" d="M24.99 41.7v.104c-2.044.421-3.64 2.017-4.062 4.06h-2.11c.43-2.96 2.625-5.36 5.536-6.052.413.543.636 1.206.635 1.888" mask="url(#api46ydjjj)"/>
                            <path fill="#AD7D4D" d="M49.978 47.947h-29.05c-.069-.343-.104-.692-.104-1.041.003-2.876 2.337-5.205 5.213-5.202 2.078.002 3.956 1.24 4.778 3.148.14-.02.28-.03.421-.029.918 0 1.79.403 2.382 1.104 1.595-1.473 4.054-1.473 5.649 0 1.114-1.315 3.084-1.478 4.399-.364.225.191.423.413.586.66.952-1.439 2.89-1.833 4.327-.881.874.579 1.4 1.557 1.4 2.605" mask="url(#api46ydjjj)"/>
                            <path fill="#966342" d="M37.404 44.935c.696.164 1.338.506 1.863.992-.48.563-.743 1.28-.742 2.02h-2.083c-.001-1.08.335-2.133.962-3.012M46.855 47.947h-2.083c.001-.614-.18-1.214-.52-1.725.394-.596.981-1.04 1.663-1.254.613.872.941 1.913.94 2.979M30.815 44.852c-1.547.213-2.7 1.534-2.702 3.095H26.03c.003-2.209 1.396-4.177 3.48-4.912.561.504 1.007 1.124 1.305 1.817" mask="url(#api46ydjjj)"/>
                            <path fill="#966342" d="M17.701 48.988L58.308 48.988 58.308 46.906 17.701 46.906z" mask="url(#api46ydjjj)"/>
                        </g>
                    </g>
                    <g mask="url(#hs23xktpwd)">
                        <g>
                            <path fill="#ECF0F1" fill-rule="nonzero" d="M16 .6c8.395 0 15.2 6.805 15.2 15.2S24.395 31 16 31 .8 24.195.8 15.8 7.605.6 16 .6z" transform="translate(-4.5 44)"/>
                            <path fill="#FFF" fill-rule="nonzero" d="M17.495.6c4.444 0 8.44 1.914 11.202 4.96C30.28 7.978 31.2 10.867 31.2 13.97c0 8.522-6.933 15.429-15.487 15.429-2.767 0-5.365-.724-7.614-1.992C4.627 24.653 2.4 20.405 2.4 15.638 2.4 7.333 9.158.6 17.495.6z" transform="translate(-4.5 44)"/>
                            <path fill="#4D4D4D" fill-rule="nonzero" d="M16.8 2.59c-.487-.066-1.504-.649-3.2-.78l3.2.78z" transform="translate(-4.5 44)"/>
                            <g>
                                <path fill="#ECF0F1" fill-rule="nonzero" d="M13.736 1.363L13.806 6.87 13.444 6.873 13.374 1.366zM9.035.425c-.01.003-4.1 1.297-6.162 4.526l-.302-.208C4.71 1.394 8.931.065 8.941.062l.093.363zM2.964 8.936c.008 0 3.392.403 5.706 1.617l-.163.335C6.26 9.71 2.948 9.311 2.94 9.311l.024-.375zM.406 13.341c-.002.011-.214 4.728 1.912 7.768l-.294.22C-.192 18.16.047 13.29.049 13.28l.357.062zM9.099 26.289c.043.001.125.022.256.055.868.22 5.262 1.01 8.395-.282l.132.348c-3.239 1.336-7.721.525-8.612.299-.109-.028-.177-.045-.182-.045l.01-.375zM27.14 13.179c.002.012.02 5.285-2.153 8.017l-.28-.238c2.079-2.613 2.073-7.739 2.072-7.75l.362-.03zM23.952 9.242c-.007 0-2.776.34-5.027 1.52l-.107-.33c2.31-1.212 5.03-1.52 5.037-1.52l.097.33zM10.666 16.89L6.578 22.482 6.292 22.251 10.379 16.659zM16.697 16.57L20.643 22.009 20.351 22.23 16.405 16.792 16.697 16.569zM18.594.252c.01.003 3.657.953 5.796 4.301l-.303.208C22.027 1.533 18.49.55 18.48.547l.114-.294z" transform="translate(-4.5 44) translate(2.4 2.2)"/>
                            </g>
                            <g>
                                <path fill="#C8CACC" fill-rule="nonzero" d="M.373.094c.004.004.625.68 1.472 1.464-.213-.058-.424-.119-.633-.184C.557.747.112.262.108.258L.373.094zM12.764.17c-.255.42-.56.804-.89 1.15-.207.068-.416.13-.626.19.457-.422.88-.908 1.213-1.455l.303.116z" transform="translate(-4.5 44) translate(10.4 27.8)"/>
                            </g>
                            <path fill="#C8CACC" fill-rule="nonzero" d="M5.597 24.99c-.004 0-.46-.001-1.19-.165-.14-.203-.275-.407-.407-.615.964.28 1.596.28 1.6.28l-.003.5z" transform="translate(-4.5 44)"/>
                            <g>
                                <path fill="#ECF0F1" fill-rule="nonzero" d="M10.07.817L9.057.233c.178-.05.357-.1.537-.144l.635.367-.16.36zM16.152.54l.804-.398c.19.05.38.102.567.159l-1.238.614-.133-.374z" transform="translate(-4.5 44) translate(4 .6)"/>
                            </g>
                            <g>
                                <path fill="#C8CACC" fill-rule="nonzero" d="M.79 1.132L.954.087c.07.133.14.267.208.403l-.104.673-.266-.03zM2.58 7.247l.551.554c.013.163.024.327.033.492l-.74-.747.157-.3zM.022 18.74l1.213-.335c-.073.15-.148.296-.224.44l-.929.256-.06-.361z" transform="translate(-4.5 44) translate(26.4 5.4)"/>
                            </g>
                            <g>
                                <path fill="#40566A" fill-rule="nonzero" d="M14.405 7.953L17.044 9.936 19.683 11.919 18.675 15.126 17.667 18.334 14.405 18.334 11.143 18.334 10.135 15.126 9.127 11.919 11.766 9.936 14.405 7.953zM14.356 3.161c1.674-.637 3.415-1.045 5.278-1.039L17.618.44c-2.175-.43-4.35-.429-6.524 0L9.078 2.122c1.839-.051 3.608.246 5.278 1.04zM2.902 21.751s2.08 1.545 4.66 1.352c0 0 .74 2.471 3.069 4.422 0 0-.833.847-2.703 1.206 0 0-3.05-.98-4.844-3.787 0 0-.44-1.39-.183-3.193zm18.029 1.166s2.4.03 4.797-1.286c0 0 .483 1.59-.059 3.194 0 0-1.311 2.409-4.902 3.855 0 0-1.827-.214-2.705-1.353 0 0 2.875-2.519 2.869-4.41zM2.033 7.11s.946-.771 2.085-1.21c0 0-.762 1.872.127 4.668 0 0-2.034 1.474-2.831 4.47 0 0-.675-.308-1.377-1.552-.09-2.346 1.3-5.539 1.996-6.376zm22.535-1.317c.783.156 1.52.493 2.175 1.155 1.258 2.122 1.911 4.278 2.034 6.465l-1.297 1.64c-.69-1.68-1.606-3.26-3.12-4.571.302-1.265.413-2.774.208-4.688z" transform="translate(-4.5 44) translate(2.4 .6)"/>
                            </g>
                        </g>
                    </g>
                </g>
            </g>
        </g>
    </g>
</svg>
