<?xml version="1.0" encoding="UTF-8"?>
<svg width="64px" height="64px" viewBox="0 0 64 64" version="1.1" xmlns="http://www.w3.org/2000/svg" xmlns:xlink="http://www.w3.org/1999/xlink">
    <title>Group 35</title>
    <g id="4Wheeler" stroke="none" stroke-width="1" fill="none" fill-rule="evenodd">
        <g id="01_-cart_delivery-option-pre-selected_desktop" transform="translate(-220.000000, -1372.000000)">
            <g id="Group-35" transform="translate(220.000000, 1372.000000)">
                <rect id="Rectangle" x="0" y="0" width="64" height="64"></rect>
                <g id="Group-34" transform="translate(1.000000, 8.000000)" fill-rule="nonzero">
                    <g id="tire" transform="translate(0.000000, 0.576471)">
                        <g id="Group" fill="#F5822D">
                            <path d="M15.72023,37.9980183 L7.11657162,37.9980183 C6.16196421,37.9980183 5.38804552,37.2519269 5.38804552,36.3316438 C5.38804552,35.4113607 6.16196421,34.6652694 7.11657162,34.6652694 L15.72023,34.6652694 C16.6748374,34.6652694 17.4487561,35.4113607 17.4487561,36.3316438 C17.4487561,37.2519269 16.6748374,37.9980183 15.72023,37.9980183 Z" id="Path"></path>
                            <path d="M30.59412,43.939726 L1.90681813,43.939726 C0.952210725,43.939726 0.178292028,43.1936347 0.178292028,42.2733516 C0.178292028,41.3530685 0.952210725,40.6069772 1.90681813,40.6069772 L30.59412,40.6069772 C31.5487274,40.6069772 32.3226461,41.3530685 32.3226461,42.2733516 C32.3226461,43.1935342 31.5488316,43.939726 30.59412,43.939726 Z" id="Path"></path>
                            <path d="M30.59412,3.39312329 L9.56472644,3.39312329 C8.61011904,3.39312329 7.83620034,2.64703196 7.83620034,1.72674886 C7.83620034,0.806465753 8.61011904,0.0602739726 9.56472644,0.0602739726 L30.59412,0.0602739726 C31.5487274,0.0602739726 32.3226461,0.806365297 32.3226461,1.7266484 C32.3226461,2.64693151 31.5488316,3.39312329 30.59412,3.39312329 Z" id="Path"></path>
                            <path d="M14.2662799,10.8909041 L1.7285261,10.8909041 C0.773918697,10.8909041 0,10.1448128 0,9.22452968 C0,8.30424658 0.773918697,7.55815525 1.7285261,7.55815525 L14.2661757,7.55815525 C15.2207831,7.55815525 15.9947018,8.30424658 15.9947018,9.22452968 C15.9947018,10.1448128 15.2208873,10.8909041 14.2662799,10.8909041 Z" id="Path"></path>
                        </g>
                        <path d="M30.2467753,44 C17.7382431,44 7.56169383,34.1308242 7.56169383,22 C7.56169383,9.86917582 17.7381392,0 30.2467753,0 C42.7554115,0 52.9318568,9.86917582 52.9318568,21.9998993 C52.9318568,34.1306227 42.7554115,44 30.2467753,44 Z" id="Path" fill="#000000"></path>
                        <ellipse id="Oval" fill="#FFFFFF" cx="30.7868963" cy="21.4761905" rx="12.4227827" ry="12.047619"></ellipse>
                        <ellipse id="Oval" fill="#000000" cx="30.2467753" cy="22" rx="4.3209679" ry="4.19047619"></ellipse>
                        <path d="M30.2467753,8.38095238 C22.5033682,8.38095238 16.2036296,14.4904636 16.2036296,22.0000503 C16.2036296,26.4783013 18.4443267,30.4583993 21.8952842,32.9421284 C21.9268958,32.9680613 21.9583002,32.9941953 21.9923993,33.0180173 C22.0307479,33.0450559 22.0700293,33.0702852 22.1097253,33.0938058 C24.4069087,34.6830506 27.2162012,35.6190476 30.2467753,35.6190476 C33.2773495,35.6190476 36.0865383,34.6830506 38.3838254,33.0938058 C38.423625,33.0702852 38.4628027,33.0450559 38.5011513,33.0180173 C38.5351468,32.9939942 38.5666548,32.9678603 38.5982665,32.9421284 C42.0491203,30.4583993 44.289921,26.4784018 44.289921,22.0000503 C44.289921,14.4905641 37.9901824,8.38095238 30.2467753,8.38095238 Z M39.665808,17.2788541 L35.2136417,18.6818445 C34.4403478,17.596482 33.2991149,16.7762784 31.966139,16.3912049 L31.966139,11.8516397 C35.321225,12.3843699 38.151661,14.4490514 39.665808,17.2788541 Z M27.6509912,21.9999497 C27.6509912,20.6118357 28.8154406,19.4825481 30.2467753,19.4825481 C31.6781101,19.4825481 32.8425595,20.6118357 32.8425595,21.9999497 C32.8425595,23.3880638 31.6781101,24.5173514 30.2467753,24.5173514 C28.8153369,24.5174519 27.6509912,23.3882649 27.6509912,21.9999497 Z M28.5274116,11.8516397 L28.5274116,16.3912049 C27.1942285,16.7762784 26.0532028,17.5963815 25.2798053,18.6818445 L20.8277427,17.2788541 C22.3419933,14.4490514 25.1724293,12.3843699 28.5274116,11.8516397 Z M19.642357,21.9999497 C19.642357,21.4730494 19.6836076,20.9552959 19.7627923,20.4495037 L24.2162023,21.8528961 C24.2149586,21.9019475 24.2122638,21.9505968 24.2122638,21.9999497 C24.2122638,23.336399 24.677629,24.5689157 25.4580744,25.5552708 L22.7083777,29.2256816 C20.8139579,27.3669556 19.642357,24.8137706 19.642357,21.9999497 Z M30.2467753,32.2843573 C28.5365324,32.2843573 26.9198807,31.8892323 25.4879241,31.1888428 L28.2382426,27.5178289 C28.866952,27.7337354 29.5427162,27.8524438 30.2467753,27.8524438 C30.9507309,27.8524438 31.6265986,27.7337354 32.255308,27.5178289 L35.0056266,31.1888428 C33.57367,31.8891318 31.9570183,32.2843573 30.2467753,32.2843573 Z M37.7850694,29.2256816 L35.0353727,25.5554718 C35.815818,24.5691167 36.2811832,23.3366001 36.2811832,22.0001508 C36.2811832,21.9507978 36.2786957,21.9021485 36.2772447,21.8530971 L40.7306547,20.4497047 C40.8098394,20.9554969 40.85109,21.4732504 40.85109,22.0001508 C40.8512973,24.8137706 39.6796964,27.3668551 37.7850694,29.2256816 Z" id="Shape" fill="#DBD9DC"></path>
                        <path d="M52.9318568,21.9998993 C52.9318568,9.86917582 42.7553542,0 30.2467753,0 L30.2467753,44 C42.7553542,44 52.9318568,34.1308242 52.9318568,21.9998993 Z" id="Path" fill="#000000"></path>
                        <path d="M42.1294371,21.4761905 C42.1294371,14.8225166 36.8093464,9.42857143 30.2467753,9.42857143 L30.2467753,33.5238095 C36.8093464,33.5238095 42.1294371,28.1299657 42.1294371,21.4761905 Z" id="Path" fill="#FFFFFF"></path>
                        <path d="M34.5677432,22 C34.5677432,19.6856461 32.6331984,17.8095238 30.2467753,17.8095238 L30.2467753,26.1904762 C32.6330946,26.1905768 34.5677432,24.3143539 34.5677432,22 Z" id="Path" fill="#000000"></path>
                        <path d="M32.8425595,22.0001508 C32.8425595,23.3882649 31.6781101,24.5175525 30.2467753,24.5175525 L30.2467753,27.8523433 C30.9507309,27.8523433 31.6265986,27.7336349 32.255308,27.5177284 L35.0056266,31.1887423 C33.57367,31.8890313 31.9571219,32.2842568 30.2467753,32.2842568 L30.2467753,35.6190476 C33.2773495,35.6190476 36.0865383,34.6830506 38.3838254,33.0938058 C38.423625,33.0702852 38.4628027,33.0450559 38.5011513,33.0180173 C38.5351468,32.9939942 38.5665512,32.9678603 38.5982665,32.9421284 C42.0491203,30.4583993 44.289921,26.4784018 44.289921,22.0000503 C44.289921,14.4904636 37.9901824,8.38095238 30.2467753,8.38095238 L30.2467753,19.4825481 C31.6781101,19.4827491 32.8425595,20.6120367 32.8425595,22.0001508 Z M40.7307584,20.4497047 C40.809943,20.9554969 40.8511936,21.4732504 40.8511936,22.0001508 C40.8511936,24.8139716 39.6795928,27.3670562 37.7850694,29.2256816 L35.0353727,25.5554718 C35.815818,24.5691167 36.2811832,23.3366001 36.2811832,22.0001508 C36.2811832,21.9507978 36.2786957,21.9021485 36.2772447,21.8530971 L40.7307584,20.4497047 Z M31.9659317,11.8518407 C35.3210177,12.3846714 38.1514537,14.4492524 39.6657044,17.2789546 L35.2135381,18.681945 C34.4402442,17.5965825 33.2990112,16.7763789 31.9660354,16.3913054 L31.9660354,11.8518407 L31.9659317,11.8518407 Z" id="Shape" fill="#DBD9DC"></path>
                    </g>
                    <g id="Group-30" transform="translate(26.000000, 22.576471)">
                        <g id="coronavirus-2" transform="translate(0.626560, 0.000000)">
                            <path d="M7.09919534,17.4242424 C5.66839075,17.4084728 4.27735969,16.9076027 3.11821738,15.9907857 C1.50175635,14.8257513 0.508182834,12.8710462 0.457209967,10.7556576 L0.457209967,7.72642023 C0.457209967,6.38801893 1.4500213,5.3030303 2.67471614,5.3030303 L6.00097541,5.3030303 C6.30714909,5.3030303 6.55535195,5.57427746 6.55535195,5.90887778 C6.55535195,6.24347808 6.30714909,6.51472527 6.00097541,6.51472527 L2.67471614,6.51472527 C2.06236872,6.51472527 1.56596306,7.05721958 1.56596306,7.72642023 L1.56596306,10.7556576 C1.62001691,12.4783846 2.43989058,14.0639015 3.76240292,15.0032543 C5.17079899,16.1586906 7.00218798,16.5021461 8.68249475,15.92596 C8.87126484,15.8469556 9.08442018,15.8864983 9.23876011,16.0291535 C9.39309998,16.1718087 9.46415697,16.3949614 9.42419557,16.6115087 C9.38423417,16.8280559 9.23958929,17.0036686 9.04672014,17.0698001 C8.4202849,17.3062841 7.76195034,17.4260912 7.09919534,17.4242424 L7.09919534,17.4242424 Z" id="Shape" fill="#BEBEBE"></path>
                            <path d="M29.0853808,17.4242424 C28.0582546,17.4294334 27.0488328,17.1273151 26.163286,16.5495968 C25.9037055,16.3796714 25.8173589,16.0083112 25.9704256,15.7201405 C26.1234922,15.4319699 26.4580087,15.3361131 26.7175892,15.5060385 C28.3311499,16.494995 30.3003412,16.4377655 31.8650808,15.3564396 C33.427912,14.4581958 34.4427434,12.7053149 34.5296647,10.7540023 L34.5296647,7.7256845 C34.5296647,7.05668702 34.041141,6.5143574 33.4385165,6.5143574 L30.165072,6.5143574 C29.8637597,6.5143574 29.6194979,6.24319257 29.6194979,5.90869385 C29.6194979,5.57419511 29.8637597,5.3030303 30.165072,5.3030303 L33.4385165,5.3030303 C34.6437655,5.3030303 35.6208129,6.38768953 35.6208129,7.7256845 L35.6208129,10.7540023 C35.5342966,13.1403446 34.3094485,15.2949019 32.4062903,16.4084772 C31.3977846,17.0620533 30.2531022,17.4121536 29.0853808,17.4242424 Z" id="Shape" fill="#BEBEBE"></path>
                            <path d="M29.6351367,5.60595819 L29.6351367,12.2726598 C29.6845988,18.7304497 24.9264569,24.1910672 18.5926215,24.9454534 C17.9762461,25.0181822 17.353615,25.0181822 16.7372396,24.9454534 C10.4034042,24.1910672 5.64526227,18.7304497 5.69472442,12.2726598 L5.69472442,5.60595819 L8.08876565,5.59989756 C11.1187339,5.53301885 13.9564939,4.08286645 15.8095486,1.65442236 C16.2615171,1.08826137 16.9415736,0.758755026 17.6605121,0.757575758 C18.3794504,0.756402807 19.0605547,1.08368244 19.5143274,1.64836172 C21.3682814,4.07974726 24.2082966,5.53215555 27.2410955,5.59989756 L29.6351367,5.60595819 Z" id="Shape" fill="#A9A9A9"></path>
                            <path d="M29.6355188,5.68183227 L29.6355188,6.81818182 L27.2414011,6.81250007 C24.2085055,6.74899307 21.3683996,5.3873843 19.5143864,3.10800055 C19.0605993,2.57862306 18.3794732,2.27180382 17.6605119,2.2729064 C16.9415505,2.27400898 16.2614723,2.58291574 15.8094894,3.1136823 C13.9563755,5.39030849 11.1185249,6.74980238 8.08845997,6.81250007 L5.69434232,6.81818182 L5.69434232,5.68183227 C5.69631435,5.0550208 6.23110236,4.54735475 6.89140114,4.54548273 L7.79518056,4.54548273 C10.1986046,4.51847794 12.4611441,3.46440995 13.9540482,1.67620013 C14.862161,0.615701285 16.2252411,0 17.6649306,0 C19.10462,0 20.4677001,0.615701285 21.3758129,1.67620013 C22.868717,3.46440995 25.1312565,4.51847794 27.5346806,4.54548273 L28.43846,4.54548273 C29.0987588,4.54735475 29.6335468,5.0550208 29.6355188,5.68183227 Z" id="Shape" fill="#BEBEBE"></path>
                            <g id="Group" transform="translate(10.183313, 10.606061)" fill="#FFFFFF">
                                <path d="M8.22977941,5.47899381 C5.59004599,5.47812407 2.96571087,5.10647263 0.446236928,4.37670903 C0.246563547,4.31917773 0.0951862285,4.16732502 0.0491274378,3.97835236 C0.00306864699,3.78937965 0.069325789,3.59199639 0.222940379,3.46055503 C0.376555027,3.32911362 0.59418943,3.28358307 0.79386281,3.34111437 C5.63407925,4.74540078 10.8219682,4.74540078 15.6621846,3.34111437 C15.861858,3.28358307 16.0794924,3.32911362 16.2331071,3.46055503 C16.3867217,3.59199639 16.4529788,3.78937965 16.40692,3.97835236 C16.3608612,4.16732502 16.2094839,4.31917773 16.0098105,4.37670903 C13.4914602,5.10614769 10.8683356,5.47779534 8.22977941,5.47899381 Z" id="Shape"></path>
                                <path d="M8.22977941,1.68688772 C5.65242529,1.68871612 3.07875758,1.50635875 0.531680327,1.14142457 C0.215598567,1.09222357 0.001038664,0.816620281 0.0504009541,0.523218747 C0.0997632441,0.229817214 0.394680908,0.0277871192 0.711930784,0.0700449658 C5.69451225,0.780319814 10.7650466,0.780319814 15.747628,0.0700449658 C15.9554475,0.0376959708 16.1659917,0.111359662 16.2988538,0.262903867 C16.4317159,0.414448072 16.4663771,0.620468839 16.3896003,0.802286783 C16.3128236,0.984104781 16.136466,1.11364059 15.9278785,1.14142457 C13.3808012,1.50635875 10.8071335,1.68871612 8.22977941,1.68688772 Z" id="Shape"></path>
                                <path d="M8.22977941,9.82686478 C5.50684624,9.81952149 2.82053528,9.24508716 0.369571961,8.1460567 C0.167064668,8.07080177 0.0265600805,7.89742397 0.00505959523,7.69626101 C-0.01644089,7.49509805 0.084633325,7.29955767 0.267277427,7.18896868 C0.449921587,7.0783797 0.683803344,7.07110803 0.87403915,7.17010362 C5.51567699,9.27114956 10.9438818,9.27114956 15.5855197,7.17010362 C15.7757555,7.07110803 16.0096372,7.0783797 16.1922814,7.18896868 C16.3749255,7.29955767 16.4759997,7.49509805 16.4544992,7.69626101 C16.4329987,7.89742397 16.2924942,8.07080177 16.0899869,8.1460567 C13.6390235,9.24508716 10.9527126,9.81952149 8.22977941,9.82686478 L8.22977941,9.82686478 Z" id="Shape"></path>
                            </g>
                        </g>
                    </g>
                </g>
            </g>
        </g>
    </g>
</svg>