<svg xmlns="http://www.w3.org/2000/svg" width="63" height="64" viewBox="0 0 63 64">
    <g fill="none">
        <path fill="#F5822D" d="M12.071 37.188L0 54.591 11.655 52.442 13.828 63.964 25.288 47.442zM50.405 37.188L37.188 47.442 48.649 63.964 50.822 52.442 62.476 54.591z"/>
        <path fill="#DBD9DC" d="M31.238 0C17.294 0 5.95 11.678 5.95 26.032s11.344 26.031 25.288 26.031 25.288-11.677 25.288-26.032C56.526 11.678 45.182 0 31.238 0z"/>
        <path fill="#CCCBCB" d="M31.238 0v52.063c13.944 0 25.288-11.677 25.288-26.032C56.526 11.678 45.182 0 31.238 0z"/>
        <path fill="#30516C" d="M26.646 37.188L17.85 28.316 20.516 25.627 26.646 31.81 41.96 16.363 44.626 19.052z"/>
    </g>
</svg>
