<?xml version="1.0" encoding="UTF-8"?>
<svg width="60px" height="40px" viewBox="0 0 60 40" version="1.1" xmlns="http://www.w3.org/2000/svg" xmlns:xlink="http://www.w3.org/1999/xlink">
    <title>Group 22</title>
    <g id="4Wheeler" stroke="none" stroke-width="1" fill="none" fill-rule="evenodd">
        <g id="04.1_Card-on-click_desktop" transform="translate(-779.000000, -403.000000)">
            <g id="Group-22" transform="translate(779.000000, 403.000000)">
                <g id="Group-9">
                    <g id="Group-2" transform="translate(13.245373, 0.000000)">
                        <rect id="Rectangle" fill="#FFFFFF" fill-rule="nonzero" x="2.94754759" y="11.8299587" width="39.7950159" height="25.1379125"></rect>
                        <rect id="Rectangle" stroke="#DBD9DC" fill="#FFFFFF" x="8.62268641" y="19.8548387" width="16.2607086" height="12.2427844"></rect>
                        <path d="M2.94772607,17.0037471 C3.79906134,17.3610695 4.73222832,17.5599202 5.71126388,17.5599202 C7.96667768,17.5599202 10.078596,16.4821334 11.4225278,14.7235449 C12.7665488,16.4819543 14.8785563,17.5599202 17.1337916,17.5599202 C19.3892054,17.5599202 21.5011237,16.4821334 22.8450555,14.7235449 C24.1890765,16.4819543 26.3010841,17.5599202 28.5563194,17.5599202 C30.8117332,17.5599202 32.9236515,16.4821334 34.2675833,14.7235449 C35.6116043,16.4819543 37.7236118,17.5599202 39.9788472,17.5599202 C40.9578827,17.5599202 41.8910497,17.3610695 42.742385,17.0037471 L42.742385,11.8298692 L2.94772607,11.8298692 L2.94772607,17.0037471 Z" id="Path" fill="#F8F8F8" fill-rule="nonzero"></path>
                        <path d="M45.6901111,10.3510684 C45.6901111,13.5156681 43.1330711,16.0811193 39.9788472,16.0811193 C37.6953232,16.0811193 35.724848,14.7366166 34.8109565,12.7935922 C34.5882172,12.3199676 33.9469494,12.3199676 33.7242101,12.7935922 C32.8103186,14.7366166 30.8398433,16.0811193 28.5563194,16.0811193 C26.2727955,16.0811193 24.3023202,14.7366166 23.3884287,12.7935922 C23.1656895,12.3199676 22.5244216,12.3199676 22.3016823,12.7935922 C21.3877909,14.7366166 19.4173156,16.0811193 17.1337916,16.0811193 C14.8502677,16.0811193 12.8797924,14.7366166 11.965901,12.7935922 C11.7431617,12.3199676 11.1018938,12.3199676 10.8791545,12.7935922 C9.96526309,14.7366166 7.99478781,16.0811193 5.71126388,16.0811193 C2.55703993,16.0811193 0,13.5156681 0,10.3510684 L5.47112308,0.745085685 C5.73357351,0.284353778 6.22188657,-3.52858659e-14 6.75080315,-3.52858659e-14 L38.9393079,-3.52858659e-14 C39.4682245,-3.52858659e-14 39.9565375,0.284353778 40.218988,0.745085685 L45.6901111,10.3510684 Z" id="Path" fill="#F5822D" fill-rule="nonzero"></path>
                        <path d="M38.9393079,-3.70953975e-14 L6.75080315,-3.70953975e-14 C6.22188657,-3.70953975e-14 5.73357351,0.284353778 5.47112308,0.745085685 L0,10.3510684 L45.6901111,10.3510684 L40.218988,0.745085685 C39.9565375,0.284353778 39.4682245,-3.70953975e-14 38.9393079,-3.70953975e-14 Z" id="Path" fill="#F5822D" fill-rule="nonzero"></path>
                        <path d="M44.216248,37.7074955 L1.47386304,37.7074955 C1.06648929,37.7074955 0.736931518,37.3767641 0.736931518,36.9681399 C0.736931518,36.5595156 1.06657853,36.2287842 1.47386304,36.2287842 L44.216248,36.2287842 C44.6236218,36.2287842 44.9531795,36.5595156 44.9531795,36.9681399 C44.9531795,37.3767641 44.6235325,37.7074955 44.216248,37.7074955 Z" id="Path" fill="#DBD9DC" fill-rule="nonzero"></path>
                        <path d="M31.688323,31.0532052 L31.688323,32.1622387 C31.688323,32.3663718 31.853325,32.5319165 32.0567887,32.5319165 L37.2153094,32.5319165 C37.4187731,32.5319165 37.5837751,32.3663718 37.5837751,32.1622387 L37.5837751,25.1382706 L31.688323,31.0532052 Z" id="Path" fill="#30516C" fill-rule="nonzero"></path>
                    </g>
                    <g id="racing-(1)" transform="translate(0.000000, 17.279973)" fill-rule="nonzero">
                        <g id="Group" fill="#F5822D">
                            <path d="M7.44511129,18.412734 L3.370413,18.412734 C2.91831031,18.412734 2.5517819,18.0511999 2.5517819,17.6052575 C2.5517819,17.1593151 2.91831031,16.7977809 3.370413,16.7977809 L7.44511129,16.7977809 C7.89721399,16.7977809 8.26374239,17.1593151 8.26374239,17.6052575 C8.26374239,18.0511999 7.89721399,18.412734 7.44511129,18.412734 Z" id="Path"></path>
                            <path d="M14.4893954,21.2919127 L0.90307032,21.2919127 C0.450967626,21.2919127 0.0844392217,20.9303786 0.0844392217,20.4844362 C0.0844392217,20.0384938 0.450967626,19.6769596 0.90307032,19.6769596 L14.4893954,19.6769596 C14.9414981,19.6769596 15.3080265,20.0384938 15.3080265,20.4844362 C15.3080265,20.9303299 14.9415474,21.2919127 14.4893954,21.2919127 Z" id="Path"></path>
                            <path d="M14.4893954,1.64420882 L4.52986073,1.64420882 C4.07775804,1.64420882 3.71122964,1.28267467 3.71122964,0.836732254 C3.71122964,0.390789839 4.07775804,0.0292070134 4.52986073,0.0292070134 L14.4893954,0.0292070134 C14.9414981,0.0292070134 15.3080265,0.39074116 15.3080265,0.836683576 C15.3080265,1.28262599 14.9415474,1.64420882 14.4893954,1.64420882 Z" id="Path"></path>
                            <path d="M6.75651956,5.27741524 L0.818631098,5.27741524 C0.366528404,5.27741524 0,4.9158811 0,4.46993868 C0,4.02399627 0.366528404,3.66246212 0.818631098,3.66246212 L6.7564702,3.66246212 C7.2085729,3.66246212 7.5751013,4.02399627 7.5751013,4.46993868 C7.5751013,4.9158811 7.20862225,5.27741524 6.75651956,5.27741524 Z" id="Path"></path>
                        </g>
                        <path d="M14.7577878,21.3211198 C8.89883813,21.3211198 4.13218059,16.5388043 4.13218059,10.6605599 C4.13218059,4.78231545 8.89878948,0 14.7577878,0 C20.6167861,0 25.383395,4.78231545 25.383395,10.6605111 C25.383395,16.5387067 20.6167861,21.3211198 14.7577878,21.3211198 Z" id="Path" fill="#282828"></path>
                        <ellipse id="Oval" fill="#FFFFFF" cx="14.1674763" cy="10.3644332" rx="5.90311512" ry="5.6264066"></ellipse>
                        <ellipse id="Oval" fill="#282828" cx="14.4626321" cy="10.3644332" rx="2.06609029" ry="2.07288664"></ellipse>
                        <path d="M14.7577878,4.14577329 C11.1773047,4.14577329 8.26436117,7.06830965 8.26436117,10.6605839 C8.26436117,12.8027932 9.30043972,14.7067067 10.896132,15.8948195 C10.9107489,15.9072248 10.9252701,15.9197261 10.9410372,15.9311216 C10.9587692,15.9440558 10.9769326,15.9561244 10.9952877,15.9673757 C12.057485,16.7276044 13.3564771,17.1753465 14.7577878,17.1753465 C16.1590985,17.1753465 17.4580427,16.7276044 18.5202879,15.9673757 C18.5386909,15.9561244 18.5568064,15.9440558 18.5745384,15.9311216 C18.5902576,15.91963 18.6048267,15.9071286 18.6194436,15.8948195 C20.215088,14.7067067 21.2512144,12.8028413 21.2512144,10.6605839 C21.2512144,7.06835773 18.3382709,4.14577329 14.7577878,4.14577329 Z M19.1130654,8.40215983 L17.054423,9.07329211 C16.6968587,8.55409979 16.1691627,8.16174849 15.5528064,7.97754532 L15.5528064,5.80600589 C17.1041686,6.06084191 18.4129372,7.04849976 19.1130654,8.40215983 Z M13.5575201,10.6605358 C13.5575201,9.99651973 14.0959512,9.45631545 14.7577878,9.45631545 C15.4196244,9.45631545 15.9580555,9.99651973 15.9580555,10.6605358 C15.9580555,11.3245519 15.4196244,11.8647562 14.7577878,11.8647562 C14.0959033,11.8648043 13.5575201,11.3246481 13.5575201,10.6605358 Z M13.9627692,5.80600589 L13.9627692,7.97754532 C13.3463171,8.16174849 12.8187169,8.55405171 12.4611047,9.07329211 L10.4025102,8.40215983 C11.1026863,7.04849976 12.411455,6.06084191 13.9627692,5.80600589 Z M9.85439836,10.6605358 C9.85439836,10.4084886 9.87347229,10.1608168 9.91008657,9.91886686 L11.9693041,10.5901915 C11.968729,10.6136556 11.9674829,10.6369274 11.9674829,10.6605358 C11.9674829,11.2998377 12.1826637,11.8894224 12.5435347,12.3612537 L11.2720993,14.1170258 C10.3961363,13.2278885 9.85439836,12.0065508 9.85439836,10.6605358 Z M14.7577878,15.5801692 C13.9669866,15.5801692 13.2194611,15.3911578 12.557337,15.0561205 L13.82906,13.30006 C14.1197697,13.4033407 14.4322371,13.4601258 14.7577878,13.4601258 C15.0832906,13.4601258 15.3958059,13.4033407 15.6865156,13.30006 L16.9582386,15.0561205 C16.2961145,15.3911097 15.5485891,15.5801692 14.7577878,15.5801692 Z M18.2434284,14.1170258 L16.971993,12.3613499 C17.332864,11.8895186 17.5480448,11.2999338 17.5480448,10.660632 C17.5480448,10.6370236 17.5468946,10.6137518 17.5462236,10.5902876 L19.6054411,9.91896303 C19.6420554,10.160913 19.6611293,10.4085848 19.6611293,10.660632 C19.6612252,12.0065508 19.1194873,13.2278404 18.2434284,14.1170258 Z" id="Shape" fill="#DDDDDD"></path>
                        <path d="M25.383395,10.6605111 C25.383395,4.78231545 20.6167593,0 14.7577878,0 L14.7577878,21.3211198 C20.6167593,21.3211198 25.383395,16.5388043 25.383395,10.6605111 Z" id="Path" fill="#282828"></path>
                        <path d="M20.6609029,10.3644332 C20.6609029,7.25707444 18.0179675,4.73802661 14.7577878,4.73802661 L14.7577878,15.9908398 C18.0179675,15.9908398 20.6609029,13.4718393 20.6609029,10.3644332 Z" id="Path" fill="#FFFFFF"></path>
                        <path d="M16.5287223,10.3644332 C16.5287223,9.21960073 15.7358555,8.29154657 14.7577878,8.29154657 L14.7577878,12.4373199 C15.7358129,12.4373696 16.5287223,11.5092657 16.5287223,10.3644332 Z" id="Path" fill="#282828"></path>
                        <path d="M15.9580555,10.660632 C15.9580555,11.3246481 15.4196244,11.8648524 14.7577878,11.8648524 L14.7577878,13.4600778 C15.0832906,13.4600778 15.3958059,13.4032926 15.6865156,13.3000119 L16.9582386,15.0560725 C16.2961145,15.3910616 15.548637,15.5801211 14.7577878,15.5801211 L14.7577878,17.1753465 C16.1590985,17.1753465 17.4580427,16.7276044 18.5202879,15.9673757 C18.5386909,15.9561244 18.5568064,15.9440558 18.5745384,15.9311216 C18.5902576,15.91963 18.6047787,15.9071286 18.6194436,15.8948195 C20.215088,14.7067067 21.2512144,12.8028413 21.2512144,10.6605839 C21.2512144,7.06830965 18.3382709,4.14577329 14.7577878,4.14577329 L14.7577878,9.45631545 C15.4196244,9.45641162 15.9580555,9.99661589 15.9580555,10.660632 Z M19.6054891,9.91896303 C19.6421033,10.160913 19.6611773,10.4085848 19.6611773,10.660632 C19.6611773,12.006647 19.1194393,13.2279366 18.2434284,14.1170258 L16.971993,12.3613499 C17.332864,11.8895186 17.5480448,11.2999338 17.5480448,10.660632 C17.5480448,10.6370236 17.5468946,10.6137518 17.5462236,10.5902876 L19.6054891,9.91896303 Z M15.5527106,5.80610205 C17.1040727,6.06098615 18.4128413,7.04859592 19.1130175,8.40220791 L17.0543751,9.07334019 C16.6968108,8.55414787 16.1691147,8.16179657 15.5527585,7.97759341 L15.5527585,5.80610205 L15.5527106,5.80610205 Z" id="Shape" fill="#DDDDDD"></path>
                    </g>
                </g>
                <g id="Group-17" transform="translate(43.451613, 19.354839)" fill-rule="nonzero">
                    <rect id="Rectangle" fill="#FFFFFF" x="0.598913169" y="0.598913169" width="7.68605234" height="16.0573477"></rect>
                    <path d="M8.78405981,18.0645161 L7.67899129,18.0645161 L7.67899129,1.44120637 L1.10498701,1.44120637 L1.10498701,18.0645161 L0,18.0645161 L0,0.720603186 C0,0.322559762 0.247309721,0 0.552493504,0 L8.23156631,0 C8.53675009,0 8.78405981,0.322559762 8.78405981,0.720603186 L8.78405981,18.0645161 L8.78405981,18.0645161 Z" id="Path" fill="#DBD9DC"></path>
                    <path d="M6.54051451,9.18873087 L5.43774887,9.18873087 C5.13580689,9.18873087 4.89112421,8.92064257 4.89112421,8.58981771 C4.89112421,8.25899284 5.13580689,7.99090454 5.43774887,7.99090454 L6.54051451,7.99090454 C6.84245649,7.99090454 7.08713917,8.25899284 7.08713917,8.58981771 C7.08713917,8.92064257 6.84237584,9.18873087 6.54051451,9.18873087 Z" id="Path" fill="#DBD9DC"></path>
                </g>
            </g>
        </g>
    </g>
</svg>