<svg xmlns="http://www.w3.org/2000/svg" xmlns:xlink="http://www.w3.org/1999/xlink" width="57" height="50" viewBox="0 0 57 50">
    <defs>
        <path id="vv4spa9pya" d="M0.04 0L14.921 0 14.921 14.881 0.04 14.881z"/>
    </defs>
    <g fill="none" fill-rule="evenodd">
        <g fill-rule="nonzero">
            <path fill="#2C3E50" d="M48.744 7.951c-.026-.06-.043-.111-.069-.163 0-4.266-9.168-7.728-20.473-7.728C16.896.06 7.728 3.522 7.728 7.788c-.78 1.717-1.144 3.592-1.065 5.475.017.437.052.882.103 1.328-3.528 1.396-5.683 3.281-5.683 5.346-.55 1.217-.892 2.517-1.013 3.847-.118 1.064-.087 2.14.095 3.195.273 1.48.732 2.919 1.365 4.284.288.625.69 1.191 1.184 1.67.35.326.736.611 1.15.849-.523 1.742-.626 3.582-.3 5.371.175.938.413 1.862.713 2.768.233.893.636 1.733 1.184 2.476.876.961 1.94 1.734 3.125 2.27 1.318.648 2.695 1.167 4.112 1.55 1.69.471 3.411.823 5.15 1.055 1.961.273 3.936.43 5.915.47.395.01.79.01 1.185.01 4.906.114 9.793-.646 14.43-2.245 1.332-.457 2.596-1.088 3.76-1.877 2.456-1.756 3.323-5.611 3.357-8.447.016-1.757-.35-3.496-1.073-5.098 0-1.405-.987-2.715-2.713-3.846.12-.6.215-1.2.292-1.782.143-1.102.132-2.218-.034-3.316 2.048-.621 3.811-1.944 4.979-3.735.61-1.143 1.063-2.362 1.348-3.624.693-2.599.5-5.354-.55-7.831z"/>
            <path fill="#2B2733" d="M45.354 32.203c.724 1.591 1.09 3.319 1.074 5.064-.034 2.817-.902 6.646-3.36 8.391-1.165.784-2.43 1.41-3.763 1.864-4.641 1.589-9.533 2.344-14.442 2.23-.396 0-.79 0-1.186-.009-1.981-.04-3.958-.197-5.92-.468-1.74-.23-3.463-.58-5.155-1.047-1.419-.381-2.797-.897-4.115-1.54-1.187-.533-2.252-1.3-3.128-2.255-.55-.738-.952-1.573-1.186-2.46-.3-.9-.538-1.818-.713-2.749-.326-1.777-.223-3.606.301-5.336.206.128.421.247.627.366.421.238.85.451 1.289.647.009.009.009.009.017.009l39.66-2.707z"/>
            <path fill="#555160" d="M42.251 28.632c1.71 1.105 2.69 2.386 2.69 3.758 0 4.17-9.09 7.551-20.299 7.551-8.68 0-16.085-2.026-18.987-4.888l36.596-6.421zM37.798 24.19c-.765.4-1.554.749-2.363 1.044h-.009c-4.552 1.537-9.324 2.281-14.116 2.202-3.614.024-7.218-.373-10.744-1.185C4.762 24.856.893 22.365.893 19.523c0-2.115 2.149-4.045 5.667-5.475L37.798 24.19z"/>
            <path fill="#2B2733" d="M43.055 26.481c-.077.58-.172 1.176-.292 1.772-.275 1.848-1.168 3.55-2.536 4.837-.974.76-2.05 1.381-3.197 1.847-3.144 1.264-6.461 2.05-9.842 2.334-1.861.194-3.732.29-5.604.29-1.452 0-2.905-.052-4.357-.171-2.452-.181-4.883-.577-7.263-1.184-1.426-.353-2.818-.829-4.16-1.422-.01 0-.01 0-.018-.008-.438-.196-.868-.41-1.289-.648-.206-.119-.421-.238-.627-.366-.416-.236-.802-.519-1.152-.843-.495-.476-.898-1.04-1.186-1.66C.898 29.902.439 28.47.165 27c-.182-1.05-.214-2.119-.095-3.177.121-1.321.464-2.613 1.015-3.823 0 2.759 3.885 5.177 9.712 6.531 3.54.788 7.16 1.174 10.787 1.15 4.812.077 9.603-.645 14.174-2.137h.008c.813-.287 1.605-.625 2.373-1.014.498-.102.997-.213 1.495-.34 1.148-.27 2.279-.605 3.387-1.005.166 1.091.178 2.2.034 3.295z"/>
            <path fill="#2B2733" d="M48.673 7.5c.026.052.043.103.069.163 1.052 2.461 1.246 5.2.55 7.782-.284 1.255-.739 2.467-1.35 3.602-1.17 1.78-2.938 3.095-4.992 3.712-1.109.4-2.241.736-3.39 1.005-.5.128-.998.239-1.497.34-3.263.659-6.585.978-9.914.955-3.697.032-7.385-.365-10.989-1.184-2.823-.673-5.99-1.465-8.02-3.67-1.426-1.68-2.292-3.757-2.479-5.943-.051-.443-.086-.886-.103-1.32-.079-1.871.287-3.735 1.067-5.441h41.048z"/>
            <path fill="#555160" d="M27.827.06C16.561.06 7.44 3.593 7.44 7.947c0 4.355 9.121 7.887 20.387 7.887 11.267 0 20.387-3.524 20.387-7.887 0-4.363-9.129-7.887-20.387-7.887z"/>
            <path fill="#2C2F38" d="M37.488 8.276c-2.725 1.065-5.653 1.61-8.609 1.606h-.009c-.343-.008-.687-.008-1.04-.008-.352 0-.704 0-1.039.008h-.017c-2.953.003-5.878-.543-8.6-1.606-.194-.084-.317-.265-.317-.463 0-.199.123-.38.316-.464 1.684-.759 4.975-1.621 9.658-1.621 3.306-.105 6.599.448 9.657 1.621.19.087.31.267.31.464 0 .196-.12.376-.31.463z"/>
            <path fill="#B2B2B2" d="M13.48 9.584c-.154 0-.304-.04-.435-.117-1.333-.776-1.507-1.63-1.419-2.21.35-2.277 5.873-3.786 7.557-4.194.293-.074.605.01.816.221.211.211.29.515.206.797-.084.283-.317.5-.612.569-3.186.773-6.186 2.128-6.297 2.848-.01.063.13.282.619.567.325.19.48.566.378.92-.102.354-.435.6-.814.6z"/>
            <circle cx="16.071" cy="10.477" r="1" fill="#B2B2B2"/>
        </g>
        <g transform="translate(41.028)">
            <mask id="ok4nlw7wjb" fill="#fff">
                <use xlink:href="#vv4spa9pya"/>
            </mask>
            <g mask="url(#ok4nlw7wjb)">
                <g>
                    <path fill="#C83A3A" d="M7.443.055c4.1 0 7.424 3.305 7.424 7.383 0 4.078-3.324 7.384-7.424 7.384-4.1 0-7.425-3.306-7.425-7.384S3.342.055 7.443.055" transform="translate(.04)"/>
                    <path fill="#FFF" fill-rule="nonzero" stroke="#FFF" stroke-width=".5" d="M7.956 4.203V9.26c0 .165-.232.298-.519.298-.286 0-.518-.133-.518-.298V4.203c0-.165.232-.298.518-.298.287 0 .52.133.52.298zm.065 6.846c.03.058.045.12.046.184.003.032.003.064 0 .096-.006.03-.018.06-.034.087-.013.03-.03.06-.052.087l-.069.072c-.055.044-.119.078-.19.101-.068.025-.143.038-.218.039-.152-.002-.297-.052-.407-.14l-.07-.072c-.021-.027-.038-.056-.051-.087-.025-.026-.044-.056-.057-.087-.003-.032-.003-.064 0-.096 0-.063.016-.126.046-.184.027-.059.068-.113.12-.159.108-.091.255-.142.408-.142.153 0 .3.051.408.142.052.046.093.1.12.16h0z" transform="translate(.04)"/>
                </g>
            </g>
        </g>
    </g>
</svg>
