<?xml version="1.0" encoding="UTF-8"?>
<svg width="91px" height="91px" viewBox="0 0 91 91" version="1.1" xmlns="http://www.w3.org/2000/svg" xmlns:xlink="http://www.w3.org/1999/xlink">
    <title>Group 50</title>
    <g id="4Wheeler" stroke="none" stroke-width="1" fill="none" fill-rule="evenodd">
        <g id="01_4-wheeler_landing_desktop" transform="translate(-1212.000000, -948.000000)">
            <g id="Group-50" transform="translate(1212.000000, 948.000000)">
                <rect id="Rectangle" x="0" y="0" width="91" height="91"></rect>
                <g id="Group-12" transform="translate(0.000000, 14.000000)">
                    <g id="Group-11" transform="translate(26.033172, 0.000000)">
                        <polygon id="Path" fill="#E6E4E6" fill-rule="nonzero" points="56.4629677 25.7832258 56.4629677 63.2436989 7.31750538 63.2436989 7.31750538 25.7832258 32.0287312 1.81195699"></polygon>
                        <polyline id="Path" fill="#30516C" fill-rule="nonzero" points="44.4378495 12.5572473 44.4378495 5.63767742 56.7243011 5.63767742 56.7243011 24.2580645"></polyline>
                        <polyline id="Path" fill="#25313B" fill-rule="nonzero" points="44.4378495 12.5572473 44.4378495 5.63767742 47.3885591 5.63767742 47.3885591 24.2580645"></polyline>
                        <polygon id="Path" fill="#E6E4E6" fill-rule="nonzero" points="56.4629677 27.2538495 56.4629677 34.255828 31.8902366 10.7939785 7.31750538 34.255828 7.31750538 27.2538495 29.9385806 5.70941935 31.8902366 3.89660215 33.8403441 5.70941935"></polygon>
                        <polygon id="Path" fill="#F5822D" fill-rule="nonzero" points="31.8895484 6.89737634 3.91208602 33.6087742 -7.06701964e-13 30.3246452 29.9389247 1.81195699 31.8895484 9.21785171e-15 33.8405161 1.81195699 63.7794409 30.3246452 59.8673548 33.6087742"></polygon>
                        <rect id="Rectangle" fill="#FFFFFF" fill-rule="nonzero" x="25.0310538" y="38.8787957" width="13.2473118" height="24.4301075"></rect>
                        <path d="M39.1385806,63.3089032 L37.2339375,63.3089032 L37.2339375,39.8779523 L25.9032984,39.8779523 L25.9032984,63.3089032 L23.9987957,63.3089032 L23.9987957,38.862245 C23.9987957,38.3011933 24.4250469,37.8465376 24.9510471,37.8465376 L38.1863293,37.8465376 C38.7123295,37.8465376 39.1385806,38.3011933 39.1385806,38.862245 L39.1385806,63.3089032 L39.1385806,63.3089032 Z" id="Path" fill="#DBD9DC" fill-rule="nonzero"></path>
                        <path d="M35.2717134,51.9540645 L33.3710393,51.9540645 C32.8506266,51.9540645 32.4289032,51.4920003 32.4289032,50.9218065 C32.4289032,50.3516126 32.8506266,49.8895484 33.3710393,49.8895484 L35.2717134,49.8895484 C35.7921261,49.8895484 36.2138495,50.3516126 36.2138495,50.9218065 C36.2138495,51.4920003 35.7919871,51.9540645 35.2717134,51.9540645 Z" id="Path" fill="#DBD9DC" fill-rule="nonzero"></path>
                        <g id="Group" transform="translate(32.428903, 47.825032)"></g>
                    </g>
                    <g id="racing-(1)" transform="translate(0.000000, 27.672751)" fill-rule="nonzero">
                        <g id="Group" fill="#F5822E">
                            <path d="M12.6835184,31.2651542 L5.74184773,31.2651542 C4.97164395,31.2651542 4.34722484,30.6512627 4.34722484,29.8940444 C4.34722484,29.1368262 4.97164395,28.5229347 5.74184773,28.5229347 L12.6835184,28.5229347 C13.4537222,28.5229347 14.0781413,29.1368262 14.0781413,29.8940444 C14.0781413,30.6512627 13.4537222,31.2651542 12.6835184,31.2651542 Z" id="Path"></path>
                            <path d="M24.6841862,36.1540515 L1.53847385,36.1540515 C0.768270072,36.1540515 0.143850962,35.54016 0.143850962,34.7829417 C0.143850962,34.0257235 0.768270072,33.411832 1.53847385,33.411832 L24.6841862,33.411832 C25.4543899,33.411832 26.0788091,34.0257235 26.0788091,34.7829417 C26.0788091,35.5400773 25.454474,36.1540515 24.6841862,36.1540515 Z" id="Path"></path>
                            <path d="M24.6841862,2.7918962 L7.71708707,2.7918962 C6.94688329,2.7918962 6.32246418,2.1780047 6.32246418,1.42078644 C6.32246418,0.663568187 6.94688329,0.0495940349 7.71708707,0.0495940349 L24.6841862,0.0495940349 C25.4543899,0.0495940349 26.0788091,0.663485531 26.0788091,1.42070379 C26.0788091,2.17792204 25.454474,2.7918962 24.6841862,2.7918962 Z" id="Path"></path>
                            <path d="M11.5104311,8.96114617 L1.39462289,8.96114617 C0.62441911,8.96114617 0,8.34725468 0,7.59003642 C0,6.83281816 0.62441911,6.21892667 1.39462289,6.21892667 L11.510347,6.21892667 C12.2805508,6.21892667 12.9049699,6.83281816 12.9049699,7.59003642 C12.9049699,8.34725468 12.2806348,8.96114617 11.5104311,8.96114617 Z" id="Path"></path>
                        </g>
                        <path d="M25.1414205,36.2036455 C15.1600927,36.2036455 7.03959774,28.0831877 7.03959774,18.1018228 C7.03959774,8.12045779 15.1600098,0 25.1414205,0 C35.1228312,0 43.2432432,8.12045779 43.2432432,18.1017399 C43.2432432,28.0830219 35.1228312,36.2036455 25.1414205,36.2036455 Z" id="Path" fill="#282828"></path>
                        <ellipse id="Oval" fill="#FFFFFF" cx="24.1357637" cy="17.5989943" rx="10.0565682" ry="9.55373979"></ellipse>
                        <circle id="Oval" fill="#282828" cx="24.6385921" cy="17.5989943" r="3.51979887"></circle>
                        <path d="M25.1414205,7.03959774 C19.0416966,7.03959774 14.0791955,12.0021171 14.0791955,18.1018636 C14.0791955,21.7393735 15.8442626,24.972253 18.5626897,26.98969 C18.5875912,27.0107542 18.6123294,27.0319818 18.6391904,27.0513316 C18.6693988,27.073294 18.7003419,27.0937868 18.7316117,27.1128916 C20.541175,28.4037737 22.7541425,29.1640478 25.1414205,29.1640478 C27.5286985,29.1640478 29.7415844,28.4037737 31.5512293,27.1128916 C31.5825807,27.0937868 31.6134422,27.073294 31.6436506,27.0513316 C31.6704299,27.0318185 31.6952498,27.010591 31.7201513,26.98969 C34.4384967,24.972253 36.2036455,21.7394551 36.2036455,18.1018636 C36.2036455,12.0021988 31.2411444,7.03959774 25.1414205,7.03959774 Z M32.5610871,14.2670188 L29.0539765,15.4066135 C28.4448287,14.5250156 27.5458438,13.858796 26.495817,13.5460157 L26.495817,9.85870261 C29.1387232,10.2914188 31.3683462,11.9684796 32.5610871,14.2670188 Z M23.0966401,18.1017819 C23.0966401,16.9742706 24.0139133,16.056994 25.1414205,16.056994 C26.2689276,16.056994 27.1862009,16.9742706 27.1862009,18.1017819 C27.1862009,19.2292933 26.2689276,20.1465698 25.1414205,20.1465698 C24.0138317,20.1466515 23.0966401,19.2294565 23.0966401,18.1017819 Z M23.7870239,9.85870261 L23.7870239,13.5460157 C22.7368339,13.858796 21.8380123,14.5249339 21.2287829,15.4066135 L17.7217539,14.2670188 C18.9145765,11.9684796 21.1441994,10.2914188 23.7870239,9.85870261 Z M16.7879886,18.1017819 C16.7879886,17.6738012 16.820483,17.2532501 16.8828592,16.8424147 L20.3909495,17.9823359 C20.3899698,18.0221785 20.387847,18.0616945 20.387847,18.1017819 C20.387847,19.1873279 20.7544297,20.1884535 21.369211,20.9896315 L19.2031889,23.9709641 C17.7108952,22.461193 16.7879886,20.3873396 16.7879886,18.1017819 Z M25.1414205,26.455408 C23.7942086,26.455408 22.5207216,26.1344632 21.3927245,25.565564 L23.5592365,22.5837415 C24.0544905,22.759114 24.5868111,22.8555362 25.1414205,22.8555362 C25.6959483,22.8555362 26.2283505,22.759114 26.7236045,22.5837415 L28.8901164,25.565564 C27.7621194,26.1343816 26.4886323,26.455408 25.1414205,26.455408 Z M31.0795704,23.9709641 L28.9135484,20.9897948 C29.5283296,20.1886168 29.8949123,19.1874912 29.8949123,18.1019452 C29.8949123,18.0618577 29.8929528,18.0223418 29.8918098,17.9824992 L33.3999002,16.8425779 C33.4622764,17.2534133 33.4947708,17.6739645 33.4947708,18.1019452 C33.4949341,20.3873396 32.5720274,22.4611114 31.0795704,23.9709641 Z" id="Shape" fill="#DDDDDD"></path>
                        <path d="M43.2432432,18.1017399 C43.2432432,8.12045779 35.1227854,0 25.1414205,0 L25.1414205,36.2036455 C35.1227854,36.2036455 43.2432432,28.0831877 43.2432432,18.1017399 Z" id="Path" fill="#282828"></path>
                        <path d="M35.1979887,17.5989943 C35.1979887,12.3226432 30.6954744,8.04525456 25.1414205,8.04525456 L25.1414205,27.1527341 C30.6954744,27.1527341 35.1979887,22.8754259 35.1979887,17.5989943 Z" id="Path" fill="#FFFFFF"></path>
                        <path d="M28.1583909,17.5989943 C28.1583909,15.6550482 26.8076601,14.0791955 25.1414205,14.0791955 L25.1414205,21.1187932 C26.8075876,21.1188778 28.1583909,19.5429405 28.1583909,17.5989943 Z" id="Path" fill="#282828"></path>
                        <path d="M27.1862009,18.1019452 C27.1862009,19.2294565 26.2689276,20.1467331 25.1414205,20.1467331 L25.1414205,22.8554546 C25.6959483,22.8554546 26.2283505,22.7590323 26.7236045,22.5836598 L28.8901164,25.5654823 C27.7621194,26.1342999 26.488714,26.4553263 25.1414205,26.4553263 L25.1414205,29.1640478 C27.5286985,29.1640478 29.7415844,28.4037737 31.5512293,27.1128916 C31.5825807,27.0937868 31.6134422,27.073294 31.6436506,27.0513316 C31.6704299,27.0318185 31.6951681,27.010591 31.7201513,26.98969 C34.4384967,24.972253 36.2036455,21.7394551 36.2036455,18.1018636 C36.2036455,12.0021171 31.2411444,7.03959774 25.1414205,7.03959774 L25.1414205,16.056994 C26.2689276,16.0571573 27.1862009,16.9744339 27.1862009,18.1019452 Z M33.3999818,16.8425779 C33.462358,17.2534133 33.4948524,17.6739645 33.4948524,18.1019452 C33.4948524,20.3875029 32.5719458,22.4612746 31.0795704,23.9709641 L28.9135484,20.9897948 C29.5283296,20.1886168 29.8949123,19.1874912 29.8949123,18.1019452 C29.8949123,18.0618577 29.8929528,18.0223418 29.8918098,17.9824992 L33.3999818,16.8425779 Z M26.4956537,9.8588659 C29.1385599,10.2916637 31.3681829,11.9686429 32.5610054,14.2671004 L29.0538948,15.4066951 C28.444747,14.5250972 27.5457621,13.8588776 26.4957354,13.5460973 L26.4957354,9.8588659 L26.4956537,9.8588659 Z" id="Shape" fill="#DDDDDD"></path>
                    </g>
                </g>
            </g>
        </g>
    </g>
</svg>