<?xml version="1.0" encoding="UTF-8"?>
<svg width="91px" height="91px" viewBox="0 0 91 91" version="1.1" xmlns="http://www.w3.org/2000/svg" xmlns:xlink="http://www.w3.org/1999/xlink">
    <title>Group 50</title>
    <g id="4Wheeler" stroke="none" stroke-width="1" fill="none" fill-rule="evenodd">
        <g id="01_4-wheeler_landing_desktop" transform="translate(-1212.000000, -948.000000)">
            <g id="Group-50" transform="translate(1212.000000, 948.000000)">
                <rect id="Rectangle" x="0" y="0" width="91" height="91"></rect>
                <g id="tire" transform="translate(7.000000, 13.000000)" fill-rule="nonzero">
                    <g id="Group" fill="#F5822D">
                        <path d="M22.5422167,55.2698447 L10.2048951,55.2698447 C8.83602416,55.2698447 7.72625395,54.184621 7.72625395,52.8460274 C7.72625395,51.5074338 8.83602416,50.42221 10.2048951,50.42221 L22.5422167,50.42221 C23.9110877,50.42221 25.0208579,51.5074338 25.0208579,52.8460274 C25.0208579,54.184621 23.9110877,55.2698447 22.5422167,55.2698447 Z" id="Path"></path>
                        <path d="M43.8708136,63.9123288 L2.73430524,63.9123288 C1.36543425,63.9123288 0.25566404,62.827105 0.25566404,61.4885114 C0.25566404,60.1499178 1.36543425,59.0646941 2.73430524,59.0646941 L43.8708136,59.0646941 C45.2396846,59.0646941 46.3494548,60.1499178 46.3494548,61.4885114 C46.3494548,62.8269589 45.239834,63.9123288 43.8708136,63.9123288 Z" id="Path"></path>
                        <path d="M43.8708136,4.93545205 L13.7154568,4.93545205 C12.3465858,4.93545205 11.2368156,3.85022831 11.2368156,2.5116347 C11.2368156,1.1730411 12.3465858,0.0876712329 13.7154568,0.0876712329 L43.8708136,0.0876712329 C45.2396846,0.0876712329 46.3494548,1.17289498 46.3494548,2.51148858 C46.3494548,3.85008219 45.239834,4.93545205 43.8708136,4.93545205 Z" id="Path"></path>
                        <path d="M20.457307,15.8413151 L2.4786412,15.8413151 C1.10977021,15.8413151 0,14.7560913 0,13.4174977 C0,12.0789041 1.10977021,10.9936804 2.4786412,10.9936804 L20.4571576,10.9936804 C21.8260286,10.9936804 22.9357988,12.0789041 22.9357988,13.4174977 C22.9357988,14.7560913 21.826178,15.8413151 20.457307,15.8413151 Z" id="Path"></path>
                    </g>
                    <path d="M43.3727344,64 C25.4359712,64 10.8431836,49.6448352 10.8431836,32 C10.8431836,14.3551648 25.4358222,0 43.3727344,0 C61.3096466,0 75.9022853,14.3551648 75.9022853,31.9998535 C75.9022853,49.6445421 61.3096466,64 43.3727344,64 Z" id="Path" fill="#000000"></path>
                    <ellipse id="Oval" fill="#FFFFFF" cx="44.1472476" cy="31.2380952" rx="17.8138016" ry="17.5238095"></ellipse>
                    <ellipse id="Oval" fill="#000000" cx="43.3727344" cy="32" rx="6.19610492" ry="6.0952381"></ellipse>
                    <path d="M43.3727344,12.1904762 C32.2689809,12.1904762 23.2353934,21.077038 23.2353934,32.0000731 C23.2353934,38.5138928 26.4484685,44.3031262 31.3970112,47.9158231 C31.4423412,47.9535437 31.4873739,47.9915567 31.5362708,48.026207 C31.5912612,48.0655359 31.6475892,48.102233 31.7045117,48.1364447 C34.9985861,50.4480737 39.0270055,51.8095238 43.3727344,51.8095238 C47.7184634,51.8095238 51.7467341,50.4480737 55.0409572,48.1364447 C55.0980283,48.102233 55.1542077,48.0655359 55.2091981,48.026207 C55.2579464,47.9912643 55.3031277,47.9532513 55.3484576,47.9158231 C60.2968518,44.3031262 63.5100754,38.514039 63.5100754,32.0000731 C63.5100754,21.0771842 54.476488,12.1904762 43.3727344,12.1904762 Z M56.8792719,25.1328787 L50.4950334,27.1735919 C49.3861591,25.5948829 47.7496741,24.4018595 45.8382371,23.8417526 L45.8382371,17.2387486 C50.6493038,18.0136289 54.7080422,21.016802 56.8792719,25.1328787 Z M39.6504779,31.9999269 C39.6504779,29.9808519 41.3202544,28.3382517 43.3727344,28.3382517 C45.4252145,28.3382517 47.094991,29.9808519 47.094991,31.9999269 C47.094991,34.0190019 45.4252145,35.6616021 43.3727344,35.6616021 C41.3201058,35.6617483 39.6504779,34.0192943 39.6504779,31.9999269 Z M40.9072318,17.2387486 L40.9072318,23.8417526 C38.9954975,24.4018595 37.3593097,25.5947367 36.2502868,27.1735919 L29.866197,25.1328787 C32.0375753,21.016802 36.0963137,18.0136289 40.9072318,17.2387486 Z M28.1663987,31.9999269 C28.1663987,31.2335264 28.2255506,30.4804304 28.3390984,29.7447327 L34.7251203,31.7860307 C34.7233368,31.8573782 34.7194726,31.9281408 34.7194726,31.9999269 C34.7194726,33.9438532 35.3867887,35.7366046 36.505918,37.1713029 L32.5629566,42.5100824 C29.8464302,39.8064809 28.1663987,36.0927572 28.1663987,31.9999269 Z M43.3727344,46.9590652 C40.9203106,46.9590652 38.6020931,46.3843379 36.5487213,45.3655896 L40.4925743,40.0259329 C41.3941199,40.3399788 42.3631402,40.5126455 43.3727344,40.5126455 C44.3821801,40.5126455 45.351349,40.3399788 46.2528945,40.0259329 L50.1967476,45.3655896 C48.1433758,46.3841917 45.8251583,46.9590652 43.3727344,46.9590652 Z M54.1823636,42.5100824 L50.2394023,37.1715953 C51.3585315,35.7368971 52.0258476,33.9441456 52.0258476,32.0002193 C52.0258476,31.9284332 52.0222807,31.8576706 52.0202,31.7863231 L58.4062219,29.7450251 C58.5197697,30.4807228 58.5789215,31.2338188 58.5789215,32.0002193 C58.5792188,36.0927572 56.8991873,39.8063347 54.1823636,42.5100824 Z" id="Shape" fill="#DBD9DC"></path>
                    <path d="M75.9022853,31.9998535 C75.9022853,14.3551648 61.3095645,0 43.3727344,0 L43.3727344,64 C61.3095645,64 75.9022853,49.6448352 75.9022853,31.9998535 Z" id="Path" fill="#000000"></path>
                    <path d="M60.412023,31.2380952 C60.412023,21.5600241 52.7832137,13.7142857 43.3727344,13.7142857 L43.3727344,48.7619048 C52.7832137,48.7619048 60.412023,40.9163137 60.412023,31.2380952 Z" id="Path" fill="#FFFFFF"></path>
                    <path d="M49.5688394,32 C49.5688394,28.6336671 46.794775,25.9047619 43.3727344,25.9047619 L43.3727344,38.0952381 C46.7946262,38.0953845 49.5688394,35.3663329 49.5688394,32 Z" id="Path" fill="#000000"></path>
                    <path d="M47.094991,32.0002193 C47.094991,34.0192943 45.4252145,35.6618945 43.3727344,35.6618945 L43.3727344,40.5124993 C44.3821801,40.5124993 45.351349,40.3398326 46.2528945,40.0257867 L50.1967476,45.3654434 C48.1433758,46.3840455 45.8253069,46.958919 43.3727344,46.958919 L43.3727344,51.8095238 C47.7184634,51.8095238 51.7467341,50.4480737 55.0409572,48.1364447 C55.0980283,48.102233 55.1542077,48.0655359 55.2091981,48.026207 C55.2579464,47.9912643 55.3029791,47.9532513 55.3484576,47.9158231 C60.2968518,44.3031262 63.5100754,38.514039 63.5100754,32.0000731 C63.5100754,21.077038 54.476488,12.1904762 43.3727344,12.1904762 L43.3727344,28.3382517 C45.4252145,28.3385441 47.094991,29.9811443 47.094991,32.0002193 Z M58.4063705,29.7450251 C58.5199183,30.4807228 58.5790701,31.2338188 58.5790701,32.0002193 C58.5790701,36.0930496 56.8990387,39.8066271 54.1823636,42.5100824 L50.2394023,37.1715953 C51.3585315,35.7368971 52.0258476,33.9441456 52.0258476,32.0002193 C52.0258476,31.9284332 52.0222807,31.8576706 52.0202,31.7863231 L58.4063705,29.7450251 Z M45.8379398,17.239041 C50.6490066,18.0140676 54.707745,21.0170944 56.8791232,25.1330249 L50.4948848,27.1737381 C49.3860105,25.5950291 47.7495255,24.4020057 45.8380885,23.8418988 L45.8380885,17.239041 L45.8379398,17.239041 Z" id="Shape" fill="#DBD9DC"></path>
                </g>
            </g>
        </g>
    </g>
</svg>