<svg xmlns="http://www.w3.org/2000/svg" width="77" height="50" viewBox="0 0 77 50">
    <g fill="none" fill-rule="evenodd">
        <g transform="translate(1) matrix(-1 0 0 1 70.303 0)">
            <rect width="31.515" height="1.515" x="38.788" y="17.879" fill="#F58228" rx=".758"/>
            <rect width="25.455" height="1.515" x="30.909" y="11.818" fill="#F58228" rx=".758"/>
            <rect width="20" height="1.515" x="41.212" y="23.939" fill="#F58228" rx=".758"/>
            <rect width="31.515" height="1.515" x="38.788" y="30" fill="#F58228" rx=".758"/>
            <rect width="20" height="1.515" x="36.364" y="36.061" fill="#F58228" rx=".758"/>
            <g fill-rule="nonzero">
                <path fill="#C8C8C8" d="M38.35 24.605l-6.32-.516c-.94-.077-1.642-.905-1.566-1.851.036-.452.249-.872.592-1.167l4.812-4.154c-1.744-2.495-4.26-4.339-7.155-5.242L26.27 17.57c-.363.877-1.364 1.29-2.235.925-.416-.174-.746-.507-.919-.925l-2.436-5.89c-2.895.904-5.412 2.747-7.155 5.242l4.812 4.154c.717.618.8 1.702.186 2.423-.294.345-.71.558-1.16.595l-6.32.516c0 .073-.012.143-.012.216-.002 2.978.964 5.875 2.75 8.25l5.408-3.319c.805-.494 1.857-.238 2.348.573.235.387.307.852.203 1.293l-1.467 6.205c2.865 1.001 5.983 1.001 8.849 0l-1.468-6.205c-.218-.923.348-1.85 1.266-2.07.438-.105.9-.032 1.285.204l5.405 3.314c1.786-2.375 2.753-5.272 2.75-8.25 0-.073-.009-.143-.01-.216zm-13.654 2.794c-1.416 0-2.563-1.154-2.563-2.578s1.147-2.578 2.563-2.578c1.415 0 2.562 1.154 2.562 2.578S26.111 27.4 24.696 27.4z" transform="translate(.106)"/>
                <path fill="#2B2733" d="M24.697 0C11.057 0 0 11.193 0 25s11.057 25 24.697 25c13.64 0 24.697-11.193 24.697-25S38.337 0 24.697 0zm0 38.793c-7.526 0-13.626-6.175-13.626-13.793 0-7.618 6.1-13.793 13.626-13.793S38.323 17.382 38.323 25c0 7.618-6.1 13.793-13.626 13.793z" transform="translate(.106)"/>
                <path fill="#1A1721" d="M40.836 6.091c8.913 10.444 7.775 26.224-2.542 35.246-9.27 8.106-23.007 8.106-32.276 0 8.908 10.449 24.497 11.609 34.818 2.59C51.158 34.91 52.304 19.13 43.395 8.681c-.79-.925-1.644-1.79-2.559-2.59z" transform="translate(.106)"/>
                <path fill="#555160" d="M16.612 1.164L18.317 1.158 18.308 3.741 16.603 3.747z" transform="translate(.106) rotate(162.002 17.46 2.452)"/>
                <path fill="#3B3944" d="M31.087 46.255L32.793 46.249 32.784 48.832 31.078 48.838z" transform="translate(.106) rotate(162.002 31.935 47.544)"/>
                <path fill="#555160" d="M23.819 0H25.573999999999998V2.538H23.819z" transform="translate(.106)"/>
                <path fill="#3B3944" d="M23.819 47.462H25.573999999999998V50H23.819z" transform="translate(.106)"/>
                <path fill="#555160" d="M10.084 4.538L11.794 4.528 11.779 7.104 10.069 7.114z" transform="translate(.106) rotate(143.991 10.931 5.821)"/>
                <path fill="#3B3944" d="M37.612 42.895L39.323 42.885 39.308 45.46 37.597 45.47z" transform="translate(.106) rotate(143.991 38.46 44.178)"/>
                <path fill="#555160" d="M4.899 9.788L6.616 9.778 6.601 12.344 4.884 12.354z" transform="translate(.106) rotate(126.009 5.75 11.066)"/>
                <path fill="#3B3944" d="M42.794 37.657L44.511 37.647 44.496 40.213 42.779 40.223z" transform="translate(.106) rotate(126.009 43.645 38.935)"/>
                <path fill="#555160" d="M1.566 16.399L3.288 16.392 3.279 18.951 1.556 18.957z" transform="translate(.106) rotate(107.998 2.422 17.675)"/>
                <path fill="#3B3944" d="M46.114 31.056L47.837 31.05 47.827 33.608 46.105 33.614z" transform="translate(.106) rotate(107.998 46.97 32.332)"/>
                <path fill="#555160" d="M0 24.112H2.507V25.889H0z" transform="translate(.106)"/>
                <path fill="#3B3944" d="M46.887 24.112H49.394V25.889H46.887z" transform="translate(.106)"/>
                <g fill="#555160">
                    <path d="M0.281 30.427L2.825 30.418 2.819 32.131 0.275 32.14z" transform="translate(.106) translate(1.003 1.015) rotate(161.994 1.55 31.28)"/>
                    <path d="M3.581 37.004L6.133 36.99 6.123 38.697 3.571 38.712z" transform="translate(.106) translate(1.003 1.015) rotate(143.999 4.852 37.85)"/>
                    <path d="M36.117 4.071L38.679 4.057 38.669 5.758 36.107 5.773z" transform="translate(.106) translate(1.003 1.015) rotate(126.001 37.393 4.915)"/>
                    <path d="M29.619 0.724L32.188 0.715 32.182 2.411 29.612 2.42z" transform="translate(.106) translate(1.003 1.015) rotate(108.006 30.9 1.567)"/>
                </g>
                <g fill="#3B3944">
                    <path d="M38.787 8.48l-.525-1.63-1.66.546c.123.56.23 1.127.314 1.7l1.87-.617zM35.533 1.425L34.538.037l-.578.429c.282.5.554 1.007.802 1.53l.771-.571zM.037 34.961l1.37 1.008.561-.78c-.516-.252-1.016-.527-1.511-.812l-.42.584zM6.764 38.732l1.61.53.607-1.893c-.567-.086-1.126-.194-1.68-.318l-.537 1.68z" transform="translate(.106) translate(9.528 9.645)"/>
                </g>
                <g fill="#555160">
                    <path d="M39.041 11.99l.547-.18c-.085-.574-.192-1.14-.315-1.7l-.756.248.524 1.631zM36.15 5.655l1.284-.943c-.248-.522-.52-1.029-.802-1.53L35.155 4.27l.996 1.385zM4.216 35.586l-1.073 1.496c.493.285.994.56 1.51.812l.932-1.3-1.369-1.008zM10.232 38.99l-.245.765c.554.125 1.112.233 1.679.318l.178-.553-1.612-.53zM17.841.06C8.021.06.06 8.12.06 18.06c0 9.941 7.96 18 17.781 18 9.82 0 17.782-8.059 17.782-18 0-9.94-7.961-18-17.782-18zm0 31.714c-7.482 0-13.548-6.14-13.548-13.714 0-7.574 6.066-13.714 13.548-13.714 7.483 0 13.548 6.14 13.548 13.714 0 7.575-6.065 13.714-13.548 13.714z" transform="translate(.106) translate(6.77 6.853)"/>
                </g>
                <path fill="#3B3944" d="M36.91 11.675c6.782 7.323 6.416 18.824-.818 25.69-6.907 6.553-17.652 6.553-24.558 0 6.761 7.343 18.123 7.746 25.378.902 7.254-6.845 7.652-18.346.89-25.69-.286-.31-.584-.612-.891-.902z" transform="translate(.106)"/>
                <g fill="#716D7B" opacity=".441">
                    <path d="M18.74 1.84C17.607 1.038 16.356.417 15.034.002l-.464 1.127c1.413.075 2.813.313 4.172.711zM7.932 2.001l-.82-2C4.257.9 1.774 2.73.055 5.209l.991.862c1.977-1.847 4.327-3.235 6.887-4.069z" transform="translate(.106) translate(13.54 11.675)"/>
                </g>
            </g>
        </g>
        <g>
            <path fill="#A9C83A" d="M15.34 7.576c0 4.184-3.39 7.576-7.575 7.576C3.581 15.152.19 11.76.19 7.576.19 3.392 3.581 0 7.765 0c4.184 0 7.576 3.392 7.576 7.576" transform="translate(1) translate(59.09)"/>
            <path fill="#FFF" fill-rule="nonzero" d="M6.471 10.606c-.106 0-.202-.048-.279-.124L4.09 8.23c-.154-.162-.144-.42 0-.582.154-.162.394-.153.547 0l1.825 1.956 4.044-4.552c.144-.162.394-.172.548-.019.153.153.163.41.019.582l-4.313 4.867c-.086.076-.182.124-.288.124z" transform="translate(1) translate(59.09)"/>
        </g>
    </g>
</svg>
