<svg xmlns="http://www.w3.org/2000/svg" width="64" height="41" viewBox="0 0 64 41">
    <g fill="none">
        <g>
            <g fill="#274A70">
                <path d="M2.851 15.85L.18 22.447c-.505 1.245.096 2.664 1.341 3.168l1.331.54V15.85zM26.82 6.299L11.81.217C10.563-.287 9.145.313 8.64 1.56l-1.92 4.74h20.1z" transform="matrix(-1 0 0 1 64 0)"/>
                <path d="M7.43 4.546L6.72 6.299 26.821 6.299 22.494 4.546zM21.481 33.701l15.012 6.082c1.245.504 2.664-.096 3.169-1.342l1.92-4.74h-20.1z" transform="matrix(-1 0 0 1 64 0)"/>
                <path d="M40.872 35.454L41.582 33.701 21.481 33.701 25.808 35.454zM46.782 14.385l-1.331-.54V24.15l2.672-6.597c.505-1.245-.096-2.664-1.341-3.168z" transform="matrix(-1 0 0 1 64 0)"/>
            </g>
            <path fill="#FFF" d="M43.018 33.701H5.284c-1.344 0-2.433-1.089-2.433-2.433V8.732c0-1.344 1.09-2.433 2.433-2.433h37.734c1.344 0 2.433 1.089 2.433 2.433v22.536c0 1.344-1.09 2.433-2.433 2.433z" transform="matrix(-1 0 0 1 64 0)"/>
            <path fill="#DFEAFA" d="M43.018 31.948H5.284c-1.344 0-2.433-1.089-2.433-2.433v1.753c0 1.344 1.09 2.433 2.433 2.433h37.734c1.344 0 2.433-1.089 2.433-2.433v-1.753c0 1.344-1.09 2.433-2.433 2.433z" transform="matrix(-1 0 0 1 64 0)"/>
            <path fill="#F5822D" d="M45.45 16.76H21.914c1.062-.568 1.879-1.29 2.24-2.14.582-1.368-.211-2.485-.736-3.028-.683-.709-1.513-1.012-2.398-.879-1.8.272-3.536 2.36-4.694 4.098V6.3h-1.457v8.512c-1.158-1.738-2.894-3.826-4.694-4.098-.886-.134-1.716.17-2.398.879-.525.543-1.318 1.66-.736 3.028.361.85 1.178 1.572 2.24 2.14H2.85v1.458h10.35c-1.683 1.33-3.929 3.63-4.875 6.944-.11.387.113.79.5.9.067.02.135.029.201.029.317 0 .609-.209.7-.529.984-3.442 3.642-5.71 5.14-6.756V33.7h1.458V18.806c1.499 1.046 4.157 3.314 5.14 6.756.092.32.384.53.7.53.067 0 .135-.01.202-.03.387-.11.61-.513.5-.9-.947-3.314-3.192-5.614-4.875-6.944h27.459V16.76zM8.383 14.05c-.125-.294-.215-.763.443-1.447.366-.379.691-.463.941-.463.07 0 .133.006.19.015.881.133 2.045 1.152 3.277 2.868.428.597.8 1.19 1.088 1.674-2.794-.273-5.406-1.393-5.94-2.647zm8.49 2.647c.284-.48.653-1.066 1.078-1.659 1.235-1.726 2.402-2.75 3.287-2.883.057-.009.12-.015.19-.015.25 0 .575.084.94.463.66.683.57 1.153.444 1.447-.533 1.254-3.146 2.374-5.94 2.647z" transform="matrix(-1 0 0 1 64 0)"/>
        </g>
        <g transform="translate(0 11)">
            <g fill="#F5822D">
                <path d="M10.567 25.908H4.784c-.642 0-1.162-.509-1.162-1.136 0-.628.52-1.137 1.162-1.137h5.783c.641 0 1.162.51 1.162 1.137s-.52 1.136-1.162 1.136zM20.564 29.959H1.282C.64 29.959.12 29.45.12 28.823c0-.628.52-1.136 1.162-1.136h19.282c.642 0 1.162.508 1.162 1.136 0 .627-.52 1.136-1.162 1.136zM20.564 2.313H6.43c-.642 0-1.162-.508-1.162-1.136 0-.627.52-1.136 1.162-1.136h14.135c.642 0 1.162.509 1.162 1.136 0 .628-.52 1.136-1.162 1.136zM9.59 7.426H1.161C.52 7.426 0 6.916 0 6.289s.52-1.136 1.162-1.136h8.427c.642 0 1.162.509 1.162 1.136 0 .628-.52 1.137-1.162 1.137z"/>
            </g>
            <path fill="#000" d="M20.331 30c-8.408 0-15.248-6.729-15.248-15S11.923 0 20.33 0s15.248 6.729 15.248 15c0 8.27-6.84 15-15.248 15z"/>
            <ellipse cx="20.694" cy="14.643" fill="#FFF" rx="8.35" ry="8.214"/>
            <ellipse cx="20.331" cy="15" fill="#000" rx="2.904" ry="2.857"/>
            <path fill="#DBD9DC" d="M20.331 5.714c-5.205 0-9.44 4.166-9.44 9.286 0 3.053 1.507 5.767 3.826 7.46.022.018.043.036.066.052.025.019.052.036.078.052 1.545 1.084 3.433 1.722 5.47 1.722s3.925-.638 5.47-1.722c.026-.016.053-.033.078-.052.023-.016.044-.034.066-.051 2.32-1.694 3.825-4.408 3.825-7.461 0-5.12-4.234-9.286-9.439-9.286zm6.331 6.067l-2.992.957c-.52-.74-1.287-1.3-2.183-1.562V8.08c2.255.363 4.157 1.77 5.175 3.7zM18.586 15c0-.946.783-1.716 1.745-1.716.962 0 1.745.77 1.745 1.716s-.783 1.716-1.745 1.716c-.962 0-1.745-.77-1.745-1.716zm.59-6.92v3.096c-.897.262-1.664.822-2.184 1.562L14 11.78c1.018-1.93 2.92-3.337 5.175-3.7zM13.202 15c0-.36.028-.712.081-1.057l2.993.957-.002.1c0 .911.313 1.752.837 2.424l-1.848 2.503c-1.273-1.268-2.061-3.009-2.061-4.927zm7.128 7.012c-1.15 0-2.236-.27-3.199-.747l1.849-2.503c.422.147.877.228 1.35.228.473 0 .927-.08 1.35-.228l1.849 2.503c-.963.478-2.05.747-3.199.747zm5.067-2.085l-1.848-2.503c.524-.672.837-1.513.837-2.424 0-.034-.002-.067-.003-.1l2.994-.957c.053.345.08.698.08 1.057.001 1.918-.787 3.66-2.06 4.927z"/>
            <path fill="#000" d="M35.58 15c0-8.271-6.841-15-15.249-15v30c8.408 0 15.248-6.729 15.248-15z"/>
            <path fill="#FFF" d="M28.318 14.643c0-4.537-3.576-8.214-7.987-8.214v16.428c4.411 0 7.987-3.677 7.987-8.214z"/>
            <path fill="#000" d="M23.235 15c0-1.578-1.3-2.857-2.904-2.857v5.714c1.604 0 2.904-1.279 2.904-2.857z"/>
            <path fill="#DBD9DC" d="M22.076 15c0 .947-.783 1.717-1.745 1.717v2.273c.473 0 .927-.08 1.35-.228l1.849 2.503c-.963.478-2.05.747-3.199.747v2.274c2.037 0 3.925-.638 5.47-1.722.026-.016.053-.033.078-.052.023-.016.044-.034.066-.051 2.32-1.694 3.825-4.408 3.825-7.461 0-5.12-4.234-9.286-9.439-9.286v7.57c.962 0 1.745.77 1.745 1.716zm5.302-1.057c.053.345.08.698.08 1.057 0 1.919-.787 3.66-2.06 4.927l-1.848-2.503c.524-.672.837-1.513.837-2.424 0-.034-.002-.067-.003-.1l2.994-.957zm-5.891-5.862c2.255.363 4.157 1.77 5.175 3.7l-2.993.957c-.52-.74-1.286-1.3-2.182-1.562V8.08z"/>
        </g>
    </g>
</svg>
