<svg xmlns="http://www.w3.org/2000/svg" width="76" height="64" viewBox="0 0 76 64">
    <g fill="none">
        <g fill="#30516C">
            <path d="M22.542 55.27H10.205c-1.369 0-2.479-1.085-2.479-2.424s1.11-2.424 2.479-2.424h12.337c1.37 0 2.479 1.085 2.479 2.424s-1.11 2.424-2.479 2.424zM43.87 63.912H2.735c-1.369 0-2.478-1.085-2.478-2.423 0-1.34 1.11-2.424 2.478-2.424h41.137c1.369 0 2.478 1.085 2.478 2.424 0 1.338-1.11 2.423-2.478 2.423zM43.87 4.935H13.716c-1.368 0-2.478-1.085-2.478-2.423 0-1.339 1.11-2.424 2.478-2.424h30.156c1.369 0 2.478 1.085 2.478 2.423 0 1.34-1.11 2.424-2.478 2.424zM20.457 15.841H2.48C1.109 15.841 0 14.756 0 13.417c0-1.338 1.11-2.423 2.479-2.423h17.978c1.369 0 2.479 1.085 2.479 2.423 0 1.34-1.11 2.424-2.479 2.424z"/>
        </g>
        <path fill="#DBD9DC" d="M43.373 64c-17.937 0-32.53-14.355-32.53-32S25.436 0 43.373 0s32.53 14.355 32.53 32-14.593 32-32.53 32z"/>
        <ellipse cx="44.147" cy="31.238" fill="#FFF" rx="17.814" ry="17.524"/>
        <ellipse cx="43.373" cy="32" fill="#30516C" rx="6.196" ry="6.095"/>
        <path fill="#F5822D" d="M43.373 12.19c-11.104 0-20.138 8.887-20.138 19.81 0 6.514 3.213 12.303 8.162 15.916.045.038.09.076.14.11.054.04.11.076.168.11 3.294 2.312 7.322 3.674 11.668 3.674 4.345 0 8.374-1.362 11.668-3.674.057-.034.113-.07.168-.11.049-.035.094-.073.14-.11C60.296 44.303 63.51 38.514 63.51 32c0-10.923-9.034-19.81-20.137-19.81zm13.506 12.943l-6.384 2.04c-1.109-1.578-2.745-2.771-4.657-3.331v-6.603c4.811.775 8.87 3.778 11.041 7.894zM39.65 32c0-2.02 1.67-3.662 3.723-3.662 2.052 0 3.722 1.643 3.722 3.662s-1.67 3.662-3.722 3.662c-2.053 0-3.723-1.643-3.723-3.662zm1.257-14.761v6.603c-1.912.56-3.548 1.753-4.657 3.332l-6.384-2.041c2.172-4.116 6.23-7.12 11.041-7.894zm-12.74 14.76c0-.765.059-1.519.172-2.254l6.386 2.041c-.002.071-.006.142-.006.214 0 1.944.668 3.737 1.787 5.171l-3.943 5.34c-2.717-2.705-4.397-6.418-4.397-10.511zm15.206 14.96c-2.453 0-4.77-.575-6.824-1.593l3.944-5.34c.901.314 1.87.487 2.88.487 1.01 0 1.978-.173 2.88-.487l3.944 5.34c-2.054 1.018-4.372 1.593-6.824 1.593zm10.81-4.449l-3.944-5.338c1.12-1.435 1.787-3.228 1.787-5.172 0-.072-.004-.142-.006-.214l6.386-2.041c.114.736.173 1.489.173 2.255 0 4.093-1.68 7.806-4.397 10.51z"/>
        <path fill="#CCCBCB" d="M75.902 32c0-17.645-14.592-32-32.53-32v64c17.938 0 32.53-14.355 32.53-32z"/>
        <path fill="#FFF" d="M60.412 31.238c0-9.678-7.629-17.524-17.04-17.524v35.048c9.411 0 17.04-7.846 17.04-17.524z"/>
        <path fill="#30516C" d="M49.569 32c0-3.366-2.774-6.095-6.196-6.095v12.19c3.422 0 6.196-2.729 6.196-6.095z"/>
        <path fill="#F5822D" d="M47.095 32c0 2.02-1.67 3.662-3.722 3.662v4.85c1.01 0 1.978-.172 2.88-.486l3.944 5.34c-2.054 1.018-4.372 1.593-6.824 1.593v4.85c4.345 0 8.374-1.36 11.668-3.673.057-.034.113-.07.168-.11.049-.035.094-.073.14-.11C60.296 44.303 63.51 38.514 63.51 32c0-10.923-9.034-19.81-20.137-19.81v16.148c2.052 0 3.722 1.643 3.722 3.662zm11.311-2.255c.114.736.173 1.489.173 2.255 0 4.093-1.68 7.807-4.397 10.51l-3.943-5.338c1.12-1.435 1.787-3.228 1.787-5.172 0-.072-.004-.142-.006-.214l6.386-2.041zM45.838 17.239c4.811.775 8.87 3.778 11.041 7.894l-6.384 2.04c-1.109-1.578-2.745-2.771-4.657-3.331v-6.603z"/>
    </g>
</svg>
