<?xml version="1.0" encoding="UTF-8"?>
<svg width="60px" height="41px" viewBox="0 0 60 41" version="1.1" xmlns="http://www.w3.org/2000/svg" xmlns:xlink="http://www.w3.org/1999/xlink">
    <title>Group 12</title>
    <g id="4Wheeler" stroke="none" stroke-width="1" fill="none" fill-rule="evenodd">
        <g id="04.1_Card-on-click_desktop" transform="translate(-618.000000, -403.000000)">
            <g id="Group-12" transform="translate(618.000000, 403.000000)">
                <g id="Group-11" transform="translate(17.270732, 0.000000)">
                    <polygon id="Path" fill="#E7EEF5" fill-rule="nonzero" points="37.0538226 16.1145161 37.0538226 39.5273118 4.8021129 39.5273118 4.8021129 16.1145161 21.0188548 1.13247312"></polygon>
                    <polyline id="Path" fill="#30516C" fill-rule="nonzero" points="29.1623387 7.84827957 29.1623387 3.52354839 37.2253226 3.52354839 37.2253226 15.1612903"></polyline>
                    <polyline id="Path" fill="#30516C" fill-rule="nonzero" points="29.1623387 7.84827957 29.1623387 3.52354839 31.0987419 3.52354839 31.0987419 15.1612903"></polyline>
                    <polygon id="Path" fill="#E7EEF5" fill-rule="nonzero" points="37.0538226 17.0336559 37.0538226 21.4098925 20.9279677 6.74623656 4.8021129 21.4098925 4.8021129 17.0336559 19.6471935 3.5683871 20.9279677 2.43537634 22.2077258 3.5683871"></polygon>
                    <polygon id="Path" fill="#F5822D" fill-rule="nonzero" points="20.9275161 4.31086022 2.56730645 21.0054839 -4.63773164e-13 18.9529032 19.6474194 1.13247312 20.9275161 5.76115732e-15 22.2078387 1.13247312 41.8552581 18.9529032 39.2879516 21.0054839"></polygon>
                    <rect id="Rectangle" fill="#FFFFFF" fill-rule="nonzero" x="16.426629" y="24.2992473" width="8.69354839" height="15.2688172"></rect>
                    <path d="M25.6846935,39.5680645 L24.4347715,39.5680645 L24.4347715,24.9237202 L16.9990396,24.9237202 L16.9990396,39.5680645 L15.7492097,39.5680645 L15.7492097,24.2889031 C15.7492097,23.9382458 16.028937,23.654086 16.3741246,23.654086 L25.0597786,23.654086 C25.4049662,23.654086 25.6846935,23.9382458 25.6846935,24.2889031 L25.6846935,39.5680645 L25.6846935,39.5680645 Z" id="Path" fill="#DBD9DC" fill-rule="nonzero"></path>
                    <path d="M23.1470619,32.4712903 L21.8997445,32.4712903 C21.5582237,32.4712903 21.2814677,32.1825002 21.2814677,31.826129 C21.2814677,31.4697579 21.5582237,31.1809677 21.8997445,31.1809677 L23.1470619,31.1809677 C23.4885828,31.1809677 23.7653387,31.4697579 23.7653387,31.826129 C23.7653387,32.1825002 23.4884915,32.4712903 23.1470619,32.4712903 Z" id="Path" fill="#DBD9DC" fill-rule="nonzero"></path>
                    <g id="Group" transform="translate(21.281468, 29.890645)"></g>
                </g>
                <g id="racing-(1)" transform="translate(0.000000, 17.295469)" fill-rule="nonzero">
                    <g id="Group" fill="#F5822D">
                        <path d="M7.92719902,19.5407214 L3.58865483,19.5407214 C3.10727747,19.5407214 2.71701553,19.1570392 2.71701553,18.6837778 C2.71701553,18.2105163 3.10727747,17.8268342 3.58865483,17.8268342 L7.92719902,17.8268342 C8.40857638,17.8268342 8.79883832,18.2105163 8.79883832,18.6837778 C8.79883832,19.1570392 8.40857638,19.5407214 7.92719902,19.5407214 Z" id="Path"></path>
                        <path d="M15.4276164,22.5962822 L0.961546157,22.5962822 C0.480168795,22.5962822 0.0899068514,22.2126 0.0899068514,21.7393386 C0.0899068514,21.2660772 0.480168795,20.882395 0.961546157,20.882395 L15.4276164,20.882395 C15.9089937,20.882395 16.2992557,21.2660772 16.2992557,21.7393386 C16.2992557,22.2125483 15.9090463,22.5962822 15.4276164,22.5962822 Z" id="Path"></path>
                        <path d="M15.4276164,1.74493512 L4.82317942,1.74493512 C4.34180206,1.74493512 3.95154011,1.36125294 3.95154011,0.887991528 C3.95154011,0.414730117 4.34180206,0.0309962718 4.82317942,0.0309962718 L15.4276164,0.0309962718 C15.9089937,0.0309962718 16.2992557,0.414678457 16.2992557,0.887939867 C16.2992557,1.36120128 15.9090463,1.74493512 15.4276164,1.74493512 Z" id="Path"></path>
                        <path d="M7.19401941,5.60071636 L0.871639305,5.60071636 C0.390261944,5.60071636 0,5.21703417 0,4.74377276 C0,4.27051135 0.390261944,3.88682917 0.871639305,3.88682917 L7.19396687,3.88682917 C7.67534423,3.88682917 8.06560617,4.27051135 8.06560617,4.74377276 C8.06560617,5.21703417 7.67539678,5.60071636 7.19401941,5.60071636 Z" id="Path"></path>
                    </g>
                    <path d="M15.7133878,22.6272784 C9.47505795,22.6272784 4.39974859,17.5519923 4.39974859,11.3136392 C4.39974859,5.07528612 9.47500614,0 15.7133878,0 C21.9517695,0 27.027027,5.07528612 27.027027,11.3135874 C27.027027,17.5518887 21.9517695,22.6272784 15.7133878,22.6272784 Z" id="Path" fill="#282828"></path>
                    <ellipse id="Oval" fill="#FFFFFF" cx="15.0848523" cy="10.9993715" rx="6.28535512" ry="5.97108737"></ellipse>
                    <circle id="Oval" fill="#282828" cx="15.3991201" cy="10.9993715" r="2.19987429"></circle>
                    <path d="M15.7133878,4.39974859 C11.9010604,4.39974859 8.79949717,7.50132322 8.79949717,11.3136647 C8.79949717,13.5871084 9.90266414,15.6076581 11.6016811,16.8685562 C11.6172445,16.8817214 11.6327059,16.8949886 11.649494,16.9070822 C11.6683742,16.9208087 11.6877137,16.9336167 11.7072573,16.9455572 C12.8382343,17.7523585 14.221339,18.2275299 15.7133878,18.2275299 C17.2054366,18.2275299 18.5884902,17.7523585 19.7195183,16.9455572 C19.7391129,16.9336167 19.7584014,16.9208087 19.7772816,16.9070822 C19.7940187,16.8948866 19.8095311,16.8816193 19.8250945,16.8685562 C21.5240604,15.6076581 22.6272784,13.5871595 22.6272784,11.3136647 C22.6272784,7.50137424 19.5257153,4.39974859 15.7133878,4.39974859 Z M20.3506794,8.91688673 L18.1587353,9.62913343 C17.7780179,9.07813473 17.2161524,8.6617475 16.5598856,8.46625981 L16.5598856,6.16168913 C18.211702,6.43213673 19.6052163,7.48029974 20.3506794,8.91688673 Z M14.4354001,11.3136137 C14.4354001,10.6089191 15.0086958,10.0356213 15.7133878,10.0356213 C16.4180798,10.0356213 16.9913755,10.6089191 16.9913755,11.3136137 C16.9913755,12.0183083 16.4180798,12.5916061 15.7133878,12.5916061 C15.0086448,12.5916572 14.4354001,12.0184103 14.4354001,11.3136137 Z M14.86689,6.16168913 L14.86689,8.46625981 C14.2105212,8.6617475 13.6487577,9.07808371 13.2679893,9.62913343 L11.0760962,8.91688673 C11.8216103,7.48029974 13.2151246,6.43213673 14.86689,6.16168913 Z M10.4924929,11.3136137 C10.4924929,11.0461257 10.5128019,10.7832813 10.551787,10.5265092 L12.7443435,11.23896 C12.7437311,11.2638616 12.7424044,11.288559 12.7424044,11.3136137 C12.7424044,11.99208 12.9715186,12.6177834 13.3557569,13.1185197 L12.0019931,14.9818526 C11.0693095,14.0382456 10.4924929,12.7420873 10.4924929,11.3136137 Z M15.7133878,16.53463 C14.8713804,16.53463 14.075451,16.3340395 13.3704528,15.9784775 L14.7245228,14.1148384 C15.0340566,14.2244462 15.3667569,14.2847101 15.7133878,14.2847101 C16.0599677,14.2847101 16.392719,14.2244462 16.7022528,14.1148384 L18.0563228,15.9784775 C17.3513246,16.3339885 16.5553952,16.53463 15.7133878,16.53463 Z M19.4247315,14.9818526 L18.0709677,13.1186218 C18.455206,12.6178855 18.6843202,11.992182 18.6843202,11.3137158 C18.6843202,11.2886611 18.6830955,11.2639636 18.6823811,11.239062 L20.8749376,10.5266112 C20.9139227,10.7833833 20.9342317,11.0462278 20.9342317,11.3137158 C20.9343338,12.7420873 20.3575171,14.0381946 19.4247315,14.9818526 Z" id="Shape" fill="#DDDDDD"></path>
                    <path d="M27.027027,11.3135874 C27.027027,5.07528612 21.9517409,0 15.7133878,0 L15.7133878,22.6272784 C21.9517409,22.6272784 27.027027,17.5519923 27.027027,11.3135874 Z" id="Path" fill="#282828"></path>
                    <path d="M21.9987429,10.9993715 C21.9987429,7.70165197 19.1846715,5.0282841 15.7133878,5.0282841 L15.7133878,16.9704588 C19.1846715,16.9704588 21.9987429,14.2971412 21.9987429,10.9993715 Z" id="Path" fill="#FFFFFF"></path>
                    <path d="M17.5989943,10.9993715 C17.5989943,9.7844051 16.7547875,8.79949717 15.7133878,8.79949717 L15.7133878,13.1992458 C16.7547423,13.1992986 17.5989943,12.2143378 17.5989943,10.9993715 Z" id="Path" fill="#282828"></path>
                    <path d="M16.9913755,11.3137158 C16.9913755,12.0184103 16.4180798,12.5917082 15.7133878,12.5917082 L15.7133878,14.2846591 C16.0599677,14.2846591 16.392719,14.2243952 16.7022528,14.1147874 L18.0563228,15.9784264 C17.3513246,16.3339375 16.5554462,16.534579 15.7133878,16.534579 L15.7133878,18.2275299 C17.2054366,18.2275299 18.5884902,17.7523585 19.7195183,16.9455572 C19.7391129,16.9336167 19.7584014,16.9208087 19.7772816,16.9070822 C19.7940187,16.8948866 19.8094801,16.8816193 19.8250945,16.8685562 C21.5240604,15.6076581 22.6272784,13.5871595 22.6272784,11.3136647 C22.6272784,7.50132322 19.5257153,4.39974859 15.7133878,4.39974859 L15.7133878,10.0356213 C16.4180798,10.0357233 16.9913755,10.6090212 16.9913755,11.3137158 Z M20.8749886,10.5266112 C20.9139738,10.7833833 20.9342828,11.0462278 20.9342828,11.3137158 C20.9342828,12.7421893 20.3574661,14.0382967 19.4247315,14.9818526 L18.0709677,13.1186218 C18.455206,12.6178855 18.6843202,11.992182 18.6843202,11.3137158 C18.6843202,11.2886611 18.6830955,11.2639636 18.6823811,11.239062 L20.8749886,10.5266112 Z M16.5597836,6.16179119 C18.2115999,6.43228981 19.6051143,7.4804018 20.3506284,8.91693776 L18.1586843,9.62918446 C17.7779669,9.07818576 17.2161013,8.66179119 16.5598346,8.46631084 L16.5598346,6.16179119 L16.5597836,6.16179119 Z" id="Shape" fill="#DDDDDD"></path>
                </g>
            </g>
        </g>
    </g>
</svg>