<svg xmlns="http://www.w3.org/2000/svg" width="58" height="43" viewBox="0 0 58 43">
    <g fill="none">
        <g fill="#F5822D">
            <path d="M13.761 33.74H6.23c-.836 0-1.513-.662-1.513-1.48 0-.817.677-1.479 1.513-1.479h7.531c.836 0 1.513.662 1.513 1.48 0 .817-.677 1.48-1.513 1.48zM26.782 39.016H1.669c-.835 0-1.513-.662-1.513-1.48 0-.817.678-1.48 1.513-1.48h25.113c.835 0 1.513.663 1.513 1.48 0 .818-.678 1.48-1.513 1.48zM26.782 3.013H8.372c-.835 0-1.512-.663-1.512-1.48S7.537.053 8.373.053h18.409c.835 0 1.513.663 1.513 1.48s-.678 1.48-1.513 1.48zM12.488 9.67H1.513C.677 9.67 0 9.009 0 8.19c0-.816.677-1.479 1.513-1.479h10.975c.836 0 1.514.663 1.514 1.48s-.678 1.48-1.514 1.48z"/>
        </g>
        <path fill="#000" d="M26.478 39.07c-10.95 0-19.859-8.764-19.859-19.535C6.62 8.763 15.528 0 26.478 0c10.95 0 19.858 8.763 19.858 19.535 0 10.771-8.909 19.535-19.858 19.535z"/>
        <ellipse cx="26.95" cy="19.07" fill="#FFF" rx="10.875" ry="10.698"/>
        <ellipse cx="26.478" cy="19.535" fill="#000" rx="3.783" ry="3.721"/>
        <path fill="#DBD9DC" d="M26.478 7.442c-6.779 0-12.294 5.425-12.294 12.093 0 3.976 1.962 7.51 4.983 9.716.027.023.055.046.085.067.033.024.068.047.102.068 2.011 1.41 4.47 2.242 7.124 2.242 2.652 0 5.112-.831 7.123-2.242.034-.021.069-.044.102-.068.03-.021.058-.044.085-.067 3.021-2.205 4.983-5.74 4.983-9.716 0-6.668-5.515-12.093-12.293-12.093zm8.245 7.9l-3.898 1.247c-.676-.964-1.675-1.693-2.842-2.034v-4.031c2.937.473 5.414 2.306 6.74 4.819zm-10.518 4.193c0-1.233 1.02-2.235 2.273-2.235 1.253 0 2.272 1.002 2.272 2.235 0 1.232-1.02 2.235-2.272 2.235-1.254 0-2.273-1.002-2.273-2.235zm.767-9.011v4.03c-1.167.342-2.165 1.07-2.842 2.035l-3.898-1.246c1.326-2.513 3.804-4.346 6.74-4.82zm-7.777 9.01c0-.467.036-.927.105-1.376l3.898 1.246c0 .044-.003.087-.003.13 0 1.188.407 2.282 1.09 3.158L19.88 25.95c-1.659-1.65-2.684-3.918-2.684-6.416zm9.283 9.133c-1.498 0-2.913-.351-4.166-.973l2.407-3.26c.55.192 1.142.298 1.759.298.616 0 1.207-.106 1.758-.298l2.407 3.26c-1.253.622-2.668.973-4.165.973zm6.598-2.716l-2.407-3.259c.684-.876 1.091-1.97 1.091-3.157 0-.044-.002-.087-.003-.13l3.898-1.247c.07.45.105.91.105 1.377 0 2.498-1.025 4.765-2.684 6.416z"/>
        <path fill="#000" d="M46.336 19.535C46.336 8.763 37.427 0 26.478 0v39.07c10.95 0 19.858-8.764 19.858-19.535z"/>
        <path fill="#FFF" d="M36.88 19.07c0-5.908-4.658-10.698-10.402-10.698v21.395c5.744 0 10.401-4.789 10.401-10.697z"/>
        <path fill="#000" d="M30.26 19.535c0-2.055-1.693-3.721-3.782-3.721v7.442c2.088 0 3.782-1.666 3.782-3.721z"/>
        <path fill="#DBD9DC" d="M28.75 19.535c0 1.233-1.02 2.235-2.272 2.235v2.961c.616 0 1.207-.105 1.758-.297l2.407 3.26c-1.253.622-2.668.973-4.165.973v2.96c2.652 0 5.112-.83 7.123-2.241.034-.021.069-.044.102-.068.03-.021.058-.044.085-.067 3.021-2.205 4.983-5.74 4.983-9.716 0-6.668-5.515-12.093-12.293-12.093V17.3c1.253 0 2.272 1.002 2.272 2.235zm6.905-1.377c.07.45.105.91.105 1.377 0 2.499-1.025 4.766-2.684 6.416l-2.407-3.259c.684-.876 1.091-1.97 1.091-3.157 0-.044-.002-.087-.003-.13l3.898-1.247zm-7.673-7.634c2.937.473 5.415 2.306 6.74 4.819l-3.897 1.246c-.677-.964-1.676-1.692-2.842-2.034v-4.031z"/>
        <g>
            <g>
                <path fill="#BEBEBE" d="M6.372 15.658c-1.284-.015-2.533-.465-3.573-1.289C1.348 13.322.456 11.566.41 9.665V6.943c0-1.203.891-2.178 1.99-2.178h2.986c.275 0 .498.244.498.545 0 .3-.223.544-.498.544H2.401c-.55 0-.995.488-.995 1.089v2.722c.048 1.548.784 2.973 1.97 3.817 1.265 1.038 2.909 1.347 4.417.83.17-.072.36-.036.5.092.138.128.202.329.166.523-.036.195-.166.353-.34.412-.561.213-1.152.32-1.747.319zM26.106 15.658c-.922.004-1.828-.267-2.623-.786-.233-.153-.31-.487-.173-.746s.437-.345.67-.192c1.449.888 3.216.837 4.62-.135 1.403-.807 2.314-2.382 2.392-4.135V6.942c0-.6-.438-1.088-.98-1.088h-2.937c-.27 0-.49-.244-.49-.544 0-.301.22-.545.49-.545h2.938c1.081 0 1.958.975 1.958 2.177v2.722c-.077 2.144-1.177 4.08-2.885 5.08-.905.588-1.932.903-2.98.914z" transform="translate(23.442 19.535) translate(.562)"/>
                <path fill="#A9A9A9" d="M26.599 5.038v5.99c.044 5.803-4.226 10.71-9.911 11.388-.553.065-1.112.065-1.666 0-5.684-.678-9.955-5.585-9.91-11.388v-5.99l2.148-.006c2.72-.06 5.267-1.363 6.93-3.545.406-.51 1.016-.805 1.661-.806.645-.001 1.257.293 1.664.8 1.664 2.185 4.213 3.49 6.935 3.551l2.149.006z" transform="translate(23.442 19.535) translate(.562)"/>
                <path fill="#BEBEBE" d="M26.6 5.106v1.02l-2.15-.004c-2.722-.057-5.27-1.28-6.935-3.33-.407-.475-1.019-.75-1.664-.75-.645.001-1.256.279-1.661.756-1.663 2.046-4.21 3.267-6.93 3.324l-2.15.005V5.106c.003-.564.483-1.02 1.075-1.021h.812c2.157-.025 4.187-.972 5.527-2.579C13.34.553 14.563 0 15.855 0c1.292 0 2.516.553 3.33 1.506 1.34 1.607 3.372 2.554 5.529 2.579h.81c.594.001 1.074.457 1.075 1.02z" transform="translate(23.442 19.535) translate(.562)"/>
                <g fill="#FFF">
                    <path d="M7.387 4.923c-2.37 0-4.725-.334-6.986-.99-.18-.052-.316-.188-.357-.358-.041-.17.018-.347.156-.465.138-.118.333-.16.513-.108 4.344 1.262 9 1.262 13.345 0 .179-.051.374-.01.512.108s.197.295.156.465c-.041.17-.177.306-.356.358-2.26.655-4.615.99-6.983.99zM7.387 1.516c-2.314.001-4.624-.162-6.91-.49C.194.98.001.734.045.47.09.207.355.025.64.063 5.111.7 9.662.7 14.134.063c.187-.03.376.037.495.173.12.136.15.322.081.485-.068.163-.227.28-.414.305-2.286.328-4.596.491-6.91.49zM7.387 8.83C4.943 8.824 2.532 8.308.332 7.32.15 7.252.024 7.097.005 6.916c-.02-.18.071-.357.235-.456.164-.1.374-.106.544-.017 4.167 1.888 9.039 1.888 13.205 0 .17-.089.38-.082.544.017.164.1.255.275.236.456-.02.18-.146.336-.327.404-2.2.988-4.611 1.504-7.055 1.51z" transform="translate(23.442 19.535) translate(.562) translate(9.14 9.53)"/>
                </g>
            </g>
        </g>
    </g>
</svg>
