<svg xmlns="http://www.w3.org/2000/svg" width="49" height="49" viewBox="0 0 49 49">
    <g fill="none">
        <path fill="#DBD9DC" d="M2 11L47 11 47 49 2 49z"/>
        <path fill="#30516C" d="M0 0L49 0 49 11 0 11z"/>
        <circle cx="24.5" cy="29.5" r="13.5" fill="#FFF"/>
        <path fill="#F5822D" d="M18 37h7.215c1.534 0 3.006-.6 4.09-1.668C30.392 34.264 31 32.816 31 31.306c0-3.145-2.59-5.694-5.785-5.695h-3.108V23L18 27.043l4.107 4.042v-2.612h3.108c1.59 0 2.877 1.269 2.877 2.833 0 1.564-1.288 2.832-2.877 2.832H18V37z"/>
        <g fill="#FFF">
            <path d="M1.966 1.219H.816C.414 1.219.088.954.088.626.088.3.414.034.816.034h1.15c.403 0 .728.265.728.592 0 .328-.325.593-.728.593zM9.284 1.219H4.836c-.402 0-.728-.265-.728-.593 0-.327.326-.592.728-.592h4.448c.402 0 .728.265.728.592 0 .328-.326.593-.728.593z" transform="translate(36 3)"/>
        </g>
    </g>
</svg>
