<?xml version="1.0" encoding="UTF-8"?>
<svg width="91px" height="91px" viewBox="0 0 91 91" version="1.1" xmlns="http://www.w3.org/2000/svg" xmlns:xlink="http://www.w3.org/1999/xlink">
    <title>Group 50</title>
    <g id="4Wheeler" stroke="none" stroke-width="1" fill="none" fill-rule="evenodd">
        <g id="01_4-wheeler_landing_desktop" transform="translate(-1212.000000, -948.000000)">
            <g id="Group-50" transform="translate(1212.000000, 948.000000)">
                <rect id="Rectangle" x="0" y="0" width="91" height="91"></rect>
                <g id="Group-49" transform="translate(17.000000, 14.000000)" fill-rule="nonzero">
                    <g id="document">
                        <path d="M51.7421851,3.85487082 L51.7421851,54.8992275 C51.7421851,57.0261173 50.0274819,58.7540984 47.9172112,58.7540984 L9.40322459,58.7540984 C7.2928302,58.7540984 5.57825069,57.0259927 5.57825069,54.8992275 L5.57825069,3.85487082 C5.57825069,1.7281057 7.2928302,0 9.40322459,0 L48.0490258,0 C50.0274819,0 51.7421851,1.7281057 51.7421851,3.85487082 Z" id="Path" fill="#ADB3BA"></path>
                        <path d="M47.5454638,9.10077246 L47.5454638,60.1451292 C47.5454638,62.2718943 45.7969093,64 43.6446968,64 L4.23311609,64 C2.08090353,64 0.332349048,62.2718943 0.332349048,60.1451292 L0.332349048,9.10077246 C0.332349048,6.97388272 2.08102963,5.24590164 4.23311609,5.24590164 L43.6446968,5.24590164 C45.7969093,5.24590164 47.5454638,6.97388272 47.5454638,9.10077246 Z" id="Path" fill="#E8EAE9"></path>
                        <g id="Group" transform="translate(5.578251, 11.540984)" fill="#ADB3BA">
                            <rect id="Rectangle" x="0.695497892" y="0.109655154" width="16.0913874" height="3.7774746"></rect>
                            <rect id="Rectangle" x="0.695497892" y="10.7673267" width="16.0913874" height="3.7774746"></rect>
                            <rect id="Rectangle" x="1.11508759" y="21.2901742" width="34.5570436" height="3.7774746"></rect>
                            <rect id="Rectangle" x="1.11508759" y="31.8130217" width="34.5570436" height="3.7774746"></rect>
                            <rect id="Rectangle" x="1.11508759" y="42.3358692" width="17.27846" height="3.7774746"></rect>
                        </g>
                    </g>
                    <g id="shield" transform="translate(26.229508, 29.377049)" fill="#F5822D">
                        <path d="M30.7174401,4.3580041 L16.2287821,0.0303275459 C16.0931544,-0.010109182 15.9485619,-0.010109182 15.8129343,0.0303275459 L1.32427623,4.3580041 C1.01743314,4.44922341 0.807030326,4.73018429 0.807030326,5.04901233 L0.807030326,20.9171823 C0.807030326,27.2947575 10.5752762,32.9683415 15.8057352,34.5897325 C15.9472036,34.6340236 16.0989273,34.6340236 16.2403957,34.5897325 C21.4650139,32.9682738 31.2332598,27.2946899 31.2332598,20.9171823 L31.2332598,5.04894471 C31.2332598,4.73052239 31.023672,4.44969675 30.7174401,4.3580041 Z" id="Path"></path>
                    </g>
                    <polygon id="Path" fill="#FFFFFF" points="40.1842282 53.3250065 33.9805955 47.0673236 35.8607554 45.1708876 40.1842282 49.5317875 50.9856815 38.6364819 52.8658414 40.5329179"></polygon>
                </g>
            </g>
        </g>
    </g>
</svg>