<svg xmlns="http://www.w3.org/2000/svg" xmlns:xlink="http://www.w3.org/1999/xlink" width="80" height="80" viewBox="0 0 80 80">
    <defs>
        <circle id="tlxewselta" cx="40" cy="40" r="40"/>
    </defs>
    <g fill="none" fill-rule="evenodd">
        <g>
            <g transform="translate(-252 -823) translate(252 823)">
                <mask id="og6oura82b" fill="#fff">
                    <use xlink:href="#tlxewselta"/>
                </mask>
                <use fill="#F0F0F0" xlink:href="#tlxewselta"/>
                <g mask="url(#og6oura82b)">
                    <g>
                        <g>
                            <g>
                                <g fill="#B28B67">
                                    <path d="M4.768 1.142c.724 1.35.638 4.775-.298 5.016-.373.096-1.169-.14-1.978-.628L3 9.125H0l1.032-4.814c-.575-.676-.965-1.505-.9-2.433C.32-.797 4.044-.208 4.768 1.142z" transform="translate(7.915 18) translate(.53) translate(15.556) translate(2.75 3.875)"/>
                                </g>
                                <path fill="#191847" d="M6.333 3.546c-.41-.125-1.005-.167-1.255-.138.142-.342.199-.722.152-1.092-.044-.36-.205-.666-.354-.987-.068-.147-.146-.295-.262-.408C4.497.806 4.347.73 4.191.694c-.16-.037-.328-.034-.488 0-.071.014-.135.047-.205.065-.07.018-.105-.026-.157-.071-.125-.108-.308-.162-.465-.18-.177-.022-.36.005-.53.063-.164.056-.322.148-.44.282-.053.06-.101.128-.132.203-.013.03-.015.049-.046.06-.028.01-.062.01-.091.02-.283.097-.525.315-.657.596-.077.164-.114.453-.104.776.01.324.302 1.168.576 1.476.244.275.602.456.948.535-.23.263-.383.59-.496.924-.122.363-.198.74-.226 1.123-.027.364-.03.75.056 1.106.08.334.25.607.536.78.13.08.271.14.413.195.14.053.279.106.425.136.276.057.595.047.808-.173.076-.079.16-.179.217-.276.02-.034.032-.057.007-.091-.029-.041-.076-.072-.114-.104-.214-.182-.347-.425-.38-.713-.035-.293.044-.671.329-.799.351-.158.738.023 1.05.192.133-.468.406-.89.833-1.105.473-.238 1.015-.266 1.5-.47.127-.053.256-.113.35-.221.039-.046.084-.104.1-.164.02-.079-.03-.145-.07-.206-.207-.325-.995-.982-1.405-1.107z" transform="translate(7.915 18) translate(.53) translate(15.556)"/>
                            </g>
                            <g>
                                <path fill="#B28B67" d="M14.973 0L21.19 15.593 25.36 28.776 27.007 28.776 20.632 0z" transform="translate(7.915 18) translate(.53) translate(.556 23)"/>
                                <path fill="#B28B67" d="M13.721 0c-.066 5.48-1.031 12.857-1.185 13.199-.103.227-3.653 3.123-10.65 8.687l1.134 1.203c8.256-4.77 12.575-7.474 12.957-8.11.573-.955 2.438-9.737 3.936-14.979h-6.192z" transform="translate(7.915 18) translate(.53) translate(.556 23)"/>
                                <g fill="#E4E4E4">
                                    <path d="M0 1.645c0 .226.038.557.114.991h7.144c.186-.608.079-.937-.321-.985-.4-.049-.732-.092-.997-.131L3.127.277c-.339-.15-.734.003-.884.342l-.006.013c-.37.172-.67.257-.902.257-.084 0-.182-.015-.294-.044C.6.727.145.99.028 1.432c-.019.07-.028.141-.028.213z" transform="translate(7.915 18) translate(.53) translate(.556 23) rotate(50 -21.178 12.76)"/>
                                </g>
                                <g fill="#E4E4E4">
                                    <path d="M0 1.645c0 .226.038.557.114.991h7.144c.186-.608.079-.937-.321-.985-.4-.049-.732-.092-.997-.131L3.127.277c-.339-.15-.734.003-.884.342l-.006.013c-.37.172-.67.257-.902.257-.084 0-.182-.015-.294-.044C.6.727.145.99.028 1.432c-.019.07-.028.141-.028.213z" transform="translate(7.915 18) translate(.53) translate(.556 23) translate(24.473 27.364)"/>
                                </g>
                                <path fill="#69A1AC" d="M19.153 27.418L26.982 26.576 21.18 0 14.168 0z" transform="translate(7.915 18) translate(.53) translate(.556 23)"/>
                                <path fill="#89C5CC" d="M3.505 19.946l5.135 6.023c5.409-5.854 8.562-9.674 9.46-11.459.898-1.785 1.705-6.622 2.421-14.51h-7.894c-.391 6.94-.655 10.57-.791 10.893-.136.323-2.913 3.34-8.331 9.053z" transform="translate(7.915 18) translate(.53) translate(.556 23)"/>
                            </g>
                        </g>
                        <g>
                            <path fill="#B28B67" d="M4.471 10.446l2.286.01C5.537 14.5 4.8 16.903 4.552 17.664l-.057.17-.024.066c-.253.644.283 1.625.512 2.152-.746.343-.667-.927-1.608-.477-.859.41-1.512 1.154-2.504.525-.122-.077-.256-.368.067-.596.805-.566 1.964-1.558 2.121-1.884.214-.445.685-2.837 1.412-7.175zm13.753-.438l3.098 3.104c.901.395 1.64.83 2.216 1.308.13.16.27.467-.339.33-.61-.138-1.256-.254-1.37-.05-.115.203.222.514.01.78-.14.178-.615-.386-1.423-1.693l-3.221-1.95 1.029-1.829z" transform="translate(7.915 18) translate(9.085 11)"/>
                            <path fill="#191847" d="M10.329 1.026l.928-.249c1.986 4.019 5.149 7.552 9.488 10.598l-2.721 4.077c-4.465-4.487-7.393-9.265-7.695-14.426z" transform="translate(7.915 18) translate(9.085 11) rotate(5 15.537 8.115)"/>
                            <path fill="#DDE3E9" d="M6.844 12.802h8.422C13.314 7.932 12.339 3.793 12.339.39L9.799 0C7.801 3.297 7.237 7.356 6.843 12.802z" transform="translate(7.915 18) translate(9.085 11)"/>
                            <path fill="#2F3676" d="M9.911 0c.199.007.501.02.907.038l.614 1.801c.065 2.196.444 6.622 1.138 13.277H7.049c.014.46.038.924.072 1.392H3.016C3.63 9.395 5.872 3.893 9.743 0l.002.002V0z" transform="translate(7.915 18) translate(9.085 11)"/>
                            <path fill="#000" fill-opacity=".1" d="M8.594 15.16H7.05c-.067-2.06.054-4.035.363-5.924.158 2.866.551 4.84 1.18 5.924z" transform="translate(7.915 18) translate(9.085 11)"/>
                            <path fill="#FFF" fill-opacity=".2" d="M8.278 11.679L11 10.38 11 11.679z" transform="translate(7.915 18) translate(9.085 11)"/>
                        </g>
                    </g>
                </g>
                <g mask="url(#og6oura82b)" opacity=".9">
                    <g fill-rule="nonzero">
                        <path fill="#564544" d="M22.764 8L14.046 9.4 14.327 11 23.046 9.6z" transform="translate(18.954 29)"/>
                        <path fill="#B1D5F1" d="M37.446 8L43.046 1.182 40.346 0 35.046 6.364z" transform="translate(18.954 29)"/>
                        <path fill="#7A7A93" d="M39.046 8.214L21.046 11 21.327 7.357 38.577 5z" transform="translate(18.954 29)"/>
                        <g fill="#564544">
                            <path d="M43.071 34.397L38.755 0 29.847 0.996 24.98 37.474 27.066 37.474 31.408 2.897 36.918 1.991 40.684 34.397z" transform="translate(18.954 29) translate(1.046 5)"/>
                            <path d="M34.255 35.302s3.95-4.888 6.612-4.888c2.48 0 3.95 3.168 3.95 3.168l-10.562 1.72zM3.398 42L39.949 42 45 36.297 0 38.651z" transform="translate(18.954 29) translate(1.046 5)"/>
                        </g>
                        <path fill="#7A7A93" d="M0.046 46L47.046 42.966 46.587 38 21.801 41.678 0.229 43.517z" transform="translate(18.954 29)"/>
                    </g>
                </g>
            </g>
        </g>
    </g>
</svg>
