<?xml version="1.0" encoding="UTF-8"?>
<svg width="240px" height="240px" viewBox="0 0 240 240" version="1.1" xmlns="http://www.w3.org/2000/svg" xmlns:xlink="http://www.w3.org/1999/xlink">
    <title>Group 15</title>
    <defs>
        <circle id="path-1" cx="120" cy="120" r="120"></circle>
    </defs>
    <g id="Desktop" stroke="none" stroke-width="1" fill="none" fill-rule="evenodd">
        <g id="07_-Investors-contact" transform="translate(-253.000000, -1382.000000)">
            <g id="Group-10" transform="translate(253.000000, 1382.000000)">
                <mask id="mask-2" fill="white">
                    <use xlink:href="#path-1"></use>
                </mask>
                <use id="Oval" fill="#F0F0F0" xlink:href="#path-1"></use>
                <g id="Group-37" mask="url(#mask-2)">
                    <g transform="translate(-63.439752, 8.597516)">
                        <g id="A-Human/Standing" transform="translate(0.439752, 0.402484)">
                            <g id="Head/Front" transform="translate(69.603596, 61.861502)">
                                <g id="Head" transform="translate(45.836515, 26.269953)" fill="#915B3C">
                                    <path d="M32.3769967,7.74025771 C37.2957731,16.893321 36.7112946,40.1108251 30.3542143,41.7467328 C27.8190599,42.3991202 22.4184727,40.8010683 16.9218916,37.4935723 L20.3717842,61.8615023 L0,61.8615023 L7.01270329,29.2269441 C3.10168063,24.6435828 0.454679302,19.0266919 0.897017477,12.7328377 C2.17157297,-5.40230617 27.4582203,-1.41280558 32.3769967,7.74025771 Z" id="Head-[skin]"></path>
                                </g>
                                <path d="M51.2843866,59.5798468 C48.7275271,48.2235484 41.4434519,40.4823403 42.5559049,35.4065605 C43.2975403,32.0227074 45.2742208,29.9184079 48.4859465,29.0936621 C50.1470206,22.3849667 55.5043255,19.5314971 64.5578611,20.5332532 C78.1381644,22.0358874 86.4268257,27.6662932 82.8473626,40.055643 C79.5569942,40.055643 75.5848163,38.8676554 70.09212,40.9030608 C68.3493096,41.5488868 67.1028005,43.5516497 66.3525927,46.9113496 L63.8704649,46.9113496 C61.4614553,42.9243043 59.0861565,41.459174 56.7445683,42.5159586 C54.4029801,43.5727432 53.8706991,46.1396772 55.1477251,50.2167607 L53.9250262,59.5798468 L51.2843866,59.5798468 Z" id="Hair" fill="#191847"></path>
                            </g>
                            <g id="Bottom/Skinny-Jeans-1" transform="translate(0.000000, 220.328638)">
                                <g id="Seat" transform="translate(8.488243, 35.591549)" fill="#C5CFD6">
                                    <path d="M145.276625,0 C154.113181,1.0520914e-14 161.276625,7.163444 161.276625,16 L161.276625,89.0798122 C161.276625,97.9163682 154.113181,105.079812 145.276625,105.079812 L52.4994467,105.079812 C43.6628908,105.079812 36.4994467,97.9163682 36.4994467,89.0798122 L36.4994467,16 C36.4994467,7.163444 43.6628908,-5.48217835e-15 52.4994467,0 L145.276625,0 Z M133.509544,23.7276995 L64.2665284,23.7276995 C62.0573894,23.7276995 60.2665284,25.5185605 60.2665284,27.7276995 L60.2665284,27.7276995 L60.2665284,77.3521127 C60.2665284,79.5612517 62.0573894,81.3521127 64.2665284,81.3521127 L64.2665284,81.3521127 L133.509544,81.3521127 C135.718683,81.3521127 137.509544,79.5612517 137.509544,77.3521127 L137.509544,77.3521127 L137.509544,27.7276995 C137.509544,25.5185605 135.718683,23.7276995 133.509544,23.7276995 L133.509544,23.7276995 Z"></path>
                                </g>
                                <path d="M253.933411,136.434272 C237.198102,116.031988 225.874591,100.906648 219.96288,91.0582497 C209.840596,74.1954014 201.555989,59.1905809 198.941574,53.4588069 C192.707166,39.7906569 213.29419,33.3904816 217.953501,39.7657601 C225.005554,49.4149973 240.066235,79.7784301 263.135546,130.856059 L253.933411,136.434272 Z" id="Legs-[skin]" fill="#B28B67"></path>
                                <path d="M219.639722,130.502347 L188.494345,52.2321044 C181.832969,37.9639609 214.001992,28.5851634 218.897601,35.2252714 C230.012147,50.3003723 256.428854,109.769459 259.740249,114.260835 L219.639722,130.502347 Z" id="LegLower" fill="#2F3676"></path>
                                <path d="M160.597805,131.536119 C159.752576,120.851807 158.196148,83.8638307 159.797328,66.7415843 C160.257443,61.8213373 160.741859,57.0642158 161.229765,52.6015866 C162.679995,39.3370737 187.281185,39.7363864 185.317293,52.3388137 C180.426426,83.7238386 171.827074,127.709549 171.2102,131.51006 C170.345626,136.836638 161.129005,138.250877 160.597805,131.536119 Z" id="Legs-[skin]" fill="#915B3C" transform="translate(172.266029, 89.412330) rotate(39.000000) translate(-172.266029, -89.412330) "></path>
                                <g id="Group" transform="translate(134.963071, 101.690141)" fill="#E4E4E4">
                                    <g id="Left-[shoe]" transform="translate(25.889142, 16.948357) rotate(30.000000) translate(-25.889142, -16.948357) ">
                                        <path d="M2.15577538,21.8425003 C1.28447469,24.2152623 0.848824343,26.0034016 0.848824343,27.2069182 C0.848824343,28.7350551 1.10382323,30.9649869 1.61382101,33.8967136 C3.38950938,33.8967136 19.3479198,33.8967136 49.4890522,33.8967136 C50.7331597,29.7905566 50.0149887,27.5737746 47.3345391,27.2463675 C44.6540895,26.9189604 42.4273945,26.6233381 40.6544541,26.3595004 L18.5436813,16.5187409 C18.0391136,16.2941748 17.4480339,16.521161 17.2234679,17.0257286 C17.219789,17.0339946 17.2162224,17.0423101 17.2127692,17.0506729 L15.8417896,20.370819 L15.8417896,20.370819 C13.3603943,21.5266606 11.3440031,22.1045814 9.79261579,22.1045814 C8.58525214,22.1045814 6.93725257,21.6382826 4.84861706,20.7056849 L4.84861368,20.7056925 C3.84002437,20.2553468 2.65732385,20.7078926 2.20697814,21.7164819 C2.18848662,21.7578953 2.17140916,21.7999258 2.15577538,21.8425003 Z" id="shoe"></path>
                                    </g>
                                </g>
                                <g id="Right-[shoe]" transform="translate(244.461411, 111.859155)" fill="#E4E4E4">
                                    <path d="M2.15577538,21.8425003 C1.28447469,24.2152623 0.848824343,26.0034016 0.848824343,27.2069182 C0.848824343,28.7350551 1.10382323,30.9649869 1.61382101,33.8967136 C3.38950938,33.8967136 19.3479198,33.8967136 49.4890522,33.8967136 C50.7331597,29.7905566 50.0149887,27.5737746 47.3345391,27.2463675 C44.6540895,26.9189604 42.4273945,26.6233381 40.6544541,26.3595004 L18.5436813,16.5187409 C18.0391136,16.2941748 17.4480339,16.521161 17.2234679,17.0257286 C17.219789,17.0339946 17.2162224,17.0423101 17.2127692,17.0506729 L15.8417896,20.370819 L15.8417896,20.370819 C13.3603943,21.5266606 11.3440031,22.1045814 9.79261579,22.1045814 C8.58525214,22.1045814 6.93725257,21.6382826 4.84861706,20.7056849 L4.84861368,20.7056925 C3.84002437,20.2553468 2.65732385,20.7078926 2.20697814,21.7164819 C2.18848662,21.7578953 2.17140916,21.7999258 2.15577538,21.8425003 Z" id="shoe"></path>
                                </g>
                                <path d="M177.287227,56.1414762 C151.400785,51.9312357 134.061695,49.0522894 125.269957,47.5046375 C100.210038,43.0932196 92.9023528,29.6302449 97.2230467,0.256113957 L143.395521,0.256113957 C149.505706,2.01769647 175.036429,12.9125128 219.98769,32.940563 C228.075308,36.9487172 226.569128,48.7667767 225.090855,52.6603045 C225.030565,52.8190974 211.39639,76.1430478 184.18833,122.632156 L146.417299,98.6101925 L177.358161,58.9721359 C178.17528,57.3290773 178.151635,56.3855241 177.287227,56.1414762 Z" id="Leg-and-Butt" fill="#5C63AB"></path>
                            </g>
                            <g id="Body/Long-Sleeve-1" transform="translate(18.674136, 131.349765)">
                                <path d="M57.9814322,78.8267155 L75.719647,78.896356 C64.7671178,114.194417 58.8543795,132.923347 57.9814322,135.083147 C56.0173006,139.942695 60.1736671,147.343702 61.9510944,151.320948 C59.3683002,152.474757 58.0606109,151.207363 56.7558137,149.75078 L56.4854796,149.44745 C54.9490908,147.721584 53.2960756,145.947253 49.4762045,147.721448 C48.7144261,148.075267 47.9734814,148.461918 47.2470628,148.862193 L46.7048739,149.164654 C46.1652114,149.46907 45.6328329,149.778448 45.1050771,150.084687 L44.5787637,150.389578 C40.0290271,153.017699 35.7598864,155.207091 30.0390746,151.683024 C29.0922704,151.099784 28.0547274,148.903784 30.5615626,147.187725 C36.8070033,142.912398 45.8070616,135.429805 47.0231113,132.966851 C48.6814122,129.608174 52.3341858,111.561462 57.9814322,78.8267155 L57.9814322,78.8267155 Z M161.939731,78.1416578 L189.01576,97.9912332 C196.359336,99.9695117 202.494657,102.430824 207.421722,105.375171 C208.58558,106.433939 209.992213,108.57812 205.165411,108.207552 L204.548135,108.161443 C204.342134,108.146514 204.136011,108.132068 203.930129,108.118229 L203.313563,108.078657 C199.110232,107.822404 195.159822,107.873745 194.578839,109.307541 C193.912834,110.95116 196.833753,112.916749 195.487467,115.134422 C194.923309,116.063733 193.038428,114.944201 189.832823,111.775826 L189.387509,111.331075 C187.573507,109.501275 185.366563,107.061902 182.766676,104.012956 L155.954305,92.9129658 L161.939731,78.1416578 Z" id="Arms-[skin]" fill="#915B3C"></path>
                                <path d="M104.184909,8.12424064 L111.387325,6.23244679 C140.563804,27.2560827 155.639366,71.2299488 190.976636,92.1317897 L183.839223,102.736842 C125.525609,100.653016 106.429994,47.0773173 104.184909,8.12424064 Z" id="Coat-Back" fill="#E87613" transform="translate(147.580773, 54.484644) rotate(5.000000) translate(-147.580773, -54.484644) "></path>
                                <path d="M76.3941909,96.6056338 C105.824421,96.6056338 127.472682,96.6056338 141.338973,96.6056338 C144.306618,96.6056338 143.747422,92.327561 143.318431,90.168822 C138.367355,65.2543653 119.040233,38.3977866 119.040233,2.93268459 L100.307101,0 C84.8123935,24.8788377 79.4540552,55.5097242 76.3941909,96.6056338 Z" id="Shirt" fill="#DDE3E9"></path>
                                <path d="M98.8965508,-5.77315973e-15 C99.5308138,-5.32907052e-15 100.111715,0.039704932 100.639255,0.119114796 L106.503338,0.453148168 C123.329072,57.3830638 127.969509,95.3658172 120.424649,114.401408 L120.424649,114.401408 L69.3079097,114.401729 C66.2793552,121.451995 63.3812824,127.383813 60.6136912,132.197183 L60.6136912,132.197183 L46.6853389,132.197183 C45.3744724,89.8827313 55.451597,53.968298 76.9167128,24.4538831 C74.1962186,23.6747138 72.0411038,21.8535174 70.4524205,18.9916424 C63.6054273,6.65737877 66.078197,-0.133546938 73.3954612,-2.36576257 C80.7127254,-4.5979782 87.2381928,-1.73194792e-14 98.8965508,-5.77315973e-15 Z" id="Coat-Front" fill="#FF9B21"></path>
                                <path d="M88.2777317,114.401408 L69.3079097,114.401729 C72.8406755,106.177693 76.5509862,96.4317971 80.4388419,85.1640403 C82.0464872,98.5914309 84.6594339,108.337797 88.2777317,114.401408 Z" id="Shade" fill-opacity="0.1" fill="#000000"></path>
                            </g>
                        </g>
                        <g id="customer-service-agent" transform="translate(60.421118, 102.511801)">
                            <g id="Group-11" transform="translate(-0.001914, 46.400000)" fill-rule="nonzero">
                                <g id="Group-14">
                                    <path d="M230.557611,2.36737801 L218.971753,64.367378 C218.79488,65.3138836 217.968674,66 217.005784,66 L122.408358,66 C121.303788,66 120.408358,65.1045695 120.408358,64 C120.408358,63.8767537 120.41975,63.7537712 120.442389,63.632622 L132.028247,1.63262199 C132.20512,0.686116367 133.031326,1.0650584e-15 133.994216,0 L228.591642,0 C229.696212,-5.38680921e-15 230.591642,0.8954305 230.591642,2 C230.591642,2.12324631 230.58025,2.24622881 230.557611,2.36737801 Z" id="Path" fill="#ACABB1"></path>
                                    <path d="M93,66 L93,90 L8.08695652,90 C3.62618376,89.9868208 0.0133224567,86.4128075 0,82 L0,66 L93,66 Z" id="Path" fill="#ACABB1"></path>
                                    <circle id="Oval" fill="#FFFFFF" cx="175.5" cy="34.5" r="7.5"></circle>
                                    <path d="M93,66 L217,66 C218.104569,66 219,66.8954305 219,68 L219,88 C219,89.1045695 218.104569,90 217,90 L93,90 L93,90 L93,66 Z" id="Path" fill="#ACABB1"></path>
                                </g>
                            </g>
                            <path d="M86.8510559,22.0732919 L73.8205963,22.0732919 L73.8205963,22.0732919 C70.4207314,22.0732919 67.6645963,19.521315 67.6645963,16.3732919 L67.6645963,10.6732919 L71.7685963,11.8062112 L71.7685963,17.5062112 C71.7685963,18.5555522 72.687308,19.4062112 73.8205963,19.4062112 L86.8510559,19.4062112 C87.5875499,19.4062112 88.1845963,20.0032575 88.1845963,20.7397516 C88.1845963,21.4762456 87.5875499,22.0732919 86.8510559,22.0732919 Z" id="Path" fill="#ACABB1" fill-rule="nonzero"></path>
                            <path d="M76.0475599,17.2173913 L66.677551,17.2173913 C64.0900945,17.2173913 61.9925466,15.1198434 61.9925466,12.5323869 L61.9925466,5.50488021 C61.9925466,2.91742371 64.0900945,0.819875776 66.677551,0.819875776 L76.0475599,0.819875776 L76.0475599,17.2173913 Z" id="Path" fill="#ACABB1" fill-rule="nonzero"></path>
                        </g>
                    </g>
                </g>
            </g>
        </g>
    </g>
</svg>