<?xml version="1.0" encoding="UTF-8"?>
<svg width="925px" height="228px" viewBox="0 0 925 228" version="1.1" xmlns="http://www.w3.org/2000/svg" xmlns:xlink="http://www.w3.org/1999/xlink">
    <title>Group 3</title>
    <g id="Page-1" stroke="none" stroke-width="1" fill="none" fill-rule="evenodd">
        <g id="Group-3">
            <path d="M387.067704,61.6611681 L387.067704,39.266357 C387.067704,36.3491881 385.646052,33.980443 383.890489,33.980443 L369.582904,33.6854881 L351.627593,33.6854881 C350.165467,33.6854881 348.976541,35.660117 348.976541,38.092103 L348.976541,58.5871622 L323.700481,58.5871622 L323.700481,93.3032933 L320.078052,93.3032933 L320.078052,60.6361622 L310.789252,60.6361622 L310.789252,37.9130052 L282.239852,37.9130052 L282.239852,57.8262496 L278.70343,57.8262496 L278.70343,106.133069 L260.388911,106.133069 L260.388911,72.187463 L246.572074,72.187463 L246.572074,62.1777185 L238.214178,62.1777185 L238.214178,51.2982874 L224.397341,51.2982874 L224.397341,89.15976 L202,89.15976 L202,227.988364 L404.431081,228 L404.431081,61.6611681 L387.067704,61.6611681" id="Fill-2" fill="#8FADC9" opacity="0.698846726"></path>
            <path d="M185.067704,61.6611681 L185.067704,39.266357 C185.067704,36.3491881 183.646052,33.980443 181.890489,33.980443 L167.582904,33.6854881 L149.627593,33.6854881 C148.165467,33.6854881 146.976541,35.660117 146.976541,38.092103 L146.976541,58.5871622 L121.700481,58.5871622 L121.700481,93.3032933 L118.078052,93.3032933 L118.078052,60.6361622 L108.789252,60.6361622 L108.789252,37.9130052 L80.2398519,37.9130052 L80.2398519,57.8262496 L76.7034296,57.8262496 L76.7034296,106.133069 L58.3889111,106.133069 L58.3889111,72.187463 L44.5720741,72.187463 L44.5720741,62.1777185 L36.2141778,62.1777185 L36.2141778,51.2982874 L22.3973407,51.2982874 L22.3973407,89.15976 L1.27897692e-13,89.15976 L1.27897692e-13,227.988364 L202.431081,228 L202.431081,61.6611681 L185.067704,61.6611681" id="Fill-2-Copy-2" fill="#8FADC9" opacity="0.698846726"></path>
            <path d="M668.585724,32.8254178 L668.585724,6.54834317 C668.585724,3.12546703 666.914276,0.346086852 664.850245,0.346086852 L648.028691,0 L626.918474,0 C625.19944,0 623.80161,2.31694165 623.80161,5.1705257 L623.80161,29.2185161 L594.084325,29.2185161 L594.084325,69.9528792 L589.825402,69.9528792 L589.825402,31.6227215 L578.904479,31.6227215 L578.904479,4.96038034 L545.338698,4.96038034 L545.338698,28.3256951 L541.180896,28.3256951 L541.180896,85.0067669 L519.648355,85.0067669 L519.648355,45.1765037 L503.403779,45.1765037 L503.403779,33.431515 L493.577327,33.431515 L493.577327,20.6660748 L477.33275,20.6660748 L477.33275,65.0910416 L451,65.0910416 L451,227.986346 L689,228 L689,32.8254178 L668.585724,32.8254178" id="Fill-2-Copy" fill="#9EBFDE"></path>
            <path d="M904.585724,32.8254178 L904.585724,6.54834317 C904.585724,3.12546703 902.914276,0.346086852 900.850245,0.346086852 L884.028691,0 L862.918474,0 C861.19944,0 859.80161,2.31694165 859.80161,5.1705257 L859.80161,29.2185161 L830.084325,29.2185161 L830.084325,69.9528792 L825.825402,69.9528792 L825.825402,31.6227215 L814.904479,31.6227215 L814.904479,4.96038034 L781.338698,4.96038034 L781.338698,28.3256951 L777.180896,28.3256951 L777.180896,85.0067669 L755.648355,85.0067669 L755.648355,45.1765037 L739.403779,45.1765037 L739.403779,33.431515 L729.577327,33.431515 L729.577327,20.6660748 L713.33275,20.6660748 L713.33275,65.0910416 L687,65.0910416 L687,227.986346 L925,228 L925,32.8254178 L904.585724,32.8254178" id="Fill-2-Copy-3" fill="#9EBFDE"></path>
        </g>
    </g>
</svg>