<?xml version="1.0" encoding="UTF-8"?>
<svg width="80px" height="80px" viewBox="0 0 80 80" version="1.1" xmlns="http://www.w3.org/2000/svg" xmlns:xlink="http://www.w3.org/1999/xlink">
    <title>intercity</title>
    <defs>
        <rect id="path-1" x="0" y="0" width="80" height="80"></rect>
        <rect id="path-3" x="0" y="0" width="169.565217" height="65"></rect>
    </defs>
    <g id="Page-1" stroke="none" stroke-width="1" fill="none" fill-rule="evenodd">
        <g id="Artboard" transform="translate(-726.000000, -438.000000)">
            <g id="intercity" transform="translate(726.000000, 438.000000)">
                <mask id="mask-2" fill="white">
                    <use xlink:href="#path-1"></use>
                </mask>
                <g id="Mask"></g>
                <g id="Group-4" mask="url(#mask-2)">
                    <g transform="translate(-13.000000, 15.000000)">
                        <mask id="mask-4" fill="white">
                            <use xlink:href="#path-3"></use>
                        </mask>
                        <g id="Mask" stroke="none" fill="none"></g>
                        <g id="Group-4" stroke="none" stroke-width="1" fill="none" fill-rule="evenodd" mask="url(#mask-4)">
                            <g transform="translate(-8.949275, 16.956522)">
                                <path d="M38.3246077,12.829279 L38.3246077,8.21509014 C38.3246077,7.61404161 38.030206,7.12598938 37.6666565,7.12598938 L34.7037809,7.06521739 L30.9855187,7.06521739 C30.6827354,7.06521739 30.4365276,7.47206657 30.4365276,7.97314882 L30.4365276,12.195916 L25.2022536,12.195916 L25.2022536,19.3487687 L24.4521055,19.3487687 L24.4521055,12.6180885 L22.5285413,12.6180885 L22.5285413,7.93624782 L16.61641,7.93624782 L16.61641,12.0391389 L15.8840726,12.0391389 L15.8840726,21.9921938 L12.0914242,21.9921938 L12.0914242,14.9980989 L9.23017479,14.9980989 L9.23017479,12.9357081 L7.49938605,12.9357081 L7.49938605,10.6941286 L4.63813664,10.6941286 L4.63813664,18.4950421 L0,18.4950421 L0,47.0990518 L41.9202899,47.1014493 L41.9202899,12.829279 L38.3246077,12.829279" id="Fill-2" fill="#8FADC9" opacity="0.698846726"></path>
                                <path d="M127.088159,6.78124891 L127.088159,1.35279146 C127.088159,0.645675556 126.744139,0.0714964576 126.319317,0.0714964576 L122.857081,-1.42108547e-13 L118.512145,-1.42108547e-13 C118.158331,-1.42108547e-13 117.870627,0.478646096 117.870627,1.06815462 L117.870627,6.03611602 L111.754172,6.03611602 L111.754172,14.4512368 L110.877595,14.4512368 L110.877595,6.53278953 L108.629834,6.53278953 L108.629834,1.02474168 L101.721276,1.02474168 L101.721276,5.85167233 L100.865511,5.85167233 L100.865511,17.5611488 L96.4336525,17.5611488 L96.4336525,9.33280174 L93.0901701,9.33280174 L93.0901701,6.90645969 L91.0676753,6.90645969 L91.0676753,4.26930734 L87.7241929,4.26930734 L87.7241929,13.4468526 L82.3043478,13.4468526 L82.3043478,47.0986287 L131.289855,47.1014493 L131.289855,6.78124891 L127.088159,6.78124891" id="Fill-2-Copy" fill="#9EBFDE"></path>
                            </g>
                        </g>
                    </g>
                </g>
            </g>
        </g>
    </g>
</svg>