<?xml version="1.0" encoding="utf-8"?>
<!-- Generator: Adobe Illustrator 24.2.3, SVG Export Plug-In . SVG Version: 6.00 Build 0)  -->
<svg version="1.1" id="Layer_1" xmlns="http://www.w3.org/2000/svg" xmlns:xlink="http://www.w3.org/1999/xlink" x="0px" y="0px"
	 viewBox="0 0 68 95" style="enable-background:new 0 0 68 95;" xml:space="preserve">
<style type="text/css">
	.st0{fill-rule:evenodd;clip-rule:evenodd;fill:#FFFFFF;}
	.st1{fill-rule:evenodd;clip-rule:evenodd;fill:#333333;}
	.st2{fill-rule:evenodd;clip-rule:evenodd;fill:#FFD400;}
	.st3{enable-background:new    ;}
	.st4{fill:#252525;}
</style>
<g id="Desktop">
	<g id="tyre-selector_4-wheeler_desktop_Step-3" transform="translate(-139.000000, -407.000000)">
		<g id="Group-5" transform="translate(139.000000, 407.000000)">
			<path id="Fill-1" class="st0" d="M44.2,2.1H23.1c-11.6,0-21,9.4-21,21v69.3h63.1V23.1C65.2,11.5,55.8,2.1,44.2,2.1"/>
			<path id="Fill-3" class="st1" d="M4.2,90.3h58.9V23.1c0-10.4-8.5-18.9-18.9-18.9H23.1c-10.4,0-18.9,8.5-18.9,18.9V90.3z
				 M67.3,94.5H0V23.1C0,10.4,10.4,0,23.1,0h21.1C57,0,67.3,10.4,67.3,23.1V94.5z"/>
			<path id="Fill-5" class="st2" d="M65.2,33.8V23.3c0-11.6-9.4-21-21-21H23.1c-11.6,0-21,9.4-21,21v10.5H65.2z"/>
			<path id="Fill-7" class="st1" d="M4.2,31.7h58.9v-8.4c0-10.4-8.5-18.9-18.9-18.9H23.1c-10.4,0-18.9,8.5-18.9,18.9V31.7z
				 M67.3,35.9H0V23.3C0,10.5,10.4,0.2,23.1,0.2h21.1c12.7,0,23.1,10.4,23.1,23.1V35.9z"/>
			<g class="st3">
				<path class="st4" d="M22.4,26l-4.2-5.6V26h-3.1V13.4h3.1v5.5l4.2-5.5H26l-4.9,6.2l5.1,6.4H22.4z"/>
				<path class="st4" d="M42,13.4V26h-3.1v-7.6L36.1,26h-2.5l-2.8-7.6V26h-3.1V13.4h3.6l3.5,8.7l3.5-8.7H42z"/>
				<path class="st4" d="M46.3,25.7c-0.7-0.3-1.3-0.7-1.8-1.3c-0.4-0.6-0.7-1.3-0.7-2.1h3.3c0,0.5,0.2,0.8,0.5,1.1
					c0.3,0.2,0.6,0.4,1.1,0.4c0.5,0,0.8-0.1,1.1-0.3s0.4-0.5,0.4-0.9c0-0.3-0.1-0.6-0.3-0.8c-0.2-0.2-0.5-0.4-0.8-0.5
					c-0.3-0.1-0.7-0.3-1.3-0.5c-0.8-0.3-1.5-0.5-2-0.8s-1-0.6-1.3-1.1c-0.4-0.5-0.6-1.1-0.6-1.9c0-1.2,0.4-2.1,1.3-2.8s2-1,3.3-1
					c1.4,0,2.5,0.3,3.4,1c0.9,0.7,1.3,1.6,1.4,2.8h-3.3c0-0.4-0.2-0.7-0.5-1c-0.3-0.2-0.6-0.4-1.1-0.4c-0.4,0-0.7,0.1-0.9,0.3
					c-0.2,0.2-0.3,0.5-0.3,0.9c0,0.4,0.2,0.7,0.6,1c0.4,0.2,1,0.5,1.8,0.7c0.8,0.3,1.5,0.5,2,0.8s1,0.6,1.3,1.1
					c0.4,0.5,0.6,1.1,0.6,1.9c0,0.7-0.2,1.4-0.5,2c-0.4,0.6-0.9,1.1-1.6,1.4c-0.7,0.3-1.5,0.5-2.5,0.5C47.8,26.1,47,26,46.3,25.7z"
					/>
			</g>
		</g>
	</g>
</g>
</svg>
