<svg xmlns="http://www.w3.org/2000/svg" xmlns:xlink="http://www.w3.org/1999/xlink" width="80" height="80" viewBox="0 0 80 80">
    <defs>
        <path id="nw12mnbv4a" d="M0 0H80V80H0z"/>
    </defs>
    <g fill="none" fill-rule="evenodd">
        <g>
            <g transform="translate(-49 -715) translate(49 715)">
                <mask id="x02ldcg2ob" fill="#fff">
                    <use xlink:href="#nw12mnbv4a"/>
                </mask>
                <g mask="url(#x02ldcg2ob)">
                    <g>
                        <path fill="#FFF" d="M30.609.778H15.747C7.577.778.956 7.44.956 15.66v49.117H45.4V15.66C45.4 7.44 38.78.778 30.609.778" transform="translate(-7.889 28.556)"/>
                        <path fill="#FFD400" d="M45.4 23v-7.407C45.4 7.409 38.78.778 30.609.778H15.747C7.577.778.956 7.409.956 15.593V23H45.4z" transform="translate(-7.889 28.556)"/>
                        <g>
                            <path fill="#252525" fill-rule="nonzero" d="M5.228 9.079L2.261 5.168 2.261 9.079.071 9.079.071.279 2.261.279 2.261 4.121 5.228.279 7.772.279 4.31 4.61 7.913 9.079zM19.077.279L19.077 9.079 16.887 9.079 16.887 3.771 14.908 9.079 13.142 9.079 11.164 3.771 11.164 9.079 8.973 9.079 8.973.279 11.517.279 13.99 6.356 16.463.279zM22.115 8.87c-.494-.21-.918-.489-1.272-.908-.282-.42-.494-.908-.494-1.467h2.331c0 .35.142.559.354.768.212.14.424.28.777.28.353 0 .565-.07.777-.21.212-.14.283-.349.283-.628 0-.21-.071-.42-.212-.559-.142-.14-.354-.28-.566-.35-.212-.069-.494-.209-.918-.348-.565-.21-1.06-.35-1.413-.56-.353-.209-.707-.418-.919-.767-.282-.35-.424-.769-.424-1.327 0-.838.283-1.467.919-1.956C21.974.35 22.75.14 23.67.14c.989 0 1.766.21 2.402.698.636.489.918 1.118.989 1.956h-2.332c0-.28-.141-.49-.353-.699-.212-.14-.424-.28-.777-.28-.283 0-.495.07-.636.21-.141.14-.212.35-.212.629 0 .28.141.489.424.698.283.14.706.35 1.272.49.565.209 1.06.348 1.413.558.353.21.706.419.918.768.283.35.424.769.424 1.327 0 .49-.141.978-.353 1.397-.283.42-.636.768-1.13.978-.495.21-1.06.349-1.767.349-.777-.07-1.342-.14-1.837-.35z" transform="translate(-7.889 28.556) translate(9.844 7.889)"/>
                        </g>
                    </g>
                </g>
            </g>
        </g>
    </g>
</svg>
