<svg xmlns="http://www.w3.org/2000/svg" xmlns:xlink="http://www.w3.org/1999/xlink" width="80" height="80" viewBox="0 0 80 80">
    <defs>
        <circle id="scuwpwroha" cx="40" cy="40" r="40"/>
    </defs>
    <g fill="none" fill-rule="evenodd">
        <g>
            <g transform="translate(-60 -405) translate(60 405)">
                <mask id="0ab1zifdvb" fill="#fff">
                    <use xlink:href="#scuwpwroha"/>
                </mask>
                <use fill="#F6F6F6" xlink:href="#scuwpwroha"/>
                <g mask="url(#0ab1zifdvb)">
                    <g>
                        <path fill="#F2F2F2" d="M7.836 103.798L13.383 103.023 13.144 98.941 21.761 100.886 23.104 96.143 30.031 97.8 37.869 94.233 39.58 95.366 49.429 93.866 52.912 87.772 59.609 84.496 64.406 89.139 64.652 85.469 71.115 84.375 72.811 85.759 73.966 83.803 83.168 83.78 85.297 80.618 112.414 72.955 119.635 67.735 127.513 70.528 121.707 45.122 110.867 27.631 99.514 36.506 85.35 7.64 66.84 17.842 41.487 49.955 19.589 38.06 5.592 63.717 3.788 108.867z" transform="translate(-56 -14)"/>
                        <path fill="#E0E0E0" d="M85.35 7.64L100.669 52.279 99.514 36.506zM110.867 27.631L124.263 56.31 122.3 44.78z" transform="translate(-56 -14)"/>
                        <path fill="#263238" d="M127.693 70.534s-.18-.058-.53-.18l-1.555-.542-5.986-2.108h.029l-13.576 9.083H106.04L95.145 75.17h.045l-11.976 8.606h-.037l-9.202.024.058-.032-1.155 1.958-.04.066-.06-.05-1.695-1.384.052.016-6.46 1.094.055-.063c-.076 1.162-.161 2.413-.246 3.67v.148l-.106-.103c-.49-.474-1.017-.986-1.55-1.497l-3.27-3.14h.079l-6.697 3.272.03-.026-3.484 6.094-.018.03h-.032l-9.849 1.514h-.024l-.02-.013-1.71-1.122h.062l-7.844 3.56h-.037l-6.927-1.66.064-.037-1.343 4.743v.047h-.048l-8.625-1.963.05-.045c.088 1.505.162 2.838.234 4.084v.035h-.032l-5.563.764h.019l-3.004 3.752c-.353.425-.614.748-.781.97-.178.216-.265.324-.265.324s.084-.114.265-.335l.773-.977 2.97-3.776 5.546-.79-.032.039c-.074-1.247-.153-2.58-.24-4.085v-.055l.055.013 8.617 1.934-.058.037c.427-1.514.868-3.095 1.324-4.743l.013-.05.05.013 6.975 1.65h-.037l7.836-3.57.031-.014.03.019 1.713 1.13h-.045l9.846-1.5-.048.032 3.484-6.097v-.018h.021l6.694-3.273.045-.024.034.035 3.242 3.13 1.547 1.5-.116.044.249-3.67v-.053h.053l6.463-1.094h.03l.023.021 1.695 1.384-.1.018c.4-.674.794-1.346 1.155-1.958l.018-.031h.04l9.202-.021-.04.013 11.984-8.593.019-.016h.023l10.89 1.629h-.034l13.607-9.054h.026l5.976 2.134 1.55.559c.373.121.535.19.535.19M93.843 98.407l.032-.053.103-.156.41-.595 1.56-2.227h.02l13.509-2.073 5.774-.873h.037l.024.03 1.256 1.47-.027-.019 3.973 1.465h.019v.019l1.777 3.478c.204.408.366.725.48.951l.12.248c.014.027.027.056.036.087-.019-.025-.035-.052-.05-.08-.032-.063-.077-.142-.133-.242l-.5-.938-1.82-3.46.03.024-3.974-1.441h-.016v-.013l-1.261-1.465.06.02-5.774.878L96 95.463l.026-.016-1.589 2.203-.429.583-.111.147c-.037.013-.05.03-.053.027" transform="translate(-56 -14)"/>
                        <path fill="#FF9B21" d="M25.579 73.618L107.475 48.447 111.844 62.512 29.948 87.683z" transform="translate(-56 -14)"/>
                        <path fill="#DDE3E9" d="M77.507 54.758L26.831 70.331 27.154 53.161 65.208 41.47z" transform="translate(-56 -14)"/>
                        <path fill="#2B2C33" d="M22.397 71.063l2.824-17.306c.171-1.061.933-1.933 1.965-2.25l35.23-10.825S65.31 39.668 66.964 42l-2.789.85-17.435 5.352 4.83 14.524-2.157.678L44.8 48.81l-13.644 4.192c-2.003.616-3.34 2.491-3.264 4.575l.448 12.3-5.944 1.185z" transform="translate(-56 -14)"/>
                        <path fill="#FF9B21" d="M25.962 82.547l-3.565-11.484 50.239-15.438.418-4.15-8.879-8.624 2.79-.857 9.85 8.864 22.442-3.857s5.314-1.123 6.983 2.224l1.268 2.93L93.56 55.28l-6.267 14.263-31.834 9.778-9.536-8.695-15.835 4.864-.973 7.004-3.152.053z" transform="translate(-56 -14)"/>
                        <path fill="#2F3676" d="M41.307 40.031L58.269 34.818 60.285 41.311 43.324 46.524z" transform="translate(-56 -14)"/>
                        <path fill="#191847" d="M52.707 36.531L58.27 34.821 60.287 41.314 54.724 43.024z" transform="translate(-56 -14)"/>
                        <path fill="#263238" d="M58.721 36.295c0 .034-3.79 1.236-8.476 2.68-4.686 1.444-8.538 2.585-8.538 2.558 0-.026 3.788-1.236 8.49-2.68 4.702-1.443 8.514-2.59 8.524-2.558" transform="translate(-56 -14)"/>
                        <path fill="#455A64" d="M100.305 56.766c4.981-1.696 10.401.947 12.106 5.902s-.952 10.347-5.933 12.043c-4.982 1.696-10.402-.947-12.107-5.902-1.704-4.956.952-10.348 5.934-12.043" transform="translate(-56 -14)"/>
                        <path fill="#455A64" d="M94.235 68.389v.024c1.354 5.062 6.578 8.075 11.667 6.727 5.09-1.347 8.118-6.543 6.764-11.606-.041-.153-.087-.306-.135-.457v-.024L94.235 68.39z" transform="translate(-56 -14)"/>
                        <path fill="#FAFAFA" d="M96.966 67.62c1.04 3.527 4.757 5.548 8.303 4.513 3.546-1.034 5.578-4.732 4.538-8.26-1.04-3.526-4.755-5.547-8.301-4.514-3.546 1.034-5.579 4.732-4.54 8.26" transform="translate(-56 -14)"/>
                        <path fill="#E0E0E0" d="M101.506 59.356c-3.548 1.035-5.58 4.734-4.54 8.263l12.844-3.744c-1.037-3.528-4.753-5.552-8.3-4.52l-.004.001z" transform="translate(-56 -14)"/>
                        <path fill="#263238" d="M99.477 66.884c.634 2.15 2.899 3.38 5.06 2.75 2.16-.63 3.397-2.883 2.764-5.032-.634-2.149-2.898-3.38-5.059-2.75-2.16.627-3.398 2.878-2.767 5.027l.002.005" transform="translate(-56 -14)"/>
                        <path fill="#455A64" d="M93.777 66.44s.119.863-.048.971l-.74.472.245.79s.744-.086.958.333c.215.418.424.79.424.79l.864-1.386-1.703-1.97zM94.992 61.438c-.247.266-.527.5-.834.696-.284.08-.573.136-.866.17l-.072.812s.723.2.766.667c.042.466.093.883.093.883l1.324-.952-.41-2.276z" transform="translate(-56 -14)"/>
                        <path fill="#455A64" d="M96.494 59.253c-.314.183-.65.326-1 .425-.296-.007-.59-.035-.88-.085l-.305.757s.636.398.53.859c-.106.46-.154.877-.154.877l1.531-.527.278-2.306z" transform="translate(-56 -14)"/>
                        <path fill="#455A64" d="M98.658 57.973c-.358.06-.723.078-1.086.05-.274-.107-.54-.236-.794-.385l-.551.604s.455.595.204.99c-.252.396-.461.76-.461.76l1.621.03 1.067-2.05z" transform="translate(-56 -14)"/>
                        <path fill="#455A64" d="M100.804 56.721c-.364.021-.728-.002-1.086-.07-.26-.138-.51-.296-.744-.473l-.617.54s.384.64.09 1.007c-.294.366-.543.704-.543.704l1.607.21 1.293-1.918z" transform="translate(-56 -14)"/>
                        <path fill="#455A64" d="M103.13 56.666c-.347-.113-.678-.267-.986-.461-.195-.222-.372-.46-.53-.709l-.768.28s.122.734-.286.969c-.408.234-.765.456-.765.456l1.42.79 1.915-1.325z" transform="translate(-56 -14)"/>
                        <path fill="#455A64" d="M105.546 56.595c-.323-.17-.623-.379-.893-.622-.15-.253-.28-.518-.39-.79l-.807.144s0 .746-.448.907c-.448.16-.832.321-.832.321l1.264 1.01 2.106-.97z" transform="translate(-56 -14)"/>
                        <path fill="#455A64" d="M107.959 57.28c-.285-.227-.54-.488-.76-.777-.099-.276-.177-.559-.234-.846l-.82-.013s-.146.732-.613.809c-.466.076-.876.158-.876.158l1.06 1.23 2.243-.561z" transform="translate(-56 -14)"/>
                        <path fill="#455A64" d="M109.908 58.853c-.192-.309-.345-.64-.455-.986-.001-.292.02-.585.063-.874l-.77-.282s-.385.64-.848.558c-.464-.081-.88-.142-.88-.142l.578 1.507 2.312.219z" transform="translate(-56 -14)"/>
                        <path fill="#455A64" d="M111.288 61.08c-.026-.363-.006-.726.059-1.083.134-.26.29-.51.463-.746l-.548-.606s-.641.39-1.012.103c-.37-.288-.712-.527-.712-.527l-.197 1.602 1.947 1.256z" transform="translate(-56 -14)"/>
                        <path fill="#455A64" d="M112.33 63.14c.026-.359.097-.713.211-1.054.173-.237.362-.462.567-.672l-.455-.677s-.69.295-1.015-.042c-.326-.337-.628-.63-.628-.63l-.424 1.557 1.743 1.518zM93.986 63.783s-.154.933-.34 1.004l-.82.321.076.812s.747.068.875.527c.127.458.251.851.251.851l1.118-1.17-1.16-2.345z" transform="translate(-56 -14)"/>
                        <path fill="#455A64" d="M113.063 65.248s-.119-.864.048-.972l.739-.482-.244-.791s-.744.087-.961-.33c-.218-.416-.422-.79-.422-.79l-.85 1.394 1.69 1.971zM111.847 70.254c.249-.265.529-.499.835-.695.284-.078.573-.136.866-.171l.071-.812s-.723-.2-.765-.667c-.042-.466-.093-.88-.093-.88l-1.311.949.397 2.276z" transform="translate(-56 -14)"/>
                        <path fill="#455A64" d="M110.345 72.439c.315-.183.652-.326 1.002-.427.295.007.589.036.88.087l.301-.759s-.633-.398-.53-.856c.104-.459.167-.872.167-.872l-1.53.527-.29 2.3z" transform="translate(-56 -14)"/>
                        <path fill="#455A64" d="M108.194 73.72c.359-.063.724-.08 1.087-.053.273.109.54.237.794.384l.551-.603s-.455-.593-.204-.99c.252-.399.461-.76.461-.76l-1.621-.031-1.068 2.052z" transform="translate(-56 -14)"/>
                        <path fill="#455A64" d="M106.036 74.968c.363-.02.728.003 1.086.072.26.138.508.296.744.471l.617-.527s-.387-.643-.09-1.009c.297-.366.543-.7.543-.7l-1.608-.214-1.292 1.907z" transform="translate(-56 -14)"/>
                        <path fill="#455A64" d="M103.71 75.026c.346.112.678.265.985.459.195.222.372.46.53.709l.77-.277s-.12-.738.287-.972c.408-.235.766-.456.766-.456l-1.42-.79-1.918 1.327z" transform="translate(-56 -14)"/>
                        <path fill="#455A64" d="M101.284 75.098c.322.168.622.376.892.619.15.253.28.518.39.79l.808-.142s0-.748.447-.91c.448-.16.832-.318.832-.318l-1.264-1.012-2.105.973z" transform="translate(-56 -14)"/>
                        <path fill="#455A64" d="M98.881 74.412c.285.231.54.497.758.791.1.275.18.558.235.846h.819s.148-.733.614-.81c.467-.076.877-.157.877-.157l-1.06-1.23-2.243.56z" transform="translate(-56 -14)"/>
                        <path fill="#455A64" d="M96.931 72.84c.193.307.346.637.456.982.001.293-.02.585-.064.875l.771.282s.382-.64.848-.556c.466.084.88.14.88.14l-.578-1.508-2.313-.216z" transform="translate(-56 -14)"/>
                        <path fill="#455A64" d="M95.551 70.613c.027.361.007.724-.058 1.08-.135.26-.29.51-.463.746l.548.606s.64-.39 1.012-.103c.37.287.712.527.712.527l.196-1.6-1.947-1.256z" transform="translate(-56 -14)"/>
                        <path fill="#455A64" d="M94.51 68.542c-.027.358-.098.713-.212 1.054-.171.238-.36.462-.566.672l.455.677s.689-.295 1.015.045c.325.34.627.627.627.627l.424-1.557-1.743-1.518zM112.854 67.907s.154-.93.339-1.004l.821-.322-.077-.811s-.747-.066-.874-.527-.251-.851-.251-.851l-1.118 1.17 1.16 2.345z" transform="translate(-56 -14)"/>
                        <path fill="#263238" d="M62.795 40.566c-.032.034-.53-.34-1.398-1.054l-1.59-1.299-.977-.82c-.33-.299-.724-.521-1.153-.65-.464-.138-.956-.157-1.43-.055-.233.05-.509.144-.781.226l-.83.264-3.605 1.09-8.264 2.459-8.291 2.408-3.616 1.033-.837.237-.204.058-.183.058c-.579.205-1.077.588-1.422 1.094-.248.37-.41.788-.474 1.228-.082.442-.157.859-.228 1.249-.148.79-.265 1.449-.379 2-.217 1.096-.36 1.7-.408 1.691-.048-.008 0-.624.143-1.734.072-.556.16-1.233.265-2.018.057-.393.115-.812.175-1.257.118-1.088.766-2.049 1.732-2.572.132-.07.268-.133.408-.187l.217-.073.204-.064.832-.263 3.603-1.091 8.275-2.458 8.288-2.409 3.621-1.03.837-.237c.265-.074.53-.158.835-.216.561-.106 1.14-.067 1.682.113.485.163.927.434 1.292.79l.943.857 1.497 1.386c.816.77 1.25 1.21 1.221 1.246" transform="translate(-56 -14)"/>
                        <path fill="#263238" d="M56.713 42.524c-.034.016-.604-1.236-1.274-2.79-.67-1.555-1.181-2.833-1.147-2.849.035-.016.607 1.236 1.274 2.793.668 1.558 1.182 2.83 1.147 2.846" transform="translate(-56 -14)"/>
                        <path fill="#2B2C33" d="M107.15 44.732c-.69.213-1.076.942-.862 1.629.006.017.011.035.018.052.871 2.409 2.707 7.584 3.586 9.968.29.78 1.16 1.18 1.945.894l4.018-1.184c.142-.036.226-.18.19-.321l-.007-.021-.808-2.609c-.038-.14-.184-.223-.325-.185l-.02.006-2.855.885-3.25-8.279c-.23-.667-.949-1.035-1.63-.835" transform="translate(-56 -14)"/>
                        <path fill="#263238" d="M114.382 47.488c-.119.114-3.838 1.47-3.107 3.45.731 1.978 4.686.669 4.686.669l-1.579-4.119z" transform="translate(-56 -14)"/>
                        <path fill="#455A64" d="M66.244 42.213L75.279 50.943 76.818 50.856 66.965 41.992z" transform="translate(-56 -14)"/>
                        <path fill="#263238" d="M72.636 55.625L76.426 54.46 73.054 51.475 71.785 51.038 71.06 52.8 72.694 53.865z" transform="translate(-56 -14)"/>
                        <path fill="#FF9B21" d="M68.384 55.762l3.892-1.078c.505-.163.627-1.185.264-2.281-.32-.983-.924-1.708-1.42-1.713l-4.081.756 1.345 4.316z" transform="translate(-56 -14)"/>
                        <path fill="#263238" d="M76.426 54.46s.019.043.048.122c.03.079.074.203.13.355.114.32.265.79.485 1.37l1.761 5.05.58 1.675c.238.602.37 1.24.387 1.887.044 1.446-.51 2.848-1.531 3.878-.551.55-1.22.968-1.958 1.223-.75.248-1.515.472-2.294.717l-4.826 1.483-8.556 2.635h-.037l-.026-.026-7.682-7.668c-.48-1.581-.861-2.817-1.12-3.673-.128-.424-.226-.749-.292-.978l-.074-.263c-.016-.058-.021-.087-.021-.087.014.026.025.053.034.081.019.064.048.145.082.25l.313.97 1.157 3.663v-.018l7.714 7.641-.064-.016 8.55-2.635 4.83-1.48c.776-.243 1.55-.467 2.288-.712.72-.247 1.374-.653 1.913-1.188 1-1.006 1.544-2.373 1.507-3.787-.016-.636-.143-1.264-.373-1.857l-.572-1.676-1.72-5.065-.46-1.378c-.05-.153-.088-.263-.117-.358-.03-.095-.056-.135-.056-.135M106.24 49.222c-.027.011-.054.02-.082.024l-.239.055-.919.198-3.393.698c-2.869.574-6.832 1.354-11.226 2.148-2.196.395-4.291.756-6.204 1.054-.477.076-.946.14-1.399.205-.453.066-.895.13-1.324.174-.796.117-1.607.101-2.397-.047-.648-.152-1.256-.44-1.783-.846-.396-.303-.766-.637-1.105-1.002-.28-.297-.487-.527-.627-.7l-.157-.188c-.034-.042-.05-.065-.048-.068.003-.003.022.018.059.058l.167.18c.146.157.36.392.643.682.344.355.716.682 1.113.977.522.392 1.122.669 1.759.814.782.138 1.58.147 2.365.027.424-.048.864-.114 1.325-.182.46-.069.919-.132 1.396-.21 1.91-.299 4.005-.662 6.2-1.055 4.393-.79 8.36-1.555 11.232-2.108l3.393-.672.925-.174.24-.042c.029-.003.058-.003.086 0" transform="translate(-56 -14)"/>
                        <path fill="#263238" d="M87.334 52.81c-.25-.583-.46-1.184-.627-1.796-.208-.603-.374-1.22-.496-1.845.254.583.464 1.184.628 1.797.21.603.376 1.22.495 1.845M57.723 62.207c.03-.018.063-.033.098-.045.1-.035.204-.06.31-.076.168-.036.344 0 .484.1.19.137.292.366.265.598-.042.274-.199.516-.432.667-.26.159-.545.274-.842.343l-1.976.566c-.179.059-.366.087-.554.084-.194-.005-.377-.092-.503-.24-.11-.153-.14-.348-.082-.526.051-.167.153-.313.291-.42.253-.172.532-.302.827-.384.265-.092.516-.171.744-.243l1.083-.326c.131-.048.265-.086.4-.116-.03.02-.063.036-.098.047-.063.03-.161.069-.286.114-.265.094-.62.216-1.072.366-.226.074-.475.158-.737.263-.282.086-.55.213-.795.377-.118.093-.205.221-.246.366-.05.143-.027.301.061.425.105.12.256.19.416.192.173.001.346-.025.511-.08l1.979-.558c.286-.063.562-.17.816-.316.212-.132.358-.348.402-.593.026-.202-.057-.402-.22-.527-.123-.095-.28-.134-.434-.108-.267.005-.408.063-.41.05M111.398 50.453L112.056 50.251 113.306 54.28 112.648 54.482z" transform="translate(-56 -14)"/>
                        <path fill="#455A64" d="M115.214 51.81c-.341-.628-.642-1.277-.9-1.942-.3-.649-.558-1.315-.774-1.995.344.626.645 1.275.9 1.942.302.647.56 1.314.774 1.995" transform="translate(-56 -14)"/>
                        <path fill="#474747" d="M22.728 83.535l1.06 3.401c.436 1.408 1.936 2.197 3.35 1.763l3.733-1.146s1.266-.645.876-1.9c-.389-1.254-1.038-5.57-.794-6.693.243-1.122.212-2.65 2.257-3.28l10.153-3.117c1.244-.302 2.557.057 3.473.948l7.016 6.124c.974.948 2.386 1.3 3.693.92l30.004-9.223c1.195-.367 2.15-1.267 2.583-2.435l3.618-9.778c.537-1.452 1.725-2.571 3.21-3.028l7.404-2.276s3.992-.527 5.592 2.68l1.682-2.314s-3.001-5.56-9.321-3.668c-4.668 1.397-7.566 2.324-7.566 2.324s-3.207.572-4.837 4.48c-1.361 3.267-4.93 12.927-4.93 12.927L57.832 78.58l-9.104-7.668c-1.54-1.765-3.997-2.433-6.225-1.691l-9.774 3.006c-1.366.409-2.592 1.184-3.545 2.24-1.194 1.364-1.86 3.107-1.88 4.917l-.027 2.758-4.548 1.392z" transform="translate(-56 -14)"/>
                    </g>
                </g>
            </g>
        </g>
    </g>
</svg>
