<svg xmlns="http://www.w3.org/2000/svg" xmlns:xlink="http://www.w3.org/1999/xlink" width="379" height="415" viewBox="0 0 379 415">
    <defs>
        <filter id="yl9t8flm0a" width="134.2%" height="130.7%" x="-13.7%" y="-10.6%" filterUnits="objectBoundingBox">
            <feOffset dx="11" dy="17" in="SourceAlpha" result="shadowOffsetOuter1"/>
            <feGaussianBlur in="shadowOffsetOuter1" result="shadowBlurOuter1" stdDeviation="15.5"/>
            <feColorMatrix in="shadowBlurOuter1" values="0 0 0 0 0 0 0 0 0 0 0 0 0 0 0 0 0 0 0.219405594 0"/>
        </filter>
        <path id="9tvzhxi1tb" d="M332.706 948.755c2.063-.19 2.204 3.042.101 3.173-.598.037-1.856-.5-2.318-.21-.952.614-1.322 1.66-2.518 1.922-1.497.329-1.489.918-2.414 2.02-.897 1.066-.94 1.078-.057 2.273.482.674.697 2.115.736 2.936.056 1.258-1.764 1.436-1.07 3.019.523 1.197.218.708-.842 1.26-1.036.54-1.075 1.973-1.636 2.858-1.125 1.763-3.687 2.599-4.221 4.746-.209.842.675 2.393-.161 3.02-.817.614-1.72 1.213-2.71 1.509-.929.278-2.155.212-2.87.97-1.1 1.166-.912 3.064-1.425 4.486-.465 1.311-1.08 1.822-1.9 2.898-.877 1.153-1.374 2.55-2.335 3.642-.467.531-1.443 2.101-2.051 2.38-1.038.475-2.566-.857-3.403.444-.692 1.078-1.018 1.778-1.992 2.689-.963.901-.795 2.278-1.517 3.304-.677.963-1.855 1.167-2.742 1.853-1.01.775-.59 1.81-1.089 2.785-.698 1.372-4.414.345-5.721.579-1.109.198-2.82.113-3.798.682-.586.342-2.104 1.674-2.507.91-.555-1.066-.494-1.782-.309-2.919.14-.861.504-1.66-.667-1.59-3.33.192-5.46 1.229-7.503 3.878-1.14 1.479-1.493 2.751-3.209 3.746-1.384.803-2.93 1.458-3.91 2.782-1.347 1.808-.822 7.508 1.956 7.876 1.475.195 2.399 1.326 4.012 1.222 1.803-.116.75 1.714.164 2.744-.775 1.36-1.441 2.577-.889 4.157.538 1.538 1.416 3.152 2.565 4.323.8.816 1.778.66 2.834.5 2.187-.328.497 1.202.884 2.619.92 3.354 5.016 8.623 2.896 12.122-.443.726-.866.42-1.056 1.46-.133.734-.732-.021-1.252.128.1-.028-.093-2.956-1.174-2.9-1.566.08-2.83 1.168-4.368 1.357-.561.07-1.506-.328-1.907.205-.376.502-.44 1.357-.343 1.958-.984-.15-2.075-.112-3.01-.483-1.062-.422-1.434-1.75-2.51-2.164-1.128-.436-1.773.627-2.74.921-1.133.345-3.1-.685-4.234-.952-.845-.196-1.883-.834-2.77-.502-.846.318-1.261 1.81-1.015 2.588.25.786-.103 2.103-1.163 1.709-.495-.184-.967.01-1.474-.07-.679-.109-.997-.776-1.653-.921-2.43-.535-1.98 3.267-2.335 4.319-.284.84-1.809 1.324-.617 2.324.312.263.784.893 1.188.984.397.09.711-.407 1.044-.001 1.01 1.228 2.578 2.088 2.97 3.676.436 1.788 2.552 3.415 4.106 4.279 1.906 1.056 3.872 2.234 5.946 2.894 1.094.347 2.237.107 3.349.156 1.556.07.166-2.028 1.915-1.379.974.361 2.434.394 3.252-.352.587-.536 1.214-.997 2.061-.4.34.238-1.685 1.928-1.836 2.055-1.102.933-2.219.35-3.375 1.024-.913.533-2.194.62-2.981 1.225-1.042.798-1.858-.433-2.845.149-.438.26-1.81 1.178-2.175.492-.518-.978-.51-1.722-1.822-1.755-1.933-.039-3.1 1.652-2.929 3.453.238 2.402 2.791 4.425 4.318 6.063 1.69 1.808 3.382 3.449 4.938 5.374 1.64 2.03 2.73 4.404 4.652 6.262.923.891 2.243 1.092 2.776 2.32.599 1.376 2.016 1.173 3.214 1.677 1.039.435 1.8 1.799 3.08.958.379-.248.927-.896 1.445-.829.807.103 1.223.257 2.051-.036.973-.342 2.66-.329 3.428-.996 1.107-.957 1.762-1.228 3.147-1.428 1.156-.166 1.567-.412 2.195-1.254.682-.914 2.504-.317 3.182-1.562.296-.541.35-1.153.679-1.694.459-.75 1.224-1.125 1.707-1.812.803-1.143-.014-2.193-.55-3.185-.21-.389.264-.54.487-.713.604-.462.195-1.138-.02-1.7-.503-1.3-.342-2.863 1.06-3.607-.313.167-.192 1.971-.182 2.277.04 1.668.746.805 1.805 1.034.337.073-1.589 1.529-1.594 1.877-.026 1.719 1.184 1.727 2.323 1.9-.49-.078-.786 1.055-.778 1.427.022.793.008.67-.543 1.074-.785.577-.89 1.333-.759 2.24.176 1.195.955 1.191 1.433 2.07.325.595-.508.97.21 1.735.935.996.51 1.746.992 2.893.271.646.5 1.109.48 1.83-.029 1.153-1.732 1.622-1.9 2.84-.21 1.497-.103 3.232-1.057 4.534-1.425 1.956 1.35 2.902.646 4.584-.484 1.157.226 1.314.483 2.303.217.831-.23 1.914-.205 2.789.037 1.128.64 2.093.709 3.122.09 1.398-.874 1.522.179 2.798.552.667-.294 1.27-.443 1.897-.172.718.846 1.562 1.397 1.865.831.464-.22 1.46.231 2.227.441.757 1.214.721 1.332 1.649.193 1.519 1.177 2.644 1.253 4.35.014.319-.538 1.87-.33 2.034 1.125.892.582.895.899 2.24.177.13.34.28.488.446.092.502-.262 1.269-.237 1.809.047 1.16.291 2.3.388 3.455.23 2.706.327 4.537 1.575 6.968.467.907.503 1.97.97 2.9.202.4.861 2.358 1.23 2.456.615.166.697 1.34.851 1.895.11.4.09 1.13.556 1.348.323.152 1.019-.03 1.263.242-.231-.259-2.298.837-.389 1.974 1.27.757 1.014 2.59 1.909 3.68.436.533 1.086.16 1.18.927.034.278-.153 1.438.158 1.575.431.191 1.706.127 1.727.801.02.664-.43 1.047.072 1.696.902 1.163 1.709 2.085 1.965 3.711-.141.257-.26.522-.36.797-.001.57.407 1.117.702 1.568.587.906.663 1.756 1.1 2.702.4.875.868 1.364.834 2.386-.04 1.115.026 2.144.157 3.258.136 1.192.063 2.517.32 3.68.14.63.94.81 1.161 1.396.307.831-.336 1.72.569 2.203.395.211.651 1.24.76 1.605.468 1.545.939 3.14 1.603 4.612.3.66.633 1.296 1.17 1.802.542.51 1.564.322 1.93.885.844 1.283 1.821 2.329 2.85 3.436.495.533.39 1.565.744 2.208.469.852.646 1.347 1.286 2.118.63.76.236 1.727.867 2.433.661.734.715 1.549.805 2.496.074.75.686 1.05.792 1.75.107.69-.183 1.75.197 2.37.344.55.618 1.696 1.26 2.006.655.313.185 1.616.582 1.767.24.088.41-.388.634-.391.287-.004.509.739.655.917-.066-.08 2.02 2.345 1.308 2.216-.826-.149-1.053-1.503-1.963-1.522-.836-.017-.067 1.977.158 2.43.993 2.003 1.12 3.91 1.566 6.117.198.974.938 1.45 1.146 2.278.266 1.06-.535 2.057.513 2.875.842.654.858 1.606 1.225 2.514.494 1.23 2.01 1.584 2.826 2.584.625.767 1.338 2.118 2.514 1.89 1.136-.217.672.787 1.177 1.582 1.325 2.091 3.23 1.15 4.7 2.798 2.053 2.332 3.14.38 4.706-.996 1.443-1.27 3.318-2.05 5.163-2.515 1.302-.326 1.402-3.504 1.252-4.568-.093-.66-.132-1.76.112-2.386.236-.614 1.912-1.938 2.588-1.744 1.553.445 2.017-.168 3.37-.533.957-.248 1.928-.09 2.884-.329.517-.127 2.137-.083 2.371-.575.145-.3.848-.55.464-.93-.46-.462-.73-.923-1.279-1.357-2.26-1.792-.393-3.572.963-5.197.684-.824 1.428-1.763 2.322-2.367.37-.253-1.105-1.112-.336-2.057.64-.79 1.321-1.344 2.346-.952 1.342.514 2.04.556 3.475.352.71-.107 2.562-.311 2.944-1.039.226-.438-.245-.572-.487-.788-.42-.375-.309-1.225-.317-1.712-.02-.874.28-2.145-.046-2.933-.383-.908-.631-2.115-.39-3.086.289-1.16.31-2.195-.252-3.28-.417-.799-1.219-1.942-.312-2.639 1.287-.981-.413-1.47-.225-2.433.204-.962.6-1.896.897-2.828.417-1.3.446-1.572 1.545-2.463.294-.236 2.342-2.028 2.338-2.456-.006-.745-1.595-1.374-1.582-2.019.007-.358 2.155-1.002 2.54-1.377.672-.65.915-1.977 1.473-2.772.79-1.112.42-2.39.33-3.712-.088-1.258-.568-2.262-1.704-2.9-.42-.237-1.708-.7-1.493-1.377.528-1.652 3.36 2.424 2.386-.607-.46-1.44-.98-2.91-1.636-4.273-.397-.825-1.486-2.103-.696-3.036.792-.932 1.545-1.032 1.32-2.275-.372-2.028-1.45-3.758-1.874-5.805-.47-2.256.064-3.636 1.438-5.303.461-.552 1.153-2.09 1.224-2.798.046-.458 1.246-1.029 1.566-1.23.711-.435 1.343-.518 2.133-.662 1.556-.281 1.394 1.074 2.412 1.702 1.352.838 2.94-2.327 3.478-3.136.414-.62.599-1.51 1.403-1.74.196-.055.738-2.866.872-3.312.31-1.039 2.078-.535 2.632-.01.977.925 1.861.983 3.242.479 1.099-.4 2.206-1.058 3.33-1.511 1.452-.582 2.201-1.022 3.402-1.987.662-.533.262-2.795.154-3.546-.09-.6-.709-.996-.8-1.629-.171-1.172.867-.894 1.569-1.347.598-.388 1.233-.717 1.832-1.11.646-.425 1.028-1.196 1.69-1.545 1.281-.662 2.713-.56 3.998-1.35 1.261-.774 3.337-2.114 3.43-3.754.116-1.972.391-3.07 2.23-4.064 1.646-.888 3.666-1.258 5.188-2.33 1.656-1.162 2.424-3.349 3.686-4.87.602-.726 1.102-1.54 1.9-2.077.655-.44 1.43-.89 1.34-1.807-.181-1.887 1.798-1.863 2.346-3.585.369-1.16 1.963-1.558 2.85-2.38.244-.225.792-.299.93-.443.114-.12.9-1.967.742-2.013.522.154.81.66 1.429.646.557-.01.99-.47 1.518-.597.925-.224 1.506-1.138 2.39-1.508 2.174-.91 5.108-1.427 6.687-3.316 1.56-1.865 4.455-3.315 3.767-6.213-.145-.61 1.123-1.355 1.472-1.765.799-.939.948-2.372.81-3.554-.159-1.35-1.382-1.62-2.02-2.698-.538-.915.79-2.207 1.397-2.805.935-.924 2.676-.41 3.482-1.364.632-.754 2.382-.522 3.337-.697.79-.146 1.758-.044 1.95-.967.227-1.089.244-1.089 1.35-1.463.675-.228.053-2.32.78-2.32.669 0 .416 2.12.662 2.563.128.224 2.261-.462 2.617-.462 1.268 0 1.64-.485 2.273-1.546.574-.955 3.873 1.562 4.7-.463.8-1.964.636-3.626-.548-5.364-.315-.456-.664-1.794-.698-2.36-.064-.96-.209-1.186-.77-2.2-.51-.924.18-1.926.03-2.906-.225-1.498-.564-1.657.3-2.991.641-.991-.374-2.175-1.313-2.46-1.096-.334-1.237.13-1.13-1.402.09-1.321-.282-2.088-1.384-2.834-1.184-.8-1.271-1.706-.343-2.74.91-1.02.779-1.609.705-2.85-.054-.934.37-2.147.044-3.065-.64-1.792-3.919-.096-5.088-1.074-.986-.828-3.112-3.973-.794-4.27 1.342-.174 1.653-1.265 1.775-2.45.14-1.35.567-1.027 1.453-1.618 1.165-.773 5.262.247 4.691-2.427-.293-1.416-.159-1.737-1.604-2.132-1.14-.313-.42-1.788-1.485-2.215-.763-.304-2.168.934-2.675.103-.56-.912-1.425-1.236-1.99-2.06-.342-.501-.968-.52-1.504-.714-1.04-.374.029-1.918.063-2.423.097-1.479 1.43-1.595 2.177-2.661.565-.81 1.344 1.424 1.623 1.812.522.73 1.694 1.725 2.561 1.022.606-.489.045-1.776.625-2.07.974-.496 2.488 1.231 3.055 1.782.712.695 1.256.697 2.034 1.152 1.156.675 2.177-.005 3.158-.774 1.337-1.057.86 1.097.528 1.658-.666 1.157-.118 1.878.795 2.498.156.108-.795 2.755-.877 3.328-.187 1.231.75 1.63 1.79 1.954.859.268 2.184.65 3.056.705 1.213.077 1.946.115 3.152.535 1.876.652 2.651-1.312 4.326-.84 1.63.457 2.097-.03 3.619-.315 1.243-.234 2.473.486 3.79.301 1.485-.21 2.35.537 3.837-.155 1.217-.57 2.776-.744 3.81.347-.298.28-.567.587-.8.922-.208.599.384.898.381 1.456-.003.492-.289.678-.47 1.097-.225.522-.027 1.199-.19 1.755-.147.489-.82.674-1.278.736-1.23.167-.673 1.656-.75 2.497-2.161-.873-3.4 1.66-5.095 2.33-2.053.812-2.651 3.447-2.832 5.457-.24 2.665 2.352 4.517 1.955 6.962-.064.397-.285 3.374.746 2.873 1.046-.499 1.14.257 1.909-.907-.82 1.24 1.98 2.332 2.883 1.802.505-.3 1.526-.777 1.851-1.246.34-.493.022-1.502.025-2.087.003-.879-.179-1.95.252-2.76.318-.586.853-1.021.933-1.725.068-.585-.064-1.099.246-1.637.917-1.6.67.053 1.307.422 1.412.816.881 1.251.924 2.73.03 1.048 1.088 1.398 1.55 2.247.376.693-.247 2.276-.555 2.93-.574 1.23.513 1.72 1.207 2.555 1.086 1.3.554 1.77.6 3.184.021.588.553.84.553 1.44 0 .582-.246 1.146-.195 1.727.073.89.883 1.823.977 2.87.115 1.297-.366 1.943.662 2.895 1.163 1.074 1.394-.308 1.785-1.003.01-.013 2.036 1.034 2.358 1.09 1.3.22 1.176-1.641 1.438-2.35.29-.794 1.031-1.476 1.386-2.258.63-1.388-.442-1.992-.314-3.123.25-2.187-.54-3.994-.91-6.107-.159-.93-.393-2.107.978-2.242 1.562-.154 1.595-.923 1.985-2.359.36-1.315-.836-1.85-.749-3.01.097-1.224 1.122-1.577.83-3.041-.235-1.168-.914-2.592-.299-3.762.8-1.522 1.932.5 2.842.44.461-.027.541-.536.942-.606.534-.095 1.079.261 1.6.307.92.082 2.181-.136 2.62-1.068.381-.805-.237-1.506-.1-2.319.135-.813.38-2.636.773-3.338.292-.52.967-.55 1.294-1.034.365-.54.14-1.202.282-1.792.285-1.18 1.394-1.861 1.582-3.119.172-1.151.154-2.329.302-3.483.082-.666-1.737-1.052-1.837-1.925-.095-.86 1.76-2.24 2.326-2.766.85-.787.997-1.998 1.636-2.939.702-1.033.433-2.52.812-3.676.505-1.55.06-2.797-.42-4.338-.288-.932-1.16-2.461-.01-3.213.773-.507 1.771-.17 2.562-.811.823-.666 1.326-1.665 1.777-2.596.609-1.241 1.18-1.902 2.224-2.797.9-.772 1.112-2.028 2-2.804.773-.668 1.568-.566 2.342-1.217.666-.56 1.214.016 2.006-.39 1.422-.735 1.768-1.06 2.702.207.728.986 1.448 1.391 2.682 1.491 1.374.111 1.415.066 1.467-1.287.064-1.735-2.717-2.363-3.184-4.269-.39-1.592.442-1.463 1.47-2.127.839-.542 1.45-1.686 2.175-2.398.915-.904 1.214-1.293.497-2.388-.208-.315-.77-.484-.87-.853-.144-.532.753-1.155.491-1.636-.131-.245-1.643-.376-2.023-.541-.87-.381-1.704-.57-2.55-.02-.975.633-1.99-.924-2.867-1.195-.903-.278-2.306.763-3.158 1.015-1.342.398-.445-.98-.041-1.391.716-.731 1.515-1.494 2.03-2.388.362-.628.66-1.578-.387-1.716-1-.129-.81-1.414-.91-2.227-.09-.746-1.95-.686-1.983.191-.016.532.256.651-.292.952-.313.177-1.1.214-1.036-.378.146-1.204.397-1.226 1.376-2.193.882-.87.57-2.057-.602-2.192-1.109-.126-.686-.011-1.31-.798-1.163-1.473-1.822-1.04-2.969-.108-.987.803-1.976 1.634-2.846 2.563-.54.576-.674 2.373-1.522 2.483-1.461.194-1.829-.246-3.054-.824-.88-.42-1.61.14-2.58-.414-.637-.363-2.037-.633-2.101-1.457-.112-1.515-1.348.67-1.58.971-.682.877-1.684 1.156-2.523 1.82-.612.483-.413 1.72-.917 2.362-.8 1.016-1.536 1.76-2.084 2.918-.32.678-2.107.614-2.716.739-.56.116-.65.834-1.121.767-.878-.126-1.832-.587-2.672.001-.564.396-.9 1.747-1.264 2.35-.305.504.544 1.538-.058 1.963-.637.442-1.766.283-2.495.641-.548.27-1.314 1.04-1.65 1.533-.41.606-1.396.777-1.492 1.5-.087.673.947 1.556.403 2.1-.541.537-1.227 1.057-1.89 1.437-.506.293-1.044-.451-1.62-.396-1.31.13-3.523.782-4.545 1.724-.846.773-2.363-2.461-3.43-1.112-.424.531.237 1.758.036 2.525-.184.736.55 1.393.511 2.16-.028.584 3.683.838 4.354 1.011.73.188 1.725.792 1.238 1.698-.598 1.117-.313 1.74-.384 2.942-.108 1.943-2.53-.036-3.437 1.63-.306.568-1.754.064-2.289.43-1.092.745-1.838.449-3.094.478-2.342.056-3.979 2.07-6.319.384-1.64-1.179-2.527-1-4.229.205-.37.265-.835.791-1.328.706-.45-.078-1.404-.41-1.73.097-.374.584.295 1.612-.983 1.09-.55-.223-.88-.88-.875-.874-.468-.349-1.29.03-1.771-.357-.24-.196-.028-.474-.425-.76-1.068-.762-2.332 1.284-2.557 1.189-.701-.295-1.572-1.484-2.322-1.917-.787-.455-1.226-1.254-1.687-2.015-.399-.656 1.11-1.568.72-2.49-.195-.46-.618-.642-1.022-.863-.413-.225-.169-.79-.547-1.07-.27-.2 1.044-2.176 1.005-2.72-.092-1.327-.012-1.6-.743-2.756-1.197-1.883-2.558-1.96-3.936-.362-.838.965-.905.731-2.12.8-.34.02-1.802.11-1.983.415-.483.818-.374 1.431.154 2.058 1.025 1.195.097 1.416-.46 2.432-.574 1.025-.638 1.9-.79 3.053-.124.967-.735 1.67-.83 2.648-.11 1.128 1.113 2.447 1.684 3.325.634.986.772 2.937.53 4.07-.024.118-.027 2.082-.639 1.492-.58-.554-1.441-.366-2.095-.147-1.583.531-3.3.69-4.958.633-1.413-.05-2.268-1.423-3.648-1.624-.904-.133-1.409.75-2.168 1.063-.978.397-2.373.127-3.252-.4-.71-.424-1.022-1.689-2.02-1.556-.548.072-.72.605-1.3.53-.612-.079-1.01-.632-1.58-.813-.986-.314-1.515.785-2.409-.172-.656-.703-.666-1.67-1.771-1.905-1.056-.224-1.328.916-2.222.994-1.195.116-1.445-.268-2.348-1.061-.807-.708-4.57-1.004-4.715-1.958-.205-1.338-.098-2.092-.897-3.307-.807-1.223-1.604-.504-2.93-.634-.807-.082-.794-1.075-1.345-1.451-.443-.303-1.945-.46-2.493-.324-1.143.283-2.144.91-3.128 1.549.195-.133-1.745-.757-1.919-.747-.548.029-1.297.166-1.6.695-.117.202-.132.776-.337.914.105-.07-1.676-.821-1.979-.847-.76-.066-2.261.098-2.929-.157-.636-.246-.054-1.451-.24-1.927-.432-1.099-2.072-1.007-3.007-.744-.631.178-1.438 1.158-2.009.211-.464-.774-1.78-1.45-2.612-1.755-.974-.356-1.582-.76-2.624-.208-1.63.866-1.367-.736-2.523-1.185-.999-.386-2.098-.272-2.352-1.56-.085-.436-.088-1.011-.457-1.333-.602-.524-.81.147-.666.616-2.022-.724-2.124-3.238-4.466-3.472-2.026-.204-3.263-.324-4.3-2.167-1.17-2.066-1.096-.103-2.038.245-.605.223-3.376-1.768-3.81-2.178-.706-.667-.598-1.379.288-1.642 1.06-.314.66-.972.758-1.79.093-.788.869-1.085.957-1.949.107-.996-.592-1.8-.037-2.778.511-.9 1.011-1.014 1.123-2.151.05-.482.167-.993.56-1.302.642-.5.991-.986 1.398-1.657.502-.819 1.656-.587 2.117-1.522.497-1.01 2.635-2.864 1.156-3.603-.987-.494-.994-1.42-1.609-2.198-.847-1.066-1.238-.313-2.376-.425-1.028-.1-.74-1.21-1.784-.67-.817.421-.912-.853-1.012-1.4-.224-1.227-1.522-3.269-3.078-2.99-.867.155-1.166-.848-1.953-1.052-.638-.167-1.31-.178-1.963-.232-1.238-.103-2.802-.342-2.953-1.853-.153-1.508-.66-3.386-2.404-3.827-1.39-.35-2.378 2.443-2.227 2.492-.67-.219-.855-.811-.958-1.43-.085-.51-.662-.693-.705-1.172-.087-1.02 2.181-1.51.876-2.725-1.261-1.175-.164-2.513-.35-3.854-.067-.5-.933-.937-1.195-1.392-.502-.865-.175-.733.118-1.31.157-.303-1.671-.499-1.704-.774-.098-.86.046-1.795.004-2.675-.037-.826.206-2.311 1.352-1.698 1.329.716.874 1.222 1.412 2.618.314.817 1.437 2.03 2.422 1.649 1.529-.58.72-.674.874-1.86.096-.742 1.481-.4 1.717-1.148.207-.652 1.92-.299 2.472-.598 1.53-.834 2.104-1.775 1.193-3.456-.89-1.65-3.54-2.14-2.166-4.412 1.2-1.988-1.902-2.751-3.49-2.684-1.462.068-1.597-.242-1.433-1.858.058-.574.068-1.217.325-1.75.328-.672 1.154-.888 1.474-1.5.1-.186-.508-1.185-.56-1.387-.233-.866-.883.023-1.424-.516-.52-.519-.517-.856-.023-1.482.973-1.23 2.02-.259 3.327.257.466.183 2.23.99 2.281-.12.038-.896.986-1.009 1.29-1.851.339-.95.436-1.932.657-2.9.118-.526 1.707-.76 2.071-.857 1.33-.347-.144-1.565.712-2.183.726-.53 1.623.018 2.264-.523.996-.841.666-1.275.609-2.383-.051-.98.656-1.978.787-2.965.128-.949 1.223-1.405 1.573-2.226.285-.677.247-2.432.01-3.139-.327-.98-1.932-1.506-2.636-2.11-1.294-1.107-1.223-1.67-3.114-1.756-.928-.04-2.407-.545-3.067-1.222-.452-.463-.636-1.553-1.48-1.138-1.106.543-1.958 1.423-3.196 1.735-.599.15-2.946-.737-3.065-.302-.555 2.013-3.872.531-5.38 1.414-.873.514-.78 1.772-1.693 2.272-.831.456-2.76 1.01-3.665 1.014-.453.003-.758.247-1.033.554-.241.272-.938.05-1.227.038-1.082-.047-.83-1.13-1.123-1.956-.787-2.218-2.271-2.396-4.398-2.13-2.527.318-2.739-1.41-3.327-3.556-.27-.982-.584-1.193-1.547-1.587-1.08-.443-1.16-1.982-2.256-2.182-1.174-.214-2.07-.376-3.157-.919-1.16-.577-.766-1.581-1.602-2.262-1.402-1.133-2.222-1.782-3.085-3.383-.515-.975-.54-.632-1.415-1.103-.694-.37-.023-1.517-.799-1.77-1.298-.421-.97.18-2.097.573-.653.23-1.512-.796-1.761.041-.28.949-1.604.245-1.886-.219-.407-.67-.958-1.232-1.612-.528-.397.43-.83 1.213-1.532 1.092-1.123-.196-.969-1.179-2.174-.332-.576.407-2.01.735-2.312 1.258-.555.957-1.77-.183-2.491-.254-1.35-.13-.079 1.759-1.451 2.156-.834.244-1.357-.278-2.083-.548-1.294-.482-2.427.718-3.693.319-1.796-.564-.704 2.837-2.322 2.721-.641-.047-1.297.587-1.117 1.26.394 1.501-.984.659-1.797 1.47-.845.844-1.068.633-2.083 1.038-.71.283-.23 2.32.087 2.777.833 1.229-.541 3.422 2.029 3.127 1.041-.119 2.456-.258 3.49-.013.334.08.69.475.87.73.56.795 1.35 1.24 1.884 1.974.322.44.58 1.058.928 1.449 1.088 1.22 1.398-.29 2.204-.55.158-.05.52 3.039.914 3.29.557.356 1.023 1.021 1.499 1.496.493.492 1.52.153 2.086.502.514.32.28 1.18-.155 1.401-.797.41-.733.712-1.195 1.366-.794 1.127-2.744.293-3.398 1.73-.269.592-3.152 2.254-3.143 2.316.082.573.552.896.454 1.65-.084.67-.405 1.484.044 2.099.597.816 1.136.479.77 1.694-.276.93-1.226.666-.954 1.815.255 1.075 1.18 1.039 1.25 2.017.085 1.166-.044 2.348.803 3.289-.632-.705-.844 2.463-.854 2.755-.054 1.476-1.302 2.79.074 4.125 1.889 1.833 4.308 1.22 6.263 2.614.662.47 1.256 2.013 2.148 1.931.352-.033 2.45-.257 2.709.1.138.19-.453 1.624-.263 2.118.241.626 1.066 1.297 1.703 1.43.81.176 1.833.285 2.663.285.723-.001.524.789 1.37.733"/>
    </defs>
    <g fill="none" fill-rule="evenodd">
        <g transform="translate(-230 -876)">
            <use fill="#000" filter="url(#yl9t8flm0a)" xlink:href="#9tvzhxi1tb"/>
            <use fill="#FFF" xlink:href="#9tvzhxi1tb"/>
        </g>
    </g>
</svg>
