<svg xmlns="http://www.w3.org/2000/svg" width="123" height="96" viewBox="0 0 123 96">
    <g fill="none" fill-rule="evenodd">
        <path fill="#25313B" fill-rule="nonzero" d="M81 4L88 4 88 20 81 20zM81.75 71V53.198c0-.132-.013-.263-.039-.392L78.04 34.73c-.201-.989.377-1.97 1.35-2.29L83.781 31h4.062L98 51 85.813 71H81.75z"/>
        <path fill="#CCCBCB" fill-rule="nonzero" d="M48.455 55l7.922 3.961C59.21 60.378 61 63.274 61 66.441V78H50.545L38 65.455V55h10.455z"/>
        <circle cx="17" cy="79" r="14" fill="#EFE8E0" fill-rule="nonzero"/>
        <path fill="#25313B" fill-rule="nonzero" d="M15.5 96C6.94 96 0 89.06 0 80.5 0 71.94 6.94 65 15.5 65 24.06 65 31 71.94 31 80.5c-.01 8.556-6.944 15.49-15.5 15.5zm0-27.125c-6.42 0-11.625 5.205-11.625 11.625S9.08 92.125 15.5 92.125 27.125 86.92 27.125 80.5c-.007-6.417-5.208-11.618-11.625-11.625z"/>
        <path fill="#CCCBCB" fill-rule="nonzero" d="M49 71.667V85H16.481C15.111 85 14 83.561 14 81.786c0-1.286.592-2.448 1.504-2.954L33.216 69h7.549L49 71.667z"/>
        <circle cx="15.5" cy="80.5" r="4.5" fill="#F5822D"/>
        <path fill="#EFE8E0" fill-rule="nonzero" d="M96.197 69c-5.091 5.619-5.615 14.646-1.217 20.962 4.398 6.316 12.312 7.903 18.378 3.685 6.066-4.218 8.345-12.893 5.292-20.145"/>
        <path fill="#25313B" fill-rule="nonzero" d="M106 96c-6.907 0-13.128-4.015-15.739-10.16-2.61-6.144-1.092-13.196 3.842-17.84l2.976 2.915c-4.635 4.368-5.112 11.385-1.108 16.296 4.004 4.91 11.21 6.144 16.733 2.865s7.598-10.022 4.82-15.66l3.839-1.75c1.084 2.186 1.643 4.578 1.637 7-.01 9.017-7.616 16.324-17 16.334z"/>
        <path fill="#D4D4D4" fill-rule="nonzero" d="M97.571 72L93 56 104.429 56 109 72z"/>
        <path fill="#25313B" fill-rule="nonzero" d="M109.586 74l2.242 6.639c.281.833.216 1.743-.182 2.53-.398.785-1.096 1.383-1.94 1.66-1.585.522-3.316-.186-4.063-1.66L101 74h8.586z"/>
        <circle cx="107.5" cy="80.5" r="4.5" fill="#F5822D"/>
        <path fill="#CCCBCB" fill-rule="nonzero" d="M92 67.8h11.405l1.514-1.273c.401-.337.945-.527 1.513-.527h6.924c.486 0 .958.14 1.337.394l7.504 5.049c.57.383.868.984.791 1.595-.077.61-.518 1.146-1.171 1.42l-1.289.542h-19.263L92 71.104V67.8zM81.525 36c.053-.024.094-.066.15-.085L92 32.38v-6.163c0-2.18-.843-4.27-2.343-5.81C88.157 18.866 86.122 18 84 18h-2.93c-.668 0-1.293.343-1.664.915l-3.07 4.73c-.22.338-.336.734-.336 1.14v4.69c0 .544.21 1.067.586 1.452L81.525 36z"/>
        <path fill="#FFF" fill-rule="nonzero" d="M104.913 59.154h-2.087L86.75 84.04c-.387.6-1.039.959-1.736.959H53.275c-.351 0-.697-.092-1.006-.267L12.081 61.921C11.414 61.543 11 60.82 11 60.034v-5.188c0-1.19.934-2.154 2.087-2.154h5.217c.657 0 1.276-.319 1.67-.861l5.635-7.754 31.304 6.461-12.586 11.134c-.487.43-.755 1.069-.726 1.73.028.662.35 1.273.872 1.658l11.896 8.77c.354.26.778.4 1.213.4h23.193c.733 0 1.412-.396 1.79-1.045l11.38-19.577c.336-.577.391-1.283.149-1.908L86.13 31.154 92.391 29l14.17 18.801c.284.378.439.844.439 1.323V57c0 1.19-.934 2.154-2.087 2.154z"/>
        <path fill="#25313B" fill-rule="nonzero" d="M28 46v-8h22.161c.32 0 .635.096.92.282l10.78 6.98c.698.453 1.139 1.376 1.139 2.386v2.037c0 1.01-.44 1.934-1.138 2.385L58.882 54 28 46zM67 19L83 19 83 26 67 26zM81.25 0h2.25C85.985 0 88 2.015 88 4.5v2.25C88 7.993 86.993 9 85.75 9h-4.5C80.007 9 79 7.993 79 6.75v-4.5C79 1.007 80.007 0 81.25 0z"/>
        <path fill="#CCCBCB" fill-rule="nonzero" d="M0 31.828v5.936c0 .757.482 1.45 1.244 1.789L13.5 45H27V29c0-1.105-1.007-2-2.25-2H5.432c-.597 0-1.17.21-1.591.586L.659 30.414C.237 30.79 0 31.298 0 31.828z"/>
        <path fill="#F5822D" fill-rule="nonzero" d="M27 47l-7.2 8.1c-.504.567-1.294.9-2.133.9H11v-9h16z"/>
    </g>
</svg>
