<?xml version="1.0" encoding="UTF-8"?>
<svg width="75px" height="70px" viewBox="0 0 75 70" version="1.1" xmlns="http://www.w3.org/2000/svg" xmlns:xlink="http://www.w3.org/1999/xlink">
    <title>Group 13</title>
    <g id="Desktop" stroke="none" stroke-width="1" fill="none" fill-rule="evenodd">
        <g id="-01_Return&amp;replace_Desktop" transform="translate(-645.000000, -170.000000)" fill-rule="nonzero">
            <g id="Group-13" transform="translate(645.000000, 170.000000)">
                <g id="Group-12" transform="translate(0.000000, 1.232143)">
                    <g id="Group-19" transform="translate(34.294643, 33.883929) scale(-1, 1) translate(-34.294643, -33.883929) translate(0.410714, 0.000000)">
                        <g id="transport-(2)" transform="translate(0.143750, 0.000000)">
                            <path d="M51.9788392,33.3479088 L43.4121889,32.6489936 C42.1376302,32.5452845 41.1871207,31.4225605 41.2901974,30.1400505 C41.3388507,29.5274276 41.6270985,28.9590065 42.0913374,28.5582881 L48.6136317,22.9289665 C46.2508655,19.5465443 42.8404144,17.0481567 38.9158909,15.8239666 L35.606156,23.8141887 C35.1141152,25.0022257 33.7585114,25.5624662 32.5777184,25.0674068 C32.0139436,24.8309605 31.5659661,24.3802347 31.3321418,23.8141887 L28.0305377,15.8309598 C24.1060142,17.0551499 20.6955631,19.5535374 18.3327969,22.9359596 L24.8550912,28.5652812 C25.8263209,29.4027392 25.9387087,30.8726117 25.1063572,31.8499318 C24.7080822,32.3170188 24.143127,32.6058475 23.5342397,32.6559867 L14.9675894,33.3549019 C14.9675894,33.453861 14.952505,33.5493895 14.952505,33.6484806 C14.9501476,37.6844287 16.2594587,41.6107302 18.6801892,44.8301997 L26.0092625,40.3319146 C27.1008796,39.6621594 28.5259882,40.009308 29.1916595,41.1076221 C29.5100697,41.632897 29.6084254,42.2630686 29.4671866,42.8606496 L27.4781721,51.2701943 C31.3621731,52.6271216 35.587534,52.6271216 39.471535,51.2701943 L37.4826516,42.8606496 C37.1862731,41.6096746 37.953841,40.352894 39.1982373,40.0546972 C39.7921746,39.9125919 40.4183725,40.011551 40.9405757,40.3319146 L48.2662394,44.8232066 C50.6868387,41.603869 51.9962809,37.6774356 51.9939236,33.6414875 C51.9939236,33.5425284 51.9810686,33.4469999 51.9788392,33.3479088 Z M33.4713127,37.1357994 C31.5531143,37.1357994 29.9983074,35.5715859 29.9983074,33.6414875 C29.9983074,31.711521 31.5529832,30.1471755 33.4713127,30.1471755 C35.3895112,30.1471755 36.9443181,31.7113891 36.9443181,33.6414875 C36.9443181,35.5714539 35.3895112,37.1357994 33.4713127,37.1357994 Z" id="Shape" fill="#C8C8C8"></path>
                            <path d="M33.4732143,0 C14.9867164,0 0,15.1706025 0,33.8839286 C0,52.5972546 14.9867164,67.7678571 33.4732143,67.7678571 C51.9597122,67.7678571 66.9464286,52.5972546 66.9464286,33.8839286 C66.9464286,15.1706025 51.9597122,0 33.4732143,0 Z M33.4732143,52.5784596 C23.2731675,52.5784596 15.0052836,44.2091293 15.0052836,33.8839286 C15.0052836,23.5587279 23.2731675,15.1893975 33.4732143,15.1893975 C43.6732611,15.1893975 51.941145,23.5587279 51.941145,33.8839286 C51.941145,44.2091293 43.6732611,52.5784596 33.4732143,52.5784596 Z" id="Shape" fill="#2B2733"></path>
                            <path d="M55.3476034,8.2559826 C67.4270935,22.4113128 65.8853564,43.7990105 51.9016059,56.0268475 C39.3385336,67.0128309 20.7189824,67.0128309 8.15591008,56.0268475 C20.2296479,70.1880005 41.3582314,71.7604327 55.3477342,59.5373598 C69.3372369,47.314287 70.8906092,25.927648 58.8156949,11.766495 C57.745774,10.5118047 56.5870853,9.33889897 55.3476034,8.2559826 Z" id="Path" fill="#1A1721"></path>
                            <polygon id="Rectangle" fill="#555160" transform="translate(23.664536, 3.323947) rotate(162.001696) translate(-23.664536, -3.323947) " points="22.5150829 1.57737491 24.8264766 1.56905035 24.8139897 5.0705184 22.5025961 5.07884296"></polygon>
                            <polygon id="Rectangle" fill="#3B3944" transform="translate(43.283998, 64.438694) rotate(162.001696) translate(-43.283998, -64.438694) " points="42.134545 62.6921226 44.4459387 62.683798 44.4334518 66.1852661 42.1220582 66.1935906"></polygon>
                            <rect id="Rectangle" fill="#555160" x="32.2838107" y="0" width="2.37880711" height="3.43999275"></rect>
                            <rect id="Rectangle" fill="#3B3944" x="32.2838107" y="64.3278644" width="2.37880711" height="3.43999275"></rect>
                            <polygon id="Rectangle" fill="#555160" transform="translate(14.815927, 7.889554) rotate(143.990741) translate(-14.815927, -7.889554) " points="13.6669282 6.1511121 15.9851305 6.13764179 15.9649254 9.62799522 13.6467231 9.64146553"></polygon>
                            <polygon id="Rectangle" fill="#3B3944" transform="translate(52.127117, 59.876599) rotate(143.990741) translate(-52.127117, -59.876599) " points="50.9781183 58.1381571 53.2963206 58.1246868 53.2761155 61.6150403 50.9579132 61.6285106"></polygon>
                            <polygon id="Rectangle" fill="#555160" transform="translate(7.793446, 14.998464) rotate(126.009259) translate(-7.793446, -14.998464) " points="6.64007521 13.2665803 8.96702143 13.25311 8.94681634 16.7303478 6.61987012 16.7438182"></polygon>
                            <polygon id="Rectangle" fill="#3B3944" transform="translate(59.154097, 52.771060) rotate(126.009259) translate(-59.154097, -52.771060) " points="58.0007268 51.0391765 60.3276731 51.0257061 60.307468 54.502944 57.9805218 54.5164143"></polygon>
                            <polygon id="Rectangle" fill="#555160" transform="translate(3.282969, 23.955385) rotate(107.998304) translate(-3.282969, -23.955385) " points="2.12205607 22.2260019 4.4563681 22.2176773 4.44388126 25.6847678 2.10956923 25.6930923"></polygon>
                            <polygon id="Rectangle" fill="#3B3944" transform="translate(63.662304, 43.821841) rotate(107.998304) translate(-63.662304, -43.821841) " points="62.5013913 42.0924583 64.8357034 42.0841338 64.8232165 45.5512242 62.4889045 45.5595488"></polygon>
                            <rect id="Rectangle" fill="#555160" x="0" y="32.6799311" width="3.39829587" height="2.40799492"></rect>
                            <rect id="Rectangle" fill="#3B3944" x="63.5481327" y="32.6799311" width="3.39829587" height="2.40799492"></rect>
                            <g id="Group" transform="translate(1.359318, 1.375997)" fill="#555160">
                                <polygon id="Rectangle" transform="translate(2.101014, 42.394300) rotate(161.994476) translate(-2.101014, -42.394300) " points="0.381083257 41.2397136 3.82922649 41.2272907 3.8209444 43.5488856 0.372801171 43.5613085"></polygon>
                                <polygon id="Rectangle" transform="translate(6.576328, 51.301527) rotate(143.998744) translate(-6.576328, -51.301527) " points="4.85356815 50.1542724 8.31248482 50.1341756 8.29908718 52.4487815 4.84017051 52.4688783"></polygon>
                                <polygon id="Rectangle" transform="translate(50.681017, 6.661034) rotate(126.001256) translate(-50.681017, -6.661034) " points="48.9517285 5.51813216 52.4237029 5.49803532 52.4103053 7.80393623 48.9383309 7.82403307"></polygon>
                                <polygon id="Rectangle" transform="translate(41.880804, 2.124023) rotate(108.005524) translate(-41.880804, -2.124023) " points="40.1437814 0.980831439 43.6261081 0.968408545 43.617826 3.2672141 40.1354993 3.27963699"></polygon>
                            </g>
                            <g id="Group" transform="translate(12.913524, 13.071972)" fill="#3B3944">
                                <path d="M52.5696694,11.4922131 L51.8590312,9.28411149 L49.6087636,10.0244022 C49.7752381,10.784441 49.9198629,11.5514574 50.0347043,12.3290062 L52.5696694,11.4922131 Z" id="Path"></path>
                                <path d="M48.1599148,1.9308382 L46.8109508,0.0504234986 L46.0280002,0.631544446 C46.4103714,1.30903615 46.7788264,1.99706019 47.1152871,2.70483232 L48.1599148,1.9308382 Z" id="Path"></path>
                                <path d="M0.0498123047,47.3851866 L1.9074341,48.7507024 L2.66749444,47.6931254 C1.96830136,47.3526681 1.28978754,46.9795605 0.619337324,46.5924976 L0.0498123047,47.3851866 Z" id="Path"></path>
                                <path d="M9.16806523,52.4953383 L11.349402,53.214696 L12.1725406,50.6486271 C11.4044166,50.5323765 10.6466973,50.3859772 9.89587113,50.2174601 L9.16806523,52.4953383 Z" id="Path"></path>
                            </g>
                            <g id="Group" transform="translate(9.175399, 9.287980)" fill="#555160">
                                <path d="M52.9151101,16.2495029 L53.6553725,16.0055116 C53.540576,15.2282665 53.3960077,14.4615496 53.2295982,13.7018076 L52.2047495,14.0387104 L52.9151101,16.2495029 Z" id="Path"></path>
                                <path d="M48.9970758,7.66427386 L50.7369654,6.38641234 C50.4007662,5.67891661 50.0323251,4.9923457 49.6501032,4.31393415 L47.6474685,5.78696237 L48.9970758,7.66427386 Z" id="Path"></path>
                                <path d="M5.71447724,48.2321 L4.25930391,50.2593069 C4.92832222,50.6462186 5.60774112,51.0190489 6.30666115,51.3595049 L7.56903343,49.5982669 L5.71447724,48.2321 Z" id="Path"></path>
                                <path d="M13.8685442,52.8452985 L13.5357251,53.8827221 C14.2862581,54.0511734 15.0436815,54.1975155 15.8115054,54.3137207 L16.0525392,53.5643753 L13.8685442,52.8452985 Z" id="Path"></path>
                                <path d="M24.1813847,0.0817252321 C10.8709625,0.0817252321 0.0807346232,11.0043486 0.0807346232,24.4780888 C0.0807346232,37.9518291 10.8709625,48.8744524 24.1813847,48.8744524 C37.4918069,48.8744524 48.2820348,37.9518291 48.2820348,24.4780888 C48.2820348,11.0043486 37.4918069,0.0817252321 24.1813847,0.0817252321 Z M24.1813847,43.0657756 C14.039634,43.0657756 5.81900322,34.7442783 5.81900322,24.4780888 C5.81900322,14.2118994 14.039634,5.89040203 24.1813847,5.89040203 C34.3231355,5.89040203 42.5437662,14.2118994 42.5437662,24.4780888 C42.5437662,34.7442783 34.3231355,43.0657756 24.1813847,43.0657756 Z" id="Shape"></path>
                            </g>
                            <path d="M50.027212,15.8239666 C59.218175,25.7490173 58.7217072,41.337563 48.9170584,50.6425889 C39.5567077,59.5248648 24.9925117,59.5248648 15.632161,50.6425889 C24.7964477,60.5946434 40.195887,61.141771 50.0283947,51.8650791 C59.8609025,42.5883873 60.40021,26.9997085 51.2360548,17.0464568 C50.8473433,16.6249039 50.4436511,16.2174515 50.027212,15.8239666 Z" id="Path" fill="#3B3944"></path>
                            <g id="Group" opacity="0.441336496" transform="translate(18.350798, 15.823967)" fill="#716D7B">
                                <path d="M25.400666,2.49409303 C23.8622471,1.40666218 22.1674117,0.565600332 20.3755438,0.00222780483 L19.7462553,1.53037087 C21.6615486,1.63219465 23.5584705,1.95496426 25.400666,2.49409303 Z" id="Path"></path>
                                <path d="M10.7500432,2.71268 L9.63999074,0.00222780483 C5.76826223,1.21808505 2.40369057,3.69946649 0.0727097314,7.05886512 L1.41693412,8.22728323 C4.09619716,5.72401689 7.28041764,3.84296333 10.7500432,2.71268 Z" id="Path"></path>
                            </g>
                        </g>
                    </g>
                </g>
                <g id="error" transform="translate(49.285714, 0.000000)">
                    <path d="M21.1882157,22.1785714 L3.50241177,22.1785714 C2.28864688,22.1785714 1.16118912,21.5491471 0.52311929,20.5148907 C-0.11513902,19.4808231 -0.173179633,18.1895125 0.369726218,17.1020334 L9.21262819,1.93904202 C9.80603691,0.750779572 11.0186712,0 12.3453137,0 C13.6719563,0 14.8845906,0.750779572 15.4779993,1.93904202 L24.3209013,17.1020334 C24.8638071,18.1895125 24.8057665,19.4808231 24.1675082,20.5148907 C23.5294384,21.5491471 22.402169,22.1785714 21.1882157,22.1785714 Z" id="Path" fill="#F0C419"></path>
                    <path d="M21.1902886,22.1785714 L12.3453137,22.1785714 L12.3453137,0 C13.6751598,-0.0082362583 14.8926937,0.745560678 15.4796953,1.94080257 L24.3203359,17.1031812 C24.8639955,18.189902 24.8067087,19.4812087 24.1690157,20.5152732 C23.5311343,21.5495264 22.4040534,22.1789487 21.1902886,22.1785714 L21.1902886,22.1785714 Z" id="Path" fill="#F0C419"></path>
                    <g id="Group-14" transform="translate(11.347116, 7.736711)" fill="#2C3E50">
                        <path d="M2.43347923,10.4997507 C2.43347923,11.211984 1.88860817,11.7892738 1.21667232,11.7892738 C0.544736466,11.7892738 -7.72234673e-14,11.211984 -7.72234673e-14,10.4997507 C-7.72234673e-14,9.78766005 0.544736466,9.21037019 1.21667232,9.21037019 C1.88860817,9.21037019 2.43347923,9.78766005 2.43347923,10.4997507 Z" id="Path"></path>
                        <path d="M2.43347923,10.4997508 C2.43347923,10.8418167 2.30533762,11.1697607 2.07718631,11.4116889 C1.84890041,11.6534745 1.53944921,11.7892738 1.21667232,11.7892738 L1.21667232,9.21037019 C1.53944921,9.21022767 1.84890041,9.346027 2.07718631,9.58795523 C2.30533762,9.82974082 2.43347923,10.1578274 2.43347923,10.4997508 Z" id="Path"></path>
                        <path d="M1.21667232,0 C1.88860817,0 2.43347923,0.537587592 2.43347923,1.20083809 L2.43347923,6.90442051 C2.43347923,7.56753818 1.88860817,8.10512577 1.21667232,8.10512577 C0.544736466,8.10512577 -7.72234673e-14,7.56753818 -7.72234673e-14,6.90442051 L-7.72234673e-14,1.20083809 C-7.72234673e-14,0.537587592 0.544736466,0 1.21667232,0 L1.21667232,0 Z" id="Path"></path>
                        <path d="M2.43348018,1.20083888 L2.43348018,6.90442056 C2.43348018,7.22296143 2.30533762,7.52835153 2.07718631,7.75350862 C1.84890041,7.97879857 1.53944921,8.10525849 1.21667232,8.10512577 L1.21667232,0 C1.53944921,-0.000397542794 1.84930423,0.12592952 2.07759013,0.351219469 C2.30574143,0.576509418 2.43388305,0.882165172 2.43348018,1.20083888 Z" id="Path"></path>
                    </g>
                </g>
            </g>
        </g>
    </g>
</svg>