<svg xmlns="http://www.w3.org/2000/svg" xmlns:xlink="http://www.w3.org/1999/xlink" width="80" height="80" viewBox="0 0 80 80">
    <defs>
        <path id="r856d0m23a" d="M0 0H80V80H0z"/>
    </defs>
    <g fill="none" fill-rule="evenodd">
        <g>
            <g transform="translate(-52 -74) translate(52 74)">
                <mask id="u88hhixwob" fill="#fff">
                    <use xlink:href="#r856d0m23a"/>
                </mask>
                <g mask="url(#u88hhixwob)">
                    <g>
                        <path fill="#81ADD6" d="M0 31.707l142.222-2.331V9.296c-3.555-6.809-6.532-8.532-13.253-1.362-6.827 7.283-13.944 4.797-23.156 6.775-12.752 2.735-27.468-8.867-33.556-8.867-9.964 0-19.002 12.031-28.575 8.219C31.716 9.295 19.168-1.79 13.835 1.056 6.586 4.926 0 5.551 0 5.551v26.156z" transform="translate(0 40.889)"/>
                        <path fill="#6890B5" d="M0 34.374h142.222V17.583s-7.392 3.394-15.786 3.394c-8.676 0-18.347 1.358-24.376 1.358-7.035 0-12.125-4.379-24.779-6.048-8.574-1.13-19.775 5.386-28.357 2.993-14.87-4.147-24.747-5.77-32.995-5.77-9.672 0-14.836-.32-15.929-1.359v22.223z" transform="translate(0 40.889)"/>
                        <path fill="#A0C1E0" d="M142.222 34.374H0V17.649s10.523 7.245 18.917 7.245c8.675 0 19.472-8.433 29.723-3.188 8.955 4.581 23.524-2.635 32.964 1.015 13.509 5.222 21.349.645 30.121 1.43 5.339.478 13.53-6.045 17.244-6.502 8.752-1.077 12.625-2.455 13.253-3.72v20.445z" transform="translate(0 40.889)"/>
                        <path fill="#81ADD6" d="M0 38.818L142.222 38.818 142.222 29.929 0 29.929z" transform="translate(0 40.889)"/>
                    </g>
                </g>
            </g>
        </g>
    </g>
</svg>
