<svg xmlns="http://www.w3.org/2000/svg" xmlns:xlink="http://www.w3.org/1999/xlink" width="120" height="120" viewBox="0 0 120 120">
    <defs>
        <circle id="13g76xkf0a" cx="60" cy="60" r="60"/>
    </defs>
    <g fill="none" fill-rule="evenodd">
        <g>
            <g transform="translate(-930 -1506) translate(930 1506)">
                <mask id="a98v30g83b" fill="#fff">
                    <use xlink:href="#13g76xkf0a"/>
                </mask>
                <use fill="#F8F8F8" xlink:href="#13g76xkf0a"/>
                <path fill="#EFEFEF" fill-rule="nonzero" d="M131.576 30.895c.664-.778.902-1.055 1.566-1.836-.84-6.036-6.023-10.684-12.29-10.684-1.206 0-2.374.176-3.476.496-.66.195-1.37-.05-1.75-.625-2.879-4.363-7.824-7.246-13.441-7.246-7.41 0-13.645 5.004-15.52 11.816-.191.704-.843 1.149-1.574 1.149h-.012c-3.378 0-6.324 1.851-7.878 4.594-.59 1.043.195 2.336 1.39 2.336h52.985z" mask="url(#a98v30g83b)" transform="matrix(-1 0 0 1 210.142 0)"/>
                <g mask="url(#a98v30g83b)">
                    <g transform="translate(7 34)">
                        <path fill="#808B95" fill-rule="nonzero" d="M78 11.526L78 84 4 84 4 11.526 41 3z"/>
                        <path fill="#F7F0DF" fill-rule="nonzero" d="M16 27L67 27 67 84 16 84z"/>
                        <rect width="11" height="5" x="36" y="15" fill="#F8F8F8" fill-rule="nonzero" rx="2.5" transform="rotate(-180 41.5 17.5)"/>
                        <path fill="#E3E4E2" fill-rule="nonzero" d="M83 10.182L41.5 0 0 10.182 0 16 41.5 5.818 83 16z"/>
                        <path fill="#C9C9C8" fill-rule="nonzero" d="M16 28L67 28 67 52 16 52z"/>
                        <g>
                            <path fill="#B2B1B4" fill-rule="nonzero" d="M0 0L51 0 51 2.857 0 2.857zM0 11.429L51 11.429 51 14.286 0 14.286z" transform="translate(16 33)"/>
                        </g>
                        <path fill="#9FCBD1" fill-rule="nonzero" d="M51 84L51 61.5 25.5 61.5 25.5 39 0 39 0 84z"/>
                        <path fill="#69A1AC" fill-rule="nonzero" d="M52 62h-2.206c-1.218 0-2.206.985-2.206 2.2v3.723c0 6.449-5.242 11.676-11.708 11.677h-6.674c-1.218 0-2.206.985-2.206 2.2V84h25V62z"/>
                        <path fill="#F9CD61" fill-rule="nonzero" d="M9 60L18 60 18 69 9 69z"/>
                        <path fill="#69A1AC" fill-rule="nonzero" d="M26 62h-2.206c-1.218 0-2.206.985-2.206 2.2v3.723c0 6.449-5.242 11.676-11.708 11.677H3.206C1.988 79.6 1 80.585 1 81.8V84h25V62z"/>
                        <path fill="#F9CD61" fill-rule="nonzero" d="M9 38L18 38 18 47 9 47z"/>
                        <path fill="#69A1AC" fill-rule="nonzero" d="M26 39h-2.206c-1.218 0-2.206.985-2.206 2.2v3.723c0 6.449-5.242 11.676-11.708 11.677H3.206C1.988 56.6 1 57.585 1 58.8V61h25V39z"/>
                    </g>
                </g>
            </g>
        </g>
    </g>
</svg>
