<svg xmlns="http://www.w3.org/2000/svg" xmlns:xlink="http://www.w3.org/1999/xlink" width="120" height="120" viewBox="0 0 120 120">
    <defs>
        <circle id="vw3cj9dkma" cx="60" cy="60" r="60"/>
    </defs>
    <g fill="none" fill-rule="evenodd">
        <g>
            <g transform="translate(-125 -1506) translate(125 1506)">
                <mask id="4he99q7owb" fill="#fff">
                    <use xlink:href="#vw3cj9dkma"/>
                </mask>
                <use fill="#F8F8F8" xlink:href="#vw3cj9dkma"/>
                <g mask="url(#4he99q7owb)" opacity=".4">
                    <g fill-rule="nonzero">
                        <path fill="#D3D3D8" d="M53.061 37.888h-29.45c-.98 0-1.775-1.39-1.775-3.106 0-1.715.794-3.105 1.774-3.105h29.451c.98 0 1.775 1.39 1.775 3.105s-.795 3.106-1.775 3.106z" opacity=".528" transform="translate(0 31)"/>
                        <path fill="#C2C2C6" d="M29.623 23.385H12.378c-1.314 0-2.378-1.39-2.378-3.106 0-1.715 1.064-3.105 2.378-3.105h17.244c1.314 0 2.378 1.39 2.378 3.105 0 1.716-1.064 3.106-2.377 3.106zM34.722 6.211h-11.18C22.69 6.211 22 4.821 22 3.106 22 1.39 22.69 0 23.541 0h11.18c.852 0 1.542 1.39 1.542 3.106 0 1.715-.69 3.105-1.541 3.105z" opacity=".956" transform="translate(0 31)"/>
                        <path fill="#D3D3D8" d="M12.722 6.211H1.542C.69 6.211 0 4.821 0 3.106 0 1.39.69 0 1.541 0h11.18c.852 0 1.542 1.39 1.542 3.106 0 1.715-.69 3.105-1.541 3.105z" opacity=".723" transform="translate(0 31)"/>
                    </g>
                </g>
                <g mask="url(#4he99q7owb)">
                    <g>
                        <path fill="#FABE2C" fill-rule="nonzero" d="M41.986 1.505c.005-.398-.147-.78-.42-1.062-.274-.282-.647-.439-1.034-.436L33.434 0c-.199.038-.38.143-.514.297L17.198 16.404c-5.83-1.847-12.139.616-15.29 5.97-3.152 5.355-2.335 12.22 1.98 16.642 4.316 4.421 11.018 5.259 16.244 2.03 5.226-3.229 7.63-9.692 5.828-15.666l1.563-1.6c.091-.098.139-.23.13-.364l-.355-3.943c-.01-.135.037-.268.13-.364.094-.096.223-.144.355-.133l3.524.334c.13.01.26-.04.353-.135.094-.095.141-.227.131-.362l-.325-3.61c-.011-.135.036-.268.13-.364.093-.095.223-.144.355-.133l3.523.334c.131.01.26-.039.354-.134.093-.096.14-.228.13-.363l-.318-3.624c-.01-.133.036-.265.128-.359.092-.094.22-.142.35-.13l3.87.355c.13.012.258-.037.348-.133l1.461-1.542c.13-.14.203-.326.203-.519l-.014-7.086zM12.025 35.81c-1.013 1.037-2.535 1.347-3.858.786-1.323-.561-2.186-1.884-2.186-3.351s.863-2.79 2.186-3.351c1.323-.562 2.845-.251 3.858.786 1.382 1.417 1.382 3.713 0 5.13z" transform="matrix(1 0 0 -1 41 76)"/>
                        <path fill="#FFA12E" fill-rule="nonzero" d="M41 .349L11.805 30.655c-1.374-1.345-3.529-1.313-4.864.073-1.335 1.387-1.367 3.624-.07 5.05L3.765 39c-.322-.342-.63-.705-.93-1.091-3.571-4.682-3.79-11.232-.54-16.16 3.25-4.927 9.212-7.083 14.709-5.32L32.546.298c.133-.154.312-.259.508-.297l7.016.007c.339-.002.668.118.93.342z" transform="matrix(1 0 0 -1 41 76)"/>
                        <g>
                            <g fill="#FFF" fill-rule="nonzero">
                                <path d="M.738 13.939c-.298 0-.567-.17-.682-.43-.114-.261-.05-.56.16-.76L11.713 1.895c.186-.18.46-.253.718-.189.258.064.459.254.527.497.067.244-.01.503-.2.678L1.26 13.735c-.139.13-.327.204-.523.204zM14.906.697c0-.385-.33-.697-.738-.697s-.738.312-.738.697c0 .385.33.697.738.697s.738-.312.738-.697z" transform="matrix(1 0 0 -1 41 76) translate(20 2) rotate(-3 27.281 -11.86)"/>
                            </g>
                        </g>
                    </g>
                </g>
                <g fill-rule="nonzero" mask="url(#4he99q7owb)">
                    <g>
                        <path fill="#D8B494" d="M78.439 16.418l15.246-7.182c3.362-1.693 7.463-.452 9.315 2.818L72.01 32.046c-4.154 1.912-8.817 2.439-13.296 1.501l-21.372-5.983c-1.967-.55-4.072-.32-5.873.642L27 30.59l.601-21.74.179.003c6.386-4.525 14.774-5.11 21.73-1.516L50.79 8c2 1.033 4.209 1.602 6.461 1.663l12.564.346c3.943.108 7.394 2.672 8.624 6.41z" transform="translate(.035 78)"/>
                        <path fill="#C4997A" d="M80.214 21h-.048l-21.182-.566c-.984-.026-1.76-.82-1.733-1.773.027-.954.847-1.705 1.83-1.68l19.197.514c-.059-.282-.136-.56-.229-.833-1.03-3.03-3.91-5.11-7.2-5.202l-12.889-.346c-2.577-.07-5.105-.704-7.397-1.85l-1.31-.658c-6.54-3.303-14.438-2.768-20.439 1.385-.802.553-1.915.37-2.485-.408-.57-.777-.38-1.856.421-2.408 7.088-4.905 16.417-5.537 24.14-1.636l1.313.658c1.813.908 3.814 1.408 5.855 1.465l12.888.345c3.014.078 5.872 1.315 7.945 3.437 2.072 2.122 3.19 4.956 3.104 7.876-.026.936-.816 1.68-1.782 1.68h.001z" transform="translate(.035 78)"/>
                        <path fill="#FFF" d="M29.652 28.695L29.526 30.859 4.067 30.526 5.605 3.859 31.067 4.193 30.763 9.468z" transform="translate(.035 78)"/>
                        <path fill="#89C5CC" d="M25.584 30.355L25.459 33 0 32.593 1.538 0 27 0.408 26.696 6.856z" transform="translate(.035 78)"/>
                    </g>
                </g>
            </g>
        </g>
    </g>
</svg>
