<svg xmlns="http://www.w3.org/2000/svg" xmlns:xlink="http://www.w3.org/1999/xlink" width="200" height="186" viewBox="0 0 200 186">
    <defs>
        <path id="ok3nefktta" d="M69.719 136.782c-4.969 0-10.008-1.441-12.195-3.257-3.307-2.748-3.742-12.133-.845-18.26.543-1.148.453-2.483-.24-3.572-.722-1.134-1.952-1.81-3.292-1.81H31.689v-29.04c0-1.164-.605-2.202-1.617-2.775-.498-.282-1.042-.424-1.586-.424-.565 0-1.13.153-1.644.456-3.791 2.246-9.507 4.974-15.204 5.22-.178.008-.353.012-.526.012-3.902 0-6.627-1.953-8.325-5.959C1.224 73.687.796 68.858.583 64.621c-.187-3.732 3.53-8.75 8.647-11.67 2.817-1.609 5.714-2.414 8.493-2.414 2.666 0 5.222.74 7.493 2.225.138.09 2.929 1.897 4.775 1.897.328 0 .626-.057.874-.191.312-.168.684-.528.684-1.289V25.977h22.798c1.56 0 2.956-.8 3.738-2.139.789-1.351.793-2.974.013-4.34-4.082-7.145-2.54-11.335-.527-13.59C60.86 2.218 65.737 0 70.168 0c.914 0 1.809.094 2.667.29 2.716.617 6.285 2.505 7.86 7.998 1.176 4.102.774 7.87-1.195 11.196-.796 1.344-.807 2.956-.03 4.312.783 1.366 2.193 2.18 3.77 2.18h21.299v28.465c0 1.05-.555 1.965-1.485 2.45-.418.219-.866.327-1.312.327-.563 0-1.124-.173-1.618-.515-4.338-3-7.953-4.003-10.848-4.003-2.17 0-3.934.563-5.294 1.27-4.628 2.404-6.722 7.44-6.73 10.247-.015 4.75 1.54 13.318 5.88 17.464 1.742 1.665 3.789 2.508 6.082 2.508.144 0 .29-.003.436-.01 3.684-.166 7.273-1.239 10.668-3.188.449-.257.94-.387 1.43-.387.485 0 .969.127 1.409.38.865.5 1.382 1.396 1.382 2.397v26.501H82.482c-1.412 0-2.655.735-3.327 1.967-.674 1.236-.616 2.683.155 3.868 1.974 3.034 3.008 6.853 3.073 11.35.055 3.853-1.632 6.622-5.013 8.23-2.206 1.05-4.918 1.485-7.651 1.485m-25.39-89.465c-6.27 0-10.76 1.513-10.76 1.513l-.783 5.045c-.698 4.491.746 8.802 2.335 13.061 5.052 13.537 6.561 17.671 8.07 24.812 1.546.422 3.048.636 4.504.636 4.172 0 7.968-1.765 11.337-5.521.105-.332.208-.66.308-.987l2.983-.48c.325-.053.572-.322.587-.65.021-.456.004-1.133-.188-1.814-.202-.717-.867-1.198-1.605-1.198-.058 0-.116.003-.175.01l-.45.048c7.018-27.371-6.223-33.1-6.223-33.1-3.524-1.028-6.936-1.375-9.94-1.375m14.05-16.11c-.176 0-.325.138-.333.317-.007.183.135.337.319.345.203.01.406.013.61.013.378 0 .757-.015 1.132-.043.012-.002.024-.003.035-.006.165-.03.284-.18.27-.351-.013-.174-.16-.305-.33-.305h-.027c-.358.028-.718.042-1.078.042-.195 0-.39-.004-.584-.013h-.013m-3.353-.555c-.144 0-.277.093-.32.237-.052.176.05.36.225.412.556.164 1.127.295 1.699.39.018.003.036.004.055.004.02 0 .04-.002.06-.006.134-.025.244-.13.268-.271.03-.18-.093-.351-.274-.381-.545-.091-1.09-.216-1.62-.372-.03-.009-.062-.013-.093-.013m8.384-.14c-.035 0-.07.005-.103.016-.524.172-1.064.314-1.606.423-.18.036-.297.21-.261.39.032.158.17.267.326.267.02 0 .04-.002.061-.006h.005c.568-.114 1.135-.264 1.683-.444.175-.058.27-.245.212-.419-.046-.14-.177-.227-.317-.227m-10.75-.797c-.122 0-.24.067-.298.181-.083.164-.017.363.146.446.25.126.51.247.77.36.044.02.088.028.133.028.02 0 .041-.002.06-.005.106-.02.2-.09.245-.194.073-.168-.004-.363-.172-.437-.25-.107-.497-.223-.734-.344-.05-.024-.1-.035-.15-.035m13.823-.649c-.06 0-.122.016-.177.05-.467.294-.956.562-1.457.799-.166.077-.236.276-.158.44.056.12.176.19.3.19.021 0 .042-.001.061-.005.028-.005.055-.014.082-.026.525-.248 1.038-.529 1.526-.836.156-.098.202-.303.105-.458-.064-.1-.172-.154-.282-.154m2.63-2.14c-.087 0-.174.033-.24.101-.382.398-.792.775-1.22 1.123-.143.116-.164.324-.048.466.066.08.162.122.258.122.02 0 .041-.002.061-.005.053-.01.105-.033.15-.07.448-.364.878-.76 1.28-1.177.127-.131.122-.342-.01-.469-.065-.061-.148-.092-.23-.092m2.041-2.706c-.115 0-.227.06-.288.166-.276.475-.584.94-.917 1.381-.11.147-.08.354.067.465.059.044.13.066.199.066.02 0 .041-.002.061-.006.08-.015.153-.058.205-.127.348-.462.671-.949.961-1.448.091-.159.037-.361-.122-.452-.052-.03-.11-.045-.166-.045m1.33-3.116c-.144 0-.277.094-.319.24-.153.527-.34 1.053-.557 1.56-.072.168.007.363.175.434.043.019.087.027.13.027.021 0 .042-.002.062-.006.106-.02.2-.09.245-.195.228-.533.424-1.084.585-1.637.05-.176-.052-.36-.228-.41-.03-.01-.062-.013-.092-.013m3.515-1.161c-.233 0-.446.15-.516.383-.086.284.076.583.361.667.575.172 1.165.321 1.753.443.037.008.074.012.111.012.033 0 .066-.003.098-.01.208-.038.382-.198.428-.418.061-.29-.126-.574-.417-.634-.558-.117-1.118-.258-1.664-.42-.052-.016-.103-.023-.154-.023m-3.468-1.38c-.196 0-.385.107-.48.293-.135.265-.029.588.237.722.262.133.53.26.796.382.072.032.147.048.222.048.033 0 .067-.003.1-.01.166-.03.315-.139.39-.304.125-.27.005-.588-.266-.71-.251-.115-.506-.238-.756-.363-.078-.04-.161-.059-.243-.059M61.466 4.162c-.033 0-.066.003-.1.01l-.01.001c-.291.06-.478.344-.418.634.124.597.274 1.195.448 1.776.07.233.284.383.516.383.032 0 .066-.003.098-.009.019-.003.037-.007.055-.013.286-.084.448-.384.364-.668-.165-.552-.309-1.119-.426-1.686-.053-.254-.277-.428-.527-.428"/>
        <path id="v454v1gsmd" d="M22.89 78.476c-2.555 1.716-5.928 3.384-9.73 3.764-8.416.842-11.783-8.419-12.204-16.417-.421-7.998 6.734-15.576 13.046-14.734 2.974.397 6.227 2.288 8.837 4.177 2.108 1.526 5.052.025 5.052-2.578V23.96h29.056c2.421 0 4.027-2.5 3.014-4.701-2.28-4.956-4.84-12.488-1.269-15.738 5.55-5.052 20.543-5.052 23.069 2.525 1.414 4.243-.507 9.348-2.471 13.018-1.185 2.214.413 4.885 2.923 4.885h24.8v26.605c0 2.838-3.21 4.602-5.524 2.96-10.727-7.616-22.443.417-23.516 9.363C76.71 73.4 83.444 82.24 90.6 81.399c3.633-.428 7.808-2.483 11.039-4.404 2.372-1.41 5.374.283 5.374 3.044v29.387H78.45c-3.269 0-5.454-3.41-4.038-6.357 1.688-3.51 8.607-7.82 8.191-11.146-.841-6.736-15.834-8.402-23.91-7.148-6.163.957-3.1 10.6.404 18.33 1.343 2.962-.796 6.32-4.047 6.32H27.89V81.094c0-2.572-2.866-4.05-5.001-2.617"/>
        <path id="mn7swvemcg" d="M83.116 185c-4.54 0-9.044-.335-13.482-1.022-6.654-1.03-24.896-4.096-41.047-18.564C2.317 141.882-6.504 98.865 6.52 62.645c1.555 9.434 4.766 18.915 10.824 27.6 8.78 12.584 22.733 16.141 22.733 16.141-6.115-4.552-11.506-10.858-13.789-22.565C47.301 59.108 42.916 32.774 38.523 19.43 55.284 6.88 75.78 0 95.765 0c.746 0 1.488.01 2.232.029 5.54.143 24.06.896 43.065 11.727.01.009.02.017.032.025.04.028.082.05.125.065 3.918 2.245 7.854 4.917 11.7 8.104 3.313 2.744 10.621 9.265 17.207 19.61.32.503.634 1.01.942 1.52-.061.043-.123.084-.184.126-.254.172-.321.518-.151.773.107.16.282.246.46.246.035 0 .068-.003.102-.01.072-.013.143-.042.208-.085l.133-.091c1.36 2.334 2.597 4.748 3.71 7.227h-14.925c-1.301 0-2.463-.677-3.108-1.812-.64-1.126-.631-2.464.023-3.578 2.155-3.67 2.598-7.81 1.319-12.31-1.357-4.771-4.463-7.939-8.744-8.92-.94-.214-1.919-.318-2.919-.318-2.939 0-6.053.898-8.842 2.512-.03-.523-.04-1.05-.03-1.57.005-.307-.238-.56-.544-.566h-.008c-.304 0-.55.242-.556.547-.01.628.004 1.266.046 1.897.008.112.048.214.111.298-.56.369-1.103.767-1.625 1.194-.055-.038-.121-.06-.193-.06h-.003c-.523.005-1.055.038-1.58.1-.08.009-.159.019-.238.03-.187.019-.32.197-.294.386.023.173.17.298.34.298l.045-.003c.074-.01.149-.02.225-.028.315-.037.633-.063.95-.079-.51.461-.995.95-1.45 1.466-3.247 3.668-3.096 8.9.434 15.129.645 1.137.641 2.488-.01 3.612-.643 1.112-1.794 1.775-3.079 1.775H106.79c-.245 0-.444.2-.444.445V78.37c0 .424-.172.518-.237.553-.123.066-.287.097-.482.097-1.032 0-2.945-.855-4.423-1.828-2.488-1.639-5.284-2.458-8.194-2.458-3.01 0-6.142.876-9.182 2.625-5.625 3.237-9.554 8.67-9.342 12.922.223 4.472.675 9.577 2.336 13.528 1.877 4.462 5.035 6.726 9.385 6.725.19 0 .384-.004.58-.013 6.044-.264 12.069-3.157 16.057-5.538.387-.231.813-.347 1.24-.347.409 0 .818.107 1.192.321.76.434 1.215 1.22 1.215 2.103v30.564c0 .246.198.446.443.446h22.523c1.073 0 2.06.547 2.639 1.464.557.883.628 1.921.194 2.848-2.893 6.166-2.952 16.607 1.104 20.001 1.764 1.477 5.14 2.708 8.91 3.264C124.829 178.097 103.683 185 83.117 185m39.116-138.116c-.045 0-.092.009-.137.029-.173.076-.252.278-.177.452.116.268.242.536.373.796.06.12.181.188.306.188.02 0 .042-.002.063-.006.03-.006.062-.016.092-.031.168-.087.235-.294.15-.463-.126-.248-.246-.503-.356-.758-.056-.13-.182-.207-.314-.207m35.414-2.136c-.288 0-.53.226-.551.52-.021.305.21.572.515.592.501.035 1.01.052 1.516.052.114 0 .229 0 .343-.002.032-.001.064-.004.094-.01.26-.048.456-.28.452-.556-.005-.304-.252-.548-.554-.548h-.009l-.324.003c-.481 0-.965-.017-1.442-.05l-.04-.001m-36.418-1.288c-.02 0-.038.001-.057.005-.175.036-.313.208-.282.395l.055.314c.092.493.21.988.352 1.47.043.15.18.247.328.247.02 0 .042-.002.063-.006.01-.002.022-.004.034-.008.18-.054.285-.245.232-.427-.135-.46-.248-.932-.336-1.403l-.053-.3c-.027-.167-.172-.287-.336-.287m42.948.742c-.043 0-.086.005-.13.015-.566.136-1.147.25-1.734.34-.3.044-.51.33-.464.634.042.275.278.473.548.473.027 0 .055-.003.083-.007.254-.039.507-.082.757-.129.358-.067.717-.144 1.068-.228.297-.071.482-.371.41-.67-.06-.256-.288-.428-.538-.428m4.47-1.612c-.082 0-.165.019-.243.057-.528.26-1.072.5-1.618.713-.285.111-.426.434-.315.72.085.22.295.355.516.355.034 0 .067-.003.102-.01.032-.005.066-.015.099-.028.575-.225 1.148-.476 1.703-.75.275-.135.388-.469.254-.745-.097-.197-.293-.312-.498-.312m-47.567-2.697c-.176 0-.327.137-.342.316-.048.606-.06 1.222-.035 1.83.008.185.16.33.343.33h.013c.017-.001.033-.003.05-.006.164-.031.285-.18.278-.352-.024-.581-.013-1.169.034-1.746.015-.19-.125-.355-.313-.37l-.028-.002m.725-3.495c-.142 0-.274.09-.323.232-.197.577-.359 1.17-.482 1.766-.04.186.08.369.264.407.024.005.047.007.07.007.022 0 .043-.002.063-.006.132-.024.243-.126.272-.267.118-.568.273-1.135.46-1.684.061-.18-.034-.375-.213-.437-.037-.012-.074-.018-.111-.018m1.557-3.21c-.112 0-.222.055-.287.156-.33.51-.632 1.046-.898 1.594-.083.17-.012.376.158.46.049.023.1.034.15.034.021 0 .042-.002.063-.006.103-.019.196-.085.245-.187.253-.522.541-1.034.856-1.52.103-.159.058-.372-.1-.475-.058-.038-.122-.056-.187-.056m2.286-2.732c-.083 0-.167.03-.233.092-.443.414-.865.86-1.255 1.326-.122.145-.103.362.042.484.063.054.142.08.22.08.021 0 .042-.001.063-.005.075-.014.146-.053.199-.117.372-.444.775-.87 1.198-1.265.138-.129.146-.347.017-.486-.067-.072-.16-.11-.25-.11m2.877-2.09c-.055 0-.112.015-.164.043-.53.292-1.049.622-1.54.978-.153.112-.187.327-.076.48.067.093.171.143.277.143.021 0 .042-.002.063-.006.048-.01.096-.029.138-.06.468-.34.962-.653 1.467-.932.166-.091.226-.3.135-.467-.062-.114-.18-.178-.3-.178m3.3-1.317c-.027 0-.055.003-.084.01-.587.154-1.17.345-1.731.57-.176.07-.262.27-.192.446.053.134.182.217.318.217.02 0 .041-.002.063-.006.02-.004.042-.01.063-.019.535-.213 1.091-.396 1.652-.542.183-.048.292-.236.245-.42-.04-.155-.18-.256-.334-.256m6.37-9.153c-.25 0-.476.17-.539.423-.151.612-.277 1.238-.376 1.86-.048.304.159.589.46.637.03.005.06.007.088.007.035 0 .068-.003.101-.01.225-.041.408-.22.446-.46.093-.59.214-1.185.357-1.766.074-.298-.107-.6-.404-.674-.045-.011-.09-.017-.134-.017m1.685-4.547c-.203 0-.398.112-.496.306-.283.562-.546 1.144-.78 1.729-.114.285.023.61.307.724.067.028.138.04.207.04.034 0 .068-.002.101-.009.18-.033.34-.156.413-.339.223-.556.472-1.108.741-1.643.138-.274.029-.609-.244-.748-.08-.04-.166-.06-.25-.06m20.006 136.38c-.534-2.624-1.457-4.96-2.763-6.984-.614-.951-.66-2.11-.124-3.1.533-.987 1.522-1.575 2.643-1.575h8.909c-2.597 4.125-5.503 8.02-8.665 11.658m6.7-40.088c-2.138 0-4.037-.79-5.662-2.354-4.264-4.105-5.79-12.694-5.776-17.466.008-2.611 2.062-7.544 6.448-9.84 1.292-.677 2.967-1.213 5.036-1.213 2.818 0 6.365.996 10.657 3.99.655.455 1.415.686 2.177.686.6 0 1.202-.143 1.756-.434.758-.398 1.331-1.01 1.667-1.748.45 8.347-.156 16.811-1.792 25.036-.519-.25-1.075-.376-1.631-.376-.656 0-1.313.174-1.914.522-3.368 1.949-6.926 3.022-10.574 3.188-.131.006-.262.009-.392.009M26.45 35.468c-.243-1.502-.545-2.946-.898-4.341 1.523-1.654 3.1-3.246 4.73-4.778-1.03 2.664-2.29 5.695-3.832 9.119"/>
        <path id="o4gs0d4wah" d="M23.203 81.612c-2.634 1.784-6.11 3.518-10.029 3.914-8.677.876-12.148-8.755-12.582-17.073-.433-8.318 6.942-16.198 13.45-15.323 3.065.413 6.418 2.38 9.11 4.344 2.172 1.587 5.206.026 5.206-2.68V24.917h29.953c2.496 0 4.151-2.601 3.108-4.89-2.35-5.154-4.99-12.986-1.309-16.367 5.722-5.253 21.177-5.253 23.78 2.627 1.458 4.412-.522 9.72-2.547 13.538-1.221 2.302.427 5.08 3.014 5.08h25.564v27.667c0 2.952-3.308 4.786-5.693 3.078-11.059-7.92-23.136.434-24.242 9.738-1.302 10.944 5.64 20.137 13.015 19.262 3.746-.445 8.05-2.583 11.38-4.58 2.446-1.466 5.54.295 5.54 3.166v30.56H80.476c-3.369 0-5.622-3.546-4.162-6.61 1.74-3.65 8.873-8.133 8.444-11.592-.868-7.004-16.323-8.737-24.648-7.433-6.353.995-3.195 11.024.417 19.062 1.384 3.08-.821 6.573-4.173 6.573H28.358V84.333c0-2.675-2.953-4.211-5.155-2.721"/>
        <path id="o50e6ma9ci" d="M1.367 1.271c-.076 0-.149-.06-.185-.162C1.102.883 1.026.65.956.418.91.267.958.09 1.063.025 1.09.008 1.118 0 1.146 0c.08 0 .156.067.19.18.067.22.14.443.216.658.051.147.01.326-.091.401-.018.014-.037.022-.056.027-.013.004-.026.005-.038.005"/>
        <path id="kvisp6ryql" d="M7.782 4.185S6.727 1.273 5.496 1.54c-1.232.266-2.58 1.26-2.58 1.26L.939 5.606s5.554 2.295 7.507.98c0 0 5.673 1.027 12.837-.206C20.245 4.085 19.627 1.785 19.264 0c-3.628 2.155-7.537 3.764-11.482 4.185"/>
        <path id="8emrx5yr0o" d="M19.189 0S11.046 9.95.574 15.7c.364 1.654.983 3.786 2.023 5.915 5.432-.865 11.72-2.928 17.05-7.513L19.188 0"/>
        <path id="2vf7lp9wbq" d="M16.276 47.68c-1.516 0-3.079-.227-4.688-.672-1.57-7.556-3.14-11.93-8.396-26.252C1.538 16.25.036 11.69.762 6.938L1.577 1.6S6.247 0 12.773 0c3.126 0 6.676.367 10.343 1.454 0 0 13.778 6.062 6.475 35.02-3.047.34-9.589 1.269-13.1 3.23-.39.22-.652.616-.701 1.065-.048.428-.044.99.157 1.537.095.257.34.421.606.421.035 0 .07-.003.105-.009l11.734-1.923c-.104.345-.21.693-.32 1.044-3.506 3.973-7.455 5.841-11.796 5.841"/>
        <path id="em50rd62hs" d="M.938 1.66l2.63 6.248c.165.395.525.676.95.749 1.516.256 5.182.658 7.59-.908.287-.186.36-.572.163-.85L7.415 0 .938 1.66"/>
        <path id="k4b5s3v28v" d="M5.91.35C5.792.455.938 9.546.938 9.546l5.502 2.533 5.942-7.965S7.882-1.422 5.91.35"/>
        <path id="idku9yd0py" d="M10.82 8.62l-2.589 4.258c-.039.064-.086.122-.142.174-.308.283-1.363 1.106-2.178-.014-.695-.956-1.347-1.824-2.045-2.182-.408-.21-.91-.043-1.117.362-.427.835-1.253 2.534-1.773 4.147-.13.404.082.838.48.997 1.051.42 3.129 1.18 4.972 1.43.303.042.603-.084.783-.328.794-1.071 3.03-4.067 3.792-4.817.709-.696 2.017-.434 2.607-.267.223.064.462.033.661-.085.599-.356 1.642-1.24.687-2.74-.237-.372-.116-.868.257-1.11.667-.433 1.392-1.246.702-2.564-.7-1.333-1.947-1.453-2.797-1.35-.376.045-.758-.15-.903-.495-.064-.154-.19-.285-.427-.332-.445-.09-.737-.491-.65-.931.15-.755.037-1.735-1.184-2.397C7.716-.84 5.754 1.14 5.255 2.81c-.5 1.671 2.005 2.852 3.58 3.05 1.158.144 1.792 1.39 2.047 2.041.093.237.07.5-.061.718"/>
        <path id="g2yjrh3vnB" d="M.938 2.268S2.028-.094 3.277.003c1.248.096 2.23 1.24.683 2.527C2.037 4.13.938 2.268.938 2.268"/>
        <path id="rwjbr0oypE" d="M38.083 59.39c-1.223 1.099-5.2 1.244-5.2 1.244-14.327-34.804-20.3-44.385-20.3-44.385 2.068 13.136.445 46.856.445 46.856-2.364 1.055-5.412 0-5.412 0C7.424 41.598 4.433 18.489.574 3.703 10.258 3.483 15.52 1.346 17.202 0c8.071 13.171 20.88 59.39 20.88 59.39"/>
        <path id="7tsfwbsicH" d="M.574 4.294l1.789 11.08c.312 1.933 2.109 3.273 4.068 3.035L33.2 15.157c1.31-.16 2.303-1.248 2.329-2.556.057-2.863-.055-7.959-1.262-12.601L.574 4.294"/>
        <path id="v3a12odysK" d="M.97 1.907L.939.951c.07-.237.256-.424.493-.494C2.32.195 4.537-.35 5.723.325l.301 1.077-5.053.505"/>
        <path id="x0e0jvf0tN" d="M2.982 3.722c-.274.081-.558.109-.851.083-.356-.031-.638-.246-.683-.52L.938.202 2.966 0l.509 3.083c.046.274-.158.539-.493.639"/>
        <path id="eg5hwnqe7Q" d="M1.735 6.357c-.268 0-.516-.165-.612-.423C.92 5.383.916 4.817.963 4.386c.05-.452.315-.851.71-1.072C5.223 1.34 11.836.404 14.916.061L15.39.01c.062-.007.123-.01.184-.01.776 0 1.475.512 1.689 1.276.201.725.22 1.446.197 1.933-.016.348-.276.635-.618.691l-3.138.512L1.841 6.35c-.035.006-.07.008-.106.008m4.034-4.296c-.01 0-.021 0-.031.002-1.322.209-2.885.843-3.698 1.203-.446.196-.762.617-.828 1.098-.081.595.052 1.184.058 1.209.022.097.107.162.201.162.016 0 .032-.001.048-.005.111-.026.181-.139.155-.252 0-.005-.121-.538-.05-1.057.046-.337.269-.633.582-.772.64-.283 2.272-.963 3.596-1.172.113-.018.19-.125.173-.24-.016-.104-.105-.176-.206-.176"/>
        <path id="zpd23kdjaT" d="M1.241 3.814c-.1 0-.19-.067-.214-.168-.006-.025-.147-.638-.06-1.255.069-.5.405-.936.877-1.14C2.708.878 4.367.22 5.77.002L5.802 0c.108 0 .203.075.22.184.018.118-.064.23-.184.249-1.405.216-3.138.923-3.817 1.216-.332.144-.57.451-.618.801-.075.54.052 1.092.054 1.098.027.117-.047.234-.165.26-.017.005-.034.006-.05.006"/>
        <path id="al5ld51guW" d="M1.697 3.597C6.507 2.921 27.32.044 33.467 0c.53-.004 1.004.322 1.182.816.565 1.567 1.765 5.22 2.156 8.944.054.506-.263.98-.751 1.138l-13.485 4.37-4.909.625-15.099-1.039c-.532-.036-.97-.426-1.065-.947C1.16 12.051.449 7.687.593 4.803c.03-.614.492-1.12 1.104-1.206"/>
        <path id="k63l5pqsrZ" d="M10.055 17.165c-.19 0-.36-.125-.408-.31C8.272 11.35 5.373 5.901 1.031.66.886.485.915.23 1.095.089c.18-.14.445-.112.59.063 4.42 5.336 7.373 10.891 8.778 16.511.054.219-.084.437-.31.49-.032.008-.065.012-.098.012"/>
        <path id="av9fqsb6kac" d="M17.707 4.226s3.709 25.442 6.386 55.719c.05.564-.4 1.054-.956 1.17-.818.172-2.02.377-3.014.35-.531-.016-.976-.41-1.065-.932-.912-5.338-7.419-33.988-9.126-40.293 0 0-1.962 26.784-1.335 40.68.015.345-.238.645-.582.684-.522.06-1.358.106-2.42-.006-.404-.043-.73-.348-.787-.749C4.158 56.332.42 29.44.579 10.07.588 8.976 1.863 0 1.863 0l15.844 4.226"/>
        <path id="vzub1fhmxaf" d="M1.7 48.166c-.382-.135-.648-.483-.69-.886C.516 42.478-1.876 12.704 13.225.457c0 0 .866-2.27 7.984 3.31s3.307 11.429 1.603 19.496c-2.062 9.762-5.68 17.742-4.08 23.75.11.414-.106.849-.509.997-5.53 2.042-11.037 2.11-16.523.156"/>
        <path id="fkj2ckohrai" d="M7.028 0C7.024.418.938 8.893.938 8.893s1.093 2.11 6.307 3.822l4.5-9.074L7.029 0"/>
        <path id="pkglrpauzal" d="M9.866 0s2.226 5.052 2.375 7.703c.15 2.651.728 4.372-2.375 4.906-3.103.534-5.717-.994-7.134-3.635 0 0-2.218-4.07-1.721-5.736C1.509 1.571 9.866 0 9.866 0"/>
        <path id="q9kg8xm8uao" d="M7.549 12.446l.17-.076c.218-.097.31-.358.202-.572-.423-.825-1.246-2.718-.182-3.159C9.109 8.07 14.54 6.95 15.712 5 16.84 3.127 15.84.707 14.341.02c-.1-.047-.219-.01-.27.089l-.125.24c-.086.163-.325.138-.376-.04-.048-.17-.273-.204-.366-.053-.36.583-1.333 1.529-3.933 2.014-3.696.69-6.14 2.203-6.2 4.788-.004.164-.177.254-.315.169-.273-.168-.71-.247-1.293.25-1.015.863-.6 3.102 1.625 4.945.106.087.105.254-.01.33-.403.265-1.004.898.554 1.74 1.612.872 2.815.8 3.278.723.116-.02.19-.132.165-.248l-.495-2.27c-.028-.129.069-.25.199-.25h.77"/>
        <path id="tm40wyzndar" d="M3.481 2.43S2.71-.73 1.377.157c-1.331.885.692 3.54 1.762 3.657l.342-1.384"/>
        <path id="1wcyi81f9au" d="M.938 0l.444 11.124c1.262.405 2.462.72 3.606.955.715-2.148 2.29-4.784 3.58-6.744C3.83 3.773.937 0 .937 0"/>
        <path id="z9wexhp18ax" d="M18.957 0C12.984 6.492 8.149 6.873 4.228 5.479c-1.185 1.943-2.632 4.558-3.29 6.688C16.89 15.707 20.646.947 20.646.947L18.957 0"/>
        <path id="m70imbwpvaA" d="M.938.63s.772-.615 2.2-.422c1.43.194 2.7.563 3.59 0 .89-.562 1.203.193 1.203.193L5.267 1.907.938.631"/>
        <path id="72v1vsg81aD" d="M.938 1.99S1.423-.282 2.885.03C4.346.34 7.664 2.362 8.519 1.99c.855-.372 1.948-1.264 2.51-.949l-.989 1.377s2.54-1.642 2.977-.633L8.791 4.45S2.608 3.756.938 1.99"/>
        <path id="zft4x2mfpaG" d="M.938 7.324s11.474 9.722 23.863 5.48c.769-.263 1.609-.205 2.326.177l3.562 1.904c1.495.798 3.347.274 4.214-1.194.495-.838.917-1.794 1.001-2.71l-6.97-2.855.514-.865s-3.402-.291-4.293 2.176c0 0-6.481 2.728-17.412-9.437 0 0-4.96 4.267-6.805 7.324"/>
        <path id="yn9cfsunpaJ" d="M8.366 9.536c-.039 0-.078-.011-.113-.036C3.305 6 .977.35.954.293.911.186.96.063 1.061.017c.103-.045.22.004.264.112.022.055 2.307 5.593 7.154 9.022.092.065.116.196.053.292-.038.06-.102.093-.166.093"/>
        <path id="nrgf8h0r4aM" d="M13.458 10.172c-.063 0-.126-.03-.163-.084-.015-.021-1.477-2.158-4.263-6.839C8.175 1.81 7.05.9 5.686.54c-2.259-.592-4.436.544-4.457.555-.093.049-.212.02-.265-.068-.053-.088-.02-.2.073-.25.094-.049 2.332-1.224 4.75-.59 1.47.385 2.675 1.355 3.585 2.884 2.779 4.669 4.236 6.798 4.25 6.82.058.084.032.197-.058.252-.033.02-.07.029-.106.029"/>
        <path id="0d12pht5naP" d="M.753 2.543C.683 2.465.638 2.37.63 2.266.582 1.682.566 1.09.58.507.583.225.858 0 1.195 0h.01c.34.005.612.24.606.525-.01.483 0 .971.034 1.456-.37.178-.735.365-1.093.562"/>
        <path id="gzxqspmwaaQ" d="M1.352 0C3.856.194 8.203.51 11.63.646c2.06.082 3.246-.1 3.93-.345l-.007.195c-.017.324-.31.584-.674.602-6.475.325-11.626.112-13.46.012C1.043 1.09.816.72 1.01.428c.096-.145.214-.287.342-.428"/>
        <path id="qbmgkap7maT" d="M11.056 5.7C7.682 5.55 3.404 5.204.938 4.99 3.362 2.01 11.056 0 11.056 0h2.173c1.495 2.16 1.71 4.215 1.695 5.32-.673.27-1.84.47-3.868.38"/>
        <path id="rmfk7dz0eaW" d="M5.389 0l-.224 3.634c-.024.394-.382.725-.86.781-.477.056-1.116.064-1.793-.122-.416-.114-.725-.403-.802-.755L.938 0h4.45"/>
        <path id="q8co4w2o4aZ" d="M.967 1.271L.938.634C1 .475 1.161.352 1.37.304 2.147.13 4.086-.233 5.125.218l.264.717-4.422.337"/>
        <path id="f2o91q6f0bc" d="M2.992 3.729c-.269.075-.546.1-.834.077-.347-.03-.624-.227-.669-.479L.94.185 2.922 0l.552 3.14c.044.253-.155.497-.483.589"/>
        <path id="uz7xlnpiibf" d="M7.58 6.432l-4.334.552c-.567.073-1.1-.287-1.239-.838L.973 2.058c-.165-.651.281-1.3.954-1.385L7.132.009c.659-.083 1.247.41 1.273 1.068l.161 4.2c.023.58-.406 1.08-.987 1.155"/>
        <path id="4oyf0eu8xbi" d="M5.92 5.262l-3.25.452c-.427.06-.826-.235-.93-.686L.964 1.684C.841 1.15 1.175.62 1.68.55L5.584.008c.494-.069.935.335.954.873l.121 3.436c.017.474-.304.884-.74.945"/>
        <path id="sjihx3m6fbl" d="M6.44.393c.98 4.192 1.007 8.292.858 9.785-.057.563-.494 1.002-1.04 1.041-.619.045-1.462.104-2.216.149-.828.05-1.748-.492-2.363-.945-.314-.231-.72.129-.545.484.303.611.827 1.093 1.348 1.502.313.246 1.354.684 1.282 1.17-.023.152-.112.285-.208.405-.579.718-1.454 1.101-2.318 1.376-.108.034-.223.07-.3.158-.02.578 1.698 1.22 2.142 1.373.664.228 1.369.325 2.067.248 1.73-.188 3.326-1.423 4.258-2.912 2.49-3.982 3.777-8.79 4.248-12.466C11.336-.635 7.84-.03 6.441.393"/>
        <path id="57xbmk48mbo" d="M16.25 25.43C18.14 11.054 7.126 0 7.126 0L.574 7.684c4.975 6.238 7.34 11.954 8.42 16.443 1.433-.42 4.882-1.083 7.255 1.303"/>
        <path id="xg5efj4hhbq" d="M10.474 7.286c.002-.072-.003-.146-.021-.22C9.378 2.712 4.048 0 4.048 0L1.935.169C.72 4.007.877 6.36 1.072 7.409c.005.03.014.057.022.086 1.742.159 5.329.263 9.38-.209"/>
        <path id="tfdzc8wgkbt" d="M.938 0l.791 4.456c.058.326.272.57.532.6.318.034.77.054 1.225-.024.408-.07.692-.556.62-1.076L3.556 0H.938"/>
        <path id="owatb77febw" d="M4.97.64C2.711.57 1.543.275.94 0c-.001.25 0 .504.007.768.008.28.195.505.425.503l12.405-.088c.396-.003.627-.514.456-.917C12.605.415 8.463.75 4.97.64"/>
        <path id="4pkd4zmezbz" d="M14.289 6.005c-.015-.031-.028-.062-.05-.092C13.14 4.4 10.337 1.389 4.8.083L2.143 0S.961 2.023.938 5.769c.607.244 1.78.507 4.05.57 3.507.096 7.668-.201 9.3-.334"/>
        <path id="slid7hxoubC" d="M.938.864c.044.196.614 3.191.835 4.352.053.276.274.478.537.493.47.025 1.227.029 1.879-.144.35-.092.587-.44.562-.828L4.444 0 .938.864"/>
        <path id="lmx4ruatmbF" d="M2.555 2.211c-.496 0-.994-.022-1.486-.067-.299-.027-.525-.371-.504-.767.02-.38.257-.671.54-.671.013 0 .026 0 .039.002.468.042.942.064 1.413.064.106 0 .212-.001.318-.004h.008c.297 0 .538.315.543.708.004.357-.187.657-.442.72-.03.007-.06.01-.093.012l-.336.003m3.204-.321c-.264 0-.495-.256-.536-.612-.046-.393.16-.762.454-.82.576-.116 1.146-.263 1.7-.438.043-.013.085-.02.127-.02.246 0 .469.222.528.553.07.387-.11.775-.402.867-.344.108-.696.208-1.047.295-.245.06-.493.116-.742.166-.027.005-.055.009-.082.009"/>
        <path id="ve1vf3esqbG" d="M2.436 1.474c-.032 0-.063-.004-.094-.011-.498-.12-.997-.266-1.484-.434C.617.946.48.653.552.375.612.147.792 0 .988 0c.044 0 .088.007.131.022.463.159.936.298 1.409.412.247.059.405.337.353.621-.039.216-.186.372-.362.41-.027.006-.055.01-.083.01"/>
        <path id="q3tsrsy3obH" d="M4.417 1.426C5.417 1.263 5.87.652 6.059 0l.004.018c.147.687-.194 1.4-.876 1.74-.824.41-1.726.48-2.425.446-.751-.037-1.44-.402-1.819-.985L.937 1.21c.754.438 1.812.49 3.48.216"/>
        <path id="8791ggy33bK" d="M2.123 0h1.631C6.24-.052 7.8 5.375 8.311 7.476c-.185.56-.625 1.084-1.599 1.224-1.623.235-2.652.19-3.386-.185C1.983 6.685 1.318 4.006.998 2.443.633.665 2.123 0 2.123 0"/>
        <path id="chqjiixtqbN" d="M5.003 0l1.06 3.589c.13.44-.118.895-.596 1.104-.592.26-1.427.531-2.195.453-.36-.038-.66-.254-.78-.543L.938.827 5.003 0"/>
        <path id="p549eyzygbQ" d="M1.27 2c-.267 0-.52-.146-.622-.385-.134-.31.036-.66.38-.781C1.684.602 2.34.344 2.974.062 3.069.02 3.169 0 3.268 0c.246 0 .483.124.6.338.161.3.025.66-.306.807-.669.297-1.359.57-2.05.813-.04.015-.08.025-.12.031C1.35 1.996 1.31 2 1.268 2"/>
        <linearGradient id="sjeilqrzxb" x1="100.23%" x2="17.154%" y1="257.62%" y2="-110.463%">
            <stop offset="0%" stop-color="#4F52FF"/>
            <stop offset="100%" stop-color="#4042E1"/>
        </linearGradient>
        <linearGradient id="ebrzkl0q4e" x1="103.241%" x2="-27.576%" y1="228.046%" y2="-228.104%">
            <stop offset="0%" stop-color="#4F52FF"/>
            <stop offset="100%" stop-color="#4042E1"/>
        </linearGradient>
        <linearGradient id="a2uxggsxoj" x1="1866.589%" x2="-1396.741%" y1="9598.285%" y2="1381.19%">
            <stop offset="0%" stop-color="#C4D4FC"/>
            <stop offset="100%" stop-color="#CEDDFB"/>
        </linearGradient>
        <linearGradient id="0jw0liwkwm" x1="2.372%" x2="13.148%" y1="58.106%" y2="56.759%">
            <stop offset="0%" stop-color="#FDBAB9"/>
            <stop offset="100%" stop-color="#FF928E"/>
        </linearGradient>
        <linearGradient id="r11va8j7ut" x1="72.353%" x2="44.389%" y1="101.272%" y2="36.726%">
            <stop offset="0%" stop-color="#FDBAB9"/>
            <stop offset="100%" stop-color="#FF928E"/>
        </linearGradient>
        <linearGradient id="81uxv3jr8w" x1="15.18%" x2="111.42%" y1="34.044%" y2="76.171%">
            <stop offset="0%" stop-color="#FDBAB9"/>
            <stop offset="100%" stop-color="#FF928E"/>
        </linearGradient>
        <linearGradient id="afdosty3cz" x1="66.353%" x2="20.701%" y1="81.624%" y2="25.807%">
            <stop offset="0%" stop-color="#08005D"/>
            <stop offset="100%" stop-color="#1A0F91"/>
        </linearGradient>
        <linearGradient id="7rbahwe0xC" x1="-180.717%" x2="116.387%" y1="-26.932%" y2="72.153%">
            <stop offset="0%" stop-color="#FDBAB9"/>
            <stop offset="100%" stop-color="#FF928E"/>
        </linearGradient>
        <linearGradient id="l51yip4z5F" x1="67.885%" x2=".121%" y1="107.281%" y2="-53.439%">
            <stop offset="0%" stop-color="#252525"/>
            <stop offset="100%" stop-color="#1A0F91"/>
        </linearGradient>
        <linearGradient id="cs4t10dglI" x1="44.365%" x2="49.449%" y1="23.562%" y2="42.92%">
            <stop offset="0%" stop-color="#E0463C"/>
            <stop offset="100%" stop-color="#E95F5A"/>
        </linearGradient>
        <linearGradient id="65i5a7mb7L" x1="58.181%" x2="40.921%" y1="72.601%" y2="34.297%">
            <stop offset="0%" stop-color="#E0463C"/>
            <stop offset="100%" stop-color="#E95F5A"/>
        </linearGradient>
        <linearGradient id="05sqoxataO" x1="38.393%" x2="108.871%" y1="-23.383%" y2="382.325%">
            <stop offset="0%" stop-color="#E0463C"/>
            <stop offset="100%" stop-color="#E95F5A"/>
        </linearGradient>
        <linearGradient id="vysfyd461R" x1="50.394%" x2="49.894%" y1="32.863%" y2="56.567%">
            <stop offset="0%" stop-color="#FF928E"/>
            <stop offset="100%" stop-color="#FD6F61"/>
        </linearGradient>
        <linearGradient id="wjs1v8ob4U" x1="168.676%" x2="166.952%" y1="-73.752%" y2="82.197%">
            <stop offset="0%" stop-color="#FFD1D0"/>
            <stop offset="100%" stop-color="#FFC3BC"/>
        </linearGradient>
        <linearGradient id="c75fg8tjlX" x1="50.419%" x2="50.006%" y1="70.878%" y2="50.115%">
            <stop offset="0%" stop-color="#F5822D"/>
            <stop offset="100%" stop-color="#F5822D"/>
        </linearGradient>
        <linearGradient id="7mwhyexicaa" x1="53.983%" x2="78.241%" y1="22.654%" y2="-143.917%">
            <stop offset="0%" stop-color="#08005D"/>
            <stop offset="100%" stop-color="#1A0F91"/>
        </linearGradient>
        <linearGradient id="v2fdzu8zgad" x1="56.478%" x2="37.905%" y1="-1.557%" y2="152.278%">
            <stop offset="0%" stop-color="#252525"/>
            <stop offset="100%" stop-color="#1A0F91"/>
        </linearGradient>
        <linearGradient id="hxfebrjxiag" x1="32.286%" x2="66.741%" y1="98.62%" y2="13.903%">
            <stop offset="0%" stop-color="#F5822D"/>
            <stop offset="100%" stop-color="#FD6F61"/>
        </linearGradient>
        <linearGradient id="ln9o9ljfwaj" x1="1.579%" x2="86.14%" y1="86.891%" y2="28.831%">
            <stop offset="0%" stop-color="#FDBAB9"/>
            <stop offset="100%" stop-color="#FF928E"/>
        </linearGradient>
        <linearGradient id="vcdxqvwzwam" x1="80.54%" x2="26.819%" y1="89.029%" y2="2.376%">
            <stop offset="0%" stop-color="#FDBAB9"/>
            <stop offset="100%" stop-color="#FF928E"/>
        </linearGradient>
        <linearGradient id="nj0aigk7dap" x1="-.216%" x2="67.67%" y1="-15.298%" y2="65.144%">
            <stop offset="0%" stop-color="#08005D"/>
            <stop offset="100%" stop-color="#1A0F91"/>
        </linearGradient>
        <linearGradient id="5z3v2ga4pas" x1="126.326%" x2="5.741%" y1="223.749%" y2="-58.881%">
            <stop offset="0%" stop-color="#FDBAB9"/>
            <stop offset="100%" stop-color="#FF928E"/>
        </linearGradient>
        <linearGradient id="6ckxwskm3av" x1="-33.412%" x2="54.919%" y1="199.606%" y2="21.152%">
            <stop offset="0%" stop-color="#FF928E"/>
            <stop offset="100%" stop-color="#FD6F61"/>
        </linearGradient>
        <linearGradient id="u0xfy6h7may" x1="131.44%" x2=".378%" y1="26.154%" y2="68.49%">
            <stop offset="0%" stop-color="#FDBAB9"/>
            <stop offset="100%" stop-color="#FF928E"/>
        </linearGradient>
        <linearGradient id="2nqpvk5w9aB" x1="100.993%" x2="-40.718%" y1="37.491%" y2="67.51%">
            <stop offset="0%" stop-color="#FDBAB9"/>
            <stop offset="100%" stop-color="#FF928E"/>
        </linearGradient>
        <linearGradient id="18dx0lltiaE" x1="69.986%" x2="-149.97%" y1="43.479%" y2="88.65%">
            <stop offset="0%" stop-color="#FDBAB9"/>
            <stop offset="100%" stop-color="#FF928E"/>
        </linearGradient>
        <linearGradient id="tlry9jr3maH" x1="137.838%" x2="-81.191%" y1="57.614%" y2="40.127%">
            <stop offset="0%" stop-color="#FDBAB9"/>
            <stop offset="100%" stop-color="#FF928E"/>
        </linearGradient>
        <linearGradient id="g4uxtfra5aK" x1="177.326%" x2="-110.461%" y1="-205.408%" y2="371.869%">
            <stop offset="0%" stop-color="#E0463C"/>
            <stop offset="100%" stop-color="#E95F5A"/>
        </linearGradient>
        <linearGradient id="q0mleuzgnaN" x1="126.76%" x2="-134.277%" y1="-35.956%" y2="264.414%">
            <stop offset="0%" stop-color="#E0463C"/>
            <stop offset="100%" stop-color="#E95F5A"/>
        </linearGradient>
        <linearGradient id="fn29ntq22aR" x1="100%" x2=".002%" y1="50.008%" y2="50.008%">
            <stop offset="0%" stop-color="#4F52FF"/>
            <stop offset="100%" stop-color="#4042E1"/>
        </linearGradient>
        <linearGradient id="5qvor1q9caU" x1="348.364%" x2="-24.229%" y1="18.789%" y2="62.341%">
            <stop offset="0%" stop-color="#08005D"/>
            <stop offset="100%" stop-color="#1A0F91"/>
        </linearGradient>
        <linearGradient id="grga557naaX" x1="100%" x2=".005%" y1="49.996%" y2="49.996%">
            <stop offset="0%" stop-color="#FDBAB9"/>
            <stop offset="100%" stop-color="#FF928E"/>
        </linearGradient>
        <linearGradient id="1ot81kswqba" x1="56.192%" x2="38.932%" y1="60.563%" y2="38.327%">
            <stop offset="0%" stop-color="#E0463C"/>
            <stop offset="100%" stop-color="#E95F5A"/>
        </linearGradient>
        <linearGradient id="vt7prswevbd" x1="34.526%" x2="103.557%" y1="-39.791%" y2="333.997%">
            <stop offset="0%" stop-color="#E0463C"/>
            <stop offset="100%" stop-color="#E95F5A"/>
        </linearGradient>
        <linearGradient id="kozz0z3whbg" x1="36.566%" x2="58.306%" y1="107.531%" y2="15.524%">
            <stop offset="0%" stop-color="#E0463C"/>
            <stop offset="100%" stop-color="#E95F5A"/>
        </linearGradient>
        <linearGradient id="79own26qqbj" x1="3.616%" x2="101.256%" y1="57.248%" y2="43.669%">
            <stop offset="0%" stop-color="#FF928E"/>
            <stop offset="100%" stop-color="#FD6F61"/>
        </linearGradient>
        <linearGradient id="cthtbkygrbm" x1="62.45%" x2="16.633%" y1="15.943%" y2="139.023%">
            <stop offset="0%" stop-color="#FDBAB9"/>
            <stop offset="100%" stop-color="#FF928E"/>
        </linearGradient>
        <linearGradient id="6tlshfj0ebr" x1=".003%" x2="100.004%" y1="50.002%" y2="50.002%">
            <stop offset="0%" stop-color="#08005D"/>
            <stop offset="100%" stop-color="#1A0F91"/>
        </linearGradient>
        <linearGradient id="j1ue9cmyfbu" x1="57.672%" x2="37.889%" y1="-84.316%" y2="239.041%">
            <stop offset="0%" stop-color="#FDBAB9"/>
            <stop offset="100%" stop-color="#FF928E"/>
        </linearGradient>
        <linearGradient id="lbgikfo95bx" x1="112.541%" x2="-139.097%" y1="44.661%" y2="65.579%">
            <stop offset="0%" stop-color="#4F52FF"/>
            <stop offset="100%" stop-color="#4042E1"/>
        </linearGradient>
        <linearGradient id="fvgnfauojbA" x1="0%" x2="100%" y1="50.006%" y2="50.006%">
            <stop offset="0%" stop-color="#08005D"/>
            <stop offset="100%" stop-color="#1A0F91"/>
        </linearGradient>
        <linearGradient id="5mmp5zl6cbD" x1="52.461%" x2="42.888%" y1="-20.517%" y2="252.401%">
            <stop offset="0%" stop-color="#FDBAB9"/>
            <stop offset="100%" stop-color="#FF928E"/>
        </linearGradient>
        <linearGradient id="3k59tcghtbI" x1="100.007%" x2=".005%" y1="49.999%" y2="49.999%">
            <stop offset="0%" stop-color="#4F52FF"/>
            <stop offset="100%" stop-color="#4042E1"/>
        </linearGradient>
        <linearGradient id="4c7m0iewgbL" x1="-112.286%" x2="166.312%" y1="-77.117%" y2="148.265%">
            <stop offset="0%" stop-color="#08005D"/>
            <stop offset="100%" stop-color="#1A0F91"/>
        </linearGradient>
        <linearGradient id="2tmm9kiw9bO" x1="99.996%" x2="-.004%" y1="50.002%" y2="50.002%">
            <stop offset="0%" stop-color="#FDBAB9"/>
            <stop offset="100%" stop-color="#FF928E"/>
        </linearGradient>
    </defs>
    <g fill="none" fill-rule="evenodd">
        <g>
            <g>
                <g opacity=".2">
                    <g transform="translate(-81.000000, -2346.000000) translate(81.000000, 2346.000000) translate(6.000000, 31.000000) translate(74.591144, 1.478723)">
                        <mask id="i6f86181uc" fill="#fff">
                            <use xlink:href="#ok3nefktta"/>
                        </mask>
                        <path fill="url(#sjeilqrzxb)" d="M69.719 136.782c-4.969 0-10.008-1.441-12.195-3.257-3.307-2.748-3.742-12.133-.845-18.26.543-1.148.453-2.483-.24-3.572-.722-1.134-1.952-1.81-3.292-1.81H31.689v-29.04c0-1.164-.605-2.202-1.617-2.775-.498-.282-1.042-.424-1.586-.424-.565 0-1.13.153-1.644.456-3.791 2.246-9.507 4.974-15.204 5.22-.178.008-.353.012-.526.012-3.902 0-6.627-1.953-8.325-5.959C1.224 73.687.796 68.858.583 64.621c-.187-3.732 3.53-8.75 8.647-11.67 2.817-1.609 5.714-2.414 8.493-2.414 2.666 0 5.222.74 7.493 2.225.138.09 2.929 1.897 4.775 1.897.328 0 .626-.057.874-.191.312-.168.684-.528.684-1.289V25.977h22.798c1.56 0 2.956-.8 3.738-2.139.789-1.351.793-2.974.013-4.34-4.082-7.145-2.54-11.335-.527-13.59C60.86 2.218 65.737 0 70.168 0c.914 0 1.809.094 2.667.29 2.716.617 6.285 2.505 7.86 7.998 1.176 4.102.774 7.87-1.195 11.196-.796 1.344-.807 2.956-.03 4.312.783 1.366 2.193 2.18 3.77 2.18h21.299v28.465c0 1.05-.555 1.965-1.485 2.45-.418.219-.866.327-1.312.327-.563 0-1.124-.173-1.618-.515-4.338-3-7.953-4.003-10.848-4.003-2.17 0-3.934.563-5.294 1.27-4.628 2.404-6.722 7.44-6.73 10.247-.015 4.75 1.54 13.318 5.88 17.464 1.742 1.665 3.789 2.508 6.082 2.508.144 0 .29-.003.436-.01 3.684-.166 7.273-1.239 10.668-3.188.449-.257.94-.387 1.43-.387.485 0 .969.127 1.409.38.865.5 1.382 1.396 1.382 2.397v26.501H82.482c-1.412 0-2.655.735-3.327 1.967-.674 1.236-.616 2.683.155 3.868 1.974 3.034 3.008 6.853 3.073 11.35.055 3.853-1.632 6.622-5.013 8.23-2.206 1.05-4.918 1.485-7.651 1.485m-25.39-89.465c-6.27 0-10.76 1.513-10.76 1.513l-.783 5.045c-.698 4.491.746 8.802 2.335 13.061 5.052 13.537 6.561 17.671 8.07 24.812 1.546.422 3.048.636 4.504.636 4.172 0 7.968-1.765 11.337-5.521.105-.332.208-.66.308-.987l2.983-.48c.325-.053.572-.322.587-.65.021-.456.004-1.133-.188-1.814-.202-.717-.867-1.198-1.605-1.198-.058 0-.116.003-.175.01l-.45.048c7.018-27.371-6.223-33.1-6.223-33.1-3.524-1.028-6.936-1.375-9.94-1.375" mask="url(#i6f86181uc)"/>
                    </g>
                    <path fill="#FCFCFC" d="M106.31 111.277h21.478c1.341 0 2.573.682 3.295 1.824.694 1.096.784 2.44.24 3.597-2.899 6.168-2.464 15.618.846 18.385 3.393 2.834 13.642 4.76 19.865 1.785 3.384-1.62 5.073-4.408 5.017-8.288-.065-4.527-1.1-8.372-3.075-11.428-.773-1.193-.83-2.65-.156-3.894.673-1.24 1.917-1.98 3.33-1.98h22.078V84.593c0-1.009-.517-1.91-1.383-2.413-.885-.513-1.947-.51-2.842.006-3.398 1.963-6.99 3.042-10.677 3.21-2.473.115-4.67-.733-6.526-2.516-4.344-4.174-5.899-12.802-5.885-17.584.009-2.827 2.104-7.897 6.737-10.318 3.178-1.661 8.563-2.532 16.157 2.752.887.617 1.984.688 2.933.19.93-.488 1.486-1.41 1.486-2.467v-28.66H157.91c-1.579 0-2.99-.821-3.772-2.196-.779-1.366-.768-2.99.028-4.342 1.971-3.35 2.374-7.143 1.197-11.274-1.576-5.53-5.149-7.432-7.868-8.053-5.024-1.15-11.307 1.178-15.278 5.657-2.015 2.271-3.558 6.49.528 13.685.78 1.374.776 3.009-.014 4.37-.782 1.348-2.18 2.152-3.74 2.152h-22.82v27.39c0 .767-.372 1.13-.685 1.298-1.648.893-5.491-1.61-5.654-1.717-4.644-3.053-10.476-2.984-16.001.19-5.122 2.94-8.842 7.992-8.656 11.75.214 4.267.642 9.129 2.206 12.84 1.776 4.212 4.672 6.17 8.86 5.989 5.703-.249 11.423-2.995 15.218-5.257 1.009-.6 2.217-.612 3.234-.032 1.012.577 1.617 1.622 1.617 2.793v29.24M144.35 139c-1.14 0-2.322-.075-3.53-.228-3.888-.492-7.421-1.733-9.222-3.24-3.928-3.284-3.872-13.388-1.07-19.355.422-.896.353-1.9-.188-2.756-.56-.887-1.516-1.416-2.555-1.416h-21.817c-.237 0-.43-.193-.43-.432V81.996c0-.854-.44-1.615-1.176-2.035-.74-.422-1.62-.413-2.356.025-3.863 2.304-9.699 5.104-15.555 5.36-4.502.2-7.753-1.99-9.65-6.496-1.61-3.823-2.048-8.763-2.264-13.091-.205-4.114 3.6-9.372 9.049-12.505 5.794-3.33 11.928-3.388 16.832-.161 1.703 1.12 4.003 2.079 4.75 1.674.064-.034.23-.124.23-.535V26.5c0-.237.193-.43.43-.43h23.153c1.245 0 2.36-.643 2.983-1.718.63-1.088.634-2.395.01-3.496-3.42-6.027-3.566-11.09-.422-14.64 4.154-4.689 10.754-7.117 16.047-5.906 4.147.949 7.154 4.014 8.47 8.631 1.239 4.354.809 8.362-1.279 11.913-.633 1.078-.642 2.372-.022 3.462.625 1.098 1.75 1.753 3.01 1.753h21.659c.237 0 .43.194.43.431v29c0 1.38-.726 2.585-1.941 3.223-1.216.638-2.676.544-3.81-.245-7.21-5.022-12.246-4.233-15.201-2.687-4.248 2.222-6.238 6.996-6.245 9.523-.014 4.617 1.464 12.93 5.594 16.902 1.671 1.607 3.639 2.368 5.865 2.269 3.533-.16 6.98-1.2 10.242-3.085 1.16-.671 2.538-.673 3.688-.007 1.132.657 1.808 1.835 1.808 3.152v27.029c0 .239-.193.432-.43.432h-22.414c-1.087 0-2.044.569-2.56 1.523-.52.959-.475 2.08.12 3.001 2.057 3.184 3.134 7.17 3.2 11.848.06 4.174-1.837 7.304-5.485 9.051-2.165 1.037-4.911 1.572-7.948 1.572" transform="translate(-81.000000, -2346.000000) translate(81.000000, 2346.000000) translate(6.000000, 31.000000)"/>
                    <g transform="translate(-81.000000, -2346.000000) translate(81.000000, 2346.000000) translate(6.000000, 31.000000) translate(0.665218, 2.218085)">
                        <mask id="pf847y4grf" fill="#fff">
                            <use xlink:href="#v454v1gsmd"/>
                        </mask>
                        <path fill="url(#ebrzkl0q4e)" d="M22.89 78.476c-2.555 1.716-5.928 3.384-9.73 3.764-8.416.842-11.783-8.419-12.204-16.417-.421-7.998 6.734-15.576 13.046-14.734 2.974.397 6.227 2.288 8.837 4.177 2.108 1.526 5.052.025 5.052-2.578V23.96h29.056c2.421 0 4.027-2.5 3.014-4.701-2.28-4.956-4.84-12.488-1.269-15.738 5.55-5.052 20.543-5.052 23.069 2.525 1.414 4.243-.507 9.348-2.471 13.018-1.185 2.214.413 4.885 2.923 4.885h24.8v26.605c0 2.838-3.21 4.602-5.524 2.96-10.727-7.616-22.443.417-23.516 9.363C76.71 73.4 83.444 82.24 90.6 81.399c3.633-.428 7.808-2.483 11.039-4.404 2.372-1.41 5.374.283 5.374 3.044v29.387H78.45c-3.269 0-5.454-3.41-4.038-6.357 1.688-3.51 8.607-7.82 8.191-11.146-.841-6.736-15.834-8.402-23.91-7.148-6.163.957-3.1 10.6.404 18.33 1.343 2.962-.796 6.32-4.047 6.32H27.89V81.094c0-2.572-2.866-4.05-5.001-2.617" mask="url(#pf847y4grf)"/>
                    </g>
                    <path fill="#FCFCFC" d="M64.547 85.905c5.669 0 12.51 1.027 16.273 3.865 1.53 1.154 2.405 2.521 2.597 4.061.273 2.175-2.137 4.585-4.468 6.916-1.536 1.535-3.124 3.124-3.788 4.504-.597 1.241-.513 2.682.224 3.854.749 1.19 2.033 1.902 3.437 1.902h28.22v-29.04c0-1.138-.59-2.153-1.576-2.714-.994-.566-2.176-.554-3.162.033-3.016 1.792-7.415 4.023-11.244 4.474-2.9.341-5.842-.815-8.276-3.256-3.725-3.733-5.59-9.788-4.869-15.802.582-4.845 4.108-9.372 8.985-11.533 5.038-2.231 10.467-1.578 15.284 1.842.93.66 2.1.735 3.13.202 1.066-.55 1.728-1.63 1.728-2.818v-26.25H82.598c-1.336 0-2.542-.682-3.227-1.826-.685-1.144-.717-2.53-.087-3.709 1.88-3.512 3.832-8.57 2.45-12.715-.813-2.44-3.152-4.278-6.586-5.175-5.556-1.45-12.518-.21-15.853 2.825-1.49 1.355-3.291 5.143 1.375 15.283.538 1.17.445 2.516-.248 3.598-.695 1.084-1.88 1.73-3.17 1.73H28.54v28.38c0 1.37-.757 2.608-1.975 3.23-1.219.623-2.667.51-3.778-.295-3.274-2.369-6.272-3.79-8.668-4.11-2.517-.336-5.35.753-7.768 2.985-3.193 2.947-5.044 7.292-4.83 11.34.329 6.254 2.323 11.53 5.334 14.114 1.792 1.538 3.956 2.194 6.433 1.944 3.153-.314 6.37-1.56 9.562-3.703 1.137-.763 2.588-.84 3.785-.201 1.193.636 1.905 1.826 1.905 3.184v27.983h26.81c1.376 0 2.641-.69 3.385-1.843.751-1.165.856-2.618.28-3.886-3.754-8.282-4.863-13.95-3.298-16.845.643-1.19 1.727-1.911 3.222-2.143 1.563-.243 3.505-.385 5.61-.385zm42.7 25.739h-28.53c-1.696 0-3.248-.859-4.15-2.297-.893-1.42-.994-3.165-.27-4.669.724-1.507 2.358-3.142 3.938-4.723 2.174-2.174 4.422-4.423 4.204-6.17-.162-1.295-.92-2.461-2.251-3.465-3.035-2.29-12.07-4.711-21.138-3.304-1.225.19-2.07.745-2.583 1.694-1.404 2.598-.26 8.135 3.311 16.011.694 1.53.568 3.285-.34 4.692-.9 1.397-2.43 2.23-4.094 2.23H28.218c-.238 0-.43-.192-.43-.43v-28.3c0-1.028-.54-1.93-1.441-2.411-.926-.493-2.004-.436-2.884.155-3.297 2.214-6.633 3.503-9.915 3.83-2.712.272-5.083-.448-7.053-2.139-1.523-1.307-5.12-5.355-5.61-14.665-.226-4.28 1.723-8.868 5.085-11.972 2.597-2.398 5.672-3.561 8.433-3.193 2.563.341 5.598 1.771 9.022 4.25.856.619 1.927.703 2.865.223.938-.479 1.497-1.394 1.497-2.45V25.847c0-.238.193-.43.43-.43H57.24c.99 0 1.898-.497 2.43-1.327.532-.83.603-1.862.19-2.76-2.556-5.557-4.833-12.88-1.166-16.218 3.514-3.198 10.798-4.52 16.583-3.01 3.71.97 6.251 2.999 7.156 5.715 1.472 4.419-.545 9.695-2.497 13.342-.484.904-.459 1.968.066 2.845.526.877 1.45 1.4 2.475 1.4h24.77c.238 0 .43.193.43.431V52.41c0 1.507-.837 2.875-2.185 3.571-1.319.682-2.818.583-4.01-.264-4.541-3.223-9.645-3.844-14.372-1.749C82.526 56 79.213 60.24 78.669 64.77c-.688 5.733 1.076 11.492 4.602 15.027 2.234 2.24 4.907 3.304 7.532 2.995 3.661-.43 7.924-2.598 10.856-4.34 1.251-.745 2.752-.76 4.014-.042 1.255.714 2.005 2.005 2.005 3.452v29.352c0 .238-.193.43-.431.43z" transform="translate(-81.000000, -2346.000000) translate(81.000000, 2346.000000) translate(6.000000, 31.000000)"/>
                </g>
                <g>
                    <g>
                        <g transform="translate(-81.000000, -2346.000000) translate(81.000000, 2346.000000) translate(0.928552, 0.000000) translate(1.907216, 0.000000)"/>
                        <g transform="translate(-81.000000, -2346.000000) translate(81.000000, 2346.000000) translate(0.928552, 0.000000) translate(0.000000, 24.158076)"/>
                        <g transform="translate(-81.000000, -2346.000000) translate(81.000000, 2346.000000) translate(0.928552, 0.000000) translate(122.969072, 47.044674)">
                            <mask id="7szp3rxo2k" fill="#fff">
                                <use xlink:href="#o50e6ma9ci"/>
                            </mask>
                            <path fill="url(#a2uxggsxoj)" d="M1.367 1.271c-.076 0-.149-.06-.185-.162C1.102.883 1.026.65.956.418.91.267.958.09 1.063.025 1.09.008 1.118 0 1.146 0c.08 0 .156.067.19.18.067.22.14.443.216.658.051.147.01.326-.091.401-.018.014-.037.022-.056.027-.013.004-.026.005-.038.005" mask="url(#7szp3rxo2k)"/>
                        </g>
                        <g transform="translate(-81.000000, -2346.000000) translate(81.000000, 2346.000000) translate(0.928552, 0.000000) translate(74.017182, 89.639175)">
                            <mask id="zp96rzc4kn" fill="#fff">
                                <use xlink:href="#kvisp6ryql"/>
                            </mask>
                            <path fill="url(#0jw0liwkwm)" d="M7.782 4.185S6.727 1.273 5.496 1.54c-1.232.266-2.58 1.26-2.58 1.26L.939 5.606s5.554 2.295 7.507.98c0 0 5.673 1.027 12.837-.206C20.245 4.085 19.627 1.785 19.264 0c-3.628 2.155-7.537 3.764-11.482 4.185" mask="url(#zp96rzc4kn)"/>
                        </g>
                        <g transform="translate(-81.000000, -2346.000000) translate(81.000000, 2346.000000) translate(0.928552, 0.000000) translate(92.182131, 73.745704)">
                            <mask id="1vqrkxiblp" fill="#fff">
                                <use xlink:href="#8emrx5yr0o"/>
                            </mask>
                            <path fill="#05A" d="M19.189 0S11.046 9.95.574 15.7c.364 1.654.983 3.786 2.023 5.915 5.432-.865 11.72-2.928 17.05-7.513L19.188 0" mask="url(#1vqrkxiblp)"/>
                        </g>
                        <g transform="translate(-81.000000, -2346.000000) translate(81.000000, 2346.000000) translate(0.928552, 0.000000) translate(109.347079, 71.838488)">
                            <mask id="3y0hsf2j3r" fill="#fff">
                                <use xlink:href="#2vf7lp9wbq"/>
                            </mask>
                            <path fill="#0053AD" d="M16.276 47.68c-1.516 0-3.079-.227-4.688-.672-1.57-7.556-3.14-11.93-8.396-26.252C1.538 16.25.036 11.69.762 6.938L1.577 1.6S6.247 0 12.773 0c3.126 0 6.676.367 10.343 1.454 0 0 13.778 6.062 6.475 35.02-3.047.34-9.589 1.269-13.1 3.23-.39.22-.652.616-.701 1.065-.048.428-.044.99.157 1.537.095.257.34.421.606.421.035 0 .07-.003.105-.009l11.734-1.923c-.104.345-.21.693-.32 1.044-3.506 3.973-7.455 5.841-11.796 5.841" mask="url(#3y0hsf2j3r)"/>
                        </g>
                        <g transform="translate(-81.000000, -2346.000000) translate(81.000000, 2346.000000) translate(0.928552, 0.000000) translate(112.161512, 65.481100)">
                            <mask id="dof7xyu6iu" fill="#fff">
                                <use xlink:href="#em50rd62hs"/>
                            </mask>
                            <path fill="url(#r11va8j7ut)" d="M.938 1.66l2.63 6.248c.165.395.525.676.95.749 1.516.256 5.182.658 7.59-.908.287-.186.36-.572.163-.85L7.415 0 .938 1.66" mask="url(#dof7xyu6iu)"/>
                        </g>
                        <g transform="translate(-81.000000, -2346.000000) translate(81.000000, 2346.000000) translate(0.928552, 0.000000) translate(109.618557, 57.216495)">
                            <mask id="lfrrr82whx" fill="#fff">
                                <use xlink:href="#k4b5s3v28v"/>
                            </mask>
                            <path fill="url(#81uxv3jr8w)" d="M5.91.35C5.792.455.938 9.546.938 9.546l5.502 2.533 5.942-7.965S7.882-1.422 5.91.35" mask="url(#lfrrr82whx)"/>
                        </g>
                        <g transform="translate(-81.000000, -2346.000000) translate(81.000000, 2346.000000) translate(0.928552, 0.000000) translate(108.347079, 53.402062)">
                            <mask id="banhx9d9gA" fill="#fff">
                                <use xlink:href="#idku9yd0py"/>
                            </mask>
                            <path fill="url(#afdosty3cz)" d="M10.82 8.62l-2.589 4.258c-.039.064-.086.122-.142.174-.308.283-1.363 1.106-2.178-.014-.695-.956-1.347-1.824-2.045-2.182-.408-.21-.91-.043-1.117.362-.427.835-1.253 2.534-1.773 4.147-.13.404.082.838.48.997 1.051.42 3.129 1.18 4.972 1.43.303.042.603-.084.783-.328.794-1.071 3.03-4.067 3.792-4.817.709-.696 2.017-.434 2.607-.267.223.064.462.033.661-.085.599-.356 1.642-1.24.687-2.74-.237-.372-.116-.868.257-1.11.667-.433 1.392-1.246.702-2.564-.7-1.333-1.947-1.453-2.797-1.35-.376.045-.758-.15-.903-.495-.064-.154-.19-.285-.427-.332-.445-.09-.737-.491-.65-.931.15-.755.037-1.735-1.184-2.397C7.716-.84 5.754 1.14 5.255 2.81c-.5 1.671 2.005 2.852 3.58 3.05 1.158.144 1.792 1.39 2.047 2.041.093.237.07.5-.061.718" mask="url(#banhx9d9gA)"/>
                        </g>
                        <g transform="translate(-81.000000, -2346.000000) translate(81.000000, 2346.000000) translate(0.928552, 0.000000) translate(117.247423, 65.481100)">
                            <mask id="0d60aw6psD" fill="#fff">
                                <use xlink:href="#g2yjrh3vnB"/>
                            </mask>
                            <path fill="url(#7rbahwe0xC)" d="M.938 2.268S2.028-.094 3.277.003c1.248.096 2.23 1.24.683 2.527C2.037 4.13.938 2.268.938 2.268" mask="url(#0d60aw6psD)"/>
                        </g>
                        <g transform="translate(-81.000000, -2346.000000) translate(81.000000, 2346.000000) translate(0.928552, 0.000000) translate(120.154639, 113.161512)">
                            <mask id="d3xi8t631G" fill="#fff">
                                <use xlink:href="#rwjbr0oypE"/>
                            </mask>
                            <path fill="url(#l51yip4z5F)" d="M38.083 59.39c-1.223 1.099-5.2 1.244-5.2 1.244-14.327-34.804-20.3-44.385-20.3-44.385 2.068 13.136.445 46.856.445 46.856-2.364 1.055-5.412 0-5.412 0C7.424 41.598 4.433 18.489.574 3.703 10.258 3.483 15.52 1.346 17.202 0c8.071 13.171 20.88 59.39 20.88 59.39" mask="url(#d3xi8t631G)"/>
                        </g>
                        <g transform="translate(-81.000000, -2346.000000) translate(81.000000, 2346.000000) translate(0.928552, 0.000000) translate(117.611684, 122.697595)">
                            <mask id="fvqaxrs71J" fill="#fff">
                                <use xlink:href="#7tsfwbsicH"/>
                            </mask>
                            <path fill="url(#cs4t10dglI)" d="M.574 4.294l1.789 11.08c.312 1.933 2.109 3.273 4.068 3.035L33.2 15.157c1.31-.16 2.303-1.248 2.329-2.556.057-2.863-.055-7.959-1.262-12.601L.574 4.294" mask="url(#fvqaxrs71J)"/>
                        </g>
                        <path fill="#FFF" d="M149.401 123.333c-.032 0-.06-.078-.063-.183-.005-.117.02-.222.055-.237l.508-.214c.04-.013.067.069.071.182.005.116-.02.221-.055.236l-.508.215-.008.001zm1.722 0c-.054 0-.103-.023-.117-.059-.051-.135-.102-.27-.155-.404l-.107.009c-.069.006-.126-.025-.134-.068-.01-.043.037-.082.104-.087l.317-.026.026.066c.064.157.124.315.184.473.015.042-.024.084-.089.094-.01.002-.02.002-.03.002zm-4.265.636c-.032 0-.06-.078-.063-.183-.005-.117.02-.222.055-.237l.508-.214c.04-.015.067.069.071.182.005.116-.02.221-.055.236l-.508.214-.008.002zm-1.907 0c-.032 0-.06-.078-.064-.185-.004-.115.02-.22.056-.234l.507-.215c.04-.016.068.068.072.182.004.116-.02.221-.055.236l-.508.214-.008.002zm-1.908 0c-.031 0-.059-.078-.063-.183-.005-.116.02-.222.056-.236l.507-.214c.04-.018.067.067.072.181.004.116-.02.222-.055.236l-.508.214-.009.002zm-2.542.636c-.032 0-.06-.077-.064-.184-.004-.115.02-.22.055-.235l.508-.216c.039-.012.067.068.072.183.004.116-.02.222-.056.237l-.507.213-.008.002zm-1.272 0c-.031 0-.059-.077-.063-.184-.005-.115.02-.22.055-.235l.508-.216c.038-.012.067.068.071.183.005.116-.02.222-.055.237l-.508.213-.008.002zm-2.543.636c-.031 0-.059-.079-.063-.184-.005-.115.02-.22.055-.237l.508-.214c.039-.014.067.068.071.183.005.116-.02.22-.055.237l-.507.213-.009.002zm-1.271 0c-.032 0-.06-.077-.064-.184-.005-.115.02-.22.056-.235l.508-.215c.039-.017.067.067.071.182.004.116-.02.222-.055.237l-.508.213-.008.002zm-2.543 0c-.032 0-.06-.079-.064-.184-.004-.117.02-.22.056-.237l.507-.213c.04-.018.067.068.072.182.004.115-.02.22-.056.237l-.507.213-.008.002zm19.46 0c-.087 0-.165-.022-.18-.053-.086-.169-.175-.337-.269-.506-.019-.035.046-.069.145-.076.098-.008.196.016.215.051.095.17.184.339.27.508.017.035-.05.068-.15.074l-.03.002zm-21.367.635c-.032 0-.06-.078-.064-.184-.004-.115.02-.22.055-.237l.508-.213c.04-.011.067.067.072.182.004.115-.02.22-.055.237l-.508.213-.008.002zm-1.908 0c-.031 0-.059-.078-.063-.184-.005-.117.02-.222.055-.237l.508-.213c.04-.013.067.067.072.182.004.115-.02.22-.056.235l-.507.215-.009.002zm-2.542.636c-.032 0-.06-.078-.064-.184-.005-.117.02-.222.055-.237l.508-.213c.04-.015.067.067.072.182.004.115-.02.22-.056.237l-.508.213-.007.002zm-1.908 0c-.032 0-.059-.078-.063-.183-.005-.117.02-.222.055-.237l.508-.214c.038-.015.067.069.071.183.005.115-.02.22-.055.235l-.507.214-.009.002zm-1.907 0c-.031 0-.06-.078-.064-.184-.004-.116.02-.222.056-.236l.507-.213c.04-.018.068.067.072.182.005.114-.02.22-.055.234l-.508.215-.008.002zm-1.907 0c-.032 0-.06-.078-.064-.183-.005-.116.02-.222.056-.236l.507-.214c.04-.018.068.069.072.181.004.116-.02.222-.055.236l-.508.214-.008.002zm31.514.636c-.104 0-.194-.024-.207-.056-.068-.168-.142-.337-.218-.507-.016-.035.063-.067.178-.072.108-.007.22.02.234.055.078.17.15.339.22.508.014.035-.068.067-.182.071h-.025zm-33.192 0c-.058 0-.11-.022-.12-.052l-.173-.551.5-.033c.074-.003.126.02.134.054.009.034-.037.065-.104.069l-.25.017.133.424c.01.033-.034.065-.1.07l-.02.002zm33.163 1.907c-.12 0-.224-.025-.234-.058-.049-.168-.104-.337-.163-.508-.012-.035.084-.066.214-.07.139-.003.245.023.257.058.057.171.112.34.163.51.01.034-.086.065-.216.068h-.02zm-33.014.636c-.094 0-.177-.022-.193-.054l-.247-.508c-.017-.035.055-.068.161-.073.11-.005.206.018.223.053l.247.507c.017.035-.056.068-.161.074h-.03zm32.986 1.271c-.143 0-.261-.027-.268-.06-.03-.168-.062-.337-.102-.508-.009-.035.107-.066.252-.067.166-.004.275.025.282.06.04.172.071.342.101.509.007.035-.106.065-.254.066h-.011zm-32.35.636c-.095 0-.179-.022-.194-.054l-.246-.508c-.017-.035.055-.067.16-.073.113-.006.207.018.224.053l.247.508c.016.035-.056.068-.161.073h-.03zm32.311 1.907c-.166 0-.302-.028-.302-.063-.005-.164-.016-.333-.029-.507-.003-.035.131-.064.3-.065.16-.006.304.028.31.063.013.173.02.343.026.508.002.035-.134.064-.302.064h-.003zm-32.312 0c-.094 0-.178-.022-.192-.054l-.247-.508c-.018-.034.054-.067.16-.073.11-.005.207.018.223.053l.248.508c.016.035-.056.068-.162.074h-.03zm32.196 1.907c-.017 0-.034 0-.052-.002-.115-.008-.186-.043-.156-.077.12-.146.185-.296.196-.447l.002-.046c.002-.035.099-.063.215-.063h.002c.119 0 .216.03.214.065l-.004.047c-.011.16-.08.32-.21.475-.024.029-.111.048-.207.048zm-31.56 0c-.094 0-.176-.022-.191-.054l-.249-.507c-.016-.034.056-.068.162-.073.11-.007.206.018.223.053l.246.507c.017.035-.053.068-.16.073l-.031.001zm30.785 1.908c-.026 0-.052-.017-.066-.048-.02-.044-.008-.102.028-.128.17-.12.328-.266.47-.434.03-.036.078-.034.107.003.029.037.028.097-.002.133-.151.178-.319.334-.5.461-.012.009-.024.013-.037.013zm-1.919 0c-.032 0-.06-.08-.063-.189-.005-.116.02-.223.055-.238l.508-.207c.036-.018.067.07.071.187.005.116-.02.223-.055.238l-.508.207-.008.002zm-28.23 0c-.093 0-.175-.023-.192-.054l-.248-.508c-.017-.035.054-.068.161-.073.107-.006.205.018.221.053l.249.506c.018.035-.052.068-.158.074l-.034.002zm25.687.635c-.032 0-.06-.08-.063-.188-.005-.119.02-.224.055-.239l.509-.207c.035-.015.066.07.07.187.005.116-.02.224-.056.238l-.507.207-.008.002zm-1.907.636c-.032 0-.06-.08-.064-.189-.004-.118.021-.223.056-.238l.508-.207c.036-.013.067.068.071.185.004.118-.02.225-.055.24l-.508.207-.008.002zm-1.907 0c-.032 0-.06-.08-.064-.188-.004-.118.021-.225.056-.238l.508-.207c.036-.019.067.068.07.184.005.119-.02.226-.054.239l-.509.208-.007.002zm-1.908 0c-.032 0-.06-.08-.063-.189-.005-.117.02-.224.056-.237l.507-.208c.037-.016.068.069.072.186.004.118-.02.226-.056.239l-.508.207-.008.002zm-1.907.636c-.032 0-.06-.08-.063-.187-.005-.118.02-.226.055-.239l.508-.209c.036-.013.067.07.072.187.003.119-.021.224-.056.239l-.508.207-.008.002zm-1.907 0c-.032 0-.06-.08-.064-.189-.004-.116.02-.223.056-.238l.508-.206c.034-.019.067.07.071.186.005.118-.02.225-.056.238l-.507.207-.008.002zm-1.907 0c-.032 0-.06-.08-.064-.189-.004-.116.021-.223.056-.238l.508-.207c.036-.016.067.068.071.187.004.116-.02.223-.055.238l-.508.207-.008.002zm-13.506 0c-.023 0-.047-.008-.065-.024-.17-.152-.327-.317-.464-.492-.028-.035-.017-.083.024-.106.042-.025.098-.015.127.02.13.168.28.326.444.471.034.031.034.08-.002.11-.018.013-.041.02-.064.02zm10.963.636c-.032 0-.06-.08-.064-.19-.004-.116.021-.223.056-.238l.508-.207c.036-.013.067.07.071.187.004.116-.02.224-.055.239l-.508.207-.008.002zm-1.907 0c-.032 0-.06-.08-.064-.189-.004-.118.021-.225.056-.238l.508-.206c.036-.02.067.068.07.186.005.116-.02.223-.054.238l-.509.207-.007.002zm-1.908 0c-.032 0-.06-.082-.063-.189-.005-.118.02-.225.056-.238l.507-.207c.037-.017.068.068.072.185.004.118-.02.225-.056.238l-.508.209-.008.002zm-2.543.635c-.032 0-.06-.08-.063-.187-.005-.119.02-.226.056-.24l.508-.207c.034-.015.067.069.07.187.005.117-.02.225-.055.238l-.508.207-.008.002zm-3.309 0l-.014-.003c-.175-.086-.348-.207-.514-.357-.034-.03-.05-.115-.036-.188.015-.072.054-.107.087-.076.159.144.325.26.492.342.036.017.058.093.05.171-.007.066-.034.111-.065.111zm2.038 0c-.032 0-.06-.08-.064-.186-.004-.118.021-.225.056-.238l.508-.209c.036-.018.067.07.071.186.005.117-.02.224-.055.239l-.508.206-.008.002z" transform="translate(-81.000000, -2346.000000) translate(81.000000, 2346.000000) translate(0.928552, 0.000000)"/>
                        <g transform="translate(-81.000000, -2346.000000) translate(81.000000, 2346.000000) translate(0.928552, 0.000000) translate(123.604811, 115.704467)">
                            <mask id="zuxiea32pM" fill="#fff">
                                <use xlink:href="#v3a12odysK"/>
                            </mask>
                            <path fill="url(#65i5a7mb7L)" d="M.97 1.907L.939.951c.07-.237.256-.424.493-.494C2.32.195 4.537-.35 5.723.325l.301 1.077-5.053.505" mask="url(#zuxiea32pM)"/>
                        </g>
                        <g transform="translate(-81.000000, -2346.000000) translate(81.000000, 2346.000000) translate(0.928552, 0.000000) translate(124.876289, 113.161512)">
                            <mask id="jhgftc5xrP" fill="#fff">
                                <use xlink:href="#x0e0jvf0tN"/>
                            </mask>
                            <path fill="url(#05sqoxataO)" d="M2.982 3.722c-.274.081-.558.109-.851.083-.356-.031-.638-.246-.683-.52L.938.202 2.966 0l.509 3.083c.046.274-.158.539-.493.639" mask="url(#jhgftc5xrP)"/>
                        </g>
                        <g transform="translate(-81.000000, -2346.000000) translate(81.000000, 2346.000000) translate(0.928552, 0.000000) translate(124.240550, 108.075601)">
                            <mask id="5231orpmbS" fill="#fff">
                                <use xlink:href="#eg5hwnqe7Q"/>
                            </mask>
                            <path fill="url(#vysfyd461R)" d="M1.735 6.357c-.268 0-.516-.165-.612-.423C.92 5.383.916 4.817.963 4.386c.05-.452.315-.851.71-1.072C5.223 1.34 11.836.404 14.916.061L15.39.01c.062-.007.123-.01.184-.01.776 0 1.475.512 1.689 1.276.201.725.22 1.446.197 1.933-.016.348-.276.635-.618.691l-3.138.512L1.841 6.35c-.035.006-.07.008-.106.008m4.034-4.296c-.01 0-.021 0-.031.002-1.322.209-2.885.843-3.698 1.203-.446.196-.762.617-.828 1.098-.081.595.052 1.184.058 1.209.022.097.107.162.201.162.016 0 .032-.001.048-.005.111-.026.181-.139.155-.252 0-.005-.121-.538-.05-1.057.046-.337.269-.633.582-.772.64-.283 2.272-.963 3.596-1.172.113-.018.19-.125.173-.24-.016-.104-.105-.176-.206-.176" mask="url(#5231orpmbS)"/>
                        </g>
                        <g transform="translate(-81.000000, -2346.000000) translate(81.000000, 2346.000000) translate(0.928552, 0.000000) translate(124.240550, 109.982818)">
                            <mask id="pg4bgdetzV" fill="#fff">
                                <use xlink:href="#zpd23kdjaT"/>
                            </mask>
                            <path fill="url(#wjs1v8ob4U)" d="M1.241 3.814c-.1 0-.19-.067-.214-.168-.006-.025-.147-.638-.06-1.255.069-.5.405-.936.877-1.14C2.708.878 4.367.22 5.77.002L5.802 0c.108 0 .203.075.22.184.018.118-.064.23-.184.249-1.405.216-3.138.923-3.817 1.216-.332.144-.57.451-.618.801-.075.54.052 1.092.054 1.098.027.117-.047.234-.165.26-.017.005-.034.006-.05.006" mask="url(#pg4bgdetzV)"/>
                        </g>
                        <g transform="translate(-81.000000, -2346.000000) translate(81.000000, 2346.000000) translate(0.928552, 0.000000) translate(116.340206, 114.432990)">
                            <mask id="52oa2d1uwY" fill="#fff">
                                <use xlink:href="#al5ld51guW"/>
                            </mask>
                            <path fill="url(#c75fg8tjlX)" d="M1.697 3.597C6.507 2.921 27.32.044 33.467 0c.53-.004 1.004.322 1.182.816.565 1.567 1.765 5.22 2.156 8.944.054.506-.263.98-.751 1.138l-13.485 4.37-4.909.625-15.099-1.039c-.532-.036-.97-.426-1.065-.947C1.16 12.051.449 7.687.593 4.803c.03-.614.492-1.12 1.104-1.206" mask="url(#52oa2d1uwY)"/>
                        </g>
                        <path fill="#FFF" d="M147.494 116.34c-.034 0-.062-.103-.064-.237-.002-.139.024-.262.06-.27.176-.047.346-.089.508-.126.038-.022.066.099.067.24.003.14-.024.26-.06.268-.162.037-.331.079-.507.125h-.004zm-1.908 0c-.032 0-.06-.093-.063-.218-.003-.13.022-.246.058-.258.174-.056.343-.11.508-.159.036-.008.066.087.07.219.002.132-.025.247-.06.257-.164.05-.333.104-.507.16h-.006zm4.303 0c-.034 0-.067-.03-.078-.077l-.085-.328c-.098 0-.199.003-.304.006h-.001c-.046 0-.083-.05-.084-.114-.001-.062.035-.115.082-.117l.328-.006c.057 0 .108.046.125.114l.096.368c.015.06-.007.126-.051.147-.01.004-.018.007-.028.007zm-6.21 0c-.033 0-.06-.089-.063-.208-.004-.124.022-.237.057-.25l.508-.175c.036-.018.066.08.07.205.003.127-.023.238-.058.25l-.507.176-.007.002zm-1.907 0c-.032 0-.06-.085-.063-.201-.004-.124.021-.235.056-.246l.508-.188c.039-.004.067.077.07.2.004.123-.021.234-.056.245l-.508.188-.007.002zm-2.542.636c-.033 0-.06-.084-.064-.197-.004-.12.021-.23.056-.244l.508-.194c.04-.008.067.074.07.194.004.122-.021.231-.056.244l-.508.195-.006.002zm-1.908 0c-.032 0-.06-.08-.064-.192-.004-.12.021-.227.056-.24l.509-.201c.036-.02.066.071.07.19.005.12-.02.227-.056.24l-.508.201-.007.002zm-1.907.636c-.032 0-.06-.08-.064-.19-.004-.117.021-.224.056-.24l.508-.204c.037-.018.067.071.071.188.004.117-.02.225-.056.24l-.508.204-.007.002zm-2.543 0c-.032 0-.06-.08-.064-.188-.004-.115.02-.222.056-.236l.508-.21c.037-.018.067.07.071.186.004.117-.02.222-.056.237l-.507.209-.008.002zm-1.272 0c-.032 0-.059-.079-.063-.186-.005-.115.02-.221.056-.236l.507-.211c.036-.02.068.067.072.182.004.117-.02.223-.056.235l-.507.214-.009.002zm-2.543.635c-.032 0-.059-.076-.063-.183-.005-.115.02-.22.055-.234l.508-.217c.034-.014.067.068.072.182.004.114-.02.22-.056.236l-.507.215-.009.001zm21.405 0c-.063 0-.121-.018-.14-.047-.116-.174-.231-.343-.342-.502-.025-.035.018-.072.095-.083.08-.012.159.009.183.043.112.16.227.329.344.505.024.034-.02.071-.098.082-.014.002-.028.002-.042.002zm-23.312 0c-.031 0-.059-.075-.063-.182-.005-.113.02-.217.055-.234l.508-.218c.035-.014.067.067.071.18.005.116-.02.22-.055.235l-.508.218-.008.001zm-1.907.636c-.032 0-.06-.075-.064-.179-.004-.114.02-.218.056-.234l.507-.22c.036-.018.067.066.072.179.005.112-.02.218-.055.232l-.507.22-.009.002zm-2.543 0c-.032 0-.06-.075-.063-.18-.005-.113.019-.216.054-.232l.508-.222c.036-.014.067.063.072.177.005.112-.02.218-.055.232l-.508.223-.008.002zm-1.272 0c-.031 0-.058-.074-.063-.177-.005-.111.02-.216.055-.232l.507-.223c.034-.023.068.062.073.175.005.112-.02.216-.055.23l-.508.225-.009.002zm-1.906.636c-.032 0-.06-.074-.064-.176-.005-.111.02-.215.055-.231l.507-.226c.034-.02.068.064.072.175.005.11-.019.215-.054.23l-.508.226-.008.002zm31.563 0c-.071 0-.136-.02-.154-.05-.104-.17-.21-.34-.317-.504-.023-.035.028-.07.113-.08.085-.008.172.011.195.046.106.165.213.335.317.507.022.035-.03.07-.115.079l-.039.002zm-32.57 1.271c-.166 0-.3-.027-.305-.062-.016-.137-.024-.273-.024-.406l.002-.104c0-.035.138-.063.304-.063h.002c.17 0 .306.029.304.064v.103c0 .132.008.267.023.403.003.035-.129.064-.298.065h-.007zm33.189 1.272c-.084 0-.158-.021-.175-.053-.091-.17-.185-.338-.281-.505-.02-.035.041-.07.138-.077.1-.007.19.016.21.05.096.168.19.337.28.508.02.035-.042.069-.139.076h-.033zm-33.121.636c-.122 0-.227-.025-.238-.059-.058-.17-.111-.34-.159-.509-.008-.035.091-.065.221-.068.151.003.248.024.259.059.047.168.099.337.154.507.013.035-.084.066-.216.069h-.021zm33.09 1.271c-.104 0-.193-.024-.205-.056-.068-.169-.141-.338-.222-.506-.016-.035.063-.067.175-.072.115-.008.22.018.236.053.078.17.153.339.221.51.015.035-.066.066-.18.07l-.025.001zm-33.064.636c-.105 0-.196-.023-.21-.055-.073-.168-.142-.338-.212-.51-.013-.035.07-.066.185-.07.118-.004.224.02.237.055.067.171.139.34.21.507.017.036-.066.068-.181.072h-.03zm32.066.636c-.028 0-.054-.04-.063-.098-.012-.075.007-.156.042-.18l.504-.351c.034-.025.072.017.083.09.011.075-.008.155-.042.18l-.504.351c-.006.005-.014.008-.02.008zm-2.543 0c-.028 0-.054-.038-.063-.099-.012-.074.007-.154.042-.179l.504-.35c.034-.026.072.017.083.09.011.075-.008.155-.042.18l-.504.35c-.007.005-.013.008-.02.008zm-1.272 1.271c-.027 0-.054-.038-.063-.098-.011-.075.008-.155.043-.18l.503-.351c.035-.023.073.017.083.09.012.076-.007.156-.042.18l-.503.352c-.007.005-.014.007-.02.007zm-2.543.636c-.028 0-.053-.04-.063-.098-.011-.075.008-.155.043-.18l.503-.351c.035-.024.073.017.083.092.012.073-.007.154-.042.177l-.503.352c-.007.005-.014.008-.02.008zm-25.056-.636c-.095 0-.18-.023-.195-.054-.078-.162-.161-.332-.242-.508-.016-.035.057-.068.166-.073.112-.004.207.019.224.053.081.176.161.345.24.508.018.035-.055.067-.162.073l-.03.001zm23.15 1.272c-.029 0-.055-.039-.064-.099-.01-.075.008-.155.043-.18l.503-.351c.035-.022.072.017.083.09.012.076-.008.157-.043.18l-.503.352c-.006.005-.013.008-.02.008zm-1.908 0c-.028 0-.054-.039-.063-.099-.011-.074.008-.155.042-.18l.504-.351c.034-.022.072.017.083.092.012.074-.008.155-.042.18l-.504.351c-.006.004-.013.007-.02.007zm-20.475.635l-.004-.002-.557-.14-.009-.182c-.006-.13.016-.282.051-.305.02-.016.038-.002.052.033l.472.118c.036.01.063.124.06.256-.002.125-.031.222-.065.222zm1.908 0l-.004-.002-.508-.135c-.036-.011-.062-.13-.06-.267.003-.135.035-.227.068-.231l.509.137c.035.009.061.129.06.264-.004.133-.031.234-.065.234zm1.908 0h-.004l-.509-.138c-.035-.008-.061-.127-.06-.265.004-.138.035-.226.069-.232l.508.137c.035.011.062.13.06.265-.003.134-.03.233-.064.233zm14.752.636c-.033 0-.061-.054-.066-.127-.005-.08.021-.153.058-.163l.033-.009.458-.33c.034-.024.072.018.083.093.01.076-.008.158-.043.183l-.515.352-.008.001zm-12.845 0h-.005l-.508-.138c-.035-.01-.061-.13-.059-.267.003-.136.036-.224.068-.23l.508.137c.035.009.062.127.06.265-.003.132-.03.233-.064.233zm1.907 0l-.004-.002-.509-.135c-.035-.011-.06-.13-.059-.267.002-.137.036-.223.068-.232l.508.138c.036.01.062.129.06.266-.002.131-.03.232-.064.232zm9.028 0c-.032 0-.06-.078-.063-.184-.005-.116.02-.22.055-.237l.508-.213c.04-.016.067.068.071.182.005.115-.02.22-.055.237l-.508.213-.008.002zm-7.12 0h-.005l-.508-.136c-.035-.01-.062-.13-.06-.267.003-.138.037-.222.068-.233l.509.138c.035.009.061.13.059.265-.002.134-.03.233-.063.233zm2.543 0h-.005l-.508-.138c-.035-.009-.062-.127-.06-.265.003-.138.033-.222.069-.233l.508.138c.035.01.062.13.059.265-.002.134-.03.233-.063.233zm2.034 0c-.032 0-.06-.078-.063-.184-.005-.114.02-.22.055-.236l.508-.213c.04-.019.067.067.071.182.005.114-.02.22-.055.236l-.508.213-.008.002zm-.128 0h-.004l-.508-.138c-.035-.01-.062-.13-.06-.267.003-.136.034-.22.068-.23l.509.137c.035.009.061.127.06.265-.003.132-.031.233-.065.233z" transform="translate(-81.000000, -2346.000000) translate(81.000000, 2346.000000) translate(0.928552, 0.000000)"/>
                        <g transform="translate(-81.000000, -2346.000000) translate(81.000000, 2346.000000) translate(0.928552, 0.000000) translate(125.512027, 82.010309)">
                            <mask id="ct96t1eyqab" fill="#fff">
                                <use xlink:href="#k63l5pqsrZ"/>
                            </mask>
                            <path fill="url(#7mwhyexicaa)" d="M10.055 17.165c-.19 0-.36-.125-.408-.31C8.272 11.35 5.373 5.901 1.031.66.886.485.915.23 1.095.089c.18-.14.445-.112.59.063 4.42 5.336 7.373 10.891 8.778 16.511.054.219-.084.437-.31.49-.032.008-.065.012-.098.012" mask="url(#ct96t1eyqab)"/>
                        </g>
                        <g transform="translate(-81.000000, -2346.000000) translate(81.000000, 2346.000000) translate(0.928552, 0.000000) translate(32.422680, 113.797251)">
                            <mask id="yavkxjsqaae" fill="#fff">
                                <use xlink:href="#av9fqsb6kac"/>
                            </mask>
                            <path fill="url(#v2fdzu8zgad)" d="M17.707 4.226s3.709 25.442 6.386 55.719c.05.564-.4 1.054-.956 1.17-.818.172-2.02.377-3.014.35-.531-.016-.976-.41-1.065-.932-.912-5.338-7.419-33.988-9.126-40.293 0 0-1.962 26.784-1.335 40.68.015.345-.238.645-.582.684-.522.06-1.358.106-2.42-.006-.404-.043-.73-.348-.787-.749C4.158 56.332.42 29.44.579 10.07.588 8.976 1.863 0 1.863 0l15.844 4.226" mask="url(#yavkxjsqaae)"/>
                        </g>
                        <g transform="translate(-81.000000, -2346.000000) translate(81.000000, 2346.000000) translate(0.928552, 0.000000) translate(31.786942, 71.202749)">
                            <mask id="3g9kcgmucah" fill="#fff">
                                <use xlink:href="#vzub1fhmxaf"/>
                            </mask>
                            <path fill="url(#hxfebrjxiag)" d="M1.7 48.166c-.382-.135-.648-.483-.69-.886C.516 42.478-1.876 12.704 13.225.457c0 0 .866-2.27 7.984 3.31s3.307 11.429 1.603 19.496c-2.062 9.762-5.68 17.742-4.08 23.75.11.414-.106.849-.509.997-5.53 2.042-11.037 2.11-16.523.156" mask="url(#3g9kcgmucah)"/>
                        </g>
                        <g transform="translate(-81.000000, -2346.000000) translate(81.000000, 2346.000000) translate(0.928552, 0.000000) translate(44.137457, 62.938144)">
                            <mask id="nzn2a4mbcak" fill="#fff">
                                <use xlink:href="#fkj2ckohrai"/>
                            </mask>
                            <path fill="url(#ln9o9ljfwaj)" d="M7.028 0C7.024.418.938 8.893.938 8.893s1.093 2.11 6.307 3.822l4.5-9.074L7.029 0" mask="url(#nzn2a4mbcak)"/>
                        </g>
                        <g transform="translate(-81.000000, -2346.000000) translate(81.000000, 2346.000000) translate(0.928552, 0.000000) translate(46.044674, 57.852234)">
                            <mask id="15h5ayl4oan" fill="#fff">
                                <use xlink:href="#pkglrpauzal"/>
                            </mask>
                            <path fill="url(#vcdxqvwzwam)" d="M9.866 0s2.226 5.052 2.375 7.703c.15 2.651.728 4.372-2.375 4.906-3.103.534-5.717-.994-7.134-3.635 0 0-2.218-4.07-1.721-5.736C1.509 1.571 9.866 0 9.866 0" mask="url(#15h5ayl4oan)"/>
                        </g>
                        <g transform="translate(-81.000000, -2346.000000) translate(81.000000, 2346.000000) translate(0.928552, 0.000000) translate(42.230241, 52.766323)">
                            <mask id="sfjuq0oeqaq" fill="#fff">
                                <use xlink:href="#q9kg8xm8uao"/>
                            </mask>
                            <path fill="url(#nj0aigk7dap)" d="M7.549 12.446l.17-.076c.218-.097.31-.358.202-.572-.423-.825-1.246-2.718-.182-3.159C9.109 8.07 14.54 6.95 15.712 5 16.84 3.127 15.84.707 14.341.02c-.1-.047-.219-.01-.27.089l-.125.24c-.086.163-.325.138-.376-.04-.048-.17-.273-.204-.366-.053-.36.583-1.333 1.529-3.933 2.014-3.696.69-6.14 2.203-6.2 4.788-.004.164-.177.254-.315.169-.273-.168-.71-.247-1.293.25-1.015.863-.6 3.102 1.625 4.945.106.087.105.254-.01.33-.403.265-1.004.898.554 1.74 1.612.872 2.815.8 3.278.723.116-.02.19-.132.165-.248l-.495-2.27c-.028-.129.069-.25.199-.25h.77" mask="url(#sfjuq0oeqaq)"/>
                        </g>
                        <g transform="translate(-81.000000, -2346.000000) translate(81.000000, 2346.000000) translate(0.928552, 0.000000) translate(46.044674, 62.938144)">
                            <mask id="t0rvf2r0hat" fill="#fff">
                                <use xlink:href="#tm40wyzndar"/>
                            </mask>
                            <path fill="url(#5z3v2ga4pas)" d="M3.481 2.43S2.71-.73 1.377.157c-1.331.885.692 3.54 1.762 3.657l.342-1.384" mask="url(#t0rvf2r0hat)"/>
                        </g>
                        <g transform="translate(-81.000000, -2346.000000) translate(81.000000, 2346.000000) translate(0.928552, 0.000000) translate(54.309278, 77.560137)">
                            <mask id="otpm2qm0law" fill="#fff">
                                <use xlink:href="#1wcyi81f9au"/>
                            </mask>
                            <path fill="url(#6ckxwskm3av)" d="M.938 0l.444 11.124c1.262.405 2.462.72 3.606.955.715-2.148 2.29-4.784 3.58-6.744C3.83 3.773.937 0 .937 0" mask="url(#otpm2qm0law)"/>
                        </g>
                        <g transform="translate(-81.000000, -2346.000000) translate(81.000000, 2346.000000) translate(0.928552, 0.000000) translate(58.123711, 77.560137)">
                            <mask id="68wecfb6aaz" fill="#fff">
                                <use xlink:href="#z9wexhp18ax"/>
                            </mask>
                            <path fill="url(#u0xfy6h7may)" d="M18.957 0C12.984 6.492 8.149 6.873 4.228 5.479c-1.185 1.943-2.632 4.558-3.29 6.688C16.89 15.707 20.646.947 20.646.947L18.957 0" mask="url(#68wecfb6aaz)"/>
                        </g>
                        <g transform="translate(-81.000000, -2346.000000) translate(81.000000, 2346.000000) translate(0.928552, 0.000000) translate(77.195876, 76.288660)">
                            <mask id="ld6f5detqaC" fill="#fff">
                                <use xlink:href="#m70imbwpvaA"/>
                            </mask>
                            <path fill="url(#2nqpvk5w9aB)" d="M.938.63s.772-.615 2.2-.422c1.43.194 2.7.563 3.59 0 .89-.562 1.203.193 1.203.193L5.267 1.907.938.631" mask="url(#ld6f5detqaC)"/>
                        </g>
                        <g transform="translate(-81.000000, -2346.000000) translate(81.000000, 2346.000000) translate(0.928552, 0.000000) translate(75.924399, 76.288660)">
                            <mask id="uyivb85osaF" fill="#fff">
                                <use xlink:href="#72v1vsg81aD"/>
                            </mask>
                            <path fill="url(#18dx0lltiaE)" d="M.938 1.99S1.423-.282 2.885.03C4.346.34 7.664 2.362 8.519 1.99c.855-.372 1.948-1.264 2.51-.949l-.989 1.377s2.54-1.642 2.977-.633L8.791 4.45S2.608 3.756.938 1.99" mask="url(#uyivb85osaF)"/>
                        </g>
                        <g transform="translate(-81.000000, -2346.000000) translate(81.000000, 2346.000000) translate(0.928552, 0.000000) translate(47.316151, 85.189003)">
                            <mask id="b5u5njne7aI" fill="#fff">
                                <use xlink:href="#zft4x2mfpaG"/>
                            </mask>
                            <path fill="url(#tlry9jr3maH)" d="M.938 7.324s11.474 9.722 23.863 5.48c.769-.263 1.609-.205 2.326.177l3.562 1.904c1.495.798 3.347.274 4.214-1.194.495-.838.917-1.794 1.001-2.71l-6.97-2.855.514-.865s-3.402-.291-4.293 2.176c0 0-6.481 2.728-17.412-9.437 0 0-4.96 4.267-6.805 7.324" mask="url(#b5u5njne7aI)"/>
                        </g>
                        <g transform="translate(-81.000000, -2346.000000) translate(81.000000, 2346.000000) translate(0.928552, 0.000000) translate(39.687285, 83.281787)">
                            <mask id="j1uoeukesaL" fill="#fff">
                                <use xlink:href="#yn9cfsunpaJ"/>
                            </mask>
                            <path fill="url(#g4uxtfra5aK)" d="M8.366 9.536c-.039 0-.078-.011-.113-.036C3.305 6 .977.35.954.293.911.186.96.063 1.061.017c.103-.045.22.004.264.112.022.055 2.307 5.593 7.154 9.022.092.065.116.196.053.292-.038.06-.102.093-.166.093" mask="url(#j1uoeukesaL)"/>
                        </g>
                        <g transform="translate(-81.000000, -2346.000000) translate(81.000000, 2346.000000) translate(0.928552, 0.000000) translate(41.594502, 74.381443)">
                            <mask id="yg9ybqvb1aO" fill="#fff">
                                <use xlink:href="#nrgf8h0r4aM"/>
                            </mask>
                            <path fill="url(#q0mleuzgnaN)" d="M13.458 10.172c-.063 0-.126-.03-.163-.084-.015-.021-1.477-2.158-4.263-6.839C8.175 1.81 7.05.9 5.686.54c-2.259-.592-4.436.544-4.457.555-.093.049-.212.02-.265-.068-.053-.088-.02-.2.073-.25.094-.049 2.332-1.224 4.75-.59 1.47.385 2.675 1.355 3.585 2.884 2.779 4.669 4.236 6.798 4.25 6.82.058.084.032.197-.058.252-.033.02-.07.029-.106.029" mask="url(#yg9ybqvb1aO)"/>
                        </g>
                        <g transform="translate(-81.000000, -2346.000000) translate(81.000000, 2346.000000) translate(0.928552, 0.000000) translate(138.591065, 22.886598)"/>
                        <path fill="#DCE6FB" d="M136.684 27.337c.345-.219.7-.43 1.06-.636.127.06.21.162.211.277.003.167-.167.307-.395.337-.027.003-.056.005-.084.006-.263.001-.528.007-.792.016" transform="translate(-81.000000, -2346.000000) translate(81.000000, 2346.000000) translate(0.928552, 0.000000)"/>
                        <g transform="translate(-81.000000, -2346.000000) translate(81.000000, 2346.000000) translate(0.928552, 0.000000) translate(118.518900, 183.728522)">
                            <mask id="6fhsml4zkaS" fill="#fff">
                                <use xlink:href="#gzxqspmwaaQ"/>
                            </mask>
                            <path fill="url(#fn29ntq22aR)" d="M1.352 0C3.856.194 8.203.51 11.63.646c2.06.082 3.246-.1 3.93-.345l-.007.195c-.017.324-.31.584-.674.602-6.475.325-11.626.112-13.46.012C1.043 1.09.816.72 1.01.428c.096-.145.214-.287.342-.428" mask="url(#6fhsml4zkaS)"/>
                        </g>
                        <g transform="translate(-81.000000, -2346.000000) translate(81.000000, 2346.000000) translate(0.928552, 0.000000) translate(119.154639, 178.642612)">
                            <mask id="zvhlho9k1aV" fill="#fff">
                                <use xlink:href="#qbmgkap7maT"/>
                            </mask>
                            <path fill="url(#5qvor1q9caU)" d="M11.056 5.7C7.682 5.55 3.404 5.204.938 4.99 3.362 2.01 11.056 0 11.056 0h2.173c1.495 2.16 1.71 4.215 1.695 5.32-.673.27-1.84.47-3.868.38" mask="url(#zvhlho9k1aV)"/>
                        </g>
                        <g transform="translate(-81.000000, -2346.000000) translate(81.000000, 2346.000000) translate(0.928552, 0.000000) translate(127.419244, 175.463918)">
                            <mask id="g15nzxyxmaY" fill="#fff">
                                <use xlink:href="#rmfk7dz0eaW"/>
                            </mask>
                            <path fill="url(#grga557naaX)" d="M5.389 0l-.224 3.634c-.024.394-.382.725-.86.781-.477.056-1.116.064-1.793-.122-.416-.114-.725-.403-.802-.755L.938 0h4.45" mask="url(#g15nzxyxmaY)"/>
                        </g>
                        <g transform="translate(-81.000000, -2346.000000) translate(81.000000, 2346.000000) translate(0.928552, 0.000000) translate(137.591065, 114.432990)">
                            <mask id="fnvpt791tbb" fill="#fff">
                                <use xlink:href="#q8co4w2o4aZ"/>
                            </mask>
                            <path fill="url(#1ot81kswqba)" d="M.967 1.271L.938.634C1 .475 1.161.352 1.37.304 2.147.13 4.086-.233 5.125.218l.264.717-4.422.337" mask="url(#fnvpt791tbb)"/>
                        </g>
                        <g transform="translate(-81.000000, -2346.000000) translate(81.000000, 2346.000000) translate(0.928552, 0.000000) translate(138.226804, 111.254296)">
                            <mask id="hic4df8sibe" fill="#fff">
                                <use xlink:href="#f2o91q6f0bc"/>
                            </mask>
                            <path fill="url(#vt7prswevbd)" d="M2.992 3.729c-.269.075-.546.1-.834.077-.347-.03-.624-.227-.669-.479L.94.185 2.922 0l.552 3.14c.044.253-.155.497-.483.589" mask="url(#hic4df8sibe)"/>
                        </g>
                        <g transform="translate(-81.000000, -2346.000000) translate(81.000000, 2346.000000) translate(0.928552, 0.000000) translate(131.233677, 125.876289)">
                            <mask id="isrot77epbh" fill="#fff">
                                <use xlink:href="#uz7xlnpiibf"/>
                            </mask>
                            <path fill="url(#kozz0z3whbg)" d="M7.58 6.432l-4.334.552c-.567.073-1.1-.287-1.239-.838L.973 2.058c-.165-.651.281-1.3.954-1.385L7.132.009c.659-.083 1.247.41 1.273 1.068l.161 4.2c.023.58-.406 1.08-.987 1.155" mask="url(#isrot77epbh)"/>
                        </g>
                        <g transform="translate(-81.000000, -2346.000000) translate(81.000000, 2346.000000) translate(0.928552, 0.000000) translate(131.869416, 125.876289)">
                            <mask id="55eingp5vbk" fill="#fff">
                                <use xlink:href="#4oyf0eu8xbi"/>
                            </mask>
                            <path fill="url(#79own26qqbj)" d="M5.92 5.262l-3.25.452c-.427.06-.826-.235-.93-.686L.964 1.684C.841 1.15 1.175.62 1.68.55L5.584.008c.494-.069.935.335.954.873l.121 3.436c.017.474-.304.884-.74.945" mask="url(#55eingp5vbk)"/>
                        </g>
                        <g transform="translate(-81.000000, -2346.000000) translate(81.000000, 2346.000000) translate(0.928552, 0.000000) translate(129.326460, 97.903780)">
                            <mask id="uhmjhky43bn" fill="#fff">
                                <use xlink:href="#sjihx3m6fbl"/>
                            </mask>
                            <path fill="url(#cthtbkygrbm)" d="M6.44.393c.98 4.192 1.007 8.292.858 9.785-.057.563-.494 1.002-1.04 1.041-.619.045-1.462.104-2.216.149-.828.05-1.748-.492-2.363-.945-.314-.231-.72.129-.545.484.303.611.827 1.093 1.348 1.502.313.246 1.354.684 1.282 1.17-.023.152-.112.285-.208.405-.579.718-1.454 1.101-2.318 1.376-.108.034-.223.07-.3.158-.02.578 1.698 1.22 2.142 1.373.664.228 1.369.325 2.067.248 1.73-.188 3.326-1.423 4.258-2.912 2.49-3.982 3.777-8.79 4.248-12.466C11.336-.635 7.84-.03 6.441.393" mask="url(#uhmjhky43bn)"/>
                        </g>
                        <g transform="translate(-81.000000, -2346.000000) translate(81.000000, 2346.000000) translate(0.928552, 0.000000) translate(126.512027, 75.017182)">
                            <mask id="qhwmlpt2ebp" fill="#fff">
                                <use xlink:href="#57xbmk48mbo"/>
                            </mask>
                            <path fill="#05A" d="M16.25 25.43C18.14 11.054 7.126 0 7.126 0L.574 7.684c4.975 6.238 7.34 11.954 8.42 16.443 1.433-.42 4.882-1.083 7.255 1.303" mask="url(#qhwmlpt2ebp)"/>
                        </g>
                        <g transform="translate(-81.000000, -2346.000000) translate(81.000000, 2346.000000) translate(0.928552, 0.000000) translate(35.872852, 176.735395)">
                            <mask id="vzkdq47mwbs" fill="#fff">
                                <use xlink:href="#xg5efj4hhbq"/>
                            </mask>
                            <path fill="url(#6tlshfj0ebr)" d="M10.474 7.286c.002-.072-.003-.146-.021-.22C9.378 2.712 4.048 0 4.048 0L1.935.169C.72 4.007.877 6.36 1.072 7.409c.005.03.014.057.022.086 1.742.159 5.329.263 9.38-.209" mask="url(#vzkdq47mwbs)"/>
                        </g>
                        <g transform="translate(-81.000000, -2346.000000) translate(81.000000, 2346.000000) translate(0.928552, 0.000000) translate(36.508591, 174.192440)">
                            <mask id="wj4net5tsbv" fill="#fff">
                                <use xlink:href="#tfdzc8wgkbt"/>
                            </mask>
                            <path fill="url(#j1ue9cmyfbu)" d="M.938 0l.791 4.456c.058.326.272.57.532.6.318.034.77.054 1.225-.024.408-.07.692-.556.62-1.076L3.556 0H.938" mask="url(#wj4net5tsbv)"/>
                        </g>
                        <g transform="translate(-81.000000, -2346.000000) translate(81.000000, 2346.000000) translate(0.928552, 0.000000) translate(50.494845, 183.092784)">
                            <mask id="to6vzwr87by" fill="#fff">
                                <use xlink:href="#owatb77febw"/>
                            </mask>
                            <path fill="url(#lbgikfo95bx)" d="M4.97.64C2.711.57 1.543.275.94 0c-.001.25 0 .504.007.768.008.28.195.505.425.503l12.405-.088c.396-.003.627-.514.456-.917C12.605.415 8.463.75 4.97.64" mask="url(#to6vzwr87by)"/>
                        </g>
                        <g transform="translate(-81.000000, -2346.000000) translate(81.000000, 2346.000000) translate(0.928552, 0.000000) translate(50.494845, 178.006873)">
                            <mask id="0jwlczepjbB" fill="#fff">
                                <use xlink:href="#4pkd4zmezbz"/>
                            </mask>
                            <path fill="url(#fvgnfauojbA)" d="M14.289 6.005c-.015-.031-.028-.062-.05-.092C13.14 4.4 10.337 1.389 4.8.083L2.143 0S.961 2.023.938 5.769c.607.244 1.78.507 4.05.57 3.507.096 7.668-.201 9.3-.334" mask="url(#0jwlczepjbB)"/>
                        </g>
                        <g transform="translate(-81.000000, -2346.000000) translate(81.000000, 2346.000000) translate(0.928552, 0.000000) translate(51.130584, 172.920962)">
                            <mask id="pj5e0jimvbE" fill="#fff">
                                <use xlink:href="#slid7hxoubC"/>
                            </mask>
                            <path fill="url(#5mmp5zl6cbD)" d="M.938.864c.044.196.614 3.191.835 4.352.053.276.274.478.537.493.47.025 1.227.029 1.879-.144.35-.092.587-.44.562-.828L4.444 0 .938.864" mask="url(#pj5e0jimvbE)"/>
                        </g>
                    </g>
                    <g transform="translate(-81.000000, -2346.000000) translate(81.000000, 2346.000000) translate(159.394687, 43.486056)"/>
                    <g transform="translate(-81.000000, -2346.000000) translate(81.000000, 2346.000000) translate(154.972376, 43.486056)"/>
                    <g transform="translate(-81.000000, -2346.000000) translate(81.000000, 2346.000000) translate(156.920583, 182.788845)">
                        <mask id="9kxndo0evbJ" fill="#fff">
                            <use xlink:href="#q3tsrsy3obH"/>
                        </mask>
                        <path fill="url(#3k59tcghtbI)" d="M4.417 1.426C5.417 1.263 5.87.652 6.059 0l.004.018c.147.687-.194 1.4-.876 1.74-.824.41-1.726.48-2.425.446-.751-.037-1.44-.402-1.819-.985L.937 1.21c.754.438 1.812.49 3.48.216" mask="url(#9kxndo0evbJ)"/>
                    </g>
                    <g transform="translate(-81.000000, -2346.000000) translate(81.000000, 2346.000000) translate(154.709428, 175.418327)">
                        <mask id="v1ip3qezfbM" fill="#fff">
                            <use xlink:href="#8791ggy33bK"/>
                        </mask>
                        <path fill="url(#4c7m0iewgbL)" d="M2.123 0h1.631C6.24-.052 7.8 5.375 8.311 7.476c-.185.56-.625 1.084-1.599 1.224-1.623.235-2.652.19-3.386-.185C1.983 6.685 1.318 4.006.998 2.443.633.665 2.123 0 2.123 0" mask="url(#v1ip3qezfbM)"/>
                    </g>
                    <g transform="translate(-81.000000, -2346.000000) translate(81.000000, 2346.000000) translate(153.235324, 171.733068)">
                        <mask id="9c8mpams2bP" fill="#fff">
                            <use xlink:href="#chqjiixtqbN"/>
                        </mask>
                        <path fill="url(#2tmm9kiw9bO)" d="M5.003 0l1.06 3.589c.13.44-.118.895-.596 1.104-.592.26-1.427.531-2.195.453-.36-.038-.66-.254-.78-.543L.938.827 5.003 0" mask="url(#9c8mpams2bP)"/>
                    </g>
                </g>
                <g transform="translate(-81.000000, -2346.000000) translate(81.000000, 2346.000000) translate(196.000000, 20.000000)"/>
            </g>
        </g>
    </g>
</svg>
