<svg xmlns="http://www.w3.org/2000/svg" width="46" height="50" viewBox="0 0 46 50">
    <g fill="none" fill-rule="evenodd" opacity=".5">
        <g>
            <g>
                <g fill="#000" fill-rule="nonzero">
                    <path d="M46 19.363c0-3.184-1.233-6.176-3.471-8.427L35.123 3.49C32.885 1.24 29.908 0 26.743 0H13.383c-.402 0-.728.328-.728.732 0 .405.326.733.728.733h11.72c3.042 0 5.518 2.489 5.518 5.548v3.822c0 2.552 2.064 4.627 4.601 4.627h3.802c3.037 0 5.508 2.479 5.518 5.53v24.381c0 1.744-1.41 3.162-3.144 3.162H9.58c-1.435 0-2.673-.96-3.039-2.347l-.03-4.518h23.625c3.207 0 5.816-2.623 5.816-5.847v-1.584c0-.404-.326-.732-.729-.732-.402 0-.728.328-.728.732v1.584c0 2.416-1.956 4.382-4.36 4.382H4.024c-1.415 0-2.566-1.157-2.566-2.58V21.773c.697.582 1.591.932 2.566.932h26.113c2.403 0 4.359 1.966 4.359 4.383v4.221c0 .405.326.733.728.733.403 0 .729-.328.729-.733v-4.221c0-3.225-2.61-5.848-5.816-5.848h-23.7V4.627c0-1.744 1.41-3.162 3.144-3.162h.89c.403 0 .73-.328.73-.733 0-.404-.327-.732-.73-.732h-.89c-2.537 0-4.6 2.076-4.6 4.627v9.988h-.957C1.805 14.615 0 16.43 0 18.66v18.965c0 2.23 1.805 4.045 4.023 4.045h1.03l.032 4.616c0 .056.007.111.02.165C5.6 48.541 7.442 50 9.58 50h31.819C43.936 50 46 47.924 46 45.373v-26.01zM3.914 16H5v5H3.914C2.307 21 1 19.878 1 18.5S2.307 16 3.914 16zm35.103-2.12h-3.774c-1.722 0-3.123-1.4-3.123-3.123V6.983C32.12 5.028 31.307 3.26 30 2c1.537.495 2.946 1.352 4.12 2.527l7.353 7.352C42.648 13.054 43.505 14.463 44 16c-1.26-1.307-3.028-2.12-4.983-2.12z" transform="translate(-120 -1055) translate(120 1055)"/>
                    <path d="M29.301 27.494c.386 0 .699-.334.699-.747 0-.412-.313-.747-.699-.747H25.7c-.386 0-.699.335-.699.747v9.506c0 .412.313.747.699.747.386 0 .699-.335.699-.747v-4.096h2.617c.386 0 .699-.334.699-.747s-.313-.747-.699-.747h-2.617v-3.169H29.3zM15.745 26c-.198 0-.388.079-.527.22-.14.14-.218.33-.218.529V36.098c0 .059.007.115.02.17.004.193.082.378.22.515.139.14.328.217.524.217h.003c.08 0 1.992-.008 2.753-.021 1.322-.023 2.499-.624 3.315-1.691.751-.984 1.165-2.33 1.165-3.788 0-3.29-1.837-5.5-4.571-5.5h-2.684zM22 31.502c0 2.023-1.235 3.456-3.005 3.483-.45.007-1.34.012-1.98.015-.003-.953-.01-2.698-.01-3.508L17 28h1.93c1.484 0 3.07.92 3.07 3.502zM7.756 26c-.2 0-.393.079-.535.218-.141.14-.22.327-.22.523L7 26.743v9.514c0 .41.339.743.756.743.418 0 .757-.332.757-.743v-3.394c.627-.003 1.498-.008 1.942-.008 1.955 0 3.545-1.537 3.545-3.427C14 27.538 12.41 26 10.455 26H7.756zM13 29.497c0 .812-.937 1.497-2.046 1.497-.445 0-1.31.003-1.942.006-.003-.488-.008-1.162-.008-1.503L9 28h1.954c1.109 0 2.046.686 2.046 1.497z" transform="translate(-120 -1055) translate(120 1055)"/>
                </g>
                <path fill="#000" fill-rule="nonzero" d="M46 19.363c0-3.184-1.233-6.176-3.471-8.427L35.123 3.49C32.885 1.24 29.908 0 26.743 0H13.383c-.402 0-.728.328-.728.732 0 .405.326.733.728.733h11.72c3.042 0 5.518 2.489 5.518 5.548v3.822c0 2.552 2.064 4.627 4.601 4.627h3.802c3.037 0 5.508 2.479 5.518 5.53v24.381c0 1.744-1.41 3.162-3.144 3.162H9.58c-1.435 0-2.673-.96-3.039-2.347l-.03-4.518h23.625c3.207 0 5.816-2.623 5.816-5.847v-1.584c0-.404-.326-.732-.729-.732-.402 0-.728.328-.728.732v1.584c0 2.416-1.956 4.382-4.36 4.382H4.024c-1.415 0-2.566-1.157-2.566-2.58V21.773c.697.582 1.591.932 2.566.932h26.113c2.403 0 4.359 1.966 4.359 4.383v4.221c0 .405.326.733.728.733.403 0 .729-.328.729-.733v-4.221c0-3.225-2.61-5.848-5.816-5.848h-23.7V4.627c0-1.744 1.41-3.162 3.144-3.162h.89c.403 0 .73-.328.73-.733 0-.404-.327-.732-.73-.732h-.89c-2.537 0-4.6 2.076-4.6 4.627v9.988h-.957C1.805 14.615 0 16.43 0 18.66v18.965c0 2.23 1.805 4.045 4.023 4.045h1.03l.032 4.616c0 .056.007.111.02.165C5.6 48.541 7.442 50 9.58 50h31.819C43.936 50 46 47.924 46 45.373v-26.01zM3.914 16H5v5H3.914C2.307 21 1 19.878 1 18.5S2.307 16 3.914 16zm35.103-2.12h-3.774c-1.722 0-3.123-1.4-3.123-3.123V6.983C32.12 5.028 31.307 3.26 30 2c1.537.495 2.946 1.352 4.12 2.527l7.353 7.352C42.648 13.054 43.505 14.463 44 16c-1.26-1.307-3.028-2.12-4.983-2.12z" transform="translate(-120 -1055) translate(120 1055)"/>
                <path d="M46 19.363c0-3.184-1.233-6.176-3.471-8.427L35.123 3.49C32.885 1.24 29.908 0 26.743 0H13.383c-.402 0-.728.328-.728.732 0 .405.326.733.728.733h11.72c3.042 0 5.518 2.489 5.518 5.548v3.822c0 2.552 2.064 4.627 4.601 4.627h3.802c3.037 0 5.508 2.479 5.518 5.53v24.381c0 1.744-1.41 3.162-3.144 3.162H9.58c-1.435 0-2.673-.96-3.039-2.347l-.03-4.518h23.625c3.207 0 5.816-2.623 5.816-5.847v-1.584c0-.404-.326-.732-.729-.732-.402 0-.728.328-.728.732v1.584c0 2.416-1.956 4.382-4.36 4.382H4.024c-1.415 0-2.566-1.157-2.566-2.58V21.773c.697.582 1.591.932 2.566.932h26.113c2.403 0 4.359 1.966 4.359 4.383v4.221c0 .405.326.733.728.733.403 0 .729-.328.729-.733v-4.221c0-3.225-2.61-5.848-5.816-5.848h-23.7V4.627c0-1.744 1.41-3.162 3.144-3.162h.89c.403 0 .73-.328.73-.733 0-.404-.327-.732-.73-.732h-.89c-2.537 0-4.6 2.076-4.6 4.627v9.988h-.957C1.805 14.615 0 16.43 0 18.66v18.965c0 2.23 1.805 4.045 4.023 4.045h1.03l.032 4.616c0 .056.007.111.02.165C5.6 48.541 7.442 50 9.58 50h31.819C43.936 50 46 47.924 46 45.373v-26.01z" transform="translate(-120 -1055) translate(120 1055)"/>
                <path d="M39.017 13.88h-3.774c-1.722 0-3.123-1.4-3.123-3.123V6.983C32.12 5.028 31.307 3.26 30 2c1.537.495 2.946 1.352 4.12 2.527l7.353 7.352C42.648 13.054 43.505 14.463 44 16c-1.26-1.307-3.028-2.12-4.983-2.12z" transform="translate(-120 -1055) translate(120 1055)"/>
                <path fill="#000" fill-rule="nonzero" d="M29.301 27.494c.386 0 .699-.334.699-.747 0-.412-.313-.747-.699-.747H25.7c-.386 0-.699.335-.699.747v9.506c0 .412.313.747.699.747.386 0 .699-.335.699-.747v-4.096h2.617c.386 0 .699-.334.699-.747s-.313-.747-.699-.747h-2.617v-3.169H29.3zM15.745 26c-.198 0-.388.079-.527.22-.14.14-.218.33-.218.529V36.098c0 .059.007.115.02.17.004.193.082.378.22.515.139.14.328.217.524.217h.003c.08 0 1.992-.008 2.753-.021 1.322-.023 2.499-.624 3.315-1.691.751-.984 1.165-2.33 1.165-3.788 0-3.29-1.837-5.5-4.571-5.5h-2.684zM21 32.002c0 2.313-.988 3.95-2.404 3.98-.36.009-1.072.015-1.584.018-.003-1.09-.008-3.083-.008-4.009L17 28h1.544C19.731 28 21 29.051 21 32.002zM7.756 26c-.2 0-.393.079-.535.218-.141.14-.22.327-.22.523L7 26.743v9.514c0 .41.339.743.756.743.418 0 .757-.332.757-.743v-3.394c.627-.003 1.498-.008 1.942-.008 1.955 0 3.545-1.537 3.545-3.427C14 27.538 12.41 26 10.455 26H7.756zM12 29.996c0 1.082-.703 1.996-1.535 1.996-.333 0-.982.005-1.456.008-.002-.65-.006-1.55-.006-2.004L9 28h1.465c.832 0 1.535.914 1.535 1.996z" transform="translate(-120 -1055) translate(120 1055)"/>
            </g>
        </g>
    </g>
</svg>
