<?xml version="1.0" encoding="UTF-8"?>
<svg width="162px" height="102px" viewBox="0 0 162 102" version="1.1" xmlns="http://www.w3.org/2000/svg" xmlns:xlink="http://www.w3.org/1999/xlink">
    <title>people</title>
    <defs>
        <polygon id="path-1" points="0 0.3402 16.6317 0.3402 16.6317 16.9732 0 16.9732"></polygon>
        <polygon id="path-3" points="0.7004 0.8042 14.012 0.8042 14.012 4.5422 0.7004 4.5422"></polygon>
        <polygon id="path-5" points="0.0309588445 0.91 14.5053672 0.91 14.5053672 18.2876 0.0309588445 18.2876"></polygon>
        <polygon id="path-7" points="5.05969368e-05 0.0274 35.9449208 0.0274 35.9449208 19 5.05969368e-05 19"></polygon>
    </defs>
    <g id="Page-1" stroke="none" stroke-width="1" fill="none" fill-rule="evenodd">
        <g id="Artboard" transform="translate(-740.000000, -720.000000)">
            <g id="people" transform="translate(740.000000, 720.000000)">
                <polygon id="Fill-1" fill="#1F2655" points="40.0846 55.6241 33.4136 53.9391 31.5796 46.8641 29.0116 55.5931 36.5706 57.4631"></polygon>
                <g id="Group-132" transform="translate(0.000000, 0.090000)">
                    <path d="M40.0846,55.5341 L57.2396,58.6741 C59.8696,59.4591 61.1546,62.9951 60.0166,65.4921 C59.1566,67.3801 57.1236,68.4401 55.0836,68.0651 L30.7986,66.0391 L32.5166,59.4941 L40.0846,55.5341 Z" id="Fill-2" fill="#D78E75"></path>
                    <path d="M60.0163,65.4926 L51.9863,85.5796 L46.0743,84.9746 C46.0743,84.9746 48.4583,64.2516 52.7573,63.1116 C58.8073,61.5076 60.0163,65.4926 60.0163,65.4926" id="Fill-4" fill="#D78E75"></path>
                    <polygon id="Fill-6" fill="#FEFEFE" points="46.0739 84.975 51.9859 85.58 48.3609 96.405 43.8259 95.157"></polygon>
                    <path d="M43.7897,93.8364 C43.7897,93.8364 47.8167,95.8564 49.9707,93.3074 L58.1377,99.1444 L42.1937,97.8504 L43.7897,93.8364 Z" id="Fill-8" fill="#131A1C"></path>
                    <polygon id="Fill-10" fill="#FEFEFE" points="58.0172 100.6122 42.0742 99.3182 42.1942 97.8502 58.1372 99.1442"></polygon>
                    <path d="M37.4411,56.4677 L54.5951,59.6077 C57.2251,60.3927 58.5101,63.9287 57.3721,66.4257 C56.5121,68.3137 54.4791,69.3737 52.4391,68.9987 L28.1551,66.9727 L29.8721,60.4277 L37.4411,56.4677 Z" id="Fill-12" fill="#D78E75"></path>
                    <path d="M57.3717,66.4262 L49.5547,86.0372 L43.6427,85.4322 C43.6427,85.4322 45.8137,65.1852 50.1127,64.0452 C56.1637,62.4412 57.3717,66.4262 57.3717,66.4262" id="Fill-14" fill="#D78E75"></path>
                    <polygon id="Fill-16" fill="#FEFEFE" points="43.6432 85.4321 49.5542 86.0371 45.7982 96.2381 41.2632 94.9901"></polygon>
                    <path d="M41.2272,93.6699 C41.2272,93.6699 45.2542,95.6889 47.4082,93.1409 L55.5752,98.9769 L39.6322,97.6829 L41.2272,93.6699 Z" id="Fill-18" fill="#131A1C"></path>
                    <polygon id="Fill-20" fill="#FEFEFE" points="55.4547 100.4453 39.5127 99.1513 39.6327 97.6833 55.5747 98.9773"></polygon>
                    <path d="M17.6969,46.7348 C17.6969,46.7348 9.2229,67.0208 28.1999,66.3628 C28.1999,66.3628 33.8299,58.4328 38.0389,56.5118 L32.8239,54.6378 L31.5799,46.7748 C31.5799,46.7748 25.2749,43.6568 17.6969,46.7348" id="Fill-22" fill="#89C5CC"></path>
                    <path d="M26.61,5.7529 C26.61,5.7529 36.395,6.5709 33.44,21.4929 C32.1,28.2619 34.468,29.6549 34.468,29.6549 L16.773,22.1669 L18.887,8.8769 L26.61,5.7529 Z" id="Fill-24" fill="#201410"></path>
                    <path d="M16.7917,13.8261 C16.7917,13.8261 17.9867,17.2431 15.7667,19.2481 C13.5467,21.2541 6.2377,32.4691 19.6717,36.3271 L26.5207,27.4571 L22.1097,10.8251 L16.7917,13.8261 Z" id="Fill-26" fill="#201410"></path>
                    <polygon id="Fill-28" fill="#D78E75" points="28.3717 19.6806 27.6187 26.5856 22.2257 26.5106 21.7297 16.1116"></polygon>
                    <path d="M25.0583,6.33 C25.0583,6.33 28.1503,5.678 29.7373,9.266 C29.7373,9.266 30.8583,11.878 32.4413,15.652 C33.2783,17.646 32.0923,19.995 29.9563,20.33 C28.6483,20.535 27.1103,20.561 25.5593,20.108 L23.2633,19.194 C17.6303,16.344 18.4763,7.927 24.6093,6.431 C24.7553,6.395 24.9063,6.361 25.0583,6.33" id="Fill-30" fill="#D78E75"></path>
                    <path d="M30.8629,13.2426 L32.5659,13.8886 C32.9209,14.0076 32.9879,14.3696 32.7499,14.4936 L31.4859,15.1496 L30.8629,13.2426 Z" id="Fill-32" fill="#D78E75"></path>
                    <path d="M20.278,12.7504 L23.243,15.8064 C29.68,10.0144 26.61,5.7524 26.61,5.7524 C26.61,5.7524 16.727,6.8134 20.278,12.7504" id="Fill-34" fill="#201410"></path>
                    <polygon id="Fill-36" fill="#201410" points="26.5993 10.6176 24.9823 15.5456 22.6503 13.4346"></polygon>
                    <path d="M28.2858,20.4701 L25.5588,20.1081 C25.5588,20.1081 26.2848,21.3101 28.0498,22.6341 L28.2858,20.4701 Z" id="Fill-38" fill="#A25841"></path>
                    <path d="M26.61,5.7529 C26.61,5.7529 19.577,4.0679 16.896,9.6589 C14.216,15.2499 21.667,20.0079 21.667,20.0079 L23.737,16.1309 L22.813,9.6949 L26.61,5.7529 Z" id="Fill-40" fill="#201410"></path>
                    <path d="M23.8473,17.4233 C23.8473,17.4233 29.9053,29.0933 16.3543,33.0813 L13.8563,25.8063 L20.6433,17.3383 L23.8473,17.4233 Z" id="Fill-42" fill="#201410"></path>
                    <path d="M21.2545,16.0278 C21.5855,17.1298 22.7465,17.7538 23.8475,17.4238 C24.9485,17.0918 25.5735,15.9318 25.2425,14.8308 C24.9115,13.7288 23.7515,13.1048 22.6505,13.4348 C21.5485,13.7658 20.9245,14.9268 21.2545,16.0278" id="Fill-44" fill="#D78E75"></path>
                    <path d="M21.2135,25.2172 C21.8105,24.8002 22.5025,24.5322 23.2225,24.4282 C24.7715,24.2052 27.4475,24.3452 29.0995,27.3862 C32.9015,34.3842 37.4635,45.8162 31.9265,49.2792 C31.9265,49.2792 23.3925,52.7092 19.7115,55.8782 C19.7115,55.8782 17.0675,53.9352 18.1335,46.2552 C19.1575,38.8712 15.0135,29.5462 21.2135,25.2172" id="Fill-46" fill="#89C5CC"></path>
                    <polygon id="Fill-48" fill="#D78E75" points="25.8913 51.0864 22.1583 38.7334 28.5663 36.0734 29.6233 48.0174"></polygon>
                    <path d="M45.5602,47.8618 L28.4512,46.9938 C26.6232,46.9018 25.1492,48.4658 25.3492,50.2838 C25.5262,51.8788 26.9362,53.0448 28.5352,52.9178 L43.3612,51.7388 C43.9932,51.6898 44.5642,51.3418 44.8992,50.8048 L45.5602,47.8618 Z" id="Fill-50" fill="#D78E75"></path>
                    <path d="M44.0231,47.9213 C44.0231,47.9213 46.3571,46.5843 48.6831,49.4823 C51.0081,52.3803 49.8891,53.8433 47.8891,54.4193 C45.8881,54.9943 44.7601,53.7663 43.0581,51.2553 C41.3551,48.7443 44.0231,47.9213 44.0231,47.9213" id="Fill-52" fill="#D78E75"></path>
                    <polygon id="Fill-54" fill="#89C5CC" points="27.0124 25.768 30.0884 39.336 21.1304 41.527 18.3354 30.862"></polygon>
                    <g id="Group-60" transform="translate(0.000000, 10.000000)">
                        <mask id="mask-2" fill="white">
                            <use xlink:href="#path-1"></use>
                        </mask>
                        <g id="Clip-59"></g>
                        <path d="M-0.0003,8.6572 C-0.0003,13.2492 3.7237,16.9732 8.3157,16.9732 C12.9077,16.9732 16.6317,13.2492 16.6317,8.6572 C16.6317,4.0642 12.9077,0.3402 8.3157,0.3402 C3.7237,0.3402 -0.0003,4.0642 -0.0003,8.6572" id="Fill-58" fill="#8B8B8B" mask="url(#mask-2)"></path>
                    </g>
                    <polygon id="Fill-61" fill="#8B8B8B" points="9.86 73.1284 19.718 73.1284 10.8 20.6304 0 19.2584"></polygon>
                    <path d="M48.4616,73.1284 C48.4616,69.2624 45.8906,66.1304 42.7166,66.1304 L15.6056,66.1304 C12.4326,66.1304 9.8596,69.2624 9.8596,73.1284 C9.8596,76.9924 12.4326,80.1254 15.6056,80.1254 L42.7166,80.1254 C45.8906,80.1254 48.4616,76.9924 48.4616,73.1284" id="Fill-63" fill="#8B8B8B"></path>
                    <polygon id="Fill-65" fill="#6B6B6B" points="15.8571 84.6171 42.7141 84.6171 44.7741 80.0021 14.8991 80.0021"></polygon>
                    <path d="M15.4196,68.3256 C15.4196,70.3466 16.6946,71.9846 18.2706,71.9846 L47.4886,71.9846 C49.0636,71.9846 50.3386,70.3466 50.3386,68.3256 C50.3386,66.3046 49.0636,64.6666 47.4886,64.6666 L18.2706,64.6666 C16.6946,64.6666 15.4196,66.3046 15.4196,68.3256" id="Fill-67" fill="#FDBF01"></path>
                    <path d="M16.8249,69.4789 L19.4939,71.6359 C21.4919,71.3359 21.9299,69.4519 21.5719,67.0799 L14.9509,29.9199 C14.5939,27.5479 13.6479,25.9769 11.6499,26.2759 L16.8249,69.4789 Z" id="Fill-69" fill="#FDBF01"></path>
                    <path d="M51.1628,54.0053 C51.1628,55.6633 49.8188,57.0063 48.1608,57.0063 L15.8598,57.0063 C14.2028,57.0063 12.8588,55.6633 12.8588,54.0053 C12.8588,52.3473 14.2028,51.0043 15.8598,51.0043 L48.1608,51.0043 C49.8188,51.0043 51.1628,52.3473 51.1628,54.0053" id="Fill-71" fill="#8B8B8B"></path>
                    <path d="M22.2995,85.2792 C19.7205,85.2792 16.7835,87.7172 15.8865,90.6032 L15.1905,92.8422 C14.8315,93.9962 14.8665,95.0312 15.2885,95.7582 C15.7125,96.4852 16.5145,96.8842 17.5445,96.8842 L42.1285,96.8842 C43.1585,96.8842 43.9605,96.4852 44.3845,95.7582 C44.8065,95.0312 44.8415,93.9962 44.4835,92.8422 L43.7865,90.6032 C42.8905,87.7172 39.9525,85.2792 37.3745,85.2792 L22.2995,85.2792 Z M12.7575,97.8612 C11.7555,96.1412 11.5875,93.8442 12.2985,91.5612 L12.9945,89.3212 C14.3415,84.9882 18.4285,81.5952 22.2995,81.5952 L37.3745,81.5952 C41.2445,81.5952 45.3315,84.9882 46.6785,89.3212 L47.3745,91.5612 C48.0855,93.8442 47.9175,96.1412 46.9165,97.8612 C45.9135,99.5812 44.1685,100.5682 42.1285,100.5682 L17.5445,100.5682 C15.5035,100.5682 13.7595,99.5812 12.7575,97.8612 L12.7575,97.8612 Z" id="Fill-73" fill="#6B6B6B"></path>
                    <path d="M116.0759,52.7499 L138.3819,60.4119 C140.8319,61.2529 142.2429,64.1209 141.5689,66.8889 C140.9139,69.5819 138.5099,71.2479 136.0639,70.7039 L110.1389,64.9369 C107.8529,64.4279 105.7259,63.1659 104.1919,61.2029 C102.4429,58.9659 101.0879,55.5299 102.6569,50.7359 L116.0759,52.7499 Z" id="Fill-75" fill="#292867"></path>
                    <polygon id="Fill-77" fill="#FCCCAA" points="152.9889 92.915 149.9339 86.343 145.7749 86.949 148.9439 94.123 152.9189 93.353"></polygon>
                    <path d="M148.0807,92.7607 C148.0807,92.7607 151.7647,93.4787 152.9207,90.9517 L160.7797,93.8037 L147.7007,96.3377 L148.0807,92.7607 Z" id="Fill-79" fill="#131A1C"></path>
                    <g id="Group-83" transform="translate(147.000000, 93.000000)">
                        <mask id="mask-4" fill="white">
                            <use xlink:href="#path-3"></use>
                        </mask>
                        <g id="Clip-82"></g>
                        <polygon id="Fill-81" fill="#FEFEFE" mask="url(#mask-4)" points="14.0124 2.0092 0.9334 4.5422 0.7004 3.3372 13.7804 0.8042"></polygon>
                    </g>
                    <path d="M153.2086,92.831 C153.2426,92.809 153.2706,92.777 153.2896,92.739 C153.6836,91.931 154.1506,91.478 154.1556,91.474 C154.2486,91.385 154.2496,91.243 154.1586,91.156 C154.0676,91.069 153.9176,91.074 153.8266,91.159 C153.8056,91.18 153.2976,91.669 152.8636,92.556 C152.8096,92.669 152.8586,92.802 152.9766,92.852 C153.0546,92.886 153.1426,92.875 153.2086,92.831" id="Fill-84" fill="#FEFEFE"></path>
                    <path d="M154.446,93.1679 C154.479,93.1459 154.508,93.1149 154.526,93.0759 C154.921,92.2689 155.388,91.8149 155.393,91.8109 C155.485,91.7219 155.486,91.5799 155.395,91.4929 C155.304,91.4069 155.154,91.4099 155.064,91.4959 C155.042,91.5169 154.534,92.0059 154.101,92.8929 C154.046,93.0059 154.096,93.1389 154.214,93.1889 C154.292,93.2229 154.379,93.2119 154.446,93.1679" id="Fill-86" fill="#FEFEFE"></path>
                    <path d="M155.6823,93.5048 C155.7153,93.4828 155.7443,93.4518 155.7633,93.4128 C156.1573,92.6058 156.6243,92.1518 156.6293,92.1478 C156.7223,92.0598 156.7233,91.9178 156.6323,91.8308 C156.5413,91.7438 156.3913,91.7468 156.3003,91.8338 C156.2793,91.8538 155.7703,92.3438 155.3373,93.2298 C155.2823,93.3428 155.3323,93.4758 155.4503,93.5258 C155.5283,93.5598 155.6163,93.5488 155.6823,93.5048" id="Fill-88" fill="#FEFEFE"></path>
                    <polygon id="Fill-90" fill="#292867" points="140.2838 61.3549 152.5278 88.6959 144.9748 91.9799 133.3698 67.3899"></polygon>
                    <polygon id="Fill-92" fill="#FCCCAA" points="111.5612 19.4467 111.0652 26.8787 104.0942 25.8937 104.9082 14.8147"></polygon>
                    <path d="M111.3083,23.2333 C111.3623,23.1703 108.7303,22.0463 107.9303,19.2463 L111.5043,20.2933 L111.3083,23.2333 Z" id="Fill-94" fill="#ECB28A"></path>
                    <path d="M109.6716,4.7792 C109.6716,4.7792 113.0536,4.4642 114.3056,8.4922 C114.3056,8.4922 115.1796,11.4212 116.4046,15.6462 C117.0526,17.8792 115.4956,20.2412 113.1726,20.3352 C111.7506,20.3932 110.1046,20.2312 108.5046,19.5552 L106.1656,18.2962 C100.5016,14.5572 102.4436,5.6712 109.1786,4.8312 C109.3396,4.8112 109.5036,4.7942 109.6716,4.7792" id="Fill-96" fill="#FCCCAA"></path>
                    <path d="M114.8415,12.0766 L116.8485,13.6046 C117.1235,13.8146 117.1345,14.3056 116.8655,14.4146 L115.4465,14.9926 L114.8415,12.0766 Z" id="Fill-98" fill="#FCCCAA"></path>
                    <g id="Group-102" transform="translate(99.000000, 0.000000)">
                        <mask id="mask-6" fill="white">
                            <use xlink:href="#path-5"></use>
                        </mask>
                        <g id="Clip-101"></g>
                        <path d="M8.3844,13.8456 C8.3844,13.8456 11.7434,12.4146 9.2024,8.3456 C9.2024,8.3456 16.2794,6.2136 14.0824,2.5826 C11.8864,-1.0484 8.1364,2.0806 6.9974,3.9916 C6.9974,3.9916 -1.6746,6.8526 0.3324,11.5136 C2.3324,16.1606 5.6534,18.2876 5.6534,18.2876 C5.6534,18.2876 7.7804,17.1246 7.6144,14.2736 L8.3844,13.8456 Z" id="Fill-100" fill="#020303" mask="url(#mask-6)"></path>
                    </g>
                    <path d="M104.4118,14.6664 C104.6288,15.8834 105.7918,16.6934 107.0088,16.4774 C108.2248,16.2594 109.0358,15.0974 108.8178,13.8804 C108.6008,12.6634 107.4378,11.8534 106.2218,12.0694 C105.0048,12.2874 104.1938,13.4494 104.4118,14.6664" id="Fill-103" fill="#FCCCAA"></path>
                    <path d="M104.5221,25.0229 C104.5221,25.0229 99.4941,27.9459 100.4861,39.6829 C101.4771,51.4199 103.8331,59.0659 103.8331,59.0659 C103.8331,59.0659 111.1641,59.5259 119.7351,54.1369 C119.7351,54.1369 118.4261,33.8259 111.5381,25.6119 L104.5221,25.0229 Z" id="Fill-105" fill="#5988B6"></path>
                    <path d="M125.2897,51.3598 C125.2897,51.3598 124.8467,52.0828 126.5497,51.4308 L125.6637,52.0248 C125.6637,52.0248 129.8097,51.9718 132.7717,52.6098 C132.7717,52.6098 133.0137,46.7308 125.9947,48.8958 L125.2897,51.3598 Z" id="Fill-107" fill="#FCCCAA"></path>
                    <polygon id="Fill-109" fill="#FCCCAA" points="125.8923 48.7226 122.7703 48.2636 122.3813 51.9516 127.8063 50.7366"></polygon>
                    <polygon id="Fill-111" fill="#5988B6" points="108.987 52.7446 126.801 51.9756 126.733 48.6656 110.023 46.9706"></polygon>
                    <path d="M111.4274,28.9125 L113.3824,48.4325 C113.5594,50.3215 112.1874,51.9895 110.2604,52.2285 C108.2264,52.4805 106.3504,51.0485 106.1074,49.0585 L103.5434,28.8295 C103.4964,26.7565 105.1504,25.0495 107.2784,24.9745 C109.5494,24.8955 111.4494,26.6995 111.4274,28.9125" id="Fill-113" fill="#5988B6"></path>
                    <path d="M84.1364,19.0888 C84.1364,23.6818 87.8604,27.4048 92.4524,27.4048 C97.0444,27.4048 100.7684,23.6818 100.7684,19.0888 C100.7684,14.4958 97.0444,10.7728 92.4524,10.7728 C87.8604,10.7728 84.1364,14.4958 84.1364,19.0888" id="Fill-115" fill="#8B8B8B"></path>
                    <polygon id="Fill-117" fill="#8B8B8B" points="93.9967 73.5605 103.8547 73.5605 94.9367 21.0625 84.1367 19.6905"></polygon>
                    <path d="M132.5983,73.5605 C132.5983,69.6945 130.0273,66.5615 126.8533,66.5615 L99.7413,66.5615 C96.5683,66.5615 93.9963,69.6945 93.9963,73.5605 C93.9963,77.4245 96.5683,80.5575 99.7413,80.5575 L126.8533,80.5575 C130.0273,80.5575 132.5983,77.4245 132.5983,73.5605" id="Fill-119" fill="#8B8B8B"></path>
                    <polygon id="Fill-121" fill="#6B6B6B" points="99.9928 85.0493 126.8508 85.0493 128.9108 80.4343 99.0348 80.4343"></polygon>
                    <path d="M99.5563,68.7578 C99.5563,70.7788 100.8313,72.4168 102.4073,72.4168 L131.6243,72.4168 C133.1993,72.4168 134.4753,70.7788 134.4753,68.7578 C134.4753,66.7368 133.1993,65.0988 131.6243,65.0988 L102.4073,65.0988 C100.8313,65.0988 99.5563,66.7368 99.5563,68.7578" id="Fill-123" fill="#FDBF01"></path>
                    <path d="M100.9616,69.9111 L103.6306,72.0681 C105.6286,71.7681 106.0666,69.8841 105.7086,67.5121 L99.0866,30.3521 C98.7306,27.9801 97.7836,26.4091 95.7856,26.7081 L100.9616,69.9111 Z" id="Fill-125" fill="#FDBF01"></path>
                    <g id="Group-129" transform="translate(96.000000, 82.000000)">
                        <mask id="mask-8" fill="white">
                            <use xlink:href="#path-7"></use>
                        </mask>
                        <g id="Clip-128"></g>
                        <path d="M10.4352,3.7114 C7.8572,3.7114 4.9202,6.1484 4.0232,9.0344 L3.3272,11.2744 C2.9682,12.4284 3.0022,13.4634 3.4252,14.1894 C3.8482,14.9174 4.6502,15.3164 5.6812,15.3164 L30.2652,15.3164 C31.2952,15.3164 32.0972,14.9174 32.5202,14.1894 C32.9432,13.4634 32.9782,12.4284 32.6192,11.2744 L31.9232,9.0344 C31.0262,6.1484 28.0892,3.7114 25.5112,3.7114 L10.4352,3.7114 Z M0.8932,16.2934 C-0.1088,14.5734 -0.2768,12.2764 0.4352,9.9934 L1.1312,7.7534 C2.4782,3.4204 6.5652,0.0274 10.4352,0.0274 L25.5112,0.0274 C29.3802,0.0274 33.4672,3.4204 34.8152,7.7534 L35.5102,9.9934 C36.2212,12.2764 36.0542,14.5734 35.0522,16.2934 C34.0502,18.0134 32.3042,19.0004 30.2652,19.0004 L5.6812,19.0004 C3.6392,19.0004 1.8962,18.0134 0.8932,16.2934 L0.8932,16.2934 Z" id="Fill-127" fill="#6B6B6B" mask="url(#mask-8)"></path>
                    </g>
                    <path d="M135.2985,54.4374 C135.2985,56.0944 133.9545,57.4384 132.2975,57.4384 L99.9965,57.4384 C98.3395,57.4384 96.9955,56.0944 96.9955,54.4374 C96.9955,52.7794 98.3395,51.4364 99.9965,51.4364 L132.2975,51.4364 C133.9545,51.4364 135.2985,52.7794 135.2985,54.4374" id="Fill-130" fill="#8B8B8B"></path>
                </g>
            </g>
        </g>
    </g>
</svg>