<?xml version="1.0" encoding="UTF-8"?>
<svg width="80px" height="80px" viewBox="0 0 80 80" version="1.1" xmlns="http://www.w3.org/2000/svg" xmlns:xlink="http://www.w3.org/1999/xlink">
    <title>people</title>
    <defs>
        <rect id="path-1" x="0" y="0" width="80" height="80"></rect>
        <polygon id="path-3" points="0.0197286754 0.579901961 9.24361635 0.579901961 9.24361635 11.6538627 0.0197286754 11.6538627"></polygon>
        <polygon id="path-5" points="3.2243146e-05 0.0174607843 22.906077 0.0174607843 22.906077 12.1078431 3.2243146e-05 12.1078431"></polygon>
    </defs>
    <g id="Page-1" stroke="none" stroke-width="1" fill="none" fill-rule="evenodd">
        <g id="Artboard" transform="translate(-634.000000, -321.000000)">
            <g id="people" transform="translate(634.000000, 321.000000)">
                <mask id="mask-2" fill="white">
                    <use xlink:href="#path-1"></use>
                </mask>
                <g id="Mask"></g>
                <g id="Group-133-Copy-2" mask="url(#mask-2)">
                    <g transform="translate(-45.000000, 26.000000)" id="Group-132">
                        <g transform="translate(0.000000, 0.057353)">
                            <path d="M73.9699363,33.6151324 L88.1845441,38.4977794 C89.7458186,39.0337108 90.6449853,40.8613578 90.2154755,42.6252794 C89.7980735,44.3414069 88.2661127,45.4030735 86.7073873,45.0564069 L70.1865539,41.3813578 C68.7297892,41.0569951 67.374348,40.2527794 66.396799,39.001848 C65.2822402,37.5763088 64.4187598,35.386701 65.4186127,32.331701 L73.9699363,33.6151324 Z" id="Fill-75" fill="#292867"></path>
                            <polygon id="Fill-90" fill="#292867" points="89.3965392 39.0987108 97.1990882 56.5218971 92.385902 58.6146422 84.9905588 42.9445441"></polygon>
                            <polygon id="Fill-92" fill="#FCCCAA" points="71.0929216 12.3925049 70.7768431 17.1285833 66.3345392 16.5008873 66.8532647 9.4407402"></polygon>
                            <path d="M70.9317598,14.8055343 C70.9661716,14.7653873 69.2889167,14.0491127 68.7791127,12.264799 L71.0566618,12.9320049 L70.9317598,14.8055343 Z" id="Fill-94" fill="#ECB28A"></path>
                            <path d="M69.8887647,3.04556863 C69.8887647,3.04556863 72.0439608,2.84483333 72.8418039,5.41169608 C72.8418039,5.41169608 73.3987647,7.27821569 74.179402,9.97061765 C74.5923431,11.3936078 73.6001373,12.8988039 72.1197941,12.9587059 C71.2136176,12.9956667 70.1646961,12.8924314 69.1450882,12.4616471 L67.654549,11.6593431 C64.0451373,9.27664706 65.2826863,3.614 69.574598,3.07870588 C69.6771961,3.06596078 69.7817059,3.05512745 69.8887647,3.04556863" id="Fill-96" fill="#FCCCAA"></path>
                            <path d="M73.1833088,7.69587255 L74.4622794,8.66959804 C74.6375245,8.80342157 74.6445343,9.11631373 74.4731127,9.18577451 L73.568848,9.55410784 L73.1833088,7.69587255 Z" id="Fill-98" fill="#FCCCAA"></path>
                            <g id="Group-102" transform="translate(63.088235, 0.000000)">
                                <mask id="mask-4" fill="white">
                                    <use xlink:href="#path-3"></use>
                                </mask>
                                <g id="Clip-101"></g>
                                <path d="M5.343,8.82317647 C5.343,8.82317647 7.48353922,7.91126471 5.86427451,5.31827451 C5.86427451,5.31827451 10.3741275,3.95964706 8.97407843,1.64577451 C7.57466667,-0.668098039 5.18496078,1.32587255 4.45912745,2.54366667 C4.45912745,2.54366667 -1.06714706,4.36685294 0.211823529,7.33709804 C1.48633333,10.2984216 3.60265686,11.6538627 3.60265686,11.6538627 C3.60265686,11.6538627 4.95809804,10.9127353 4.85231373,9.09592157 L5.343,8.82317647 Z" id="Fill-100" fill="#020303" mask="url(#mask-4)"></path>
                            </g>
                            <path d="M66.5369314,9.34623529 C66.6752157,10.1217745 67.4163431,10.637951 68.1918824,10.5003039 C68.9667843,10.3613824 69.483598,9.62089216 69.3446765,8.84535294 C69.2063922,8.06981373 68.4652647,7.55363725 67.6903627,7.69128431 C66.9148235,7.83020588 66.3980098,8.57069608 66.5369314,9.34623529" id="Fill-103" fill="#FCCCAA"></path>
                            <path d="M66.6072206,15.9459657 C66.6072206,15.9459657 63.4031029,17.8086618 64.0352598,25.2881225 C64.6667794,32.7675833 66.168152,37.6400343 66.168152,37.6400343 C66.168152,37.6400343 70.8398676,37.9331716 76.3017794,34.4990049 C76.3017794,34.4990049 75.4676127,21.5557206 71.078201,16.3213088 L66.6072206,15.9459657 Z" id="Fill-105" fill="#5988B6"></path>
                            <path d="M79.8414755,32.7292843 C79.8414755,32.7292843 79.5591716,33.1900196 80.6444167,32.7745294 L80.0798088,33.1530588 C80.0798088,33.1530588 82.7218676,33.1192843 84.6094167,33.5258529 C84.6094167,33.5258529 84.7636324,29.7794314 80.2907402,31.1590882 L79.8414755,32.7292843 Z" id="Fill-107" fill="#FCCCAA"></path>
                            <polygon id="Fill-109" fill="#FCCCAA" points="80.2254853 31.0487157 78.2359755 30.7562157 77.9880833 33.1064118 81.4451912 32.3321471"></polygon>
                            <polygon id="Fill-111" fill="#5988B6" points="69.4525 33.6117549 80.8045588 33.1217059 80.7612255 31.0123922 70.1126961 29.9322451"></polygon>
                            <path d="M71.0076569,18.4246324 L72.2534902,30.863848 C72.3662843,32.0676225 71.4919706,33.1305637 70.2639804,33.2828676 C68.9678039,33.4434559 67.7723137,32.5309069 67.6174608,31.2627696 L65.9835392,18.3717402 C65.9535882,17.0507108 67.0076078,15.9629167 68.3636863,15.9151225 C69.8108922,15.8647794 71.0216765,17.0143873 71.0076569,18.4246324" id="Fill-113" fill="#5988B6"></path>
                            <path d="M53.6163333,12.1644314 C53.6163333,15.0913431 55.9894706,17.4638431 58.9157451,17.4638431 C61.8420196,17.4638431 64.2151569,15.0913431 64.2151569,12.1644314 C64.2151569,9.23751961 61.8420196,6.86501961 58.9157451,6.86501961 C55.9894706,6.86501961 53.6163333,9.23751961 53.6163333,12.1644314" id="Fill-115" fill="#8B8B8B"></path>
                            <polygon id="Fill-117" fill="#8B8B8B" points="59.8998578 46.8767892 66.1819167 46.8767892 60.4988775 13.4221814 53.6165245 12.5478676"></polygon>
                            <path d="M84.4989167,46.8767892 C84.4989167,44.4131618 82.8605343,42.4166422 80.8378873,42.4166422 L63.5606324,42.4166422 C61.5386225,42.4166422 59.8996029,44.4131618 59.8996029,46.8767892 C59.8996029,49.3391422 61.5386225,51.3356618 63.5606324,51.3356618 L80.8378873,51.3356618 C82.8605343,51.3356618 84.4989167,49.3391422 84.4989167,46.8767892" id="Fill-119" fill="#8B8B8B"></path>
                            <polygon id="Fill-121" fill="#6B6B6B" points="63.720902 54.1980833 80.8362941 54.1980833 82.1490392 51.257152 63.1104118 51.257152"></polygon>
                            <path d="M63.4427402,43.8162451 C63.4427402,45.1041373 64.2552402,46.1479608 65.2595539,46.1479608 L83.8782304,46.1479608 C84.8819069,46.1479608 85.6950441,45.1041373 85.6950441,43.8162451 C85.6950441,42.5283529 84.8819069,41.4845294 83.8782304,41.4845294 L65.2595539,41.4845294 C64.2552402,41.4845294 63.4427402,42.5283529 63.4427402,43.8162451" id="Fill-123" fill="#FDBF01"></path>
                            <path d="M64.3382745,44.5511912 L66.0391078,45.92575 C67.3123431,45.7345735 67.5914608,44.5339853 67.3633235,43.0224167 L63.1434216,19.3420245 C62.9165588,17.8304559 62.3130784,16.8293284 61.0398431,17.0198676 L64.3382745,44.5511912 Z" id="Fill-125" fill="#FDBF01"></path>
                            <g id="Group-129" transform="translate(61.176471, 52.254902)">
                                <mask id="mask-6" fill="white">
                                    <use xlink:href="#path-5"></use>
                                </mask>
                                <g id="Clip-128"></g>
                                <path d="M6.64988235,2.36510784 C5.00703922,2.36510784 3.13542157,3.91809804 2.56380392,5.75721569 L2.12027451,7.18466667 C1.8915,7.92005882 1.91316667,8.57961765 2.18272549,9.04226471 C2.45228431,9.50618627 2.96336275,9.76045098 3.62037255,9.76045098 L19.2866471,9.76045098 C19.9430196,9.76045098 20.454098,9.50618627 20.7236569,9.04226471 C20.9932157,8.57961765 21.0155196,7.92005882 20.7867451,7.18466667 L20.3432157,5.75721569 C19.771598,3.91809804 17.8999804,2.36510784 16.2571373,2.36510784 L6.64988235,2.36510784 Z M0.569196078,10.383049 C-0.0693333333,9.28697059 -0.176392157,7.82319608 0.277333333,6.36834314 L0.720862745,4.94089216 C1.5792451,2.17966667 4.18370588,0.0174607843 6.64988235,0.0174607843 L16.2571373,0.0174607843 C18.7226765,0.0174607843 21.3271373,2.17966667 22.1861569,4.94089216 L22.629049,6.36834314 C23.0821373,7.82319608 22.9757157,9.28697059 22.3371863,10.383049 C21.6986569,11.4791275 20.5860098,12.108098 19.2866471,12.108098 L3.62037255,12.108098 C2.31909804,12.108098 1.20836275,11.4791275 0.569196078,10.383049 L0.569196078,10.383049 Z" id="Fill-127" fill="#6B6B6B" mask="url(#mask-6)"></path>
                            </g>
                            <path d="M86.2196324,34.6905 C86.2196324,35.7464314 85.3631618,36.602902 84.3072304,36.602902 L63.7232598,36.602902 C62.6673284,36.602902 61.8108578,35.7464314 61.8108578,34.6905 C61.8108578,33.6339314 62.6673284,32.778098 63.7232598,32.778098 L84.3072304,32.778098 C85.3631618,32.778098 86.2196324,33.6339314 86.2196324,34.6905" id="Fill-130" fill="#8B8B8B"></path>
                        </g>
                    </g>
                </g>
            </g>
        </g>
    </g>
</svg>