<svg xmlns="http://www.w3.org/2000/svg" xmlns:xlink="http://www.w3.org/1999/xlink" width="498" height="287" viewBox="0 0 498 287">
    <defs>
        <path id="hvjcg3bz8a" d="M0.425 0.808L12.425 0.808 12.425 12.808 0.425 12.808z"/>
        <path id="woab3mhqfc" d="M.622 5.489c-.175 2.5.878 4.731 2.437 6.551L.264 25h8.118l-1.375-9.678c2.191 1.314 4.344 1.949 5.353 1.69 2.533-.65 2.765-9.871.806-13.505C12.204 1.722 9.287.433 6.506.433 3.62.433.881 1.822.622 5.489z"/>
        <path id="p3g17o6pfe" d="M0 0.16L17.832 0.16 17.832 25.409 0 25.409z"/>
        <path id="6ak7qv5k7f" d="M0 0L27 0 27 26.374 0 26.374z"/>
        <path id="rg8tboceqh" d="M0 0L24 0 24 25 0 25z"/>
    </defs>
    <g fill="none" fill-rule="evenodd">
        <g>
            <g transform="translate(-749 -3401) translate(749 3401)">
                <g fill="#89C5CC">
                    <path d="M12.501 0c-1.22 0-2.438.035-3.657.125-.93.07-2.35-.205-3.136.619-.818.855-.761 2.607-.634 3.844.675 6.54 2.322 12.34 5.768 16.975 5.305 7.135 11.387 10.76 18.583 12.375 5.056 1.134 9.723-.44 13.444-5.552 2.72 7.175 4.782 15.116 5.817 23.13.51 3.955.667 7.862.577 11.889-.058 2.579-.158 5.152-.353 7.719-.084 1.115-.484 2.804-.177 3.858.36 1.237 1.576 1.357 2.122.302.454-.879.37-2.604.464-3.643.154-1.728.298-3.456.4-5.19.166-2.809.29-5.625.281-8.444-.021-6.333-1.012-12.692-2.366-18.704-2.6-11.534-6.816-21.785-13.374-29.827-4.032-4.946-8.647-6.949-13.883-8.024C19.117.782 15.804 0 12.5 0" transform="translate(39 141)"/>
                    <path d="M30.762 55c-13.505 0-22.6 11.012-26.9 22.457-1.622 4.314-2.001 9.051-2.626 13.581-.2 1.454-.127 3.67-.71 4.964-.211.47-.697.639-.465 1.278.14.388.416.625.83.702.85.158 2.05-.778 2.779-1.147 6.04-3.065 10.01-7.805 13.247-13.603 2.007-3.594 4.044-7.325 5.236-11.271.728-2.41 1.152-4.949 1.401-7.45.098-.984.193-1.992.187-2.983-.005-.983-.457-1.503-.782-2.358 4.506-1.726 9.592-2.196 14.156-.408 4.222 1.654 7.729 4.85 9.693 8.866.51 1.044.903 2.145 1.19 3.268.187.736.196 1.69.544 2.355.843 1.613 2.617.535 2.447-.966-.475-4.187-2.843-8.39-5.868-11.3C41.305 57.312 36.132 55 30.76 55" transform="translate(39 141)"/>
                </g>
                <g transform="translate(156)">
                    <rect width="158" height="163" fill="#F2F2F2" rx="8"/>
                    <path fill="#C5CFD6" d="M8 0h142c4.418 0 8 3.582 8 8v5H0V8c0-4.418 3.582-8 8-8z"/>
                    <g fill="#F2F2F2" transform="translate(10 3)">
                        <circle cx="2" cy="2" r="2"/>
                        <circle cx="8" cy="2" r="2"/>
                        <circle cx="14" cy="2" r="2"/>
                    </g>
                    <g>
                        <g transform="translate(4 12)">
                            <rect width="148" height="26" fill="#FFF" rx="4"/>
                            <g fill="#DDE3E9" transform="translate(8 8)">
                                <rect width="95" height="4" rx="2"/>
                                <rect width="64" height="4" y="7" rx="2"/>
                            </g>
                        </g>
                        <g transform="translate(4 12) translate(0 30)">
                            <rect width="148" height="28" fill="#FFF" rx="4"/>
                            <g fill="#DDE3E9" transform="translate(8 9)">
                                <rect width="95" height="4" rx="2"/>
                                <rect width="64" height="4" y="7" rx="2"/>
                            </g>
                        </g>
                        <g transform="translate(4 12) translate(0 92)">
                            <rect width="148" height="28" fill="#FFF" rx="4"/>
                            <g fill="#DDE3E9" transform="translate(8 8)">
                                <rect width="95" height="4" rx="2"/>
                                <rect width="64" height="4" y="7" rx="2"/>
                            </g>
                            <g transform="translate(124 7)">
                                <circle cx="6.5" cy="6.5" r="6.5" fill="#DDE3E9"/>
                                <circle cx="7" cy="7" r="3" fill="#F2F2F2"/>
                            </g>
                        </g>
                        <g transform="translate(4 12) translate(0 61)">
                            <rect width="148" height="28" fill="#FFF" rx="4"/>
                            <g fill="#DDE3E9" transform="translate(8 8)">
                                <rect width="95" height="4" rx="2"/>
                                <rect width="64" height="4" y="7" rx="2"/>
                            </g>
                            <g transform="translate(124 7)">
                                <circle cx="7" cy="7" r="7" fill="#DDE3E9"/>
                                <circle cx="7" cy="7" r="3" fill="#F2F2F2"/>
                            </g>
                        </g>
                    </g>
                </g>
                <path fill="#89C5CC" d="M412.614 47.865c-.337-.251-1.137-.34-1.51-.416-1.546-.313-3.14-.449-4.716-.449-4.863.007-9.805.497-14.587 1.345-3.036.538-6.706 2.35-9.726 1.366-5.262-1.714-10.58-1.63-15.572.817-4.564 2.237-8.028 6.486-10.05 11.078-.305.693-1.543 3.244-1.893 4.963-.15.352-.294.706-.424 1.065-.368 1.02-.698 2.059-1.005 3.099-.131.443-.46 1.423-.07 1.613-.625 1.184-1.18 2.405-1.641 3.666-1.343 3.666-2.812 7.687-3.284 11.572-.175 1.44-.181 2.886-.019 4.328.08.712.047 2.145.518 2.687.999 1.15 1.512-.46 1.4-1.226-.86-5.842.8-11.328 2.768-16.82 1.272-3.55 3.363-6.8 5.706-9.742 1.895-2.381 3.929-4.256 6.527-5.835 3.178-1.931 6.576-3.492 9.942-5.058 2.214-1.03 4.43-2.033 6.706-2.92.506-.198 1.302-.704 1.863-.706 1.187-.004 2.868.894 4.015 1.228 3.77 1.1 7.587 2.508 11.483 3.07 2.5.36 4.84-.045 7.178-.9.239-.087.639-.31 1.13-.631 1.734-.685 3.376-1.547 4.805-2.791.823-.717 1.57-1.643 2.252-2.49.204-.254.294-.544.297-.82.155-.083.257-.18.28-.293.17-.834-1.38-.85-2.373-.8" transform="matrix(-1 0 0 1 763 0)"/>
                <path fill="#69A1AC" d="M460.715 57.42c-2.17-.474-4.567-.438-6.778-.399-11.858.161-23.502 5.775-31.08 14.746-6.452 7.636-8.226 17.13-9.5 26.728-.127.953-.18 1.9-.252 2.855-.016.205-.038.388-.063.56-.501.448-.764.97-.467 1.544-1.104 2.417-2.039 4.894-2.84 7.45-2.359 7.522-4.759 15.186-3.28 23.096.345-4.353 1.071-8.804 1.94-13.085.05-.246.104-.49.16-.732l.017-.077c.308-1.311.707-2.583 1.194-3.835l.015-.04c.064-.165.132-.329.2-.493.139-.339.282-.678.434-1.014.05-.115.1-.231.147-.348.708-1.734 1.007-3.689 1.641-5.484.152-.408.31-.814.477-1.219l.03-.07c.448-1.09.944-2.164 1.469-3.228.285-.214.437-.746.683-1.23.051-.094.449-.729.567-1.095.309-.597.617-1.195.928-1.792l-.028.01.933-1.71.206-.376.334-.597c1.038-1.858 2.14-3.68 3.283-5.479.408-.642 1.384-1.562 1.57-2.283.007-.027.009-.052.013-.078 2.482-3.485 5.339-6.7 8.765-9.248-.414.448-1.294 1.967-1.527 2.268-.712.92-1.485 1.778-2.262 2.646-1.39 1.554-2.747 3.158-3.953 4.854-2.205 3.102-4.107 6.366-5.906 9.696-.017.02-.036.038-.052.058-.904 1.114-1.473 2.798-2.123 4.072 2.575-1.192 5.422-1.97 8.065-3.028 2.635-1.056 5.199-2.232 7.674-3.612 3.29-1.835 6.702-3.907 9.81-6.251 3.562-2.21 6.555-5.25 9.197-8.442 3.126-3.776 5.991-7.585 7.763-12.17.87-2.253 1.555-4.602 1.96-6.978.019-.104.041-.216.066-.333.415-.821.787-1.66 1.098-2.519.495-1.362 1.664-2.86-.528-3.338"/>
                <path fill="#C1DEE2" d="M464.714 93.163c-2.518-1.714-5.867-2.163-8.88-2.163-11.771 0-22.835 4.384-32.393 10.916-5.237 3.579-9.922 8.137-14.059 12.883-2.387 2.739-4.516 5.702-6.023 8.998-1.017 2.225-1.715 4.543-2.188 6.933-.577 2.914-1.035 5.887-1.242 8.849-.082 1.166-.757 7.356 1.175 7.46-.011.153-.014.299-.002.43-4.195 6.584-6.787 14.3-9.19 21.616-2.091 6.367-3.955 12.787-5.164 19.374-1.593 8.67-2.639 17.472-3.136 26.268-.107 1.89-.18 3.782-.244 5.675l-.16 4.843c-.06 1.81-.376 3.893-.09 5.691.25 1.567 1.6 1.33 1.66-.23.072-1.882.06-3.768.142-5.652.11-2.5.222-5 .344-7.5.848-17.363 4.031-34.471 9.906-50.873 2.377-6.637 5.101-12.92 8.602-19.06 3.079-5.398 6.781-10.625 10.566-15.492 3.679-4.73 7.503-9.35 12.01-13.358 3.658-3.253 7.682-6.086 11.817-8.722 5.253-3.348 10.496-6.615 16.186-9.185 2.958-1.336 5.972-2.532 8.953-3.813.536-.231 1.11-.455 1.627-.722 1.72-.89 1.154-2.232-.217-3.166"/>
                <path fill="#89C5CC" d="M397.264 159.932c4.484-2.19 8.75-3.573 13.727-3.858 4.295-.246 8.51.148 12.716.763 5.916.865 11.132 2.688 15.857 6.17 2.823 2.081 5.82 5.512 6.323 9.04.592 4.156-1.126 8.702-5.617 10.113-2.777.873-5.96.365-8.688-.242-3.266-.727-6.246-2.063-9.02-3.81-4.526-2.847-8.266-6.739-12.499-9.957-2.009-1.527-3.99-3.086-6.152-4.414-1.07-.658-2.176-1.287-3.44-1.547-.677-.139-3.07.218-2.692-1.02-11.557 5.83-17.627 19.553-14.622 31.401.28 1.104.61 2.195.93 3.287.202.69 1.39 3.018 1.002 3.71-.854 1.529-1.639-1.463-1.775-1.883-.35-1.084-.692-2.173-1.024-3.264-1.81-5.93-1.782-12.28.507-18.258 2.617-6.837 7.68-12.915 14.467-16.23"/>
                <ellipse cx="259.5" cy="255.5" fill="#E8ECEF" rx="230.5" ry="31.5"/>
                <path fill="#E8ECEF" d="M33.985 274.495c.496 3.35-11.524 5.535-21.869 4.01-10.345-1.525-15.091-7.48-10.155-10.653 4.937-3.173 31.529 3.293 32.024 6.643z"/>
                <path fill="#DBE0E4" d="M77.188 219.119c-6.934 7.819-1.938 20.664 9.023 23.456 10.96 2.792 26.267-8.682 28.665-19.48 2.399-10.8-30.755-11.796-37.688-3.976z"/>
                <path fill="#E8ECEF" d="M497.99 228.12c.35 3.629-8.135 5.996-15.437 4.344-7.303-1.652-10.653-8.103-7.168-11.54 3.484-3.438 22.255 3.566 22.605 7.196z" transform="matrix(-1 0 0 1 972 0)"/>
                <g>
                    <g>
                        <g>
                            <path fill="#A17C59" d="M12.46 2.98c1.893 3.525 1.668 12.464-.778 13.094-.976.251-3.055-.364-5.17-1.638L7.84 23.82H0l2.7-12.565C1.194 9.49.175 7.326.345 4.903.835-2.08 10.567-.544 12.46 2.98z" transform="translate(111 118) translate(23.787) translate(2.64 2.115)"/>
                            <g>
                                <g transform="translate(111 118) translate(23.787) translate(2.64 2.115) translate(1.573 3.885) translate(0 .193)">
                                    <mask id="wblkf8m6db" fill="#fff">
                                        <use xlink:href="#hvjcg3bz8a"/>
                                    </mask>
                                    <path fill="#191847" d="M3.247 9.578S-.272 5.148.549 1.999h.9s3.598 5.986 7.508 5.242c0 0-.215-2.3 4.468-1.815 0 0-.167 6.503-3.413 6.573 0 0-3.324.105-6.765-2.421" mask="url(#wblkf8m6db)"/>
                                </g>
                            </g>
                        </g>
                        <path fill="#191847" d="M15.57 5.115c-1.499.281-4.518 1.711-6.926 3.762-.285-.15-.611-.236-.958-.236-1.11 0-2.011.876-2.011 1.958 0 .441.15.85.404 1.177-.478.784-.803 1.608-.91 2.455-1.651 0-7.68-6.243-1.674-12.116 6.005-5.873 14.683 2.511 12.075 3z" transform="translate(111 118) translate(23.787)"/>
                    </g>
                    <g>
                        <path fill="#B28B67" d="M14.813 0L27.106 40.142 33.061 74.28 37.73 74.28 31.438 0z" transform="translate(111 118) translate(9 53.016)"/>
                        <path fill="#69A1AC" d="M14.813 0L27.106 40.142 33.061 74.28 37.73 74.28 31.438 0z" transform="translate(111 118) translate(9 53.016)"/>
                        <path fill="#69A1AC" d="M10.416 0c.835 22.04-.148 33.409-.335 35.411-.187 2.002-2.746 14.986-8.804 39.54l4.976-1.706c9.574-22.52 12.836-34.224 13.934-37.181 1.098-2.958 4.015-14.979 8.75-36.064H10.415z" transform="translate(111 118) translate(9 53.016)"/>
                        <g fill="#E4E4E4">
                            <path d="M.385 3.922c-.039.211-.058.396-.058.554 0 .588.098 1.447.294 2.576h18.425c.478-1.581.202-2.435-.83-2.561-1.031-.126-1.888-.24-2.57-.341L7.714.618C7.21.393 6.62.62 6.394 1.124l-.011.026-.286.694c-.955.445-1.731.667-2.328.667-.241 0-.527-.048-.86-.144C1.85 2.058.74 2.668.432 3.729c-.018.064-.034.128-.046.193z" transform="translate(111 118) translate(9 53.016) translate(.44 70.932)"/>
                        </g>
                        <g fill="#E4E4E4">
                            <path d="M.385 3.922c-.039.211-.058.396-.058.554 0 .588.098 1.447.294 2.576h18.425c.478-1.581.202-2.435-.83-2.561-1.031-.126-1.888-.24-2.57-.341L7.714.618C7.21.393 6.62.62 6.394 1.124l-.011.026-.286.694c-.955.445-1.731.667-2.328.667-.241 0-.527-.048-.86-.144C1.85 2.058.74 2.668.432 3.729c-.018.064-.034.128-.046.193z" transform="translate(111 118) translate(9 53.016) translate(31.147 70.932)"/>
                        </g>
                        <path fill="#69A1AC" d="M13.18 0L18.407 20.452 34.371 20.452 31.991 0z" transform="translate(111 118) translate(9 53.016)"/>
                    </g>
                    <g>
                        <path fill="#A17C59" d="M11.314 30.352l6.826.026c-4.215 13.592-6.49 20.803-6.826 21.635-.756 1.87.844 4.72 1.528 6.252-2.228.996-1.99-2.692-4.801-1.386-.473.22-.925.472-1.366.726l-.375.218c-1.806 1.047-3.478 1.975-5.74.581-.364-.224-.763-1.07.201-1.73 2.404-1.647 5.868-4.528 6.336-5.476.638-1.293 2.044-8.242 4.217-20.846zm41.074-1.272l9.254 9.017c2.692 1.147 4.898 2.414 6.618 3.8.387.466.808 1.359-1.012.96l-.219-.048-.438-.092c-1.603-.328-3.135-.528-3.436-.008-.342.591.665 1.497.033 2.27-.421.516-1.838-1.124-4.251-4.92l-9.623-5.667 3.074-5.312z" transform="translate(111 118) translate(.187 18.756)"/>
                        <path fill="#191847" d="M28.862 3.014l2.772-.729c5.902 11.665 15.321 21.91 28.258 30.733l-8.154 11.868C38.437 31.875 29.726 18.012 28.862 3.014z" transform="translate(111 118) translate(.187 18.756) rotate(5 44.377 23.586)"/>
                        <path fill="#DDE3E9" d="M18.4 37.197h25.153c-5.827-14.153-8.74-26.175-8.74-36.068L27.224 0c-5.963 9.58-7.647 21.374-8.825 37.197z" transform="translate(111 118) translate(.187 18.756)"/>
                        <path fill="#2F3676" d="M27.562 0c.593.02 1.496.057 2.708.11l1.834 5.234c.194 6.38 1.326 19.24 3.397 38.577H19.013c.043 1.335.114 2.683.214 4.044H6.967C8.8 27.299 15.497 11.31 27.058 0l.006.005.003-.005z" transform="translate(111 118) translate(.187 18.756)"/>
                        <path fill="#000" fill-opacity=".1" d="M23.627 44.05h-4.61c-.202-5.99.16-11.728 1.085-17.215.47 8.324 1.644 14.062 3.525 17.214z" transform="translate(111 118) translate(.187 18.756)"/>
                        <path fill="#FFF" fill-opacity=".2" d="M22.683 33.934L30.813 30.159 30.813 33.934z" transform="translate(111 118) translate(.187 18.756)"/>
                    </g>
                </g>
                <g>
                    <g>
                        <g fill="#B28B67">
                            <path d="M12.901 3.074c1.96 3.635 1.728 12.855-.806 13.505-1.01.26-3.162-.376-5.352-1.69l1.375 9.678H0l2.794-12.96C1.236 9.787.181 7.556.357 5.057.865-2.145 10.941-.561 12.901 3.074z" transform="translate(154 139) translate(10) translate(29.265 9.433)"/>
                        </g>
                        <g>
                            <path fill="#2F2E41" d="M22.024 31.883H1.604C.91 22.047.997 12.87 3.781 5.965c1.19-2.92 3.941-4.902 7.086-5.106L12.36.758c.085-.006.17-.01.253-.013 4.558-.168 8.39 3.39 8.557 7.95 2.291 3.289 2.027 6.99.402 10.915-1.383 3.356-.76 7.673.452 12.273" transform="translate(154 139) translate(10) translate(23 5)"/>
                            <g transform="translate(154 139) translate(10) translate(23 5) translate(5 2)">
                                <mask id="97l6yas4ad" fill="#fff">
                                    <use xlink:href="#woab3mhqfc"/>
                                </mask>
                                <path fill="#B28B67" d="M-4.736 30L19.47 30 19.47 -4.567 -4.736 -4.567z" mask="url(#97l6yas4ad)"/>
                            </g>
                            <path fill="#2F2E41" d="M9.079 1.175l8.454 1.558c.69 3.203-1.468 5.532-7.038 6.817-4.876 3.957-3.416 9.88 0 16.408 4.686 2.093 6.399 5.009 7.038 8.224H.525C-.73 20.857.88 8.477 9.079 1.175" transform="translate(154 139) translate(10) translate(23 5)"/>
                        </g>
                        <g transform="translate(154 139) translate(10)"/>
                    </g>
                    <g>
                        <g fill="#C5CFD6" transform="translate(154 139) translate(9 60) translate(0 9)">
                            <ellipse cx="26" cy="24.343" rx="25.224" ry="24.302"/>
                        </g>
                        <path fill="#B28B67" d="M69.23 12.717c1.604 4.232 4.405 18.137 7.77 39.14L73.153 53c-4.047-9.127-6.975-17.075-8.15-21.268-1.443-5.15-2.639-9.858-3.342-12.978l-.123-.55c-.214-.974-.372-1.765-.464-2.329-.923-5.626 7.096-5.954 8.156-3.158zM56.473 24.44c-2.996.417-6.309.837-9.61 1.236l-.86.103c-9.458 1.133-18.585 2.067-19.628 2.205-2.015.268-3.538-2.794-1.176-3.697 2.014-.77 6.728-2.418 11.647-3.978l.985-.31c3.949-1.236 7.922-2.373 10.643-2.918 1.825-.366 3.593-.706 5.256-1.012 4.942-.913 7.503 7.709 2.743 8.371z" transform="translate(154 139) translate(9 60)"/>
                        <path fill="#221F8B" d="M38.52 0c20.507 5.225 30.985 8.574 31.436 10.046.08.258.051.52-.083.79 3.963 5.853 6.341 32.046 7.127 34.026L69.257 46c-1.166-4.257-3.34-8.007-5.532-11.778l-.548-.943c-3.193-5.51-6.251-11.162-6.107-18.598-.103-.576-.09-1.108.022-1.595L36 2.35V0h2.52z" transform="translate(154 139) translate(9 60)"/>
                        <path fill="#303FB2" d="M40.067 0c1.703.505 7.633 2.979 13.8 5.629l1.324.57 1.322.571.876.38c3.057 1.326 5.982 2.61 8.278 3.63 5.312 2.359 3.399 11.073.306 12.841-.026.078-.071.131-.138.16C50.297 30.342 38.005 26.9 33.899 28L32 21.894l6.512-2.276c-1.984-.412-3.81-.779-5.362-1.06C23.586 16.825 20.797 11.538 22.446 0h17.621z" transform="translate(154 139) translate(9 60)"/>
                        <g fill="#E4E4E4">
                            <path d="M.39 3.986c-.042.221-.063.413-.063.578 0 .593.099 1.459.295 2.597H19.08c.48-1.594.203-2.455-.83-2.582-1.034-.127-1.892-.242-2.576-.344L7.73.674c-.504-.226-1.096 0-1.322.504l-.013.03-.288.701c-.956.45-1.734.674-2.332.674-.24 0-.527-.049-.859-.146-1.06-.31-2.17.299-2.48 1.359-.02.063-.034.126-.046.19z" transform="translate(154 139) translate(9 60) rotate(64 -3.172 33.176)"/>
                        </g>
                        <g fill="#E4E4E4">
                            <path d="M.387 3.884c-.04.21-.06.393-.06.55 0 .586.1 1.442.296 2.566h18.493c.48-1.575.203-2.425-.832-2.55-1.036-.126-1.896-.24-2.58-.34L7.734.587c-.505-.223-1.096.005-1.319.51l-.008.02-.289.695c-.958.443-1.737.665-2.336.665-.245 0-.535-.05-.873-.147C1.85 2.022.74 2.633.432 3.693c-.018.063-.033.127-.045.191z" transform="translate(154 139) translate(9 60) translate(71 50)"/>
                        </g>
                    </g>
                    <g>
                        <path fill="#B28B67" d="M19.63 23.355l5.623 1.462C17.725 37.76 13.7 44.6 13.176 45.337c-1.178 1.66-.323 4.862-.032 6.54-2.385.434-1.27-3.143-4.29-2.546-.495.098-.978.232-1.452.37l-.404.12c-2.009.595-3.857 1.123-5.715-.823-.297-.31-.478-1.242.61-1.657 2.71-1.033 6.739-3.023 7.417-3.843.185-.224.471-.671.857-1.342l.172-.302c1.6-2.836 4.697-9.002 9.29-18.499zm46.466 6.566l9.787 8.484c2.745.973 5.017 2.1 6.816 3.384.415.445.894 1.32-.935 1.044l-.22-.033-.44-.062c-1.61-.219-3.142-.313-3.403.236-.298.623.762 1.47.19 2.299-.381.552-1.898-1.01-4.55-4.688l-9.92-5.062 2.675-5.602z" transform="translate(154 139) translate(0 25) rotate(-4 42.069 37.634)"/>
                        <path fill="#69A1AC" d="M46.828.677c4.834 10.218 11.376 20.02 21.094 28.394 1.33-.099 2.777.127 4.328.661.764.263 1.174 1.11.917 1.89-.15.453-.49.785-.9.932.296.222.595.442.897.661l-2.609 5.447c-1.44-.734-2.868-1.445-4.274-2.146l-1.05-.524c-8.887-4.447-16.745-8.663-20.676-16.39-1.578-3.102-1.044-13.638-1.195-17.47L46.828.676z" transform="translate(154 139) translate(0 25)"/>
                        <path fill="#191847" d="M31.18 37.767c10.193 1.145 18.216 1.145 24.068 0 .726-.142.694-3.339.357-4.212C50.37 19.96 46.924 10.008 46.924.565c-.961.513-2.643.59-5.045.23-6.457 9.732-9.424 20.897-10.7 36.972z" transform="translate(154 139) translate(0 25)"/>
                        <path fill="#89C5CC" d="M42.965 0c-1.086 14.681 13.909 46.734 8.702 74.108-9.623 2.197-23.363-4.64-36.736.822.497-11.022 10.464-23.971 14.354-35.553-.349-.327-.53-.815-.442-1.319l.179-1.04c.112-.648.637-1.12 1.257-1.194.11-.497.205-.99.282-1.48.655-4.144-.464-8.206-.411-12.196-5.213 4.548-9.89 12.403-14.03 23.563L9.995 43.87c.233-.889.476-1.766.726-2.632-.707-.408-1.533-2.291-.939-2.606.614-.325 1.264-.554 1.948-.689C17.347 20.65 26.528 8.002 39.277 0z" transform="translate(154 139) translate(0 25)"/>
                        <path fill="#000" fill-opacity=".1" d="M40.616 0.332L38.944 5.592 42.312 9.535 39.268 12.634 46.633 25.529 37.626 12.66 40.616 9.535 37.626 6.05z" transform="translate(154 139) translate(0 25)"/>
                        <path fill="#000" fill-opacity=".4" d="M46.418 43.102c.716 0 1.297.593 1.297 1.326 0 .732-.58 1.326-1.297 1.326-.716 0-1.297-.594-1.297-1.326 0-.733.58-1.326 1.297-1.326zm-.324-7.626c.716 0 1.297.594 1.297 1.326 0 .733-.581 1.326-1.297 1.326s-1.297-.593-1.297-1.326c0-.732.58-1.326 1.297-1.326zm-1.621-7.626c.716 0 1.297.594 1.297 1.326 0 .733-.581 1.327-1.297 1.327-.717 0-1.297-.594-1.297-1.327 0-.732.58-1.326 1.297-1.326z" transform="translate(154 139) translate(0 25)"/>
                    </g>
                </g>
                <g>
                    <g>
                        <path fill="#191847" d="M12.78.827c3.259 0 6.018 2.142 6.946 5.096l.01.033c1.124 3.542 2.927 14.226 1.331 15.801h-9.382l-.005-.09c-3.498-.53-6.18-3.55-6.18-7.196V8.106c0-4.02 3.26-7.28 7.28-7.28z" transform="matrix(-1 0 0 1 346 118) translate(39)"/>
                        <g fill="#B28B67">
                            <path d="M12.34 2.986c1.875 3.531 1.653 12.488-.77 13.12-.967.251-3.025-.366-5.12-1.642l1.315 9.401H0l2.674-12.589C1.183 9.508.174 7.341.342 4.912.828-2.084 10.466-.545 12.34 2.986z" transform="matrix(-1 0 0 1 346 118) translate(39) translate(6.47 2.135)"/>
                        </g>
                        <path fill="#191847" d="M12.618 1.154c3.747 0 4.93 1.761 5.936 3.257-.753 2.61-3.675 2.998-6.27 4.625-.307-.251-.697-.402-1.122-.402-.983 0-1.78.805-1.78 1.798s.797 1.798 1.78 1.798l.08-.002c.358 3.883.215 8.318-.851 9.37H1.009c-.262-4.588.87-5.994 2.068-7.333l.24-.268c1.12-1.254 2.22-2.63 2.22-6.663l.199-.197c.243-.243.477-.478.709-.687l-.01-.255c1.624-3.36 3.685-5.041 6.183-5.041z" transform="matrix(-1 0 0 1 346 118) translate(39)"/>
                    </g>
                    <g>
                        <path fill="#1F28CF" d="M33.495 34.012c7.757 2.19 14.449 3.285 20.077 3.285 5.627 0 10.855-1.686 15.681-5.059-7.59-2.247-13.841-3.371-18.753-3.371-4.912 0-10.58 1.715-17.005 5.145z" transform="matrix(-1 0 0 1 346 118) translate(0 51)"/>
                        <path fill="#B28B67" d="M60.286 40.453c-.075-.113-.138-.237-.188-.37C59.061 37.314 42.454 7.458 40.8 2h18.697c1.258 4.15 6.92 30.195 7.717 35.391 2.514 8.197 7.69 34.742 8.35 36.581.696 1.935-3.216 3.95-4.258 1.572-1.658-3.785-5.61-14.256-7.37-20.65-1.649-5.994-2.992-11.386-3.65-14.44z" transform="matrix(-1 0 0 1 346 118) translate(0 51)"/>
                        <path fill="#000" fill-opacity=".1" d="M60.286 40.453c-.075-.113-.138-.237-.188-.37C59.061 37.314 42.454 7.458 40.8 2h18.697c1.258 4.15 6.92 30.195 7.717 35.391 2.514 8.197 7.69 34.742 8.35 36.581.696 1.935-3.216 3.95-4.258 1.572-1.658-3.785-5.61-14.256-7.37-20.65-1.649-5.994-2.992-11.386-3.65-14.44z" transform="matrix(-1 0 0 1 346 118) translate(0 51)"/>
                        <path fill="#B28B67" d="M44.99 44.098c-7.593 1.937-35.364 5.439-37.27 5.988-1.96.565-3.68-3.514-1.256-4.397 3.855-1.406 14.48-4.654 20.921-5.98 5.182-1.066 9.91-1.936 13.084-2.446-.269-9-1.498-30.598-.692-35.263H56.32c-.773 4.473-7.304 37.113-8.518 40.38-.385 1.166-1.535 1.682-2.813 1.718z" transform="matrix(-1 0 0 1 346 118) translate(0 51)"/>
                        <g fill="#E4E4E4">
                            <path d="M.378 3.942c-.036.204-.055.382-.055.536 0 .589.097 1.447.292 2.576H18.85c.474-1.581.2-2.435-.82-2.56-1.021-.127-1.87-.24-2.545-.342L7.651.626c-.504-.227-1.096-.002-1.323.501l-.014.033-.28.685c-.945.445-1.713.668-2.304.668-.233 0-.509-.046-.828-.138C1.84 2.068.732 2.68.425 3.74c-.019.066-.035.134-.047.201z" transform="matrix(-1 0 0 1 346 118) translate(0 51) rotate(80 -21.518 26.919)"/>
                        </g>
                        <g fill="#E4E4E4">
                            <path d="M.378 3.942c-.036.204-.055.382-.055.536 0 .589.097 1.447.292 2.576H18.85c.474-1.581.2-2.435-.82-2.56-1.021-.127-1.87-.24-2.545-.342L7.651.626c-.504-.227-1.096-.002-1.323.501l-.014.033-.28.685c-.945.445-1.713.668-2.304.668-.233 0-.509-.046-.828-.138C1.84 2.068.732 2.68.425 3.74c-.019.066-.035.134-.047.201z" transform="matrix(-1 0 0 1 346 118) translate(0 51) translate(69.253 72.946)"/>
                        </g>
                        <path fill="#2B44FF" d="M39.83 2C47.12-.105 54.018-.105 60.523 2c2.264 10.423 7.763 14.56 8.73 30.54-10.993 5.514-24.573-3.932-35.89 1.445C30.13 26.465 34.657 8.352 39.83 2z" transform="matrix(-1 0 0 1 346 118) translate(0 51)"/>
                    </g>
                    <g>
                        <path fill="#997659" d="M16.772 24.286l7.014.027c-7.691 17.626-11.702 26.854-12.031 27.686-.741 1.87.827 4.72 1.498 6.25-2.185.996-1.952-2.691-4.708-1.385-.463.22-.906.471-1.338.726l-.369.217c-1.77 1.048-3.41 1.975-5.627.582-.358-.225-.75-1.07.197-1.73 2.356-1.647 5.753-4.527 6.212-5.475.625-1.293 3.676-10.259 9.152-26.898zm59.49-6.242c-1.418 1.203-2.856 2.534-2.603 3.176.252.642 1.57.403 1.788 1.39.146.66-1.993.766-6.416.322l-10.262 4.143-2.269-5.77 12.647-1.757c2.53-1.433 4.857-2.403 6.982-2.91h.123c.591.015 1.332.283.01 1.406z" transform="matrix(-1 0 0 1 346 118) translate(14 19)"/>
                        <path fill="#AFB9C5" d="M34.523 3.128l5.503-.108c2.434 12.296 10.459 19.495 26.658 15.403l3.582 15.796c-15.181 3.365-29.198-1.719-33.442-18.43-1.098-4.327-2.062-8.845-2.301-12.661z" transform="matrix(-1 0 0 1 346 118) translate(14 19) rotate(5 52.394 19.11)"/>
                        <path fill="#C5CFD6" d="M33.27 0l.004.005 8.321 1.94c0 11.067 2.628 19.091 4.917 27.004l.332 1.157c.603 2.122 1.172 4.246 1.648 6.429l-22.472-.001c-.316 3.703-.51 7.509-.612 11.418H8.582C12.395 27.292 20.442 11.307 32.725 0h.545z" transform="matrix(-1 0 0 1 346 118) translate(14 19)"/>
                        <path fill="#000" fill-opacity=".1" d="M29.566 15.744c-.58 9.081-.239 16.011 1.022 20.79H26.02c.606-7.083 1.659-13.79 3.362-20.12z" transform="matrix(-1 0 0 1 346 118) translate(14 19)"/>
                    </g>
                </g>
                <g>
                    <g>
                        <g fill="#B28B67">
                            <path d="M12.46 2.98c1.893 3.525 1.668 12.464-.778 13.094-.976.251-3.055-.364-5.17-1.638L7.84 23.82H0l2.7-12.565C1.194 9.49.175 7.326.345 4.903.835-2.08 10.567-.544 12.46 2.98z" transform="matrix(-1 0 0 1 369 141) translate(23.12 .65) translate(1.307 2.284)"/>
                        </g>
                        <path fill="#191847" d="M3.403 15.11C2.42 10.737-.384 7.756.044 5.802.33 4.499 1.09 3.689 2.326 3.372 2.966.787 5.027-.312 8.512.074c5.226.579 8.416 2.747 7.038 7.517-1.266 0-2.795-.457-4.909.326-.67.25-1.15 1.02-1.439 2.314h-.955c-.927-1.535-1.841-2.1-2.742-1.693-.902.407-1.106 1.396-.615 2.966l-.47 3.605H3.402z" transform="matrix(-1 0 0 1 369 141) translate(23.12 .65)"/>
                    </g>
                    <g>
                        <g>
                            <path fill="#C5CFD6" d="M9.023 0L34.26 0 37.567 40.46 0 40.46z" transform="matrix(-1 0 0 1 369 141) translate(.267 53.836) translate(.967 13.704)"/>
                            <path fill="#000" fill-opacity=".1" d="M9.023 0L16.785 0 21.431 40.46 0 40.46z" transform="matrix(-1 0 0 1 369 141) translate(.267 53.836) translate(.967 13.704)"/>
                        </g>
                        <path fill="#B28B67" d="M64 6.774l.092-.056c2.7-1.511 7.111.54 7.108 2.822-.004 2.9-1.12 10.324-2.436 18.112l-.19 1.115c-1.778 10.418-3.838 21.131-4.022 22.283-.33 2.058-3.859 2.601-4.064.007-.327-4.128-.935-18.417-.327-25.031.251-2.73.521-5.331.787-7.65-3.31 5.97-8.43 14.522-15.36 25.652l-3.763-1.717c2.954-9.722 5.377-16.586 7.267-20.591 1.102-2.334 2.181-4.555 3.175-6.55l.368-.737c1.762-3.51 3.22-6.235 4.007-7.512 2.01-3.254 5.51-2.118 7.357-.147z" transform="matrix(-1 0 0 1 369 141) translate(.267 53.836)"/>
                        <path fill="#1F28CF" d="M47.941 40.25l1.684-33.128c1.207-5.728 11.403-3.073 11.397-.004-.012 6.97-4.21 31.045-4.214 33.121l-8.867.01z" transform="matrix(-1 0 0 1 369 141) translate(.267 53.836) rotate(20 54.482 22)"/>
                        <g fill="#E4E4E4">
                            <path d="M.385 3.922c-.039.211-.058.396-.058.554 0 .588.098 1.447.294 2.576h18.425c.478-1.581.202-2.435-.83-2.561-1.031-.126-1.888-.24-2.57-.341L7.714.618C7.21.393 6.62.62 6.394 1.124l-.011.026-.286.694c-.955.445-1.731.667-2.328.667-.241 0-.527-.048-.86-.144C1.85 2.058.74 2.668.432 3.729c-.018.064-.034.128-.046.193z" transform="matrix(-1 0 0 1 369 141) translate(.267 53.836) rotate(30 -49.952 96.913)"/>
                        </g>
                        <g fill="#E4E4E4">
                            <path d="M.385 3.922c-.039.211-.058.396-.058.554 0 .588.098 1.447.294 2.576h18.425c.478-1.581.202-2.435-.83-2.561-1.031-.126-1.888-.24-2.57-.341L7.714.618C7.21.393 6.62.62 6.394 1.124l-.011.026-.286.694c-.955.445-1.731.667-2.328.667-.241 0-.527-.048-.86-.144C1.85 2.058.74 2.668.432 3.729c-.018.064-.034.128-.046.193z" transform="matrix(-1 0 0 1 369 141) translate(.267 53.836) translate(58.787 47.113)"/>
                        </g>
                        <path fill="#2B44FF" d="M72.105 11.888c0 8.668-4.121 28.889-4.124 30.797l-8.868.007c1.298-18.042 1.759-27.16 1.381-27.355-.566-.292-23.21 2.258-30.001 2.258C20.7 17.595 16.649 11.427 16.32 0h19.4c3.95.422 24.553 4.573 32.204 6 3.276.61 4.181 3.5 4.181 5.888z" transform="matrix(-1 0 0 1 369 141) translate(.267 53.836)"/>
                    </g>
                    <g>
                        <path fill="#997659" d="M52.775 15.142c1.415-.29 4.87-2.857 5.465-2.336.88.771.096 3.138-.83 4.316-1.729 2.2-3.16 2.953-6.699 3.938-1.85.516-3.85 1.548-6 3.099l-.284-4.993 4.98-2.733c.699-2.656 1.534-3.992 2.506-4.009.747-.347-.553 3.01.862 2.718zM44.203 3.766l-.11.195-.216.392c-.783 1.435-1.422 2.84-1.012 3.28.466.5 1.628-.198 2.184.632.37.553-1.614 1.427-5.955 2.622l-8.238 7.535-4.188-4.49L38.007 7.73c1.885-2.237 3.743-3.974 5.573-5.211.56-.233 1.537-.374.623 1.247z" transform="matrix(-1 0 0 1 369 141) translate(12.34 19.575)"/>
                        <path fill="#2026A2" d="M21.513 11.337c3.93.58 9.291.581 15.433-2.074l1.419 5.23C33.91 17.699 28 19.978 23.288 19.095c-3.713-.695-4.906-5.504-1.775-7.758z" transform="matrix(-1 0 0 1 369 141) translate(12.34 19.575) rotate(-9 29.04 14.275)"/>
                        <path fill="#1F28CF" d="M21.411 0c.378 4.847 1.906 10.067 3.521 15.343l.324 1.055c.418 1.36.836 2.721 1.238 4.08 4.215 1.05 11.286-.188 21.211-3.715 2.462 5.087 3.6 8.713 3.414 10.88-8.515 4.442-15.813 6.423-21.825 6.553.194 3.561-.24 6.953-1.7 10.051-1.6 3.401-7.355 3.304-13.27 2.651l-.755-.086-.755-.09-.754-.095c-4.386-.555-8.578-1.21-10.926-.749-3.697-11.992 3.452-16.866 3.457-24.54C4.598 12.935 11.353 0 12.347 0z" transform="matrix(-1 0 0 1 369 141) translate(12.34 19.575)"/>
                    </g>
                </g>
                <g fill="#FABE2C" fill-rule="nonzero">
                    <path d="M19.845 28.607L14.5 25.706l-5.345 2.901c-1.12.601-2.487.502-3.514-.273-1.027-.78-1.544-2.099-1.335-3.404l.982-6.216L1 14.296c-.933-.95-1.218-2.358-.837-3.575.392-1.257 1.433-2.18 2.689-2.378l5.954-.936 2.696-5.628c1.138-2.372 4.855-2.372 5.993 0l2.696 5.628 5.954.936c1.256.198 2.297 1.121 2.69 2.378.392 1.261.071 2.645-.838 3.575l-4.286 4.418.982 6.216c.21 1.305-.308 2.624-1.335 3.404-1.02.772-2.386.886-3.514.273z" transform="translate(142 45)"/>
                </g>
                <g>
                    <path fill="#FFA12E" fill-rule="nonzero" d="M15 70.675l-5.78 2.94c-1.126.595-2.504.497-3.539-.271-1.034-.772-1.555-2.079-1.344-3.372l.989-6.158-4.318-4.378c-.94-.94-1.227-2.336-.843-3.54.395-1.246 1.443-2.16 2.709-2.357l5.998-.927 2.715-5.576C12.222 45.735 15 44.392 15 45.294v25.38z" transform="translate(142)"/>
                    <g>
                        <path fill="#89C5CC" d="M1 0L1 15.812 12.884 27 25 15.812 25 0z" transform="translate(142) translate(136)"/>
                        <path fill="#146B7F" d="M9 0L9 22.64 13.39 27 18 22.525 18 0z" transform="translate(142) translate(136)"/>
                        <g>
                            <path fill="#FABE2C" d="M13.5 28.829C6.514 28.829.83 23.29.83 16.483S6.514 4.138 13.5 4.138s12.67 5.538 12.67 12.345S20.485 28.83 13.5 28.83" transform="translate(142) translate(136) translate(0 24)"/>
                            <g transform="translate(142) translate(136) translate(0 24) translate(0 3.297)">
                                <mask id="1kd4wniwag" fill="#fff">
                                    <use xlink:href="#6ak7qv5k7f"/>
                                </mask>
                                <path fill="#FFA12E" d="M13.5 0C6.044 0 0 5.904 0 13.187c0 7.283 6.044 13.187 13.5 13.187S27 20.47 27 13.187C27 5.904 20.956 0 13.5 0m0 1.683c6.528 0 11.839 5.16 11.839 11.504 0 6.343-5.311 11.503-11.84 11.503-6.527 0-11.838-5.16-11.838-11.503S6.972 1.683 13.5 1.683" mask="url(#1kd4wniwag)"/>
                            </g>
                            <path fill="#FFA12E" d="M19.5 16.484c0 3.313-2.687 6-6 6-3.314 0-6-2.687-6-6 0-3.314 2.686-6 6-6 3.313 0 6 2.686 6 6" transform="translate(142) translate(136) translate(0 24)"/>
                            <path fill="#FFA12E" d="M13.5 21.483c-2.757 0-5-2.243-5-5s2.243-5 5-5 5 2.243 5 5-2.243 5-5 5" transform="translate(142) translate(136) translate(0 24)"/>
                            <path fill="#FABE2C" d="M14.635 5.959c0 .54-.494.977-1.102.977h-.072c-.609 0-1.103-.437-1.103-.977V.991c0-.54.494-.978 1.103-.978h.072c.608 0 1.102.438 1.102.978v4.968z" transform="translate(142) translate(136) translate(0 24)"/>
                        </g>
                    </g>
                </g>
                <circle cx="343" cy="144" r="3" fill="#191847"/>
                <g transform="translate(338 141)">
                    <mask id="ag72lk4lwi" fill="#fff">
                        <use xlink:href="#rg8tboceqh"/>
                    </mask>
                    <path fill="#191847" d="M1 2.517s11.3-7.31 12.518 2.986c0 0-.78 12.157 5.482 13.497 0 0-8.114-.856-9.252-9.375 0 0-1.583-9.798-8.748-7.108" mask="url(#ag72lk4lwi)"/>
                </g>
            </g>
        </g>
    </g>
</svg>
