<svg xmlns="http://www.w3.org/2000/svg" width="186" height="160" viewBox="0 0 186 160">
    <g fill="none">
        <path fill="#432B17" d="M89.555 105.547H19.19V35.182C19.19 15.752 34.942 0 54.373 0c19.43 0 35.182 15.752 35.182 35.182v70.365z"/>
        <path fill="#ACABB1" d="M185.063 79.13l-8.845 47.175c-.177.946-1.003 1.631-1.966 1.631H101.56c-1.104 0-2-.895-2-2 0-.124.012-.247.035-.369l8.845-47.174c.177-.946 1.003-1.631 1.965-1.631h72.692c1.105 0 2 .895 2 2 0 .123-.011.247-.034.368z"/>
        <path fill="#E9AC7F" d="M76.762 127.936v19.19H9.595c-3.528-.01-6.386-2.868-6.397-6.396v-12.794h73.564z"/>
        <path fill="#E8E5FB" d="M63.968 102.349L57.571 127.936 51.174 127.936 41.579 102.349 44.778 102.349z"/>
        <circle cx="143.928" cy="102.349" r="6.397" fill="#FFA562"/>
        <path fill="#E9E9EA" d="M76.762 127.936H177.11c1.105 0 2 .895 2 2v15.19c0 1.105-.895 2-2 2H76.762v-19.19z"/>
        <path fill="#CF9E76" d="M4 147.126h177.507c2.21 0 4 1.791 4 4v4.794c0 2.21-1.79 4-4 4H4c-2.21 0-4-1.79-4-4v-4.794c0-2.209 1.79-4 4-4z"/>
        <path fill="#A3CAF5" d="M182.309 2v43.976c0 1.105-.896 2-2 2h-48.702c-.31 0-.617.072-.895.211l-15.874 7.937c-.988.494-2.189.094-2.683-.894-.139-.278-.211-.584-.211-.895V2c0-1.105.895-2 2-2h66.365c1.104 0 2 .895 2 2z"/>
        <path fill="#E9AC7F" d="M63.968 63.968L63.968 92.754 63.968 102.349 41.579 102.349 41.579 92.754 41.579 63.968z"/>
        <path fill="#F3BA91" d="M38.38 35.182V59.17c0 11.482 9.309 20.79 20.79 20.79 11.482 0 20.79-9.308 20.79-20.79V35.182h-6.397c-3.528-.01-6.386-2.868-6.397-6.396v-3.199c0 5.3-4.296 9.595-9.595 9.595h-19.19z"/>
        <g fill="#EDF9FA">
            <path d="M2 0h2.397c1.104 0 2 .895 2 2v2.397c0 1.104-.896 2-2 2H2c-1.105 0-2-.896-2-2V2C0 .895.895 0 2 0zM17.992 0h2.397c1.104 0 2 .895 2 2v2.397c0 1.104-.896 2-2 2h-2.397c-1.105 0-2-.896-2-2V2c0-1.105.895-2 2-2zM33.984 0h2.397c1.104 0 2 .895 2 2v2.397c0 1.104-.896 2-2 2h-2.397c-1.105 0-2-.896-2-2V2c0-1.105.895-2 2-2z" transform="translate(127.936 19.19)"/>
        </g>
        <path fill="#E0E0E2" d="M58.77 70.365H38.38c-5.298 0-9.594-4.296-9.594-9.595v-9.596h6.396v9.596c0 1.766 1.432 3.198 3.199 3.198H58.77c1.104 0 2 .895 2 2v2.397c0 1.104-.896 2-2 2z"/>
        <path fill="#3E3D42" d="M38.38 57.571H25.588c-3.533 0-6.397-2.864-6.397-6.397V41.58c0-3.533 2.864-6.397 6.397-6.397h12.794v22.39z"/>
        <path fill="#C1DAF6" d="M97.49 127.936H59.969c-1.105 0-2-.895-2-2 0-.12.01-.24.032-.358l5.67-31.182c.172-.951 1-1.642 1.967-1.642h23.918c5.77-.01 11.237 2.587 14.873 7.068l-4.971 26.483c-.178.946-1.004 1.631-1.966 1.631zM51.174 127.936H2c-1.105 0-2-.895-2-2v-13.992c0-10.599 8.592-19.19 19.19-19.19h20.862c.902 0 1.692.603 1.93 1.473l9.192 33.709z"/>
    </g>
</svg>
