<svg xmlns="http://www.w3.org/2000/svg" xmlns:xlink="http://www.w3.org/1999/xlink" width="140" height="140" viewBox="0 0 140 140">
    <defs>
        <circle id="tk8gxg4gla" cx="70" cy="70" r="70"/>
        <circle id="sr77rc3iic" cx="70" cy="70" r="70"/>
    </defs>
    <g fill="none" fill-rule="evenodd">
        <g>
            <g>
                <g transform="translate(-1026 -872) translate(1026 872)">
                    <mask id="zmxa3r1exb" fill="#fff">
                        <use xlink:href="#tk8gxg4gla"/>
                    </mask>
                    <use fill="#F7F8F9" xlink:href="#tk8gxg4gla"/>
                    <g mask="url(#zmxa3r1exb)">
                        <g transform="translate(-71.75 63)">
                            <g fill-rule="nonzero">
                                <path fill="#FFF" d="M165.252 16.335c-4.07-2.538-8.305-4.796-12.678-6.763L142.57 19.574H42.124c-12.742 0-25.26 3.325-36.32 9.647C2.214 31.269 0 35.086 0 39.217v19.24h171.733l10.498-4.212c3.445-1.376 5.703-4.714 5.703-8.423V19.574l-22.682-3.239z" transform="matrix(-1 0 0 1 188.125 0)"/>
                                <path fill="#30516C" d="M152.574 9.572C138.803 3.358 123.87.14 108.762.134h-3.817c-17.834 0-35.384 4.474-51.04 13.016l-11.781 6.424H142.57l10.004-10.002z" transform="matrix(-1 0 0 1 188.125 0)"/>
                                <path fill="#25313B" d="M84.246 19.574h58.324l10.004-10.002c-7.398-3.323-15.149-5.796-23.106-7.368l-45.222 17.37z" transform="matrix(-1 0 0 1 188.125 0)"/>
                                <path fill="#CCCBCB" d="M77.766 26.055L90.727 26.055 90.727 32.536 77.766 32.536zM0 45.497v12.96h171.733l10.498-4.212c3.445-1.376 5.703-4.714 5.703-8.423v-.325H0z" transform="matrix(-1 0 0 1 188.125 0)"/>
                                <path fill="#25313B" d="M28.848 35.744c-10.739 0-19.442 8.704-19.442 19.441 0 10.74 8.703 19.442 19.442 19.442 10.738 0 19.44-8.703 19.44-19.442 0-10.737-8.702-19.441-19.44-19.441z" transform="matrix(-1 0 0 1 188.125 0)"/>
                                <path fill="#EFE8E0" d="M41.076 54.87c0 6.408-5.195 11.603-11.602 11.603-6.409 0-11.602-5.195-11.602-11.602s5.193-11.602 11.602-11.602c6.407 0 11.602 5.195 11.602 11.602z" transform="matrix(-1 0 0 1 188.125 0)"/>
                                <path fill="#CCCBCB" d="M100.448 19.574L106.928 19.574 106.928 58.458 100.448 58.458z" transform="matrix(-1 0 0 1 188.125 0)"/>
                            </g>
                            <circle cx="158.966" cy="54.556" r="4.703" fill="#F5822D"/>
                        </g>
                    </g>
                </g>
                <g transform="translate(-1026 -872) translate(1026 872)">
                    <mask id="1lunt4ooud" fill="#fff">
                        <use xlink:href="#sr77rc3iic"/>
                    </mask>
                    <use fill="#F0F0F0" xlink:href="#sr77rc3iic"/>
                    <g mask="url(#1lunt4ooud)">
                        <g transform="translate(-79.5 64.75)">
                            <g fill-rule="nonzero">
                                <path fill="#FFF" d="M165.252 16.335c-4.07-2.538-8.305-4.796-12.678-6.763L142.57 19.574H42.124c-12.742 0-25.26 3.325-36.32 9.647C2.214 31.269 0 35.086 0 39.217v19.24h171.733l10.498-4.212c3.445-1.376 5.703-4.714 5.703-8.423V19.574l-22.682-3.239z" transform="matrix(-1 0 0 1 188.875 0)"/>
                                <path fill="#30516C" d="M152.574 9.572C138.803 3.358 123.87.14 108.762.134h-3.817c-17.834 0-35.384 4.474-51.04 13.016l-11.781 6.424H142.57l10.004-10.002z" transform="matrix(-1 0 0 1 188.875 0)"/>
                                <path fill="#25313B" d="M84.246 19.574h58.324l10.004-10.002c-7.398-3.323-15.149-5.796-23.106-7.368l-45.222 17.37z" transform="matrix(-1 0 0 1 188.875 0)"/>
                                <path fill="#D5D5D5" d="M77.766 26.055L90.727 26.055 90.727 32.536 77.766 32.536zM0 45.497v12.96h171.733l10.498-4.212c3.445-1.376 5.703-4.714 5.703-8.423v-.325H0z" transform="matrix(-1 0 0 1 188.875 0)"/>
                                <path fill="#25313B" d="M28.848 35.744c-10.739 0-19.442 8.704-19.442 19.441 0 10.74 8.703 19.442 19.442 19.442 10.738 0 19.44-8.703 19.44-19.442 0-10.737-8.702-19.441-19.44-19.441z" transform="matrix(-1 0 0 1 188.875 0)"/>
                                <path fill="#EFE8E0" d="M41.076 54.87c0 6.408-5.195 11.603-11.602 11.603-6.409 0-11.602-5.195-11.602-11.602s5.193-11.602 11.602-11.602c6.407 0 11.602 5.195 11.602 11.602z" transform="matrix(-1 0 0 1 188.875 0)"/>
                                <path fill="#D5D5D5" d="M100.448 19.574L106.928 19.574 106.928 58.458 100.448 58.458z" transform="matrix(-1 0 0 1 188.875 0)"/>
                            </g>
                            <circle cx="159.716" cy="54.556" r="4.703" fill="#F5822D"/>
                        </g>
                    </g>
                </g>
            </g>
        </g>
    </g>
</svg>
