<svg xmlns="http://www.w3.org/2000/svg" xmlns:xlink="http://www.w3.org/1999/xlink" width="140" height="140" viewBox="0 0 140 140">
    <defs>
        <circle id="1ce4hy4k9a" cx="70" cy="70" r="70"/>
    </defs>
    <g fill="none" fill-rule="evenodd">
        <g>
            <g transform="translate(-1026 -1118) translate(1026 1118)">
                <mask id="6f8nbbn94b" fill="#fff">
                    <use xlink:href="#1ce4hy4k9a"/>
                </mask>
                <use fill="#F0F0F0" xlink:href="#1ce4hy4k9a"/>
                <g fill-rule="nonzero" mask="url(#6f8nbbn94b)">
                    <g transform="translate(-3.5 52.5)">
                        <path fill="#89C5CC" d="M60.049 41.176h24.324c4.57 0 8.274 3.705 8.274 8.275v22.608H60.05V41.176z"/>
                        <path fill="#9C9A9A" d="M89.216 65.196h6.862c1.896 0 3.432 1.536 3.432 3.431 0 1.896-1.536 3.432-3.432 3.432h-3.43l-3.432-6.863zM70.343 34.314c-.947 0-1.716-.768-1.716-1.716V22.304c0-.574.287-1.11.764-1.428l5.147-3.43c.789-.52 1.848-.306 2.372.48.524.785.315 1.846-.468 2.374l-4.383 2.922v9.376c0 .948-.768 1.716-1.716 1.716zM17.729 51.471L12.01 42.892 34.314 42.892 49.755 72.059 40.319 72.059z"/>
                        <path fill="#30516C" d="M8.578 36.029L15.441 6.863 49.755 6.863 60.049 41.176 56.618 41.176 56.618 72.059 37.696 36.003z"/>
                        <path fill="#9C9A9A" d="M66.912 32.598L73.775 32.598 73.775 72.059 66.912 72.059z"/>
                        <circle cx="19.705" cy="67.795" r="19.705" fill="#25313B"/>
                        <circle cx="19.598" cy="67.902" r="11.499" fill="#EFE8E0"/>
                        <circle cx="19.598" cy="67.902" r="7.159" fill="#F5822D"/>
                        <circle cx="79.12" cy="73.544" r="13.924" fill="#25313B"/>
                        <circle cx="79.161" cy="73.585" r="8.175" fill="#EFE8E0"/>
                        <circle cx="79.12" cy="73.544" r="3.595" fill="#F5822D"/>
                        <path fill="#A8A8A8" d="M54.555 44.943c-.574 0-1.11-.286-1.43-.764l-4.798-7.197c-.344-.51-.388-1.165-.117-1.717.272-.552.818-.917 1.432-.955.614-.039 1.202.254 1.54.768l4.799 7.198c.35.526.384 1.202.086 1.76-.299.558-.88.907-1.512.907z"/>
                        <path fill="#CBCBCB" d="M46.325 39.46c-.739.001-1.395-.471-1.629-1.172-.234-.7.007-1.472.598-1.915l5.147-3.86c.758-.57 1.834-.416 2.402.342.569.758.415 1.834-.343 2.402l-5.147 3.86c-.296.224-.657.344-1.028.344z"/>
                        <path fill="#89C5CC" d="M60.049 41.176h-5.576c-2.606 0-4.718 2.113-4.718 4.719v13.51l6.434 12.654h3.86V41.176zM16.728 0h31.74c1.658 0 3.003 1.344 3.003 3.002v3.86H13.725v-3.86C13.725 1.344 15.07 0 16.728 0z"/>
                        <path fill="#25313B" d="M22.304 6.863L29.167 6.863 29.167 36.029 22.304 36.029z"/>
                        <path fill="#89C5CC" d="M0 46.324L8.578 46.324 12.01 42.892 34.314 42.892 49.755 72.059 56.618 72.059 37.745 36.029 8.578 36.029z"/>
                        <path fill="#9C9A9A" d="M68.627 29.167L72.059 29.167 72.059 32.598 68.627 32.598z"/>
                    </g>
                </g>
            </g>
        </g>
    </g>
</svg>
