<svg xmlns="http://www.w3.org/2000/svg" xmlns:xlink="http://www.w3.org/1999/xlink" width="140" height="140" viewBox="0 0 140 140">
    <defs>
        <circle id="x5u8dfqxwa" cx="70" cy="70" r="70"/>
    </defs>
    <g fill="none" fill-rule="evenodd">
        <g>
            <g transform="translate(-475 -872) translate(475 872)">
                <mask id="s8ql87gneb" fill="#fff">
                    <use xlink:href="#x5u8dfqxwa"/>
                </mask>
                <use fill="#F0F0F0" xlink:href="#x5u8dfqxwa"/>
                <g mask="url(#s8ql87gneb)">
                    <g transform="translate(-52 61)">
                        <path fill="#89C5CC" fill-rule="nonzero" d="M118.192 24.666L107.526 30 102.192 14 112.859 14z"/>
                        <ellipse cx="121.692" cy="17" fill="#F5822D" fill-rule="nonzero" rx="3.5" ry="7"/>
                        <path fill="#89C5CC" fill-rule="nonzero" d="M112.192 9h11v14.143c-1.231 2.571-2.606 3.857-4.125 3.857h-1.375l-5.5-18z"/>
                        <path fill="#FFF" fill-rule="nonzero" d="M97.192 24L47.431 24 55.288 39.6 44.811 47.4 42.192 55.2 63.145 63 84.097 63 89.335 55.2 91.954 55.2 97.192 37z"/>
                        <path fill="#CCCBCB" fill-rule="nonzero" d="M60.192 31.824l35.1.176c2.154 0 3.9-2.015 3.9-4.5s-1.746-4.5-3.9-4.5H64.091l-3.899 8.824z"/>
                        <path fill="#89C5CC" fill-rule="nonzero" d="M106.652 18l1.54 15.753-13.21 19.773c-.935 1.399-2.48 2.271-4.163 2.35L88.192 56v-5.541l7.956-23.815L106.652 18z"/>
                        <g>
                            <path fill="#25313B" fill-rule="nonzero" d="M110.377 0C97.467 0 87 10.449 87 23.338c0 12.889 10.467 23.338 23.377 23.338 12.911 0 23.378-10.449 23.378-23.338C133.755 10.45 123.288 0 110.377 0zm0 38.897c-8.607 0-15.585-6.966-15.585-15.56 0-8.592 6.978-15.558 15.585-15.558 8.608 0 15.586 6.966 15.586 15.559s-6.978 15.559-15.586 15.559z" transform="translate(17.192 32)"/>
                        </g>
                        <circle cx="127.5" cy="55.5" r="16.5" fill="#EFE8E0" fill-rule="nonzero"/>
                        <circle cx="128" cy="55" r="6" fill="#F5822D" fill-rule="nonzero"/>
                        <g>
                            <path fill="#25313B" fill-rule="nonzero" d="M107.206 57.94c-1.078 0-2.087-.678-2.465-1.759L87.387 6.305l-7.52-.88V.176h6.288l6.16 4.393 17.356 49.877c.474 1.37-.242 2.867-1.603 3.346-.286.1-.576.149-.862.149zM2.796 57.938c-.986 0-1.932-.565-2.373-1.525-.604-1.317-.033-2.877 1.278-3.485l33.934-15.754c1.31-.606 2.862-.03 3.464 1.285.604 1.317.033 2.877-1.277 3.485L3.888 57.698c-.355.164-.727.24-1.092.24zM33.073 30.281c-2.71.91-5.642.91-8.353 0L1.925 22.638l1.908-8.969 48.557 4.885v5.251l-19.317 6.476z" transform="translate(21.192)"/>
                        </g>
                        <path fill="#89C5CC" fill-rule="nonzero" d="M107.192 19.216L100.022 28H75.909c-4.025 0-9.772-1.196-9.716-4.924.056-3.728 7.168-5.996 8.904-6.273L98.917 13c5.08 1.428 7.84 3.5 8.275 6.216z"/>
                        <path fill="#CCCBCB" fill-rule="nonzero" d="M81.102 67H66.518c-2.798 0-5.544-.496-8.165-1.472l-17.16-6.402 1.816-4.814 17.16 6.401c2.037.761 4.174 1.146 6.349 1.146h14.584c2.715 0 4.923-2.197 4.923-4.898 0-2.11-1.353-3.978-3.369-4.646l-10.368-3.438L73.923 44l10.368 3.438c4.128 1.37 6.901 5.196 6.901 9.523 0 5.536-4.526 10.039-10.09 10.039z"/>
                    </g>
                </g>
            </g>
        </g>
    </g>
</svg>
