<svg xmlns="http://www.w3.org/2000/svg" xmlns:xlink="http://www.w3.org/1999/xlink" width="140" height="140" viewBox="0 0 140 140">
    <defs>
        <circle id="5s7suk6bda" cx="70" cy="70" r="70"/>
    </defs>
    <g fill="none" fill-rule="evenodd">
        <g>
            <g transform="translate(-200 -872) translate(200 872)">
                <mask id="ozx5efo9hb" fill="#fff">
                    <use xlink:href="#5s7suk6bda"/>
                </mask>
                <use fill="#F0F0F0" xlink:href="#5s7suk6bda"/>
                <g mask="url(#ozx5efo9hb)">
                    <g transform="translate(-12.25 54.25)">
                        <path fill="#25313B" fill-rule="nonzero" d="M70.144 3.464L76.206 3.464 76.206 17.32 70.144 17.32zM71.66 62.35V46.55c0-.117-.011-.234-.034-.348l-3.18-16.044c-.173-.878.328-1.749 1.17-2.032l3.803-1.28h3.518l8.795 17.753L75.178 62.35H71.66z"/>
                        <path fill="#FFF" fill-rule="nonzero" d="M41.96 48.495l6.861 3.43c2.454 1.227 4.004 3.735 4.004 6.478v10.01H43.77L32.907 57.547v-9.053h9.054z"/>
                        <circle cx="14.289" cy="68.845" r="12.557" fill="#EFE8E0" fill-rule="nonzero"/>
                        <path fill="#25313B" fill-rule="nonzero" d="M13.423 84C6.01 84 0 77.99 0 70.577s6.01-13.422 13.423-13.422 13.422 6.01 13.422 13.422c-.008 7.41-6.013 13.415-13.422 13.423zm0-23.49c-5.56 0-10.067 4.507-10.067 10.067 0 5.56 4.507 10.067 10.067 10.067 5.56 0 10.067-4.507 10.067-10.067-.006-5.557-4.51-10.06-10.067-10.067z"/>
                        <path fill="#CCCBCB" fill-rule="nonzero" d="M42.433 62.928v11.546H13.468c-1.22 0-2.21-1.246-2.21-2.783 0-1.113.527-2.12 1.34-2.558l15.776-8.514h6.724l7.335 2.309z"/>
                        <circle cx="13.423" cy="70.577" r="3.897" fill="#F5822D"/>
                        <path fill="#EFE8E0" fill-rule="nonzero" d="M83.434 60.619c-4.566 4.865-5.036 12.682-1.091 18.152 3.944 5.47 11.043 6.844 16.483 3.191 5.44-3.652 7.485-11.165 4.747-17.444"/>
                        <path fill="#25313B" fill-rule="nonzero" d="M92.66 84c-5.982 0-11.369-3.601-13.63-9.112-2.26-5.511-.945-11.836 3.328-16.001l2.577 2.614c-4.014 3.918-4.427 10.212-.96 14.616 3.467 4.404 9.707 5.51 14.49 2.57 4.783-2.94 6.58-8.99 4.174-14.046l3.325-1.57c.938 1.961 1.423 4.107 1.417 6.28-.009 8.086-6.594 14.64-14.721 14.649z"/>
                        <path fill="#FFF" fill-rule="nonzero" d="M85.361 62.351L81.402 48.495 91.299 48.495 95.258 62.351z"/>
                        <path fill="#25313B" fill-rule="nonzero" d="M95.765 64.948l1.942 5.75c.243.721.187 1.51-.158 2.19-.345.68-.95 1.198-1.68 1.439-1.372.451-2.872-.162-3.518-1.44l-4.021-7.939h7.435z"/>
                        <circle cx="93.959" cy="70.577" r="3.897" fill="#F5822D"/>
                        <path fill="#FFF" fill-rule="nonzero" d="M80.536 59.58h9.877l1.31-1.103c.348-.292.82-.456 1.311-.456h5.996c.421 0 .83.12 1.158.341l6.498 4.372c.493.332.752.853.685 1.381-.066.529-.449.992-1.014 1.23l-1.116.47H88.559l-8.023-3.374v-2.862zM70.599 31.175c.046-.02.081-.057.13-.074l8.941-3.06v-5.338c0-1.887-.73-3.697-2.029-5.031-1.3-1.335-3.061-2.084-4.899-2.084h-2.537c-.579 0-1.12.297-1.44.792l-2.66 4.096c-.19.292-.29.636-.29.987v4.061c0 .472.182.925.507 1.258l4.277 4.393z"/>
                        <path fill="#89C5CC" fill-rule="nonzero" d="M91.7 52.092h-1.826L75.807 73.644c-.339.519-.909.83-1.52.83h-27.77c-.308 0-.61-.08-.88-.23L10.472 54.488c-.584-.328-.946-.954-.946-1.635v-4.492c0-1.03.817-1.866 1.826-1.866h4.565c.575 0 1.116-.276 1.46-.746l4.931-6.714L49.7 44.63l-11.013 9.642c-.426.373-.66.925-.636 1.498.025.573.306 1.102.763 1.436l10.41 7.594c.31.226.68.347 1.06.347H70.58c.641 0 1.236-.343 1.566-.905l9.958-16.953c.294-.5.342-1.111.13-1.653l-6.968-17.792 5.478-1.866 12.398 16.282c.25.327.385.73.385 1.145v6.82c0 1.03-.818 1.866-1.826 1.866z"/>
                        <path fill="#25313B" fill-rule="nonzero" d="M23.381 39.835v-6.928h19.74c.284 0 .565.084.82.244l9.602 6.046c.621.391 1.014 1.19 1.014 2.065v1.764c0 .875-.393 1.675-1.014 2.066l-2.654 1.67-27.508-6.927zM58.021 17.32L71.876 17.32 71.876 23.381 58.021 23.381zM70.36 0h1.95c2.151 0 3.896 1.745 3.896 3.897v1.948c0 1.076-.872 1.949-1.948 1.949H70.36c-1.076 0-1.949-.873-1.949-1.949V1.948C68.412.872 69.285 0 70.361 0z"/>
                        <path fill="#FFF" fill-rule="nonzero" d="M0 27.563v5.14c0 .656.417 1.256 1.077 1.549l10.614 4.717h11.69V25.113c0-.956-.872-1.732-1.948-1.732H4.704c-.517 0-1.012.183-1.378.508l-2.755 2.45c-.366.324-.571.764-.571 1.224z"/>
                        <path fill="#F5822D" fill-rule="nonzero" d="M23.381 40.701l-6.235 7.014c-.436.491-1.12.78-1.847.78H9.526V40.7H23.38z"/>
                    </g>
                </g>
            </g>
        </g>
    </g>
</svg>
