<svg xmlns="http://www.w3.org/2000/svg" xmlns:xlink="http://www.w3.org/1999/xlink" width="140" height="140" viewBox="0 0 140 140">
    <defs>
        <circle id="9mktz0mhha" cx="70" cy="70" r="70"/>
    </defs>
    <g fill="none" fill-rule="evenodd">
        <g>
            <g transform="translate(-765 -872) translate(765 872)">
                <mask id="irn8oe3w7b" fill="#fff">
                    <use xlink:href="#9mktz0mhha"/>
                </mask>
                <use fill="#F0F0F0" xlink:href="#9mktz0mhha"/>
                <g mask="url(#irn8oe3w7b)">
                    <g fill-rule="nonzero" transform="translate(-29.75 61.25)">
                        <path fill="#89C5CC" d="M67.113 38.97H56.29v12.989c0 4.782-3.877 8.66-8.66 8.66s-8.66-3.878-8.66-8.66V50.62c0-3.301-1.311-6.468-3.646-8.802l-2.849-2.849H2.164L.458 42.385C.157 42.986 0 43.649 0 44.32v18.463l2.165 6.494h4.33l2.165-6.494h21.65l4.33 6.494h32.473V38.97z"/>
                        <g transform="translate(10.825 45.464)">
                            <path fill="#E4E4E2" d="M54.124 0L75.773 0 75.773 23.814 54.124 23.814z"/>
                            <circle cx="99.588" cy="21.649" r="9.472" fill="#EFE8E0"/>
                            <circle cx="9.472" cy="21.649" r="9.472" fill="#EFE8E0"/>
                        </g>
                        <path fill="#25313B" d="M110.412 78.75c-6.426 0-11.636-5.21-11.636-11.637 0-6.426 5.21-11.636 11.636-11.636 6.427 0 11.637 5.21 11.637 11.636-.007 6.424-5.213 11.63-11.637 11.637zm0-18.943c-4.035 0-7.306 3.271-7.306 7.306 0 4.036 3.271 7.307 7.306 7.307 4.036 0 7.307-3.271 7.307-7.307-.004-4.033-3.273-7.302-7.307-7.306z"/>
                        <circle cx="110.412" cy="67.113" r="3.789" fill="#F5822D"/>
                        <path fill="#25313B" d="M20.296 78.75c-6.426 0-11.636-5.21-11.636-11.637 0-6.426 5.21-11.636 11.636-11.636 6.427 0 11.637 5.21 11.637 11.636-.007 6.424-5.213 11.63-11.637 11.637zm0-18.943c-4.035 0-7.306 3.271-7.306 7.306 0 4.036 3.271 7.307 7.306 7.307 4.036 0 7.307-3.271 7.307-7.307-.004-4.033-3.273-7.302-7.307-7.306z"/>
                        <path fill="#FFF" d="M108.247 35.643V51.96l-12.99 17.32H84.434V8.658h6.495l14.17 19.485 1.285 1.768c1.212 1.665 1.864 3.672 1.864 5.731z"/>
                        <path fill="#89C5CC" d="M84.433 38.969L108.247 38.969 108.247 51.959 95.258 69.278 84.433 69.278z"/>
                        <path fill="#25313B" d="M64.948 51.959L84.433 51.959 84.433 54.124 64.948 54.124z"/>
                        <path fill="#89C5CC" d="M75.773 69.278h-4.33v-8.66c0-1.195.97-2.164 2.165-2.164h10.825v4.33h-8.66v6.494zM92.886 69.278c-.096-.76-.141-1.524-.135-2.29.061-8.115 5.835-15.063 13.802-16.61 7.967-1.546 15.92 2.737 19.014 10.24h-12.52c-2.045 0-3.97.963-5.197 2.598l-2.273 3.031c-1.43 1.908-3.677 3.031-6.062 3.031h-6.629z"/>
                        <path fill="#FFF" d="M32.474 12.99L32.474 38.969 2.165 38.969 8.968 12.99zM67.113 38.969L56.289 38.969 56.289 8.66 64.948 8.66 64.948 34.639z"/>
                        <path fill="#89C5CC" d="M73.608 43.299v-8.66c0-2.391-1.938-4.33-4.33-4.33-2.391 0-4.33 1.939-4.33 4.33v17.32h19.485v-8.66H73.608z"/>
                        <path fill="#CCCBCB" d="M2.165 62.784c1.977-7.647 8.876-12.99 16.774-12.99 7.898 0 14.797 5.342 16.774 12.99H2.165z"/>
                        <path fill="#25313B" d="M8.968 12.99h47.32V8.66h34.64c0-4.783-3.877-8.66-8.66-8.66h-60.86c-3.353 0-6.564 1.352-8.907 3.751-2.342 2.399-3.618 5.641-3.538 8.993l.005.246z"/>
                        <path fill="#CCCBCB" d="M56.289 8.66L64.948 8.66 64.948 12.99 56.289 12.99z"/>
                        <path fill="#25313B" d="M106.672 30.31H96.313c-1.911 0-3.597-1.255-4.146-3.086L86.597 8.66h4.33l14.17 19.484 1.575 2.165z"/>
                        <path fill="#30516C" d="M103.918 30.31h-7.605c-1.911 0-3.597-1.255-4.146-3.086L86.597 8.66h1.576l14.17 19.484 1.575 2.165z"/>
                        <path fill="#25313B" d="M64.948 47.629L84.433 47.629 84.433 51.959 64.948 51.959z"/>
                    </g>
                </g>
            </g>
        </g>
    </g>
</svg>
