<svg xmlns="http://www.w3.org/2000/svg" xmlns:xlink="http://www.w3.org/1999/xlink" width="140" height="140" viewBox="0 0 140 140">
    <defs>
        <circle id="sk6dp99aza" cx="70" cy="70" r="70"/>
        <circle id="wg47r2cfwc" cx="70" cy="70" r="70"/>
    </defs>
    <g fill="none" fill-rule="evenodd">
        <g>
            <g>
                <g transform="translate(-200 -1118) translate(200 1118)">
                    <mask id="9rmw51sqdb" fill="#fff">
                        <use xlink:href="#sk6dp99aza"/>
                    </mask>
                    <use fill="#F7F8F9" xlink:href="#sk6dp99aza"/>
                    <g mask="url(#9rmw51sqdb)">
                        <g fill-rule="nonzero" transform="translate(-47.25 61.25)">
                            <path fill="#30516C" d="M125.635 20.94L107.182.893C106.659.326 105.903 0 105.109 0H65.053c-3.042 0-5.507 2.344-5.507 5.235v15.704h66.089z"/>
                            <path fill="#FFF" d="M60.293 20.285H7.885c-1.08 0-2.067.62-2.55 1.602l-1.762 3.582c-.198.402-.301.846-.301 1.296v31.192h8.553l2.016 2.049c.535.543 1.26.848 2.016.848h140.192c.757 0 1.482-.305 2.016-.848l4.033-4.099c.534-.543.835-1.28.835-2.049V42.361c0-1.098-.61-2.101-1.576-2.592l-9.829-4.995-2.85-11.591-19.958-2.898H60.293z"/>
                            <path fill="#CCCBCB" d="M87.683 20.285L90.954 20.285 90.954 60.854 87.683 60.854z"/>
                            <path fill="#000" d="M87.683 0L90.954 0 90.954 20.939 87.683 20.939z"/>
                            <path fill="#FFF" d="M152.9 47.113l-5.017 6.02v9.03h8.994c.665 0 1.303-.317 1.774-.882l3.547-4.256c.47-.565.735-1.33.735-2.129v-7.783h-10.034z"/>
                            <path fill="#F5822D" d="M150.664 22.248h-6.217c-1.716 0-3.108 1.391-3.108 3.108v6.216c0 1.717 1.392 3.108 3.108 3.108h9.325l-3.108-12.432z"/>
                            <path fill="#25313B" d="M100.115 34.026L109.276 34.026 109.276 37.298 100.115 37.298z"/>
                            <path fill="#CCCBCB" d="M60.2 20.285L63.472 20.285 63.472 60.854 60.2 60.854z"/>
                            <ellipse cx="39.261" cy="59.218" fill="#EFE8E0" rx="15.05" ry="14.068"/>
                            <path fill="#25313B" d="M39.588 75.25c-9.938 0-17.995-7.763-17.995-17.34s8.057-17.34 17.995-17.34 17.995 7.763 17.995 17.34c-.011 9.572-8.061 17.33-17.995 17.34zm0-28.9c-6.625 0-11.996 5.175-11.996 11.56 0 6.384 5.37 11.56 11.996 11.56 6.625 0 11.996-5.176 11.996-11.56-.007-6.382-5.373-11.554-11.996-11.56z"/>
                            <ellipse cx="134.796" cy="59.218" fill="#EFE8E0" rx="15.05" ry="14.068"/>
                            <g transform="translate(115.165 40.57)">
                                <path fill="#25313B" d="M17.995 34.68C8.056 34.68 0 26.917 0 17.34S8.056 0 17.995 0c9.938 0 17.994 7.763 17.994 17.34-.01 9.573-8.06 17.33-17.994 17.34zm0-28.9c-6.626 0-11.997 5.176-11.997 11.56 0 6.385 5.371 11.56 11.997 11.56 6.625 0 11.996-5.175 11.996-11.56-.007-6.381-5.374-11.553-11.996-11.56z"/>
                                <ellipse cx="17.995" cy="17.34" fill="#F5822D" rx="5.293" ry="5.1"/>
                            </g>
                        </g>
                    </g>
                </g>
                <g transform="translate(-200 -1118) translate(200 1118)">
                    <mask id="h5r15jtcwd" fill="#fff">
                        <use xlink:href="#wg47r2cfwc"/>
                    </mask>
                    <use fill="#F0F0F0" xlink:href="#wg47r2cfwc"/>
                    <g mask="url(#h5r15jtcwd)">
                        <g fill-rule="nonzero" transform="translate(-45.5 63)">
                            <path fill="#30516C" d="M125.635 20.94L107.182.893C106.659.326 105.903 0 105.109 0H65.053c-3.042 0-5.507 2.344-5.507 5.235v15.704h66.089z"/>
                            <path fill="#FFF" d="M60.293 20.285H7.885c-1.08 0-2.067.62-2.55 1.602l-1.762 3.582c-.198.402-.301.846-.301 1.296v31.192h8.553l2.016 2.049c.535.543 1.26.848 2.016.848h140.192c.757 0 1.482-.305 2.016-.848l4.033-4.099c.534-.543.835-1.28.835-2.049V42.361c0-1.098-.61-2.101-1.576-2.592l-9.829-4.995-2.85-11.591-19.958-2.898H60.293z"/>
                            <path fill="#CCCBCB" d="M87.683 20.285L90.954 20.285 90.954 60.854 87.683 60.854z"/>
                            <path fill="#000" d="M87.683 0L90.954 0 90.954 20.939 87.683 20.939z"/>
                            <path fill="#FFF" d="M152.9 47.113l-5.017 6.02v9.03h8.994c.665 0 1.303-.317 1.774-.882l3.547-4.256c.47-.565.735-1.33.735-2.129v-7.783h-10.034z"/>
                            <path fill="#F5822D" d="M150.664 22.248h-6.217c-1.716 0-3.108 1.391-3.108 3.108v6.216c0 1.717 1.392 3.108 3.108 3.108h9.325l-3.108-12.432z"/>
                            <path fill="#25313B" d="M100.115 34.026L109.276 34.026 109.276 37.298 100.115 37.298z"/>
                            <path fill="#CCCBCB" d="M60.2 20.285L63.472 20.285 63.472 60.854 60.2 60.854z"/>
                            <ellipse cx="39.261" cy="59.218" fill="#EFE8E0" rx="15.05" ry="14.068"/>
                            <path fill="#25313B" d="M39.588 75.25c-9.938 0-17.995-7.763-17.995-17.34s8.057-17.34 17.995-17.34 17.995 7.763 17.995 17.34c-.011 9.572-8.061 17.33-17.995 17.34zm0-28.9c-6.625 0-11.996 5.175-11.996 11.56 0 6.384 5.37 11.56 11.996 11.56 6.625 0 11.996-5.176 11.996-11.56-.007-6.382-5.373-11.554-11.996-11.56z"/>
                            <ellipse cx="134.796" cy="59.218" fill="#EFE8E0" rx="15.05" ry="14.068"/>
                            <g transform="translate(115.165 40.57)">
                                <path fill="#25313B" d="M17.995 34.68C8.056 34.68 0 26.917 0 17.34S8.056 0 17.995 0c9.938 0 17.994 7.763 17.994 17.34-.01 9.573-8.06 17.33-17.994 17.34zm0-28.9c-6.626 0-11.997 5.176-11.997 11.56 0 6.385 5.371 11.56 11.997 11.56 6.625 0 11.996-5.175 11.996-11.56-.007-6.381-5.374-11.553-11.996-11.56z"/>
                                <ellipse cx="17.995" cy="17.34" fill="#F5822D" rx="5.293" ry="5.1"/>
                            </g>
                        </g>
                    </g>
                </g>
            </g>
        </g>
    </g>
</svg>
