<svg xmlns="http://www.w3.org/2000/svg" xmlns:xlink="http://www.w3.org/1999/xlink" width="80" height="80" viewBox="0 0 80 80">
    <defs>
        <path id="t1kria5zsa" d="M0 0H80V80H0z"/>
    </defs>
    <g fill="none" fill-rule="evenodd">
        <g>
            <g transform="translate(-189 -226) translate(189 226)">
                <mask id="e2pm96j2kb" fill="#fff">
                    <use xlink:href="#t1kria5zsa"/>
                </mask>
                <g mask="url(#e2pm96j2kb)">
                    <g>
                        <g>
                            <g fill-rule="nonzero">
                                <path fill="#838383" d="M6.689 15.419L1.08 17.482c-.207.652-.32 1.347-.32 2.068 0 3.823 3.16 6.923 7.058 6.923 3.575 0 6.527-2.608 6.993-5.99l-8.123-5.064zM34.068 17.946h-.095c-.126.515-.19 1.051-.19 1.604 0 3.823 3.16 6.923 7.057 6.923 3.897 0 7.057-3.1 7.057-6.923 0-.553-.067-1.09-.19-1.604l-6.312-1.526-7.327 1.526z" transform="translate(-8.427 18) translate(.42 27.344) translate(.14 12.054)"/>
                                <path fill="#ECECEC" d="M21.37 8.51l-6.365 6.752c.252.572.735 2.239-.014 2.23l-.435-.005c.003.003.003.006.003.009l5.162 1.655c7.52-.327 4.924-.168 10.436-5.225l.897-5.416L26.3 5.875l-4.93 2.635z" transform="translate(-8.427 18) translate(.42 27.344) translate(.14 12.054)"/>
                                <path fill="#CECECE" d="M31.054 8.51H21.37l-2.072 2.195h5.958c1.562 0 1.506-.069.614 1.408l-1.56 2.283c.643.198 1.159.685 1.375 1.345l3.434-4.624 1.935-2.607z" transform="translate(-8.427 18) translate(.42 27.344) translate(.14 12.054)"/>
                                <path fill="#4F4F50" d="M7.995 10.969c-3.493-.143-7.037 1.46-7.817 4.293-.246.9-.446 2.291.903 2.22h5.515l1.705-2.22-.306-4.293zM15.002 15.262c-.734-1.722-2.083-2.888-3.678-3.567l-1.576 2.899.233 2.888h4.197l.378.005.435.006c.749.008.266-1.659.011-2.23z" transform="translate(-8.427 18) translate(.42 27.344) translate(.14 12.054)"/>
                                <path fill="#838383" d="M23.65 14.297c-.61 0-1.159.245-1.551.638-.356.355-.586.83-.62 1.358-.028.438.079.85.286 1.202h1.506c.925 0 1.239-.167 1.738-.841l.676-.913c-.289-.875-1.094-1.444-2.036-1.444z" transform="translate(-8.427 18) translate(.42 27.344) translate(.14 12.054)"/>
                                <path fill="#4F4F50" d="M42.306.017H39.69c-.788 0-1.506.297-2.047.78l-1.332 2.479 1.332 1.934c.541.484 1.26.78 2.047.78h2.616c.513 0 .934-.412.934-.915V.933c0-.504-.42-.916-.934-.916zM38.726 13.974l-2.644-1.809c-1.397.79-2.51 1.953-3.068 3.466-.328.896-.589 2.26.96 2.315h4.934l-.182-3.972z" transform="translate(-8.427 18) translate(.42 27.344) translate(.14 12.054)"/>
                                <path fill="#4F4F50" d="M48.16 14.528c-2.018-3.04-6.005-4.06-9.434-3.342l-.223 3.33 3.447 3.43h5.756c.171 0 .32-.013.454-.04 1.158-.246.957-1.472.6-2.275-.173-.394-.375-.76-.6-1.103z" transform="translate(-8.427 18) translate(.42 27.344) translate(.14 12.054)"/>
                                <path fill="#000" d="M7.995 10.969c-3.493-.143-7.037 1.46-7.817 4.293-.204.748-.375 1.837.348 2.14 1.237-2.426 3.794-4.095 6.746-4.095.076 0 .149.002.222.005l.145-.682.356-1.661zM14.96 15.16c-.746-1.666-2.072-2.8-3.636-3.465l-.382 1.645-.185.803c1.433.734 2.597 1.909 3.303 3.339h.118l.378.005.435.006c.749.008.266-1.659.011-2.23-.014-.037-.028-.07-.042-.103zM48.16 14.528c-1.031-1.551-2.576-2.577-4.295-3.114-1.649-.514-3.46-.58-5.14-.228l.166.35.045.09c1.744.033 3.485.5 4.929 1.433.844.547 1.584 1.254 2.165 2.126.224.341.426.71.6 1.103.221.5.384 1.169.19 1.658h.886c.171 0 .32-.013.454-.04 1.158-.246.957-1.472.6-2.275-.173-.394-.375-.76-.6-1.103zM36.082 12.165c-.654.369-1.243.82-1.744 1.348l.476.97 1.556 3.186.138.277H38.908L38.445 17l-1.559-3.187-.695-1.425-.11-.223zM42.306.017h-1.665c.513 0 .933.412.933.916v4.142c0 .503-.42.916-.933.916h1.665c.513 0 .934-.413.934-.916V.933c0-.504-.42-.916-.934-.916z" transform="translate(-8.427 18) translate(.42 27.344) translate(.14 12.054)"/>
                                <path fill="#ECECEC" d="M39.791 19.753l-.81-1.655-.073-.152h-1.203c-.255.482-.401 1.026-.401 1.604 0 1.914 1.584 3.468 3.536 3.468 1.951 0 3.533-1.554 3.533-3.468 0-.578-.143-1.122-.399-1.604H41.95l.07.152.152.319c.874 1.834-1.739 2.648-2.381 1.336z" transform="translate(-8.427 18) translate(.42 27.344) translate(.14 12.054)"/>
                                <path fill="#595959" d="M46.82 17.946h-1.503c.127.515.191 1.051.191 1.604 0 3.424-2.535 6.268-5.863 6.824.387.066.788.099 1.195.099 3.897 0 7.057-3.1 7.057-6.923 0-.553-.067-1.09-.19-1.604h-.887zM14.812 20.482l-2.235.003c-.418 3.023-2.826 5.426-5.888 5.9.367.057.746.088 1.13.088 3.575 0 6.527-2.608 6.993-5.99z" transform="translate(-8.427 18) translate(.42 27.344) translate(.14 12.054)"/>
                                <path fill="#ECECEC" d="M6.596 17.482H4.981c-.437.577-.698 1.292-.698 2.068 0 1.914 1.584 3.468 3.536 3.468 1.62 0 2.989-1.072 3.404-2.533l-4.627-3.003z" transform="translate(-8.427 18) translate(.42 27.344) translate(.14 12.054)"/>
                            </g>
                            <path fill="#838383" fill-rule="nonzero" d="M29.868 22.502l.185.929-1.268.517H24.42c-.41 0-.742-.324-.742-.723 0-.4.332-.723.742-.723h5.447z" transform="translate(-8.427 18) translate(.42 27.344)"/>
                            <path fill="#CECECE" fill-rule="nonzero" d="M36.06 8.065c-.292 0-.571-.162-.696-.432l-1.65-3.566c-.17-.366.006-.792.39-.952.385-.16.834.006 1.003.37l1.93 4.17c.17.365-.172.539-.557.7-.1.04-.317-.29-.42-.29z" transform="translate(-8.427 18) translate(.42 27.344)"/>
                            <path fill="#CACACA" d="M34.957 20.55v.793L27.42 30.95c-1.041 1.505-2.203 1.505-2.563 1.505l-9.85.006-3.594.003-2.937.002.137-1.95 1.553-1.027h13.313c.926 0 1.24-.167 1.74-.838l.677-.908 2.895-3.87.544-.73.44-.588 1.498-2.005 1.83-1.263 1.854 1.263z" transform="translate(-8.427 18) translate(.42 27.344)"/>
                            <path fill="#4F4F50" d="M34.558.7L30.776.01c-.48-.086-.886.392-.886.87v1.95c0 .477.397.867.886.867h3.782c.489 0 .89-.39.89-.868V1.567c0-.478-.41-.781-.89-.867z" transform="translate(-8.427 18) translate(.42 27.344)"/>
                            <path fill="#000" d="M35.447 1.552c0-.482-.412-.787-.895-.874L33.476.482c.246.174.412.44.412.787v1.436c0 .546-.403.992-.893.992h1.557c.492 0 .895-.392.895-.874V1.552z" transform="translate(-8.427 18) translate(.42 27.344)"/>
                            <path fill="#CACACA" d="M6.553 30.562c-.264 1.516.888 2.24 1.903 2.03.514-.108.992-.456 1.228-1.064.048-.121.087-.257.115-.4l2.437-10.514-1.807-1.81-1.74 1.81c-.711 3.317-1.425 6.634-2.136 9.948z" transform="translate(-8.427 18) translate(.42 27.344)"/>
                            <path fill="#868687" d="M12.236 20.573H8.692L7.66 25.369c1.176.033 2.285.327 3.268.83.435-1.877.873-3.75 1.309-5.626z" transform="translate(-8.427 18) translate(.42 27.344)"/>
                            <path fill="#838383" d="M18.614 15.292H6.826c-1.206-.06-1.707-1.625-2.895-1.63l-1.346.005C1.61 13.61.466 14 .466 15.5V18.57c0 1.097.802 2.003 2.327 2.003h18.761l2.614-2.64-2.614-2.64h-2.94z" transform="translate(-8.427 18) translate(.42 27.344)"/>
                            <path fill="#595959" d="M19.101 15.269L21.553 15.269 21.553 20.573 19.101 20.573z" transform="translate(-8.427 18) translate(.42 27.344)"/>
                            <path fill="#4F4F50" d="M34.859 15.911c0-3.917-10.992-4.42-13.306-.585v5.247H34.859l1.242-2.508-1.242-2.154z" transform="translate(-8.427 18) translate(.42 27.344)"/>
                            <path fill="#000" d="M34.957 15.911c0-3.416-8.402-4.234-12.096-1.847 4.062-.983 9.614.076 9.614 2.855v3.654h2.482V15.91z" transform="translate(-8.427 18) translate(.42 27.344)"/>
                            <path fill="#CACACA" d="M36.1 7.41l-4.918-.017c-1.931-.008-1.943 2.646-.025 2.755l3.694.212V21.503l1.46 2.972.696 1.421 1.56 3.18.537 1.096.811 1.652c.643 1.309 3.26.496 2.384-1.334l-.152-.318-.957-2.004-1.592-3.325-.584-1.219-1.25-2.615V9.125c0-.302-.072-.56-.193-.769-.247-.554-.814-.943-1.47-.946z" transform="translate(-8.427 18) translate(.42 27.344)"/>
                            <path fill="#868687" d="M37.583 8.343c-.247-.554-.812-.944-1.468-.947l-1.322-.003c.65.003 1.213.393 1.46.945.12.211.193.467.193.769v11.89l1.238 2.598.01.019.58 1.219 1.589 3.328.887 1.858.07.149.149.315c.428.895.022 1.549-.58 1.829.958.516 2.636-.302 1.91-1.823l-.151-.319-.07-.15-.885-1.854-1.588-3.328-.538-1.128-.045-.09-.165-.35-1.081-2.267V9.112c0-.302-.073-.56-.193-.769z" transform="translate(-8.427 18) translate(.42 27.344)"/>
                        </g>
                        <g fill-rule="nonzero" transform="translate(-8.427 18) translate(43.718)">
                            <path fill="#976947" d="M10.026 26.636L18.999 26.636 18.999 33.437 10.026 33.437zM10.026 61.688L18.999 61.688 18.999 65.873 10.026 65.873z"/>
                            <path fill="#C18E59" d="M12.665 33.437L16.888 33.437 16.888 61.688 12.665 61.688z"/>
                            <ellipse cx="14.777" cy="14.604" fill="#2B74CA" rx="14.251" ry="14.125"/>
                            <path fill="#3D98F7" d="M-.002 14.728c0 3.018.952 5.812 2.567 8.116 1.464.421 3.013.653 4.621.653 8.856 0 16.036-6.87 16.036-15.346 0-1.893-.375-3.698-1.031-5.372-2.25-1.45-4.931-2.3-7.816-2.3-7.94 0-14.377 6.379-14.377 14.25z"/>
                            <path fill="#FFF" d="M12.243 23.497h-2.217V8.361c0-.598.497-1.081 1.109-1.081h5.542c2.445 0 4.433 1.94 4.433 4.324 0 2.385-1.988 4.325-4.433 4.325h-4.434v7.568zm0-9.73h4.434c1.222 0 2.217-.97 2.217-2.163 0-1.192-.995-2.162-2.217-2.162h-4.434v4.325z"/>
                            <path fill="#976947" d="M10.026 26.636L18.999 26.636 18.999 33.437 10.026 33.437zM10.026 61.688L18.999 61.688 18.999 65.873 10.026 65.873z"/>
                            <path fill="#C18E59" d="M12.665 33.437L16.888 33.437 16.888 61.688 12.665 61.688z"/>
                            <ellipse cx="14.777" cy="14.604" fill="#69A1AC" rx="14.251" ry="14.125"/>
                            <path fill="#89C5CC" d="M-.002 14.728c0 3.018.952 5.812 2.567 8.116 1.464.421 3.013.653 4.621.653 8.856 0 16.036-6.87 16.036-15.346 0-1.893-.375-3.698-1.031-5.372-2.25-1.45-4.931-2.3-7.816-2.3-7.94 0-14.377 6.379-14.377 14.25z"/>
                            <path fill="#FFF" d="M12.243 23.497h-2.217V8.361c0-.598.497-1.081 1.109-1.081h5.542c2.445 0 4.433 1.94 4.433 4.324 0 2.385-1.988 4.325-4.433 4.325h-4.434v7.568zm0-9.73h4.434c1.222 0 2.217-.97 2.217-2.163 0-1.192-.995-2.162-2.217-2.162h-4.434v4.325z"/>
                        </g>
                    </g>
                </g>
            </g>
        </g>
    </g>
</svg>
