<svg xmlns="http://www.w3.org/2000/svg" xmlns:xlink="http://www.w3.org/1999/xlink" width="120" height="120" viewBox="0 0 120 120">
    <defs>
        <circle id="4ll1cjckpa" cx="60" cy="60" r="60"/>
    </defs>
    <g fill="none" fill-rule="evenodd">
        <g>
            <g>
                <g transform="translate(-120 -37) translate(0 37) translate(120)">
                    <mask id="xzmrg11fgb" fill="#fff">
                        <use xlink:href="#4ll1cjckpa"/>
                    </mask>
                    <use fill="#F8F8F8" xlink:href="#4ll1cjckpa"/>
                    <ellipse cx="59.5" cy="88" fill="#626CCD" fill-opacity=".349" fill-rule="nonzero" mask="url(#xzmrg11fgb)" rx="28.5" ry="29"/>
                    <g mask="url(#xzmrg11fgb)">
                        <g fill-rule="nonzero">
                            <path fill="#000" d="M103.81 23.2H2.299c-1.27 0-2.298-.895-2.298-2s1.029-2 2.298-2H103.81c1.269 0 2.297.895 2.297 2s-1.028 2-2.297 2zM103.809 31.2H24.876c-1.27 0-2.3-.895-2.3-2s1.03-2 2.3-2h78.933c1.27 0 2.3.895 2.3 2s-1.03 2-2.3 2zM103.81 14.8H2.299c-1.27 0-2.298-.895-2.298-2s1.029-2 2.298-2H103.81c1.269 0 2.297.895 2.297 2s-1.028 2-2.297 2z" transform="rotate(-49 146.995 26.28)"/>
                            <path fill="#9CA4AC" d="M0 11.66C0 5.451 5.68.4 12.662.4h80.785c6.981 0 12.661 5.051 12.661 11.26v19.08c0 6.209-5.68 11.26-12.661 11.26H12.662C5.68 42 0 36.949 0 30.74V11.66z" transform="rotate(-49 146.995 26.28)"/>
                            <path fill="#78838B" d="M106.108 21.2c0 1.129-1.028 2.043-2.297 2.043H2.298C1.028 23.243 0 22.33 0 21.2s1.029-2.043 2.298-2.043H103.81c1.269 0 2.297.914 2.297 2.043zM2.298 15.07H103.81c1.269 0 2.297-.915 2.297-2.044 0-1.128-1.028-2.043-2.297-2.043H86.162l7.977-7.095c.898-.798.898-2.092 0-2.89C93.242.2 91.787.2 90.89.999l-11.227 9.985h-6.93l7.977-7.095c.897-.798.897-2.092 0-2.89s-2.352-.798-3.25 0l-11.226 9.985h-6.93l7.977-7.095c.897-.798.897-2.092 0-2.89s-2.352-.798-3.25 0l-11.226 9.985h-6.93l7.977-7.095c.897-.798.897-2.092 0-2.89-.898-.798-2.353-.798-3.25 0l-11.226 9.985h-6.93l7.977-7.095c.897-.798.897-2.092 0-2.89s-2.352-.798-3.25 0l-11.227 9.985h-6.93l7.977-7.094c.897-.798.897-2.092 0-2.89s-2.352-.798-3.25 0l-11.227 9.984H2.298c-1.27 0-2.298.915-2.298 2.043 0 1.129 1.029 2.044 2.298 2.044zM103.81 27.33H2.298c-1.27 0-2.298.915-2.298 2.044 0 1.128 1.029 2.043 2.298 2.043h10.218l11.227 9.984c.898.799 2.353.799 3.25 0 .897-.798.897-2.092 0-2.89l-7.978-7.094h6.93l11.228 9.984c.897.799 2.352.799 3.25 0 .896-.798.896-2.092 0-2.89l-7.978-7.094h6.93l11.227 9.984c.897.799 2.352.799 3.25 0 .897-.798.897-2.092 0-2.89l-7.978-7.094h6.93l11.227 9.984c.897.799 2.352.799 3.25 0 .897-.798.897-2.092 0-2.89l-7.978-7.094h6.93l11.227 9.984c.897.799 2.352.799 3.25 0 .897-.798.897-2.092 0-2.89l-7.978-7.094h6.93l11.227 9.984c.898.799 2.353.799 3.25 0 .897-.798.897-2.092 0-2.89l-7.978-7.094h17.65c1.269 0 2.297-.915 2.297-2.043 0-1.129-1.028-2.044-2.297-2.044z" transform="rotate(-49 146.995 26.28)"/>
                            <path fill="#7A828A" d="M93.445.4h-1.413c1.155 1.697 1.82 3.686 1.82 5.811v19.08c0 6.208-5.68 11.26-12.663 11.26H1.806C4.026 39.814 8.056 42 12.65 42h80.796c6.983 0 12.663-5.051 12.663-11.26V11.66c0-6.209-5.68-11.26-12.663-11.26z" transform="rotate(-49 146.995 26.28)"/>
                            <g fill="#4D5961">
                                <path d="M32.467 41.308c.898.798 2.355.798 3.254 0 .898-.8.898-2.094 0-2.893l-2.208-1.963h-6.508l5.462 4.856zM45.914 41.308c.899.798 2.356.798 3.254 0 .898-.8.898-2.094 0-2.893l-2.208-1.963h-6.508l5.462 4.856zM59.361 41.308c.899.798 2.356.798 3.254 0 .899-.8.899-2.094 0-2.893l-2.207-1.963H53.9l5.461 4.856zM76.062.865C75.497.362 74.71.176 73.981.307c.788 1.169 1.345 2.475 1.613 3.868l.468-.417c.899-.799.899-2.094 0-2.893zM71.047 33.956c-1.246.893-2.684 1.581-4.25 2.007l6.011 5.345c.899.798 2.356.798 3.254 0 .899-.8.899-2.094 0-2.893l-5.015-4.46zM85.746 19.041h-9.97v4.09h9.97c1.271 0 2.301-.915 2.301-2.045s-1.03-2.045-2.3-2.045zM85.746 27.223H75.567c-.307 1.485-.942 2.87-1.836 4.09h12.015c1.271 0 2.301-.915 2.301-2.045s-1.03-2.045-2.3-2.045zM85.746 10.86h-9.97v4.09h9.97c1.271 0 2.301-.916 2.301-2.045 0-1.13-1.03-2.046-2.3-2.046zM19.02 41.308c.898.798 2.355.798 3.253 0 .899-.8.899-2.094 0-2.893l-2.207-1.963h-6.508l5.461 4.856z" transform="rotate(-49 146.995 26.28) translate(18.061)"/>
                            </g>
                        </g>
                    </g>
                    <g fill-rule="nonzero" stroke="#FFF" stroke-width="1.5" mask="url(#xzmrg11fgb)">
                        <g>
                            <path fill="#A8E3EA" d="M13 17.813L19.728 16.692 20.818 23.25 29.204 9.538 33.942 9.538 38.419 9.538 48.132 25.229 43.417 28.615 51.045 29.903 57.631 31 58.792 23.942 60 16.692 55.996 19.578 43.417 0 33.942 0 24.466 0z" transform="matrix(-1 0 0 1 93 29)"/>
                            <path fill="#89C5CC" d="M51.152 28.952L57.529 39.571 52.941 46.714 39.176 46.714 39.176 41.952 34.588 46.714 30 51.476 34.588 56.238 39.176 61 39.176 56.238 57.529 56.238 69 39.571 58.654 23 57.529 30.048z" transform="matrix(-1 0 0 1 93 29)"/>
                            <path fill="#69A1AC" d="M34 46.588L15.867 46.588 11.333 39.529 18.677 27.153 22.667 30.118 21.443 22.471 20.4 16 13.963 17.106 6.8 18.353 11.175 21.6 0 39.529 11.333 56 34 56 29.467 51.294z" transform="matrix(-1 0 0 1 93 29)"/>
                        </g>
                    </g>
                </g>
            </g>
        </g>
    </g>
</svg>
