<svg xmlns="http://www.w3.org/2000/svg" xmlns:xlink="http://www.w3.org/1999/xlink" width="120" height="120" viewBox="0 0 120 120">
    <defs>
        <circle id="p0zxnm3e2a" cx="60" cy="60" r="60"/>
    </defs>
    <g fill="none" fill-rule="evenodd">
        <g>
            <g>
                <g transform="translate(-120 -73) translate(0 73) translate(120)">
                    <mask id="37ntq1c6ob" fill="#fff">
                        <use xlink:href="#p0zxnm3e2a"/>
                    </mask>
                    <use fill="#F8F8F8" xlink:href="#p0zxnm3e2a"/>
                    <g mask="url(#37ntq1c6ob)">
                        <g fill-rule="nonzero" transform="translate(15 32)">
                            <g>
                                <g>
                                    <path fill="#89C5CC" d="M38.338 70.814H22.56c-1.75 0-3.17-1.39-3.17-3.105s1.42-3.106 3.17-3.106h15.778c1.75 0 3.17 1.39 3.17 3.106 0 1.715-1.42 3.105-3.17 3.105zM48.338 50.64H32.56c-1.75 0-3.17-1.39-3.17-3.105s1.42-3.105 3.17-3.105h15.778c1.75 0 3.17 1.39 3.17 3.105s-1.42 3.106-3.17 3.106z" opacity=".7"/>
                                    <path fill="#69A1AC" d="M65.614 81.888H13.006c-1.75 0-3.17-1.39-3.17-3.106 0-1.715 1.42-3.105 3.17-3.105h52.608c1.751 0 3.17 1.39 3.17 3.105s-1.419 3.106-3.17 3.106zM65.614 6.324H27.05c-1.75 0-3.17-1.39-3.17-3.106 0-1.715 1.42-3.106 3.17-3.106h38.565c1.751 0 3.17 1.39 3.17 3.106 0 1.715-1.419 3.106-3.17 3.106z" opacity=".8"/>
                                    <path fill="#89C5CC" d="M35.671 20.297H12.68c-1.75 0-3.17-1.39-3.17-3.106 0-1.715 1.42-3.105 3.17-3.105H35.67c1.75 0 3.17 1.39 3.17 3.105s-1.42 3.106-3.17 3.106z" opacity=".7"/>
                                    <path fill="#89C5CC" d="M12.722 70.385H1.542C.69 70.385 0 68.995 0 67.279c0-1.715.69-3.105 1.541-3.105h11.18c.852 0 1.542 1.39 1.542 3.105 0 1.716-.69 3.106-1.541 3.106zM22.722 50.211h-11.18c-.852 0-1.542-1.39-1.542-3.105C10 45.39 10.69 44 11.541 44h11.18c.852 0 1.542 1.39 1.542 3.106 0 1.715-.69 3.105-1.541 3.105z" opacity=".4"/>
                                </g>
                                <path fill="#9CA4AC" d="M64.167 82C41.65 82 23.333 63.607 23.333 41S41.651 0 64.167 0C86.682 0 105 18.393 105 41S86.682 82 64.167 82z"/>
                                <ellipse cx="64.697" cy="41.532" fill="#FFF" rx="22.273" ry="22.364"/>
                                <path fill="#898DB0" d="M64.697 14.91c-15.205 0-27.576 12.42-27.576 27.688 0 9.104 4.4 17.196 11.177 22.245.062.053.123.106.19.155.076.055.153.106.23.154 4.512 3.23 10.028 5.134 15.979 5.134 5.95 0 11.467-1.903 15.978-5.134.078-.048.155-.1.23-.154.067-.05.13-.102.191-.155 6.777-5.05 11.177-13.14 11.177-22.245 0-15.268-12.37-27.689-27.576-27.689zm18.188 18.303l-8.82 2.904c-1.533-2.247-3.794-3.944-6.434-4.742v-9.397c6.647 1.103 12.254 5.377 15.254 11.235zm-23.468 9.384c0-2.923 2.368-5.302 5.28-5.302 2.912 0 5.28 2.379 5.28 5.302 0 2.924-2.368 5.302-5.28 5.302-2.912 0-5.28-2.378-5.28-5.302zm2.346-20.619v9.397c-2.64.798-4.902 2.495-6.434 4.742l-8.82-2.904c3-5.858 8.607-10.132 15.254-11.235zM44.162 42.774c0-1.061.083-2.104.243-3.122l8.985 2.826c-.002.099-.007.197-.007.296 0 2.691.938 5.173 2.513 7.16l-5.548 7.391c-3.822-3.743-6.186-8.884-6.186-14.55zm21.122 20.442c-3.374 0-6.563-.781-9.388-2.166l5.426-7.26c1.24.428 2.573.662 3.962.662 1.388 0 2.722-.234 3.962-.661l5.425 7.259c-2.825 1.385-6.014 2.166-9.387 2.166zm13.762-5.89l-5.548-7.392c1.574-1.986 2.513-4.468 2.513-7.16 0-.1-.005-.197-.008-.296l8.986-2.826c.16 1.018.243 2.061.243 3.122 0 5.666-2.363 10.808-6.186 14.551z"/>
                                <path fill="#78838B" d="M105 41c0-22.607-18.556-41-41.364-41v82C86.444 82 105 63.607 105 41z"/>
                                <path fill="#E8ECEF" d="M86.97 41.104c0-12.703-10.447-23-23.334-23v46c12.887 0 23.334-10.297 23.334-23z"/>
                                <path fill="#9D9D9D" d="M72.121 41.532c0-4.705-3.799-8.519-8.485-8.519v17.039c4.686 0 8.485-3.814 8.485-8.52z"/>
                                <path fill="#575D91" d="M68.065 42.598c0 2.822-2.462 5.118-5.49 5.118v6.78c1.49 0 2.919-.242 4.248-.68l5.816 7.463c-3.028 1.423-6.446 2.227-10.063 2.227v6.78c6.408 0 12.35-1.903 17.207-5.134.084-.048.167-.1.248-.154.072-.05.139-.102.206-.155 7.297-5.05 12.036-13.14 12.036-22.245 0-15.268-13.322-27.689-29.697-27.689v22.57c3.027 0 5.489 2.297 5.489 5.119zm16.834-2.946c.162 1.018.246 2.061.246 3.122 0 5.667-2.393 10.808-6.262 14.551l-5.616-7.391c1.594-1.986 2.544-4.468 2.544-7.16 0-.1-.005-.197-.008-.296l9.096-2.826zM66.14 21.978c7.247 1.103 13.36 5.377 16.63 11.235l-9.615 2.904c-1.67-2.247-4.135-3.944-7.014-4.742v-9.397z"/>
                            </g>
                            <ellipse cx="64.5" cy="43" fill="#FFF" rx="14.5" ry="15"/>
                            <path fill="#FDB62F" d="M61.91 53.892c-.439-.211-.665-.682-.546-1.134l1.856-7.03-7.42-1.759c-.353-.083-.635-.332-.749-.659-.111-.327-.039-.686.194-.95l10.556-12.001c.317-.358.85-.461 1.288-.251.44.21.666.681.547 1.134l-1.856 7.03 7.42 1.758c.353.083.635.332.749.66.111.326.039.686-.194.95l-10.556 12c-.316.359-.849.463-1.288.252z"/>
                        </g>
                    </g>
                </g>
            </g>
        </g>
    </g>
</svg>
