<svg xmlns="http://www.w3.org/2000/svg" xmlns:xlink="http://www.w3.org/1999/xlink" width="120" height="120" viewBox="0 0 120 120">
    <defs>
        <circle id="60l4xxvfea" cx="60" cy="60" r="60"/>
    </defs>
    <g fill="none" fill-rule="evenodd">
        <g>
            <g>
                <g transform="translate(-120 -37) translate(0 37) translate(120)">
                    <mask id="s7mdyar33b" fill="#fff">
                        <use xlink:href="#60l4xxvfea"/>
                    </mask>
                    <use fill="#F8F8F8" xlink:href="#60l4xxvfea"/>
                    <ellipse cx="61" cy="53.5" fill="#FABE2C" fill-rule="nonzero" mask="url(#s7mdyar33b)" opacity=".116" rx="35" ry="35.5"/>
                    <g fill-rule="nonzero" mask="url(#s7mdyar33b)">
                        <g>
                            <path fill="#89C5CC" d="M29.062 77c-1.588 0-3.188-.131-4.786-.397-7.641-1.27-14.333-5.46-18.844-11.796C.922 58.47-.868 50.744.395 43.053c.09-.557.615-.934 1.167-.842.553.092.928.618.836 1.175-1.173 7.153.49 14.337 4.686 20.23 4.195 5.893 10.417 9.788 17.523 10.97 14.67 2.44 28.572-7.59 30.995-22.355 1.173-7.153-.49-14.337-4.685-20.23-4.195-5.893-10.418-9.788-17.523-10.97-.554-.092-.929-.618-.837-1.175.091-.557.615-.934 1.167-.842 7.641 1.27 14.333 5.46 18.844 11.796 4.51 6.337 6.3 14.062 5.038 21.754-1.262 7.691-5.424 14.427-11.72 18.968C40.909 75.122 35.068 77 29.063 77z" transform="matrix(-1 0 0 1 94 38)"/>
                            <path fill="#69A1AC" d="M19.71 25.18C9.77 20.36 7 6.274 7 6.274S20.348.002 30.29 4.82C40.23 9.64 43 23.725 43 23.725S29.651 30 19.71 25.18z" transform="matrix(-1 0 0 1 94 38)"/>
                            <path fill="#89C5CC" d="M42.714 22.34l-9.724-4.703-6.113-14.14c-.773-.193-1.553-.335-2.336-.436l5.734 13.262-7.333-3.546L18.743 3c-.693.065-1.374.15-2.037.253l3.528 8.214L8.11 5.603C7.4 5.883 7 6.069 7 6.069s.091.453.297 1.22l12.06 5.832-8.53 2.807c.322.564.668 1.13 1.04 1.69l9.989-3.288 7.762 3.755-13.465 4.436c.598.504 1.232.976 1.902 1.405l14.063-4.632L41.848 24c.736-.29 1.152-.482 1.152-.482s-.088-.437-.286-1.178zM42.856 9.228C45.736 2.324 55.714 0 55.714 0s5.31 8.869 2.43 15.772C55.264 22.676 45.286 25 45.286 25s-5.31-8.869-2.43-15.772z" transform="matrix(-1 0 0 1 94 38)"/>
                            <path fill="#69A1AC" d="M58.959 10.078L51.02 13.34l5.212-12.201C55.86.416 55.602 0 55.602 0s-.492.11-1.291.355l-5.387 12.61-3.34-8.047c-.566.488-1.1 1.02-1.584 1.595l3.785 9.12-3.555 8.323c.347.663.582 1.044.582 1.044s.534-.12 1.392-.387l3.672-8.594 9.08-3.73c.06-.738.057-1.479.003-2.21z" transform="matrix(-1 0 0 1 94 38)"/>
                        </g>
                    </g>
                    <g mask="url(#s7mdyar33b)">
                        <g>
                            <path fill="#000" fill-rule="nonzero" d="M65.55 17H1.45C.65 17 0 16.328 0 15.5S.65 14 1.45 14h64.1c.8 0 1.45.672 1.45 1.5s-.65 1.5-1.45 1.5zM65.569 22H16.43c-.79 0-1.431-.672-1.431-1.5s.64-1.5 1.431-1.5H65.57c.79 0 1.431.672 1.431 1.5s-.64 1.5-1.431 1.5zM65.55 11H1.45C.65 11 0 10.328 0 9.5S.65 8 1.45 8h64.1c.8 0 1.45.672 1.45 1.5s-.65 1.5-1.45 1.5z" transform="translate(45 70)"/>
                            <path fill="#808B95" fill-rule="nonzero" d="M0 8.12C0 3.643 3.586 0 7.995 0h51.01C63.414 0 67 3.643 67 8.12v13.76c0 4.477-3.586 8.12-7.995 8.12H7.995C3.586 30 0 26.357 0 21.88V8.12z" transform="translate(45 70)"/>
                            <path fill="#5E6B75" fill-rule="nonzero" d="M67 15c0 .814-.65 1.474-1.45 1.474H1.45C.65 16.474 0 15.814 0 15s.65-1.474 1.45-1.474h64.1c.8 0 1.45.66 1.45 1.474zM1.45 10.579h64.1c.8 0 1.45-.66 1.45-1.474 0-.813-.65-1.473-1.45-1.473H54.404l5.037-5.116c.567-.576.567-1.51 0-2.084-.566-.576-1.485-.576-2.051 0l-7.09 7.2h-4.375l5.037-5.116c.566-.576.566-1.51 0-2.084-.567-.576-1.486-.576-2.052 0l-7.089 7.2h-4.376l5.037-5.116c.567-.576.567-1.51 0-2.084-.566-.576-1.485-.576-2.052 0l-7.089 7.2h-4.376l5.038-5.116c.566-.576.566-1.51 0-2.084-.567-.576-1.486-.576-2.052 0l-7.09 7.2h-4.375l5.037-5.116c.567-.576.567-1.51 0-2.084-.566-.576-1.485-.576-2.052 0l-7.089 7.2h-4.376l5.037-5.116c.567-.576.567-1.509 0-2.084-.566-.576-1.485-.576-2.052 0l-7.089 7.2H1.451C.65 7.632 0 8.292 0 9.106c0 .813.65 1.473 1.45 1.473zm64.1 8.842H1.45c-.8 0-1.45.66-1.45 1.474 0 .813.65 1.473 1.45 1.473h6.453l7.09 7.2c.566.576 1.485.576 2.051 0 .567-.575.567-1.508 0-2.084l-5.037-5.116h4.376l7.089 7.2c.567.576 1.485.576 2.052 0 .566-.575.566-1.508 0-2.084l-5.037-5.116h4.376l7.088 7.2c.567.576 1.486.576 2.052 0 .567-.575.567-1.508 0-2.084l-5.037-5.116h4.376l7.089 7.2c.567.576 1.485.576 2.052 0 .566-.575.566-1.508 0-2.084l-5.037-5.116h4.376l7.089 7.2c.566.576 1.485.576 2.051 0 .567-.575.567-1.508 0-2.084l-5.037-5.116h4.376l7.09 7.2c.566.576 1.485.576 2.051 0 .567-.575.567-1.508 0-2.084l-5.037-5.116h11.144c.801 0 1.451-.66 1.451-1.473 0-.814-.65-1.474-1.45-1.474z" transform="translate(45 70)"/>
                            <path fill="#5E6B75" fill-rule="nonzero" d="M58.987 0h-.894c.73 1.224 1.151 2.658 1.151 4.19v13.76c0 4.477-3.594 8.12-8.013 8.12H1C2.405 28.424 4.955 30 7.861 30h51.126C63.405 30 67 26.357 67 21.88V8.12C67 3.643 63.406 0 58.987 0z" transform="translate(45 70)"/>
                            <g>
                                <path fill="#4D5961" fill-rule="nonzero" d="M20.28 29.505c.562.571 1.472.571 2.033 0 .562-.57.562-1.495 0-2.066l-1.379-1.402H16.87l3.412 3.468zM28.68 29.505c.562.571 1.472.571 2.033 0 .562-.57.562-1.495 0-2.066l-1.379-1.402H25.27l3.412 3.468zM37.08 29.505c.562.571 1.472.571 2.033 0 .562-.57.562-1.495 0-2.066l-1.379-1.402H33.67l3.412 3.468zM47.513.618c-.353-.36-.844-.492-1.3-.399.493.835.84 1.768 1.008 2.763l.292-.298c.562-.57.562-1.495 0-2.066zM44.38 24.254c-.778.638-1.676 1.13-2.655 1.434l3.756 3.817c.561.571 1.471.571 2.032 0 .562-.57.562-1.495 0-2.066l-3.133-3.185zM53.563 13.6h-6.229v2.923h6.229c.793 0 1.437-.654 1.437-1.461s-.644-1.461-1.437-1.461zM53.563 19.445h-6.359c-.192 1.06-.589 2.05-1.147 2.922h7.506c.793 0 1.437-.654 1.437-1.461s-.644-1.461-1.437-1.461zM53.563 7.757h-6.229v2.922h6.229c.793 0 1.437-.655 1.437-1.461 0-.807-.644-1.461-1.437-1.461zM3.48 29.505c.562.571 1.472.571 2.033 0 .562-.57.562-1.495 0-2.066l-1.379-1.402H.07l3.412 3.468zM11.88 29.505c.562.571 1.472.571 2.033 0 .562-.57.562-1.495 0-2.066l-1.379-1.402H8.47l3.412 3.468z" transform="translate(45 70) translate(12)"/>
                            </g>
                            <path fill="#000" fill-rule="nonzero" d="M65.55 46H1.45C.65 46 0 45.328 0 44.5S.65 43 1.45 43h64.1c.8 0 1.45.672 1.45 1.5s-.65 1.5-1.45 1.5zM65.569 52H16.43c-.79 0-1.431-.672-1.431-1.5s.64-1.5 1.431-1.5H65.57c.79 0 1.431.672 1.431 1.5s-.64 1.5-1.431 1.5zM65.55 41H1.45C.65 41 0 40.328 0 39.5S.65 38 1.45 38h64.1c.8 0 1.45.672 1.45 1.5s-.65 1.5-1.45 1.5z" transform="translate(45 70)"/>
                            <path fill="#808B95" fill-rule="nonzero" d="M0 38.12C0 33.643 3.586 30 7.995 30h51.01C63.414 30 67 33.643 67 38.12v13.76c0 4.477-3.586 8.12-7.995 8.12H7.995C3.586 60 0 56.357 0 51.88V38.12z" transform="translate(45 70)"/>
                            <path fill="#5E6B75" fill-rule="nonzero" d="M67 45c0 .814-.65 1.474-1.45 1.474H1.45C.65 46.474 0 45.814 0 45s.65-1.474 1.45-1.474h64.1c.8 0 1.45.66 1.45 1.474zM1.45 40.579h64.1c.8 0 1.45-.66 1.45-1.474 0-.813-.65-1.473-1.45-1.473H54.404l5.037-5.116c.567-.576.567-1.51 0-2.084-.566-.576-1.485-.576-2.051 0l-7.09 7.2h-4.375l5.037-5.116c.566-.576.566-1.51 0-2.084-.567-.576-1.486-.576-2.052 0l-7.089 7.2h-4.376l5.037-5.116c.567-.576.567-1.51 0-2.084-.566-.576-1.485-.576-2.052 0l-7.089 7.2h-4.376l5.037-5.116c.567-.576.567-1.51 0-2.084-.566-.576-1.485-.576-2.051 0l-7.09 7.2h-4.375l5.037-5.116c.566-.576.566-1.51 0-2.084-.567-.576-1.485-.576-2.052 0l-7.09 7.2h-4.375l5.037-5.116c.567-.576.567-1.51 0-2.084-.566-.576-1.485-.576-2.052 0l-7.089 7.2H1.451c-.801 0-1.451.66-1.451 1.473 0 .814.65 1.474 1.45 1.474zm64.1 8.842H1.45c-.8 0-1.45.66-1.45 1.474 0 .813.65 1.473 1.45 1.473h6.453l7.09 7.2c.566.576 1.485.576 2.051 0 .567-.575.567-1.508 0-2.084l-5.037-5.116h4.376l7.089 7.2c.567.576 1.485.576 2.052 0 .566-.575.566-1.508 0-2.084l-5.037-5.116h4.376l7.088 7.2c.567.576 1.486.576 2.052 0 .567-.575.567-1.508 0-2.084l-5.037-5.116h4.376l7.089 7.2c.567.576 1.485.576 2.052 0 .566-.575.566-1.508 0-2.084l-5.037-5.116h4.376l7.089 7.2c.566.576 1.485.576 2.052 0 .566-.575.566-1.508 0-2.084l-5.037-5.116h4.376l7.089 7.2c.566.576 1.485.576 2.051 0 .567-.575.567-1.508 0-2.084l-5.037-5.116H65.55c.801 0 1.451-.66 1.451-1.473 0-.814-.65-1.474-1.45-1.474z" transform="translate(45 70)"/>
                            <path fill="#5E6B75" fill-rule="nonzero" d="M58.093 30c.73 1.224 1.151 2.658 1.151 4.19v13.76c0 4.477-3.594 8.12-8.013 8.12H1C2.405 58.424 4.955 60 7.861 60h51.126C63.405 60 67 56.357 67 51.88V38.12c0-4.477-3.594-8.12-8.013-8.12h-.894z" transform="translate(45 70)"/>
                            <path fill="#4D5961" fill-rule="nonzero" d="M59.755 30.46c-.205-.386-.49-.529-.755-.43.286.899.488 1.901.585 2.97l.17-.32c.327-.613.327-1.607 0-2.22zM65.688 43H60v3h5.688c.724 0 1.312-.672 1.312-1.5s-.588-1.5-1.313-1.5zM65.393 49h-7.11c-.215 1.09-.658 2.104-1.283 3h8.393C66.28 52 67 51.328 67 50.5s-.72-1.5-1.607-1.5zM65.688 38H60v3h5.688c.724 0 1.312-.672 1.312-1.5s-.588-1.5-1.313-1.5z" transform="translate(45 70)"/>
                        </g>
                    </g>
                    <circle cx="24.5" cy="18.5" r="9.5" fill="#FABE2C" fill-rule="nonzero" mask="url(#s7mdyar33b)" opacity=".741"/>
                </g>
            </g>
        </g>
    </g>
</svg>
