<svg xmlns="http://www.w3.org/2000/svg" xmlns:xlink="http://www.w3.org/1999/xlink" width="120" height="120" viewBox="0 0 120 120">
    <defs>
        <circle id="u4ap1bu68a" cx="60" cy="60" r="60"/>
    </defs>
    <g fill="none" fill-rule="evenodd">
        <g>
            <g>
                <g transform="translate(-120 -34) translate(0 34) translate(120)">
                    <mask id="uwc28ex17b" fill="#fff">
                        <use xlink:href="#u4ap1bu68a"/>
                    </mask>
                    <use fill="#F8F8F8" xlink:href="#u4ap1bu68a"/>
                    <g mask="url(#uwc28ex17b)">
                        <g>
                            <path fill="#89C5CC" d="M29.896.577C29.74.409 29.37.35 29.198.299 28.482.091 27.745 0 27.015 0c-2.25.005-4.536.332-6.749.897-1.404.359-3.103 1.566-4.5.91C13.33.665 10.87.721 8.56 2.352 6.45 3.844 4.846 6.676 3.911 9.737c-.141.462-.714 2.163-.876 3.31-.07.234-.136.47-.196.71-.17.68-.323 1.371-.465 2.065-.06.296-.213.949-.032 1.075-.29.79-.546 1.604-.76 2.444-.621 2.444-1.3 5.125-1.519 7.715-.08.96-.084 1.924-.009 2.885.037.475.022 1.43.24 1.792.462.766.7-.307.647-.818-.398-3.895.37-7.552 1.281-11.213.589-2.367 1.556-4.533 2.64-6.494.877-1.588 1.818-2.838 3.02-3.89 1.47-1.288 3.043-2.329 4.6-3.373C13.507 5.26 14.532 4.59 15.585 4c.234-.132.603-.47.862-.471.55-.003 1.327.596 1.858.819 1.744.733 3.51 1.672 5.313 2.046 1.156.24 2.24-.03 3.32-.6.111-.057.297-.207.524-.42.802-.457 1.562-1.032 2.223-1.861.381-.478.727-1.095 1.042-1.66.094-.17.136-.363.137-.547.072-.055.12-.12.13-.195.079-.556-.639-.566-1.098-.533" transform="translate(69 14) matrix(-1 0 0 1 31 0)"/>
                            <path fill="#89C5CC" d="M43.359 42.397c-.09-.116-.305-.157-.405-.191-.416-.144-.844-.206-1.268-.206-1.306.003-2.634.228-3.918.617-.816.246-1.802 1.076-2.614.625-1.413-.785-2.842-.746-4.183.375-1.226 1.025-2.157 2.973-2.7 5.077-.082.318-.415 1.487-.509 2.275-.04.161-.079.324-.113.488-.1.468-.188.944-.27 1.42-.036.204-.124.653-.02.74-.167.543-.316 1.102-.44 1.68-.361 1.68-.756 3.523-.882 5.304-.047.66-.05 1.323-.006 1.984.022.326.013.983.14 1.231.268.527.406-.21.375-.562-.23-2.677.216-5.192.744-7.709.342-1.627.904-3.116 1.533-4.465.51-1.091 1.056-1.95 1.754-2.675.854-.884 1.766-1.6 2.67-2.318.596-.472 1.191-.931 1.802-1.338.136-.09.35-.323.501-.324.319-.002.77.41 1.078.564 1.013.504 2.039 1.149 3.086 1.406.671.166 1.3-.02 1.928-.412.064-.04.172-.143.303-.29.467-.313.908-.709 1.291-1.279.222-.328.422-.752.605-1.14.055-.117.08-.25.08-.377.042-.038.07-.082.076-.134.045-.382-.371-.39-.638-.366" transform="translate(69 14)"/>
                            <path fill="#89C5CC" d="M27.359 27.379c-.09-.11-.305-.15-.405-.182-.416-.137-.844-.197-1.268-.197-1.306.003-2.634.218-3.918.588-.816.236-1.802 1.028-2.614.598-1.413-.75-2.842-.713-4.183.357-1.226.98-2.157 2.838-2.7 4.847-.082.303-.415 1.42-.509 2.172-.04.153-.079.308-.113.466-.1.446-.188.9-.27 1.355-.036.194-.124.623-.02.706-.167.518-.316 1.052-.44 1.604-.361 1.603-.756 3.363-.882 5.063-.047.63-.05 1.262-.006 1.893.022.312.013.938.14 1.175.268.503.406-.2.375-.536-.23-2.556.216-4.956.744-7.358.342-1.554.904-2.975 1.533-4.263.51-1.041 1.056-1.862 1.754-2.553.854-.844 1.766-1.527 2.67-2.212.596-.451 1.191-.89 1.802-1.278.136-.086.35-.308.501-.309.319-.002.77.391 1.078.538 1.013.48 2.039 1.097 3.086 1.343.671.157 1.3-.02 1.928-.394.064-.038.172-.136.303-.276.467-.3.908-.677 1.291-1.221.222-.314.422-.719.605-1.09.055-.11.08-.238.08-.358.042-.037.07-.079.076-.128.045-.365-.371-.372-.638-.35" transform="translate(69 14) matrix(-1 0 0 1 38 0)"/>
                            <path fill="#69A1AC" d="M49.348 2.014c-5.37.107-10.643 3.838-14.075 9.8-2.922 5.075-3.725 11.385-4.302 17.764-.057.633-.082 1.263-.114 1.897-.007.136-.018.258-.029.372-.227.298-.346.645-.211 1.027-.5 1.606-.923 3.252-1.286 4.95-1.069 5-3.9 20.92-3.23 26.176.157-2.893 2.23-16.676 2.623-19.522.023-.163.047-.325.072-.486l.008-.051c.14-.872.32-1.717.54-2.549l.007-.027.09-.327c.064-.226.129-.45.197-.675.024-.076.046-.153.067-.23.32-1.153.456-2.452.743-3.645.07-.271.14-.542.216-.81l.014-.048c.203-.723.428-1.437.665-2.144.13-.143.198-.496.31-.817.023-.063.203-.485.256-.728l.42-1.191-.012.007c.14-.381.282-.76.423-1.138l.093-.249.15-.397c.471-1.235.97-2.446 1.488-3.641.185-.427.626-1.039.711-1.518l.006-.051c1.124-2.317 2.418-4.454 3.97-6.147-.188.298-.587 1.308-.692 1.507-.323.613-.673 1.182-1.025 1.76-.63 1.032-1.244 2.098-1.79 3.225-.999 2.062-1.86 4.23-2.675 6.444l-.023.038c-.41.741-.667 1.86-.962 2.707 1.166-.792 2.456-1.309 3.653-2.013 1.193-.701 2.354-1.483 3.475-2.4 1.49-1.22 3.035-2.596 4.443-4.155 1.613-1.468 2.968-3.49 4.165-5.61 1.416-2.51 2.713-5.041 3.515-8.088.395-1.497.705-3.059.888-4.638l.03-.221c.188-.546.356-1.104.497-1.674.224-.905.754-1.9-.239-2.219-.983-.315-2.068-.291-3.07-.265z" transform="translate(69 14)"/>
                        </g>
                    </g>
                    <path fill="#B28B67" fill-rule="nonzero" d="M117.232 123.863c-2.035 3.615-5.728 5.725-9.798 5.725L65.749 57.296l7.974-4.61c3.995 0 8.41-.851 10.37 2.463l33.064 57.34c2.11 3.54 2.11 7.833.075 11.374z" mask="url(#uwc28ex17b)" transform="rotate(-60 92.249 91.088)"/>
                    <g mask="url(#uwc28ex17b)">
                        <g fill-rule="nonzero">
                            <path fill="#000" d="M109.651 12.705H2.427c-1.34 0-2.427-.49-2.427-1.095s1.087-1.096 2.427-1.096h107.224c1.34 0 2.427.49 2.427 1.096 0 .604-1.087 1.095-2.427 1.095zM109.65 17.086H26.274c-1.341 0-2.429-.49-2.429-1.096 0-.604 1.088-1.095 2.43-1.095h83.373c1.342 0 2.43.49 2.43 1.095s-1.088 1.096-2.43 1.096zM109.651 8.105H2.427C1.087 8.105 0 7.615 0 7.01s1.087-1.096 2.427-1.096h107.224c1.34 0 2.427.49 2.427 1.096 0 .604-1.087 1.095-2.427 1.095z" transform="translate(-8 74)"/>
                            <path fill="#ADB6BE" d="M0 6.385C0 2.985 6 .22 13.374.22h85.33c7.375 0 13.374 2.766 13.374 6.166v10.449c0 3.4-6 6.166-13.374 6.166h-85.33C5.999 23 0 20.234 0 16.834V6.385z" transform="translate(-8 74)"/>
                            <path fill="#828E98" d="M112.078 11.61c0 .618-1.087 1.119-2.427 1.119H2.427c-1.34 0-2.427-.501-2.427-1.12 0-.617 1.087-1.119 2.427-1.119h107.224c1.34 0 2.427.502 2.427 1.12zM2.428 8.252H109.65c1.34 0 2.427-.5 2.427-1.119 0-.618-1.087-1.119-2.427-1.119H91.01l8.426-3.885c.948-.437.948-1.145 0-1.582-.948-.437-2.485-.437-3.432 0l-11.86 5.467h-7.32l8.427-3.885c.948-.437.948-1.145 0-1.582-.948-.437-2.485-.437-3.432 0L69.96 6.014h-7.32l8.426-3.885c.948-.437.948-1.145 0-1.582-.948-.437-2.484-.437-3.432 0L55.775 6.014h-7.32l8.427-3.885c.947-.437.947-1.145 0-1.582-.948-.437-2.485-.437-3.433 0L41.591 6.014h-7.32l8.426-3.885c.948-.437.948-1.145 0-1.582-.948-.437-2.484-.437-3.432 0l-11.86 5.467h-7.32l8.426-3.885c.948-.437.948-1.145 0-1.582-.947-.437-2.484-.437-3.432 0L13.22 6.014H2.427C1.087 6.014 0 6.515 0 7.134c0 .618 1.086 1.118 2.427 1.118zm107.223 6.715H2.427c-1.34 0-2.427.5-2.427 1.119 0 .618 1.087 1.119 2.427 1.119H13.22l11.86 5.467c.947.437 2.484.437 3.431 0 .948-.437.948-1.145 0-1.582l-8.426-3.885h7.32l11.859 5.467c.948.437 2.485.437 3.432 0 .948-.437.948-1.145 0-1.582l-8.426-3.885h7.32l11.859 5.467c.948.437 2.484.437 3.432 0s.948-1.145 0-1.582l-8.426-3.885h7.32l11.858 5.467c.948.437 2.485.437 3.433 0 .947-.437.947-1.145 0-1.582l-8.427-3.885h7.32l11.859 5.467c.948.437 2.485.437 3.432 0 .948-.437.948-1.145 0-1.582l-8.426-3.885h7.32l11.859 5.467c.948.437 2.485.437 3.432 0 .948-.437.948-1.145 0-1.582l-8.426-3.885h18.642c1.34 0 2.427-.501 2.427-1.12 0-.617-1.087-1.118-2.427-1.118z" transform="translate(-8 74)"/>
                            <g fill="#4D5961">
                                <path d="M34.293 22.62c.95.438 2.488.438 3.437 0 .95-.437.95-1.146 0-1.583l-2.332-1.075h-6.874l5.77 2.659zM80.342.474c-.597-.276-1.428-.377-2.199-.306.833.64 1.42 1.356 1.704 2.118l.495-.228c.949-.437.949-1.147 0-1.584zM75.044 18.595c-1.316.489-2.835.866-4.49 1.099l6.35 2.927c.95.437 2.489.437 3.437 0 .95-.438.95-1.147 0-1.584l-5.297-2.442zM90.57 10.427H80.04v2.24h10.53c1.343 0 2.431-.501 2.431-1.12 0-.618-1.088-1.12-2.43-1.12zM90.57 14.908H79.82c-.325.813-.996 1.571-1.94 2.24H90.57c1.342 0 2.43-.502 2.43-1.12 0-.619-1.088-1.12-2.43-1.12zM90.57 5.947H80.04v2.24h10.53c1.343 0 2.431-.502 2.431-1.12 0-.619-1.088-1.12-2.43-1.12zM5.886 22.62c.949.438 2.488.438 3.436 0 .95-.437.95-1.146 0-1.583l-2.331-1.075H.117l5.769 2.659zM20.09 22.62c.949.438 2.488.438 3.436 0 .95-.437.95-1.146 0-1.583l-2.331-1.075H14.32l5.769 2.659z" transform="translate(-8 74) translate(19.077)"/>
                            </g>
                        </g>
                    </g>
                    <path fill="#C5CFD6" fill-rule="nonzero" d="M120.357 107.992l-15.713-25.116C102.746 79.84 99.162 78 95.263 78h-4.217c-4.638 0-8.748 2.3-10.013 5.796C78.187 91.34 70.071 96.4 61.006 96.4c-9.065 0-17.18-5.06-20.027-12.604C39.714 80.3 35.604 78 30.966 78h-4.005c-3.9 0-7.378 1.84-9.276 4.784L1.643 107.992C-.255 111.12 2.275 124 6.28 124h109.44c4.005 0 6.535-12.88 4.637-16.008z" mask="url(#uwc28ex17b)"/>
                    <path fill="#C5CFD6" fill-rule="nonzero" d="M115.72 127H61V96.432c9.066 0 17.183-7.932 20.03-16.132 1.264-3.8 5.375-6.3 10.013-6.3h4.217c3.9 0 7.485 2 9.382 5.3l15.715 27.3c1.898 3.4-.632 20.4-4.638 20.4z" mask="url(#uwc28ex17b)"/>
                    <g fill-rule="nonzero" mask="url(#uwc28ex17b)">
                        <g>
                            <path fill="#FFA12E" d="M21.85 17.457l-7.667 7.429C13.493 25.629 12.497 26 11.5 26c-.997 0-1.993-.371-2.683-1.115L1.15 17.457c-1.533-1.412-1.533-3.789 0-5.2 1.457-1.486 3.91-1.486 5.366 0l1.15 1.04V3.714C7.667 1.634 9.354 0 11.5 0c2.147 0 3.834 1.634 3.834 3.714v9.583l1.15-1.04c1.456-1.485 3.91-1.485 5.366 0 1.533 1.411 1.533 3.788 0 5.2z" transform="matrix(-1 0 0 1 69 40)"/>
                            <path fill="#FABE2C" d="M21.8 17.457l-8 7.429C13.08 25.629 12.04 26 11 26V0c2.24 0 4 1.634 4 3.714v9.583l1.2-1.04c1.52-1.485 4.08-1.485 5.6 0 1.6 1.411 1.6 3.788 0 5.2z" transform="matrix(-1 0 0 1 69 40)"/>
                        </g>
                    </g>
                    <ellipse cx="110" cy="38.5" fill="#5C66CB" fill-opacity=".22" fill-rule="nonzero" mask="url(#uwc28ex17b)" opacity=".741" rx="26" ry="26.5"/>
                </g>
            </g>
        </g>
    </g>
</svg>
