<svg xmlns="http://www.w3.org/2000/svg" xmlns:xlink="http://www.w3.org/1999/xlink" width="120" height="120" viewBox="0 0 120 120">
    <defs>
        <circle id="y6hu4nsq3a" cx="60" cy="60" r="60"/>
    </defs>
    <g fill="none" fill-rule="evenodd">
        <g>
            <g transform="translate(-1130 -1506) translate(1130 1506)">
                <mask id="h4i2rlp9lb" fill="#fff">
                    <use xlink:href="#y6hu4nsq3a"/>
                </mask>
                <use fill="#F8F8F8" xlink:href="#y6hu4nsq3a"/>
                <circle cx="85" cy="7" r="16" fill="#5C63AB" fill-rule="nonzero" stroke="#979797" mask="url(#h4i2rlp9lb)" opacity=".1"/>
                <g mask="url(#h4i2rlp9lb)">
                    <g fill-rule="nonzero">
                        <path fill="#858384" d="M34.5 0C31.463 0 29 2.487 29 5.554V11h11V5.554C40 2.487 37.537 0 34.5 0z" transform="translate(6 33)"/>
                        <path fill="#69A1AC" d="M63.048 11H5.952C2.665 11 0 13.579 0 16.76v65.48C0 85.421 2.665 88 5.952 88h57.096C66.335 88 69 85.421 69 82.24V16.76c0-3.181-2.665-5.76-5.952-5.76z" transform="translate(6 33)"/>
                        <path fill="#558B96" d="M9 11.994v8.972C9 25.947 13.092 30 18.123 30h31.754C54.907 30 59 25.947 59 20.966v-8.972c0-.336-.02-.668-.056-.994H9.056c-.036.326-.056.658-.056.994z" transform="translate(6 33)"/>
                        <path fill="#F7F0DF" d="M58.214 19H10.786C8.695 19 7 20.596 7 22.565v54.87C7 79.404 8.695 81 10.786 81h47.428C60.305 81 62 79.404 62 77.435v-54.87C62 20.596 60.305 19 58.214 19z" transform="translate(6 33)"/>
                        <path fill="#808B95" d="M54.335 34.982H32.69c-.833 0-1.509-.643-1.509-1.435 0-.793.676-1.435 1.509-1.435h21.645c.833 0 1.509.642 1.509 1.435 0 .792-.675 1.435-1.509 1.435zM54.335 46.824H32.69c-.833 0-1.509-.642-1.509-1.435s.676-1.435 1.509-1.435h21.645c.833 0 1.509.642 1.509 1.435s-.675 1.435-1.509 1.435zM54.335 57.824H32.69c-.833 0-1.509-.642-1.509-1.435s.676-1.435 1.509-1.435h21.645c.833 0 1.509.642 1.509 1.435s-.675 1.435-1.509 1.435z" transform="translate(6 33)"/>
                        <path fill="#808B95" stroke="#808B95" d="M18.047 38c-.229 0-.458-.092-.6-.276l-3.203-3.523c-.344-.367-.315-.95.028-1.287.343-.367.887-.337 1.201.031l2.603 2.88 5.49-5.576c.344-.337.887-.337 1.202.03.314.368.314.95-.03 1.287l-6.09 6.189c-.172.153-.4.245-.601.245zM18.047 49c-.229 0-.458-.092-.6-.276l-3.203-3.523c-.344-.367-.315-.95.028-1.287.343-.367.887-.337 1.201.031l2.603 2.88 5.49-5.576c.344-.337.887-.337 1.202.03.314.368.314.95-.03 1.287l-6.09 6.189c-.172.153-.4.245-.601.245zM18.047 61c-.229 0-.458-.092-.6-.276l-3.203-3.523c-.344-.367-.315-.95.028-1.287.343-.367.887-.337 1.201.031l2.603 2.88 5.49-5.576c.344-.337.887-.337 1.202.03.314.368.314.95-.03 1.287l-6.09 6.189c-.172.153-.4.245-.601.245z" transform="translate(6 33)"/>
                        <path fill="#9E9C9D" d="M50.054 8H18.946C16.766 8 15 9.58 15 11.53v7.94c0 1.95 1.767 3.53 3.946 3.53h31.108C52.234 23 54 21.42 54 19.47v-7.94C54 9.58 52.233 8 50.054 8z" transform="translate(6 33)"/>
                        <path fill="#FABE2C" d="M64.5 39c-1.065 0-2.044.512-2.625 1.415l-.093.154L44.405 71.27c-1.15 2.033.29 4.622 2.574 4.727l.144.003h34.754c2.32 0 3.83-2.547 2.787-4.602l-.069-.128-17.377-30.7c-.566-1-1.594-1.57-2.718-1.57z" transform="translate(6 33)"/>
                        <g fill="#2F3676" stroke="#2F3676">
                            <path d="M7.144 8H-5.143C-5.617 8-6 7.552-6 7s.383-1 .857-1H7.143C7.617 6 8 6.448 8 7s-.383 1-.856 1z" transform="translate(6 33) translate(64 49) rotate(90 1 7)"/>
                            <path d="M2.816 20H.184C.082 20 0 19.552 0 19s.082-1 .184-1h2.632c.102 0 .184.448.184 1s-.082 1-.184 1z" transform="translate(6 33) translate(64 49) rotate(90 1.5 19)"/>
                        </g>
                    </g>
                </g>
            </g>
        </g>
    </g>
</svg>
