<svg xmlns="http://www.w3.org/2000/svg" xmlns:xlink="http://www.w3.org/1999/xlink" width="120" height="120" viewBox="0 0 120 120">
    <defs>
        <circle id="t983jqjmpa" cx="60" cy="60" r="60"/>
    </defs>
    <g fill="none" fill-rule="evenodd">
        <g>
            <g transform="translate(-730 -1506) translate(730 1506)">
                <mask id="2djy3mrf4b" fill="#fff">
                    <use xlink:href="#t983jqjmpa"/>
                </mask>
                <use fill="#F8F8F8" xlink:href="#t983jqjmpa"/>
                <g mask="url(#2djy3mrf4b)">
                    <g fill-rule="nonzero">
                        <g>
                            <path fill="#C1DEE2" d="M36.545 1.104c-1.485-1.472-4.083-1.472-5.568 0C27.635 4.785.162 37.914.162 54.848c0 18.405 14.85 33.13 33.413 33.13 18.563 0 33.413-14.725 33.413-33.13 0-16.933-27.472-50.063-30.443-53.744z" transform="translate(11 31)"/>
                            <path fill="#9FCBD1" d="M62.905 40.492c-5.57 1.472-6.312 6.993-13.366 6.993-8.167 0-8.167-7.362-15.963-7.362-7.797 0-8.168 7.362-15.965 7.362-7.053 0-7.796-5.521-13.365-6.993C2.02 44.909.534 49.694.162 54.848c0 1.104 0 2.576.372 3.68h1.113c8.168 0 8.168 7.363 15.964 7.363 7.797 0 8.168-7.362 15.964-7.362 7.797 0 8.168 7.362 15.964 7.362 7.796 0 8.168-7.362 15.964-7.362h1.114c0-1.105.371-2.577.371-3.681-.37-5.154-1.856-9.94-4.083-14.356z" transform="translate(11 31)"/>
                            <path fill="#69A1AC" d="M49.54 65.89c-8.168 0-8.168-7.361-15.964-7.361-7.797 0-8.168 7.362-15.965 7.362-7.796 0-8.167-7.362-15.963-7.362H.534c2.227 18.037 18.563 31.288 37.125 29.08 15.593-1.84 27.473-13.988 29.33-29.08h-1.114c-8.168 0-8.168 7.362-16.336 7.362z" transform="translate(11 31)"/>
                        </g>
                        <path fill="#2F3676" d="M21.118 24.095l3.715-.808c1.556-.315 1.556-2.259 0-2.574l-3.575-.808c-3.247-.659-5.505-2.776-6.163-6.023l-.808-3.715c-.316-1.556-2.259-1.556-2.574 0l-.808 3.715c-.659 3.247-2.636 5.365-5.883 6.023l-3.855.808c-1.556.315-1.556 2.259 0 2.574l3.855.808c3.247.659 5.225 2.776 5.883 6.023l.808 3.715c.316 1.556 2.259 1.556 2.574 0l.808-3.715c.659-3.247 2.776-5.365 6.023-6.023z" transform="translate(11 31)"/>
                        <g transform="translate(11 31) translate(44 38)">
                            <circle cx="20.5" cy="20.5" r="20.5" fill="#AAB6BF"/>
                            <g fill="#FFF">
                                <path d="M8.669 15.823c-.484 0-.968-.181-1.27-.544L.627 8.325C-.1 7.6-.038 6.451.687 5.785c.726-.725 1.875-.665 2.54.061l5.502 5.684L20.34.525c.725-.665 1.874-.665 2.54.06.664.726.664 1.875-.061 2.54L9.938 15.339c-.363.303-.846.484-1.27.484z" transform="translate(8.786 12.576)"/>
                            </g>
                        </g>
                    </g>
                </g>
                <g mask="url(#2djy3mrf4b)" opacity=".4">
                    <g fill-rule="nonzero">
                        <path fill="#D3D3D8" d="M53.061 37.888h-29.45c-.98 0-1.775-1.39-1.775-3.106 0-1.715.794-3.105 1.774-3.105h29.451c.98 0 1.775 1.39 1.775 3.105s-.795 3.106-1.775 3.106z" opacity=".528" transform="translate(90 73)"/>
                        <path fill="#C2C2C6" d="M29.623 23.385H12.378c-1.314 0-2.378-1.39-2.378-3.106 0-1.715 1.064-3.105 2.378-3.105h17.244c1.314 0 2.378 1.39 2.378 3.105 0 1.716-1.064 3.106-2.377 3.106zM34.722 6.211h-11.18C22.69 6.211 22 4.821 22 3.106 22 1.39 22.69 0 23.541 0h11.18c.852 0 1.542 1.39 1.542 3.106 0 1.715-.69 3.105-1.541 3.105z" opacity=".956" transform="translate(90 73)"/>
                        <path fill="#D3D3D8" d="M12.722 6.211H1.542C.69 6.211 0 4.821 0 3.106 0 1.39.69 0 1.541 0h11.18c.852 0 1.542 1.39 1.542 3.106 0 1.715-.69 3.105-1.541 3.105z" opacity=".723" transform="translate(90 73)"/>
                    </g>
                </g>
            </g>
        </g>
    </g>
</svg>
