<?xml version="1.0" encoding="UTF-8"?>
<svg width="80px" height="80px" viewBox="0 0 80 80" version="1.1" xmlns="http://www.w3.org/2000/svg" xmlns:xlink="http://www.w3.org/1999/xlink">
    <title>scooter-both</title>
    <defs>
        <rect id="path-1" x="0" y="0" width="80" height="80"></rect>
        <polygon id="path-3" points="0.206814315 0.0562942401 4.9549654 0.0562942401 4.9549654 4.80467989 0.206814315 4.80467989"></polygon>
    </defs>
    <g id="Desktop" stroke="none" stroke-width="1" fill="none" fill-rule="evenodd">
        <g id="scooter-both">
            <mask id="mask-2" fill="white">
                <use xlink:href="#path-1"></use>
            </mask>
            <g id="Mask"></g>
            <g id="both-copy" mask="url(#mask-2)">
                <g transform="translate(4.000000, 17.000000)">
                    <path d="M1.78011736,34.4776438 L2.82852505,35.0423919 C1.99779449,36.5845737 1.55672132,38.3109793 1.55672132,40.1019391 C1.55672132,46.0013674 6.33924906,50.783797 12.2389142,50.783797 C15.7711125,50.783797 19.0101959,49.0567251 20.9952248,46.2215002 L21.0967754,46.0738656 L22.083474,46.7405926 C19.8893463,49.9877131 16.2317923,51.9746367 12.2389142,51.9746367 C5.68157193,51.9746367 0.36588163,46.6590555 0.36588163,40.1019391 C0.36588163,38.1890799 0.819473678,36.3401026 1.67546959,34.676392 L1.78011736,34.4776438 Z" id="Stroke-1" stroke="#FFCB06" stroke-width="2" fill="#FFCB06" fill-rule="nonzero"></path>
                    <path d="M71.0338095,34.4775581 C71.9577236,36.1920565 72.4484265,38.1123661 72.4484265,40.1019391 C72.4484265,46.6589425 67.1325141,51.9746367 60.5753939,51.9746367 C56.6455578,51.9746367 53.0407857,50.0502725 50.8363761,46.8942251 L50.7308085,46.7405548 L51.7175583,46.0739034 C53.6921811,48.9966586 56.9819679,50.783797 60.5753939,50.783797 C66.4748424,50.783797 71.2575868,46.0012489 71.2575868,40.1019391 C71.2575868,38.3854595 70.8524379,36.7284355 70.0873286,35.2361769 L69.9854941,35.0424775 L71.0338095,34.4775581 Z" id="Stroke-3" stroke="#FFCB06" stroke-width="2" fill="#FFCB06" fill-rule="nonzero"></path>
                    <polygon id="Fill-5" stroke="none" fill="#BEBDC0" fill-rule="evenodd" points="43.7384233 9.17549202 40.1774775 2.05360048 42.3009097 0.991716863 45.8618555 8.11394349"></polygon>
                    <path d="M60.8261043,43.0696173 C59.1868696,43.0696173 57.8585936,41.7410062 57.8585936,40.1021067 C57.8585936,38.462872 59.1868696,37.1342609 60.8261043,37.1342609 C62.465339,37.1342609 63.7936149,38.462872 63.7936149,40.1021067 C63.7936149,41.7410062 62.465339,43.0696173 60.8261043,43.0696173" id="Fill-7" stroke="none" fill="#B9B7BD" fill-rule="evenodd"></path>
                    <path d="M60.8261043,45.4436929 C57.875683,45.4436929 55.484183,43.0521929 55.484183,40.1021067 C55.484183,37.1516853 57.875683,34.7601854 60.8261043,34.7601854 C63.7761905,34.7601854 66.1676905,37.1516853 66.1676905,40.1021067 C66.1676905,43.0518578 63.7761905,45.4436929 60.8261043,45.4436929 M60.8261043,31.1989045 C55.9090705,31.1989045 51.9229022,35.1850729 51.9229022,40.1021067 C51.9229022,45.0188054 55.9090705,49.0049737 60.8261043,49.0049737 C65.7431381,49.0049737 69.7289713,45.0188054 69.7289713,40.1021067 C69.7289713,35.1850729 65.7431381,31.1989045 60.8261043,31.1989045" id="Fill-9" stroke="none" fill="#514B5B" fill-rule="evenodd"></path>
                    <path d="M60.7901162,41.2147221 C60.3866741,41.2147221 59.9936197,41.0096502 59.7711234,40.6390465 L53.9319364,30.919913 C53.594506,30.3579758 53.776457,29.6288314 54.3387293,29.2907308 C54.9013366,28.9522952 55.630481,29.1365919 55.9675763,29.6968536 L61.8067634,39.4159871 C62.1441937,39.9785944 61.9622427,40.7074038 61.3999705,41.0455043 C61.2086371,41.1604384 60.9975337,41.2147221 60.7901162,41.2147221" id="Fill-11" stroke="none" fill="#DCDBDE" fill-rule="evenodd"></path>
                    <path d="M52.8626139,34.0923615 L64.0011665,34.0923615 C64.4491748,34.0923615 64.8589834,33.8380321 65.0573536,33.4359304 L65.6725692,32.1887449 C65.9969313,31.5316437 65.8330748,30.7475454 65.2818604,30.2646882 C63.9810614,29.1243948 61.0772168,27.2499306 55.483982,26.4507534 L52.8626139,34.0923615 Z" id="Fill-13" stroke="none" fill="#56A2AD" fill-rule="evenodd"></path>
                    <path d="M12.1563829,45.4436929 C9.20596153,45.4436929 6.81446158,43.0521929 6.81446158,40.1021067 C6.81446158,37.1516853 9.20596153,34.7601854 12.1563829,34.7601854 C15.1064691,34.7601854 17.4979691,37.1516853 17.4979691,40.1021067 C17.4979691,43.0518578 15.1064691,45.4436929 12.1563829,45.4436929 M12.1563829,31.1989045 C7.23934906,31.1989045 3.25351581,35.1850729 3.25351581,40.1021067 C3.25351581,45.0188054 7.23934906,49.0049737 12.1563829,49.0049737 C17.0734167,49.0049737 21.0592499,45.0188054 21.0592499,40.1021067 C21.0592499,35.1850729 17.0734167,31.1989045 12.1563829,31.1989045" id="Fill-15" stroke="none" fill="#514B5B" fill-rule="evenodd"></path>
                    <path d="M24.0269951,43.0696173 L12.1562823,43.0696173 C10.5173828,43.0696173 9.18877169,41.7410062 9.18877169,40.1021067 C9.18877169,38.462872 10.5173828,37.1342609 12.1562823,37.1342609 L24.0269951,37.1342609 C25.6662298,37.1342609 26.9945058,38.462872 26.9945058,40.1021067 C26.9945058,41.7410062 25.6662298,43.0696173 24.0269951,43.0696173" id="Fill-17" stroke="none" fill="#DCDBDE" fill-rule="evenodd"></path>
                    <path d="M44.800642,39.50837 L46.8543765,28.214003 C47.065815,27.051929 47.0269452,25.858022 46.7401126,24.7120321 L43.6134367,11.0191284 L47.1747176,11.0191284 L53.110074,26.450787 L49.5487931,39.50837 L44.800642,39.50837 Z" id="Fill-19" stroke="none" fill="#56A2AD" fill-rule="evenodd"></path>
                    <path d="M52.0088849,39.1240278 L57.0438685,28.2153433 C57.551522,27.1155951 57.4650701,25.8328907 56.8150057,24.8112172 L50.040597,14.1655743 C49.7611363,13.7266133 49.1955132,13.5697936 48.7297454,13.8026775 L48.7284051,13.8030126 C47.8303779,14.2520262 47.3853853,15.2820767 47.6735582,16.2441051 L49.6297831,22.7641844 C50.3559118,25.1848367 50.4765423,27.7465597 49.9809519,30.2248466 L48.7431488,36.4128569 C48.5216578,37.5226577 47.5472313,38.3211647 46.41565,38.3211647 L34.1166989,38.3211647 L36.4907745,25.2635816 L34.1166989,21.7026359 L18.6850403,20.5154306 L9.61429583,21.5233655 C8.69616358,21.6252313 8.00119778,22.4016227 8.00119778,23.3254514 C8.00119778,23.806298 8.19219609,24.2677097 8.53230713,24.6074857 L10.3756084,26.450787 C10.3756084,26.450787 0.878971151,28.8248625 0.878971151,34.7602189 L0.878971151,35.9474242 C0.878971151,36.60285 1.41041558,37.1346295 2.06584138,37.1346295 L20.0756421,37.1346295 C20.7052664,37.1346295 21.3094242,37.3846028 21.7544168,37.8299304 L25.1119661,41.1871446 C25.5572937,41.6324723 26.1607814,41.8824455 26.7907408,41.8824455 L47.6976843,41.8824455 C49.5500329,41.8824455 51.2331637,40.8058182 52.0088849,39.1240278" id="Fill-21" stroke="none" fill="#76C6CD" fill-rule="evenodd"></path>
                    <path d="M36.4912436,25.2636822 L34.117168,21.7024013 L18.6851744,20.515196 L9.61442986,21.523131 C8.69629761,21.6249967 8.0016669,22.4013881 8.0016669,23.3252168 C8.0016669,23.8060634 8.19266521,24.2674752 8.53244116,24.6075862 L10.3754074,26.4505524 L36.2747788,26.4505524 L36.4912436,25.2636822 Z" id="Fill-23" stroke="none" fill="#56A2AD" fill-rule="evenodd"></path>
                    <path d="M50.7359314,12.2058311 L44.800575,12.2058311 C43.4893883,12.2058311 42.4264995,11.1429422 42.4264995,9.83175553 C42.4264995,8.52023377 43.4893883,7.45767998 44.800575,7.45767998 L50.7359314,7.45767998 L50.7359314,12.2058311 Z" id="Fill-25" stroke="none" fill="#56A2AD" fill-rule="evenodd"></path>
                    <path d="M44.800642,11.0187933 C44.4970552,11.0187933 44.1931333,10.902854 43.9612547,10.6709753 L43.1218674,9.83192307 L40.0521558,9.83192307 C39.3960599,9.83192307 38.8652856,9.30014355 38.8652856,8.64471776 C38.8652856,7.98929196 39.3960599,7.45751244 40.0521558,7.45751244 L43.1218674,7.45751244 C43.7468004,7.45751244 44.3590003,7.71083652 44.800642,8.15314841 L45.6396943,8.99253574 C46.1034516,9.45595797 46.1034516,10.2075531 45.6396943,10.6709753 C45.4078156,10.902854 45.1042288,11.0187933 44.800642,11.0187933" id="Fill-27" stroke="none" fill="#625D6B" fill-rule="evenodd"></path>
                    <path d="M50.7359314,12.2058311 L49.5487261,12.2058311 L49.5487261,7.45767998 L50.7359314,7.45767998 C51.3913572,7.45767998 51.9231367,7.98912442 51.9231367,8.6448853 L51.9231367,11.0189608 C51.9228016,11.6743866 51.3913572,12.2058311 50.7359314,12.2058311" id="Fill-29" stroke="none" fill="#BEBDC0" fill-rule="evenodd"></path>
                    <path d="M12.1563829,37.1342944 C13.7952824,37.1342944 15.1238935,38.4629055 15.1238935,40.1018051 C15.1238935,41.7410398 13.7952824,43.0696508 12.1563829,43.0696508 C10.5171482,43.0696508 9.18887221,41.7410398 9.18887221,40.1018051 C9.18887221,38.4629055 10.5171482,37.1342944 12.1563829,37.1342944" id="Fill-31" stroke="none" fill="#DCDBDE" fill-rule="evenodd"></path>
                    <path d="M16.3108978,20.8746749 L16.3108978,20.8746749 C16.3108978,21.3917107 16.5692481,21.8745679 16.9998321,22.1614004 L21.0409543,24.8554819 C22.601109,25.895585 24.4336875,26.4504854 26.3088218,26.4504854 L36.2303466,26.4504854 C36.9795961,26.4504854 37.5411982,25.765237 37.3947661,25.0307312 L37.2550358,24.3320795 C36.8110485,22.1128131 34.8621955,20.515129 32.5986979,20.515129 L26.2284015,20.515129 C25.1604864,20.515129 24.0969273,20.3844459 23.0611803,20.1254254 L21.4319982,19.7179623 C20.3962512,19.4589418 19.3326922,19.3279237 18.264777,19.3279237 L17.8576491,19.3279237 C17.0031829,19.3282587 16.3108978,20.0205439 16.3108978,20.8746749" id="Fill-33" stroke="none" fill="#625D6B" fill-rule="evenodd"></path>
                    <path d="M22.7213709,32.6234169 L26.2823166,37.371568 C26.7309951,37.9696943 27.4343381,38.3211982 28.1819122,38.3211982 L34.1172686,38.3211982 L35.8436253,28.824896 L24.6206313,28.824896 C22.6640714,28.824896 21.5472339,31.0582359 22.7213709,32.6234169" id="Fill-35" stroke="none" fill="#56A2AD" fill-rule="evenodd"></path>
                    <g id="Group-39" stroke="none" stroke-width="1" fill="none" fill-rule="evenodd" transform="translate(38.658471, 0.278791)">
                        <mask id="mask-4" fill="white">
                            <use xlink:href="#path-3"></use>
                        </mask>
                        <g id="Clip-38"></g>
                        <path d="M2.58088986,4.80467989 L1.39368454,4.80467989 C0.738258749,4.80467989 0.206814315,4.27323545 0.206814315,3.61747457 L0.206814315,1.24339903 C0.206814315,0.587973233 0.738258749,0.0561937147 1.39368454,0.0561937147 L2.58088986,0.0561937147 C3.89207653,0.0561937147 4.9549654,1.11908258 4.9549654,2.43060434 C4.9549654,3.74179102 3.89207653,4.80467989 2.58088986,4.80467989" id="Fill-37" fill="#BEBDC0" mask="url(#mask-4)"></path>
                    </g>
                </g>
            </g>
        </g>
    </g>
</svg>