<?xml version="1.0" encoding="UTF-8"?>
<svg width="183px" height="131px" viewBox="0 0 183 131" version="1.1" xmlns="http://www.w3.org/2000/svg" xmlns:xlink="http://www.w3.org/1999/xlink">
    <title>both</title>
    <defs>
        <polygon id="path-1" points="0.521012987 0.141818182 12.4827013 0.141818182 12.4827013 12.1040974 0.521012987 12.1040974"></polygon>
    </defs>
    <g id="Desktop" stroke="none" stroke-width="1" fill="none" fill-rule="evenodd">
        <g id="2-Wheeler-Tool_2.-wheeler-tyre-views_02" transform="translate(-1035.000000, -218.000000)">
            <g id="both" transform="translate(1037.000000, 218.000000)">
                <path d="M2.48452643,86.857141 L5.12570734,88.279872 C3.03290534,92.1649837 1.92174026,96.5141978 1.92174026,101.026039 C1.92174026,115.88806 13.9700313,127.936104 28.8326494,127.936104 C37.7310718,127.936104 45.8910704,123.585211 50.8918162,116.442626 L51.1476457,116.0707 L53.6333673,117.750339 C48.1058532,125.930585 38.8916307,130.936104 28.8326494,130.936104 C12.3131908,130.936104 -1.07825974,117.544928 -1.07825974,101.026039 C-1.07825974,96.2071051 0.0644433037,91.5491045 2.22089454,87.3578336 L2.48452643,86.857141 Z" id="Stroke-1" fill="#FFCB06" fill-rule="nonzero"></path>
                <path d="M176.950559,86.8569253 C179.278111,91.1761424 180.514305,96.0138454 180.514305,101.026039 C180.514305,117.544644 167.122295,130.936104 150.603396,130.936104 C140.703232,130.936104 131.621979,126.088187 126.068563,118.137375 L125.802614,117.750244 L128.288464,116.070795 C133.262995,123.43389 141.550727,127.936104 150.603396,127.936104 C165.465468,127.936104 177.514305,115.887762 177.514305,101.026039 C177.514305,96.7018306 176.493642,92.5274048 174.566155,88.7680611 L174.30961,88.2800877 L176.950559,86.8569253 Z" id="Stroke-3" fill="#FFCB06" fill-rule="nonzero"></path>
                <polygon id="Fill-5" fill="#BEBDC0" points="108.187182 23.1151818 99.2163377 5.17349351 104.565753 2.49836364 113.536597 20.4408961"></polygon>
                <path d="M151.234994,108.502305 C147.105383,108.502305 143.759149,105.155227 143.759149,101.026461 C143.759149,96.8968506 147.105383,93.5497727 151.234994,93.5497727 C155.364604,93.5497727 158.710838,96.8968506 158.710838,101.026461 C158.710838,105.155227 155.364604,108.502305 151.234994,108.502305" id="Fill-7" fill="#B9B7BD"></path>
                <path d="M151.234994,114.483149 C143.802201,114.483149 137.777461,108.458409 137.777461,101.026461 C137.777461,93.5936688 143.802201,87.5689286 151.234994,87.5689286 C158.666942,87.5689286 164.691682,93.5936688 164.691682,101.026461 C164.691682,108.457565 158.666942,114.483149 151.234994,114.483149 M151.234994,78.5972403 C138.847851,78.5972403 128.805773,88.6393182 128.805773,101.026461 C128.805773,113.41276 138.847851,123.454838 151.234994,123.454838 C163.622136,123.454838 173.66337,113.41276 173.66337,101.026461 C173.66337,88.6393182 163.622136,78.5972403 151.234994,78.5972403" id="Fill-9" fill="#514B5B"></path>
                <path d="M151.144331,103.829396 C150.127968,103.829396 149.137773,103.312773 148.577253,102.379136 L133.866994,77.8943961 C133.016929,76.4787468 133.475305,74.6418636 134.891799,73.7901104 C136.309136,72.937513 138.146019,73.4017987 138.99524,74.8132273 L153.7055,99.2979675 C154.555565,100.715305 154.097188,102.551344 152.680695,103.403097 C152.198682,103.692643 151.666864,103.829396 151.144331,103.829396" id="Fill-11" fill="#DCDBDE"></path>
                <path d="M131.173123,85.886526 L159.233708,85.886526 C160.362344,85.886526 161.394747,85.2458117 161.894487,84.2328247 L163.444357,81.0908766 C164.2615,79.435487 163.848708,77.4601623 162.460071,76.2437338 C159.183058,73.3710714 151.867604,68.6488636 137.776955,66.6355519 L131.173123,85.886526 Z" id="Fill-13" fill="#56A2AD"></path>
                <path d="M28.6247338,114.483149 C21.1919416,114.483149 15.1672013,108.458409 15.1672013,101.026461 C15.1672013,93.5936688 21.1919416,87.5689286 28.6247338,87.5689286 C36.0566818,87.5689286 42.0814221,93.5936688 42.0814221,101.026461 C42.0814221,108.457565 36.0566818,114.483149 28.6247338,114.483149 M28.6247338,78.5972403 C16.2375909,78.5972403 6.19635714,88.6393182 6.19635714,101.026461 C6.19635714,113.41276 16.2375909,123.454838 28.6247338,123.454838 C41.0118766,123.454838 51.0531104,113.41276 51.0531104,101.026461 C51.0531104,88.6393182 41.0118766,78.5972403 28.6247338,78.5972403" id="Fill-15" fill="#514B5B"></path>
                <path d="M58.5295455,108.502305 L28.6244805,108.502305 C24.4957143,108.502305 21.1486364,105.155227 21.1486364,101.026461 C21.1486364,96.8968506 24.4957143,93.5497727 28.6244805,93.5497727 L58.5295455,93.5497727 C62.6591558,93.5497727 66.0053896,96.8968506 66.0053896,101.026461 C66.0053896,105.155227 62.6591558,108.502305 58.5295455,108.502305" id="Fill-17" fill="#DCDBDE"></path>
                <path d="M110.863156,99.5307013 L116.036987,71.0775844 C116.569649,68.1500519 116.471727,65.1423247 115.74913,62.2553117 L107.872312,27.7597273 L116.844,27.7597273 L131.796532,66.6356364 L122.824844,99.5307013 L110.863156,99.5307013 Z" id="Fill-19" fill="#56A2AD"></path>
                <path d="M129.022383,98.5624545 L141.706669,71.080961 C142.985565,68.3104416 142.767773,65.079013 141.13011,62.5051818 L124.063812,35.6863506 C123.359786,34.5805065 121.934851,34.1854416 120.761474,34.7721299 L120.758097,34.772974 C118.49576,35.9041429 117.374721,38.4990779 118.100695,40.9226494 L123.028877,57.3482338 C124.858162,63.4464156 125.162058,69.899987 123.913552,76.1433636 L120.79524,91.7323896 C120.237253,94.5282338 117.782448,96.5398571 114.931734,96.5398571 L83.9478377,96.5398571 L89.9286818,63.6447922 L83.9478377,54.6739481 L45.0719286,51.6831039 L22.2206299,54.2223247 C19.9076429,54.4789481 18.1568636,56.4348571 18.1568636,58.7621948 C18.1568636,59.9735584 18.6380325,61.135961 19.4948506,61.9919351 L24.1385519,66.6356364 C24.1385519,66.6356364 0.214331169,72.6164805 0.214331169,87.569013 L0.214331169,90.5598571 C0.214331169,92.211026 1.55316234,93.5507013 3.20433117,93.5507013 L48.5751753,93.5507013 C50.1613442,93.5507013 51.6833571,94.1804416 52.8043961,95.3023247 L61.2628377,103.759922 C62.3847208,104.881805 63.9050455,105.511545 65.4920584,105.511545 L118.161474,105.511545 C122.827968,105.511545 127.068162,102.799273 129.022383,98.5624545" id="Fill-21" fill="#76C6CD"></path>
                <path d="M89.9298636,63.6450455 L83.9490195,54.6733571 L45.0722662,51.682513 L22.2209675,54.2217338 C19.9079805,54.4783571 18.1580455,56.4342662 18.1580455,58.7616039 C18.1580455,59.9729675 18.6392143,61.1353701 19.4951883,61.9921883 L24.1380455,66.6350455 L89.384539,66.6350455 L89.9298636,63.6450455 Z" id="Fill-23" fill="#56A2AD"></path>
                <path d="M125.815519,30.7493052 L110.862987,30.7493052 C107.559805,30.7493052 104.882143,28.0716429 104.882143,24.768461 C104.882143,21.4644351 107.559805,18.7876169 110.862987,18.7876169 L125.815519,18.7876169 L125.815519,30.7493052 Z" id="Fill-25" fill="#56A2AD"></path>
                <path d="M110.863156,27.7588831 C110.098351,27.7588831 109.332701,27.4668052 108.748545,26.8826494 L106.633935,24.7688831 L98.9006234,24.7688831 C97.2477662,24.7688831 95.9106234,23.4292078 95.9106234,21.778039 C95.9106234,20.1268701 97.2477662,18.7871948 98.9006234,18.7871948 L106.633935,18.7871948 C108.208286,18.7871948 109.750558,19.4253766 110.863156,20.5396623 L112.976922,22.6542727 C114.145234,23.8217403 114.145234,25.7151818 112.976922,26.8826494 C112.392766,27.4668052 111.627961,27.7588831 110.863156,27.7588831" id="Fill-27" fill="#625D6B"></path>
                <path d="M125.815519,30.7493052 L122.824675,30.7493052 L122.824675,18.7876169 L125.815519,18.7876169 C127.466688,18.7876169 128.806364,20.1264481 128.806364,21.778461 L128.806364,27.7593052 C128.805519,29.410474 127.466688,30.7493052 125.815519,30.7493052" id="Fill-29" fill="#BEBDC0"></path>
                <path d="M28.6247338,93.5498571 C32.7535,93.5498571 36.1005779,96.8969351 36.1005779,101.025701 C36.1005779,105.155312 32.7535,108.50239 28.6247338,108.50239 C24.4951234,108.50239 21.1488896,105.155312 21.1488896,101.025701 C21.1488896,96.8969351 24.4951234,93.5498571 28.6247338,93.5498571" id="Fill-31" fill="#DCDBDE"></path>
                <path d="M39.0909156,52.5881234 L39.0909156,52.5881234 C39.0909156,53.8906558 39.7417597,55.1070844 40.8265,55.8296818 L51.0070195,62.6166948 C54.9374091,65.2369545 59.5540974,66.6348766 64.2779935,66.6348766 L89.2726039,66.6348766 C91.1601364,66.6348766 92.5749416,64.9085779 92.2060455,63.0581883 L91.8540325,61.2981234 C90.735526,55.7072792 85.8259156,51.6823442 80.1236429,51.6823442 L64.0753961,51.6823442 C61.3850714,51.6823442 58.7057208,51.3531234 56.0964351,50.7005909 L51.9921494,49.6740974 C49.3828636,49.0215649 46.703513,48.6915 44.0131883,48.6915 L42.987539,48.6915 C40.8349416,48.6923442 39.0909156,50.4363701 39.0909156,52.5881234" id="Fill-33" fill="#625D6B"></path>
                <path d="M55.2403766,82.1859156 L64.2112208,94.1476039 C65.3415455,95.6544221 67.1134286,96.5399416 68.9967403,96.5399416 L83.9492727,96.5399416 L88.2983636,72.6165649 L60.0250519,72.6165649 C55.096026,72.6165649 52.2824545,78.2428636 55.2403766,82.1859156" id="Fill-35" fill="#56A2AD"></path>
                <g id="Group-39" transform="translate(95.389610, 0.702338)">
                    <mask id="mask-2" fill="white">
                        <use xlink:href="#path-1"></use>
                    </mask>
                    <g id="Clip-38"></g>
                    <path d="M6.50185714,12.1040974 L3.51101299,12.1040974 C1.85984416,12.1040974 0.521012987,10.7652662 0.521012987,9.11325325 L0.521012987,3.13240909 C0.521012987,1.48124026 1.85984416,0.141564935 3.51101299,0.141564935 L6.50185714,0.141564935 C9.80503896,0.141564935 12.4827013,2.81922727 12.4827013,6.12325325 C12.4827013,9.42643506 9.80503896,12.1040974 6.50185714,12.1040974" id="Fill-37" fill="#BEBDC0" mask="url(#mask-2)"></path>
                </g>
            </g>
        </g>
    </g>
</svg>