<?xml version="1.0" encoding="UTF-8"?>
<svg width="80px" height="80px" viewBox="0 0 80 80" version="1.1" xmlns="http://www.w3.org/2000/svg" xmlns:xlink="http://www.w3.org/1999/xlink">
    <title>Group 13 Copy 5</title>
    <defs>
        <rect id="path-1" x="0" y="0" width="80" height="80"></rect>
        <polygon id="path-3" points="4.17439703e-05 0.001425 119.451206 0.001425 119.451206 0.4758 4.17439703e-05 0.4758"></polygon>
        <polygon id="path-5" points="0.0493664193 0.063325603 8.58525696 0.063325603 8.58525696 8.59925788 0.0493664193 8.59925788"></polygon>
        <polygon id="path-7" points="0.0109703154 0.063325603 8.54686085 0.063325603 8.54686085 8.59925788 0.0109703154 8.59925788"></polygon>
    </defs>
    <g id="Desktop" stroke="none" stroke-width="1" fill="none" fill-rule="evenodd">
        <g id="Group-13-Copy-5">
            <mask id="mask-2" fill="white">
                <use xlink:href="#path-1"></use>
            </mask>
            <g id="Mask"></g>
            <g id="Group-5" mask="url(#mask-2)">
                <g transform="translate(-43.000000, 33.000000)">
                    <g id="Group-3" stroke-width="1" fill="none" transform="translate(0.000000, 44.644700)">
                        <mask id="mask-4" fill="white">
                            <use xlink:href="#path-3"></use>
                        </mask>
                        <g id="Clip-2"></g>
                        <path d="M119.36634,0.4758 L0.0847820037,0.4758 C0.0381957328,0.4758 4.17439703e-05,0.418675 4.17439703e-05,0.3488 L4.17439703e-05,0.128425 C4.17439703e-05,0.05855 0.0381957328,0.001425 0.0847820037,0.001425 L119.36634,0.001425 C119.41301,0.001425 119.451248,0.05855 119.451248,0.128425 L119.451248,0.3488 C119.451248,0.418675 119.41301,0.4758 119.36634,0.4758" id="Fill-1" fill="#2E3552" mask="url(#mask-4)"></path>
                    </g>
                    <path d="M87.4286215,30.6015028 C86.6894193,30.6015028 86.0903098,30.0023098 86.0903098,29.2631911 C86.0903098,28.5239889 86.6894193,27.9247124 87.4286215,27.9247124 C88.1678237,27.9247124 88.7670167,28.5239889 88.7670167,29.2631911 C88.7670167,30.0023098 88.1678237,30.6015028 87.4286215,30.6015028 M87.4286215,26.4289425 C85.8473599,26.4289425 84.5654026,27.7108998 84.5654026,29.2922449 C84.5654026,30.87359 87.4286215,34.3892672 87.4286215,34.3892672 C87.4286215,34.3892672 90.2920074,30.87359 90.2920074,29.2922449 C90.2920074,27.7108998 89.0099666,26.4289425 87.4286215,26.4289425" id="Fill-6" fill="#C3C9D2"></path>
                    <path d="M86.0315844,25.6740362 C86.0294137,25.6645186 85.9794879,25.4340083 85.8716215,25.0150659 C85.8565937,24.9558729 85.8105918,24.9258173 85.7692653,24.9472737 C85.7276048,24.9691475 85.7063154,25.0341846 85.7215937,25.093461 C85.8275399,25.505975 85.8780501,25.7386558 85.878718,25.7409935 C85.8892375,25.7901679 85.9208794,25.8216429 85.9551929,25.8216429 C85.9628738,25.8216429 85.9708052,25.8198061 85.9784861,25.8165501 C86.020731,25.7978488 86.0443581,25.7341475 86.0315844,25.6740362" id="Fill-10" fill="#FF9136"></path>
                    <path d="M85.6991772,24.3707226 C85.6419045,24.1635891 85.5805408,23.949025 85.51709,23.7332087 C85.499808,23.6753516 85.4531382,23.648051 85.4124796,23.672179 C85.3715705,23.696808 85.3524518,23.7632644 85.3696503,23.8211215 C85.4327672,24.035602 85.4934629,24.2486633 85.5504017,24.4540436 C85.5628414,24.4987096 85.5929805,24.5265111 85.6249564,24.5265111 C85.6345575,24.5265111 85.6444926,24.523756 85.6540937,24.5183293 C85.6953367,24.4950362 85.7154573,24.4289972 85.6991772,24.3707226" id="Fill-12" fill="#FF9136"></path>
                    <path d="M85.3261781,23.1020148 C85.2621429,22.8962171 85.1953525,22.6858275 85.1271429,22.4763562 C85.1086085,22.4194174 85.0612709,22.3947885 85.0209462,22.4212542 C84.9809555,22.4476364 84.9633395,22.5150111 84.9822078,22.5724508 C85.049666,22.7800853 85.1162894,22.9895566 85.1799072,23.1940186 C85.1930148,23.2368479 85.2221521,23.2618942 85.2528757,23.2618942 C85.2638126,23.2618942 85.274666,23.2586382 85.2851855,23.2522931 C85.3258442,23.2268293 85.3440445,23.1593711 85.3261781,23.1020148" id="Fill-18" fill="#FF9136"></path>
                    <path d="M84.9208024,21.8560993 C84.8514239,21.6520547 84.7794573,21.4453386 84.7068228,21.2413776 C84.6869527,21.1852737 84.6389471,21.1625649 84.5992904,21.1907839 C84.5599675,21.2195037 84.5442718,21.2877968 84.5641419,21.3438173 C84.636025,21.5468599 84.7077412,21.7527412 84.7767857,21.9553664 C84.7905612,21.9958581 84.8190306,22.0195686 84.8488358,22.0195686 C84.8602737,22.0195686 84.8725464,22.0159787 84.8837338,22.0082143 C84.9233071,21.9809137 84.9399212,21.9125371 84.9208024,21.8560993" id="Fill-28" fill="#FF9136"></path>
                    <path d="M84.4859972,20.6315816 C84.4117764,20.4307931 84.3349675,20.227667 84.2581586,20.0272959 C84.2371197,19.9721939 84.1885297,19.9521568 84.1497913,19.9822124 C84.1110529,20.0122681 84.0966929,20.0814796 84.1178154,20.1365816 C84.1942904,20.3356169 84.2706818,20.5377412 84.3443182,20.7376948 C84.3587616,20.7763497 84.3865631,20.7983071 84.4152829,20.7983071 C84.4278061,20.7983071 84.4405798,20.7941327 84.4524351,20.7855334 C84.4914239,20.7558952 84.5065353,20.6871011 84.4859972,20.6315816" id="Fill-30" fill="#FF9136"></path>
                    <path d="M84.0237161,19.428462 C83.9447365,19.230846 83.8637532,19.0308924 83.782436,18.8346122 C83.7601447,18.7804286 83.7108033,18.7626456 83.6730668,18.794538 C83.6349963,18.8264304 83.6221391,18.8961429 83.6445974,18.9503265 C83.7255807,19.1456048 83.8062301,19.3442226 83.8845417,19.5409202 C83.8993191,19.5778219 83.9264527,19.5983599 83.9543377,19.5983599 C83.9676957,19.5983599 83.9811373,19.5936846 83.9936605,19.5837495 C84.0320649,19.5522746 84.0455065,19.4830631 84.0237161,19.428462" id="Fill-32" fill="#FF9136"></path>
                    <path d="M83.5345269,18.2471577 C83.450705,18.0517959 83.3653803,17.8560167 83.2801391,17.6651633 C83.2565121,17.611898 83.2072542,17.5959518 83.1698516,17.6296809 C83.1323655,17.66341 83.1215121,17.7335399 83.1452226,17.7868052 C83.2297124,17.9766568 83.3147032,18.1716011 83.3981911,18.3655436 C83.4133024,18.4011095 83.4395176,18.4202282 83.4664007,18.4202282 C83.4807607,18.4202282 83.4948701,18.4148015 83.5080612,18.4034471 C83.5457143,18.3706364 83.5575696,18.300423 83.5345269,18.2471577" id="Fill-36" fill="#FF9136"></path>
                    <path d="M83.0194981,17.088679 C82.9315019,16.8979091 82.8412514,16.7061373 82.7520028,16.5185399 C82.7270399,16.4666104 82.6774481,16.4534193 82.6409638,16.4884842 C82.6041456,16.5240501 82.594962,16.5945974 82.6195909,16.6465269 C82.7084221,16.8332059 82.7980881,17.0240594 82.8854165,17.2139109 C82.9007783,17.2471391 82.9264091,17.265423 82.9525408,17.265423 C82.9676521,17.265423 82.98268,17.2589944 82.9964555,17.2467217 C83.0331902,17.2121577 83.0434592,17.1415269 83.0194981,17.088679" id="Fill-40" fill="#FF9136"></path>
                    <path d="M82.4781289,15.9547876 C82.3862922,15.7689434 82.2919508,15.581346 82.1981104,15.3978395 C82.1719787,15.3468284 82.1220529,15.335474 82.0862365,15.3727931 C82.0507542,15.4096948 82.0427393,15.480743 82.0686206,15.5317542 C82.1620436,15.7143423 82.2558006,15.9006039 82.3473033,16.0859471 C82.3629991,16.1173386 82.387628,16.1342032 82.4128414,16.1342032 C82.4288711,16.1342032 82.4449007,16.1278581 82.4586763,16.1137486 C82.494743,16.0772644 82.5037597,16.0062996 82.4781289,15.9547876" id="Fill-44" fill="#FF9136"></path>
                    <path d="M81.9115714,14.8468191 C81.8152263,14.6651494 81.7167106,14.4820603 81.6184453,14.3031456 C81.5916456,14.2534703 81.5410519,14.2443701 81.5064879,14.2831085 C81.47159,14.3217635 81.4652449,14.3932291 81.4923785,14.4429045 C81.5899759,14.6209842 81.6879072,14.8031549 81.7839184,14.9839063 C81.7995306,15.0135445 81.8234917,15.0294907 81.8475362,15.0294907 C81.8645677,15.0294907 81.8815158,15.0217263 81.8958757,15.0061976 C81.9310241,14.968461 81.9380371,14.8969119 81.9115714,14.8468191" id="Fill-48" fill="#FF9136"></path>
                    <path d="M81.3193247,13.7662013 C81.2188887,13.5886224 81.1161985,13.4105427 81.0138423,13.2365538 C80.9856234,13.1883813 80.9350297,13.1819527 80.9011336,13.2220269 C80.867321,13.262602 80.8628126,13.3340677 80.891282,13.3823237 C80.9927199,13.5558117 81.0949926,13.7329731 81.1949276,13.9092161 C81.2108738,13.9369341 81.234,13.9515445 81.2572931,13.9515445 C81.2749091,13.9515445 81.2924416,13.9433627 81.3074694,13.9260807 C81.3417829,13.8869249 81.3472096,13.8149583 81.3193247,13.7662013" id="Fill-52" fill="#FF9136"></path>
                    <path d="M80.7022152,12.7142866 C80.5972709,12.5417171 80.4904063,12.3686466 80.3841262,12.199667 C80.3547384,12.1532477 80.3042282,12.1491568 80.2712505,12.1910677 C80.2382727,12.2329787 80.2354341,12.3049453 80.2649054,12.351782 C80.3706846,12.5198432 80.4769647,12.6914944 80.5812412,12.8632291 C80.5969369,12.8891104 80.6193117,12.9028024 80.6416865,12.9028024 C80.6603043,12.9028024 80.6788386,12.8937022 80.6938664,12.8750009 C80.7275121,12.8335909 80.7310186,12.7621252 80.7022152,12.7142866" id="Fill-56" fill="#FF9136"></path>
                    <path d="M80.0600761,11.6933126 C79.9506234,11.5257523 79.8396679,11.3581085 79.7296308,11.1951401 C79.6989072,11.1495557 79.6483135,11.1482199 79.6163377,11.1919675 C79.5846957,11.2352143 79.5836939,11.3075983 79.6140835,11.3526818 C79.7235362,11.5148154 79.8339072,11.6814573 79.942692,11.8480993 C79.9583043,11.8723108 79.9797607,11.8845835 80.0012171,11.8845835 C80.0207532,11.8845835 80.0402894,11.8745649 80.0555677,11.8540269 C80.088295,11.8116985 80.0901317,11.7393145 80.0600761,11.6933126" id="Fill-60" fill="#FF9136"></path>
                    <path d="M79.3930742,10.705116 C79.2800315,10.5433998 79.1649852,10.3817672 79.0504397,10.223808 C79.0187978,10.1800603 78.9681206,10.1809787 78.9374805,10.2260622 C78.906757,10.2716466 78.9074249,10.3435297 78.9390668,10.3872774 C79.0529443,10.5444017 79.1674898,10.705116 79.2798646,10.8659137 C79.2954768,10.888205 79.3159314,10.8991419 79.3363859,10.8991419 C79.3568404,10.8991419 79.377128,10.888205 79.3927403,10.8659137 C79.4240482,10.8216651 79.4240482,10.749782 79.3930742,10.705116" id="Fill-64" fill="#FF9136"></path>
                    <path d="M78.7016855,9.75156679 C78.5849694,9.59577829 78.4655816,9.44007328 78.3471957,9.28795826 C78.314218,9.24604731 78.2637078,9.24972078 78.2342365,9.29614007 C78.2045148,9.3430603 78.2073534,9.4150269 78.2399972,9.45735529 C78.3577987,9.60813451 78.4764351,9.76292115 78.5925668,9.91779128 C78.6079286,9.93824583 78.6274647,9.94826438 78.6473349,9.94826438 C78.6684573,9.94826438 78.6898302,9.93640909 78.705526,9.91228108 C78.7355816,9.86636271 78.7339954,9.7943961 78.7016855,9.75156679" id="Fill-70" fill="#FF9136"></path>
                    <path d="M77.9866614,8.83397588 C77.8660213,8.6850334 77.7428766,8.53567347 77.6203163,8.38948609 C77.5864202,8.34941187 77.5358265,8.35575696 77.5074406,8.40409647 C77.4792217,8.4523525 77.4837301,8.52381818 77.5176262,8.56439332 C77.6395186,8.70966234 77.7620788,8.8581039 77.8817171,9.00612801 C77.8967449,9.02474583 77.9155297,9.0339295 77.9341475,9.0339295 C77.9566058,9.0339295 77.9785631,9.02065492 77.9946763,8.99469017 C78.0233961,8.9473525 78.0198896,8.8753859 77.9866614,8.83397588" id="Fill-74" fill="#FF9136"></path>
                    <path d="M77.2479017,7.95506494 C77.1228367,7.81163265 76.9957681,7.66911874 76.8701187,7.53069573 C76.8352208,7.49195733 76.784961,7.50147495 76.7578275,7.55115028 C76.7309443,7.60074212 76.7372894,7.67229128 76.7721874,7.71052876 C76.8969184,7.8480334 77.0233191,7.99012987 77.1477996,8.13264378 C77.1624935,8.14950835 77.1801095,8.15769017 77.1976419,8.15769017 C77.2210186,8.15769017 77.2443952,8.14316327 77.2600909,8.11536178 C77.2878924,8.06618738 77.2824657,7.99472171 77.2479017,7.95506494" id="Fill-78" fill="#FF9136"></path>
                    <path d="M76.4868089,7.11623655 C76.358154,6.98006772 76.2274119,6.84439981 76.0977551,6.71273933 C76.0619388,6.67633859 76.012013,6.68819388 75.9861317,6.73920501 C75.9605009,6.79021614 75.9688497,6.86168182 76.004666,6.89816605 C76.133321,7.02882468 76.2634787,7.16357421 76.3911317,7.2993256 C76.4054917,7.31435343 76.4221892,7.32161688 76.4388033,7.32161688 C76.4634323,7.32161688 76.4874768,7.30567069 76.5030891,7.27561503 C76.5293878,7.22560575 76.5219573,7.15405659 76.4868089,7.11623655" id="Fill-82" fill="#FF9136"></path>
                    <path d="M43.7818776,6.24600835 C43.7591688,6.19182468 43.7102449,6.17454267 43.6721744,6.20635158 C43.5355881,6.32298423 43.3969981,6.44270594 43.2614137,6.56251113 C43.2235937,6.59573933 43.2120724,6.6658692 43.235449,6.71963544 C43.2504768,6.75419944 43.276692,6.77331818 43.3035751,6.77331818 C43.3179351,6.77331818 43.3323785,6.76789147 43.3454861,6.75603618 C43.4809035,6.63673191 43.6180742,6.51784508 43.75441,6.40221429 C43.7921466,6.36990445 43.8045863,6.30019202 43.7818776,6.24600835" id="Fill-84" fill="#FF9136"></path>
                    <path d="M75.7036252,6.31979499 C75.5714638,6.19088961 75.4371317,6.06248516 75.3040519,5.93775417 C75.2668998,5.90310668 75.217308,5.91771707 75.193013,5.97048145 C75.168718,6.02282839 75.1789035,6.09345918 75.2160557,6.12810668 C75.3481336,6.25191929 75.4818813,6.37940538 75.6130408,6.50739239 C75.6268163,6.52108442 75.6425121,6.5274295 75.6581243,6.5274295 C75.6838386,6.5274295 75.7088015,6.5101475 75.7240798,6.4782551 C75.7490427,6.4263256 75.7397755,6.35527737 75.7036252,6.31979499" id="Fill-86" fill="#FF9136"></path>
                    <path d="M44.6156132,5.56978942 C44.5941568,5.51468738 44.5455668,5.49465028 44.5068284,5.52512338 C44.3667356,5.63491002 44.225641,5.74778571 44.0874685,5.8607449 C44.049064,5.89213636 44.0359564,5.96134787 44.0579137,6.01603247 C44.0726911,6.05293414 44.0995742,6.07338868 44.1273757,6.07338868 C44.1408173,6.07338868 44.1546763,6.06837941 44.167116,6.05844434 C44.3046206,5.9459026 44.4447968,5.83344434 44.5839712,5.72457607 C44.6226262,5.69410297 44.6367356,5.62489147 44.6156132,5.56978942" id="Fill-88" fill="#FF9136"></path>
                    <path d="M74.8993191,5.56705937 C74.764987,5.44633581 74.6269814,5.32527829 74.4894768,5.20730983 C74.4517403,5.175 74.4027328,5.192282 74.3796902,5.24596475 C74.3570649,5.29973098 74.3691707,5.36986085 74.4069907,5.40217069 C74.5434935,5.51972171 74.6804972,5.63994434 74.8139109,5.75966605 C74.8273525,5.77152134 74.8420464,5.77694805 74.8564063,5.77694805 C74.883039,5.77694805 74.9088367,5.75833024 74.924282,5.72418367 C74.9479091,5.67083488 74.9367217,5.60028757 74.8993191,5.56705937" id="Fill-90" fill="#FF9136"></path>
                    <path d="M45.4650111,4.93449629 C45.4448905,4.87847588 45.3969685,4.8561846 45.3572282,4.88440353 C45.2152152,4.98734416 45.0715325,5.09345733 44.9301039,5.1995705 C44.891115,5.22912523 44.8763377,5.29791929 44.8967922,5.35343878 C44.9112356,5.39217718 44.9390371,5.41405102 44.9675065,5.41405102 C44.9803636,5.41405102 44.9931373,5.40996011 45.0049926,5.40077644 C45.1454193,5.29516419 45.2884341,5.18996939 45.4298627,5.08752968 C45.4691855,5.05931076 45.4848813,4.9905167 45.4650111,4.93449629" id="Fill-92" fill="#FF9136"></path>
                    <path d="M74.0747922,4.85936549 C73.9362857,4.7450705 73.7951911,4.63211132 73.6556827,4.5228256 C73.6170278,4.4923525 73.5684378,4.51238961 73.5469814,4.56749165 C73.525859,4.62259369 73.5399685,4.69180519 73.5786234,4.72227829 C73.7172134,4.83064564 73.8573061,4.94318738 73.9951447,5.05656401 C74.0076679,5.06658256 74.0213599,5.07159184 74.0348015,5.07159184 C74.0626865,5.07159184 74.0895696,5.0510538 74.1042635,5.01465306 C74.1263043,4.96005195 74.1131967,4.89075696 74.0747922,4.85936549" id="Fill-94" fill="#FF9136"></path>
                    <path d="M46.3291531,4.34115584 C46.3102848,4.28421707 46.2629471,4.25958813 46.2226224,4.2860538 C46.0783553,4.3816475 45.9321679,4.48049722 45.7882347,4.58018182 C45.7484944,4.60756586 45.7318803,4.675859 45.751333,4.73238033 C45.7651085,4.77287199 45.7935779,4.79658256 45.8232996,4.79658256 C45.8349045,4.79658256 45.8470937,4.79240816 45.8581976,4.78464378 C46.0012124,4.68587755 46.1467319,4.58752876 46.2901642,4.49276994 C46.3301549,4.46597032 46.3477709,4.39851206 46.3291531,4.34115584" id="Fill-96" fill="#FF9136"></path>
                    <path d="M73.2318395,4.19814935 C73.090077,4.09203618 72.9461438,3.98684137 72.8037134,3.88532004 C72.7643905,3.85710111 72.716051,3.87980983 72.6965983,3.93583024 C72.6768117,3.99235158 72.6927579,4.06064471 72.7320807,4.08886364 C72.8735093,4.1894666 73.0168581,4.29424397 73.1576187,4.39943878 C73.1693905,4.40853896 73.1822477,4.41262987 73.1947709,4.41262987 C73.2234907,4.41262987 73.2512922,4.39033859 73.2654017,4.35160019 C73.2861902,4.29608071 73.2711623,4.22728664 73.2318395,4.19814935" id="Fill-98" fill="#FF9136"></path>
                    <path d="M47.2067616,3.79012709 C47.1894796,3.73226994 47.1427263,3.70538683 47.1018173,3.73001577 C46.9552124,3.81834601 46.8068544,3.91034972 46.660667,4.00277087 C46.6203423,4.02831818 46.6020584,4.09527551 46.6200083,4.15304917 C46.6334499,4.19537755 46.6625037,4.22042393 46.6933108,4.22042393 C46.7040807,4.22042393 46.7150176,4.21725139 46.7255371,4.21090631 C46.8708896,4.1189026 47.0186633,4.02739981 47.1645167,3.93948701 C47.2050918,3.91494156 47.2240436,3.84798423 47.2067616,3.79012709" id="Fill-100" fill="#FF9136"></path>
                    <path d="M72.3711957,3.58430427 C72.227179,3.48687384 72.0804072,3.38944341 71.9348043,3.29602041 C71.8944796,3.27005566 71.8471419,3.29510204 71.8289416,3.35254174 C71.8106577,3.40989796 71.8286076,3.47727273 71.8688488,3.50323748 C72.0135334,3.59657699 72.1593868,3.69267161 72.3024017,3.79010204 C72.3136725,3.79744898 72.3254443,3.80103896 72.3369657,3.80103896 C72.3666874,3.80103896 72.3954907,3.77691095 72.4089323,3.73641929 C72.428218,3.67948052 72.4111865,3.61160482 72.3711957,3.58430427" id="Fill-102" fill="#FF9136"></path>
                    <path d="M48.097077,3.28145176 C48.0811308,3.22275974 48.0350455,3.19353896 47.9938024,3.21591373 C47.8446929,3.29789889 47.6943312,3.38255566 47.5461401,3.46771336 C47.505231,3.49142393 47.4857783,3.55746289 47.5023924,3.61573748 C47.5148321,3.66032004 47.5446373,3.68720315 47.5762792,3.68720315 C47.5865482,3.68720315 47.5963998,3.68444805 47.6063349,3.6786039 C47.7535241,3.59386364 47.903218,3.5096243 48.0513256,3.42855751 C48.0925686,3.40576531 48.1131067,3.34022727 48.097077,3.28145176" id="Fill-104" fill="#FF9136"></path>
                    <path d="M71.4945724,3.01961688 C71.3477171,2.92986735 71.1982737,2.84111967 71.0505835,2.75546104 C71.0095074,2.73183395 70.9629212,2.75955195 70.9463071,2.81791002 C70.9296095,2.8761846 70.9494796,2.942641 70.9903887,2.96635158 C71.137244,3.05150928 71.2856855,3.13983952 71.431539,3.22867069 C71.441808,3.23501577 71.4523275,3.23777087 71.4629304,3.23777087 C71.4939045,3.23777087 71.5233757,3.21222356 71.5364833,3.16897681 C71.5537653,3.11120315 71.535231,3.04416234 71.4945724,3.01961688" id="Fill-106" fill="#FF9136"></path>
                    <path d="M48.9989805,2.81517996 C48.9842866,2.75548609 48.9384518,2.72409462 48.8969583,2.74505009 C48.7462625,2.81968831 48.593897,2.89708163 48.4439527,2.97505937 C48.4026262,2.99684972 48.3812532,3.06197032 48.3965315,3.12116327 C48.4083868,3.16716512 48.4387764,3.19588497 48.4714202,3.19588497 C48.4806874,3.19588497 48.4899545,3.19354731 48.4989712,3.18903896 C48.6480807,3.11114471 48.7996948,3.03416883 48.9497226,2.95994805 C48.9912996,2.93899258 49.0134239,2.87437291 48.9989805,2.81517996" id="Fill-108" fill="#FF9136"></path>
                    <path d="M49.9108191,2.39072727 C49.8977115,2.33111688 49.8528785,2.29738776 49.8106336,2.31600557 C49.6574332,2.38388126 49.5031475,2.45451206 49.3525353,2.52505937 C49.3106243,2.54509647 49.2879156,2.6092987 49.3016076,2.66899258 C49.3128785,2.71683117 49.3438525,2.74730427 49.3774147,2.74730427 C49.3857635,2.74730427 49.3943627,2.74546753 49.4027115,2.74137662 C49.5524889,2.67124675 49.7060232,2.60111688 49.8583052,2.53374212 C49.9002161,2.51462338 49.9239267,2.45083859 49.9108191,2.39072727" id="Fill-110" fill="#FF9136"></path>
                    <path d="M70.6029462,2.50368646 C70.4545046,2.42261967 70.3028071,2.34197032 70.1521948,2.26415955 C70.1106178,2.24278664 70.0648664,2.27325974 70.0497551,2.33245269 C70.0347273,2.39164564 70.0561837,2.45676623 70.0974267,2.47813915 C70.2471206,2.55561596 70.3982338,2.63576438 70.5456735,2.71633024 C70.5549406,2.72133952 70.5648757,2.72359369 70.5741429,2.72359369 C70.6064527,2.72359369 70.6368423,2.6958757 70.6490315,2.65079221 C70.6646438,2.5920167 70.6441892,2.52597774 70.6029462,2.50368646" id="Fill-112" fill="#FF9136"></path>
                    <path d="M50.8318831,2.00866976 C50.8200278,1.94805751 50.7758627,1.91257514 50.7332839,1.9294397 C50.5791651,1.99046939 50.4236271,2.05375325 50.2710111,2.11753803 C50.2284323,2.13523748 50.2041373,2.19852134 50.2166605,2.25913358 C50.2269295,2.30880891 50.2589054,2.3407013 50.2934694,2.3407013 C50.3008163,2.3407013 50.3084137,2.339282 50.3160946,2.33610946 C50.4677922,2.27232468 50.6226623,2.20945826 50.7761967,2.1489295 C50.8187755,2.13214842 50.8437384,2.06969944 50.8318831,2.00866976" id="Fill-114" fill="#FF9136"></path>
                    <path d="M69.6981957,2.03737291 C69.547166,1.9640705 69.3932978,1.8921039 69.2409323,1.82289239 C69.1991048,1.80377365 69.1539378,1.83658442 69.1404963,1.89661224 C69.1271382,1.95680705 69.1504314,2.02050835 69.1923423,2.03962709 C69.3437059,2.10842115 69.4966558,2.18030427 69.6466837,2.2527718 C69.654949,2.25686271 69.6636317,2.25911688 69.672231,2.25911688 C69.7055427,2.25911688 69.7366002,2.22906122 69.7481215,2.18172356 C69.762231,2.12253061 69.7397727,2.05782746 69.6981957,2.03737291" id="Fill-116" fill="#FF9136"></path>
                    <path d="M51.7609286,1.66852319 C51.7504091,1.60749351 51.7071623,1.56967347 51.664333,1.5847013 C51.508795,1.63846753 51.3520881,1.69490538 51.1978859,1.75184416 C51.1549731,1.76779035 51.1294258,1.83015584 51.1406132,1.89076809 C51.1498803,1.94219666 51.1825241,1.97592579 51.2180065,1.97592579 C51.224769,1.97592579 51.2314481,1.97500742 51.2381271,1.97225232 C51.3914109,1.91531354 51.5475334,1.85979406 51.7020696,1.80602783 C51.7449824,1.791 51.7711976,1.72946939 51.7609286,1.66852319" id="Fill-118" fill="#FF9136"></path>
                    <path d="M68.7812978,1.6206679 C68.6286818,1.55554731 68.4732273,1.49184601 68.319025,1.43081633 C68.2766967,1.41395176 68.232615,1.44951763 68.2207597,1.51004638 C68.2089879,1.57057514 68.2335334,1.63344156 68.2760288,1.65030612 C68.4293126,1.71083488 68.5839323,1.77411874 68.7354629,1.83882189 C68.7432273,1.84199443 68.7509082,1.84383117 68.7585891,1.84383117 C68.7931531,1.84383117 68.824795,1.81193878 68.835064,1.76226345 C68.8478377,1.70223562 68.8237931,1.63886827 68.7812978,1.6206679" id="Fill-120" fill="#FF9136"></path>
                    <path d="M52.6967449,1.36840909 C52.6878117,1.30696197 52.6452328,1.26772263 52.6019861,1.28049629 C52.5287672,1.30278757 52.4554647,1.32557978 52.3819119,1.34837199 C52.2984239,1.37433673 52.2151865,1.40071892 52.1323664,1.42760204 C52.0892032,1.4417115 52.06232,1.50274119 52.0719212,1.5642718 C52.0805204,1.61703618 52.1135816,1.65251855 52.1499824,1.65251855 C52.1558265,1.65251855 52.1618377,1.65168367 52.1679323,1.64984694 C52.2504184,1.62296382 52.3329879,1.59658163 52.4162254,1.57103432 C52.4894443,1.54824212 52.5624128,1.5255334 52.6353813,1.50315863 C52.678461,1.49046846 52.7060121,1.42985622 52.6967449,1.36840909" id="Fill-122" fill="#FF9136"></path>
                    <path d="M67.8544481,1.25365492 C67.7004963,1.19671614 67.543372,1.14119666 67.3875835,1.08834879 C67.3445037,1.0737384 67.301257,1.11155844 67.2910714,1.17258813 C67.2808024,1.23361781 67.3073516,1.29506494 67.3501809,1.30967532 C67.505051,1.36252319 67.661257,1.41754174 67.8144573,1.47406308 C67.8212199,1.47631725 67.8278989,1.47773655 67.8345779,1.47773655 C67.8700603,1.47773655 67.9023701,1.44350649 67.9117208,1.39207792 C67.9228247,1.33154917 67.8973609,1.26918367 67.8544481,1.25365492" id="Fill-124" fill="#FF9136"></path>
                    <path d="M53.6379378,1.09882653 C53.6296725,1.03729592 53.5877616,0.996804267 53.5442644,1.00865955 C53.3884759,1.05098794 53.2297653,1.09565399 53.072641,1.14115492 C53.0291438,1.15342764 53.0013423,1.21362245 53.010025,1.27548701 C53.0176224,1.32925325 53.0512681,1.36657236 53.0883367,1.36657236 C53.0937635,1.36657236 53.0989397,1.36565399 53.1042829,1.36431818 C53.2610733,1.31923469 53.4191994,1.27456865 53.57432,1.23224026 C53.6179007,1.22046846 53.6462866,1.16077458 53.6379378,1.09882653" id="Fill-126" fill="#FF9136"></path>
                    <path d="M66.9186401,0.935315399 C66.7628516,0.886641929 66.604475,0.839304267 66.4476846,0.794638219 C66.4045213,0.781864564 66.3622764,0.821938776 66.3535937,0.8833859 C66.3449944,0.945333952 66.3727959,1.00502783 66.4162931,1.01780148 C66.5718312,1.0619666 66.7295399,1.10930427 66.88441,1.1575603 C66.8901707,1.15939703 66.8959314,1.1603154 66.9013581,1.1603154 C66.9380928,1.1603154 66.9714045,1.12383117 66.9795028,1.07106679 C66.9890204,1.00953618 66.9618868,0.949007421 66.9186401,0.935315399" id="Fill-128" fill="#FF9136"></path>
                    <path d="M54.5827208,0.859282931 C54.5753738,0.797334879 54.5341308,0.755423933 54.4905501,0.765943414 C54.3335093,0.803679963 54.1741308,0.843336735 54.0168395,0.883410946 C53.9732588,0.894765306 53.9444555,0.954041744 53.9524703,1.01590631 C53.9591494,1.07059091 53.9931289,1.10932931 54.0308655,1.10932931 C54.0356243,1.10932931 54.0404666,1.10882839 54.0453089,1.10749258 C54.2020158,1.06741837 54.3607263,1.0277616 54.5171827,0.990442486 C54.5605965,0.979923006 54.5900677,0.921230983 54.5827208,0.859282931" id="Fill-130" fill="#FF9136"></path>
                    <path d="M65.9754852,0.665282004 C65.8183609,0.624790353 65.6590659,0.585133581 65.5012737,0.548315399 C65.4581939,0.538296846 65.4165334,0.580124304 65.4095204,0.642573284 C65.4021735,0.704437848 65.4318952,0.76271243 65.4754759,0.773231911 C65.6321827,0.809632653 65.7905594,0.848788497 65.9466818,0.889363636 C65.9515241,0.890699443 65.9562829,0.891200371 65.9610417,0.891200371 C65.9987783,0.891200371 66.0327579,0.852962894 66.0395204,0.797777365 C66.0474518,0.735912801 66.0187319,0.676719852 65.9754852,0.665282004" id="Fill-132" fill="#FF9136"></path>
                    <path d="M55.5310102,0.649794991 C55.5245816,0.587930427 55.484257,0.544600186 55.4405093,0.553783859 C55.2827171,0.586093692 55.1227542,0.620657699 54.9650455,0.655722635 C54.9215482,0.665741187 54.8914926,0.72401577 54.8985056,0.785963822 C54.9046002,0.84198423 54.9384963,0.882058442 54.9772347,0.882058442 C54.9814091,0.882058442 54.9855835,0.881641002 54.9900918,0.880722635 C55.1470492,0.845657699 55.3064276,0.811511132 55.4634685,0.779117811 C55.5070492,0.770017625 55.5374388,0.71224397 55.5310102,0.649794991" id="Fill-134" fill="#FF9136"></path>
                    <path d="M56.4828061,0.473109462 C56.4773794,0.41074397 56.4377226,0.366077922 56.3938915,0.373424861 C56.2364332,0.400725417 56.0758859,0.429445269 55.9168414,0.45941744 C55.8730102,0.467682746 55.8422866,0.525038961 55.8480473,0.587404453 C55.8531401,0.644844156 55.8877041,0.686254174 55.9271104,0.686254174 C55.9306169,0.686254174 55.9341234,0.685753247 55.9376299,0.685335807 C56.0963404,0.655280148 56.2563033,0.626560297 56.4130102,0.599760668 C56.4568414,0.591996289 56.4879824,0.535558442 56.4828061,0.473109462" id="Fill-136" fill="#FF9136"></path>
                    <path d="M65.0262189,0.443070501 C64.8688442,0.41025974 64.7085473,0.378868275 64.5495028,0.349730983 C64.5054212,0.341549165 64.4656809,0.385714286 64.4600037,0.448079777 C64.4544935,0.510027829 64.4853006,0.567384045 64.5290482,0.575565863 C64.6870909,0.604285714 64.8464694,0.63567718 65.0029258,0.668487941 C65.0067662,0.669406308 65.0106067,0.669823748 65.0143636,0.669823748 C65.053436,0.669823748 65.087666,0.628831169 65.0937607,0.572393321 C65.1001892,0.510027829 65.0697161,0.452170686 65.0262189,0.443070501" id="Fill-138" fill="#FF9136"></path>
                    <path d="M57.3501373,0.22721243 C57.1915102,0.248585343 57.0305455,0.271878479 56.8715844,0.296006494 C56.8276698,0.302769017 56.7959443,0.358789425 56.8005362,0.421238404 C56.8050445,0.479930427 56.839859,0.52317718 56.8801837,0.52317718 C56.8830223,0.52317718 56.8858609,0.52275974 56.8887829,0.522342301 C57.0471596,0.498130798 57.2074564,0.47492115 57.3651651,0.453548237 C57.4089963,0.447620594 57.4413061,0.392101113 57.4371317,0.329652134 C57.4329573,0.266869202 57.3939685,0.221284787 57.3501373,0.22721243" id="Fill-140" fill="#FF9136"></path>
                    <path d="M64.0722189,0.267286642 C63.9132579,0.24182282 63.7522931,0.218112245 63.5935826,0.196739332 C63.5497514,0.1907282 63.510679,0.236312616 63.5065881,0.299179035 C63.5024137,0.361544527 63.5344731,0.417064007 63.5785547,0.423075139 C63.7363469,0.444865492 63.8962263,0.468576067 64.054269,0.493622449 C64.0571076,0.494039889 64.0603636,0.494540816 64.0632857,0.494540816 C64.1035269,0.494540816 64.1380909,0.451294063 64.1425993,0.39343692 C64.147692,0.330570501 64.1160501,0.274550093 64.0722189,0.267286642" id="Fill-142" fill="#FF9136"></path>
                    <path d="M58.3086206,0.115639147 C58.1499935,0.131167904 57.9886948,0.14794898 57.8290659,0.166650278 C57.7849842,0.172076994 57.7523404,0.226761596 57.7558469,0.289544527 C57.7593534,0.349238404 57.7942514,0.393904453 57.8354944,0.393904453 L57.8421735,0.393904453 C58.0011345,0.375203154 58.1617653,0.35792115 58.3195575,0.342392393 C58.3636391,0.338301484 58.3970343,0.284117811 58.3937783,0.221334879 C58.3908562,0.15846846 58.3537876,0.111130798 58.3086206,0.115639147" id="Fill-144" fill="#FF9136"></path>
                    <path d="M63.1146373,0.137045455 C62.9563442,0.118845083 62.7950455,0.102397959 62.6347486,0.0883719852 C62.5899991,0.0841975881 62.5525965,0.132036178 62.5500083,0.19440167 C62.5470863,0.257268089 62.5806484,0.311451763 62.6245631,0.315542672 C62.7838581,0.329652134 62.9444054,0.346099258 63.1018636,0.363798701 C63.1041178,0.364299629 63.1062885,0.364299629 63.1082922,0.364299629 C63.1495353,0.364299629 63.1847672,0.319216141 63.1879397,0.259522263 C63.1914462,0.196739332 63.1584685,0.142054731 63.1146373,0.137045455" id="Fill-146" fill="#FF9136"></path>
                    <path d="M59.2690575,0.0405083488 C59.1107644,0.0496085343 58.9487978,0.0609628942 58.7888349,0.0733191095 C58.7447532,0.0769925788 58.7107737,0.130257885 58.7133618,0.193040816 C58.715616,0.254070501 58.7507644,0.300990724 58.7930093,0.300990724 C58.7945955,0.300990724 58.7959314,0.300990724 58.7975176,0.300573284 C58.9572301,0.288217069 59.1180278,0.277280148 59.27582,0.268263451 C59.3199017,0.265424861 59.3542152,0.212159555 59.3522115,0.149376623 C59.3503748,0.0865102041 59.3123043,0.0382541744 59.2690575,0.0405083488" id="Fill-148" fill="#FF9136"></path>
                    <path d="M62.154526,0.0505352505 C61.9955649,0.0395983302 61.8339323,0.0304981447 61.6736354,0.0231512059 C61.6302217,0.0218153989 61.5927356,0.0705723562 61.5911494,0.133438776 C61.5898135,0.196305195 61.6243776,0.248652134 61.6686262,0.250906308 C61.8279212,0.258169759 61.9888859,0.267269944 62.1468451,0.277789425 L62.1506855,0.277789425 C62.1932644,0.277789425 62.2284963,0.230368275 62.230667,0.16933859 C62.2326707,0.106555659 62.1986911,0.0532903525 62.154526,0.0505352505" id="Fill-150" fill="#FF9136"></path>
                    <path d="M60.2317737,0.00361502783 L60.2307718,0.00361502783 C60.0721447,0.00637012987 59.9101781,0.0108784787 59.7499647,0.0173070501 C59.7057996,0.0191437848 59.6709017,0.0709897959 59.6722375,0.134273655 C59.6731558,0.195804267 59.7089722,0.244978664 59.751885,0.244978664 L59.7540557,0.244978664 C59.9136846,0.238550093 60.0749833,0.234041744 60.232692,0.231286642 C60.2768571,0.230368275 60.312423,0.178939703 60.3117551,0.116073284 C60.3110872,0.0537077922 60.2755213,0.00361502783 60.2317737,0.00361502783" id="Fill-152" fill="#FF9136"></path>
                    <path d="M61.1928618,0.00634508349 C61.0334833,0.00275510204 60.8716002,0.000417439703 60.7119712,-2.33701947e-14 L60.7116373,-2.33701947e-14 C60.6674722,-2.33701947e-14 60.6316558,0.0510111317 60.6316558,0.113376623 C60.6316558,0.176660482 60.6674722,0.227671614 60.7116373,0.227671614 C60.8706818,0.228089054 61.0315631,0.230426716 61.1902737,0.234100186 L61.191526,0.234100186 C61.2351067,0.234100186 61.270923,0.184424861 61.2715074,0.122059369 C61.2721753,0.0591929499 61.2369434,0.00726345083 61.1928618,0.00634508349" id="Fill-154" fill="#FF9136"></path>
                    <polygon id="Fill-158" fill="#BEBDC0" points="62.0813071 25.8850019 60.3742291 22.4707625 61.3921141 21.96182 63.099192 25.3760594"></polygon>
                    <path d="M70.2728265,42.1333497 C69.487038,42.1333497 68.850192,41.4964202 68.850192,40.7106317 C68.850192,39.9249267 69.487038,39.2879972 70.2728265,39.2879972 C71.0585315,39.2879972 71.695461,39.9249267 71.695461,40.7106317 C71.695461,41.4963367 71.0585315,42.1333497 70.2728265,42.1333497" id="Fill-160" fill="#B9B7BD"></path>
                    <g id="Group-164" stroke-width="1" fill="none" transform="translate(65.955473, 36.379394)">
                        <mask id="mask-6" fill="white">
                            <use xlink:href="#path-5"></use>
                        </mask>
                        <g id="Clip-163"></g>
                        <path d="M4.31735343,6.89205473 C2.90306772,6.89205473 1.75652783,5.74559833 1.75652783,4.33131262 C1.75652783,2.9170269 2.90306772,1.77048701 4.31735343,1.77048701 C5.73155566,1.77048701 6.87809555,2.9170269 6.87809555,4.33131262 C6.87809555,5.74551484 5.73155566,6.89205473 4.31735343,6.89205473 M4.31735343,0.063325603 C1.9602384,0.063325603 0.0493664193,1.97419759 0.0493664193,4.33131262 C0.0493664193,6.68842764 1.9602384,8.59929963 4.31735343,8.59929963 C6.67446846,8.59929963 8.58525696,6.68842764 8.58525696,4.33131262 C8.58525696,1.97419759 6.67446846,0.063325603 4.31735343,0.063325603" id="Fill-162" fill="#514B5B" mask="url(#mask-6)"></path>
                    </g>
                    <path d="M70.255628,41.244128 C70.0622699,41.244128 69.8738377,41.1457792 69.7671401,40.9682004 L66.9679564,36.3089889 C66.8063237,36.0394898 66.8934852,35.6900093 67.1629842,35.5279592 C67.4325668,35.3656586 67.7820473,35.4540724 67.9439304,35.7227365 L70.7431141,40.3818646 C70.9047468,40.6514471 70.8175019,41.0009276 70.5480028,41.1629777 C70.456166,41.2180798 70.3550622,41.244128 70.255628,41.244128" id="Fill-165" fill="#DCDBDE"></path>
                    <path d="M66.4552987,37.8297718 L71.7949369,37.8297718 C72.0097514,37.8297718 72.2061985,37.7077959 72.3012078,37.5150223 L72.5963377,36.9171651 C72.7517087,36.6022486 72.6730631,36.2262189 72.4089907,35.9947904 C71.7853358,35.4481948 70.3931744,34.5495306 67.7119592,34.1664879 L66.4552987,37.8297718 Z" id="Fill-167" fill="#56A2AD"></path>
                    <g id="Group-171" stroke-width="1" fill="none" transform="translate(42.662338, 36.379394)">
                        <mask id="mask-8" fill="white">
                            <use xlink:href="#path-7"></use>
                        </mask>
                        <g id="Clip-170"></g>
                        <path d="M4.27895733,6.89205473 C2.86467161,6.89205473 1.71813173,5.74559833 1.71813173,4.33131262 C1.71813173,2.9170269 2.86467161,1.77048701 4.27895733,1.77048701 C5.69315955,1.77048701 6.83969944,2.9170269 6.83969944,4.33131262 C6.83969944,5.74551484 5.69315955,6.89205473 4.27895733,6.89205473 M4.27895733,0.063325603 C1.9218423,0.063325603 0.0109703154,1.97419759 0.0109703154,4.33131262 C0.0109703154,6.68842764 1.9218423,8.59929963 4.27895733,8.59929963 C6.63598887,8.59929963 8.54686085,6.68842764 8.54686085,4.33131262 C8.54686085,1.97419759 6.63598887,0.063325603 4.27895733,0.063325603" id="Fill-169" fill="#514B5B" mask="url(#mask-8)"></path>
                    </g>
                    <path d="M52.6319249,42.1333497 L46.9413033,42.1333497 C46.1555148,42.1333497 45.5185853,41.4964202 45.5185853,40.7106317 C45.5185853,39.9249267 46.1555148,39.2879972 46.9413033,39.2879972 L52.6319249,39.2879972 C53.4176299,39.2879972 54.0545594,39.9249267 54.0545594,40.7106317 C54.0545594,41.4963367 53.4176299,42.1333497 52.6319249,42.1333497" id="Fill-172" fill="#DCDBDE"></path>
                    <path d="M62.590475,40.4262134 L63.5749647,35.0116865 C63.6763191,34.4546549 63.6576178,33.8824286 63.5202801,33.3330779 L62.0214212,26.7687551 L63.728666,26.7687551 L66.5739351,34.166538 L64.8667737,40.4262134 L62.590475,40.4262134 L62.590475,40.4262134 Z" id="Fill-174" fill="#56A2AD"></path>
                    <path d="M66.0460909,40.2419054 L68.4596438,35.0123878 C68.7030111,34.4850779 68.6616846,33.8703562 68.3499406,33.380449 L65.1024267,28.2771651 C64.9685121,28.066692 64.6971763,27.9916364 64.474013,28.1031763 L64.4734286,28.1033432 C64.0428813,28.3187421 63.8295696,28.8124063 63.9678256,29.2735102 L64.9055622,32.3992152 C65.2536234,33.5596141 65.3114805,34.7878052 65.0737904,35.9757551 L64.480525,38.9421651 C64.3742449,39.4742338 63.9071299,39.8571095 63.3646252,39.8571095 L57.4689573,39.8571095 L58.6069814,33.5974341 L57.4689573,31.8902727 L50.0710074,31.3211354 L45.7227885,31.8043636 C45.2825566,31.8532041 44.9495232,32.2253933 44.9495232,32.6682968 C44.9495232,32.8988071 45.041026,33.1199666 45.2039944,33.2829351 L46.0875473,34.1664879 C46.0875473,34.1664879 41.5350334,35.3045955 41.5350334,38.1498646 L41.5350334,38.7190019 C41.5350334,39.0332505 41.7899221,39.2880557 42.1040872,39.2880557 L50.7378256,39.2880557 C51.039551,39.2880557 51.3290872,39.4080278 51.5424824,39.621423 L53.1521299,41.230987 C53.3654416,41.4443822 53.6549777,41.5642709 53.9567866,41.5642709 L63.9792635,41.5642709 C64.8672412,41.5642709 65.6740686,41.0479814 66.0460909,40.2419054" id="Fill-176" fill="#76C6CD"></path>
                    <path d="M58.6070983,33.5974007 L57.4689072,31.8901558 L50.0711243,31.321102 L45.7228219,31.8042468 C45.28259,31.8530872 44.9494731,32.2252764 44.9494731,32.66818 C44.9494731,32.8986902 45.0411429,33.1199332 45.2041948,33.2828182 L46.0876642,34.1663711 L58.5034898,34.1663711 L58.6070983,33.5974007 Z" id="Fill-178" fill="#56A2AD"></path>
                    <path d="M65.4358275,27.3376837 L62.590475,27.3376837 C61.9619777,27.3376837 61.4523673,26.8281568 61.4523673,26.1995761 C61.4523673,25.5709954 61.9619777,25.0614685 62.590475,25.0614685 L65.4358275,25.0614685 L65.4358275,27.3376837 Z" id="Fill-180" fill="#56A2AD"></path>
                    <path d="M62.590475,26.7686382 C62.444872,26.7686382 62.299269,26.7130353 62.1882301,26.6019128 L61.7857347,26.1996679 L60.3141763,26.1996679 C59.9996772,26.1996679 59.7451224,25.9447792 59.7451224,25.6305306 C59.7451224,25.316282 59.9996772,25.0614768 60.3141763,25.0614768 L61.7857347,25.0614768 C62.0852894,25.0614768 62.378666,25.1828683 62.590475,25.3949276 L62.9927199,25.797256 C63.2149647,26.0195009 63.2149647,26.3796679 62.9927199,26.6019128 C62.8816809,26.7130353 62.7360779,26.7686382 62.590475,26.7686382" id="Fill-182" fill="#625D6B"></path>
                    <path d="M65.4358275,27.3376837 L64.8667737,27.3376837 L64.8667737,25.0614685 L65.4358275,25.0614685 C65.7500761,25.0614685 66.0048813,25.3162737 66.0048813,25.6305223 L66.0048813,26.7686299 C66.0047978,27.0828785 65.7500761,27.3376837 65.4358275,27.3376837" id="Fill-184" fill="#BEBDC0"></path>
                    <path d="M46.941295,39.288039 C47.727,39.288039 48.3639295,39.9249685 48.3639295,40.7106735 C48.3639295,41.4963785 47.727,42.1333915 46.941295,42.1333915 C46.15559,42.1333915 45.518577,41.4963785 45.518577,40.7106735 C45.518577,39.9249685 46.15559,39.288039 46.941295,39.288039" id="Fill-186" fill="#DCDBDE"></path>
                    <path d="M48.9330167,31.4934128 L48.9330167,31.4934128 C48.9330167,31.741372 49.0569128,31.9728006 49.263128,32.1103052 L51.2005492,33.4017801 C51.9483506,33.9003701 52.8269777,34.1664462 53.7258089,34.1664462 L58.4821169,34.1664462 C58.8411985,34.1664462 59.1105306,33.8378377 59.0401503,33.485769 L58.9732764,33.1508989 C58.7602987,32.0870121 57.8262356,31.3210937 56.7410594,31.3210937 L53.687154,31.3210937 C53.1753729,31.3210937 52.6655121,31.2583942 52.1689258,31.1341642 L51.3878961,30.9388859 C50.8913933,30.8147393 50.381449,30.7519564 49.8696679,30.7519564 L49.6743896,30.7519564 C49.2648813,30.7521234 48.9330167,31.0839879 48.9330167,31.4934128" id="Fill-188" fill="#625D6B"></path>
                    <path d="M52.0059323,37.1255844 L53.7131772,39.4017996 C53.9280751,39.6884137 54.2653664,39.8570594 54.6236132,39.8570594 L57.4689657,39.8570594 L58.2967486,35.3045455 L52.9164518,35.3045455 C51.9785482,35.3045455 51.4432236,36.3752783 52.0059323,37.1255844" id="Fill-190" fill="#56A2AD"></path>
                    <path d="M60.8832885,23.9233191 L60.3142347,23.9233191 C59.9999861,23.9233191 59.7450974,23.6685139 59.7450974,23.3542653 L59.7450974,22.2161577 C59.7450974,21.9019091 59.9999861,21.6470204 60.3142347,21.6470204 L60.8832885,21.6470204 C61.5118692,21.6470204 62.0213961,22.1565473 62.0213961,22.785128 C62.0213961,23.4137922 61.5118692,23.9233191 60.8832885,23.9233191" id="Fill-192" fill="#BEBDC0"></path>
                    <path d="M54.4718404,20.8779212 C53.4690668,21.2850918 51.6360056,20.4145631 51.6360056,20.4145631 C51.6360056,20.4145631 52.2445492,19.8758989 52.3604304,18.8558432 C52.3664416,18.8044147 52.3707829,18.7519842 52.374039,18.698218 C52.4797347,18.6606484 52.6790204,18.5896837 52.8922486,18.5139601 L53.7804768,19.1186633 C53.7804768,19.1186633 53.8018497,19.4161308 53.7702913,19.9365946 C53.7649481,20.0274295 53.7579351,20.1250269 53.7485844,20.2292199 C54.2095213,20.4360195 54.4718404,20.8779212 54.4718404,20.8779212" id="Fill-194" fill="#FFB27D"></path>
                    <path d="M53.7804518,19.1186466 C53.7804518,19.1186466 53.8018247,19.4161141 53.7702662,19.9365779 C52.962103,19.7897226 52.5173627,19.1369304 52.3604054,18.8558265 C52.3664165,18.804398 52.3707579,18.7519675 52.3740139,18.6982013 C52.4797096,18.6606317 52.6790788,18.589667 52.8922236,18.5139434 L53.7804518,19.1186466 Z" id="Fill-196" fill="#ED975D"></path>
                    <path d="M53.9444137,19.5519824 C53.9444137,19.5519824 52.2173822,19.4957115 52.2690612,18.4208043 C52.3206568,17.3458135 52.132475,16.6146262 53.2372709,16.6051085 C54.3421503,16.5955074 54.5365102,17.0160362 54.6065566,17.3790417 C54.676603,17.7419638 54.3949147,19.5388748 53.9444137,19.5519824" id="Fill-198" fill="#FFB27D"></path>
                    <path d="M52.3604304,18.8558265 C52.3604304,18.8558265 52.2929722,18.4984147 52.4874991,18.2624777 C52.4874991,18.2624777 52.3620167,17.9118284 52.4968497,17.8332662 C52.6316827,17.7547041 52.7019796,18.0541753 52.7610891,17.997821 C52.8201985,17.9414666 53.0815158,17.6763924 53.1619981,17.3265779 C53.2423135,16.97668 54.4397811,17.2274777 54.5812096,17.2696391 C54.7224712,17.311884 53.7866549,15.5655668 52.7761169,15.9790826 C51.7654119,16.3927653 51.6894378,16.9115594 51.8060705,17.3320046 C51.9228701,17.7524499 51.9123506,18.769333 52.3604304,18.8558265" id="Fill-200" fill="#2B478B"></path>
                    <path d="M50.7085213,29.1154341 C50.7085213,29.1154341 50.828243,31.2250074 51.3085492,31.8259536 C51.7888553,32.4268998 60.9945696,32.193718 60.9945696,32.193718 C60.9945696,32.193718 61.0346438,30.8410464 60.6743933,30.4932356 C60.3142263,30.1454249 58.6331132,29.1464082 53.2658404,28.580026 L50.7085213,29.1154341 Z" id="Fill-202" fill="#6BB7BF"></path>
                    <path d="M50.5857356,24.7000659 C50.7358469,26.5120046 50.538064,29.2681085 50.7086299,29.7455761 C50.8554017,30.1574221 52.5296688,29.9124685 53.1977393,29.7752143 C53.4451141,29.7239527 53.7449193,29.6515686 54.0543256,29.5654926 C54.9171735,29.3257152 55.8577486,28.9830807 55.958602,28.728526 C55.9626095,28.7185074 55.965782,28.7089898 55.9678692,28.6993052 C55.9774703,28.662487 55.9754666,28.6276725 55.9662829,28.5928581 C55.9414035,28.4968469 55.8638432,28.3951586 55.8190102,28.2186651 C55.803398,28.1566336 55.7917096,28.0853349 55.7877857,28.00168 C55.7721735,27.6734889 55.7729249,27.2920325 55.7617375,26.8813553 C55.7604852,26.8437857 55.7593163,26.8057987 55.7581475,26.7677282 C55.7573126,26.7164666 55.7565612,26.6608636 55.7505501,26.6100195 L55.7500492,26.5912347 C55.7500492,26.5816336 55.7497152,26.5720325 55.7493813,26.5624314 C55.7349378,26.056077 55.7052996,25.5241753 55.6712365,24.9961976 C55.6604666,24.8317263 55.6488618,24.6680065 55.6360046,24.5062904 C55.6319972,24.4491011 55.6273219,24.3922458 55.622897,24.335808 C55.6140473,24.2301957 55.6052811,24.1252514 55.5955965,24.0219768 C55.5203738,23.2103071 55.418769,22.4882199 55.2846039,22.0319583 C55.0652811,21.2879137 54.581385,20.8028488 54.1411531,20.4473571 L53.8225631,20.2020696 C53.4671549,20.2716985 53.0468766,20.2252792 52.6665891,20.0639805 C52.2555779,19.8882384 52.1134814,19.7625891 52.0417653,19.8101772 C51.0916725,20.4682291 50.4084072,22.4846299 50.5857356,24.7000659" id="Fill-204" fill="#F99746"></path>
                    <path d="M57.6823776,39.1339035 C57.6823776,39.1339035 57.7638618,40.4470853 58.0179156,40.4658701 C58.0516447,40.4683748 59.3063015,40.4683748 59.3063015,40.4683748 L60.9081011,40.4591076 C60.9081011,40.4591076 60.8975816,40.0731429 60.4293813,39.9915751 C59.9611809,39.9100074 59.1775631,39.580898 58.8939545,38.9620853 C58.5955686,38.3112134 57.6823776,39.1339035 57.6823776,39.1339035" id="Fill-206" fill="#1C4575"></path>
                    <path d="M57.3475241,39.2194703 C57.3475241,39.2194703 57.6573479,39.4576614 58.2881827,39.488051 C58.4506503,39.4956484 58.5995093,39.4872996 58.7300009,39.4704351 C59.0778117,39.4264369 59.2951308,39.3259174 59.2951308,39.3259174 L60.9946113,32.1935427 C60.9946113,32.1935427 59.1534518,30.5849805 58.1928395,31.585166 C58.0676076,31.7156577 57.960743,31.941743 57.8694072,32.2367059 C57.2602792,34.2031809 57.3475241,39.2194703 57.3475241,39.2194703" id="Fill-208" fill="#6BB7BF"></path>
                    <path d="M53.2657486,23.3227987 C53.2657486,23.3227987 54.4577059,27.6867134 55.8189768,28.218615 C55.8034481,28.1565835 55.7917597,28.0853683 55.7877523,28.0016299 C55.7721401,27.6734388 55.7728915,27.2920659 55.7617041,26.8813887 C55.7605353,26.8437356 55.7592829,26.8057486 55.7581976,26.7677616 C55.7573627,26.7165 55.7565278,26.660897 55.7506002,26.6100529 L55.7500993,26.5911846 C55.7500993,26.581667 55.7496818,26.5719824 55.7493479,26.5623813 C55.7349045,26.0561104 55.7053497,25.5241252 55.6712032,24.996231 C55.6605167,24.8317597 55.6488284,24.6680399 55.6360547,24.5063237 C55.0368618,23.7822328 54.2236058,23.261936 53.2657486,23.3227987" id="Fill-210" fill="#ED7D2B"></path>
                    <path d="M60.4155473,25.0038534 C60.4155473,25.0038534 60.9345918,25.0438442 61.0679221,25.0038534 C61.2014193,24.9638627 61.8284972,24.5902542 62.0552505,24.6702356 C62.2820037,24.7503006 62.8558163,25.3373878 62.7090445,25.6042152 C62.7090445,25.6042152 62.4421336,25.6108942 62.1953432,25.3573414 C61.9484694,25.103872 61.6816419,25.2772764 61.7083581,25.3106716 C61.7350742,25.3440668 62.1219573,25.4975176 62.0552505,25.564141 C61.9885436,25.6309314 61.4816048,25.6175733 61.3614657,25.5375083 C61.2414935,25.4574434 60.3475881,25.5575455 60.3475881,25.5575455 L60.4155473,25.0038534 Z" id="Fill-212" fill="#FFB27D"></path>
                    <path d="M53.2658321,21.0213367 C53.2658321,21.0213367 56.4936429,23.7729323 57.3432161,24.0381735 C58.1928729,24.3034147 61.1947653,24.8868284 61.1947653,24.8868284 C61.1947653,24.8868284 61.2774184,25.5975612 60.995897,25.8643887 C60.995897,25.8643887 57.1389212,25.6407245 56.658615,25.5390362 C56.1783089,25.4374314 52.5995148,23.5829137 52.3075575,23.442821 C52.0156837,23.3028117 52.0611011,20.7945835 53.2658321,21.0213367" id="Fill-214" fill="#F99746"></path>
                    <path d="M57.3475241,39.2194703 C57.3475241,39.2194703 57.6573479,39.4576614 58.2881827,39.488051 C58.4506503,39.4956484 58.5995093,39.4872996 58.7300009,39.4704351 C57.760539,38.2444981 57.8694072,32.2367059 57.8694072,32.2367059 C57.2602792,34.2031809 57.3475241,39.2194703 57.3475241,39.2194703" id="Fill-216" fill="#5AA9AD"></path>
                </g>
            </g>
        </g>
    </g>
</svg>