<svg xmlns="http://www.w3.org/2000/svg" xmlns:xlink="http://www.w3.org/1999/xlink" width="359" height="135" viewBox="0 0 359 135">
    <defs>
        <path id="chu0vs4yea" d="M0 0.003L358.354 0.003 358.354 0.953 0 0.953z"/>
        <path id="abar2btbvc" d="M0.148 0.19L25.756 0.19 25.756 25.798 0.148 25.798z"/>
        <path id="iqqi5foive" d="M0.033 0.19L25.641 0.19 25.641 25.798 0.033 25.798z"/>
    </defs>
    <g fill="none" fill-rule="evenodd">
        <g>
            <g>
                <g transform="translate(-970 -257) translate(970 257) translate(0 133.934)">
                    <mask id="patgoqvg4b" fill="#fff">
                        <use xlink:href="#chu0vs4yea"/>
                    </mask>
                    <path fill="#2E3552" d="M358.099.953H.254C.114.953 0 .84 0 .7V.257C0 .117.115.003.254.003H358.1c.14 0 .255.114.255.254V.7c0 .14-.115.254-.255.254" mask="url(#patgoqvg4b)"/>
                </g>
                <path fill="#FB0" d="M80.383 86.963c-4.999 0-9.05-4.036-9.05-9.035 0-1.223.244-2.385.688-3.456 1.36-3.286 4.586-5.594 8.362-5.594 5 0 9.05 4.05 9.05 9.05 0 4.327-3.026 7.92-7.078 8.806-.626.153-1.299.229-1.972.229m0-28.191c-4.617 0-8.867 1.62-12.2 4.326-4.372 3.562-7.155 8.974-7.155 15.029 0 10.686 19.355 34.443 19.355 34.443s8.791-10.792 14.509-21.097c2.782-4.984 4.846-9.861 4.846-13.346 0-10.686-8.668-19.355-19.355-19.355" transform="translate(-970 -257) translate(970 257)"/>
                <path fill="#C3C9D2" d="M262.286 91.805c-2.218 0-4.015-1.798-4.015-4.015 0-2.218 1.797-4.016 4.015-4.016 2.217 0 4.015 1.798 4.015 4.016 0 2.217-1.798 4.015-4.015 4.015m0-12.518c-4.744 0-8.59 3.846-8.59 8.59s8.59 15.29 8.59 15.29 8.59-10.546 8.59-15.29-3.846-8.59-8.59-8.59M41.108 103.747c-1.214 0-2.198-.984-2.198-2.199 0-1.214.984-2.198 2.198-2.198 1.215 0 2.199.984 2.199 2.198 0 1.215-.984 2.2-2.199 2.2m0-6.856c-2.598 0-4.704 2.106-4.704 4.704s4.704 8.374 4.704 8.374 4.704-5.776 4.704-8.374c0-2.598-2.106-4.704-4.704-4.704" transform="translate(-970 -257) translate(970 257)"/>
                <path fill="#FF9136" d="M258.095 77.022c-.007-.028-.157-.72-.48-1.977-.045-.177-.183-.268-.307-.203-.125.065-.19.26-.143.438.318 1.238.47 1.936.471 1.943.032.148.127.242.23.242.023 0 .046-.006.07-.015.126-.056.197-.248.159-.428M257.098 73.112c-.172-.621-.356-1.265-.547-1.912-.052-.174-.192-.256-.314-.183-.122.073-.18.273-.128.446.19.644.371 1.283.542 1.9.038.133.128.217.224.217.029 0 .058-.009.087-.025.124-.07.184-.268.136-.443M56.665 73.375c-.618.447-1.23.913-1.82 1.384-.16.13-.083.347.174.486.256.138.596.146.757.017.582-.465 1.185-.925 1.798-1.366.047-.035.079-.078.09-.125.03-.116-.056-.257-.234-.36-.25-.142-.593-.16-.765-.036M53.134 76.2c-.55.485-1.092.987-1.61 1.493-.143.139-.04.356.228.486.27.128.601.12.744-.02.512-.498 1.045-.995 1.59-1.475.034-.031.058-.069.067-.108.031-.125-.07-.277-.268-.378-.263-.133-.6-.133-.751.001M255.979 69.306c-.193-.617-.393-1.249-.598-1.877-.055-.17-.197-.245-.318-.165-.12.079-.173.281-.116.453.202.623.402 1.252.593 1.865.039.129.126.204.219.204.032 0 .065-.01.097-.03.122-.076.176-.278.123-.45M50.02 79.235c-.48.515-.952 1.05-1.404 1.588-.126.147-.002.363.276.482.277.12.601.098.726-.05.448-.532.916-1.06 1.39-1.57.026-.027.042-.058.05-.091.033-.133-.084-.294-.303-.395-.273-.123-.602-.108-.735.036M47.31 82.453c-.416.544-.823 1.106-1.211 1.668-.108.155.037.37.32.48.285.109.603.073.708-.082.385-.556.788-1.111 1.199-1.651.017-.023.03-.048.036-.073.035-.142-.099-.312-.336-.408-.28-.115-.602-.086-.716.066M44.98 85.825c-.355.567-.7 1.152-1.03 1.736-.092.16.072.372.361.473.289.101.599.054.69-.107.325-.579.667-1.159 1.018-1.72.012-.019.02-.037.026-.057.036-.148-.113-.326-.367-.42-.288-.106-.599-.063-.698.095M43.008 89.327c-.297.584-.587 1.187-.862 1.793-.075.166.102.375.395.466.296.094.595.035.67-.13.273-.6.56-1.2.853-1.78.008-.012.012-.026.015-.04.039-.157-.126-.34-.393-.43-.292-.097-.596-.043-.678.12M254.762 65.568c-.208-.612-.424-1.232-.642-1.844-.06-.168-.203-.236-.322-.152-.118.087-.165.291-.106.46.216.609.431 1.226.638 1.834.042.122.127.193.217.193.034 0 .07-.011.104-.034.119-.082.169-.287.111-.457M253.458 61.895c-.223-.603-.453-1.212-.684-1.813-.063-.165-.208-.226-.325-.135-.116.09-.159.297-.096.463.23.597.459 1.203.68 1.803.043.116.127.182.213.182.037 0 .076-.013.111-.038.117-.09.163-.296.101-.462M252.071 58.285c-.237-.592-.48-1.192-.724-1.781-.067-.163-.215-.216-.328-.12-.114.095-.153.304-.085.467.243.586.485 1.182.72 1.772.044.11.125.172.209.172.04 0 .08-.014.118-.044.115-.094.156-.302.09-.466M104.179 54.824c-.108-.11-.257-.073-.334.081-.277.556-.555 1.125-.826 1.686-.075.156-.047.368.063.476.04.04.088.059.135.059.077 0 .152-.053.198-.148.27-.56.546-1.124.821-1.678.077-.154.051-.367-.057-.476M250.604 54.741c-.252-.586-.508-1.173-.764-1.746-.07-.16-.218-.207-.33-.106-.113.101-.145.312-.074.471.253.57.508 1.155.759 1.737.045.106.124.164.204.164.043 0 .086-.017.125-.05.113-.1.149-.31.08-.47M105.881 51.516c-.106-.112-.256-.082-.336.068-.288.548-.577 1.104-.858 1.652-.078.153-.055.366.052.478.042.044.093.064.141.064.074 0 .147-.047.194-.139.28-.546.568-1.1.854-1.643.08-.152.059-.365-.047-.48M249.058 51.266c-.263-.572-.534-1.148-.802-1.71-.075-.156-.224-.196-.333-.09-.11.106-.138.318-.064.474.266.56.535 1.132.797 1.702.046.1.123.154.202.154.045 0 .09-.019.131-.056.11-.104.141-.315.07-.474M107.65 48.282c-.103-.117-.254-.094-.337.054-.298.531-.598 1.075-.892 1.614-.082.15-.063.365.042.48.044.048.096.071.147.071.072 0 .143-.045.19-.131.293-.538.591-1.08.888-1.608.082-.148.066-.362-.038-.48M247.434 47.864c-.275-.557-.558-1.12-.84-1.67-.078-.154-.228-.188-.335-.076-.107.111-.13.324-.053.477.28.548.561 1.107.836 1.663.047.094.12.145.197.145.048 0 .096-.02.137-.062.108-.11.135-.322.058-.477M109.486 45.124c-.101-.122-.252-.104-.339.04-.307.517-.62 1.047-.925 1.576-.084.145-.07.36.033.48.044.053.099.079.153.079.069 0 .137-.044.185-.126.303-.524.613-1.053.92-1.568.087-.144.074-.36-.027-.481M245.735 44.54c-.29-.545-.585-1.094-.88-1.63-.08-.15-.232-.177-.336-.06-.104.115-.123.33-.042.479.293.534.587 1.08.875 1.623.047.089.118.136.19.136.052 0 .103-.023.146-.07.105-.113.126-.327.047-.478M111.389 42.046c-.1-.126-.25-.115-.34.025-.32.506-.643 1.023-.959 1.535-.087.142-.077.358.023.482.045.058.102.085.157.085.068 0 .134-.04.181-.116.315-.511.635-1.025.955-1.529.088-.14.08-.355-.017-.482M243.958 41.299c-.301-.533-.61-1.067-.916-1.59-.085-.144-.237-.163-.339-.043-.101.122-.115.336-.03.481.305.52.612 1.052.912 1.58.048.084.117.128.187.128.053 0 .105-.025.15-.077.103-.117.12-.333.036-.48M113.356 39.055c-.095-.13-.246-.127-.339.01-.334.493-.668.996-.992 1.492-.09.138-.084.354.013.482.046.061.104.093.163.093.064 0 .128-.037.175-.11.324-.493.656-.992.987-1.484.092-.136.09-.353-.007-.483M242.107 38.143c-.315-.518-.636-1.037-.955-1.544-.088-.14-.24-.152-.338-.026-.1.126-.108.342-.02.482.318.505.637 1.02.95 1.535.047.077.114.118.181.118.056 0 .112-.027.157-.083.1-.124.111-.339.025-.482M115.39 36.154c-.092-.136-.244-.138-.339-.006-.34.473-.686.96-1.025 1.447-.093.134-.093.35.001.482.047.067.108.1.169.1.062 0 .124-.034.17-.101.338-.484.681-.969 1.02-1.44.095-.131.097-.347.004-.482M240.18 35.08c-.328-.503-.661-1.006-.991-1.495-.092-.136-.244-.14-.34-.01-.095.13-.098.348-.007.483.329.486.66.986.986 1.486.047.073.111.11.176.11.058 0 .117-.03.163-.092.098-.127.103-.344.013-.482M117.49 33.348c-.091-.14-.243-.15-.34-.022-.353.459-.709.929-1.057 1.399-.097.13-.101.345-.01.482.047.071.11.108.174.108.06 0 .119-.032.165-.094.347-.466.7-.935 1.052-1.391.098-.127.104-.344.015-.482M238.18 32.115c-.34-.485-.685-.97-1.029-1.444-.095-.13-.247-.128-.339.007-.092.137-.09.353.005.484.342.471.685.953 1.023 1.436.046.067.108.1.17.1.06 0 .121-.033.168-.1.094-.133.094-.349.001-.483M119.65 30.64c-.086-.144-.237-.16-.338-.037-.363.441-.729.895-1.09 1.348-.098.125-.108.34-.02.483.047.076.113.114.18.114.056 0 .113-.028.16-.086.357-.45.72-.901 1.082-1.341.1-.122.112-.338.027-.481M121.873 28.036c-.082-.148-.234-.17-.337-.053-.374.425-.75.862-1.12 1.296-.102.12-.116.336-.031.481.047.082.115.124.184.124.054 0 .109-.026.154-.079.366-.432.741-.866 1.113-1.288.104-.119.12-.333.037-.481M236.105 29.255c-.35-.468-.708-.935-1.063-1.391-.1-.126-.25-.115-.34.024-.088.141-.08.357.018.484.353.452.71.917 1.058 1.381.046.062.104.092.164.092.063 0 .127-.036.175-.108.09-.138.085-.354-.012-.482M124.157 25.54c-.08-.15-.23-.182-.336-.068-.382.404-.769.822-1.15 1.242-.105.114-.124.329-.043.478.047.087.118.134.19.134.05 0 .102-.023.147-.073.378-.415.763-.83 1.143-1.235.106-.112.128-.326.049-.478M233.96 26.502c-.362-.447-.731-.895-1.1-1.334-.1-.12-.253-.1-.338.044-.084.145-.07.36.03.481.367.436.734.881 1.093 1.325.045.056.102.084.157.084.068 0 .134-.04.182-.118.086-.142.076-.358-.024-.482M126.499 23.156c-.076-.154-.226-.192-.334-.085-.394.388-.79.787-1.18 1.186-.107.11-.131.324-.055.477.047.093.121.142.196.142.048 0 .097-.022.14-.064.387-.398.781-.794 1.172-1.18.109-.107.136-.32.06-.476M231.744 23.865c-.375-.43-.757-.858-1.134-1.273-.104-.116-.255-.088-.337.061-.08.15-.061.364.044.479.374.412.753.838 1.126 1.266.044.05.097.075.15.075.07 0 .14-.044.187-.127.084-.147.067-.362-.036-.48M128.895 20.888c-.072-.158-.22-.204-.332-.102-.402.37-.808.749-1.206 1.128-.11.105-.14.317-.065.474.045.099.121.152.2.152.044 0 .091-.02.132-.059.396-.377.799-.754 1.2-1.12.11-.102.143-.314.071-.473M229.46 21.349c-.386-.409-.778-.816-1.167-1.21-.107-.11-.257-.074-.335.079-.076.153-.051.367.056.476.386.392.776.797 1.16 1.204.042.045.093.067.142.067.074 0 .146-.048.193-.138.08-.15.057-.365-.049-.478M131.346 18.738c-.068-.163-.215-.214-.33-.119-.41.35-.825.71-1.232 1.069-.113.1-.148.31-.078.47.045.105.124.162.205.162.043 0 .086-.016.125-.052.407-.358.818-.714 1.227-1.061.113-.097.15-.306.083-.469M227.11 18.96c-.396-.387-.799-.773-1.198-1.147-.111-.104-.26-.06-.333.098-.073.157-.042.37.07.473.395.372.797.754 1.19 1.138.041.041.089.06.135.06.078 0 .152-.052.198-.147.075-.156.047-.37-.061-.476M133.847 16.71c-.065-.166-.21-.226-.327-.135-.42.33-.843.668-1.258 1.007-.115.094-.154.302-.088.466.044.11.125.172.208.172.04 0 .082-.015.12-.045.412-.337.832-.675 1.25-1.001.116-.092.158-.3.095-.465M224.698 16.701c-.403-.362-.817-.725-1.23-1.08-.113-.096-.26-.044-.329.117-.068.161-.031.372.082.469.41.352.82.713 1.22 1.072.041.036.085.052.128.052.08 0 .158-.056.204-.158.07-.16.037-.372-.075-.472M136.395 14.803c-.06-.168-.204-.234-.323-.15-.426.309-.857.627-1.282.946-.117.088-.161.295-.1.461.044.117.127.182.213.182.038 0 .076-.012.112-.04.421-.317.85-.632 1.275-.94.118-.084.165-.29.105-.459M222.224 14.578c-.415-.343-.838-.682-1.257-1.01-.116-.09-.262-.03-.326.134-.063.166-.021.373.095.465.416.325.836.663 1.25 1.003.037.03.078.045.118.045.084 0 .165-.062.209-.171.066-.164.027-.372-.089-.466M138.987 13.023c-.056-.17-.198-.244-.32-.165-.432.287-.87.583-1.302.883-.12.082-.17.287-.111.456.041.122.127.193.216.193.035 0 .071-.013.105-.036.429-.296.865-.591 1.295-.876.12-.08.173-.282.117-.455M219.696 12.594c-.426-.318-.858-.633-1.285-.938-.118-.085-.263-.017-.321.151-.06.17-.012.375.106.46.425.301.855.616 1.277.931.035.028.074.04.111.04.086 0 .17-.067.212-.183.063-.167.017-.373-.1-.46M141.62 11.37c-.052-.173-.192-.254-.315-.18-.44.265-.884.541-1.323.818-.121.077-.176.278-.122.451.04.127.128.202.22.202.032 0 .065-.01.097-.028.436-.276.879-.55 1.317-.815.121-.073.178-.274.126-.448M217.114 10.753c-.432-.292-.873-.585-1.31-.865-.12-.078-.263-.003-.317.17-.055.172-.001.374.12.452.434.28.871.568 1.3.86.034.022.07.033.104.033.09 0 .175-.072.216-.194.058-.17.007-.374-.113-.456M144.291 9.844c-.048-.176-.186-.263-.31-.196-.447.246-.898.5-1.343.755-.122.071-.18.27-.13.444.036.134.126.215.22.215.032 0 .061-.009.091-.026.442-.254.89-.507 1.335-.75.124-.069.185-.265.137-.442M214.484 9.059c-.44-.27-.89-.536-1.332-.793-.123-.07-.263.013-.313.188-.05.175.01.374.132.445.44.256.886.52 1.324.787.03.019.062.027.094.027.093 0 .181-.076.22-.206.052-.173-.003-.375-.125-.448M146.997 8.446c-.044-.18-.182-.274-.306-.21-.452.223-.91.455-1.36.69-.123.065-.187.26-.141.437.035.138.126.225.224.225.028 0 .056-.007.083-.02.447-.235.902-.465 1.352-.688.125-.063.191-.257.148-.434M149.732 7.172c-.039-.179-.173-.28-.3-.224-.46.204-.923.416-1.374.627-.126.06-.194.253-.153.432.034.143.127.235.227.235.025 0 .051-.006.076-.018.45-.21.91-.42 1.367-.623.126-.057.197-.248.157-.429M211.809 7.511c-.445-.243-.9-.485-1.352-.719-.125-.064-.262.028-.308.205-.045.178.02.373.143.437.45.233.903.473 1.345.715.028.015.058.022.085.022.097 0 .189-.083.225-.219.047-.176-.014-.374-.138-.44M152.496 6.026c-.036-.182-.168-.288-.296-.238-.463.183-.93.373-1.387.565-.128.053-.2.243-.163.424.03.15.127.245.23.245.022 0 .045-.004.068-.014.455-.191.92-.38 1.38-.561.128-.05.203-.238.168-.421M209.095 6.112c-.454-.22-.915-.436-1.372-.643-.126-.058-.261.04-.302.22-.04.181.03.373.156.43.454.206.913.422 1.363.64.025.012.05.018.077.018.1 0 .193-.09.227-.232.043-.177-.025-.372-.15-.433M155.283 5.006c-.032-.184-.162-.297-.29-.252-.467.161-.937.33-1.4.502-.128.047-.205.234-.171.416.028.155.126.256.232.256.02 0 .04-.003.06-.011.46-.171.929-.338 1.392-.499.129-.045.208-.23.177-.412M206.344 4.862c-.458-.195-.924-.386-1.387-.57-.127-.05-.26.057-.295.238-.035.182.039.37.166.42.46.183.924.372 1.378.566.024.01.047.015.07.015.103 0 .198-.095.23-.244.038-.18-.035-.37-.162-.425M158.09 4.105c-.027-.184-.154-.302-.284-.264l-.66.204c-.25.078-.5.157-.749.238-.13.042-.21.225-.181.41.026.158.125.265.234.265.017 0 .036-.003.054-.008.247-.081.495-.16.745-.237l.657-.204c.13-.038.212-.22.184-.404M203.563 3.761c-.462-.17-.933-.337-1.4-.496-.13-.044-.26.07-.29.253-.03.183.05.367.178.411.464.159.933.324 1.392.493.02.007.04.011.06.011.107 0 .204-.102.232-.257.033-.181-.043-.368-.172-.415M160.914 3.296c-.025-.184-.15-.306-.281-.27-.468.127-.944.261-1.415.397-.13.037-.214.218-.188.403.023.162.124.274.235.274.016 0 .032-.003.048-.007.47-.135.945-.27 1.41-.396.13-.036.216-.215.19-.4M200.756 2.806c-.467-.146-.943-.288-1.413-.422-.13-.038-.256.082-.282.266-.026.186.057.365.188.403.466.133.94.275 1.404.42.018.005.035.008.051.008.11 0 .21-.11.235-.268.028-.184-.053-.366-.183-.407M163.748 2.578c-.022-.186-.146-.312-.276-.28-.471.113-.95.232-1.421.352-.131.034-.218.212-.194.398.02.164.122.28.236.28.014 0 .028-.002.043-.006.47-.12.946-.239 1.416-.35.13-.032.218-.208.196-.394M197.926 1.996c-.47-.122-.949-.24-1.422-.351-.13-.03-.254.095-.275.283-.022.185.067.36.197.392.47.109.946.226 1.414.348.015.004.029.006.043.006.113 0 .215-.115.236-.28.023-.186-.063-.364-.193-.398M166.593 1.95c-.02-.186-.14-.316-.271-.289-.474.097-.954.201-1.427.306-.13.03-.22.205-.2.39.019.169.12.29.237.29.012 0 .025-.002.038-.005.471-.105.95-.207 1.42-.305.131-.027.222-.2.203-.388M169.448 1.42c-.016-.188-.135-.322-.266-.3-.473.082-.954.168-1.431.258-.132.025-.224.197-.207.384.015.173.12.297.237.297l.032-.003c.476-.09.956-.176 1.426-.257.132-.023.225-.192.21-.38M195.079 1.33c-.472-.1-.953-.193-1.43-.28-.133-.025-.252.107-.269.294-.017.186.076.358.207.383.474.086.952.18 1.422.278.011.003.023.004.034.004.117 0 .22-.123.238-.292.02-.187-.072-.36-.202-.388M172.05.682c-.475.064-.958.134-1.435.206-.132.02-.227.188-.213.376.013.176.118.306.239.306l.025-.003c.475-.073.956-.142 1.43-.206.131-.018.228-.185.215-.372-.012-.188-.13-.325-.26-.307M192.217.802c-.477-.077-.96-.148-1.436-.212-.132-.018-.249.119-.261.308-.013.187.083.353.216.371.473.066.953.137 1.427.212l.027.003c.12 0 .224-.13.238-.304.015-.188-.08-.356-.211-.378M174.926.347c-.476.047-.96.097-1.439.153-.132.016-.23.18-.22.369.011.179.116.313.24.313h.02c.476-.056.958-.108 1.432-.155.132-.012.232-.175.222-.363-.008-.189-.12-.33-.255-.317M189.344.411c-.475-.054-.959-.104-1.44-.146-.134-.012-.246.131-.254.318-.009.189.092.351.224.364.478.042.96.091 1.432.144.006.002.013.002.019.002.124 0 .23-.135.239-.314.01-.189-.089-.353-.22-.368M177.807.122c-.475.027-.96.06-1.44.098-.133.011-.235.17-.227.36.007.182.112.323.239.323l.014-.001c.479-.037.961-.07 1.434-.097.133-.009.236-.169.23-.357-.006-.188-.12-.333-.25-.326M186.464.152c-.477-.033-.962-.06-1.443-.083-.13-.004-.243.143-.248.331-.004.189.1.346.233.353.478.022.96.049 1.435.08h.011c.128 0 .233-.142.24-.325.006-.188-.096-.348-.228-.356M180.695.01h-.003c-.476.01-.961.023-1.442.042-.133.005-.237.161-.233.35.002.185.11.333.239.333h.006c.48-.02.963-.033 1.436-.041.133-.003.24-.157.237-.346-.002-.187-.108-.337-.24-.337M183.579.019c-.479-.01-.964-.018-1.443-.019h-.001c-.133 0-.24.153-.24.34 0 .19.107.343.24.343.477.001.96.008 1.436.02h.004c.13 0 .238-.15.24-.337.002-.188-.104-.344-.236-.347" transform="translate(-970 -257) translate(970 257)"/>
                <path fill="#FF9D00" d="M94.892 91.473c-5.718 10.305-14.509 21.097-14.509 21.097S61.028 88.813 61.028 78.127c0-6.054 2.783-11.467 7.155-15.029.734 3.501 1.927 7.507 3.838 11.374-.444 1.07-.688 2.232-.688 3.456 0 5 4.051 9.035 9.05 9.035.673 0 1.346-.076 1.972-.23 3.379 2.31 7.507 4.006 12.537 4.74" transform="translate(-970 -257) translate(970 257)"/>
                <path fill="#BEBDC0" d="M186.244 77.655L181.123 67.412 184.176 65.885 189.298 76.128z" transform="translate(-970 -257) translate(970 257)"/>
                <path fill="#B9B7BD" d="M210.818 126.4c-2.357 0-4.267-1.91-4.267-4.268 0-2.357 1.91-4.268 4.267-4.268 2.358 0 4.268 1.91 4.268 4.268 0 2.357-1.91 4.268-4.268 4.268" transform="translate(-970 -257) translate(970 257)"/>
                <g transform="translate(-970 -257) translate(970 257) translate(197.866 109.138)">
                    <mask id="g3s56u57pd" fill="#fff">
                        <use xlink:href="#abar2btbvc"/>
                    </mask>
                    <path fill="#514B5B" d="M12.952 20.676c-4.243 0-7.682-3.44-7.682-7.682 0-4.243 3.44-7.683 7.682-7.683 4.243 0 7.682 3.44 7.682 7.683s-3.44 7.682-7.682 7.682m0-20.486C5.881.19.148 5.923.148 12.994c0 7.071 5.733 12.804 12.804 12.804 7.071 0 12.804-5.733 12.804-12.804C25.756 5.923 20.023.19 12.952.19" mask="url(#g3s56u57pd)"/>
                </g>
                <path fill="#DCDBDE" d="M210.767 123.732c-.58 0-1.145-.295-1.466-.827l-8.397-13.978c-.485-.809-.224-1.857.585-2.343.809-.487 1.857-.222 2.343.584l8.397 13.978c.485.808.224 1.857-.585 2.343-.276.165-.579.243-.877.243" transform="translate(-970 -257) translate(970 257)"/>
                <path fill="#56A2AD" d="M199.366 113.49h16.019c.644 0 1.234-.367 1.519-.945l.885-1.794c.466-.944.23-2.072-.562-2.767-1.871-1.64-6.047-4.335-14.091-5.485l-3.77 10.99z" transform="translate(-970 -257) translate(970 257)"/>
                <g transform="translate(-970 -257) translate(970 257) translate(127.987 109.138)">
                    <mask id="vckgllw1jf" fill="#fff">
                        <use xlink:href="#iqqi5foive"/>
                    </mask>
                    <path fill="#514B5B" d="M12.837 20.676c-4.243 0-7.683-3.44-7.683-7.682 0-4.243 3.44-7.683 7.683-7.683 4.242 0 7.682 3.44 7.682 7.683s-3.44 7.682-7.682 7.682m0-20.486C5.766.19.033 5.923.033 12.994c0 7.071 5.733 12.804 12.804 12.804 7.071 0 12.804-5.733 12.804-12.804C25.64 5.923 19.908.19 12.837.19" mask="url(#vckgllw1jf)"/>
                </g>
                <path fill="#DCDBDE" d="M157.896 126.4h-17.072c-2.357 0-4.268-1.91-4.268-4.268 0-2.357 1.91-4.268 4.268-4.268h17.072c2.357 0 4.268 1.91 4.268 4.268 0 2.357-1.911 4.268-4.268 4.268" transform="translate(-970 -257) translate(970 257)"/>
                <path fill="#56A2AD" d="M187.771 121.279l2.954-16.244c.304-1.671.248-3.388-.164-5.036l-4.497-19.693h5.122l8.536 22.194-5.122 18.779h-6.829z" transform="translate(-970 -257) translate(970 257)"/>
                <path fill="#76C6CD" d="M198.138 120.726l7.24-15.689c.731-1.582.607-3.426-.328-4.896l-9.743-15.31c-.401-.63-1.215-.856-1.885-.521h-.002c-1.291.646-1.931 2.127-1.517 3.51l2.814 9.378c1.044 3.48 1.217 7.165.504 10.73l-1.78 8.898c-.318 1.597-1.72 2.745-3.347 2.745h-17.687l3.414-18.779-3.414-5.121-22.194-1.708-13.045 1.45c-1.32.147-2.32 1.263-2.32 2.592 0 .691.275 1.355.764 1.844l2.65 2.65s-13.657 3.415-13.657 11.95v1.708c0 .943.765 1.707 1.707 1.707h25.901c.906 0 1.774.36 2.414 1l4.83 4.829c.64.64 1.508 1 2.413 1h30.068c2.664 0 5.084-1.55 6.2-3.967" transform="translate(-970 -257) translate(970 257)"/>
                <path fill="#56A2AD" d="M175.821 100.792l-3.414-5.122-22.194-1.707-13.045 1.45c-1.32.146-2.32 1.263-2.32 2.592 0 .691.275 1.355.765 1.843l2.65 2.651h37.247l.311-1.707zM196.307 82.013h-8.536c-1.885 0-3.414-1.529-3.414-3.414 0-1.886 1.529-3.415 3.414-3.415h8.536v6.83z" transform="translate(-970 -257) translate(970 257)"/>
                <path fill="#625D6B" d="M187.771 80.306c-.436 0-.873-.167-1.206-.5l-1.208-1.207h-4.414c-.944 0-1.708-.765-1.708-1.707 0-.943.764-1.708 1.708-1.708h4.414c.899 0 1.779.365 2.414 1l1.207 1.208c.667.667.667 1.747 0 2.414-.333.333-.77.5-1.207.5" transform="translate(-970 -257) translate(970 257)"/>
                <path fill="#BEBDC0" d="M196.307 82.013H194.6v-6.829h1.707c.943 0 1.708.765 1.708 1.708v3.414c0 .943-.765 1.707-1.708 1.707" transform="translate(-970 -257) translate(970 257)"/>
                <path fill="#DCDBDE" d="M140.824 117.864c2.357 0 4.268 1.91 4.268 4.268 0 2.357-1.911 4.268-4.268 4.268-2.357 0-4.268-1.91-4.268-4.268 0-2.357 1.91-4.268 4.268-4.268" transform="translate(-970 -257) translate(970 257)"/>
                <path fill="#625D6B" d="M146.799 94.48c0 .744.372 1.438.99 1.85l5.813 3.875c2.243 1.496 4.879 2.294 7.575 2.294h14.27c1.077 0 1.885-.985 1.673-2.042l-.2-1.004c-.64-3.192-3.441-5.49-6.697-5.49h-9.162c-1.535 0-3.064-.188-4.554-.56l-2.343-.586c-1.49-.373-3.02-.561-4.555-.561h-.586c-1.228 0-2.224.996-2.224 2.224" transform="translate(-970 -257) translate(970 257)"/>
                <path fill="#56A2AD" d="M156.018 111.377l5.122 6.828c.644.86 1.656 1.366 2.73 1.366h8.537l2.483-13.657h-16.14c-2.814 0-4.42 3.212-2.732 5.463" transform="translate(-970 -257) translate(970 257)"/>
                <path fill="#BEBDC0" d="M182.65 71.77h-1.707c-.943 0-1.708-.764-1.708-1.707v-3.415c0-.942.765-1.707 1.708-1.707h1.707c1.886 0 3.414 1.529 3.414 3.414 0 1.886-1.528 3.415-3.414 3.415" transform="translate(-970 -257) translate(970 257)"/>
                <path fill="#FFB27D" d="M163.416 62.634c-3.009 1.221-8.508-1.39-8.508-1.39s1.826-1.616 2.173-4.676c.018-.155.031-.312.041-.473l1.555-.553 2.664 1.814s.065.892-.03 2.454c-.016.272-.037.565-.065.878 1.383.62 2.17 1.946 2.17 1.946" transform="translate(-970 -257) translate(970 257)"/>
                <path fill="#ED975D" d="M161.341 57.356s.064.892-.03 2.454c-2.425-.44-3.759-2.4-4.23-3.243.018-.154.031-.311.041-.472l1.555-.553 2.664 1.814z" transform="translate(-970 -257) translate(970 257)"/>
                <path fill="#FFB27D" d="M161.833 58.656s-5.18-.169-5.026-3.394c.155-3.225-.41-5.418 2.905-5.447 3.314-.028 3.898 1.233 4.108 2.322.21 1.089-.635 6.48-1.987 6.519" transform="translate(-970 -257) translate(970 257)"/>
                <path fill="#2B478B" d="M157.081 56.567s-.202-1.072.381-1.78c0 0-.376-1.052.029-1.287.404-.236.615.663.792.493.178-.169.962-.964 1.203-2.013.24-1.05 3.833-.298 4.258-.171.423.127-2.384-5.112-5.416-3.872-3.032 1.241-3.26 2.798-2.91 4.059.35 1.261.32 4.312 1.663 4.571" transform="translate(-970 -257) translate(970 257)"/>
                <path fill="#6BB7BF" d="M152.126 87.346s.359 6.329 1.8 8.132c1.44 1.803 29.058 1.103 29.058 1.103s.12-4.058-.96-5.101c-1.081-1.044-6.125-4.04-22.226-5.74l-7.672 1.606z" transform="translate(-970 -257) translate(970 257)"/>
                <path fill="#F99746" d="M151.757 74.1c.45 5.436-.143 13.704.369 15.137.44 1.235 5.463.5 7.467.089.742-.154 1.642-.371 2.57-.63 2.589-.719 5.41-1.747 5.713-2.51.012-.03.021-.059.028-.088.028-.11.022-.215-.005-.32-.075-.287-.307-.593-.442-1.122-.047-.186-.082-.4-.094-.651-.046-.985-.044-2.129-.078-3.36l-.01-.342c-.003-.154-.005-.32-.023-.473l-.002-.056c0-.03 0-.058-.002-.087-.043-1.519-.132-3.114-.234-4.698-.033-.494-.067-.985-.106-1.47-.012-.172-.026-.342-.04-.512-.026-.316-.052-.631-.081-.941-.226-2.435-.53-4.601-.933-5.97-.658-2.232-2.11-3.687-3.43-4.754l-.956-.736c-1.067.21-2.327.07-3.468-.414-1.233-.527-1.66-.904-1.875-.761-2.85 1.974-4.9 8.023-4.368 14.67" transform="translate(-970 -257) translate(970 257)"/>
                <path fill="#1C4575" d="M173.047 117.402s.245 3.94 1.007 3.996c.1.007 3.865.007 3.865.007l4.805-.028s-.031-1.158-1.436-1.402c-1.404-.245-3.755-1.232-4.606-3.089-.895-1.952-3.635.516-3.635.516" transform="translate(-970 -257) translate(970 257)"/>
                <path fill="#6BB7BF" d="M172.043 117.658s.929.715 2.822.806c.487.023.934-.002 1.325-.053 1.043-.132 1.695-.433 1.695-.433l5.099-21.397s-5.524-4.826-8.405-1.826c-.376.392-.697 1.07-.97 1.955-1.828 5.9-1.566 20.948-1.566 20.948" transform="translate(-970 -257) translate(970 257)"/>
                <path fill="#ED7D2B" d="M159.797 69.968s3.576 13.092 7.66 14.688c-.047-.186-.082-.4-.094-.651-.047-.985-.044-2.129-.078-3.36l-.01-.342c-.003-.153-.005-.32-.023-.473l-.002-.056-.002-.087c-.043-1.519-.132-3.115-.234-4.698-.032-.494-.068-.985-.106-1.47-1.797-2.172-4.237-3.733-7.11-3.55" transform="translate(-970 -257) translate(970 257)"/>
                <path fill="#FFB27D" d="M181.247 75.012s1.557.12 1.957 0c.4-.12 2.281-1.241 2.962-1.001.68.24 2.401 2.001 1.961 2.802 0 0-.8.02-1.541-.741-.74-.76-1.541-.24-1.46-.14.08.1 1.24.56 1.04.76-.2.2-1.721.16-2.082-.08-.36-.24-3.041.06-3.041.06l.204-1.66z" transform="translate(-970 -257) translate(970 257)"/>
                <path fill="#F99746" d="M159.797 63.064s9.684 8.255 12.233 9.05c2.549.796 11.554 2.546 11.554 2.546s.248 2.133-.596 2.933c0 0-11.571-.67-13.012-.976-1.441-.305-12.177-5.868-13.053-6.289-.876-.42-.74-7.944 2.874-7.264" transform="translate(-970 -257) translate(970 257)"/>
                <path fill="#5AA9AD" d="M172.043 117.658s.929.715 2.822.806c.487.023.934-.002 1.325-.053-2.908-3.678-2.582-21.7-2.582-21.7-1.827 5.899-1.565 20.947-1.565 20.947" transform="translate(-970 -257) translate(970 257)"/>
            </g>
        </g>
    </g>
</svg>
