<?xml version="1.0" encoding="UTF-8"?>
<svg width="80px" height="80px" viewBox="0 0 80 80" version="1.1" xmlns="http://www.w3.org/2000/svg" xmlns:xlink="http://www.w3.org/1999/xlink">
    <title>SCOOTER FREQ</title>
    <defs>
        <rect id="path-1" x="0" y="0" width="80" height="80"></rect>
        <polygon id="path-3" points="0 0.0982193027 88.5714286 0.0982193027 88.5714286 0.310460339 0 0.310460339"></polygon>
        <polygon id="path-5" points="0.0606403258 0.0645757506 35.0820086 0.0645757506 35.0820086 1.93540089 0.0606403258 1.93540089"></polygon>
        <polygon id="path-7" points="0.298367879 31.4802011 88.8697965 31.4802011 88.8697965 0 0.298367879 0"></polygon>
        <polygon id="path-9" points="0.0821270305 0.0317396701 11.6423759 0.0317396701 11.6423759 11.7312949 0.0821270305 11.7312949"></polygon>
        <polygon id="path-11" points="0.03893843 0.0317396701 11.5991873 0.0317396701 11.5991873 11.7312949 0.03893843 11.7312949"></polygon>
        <polygon id="path-13" points="0 0.0446504453 36.6765421 0.0446504453 36.6765421 18.5654911 0 18.5654911"></polygon>
    </defs>
    <g id="Desktop" stroke="none" stroke-width="1" fill="none" fill-rule="evenodd">
        <g id="SCOOTER-FREQ">
            <mask id="mask-2" fill="white">
                <use xlink:href="#path-1"></use>
            </mask>
            <g id="Mask"></g>
            <g id="scooter-Frequently" mask="url(#mask-2)">
                <g transform="translate(-23.000000, 24.000000)" id="Group-7-Copy">
                    <path d="M81.0436839,46.4841117 C95.5185646,48.1180943 85.6835062,51.5122038 63.2896776,52.6774059 C40.895849,53.8426081 9.12893873,51.6671113 3.86171226,49.0996348 C-1.40551421,46.5321582 66.5688032,44.8501291 81.0436839,46.4841117 Z" id="Background-Shape-Copy-4" fill="#D9E3E9"></path>
                    <g id="Group-38" opacity="0.239467076">
                        <g id="Group-3" transform="translate(1.389366, 31.312338)">
                            <mask id="mask-4" fill="white">
                                <use xlink:href="#path-3"></use>
                            </mask>
                            <g id="Clip-2"></g>
                            <path d="M97.6743718,0.310470688 L-11.3332983,0.310470688 C-11.3857115,0.310470688 -11.4286458,0.262763283 -11.4286458,0.204396739 C-11.4286458,0.146030195 -11.3857115,0.0982193027 -11.3332983,0.0982193027 L97.6743718,0.0982193027 C97.7266921,0.0982193027 97.7696264,0.146030195 97.7696264,0.204396739 C97.7696264,0.262763283 97.7266921,0.310470688 97.6743718,0.310470688" id="Fill-1" fill="#283250" mask="url(#mask-4)"></path>
                        </g>
                        <g id="Group-6" transform="translate(6.536137, 0.000000)">
                            <mask id="mask-6" fill="white">
                                <use xlink:href="#path-5"></use>
                            </mask>
                            <g id="Clip-5"></g>
                            <path d="M35.0820086,1.93540089 L0.0606403258,1.93540089 L0.0606403258,0.905470885 C0.0606403258,0.441022217 0.455118472,0.0645668803 0.941709683,0.0645668803 L33.2501577,0.0645668803 C33.5375579,0.0645668803 33.8069259,0.198330935 33.9718185,0.423015518 L35.0820086,1.93540089 Z" id="Fill-4" fill="#C3C9D2" mask="url(#mask-6)"></path>
                        </g>
                        <polygon id="Fill-7" fill="#C3C9D2" points="6.53613696 1.4990572 6.53613696 2.2485858 41.1936712 2.2485858 40.7489287 1.4990572"></polygon>
                        <path d="M78.1053674,2.2485858 L4.28188197,2.2485858 C3.03030677,2.2485858 2.01558901,3.24507111 2.01558901,4.47436216 L2.01558901,24.7392466 C2.01558901,25.2854763 2.41233686,25.7539213 2.959203,25.8533687 L9.1728718,26.9830295 L16.0757073,26.9830295 C16.0757073,24.5956511 18.0464171,22.6601735 20.4773469,22.6601735 C22.9082767,22.6601735 24.8788934,24.5956511 24.8788934,26.9830295 L65.9603974,26.9830295 C65.9603974,24.5956511 67.931014,22.6601735 70.3619439,22.6601735 C72.7928737,22.6601735 74.7635834,24.5956511 74.7635834,26.9830295 L79.2485186,26.9830295 C79.8688152,26.9830295 80.3717534,26.4892657 80.3717534,25.8800587 L80.3717534,4.47436216 C80.3717534,3.24507111 79.3569426,2.2485858 78.1053674,2.2485858" id="Fill-9" fill="#C3C9D2"></path>
                        <path d="M74.3443561,24.7344437 C74.8021209,25.3744777 75.0701108,26.1488034 75.0701108,26.9830295 L79.3099116,26.9830295 C79.8963045,26.9830295 80.3717534,26.5279205 80.3717534,25.9664059 C80.3717534,25.286017 79.7957423,24.7344437 79.0852083,24.7344437 L74.3443561,24.7344437 Z" id="Fill-11" fill="#7F7F7F"></path>
                        <path d="M24.6183287,24.7344437 C25.0976394,25.3744777 25.378297,26.1488034 25.378297,26.9830295 L66.0501413,26.9830295 C66.0501413,26.1488034 66.3307989,25.3744777 66.8101096,24.7344437 L24.6183287,24.7344437 Z" id="Fill-15" fill="#7F7F7F"></path>
                        <mask id="mask-8" fill="white">
                            <use xlink:href="#path-7"></use>
                        </mask>
                        <g id="Clip-18"></g>
                        <polyline id="Fill-20" fill="#AFAFAF" mask="url(#mask-8)" points="79.6183287 18.738215 80.3717534 18.738215 80.3717534 23.2353865 79.6183287 23.2353865"></polyline>
                        <path d="M80.3717534,16.4896292 L80.3717534,16.4896292 L80.3717534,6.84178348 C80.3717534,5.96085175 79.6694885,5.24670019 78.8032193,5.24670019 L75.1595584,5.24670019 C74.2932893,5.24670019 73.5909315,5.96085175 73.5909315,6.84178348 L73.5909315,9.5941285 C73.5909315,13.4024017 76.6268667,16.4896292 80.3717534,16.4896292" id="Fill-21" fill="#163560" mask="url(#mask-8)"></path>
                        <path d="M30.7256201,16.4896292 L48.6480236,16.4896292 C49.5244434,16.4896292 50.2347671,15.7754776 50.2347671,14.8945459 L50.2347671,6.84178348 C50.2347671,5.96085175 49.5244434,5.24670019 48.6480236,5.24670019 L30.7256201,5.24670019 C29.8492943,5.24670019 29.1388767,5.96085175 29.1388767,6.84178348 L29.1388767,14.8945459 C29.1388767,15.7754776 29.8492943,16.4896292 30.7256201,16.4896292" id="Fill-22" fill="#AFAFAF" mask="url(#mask-8)"></path>
                        <path d="M66.1170346,16.4896292 L70.5168832,16.4896292 C71.3823222,16.4896292 72.0840822,15.7754776 72.0840822,14.8945459 L72.0840822,6.84178348 C72.0840822,5.96085175 71.3823222,5.24670019 70.5168832,5.24670019 L66.1170346,5.24670019 C65.2515028,5.24670019 64.5498356,5.96085175 64.5498356,6.84178348 L64.5498356,14.8945459 C64.5498356,15.7754776 65.2515028,16.4896292 66.1170346,16.4896292" id="Fill-23" fill="#AFAFAF" mask="url(#mask-8)"></path>
                        <path d="M80.3717534,16.4896292 L80.3717534,16.4896292 L80.3717534,6.84178348 C80.3717534,5.96085175 79.6694885,5.24670019 78.8032193,5.24670019 L75.1595584,5.24670019 C74.2932893,5.24670019 73.5909315,5.96085175 73.5909315,6.84178348 L73.5909315,9.5941285 C73.5909315,13.4024017 76.6268667,16.4896292 80.3717534,16.4896292" id="Fill-24" fill="#AFAFAF" mask="url(#mask-8)"></path>
                        <path d="M5.83987098,16.4896292 L25.3146873,16.4896292 C26.1784568,16.4896292 26.8786027,15.7754776 26.8786027,14.8945459 L26.8786027,6.84178348 C26.8786027,5.96085175 26.1784568,5.24670019 25.3146873,5.24670019 L5.83987098,5.24670019 C4.9761015,5.24670019 4.27586299,5.96085175 4.27586299,6.84178348 L4.27586299,14.8945459 C4.27586299,15.7754776 4.9761015,16.4896292 5.83987098,16.4896292" id="Fill-25" fill="#163560" mask="url(#mask-8)"></path>
                        <path d="M5.83987098,16.4896292 L25.3146873,16.4896292 C26.1784568,16.4896292 26.8786027,15.7754776 26.8786027,14.8945459 L26.8786027,6.84178348 C26.8786027,5.96085175 26.1784568,5.24670019 25.3146873,5.24670019 L5.83987098,5.24670019 C4.9761015,5.24670019 4.27586299,5.96085175 4.27586299,6.84178348 L4.27586299,14.8945459 C4.27586299,15.7754776 4.9761015,16.4896292 5.83987098,16.4896292" id="Fill-26" fill="#AFAFAF" mask="url(#mask-8)"></path>
                        <path d="M62.3091686,5.24670019 L56.8181975,5.24670019 L56.1684494,5.24670019 L52.4755272,5.24670019 C52.0701679,5.24670019 51.7416164,5.56886933 51.7416164,5.9663543 L51.7416164,26.9830295 L56.1684494,26.9830295 L56.8181975,26.9830295 L63.0429863,26.9830295 L63.0429863,5.9663543 C63.0429863,5.56886933 62.7145279,5.24670019 62.3091686,5.24670019" id="Fill-27" fill="#AFAFAF" mask="url(#mask-8)"></path>
                        <path d="M24.6183287,27.3577938 C24.6183287,29.6345602 22.7631152,31.4802011 20.4745403,31.4802011 C18.185871,31.4802011 16.3306575,29.6345602 16.3306575,27.3577938 C16.3306575,25.0810275 18.185871,23.2353865 20.4745403,23.2353865 C22.7631152,23.2353865 24.6183287,25.0810275 24.6183287,27.3577938" id="Fill-28" fill="#AFAFAF" mask="url(#mask-8)"></path>
                        <path d="M74.3443561,27.3577938 C74.3443561,29.6345602 72.4891426,31.4802011 70.2005677,31.4802011 C67.9118984,31.4802011 66.0566849,29.6345602 66.0566849,27.3577938 C66.0566849,25.0810275 67.9118984,23.2353865 70.2005677,23.2353865 C72.4891426,23.2353865 74.3443561,25.0810275 74.3443561,27.3577938" id="Fill-29" fill="#AFAFAF" mask="url(#mask-8)"></path>
                        <path d="M43.4560295,19.4913401 L43.4559295,19.4912401 C43.4570295,19.4913401 43.4580295,19.4914401 43.4590295,19.4915401 C43.4581295,19.4914401 43.4570295,19.4914401 43.4560295,19.4913401" id="Fill-30" fill="#163560" mask="url(#mask-8)"></path>
                        <path d="M53.2484657,23.2353865 L53.2483746,23.2353865 C52.7304692,23.2154418 52.1924341,23.2047167 51.6334496,23.2047167 C51.6334496,23.2047167 48.5396796,20.4315456 44.9607945,19.4877436 C48.6404189,20.4262772 53.2484657,23.2353865 53.2484657,23.2353865" id="Fill-31" fill="#7F7F7F" mask="url(#mask-8)"></path>
                        <path d="M34.3928498,24.9382067 L34.3928498,21.8468073 C34.3928498,21.8468073 37.9508561,21.4322776 40.1025642,20.6378891 C45.0839221,18.7726958 47.760837,18.738215 52.2846425,18.738215 C55.719268,18.738215 59.1977851,21.0826251 60.6737879,22.2115629 C61.1713179,22.5921817 61.7744299,22.8023912 62.3964589,22.8162595 C67.8295917,22.9375597 71.1882691,24.0431304 72.8563321,24.7894547 C73.637992,25.1392022 74.1410202,25.9287463 74.1410202,26.7988406 L74.1410202,27.8396291 C74.2533116,27.8396291 74.3443561,27.9324329 74.3443561,28.0468939 L74.3443561,29.7738791 C74.3443561,29.8883402 74.2533116,29.9811439 74.1410202,29.9811439 L71.8198966,29.9811439 L70.8989208,29.9811439 C71.2200462,29.3944952 71.3972895,28.7147578 71.3793975,27.9910407 C71.3287033,25.9298862 69.6771345,24.2512501 67.6549576,24.2056557 C65.5099591,24.1573065 63.7563496,25.915163 63.7563496,28.0904937 C63.7563496,28.7769752 63.931636,29.4214719 64.2381309,29.9811439 L44.2899614,29.9811439 C44.61118,29.3944952 44.7883302,28.7147578 44.7704381,27.9910407 C44.7197439,25.9298862 43.0682683,24.2512501 41.0459982,24.2056557 C38.9010929,24.1573065 37.1473902,25.915163 37.1473902,28.0904937 C37.1473902,28.7769752 37.3226766,29.4214719 37.6291716,29.9811439 L36.8326948,29.9811439 C34.076011,29.9811439 33.6853674,27.1075531 33.6594246,25.6987792 C33.651913,25.280735 33.98273,24.9382067 34.3928498,24.9382067" id="Fill-32" fill="#C4C4C4" mask="url(#mask-8)"></path>
                        <path d="M54.1513182,19.6487476 C57.3514622,20.4606071 60.7827123,23.2353865 60.7827123,23.2353865 L51.7000192,23.0405669 C51.3437422,23.0329679 51.0229035,22.8226652 50.8730966,22.4985673 L49.4813424,19.4877436 L52.8491071,19.4877436 C53.2881994,19.4877436 53.725681,19.5407467 54.1513182,19.6487476" id="Fill-33" fill="#7F7F7F" mask="url(#mask-8)"></path>
                        <path d="M48.9098054,19.4877436 L50.2055611,22.0657469 C50.3051087,22.2639262 50.1379765,22.48577 49.8890112,22.485858 C48.5816064,22.4863553 45.1489466,22.4442109 43.1729169,22.014237 C42.6981883,21.9109664 42.5388544,21.3921881 42.8920848,21.0979295 C43.6950123,20.4288862 45.4410428,19.4877436 48.9098054,19.4877436" id="Fill-34" fill="#7F7F7F" mask="url(#mask-8)"></path>
                        <path d="M24.6183287,25.4839723 L24.9670102,25.4839723 C25.1622267,25.4839723 25.3405169,25.3620894 25.4238318,25.1697398 C25.6253486,24.7053557 26.0679709,23.8232923 26.746997,23.1962611 C27.0099186,22.9534171 26.8525042,22.485858 26.5078662,22.485858 L24.6183287,22.485858 L24.6183287,25.4839723 Z" id="Fill-35" fill="#7F7F7F" mask="url(#mask-8)"></path>
                        <path d="M44.2073698,28.1073224 C44.2073698,29.9700631 42.6894532,31.4802011 40.8170047,31.4802011 C38.9444646,31.4802011 37.4265479,29.9700631 37.4265479,28.1073224 C37.4265479,26.2444907 38.9444646,24.7344437 40.8170047,24.7344437 C42.6894532,24.7344437 44.2073698,26.2444907 44.2073698,28.1073224" id="Fill-36" fill="#AFAFAF" mask="url(#mask-8)"></path>
                        <path d="M70.5772329,28.1073224 C70.5772329,29.9700631 69.0593162,31.4802011 67.1867761,31.4802011 C65.3143276,31.4802011 63.7964109,29.9700631 63.7964109,28.1073224 C63.7964109,26.2444907 65.3143276,24.7344437 67.1867761,24.7344437 C69.0593162,24.7344437 70.5772329,26.2444907 70.5772329,28.1073224" id="Fill-37" fill="#AFAFAF" mask="url(#mask-8)"></path>
                    </g>
                    <g id="Group-62" transform="translate(23.571429, 9.310811)">
                        <polygon id="Fill-1" fill="#BEBDC0" points="27.8255223 13.8815326 25.5134725 9.20183219 26.8922021 8.50425464 29.2040372 13.1839551"></polygon>
                        <g id="Group-61" transform="translate(0.000000, 0.078643)">
                            <path d="M38.9192399,36.0733842 C37.85498,36.0733842 36.992496,35.200489 36.992496,34.1233823 C36.992496,33.0464929 37.85498,32.1735976 38.9192399,32.1735976 C39.9832851,32.1735976 40.8459838,33.0464929 40.8459838,34.1233823 C40.8459838,35.2002717 39.9832851,36.0733842 38.9192399,36.0733842" id="Fill-2" fill="#B9B7BD"></path>
                            <g id="Group-6" transform="translate(33.056881, 28.242006)">
                                <mask id="mask-10" fill="white">
                                    <use xlink:href="#path-9"></use>
                                </mask>
                                <g id="Clip-5"></g>
                                <path d="M5.86235881,9.39135778 C3.9469916,9.39135778 2.39439147,7.820016 2.39439147,5.88152814 C2.39439147,3.94304029 3.9469916,2.37148126 5.86235881,2.37148126 C7.77772601,2.37148126 9.33032615,3.94304029 9.33032615,5.88152814 C9.33032615,7.81979875 7.77772601,9.39135778 5.86235881,9.39135778 M5.86235881,0.0317396701 C2.67000858,0.0317396701 0.0821270305,2.65064263 0.0821270305,5.88152814 C0.0821270305,9.11219641 2.67000858,11.7313166 5.86235881,11.7313166 C9.05449438,11.7313166 11.6423759,9.11219641 11.6423759,5.88152814 C11.6423759,2.65064263 9.05449438,0.0317396701 5.86235881,0.0317396701" id="Fill-4" fill="#514B5B" mask="url(#mask-10)"></path>
                            </g>
                            <path d="M38.8959713,34.8546547 C38.6338774,34.8546547 38.3788672,34.7197448 38.2344043,34.4764291 L34.4433811,28.0902597 C34.2244329,27.7209412 34.3424932,27.2419133 34.7076215,27.0198877 C35.0725351,26.7974276 35.5460642,26.918651 35.7650124,27.2868833 L39.5560356,33.6728354 C39.7751985,34.0421539 39.6569235,34.5213991 39.2920099,34.7434247 C39.1677246,34.8188091 39.03056,34.8546547 38.8959713,34.8546547" id="Fill-7" fill="#DCDBDE"></path>
                            <path d="M33.7492725,30.1748457 L40.9805725,30.1748457 C41.2716448,30.1748457 41.5373878,30.0075661 41.6663955,29.7433947 L42.0658686,28.923942 C42.2764452,28.4922738 42.1699763,27.9769659 41.8121463,27.6597864 C40.9676932,26.9105042 39.0821631,25.6787183 35.4510579,25.1538515 L33.7492725,30.1748457 Z" id="Fill-9" fill="#56A2AD"></path>
                            <g id="Group-13" transform="translate(1.502586, 28.242006)">
                                <mask id="mask-12" fill="white">
                                    <use xlink:href="#path-11"></use>
                                </mask>
                                <g id="Clip-12"></g>
                                <path d="M5.81895555,9.39135778 C3.90358835,9.39135778 2.35098821,7.820016 2.35098821,5.88152814 C2.35098821,3.94304029 3.90358835,2.37148126 5.81895555,2.37148126 C7.73432276,2.37148126 9.28692289,3.94304029 9.28692289,5.88152814 C9.28692289,7.81979875 7.73432276,9.39135778 5.81895555,9.39135778 M5.81895555,0.0317396701 C2.62681998,0.0317396701 0.03893843,2.65064263 0.03893843,5.88152814 C0.03893843,9.11219641 2.62681998,11.7313166 5.81895555,11.7313166 C9.01109113,11.7313166 11.5991873,9.11219641 11.5991873,5.88152814 C11.5991873,2.65064263 9.01109113,0.0317396701 5.81895555,0.0317396701" id="Fill-11" fill="#514B5B" mask="url(#mask-12)"></path>
                            </g>
                            <path d="M15.028388,36.0733842 L7.32162692,36.0733842 C6.25758173,36.0733842 5.39488299,35.200489 5.39488299,34.1233823 C5.39488299,33.0464929 6.25758173,32.1735976 7.32162692,32.1735976 L15.028388,32.1735976 C16.0924332,32.1735976 16.9551319,33.0464929 16.9551319,34.1233823 C16.9551319,35.2002717 16.0924332,36.0733842 15.028388,36.0733842" id="Fill-14" fill="#DCDBDE"></path>
                            <path d="M28.5151661,33.7334254 L29.8483888,26.3122951 C29.9855534,25.5486747 29.9602241,24.7644159 29.7743328,24.0114406 L27.7443398,15.0139719 L30.0566042,15.0139719 L33.9098774,25.1537211 L31.597613,33.7334254 L28.5151661,33.7334254 Z" id="Fill-16" fill="#56A2AD"></path>
                            <g id="Group-20" transform="translate(0.000000, 16.727958)">
                                <mask id="mask-14" fill="white">
                                    <use xlink:href="#path-13"></use>
                                </mask>
                                <g id="Clip-19"></g>
                                <path d="M33.1950331,16.753006 L36.4638005,9.58518484 C36.7932961,8.86262397 36.7372711,8.01992596 36.3150446,7.34841795 L31.9169768,0.35374199 C31.7355932,0.0652390344 31.3681038,-0.0377356652 31.0658694,0.115205661 L31.0652255,0.115640153 C30.4820076,0.410660495 30.1932966,1.08738241 30.3804758,1.71935161 L31.6503752,6.00344671 C32.1217577,7.59390615 32.2001068,9.27734697 31.8783389,10.9056073 L31.0746703,14.9715872 C30.9308514,15.7006654 30.2982629,16.2255322 29.5634986,16.2255322 L21.5789739,16.2255322 L23.1201973,7.645828 L21.5789739,5.30586916 L11.560163,4.52595529 L5.67131579,5.18812172 C5.07521866,5.25525079 4.6240137,5.76512763 4.6240137,6.37233076 C4.6240137,6.68820674 4.74829898,6.99148244 4.9689644,7.21481153 L6.16545177,8.42574186 C6.16545177,8.42574186 -8.58620288e-05,9.98578683 -8.58620288e-05,13.8855734 L-8.58620288e-05,14.6657045 C-8.58620288e-05,15.0965037 0.345079494,15.4456184 0.770740501,15.4456184 L12.4630023,15.4456184 C12.8717055,15.4456184 13.2638803,15.6100737 13.5530207,15.9024871 L15.7326283,18.1086223 C16.0217687,18.4012529 16.4137289,18.5654911 16.8228614,18.5654911 L30.3959309,18.5654911 C31.5986433,18.5654911 32.691023,17.8579202 33.1950331,16.753006" id="Fill-18" fill="#76C6CD" mask="url(#mask-14)"></path>
                            </g>
                            <path d="M23.1204978,24.3736986 L21.5790597,22.0337398 L11.5604636,21.2538259 L5.67140166,21.9159923 C5.07530452,21.9829042 4.62409956,22.4929983 4.62409956,23.1002014 C4.62409956,23.4160774 4.74817019,23.7193531 4.96883561,23.9426822 L6.16553763,25.1536125 L22.9801134,25.1536125 L23.1204978,24.3736986 Z" id="Fill-21" fill="#56A2AD"></path>
                            <path d="M32.3684823,15.7939509 L28.5152091,15.7939509 C27.6638871,15.7939509 26.973771,15.0955044 26.973771,14.233906 C26.973771,13.3725248 27.6638871,12.6740782 28.5152091,12.6740782 L32.3684823,12.6740782 L32.3684823,15.7939509 Z" id="Fill-23" fill="#56A2AD"></path>
                            <path d="M28.5151661,15.0139719 C28.3178981,15.0139719 28.1206301,14.9377185 27.9703716,14.7854289 L27.4253623,14.234058 L25.4325046,14.234058 C25.0064143,14.234058 24.6616783,13.8847261 24.6616783,13.4541442 C24.6616783,13.023345 25.0061997,12.6740131 25.4325046,12.6740131 L27.4253623,12.6740131 C27.8308458,12.6740131 28.2281723,12.8406409 28.5149515,13.1310991 L29.0599607,13.6826872 C29.3609071,13.9872663 29.3609071,14.4808497 29.0599607,14.7854289 C28.9094875,14.9377185 28.7122195,15.0139719 28.5151661,15.0139719" id="Fill-25" fill="#625D6B"></path>
                            <path d="M32.3684823,15.7939509 L31.5976559,15.7939509 L31.5976559,12.6740782 L32.3684823,12.6740782 C32.7939286,12.6740782 33.1393086,13.0234101 33.1393086,13.4539921 L33.1393086,15.0140371 C33.139094,15.4448363 32.7939286,15.7939509 32.3684823,15.7939509" id="Fill-27" fill="#BEBDC0"></path>
                            <path d="M7.32154106,32.1735542 C8.38558625,32.1735542 9.24828498,33.0466667 9.24828498,34.1235561 C9.24828498,35.2004455 8.38558625,36.0733407 7.32154106,36.0733407 C6.25749586,36.0733407 5.39479713,35.2004455 5.39479713,34.1235561 C5.39479713,33.0466667 6.25749586,32.1735542 7.32154106,32.1735542" id="Fill-29" fill="#DCDBDE"></path>
                            <path d="M10.019004,21.4899943 L10.019004,21.4899943 C10.019004,21.8297673 10.1866496,22.1469468 10.4661305,22.3355165 L13.0898595,24.1056385 C14.1026021,24.7890951 15.2924352,25.1536342 16.5097441,25.1536342 L22.9511135,25.1536342 C23.4375219,25.1536342 23.8022208,24.7032828 23.7071286,24.220779 L23.6163295,23.7617378 C23.3280478,22.3035813 22.0628708,21.2538476 20.5933422,21.2538476 L16.4573682,21.2538476 C15.7644617,21.2538476 15.0739163,21.1678182 14.401402,20.9974971 L13.3435818,20.7298498 C12.6710674,20.559746 11.9807367,20.4737165 11.2874008,20.4737165 L11.0231604,20.4737165 C10.4684917,20.4739338 10.019004,20.9288473 10.019004,21.4899943" id="Fill-31" fill="#625D6B"></path>
                            <path d="M14.1806507,29.2095556 L16.4927005,32.3294283 C16.7837727,32.7222095 17.2405587,32.9533594 17.7256792,32.9533594 L21.5791671,32.9533594 L22.6998812,26.713614 L15.4136294,26.713614 C14.1435154,26.713614 13.4184105,28.1813294 14.1806507,29.2095556" id="Fill-33" fill="#56A2AD"></path>
                            <path d="M26.2030305,11.1141419 L25.4324188,11.1141419 C25.0067578,11.1141419 24.6615924,10.76481 24.6615924,10.334228 L24.6615924,8.77418304 C24.6615924,8.34338382 25.0067578,7.99426918 25.4324188,7.99426918 L26.2030305,7.99426918 C27.0543525,7.99426918 27.7444686,8.69249847 27.7444686,9.55409691 C27.7444686,10.4156953 27.0543525,11.1141419 26.2030305,11.1141419" id="Fill-35" fill="#BEBDC0"></path>
                            <path d="M17.5201899,6.94001681 C16.1620673,7.4981223 13.6795814,6.30478892 13.6795814,6.30478892 C13.6795814,6.30478892 14.5036422,5.56658632 14.6607697,4.16838977 C14.6689266,4.09778475 14.6747223,4.02609351 14.67923,3.95244705 C14.822405,3.9009597 15.0920117,3.8036334 15.3809375,3.69978971 L16.5838645,4.52858397 C16.5838645,4.52858397 16.6126283,4.93635509 16.5699119,5.64979162 C16.5628283,5.77427369 16.5531688,5.90809735 16.5407188,6.05082811 C17.1649358,6.3343344 17.5201899,6.94001681 17.5201899,6.94001681" id="Fill-37" fill="#FFB27D"></path>
                            <path d="M16.5838001,4.52867087 C16.5838001,4.52867087 16.6127785,4.93644199 16.5700622,5.64987852 C15.4755359,5.44849129 14.8732138,4.55365418 14.6607053,4.16847667 C14.6688622,4.09787165 14.6746579,4.02618041 14.6791656,3.95253394 C14.8223406,3.90082935 15.092162,3.8037203 15.3808731,3.69987661 L16.5838001,4.52867087 Z" id="Fill-39" fill="#ED975D"></path>
                            <path d="M16.8057749,5.12260026 C16.8057749,5.12260026 14.4668932,5.04547786 14.5368708,3.57211412 C14.6068483,2.09875038 14.3518381,1.09659365 15.8481986,1.08355888 C17.3445591,1.07052411 17.6075116,1.64666103 17.7026038,2.14437208 C17.7972667,2.64186588 17.4160393,5.10456883 16.8057749,5.12260026" id="Fill-41" fill="#FFB27D"></path>
                            <path d="M14.6607053,4.16843322 C14.6607053,4.16843322 14.5692622,3.67854303 14.8328587,3.35506344 C14.8328587,3.35506344 14.6628518,2.87451484 14.8453087,2.76676073 C15.0279801,2.65922386 15.1230723,3.06960193 15.2031387,2.99226228 C15.283205,2.91513988 15.6371712,2.55190423 15.746216,2.07244187 C15.8550461,1.59276225 17.4767652,1.93644574 17.6682375,1.99445048 C17.8594952,2.05223797 16.5921716,-0.341380681 15.2235309,0.225631905 C13.8548902,0.792427245 13.7520704,1.50347406 13.9100565,2.07982824 C14.0680426,2.65618241 14.0538754,4.05003404 14.6607053,4.16843322" id="Fill-43" fill="#2B478B"></path>
                            <path d="M12.4235916,18.2305626 C12.4235916,18.2305626 12.5856562,21.1221096 13.236061,21.9456899 C13.8864659,22.7694875 26.3538471,22.4497011 26.3538471,22.4497011 C26.3538471,22.4497011 26.4079402,20.595722 25.9202439,20.1190838 C25.4325476,19.6424457 23.1557012,18.2731429 15.8868365,17.4967049 L12.4235916,18.2305626 Z" id="Fill-45" fill="#6BB7BF"></path>
                            <path d="M12.2571481,12.1787352 C12.4604264,14.6622937 12.1925369,18.4397707 12.4235057,19.0943335 C12.622491,19.6589564 14.8901072,19.3230938 15.794449,19.1349585 C16.1295256,19.0645708 16.5356529,18.9655065 16.9546597,18.8473246 C18.1232419,18.5188483 19.3972197,18.049162 19.5335257,17.7002646 C19.5391067,17.6865781 19.5433998,17.6733261 19.5461903,17.6602913 C19.5592843,17.6098902 19.5564938,17.562096 19.5440438,17.5143019 C19.5103429,17.3826507 19.4053766,17.2431786 19.3446292,17.0013836 C19.3233784,16.9164403 19.3077085,16.8186795 19.3021275,16.7041908 C19.2810913,16.2542739 19.2823793,15.7313623 19.2669241,15.1684774 C19.2652068,15.11699 19.2639189,15.064851 19.2622017,15.0127119 C19.2611284,14.9425413 19.2600551,14.8662879 19.2518982,14.7965519 L19.2512543,14.7709168 C19.2512543,14.7576648 19.250825,14.7446301 19.250181,14.731378 C19.2306474,14.0372764 19.1907215,13.3081982 19.1445707,12.5847683 C19.1299741,12.3592668 19.1140897,12.1348514 19.0967026,11.9132603 C19.0913362,11.8348344 19.0848966,11.756843 19.0788862,11.6795034 C19.0670802,11.5346002 19.0550595,11.3910004 19.0419656,11.2493559 C18.9402191,10.1368381 18.8024105,9.14706442 18.6208123,8.52182986 C18.3239444,7.50185894 17.6686024,6.83708556 17.0722906,6.34980233 L16.6408339,6.01372246 C16.1595773,6.10909354 15.5900974,6.0454404 15.0753545,5.82428377 C14.5185392,5.58357498 14.3262083,5.41129874 14.2293989,5.4764726 C12.942327,6.37847883 12.0171637,9.14228501 12.2571481,12.1787352" id="Fill-47" fill="#F99746"></path>
                            <path d="M21.8682001,31.9622605 C21.8682001,31.9622605 21.9785328,33.7621453 22.3224102,33.7879976 C22.3681318,33.7912563 24.0673413,33.7912563 24.0673413,33.7912563 L26.2366455,33.778656 C26.2366455,33.778656 26.2224782,33.2496615 25.5883872,33.1377797 C24.9542961,33.0258979 23.8930414,32.5748948 23.5090235,31.7269829 C23.104828,30.8347527 21.8682001,31.9622605 21.8682001,31.9622605" id="Fill-49" fill="#1C4575"></path>
                            <path d="M21.4145695,32.0795735 C21.4145695,32.0795735 21.8342202,32.4058773 22.6885474,32.4475885 C22.9085688,32.4582336 23.11013,32.4465023 23.2870057,32.4234742 C23.757959,32.363297 24.0522511,32.2255629 24.0522511,32.2255629 L26.3537828,22.4494838 C26.3537828,22.4494838 23.8605641,20.2446521 22.559325,21.6156929 C22.3897475,21.7944865 22.24507,22.1044969 22.1214287,22.5087921 C21.2965093,25.2041657 21.4145695,32.0795735 21.4145695,32.0795735" id="Fill-51" fill="#6BB7BF"></path>
                            <path d="M15.8867936,10.290996 C15.8867936,10.290996 17.5012144,16.2724357 19.3444575,17.0015139 C19.3234213,16.9163534 19.3077515,16.8188099 19.3021704,16.7041039 C19.2811343,16.254187 19.2822075,15.7312754 19.266967,15.1686077 C19.2652498,15.1169031 19.2637472,15.0649813 19.2622446,15.012625 C19.2611713,14.9424544 19.2600981,14.8664183 19.2519412,14.7966822 L19.2512972,14.7708299 C19.2512972,14.7577952 19.2508679,14.7445432 19.2502239,14.7312911 C19.2306903,14.0374068 19.1907645,13.3083285 19.1446136,12.5846814 C19.1298024,12.3591799 19.1141326,12.1347645 19.0967455,11.9131734 C18.2853494,10.9207928 17.1839542,10.2075735 15.8867936,10.290996" id="Fill-53" fill="#ED7D2B"></path>
                            <path d="M25.5695404,12.5950875 C25.5695404,12.5950875 26.2723212,12.6498336 26.4530607,12.5950875 C26.6338003,12.5403415 27.4831904,12.0282922 27.7903618,12.1380015 C28.0973186,12.2477108 28.8743699,13.0521735 28.6755993,13.4180161 C28.6755993,13.4180161 28.3141202,13.4271405 27.9799022,13.0795465 C27.6456843,12.7321699 27.2842052,12.9700545 27.3204819,13.0156762 C27.3565439,13.0612979 27.8807316,13.2715922 27.7903618,13.3630528 C27.699992,13.4545135 27.0135251,13.4362648 26.8508166,13.3265555 C26.688108,13.2168461 25.4774534,13.3539285 25.4774534,13.3539285 L25.5695404,12.5950875 Z" id="Fill-55" fill="#FFB27D"></path>
                            <path d="M15.8867936,7.13658117 C15.8867936,7.13658117 20.2582441,10.9079752 21.40901,11.2714281 C22.5593465,11.6350983 26.6246989,12.4347815 26.6246989,12.4347815 C26.6246989,12.4347815 26.7367489,13.4089135 26.3557361,13.7745389 C26.3557361,13.7745389 21.1321049,13.4680045 20.4814854,13.3287497 C19.8310805,13.1892776 14.9843837,10.6477143 14.588989,10.4554514 C14.193809,10.263623 14.2552004,6.82570186 15.8867936,7.13658117" id="Fill-57" fill="#F99746"></path>
                            <path d="M21.4145695,32.0795735 C21.4145695,32.0795735 21.8342202,32.4058773 22.6885474,32.4475885 C22.9085688,32.4582336 23.11013,32.4465023 23.2870057,32.4234742 C21.9739607,30.7432921 22.1214287,22.5087921 22.1214287,22.5087921 C21.2965093,25.2041657 21.4145695,32.0795735 21.4145695,32.0795735" id="Fill-59" fill="#5AA9AD"></path>
                        </g>
                    </g>
                </g>
            </g>
        </g>
    </g>
</svg>