<?xml version="1.0" encoding="UTF-8"?>
<svg width="126px" height="74px" viewBox="0 0 126 74" version="1.1" xmlns="http://www.w3.org/2000/svg" xmlns:xlink="http://www.w3.org/1999/xlink">
    <title>scooter Frequently</title>
    <defs>
        <polygon id="path-1" points="0 0.137136385 124 0.137136385 124 0.433472927 0 0.433472927"></polygon>
        <polygon id="path-3" points="0.0848964562 0.0901623687 49.1148121 0.0901623687 49.1148121 2.70225784 0.0848964562 2.70225784"></polygon>
        <polygon id="path-5" points="0.417715031 43.9534884 124.417715 43.9534884 124.417715 0 0.417715031 0"></polygon>
        <polygon id="path-7" points="0.114977843 0.0443157658 16.2993263 0.0443157658 16.2993263 16.3795438 0.114977843 16.3795438"></polygon>
        <polygon id="path-9" points="0.0545138021 0.0443157658 16.2388623 0.0443157658 16.2388623 16.3795438 0.0545138021 16.3795438"></polygon>
        <polygon id="path-11" points="0 0.0623421312 51.347159 0.0623421312 51.347159 25.9216291 0 25.9216291"></polygon>
    </defs>
    <g id="Desktop" stroke="none" stroke-width="1" fill="none" fill-rule="evenodd">
        <g id="4-Wheeler-Tool-2-Copy-2" transform="translate(-15.000000, -349.000000)">
            <g id="Group-7-Copy" transform="translate(15.000000, 349.000000)">
                <path d="M113.461157,64.9023447 C133.72599,67.1837543 119.956909,71.9226996 88.6055487,73.5495856 C57.2541887,75.1764716 12.7805142,72.1389856 5.40639717,68.554207 C-1.9677199,64.9694284 93.1963245,62.620935 113.461157,64.9023447 Z" id="Background-Shape-Copy-4" fill="#D9E3E9"></path>
                <g id="Group-38" opacity="0.239467076">
                    <g id="Group-3" transform="translate(1.945112, 43.719113)">
                        <mask id="mask-2" fill="white">
                            <use xlink:href="#path-1"></use>
                        </mask>
                        <g id="Clip-2"></g>
                        <path d="M136.744121,0.433487376 L-15.8666176,0.433487376 C-15.9399961,0.433487376 -16.0001041,0.366877036 -16.0001041,0.285384126 C-16.0001041,0.203891216 -15.9399961,0.137136385 -15.8666176,0.137136385 L136.744121,0.137136385 C136.817369,0.137136385 136.877477,0.203891216 136.877477,0.285384126 C136.877477,0.366877036 136.817369,0.433487376 136.744121,0.433487376" id="Fill-1" fill="#283250" mask="url(#mask-2)"></path>
                    </g>
                    <g id="Group-6" transform="translate(9.150592, 0.000000)">
                        <mask id="mask-4" fill="white">
                            <use xlink:href="#path-3"></use>
                        </mask>
                        <g id="Clip-5"></g>
                        <path d="M49.1148121,2.70225784 L0.0848964562,2.70225784 L0.0848964562,1.26424237 C0.0848964562,0.61576687 0.637165861,0.0901499838 1.31839356,0.0901499838 L46.5502208,0.0901499838 C46.9525811,0.0901499838 47.3296962,0.27691489 47.5605459,0.59062544 L49.1148121,2.70225784 Z" id="Fill-4" fill="#C3C9D2" mask="url(#mask-4)"></path>
                    </g>
                    <polygon id="Fill-7" fill="#C3C9D2" points="9.15059174 2.09302326 9.15059174 3.13953488 57.6711397 3.13953488 57.0485002 2.09302326"></polygon>
                    <path d="M109.347514,3.13953488 L5.99463475,3.13953488 C4.24242948,3.13953488 2.82182462,4.53085401 2.82182462,6.24722264 L2.82182462,34.5415896 C2.82182462,35.3042499 3.37727161,35.9583052 4.1428842,36.0971564 L12.8420205,37.6744186 L22.5059903,37.6744186 C22.5059903,34.3410977 25.2649839,31.6387328 28.6682857,31.6387328 C32.0715874,31.6387328 34.8304508,34.3410977 34.8304508,37.6744186 L92.3445563,37.6744186 C92.3445563,34.3410977 95.1034197,31.6387328 98.5067214,31.6387328 C101.910023,31.6387328 104.669017,34.3410977 104.669017,37.6744186 L110.947926,37.6744186 C111.816341,37.6744186 112.520455,36.9850125 112.520455,36.1344216 L112.520455,6.24722264 C112.520455,4.53085401 111.09972,3.13953488 109.347514,3.13953488" id="Fill-9" fill="#C3C9D2"></path>
                    <path d="M104.082099,34.5348837 C104.722969,35.428516 105.098155,36.50965 105.098155,37.6744186 L111.033876,37.6744186 C111.854826,37.6744186 112.520455,37.0389833 112.520455,36.2549818 C112.520455,35.3050049 111.714039,34.5348837 110.719292,34.5348837 L104.082099,34.5348837 Z" id="Fill-11" fill="#7F7F7F"></path>
                    <path d="M2.82182462,34.5348837 L2.82182462,34.7868464 C2.82182462,35.4896834 3.38641904,36.0926529 4.16445769,36.220634 L13.0046504,37.6744186 L22.8254685,37.6744186 C22.8254685,36.50965 23.228788,35.428516 23.917715,34.5348837 L2.82182462,34.5348837 Z" id="Fill-13" fill="#7F7F7F"></path>
                    <path d="M34.4656602,34.5348837 C35.1366952,35.428516 35.5296157,36.50965 35.5296157,37.6744186 L92.4701979,37.6744186 C92.4701979,36.50965 92.8631184,35.428516 93.5341534,34.5348837 L34.4656602,34.5348837 Z" id="Fill-15" fill="#7F7F7F"></path>
                    <mask id="mask-6" fill="white">
                        <use xlink:href="#path-5"></use>
                    </mask>
                    <g id="Clip-18"></g>
                    <polygon id="Fill-17" fill="#AFAFAF" mask="url(#mask-6)" points="2.82182462 33.4883721 3.87661914 33.4883721 3.87661914 26.1627907 2.82182462 26.1627907"></polygon>
                    <polyline id="Fill-19" fill="#AFAFAF" mask="url(#mask-6)" points="3.87661914 24.0697674 3.87661914 25.1162791 2.82182462 25.1162791"></polyline>
                    <polyline id="Fill-20" fill="#AFAFAF" mask="url(#mask-6)" points="111.46566 26.1627907 112.520455 26.1627907 112.520455 32.4418605 111.46566 32.4418605"></polyline>
                    <path d="M112.520455,23.0232558 L112.520455,23.0232558 L112.520455,9.55267882 C112.520455,8.32269867 111.537284,7.3255814 110.324507,7.3255814 L105.223382,7.3255814 C104.010605,7.3255814 103.027304,8.32269867 103.027304,9.55267882 L103.027304,13.3955756 C103.027304,18.7127872 107.277613,23.0232558 112.520455,23.0232558" id="Fill-21" fill="#163560" mask="url(#mask-6)"></path>
                    <path d="M43.0158682,23.0232558 L68.1072331,23.0232558 C69.3342208,23.0232558 70.3286739,22.0261385 70.3286739,20.7961584 L70.3286739,9.55267882 C70.3286739,8.32269867 69.3342208,7.3255814 68.1072331,7.3255814 L43.0158682,7.3255814 C41.7890121,7.3255814 40.7944274,8.32269867 40.7944274,9.55267882 L40.7944274,20.7961584 C40.7944274,22.0261385 41.7890121,23.0232558 43.0158682,23.0232558" id="Fill-22" fill="#AFAFAF" mask="url(#mask-6)"></path>
                    <path d="M92.5638484,23.0232558 L98.7236364,23.0232558 C99.9352511,23.0232558 100.917715,22.0261385 100.917715,20.7961584 L100.917715,9.55267882 C100.917715,8.32269867 99.9352511,7.3255814 98.7236364,7.3255814 L92.5638484,7.3255814 C91.3521039,7.3255814 90.3697698,8.32269867 90.3697698,9.55267882 L90.3697698,20.7961584 C90.3697698,22.0261385 91.3521039,23.0232558 92.5638484,23.0232558" id="Fill-23" fill="#AFAFAF" mask="url(#mask-6)"></path>
                    <path d="M112.520455,23.0232558 L112.520455,23.0232558 L112.520455,9.55267882 C112.520455,8.32269867 111.537284,7.3255814 110.324507,7.3255814 L105.223382,7.3255814 C104.010605,7.3255814 103.027304,8.32269867 103.027304,9.55267882 L103.027304,13.3955756 C103.027304,18.7127872 107.277613,23.0232558 112.520455,23.0232558" id="Fill-24" fill="#AFAFAF" mask="url(#mask-6)"></path>
                    <path d="M8.17581937,23.0232558 L35.4405623,23.0232558 C36.6498395,23.0232558 37.6300438,22.0261385 37.6300438,20.7961584 L37.6300438,9.55267882 C37.6300438,8.32269867 36.6498395,7.3255814 35.4405623,7.3255814 L8.17581937,7.3255814 C6.96654209,7.3255814 5.98620818,8.32269867 5.98620818,9.55267882 L5.98620818,20.7961584 C5.98620818,22.0261385 6.96654209,23.0232558 8.17581937,23.0232558" id="Fill-25" fill="#163560" mask="url(#mask-6)"></path>
                    <path d="M8.17581937,23.0232558 L35.4405623,23.0232558 C36.6498395,23.0232558 37.6300438,22.0261385 37.6300438,20.7961584 L37.6300438,9.55267882 C37.6300438,8.32269867 36.6498395,7.3255814 35.4405623,7.3255814 L8.17581937,7.3255814 C6.96654209,7.3255814 5.98620818,8.32269867 5.98620818,9.55267882 L5.98620818,20.7961584 C5.98620818,22.0261385 6.96654209,23.0232558 8.17581937,23.0232558" id="Fill-26" fill="#AFAFAF" mask="url(#mask-6)"></path>
                    <path d="M87.232836,7.3255814 L79.5454764,7.3255814 L78.6358292,7.3255814 L73.4657381,7.3255814 C72.898235,7.3255814 72.438263,7.77540246 72.438263,8.33038147 L72.438263,37.6744186 L78.6358292,37.6744186 L79.5454764,37.6744186 L88.2601808,37.6744186 L88.2601808,8.33038147 C88.2601808,7.77540246 87.8003391,7.3255814 87.232836,7.3255814" id="Fill-27" fill="#AFAFAF" mask="url(#mask-6)"></path>
                    <path d="M34.4656602,38.1976744 C34.4656602,41.3765557 31.8683613,43.9534884 28.6643564,43.9534884 C25.4602194,43.9534884 22.8629205,41.3765557 22.8629205,38.1976744 C22.8629205,35.0187931 25.4602194,32.4418605 28.6643564,32.4418605 C31.8683613,32.4418605 34.4656602,35.0187931 34.4656602,38.1976744" id="Fill-28" fill="#AFAFAF" mask="url(#mask-6)"></path>
                    <path d="M104.082099,38.1976744 C104.082099,41.3765557 101.4848,43.9534884 98.2807948,43.9534884 C95.0766578,43.9534884 92.4793589,41.3765557 92.4793589,38.1976744 C92.4793589,35.0187931 95.0766578,32.4418605 98.2807948,32.4418605 C101.4848,32.4418605 104.082099,35.0187931 104.082099,38.1976744" id="Fill-29" fill="#AFAFAF" mask="url(#mask-6)"></path>
                    <path d="M60.8336367,27.2092376 L60.8335066,27.2091082 C60.8349378,27.2092376 60.8362388,27.209367 60.8375399,27.2094965 C60.8363689,27.209367 60.8349378,27.209367 60.8336367,27.2092376" id="Fill-30" fill="#163560" mask="url(#mask-6)"></path>
                    <path d="M74.547852,32.4418605 L74.5477245,32.4418605 C73.8226569,32.414013 73.0694078,32.3990385 72.2868295,32.3990385 C72.2868295,32.3990385 67.9555515,28.5270637 62.9451123,27.2093023 C68.0965864,28.5197077 74.547852,32.4418605 74.547852,32.4418605" id="Fill-31" fill="#7F7F7F" mask="url(#mask-6)"></path>
                    <path d="M48.1499897,34.8193829 L48.1499897,30.5030894 C48.1499897,30.5030894 53.1311985,29.9243122 56.1435898,28.815166 C63.1174909,26.2109337 66.8651718,26.1627907 73.1984995,26.1627907 C78.0069753,26.1627907 82.8768991,29.4361181 84.943303,31.0123709 C85.6398451,31.5438009 86.4842018,31.8373009 87.3550425,31.8566642 C94.9614284,32.0260268 99.6635768,33.5696538 101.998865,34.6116915 C103.093189,35.1000182 103.797428,36.2024005 103.797428,37.4172491 L103.797428,38.8704256 C103.954636,38.8704256 104.082099,39.0000006 104.082099,39.1598142 L104.082099,41.5710765 C104.082099,41.7308901 103.954636,41.8604651 103.797428,41.8604651 L100.547855,41.8604651 L99.2584891,41.8604651 C99.7080647,41.0413707 99.9562054,40.0923033 99.9311565,39.0818305 C99.8601846,36.203992 97.5479884,33.860236 94.7169407,33.7965758 C91.7139427,33.7290695 89.2588895,36.1834351 89.2588895,39.2206892 C89.2588895,40.179173 89.5042904,41.0790363 89.9333833,41.8604651 L62.0059459,41.8604651 C62.455652,41.0413707 62.7036622,40.0923033 62.6786133,39.0818305 C62.6076414,36.203992 60.2955757,33.860236 57.4643975,33.7965758 C54.46153,33.7290695 52.0063463,36.1834351 52.0063463,39.2206892 C52.0063463,40.179173 52.2517473,41.0790363 52.6808402,41.8604651 L51.5657727,41.8604651 C47.7064154,41.8604651 47.1595144,37.8482817 47.1231945,35.8813144 C47.1126782,35.2976301 47.5758219,34.8193829 48.1499897,34.8193829" id="Fill-32" fill="#C4C4C4" mask="url(#mask-6)"></path>
                    <path d="M75.8118455,27.4341005 C80.292047,28.5676401 85.0957972,32.4418605 85.0957972,32.4418605 L72.3800269,32.1698481 C71.8812391,32.1592381 71.4320649,31.865608 71.2223353,31.413094 L69.2738794,27.2093023 L73.9887499,27.2093023 C74.6034792,27.2093023 75.2159534,27.2833067 75.8118455,27.4341005" id="Fill-33" fill="#7F7F7F" mask="url(#mask-6)"></path>
                    <path d="M68.4737276,27.2093023 L70.2877855,30.8087787 C70.4271522,31.0854819 70.1931672,31.395226 69.8446157,31.3953488 C68.0142489,31.3960433 63.2085253,31.3372001 60.4420836,30.7368592 C59.7774637,30.59267 59.5543962,29.8683382 60.0489187,29.4574865 C61.1730173,28.5233505 63.61746,27.2093023 68.4737276,27.2093023" id="Fill-34" fill="#7F7F7F" mask="url(#mask-6)"></path>
                    <path d="M34.4656602,35.5813953 L34.9538143,35.5813953 C35.2271173,35.5813953 35.4767236,35.4112192 35.5933645,35.1426556 C35.875488,34.4942703 36.4951593,33.26271 37.4457958,32.3872325 C37.8138861,32.0481673 37.5935058,31.3953488 37.1110127,31.3953488 L34.4656602,31.3953488 L34.4656602,35.5813953 Z" id="Fill-35" fill="#7F7F7F" mask="url(#mask-6)"></path>
                    <path d="M61.8903178,39.244186 C61.8903178,41.8449937 59.7652344,43.9534884 57.1438066,43.9534884 C54.5222504,43.9534884 52.3971671,41.8449937 52.3971671,39.244186 C52.3971671,36.6432511 54.5222504,34.5348837 57.1438066,34.5348837 C59.7652344,34.5348837 61.8903178,36.6432511 61.8903178,39.244186" id="Fill-36" fill="#AFAFAF" mask="url(#mask-6)"></path>
                    <path d="M98.808126,39.244186 C98.808126,41.8449937 96.6830427,43.9534884 94.0614865,43.9534884 C91.4400586,43.9534884 89.3149753,41.8449937 89.3149753,39.244186 C89.3149753,36.6432511 91.4400586,34.5348837 94.0614865,34.5348837 C96.6830427,34.5348837 98.808126,36.6432511 98.808126,39.244186" id="Fill-37" fill="#AFAFAF" mask="url(#mask-6)"></path>
                </g>
                <g id="Group-62" transform="translate(33.000000, 13.000000)">
                    <polygon id="Fill-1" fill="#BEBDC0" points="38.9557312 19.3817625 35.7188616 12.8478412 37.6490829 11.873865 40.8856521 18.4077863"></polygon>
                    <g id="Group-61" transform="translate(0.000000, 0.109804)">
                        <path d="M54.4869358,50.3666119 C52.9969721,50.3666119 51.7894943,49.1478525 51.7894943,47.6439677 C51.7894943,46.1403863 52.9969721,44.9216269 54.4869358,44.9216269 C55.9765991,44.9216269 57.1843773,46.1403863 57.1843773,47.6439677 C57.1843773,49.1475492 55.9765991,50.3666119 54.4869358,50.3666119" id="Fill-2" fill="#B9B7BD"></path>
                        <g id="Group-6" transform="translate(46.279634, 39.432235)">
                            <mask id="mask-8" fill="white">
                                <use xlink:href="#path-7"></use>
                            </mask>
                            <g id="Clip-5"></g>
                            <path d="M8.20730233,13.1124618 C5.52578824,13.1124618 3.35214805,10.9185129 3.35214805,8.21194495 C3.35214805,5.505377 5.52578824,3.31112478 8.20730233,3.31112478 C10.8888164,3.31112478 13.0624566,5.505377 13.0624566,8.21194495 C13.0624566,10.9182096 10.8888164,13.1124618 8.20730233,13.1124618 M8.20730233,0.0443157658 C3.73801201,0.0443157658 0.114977843,3.70089726 0.114977843,8.21194495 C0.114977843,12.7226893 3.73801201,16.3795741 8.20730233,16.3795741 C12.6762921,16.3795741 16.2993263,12.7226893 16.2993263,8.21194495 C16.2993263,3.70089726 12.6762921,0.0443157658 8.20730233,0.0443157658" id="Fill-4" fill="#514B5B" mask="url(#mask-8)"></path>
                        </g>
                        <path d="M54.4543598,48.6649896 C54.0874284,48.6649896 53.7304141,48.4766249 53.5281661,48.136901 L48.2207336,39.2203627 C47.9142061,38.7047104 48.0794905,38.035879 48.5906701,37.725881 C49.1015492,37.4152763 49.7644899,37.5845316 50.0710174,38.0986672 L55.3784499,47.0149022 C55.6852778,47.5305546 55.5196929,48.1996892 55.0088138,48.5096873 C54.8348144,48.614941 54.642784,48.6649896 54.4543598,48.6649896" id="Fill-7" fill="#DCDBDE"></path>
                        <path d="M47.2489815,42.1309166 L57.3728016,42.1309166 C57.7803027,42.1309166 58.1523429,41.8973564 58.3329537,41.5285134 L58.892216,40.3843719 C59.1870233,39.7816654 59.0379668,39.0621787 58.5370048,38.6193244 C57.3547705,37.5731569 54.7150283,35.8533048 49.631481,35.1204719 L47.2489815,42.1309166 Z" id="Fill-9" fill="#56A2AD"></path>
                        <g id="Group-13" transform="translate(2.103620, 39.432235)">
                            <mask id="mask-10" fill="white">
                                <use xlink:href="#path-9"></use>
                            </mask>
                            <g id="Clip-12"></g>
                            <path d="M8.14653777,13.1124618 C5.46502368,13.1124618 3.29138349,10.9185129 3.29138349,8.21194495 C3.29138349,5.505377 5.46502368,3.31112478 8.14653777,3.31112478 C10.8280519,3.31112478 13.0016921,5.505377 13.0016921,8.21194495 C13.0016921,10.9182096 10.8280519,13.1124618 8.14653777,13.1124618 M8.14653777,0.0443157658 C3.67754797,0.0443157658 0.0545138021,3.70089726 0.0545138021,8.21194495 C0.0545138021,12.7226893 3.67754797,16.3795741 8.14653777,16.3795741 C12.6155276,16.3795741 16.2388623,12.7226893 16.2388623,8.21194495 C16.2388623,3.70089726 12.6155276,0.0443157658 8.14653777,0.0443157658" id="Fill-11" fill="#514B5B" mask="url(#mask-10)"></path>
                        </g>
                        <path d="M21.0397432,50.3666119 L10.2502777,50.3666119 C8.76061442,50.3666119 7.55283619,49.1478525 7.55283619,47.6439677 C7.55283619,46.1403863 8.76061442,44.9216269 10.2502777,44.9216269 L21.0397432,44.9216269 C22.5294064,44.9216269 23.7371846,46.1403863 23.7371846,47.6439677 C23.7371846,49.1475492 22.5294064,50.3666119 21.0397432,50.3666119" id="Fill-14" fill="#DCDBDE"></path>
                        <path d="M39.9212326,47.0994996 L41.7877443,36.7379215 C41.9797747,35.6717345 41.9443137,34.5767317 41.6840659,33.5254076 L38.8420757,20.9629042 L42.0792459,20.9629042 L47.4738284,35.1202899 L44.2366582,47.0994996 L39.9212326,47.0994996 Z" id="Fill-16" fill="#56A2AD"></path>
                        <g id="Group-20" transform="translate(0.000000, 23.356016)">
                            <mask id="mask-12" fill="white">
                                <use xlink:href="#path-11"></use>
                            </mask>
                            <g id="Clip-19"></g>
                            <path d="M46.4730463,23.3909895 L51.0493207,13.3830883 C51.5106145,12.3742297 51.4321795,11.1976325 50.8410624,10.2600552 L44.6837675,0.493903911 C44.4298305,0.0910884631 43.9153453,-0.0526875326 43.4922172,0.160853187 L43.4913156,0.161459836 C42.6748107,0.573375031 42.2706152,1.51823205 42.5326661,2.40060414 L44.3105253,8.38217088 C44.9704608,10.6028124 45.0801496,12.9532769 44.6296744,15.2266969 L43.5045384,20.9037255 C43.3031919,21.9216838 42.417568,22.6545167 41.388898,22.6545167 L30.2105634,22.6545167 L32.3682762,10.675307 L30.2105634,7.40819467 L16.1842283,6.31925833 L7.93984211,7.24379259 C7.10530612,7.33751997 6.47361918,8.04942348 6.47361918,8.89721654 C6.47361918,9.33825092 6.64761858,9.76169246 6.95655016,10.0735104 L8.63163248,11.7642434 C8.63163248,11.7642434 -0.00012020684,13.9424194 -0.00012020684,19.3874044 L-0.00012020684,20.476644 C-0.00012020684,21.0781373 0.483111291,21.5655804 1.0790367,21.5655804 L17.4482032,21.5655804 C18.0203877,21.5655804 18.5694325,21.7951973 18.974229,22.2034726 L22.0256797,25.2837368 C22.4304762,25.6923154 22.9792204,25.9216291 23.552006,25.9216291 L42.5543033,25.9216291 C44.2381006,25.9216291 45.7674322,24.9336999 46.4730463,23.3909895" id="Fill-18" fill="#76C6CD" mask="url(#mask-12)"></path>
                        </g>
                        <path d="M32.3686969,34.0312019 L30.2106836,30.7640895 L16.184649,29.6751532 L7.93996232,30.5996874 C7.10542633,30.6931115 6.47373938,31.4053183 6.47373938,32.2531114 C6.47373938,32.6941458 6.64743827,33.1175873 6.95636985,33.4294053 L8.63175268,35.1201382 L32.1721587,35.1201382 L32.3686969,34.0312019 Z" id="Fill-21" fill="#56A2AD"></path>
                        <path d="M45.3158752,22.0519315 L39.9212927,22.0519315 C38.7294419,22.0519315 37.7632794,21.076742 37.7632794,19.8737555 C37.7632794,18.6710723 38.7294419,17.6958828 39.9212927,17.6958828 L45.3158752,17.6958828 L45.3158752,22.0519315 Z" id="Fill-23" fill="#56A2AD"></path>
                        <path d="M39.9212326,20.9629042 C39.6450574,20.9629042 39.3688822,20.8564371 39.1585202,20.6438064 L38.3955073,19.8739678 L35.6055065,19.8739678 C35.0089801,19.8739678 34.5263496,19.3862214 34.5263496,18.7850315 C34.5263496,18.1835382 35.0086795,17.6957918 35.6055065,17.6957918 L38.3955073,17.6957918 C38.9631841,17.6957918 39.5194412,17.928442 39.9209321,18.3339874 L40.683945,19.1041293 C41.10527,19.5293907 41.10527,20.2185449 40.683945,20.6438064 C40.4732825,20.8564371 40.1971073,20.9629042 39.9212326,20.9629042" id="Fill-25" fill="#625D6B"></path>
                        <path d="M45.3158752,22.0519315 L44.2367183,22.0519315 L44.2367183,17.6958828 L45.3158752,17.6958828 C45.9115001,17.6958828 46.3950321,18.1836292 46.3950321,18.7848192 L46.3950321,20.9629952 C46.3947316,21.5644884 45.9115001,22.0519315 45.3158752,22.0519315" id="Fill-27" fill="#BEBDC0"></path>
                        <path d="M10.2501575,44.9215662 C11.7398207,44.9215662 12.947599,46.1406289 12.947599,47.6442104 C12.947599,49.1477918 11.7398207,50.3665512 10.2501575,50.3665512 C8.76049421,50.3665512 7.55271598,49.1477918 7.55271598,47.6442104 C7.55271598,46.1406289 8.76049421,44.9215662 10.2501575,44.9215662" id="Fill-29" fill="#DCDBDE"></path>
                        <path d="M14.0266056,30.0048977 L14.0266056,30.0048977 C14.0266056,30.4792978 14.2613095,30.9221521 14.6525827,31.1854381 L18.3258033,33.6569293 C19.7436429,34.6111894 21.4094092,35.1201685 23.1136417,35.1201685 L32.1315589,35.1201685 C32.8125306,35.1201685 33.3231092,34.491376 33.1899801,33.8176915 L33.0628614,33.176766 C32.6592669,31.1408494 30.8880191,29.6751835 28.830679,29.6751835 L23.0403155,29.6751835 C22.0702463,29.6751835 21.1034828,29.5550669 20.1619628,29.3172601 L18.6810145,28.9435639 C17.7394944,28.7060605 16.7730314,28.5859438 15.8023612,28.5859438 L15.4324246,28.5859438 C14.6558884,28.5862472 14.0266056,29.2214095 14.0266056,30.0048977" id="Fill-31" fill="#625D6B"></path>
                        <path d="M19.852911,40.7831531 L23.0897807,45.1392018 C23.4972818,45.6876132 24.1367822,46.0103509 24.8159509,46.0103509 L30.2108339,46.0103509 L31.7798337,37.2982535 L21.5790812,37.2982535 C19.8009215,37.2982535 18.7857747,39.3475165 19.852911,40.7831531" id="Fill-33" fill="#56A2AD"></path>
                        <path d="M36.6842427,15.5178585 L35.6053863,15.5178585 C35.0094609,15.5178585 34.5262294,15.0301121 34.5262294,14.4289221 L34.5262294,12.2507461 C34.5262294,11.6492529 35.0094609,11.1618098 35.6053863,11.1618098 L36.6842427,11.1618098 C37.8760935,11.1618098 38.842256,12.136696 38.842256,13.3396825 C38.842256,14.542669 37.8760935,15.5178585 36.6842427,15.5178585" id="Fill-35" fill="#BEBDC0"></path>
                        <path d="M24.5282659,9.68983479 C22.6268942,10.4690764 19.1514139,8.80291283 19.1514139,8.80291283 C19.1514139,8.80291283 20.305099,7.77221487 20.5250776,5.82001591 C20.5364972,5.72143532 20.5446112,5.62133811 20.550922,5.51851097 C20.7513669,5.44662297 21.1288164,5.31073342 21.5333124,5.16574413 L23.2174103,6.32292857 C23.2174103,6.32292857 23.2576796,6.89226938 23.1978767,7.8883883 C23.1879596,8.06219346 23.1744363,8.24904159 23.1570063,8.44832604 C24.0309101,8.84416501 24.5282659,9.68983479 24.5282659,9.68983479" id="Fill-37" fill="#FFB27D"></path>
                        <path d="M23.2173201,6.3230499 C23.2173201,6.3230499 23.2578899,6.89239071 23.198087,7.88850963 C21.6657503,7.60732746 20.8224993,6.35793226 20.5249874,5.82013724 C20.5364071,5.72155665 20.544521,5.62145944 20.5508319,5.5186323 C20.7512768,5.44644098 21.1290268,5.31085475 21.5332223,5.16586546 L23.2173201,6.3230499 Z" id="Fill-39" fill="#ED975D"></path>
                        <path d="M23.5280848,7.1523098 C23.5280848,7.1523098 20.2536505,7.04462947 20.3516191,4.98748009 C20.4495877,2.93033072 20.0925734,1.53109302 22.1874781,1.51289353 C24.2823828,1.49469404 24.6505162,2.29911163 24.7836453,2.99402895 C24.9161733,3.68864293 24.382455,7.12713383 23.5280848,7.1523098" id="Fill-41" fill="#FFB27D"></path>
                        <path d="M20.5249874,5.82007657 C20.5249874,5.82007657 20.3969671,5.13607895 20.7660021,4.6844282 C20.7660021,4.6844282 20.5279926,4.01347355 20.7834321,3.86302441 C21.0391722,3.71287859 21.1723012,4.2858593 21.2843941,4.17787564 C21.396487,4.07019531 21.8920397,3.5630361 22.0447024,2.89359808 C22.1970646,2.22385673 24.4674713,2.7037167 24.7355325,2.78470444 C25.0032932,2.86538886 23.2290403,-0.476644725 21.3129432,0.315033226 C19.3968462,1.10640785 19.2528985,2.0991902 19.4740791,2.90391112 C19.6952597,3.70863204 19.6754256,5.65476451 20.5249874,5.82007657" id="Fill-43" fill="#2B478B"></path>
                        <path d="M17.3930282,25.4539931 C17.3930282,25.4539931 17.6199186,29.4912473 18.5304855,30.6411519 C19.4410523,31.7913599 36.895386,31.3448657 36.895386,31.3448657 C36.895386,31.3448657 36.9711163,28.7562911 36.2883415,28.0907963 C35.6055666,27.4253015 32.4179817,25.5134448 22.2415711,24.4293616 L17.3930282,25.4539931 Z" id="Fill-45" fill="#6BB7BF"></path>
                        <path d="M17.1600073,17.0042717 C17.444597,20.4718818 17.0695516,25.7460949 17.392908,26.6600128 C17.6714874,27.4483542 20.84615,26.9794139 22.1122286,26.7167346 C22.5813358,26.6184573 23.1499141,26.4801412 23.7365235,26.3151324 C25.3725386,25.8565052 27.1561076,25.2007168 27.346936,24.713577 C27.3547494,24.6944676 27.3607597,24.6759647 27.3646665,24.6577653 C27.382998,24.5873939 27.3790913,24.5206624 27.3616613,24.4539309 C27.3144801,24.270116 27.1675272,24.0753815 27.0824809,23.7377809 C27.0527297,23.6191808 27.030792,23.4826846 27.0229785,23.3228324 C26.9935278,22.6946466 26.995331,21.9645436 26.9736937,21.1786288 C26.9712896,21.1067408 26.9694865,21.0339428 26.9670823,20.9611449 C26.9655798,20.8631709 26.9640772,20.7567039 26.9526575,20.6593366 L26.951756,20.6235443 C26.951756,20.6050415 26.9511549,20.586842 26.9502534,20.5683391 C26.9229063,19.5992161 26.8670101,18.5812578 26.802399,17.571186 C26.7819638,17.2563347 26.7597255,16.9430001 26.7353837,16.6336087 C26.7278707,16.5241085 26.7188552,16.4152148 26.7104407,16.3072312 C26.6939123,16.1049135 26.6770833,15.9044157 26.6587518,15.7066479 C26.5163067,14.1533211 26.3233747,12.771373 26.0691372,11.8984039 C25.6535221,10.4742936 24.7360434,9.54611946 23.9012069,8.86576174 L23.2971675,8.39651815 C22.6234082,8.52967777 21.8261363,8.44080358 21.1054963,8.13201885 C20.3259549,7.79593487 20.0566916,7.55539824 19.9211584,7.64639571 C18.1192579,8.90580063 16.8240292,12.7646998 17.1600073,17.0042717" id="Fill-47" fill="#F99746"></path>
                        <path d="M30.6154802,44.6265524 C30.6154802,44.6265524 30.7699459,47.1395991 31.2513743,47.1756948 C31.3153845,47.1802446 33.6942778,47.1802446 33.6942778,47.1802446 L36.7313037,47.1626518 C36.7313037,47.1626518 36.7114695,46.4240557 35.823742,46.2678434 C34.9360145,46.1116311 33.450258,45.4819286 32.9126329,44.2980516 C32.3467592,43.0522963 30.6154802,44.6265524 30.6154802,44.6265524" id="Fill-49" fill="#1C4575"></path>
                        <path d="M29.9803974,44.7903479 C29.9803974,44.7903479 30.5679083,45.2459418 31.7639664,45.3041802 C32.0719964,45.3190431 32.3541819,45.3026636 32.601808,45.2705112 C33.2611426,45.1864902 33.6731515,44.9941822 33.6731515,44.9941822 L36.8952959,31.3445623 C36.8952959,31.3445623 33.4047897,28.2661181 31.5830551,30.1804014 C31.3456466,30.4300378 31.143098,30.8628824 30.9700002,31.42737 C29.815113,35.1907219 29.9803974,44.7903479 29.9803974,44.7903479" id="Fill-51" fill="#6BB7BF"></path>
                        <path d="M22.241511,14.3685605 C22.241511,14.3685605 24.5017002,22.7200046 27.0822405,23.7379629 C27.0527898,23.6190595 27.0308521,23.4828666 27.0230386,23.3227111 C26.993588,22.6945253 26.9950905,21.9644223 26.9737538,21.1788108 C26.9713497,21.1066195 26.9692461,21.0341248 26.9671424,20.9610235 C26.9656399,20.8630496 26.9641373,20.7568859 26.9527176,20.6595186 L26.9518161,20.6234229 C26.9518161,20.6052235 26.951215,20.5867206 26.9503135,20.5682178 C26.9229664,19.5993981 26.8670703,18.5814398 26.8024591,17.5710646 C26.7817234,17.2562134 26.7597856,16.9428788 26.7354438,16.6334874 C25.5994891,15.2478993 24.0575359,14.2520837 22.241511,14.3685605" id="Fill-53" fill="#ED7D2B"></path>
                        <path d="M35.7973566,17.5855939 C35.7973566,17.5855939 36.7812496,17.6620318 37.034285,17.5855939 C37.2873204,17.509156 38.4764666,16.7942193 38.9065065,16.9473983 C39.336246,17.1005774 40.4241179,18.2237894 40.1458391,18.7345886 C40.1458391,18.7345886 39.6397683,18.7473282 39.1718631,18.2620084 C38.703958,17.7769919 38.1978872,18.1091326 38.2486746,18.1728309 C38.2991615,18.2365291 39.0330242,18.5301476 38.9065065,18.6578474 C38.7799888,18.7855471 37.8189352,18.7600678 37.5911432,18.6068888 C37.3633512,18.4537097 35.6684348,18.6451077 35.6684348,18.6451077 L35.7973566,17.5855939 Z" id="Fill-55" fill="#FFB27D"></path>
                        <path d="M22.241511,9.96428315 C22.241511,9.96428315 28.3615418,15.2300032 29.972614,15.7374657 C31.5830851,16.2452316 37.2745785,17.3617705 37.2745785,17.3617705 C37.2745785,17.3617705 37.4314484,18.7218792 36.8980306,19.232375 C36.8980306,19.232375 29.5849469,18.8043836 28.6740796,18.6099524 C27.7635128,18.4152178 20.9781371,14.8666199 20.4245846,14.5981774 C19.8713327,14.3303415 19.9572806,9.53022524 22.241511,9.96428315" id="Fill-57" fill="#F99746"></path>
                        <path d="M29.9803974,44.7903479 C29.9803974,44.7903479 30.5679083,45.2459418 31.7639664,45.3041802 C32.0719964,45.3190431 32.3541819,45.3026636 32.601808,45.2705112 C30.7635449,42.9245965 30.9700002,31.42737 30.9700002,31.42737 C29.815113,35.1907219 29.9803974,44.7903479 29.9803974,44.7903479" id="Fill-59" fill="#5AA9AD"></path>
                    </g>
                </g>
            </g>
        </g>
    </g>
</svg>