<svg xmlns="http://www.w3.org/2000/svg" xmlns:xlink="http://www.w3.org/1999/xlink" width="322" height="103" viewBox="0 0 322 103">
    <defs>
        <path id="gqy45thmca" d="M0 0.248L306.533 0.248 306.533 0.783 0 0.783z"/>
        <path id="86nzq6nz8c" d="M0.17 0.19L98.46 0.19 98.46 5.692 0.17 5.692z"/>
        <path id="wbt60sbzqe" d="M0 89.81L306.533 89.81 306.533 0.261 0 0.261z"/>
        <path id="pyzrhp6ibg" d="M0.103 0.039L14.659 0.039 14.659 14.595 0.103 14.595z"/>
        <path id="5ioo0rewfi" d="M0.049 0.039L14.604 0.039 14.604 14.595 0.049 14.595z"/>
        <path id="hto80lgi4k" d="M0 0.056L46.179 0.056 46.179 23.097 0 23.097z"/>
    </defs>
    <g fill="none" fill-rule="evenodd">
        <g>
            <g>
                <g opacity=".239" transform="translate(-495 -255) translate(495 255)">
                    <g transform="translate(0 89.027)">
                        <mask id="aljrp7oprb" fill="#fff">
                            <use xlink:href="#gqy45thmca"/>
                        </mask>
                        <path fill="#283250" d="M306.265.783H.267C.12.783 0 .663 0 .515 0 .368.12.248.267.248h305.998c.147 0 .268.12.268.267 0 .147-.12.268-.268.268" mask="url(#aljrp7oprb)"/>
                    </g>
                    <g transform="translate(45.913 .071)">
                        <mask id="vzcs2yroed" fill="#fff">
                            <use xlink:href="#86nzq6nz8c"/>
                        </mask>
                        <path fill="#C3C9D2" d="M98.46 5.692H.17v-3.03C.17 1.298 1.277.19 2.643.19h90.676c.806 0 1.562.393 2.025 1.054l3.116 4.448z" mask="url(#vzcs2yroed)"/>
                    </g>
                    <path fill="#C3C9D2" d="M46.083 3.962L46.083 5.763 144.373 5.763 143.112 3.962zM246.91 5.763H39.982c-3.508 0-6.353 2.844-6.353 6.352v57.837c0 1.559 1.113 2.896 2.645 3.18l17.417 3.224h19.35c0-6.814 5.523-12.338 12.337-12.338s12.337 5.524 12.337 12.338h115.152c0-6.814 5.524-12.338 12.338-12.338 6.814 0 12.338 5.524 12.338 12.338h12.57c1.74 0 3.15-1.41 3.15-3.148V12.115c0-3.508-2.845-6.352-6.353-6.352"/>
                    <path fill="#7F7F7F" d="M235.39 69.393c1.358 1.982 2.153 4.38 2.153 6.963h12.57c1.74 0 3.15-1.41 3.15-3.148 0-2.107-1.709-3.815-3.815-3.815H235.39zM33.63 69.393v.559c0 1.559 1.112 2.896 2.645 3.18l17.416 3.224H73.04c0-2.583.795-4.98 2.152-6.963H33.629zM95.564 69.393c1.357 1.982 2.151 4.38 2.151 6.963h115.152c0-2.583.795-4.98 2.152-6.963H95.564z"/>
                    <mask id="osuy275lzf" fill="#fff">
                        <use xlink:href="#wbt60sbzqe"/>
                    </mask>
                    <path fill="#AFAFAF" d="M32.306 67.295L35.116 67.295 35.116 52.422 32.306 52.422zM35.116 48.389L35.116 51.199 32.306 51.199M251.814 51.668L253.262 51.668 253.262 65.118 251.814 65.118" mask="url(#osuy275lzf)"/>
                    <path fill="#163560" d="M253.262 45.3V18.65c0-2.434-1.972-4.406-4.406-4.406h-10.235c-2.433 0-4.406 1.972-4.406 4.406v7.602c0 10.52 8.528 19.048 19.047 19.048" mask="url(#osuy275lzf)"/>
                    <path fill="#AFAFAF" d="M113.702 45.3h49.767c2.434 0 4.406-1.973 4.406-4.406V18.65c0-2.434-1.972-4.406-4.406-4.406h-49.767c-2.434 0-4.406 1.972-4.406 4.406v22.244c0 2.433 1.972 4.406 4.406 4.406M213.565 45.3h12.37c2.434 0 4.406-1.973 4.406-4.406V18.65c0-2.434-1.972-4.406-4.406-4.406h-12.37c-2.433 0-4.406 1.972-4.406 4.406v22.244c0 2.433 1.973 4.406 4.406 4.406M253.262 45.3V18.65c0-2.434-1.972-4.406-4.406-4.406h-10.235c-2.433 0-4.406 1.972-4.406 4.406v7.602c0 10.52 8.528 19.048 19.047 19.048" mask="url(#osuy275lzf)"/>
                    <path fill="#163560" d="M43.453 45.3h54.864c2.433 0 4.405-1.973 4.405-4.406V18.65c0-2.434-1.972-4.406-4.405-4.406H43.453c-2.434 0-4.407 1.972-4.407 4.406v22.244c0 2.433 1.973 4.406 4.407 4.406" mask="url(#osuy275lzf)"/>
                    <path fill="#AFAFAF" d="M43.453 45.3h54.864c2.433 0 4.405-1.973 4.405-4.406V18.65c0-2.434-1.972-4.406-4.405-4.406H43.453c-2.434 0-4.407 1.972-4.407 4.406v22.244c0 2.433 1.973 4.406 4.407 4.406M202.36 14.244H174.806c-1.136 0-2.056.92-2.056 2.056v60.056h31.666V16.3c0-1.136-.92-2.056-2.056-2.056M96.74 76.477c0 6.324-5.127 11.452-11.451 11.452-6.325 0-11.453-5.128-11.453-11.452 0-6.325 5.128-11.452 11.453-11.452 6.324 0 11.452 5.127 11.452 11.452M236.648 76.247c0 6.324-5.127 11.451-11.452 11.451s-11.452-5.127-11.452-11.451c0-6.325 5.127-11.452 11.452-11.452s11.452 5.127 11.452 11.452" mask="url(#osuy275lzf)"/>
                    <path fill="#163560" d="M149.457 54.211l.007.001h-.007" mask="url(#osuy275lzf)"/>
                    <path fill="#7F7F7F" d="M177.87 65.397c-1.484-.055-3.025-.085-4.626-.085 0 0-8.86-7.69-19.11-10.307 10.538 2.603 23.736 10.392 23.736 10.392" mask="url(#osuy275lzf)"/>
                    <path fill="#C4C4C4" d="M97.617 71.17v-8.49s9.96-1.139 15.984-3.32c13.944-5.123 21.438-5.218 34.102-5.218 9.615 0 19.353 6.439 23.485 9.54 1.392 1.044 3.08 1.622 4.822 1.66 15.21.333 24.612 3.37 29.281 5.419 2.188.96 3.597 3.129 3.597 5.518v2.859c.314 0 .569.255.569.569v4.743c0 .314-.255.569-.57.569h-9.075c.899-1.611 1.395-3.478 1.345-5.466-.142-5.66-4.766-10.27-10.426-10.395-6.005-.133-10.914 4.694-10.914 10.669 0 1.885.49 3.655 1.349 5.192h-55.843c.899-1.611 1.395-3.478 1.345-5.466-.142-5.66-4.765-10.27-10.426-10.395-6.005-.133-10.914 4.694-10.914 10.669 0 1.885.49 3.655 1.349 5.192h-2.23c-7.717 0-8.81-7.892-8.883-11.76-.021-1.149.905-2.09 2.053-2.09" mask="url(#osuy275lzf)"/>
                    <path fill="#7F7F7F" d="M152.592 55.675c8.81 2.23 18.257 9.85 18.257 9.85l-25.006-.535c-.98-.02-1.864-.598-2.277-1.488l-3.831-8.27h9.272c1.209 0 2.413.146 3.585.443M138.264 55.423l3.511 8.042c.27.618-.183 1.31-.857 1.31-3.543.002-12.844-.13-18.199-1.47-1.286-.323-1.718-1.941-.76-2.86 2.175-2.086 6.906-5.022 16.305-5.022M97.617 71.17h.967c.542 0 1.036-.311 1.267-.801.56-1.183 1.787-3.43 3.671-5.026.73-.619.293-1.81-.663-1.81h-5.242v7.636z" mask="url(#osuy275lzf)"/>
                    <path fill="#AFAFAF" d="M125.715 79.577c0 5.33-4.322 9.652-9.652 9.652-5.331 0-9.653-4.321-9.653-9.652 0-5.33 4.322-9.652 9.653-9.652 5.33 0 9.652 4.321 9.652 9.652M200.084 79.577c0 5.33-4.322 9.652-9.653 9.652-5.33 0-9.652-4.321-9.652-9.652 0-5.33 4.322-9.652 9.652-9.652 5.331 0 9.653 4.321 9.653 9.652" mask="url(#osuy275lzf)"/>
                </g>
                <g>
                    <path fill="#BEBDC0" d="M35.035 17.27L32.124 11.448 33.86 10.58 36.771 16.402z" transform="translate(-495 -255) translate(495 255) translate(243 39)"/>
                    <g>
                        <path fill="#B9B7BD" d="M49.003 44.878c-1.34 0-2.426-1.086-2.426-2.426s1.086-2.426 2.426-2.426 2.426 1.086 2.426 2.426-1.086 2.426-2.426 2.426" transform="translate(-495 -255) translate(495 255) translate(243 39) translate(0 .098)"/>
                        <g transform="translate(-495 -255) translate(495 255) translate(243 39) translate(0 .098) translate(41.622 35.135)">
                            <mask id="dxkog74eyh" fill="#fff">
                                <use xlink:href="#pyzrhp6ibg"/>
                            </mask>
                            <path fill="#514B5B" d="M7.381 11.684c-2.411 0-4.366-1.955-4.366-4.367S4.97 2.95 7.38 2.95c2.412 0 4.367 1.955 4.367 4.367 0 2.411-1.955 4.367-4.367 4.367m0-11.645C3.361.04.103 3.298.103 7.317c0 4.02 3.259 7.278 7.278 7.278 4.02 0 7.278-3.259 7.278-7.278C14.659 3.297 11.4.04 7.38.04" mask="url(#dxkog74eyh)"/>
                        </g>
                        <path fill="#DCDBDE" d="M48.974 43.362c-.33 0-.652-.168-.833-.47l-4.774-7.946c-.275-.46-.127-1.055.333-1.331.46-.277 1.056-.126 1.331.332l4.774 7.944c.276.46.127 1.056-.333 1.332-.156.094-.329.139-.498.139" transform="translate(-495 -255) translate(495 255) translate(243 39) translate(0 .098)"/>
                        <path fill="#56A2AD" d="M42.493 37.54h9.105c.367 0 .701-.208.864-.537l.503-1.02c.265-.537.13-1.178-.32-1.572-1.063-.932-3.437-2.465-8.009-3.118l-2.143 6.247z" transform="translate(-495 -255) translate(495 255) translate(243 39) translate(0 .098)"/>
                        <g transform="translate(-495 -255) translate(495 255) translate(243 39) translate(0 .098) translate(1.892 35.135)">
                            <mask id="1hu6cwatpj" fill="#fff">
                                <use xlink:href="#5ioo0rewfi"/>
                            </mask>
                            <path fill="#514B5B" d="M7.327 11.684c-2.412 0-4.367-1.955-4.367-4.367S4.915 2.95 7.327 2.95c2.411 0 4.366 1.955 4.366 4.367 0 2.411-1.955 4.367-4.366 4.367m0-11.645C3.307.04.049 3.298.049 7.317c0 4.02 3.258 7.278 7.278 7.278 4.019 0 7.277-3.259 7.277-7.278 0-4.02-3.258-7.278-7.277-7.278" mask="url(#1hu6cwatpj)"/>
                        </g>
                        <path fill="#DCDBDE" d="M18.922 44.878H9.22c-1.34 0-2.426-1.086-2.426-2.426s1.086-2.426 2.426-2.426h9.703c1.34 0 2.426 1.086 2.426 2.426s-1.086 2.426-2.426 2.426" transform="translate(-495 -255) translate(495 255) translate(243 39) translate(0 .098)"/>
                        <path fill="#56A2AD" d="M35.903 41.967l1.679-9.233c.173-.95.14-1.925-.093-2.862l-2.556-11.194h2.911l4.852 12.615-2.912 10.674h-3.88z" transform="translate(-495 -255) translate(495 255) translate(243 39) translate(0 .098)"/>
                        <g transform="translate(-495 -255) translate(495 255) translate(243 39) translate(0 .098) translate(0 20.81)">
                            <mask id="9iy4c8ux9l" fill="#fff">
                                <use xlink:href="#hto80lgi4k"/>
                            </mask>
                            <path fill="#76C6CD" d="M41.796 20.842l4.115-8.917c.415-.9.345-1.948-.187-2.783L40.186.44c-.228-.359-.69-.487-1.071-.297h-.001c-.734.368-1.098 1.21-.862 1.996l1.599 5.33c.593 1.978.692 4.073.287 6.098l-1.012 5.059c-.181.907-.978 1.56-1.903 1.56H27.17l1.94-10.674-1.94-2.911-12.615-.97-7.414.823c-.75.084-1.319.718-1.319 1.474 0 .393.157.77.434 1.048l1.507 1.506S0 12.423 0 17.275v.97c0 .536.434.97.97.97h14.722c.515 0 1.008.205 1.372.569l2.745 2.744c.364.365.857.569 1.373.569h17.09c1.514 0 2.889-.88 3.524-2.255" mask="url(#9iy4c8ux9l)"/>
                        </g>
                        <path fill="#56A2AD" d="M29.11 30.323l-1.94-2.911-12.614-.97-7.415.823c-.75.083-1.319.718-1.319 1.473 0 .393.156.77.434 1.048l1.507 1.507h21.171l.177-.97zM40.755 19.649h-4.852c-1.072 0-1.94-.87-1.94-1.941 0-1.072.868-1.94 1.94-1.94h4.852v3.88z" transform="translate(-495 -255) translate(495 255) translate(243 39) translate(0 .098)"/>
                        <path fill="#625D6B" d="M35.903 18.678c-.248 0-.497-.094-.686-.284l-.686-.686h-2.51c-.536 0-.97-.434-.97-.97s.434-.97.97-.97h2.51c.51 0 1.01.207 1.372.568l.686.686c.38.38.38.993 0 1.372-.19.19-.438.284-.686.284" transform="translate(-495 -255) translate(495 255) translate(243 39) translate(0 .098)"/>
                        <path fill="#BEBDC0" d="M40.755 19.649h-.97v-3.882h.97c.536 0 .97.435.97.97v1.942c0 .536-.434.97-.97.97" transform="translate(-495 -255) translate(495 255) translate(243 39) translate(0 .098)"/>
                        <path fill="#DCDBDE" d="M9.218 40.026c1.34 0 2.426 1.086 2.426 2.426s-1.086 2.426-2.426 2.426-2.425-1.086-2.425-2.426 1.086-2.426 2.425-2.426" transform="translate(-495 -255) translate(495 255) translate(243 39) translate(0 .098)"/>
                        <path fill="#625D6B" d="M12.615 26.735c0 .423.21.817.563 1.052l3.303 2.202c1.275.85 2.774 1.304 4.306 1.304h8.11c.613 0 1.072-.56.952-1.16l-.114-.572c-.363-1.814-1.956-3.12-3.806-3.12H20.72c-.872 0-1.742-.107-2.588-.319L16.8 25.79c-.847-.211-1.716-.318-2.59-.318h-.332c-.698 0-1.264.566-1.264 1.264" transform="translate(-495 -255) translate(495 255) translate(243 39) translate(0 .098)"/>
                        <path fill="#56A2AD" d="M17.855 36.339l2.91 3.881c.367.489.942.776 1.553.776h4.852l1.411-7.762h-9.174c-1.599 0-2.512 1.826-1.552 3.105" transform="translate(-495 -255) translate(495 255) translate(243 39) translate(0 .098)"/>
                        <path fill="#BEBDC0" d="M32.992 13.827h-.97c-.536 0-.97-.435-.97-.97v-1.941c0-.536.434-.97.97-.97h.97c1.072 0 1.94.868 1.94 1.94s-.868 1.94-1.94 1.94" transform="translate(-495 -255) translate(495 255) translate(243 39) translate(0 .098)"/>
                        <path fill="#FFB27D" d="M22.06 8.634c-1.71.694-4.836-.79-4.836-.79s1.037-.919 1.235-2.658c.01-.088.018-.177.023-.269l.884-.314 1.515 1.03s.036.508-.018 1.396c-.009.155-.021.321-.037.499.786.352 1.234 1.106 1.234 1.106" transform="translate(-495 -255) translate(495 255) translate(243 39) translate(0 .098)"/>
                        <path fill="#ED975D" d="M20.88 5.634s.037.507-.017 1.395c-1.378-.25-2.136-1.364-2.404-1.843.01-.088.018-.177.023-.269l.884-.314 1.515 1.031z" transform="translate(-495 -255) translate(495 255) translate(243 39) translate(0 .098)"/>
                        <path fill="#FFB27D" d="M21.16 6.373s-2.945-.096-2.857-1.929c.088-1.833-.233-3.08 1.651-3.096 1.884-.016 2.215.7 2.335 1.32.12.619-.36 3.682-1.129 3.705" transform="translate(-495 -255) translate(495 255) translate(243 39) translate(0 .098)"/>
                        <path fill="#2B478B" d="M18.46 5.186s-.116-.61.216-1.012c0 0-.214-.598.016-.732.23-.134.35.377.45.28.1-.095.547-.547.684-1.144.137-.596 2.179-.169 2.42-.097.24.072-1.355-2.906-3.078-2.2-1.723.705-1.853 1.59-1.654 2.306.199.717.181 2.452.945 2.599" transform="translate(-495 -255) translate(495 255) translate(243 39) translate(0 .098)"/>
                        <path fill="#6BB7BF" d="M15.642 22.68s.204 3.597 1.023 4.622c.82 1.025 16.517.627 16.517.627s.068-2.306-.546-2.9c-.614-.592-3.48-2.296-12.633-3.262l-4.36.913z" transform="translate(-495 -255) translate(495 255) translate(243 39) translate(0 .098)"/>
                        <path fill="#F99746" d="M15.433 15.151c.256 3.09-.081 7.79.21 8.604.25.702 3.105.284 4.244.05.422-.087.933-.21 1.46-.358 1.472-.408 3.076-.993 3.247-1.427.008-.017.013-.033.016-.05.017-.062.013-.121-.002-.18-.043-.165-.175-.338-.251-.639-.027-.106-.047-.227-.054-.37-.026-.56-.025-1.21-.044-1.91l-.006-.194c-.001-.087-.003-.182-.013-.269v-.032l-.002-.05c-.025-.863-.075-1.77-.133-2.67-.019-.28-.039-.56-.06-.835l-.023-.29-.046-.536c-.129-1.384-.302-2.615-.53-3.393-.374-1.27-1.2-2.096-1.95-2.702l-.544-.418c-.606.118-1.323.039-1.97-.236-.702-.3-.944-.514-1.066-.433-1.62 1.122-2.785 4.56-2.483 8.338" transform="translate(-495 -255) translate(495 255) translate(243 39) translate(0 .098)"/>
                        <path fill="#1C4575" d="M27.534 39.763s.139 2.24.572 2.272c.058.004 2.197.004 2.197.004l2.731-.016s-.018-.658-.816-.797c-.798-.14-2.134-.7-2.618-1.755-.509-1.11-2.066.292-2.066.292" transform="translate(-495 -255) translate(495 255) translate(243 39) translate(0 .098)"/>
                        <path fill="#6BB7BF" d="M26.963 39.91s.528.405 1.604.457c.277.013.53-.001.753-.03.593-.075.964-.246.964-.246l2.898-12.162s-3.14-2.743-4.778-1.037c-.213.222-.395.608-.551 1.11-1.039 3.354-.89 11.907-.89 11.907" transform="translate(-495 -255) translate(495 255) translate(243 39) translate(0 .098)"/>
                        <path fill="#ED7D2B" d="M20.003 12.803s2.033 7.441 4.353 8.348c-.026-.106-.046-.227-.053-.37-.026-.56-.025-1.21-.044-1.91l-.006-.194c-.001-.087-.003-.182-.013-.269v-.032l-.002-.05c-.025-.862-.075-1.77-.133-2.67-.019-.28-.039-.56-.06-.835-1.022-1.235-2.409-2.122-4.042-2.018" transform="translate(-495 -255) translate(495 255) translate(243 39) translate(0 .098)"/>
                        <path fill="#FFB27D" d="M32.194 15.67s.885.067 1.113 0c.227-.069 1.297-.706 1.684-.57.386.137 1.364 1.138 1.114 1.593 0 0-.455.011-.876-.421-.42-.432-.876-.136-.83-.08.045.057.705.319.592.433-.114.113-.979.09-1.183-.046-.205-.136-1.73.034-1.73.034l.116-.944z" transform="translate(-495 -255) translate(495 255) translate(243 39) translate(0 .098)"/>
                        <path fill="#F99746" d="M20.003 8.878s5.504 4.692 6.953 5.144c1.448.453 6.567 1.448 6.567 1.448s.141 1.212-.339 1.667c0 0-6.577-.382-7.396-.555-.819-.174-6.921-3.335-7.42-3.575-.497-.238-.42-4.515 1.635-4.129" transform="translate(-495 -255) translate(495 255) translate(243 39) translate(0 .098)"/>
                        <path fill="#5AA9AD" d="M26.963 39.91s.528.405 1.604.457c.277.013.53-.001.753-.03-1.653-2.09-1.467-12.334-1.467-12.334-1.039 3.353-.89 11.906-.89 11.906" transform="translate(-495 -255) translate(495 255) translate(243 39) translate(0 .098)"/>
                    </g>
                </g>
                <path fill="#D9E3E9" d="M295.97 90.21c55.3 3.059 17.726 9.413-67.826 11.594-85.552 2.181-206.912-1.891-227.035-6.698-20.123-4.806 239.562-7.955 294.861-4.896z" transform="translate(-495 -255) translate(495 255)"/>
            </g>
        </g>
    </g>
</svg>
