<?xml version="1.0" encoding="UTF-8"?>
<svg width="80px" height="80px" viewBox="0 0 80 80" version="1.1" xmlns="http://www.w3.org/2000/svg" xmlns:xlink="http://www.w3.org/1999/xlink">
    <title>scooter-front</title>
    <defs>
        <rect id="path-1" x="0" y="0" width="80" height="80"></rect>
        <path d="M74.2026716,36.4665968 C75.1795466,38.2800835 75.6984978,40.311502 75.6984978,42.4157252 C75.6984978,49.3509554 70.07596,54.9730316 63.1404826,54.9730316 C58.983695,54.9730316 55.1710178,52.9377806 52.8395731,49.5995 L52.7279221,49.4369564 L53.7716363,48.7318985 C55.8600254,51.8233912 59.3395103,53.7134896 63.1404826,53.7134896 C69.3803573,53.7134896 74.4389558,48.6553064 74.4389558,42.4157252 C74.4389558,40.600285 74.0104602,38.8473088 73.2014552,37.268818 L73.0937788,37.0639266 L74.2026716,36.4665968 Z" id="path-3"></path>
        <filter x="-61.8%" y="-67.5%" width="222.7%" height="254.0%" filterUnits="objectBoundingBox" id="filter-4">
            <feMorphology radius="1" operator="dilate" in="SourceAlpha" result="shadowSpreadOuter1"></feMorphology>
            <feOffset dx="0" dy="2" in="shadowSpreadOuter1" result="shadowOffsetOuter1"></feOffset>
            <feGaussianBlur stdDeviation="4" in="shadowOffsetOuter1" result="shadowBlurOuter1"></feGaussianBlur>
            <feComposite in="shadowBlurOuter1" in2="SourceAlpha" operator="out" result="shadowBlurOuter1"></feComposite>
            <feColorMatrix values="0 0 0 0 1   0 0 0 0 0.796078431   0 0 0 0 0.0235294118  0 0 0 1 0" type="matrix" in="shadowBlurOuter1"></feColorMatrix>
        </filter>
        <polygon id="path-5" points="0.128794984 0.0595419847 5.15087786 0.0595419847 5.15087786 5.08194384 0.128794984 5.08194384"></polygon>
    </defs>
    <g id="Desktop" stroke="none" stroke-width="1" fill="none" fill-rule="evenodd">
        <g id="scooter-front">
            <mask id="mask-2" fill="white">
                <use xlink:href="#path-1"></use>
            </mask>
            <g id="Mask"></g>
            <g id="front-copy" mask="url(#mask-2)">
                <g transform="translate(-27.000000, 12.000000)">
                    <g id="Stroke-1" fill="none" fill-rule="nonzero">
                        <use fill="black" fill-opacity="1" filter="url(#filter-4)" xlink:href="#path-3"></use>
                        <use stroke="#FFCB06" stroke-width="2" fill="#FFCB06" xlink:href="#path-3"></use>
                    </g>
                    <polygon id="Fill-3" fill="#BEBDC0" fill-rule="evenodd" points="45.3321483 9.70491821 41.5657634 2.17214831 43.8117012 1.04900218 47.5780862 8.5821265"></polygon>
                    <path d="M63.4056925,45.5544384 C61.6718866,45.5544384 60.2669793,44.1491767 60.2669793,42.4157252 C60.2669793,40.6819193 61.6718866,39.2766576 63.4056925,39.2766576 C65.1394984,39.2766576 66.5444057,40.6819193 66.5444057,42.4157252 C66.5444057,44.1491767 65.1394984,45.5544384 63.4056925,45.5544384" id="Fill-5" fill="#B9B7BD" fill-rule="evenodd"></path>
                    <path d="M63.4056925,48.0654798 C60.2850545,48.0654798 57.7559378,45.5360087 57.7559378,42.4157252 C57.7559378,39.2950872 60.2850545,36.7656161 63.4056925,36.7656161 C66.525976,36.7656161 69.0554471,39.2950872 69.0554471,42.4157252 C69.0554471,45.5356543 66.525976,48.0654798 63.4056925,48.0654798 M63.4056925,32.9988768 C58.2049836,32.9988768 53.9891985,37.2150164 53.9891985,42.4157252 C53.9891985,47.6160796 58.2049836,51.8322192 63.4056925,51.8322192 C68.6064013,51.8322192 72.8221865,47.6160796 72.8221865,42.4157252 C72.8221865,37.2150164 68.6064013,32.9988768 63.4056925,32.9988768" id="Fill-7" fill="#514B5B" fill-rule="evenodd"></path>
                    <path d="M63.3675927,43.59253 C62.9408751,43.59253 62.5251445,43.375627 62.2898119,42.9836423 L56.1137486,32.7037895 C55.7568511,32.1094329 55.9492993,31.337868 56.5443648,30.9806161 C57.1390758,30.6226554 57.9102863,30.8175845 58.2668293,31.410169 L64.443247,41.6900218 C64.7997901,42.2847328 64.6073419,43.0559433 64.0126309,43.4135496 C63.810259,43.5351145 63.5869766,43.59253 63.3675927,43.59253" id="Fill-9" fill="#DCDBDE" fill-rule="evenodd"></path>
                    <path d="M54.9827345,36.0592639 L66.7638959,36.0592639 C67.2377508,36.0592639 67.6712023,35.7902617 67.8810169,35.3649618 L68.5317257,34.0458233 C68.874801,33.3508124 68.7014913,32.5214776 68.118476,32.0107634 C66.7429853,30.8046838 63.6712568,28.821723 57.7553353,27.9767939 L54.9827345,36.0592639 Z" id="Fill-11" fill="#56A2AD" fill-rule="evenodd"></path>
                    <path d="M24.4835578,45.5544384 L11.9279962,45.5544384 C10.1945447,45.5544384 8.78928299,44.1491767 8.78928299,42.4157252 C8.78928299,40.6819193 10.1945447,39.2766576 11.9279962,39.2766576 L24.4835578,39.2766576 C26.2173637,39.2766576 27.622271,40.6819193 27.622271,42.4157252 C27.622271,44.1491767 26.2173637,45.5544384 24.4835578,45.5544384" id="Fill-15" fill="#C3C9D2" fill-rule="evenodd"></path>
                    <path d="M46.4556489,41.7877345 L48.627868,29.8414149 C48.8515049,28.6126527 48.8103926,27.3498664 48.507012,26.1377617 L45.1999509,11.6548828 L48.9666903,11.6548828 L55.2444711,27.9768293 L51.4777317,41.7877345 L46.4556489,41.7877345 Z" id="Fill-17" fill="#56A2AD" fill-rule="evenodd"></path>
                    <path d="M35.1555016,40.5322137 L37.6668975,26.7213086 L35.1555016,22.9545692 L18.8332007,21.6988713 L9.23949836,22.7649564 C8.26839695,22.8730534 7.53333697,23.6938822 7.53333697,24.6713631 C7.53333697,25.1799509 7.73570883,25.6676281 8.09473282,26.027361 L10.0443784,27.9766521 C10.0443784,27.9766521 0.000212649945,30.4876936 0.000212649945,36.7654744 L0.000212649945,38.0211723 C0.000212649945,38.7147655 0.562317339,39.2768702 1.25555616,39.2768702 L20.3043839,39.2768702 C20.9703326,39.2768702 21.6089913,39.541265 22.0796565,40.0122846 L25.631265,43.5635387 C26.1019302,44.0342039 26.7409433,44.2989531 27.406892,44.2989531 L39.4538659,44.2989531 L39.4538659,40.5322137 L35.1555016,40.5322137 Z" id="Fill-19" fill="#CCE8EF" fill-rule="evenodd"></path>
                    <path d="M54.0801063,41.3812186 L59.4052154,29.843187 C59.9421565,28.6796374 59.8510714,27.3232852 59.1631489,26.242669 L51.9979089,14.9828544 C51.7023255,14.5185687 51.1040703,14.3527017 50.6114313,14.5986668 L50.6100136,14.5993757 C49.6601772,15.0742939 49.189512,16.1637704 49.4946647,17.1813004 L51.5633942,24.0775382 C52.3314149,26.6378435 52.4593593,29.3473582 51.9348228,31.9686232 L50.6259624,38.5136341 C50.3913386,39.6874618 49.3606952,40.5320365 48.1638304,40.5320365 L39.4536887,40.5320365 L39.4536887,44.2987759 L49.5198282,44.2987759 C51.4790431,44.2987759 53.2592775,43.1600354 54.0801063,41.3812186" id="Fill-21" fill="#76C6CD" fill-rule="evenodd"></path>
                    <path d="M37.6668621,26.7210605 L35.1558206,22.9543212 L18.8335196,21.6989776 L9.23981734,22.7647083 C8.2683615,22.8728053 7.53365594,23.6936341 7.53365594,24.671115 C7.53365594,25.1797028 7.73567339,25.6677345 8.0950518,26.0271129 L10.044343,27.976404 L37.4382634,27.976404 L37.6668621,26.7210605 Z" id="Fill-23" fill="#C4DFE7" fill-rule="evenodd"></path>
                    <path d="M52.7333588,12.9098719 L46.455578,12.9098719 C45.0687459,12.9098719 43.9445365,11.7856625 43.9445365,10.3988304 C43.9445365,9.01199836 45.0687459,7.88778899 46.455578,7.88778899 L52.7333588,7.88778899 L52.7333588,12.9098719 Z" id="Fill-25" fill="#56A2AD" fill-rule="evenodd"></path>
                    <path d="M46.4556489,11.6545284 C46.1345474,11.6545284 45.813446,11.5319002 45.5678353,11.2866439 L44.6800218,10.3991848 L41.4332116,10.3991848 C40.7392639,10.3991848 40.177868,9.83672574 40.177868,9.14348691 C40.177868,8.44989368 40.7392639,7.88778899 41.4332116,7.88778899 L44.6800218,7.88778899 C45.3410087,7.88778899 45.9885278,8.15572792 46.4556489,8.6235578 L47.343108,9.51137132 C47.8336205,10.0015294 47.8336205,10.7964858 47.343108,11.2866439 C47.0978517,11.5319002 46.7767503,11.6545284 46.4556489,11.6545284" id="Fill-27" fill="#625D6B" fill-rule="evenodd"></path>
                    <path d="M52.7333588,12.9098719 L51.4776609,12.9098719 L51.4776609,7.88778899 L52.7333588,7.88778899 C53.426952,7.88778899 53.9890567,8.45024809 53.9890567,9.14348691 L53.9890567,11.6545284 C53.9890567,12.3477672 53.426952,12.9098719 52.7333588,12.9098719" id="Fill-29" fill="#BEBDC0" fill-rule="evenodd"></path>
                    <path d="M16.32262,22.0790185 L16.32262,22.0790185 C16.32262,22.6258833 16.5958751,23.1365976 17.050946,23.4399782 L21.3252099,26.2894875 C22.9753735,27.3895965 24.9136778,27.9765104 26.8973473,27.9765104 L37.3909133,27.9765104 C38.1833888,27.9765104 38.7773909,27.2517285 38.6225109,26.4748473 L38.4747192,25.7358888 C38.0051172,23.3885878 35.9438304,21.6987296 33.5497465,21.6987296 L26.8119329,21.6987296 C25.6827617,21.6987296 24.5574891,21.5605071 23.4623419,21.2861887 L21.7388141,20.8555725 C20.6433124,20.5816085 19.5183942,20.4430316 18.389223,20.4430316 L17.9582525,20.4430316 C17.0544902,20.443386 16.32262,21.1756107 16.32262,22.0790185" id="Fill-33" fill="#C3C9D2" fill-rule="evenodd"></path>
                    <path d="M23.1025736,34.5055725 L26.869313,39.5276554 C27.3435224,40.1599346 28.0874427,40.532072 28.8781461,40.532072 L35.1559269,40.532072 L36.9818811,30.4875518 L25.1114068,30.4875518 C23.0419684,30.4879062 21.8606979,32.8500927 23.1025736,34.5055725" id="Fill-35" fill="#C4DFE7" fill-rule="evenodd"></path>
                    <g id="Group-39" stroke-width="1" fill="none" fill-rule="evenodd" transform="translate(40.049073, 0.294875)">
                        <mask id="mask-6" fill="white">
                            <use xlink:href="#path-5"></use>
                        </mask>
                        <g id="Clip-38"></g>
                        <path d="M2.63983642,5.08194384 L1.3841385,5.08194384 C0.690899673,5.08194384 0.128794984,4.51983915 0.128794984,3.82624591 L0.128794984,1.31520447 C0.128794984,0.621965649 0.690899673,0.0595065431 1.3841385,0.0595065431 L2.63983642,0.0595065431 C4.02666848,0.0595065431 5.15087786,1.18371592 5.15087786,2.57054798 C5.15087786,3.95773446 4.02666848,5.08194384 2.63983642,5.08194384" id="Fill-37" fill="#BEBDC0" mask="url(#mask-6)"></path>
                    </g>
                </g>
            </g>
        </g>
    </g>
</svg>