<?xml version="1.0" encoding="UTF-8"?>
<svg width="181px" height="131px" viewBox="0 0 181 131" version="1.1" xmlns="http://www.w3.org/2000/svg" xmlns:xlink="http://www.w3.org/1999/xlink">
    <title>front</title>
    <defs>
        <polygon id="path-1" points="0.306766234 0.141818182 12.2684545 0.141818182 12.2684545 12.1042662 0.306766234 12.1042662"></polygon>
    </defs>
    <g id="Desktop" stroke="none" stroke-width="1" fill="none" fill-rule="evenodd">
        <g id="2-Wheeler-Tool_2.-wheeler-tyre-views_02" transform="translate(-140.000000, -218.000000)">
            <g id="front" transform="translate(140.000000, 218.000000)">
                <path d="M176.737272,86.8568034 C179.064011,91.1761988 180.300058,96.0146684 180.300058,101.026545 C180.300058,117.545003 166.908196,130.935766 150.389149,130.935766 C140.488437,130.935766 131.407333,126.088168 125.854256,118.136991 L125.588323,117.749842 L128.074261,116.070522 C133.048424,123.433895 141.335925,127.935766 150.389149,127.935766 C165.251397,127.935766 177.300058,115.888093 177.300058,101.026545 C177.300058,96.7024969 176.27946,92.5272264 174.352557,88.7675483 L174.096091,88.2795343 L176.737272,86.8568034 Z" id="Stroke-1" fill="#FFCB06" fill-rule="nonzero"></path>
                <polygon id="Fill-3" fill="#BEBDC0" points="107.972935 23.1153506 99.0020909 5.17366234 104.351506 2.49853247 113.322351 20.4410649"></polygon>
                <path d="M151.020831,108.50239 C146.891221,108.50239 143.544987,105.155312 143.544987,101.026545 C143.544987,96.8969351 146.891221,93.5498571 151.020831,93.5498571 C155.150442,93.5498571 158.496675,96.8969351 158.496675,101.026545 C158.496675,105.155312 155.150442,108.50239 151.020831,108.50239" id="Fill-5" fill="#B9B7BD"></path>
                <path d="M151.020831,114.483234 C143.588039,114.483234 137.564143,108.458494 137.564143,101.026545 C137.564143,93.5937532 143.588039,87.569013 151.020831,87.569013 C158.452779,87.569013 164.477519,93.5937532 164.477519,101.026545 C164.477519,108.457649 158.452779,114.483234 151.020831,114.483234 M151.020831,78.5973247 C138.633688,78.5973247 128.592455,88.6394026 128.592455,101.026545 C128.592455,113.412844 138.633688,123.454922 151.020831,123.454922 C163.407974,123.454922 173.449208,113.412844 173.449208,101.026545 C173.449208,88.6394026 163.407974,78.5973247 151.020831,78.5973247" id="Fill-7" fill="#514B5B"></path>
                <path d="M150.930084,103.829481 C149.913721,103.829481 148.923526,103.312857 148.363006,102.379221 L133.652747,77.8944805 C132.802682,76.4788312 133.261058,74.6411039 134.678396,73.7901948 C136.09489,72.9375974 137.931773,73.4018831 138.780994,74.8133117 L153.492097,99.2980519 C154.341318,100.714545 153.882942,102.551429 152.466448,103.403182 C151.984435,103.692727 151.452617,103.829481 150.930084,103.829481" id="Fill-9" fill="#DCDBDE"></path>
                <path d="M130.958877,85.8866104 L159.019461,85.8866104 C160.148097,85.8866104 161.1805,85.2458961 161.68024,84.2329091 L163.23011,81.090961 C164.047253,79.4355714 163.634461,77.4602468 162.245825,76.2438182 C158.969656,73.3711558 151.653357,68.6481039 137.562708,66.6356364 L130.958877,85.8866104 Z" id="Fill-11" fill="#56A2AD"></path>
                <path d="M28.410487,114.483234 C20.9776948,114.483234 14.9537987,108.458494 14.9537987,101.026545 C14.9537987,93.5937532 20.9776948,87.569013 28.410487,87.569013 C35.8424351,87.569013 41.8671753,93.5937532 41.8671753,101.026545 C41.8671753,108.457649 35.8424351,114.483234 28.410487,114.483234 M28.410487,78.5973247 C16.0233442,78.5973247 5.98211039,88.6394026 5.98211039,101.026545 C5.98211039,113.412844 16.0233442,123.454922 28.410487,123.454922 C40.7976299,123.454922 50.8388636,113.412844 50.8388636,101.026545 C50.8388636,88.6394026 40.7976299,78.5973247 28.410487,78.5973247" id="Fill-13" fill="#C3C9D2"></path>
                <path d="M58.3153831,108.50239 L28.4103182,108.50239 C24.2815519,108.50239 20.934474,105.155312 20.934474,101.026545 C20.934474,96.8969351 24.2815519,93.5498571 28.4103182,93.5498571 L58.3153831,93.5498571 C62.4449935,93.5498571 65.7912273,96.8969351 65.7912273,101.026545 C65.7912273,105.155312 62.4449935,108.50239 58.3153831,108.50239" id="Fill-15" fill="#C3C9D2"></path>
                <path d="M110.648909,99.5307857 L115.82274,71.0768247 C116.355403,68.1501364 116.257481,65.1424091 115.534883,62.2553961 L107.658065,27.7598117 L116.629753,27.7598117 L131.582286,66.6357208 L122.610597,99.5307857 L110.648909,99.5307857 Z" id="Fill-17" fill="#56A2AD"></path>
                <path d="M83.734013,96.5403636 L89.7157013,63.6452987 L83.734013,54.6736104 L44.8572597,51.6827662 L22.0068052,54.221987 C19.6938182,54.4794545 17.943039,56.4345195 17.943039,58.7627013 C17.943039,59.9740649 18.4250519,61.1356234 19.2801818,61.9924416 L23.9238831,66.6352987 C23.9238831,66.6352987 0.000506493506,72.6161429 0.000506493506,87.5686753 L0.000506493506,90.5595195 C0.000506493506,92.2115325 1.33933766,93.5503636 2.99050649,93.5503636 L48.3613506,93.5503636 C49.9475195,93.5503636 51.4686883,94.1801039 52.5897273,95.301987 L61.049013,103.760429 C62.1700519,104.881468 63.6920649,105.512052 65.2782338,105.512052 L93.9719351,105.512052 L93.9719351,96.5403636 L83.734013,96.5403636 Z" id="Fill-19" fill="#CCE8EF"></path>
                <path d="M128.808981,98.562539 L141.492422,71.0810455 C142.771318,68.3096818 142.55437,65.0790974 140.915864,62.5052662 L123.849565,35.6864351 C123.145539,34.5805909 121.720604,34.185526 120.547227,34.7713701 L120.543851,34.7730584 C118.281513,35.9042273 117.160474,38.4991623 117.887292,40.9227338 L122.81463,57.3483182 C124.643916,63.4465 124.948656,69.9000714 123.699305,76.1434481 L120.581838,91.732474 C120.023006,94.5283182 117.568201,96.5399416 114.717487,96.5399416 L93.971513,96.5399416 L93.971513,105.51163 L117.947227,105.51163 C122.613721,105.51163 126.853916,102.799357 128.808981,98.562539" id="Fill-21" fill="#76C6CD"></path>
                <path d="M89.7156169,63.6447078 L83.7347727,54.6730195 L44.8580195,51.6830195 L22.0075649,54.2213961 C19.6937338,54.4788636 17.9437987,56.4339286 17.9437987,58.7621104 C17.9437987,59.973474 18.4249675,61.1358766 19.2809416,61.9918506 L23.9237987,66.6347078 L89.1711364,66.6347078 L89.7156169,63.6447078 Z" id="Fill-23" fill="#C4DFE7"></path>
                <path d="M125.601273,30.7489675 L110.64874,30.7489675 C107.345558,30.7489675 104.667896,28.0713052 104.667896,24.7681234 C104.667896,21.4649416 107.345558,18.7872792 110.64874,18.7872792 L125.601273,18.7872792 L125.601273,30.7489675 Z" id="Fill-25" fill="#56A2AD"></path>
                <path d="M110.648909,27.7589675 C109.884104,27.7589675 109.119299,27.4668896 108.534299,26.8827338 L106.419688,24.7689675 L98.6863766,24.7689675 C97.0335195,24.7689675 95.6963766,23.4292922 95.6963766,21.7781234 C95.6963766,20.1261104 97.0335195,18.7872792 98.6863766,18.7872792 L106.419688,18.7872792 C107.994039,18.7872792 109.536312,19.425461 110.648909,20.5397468 L112.762675,22.6543571 C113.930987,23.8218247 113.930987,25.7152662 112.762675,26.8827338 C112.178519,27.4668896 111.413714,27.7589675 110.648909,27.7589675" id="Fill-27" fill="#625D6B"></path>
                <path d="M125.601273,30.7489675 L122.610429,30.7489675 L122.610429,18.7872792 L125.601273,18.7872792 C127.253286,18.7872792 128.592117,20.1269545 128.592117,21.7781234 L128.592117,27.7589675 C128.592117,29.4101364 127.253286,30.7489675 125.601273,30.7489675" id="Fill-29" fill="#BEBDC0"></path>
                <path d="M28.410487,93.550026 C32.5392532,93.550026 35.8863312,96.8971039 35.8863312,101.02587 C35.8863312,105.155481 32.5392532,108.502558 28.410487,108.502558 C24.2808766,108.502558 20.9346429,105.155481 20.9346429,101.02587 C20.9346429,96.8971039 24.2808766,93.550026 28.410487,93.550026" id="Fill-31" fill="#C3C9D2"></path>
                <path d="M38.877513,52.5882078 L38.877513,52.5882078 C38.877513,53.8907403 39.5283571,55.1071688 40.6122532,55.8297662 L50.7927727,62.6167792 C54.7231623,65.237039 59.3398506,66.634961 64.0645909,66.634961 L89.0583571,66.634961 C90.9458896,66.634961 92.3606948,64.9086623 91.9917987,63.0582727 L91.6397857,61.2982078 C90.5212792,55.7073636 85.6116688,51.6824286 79.9093961,51.6824286 L63.8611494,51.6824286 C61.1716688,51.6824286 58.491474,51.3532078 55.8830325,50.6998312 L51.7779026,49.6741818 C49.1686169,49.0216494 46.4892662,48.6915844 43.7997857,48.6915844 L42.7732922,48.6915844 C40.6206948,48.6924286 38.877513,50.4364545 38.877513,52.5882078" id="Fill-33" fill="#C3C9D2"></path>
                <path d="M55.0261299,82.186 L63.9978182,94.1476883 C65.1272987,95.6536623 66.8991818,96.540026 68.7824935,96.540026 L83.735026,96.540026 L88.0841169,72.6158052 L59.8108052,72.6158052 C54.8817792,72.6166494 52.0682078,78.2429481 55.0261299,82.186" id="Fill-35" fill="#C4DFE7"></path>
                <g id="Group-39" transform="translate(95.389610, 0.702338)">
                    <mask id="mask-2" fill="white">
                        <use xlink:href="#path-1"></use>
                    </mask>
                    <g id="Clip-38"></g>
                    <path d="M6.28761039,12.1042662 L3.29676623,12.1042662 C1.6455974,12.1042662 0.306766234,10.7654351 0.306766234,9.11342208 L0.306766234,3.13257792 C0.306766234,1.48140909 1.6455974,0.141733766 3.29676623,0.141733766 L6.28761039,0.141733766 C9.59079221,0.141733766 12.2684545,2.8193961 12.2684545,6.12257792 C12.2684545,9.4266039 9.59079221,12.1042662 6.28761039,12.1042662" id="Fill-37" fill="#BEBDC0" mask="url(#mask-2)"></path>
                </g>
            </g>
        </g>
    </g>
</svg>