<?xml version="1.0" encoding="UTF-8"?>
<svg width="80px" height="80px" viewBox="0 0 80 80" version="1.1" xmlns="http://www.w3.org/2000/svg" xmlns:xlink="http://www.w3.org/1999/xlink">
    <title>scooter-rear</title>
    <defs>
        <rect id="path-1" x="0" y="0" width="80" height="80"></rect>
        <path d="M1.89332941,36.3502667 L3.00222216,36.9475964 C2.11750086,38.5900075 1.64776081,40.4286182 1.64776081,42.3359694 C1.64776081,48.6189839 6.74092984,53.7120483 13.0238397,53.7120483 C16.7859383,53.7120483 20.2355391,51.8727321 22.3492178,48.853286 L22.4573494,48.6960587 L23.5010271,49.4011707 C21.166276,52.856973 17.2736617,54.9715903 13.0238397,54.9715903 C6.0453098,54.9715903 0.38821883,49.3146155 0.38821883,42.3359694 C0.38821883,40.3001887 0.87095705,38.3324025 1.78195722,36.561786 L1.89332941,36.3502667 Z" id="path-3"></path>
        <filter x="-60.6%" y="-64.4%" width="223.0%" height="250.3%" filterUnits="objectBoundingBox" id="filter-4">
            <feMorphology radius="1" operator="dilate" in="SourceAlpha" result="shadowSpreadOuter1"></feMorphology>
            <feOffset dx="0" dy="2" in="shadowSpreadOuter1" result="shadowOffsetOuter1"></feOffset>
            <feGaussianBlur stdDeviation="4" in="shadowOffsetOuter1" result="shadowBlurOuter1"></feGaussianBlur>
            <feComposite in="shadowBlurOuter1" in2="SourceAlpha" operator="out" result="shadowBlurOuter1"></feComposite>
            <feColorMatrix values="0 0 0 0 1   0 0 0 0 0.796078431   0 0 0 0 0.0235294118  0 0 0 1 0" type="matrix" in="shadowBlurOuter1"></feColorMatrix>
        </filter>
    </defs>
    <g id="Desktop" stroke="none" stroke-width="1" fill="none" fill-rule="evenodd">
        <g id="scooter-rear">
            <mask id="mask-2" fill="white">
                <use xlink:href="#path-1"></use>
            </mask>
            <g id="Mask"></g>
            <g id="rear-copy" mask="url(#mask-2)">
                <g transform="translate(35.000000, 12.000000)">
                    <g id="Stroke-1" fill="none" fill-rule="nonzero">
                        <use fill="black" fill-opacity="1" filter="url(#filter-4)" xlink:href="#path-3"></use>
                        <use stroke="#FFCB06" stroke-width="2" fill="#FFCB06" xlink:href="#path-3"></use>
                    </g>
                    <polygon id="Fill-5" fill="#E5EDF3" fill-rule="evenodd" points="46.5587417 9.41150901 42.7673831 1.82950531 45.0280003 0.699018361 48.8193589 8.28137879"></polygon>
                    <path d="M12.9359764,48.0230073 C9.79529886,48.0230073 7.24929527,45.476647 7.24929527,42.3359694 C7.24929527,39.1952919 9.79529886,36.6492883 12.9359764,36.6492883 C16.0770107,36.6492883 18.6230143,39.1952919 18.6230143,42.3359694 C18.6230143,45.476647 16.0770107,48.0230073 12.9359764,48.0230073 M12.9359764,32.8579297 C7.70127601,32.8579297 3.45793669,37.101269 3.45793669,42.3359694 C3.45793669,47.5706698 7.70127601,51.8140091 12.9359764,51.8140091 C18.1706768,51.8140091 22.4143728,47.5706698 22.4143728,42.3359694 C22.4143728,37.101269 18.1706768,32.8579297 12.9359764,32.8579297" id="Fill-15" fill="#514B5B" fill-rule="evenodd"></path>
                    <path d="M25.5738859,45.4953754 L12.9359051,45.4953754 C11.1911238,45.4953754 9.77667739,44.080929 9.77667739,42.3361478 C9.77667739,40.5910098 11.1911238,39.1765634 12.9359051,39.1765634 L25.5738859,39.1765634 C27.3190238,39.1765634 28.7331136,40.5910098 28.7331136,42.3361478 C28.7331136,44.080929 27.3190238,45.4953754 25.5738859,45.4953754" id="Fill-17" fill="#DCDBDE" fill-rule="evenodd"></path>
                    <path d="M36.315581,40.4405042 L38.8430345,26.5393317 L36.315581,22.7479731 L19.8865983,21.484068 L10.2301921,22.5571209 C9.2527436,22.6655678 8.51252258,23.4921182 8.51252258,24.4756311 C8.51252258,24.987543 8.71621713,25.4787644 9.07794442,25.8408484 L11.0403328,27.8028801 C11.0403328,27.8028801 0.930162151,30.3303335 0.930162151,36.6491456 L0.930162151,37.9130507 C0.930162151,38.6108205 1.49629746,39.1769558 2.19406726,39.1769558 L21.3673971,39.1769558 C22.0376984,39.1769558 22.6801746,39.4430786 23.1542728,39.9171768 L26.7290944,43.4916417 C27.2028359,43.9653832 27.8456688,44.231506 28.5163269,44.231506 L40.6420391,44.231506 L40.6420391,40.4405042 L36.315581,40.4405042 Z" id="Fill-21" fill="#76C6CD" fill-rule="evenodd"></path>
                    <path d="M55.3635192,41.2948798 L60.7234329,29.6814362 C61.2638834,28.5106384 61.172203,27.1450644 60.4801409,26.0573854 L53.2680694,14.7239772 C52.9705541,14.2566569 52.368032,14.0897059 51.8725298,14.3376353 L51.8711029,14.3379921 C50.9147016,14.8160143 50.4413169,15.9126116 50.7481073,16.9367921 L52.830358,23.8781033 C53.6037552,26.4551427 53.7321791,29.1827234 53.2045709,31.8207641 L51.8867991,38.4085529 C51.6509986,39.5900526 50.613619,40.4405042 49.4089315,40.4405042 L40.6418607,40.4405042 L40.6418607,44.231506 L50.7737921,44.231506 C52.7454555,44.231506 54.5376822,43.0853228 55.3635192,41.2948798" id="Fill-23" fill="#CCE8EF" fill-rule="evenodd"></path>
                    <path d="M38.8433555,26.5390463 L36.3155453,22.7476877 L19.8865626,21.4837826 L10.2301564,22.5568356 C9.25270793,22.6652824 8.51320037,23.4918328 8.51320037,24.4753458 C8.51320037,24.9872576 8.71653819,25.478479 9.07826548,25.840563 L11.0402971,27.8025947 L38.612906,27.8025947 L38.8433555,26.5390463 Z" id="Fill-25" fill="#56A2AD" fill-rule="evenodd"></path>
                    <path d="M47.6895854,11.3738974 C47.3663853,11.3738974 47.0428284,11.2504677 46.7959692,11.0036085 L45.9023529,10.110349 L42.6343217,10.110349 C41.9358384,10.110349 41.3704166,9.54457042 41.3704166,8.8464439 C41.3704166,8.14831737 41.9358384,7.58253879 42.6343217,7.58253879 L45.9023529,7.58253879 C46.5673033,7.58253879 47.2190545,7.85222896 47.6892287,8.32311655 L48.5828449,9.21673277 C49.0765634,9.71009455 49.0765634,10.5102467 48.5828449,11.0036085 C48.3359856,11.2504677 48.0127855,11.3738974 47.6895854,11.3738974" id="Fill-29" fill="#C7CDD6" fill-rule="evenodd"></path>
                    <path d="M12.9359764,39.1765991 C14.6811144,39.1765991 16.0952041,40.5910455 16.0952041,42.3358267 C16.0952041,44.0809647 14.6811144,45.4954111 12.9359764,45.4954111 C11.1911952,45.4954111 9.77674874,44.0809647 9.77674874,42.3358267 C9.77674874,40.5910455 11.1911952,39.1765991 12.9359764,39.1765991" id="Fill-33" fill="#DCDBDE" fill-rule="evenodd"></path>
                    <path d="M17.3592519,21.8665215 L17.3592519,21.8665215 C17.3592519,22.4169605 17.634293,22.9310128 18.092695,23.2363763 L22.3948952,26.1045098 C24.0554875,27.2118091 26.0068171,27.8029157 28.0030951,27.8029157 L38.5656032,27.8029157 C39.3632582,27.8029157 39.9611428,27.07304 39.8048937,26.2910812 L39.6564928,25.5472928 C39.1834648,23.18465 37.1087055,21.4837469 34.6993307,21.4837469 L27.9174792,21.4837469 C26.780571,21.4837469 25.6483004,21.3446211 24.5456386,21.0688664 L22.8112027,20.6350791 C21.7085409,20.3593245 20.5762703,20.2198418 19.4393621,20.2198418 L19.0055748,20.2198418 C18.0962623,20.2201986 17.3592519,20.9575657 17.3592519,21.8665215" id="Fill-35" fill="#625D6B" fill-rule="evenodd"></path>
                    <path d="M24.1835189,34.3742948 L27.9748775,39.4292017 C28.452543,40.0659702 29.2013256,40.4401831 29.9968403,40.4401831 L36.3156523,40.4401831 L38.1538976,30.3303692 L26.2058384,30.3303692 C24.1228743,30.3303692 22.9338832,32.7079948 24.1835189,34.3742948" id="Fill-37" fill="#56A2AD" fill-rule="evenodd"></path>
                    <path d="M43.8982268,5.05512099 L42.6343217,5.05512099 C41.9365519,5.05512099 41.3704166,4.48934241 41.3704166,3.79157262 L41.3704166,1.26376241 C41.3704166,0.565992616 41.9365519,0.000214039814 42.6343217,0.000214039814 L43.8982268,0.000214039814 C45.2941231,0.000214039814 46.4256803,1.13141446 46.4256803,2.52766751 C46.4256803,3.92356384 45.2941231,5.05512099 43.8982268,5.05512099" id="Fill-39" fill="#E5EDF3" fill-rule="evenodd"></path>
                </g>
            </g>
        </g>
    </g>
</svg>