<?xml version="1.0" encoding="UTF-8"?>
<svg width="80px" height="80px" viewBox="0 0 80 80" version="1.1" xmlns="http://www.w3.org/2000/svg" xmlns:xlink="http://www.w3.org/1999/xlink">
    <title>Group 13 Copy 4</title>
    <defs>
        <rect id="path-1" x="0" y="0" width="80" height="80"></rect>
        <polygon id="path-3" points="0 0.0657166544 12.3184432 0.0657166544 12.3184432 25.8327729 0 25.8327729"></polygon>
        <polygon id="path-5" points="0.0814157381 0.0403293488 5.19636953 0.0403293488 5.19636953 5.00202484 0.0814157381 5.00202484"></polygon>
        <polygon id="path-7" points="0.000572024288 0.0555461912 5.11552893 0.0555461912 5.11552893 5.01718443 0.000572024288 5.01718443"></polygon>
    </defs>
    <g id="Desktop" stroke="none" stroke-width="1" fill="none" fill-rule="evenodd">
        <g id="Group-13-Copy-4">
            <mask id="mask-2" fill="white">
                <use xlink:href="#path-1"></use>
            </mask>
            <g id="Mask"></g>
            <g id="Group-8" mask="url(#mask-2)">
                <g transform="translate(-3.000000, 19.000000)">
                    <path d="M30.3323576,48.4511723 C35.9996414,49.5918772 32.148966,51.9613498 23.3812128,52.7747928 C14.6134595,53.5882358 2.17590652,52.0694928 0.113653445,50.2771035 C-1.94859963,48.4847142 24.6650738,47.3104675 30.3323576,48.4511723 Z" id="Background-Shape-Copy-4" fill="#D9E3E9"></path>
                    <g id="Group-90" stroke-width="1" fill="none" transform="translate(4.000000, 0.000000)">
                        <g id="Group-3" transform="translate(0.000000, 20.278327)">
                            <mask id="mask-4" fill="white">
                                <use xlink:href="#path-3"></use>
                            </mask>
                            <g id="Clip-2"></g>
                            <path d="M1.91903589,22.4755347 C2.95619264,23.6255558 5.84244408,25.3540177 8.30501412,25.8327729 L12.3184432,0.88178752 L8.00569484,0.103148947 C8.00569484,0.103148947 6.0505756,-0.420076337 4.62216161,2.44584263 C3.97517851,3.7437389 -1.04998472,14.2114682 0.19838759,19.7836109 C0.616317666,20.7593888 1.19070063,21.6679658 1.91903589,22.4755347" id="Fill-1" fill="#C1C1C1" mask="url(#mask-4)"></path>
                        </g>
                        <path d="M9.61751794,37.9516211 L12.3183931,21.1600571 L8.00572818,20.3815011 C8.00572818,20.3815011 6.05060894,19.8582759 4.6221116,22.7241122 C4.10240796,23.7669258 0.756800185,30.7292937 0.109233619,36.3158188 L9.61751794,37.9516211 Z" id="Fill-4" fill="#76C6CD"></path>
                        <path d="M8.38383237,27.5762621 C8.38383237,27.5762621 7.42160963,26.6588407 6.59066728,28.4850044 C5.75989164,30.3110854 1.17933133,39.6973172 5.51891919,43.7375587 C5.64886594,43.8584047 8.04708775,45.7268066 8.20620792,45.8016122 L10.3773772,28.144536 L8.38383237,27.5762621 Z" id="Fill-6" fill="#56A2AD"></path>
                        <path d="M0.0868284325,36.5139914 C-0.049036351,37.8065149 -0.0350331095,39.0199347 0.198437601,40.0619217 C0.616367678,41.0377823 1.19066728,41.9463593 1.91900255,42.7538455 C2.95624265,43.9038666 5.8424941,45.6323285 8.30506414,46.1110838 L9.58594397,38.1482232 L0.0868284325,36.5139914 Z" id="Fill-8" fill="#56A2AD"></path>
                        <path d="M17.2072415,45.4244271 C15.8400083,46.1608274 12.53541,46.824158 10.054169,46.4524449 L14.7501727,21.6188339 L19.0754239,22.3263865 C19.0754239,22.3263865 21.0940579,22.4867431 21.4654772,25.6622164 C21.6336828,27.1003833 22.8097884,38.6350624 19.7415781,43.4645227 C19.0169104,44.2437399 18.1672971,44.9074011 17.2072415,45.4244271" id="Fill-10" fill="#C1C1C1"></path>
                        <path d="M11.5898162,38.3313355 L14.7502144,21.6188752 L19.0754656,22.3263452 C19.0754656,22.3263452 21.0940162,22.4867844 21.4654355,25.6622577 C21.6007168,26.8177342 22.3858152,34.4906305 21.0981005,39.9671378 L11.5898162,38.3313355 Z" id="Fill-12" fill="#76C6CD"></path>
                        <path d="M16.2756342,28.9743481 C16.2756342,28.9743481 17.493166,28.4319462 17.6552869,30.4288814 C17.8174077,32.4258165 18.941918,42.7936123 13.4836545,45.1482088 C13.3202,45.2186334 10.4276138,46.1767225 10.2524066,46.1939981 L14.205405,28.8435005 L16.2756342,28.9743481 Z" id="Fill-14" fill="#56A2AD"></path>
                        <path d="M21.0520482,40.161194 C20.7407261,41.4235473 20.315461,42.5614177 19.7415781,43.4644566 C19.0169104,44.2437564 18.1672971,44.907335 17.2072415,45.4244436 C15.8400083,46.1607613 12.53541,46.8241746 10.054169,46.4524614 L11.5528493,38.5269622 L21.0520482,40.161194 Z" id="Fill-16" fill="#56A2AD"></path>
                        <path d="M8.5864376,26.5239097 C8.5864376,26.5239097 7.4335874,26.3099908 7.20770178,27.3678481 C6.98181616,28.4257882 6.88062607,39.7513425 6.88062607,39.7513425 C6.88062607,39.7513425 6.84761843,41.7215791 7.90011206,41.7690248 L10.5091327,26.8547071 L8.5864376,26.5239097 Z" id="Fill-18" fill="#56A2AD"></path>
                        <path d="M16.374207,27.8637136 C16.374207,27.8637136 17.5323918,28.0472971 17.3856911,29.1188757 C17.2390739,30.1903716 13.4873721,40.8879729 13.4873721,40.8879729 C13.4873721,40.8879729 12.8493911,42.7541431 11.8422413,42.4472339 L14.4514286,27.5329162 L16.374207,27.8637136 Z" id="Fill-20" fill="#56A2AD"></path>
                        <polygon id="Fill-22" fill="#A8A7A1" points="8.54215235 43.1411562 7.68578745 42.9938596 8.4769706 38.4712259 9.33333549 38.6186052"></polygon>
                        <polygon id="Fill-24" fill="#A8A7A1" points="11.6279083 43.6720605 10.7717935 43.5247639 11.5629766 39.0021301 12.4190915 39.1495094"></polygon>
                        <path d="M10.9607622,49.7111796 C10.8149785,50.5444551 9.89843297,51.0827241 8.91328826,50.9132752 L7.78227645,50.7186982 C6.79746515,50.5492493 6.117141,49.736225 6.26292475,48.9029494 L9.14725909,32.415071 C9.29312619,31.5815475 10.2098384,31.0433611 11.194733,31.21281 L12.3256615,31.407387 C13.3108062,31.576836 13.9909636,32.3898603 13.8451799,33.2233011 L10.9607622,49.7111796 Z" id="Fill-26" fill="#514B5B"></path>
                        <path d="M15.5287113,26.7703464 C15.4430248,27.2602605 15.2058865,27.7591016 13.4639,27.4593836 L11.463687,27.1152783 C9.72211716,26.8157256 9.77296226,26.2176122 9.85873211,25.7276154 L10.1608854,15.9924015 C10.2465719,15.5024874 11.7282482,15.3482475 13.4699014,15.6478828 L15.470031,15.9919882 C17.2119342,16.2917062 18.5546617,16.9318099 18.4688919,17.421724 L15.5287113,26.7703464 Z" id="Fill-28" fill="#A7170D"></path>
                        <path d="M24.3493614,16.4084358 C24.3493614,16.4084358 20.8075416,16.7242721 19.4814013,16.2973434 C18.1551776,15.8706627 17.6373077,13.6975006 14.8568307,13.4019982 L13.796502,19.4634763 C13.796502,19.4634763 17.1643649,20.2699707 19.5772568,19.3323807 C21.9899819,18.3948734 23.3173725,17.6192105 24.3320241,17.6193759 L24.3493614,16.4084358 Z" id="Fill-30" fill="#56A2AD"></path>
                        <path d="M24.3493614,16.4084358 C24.3493614,16.4084358 20.8075416,16.7242721 19.4814013,16.2973434 C18.1551776,15.8706627 17.6373077,13.6975006 14.8568307,13.4019982 L13.796502,19.4634763 C13.796502,19.4634763 17.1643649,20.2699707 19.5772568,19.3323807 C21.9899819,18.3948734 23.3173725,17.6192105 24.3320241,17.6193759 L24.3493614,16.4084358 Z" id="Fill-32" fill="#56A2AD"></path>
                        <path d="M28.8252475,16.781083 C28.8493364,16.9964071 28.6396212,17.1961916 28.356639,17.2271883 L24.7151294,17.6279144 C24.4324807,17.6589938 24.1835897,17.5097135 24.1595842,17.2943066 L24.1100727,16.8518382 C24.0859838,16.6364314 24.2957824,16.4367297 24.5784311,16.4054849 L28.2198574,16.0049241 C28.5028395,15.9737621 28.7514804,16.1232078 28.7755693,16.3385319 L28.8252475,16.781083 Z" id="Fill-34" fill="#313030"></path>
                        <polygon id="Fill-36" fill="#313030" points="24.678621 18.0097697 24.2449373 18.0574634 24.0247196 16.0887146 24.45832 16.0410209"></polygon>
                        <path d="M4.8013781,13.0454446 C4.8013781,13.0454446 8.02895856,14.5259324 9.42261449,14.5668481 C10.8162704,14.6080118 12.0420542,12.7348157 14.7603501,13.385417 L13.7000213,19.4468951 C13.7000213,19.4468951 10.2548905,19.0812987 8.30152165,17.39243 C6.34815281,15.7038919 5.36184117,14.530148 4.40636999,14.1914154 L4.8013781,13.0454446 Z" id="Fill-38" fill="#C4C4C3"></path>
                        <path d="M4.8013781,13.0454446 C4.8013781,13.0454446 8.02895856,14.5259324 9.42261449,14.5668481 C10.8162704,14.6080118 12.0420542,12.7348157 14.7603501,13.385417 L13.7000213,19.4468951 C13.7000213,19.4468951 10.2548905,19.0812987 8.30152165,17.39243 C6.34815281,15.7038919 5.36184117,14.530148 4.40636999,14.1914154 L4.8013781,13.0454446 Z" id="Fill-40" fill="#56A2AD"></path>
                        <path d="M0.460531605,11.9012674 C0.364676082,12.0960097 0.494206066,12.3541507 0.750181987,12.4778898 L4.04277749,14.0714538 C4.29833665,14.1951102 4.58340264,14.1377455 4.67909146,13.9429206 L4.87622042,13.5428558 C4.97199259,13.3481135 4.8421292,13.0899724 4.58673674,12.9660681 L1.29414124,11.3726694 C1.03833202,11.248765 0.753432739,11.3064603 0.657493864,11.5012026 L0.460531605,11.9012674 Z" id="Fill-42" fill="#313030"></path>
                        <polygon id="Fill-44" fill="#313030" points="3.94750544 14.4432496 4.3395962 14.6330324 5.21571567 12.8528266 4.82362491 12.6630438"></polygon>
                        <path d="M13.3582088,34.0296053 C13.2135087,34.8568468 12.3844001,35.4050348 11.5064469,35.2540186 L10.4983802,35.0805194 C9.62059366,34.9295859 9.02612271,34.1363995 9.17090623,33.3092407 L12.0339023,16.9437788 C12.1786858,16.1166199 13.007711,15.5683493 13.8854976,15.7193655 L14.8935643,15.892782 C15.7715175,16.0438809 16.3659884,16.8369019 16.2212883,17.6642261 L13.3582088,34.0296053 Z" id="Fill-46" fill="#E5EDF3"></path>
                        <path d="M14.2510739,28.9257535 L16.2212799,17.6641765 C16.3659801,16.836935 15.7715091,16.0438313 14.8935559,15.8928151 L13.8854892,15.7193985 C13.0077027,15.5683823 12.1786775,16.1165703 12.033894,16.9438118 L10.0650215,28.1978669 C10.7068368,28.8511133 13.046545,29.4783224 14.2510739,28.9257535" id="Fill-48" fill="#DAE3E8"></path>
                        <path d="M16.8187266,28.5286065 L18.6463996,18.0813763 C18.7910164,17.2542175 17.3797731,16.3205125 15.4940032,15.9960797 L13.3288354,15.6236227 C11.4434823,15.2992726 9.79735124,15.7068593 9.65256772,16.5341835 L7.824978,26.981331 L16.8187266,28.5286065 Z" id="Fill-50" fill="#56A2AD"></path>
                        <path d="M8.25790322,28.3730193 C8.11145265,29.2102624 7.30835008,29.7710971 6.46423802,29.6258669 C5.62012596,29.4806368 5.05441167,28.6843094 5.20086224,27.8471489 C5.3473128,27.0100712 6.15041537,26.4493191 6.99461079,26.5944666 C7.83872285,26.7396968 8.40435379,27.5360241 8.25790322,28.3730193" id="Fill-52" fill="#D5DDE2"></path>
                        <path d="M8.12050475,28.4691175 C7.98522343,29.2421353 7.24380181,29.7599878 6.46437138,29.6259165 C5.68485761,29.4917626 5.16248669,28.7565194 5.29768465,27.9835016 C5.43288261,27.2104838 6.17455429,26.6927139 6.95406807,26.8267853 C7.73341514,26.9608566 8.25570271,27.6961823 8.12050475,28.4691175" id="Fill-54" fill="#E5EDF3"></path>
                        <path d="M7.31425145,29.5128734 C7.72426302,29.3229253 8.03733549,28.9446822 8.12052142,28.4691506 C8.22287844,27.8835185 7.94756471,27.3201214 7.46928734,27.0228005 C7.2254809,27.3563256 6.93299653,27.8917016 6.68343876,28.2219204 C6.91657606,28.7069577 7.12845844,29.007089 7.31425145,29.5128734" id="Fill-56" fill="#D5DDE2"></path>
                        <path d="M19.7446955,30.3491825 C19.5981616,31.1864256 18.7952257,31.7472603 17.950947,31.6020301 C17.1069183,31.4568 16.5411206,30.6604726 16.6876545,29.8233122 C16.8341051,28.9862344 17.637291,28.4254823 18.4813197,28.5706298 C19.3255985,28.7159426 19.8911461,29.5121874 19.7446955,30.3491825" id="Fill-58" fill="#D5DDE2"></path>
                        <path d="M19.6072971,30.445322 C19.4720991,31.2182572 18.7304274,31.7361097 17.950997,31.6020384 C17.1714832,31.4679671 16.6493624,30.7326413 16.7845603,29.9597062 C16.9197583,29.1866883 17.6611799,28.6688358 18.4406937,28.8029071 C19.2201241,28.9370611 19.7425784,29.6723042 19.6072971,30.445322" id="Fill-60" fill="#E5EDF3"></path>
                        <path d="M18.8011188,31.4890862 C19.2109636,31.2991381 19.5241195,30.920895 19.6073054,30.4453634 C19.7097458,29.8597313 19.434432,29.2963342 18.9560713,28.9989306 C18.7122649,29.3325384 18.4198639,29.8678318 18.1701394,30.1980506 C18.40336,30.6830878 18.6153258,30.9832191 18.8011188,31.4890862" id="Fill-62" fill="#D5DDE2"></path>
                        <path d="M14.4780181,27.628535 C14.3852466,28.1591995 13.5981477,28.467266 12.7201111,28.3161671 L11.7120445,28.1428332 C10.8342579,27.991817 10.1978606,27.4388348 10.2907154,26.9081703 L12.1278074,16.4071298 C12.2206622,15.8761347 13.0076777,15.5683989 13.8855476,15.7193324 L14.8935309,15.8928316 C15.7715675,16.0438478 16.4079648,16.596582 16.31511,17.1274945 L14.4780181,27.628535 Z" id="Fill-64" fill="#E5EDF3"></path>
                        <path d="M17.4180653,16.9646003 C17.1252475,18.6384253 15.5194591,19.7599293 13.8315684,19.4695517 C12.1437611,19.1791741 11.0128326,17.5868499 11.3056504,15.913025 C11.5985515,14.2392 13.2041732,13.1176959 14.8919806,13.4080736 C16.5798713,13.6984512 17.7108831,15.2907754 17.4180653,16.9646003" id="Fill-66" fill="#878888"></path>
                        <path d="M17.4180653,16.9646003 C17.1252475,18.6384253 15.5194591,19.7599293 13.8315684,19.4695517 C12.1437611,19.1791741 11.0128326,17.5868499 11.3056504,15.913025 C11.5985515,14.2392 13.2041732,13.1176959 14.8919806,13.4080736 C16.5798713,13.6984512 17.7108831,15.2907754 17.4180653,16.9646003" id="Fill-68" fill="#E5EDF3"></path>
                        <path d="M16.5619088,16.8173203 C16.35111,18.0223089 15.1950924,18.8297951 13.9800611,18.620753 C12.7650299,18.4117109 11.9508414,17.2653267 12.1616402,16.0602554 C12.3723556,14.8552668 13.5283732,14.0478632 14.7434878,14.2569053 C15.9585191,14.4659475 16.7727076,15.6123316 16.5619088,16.8173203" id="Fill-70" fill="#D5DDE2"></path>
                        <g id="Group-74" transform="translate(27.172957, 4.573303)">
                            <mask id="mask-6" fill="white">
                                <use xlink:href="#path-5"></use>
                            </mask>
                            <g id="Clip-73"></g>
                            <path d="M5.16001945,2.95488379 C4.92404816,4.30369741 3.60390924,5.20293404 2.21167029,4.96339109 C0.819347997,4.72384814 -0.118202362,3.43620146 0.117768928,2.08738784 C0.353740218,0.738656888 1.67379579,-0.160579741 3.06611808,0.0789632091 C4.45844038,0.318423501 5.39599074,1.60607018 5.16001945,2.95488379" id="Fill-72" fill="#DDDDDD" mask="url(#mask-6)"></path>
                        </g>
                        <path d="M31.330144,9.10106985 C31.8441797,8.73712658 32.2177661,8.18662415 32.3329595,7.52817034 C32.4676573,6.75837618 32.2195166,6.00850259 31.7230683,5.46213306 C31.3032211,5.73267277 29.9089817,6.93848801 29.4855504,7.2649872 C29.8406326,7.62248314 31.0263237,8.79217682 31.330144,9.10106985" id="Fill-75" fill="#B1B1B1"></path>
                        <path d="M21.7140681,17.230693 C21.6425515,17.218377 21.5856217,17.1597724 21.5792035,17.084719 C21.5737856,17.0234694 21.4510072,15.5756314 21.53536,15.0934045 C21.619963,14.6096898 22.0202223,14.3212133 22.1086594,14.2627741 L29.4980366,7.17005446 C29.5629683,7.10773031 29.6664089,7.10946613 29.7291734,7.17385673 C29.7920213,7.23816467 29.7902709,7.34074327 29.7254226,7.40306742 L22.3247094,14.5066152 C22.3162075,14.5147984 22.3066219,14.5221549 22.2965362,14.5283543 C22.2933688,14.5304207 21.9251169,14.7621938 21.8575179,15.1487854 C21.7802501,15.5902619 21.9036119,17.0427287 21.9048622,17.0572765 C21.912614,17.1463818 21.8458486,17.224907 21.7558277,17.2325115 C21.7415744,17.2337514 21.7274045,17.233106 21.7140681,17.230693" id="Fill-77" fill="#C4C4C3"></path>
                        <g id="Group-81" transform="translate(0.916879, 0.027112)">
                            <mask id="mask-8" fill="white">
                                <use xlink:href="#path-7"></use>
                            </mask>
                            <g id="Clip-80"></g>
                            <path d="M0.0369252142,2.10262998 C-0.199046075,3.4514436 0.738504283,4.73909028 2.13082658,4.97855057 C3.52314888,5.21809352 4.84320445,4.31885689 5.07917574,2.97012593 C5.31514702,1.62131232 4.37759667,0.33366564 2.98527437,0.0941226904 C1.59303542,-0.145337601 0.272896504,0.753899028 0.0369252142,2.10262998" id="Fill-79" fill="#DDDDDD" mask="url(#mask-8)"></path>
                        </g>
                        <path d="M1.36373235,3.94568071 C1.00348229,3.43129984 0.83861079,2.78813776 0.953804121,2.12976661 C1.08841862,1.35988979 1.57686502,0.736813614 2.22993285,0.388162075 C2.53333642,0.783102107 3.43637879,2.38418801 3.72427877,2.83302107 C3.2685066,3.05107293 1.75465617,3.75631118 1.36373235,3.94568071" id="Fill-82" fill="#B1B1B1"></path>
                        <path d="M7.65669738,14.8123011 C7.72813059,14.8246172 7.8016476,14.788413 7.83323825,14.7198895 C7.85907756,14.6640126 8.46646816,13.3418149 8.55090438,12.8595053 C8.63542394,12.3758733 8.3566094,11.970601 8.29317805,11.8859592 L3.7447085,2.73951831 C3.70478259,2.65917472 3.6067599,2.62619417 3.5258245,2.66587002 C3.44480574,2.70546321 3.4116314,2.80258639 3.45147395,2.88292998 L8.00686177,12.0434227 C8.01219634,12.0540029 8.01861449,12.0640872 8.02611623,12.0732622 C8.02836675,12.0762379 8.29634545,12.4175329 8.22874647,12.8041245 C8.15156194,13.245601 7.54200417,14.5719316 7.53591943,14.5852395 C7.49832739,14.666575 7.53450243,14.762789 7.61668812,14.8000677 C7.62969113,14.8059365 7.64327761,14.8099867 7.65669738,14.8123011" id="Fill-84" fill="#C4C4C3"></path>
                        <path d="M13.6359398,27.1027969 L14.7954582,20.4748634 C14.8966483,20.0261956 14.2794221,19.9747823 14.2794221,19.9747823 L13.9040019,19.9080773 L13.9036684,19.9101438 L13.4885724,19.8388099 L13.4889891,19.8366608 L13.1129021,19.7740887 C13.1129021,19.7740887 12.5142635,19.6162945 12.4571669,20.0725668 L11.2976485,26.7005003 C11.2976485,26.7005003 10.965405,27.6780141 11.9883084,28.0159201 L11.9882251,28.0161681 L11.9895587,28.0163334 C12.010897,28.023442 12.0319018,28.0307159 12.0543237,28.0371632 L12.0560741,28.0278229 L12.4710035,28.0992394 L12.4694198,28.1084971 C12.4928419,28.1100676 12.515097,28.1102329 12.5375189,28.1106462 L12.5387692,28.1108115 L12.5387692,28.1106462 C13.6167687,28.134369 13.6359398,27.1027969 13.6359398,27.1027969" id="Fill-86" fill="#D5DDE2"></path>
                        <path d="M19.7416031,43.4644814 L21.8742635,50.1577974 L23.4104524,50.1517634 C23.5913276,50.1511021 23.738195,50.2961669 23.738195,50.4754522 L23.738195,50.5479433 L21.5058449,50.5479433 L19.4594545,43.5444117 L19.7416031,43.4644814 Z" id="Fill-88" fill="#B1B1B1"></path>
                    </g>
                </g>
            </g>
        </g>
    </g>
</svg>