<?xml version="1.0" encoding="UTF-8"?>
<svg width="177px" height="131px" viewBox="0 0 177 131" version="1.1" xmlns="http://www.w3.org/2000/svg" xmlns:xlink="http://www.w3.org/1999/xlink">
    <title>rear</title>
    <g id="Desktop" stroke="none" stroke-width="1" fill="none" fill-rule="evenodd">
        <g id="2-Wheeler-Tool_2.-wheeler-tyre-views_02" transform="translate(-591.000000, -218.000000)">
            <g id="rear" transform="translate(593.000000, 218.000000)">
                <path d="M2.50956641,86.579726 L5.15074732,88.002457 C3.04350205,91.9143814 1.92466667,96.2936178 1.92466667,100.836582 C1.92466667,115.80158 14.0556693,127.932333 29.0204183,127.932333 C37.981053,127.932333 46.197375,123.551416 51.2317733,116.359645 L51.4893231,115.985158 L53.9751736,117.664607 C48.414221,125.895699 39.1427215,130.932333 29.0204183,130.932333 C12.3988288,130.932333 -1.07533333,117.458448 -1.07533333,100.836582 C-1.07533333,95.9877222 0.0744613369,91.3008133 2.2442981,87.0835266 L2.50956641,86.579726 Z" id="Stroke-1" fill="#FFCB06" fill-rule="nonzero"></path>
                <polygon id="Fill-5" fill="#E5EDF3" points="108.894458 22.4165033 99.8641307 4.35754902 105.24851 1.66493464 114.278837 19.7247386"></polygon>
                <path d="M152.222863,108.361712 C148.066261,108.361712 144.698157,104.992758 144.698157,100.837007 C144.698157,96.6804052 148.066261,93.311451 152.222863,93.311451 C156.379464,93.311451 159.747569,96.6804052 159.747569,100.837007 C159.747569,104.992758 156.379464,108.361712 152.222863,108.361712" id="Fill-7" fill="#DDE4EB"></path>
                <path d="M152.222863,114.382072 C144.74234,114.382072 138.678222,108.317105 138.678222,100.836582 C138.678222,93.3560588 144.74234,87.2919412 152.222863,87.2919412 C159.704235,87.2919412 165.768353,93.3560588 165.768353,100.836582 C165.768353,108.317105 159.704235,114.382072 152.222863,114.382072 M152.222863,78.2616144 C139.754758,78.2616144 129.647895,88.3684771 129.647895,100.836582 C129.647895,113.304686 139.754758,123.411549 152.222863,123.411549 C164.690967,123.411549 174.79783,113.304686 174.79783,100.836582 C174.79783,88.3684771 164.690967,78.2616144 152.222863,78.2616144" id="Fill-9" fill="#C3C9D2"></path>
                <path d="M152.132373,103.658261 C151.109366,103.658261 150.112699,103.138261 149.548516,102.199373 L134.742111,77.5537516 C133.88649,76.1288497 134.347863,74.2799608 135.773614,73.4226405 C137.199366,72.5644706 139.048255,73.0326405 139.903876,74.4524444 L154.710281,99.0980654 C155.565902,100.523817 155.104529,102.371856 153.678778,103.229176 C153.193614,103.520614 152.65832,103.658261 152.132373,103.658261" id="Fill-11" fill="#E5EDF3"></path>
                <path d="M132.030634,85.5981176 L160.273771,85.5981176 C161.410634,85.5981176 162.449784,84.9532157 162.952791,83.9336078 L164.512791,80.7711242 C165.335275,79.104915 164.918935,77.1166797 163.522072,75.8923007 C160.223641,73.0008627 152.860373,68.2477908 138.677627,66.2213203 L132.030634,85.5981176 Z" id="Fill-13" fill="#C4DFE7"></path>
                <path d="M28.8111438,114.382072 C21.3306209,114.382072 15.2665033,108.317105 15.2665033,100.836582 C15.2665033,93.3560588 21.3306209,87.2919412 28.8111438,87.2919412 C36.2925163,87.2919412 42.356634,93.3560588 42.356634,100.836582 C42.356634,108.317105 36.2925163,114.382072 28.8111438,114.382072 M28.8111438,78.2616144 C16.3430392,78.2616144 6.23617647,88.3684771 6.23617647,100.836582 C6.23617647,113.304686 16.3430392,123.411549 28.8111438,123.411549 C41.2792484,123.411549 51.3869608,113.304686 51.3869608,100.836582 C51.3869608,88.3684771 41.2792484,78.2616144 28.8111438,78.2616144" id="Fill-15" fill="#514B5B"></path>
                <path d="M58.9123464,108.361712 L28.8109739,108.361712 C24.6552222,108.361712 21.286268,104.992758 21.286268,100.837007 C21.286268,96.6804052 24.6552222,93.311451 28.8109739,93.311451 L58.9123464,93.311451 C63.0689477,93.311451 66.4370523,96.6804052 66.4370523,100.837007 C66.4370523,104.992758 63.0689477,108.361712 58.9123464,108.361712" id="Fill-17" fill="#DCDBDE"></path>
                <path d="M111.587922,99.3314706 L116.795569,70.6923856 C117.330863,67.745719 117.23315,64.7183333 116.50583,61.812451 L108.577529,27.0914052 L117.607856,27.0914052 L132.658118,66.2214052 L123.627791,99.3314706 L111.587922,99.3314706 Z" id="Fill-19" fill="#C4DFE7"></path>
                <path d="M84.4971111,96.3219281 L90.5170458,63.2118627 L84.4971111,54.1815359 L45.3662614,51.1711438 L22.3664575,53.7269608 C20.0383529,53.9852614 18.275281,55.9539542 18.275281,58.2965033 C18.275281,59.5157843 18.7604444,60.6857843 19.6220131,61.5482026 L24.2960654,66.2214052 C24.2960654,66.2214052 0.215477124,72.2413399 0.215477124,87.2916013 L0.215477124,90.3019935 C0.215477124,91.9639542 1.5639085,93.3123856 3.22586928,93.3123856 L48.8932549,93.3123856 C50.4897908,93.3123856 52.0200523,93.9462418 53.149268,95.0754575 L61.6638431,103.589183 C62.7922092,104.717549 64.3233203,105.351405 65.9207059,105.351405 L94.8019477,105.351405 L94.8019477,96.3219281 L84.4971111,96.3219281 Z" id="Fill-21" fill="#76C6CD"></path>
                <path d="M129.865837,98.3568954 L142.632176,70.6957843 C143.919431,67.9071569 143.701065,64.6546078 142.052699,62.0639542 L124.874856,35.0698366 C124.166229,33.9567647 122.731131,33.5591176 121.550935,34.1496405 L121.547536,34.1504902 C119.269562,35.2890523 118.142046,37.9009477 118.872765,40.3403595 L123.832307,56.8733007 C125.674399,63.0113399 125.980281,69.5079412 124.723614,75.7912745 L121.584922,91.4821895 C121.023288,94.2963072 118.552438,96.3219281 115.683092,96.3219281 L94.8015229,96.3219281 L94.8015229,105.351405 L118.933941,105.351405 C123.630085,105.351405 127.898843,102.621405 129.865837,98.3568954" id="Fill-23" fill="#CCE8EF"></path>
                <path d="M90.5178105,63.211183 L84.4970261,54.1808562 L45.3661765,51.1704641 L22.3663725,53.726281 C20.038268,53.9845817 18.2768954,55.9532745 18.2768954,58.2958235 C18.2768954,59.5151046 18.7612092,60.6851046 19.6227778,61.5475229 L24.2959804,66.2207255 L89.9689216,66.2207255 L90.5178105,63.211183 Z" id="Fill-25" fill="#56A2AD"></path>
                <path d="M126.638013,30.1005229 L111.587752,30.1005229 C108.26298,30.1005229 105.567817,27.4053595 105.567817,24.0805882 C105.567817,20.755817 108.26298,18.0606536 111.587752,18.0606536 L126.638013,18.0606536 L126.638013,30.1005229 Z" id="Fill-27" fill="#C4DFE7"></path>
                <path d="M111.587922,27.0905556 C110.818118,27.0905556 110.047464,26.7965686 109.45949,26.2085948 L107.331059,24.0810131 L99.5472026,24.0810131 C97.8835425,24.0810131 96.5368105,22.7334314 96.5368105,21.0706209 C96.5368105,19.4078105 97.8835425,18.0602288 99.5472026,18.0602288 L107.331059,18.0602288 C108.91485,18.0602288 110.467203,18.7025817 111.587072,19.8241503 L113.715503,21.9525817 C114.891451,23.1276797 114.891451,25.0334967 113.715503,26.2085948 C113.127529,26.7965686 112.357725,27.0905556 111.587922,27.0905556" id="Fill-29" fill="#C7CDD6"></path>
                <path d="M126.638013,30.1005229 L123.627621,30.1005229 L123.627621,18.0606536 L126.638013,18.0606536 C128.299974,18.0606536 129.648405,19.4082353 129.648405,21.0710458 L129.648405,27.0909804 C129.647556,28.7529412 128.299974,30.1005229 126.638013,30.1005229" id="Fill-31" fill="#E5EDF3"></path>
                <path d="M28.8111438,93.3115359 C32.9677451,93.3115359 36.3358497,96.6804902 36.3358497,100.836242 C36.3358497,104.992843 32.9677451,108.361797 28.8111438,108.361797 C24.6553922,108.361797 21.2864379,104.992843 21.2864379,100.836242 C21.2864379,96.6804902 24.6553922,93.3115359 28.8111438,93.3115359" id="Fill-33" fill="#DCDBDE"></path>
                <path d="M39.3465817,52.0820784 L39.3465817,52.0820784 C39.3465817,53.3931242 40.0016797,54.6175033 41.0935098,55.3448235 L51.3405686,62.1761961 C55.2957974,64.8135817 59.9435098,66.2214902 64.698281,66.2214902 L89.8562549,66.2214902 C91.7561242,66.2214902 93.1801765,64.4830588 92.8080196,62.6205752 L92.4545556,60.8490065 C91.3278889,55.2216209 86.3861895,51.1703791 80.6474967,51.1703791 L64.4943595,51.1703791 C61.786451,51.1703791 59.0895882,50.8390065 56.4632484,50.1822092 L52.3321373,49.1490065 C49.7057974,48.4922092 47.0089346,48.1599869 44.3010261,48.1599869 L43.2678235,48.1599869 C41.1020065,48.1608366 39.3465817,49.9171111 39.3465817,52.0820784" id="Fill-35" fill="#625D6B"></path>
                <path d="M55.6007451,81.8733203 L64.6310719,93.9131895 C65.7687843,95.4298562 67.5522484,96.3211634 69.4470196,96.3211634 L84.497281,96.3211634 L88.8756471,72.2414248 L60.4175425,72.2414248 C55.4563007,72.2414248 52.6243399,77.9044967 55.6007451,81.8733203" id="Fill-37" fill="#56A2AD"></path>
                <path d="M102.557595,12.0403791 L99.5472026,12.0403791 C97.8852418,12.0403791 96.5368105,10.6927974 96.5368105,9.0308366 L96.5368105,3.01005229 C96.5368105,1.3480915 97.8852418,0.000509803922 99.5472026,0.000509803922 L102.557595,0.000509803922 C105.882366,0.000509803922 108.577529,2.69482353 108.577529,6.02044444 C108.577529,9.34521569 105.882366,12.0403791 102.557595,12.0403791" id="Fill-39" fill="#E5EDF3"></path>
            </g>
        </g>
    </g>
</svg>