<svg xmlns="http://www.w3.org/2000/svg" xmlns:xlink="http://www.w3.org/1999/xlink" width="109" height="155" viewBox="0 0 109 155">
    <defs>
        <path id="97o2wkivfa" d="M0 0.193L35.929 0.193 35.929 75.979 0 75.979z"/>
        <path id="jgg0gpvqrc" d="M0.237 0.119L15.156 0.119 15.156 14.712 0.237 14.712z"/>
        <path id="xhj77q1p4e" d="M0.002 0.163L14.92 0.163 14.92 14.756 0.002 14.756z"/>
    </defs>
    <g fill="none" fill-rule="evenodd">
        <g>
            <g>
                <path fill="#D9E3E9" d="M88.24 142.21c16.486 3.059 5.284 9.413-20.222 11.594-25.506 2.181-61.688-1.891-67.687-6.698-6-4.806 71.422-7.955 87.909-4.896z" transform="translate(-167 -251) translate(167 251)"/>
                <g>
                    <g transform="translate(-167 -251) translate(167 251) translate(12) translate(0 59.642)">
                        <mask id="t0du2umgrb" fill="#fff">
                            <use xlink:href="#97o2wkivfa"/>
                        </mask>
                        <path fill="#C1C1C1" d="M5.597 66.105c3.025 3.382 11.443 8.466 18.626 9.874L35.929 2.593 23.349.303s-5.701-1.539-9.868 6.89C11.594 11.012-3.062 41.799.58 58.188c1.219 2.87 2.894 5.542 5.018 7.918" mask="url(#t0du2umgrb)"/>
                    </g>
                    <path fill="#76C6CD" d="M28.051 111.622l7.878-49.387-12.579-2.29s-5.702-1.538-9.869 6.89C11.965 69.904 2.207 90.38.32 106.812l27.732 4.811z" transform="translate(-167 -251) translate(167 251) translate(12)"/>
                    <path fill="#56A2AD" d="M24.453 81.107s-2.807-2.699-5.23 2.672C16.8 89.15 3.44 116.757 16.097 128.64c.379.356 7.374 5.852 7.838 6.072l6.332-51.933-5.814-1.671zM.253 107.394c-.396 3.802-.355 7.37.326 10.435 1.219 2.87 2.894 5.543 5.018 7.918 3.025 3.382 11.444 8.466 18.626 9.874l3.736-23.42-27.706-4.807z" transform="translate(-167 -251) translate(167 251) translate(12)"/>
                    <path fill="#C1C1C1" d="M50.188 133.601c-3.988 2.166-13.626 4.117-20.863 3.024l13.696-73.04 12.616 2.08s5.887.472 6.97 9.812c.491 4.23 3.922 38.156-5.027 52.36-2.114 2.292-4.592 4.244-7.392 5.764" transform="translate(-167 -251) translate(167 251) translate(12)"/>
                    <path fill="#76C6CD" d="M33.804 112.74l9.217-49.155 12.616 2.08s5.887.473 6.97 9.812c.395 3.399 2.685 25.966-1.07 42.073l-27.733-4.81z" transform="translate(-167 -251) translate(167 251) translate(12)"/>
                    <path fill="#56A2AD" d="M47.47 85.219s3.552-1.596 4.025 4.278c.472 5.873 3.752 36.367-12.168 43.292-.476.207-8.913 3.025-9.424 3.076l11.53-51.031 6.038.385z" transform="translate(-167 -251) translate(167 251) translate(12)"/>
                    <path fill="#56A2AD" d="M61.402 118.121c-.908 3.713-2.149 7.06-3.822 9.716-2.114 2.292-4.592 4.243-7.392 5.764-3.988 2.166-13.626 4.117-20.863 3.024l4.37-23.31 27.707 4.806zM25.044 78.011s-3.363-.629-4.022 2.483c-.658 3.111-.954 36.422-.954 36.422s-.096 5.795 2.974 5.934l7.61-43.866-5.608-.973z" transform="translate(-167 -251) translate(167 251) translate(12)"/>
                    <path fill="#56A2AD" d="M47.758 81.952s3.378.54 2.95 3.692c-.427 3.151-11.37 34.615-11.37 34.615s-1.86 5.488-4.798 4.586l7.61-43.866 5.608.973z" transform="translate(-167 -251) translate(167 251) translate(12)"/>
                    <path fill="#A8A7A1" d="M24.915 126.886L22.417 126.453 24.724 113.151 27.222 113.584zM33.915 128.447L31.418 128.014 33.725 114.712 36.222 115.146z" transform="translate(-167 -251) translate(167 251) translate(12)"/>
                    <path fill="#514B5B" d="M31.969 146.21c-.425 2.45-3.099 4.033-5.972 3.535l-3.299-.572c-2.872-.499-4.856-2.89-4.431-5.34l8.413-48.495c.425-2.451 3.099-4.034 5.971-3.536l3.299.573c2.873.498 4.857 2.89 4.432 5.34l-8.413 48.494z" transform="translate(-167 -251) translate(167 251) translate(12)"/>
                    <path fill="#A7170D" d="M45.292 78.736c-.25 1.441-.941 2.908-6.022 2.027l-5.834-1.012c-5.08-.881-4.932-2.64-4.681-4.082l.88-28.633c.25-1.44 4.572-1.894 9.652-1.013l5.834 1.012c5.08.882 8.997 2.764 8.747 4.205l-8.576 27.496z" transform="translate(-167 -251) translate(167 251) translate(12)"/>
                    <path fill="#56A2AD" d="M71.019 48.26s-10.33.929-14.198-.327c-3.868-1.255-5.379-7.646-13.489-8.515L40.24 57.246s9.823 2.372 16.86-.386c7.037-2.757 10.909-5.039 13.868-5.038l.051-3.562z" transform="translate(-167 -251) translate(167 251) translate(12)"/>
                    <path fill="#56A2AD" d="M71.019 48.26s-10.33.929-14.198-.327c-3.868-1.255-5.379-7.646-13.489-8.515L40.24 57.246s9.823 2.372 16.86-.386c7.037-2.757 10.909-5.039 13.868-5.038l.051-3.562z" transform="translate(-167 -251) translate(167 251) translate(12)"/>
                    <path fill="#313030" d="M84.074 49.356c.07.633-.542 1.221-1.367 1.312l-10.621 1.179c-.825.091-1.55-.348-1.62-.981l-.145-1.302c-.07-.633.542-1.22 1.366-1.313l10.62-1.178c.826-.091 1.551.348 1.622.982l.145 1.301z" transform="translate(-167 -251) translate(167 251) translate(12)"/>
                    <path fill="#313030" d="M71.979 52.97L70.714 53.11 70.072 47.32 71.337 47.179z" transform="translate(-167 -251) translate(167 251) translate(12)"/>
                    <path fill="#C4C4C3" d="M14.004 38.369s9.414 4.354 13.479 4.475c4.064.12 7.64-5.389 15.568-3.475l-3.093 17.828S29.91 56.12 24.213 51.154c-5.698-4.966-8.574-8.418-11.361-9.415l1.152-3.37z" transform="translate(-167 -251) translate(167 251) translate(12)"/>
                    <path fill="#56A2AD" d="M14.004 38.369s9.414 4.354 13.479 4.475c4.064.12 7.64-5.389 15.568-3.475l-3.093 17.828S29.91 56.12 24.213 51.154c-5.698-4.966-8.574-8.418-11.361-9.415l1.152-3.37z" transform="translate(-167 -251) translate(167 251) translate(12)"/>
                    <path fill="#313030" d="M1.343 35.004c-.28.572.098 1.332.845 1.696l9.603 4.687c.746.363 1.577.195 1.856-.378l.575-1.177c.28-.573-.1-1.332-.844-1.697L3.775 33.45c-.747-.364-1.577-.195-1.857.378l-.575 1.177z" transform="translate(-167 -251) translate(167 251) translate(12)"/>
                    <path fill="#313030" d="M11.514 42.48L12.657 43.038 15.213 37.802 14.069 37.244z" transform="translate(-167 -251) translate(167 251) translate(12)"/>
                    <path fill="#E5EDF3" d="M38.961 100.087c-.422 2.433-2.84 4.045-5.4 3.601l-2.94-.51c-2.56-.444-4.295-2.777-3.873-5.21l8.35-48.133c.423-2.433 2.841-4.046 5.401-3.602l2.94.51c2.561.445 4.295 2.777 3.873 5.21l-8.35 48.134z" transform="translate(-167 -251) translate(167 251) translate(12)"/>
                    <path fill="#DAE3E8" d="M41.566 85.076l5.746-33.123c.422-2.433-1.312-4.765-3.872-5.21l-2.94-.51c-2.56-.444-4.979 1.169-5.401 3.602l-5.743 33.1c1.872 1.921 8.696 3.766 12.21 2.14" transform="translate(-167 -251) translate(167 251) translate(12)"/>
                    <path fill="#56A2AD" d="M49.055 83.908l5.33-30.727c.422-2.433-3.694-5.18-9.194-6.134l-6.315-1.095c-5.5-.954-10.3.245-10.723 2.678l-5.33 30.727 26.232 4.55z" transform="translate(-167 -251) translate(167 251) translate(12)"/>
                    <path fill="#D5DDE2" d="M24.086 83.45c-.428 2.463-2.77 4.112-5.232 3.685-2.462-.427-4.112-2.77-3.685-5.232.427-2.462 2.77-4.11 5.232-3.684 2.462.427 4.112 2.77 3.685 5.231" transform="translate(-167 -251) translate(167 251) translate(12)"/>
                    <path fill="#E5EDF3" d="M23.685 83.733c-.395 2.273-2.557 3.796-4.83 3.402-2.274-.395-3.798-2.557-3.403-4.83.394-2.274 2.557-3.797 4.83-3.403 2.274.395 3.797 2.557 3.403 4.83" transform="translate(-167 -251) translate(167 251) translate(12)"/>
                    <path fill="#D5DDE2" d="M21.333 86.803c1.196-.56 2.11-1.672 2.352-3.07.298-1.723-.505-3.38-1.9-4.254-.71.98-1.564 2.555-2.292 3.527.68 1.426 1.298 2.309 1.84 3.797M57.589 89.262c-.428 2.463-2.77 4.112-5.232 3.685-2.462-.427-4.112-2.77-3.685-5.231.427-2.462 2.77-4.112 5.232-3.685 2.462.428 4.112 2.77 3.685 5.231" transform="translate(-167 -251) translate(167 251) translate(12)"/>
                    <path fill="#E5EDF3" d="M57.188 89.545c-.394 2.273-2.558 3.796-4.83 3.402-2.275-.394-3.797-2.557-3.403-4.83.394-2.274 2.557-3.797 4.83-3.403 2.274.395 3.798 2.557 3.403 4.831" transform="translate(-167 -251) translate(167 251) translate(12)"/>
                    <path fill="#D5DDE2" d="M54.837 92.615c1.195-.559 2.108-1.671 2.351-3.07.299-1.722-.504-3.38-1.9-4.254-.71.981-1.563 2.556-2.292 3.527.68 1.426 1.299 2.31 1.84 3.797" transform="translate(-167 -251) translate(167 251) translate(12)"/>
                    <path fill="#E5EDF3" d="M42.228 81.26c-.271 1.561-2.567 2.467-5.128 2.023l-2.94-.51c-2.56-.444-4.416-2.07-4.145-3.631l5.358-30.886c.27-1.561 2.566-2.467 5.127-2.023l2.94.51c2.56.445 4.417 2.07 4.146 3.632L42.228 81.26z" transform="translate(-167 -251) translate(167 251) translate(12)"/>
                    <path fill="#878888" d="M50.803 49.896c-.854 4.923-5.538 8.221-10.46 7.367-4.924-.854-8.222-5.537-7.368-10.46.854-4.923 5.537-8.222 10.46-7.367 4.923.854 8.222 5.537 7.368 10.46" transform="translate(-167 -251) translate(167 251) translate(12)"/>
                    <path fill="#E5EDF3" d="M50.803 49.896c-.854 4.923-5.538 8.221-10.46 7.367-4.924-.854-8.222-5.537-7.368-10.46.854-4.923 5.537-8.222 10.46-7.367 4.923.854 8.222 5.537 7.368 10.46" transform="translate(-167 -251) translate(167 251) translate(12)"/>
                    <path fill="#D5DDE2" d="M48.306 49.463c-.615 3.544-3.987 5.919-7.53 5.304-3.545-.615-5.92-3.987-5.305-7.531.615-3.544 3.987-5.919 7.53-5.304 3.545.615 5.92 3.987 5.305 7.53" transform="translate(-167 -251) translate(167 251) translate(12)"/>
                    <g transform="translate(-167 -251) translate(167 251) translate(12) translate(79.254 13.45)">
                        <mask id="5fr60mcwkd" fill="#fff">
                            <use xlink:href="#jgg0gpvqrc"/>
                        </mask>
                        <path fill="#DDD" d="M15.05 8.69c-.688 3.968-4.539 6.613-8.6 5.908C2.39 13.894-.344 10.106.344 6.14c.689-3.966 4.539-6.611 8.6-5.907 4.06.705 6.795 4.492 6.107 8.459" mask="url(#5fr60mcwkd)"/>
                    </g>
                    <path fill="#B1B1B1" d="M91.38 26.768c1.499-1.07 2.588-2.69 2.924-4.626.393-2.264-.33-4.47-1.778-6.077-1.225.796-5.291 4.342-6.526 5.303 1.035 1.051 4.493 4.491 5.38 5.4" transform="translate(-167 -251) translate(167 251) translate(12)"/>
                    <path fill="#C4C4C3" d="M63.333 50.679c-.209-.037-.375-.21-.394-.43-.015-.18-.374-4.438-.128-5.857.247-1.422 1.415-2.27 1.673-2.443l21.552-20.86c.19-.184.491-.179.674.01.183.19.178.491-.01.675L65.113 42.667c-.025.024-.053.045-.082.063-.01.007-1.084.688-1.28 1.825-.226 1.299.134 5.57.137 5.613.023.263-.172.493-.435.516-.041.004-.082.002-.121-.005" transform="translate(-167 -251) translate(167 251) translate(12)"/>
                    <g transform="translate(-167 -251) translate(167 251) translate(12) translate(2.674 .08)">
                        <mask id="lrkj8bvref" fill="#fff">
                            <use xlink:href="#xhj77q1p4e"/>
                        </mask>
                        <path fill="#DDD" d="M.108 6.184c-.689 3.967 2.046 7.755 6.107 8.459 4.06.704 7.911-1.94 8.6-5.907.688-3.967-2.047-7.755-6.108-8.46C4.647-.426.796 2.218.107 6.185" mask="url(#lrkj8bvref)"/>
                    </g>
                    <path fill="#B1B1B1" d="M3.978 11.605C2.927 10.092 2.446 8.2 2.782 6.264 3.175 4 4.599 2.167 6.504 1.142c.885 1.161 3.519 5.87 4.358 7.19-1.329.642-5.744 2.716-6.884 3.273" transform="translate(-167 -251) translate(167 251) translate(12)"/>
                    <path fill="#C4C4C3" d="M22.332 43.566c.208.036.423-.07.515-.272.075-.165 1.847-4.053 2.093-5.472.247-1.422-.567-2.614-.752-2.863L10.922 8.057c-.116-.236-.402-.333-.638-.216-.237.116-.333.402-.217.638l13.286 26.943c.016.03.035.06.057.088.006.008.788 1.012.59 2.15-.225 1.298-2.002 5.199-2.02 5.238-.11.239-.004.522.235.632.038.017.078.029.117.036" transform="translate(-167 -251) translate(167 251) translate(12)"/>
                    <path fill="#D5DDE2" d="M39.771 79.714l3.382-19.494c.296-1.32-1.505-1.47-1.505-1.47l-1.095-.197v.006l-1.211-.21v-.006l-1.096-.184s-1.746-.464-1.913.878l-3.382 19.494s-.969 2.875 2.015 3.869l.004.001c.062.02.123.042.188.061l.006-.027 1.21.21-.005.027c.068.005.133.005.199.006h.003c3.145.07 3.2-2.964 3.2-2.964" transform="translate(-167 -251) translate(167 251) translate(12)"/>
                    <path fill="#B1B1B1" d="M57.58 127.837l6.22 19.686 4.48-.018c.528-.002.956.425.956.952v.213h-6.51l-5.97-20.598.824-.235z" transform="translate(-167 -251) translate(167 251) translate(12)"/>
                </g>
            </g>
        </g>
    </g>
</svg>
