<svg xmlns="http://www.w3.org/2000/svg" xmlns:xlink="http://www.w3.org/1999/xlink" width="103" height="77" viewBox="0 0 103 77">
    <defs>
        <path id="xzsljr3esa" d="M0.064 0L23.874 0 23.874 23.81 0.064 23.81z"/>
    </defs>
    <g fill="none" fill-rule="evenodd">
        <g>
            <g>
                <g fill-rule="nonzero" transform="translate(-632 -307) translate(632 307) translate(0 7)">
                    <path fill="#57565C" d="M68.41 35c.011 5.865-1.531 11.63-4.471 16.705-.16.27-.319.54-.478.795-1.3 2.128-2.843 4.098-4.597 5.87-.08.096-.16.175-.239.255-.928.928-1.91 1.799-2.943 2.61-1.253 1.003-2.583 1.908-3.977 2.704-14.042 8.1-31.872 4.952-42.29-7.467-10.42-12.419-10.42-30.525 0-42.944C19.832 1.108 37.662-2.04 51.704 6.06c1.394.796 2.724 1.7 3.977 2.705 1.032.81 2.015 1.681 2.943 2.609.08.08.16.16.239.255.844.846 1.636 1.744 2.37 2.688.999 1.257 1.903 2.587 2.705 3.977 1.462 2.525 2.586 5.232 3.34 8.05.75 2.824 1.13 5.733 1.13 8.655z"/>
                    <circle cx="35" cy="35" r="20.682" fill="#E6E7E8"/>
                    <path fill="#BCBEC0" d="M25.36 29.432c-.444.76-1.415 1.022-2.18.588-.495-.284-.8-.81-.801-1.38-.002-.57.302-1.098.795-1.385.493-.286 1.102-.287 1.596-.003.76.443 1.022 1.415.59 2.18zM24.77 42.748c-.764.439-1.74.176-2.18-.589-.438-.764-.175-1.74.59-2.18.494-.284 1.103-.282 1.596.004.493.286.797.813.795 1.384 0 .57-.306 1.097-.8 1.38zM46.82 39.98c.495.284.8.81.801 1.38.002.57-.302 1.098-.795 1.385-.493.286-1.102.287-1.596.003-.765-.44-1.028-1.415-.59-2.18.44-.764 1.416-1.028 2.18-.588z"/>
                    <circle cx="35" cy="22.273" r="1.591" fill="#BCBEC0"/>
                    <path fill="#BCBEC0" d="M44.64 29.432c-.432-.765-.17-1.737.59-2.18.764-.439 1.74-.176 2.18.589.438.764.175 1.74-.59 2.18-.765.433-1.736.17-2.18-.59z"/>
                    <circle cx="35" cy="47.727" r="1.591" fill="#BCBEC0"/>
                    <circle cx="35" cy="35" r="4.773" fill="#BCBEC0"/>
                    <g fill="#57565C">
                        <path d="M35 57.273v3.182c0 3.514-2.85 6.363-6.364 6.363h-4.772V0h4.772C32.151 0 35 2.85 35 6.364v50.909z" transform="translate(58.864 1.59)"/>
                        <path d="M23.864 0L23.864 7.955 17.5 11.136 11.136 7.955 11.136 0z" transform="translate(58.864 1.59)"/>
                        <path d="M23.864 7.955L23.864 20.682 17.5 23.864 11.136 20.682 11.136 7.955 17.5 11.136zM23.864 54.091L23.864 66.818 11.136 66.818 11.136 54.091 17.5 57.273zM23.864 31.818L23.864 42.955 17.5 46.136 11.136 42.955 11.136 31.818 17.5 35z" transform="translate(58.864 1.59)"/>
                        <path d="M23.864 20.682L23.864 31.818 17.5 35 11.136 31.818 11.136 20.682 17.5 23.864zM23.864 42.955L23.864 54.091 17.5 57.273 11.136 54.091 11.136 42.955 17.5 46.136zM6.364 0C2.849 0 0 2.85 0 6.364v54.09c0 3.515 2.85 6.364 6.364 6.364h4.772V0H6.364z" transform="translate(58.864 1.59)"/>
                    </g>
                    <path fill="#ACABB1" d="M35 41.364c-3.515 0-6.364-2.85-6.364-6.364 0-3.515 2.85-6.364 6.364-6.364 3.515 0 6.364 2.85 6.364 6.364 0 3.515-2.85 6.364-6.364 6.364zm0-9.546c-1.757 0-3.182 1.425-3.182 3.182s1.425 3.182 3.182 3.182 3.182-1.425 3.182-3.182-1.425-3.182-3.182-3.182z"/>
                    <path fill="#ACABB1" d="M35 57.273C22.7 57.273 12.727 47.3 12.727 35c0-12.3 9.972-22.273 22.273-22.273 12.3 0 22.273 9.972 22.273 22.273C57.26 47.295 47.295 57.26 35 57.273zm0-41.364c-10.544 0-19.09 8.547-19.09 19.091S24.455 54.09 35 54.09 54.09 45.545 54.09 35C54.08 24.461 45.54 15.92 35 15.91z"/>
                    <path fill="#3E3D42" d="M59.75 57.499l-4.5-4.5-2.252 2.25 3.32 3.317c-1.265 1.156-2.622 2.209-4.057 3.147l-2.359-4.086-2.755 1.591 2.362 4.09c-1.525.789-3.112 1.45-4.746 1.978l-1.225-4.574-3.073.824 1.225 4.57c-1.677.347-3.38.56-5.091.636v-4.697h-3.19v4.692c-1.711-.074-3.414-.286-5.09-.636l1.221-4.561-3.074-.825-1.221 4.562c-1.63-.532-3.215-1.196-4.738-1.984l2.351-4.071-2.755-1.591-2.35 4.07c-1.435-.936-2.793-1.985-4.06-3.138l3.31-3.31-2.249-2.25-3.314 3.315c-1.153-1.267-2.202-2.625-3.137-4.06l4.07-2.35-1.591-2.755-4.072 2.343c-.788-1.523-1.451-3.107-1.983-4.737l4.56-1.222-.823-3.074-4.562 1.219c-.35-1.677-.562-3.38-.636-5.091h4.689v-3.182H3.263c.074-1.711.286-3.414.636-5.09L8.46 29.54l.825-3.074-4.562-1.221c.532-1.63 1.196-3.215 1.984-4.738l4.071 2.351 1.591-2.755-4.066-2.353c.935-1.435 1.984-2.793 3.137-4.06L14.75 17 17 14.75l-3.31-3.31c1.267-1.153 2.625-2.202 4.06-3.137l2.35 4.07 2.755-1.591-2.351-4.072c1.523-.788 3.107-1.451 4.737-1.983l1.222 4.56 3.074-.823-1.219-4.562c1.677-.35 3.38-.562 5.091-.636v4.689h3.182V3.26c1.711.076 3.414.288 5.09.636l-1.224 4.57 3.073.823 1.225-4.574c1.634.528 3.221 1.19 4.746 1.978l-2.362 4.09 2.755 1.591 2.36-4.085c1.434.938 2.79 1.99 4.056 3.146l-3.318 3.317 2.25 2.25 4.501-4.499-.88-.88 1.133-1.113C53.436 3.76 44.413-.034 35 0 15.67 0 0 15.67 0 35s15.67 35 35 35c9.416.034 18.442-3.763 25.003-10.517l-1.133-1.114.88-.87z"/>
                    <path fill="#3E3D42" d="M87.5 0H65.227c-4.39.005-7.949 3.564-7.954 7.955v54.09c.005 4.391 3.563 7.95 7.954 7.955H87.5c4.391-.005 7.95-3.564 7.955-7.955V7.955C95.449 3.564 91.89.005 87.5 0zm-6.364 54.699l-4.772 2.386-4.773-2.386v-7.58l4.062 2.04c.447.224.974.224 1.422 0l4.061-2.04v7.58zm0-11.137l-4.772 2.387-4.773-2.387v-7.579l4.062 2.04c.447.223.974.223 1.422 0l4.061-2.04v7.58zm0-11.136l-4.772 2.386-4.773-2.386v-7.58l4.062 2.04c.447.224.974.224 1.422 0l4.061-2.04v7.58zm0-11.136l-4.772 2.386-4.773-2.386v-9.17l4.062 2.04c.447.223.974.223 1.422 0l4.061-2.04v9.17zm-9.545 36.966l4.062 2.04c.447.223.974.223 1.422 0l4.061-2.04v8.562h-9.545v-8.562zm9.545-49.694l-4.772 2.387-4.773-2.387v-5.38h9.545v5.38zM60.455 62.045v-1.59h3.181v-3.182h-3.181V54.09h3.181v-3.182h-3.181v-3.182h3.181v-3.182h-3.181v-3.181h3.181v-3.182h-3.181V35h3.181v-3.182h-3.181v-3.182h3.181v-3.181h-3.181v-3.182h3.181V19.09h-3.181v-3.182h3.181v-3.182h-3.181V9.545h3.181V6.364h-2.889c.672-1.9 2.465-3.174 4.48-3.182h3.182v63.636h-3.182c-2.636 0-4.772-2.137-4.772-4.773zM87.5 66.818h-3.182V3.182H87.5c2.015.008 3.808 1.282 4.48 3.182h-2.89v3.181h3.183v3.182H89.09v3.182h3.182v3.182H89.09v3.182h3.182v3.182H89.09v3.181h3.182v3.182H89.09V35h3.182v3.182H89.09v3.182h3.182v3.181H89.09v3.182h3.182v3.182H89.09v3.182h3.182v3.182H89.09v3.182h3.182v1.59c0 2.636-2.137 4.773-4.773 4.773z"/>
                </g>
                <g>
                    <g transform="translate(-632 -307) translate(632 307) translate(78) translate(.645)">
                        <mask id="4y28fz0hyb" fill="#fff">
                            <use xlink:href="#xzsljr3esa"/>
                        </mask>
                        <g mask="url(#4y28fz0hyb)">
                            <g>
                                <path fill="#C83A3A" d="M11.908.087c6.56 0 11.879 5.29 11.879 11.814 0 6.525-5.318 11.814-11.879 11.814-6.56 0-11.879-5.29-11.879-11.814S5.348.087 11.91.087" transform="translate(.064)"/>
                                <path fill="#FFF" fill-rule="nonzero" stroke="#FFF" stroke-width=".5" d="M12.73 6.724v8.094c0 .263-.372.476-.83.476-.459 0-.83-.213-.83-.476V6.724c0-.263.371-.476.83-.476.458 0 .83.213.83.476zm.104 10.955c.047.093.072.192.073.293.005.052.005.103 0 .154-.01.049-.028.096-.055.14-.02.049-.048.095-.082.138l-.11.116c-.088.07-.191.125-.304.162-.11.04-.229.06-.349.062-.243-.003-.476-.083-.652-.224l-.11-.116c-.035-.043-.063-.09-.083-.139-.04-.041-.07-.088-.092-.139-.005-.05-.005-.102 0-.154.001-.1.026-.2.073-.293.044-.095.11-.181.193-.255.173-.146.408-.228.653-.228.245 0 .48.082.652.228.084.074.15.16.193.255h0z" transform="translate(.064)"/>
                            </g>
                        </g>
                    </g>
                </g>
            </g>
        </g>
    </g>
</svg>
