<svg xmlns="http://www.w3.org/2000/svg" xmlns:xlink="http://www.w3.org/1999/xlink" width="140" height="140" viewBox="0 0 140 140">
    <defs>
        <path id="rb60tff3ka" d="M70 .17C31.34.17 0 31.008 0 69.049c0 38.04 31.34 68.879 70 68.879s70-30.838 70-68.88C140 31.009 108.66.17 70 .17z"/>
        <path id="fpweos851c" d="M70 .17C31.34.17 0 31.008 0 69.049c0 38.04 31.34 68.879 70 68.879s70-30.838 70-68.88C140 31.009 108.66.17 70 .17z"/>
        <path id="8aqayrigoe" d="M70 .17C31.34.17 0 31.008 0 69.049c0 38.04 31.34 68.879 70 68.879s70-30.838 70-68.88C140 31.009 108.66.17 70 .17z"/>
        <path id="t9l4cjr0zg" d="M70 .17C31.34.17 0 31.008 0 69.049c0 38.04 31.34 68.879 70 68.879s70-30.838 70-68.88C140 31.009 108.66.17 70 .17z"/>
        <path id="f4giq691ei" d="M70 .17C31.34.17 0 31.008 0 69.049c0 38.04 31.34 68.879 70 68.879s70-30.838 70-68.88C140 31.009 108.66.17 70 .17z"/>
    </defs>
    <g fill="none" fill-rule="evenodd">
        <g>
            <g>
                <path fill="#F0F0F0" d="M0 69.136C0 31.096 31.34.257 70 .257s70 30.838 70 68.88c0 38.04-31.34 68.878-70 68.878S0 107.177 0 69.136" transform="translate(-937 -1345) translate(937 1345)"/>
                <g transform="translate(-937 -1345) translate(937 1345) translate(0 .087)">
                    <g>
                        <mask id="u8ugbkcxtb" fill="#fff">
                            <use xlink:href="#rb60tff3ka"/>
                        </mask>
                        <path fill="#D7D5D7" d="M79.864 65.12L105.556 100.579 94.213 123.055 96.495 123.055 108.561 100.579 81.095 63.306z" mask="url(#u8ugbkcxtb)"/>
                    </g>
                    <g>
                        <mask id="ub5wvf35pd" fill="#fff">
                            <use xlink:href="#fpweos851c"/>
                        </mask>
                        <path fill="#D7D5D7" d="M34.616 65.589L56.266 107.123 49.095 123.055 51.417 123.055 58.93 107.123 35.846 63.775z" mask="url(#ub5wvf35pd)"/>
                    </g>
                    <g>
                        <mask id="mez4o4dlef" fill="#fff">
                            <use xlink:href="#8aqayrigoe"/>
                        </mask>
                        <path fill="#D7D5D7" d="M51.202 92.609c.045.085 53.263-10.22 53.263-10.22l-.575-2.666L49.898 90.16l1.304 2.448z" mask="url(#mez4o4dlef)"/>
                    </g>
                    <g>
                        <mask id="us1pzcilkh" fill="#fff">
                            <use xlink:href="#t9l4cjr0zg"/>
                        </mask>
                        <path fill="#D7D5D7" d="M58.766 107.201c.341-.201 49.795-6.622 49.795-6.622l-.82-2.615-50.143 6.974 1.168 2.263z" mask="url(#us1pzcilkh)"/>
                    </g>
                    <mask id="gpnw0vyjxj" fill="#fff">
                        <use xlink:href="#f4giq691ei"/>
                    </mask>
                    <path fill="#D7D5D7" d="M25.805 125.213L68.97 125.213 68.97 123.055 25.805 123.055z" mask="url(#gpnw0vyjxj)"/>
                    <path fill="#6673BA" d="M44.724 34.137L43.29 36.826 48.159 50.165 60.364 83.6 62.823 83.6z" mask="url(#gpnw0vyjxj)"/>
                    <path fill="#7D89DE" d="M44.724 34.137L62.823 83.6 111.293 70.764 97.402 24.269z" mask="url(#gpnw0vyjxj)"/>
                    <path fill="#6673BA" d="M75.232 38.595c-3.045 1.015-8.606 4.431-10.337 9.609-1.73 5.177-.592 12.57 1.73 17.05 2.323 4.48 8.769 9.006 16.77 6.81 8-2.196 15.367-7.017 16.47-12.949 1.103-5.931-.32-10.932-3.188-15.569-2.868-4.637-10.496-8.602-21.445-4.95" mask="url(#gpnw0vyjxj)"/>
                    <path fill="#FFF" d="M65.872 53.873L73.84 69.493 97.402 55.346 88.92 41.424z" mask="url(#gpnw0vyjxj)"/>
                    <path fill="#27415C" d="M102.67 84.173c-3.781-1.668-5.85-1.668-11.77 10.978-2.15 4.59-7.276 17.996-9.13 22.026-1.55 3.367-4.44 9.397-5.352 11.292 1.803.443 3.168 1.235 3.283 1.354 0 0 9.06-11.603 12.198-15.703s12.433-17.302 12.433-17.302l4.258-8.476s-2.14-2.501-5.92-4.17" mask="url(#gpnw0vyjxj)"/>
                    <path fill="#27415C" d="M124.499 92.826c-.138-2.15-9.29-4.688-14.076-5.982-2.662-.72-13.177-3.293-19.05-3.898-5.874-.604-8.123.2-10.585 3.898-2.46 3.697-6.762 15.242-8.812 21.089-1.798 5.134-6.582 16.77-7.404 19.625 1.235.462 2.236 1.117 2.748 1.5.033.02.061.04.08.059 0 0 8.016-13.04 10.612-17.878 2.595-4.839 9.936-16.187 14.786-17.665 4.85-1.479 5.54.596 10.46 2.881 4.917 2.285 13.385 4.973 19.327 4.704 0 0 2.05-6.182 1.914-8.333" mask="url(#gpnw0vyjxj)"/>
                    <path fill="#5B91A5" d="M68.865 129.1c-.512-.383-1.513-1.038-2.748-1.5-1.167-.437-2.643-.918-4.002-.6-2.87.673-2.942 1.487-2.942 2.158 0 .25 9.772 0 9.772 0l-.08-.059M76.418 128.514c-.526-.13-1.09-.23-1.672-.27-2.93-.197-3.867.346-3.665 1.268.068.311 8.48.311 8.48.311-.11-.115-1.417-.881-3.143-1.31" mask="url(#gpnw0vyjxj)"/>
                    <path fill="#B28B67" d="M76.78 67.958c-.268-.383.529-2.917-.195-4.083-.802-1.294-1.5-2.51-1.5-2.51-.25-.74.158-2.98-.206-2.89-.365.089-.797 1.575-.797 1.575s-1.572-2.913-2.073-2.913c-.5 0 1.002 3.63 1.002 3.63s-1.503-2.375-1.821-2.24c-.254.107.674 1.97 1.04 2.638.081.11.135.195.144.23.009.035-.05-.058-.143-.23-.349-.476-1.222-1.45-1.406-1.16-.227.358.82 1.882.82 1.882s-.702-.538-.852-.313c-.15.223 1.307 2.195 2.218 3.852.812 1.478 2.977 1.402 3.402 2.359l-.136.12c.001 0 1.625-.847.666-.535-.12.04.238-.749.238-.749s-1.953 1.437-1.311-.04c.393-.906 3.15.917 3.15.917s-2.211.502-2.24.46" mask="url(#gpnw0vyjxj)"/>
                    <path fill="#FB7E15" d="M91.919 95.295c.01-.017.023-.034.034-.05-.499-.26-.785-.421-.785-.421l.75.47z" mask="url(#gpnw0vyjxj)"/>
                    <path fill="#D7D5D7" d="M36.368 68.95L34.616 65.589 47.081 47.211 48.159 50.165zM37.553 67.808L52.689 62.575 53.559 64.957 38.972 69.644z" mask="url(#gpnw0vyjxj)"/>
                    <path fill="#B28B67" d="M100.65 49.92c-1.902-.46-5.07-2.013-8.448-1.795l-.256-.092s-.288-.922-1.141-1.106c-.853-.183-2.398-.07-2.908.653-.51.722-.457.837-.375 1.009.082.172.957-.228.957-.228s-1.405.64-1.415 1.065c-.01.426 2.774.759 2.774.759s2.523.907 5.65 2.412c3.126 1.504 4.384 2.815 4.384 2.815s.342-1.38.431-2.6c.09-1.22.346-2.892.346-2.892" mask="url(#gpnw0vyjxj)"/>
                    <path fill="#B28B67" d="M109.817 55.774s-3.724-3.675-9.168-5.854c0 0-.194 1.678-.346 2.892-.15 1.21-.432 2.6-.432 2.6s4.43 3.318 6.6 5.764c1.204-1.919 1.943-3.248 2.641-4.448.101-.173.705-.954.705-.954" mask="url(#gpnw0vyjxj)"/>
                    <path fill="#092A3D" d="M88.148 48.525s.98-1.457 2.126-2.715c1.146-1.257 1.592-1.741 2.068-1.522.476.218-3.327 4.262-3.327 4.262l-.867-.025zM87.362 49.674s-.336.383-.297.54c.038.157 1.017-.326 1.017-.326s-.2-.048-.72-.214" mask="url(#gpnw0vyjxj)"/>
                    <path fill="#89C5CC" d="M121.774 57.962c.563 1.025 1.2 2.017 1.813 2.942 1.059 1.602 2.084 2.987 2.816 3.94.659.859 1.081 1.363 1.081 1.363l8.34-5.591s-5.068-9.708-8.97-10.329c-4.022-.626-7.699 3.075-5.08 7.675" mask="url(#gpnw0vyjxj)"/>
                    <path fill="#B28B67" d="M118.513 38.95c-.597 2.976-1.188 8.433.93 10.417 0 0-.828 3.026-6.449 3.026-6.194 0-2.956-3.026-2.956-3.026 3.379-.792 3.289-3.252 2.697-5.54l5.778-4.877z" mask="url(#gpnw0vyjxj)"/>
                    <path fill="#7AB8C8" d="M121.74 51.384c-.67-1.03.456-3.513.456-3.513s-9.962-2.466-14.028 1.319c-.844.781.09 1.934.09 1.934l13.482.26z" mask="url(#gpnw0vyjxj)"/>
                    <path fill="#000" d="M123.587 60.904c1.059 1.601 2.084 2.987 2.816 3.94-.085-1.906-.484-4.987-1.988-7.337-.546.532-.766 1.906-.828 3.397" mask="url(#gpnw0vyjxj)"/>
                    <path fill="#B28B67" d="M100.83 54.305c-.225.349-.636.88-1.013 1.374-.377.493-.81.997-1.239 1.496-.861.992-1.74 1.978-2.658 2.926-1.767 1.882-3.705 3.604-5.789 5.142-.484.348-.986.672-1.503.97l-.344.193c-.04 0-.056.05-.13.072l-.09.04-.124.038c-.092.028-.186.05-.281.067-1.122.154-2.261.14-3.38-.045-2.638-.41-5.245-.995-7.804-1.751l-1.45 2.042c2.509 1.597 5.343 3.576 8.196 4.447 1.614.514 3.306.748 5.001.693.255-.012.508-.039.76-.078l.389-.072.416-.1c.292-.078.579-.176.857-.294l.174-.072.14-.066.283-.133c.726-.35 1.43-.732 2.117-1.147 2.535-1.624 4.884-3.514 7.005-5.635 1.042-1.037 2.056-2.09 3.008-3.209.484-.554.951-1.108 1.419-1.729.51-.642.979-1.315 1.402-2.016l-5.361-3.153zM118.615 36.379c-.879 3.945-1.194 6.3-3.565 8.029-3.565 2.604-8.273 0-8.605-4.117-.298-3.713 1.194-9.542 5.406-10.528 3.006-.712 6.029 1.11 6.752 4.067.204.838.207 1.71.006 2.549h.006z" mask="url(#gpnw0vyjxj)"/>
                    <path fill="#263238" d="M120.31 28.671c3.52.094 3.942 3.502 2.196 4.505 0 0 2.027.959.985 3.247-1.588 3.474-4.629 7.292-7.737 7.082-3.858-.26-4.956-4.395-4.82-8.473-2.034-1.89-.806-2.81-2.816-3.962-3.56-2.039-5.361-7.885.563-7.796 6.07.094 2.647 5.159 11.629 5.397" mask="url(#gpnw0vyjxj)"/>
                    <path fill="#263238" d="M122.067 32.677s1.357.693 3.446-.504c-.726 1.751-2.957 2.471-3.446.504" mask="url(#gpnw0vyjxj)"/>
                    <path fill="#B28B67" d="M113.05 36.013c-.108.999-.55 1.934-1.255 2.66-.935.947-1.853.304-1.971-.892-.107-1.076.253-2.865 1.374-3.364 1.12-.499 1.971.388 1.853 1.596" mask="url(#gpnw0vyjxj)"/>
                    <path fill="#89C5CC" d="M101.642 63.769c0 1.385.033 2.909.112 4.588.203 4.566 2.11 10.739 3.09 17.81l21.559 4.663c.152-3.325-2.827-24.795.45-40.543-2.457-.464-4.941-.771-7.439-.92-3.132-.177-6.272-.177-9.404 0-2.147.211-4.274.582-6.364 1.108 0 0-2.01 2.289-2.004 13.294" mask="url(#gpnw0vyjxj)"/>
                    <path fill="#000" d="M101.642 63.769c0 1.385.033 2.909.112 4.588 2.596-2.494 2.771-7.586 2.771-7.586l-2.883 2.998z" mask="url(#gpnw0vyjxj)"/>
                    <path fill="#89C5CC" d="M109.57 55.246c-.49 3.88-9.432 12.047-9.432 12.047l-8.053-6.278c2.024-2.948 4.392-5.653 7.056-8.057 5.823-4.976 11.02-2.35 10.43 2.288" mask="url(#gpnw0vyjxj)"/>
                    <path fill="#6169F5" d="M124.489 136.88c-.4-.017-.824.045-1.257.21-.301.115-.577.294-.798.519-.666.67-.87 1.756.104 2.84 1.3 1.448 3.972.162 4.236-.83.378-1.42-.761-2.675-2.285-2.739" mask="url(#gpnw0vyjxj)"/>
                    <path fill="#212A36" d="M78.139 134.718c-.4-.017-.824.044-1.257.209-.3.115-.576.294-.798.52-.666.669-.87 1.755.104 2.84 1.3 1.448 3.972.161 4.236-.83.378-1.421-.761-2.676-2.285-2.74" mask="url(#gpnw0vyjxj)"/>
                    <path fill="#E1C3A0" d="M111.474 81.324c-.083-.27-.168-.545-.257-.825-2.137-.925-8.377-2.896-14.151-.37C90.04 83.202 84.921 87.98 82.32 94.04c0 0 .364.205.998.534.621-.904 1.265-1.908 2.091-2.99 1.581-2.07 3.825-4.429 7.84-6.933 6.04-3.766 14.762-5.038 19.106-.175-.248-1.012-.547-2.054-.881-3.153" mask="url(#gpnw0vyjxj)"/>
                    <path fill="#8A888C" d="M124.489 136.88c-.357-1.172-2.189-6.022-8.915-10.026-2.346.983-4.832.173-5.601-.128 1.874.895 9.91 6.749 12.461 10.882.221-.225.497-.404.798-.52.433-.165.857-.226 1.257-.208" mask="url(#gpnw0vyjxj)"/>
                    <path fill="#6169F5" d="M109.973 126.726c-.096-.047-.182-.083-.243-.102 0 0 .086.04.243.102" mask="url(#gpnw0vyjxj)"/>
                    <path fill="#8A888C" d="M109.973 126.726c-.096-.047-.182-.083-.243-.102 0 0 .014-.14.03-.42-6.67 1.957-17.007 9.666-18.333 11.622l.067.015c.414-.04.836.01 1.204.13.215.07.397.167.554.28.058-.044 4.623-3.426 9.104-5.546 4.51-2.135 12.608-5.625 12.608-5.625l-.024-.007c-2.145.619-4.267-.073-4.967-.347" mask="url(#gpnw0vyjxj)"/>
                    <path fill="#8A888C" d="M109.73 126.624s.014-.14.03-.42c.015-.278.033-.701.042-1.27-3.418.206-11.98.852-17.767 2.393-6.707 1.786-11.904 5.407-14.42 8.103.342 0 .668.1.925.328.331.294.558.585.701.865.883-.622 6.256-4.245 14.875-6.735 9.455-2.732 17.174-2.76 17.174-2.76v-.008c-.59-.129-1.054-.291-1.317-.394-.096-.046-.182-.083-.243-.102M135.75 130.785c-5.194-2.7-14.017-5.1-19.689-5.477v1.316c-.161.086-.324.162-.487.23-.21.089-.423.158-.634.22-.099.028-.196.047-.294.07l-.006.012s10.893 2.22 17.699 5.122c5.578 2.377 9.312 4.868 10.479 5.692.27-.71.816-1.042 1.41-1.124-1.08-1.065-4.044-3.76-8.477-6.061" mask="url(#gpnw0vyjxj)"/>
                    <path fill="#8A888C" d="M110.944 100.955s-.663-.053-1.756-.16c.104 3.278.542 25.83.542 25.83.06.018.147.055.243.101.263.103.726.265 1.317.394.91.199 2.118.315 3.356.024.098-.023.195-.042.294-.07.212-.062.424-.131.634-.22.163-.068.326-.144.487-.23v-25.278c-1.608.026-3.3-.097-5.117-.391" mask="url(#gpnw0vyjxj)"/>
                    <path fill="#E1C3A0" d="M109.704 100.1c-.06-.482.234-1.16.683-2.075-2.26.034-7.18-.155-13.149-1.98-6.363-1.943-10.345-3.74-11.829-4.46-.826 1.082-1.47 2.086-2.091 2.99 2.065 1.075 7.35 2.985 12.36 4.16 4.746 1.114 10.63 1.778 13.51 2.06 1.093.107 1.756.16 1.756.16-.826-.135-1.183-.412-1.24-.854" mask="url(#gpnw0vyjxj)"/>
                    <path fill="#E1C3A0" d="M139.103 87.896c-1.331-3.5-1.964-8.62-1.01-14.51.954-5.89 1.388-9.9.607-14.772-.481-3.006-3.542-3.695-7.078-3.402-2.193.181-4.568.74-6.626 1.36-5.378 1.622-10.844 2.816-14.206 8.45-3.166 5.303-1.003 10.985.427 15.477.089.28.174.555.257.825.334 1.1.633 2.14.88 3.153.344 1.408.583 2.757.639 4.113.072 1.753-.153 3.52-.835 5.45-.584 1.654-1.27 2.965-1.771 3.985-.45.914-.743 1.593-.683 2.076.057.442.413.72 1.24.854 1.818.294 3.51.417 5.117.391 5.833-.094 10.549-2.161 16.089-5.17 7.067-3.841 6.953-8.28 6.953-8.28" mask="url(#gpnw0vyjxj)"/>
                </g>
            </g>
        </g>
    </g>
</svg>
