<svg id="Layer_1" data-name="Layer 1" xmlns="http://www.w3.org/2000/svg" xmlns:xlink="http://www.w3.org/1999/xlink" viewBox="0 0 192 172"><defs><style>.cls-1,.cls-4{fill:#c8d2d9;}.cls-1,.cls-2{clip-rule:evenodd;}.cls-2,.cls-3{fill:none;}.cls-4{fill-rule:evenodd;}.cls-5{clip-path:url(#clip-path);}.cls-6{clip-path:url(#clip-path-2);}.cls-7{clip-path:url(#clip-path-3);}.cls-8{clip-path:url(#clip-path-4);}.cls-9{fill:#c5d1d9;}.cls-10{clip-path:url(#clip-path-5);}.cls-11{isolation:isolate;}.cls-12{clip-path:url(#clip-path-6);}.cls-13{clip-path:url(#clip-path-7);}.cls-14{clip-path:url(#clip-path-8);}.cls-15{fill:#535a61;}.cls-16{clip-path:url(#clip-path-9);}.cls-17{clip-path:url(#clip-path-11);}.cls-18{clip-path:url(#clip-path-12);}.cls-19{clip-path:url(#clip-path-13);}.cls-20{clip-path:url(#clip-path-14);}</style><clipPath id="clip-path"><path class="cls-1" d="M-96.89,172.69c13.78-2.2,4.07-7-17.54-8.68s-51.95,1.16-56.81,4.7S-110.67,174.9-96.89,172.69Z"/></clipPath><clipPath id="clip-path-2"><path class="cls-3" d="M-105.76,144.77V155.5c4.28,0,7.76-4.11,7.76-9.19v-4.39A46.54,46.54,0,0,1-105.76,144.77Zm0-13.78v9.21A43.62,43.62,0,0,0-98,137.1v-9A47.45,47.45,0,0,1-105.76,131Zm0-13.78v9.21a43.62,43.62,0,0,0,7.76-3.1v-9A46.58,46.58,0,0,1-105.76,117.21ZM-98.85,13.5a7.74,7.74,0,0,0-6.91-5v7.67A44.24,44.24,0,0,0-98.85,13.5ZM-98,26.85v-9a45.71,45.71,0,0,1-7.76,2.86V30A43.62,43.62,0,0,0-98,26.85Zm0,13.78v-9a45.67,45.67,0,0,1-7.76,2.85v9.21A43.62,43.62,0,0,0-98,40.63Zm-7.76,62.8v9.21a43.62,43.62,0,0,0,7.76-3.1v-9A46.58,46.58,0,0,1-105.76,103.43Zm0-13.78v9.21A43.62,43.62,0,0,0-98,95.76v-9A46.58,46.58,0,0,1-105.76,89.65Zm0-13.78v9.21A42.92,42.92,0,0,0-98,82V73A46.58,46.58,0,0,1-105.76,75.87Zm0-13.79V71.3A43.66,43.66,0,0,0-98,68.19v-9A45.67,45.67,0,0,1-105.76,62.08Zm0-9.36v4.8A43.66,43.66,0,0,0-98,54.41v-9a45.67,45.67,0,0,1-7.76,2.85ZM-125.18,56V46.76a45.15,45.15,0,0,1,15.53,8.15v8.51A47.59,47.59,0,0,0-125.18,56Zm0,13.78a47.79,47.79,0,0,1,15.53,7.44V68.69a45,45,0,0,0-15.53-8.14Zm0,13.78V74.33a44.81,44.81,0,0,1,15.53,8.15V91A47.79,47.79,0,0,0-125.18,83.54Zm0,13.78a48,48,0,0,1,15.53,7.44v-8.5a44.81,44.81,0,0,0-15.53-8.15Zm0,13.78v-9.21A45,45,0,0,1-109.65,110v8.5A48,48,0,0,0-125.18,111.1Zm0,13.78a47.81,47.81,0,0,1,15.53,7.45v-8.51a45.15,45.15,0,0,0-15.53-8.15Zm0,13.79v-9.22a45.15,45.15,0,0,1,15.53,8.15v8.51A47.59,47.59,0,0,0-125.18,138.67Zm0,16.83h7.72a47.39,47.39,0,0,0,7.2-4.59,45,45,0,0,0-14.92-7.68Zm0-140.87a47.81,47.81,0,0,1,15.53,7.45V8.5h-15.53Zm0,13.79V19.2a45.15,45.15,0,0,1,15.53,8.15v8.51A47.59,47.59,0,0,0-125.18,28.42ZM-152.35,155.5H-145a49.38,49.38,0,0,1-7.35-4.39Zm-3.89-140.87V8.5c-4.28,0-7.76,4.11-7.76,9.19v-.2A46.58,46.58,0,0,1-156.24,14.63Zm0,13.79V19.2A43.66,43.66,0,0,0-164,22.31v9A45.67,45.67,0,0,1-156.24,28.42ZM-164,146.31c0,5.08,3.48,9.19,7.76,9.19V143.23a43.66,43.66,0,0,0-7.76,3.11Zm0-13.75v9a45.67,45.67,0,0,1,7.76-2.85v-9.22A43.66,43.66,0,0,0-164,132.56Zm0-13.78v9a46.58,46.58,0,0,1,7.76-2.86v-9.21A42.92,42.92,0,0,0-164,118.78Zm0-13.79v9a46.58,46.58,0,0,1,7.76-2.86v-9.21A43.62,43.62,0,0,0-164,105Zm7.76-62.79V33A43.66,43.66,0,0,0-164,36.09v9A45.67,45.67,0,0,1-156.24,42.2Zm0,13.78V46.77a43.62,43.62,0,0,0-7.76,3.1v9A46.54,46.54,0,0,1-156.24,56ZM-164,91.21v9a46.58,46.58,0,0,1,7.76-2.86V88.11A43.62,43.62,0,0,0-164,91.21Zm0-13.78v9a46.58,46.58,0,0,1,7.76-2.86V74.33A43.62,43.62,0,0,0-164,77.43Zm7.76-12.09V60.55a43.62,43.62,0,0,0-7.76,3.1v9a46.54,46.54,0,0,1,7.76-2.85Zm19.42-3.26V71.3a45.15,45.15,0,0,1-15.53-8.15V54.64A47.59,47.59,0,0,0-136.82,62.08Zm0-13.78v9.22a45.15,45.15,0,0,1-15.53-8.15V40.86A47.59,47.59,0,0,0-136.82,48.3Zm0-13.78a47.59,47.59,0,0,1-15.53-7.44v8.51a45.15,45.15,0,0,0,15.53,8.15Zm0-13.78V30a44.81,44.81,0,0,1-15.53-8.15V13.3A47.79,47.79,0,0,0-136.82,20.74Zm0-12.24h-14.93a44.81,44.81,0,0,0,14.93,7.67Zm0,136.27V154a45.15,45.15,0,0,1-15.53-8.15v-8.51A47.59,47.59,0,0,0-136.82,144.77Zm0-13.78a47.79,47.79,0,0,1-15.53-7.44v8.51a45,45,0,0,0,15.53,8.14Zm0-13.78v9.21a44.81,44.81,0,0,1-15.53-8.15v-8.5A47.79,47.79,0,0,0-136.82,117.21Zm0-13.78A48,48,0,0,1-152.35,96v8.5a44.81,44.81,0,0,0,15.53,8.15Zm0-13.78v9.21a45.15,45.15,0,0,1-15.53-8.15V82.2A47.81,47.81,0,0,0-136.82,89.65Zm3.88-3.64V155.5h3.88V8.5h-3.88V86Zm-3.88-10.14a47.81,47.81,0,0,1-15.53-7.45v8.51a45.15,45.15,0,0,0,15.53,8.15Zm11.64-33.67a47.59,47.59,0,0,1,15.53,7.44V41.13A45.15,45.15,0,0,0-125.18,33Z"/></clipPath><clipPath id="clip-path-3"><path class="cls-2" d="M115.79,169c8-2.21,2.36-7-10.17-8.69s-30.15,1.16-33,4.71S107.79,171.2,115.79,169Z"/></clipPath><clipPath id="clip-path-4"><rect class="cls-3" x="-930.5" y="-214.2" width="1366" height="600"/></clipPath><clipPath id="clip-path-5"><rect class="cls-3" x="72.5" y="2.2" width="46.61" height="149.31"/></clipPath><clipPath id="clip-path-6"><rect class="cls-3" x="71.5" y="1.8" width="48" height="150"/></clipPath><clipPath id="clip-path-7"><path class="cls-2" d="M114.77,133.63a10.05,10.05,0,0,1,4.34-.79V115.58a10.06,10.06,0,0,0-4.12,1.18c-4.62,2.38-11.28,9.39-16.75,29.26L97.7,148l-.23-2c0-.3-.8-7.36,2.56-12.1a59,59,0,0,1,3.9-8.43c3.38-6,7-9.8,10.84-11.38a10.07,10.07,0,0,1,4.34-.8V92.73A10.06,10.06,0,0,0,115,93.91c-4.62,2.38-11.28,9.39-16.75,29.26l-.54,2-.23-2c0-.3-.8-7.36,2.56-12.1a59,59,0,0,1,3.9-8.43c3.38-6,7-9.8,10.84-11.38a10.07,10.07,0,0,1,4.34-.8V66.63c-.44.17-.91.37-1.39.61C112.42,70,104.79,78,98.53,100.77l-.54,2-.23-2c0-.35-.93-8.41,2.92-13.82a67.34,67.34,0,0,1,4.46-9.64c3.86-6.82,8-11.2,12.37-13a12.55,12.55,0,0,1,1.6-.54V43.47a13.43,13.43,0,0,0-1.39.61c-5.3,2.73-12.93,10.76-19.19,33.52l-.54,2-.23-2c0-.34-.93-8.4,2.92-13.81a67.34,67.34,0,0,1,4.46-9.64c3.86-6.82,8-11.2,12.37-13a12.55,12.55,0,0,1,1.6-.54V20.75a11,11,0,0,0-3.36,1.12c-4.81,2.48-11.74,9.78-17.43,30.45l-.54,2-.23-2c0-.31-.84-7.65,2.66-12.57.43-1.23,6.08-16.78,15.32-20.61a10.75,10.75,0,0,1,3.58-.82V13.15a11,11,0,0,0-8.68-10.72c-3.92,4.42-8.29,12.26-12.11,26.12l-.54,1.95-.23-2c0-.31-.84-7.65,2.66-12.57A56.14,56.14,0,0,1,107.47,2.2H84.33a56.14,56.14,0,0,1,7.26,13.72c3.5,4.92,2.69,12.26,2.66,12.57l-.24,2-.53-1.95C89.65,14.65,85.27,6.81,81.35,2.4A11,11,0,0,0,72.5,13.15v5.1a10.85,10.85,0,0,1,3.77.83c9.24,3.83,14.89,19.38,15.32,20.61,3.5,4.92,2.69,12.26,2.66,12.57l-.24,2-.53-2c-5.69-20.67-12.62-28-17.43-30.45a11.14,11.14,0,0,0-3.55-1.15V40.5a11.35,11.35,0,0,1,1.79.59c4.35,1.8,8.51,6.18,12.37,13a67.34,67.34,0,0,1,4.46,9.64C95,69.14,94.08,77.2,94,77.54l-.23,2-.54-2C87,54.8,79.35,46.78,74,44.06a15,15,0,0,0-1.54-.67V63.66a12.48,12.48,0,0,1,1.79.59c4.35,1.8,8.51,6.18,12.37,13a67.34,67.34,0,0,1,4.46,9.64c3.84,5.41,3,13.47,2.92,13.82l-.23,2-.54-2C87,78,79.35,69.94,74,67.22a15,15,0,0,0-1.54-.67V90.41A10.16,10.16,0,0,1,77,91.2c3.82,1.58,7.46,5.41,10.84,11.38a59,59,0,0,1,3.9,8.43c3.36,4.74,2.59,11.8,2.56,12.1l-.24,2-.53-2C88.09,103.3,81.43,96.29,76.81,93.91a9.86,9.86,0,0,0-4.31-1.18v20.53a10.16,10.16,0,0,1,4.53.79c3.82,1.58,7.46,5.41,10.84,11.38a59,59,0,0,1,3.9,8.43c3.36,4.74,2.59,11.8,2.56,12.1l-.24,2L93.56,146c-5.47-19.87-12.13-26.88-16.75-29.26a9.86,9.86,0,0,0-4.31-1.18v17.27a10,10,0,0,1,4.53.78c3.82,1.58,7.46,5.42,10.84,11.39A60.29,60.29,0,0,1,91,151.5h9.78a60.29,60.29,0,0,1,3.14-6.48c3.38-6,7-9.81,10.84-11.39"/></clipPath><clipPath id="clip-path-8"><rect class="cls-3" x="72.5" y="1.8" width="47" height="150"/></clipPath><clipPath id="clip-path-9"><path class="cls-2" d="M115,136.34c-3.3,1.7-7.63,5.76-11.83,15.16h5a11,11,0,0,0,11-11v-5.37a10,10,0,0,0-4.12,1.17"/></clipPath><clipPath id="clip-path-11"><rect class="cls-3" x="72.5" y="135.16" width="16.14" height="16.34"/></clipPath><clipPath id="clip-path-12"><rect class="cls-3" x="71.5" y="134.8" width="18" height="17"/></clipPath><clipPath id="clip-path-13"><path class="cls-2" d="M76.81,136.34a10,10,0,0,0-4.31-1.18v5.38a11,11,0,0,0,11,11h5.18c-4.2-9.4-8.53-13.46-11.83-15.16"/></clipPath><clipPath id="clip-path-14"><rect class="cls-3" x="72.5" y="134.8" width="17" height="17"/></clipPath></defs><title>sporty-tyre (1)</title><path class="cls-4" d="M-96.89,172.69c13.78-2.2,4.07-7-17.54-8.68s-51.95,1.16-56.81,4.7S-110.67,174.9-96.89,172.69Z"/><g class="cls-7"><g class="cls-8"><rect class="cls-9" x="67.5" y="154.8" width="57" height="20"/></g></g><g class="cls-10"><g class="cls-11"><g class="cls-12"><g class="cls-13"><g class="cls-14"><rect class="cls-15" x="67.5" y="-2.8" width="56.61" height="159.31"/></g></g></g></g></g><g class="cls-16"><g class="cls-8"><rect class="cls-15" x="98.16" y="130.17" width="25.95" height="26.33"/></g></g><g class="cls-17"><g class="cls-11"><g class="cls-18"><g class="cls-19"><g class="cls-20"><rect class="cls-15" x="67.5" y="130.16" width="26.14" height="26.34"/></g></g></g></g></g></svg>