<?xml version="1.0" encoding="UTF-8"?>
<svg width="80px" height="80px" viewBox="0 0 80 80" version="1.1" xmlns="http://www.w3.org/2000/svg" xmlns:xlink="http://www.w3.org/1999/xlink">
    <title>sporty</title>
    <defs>
        <rect id="path-1" x="0" y="0" width="80" height="80"></rect>
        <polygon id="path-3" points="0 0.226593176 34.8217353 0.226593176 34.8217353 112.703412 0 112.703412"></polygon>
    </defs>
    <g id="Desktop" stroke="none" stroke-width="1" fill="none" fill-rule="evenodd">
        <g id="sporty">
            <mask id="mask-2" fill="white">
                <use xlink:href="#path-1"></use>
            </mask>
            <g id="Mask"></g>
            <g mask="url(#mask-2)" id="Group-9">
                <g transform="translate(-1.000000, 24.000000)">
                    <g id="Group-3" transform="translate(0.000000, 0.069995)">
                        <mask id="mask-4" fill="white">
                            <use xlink:href="#path-3"></use>
                        </mask>
                        <g id="Clip-2"></g>
                        <path d="M31.5764412,99.2412861 C32.6490882,98.7928451 33.7337941,98.5941312 34.8217353,98.6424751 L34.8217353,85.645399 C34.0232059,85.684252 32.9635,85.8933465 31.7396765,86.5298241 C28.2885,88.3241811 23.3173235,93.6046325 19.2311471,108.570163 L18.8293824,110.042129 L18.6555588,108.525378 C18.6296765,108.299971 18.0537941,102.981853 20.5652647,99.4118241 C20.6976176,99.0390131 21.7329118,96.1843543 23.4814412,93.0636562 C26.0023235,88.5641207 28.7261471,85.6786168 31.5764412,84.4863333 C32.6490882,84.0378924 33.7337941,83.8394751 34.8217353,83.8878189 L34.8217353,68.4314357 C34.0232059,68.4705853 32.9635,68.6796798 31.7396765,69.3158609 C28.2885,71.1102178 23.3173235,76.3906693 19.2311471,91.3564961 L18.8293824,92.8281654 L18.6555588,91.3117113 C18.6296765,91.0863045 18.0537941,85.7678898 20.5652647,82.1981575 C20.6976176,81.8253465 21.7329118,78.9703911 23.4814412,75.8499895 C26.0023235,71.3504541 28.7261471,68.4646535 31.5764412,67.2726667 C32.6490882,66.8242257 33.7337941,66.6255118 34.8217353,66.6741522 L34.8217353,48.7635039 C34.4885,48.8913333 34.1429118,49.0428898 33.7835,49.2294436 C29.8255588,51.2853911 24.1243824,57.3351916 19.4429118,74.4815328 L19.0411471,75.9534987 L18.8673235,74.436748 C18.8376176,74.1796063 18.1796765,68.1042992 21.0485,64.032147 C21.1905588,63.6308635 22.3764412,60.3532703 24.3849706,56.7684121 C27.2652647,51.6276535 30.3749706,48.3313753 33.6282059,46.9712231 C34.0246765,46.8054304 34.4229118,46.6722625 34.8217353,46.566084 L34.8217353,31.3155328 C34.4885,31.4430656 34.1429118,31.594622 33.7835,31.7814724 C29.8255588,33.8374199 24.1243824,39.8869239 19.4429118,57.0335617 L19.0411471,58.5055276 L18.8673235,56.9887769 C18.8376176,56.7313386 18.1796765,50.6563281 21.0485,46.5841759 C21.1905588,46.1828924 22.3764412,42.9052992 24.3849706,39.3204409 C27.2652647,34.1796824 30.3749706,30.8834042 33.6282059,29.523252 C34.0246765,29.3574593 34.4229118,29.2242913 34.8217353,29.1181129 L34.8217353,14.202706 C34.1049706,14.3142231 33.2552647,14.5586115 32.3096765,15.0500577 C28.7173235,16.9173753 23.5426176,22.4125564 19.2905588,37.9860919 L18.8885,39.4577612 L18.7149706,37.9413071 C18.6879118,37.7072992 18.0887941,32.1783071 20.6996765,28.4682887 C21.0214412,27.5485696 25.2440882,15.833643 32.1485,12.9466562 C33.0335,12.576811 33.9261471,12.3727585 34.8217353,12.3282703 L34.8217353,8.48122835 C34.8217353,4.50902625 32.0390882,1.19317323 28.3326176,0.405139108 C25.4070294,3.72959318 22.1414412,9.63673491 19.2905588,20.0790026 L18.8885,21.5506719 L18.7149706,20.0342178 C18.6879118,19.80021 18.0887941,14.2712178 20.6996765,10.5614961 C20.9126176,9.95200787 22.8393824,4.6060105 26.1223235,0.226593176 L8.83938235,0.226593176 C12.1220294,4.6060105 14.0485,9.95200787 14.2620294,10.5614961 C16.8729118,14.2712178 16.2737941,19.80021 16.2467353,20.0342178 L16.0729118,21.5506719 L15.6711471,20.0790026 C12.8132059,9.61152493 9.53908824,3.70141732 6.60791176,0.381412073 C2.84232353,1.12317848 -2.94117647e-05,4.46691076 -2.94117647e-05,8.48122835 L-2.94117647e-05,12.3217454 C0.942911765,12.350811 1.88232353,12.5575328 2.81320588,12.9469528 C9.71791176,15.8339396 13.9399706,27.5485696 14.2620294,28.4682887 C16.8729118,32.1783071 16.2737941,37.7072992 16.2467353,37.9413071 L16.0729118,39.4577612 L15.6711471,37.9860919 C11.4190882,22.4125564 6.24408824,16.9173753 2.65173529,15.0500577 C1.64438235,14.5265801 0.744970588,14.2824882 -2.94117647e-05,14.1822415 L-2.94117647e-05,29.079853 C0.445852941,29.1907769 0.890558824,29.3381811 1.3335,29.523252 C4.58644118,30.8834042 7.69644118,34.1796824 10.5767353,39.3204409 C12.5852647,42.9052992 13.7708529,46.1828924 13.9129118,46.5841759 C16.7817353,50.6563281 16.1237941,56.7313386 16.0940882,56.9887769 L15.9205588,58.5055276 L15.5185,57.0335617 C10.8276176,39.8531129 5.11408824,33.8098373 1.14673529,31.7654567 C0.748205882,31.5599213 0.365264706,31.3944252 -2.94117647e-05,31.260664 L-2.94117647e-05,46.5281207 C0.445852941,46.638748 0.890558824,46.7861522 1.3335,46.9712231 C4.58644118,48.3313753 7.69644118,51.6276535 10.5767353,56.7684121 C12.5852647,60.3532703 13.7708529,63.6308635 13.9129118,64.032147 C16.7817353,68.1042992 16.1237941,74.1796063 16.0940882,74.436748 L15.9205588,75.9534987 L15.5185,74.4815328 C10.8276176,57.3013806 5.11408824,51.2578084 1.14673529,49.2134278 C0.748205882,49.0078924 0.365264706,48.8423963 -2.94117647e-05,48.7086352 L-2.94117647e-05,66.6830499 C1.13497059,66.6103858 2.26614706,66.8049475 3.38497059,67.2726667 C6.23555882,68.4646535 8.95938235,71.3504541 11.4802647,75.8499895 C13.2285,78.9703911 14.2640882,81.8253465 14.3964412,82.1981575 C16.9076176,85.7678898 16.3317353,91.0863045 16.3058529,91.3117113 L16.1320294,92.8281654 L15.7302647,91.3564961 C11.6440882,76.3906693 6.67291176,71.1102178 3.22202941,69.3158609 C1.92497059,68.6414199 0.812617647,68.4471549 -2.94117647e-05,68.4266903 L-2.94117647e-05,83.8967165 C1.13497059,83.8240525 2.26614706,84.0186142 3.38497059,84.4863333 C6.23555882,85.6786168 8.95938235,88.5641207 11.4802647,93.0636562 C13.2285,96.1843543 14.2640882,99.0390131 14.3964412,99.4118241 C16.9076176,102.981853 16.3317353,108.299971 16.3058529,108.525378 L16.1320294,110.042129 L15.7302647,108.570163 C11.6440882,93.6046325 6.67291176,88.3241811 3.22202941,86.5298241 C1.92497059,85.8553832 0.812617647,85.6611181 -2.94117647e-05,85.6406535 L-2.94117647e-05,98.6516693 C1.13497059,98.5790052 2.26644118,98.7732703 3.38497059,99.2412861 C6.23585294,100.433273 8.95938235,103.319073 11.4802647,107.818312 C12.5399706,109.710247 13.3361471,111.500748 13.8296765,112.703412 L21.1317353,112.703412 C21.6255588,111.500748 22.4211471,109.710247 23.4814412,107.818312 C26.0023235,103.319073 28.7258529,100.433273 31.5764412,99.2412861" id="Fill-1" fill="#545A60" mask="url(#mask-4)"></path>
                    </g>
                </g>
            </g>
        </g>
    </g>
</svg>