<?xml version="1.0" encoding="UTF-8"?>
<svg width="92px" height="36px" viewBox="0 0 92 36" version="1.1" xmlns="http://www.w3.org/2000/svg" xmlns:xlink="http://www.w3.org/1999/xlink">
    <title>Group 2</title>
    <defs>
        <polygon id="path-1" points="0.368584615 0.103670769 7.3722 0.103670769 7.3722 7.10769231 0.368584615 7.10769231"></polygon>
        <path d="M2.98015385,0.101030769 C1.43473846,0.101030769 0.181753846,1.35401538 0.181753846,2.89892308 L0.181753846,2.89892308 L0.181753846,6.84267692 L8.61198462,6.84267692 L8.61198462,0.101030769 L2.98015385,0.101030769 Z" id="path-3"></path>
        <path d="M2.98015385,0.101030769 C1.43473846,0.101030769 0.181753846,1.35401538 0.181753846,2.89892308 L0.181753846,2.89892308 L0.181753846,6.84267692 L8.61198462,6.84267692 L8.61198462,0.101030769 L2.98015385,0.101030769 Z" id="path-5"></path>
        <path d="M2.98015385,0.101030769 C1.43473846,0.101030769 0.181753846,1.35401538 0.181753846,2.89892308 L0.181753846,2.89892308 L0.181753846,6.84267692 L8.61198462,6.84267692 L8.61198462,0.101030769 L2.98015385,0.101030769 Z" id="path-7"></path>
        <polygon id="path-9" points="0 32.4923077 88.5029538 32.4923077 88.5029538 0.176169231 0 0.176169231"></polygon>
    </defs>
    <g id="Page-1" stroke="none" stroke-width="1" fill="none" fill-rule="evenodd">
        <g id="Artboard" transform="translate(-220.000000, -640.000000)">
            <g id="Group-2" transform="translate(220.000000, 640.000000)">
                <ellipse id="Oval" fill="#D8D8D8" cx="45.9" cy="33" rx="45.9" ry="3"></ellipse>
                <g id="Group-56" transform="translate(1.200000, 0.000000)">
                    <polygon id="Fill-1" fill="#181818" points="46.7381538 28.6254692 65.8746 28.6254692 65.8746 23.5637769 46.7381538 23.5637769"></polygon>
                    <polygon id="Fill-2" fill="#181818" points="18.0337385 26.6393769 28.4439692 26.6393769 28.4439692 24.4288846 18.0337385 24.4288846"></polygon>
                    <polygon id="Fill-3" fill="#181818" points="18.7531385 25.9032231 22.8806769 25.9032231 22.8806769 15.8773154 18.7531385 15.8773154"></polygon>
                    <polygon id="Fill-4" fill="#181818" points="27.3184154 27.7354846 45.2232 27.7354846 45.2232 24.2517 27.3184154 24.2517"></polygon>
                    <polygon id="Fill-5" fill="#181818" points="65.6385231 27.3110538 87.2235692 27.3110538 87.2235692 23.5845923 65.6385231 23.5845923"></polygon>
                    <polygon id="Fill-6" fill="#B2B2B2" points="11.0298692 7.30838308 20.9821615 7.30838308 20.9821615 1.84307538"></polygon>
                    <g id="Group-20" transform="translate(4.569231, 5.916392)">
                        <path d="M2.80068462,0.147535385 L16.4129308,0.147535385 L16.4129308,23.7643662 L13.8907154,23.7643662 C13.9013769,23.6460738 13.9074692,23.5267662 13.9074692,23.4059354 C13.9074692,21.22692 12.1412077,19.4606585 9.9627,19.4606585 C7.78368462,19.4606585 6.01793077,21.22692 6.01793077,23.4059354 C6.01793077,23.5267662 6.02453077,23.6460738 6.03468462,23.7643662 L2.80068462,23.7643662 L0.0312230769,23.7643662 L0.0312230769,2.98147385 L2.80068462,0.147535385 Z" id="Fill-9" fill="#CDCDCD"></path>
                        <g id="Group-13" transform="translate(6.092308, 19.800000)">
                            <mask id="mask-2" fill="white">
                                <use xlink:href="#path-1"></use>
                            </mask>
                            <g id="Clip-12"></g>
                            <path d="M3.87064615,0.103670769 C5.80495385,0.103670769 7.3722,1.67142462 7.3722,3.60573231 C7.3722,3.71285538 7.36712308,3.81896308 7.35747692,3.92405538 C7.19653846,5.70910154 5.69732308,7.10779385 3.87064615,7.10779385 C2.04346154,7.10779385 0.544246154,5.70910154 0.383815385,3.92405538 C0.374169231,3.81896308 0.368584615,3.71285538 0.368584615,3.60573231 C0.368584615,1.67142462 1.93633846,0.103670769 3.87064615,0.103670769" id="Fill-11" fill="#FFA20A" mask="url(#mask-2)"></path>
                        </g>
                        <path d="M9.96295385,21.3945092 C11.0737846,21.3945092 11.9739231,22.2946477 11.9739231,23.4054785 C11.9739231,23.4674169 11.9708769,23.52834 11.9652923,23.5882477 C11.8728923,24.6132785 11.0118462,25.4169554 9.96295385,25.4169554 C8.91406154,25.4169554 8.05250769,24.6132785 7.96061538,23.5882477 C7.95503077,23.52834 7.95147692,23.4674169 7.95147692,23.4054785 C7.95147692,22.2946477 8.85212308,21.3945092 9.96295385,21.3945092" id="Fill-14" fill="#C88516"></path>
                        <path d="M9.96295385,22.1139092 C10.6762615,22.1139092 11.2545231,22.6921708 11.2545231,23.4054785 C11.2545231,23.4455862 11.2524923,23.4841708 11.2489385,23.5232631 C11.1895385,24.1812323 10.6366615,24.6975554 9.96295385,24.6975554 C9.28924615,24.6975554 8.73586154,24.1812323 8.67696923,23.5232631 C8.67341538,23.4841708 8.67087692,23.4455862 8.67087692,23.4054785 C8.67087692,22.6921708 9.24964615,22.1139092 9.96295385,22.1139092" id="Fill-16" fill="#DADADA"></path>
                        <path d="M10.13496,4.16272154 L4.50262154,4.16272154 C2.95771385,4.16272154 1.70523692,5.41519846 1.70523692,6.96061385 L1.70523692,10.9043677 L10.13496,10.9043677 L10.13496,4.16272154 Z" id="Fill-18" fill="#FFFFFF"></path>
                    </g>
                    <g id="Group-30" transform="translate(6.092308, 9.977931)">
                        <g id="Group-23">
                            <mask id="mask-4" fill="white">
                                <use xlink:href="#path-3"></use>
                            </mask>
                            <g id="Clip-22"></g>
                            <polygon id="Fill-21" fill="#FCFDFF" mask="url(#mask-4)" points="5.36793231 15.2424462 3.80779385 14.2494 13.3752554 -0.7854 14.9359015 0.207646154"></polygon>
                        </g>
                        <g id="Group-26">
                            <mask id="mask-6" fill="white">
                                <use xlink:href="#path-5"></use>
                            </mask>
                            <g id="Clip-25"></g>
                            <polygon id="Fill-24" fill="#FCFDFF" mask="url(#mask-6)" points="-4.53206769 7.65828462 -6.09220615 6.66523846 3.47525538 -8.36956154 5.03590154 -7.37651538"></polygon>
                        </g>
                        <g id="Group-29">
                            <mask id="mask-8" fill="white">
                                <use xlink:href="#path-7"></use>
                            </mask>
                            <g id="Clip-28"></g>
                            <polygon id="Fill-27" fill="#FCFDFF" mask="url(#mask-8)" points="-3.91481538 8.77607077 -4.60781538 8.33488615 4.95913846 -6.69991385 5.65315385 -6.25872923"></polygon>
                        </g>
                    </g>
                    <g id="Group-55" transform="translate(0.000000, 0.331777)">
                        <path d="M6.27421385,16.4888815 L6.27421385,21.6780046 C6.27421385,23.0142508 7.35762923,24.0971585 8.69387538,24.0971585 L14.7039369,24.0971585 L14.7039369,16.4888815 L6.27421385,16.4888815 Z" id="Fill-31" fill="#B0B0B0"></path>
                        <path d="M11.89452,18.1138523 L12.8692892,18.1138523 C13.2150277,18.1138523 13.4952738,17.8336062 13.4952738,17.4878677 L7.48368923,17.4878677 L9.70992,17.4878677 L11.2685354,17.4878677 C11.2685354,17.8336062 11.5482738,18.1138523 11.89452,18.1138523" id="Fill-33" fill="#262626"></path>
                        <mask id="mask-10" fill="white">
                            <use xlink:href="#path-9"></use>
                        </mask>
                        <g id="Clip-36"></g>
                        <polygon id="Fill-35" fill="#CDCDCD" mask="url(#mask-10)" points="24.5276308 22.5846923 88.5029538 22.5846923 88.5029538 0.175661538 24.5276308 0.175661538"></polygon>
                        <polygon id="Fill-37" fill="#262626" mask="url(#mask-10)" points="24.5276308 25.5714462 45.2226923 25.5714462 45.2226923 23.9199231 24.5276308 23.9199231"></polygon>
                        <polygon id="Fill-38" fill="#262626" mask="url(#mask-10)" points="87.0849692 24.0783231 88.5029538 24.0783231 88.5029538 0.176169231 87.0849692 0.176169231"></polygon>
                        <path d="M34.7764154,25.4882862 C36.7107231,25.4882862 38.2779692,27.05604 38.2779692,28.9903477 C38.2779692,29.0974708 38.2728923,29.2035785 38.2632462,29.3086708 C38.1023077,31.0937169 36.6030923,32.4924092 34.7764154,32.4924092 C32.9492308,32.4924092 31.4500154,31.0937169 31.2895846,29.3086708 C31.2799385,29.2035785 31.2743538,29.0974708 31.2743538,28.9903477 C31.2743538,27.05604 32.8421077,25.4882862 34.7764154,25.4882862" id="Fill-39" fill="#181818" mask="url(#mask-10)"></path>
                        <path d="M34.7764154,26.9791246 C35.8872462,26.9791246 36.7873846,27.8792631 36.7873846,28.9900938 C36.7873846,29.0520323 36.7843385,29.1129554 36.7787538,29.1728631 C36.6863538,30.1978938 35.8253077,31.0015708 34.7764154,31.0015708 C33.7275231,31.0015708 32.8659692,30.1978938 32.7740769,29.1728631 C32.7684923,29.1129554 32.7649385,29.0520323 32.7649385,28.9900938 C32.7649385,27.8792631 33.6655846,26.9791246 34.7764154,26.9791246" id="Fill-40" fill="#AEAEAE" mask="url(#mask-10)"></path>
                        <path d="M34.7764154,27.6985246 C35.4897231,27.6985246 36.0679846,28.2767862 36.0679846,28.9900938 C36.0679846,29.0302015 36.0659538,29.0687862 36.0624,29.1078785 C36.003,29.7658477 35.4501231,30.2821708 34.7764154,30.2821708 C34.1027077,30.2821708 33.5493231,29.7658477 33.4904308,29.1078785 C33.4868769,29.0687862 33.4848462,29.0302015 33.4848462,28.9900938 C33.4848462,28.2767862 34.0631077,27.6985246 34.7764154,27.6985246" id="Fill-41" fill="#DADADA" mask="url(#mask-10)"></path>
                        <path d="M41.2563969,25.4882862 C43.1907046,25.4882862 44.7579508,27.05604 44.7579508,28.9903477 C44.7579508,29.0974708 44.7528738,29.2035785 44.7432277,29.3086708 C44.5822892,31.0937169 43.0830738,32.4924092 41.2563969,32.4924092 C39.42972,32.4924092 37.9305046,31.0937169 37.7695662,29.3086708 C37.75992,29.2035785 37.7548431,29.0974708 37.7548431,28.9903477 C37.7548431,27.05604 39.3220892,25.4882862 41.2563969,25.4882862" id="Fill-42" fill="#181818" mask="url(#mask-10)"></path>
                        <path d="M41.2563969,26.9791246 C42.3672277,26.9791246 43.2673662,27.8792631 43.2673662,28.9900938 C43.2673662,29.0520323 43.26432,29.1129554 43.2587354,29.1728631 C43.1668431,30.1978938 42.3052892,31.0015708 41.2563969,31.0015708 C40.2075046,31.0015708 39.3464585,30.1978938 39.2540585,29.1728631 C39.2484738,29.1129554 39.2454277,29.0520323 39.2454277,28.9900938 C39.2454277,27.8792631 40.1455662,26.9791246 41.2563969,26.9791246" id="Fill-43" fill="#AEAEAE" mask="url(#mask-10)"></path>
                        <path d="M41.2563969,27.6985246 C41.9697046,27.6985246 42.5479662,28.2767862 42.5479662,28.9900938 C42.5479662,29.0302015 42.5459354,29.0687862 42.5423815,29.1078785 C42.4829815,29.7658477 41.9301046,30.2821708 41.2563969,30.2821708 C40.5826892,30.2821708 40.0298123,29.7658477 39.9704123,29.1078785 C39.9668585,29.0687862 39.9648277,29.0302015 39.9648277,28.9900938 C39.9648277,28.2767862 40.5430892,27.6985246 41.2563969,27.6985246" id="Fill-44" fill="#DADADA" mask="url(#mask-10)"></path>
                        <path d="M73.3005138,25.4882862 C75.2348215,25.4882862 76.8020677,27.05604 76.8020677,28.9903477 C76.8020677,29.0974708 76.7969908,29.2035785 76.7873446,29.3086708 C76.6264062,31.0937169 75.1271908,32.4924092 73.3005138,32.4924092 C71.4733292,32.4924092 69.9741138,31.0937169 69.8136831,29.3086708 C69.8040369,29.2035785 69.7984523,29.0974708 69.7984523,28.9903477 C69.7984523,27.05604 71.3662062,25.4882862 73.3005138,25.4882862" id="Fill-45" fill="#181818" mask="url(#mask-10)"></path>
                        <path d="M73.3005138,26.9791246 C74.4113446,26.9791246 75.3114831,27.8792631 75.3114831,28.9900938 C75.3114831,29.0520323 75.3084369,29.1129554 75.3028523,29.1728631 C75.2104523,30.1978938 74.3494062,31.0015708 73.3005138,31.0015708 C72.2516215,31.0015708 71.3900677,30.1978938 71.2981754,29.1728631 C71.2925908,29.1129554 71.2890369,29.0520323 71.2890369,28.9900938 C71.2890369,27.8792631 72.1896831,26.9791246 73.3005138,26.9791246" id="Fill-46" fill="#AEAEAE" mask="url(#mask-10)"></path>
                        <path d="M73.3005138,27.6985246 C74.0138215,27.6985246 74.5920831,28.2767862 74.5920831,28.9900938 C74.5920831,29.0302015 74.5900523,29.0687862 74.5864985,29.1078785 C74.5270985,29.7658477 73.9742215,30.2821708 73.3005138,30.2821708 C72.6268062,30.2821708 72.0734215,29.7658477 72.0145292,29.1078785 C72.0109754,29.0687862 72.0084369,29.0302015 72.0084369,28.9900938 C72.0084369,28.2767862 72.5872062,27.6985246 73.3005138,27.6985246" id="Fill-47" fill="#DADADA" mask="url(#mask-10)"></path>
                        <path d="M79.7805462,25.4882862 C81.7148538,25.4882862 83.2821,27.05604 83.2821,28.9903477 C83.2821,29.0974708 83.2770231,29.2035785 83.2673769,29.3086708 C83.1064385,31.0937169 81.6072231,32.4924092 79.7805462,32.4924092 C77.9533615,32.4924092 76.4541462,31.0937169 76.2937154,29.3086708 C76.2840692,29.2035785 76.2784846,29.0974708 76.2784846,28.9903477 C76.2784846,27.05604 77.8462385,25.4882862 79.7805462,25.4882862" id="Fill-48" fill="#181818" mask="url(#mask-10)"></path>
                        <path d="M79.7805462,26.9791246 C80.8913769,26.9791246 81.7915154,27.8792631 81.7915154,28.9900938 C81.7915154,29.0520323 81.7884692,29.1129554 81.7828846,29.1728631 C81.6904846,30.1978938 80.8294385,31.0015708 79.7805462,31.0015708 C78.7316538,31.0015708 77.8701,30.1978938 77.7782077,29.1728631 C77.7726231,29.1129554 77.7695769,29.0520323 77.7695769,28.9900938 C77.7695769,27.8792631 78.6697154,26.9791246 79.7805462,26.9791246" id="Fill-49" fill="#AEAEAE" mask="url(#mask-10)"></path>
                        <path d="M79.7805462,27.6985246 C80.4938538,27.6985246 81.0721154,28.2767862 81.0721154,28.9900938 C81.0721154,29.0302015 81.0700846,29.0687862 81.0665308,29.1078785 C81.0071308,29.7658477 80.4542538,30.2821708 79.7805462,30.2821708 C79.1068385,30.2821708 78.5539615,29.7658477 78.4945615,29.1078785 C78.4910077,29.0687862 78.4889769,29.0302015 78.4889769,28.9900938 C78.4889769,28.2767862 79.0672385,27.6985246 79.7805462,27.6985246" id="Fill-50" fill="#DADADA" mask="url(#mask-10)"></path>
                        <polygon id="Fill-51" fill="#CDCDCD" mask="url(#mask-10)" points="24.5276308 31.1525077 30.1086923 31.1525077 30.1086923 25.5714462 24.5276308 25.5714462"></polygon>
                        <polygon id="Fill-52" fill="#CDCDCD" mask="url(#mask-10)" points="87.7942154 27.6631385 88.5029538 27.6631385 88.5029538 22.2333692 87.7942154 22.2333692"></polygon>
                        <polyline id="Fill-53" fill="#CDCDCD" mask="url(#mask-10)" points="4.60045385 15.03546 3.45103846 16.6296138 3.45103846 28.1633677 5.76002308 29.3488292"></polyline>
                        <path d="M4.16069077,25.2027092 L4.16069077,25.2027092 C3.54079846,25.2027092 3.03361385,25.7098938 3.03361385,26.3297862 L3.03361385,28.90074 C3.03361385,29.5206323 3.54079846,30.0278169 4.16069077,30.0278169 C4.78109077,30.0278169 5.28827538,29.5206323 5.28827538,28.90074 L5.28827538,26.3297862 C5.28827538,25.7098938 4.78109077,25.2027092 4.16069077,25.2027092" id="Fill-54" fill="#CDCDCD" mask="url(#mask-10)"></path>
                    </g>
                </g>
            </g>
        </g>
    </g>
</svg>