<?xml version="1.0" encoding="UTF-8"?>
<svg width="80px" height="80px" viewBox="0 0 80 80" version="1.1" xmlns="http://www.w3.org/2000/svg" xmlns:xlink="http://www.w3.org/1999/xlink">
    <title>steer</title>
    <defs>
        <rect id="path-1" x="0" y="0" width="80" height="80"></rect>
        <polygon id="path-3" points="0.610156965 0.171617152 12.2039797 0.171617152 12.2039797 11.7661123 0.610156965 11.7661123"></polygon>
        <path d="M4.93336279,0.167246881 C2.3750738,0.167246881 0.300876299,2.24144439 0.300876299,4.79889293 L0.300876299,4.79889293 L0.300876299,11.3274044 L14.2563259,11.3274044 L14.2563259,0.167246881 L4.93336279,0.167246881 Z" id="path-5"></path>
        <path d="M4.93336279,0.167246881 C2.3750738,0.167246881 0.300876299,2.24144439 0.300876299,4.79889293 L0.300876299,4.79889293 L0.300876299,11.3274044 L14.2563259,11.3274044 L14.2563259,0.167246881 L4.93336279,0.167246881 Z" id="path-7"></path>
        <path d="M4.93336279,0.167246881 C2.3750738,0.167246881 0.300876299,2.24144439 0.300876299,4.79889293 L0.300876299,4.79889293 L0.300876299,11.3274044 L14.2563259,11.3274044 L14.2563259,0.167246881 L4.93336279,0.167246881 Z" id="path-9"></path>
        <polygon id="path-11" points="0 53.7879418 146.508268 53.7879418 146.508268 0.291631497 0 0.291631497"></polygon>
    </defs>
    <g id="Page-1" stroke="none" stroke-width="1" fill="none" fill-rule="evenodd">
        <g id="Artboard" transform="translate(-616.000000, -91.000000)">
            <g id="steer" transform="translate(616.000000, 91.000000)">
                <mask id="mask-2" fill="white">
                    <use xlink:href="#path-1"></use>
                </mask>
                <g id="Mask"></g>
                <g id="Group-56-Copy-2" mask="url(#mask-2)">
                    <g transform="translate(5.500000, 47.810811) scale(-1, 1) translate(-5.500000, -47.810811) translate(-68.000000, 20.000000)">
                        <polygon id="Fill-1" fill="#181818" points="77.3705925 47.3867565 109.049169 47.3867565 109.049169 39.0076037 77.3705925 39.0076037"></polygon>
                        <polygon id="Fill-2" fill="#181818" points="29.8531481 44.0989686 47.0863004 44.0989686 47.0863004 40.4397076 29.8531481 40.4397076"></polygon>
                        <polygon id="Fill-3" fill="#181818" points="31.0440468 42.8803355 37.8767963 42.8803355 37.8767963 26.2833937 31.0440468 26.2833937"></polygon>
                        <polygon id="Fill-4" fill="#181818" points="45.2230525 45.9134712 74.8627297 45.9134712 74.8627297 40.1463953 45.2230525 40.1463953"></polygon>
                        <polygon id="Fill-6" fill="#B2B2B2" points="18.2589051 12.0983369 34.7339836 12.0983369 34.7339836 3.05103695"></polygon>
                        <g id="Group-20" stroke-width="1" fill="none" transform="translate(7.563929, 9.794028)">
                            <path d="M4.63626845,0.244230873 L27.1700543,0.244230873 L27.1700543,39.3396602 L22.9947653,39.3396602 C23.0124145,39.1438385 23.0224997,38.9463359 23.0224997,38.746312 C23.0224997,35.1391581 20.0986208,32.2152792 16.4923074,32.2152792 C12.8851536,32.2152792 9.96211512,35.1391581 9.96211512,38.746312 C9.96211512,38.9463359 9.9730408,39.1438385 9.98984953,39.3396602 L4.63626845,39.3396602 L0.0516868503,39.3396602 L0.0516868503,4.93554792 L4.63626845,0.244230873 Z" id="Fill-9" fill="#CDCDCD"></path>
                            <g id="Group-13" transform="translate(10.085239, 32.777027)">
                                <mask id="mask-4" fill="white">
                                    <use xlink:href="#path-3"></use>
                                </mask>
                                <g id="Clip-12"></g>
                                <path d="M6.40748857,0.171617152 C9.60955198,0.171617152 12.2039797,2.76688534 12.2039797,5.96894875 C12.2039797,6.14628087 12.1955754,6.32193212 12.1796071,6.49590249 C11.9131887,9.45087755 9.43137942,11.7662804 6.40748857,11.7662804 C3.38275728,11.7662804 0.900948025,9.45087755 0.635370062,6.49590249 C0.619401767,6.32193212 0.610156965,6.14628087 0.610156965,5.96894875 C0.610156965,2.76688534 3.20542516,0.171617152 6.40748857,0.171617152" id="Fill-11" fill="#181818" mask="url(#mask-4)"></path>
                            </g>
                            <path d="M16.4927277,35.4165862 C18.3316029,35.4165862 19.821697,36.9066803 19.821697,38.7455556 C19.821697,38.8480888 19.8166544,38.9489412 19.8074096,39.0481127 C19.6544501,40.7449542 18.2290696,42.0753653 16.4927277,42.0753653 C14.7563857,42.0753653 13.3301648,40.7449542 13.1780457,39.0481127 C13.1688009,38.9489412 13.1629179,38.8480888 13.1629179,38.7455556 C13.1629179,36.9066803 14.6538524,35.4165862 16.4927277,35.4165862" id="Fill-14" fill="#AEAEAE"></path>
                            <path d="M16.4927277,36.6074849 C17.6735411,36.6074849 18.6307983,37.5647422 18.6307983,38.7455556 C18.6307983,38.8119501 18.6274366,38.8758232 18.6215535,38.9405369 C18.5232225,40.0297427 17.607987,40.8844667 16.4927277,40.8844667 C15.3774683,40.8844667 14.4613924,40.0297427 14.3639018,38.9405369 C14.3580187,38.8758232 14.3538165,38.8119501 14.3538165,38.7455556 C14.3538165,37.5647422 15.3119142,36.6074849 16.4927277,36.6074849" id="Fill-16" fill="#DADADA"></path>
                            <path d="M16.7774676,6.89099174 L7.45366403,6.89099174 C4.89621549,6.89099174 2.82285842,8.9643488 2.82285842,11.5226378 L2.82285842,18.0511492 L16.7774676,18.0511492 L16.7774676,6.89099174 Z" id="Fill-18" fill="#FFFFFF"></path>
                        </g>
                        <g id="Group-30" stroke-width="1" fill="none" transform="translate(10.085239, 16.517521)">
                            <g id="Group-23">
                                <mask id="mask-6" fill="white">
                                    <use xlink:href="#path-5"></use>
                                </mask>
                                <g id="Clip-22"></g>
                                <polygon id="Fill-21" fill="#FCFDFF" mask="url(#mask-6)" points="8.88610416 25.2324278 6.30344252 23.5885338 22.1414701 -1.30015541 24.7249721 0.343738565"></polygon>
                            </g>
                            <g id="Group-26">
                                <mask id="mask-8" fill="white">
                                    <use xlink:href="#path-7"></use>
                                </mask>
                                <g id="Clip-25"></g>
                                <polygon id="Fill-24" fill="#FCFDFF" mask="url(#mask-8)" points="-7.50240936 12.6775657 -10.085071 11.0336718 5.75295655 -13.8550174 8.33645863 -12.2111234"></polygon>
                            </g>
                            <g id="Group-29">
                                <mask id="mask-10" fill="white">
                                    <use xlink:href="#path-9"></use>
                                </mask>
                                <g id="Clip-28"></g>
                                <polygon id="Fill-27" fill="#FCFDFF" mask="url(#mask-10)" points="-6.48060655 14.527955 -7.62780249 13.7976156 8.20938462 -11.0910736 9.35826143 -10.3607342"></polygon>
                            </g>
                        </g>
                        <g id="Group-55" stroke-width="1" fill="none" transform="translate(0.000000, 0.549225)">
                            <path d="M10.3863675,27.2957836 L10.3863675,35.885886 C10.3863675,38.0979151 12.1798592,39.8905664 14.3918883,39.8905664 L24.3409767,39.8905664 L24.3409767,27.2957836 L10.3863675,27.2957836 Z" id="Fill-31" fill="#B0B0B0"></path>
                            <path d="M19.6902527,29.985769 L21.303891,29.985769 C21.8762283,29.985769 22.3401493,29.521848 22.3401493,28.9495107 L12.3885396,28.9495107 L16.0738541,28.9495107 L18.6539944,28.9495107 C18.6539944,29.521848 19.1170749,29.985769 19.6902527,29.985769" id="Fill-33" fill="#262626"></path>
                            <mask id="mask-12" fill="white">
                                <use xlink:href="#path-11"></use>
                            </mask>
                            <g id="Clip-36"></g>
                            <polygon id="Fill-35" fill="#CDCDCD" mask="url(#mask-12)" points="40.6031726 37.3868217 146.508268 37.3868217 146.508268 0.29079106 40.6031726 0.29079106"></polygon>
                            <polygon id="Fill-37" fill="#262626" mask="url(#mask-12)" points="40.6031726 42.3311102 74.8618893 42.3311102 74.8618893 39.59717 40.6031726 39.59717"></polygon>
                            <path d="M57.569066,42.1934467 C60.7711294,42.1934467 63.3655572,44.7887149 63.3655572,47.9907783 C63.3655572,48.1681104 63.3571528,48.3437616 63.3411845,48.517732 C63.0747661,51.4727071 60.5929569,53.7881099 57.569066,53.7881099 C54.5443347,53.7881099 52.0625255,51.4727071 51.7969475,48.517732 C51.7809792,48.3437616 51.7717344,48.1681104 51.7717344,47.9907783 C51.7717344,44.7887149 54.3670026,42.1934467 57.569066,42.1934467" id="Fill-39" fill="#FFA20A" mask="url(#mask-12)"></path>
                            <path d="M57.569066,44.6613887 C59.4079413,44.6613887 60.8980353,46.1514828 60.8980353,47.9903581 C60.8980353,48.0928913 60.8929927,48.1937437 60.8837479,48.2929152 C60.7307885,49.9897567 59.305408,51.3201678 57.569066,51.3201678 C55.832724,51.3201678 54.4065031,49.9897567 54.2543841,48.2929152 C54.2451393,48.1937437 54.2392562,48.0928913 54.2392562,47.9903581 C54.2392562,46.1514828 55.7301907,44.6613887 57.569066,44.6613887" id="Fill-40" fill="#C88516" mask="url(#mask-12)"></path>
                            <path d="M57.569066,45.8522874 C58.7498794,45.8522874 59.7071367,46.8095446 59.7071367,47.9903581 C59.7071367,48.0567525 59.7037749,48.1206257 59.6978919,48.1853393 C59.5995608,49.2745452 58.6843254,50.1292692 57.569066,50.1292692 C56.4538067,50.1292692 55.5377308,49.2745452 55.4402401,48.1853393 C55.4343571,48.1206257 55.4309953,48.0567525 55.4309953,47.9903581 C55.4309953,46.8095446 56.3882526,45.8522874 57.569066,45.8522874" id="Fill-41" fill="#DADADA" mask="url(#mask-12)"></path>
                            <path d="M68.2960625,42.1934467 C71.4981259,42.1934467 74.0925536,44.7887149 74.0925536,47.9907783 C74.0925536,48.1681104 74.0841493,48.3437616 74.068181,48.517732 C73.8017626,51.4727071 71.3199533,53.7881099 68.2960625,53.7881099 C65.2721716,53.7881099 62.7903624,51.4727071 62.523944,48.517732 C62.5079757,48.3437616 62.4995713,48.1681104 62.4995713,47.9907783 C62.4995713,44.7887149 65.0939991,42.1934467 68.2960625,42.1934467" id="Fill-42" fill="#FFA20A" mask="url(#mask-12)"></path>
                            <path d="M68.2960625,44.6613887 C70.1349377,44.6613887 71.6250318,46.1514828 71.6250318,47.9903581 C71.6250318,48.0928913 71.6199892,48.1937437 71.6107444,48.2929152 C71.4586254,49.9897567 70.0324045,51.3201678 68.2960625,51.3201678 C66.5597205,51.3201678 65.13434,49.9897567 64.9813806,48.2929152 C64.9721358,48.1937437 64.9670931,48.0928913 64.9670931,47.9903581 C64.9670931,46.1514828 66.4571872,44.6613887 68.2960625,44.6613887" id="Fill-43" fill="#C88516" mask="url(#mask-12)"></path>
                            <path d="M68.2960625,45.8522874 C69.4768759,45.8522874 70.4341332,46.8095446 70.4341332,47.9903581 C70.4341332,48.0567525 70.4307714,48.1206257 70.4248884,48.1853393 C70.3265573,49.2745452 69.4113218,50.1292692 68.2960625,50.1292692 C67.1808031,50.1292692 66.2655677,49.2745452 66.1672366,48.1853393 C66.1613535,48.1206257 66.1579918,48.0567525 66.1579918,47.9903581 C66.1579918,46.8095446 67.1152491,45.8522874 68.2960625,45.8522874" id="Fill-44" fill="#DADADA" mask="url(#mask-12)"></path>
                            <polygon id="Fill-51" fill="#CDCDCD" mask="url(#mask-12)" points="40.6031726 51.5700296 49.842092 51.5700296 49.842092 42.3311102 40.6031726 42.3311102"></polygon>
                            <polyline id="Fill-53" fill="#CDCDCD" mask="url(#mask-12)" points="7.61561616 24.8897818 5.71286772 27.5287527 5.71286772 46.6217911 9.53517334 48.5842106"></polyline>
                            <path d="M6.88762999,41.7207011 L6.88762999,41.7207011 C5.86145691,41.7207011 5.02186076,42.5602972 5.02186076,43.5864703 L5.02186076,47.8424412 C5.02186076,48.8686143 5.86145691,49.7082104 6.88762999,49.7082104 C7.9146435,49.7082104 8.75423966,48.8686143 8.75423966,47.8424412 L8.75423966,43.5864703 C8.75423966,42.5602972 7.9146435,41.7207011 6.88762999,41.7207011" id="Fill-54" fill="#CDCDCD" mask="url(#mask-12)"></path>
                        </g>
                    </g>
                </g>
            </g>
        </g>
    </g>
</svg>