<?xml version="1.0" encoding="UTF-8"?>
<svg width="64px" height="49px" viewBox="0 0 64 49" version="1.1" xmlns="http://www.w3.org/2000/svg" xmlns:xlink="http://www.w3.org/1999/xlink">
    <title>11941D6D-4EA2-44F1-BECA-0626B73E5C81</title>
    <g id="4Wheeler" stroke="none" stroke-width="1" fill="none" fill-rule="evenodd">
        <g id="4wheeler_listing_tyre-size-desktop" transform="translate(-583.000000, -2091.000000)" fill-rule="nonzero">
            <g id="map" transform="translate(583.000000, 2091.000000)">
                <path d="M63.91775,47.69675 L54.69525,25.370875 C54.55025,25.019875 54.21,24.79125 53.832625,24.79125 L10.167375,24.79125 C9.79,24.79125 9.449625,25.02 9.30475,25.370875 L0.082125,47.69675 C-0.038,47.98725 -0.006,48.319125 0.1675,48.580875 C0.340875,48.84275 0.6325,49 0.944875,49 L63.055125,49 C63.367375,49 63.659125,48.842625 63.8325,48.580875 C64.005875,48.31925 64.03775,47.987375 63.91775,47.69675 Z" id="Path" fill="#C1DAF6"></path>
                <g id="Group" transform="translate(5.875000, 24.750000)">
                    <path d="M9.52075,8.461375 L12.703125,0.020375 L4.23325,0.020375 C3.855875,0.020375 3.5155,0.249125 3.370625,0.6 L0.123125,8.461375 L9.52075,8.461375 Z" id="Path" fill="#C1DAF6"></path>
                    <path d="M47.8985,0.020375 L18.489,0.020375 L27.066875,7.50025 L51.611625,7.50025 L48.76125,0.600125 C48.616125,0.24925 48.275875,0.020375 47.8985,0.020375 Z" id="Path" fill="#CBE4FF"></path>
                    <polygon id="Path" fill="#4CE166" points="51.831875 8.033625 52.008625 8.461375 52.008625 8.461375"></polygon>
                </g>
                <polygon id="Path" fill="#A4A4A4" points="60.322625 39.116 57.486625 32.25025 32.94175 32.25025 24.364 24.770375 18.60975 24.770375 17.8775 24.770375 14.7725 32.248375 6.396125 32.248375 4.514625 36.802875 3.559125 39.116 11.944375 39.116 7.87025 48.979125 15.492625 48.979125 22.036375 32.95725 40.907125 48.979125 52.048125 48.979125 40.770125 39.116"></polygon>
                <path d="M32,0 C24.2803349,0 18,6.41749693 18,14.3056794 C18,17.0250934 18.7241738,19.9102717 20.1526656,22.8810143 C21.2829733,25.2319655 22.8557449,27.6438581 24.8270203,30.0497709 C28.1714686,34.1314421 31.4646732,36.7519251 31.6033171,36.8615846 C31.7201977,36.9540081 31.8600555,37 32,37 C32.1399445,37 32.279889,36.9538322 32.3966829,36.8615846 C32.5352401,36.7519251 35.8284447,34.1314421 39.1729797,30.0497709 C41.1443418,27.6438581 42.7171134,25.2319655 43.8473344,22.8810143 C45.2758262,19.9101838 46,17.0250934 46,14.3056794 C46,6.41749693 39.7196651,0 32,0 Z M32.5,8 C35.537546,8 38,10.4624677 38,13.5 C38,16.5375323 35.537546,19 32.5,19 C29.462454,19 27,16.5375323 27,13.5 C27,10.4624677 29.462454,8 32.5,8 Z" id="Shape" fill="#F5822D"></path>
                <polygon id="Path" fill="#EDEDED" points="15.492625 48.979125 40.907125 48.979125 22.036375 32.95725"></polygon>
            </g>
        </g>
    </g>
</svg>