<?xml version="1.0" encoding="UTF-8"?>
<svg width="80px" height="80px" viewBox="0 0 80 80" version="1.1" xmlns="http://www.w3.org/2000/svg" xmlns:xlink="http://www.w3.org/1999/xlink">
    <title>trailer</title>
    <defs>
        <rect id="path-1" x="0" y="0" width="80" height="80"></rect>
        <polygon id="path-3" points="0 53.7879418 146.508268 53.7879418 146.508268 0.291631497 0 0.291631497"></polygon>
    </defs>
    <g id="Page-1" stroke="none" stroke-width="1" fill="none" fill-rule="evenodd">
        <g id="Artboard" transform="translate(-714.000000, -91.000000)">
            <g id="trailer" transform="translate(714.000000, 91.000000)">
                <mask id="mask-2" fill="white">
                    <use xlink:href="#path-1"></use>
                </mask>
                <g id="Mask"></g>
                <g id="Group-56-Copy-4" mask="url(#mask-2)">
                    <g transform="translate(94.500000, 47.810811) scale(-1, 1) translate(-94.500000, -47.810811) translate(21.000000, 20.000000)">
                        <polygon id="Fill-1" fill="#181818" points="77.3705925 47.3867565 109.049169 47.3867565 109.049169 39.0076037 77.3705925 39.0076037"></polygon>
                        <polygon id="Fill-5" fill="#181818" points="108.658366 45.2108662 144.390368 45.2108662 144.390368 39.0420616 108.658366 39.0420616"></polygon>
                        <g id="Group-55" stroke-width="1" fill="none" transform="translate(0.000000, 0.549225)">
                            <mask id="mask-4" fill="white">
                                <use xlink:href="#path-3"></use>
                            </mask>
                            <g id="Clip-36"></g>
                            <polygon id="Fill-35" fill="#CDCDCD" mask="url(#mask-4)" points="40.6031726 37.3868217 146.508268 37.3868217 146.508268 0.29079106 40.6031726 0.29079106"></polygon>
                            <polygon id="Fill-38" fill="#262626" mask="url(#mask-4)" points="144.160929 39.8593862 146.508268 39.8593862 146.508268 0.291631497 144.160929 0.291631497"></polygon>
                            <path d="M121.342067,42.1934467 C124.54413,42.1934467 127.138558,44.7887149 127.138558,47.9907783 C127.138558,48.1681104 127.130154,48.3437616 127.114185,48.517732 C126.847767,51.4727071 124.365958,53.7881099 121.342067,53.7881099 C118.317336,53.7881099 115.835526,51.4727071 115.569948,48.517732 C115.55398,48.3437616 115.544735,48.1681104 115.544735,47.9907783 C115.544735,44.7887149 118.140003,42.1934467 121.342067,42.1934467" id="Fill-45" fill="#FFA20A" mask="url(#mask-4)"></path>
                            <path d="M121.342067,44.6613887 C123.180942,44.6613887 124.671036,46.1514828 124.671036,47.9903581 C124.671036,48.0928913 124.665994,48.1937437 124.656749,48.2929152 C124.503789,49.9897567 123.078409,51.3201678 121.342067,51.3201678 C119.605725,51.3201678 118.179504,49.9897567 118.027385,48.2929152 C118.01814,48.1937437 118.012257,48.0928913 118.012257,47.9903581 C118.012257,46.1514828 119.503192,44.6613887 121.342067,44.6613887" id="Fill-46" fill="#AEAEAE" mask="url(#mask-4)"></path>
                            <path d="M121.342067,45.8522874 C122.52288,45.8522874 123.480138,46.8095446 123.480138,47.9903581 C123.480138,48.0567525 123.476776,48.1206257 123.470893,48.1853393 C123.372562,49.2745452 122.457326,50.1292692 121.342067,50.1292692 C120.226807,50.1292692 119.310732,49.2745452 119.213241,48.1853393 C119.207358,48.1206257 119.203156,48.0567525 119.203156,47.9903581 C119.203156,46.8095446 120.161253,45.8522874 121.342067,45.8522874" id="Fill-47" fill="#DADADA" mask="url(#mask-4)"></path>
                            <path d="M132.069147,42.1934467 C135.271211,42.1934467 137.865639,44.7887149 137.865639,47.9907783 C137.865639,48.1681104 137.857234,48.3437616 137.841266,48.517732 C137.574847,51.4727071 135.093038,53.7881099 132.069147,53.7881099 C129.044416,53.7881099 126.562607,51.4727071 126.297029,48.517732 C126.281061,48.3437616 126.271816,48.1681104 126.271816,47.9907783 C126.271816,44.7887149 128.867084,42.1934467 132.069147,42.1934467" id="Fill-48" fill="#FFA20A" mask="url(#mask-4)"></path>
                            <path d="M132.069147,44.6613887 C133.908023,44.6613887 135.398117,46.1514828 135.398117,47.9903581 C135.398117,48.0928913 135.393074,48.1937437 135.383829,48.2929152 C135.23087,49.9897567 133.805489,51.3201678 132.069147,51.3201678 C130.332805,51.3201678 128.906584,49.9897567 128.754465,48.2929152 C128.745221,48.1937437 128.740178,48.0928913 128.740178,47.9903581 C128.740178,46.1514828 130.230272,44.6613887 132.069147,44.6613887" id="Fill-49" fill="#AEAEAE" mask="url(#mask-4)"></path>
                            <path d="M132.069147,45.8522874 C133.249961,45.8522874 134.207218,46.8095446 134.207218,47.9903581 C134.207218,48.0567525 134.203856,48.1206257 134.197973,48.1853393 C134.099642,49.2745452 133.184407,50.1292692 132.069147,50.1292692 C130.953888,50.1292692 130.038653,49.2745452 129.940321,48.1853393 C129.934438,48.1206257 129.931077,48.0567525 129.931077,47.9903581 C129.931077,46.8095446 130.888334,45.8522874 132.069147,45.8522874" id="Fill-50" fill="#DADADA" mask="url(#mask-4)"></path>
                            <polygon id="Fill-52" fill="#CDCDCD" mask="url(#mask-4)" points="145.335019 45.7937089 146.508268 45.7937089 146.508268 36.8052396 145.335019 36.8052396"></polygon>
                        </g>
                    </g>
                </g>
            </g>
        </g>
    </g>
</svg>