<svg xmlns="http://www.w3.org/2000/svg" width="313" height="130" viewBox="0 0 313 130">
    <g fill="none" fill-rule="evenodd">
        <g fill-rule="nonzero">
            <g>
                <path fill="#6ED4F3" d="M98.18 25.794c1.307 0 2.493-.303 3.56-.91 1.067-.607 1.907-1.45 2.52-2.53.613-1.08.92-2.307.92-3.68 0-1.373-.307-2.6-.92-3.68s-1.453-1.923-2.52-2.53c-1.067-.607-2.253-.91-3.56-.91-1.293 0-2.473.303-3.54.91-1.067.607-1.91 1.453-2.53 2.54-.62 1.087-.93 2.31-.93 3.67 0 1.36.31 2.583.93 3.67.62 1.087 1.463 1.933 2.53 2.54 1.067.607 2.247.91 3.54.91zm0-1.58c-.973 0-1.85-.227-2.63-.68-.78-.453-1.393-1.1-1.84-1.94-.447-.84-.67-1.813-.67-2.92 0-1.12.223-2.097.67-2.93.447-.833 1.057-1.477 1.83-1.93.773-.453 1.653-.68 2.64-.68.987 0 1.867.227 2.64.68.773.453 1.383 1.097 1.83 1.93.447.833.67 1.81.67 2.93 0 1.107-.223 2.08-.67 2.92-.447.84-1.06 1.487-1.84 1.94-.78.453-1.657.68-2.63.68zm11.22 6.64v-7.22c.373.627.917 1.15 1.63 1.57.713.42 1.537.63 2.47.63.973 0 1.857-.24 2.65-.72.793-.48 1.417-1.153 1.87-2.02.453-.867.68-1.853.68-2.96 0-1.12-.227-2.103-.68-2.95-.453-.847-1.077-1.503-1.87-1.97-.793-.467-1.677-.7-2.65-.7-.947 0-1.777.21-2.49.63-.713.42-1.25.943-1.61 1.57v-2.02h-1.82v16.16h1.82zm3.72-6.62c-.667 0-1.283-.163-1.85-.49-.567-.327-1.02-.8-1.36-1.42-.34-.62-.51-1.343-.51-2.17 0-.813.17-1.53.51-2.15.34-.62.793-1.093 1.36-1.42.567-.327 1.183-.49 1.85-.49.68 0 1.303.16 1.87.48.567.32 1.017.787 1.35 1.4.333.613.5 1.333.5 2.16 0 .84-.167 1.57-.5 2.19-.333.62-.783 1.093-1.35 1.42-.567.327-1.19.49-1.87.49zm12.72 1.6c1.307 0 2.4-.33 3.28-.99.88-.66 1.467-1.517 1.76-2.57h-1.96c-.213.613-.583 1.103-1.11 1.47-.527.367-1.183.55-1.97.55-.96 0-1.777-.303-2.45-.91-.673-.607-1.043-1.45-1.11-2.53h8.76c.04-.387.06-.753.06-1.1 0-1-.217-1.897-.65-2.69-.433-.793-1.05-1.417-1.85-1.87-.8-.453-1.72-.68-2.76-.68-1.067 0-2.01.23-2.83.69-.82.46-1.457 1.117-1.91 1.97-.453.853-.68 1.847-.68 2.98s.233 2.13.7 2.99c.467.86 1.11 1.523 1.93 1.99.82.467 1.75.7 2.79.7zm3.38-6.46h-6.92c.093-1.04.463-1.853 1.11-2.44s1.43-.88 2.35-.88c.64 0 1.223.13 1.75.39.527.26.943.64 1.25 1.14.307.5.46 1.097.46 1.79zm6.1 6.28v-6.06c0-1.147.283-2.02.85-2.62.567-.6 1.33-.9 2.29-.9.947 0 1.693.29 2.24.87.547.58.82 1.417.82 2.51v6.2h1.8v-6.46c0-1.52-.413-2.683-1.24-3.49-.827-.807-1.907-1.21-3.24-1.21-.747 0-1.43.153-2.05.46-.62.307-1.11.74-1.47 1.3v-1.56h-1.82v10.96h1.82zm12.8 0v-6.06c0-1.147.283-2.02.85-2.62.567-.6 1.33-.9 2.29-.9.947 0 1.693.29 2.24.87.547.58.82 1.417.82 2.51v6.2h1.8v-6.46c0-1.52-.413-2.683-1.24-3.49-.827-.807-1.907-1.21-3.24-1.21-.747 0-1.43.153-2.05.46-.62.307-1.11.74-1.47 1.3v-1.56h-1.82v10.96h1.82zm15.72.18c1.307 0 2.4-.33 3.28-.99.88-.66 1.467-1.517 1.76-2.57h-1.96c-.213.613-.583 1.103-1.11 1.47-.527.367-1.183.55-1.97.55-.96 0-1.777-.303-2.45-.91-.673-.607-1.043-1.45-1.11-2.53h8.76c.04-.387.06-.753.06-1.1 0-1-.217-1.897-.65-2.69-.433-.793-1.05-1.417-1.85-1.87-.8-.453-1.72-.68-2.76-.68-1.067 0-2.01.23-2.83.69-.82.46-1.457 1.117-1.91 1.97-.453.853-.68 1.847-.68 2.98s.233 2.13.7 2.99c.467.86 1.11 1.523 1.93 1.99.82.467 1.75.7 2.79.7zm3.38-6.46h-6.92c.093-1.04.463-1.853 1.11-2.44s1.43-.88 2.35-.88c.64 0 1.223.13 1.75.39.527.26.943.64 1.25 1.14.307.5.46 1.097.46 1.79zm8.16 6.46c.787 0 1.483-.137 2.09-.41.607-.273 1.077-.65 1.41-1.13.333-.48.5-1.02.5-1.62-.013-.667-.197-1.207-.55-1.62-.353-.413-.777-.723-1.27-.93-.493-.207-1.133-.417-1.92-.63-.627-.173-1.117-.33-1.47-.47-.353-.14-.647-.327-.88-.56-.233-.233-.35-.53-.35-.89 0-.453.193-.82.58-1.1.387-.28.907-.42 1.56-.42.707 0 1.27.173 1.69.52.42.347.65.807.69 1.38h1.82c-.053-1.067-.453-1.907-1.2-2.52-.747-.613-1.727-.92-2.94-.92-.787 0-1.487.137-2.1.41-.613.273-1.087.643-1.42 1.11-.333.467-.5.98-.5 1.54 0 .707.183 1.277.55 1.71.367.433.807.76 1.32.98.513.22 1.177.437 1.99.65.893.227 1.553.457 1.98.69.427.233.64.59.64 1.07 0 .467-.2.853-.6 1.16-.4.307-.947.46-1.64.46-.747 0-1.35-.173-1.81-.52-.46-.347-.717-.793-.77-1.34h-1.88c.04.667.253 1.257.64 1.77.387.513.913.913 1.58 1.2.667.287 1.42.43 2.26.43zm10.44 0c.787 0 1.483-.137 2.09-.41.607-.273 1.077-.65 1.41-1.13.333-.48.5-1.02.5-1.62-.013-.667-.197-1.207-.55-1.62-.353-.413-.777-.723-1.27-.93-.493-.207-1.133-.417-1.92-.63-.627-.173-1.117-.33-1.47-.47-.353-.14-.647-.327-.88-.56-.233-.233-.35-.53-.35-.89 0-.453.193-.82.58-1.1.387-.28.907-.42 1.56-.42.707 0 1.27.173 1.69.52.42.347.65.807.69 1.38h1.82c-.053-1.067-.453-1.907-1.2-2.52-.747-.613-1.727-.92-2.94-.92-.787 0-1.487.137-2.1.41-.613.273-1.087.643-1.42 1.11-.333.467-.5.98-.5 1.54 0 .707.183 1.277.55 1.71.367.433.807.76 1.32.98.513.22 1.177.437 1.99.65.893.227 1.553.457 1.98.69.427.233.64.59.64 1.07 0 .467-.2.853-.6 1.16-.4.307-.947.46-1.64.46-.747 0-1.35-.173-1.81-.52-.46-.347-.717-.793-.77-1.34h-1.88c.04.667.253 1.257.64 1.77.387.513.913.913 1.58 1.2.667.287 1.42.43 2.26.43z" transform="translate(-24 -2060) translate(24.68 2060.346)"/>
                <path fill="#33869F" d="M147.008 44.654V39.63h3.936v-1.184h-3.936v-3.76h4.848v-1.184h-6.304v11.152h1.456zm7.36-10.192c.267 0 .493-.096.68-.288.187-.192.28-.427.28-.704 0-.277-.093-.512-.28-.704-.187-.192-.413-.288-.68-.288-.277 0-.512.096-.704.288-.192.192-.288.427-.288.704 0 .277.096.512.288.704.192.192.427.288.704.288zm.704 10.192v-8.768h-1.456v8.768h1.456zm6.544 0v-1.232h-1.072c-.448 0-.763-.088-.944-.264-.181-.176-.272-.477-.272-.904v-5.168h2.288v-1.2h-2.288v-2.208h-1.456v2.208h-1.136v1.2h1.136v5.168c0 .853.203 1.467.608 1.84.405.373 1.013.56 1.824.56h1.312zm3.216 0v-4.848c0-.917.227-1.616.68-2.096.453-.48 1.064-.72 1.832-.72.757 0 1.355.232 1.792.696.437.464.656 1.133.656 2.008v4.96h1.44v-5.168c0-1.216-.33-2.147-.992-2.792-.661-.645-1.525-.968-2.592-.968-.597 0-1.144.123-1.64.368s-.888.592-1.176 1.04v-1.248h-1.456v8.768h1.456zm12.576.144c1.045 0 1.92-.264 2.624-.792.704-.528 1.173-1.213 1.408-2.056h-1.568c-.17.49-.467.883-.888 1.176-.421.293-.947.44-1.576.44-.768 0-1.421-.243-1.96-.728-.539-.485-.835-1.16-.888-2.024h7.008c.032-.31.048-.603.048-.88 0-.8-.173-1.517-.52-2.152-.347-.635-.84-1.133-1.48-1.496s-1.376-.544-2.208-.544c-.853 0-1.608.184-2.264.552-.656.368-1.165.893-1.528 1.576s-.544 1.477-.544 2.384c0 .907.187 1.704.56 2.392.373.688.888 1.219 1.544 1.592s1.4.56 2.232.56zm2.704-5.168h-5.536c.075-.832.37-1.483.888-1.952.517-.47 1.144-.704 1.88-.704.512 0 .979.104 1.4.312.421.208.755.512 1 .912s.368.877.368 1.432zm6.528 5.168c.63 0 1.187-.11 1.672-.328.485-.219.861-.52 1.128-.904.267-.384.4-.816.4-1.296-.01-.533-.157-.965-.44-1.296-.283-.33-.621-.579-1.016-.744-.395-.165-.907-.333-1.536-.504-.501-.139-.893-.264-1.176-.376-.283-.112-.517-.261-.704-.448-.187-.187-.28-.424-.28-.712 0-.363.155-.656.464-.88.31-.224.725-.336 1.248-.336.565 0 1.016.139 1.352.416.336.277.52.645.552 1.104h1.456c-.043-.853-.363-1.525-.96-2.016-.597-.49-1.381-.736-2.352-.736-.63 0-1.19.11-1.68.328-.49.219-.87.515-1.136.888-.267.373-.4.784-.4 1.232 0 .565.147 1.021.44 1.368.293.347.645.608 1.056.784.41.176.941.35 1.592.52.715.181 1.243.365 1.584.552.341.187.512.472.512.856 0 .373-.16.683-.48.928-.32.245-.757.368-1.312.368-.597 0-1.08-.139-1.448-.416-.368-.277-.573-.635-.616-1.072h-1.504c.032.533.203 1.005.512 1.416.31.41.73.73 1.264.96.533.23 1.136.344 1.808.344zm8.352 0c.63 0 1.187-.11 1.672-.328.485-.219.861-.52 1.128-.904.267-.384.4-.816.4-1.296-.01-.533-.157-.965-.44-1.296-.283-.33-.621-.579-1.016-.744-.395-.165-.907-.333-1.536-.504-.501-.139-.893-.264-1.176-.376-.283-.112-.517-.261-.704-.448-.187-.187-.28-.424-.28-.712 0-.363.155-.656.464-.88.31-.224.725-.336 1.248-.336.565 0 1.016.139 1.352.416.336.277.52.645.552 1.104h1.456c-.043-.853-.363-1.525-.96-2.016-.597-.49-1.381-.736-2.352-.736-.63 0-1.19.11-1.68.328-.49.219-.87.515-1.136.888-.267.373-.4.784-.4 1.232 0 .565.147 1.021.44 1.368.293.347.645.608 1.056.784.41.176.941.35 1.592.52.715.181 1.243.365 1.584.552.341.187.512.472.512.856 0 .373-.16.683-.48.928-.32.245-.757.368-1.312.368-.597 0-1.08-.139-1.448-.416-.368-.277-.573-.635-.616-1.072h-1.504c.032.533.203 1.005.512 1.416.31.41.73.73 1.264.96.533.23 1.136.344 1.808.344z" transform="translate(-24 -2060) translate(24.68 2060.346)"/>
                <path fill="#33869F" d="M74.672 74.654V70.58h1.876c1.139 0 1.986-.268 2.541-.805.555-.537.833-1.211.833-2.023 0-.84-.287-1.526-.861-2.058-.574-.532-1.412-.798-2.513-.798h-3.15v9.758h1.274zm1.876-5.124h-1.876v-3.584h1.876c1.381 0 2.072.602 2.072 1.806 0 .57-.168 1.008-.504 1.316-.336.308-.859.462-1.568.462zm8.106 5.25c.663 0 1.244-.147 1.743-.441.5-.294.875-.665 1.127-1.113v1.428h1.288v-7.672h-1.288v1.4c-.243-.439-.611-.803-1.106-1.092-.495-.29-1.078-.434-1.75-.434-.681 0-1.3.163-1.855.49-.555.327-.992.786-1.309 1.379-.317.593-.476 1.281-.476 2.065 0 .775.159 1.465.476 2.072.317.607.751 1.078 1.302 1.414.55.336 1.167.504 1.848.504zm.266-1.12c-.476 0-.91-.114-1.302-.343-.392-.229-.705-.56-.938-.994-.233-.434-.35-.945-.35-1.533 0-.579.117-1.083.35-1.512.233-.43.546-.756.938-.98.392-.224.826-.336 1.302-.336.476 0 .912.114 1.309.343.397.229.712.558.945.987.233.43.35.933.35 1.512s-.117 1.085-.35 1.519c-.233.434-.548.765-.945.994-.397.229-.833.343-1.309.343zm8.764 1.12c.55 0 1.038-.096 1.463-.287.425-.191.754-.455.987-.791.233-.336.35-.714.35-1.134-.01-.467-.138-.845-.385-1.134-.247-.29-.544-.506-.889-.651-.345-.145-.793-.292-1.344-.441-.439-.121-.782-.231-1.029-.329-.247-.098-.453-.229-.616-.392-.163-.163-.245-.371-.245-.623 0-.317.135-.574.406-.77.27-.196.635-.294 1.092-.294.495 0 .889.121 1.183.364.294.243.455.565.483.966h1.274c-.037-.747-.317-1.335-.84-1.764-.523-.43-1.209-.644-2.058-.644-.55 0-1.04.096-1.47.287-.43.191-.76.45-.994.777-.233.327-.35.686-.35 1.078 0 .495.128.894.385 1.197.257.303.565.532.924.686.36.154.824.306 1.393.455.625.159 1.087.32 1.386.483.299.163.448.413.448.749 0 .327-.14.597-.42.812-.28.215-.663.322-1.148.322-.523 0-.945-.121-1.267-.364-.322-.243-.502-.555-.539-.938h-1.316c.028.467.177.88.448 1.239.27.36.64.64 1.106.84.467.2.994.301 1.582.301zm7.308 0c.55 0 1.038-.096 1.463-.287.425-.191.754-.455.987-.791.233-.336.35-.714.35-1.134-.01-.467-.138-.845-.385-1.134-.247-.29-.544-.506-.889-.651-.345-.145-.793-.292-1.344-.441-.439-.121-.782-.231-1.029-.329-.247-.098-.453-.229-.616-.392-.163-.163-.245-.371-.245-.623 0-.317.135-.574.406-.77.27-.196.635-.294 1.092-.294.495 0 .889.121 1.183.364.294.243.455.565.483.966h1.274c-.037-.747-.317-1.335-.84-1.764-.523-.43-1.209-.644-2.058-.644-.55 0-1.04.096-1.47.287-.43.191-.76.45-.994.777-.233.327-.35.686-.35 1.078 0 .495.128.894.385 1.197.257.303.565.532.924.686.36.154.824.306 1.393.455.625.159 1.087.32 1.386.483.299.163.448.413.448.749 0 .327-.14.597-.42.812-.28.215-.663.322-1.148.322-.523 0-.945-.121-1.267-.364-.322-.243-.502-.555-.539-.938h-1.316c.028.467.177.88.448 1.239.27.36.64.64 1.106.84.467.2.994.301 1.582.301zm5.25-9.044c.233 0 .432-.084.595-.252.163-.168.245-.373.245-.616s-.082-.448-.245-.616c-.163-.168-.362-.252-.595-.252-.243 0-.448.084-.616.252-.168.168-.252.373-.252.616s.084.448.252.616c.168.168.373.252.616.252zm.616 8.918v-7.672h-1.274v7.672h1.274zm5.516.126c.728 0 1.39-.163 1.988-.49.597-.327 1.071-.791 1.421-1.393.35-.602.525-1.3.525-2.093 0-.793-.17-1.489-.511-2.086-.34-.597-.805-1.057-1.393-1.379-.588-.322-1.246-.483-1.974-.483s-1.386.161-1.974.483c-.588.322-1.052.784-1.393 1.386-.34.602-.511 1.295-.511 2.079 0 .793.166 1.491.497 2.093.331.602.789 1.066 1.372 1.393.583.327 1.234.49 1.953.49zm0-1.12c-.457 0-.877-.105-1.26-.315-.383-.21-.688-.53-.917-.959-.229-.43-.343-.957-.343-1.582 0-.616.117-1.139.35-1.568.233-.43.544-.749.931-.959.387-.21.814-.315 1.281-.315.457 0 .882.105 1.274.315.392.21.71.53.952.959.243.43.364.952.364 1.568 0 .616-.124 1.139-.371 1.568-.247.43-.572.751-.973.966-.401.215-.83.322-1.288.322zm6.888.994v-4.242c0-.803.198-1.414.595-1.834.397-.42.931-.63 1.603-.63.663 0 1.185.203 1.568.609.383.406.574.992.574 1.757v4.34h1.26v-4.522c0-1.064-.29-1.878-.868-2.443-.579-.565-1.335-.847-2.268-.847-.523 0-1.001.107-1.435.322-.434.215-.777.518-1.029.91v-1.092h-1.274v7.672h1.274z" opacity=".553" transform="translate(-24 -2060) translate(24.68 2060.346)"/>
                <path fill="#6ED4F3" d="M204.794 93.738c1.064 0 1.993-.254 2.786-.763.793-.509 1.372-1.23 1.736-2.163h-1.526c-.27.588-.66 1.038-1.169 1.351-.509.313-1.118.469-1.827.469-.681 0-1.293-.159-1.834-.476-.541-.317-.966-.768-1.274-1.351-.308-.583-.462-1.262-.462-2.037 0-.784.154-1.468.462-2.051.308-.583.733-1.034 1.274-1.351.541-.317 1.153-.476 1.834-.476.71 0 1.318.159 1.827.476.509.317.898.77 1.169 1.358h1.526c-.364-.943-.943-1.67-1.736-2.184-.793-.513-1.722-.77-2.786-.77-.905 0-1.729.215-2.471.644-.742.43-1.328 1.024-1.757 1.785-.43.76-.644 1.617-.644 2.569s.215 1.806.644 2.562c.43.756 1.015 1.346 1.757 1.771.742.425 1.566.637 2.471.637zm9.758.042c.728 0 1.39-.163 1.988-.49.597-.327 1.071-.791 1.421-1.393.35-.602.525-1.3.525-2.093 0-.793-.17-1.489-.511-2.086-.34-.597-.805-1.057-1.393-1.379-.588-.322-1.246-.483-1.974-.483s-1.386.161-1.974.483c-.588.322-1.052.784-1.393 1.386-.34.602-.511 1.295-.511 2.079 0 .793.166 1.491.497 2.093.331.602.789 1.066 1.372 1.393.583.327 1.234.49 1.953.49zm0-1.12c-.457 0-.877-.105-1.26-.315-.383-.21-.688-.53-.917-.959-.229-.43-.343-.957-.343-1.582 0-.616.117-1.139.35-1.568.233-.43.544-.749.931-.959.387-.21.814-.315 1.281-.315.457 0 .882.105 1.274.315.392.21.71.53.952.959.243.43.364.952.364 1.568 0 .616-.124 1.139-.371 1.568-.247.43-.572.751-.973.966-.401.215-.83.322-1.288.322zm6.888.994v-4.242c0-.803.198-1.414.595-1.834.397-.42.931-.63 1.603-.63.663 0 1.185.203 1.568.609.383.406.574.992.574 1.757v4.34h1.26v-4.522c0-1.064-.29-1.878-.868-2.443-.579-.565-1.335-.847-2.268-.847-.523 0-1.001.107-1.435.322-.434.215-.777.518-1.029.91v-1.092h-1.274v7.672h1.274zm11.242 0v-1.078h-.938c-.392 0-.667-.077-.826-.231-.159-.154-.238-.418-.238-.791v-4.522h2.002v-1.05h-2.002V84.05h-1.274v1.932h-.994v1.05h.994v4.522c0 .747.177 1.283.532 1.61.355.327.887.49 1.596.49h1.148zm2.198-8.918c.233 0 .432-.084.595-.252.163-.168.245-.373.245-.616s-.082-.448-.245-.616c-.163-.168-.362-.252-.595-.252-.243 0-.448.084-.616.252-.168.168-.252.373-.252.616s.084.448.252.616c.168.168.373.252.616.252zm.616 8.918v-7.672h-1.274v7.672h1.274zm3.444 0v-4.242c0-.803.198-1.414.595-1.834.397-.42.931-.63 1.603-.63.663 0 1.185.203 1.568.609.383.406.574.992.574 1.757v4.34h1.26v-4.522c0-1.064-.29-1.878-.868-2.443-.579-.565-1.335-.847-2.268-.847-.523 0-1.001.107-1.435.322-.434.215-.777.518-1.029.91v-1.092h-1.274v7.672h1.274zm10.766.112c.523 0 1.001-.11 1.435-.329.434-.22.772-.525 1.015-.917v1.134h1.274v-7.672h-1.274v4.214c0 .803-.196 1.414-.588 1.834-.392.42-.929.63-1.61.63-.663 0-1.185-.203-1.568-.609-.383-.406-.574-.987-.574-1.743v-4.326h-1.26v4.494c0 .71.138 1.311.413 1.806.275.495.651.866 1.127 1.113s1.013.371 1.61.371zm9.226.014c.728 0 1.39-.163 1.988-.49.597-.327 1.071-.791 1.421-1.393.35-.602.525-1.3.525-2.093 0-.793-.17-1.489-.511-2.086-.34-.597-.805-1.057-1.393-1.379-.588-.322-1.246-.483-1.974-.483s-1.386.161-1.974.483c-.588.322-1.052.784-1.393 1.386-.34.602-.511 1.295-.511 2.079 0 .793.166 1.491.497 2.093.331.602.789 1.066 1.372 1.393.583.327 1.234.49 1.953.49zm0-1.12c-.457 0-.877-.105-1.26-.315-.383-.21-.688-.53-.917-.959-.229-.43-.343-.957-.343-1.582 0-.616.117-1.139.35-1.568.233-.43.544-.749.931-.959.387-.21.814-.315 1.281-.315.457 0 .882.105 1.274.315.392.21.71.53.952.959.243.43.364.952.364 1.568 0 .616-.124 1.139-.371 1.568-.247.43-.572.751-.973.966-.401.215-.83.322-1.288.322zm8.694 1.106c.523 0 1.001-.11 1.435-.329.434-.22.772-.525 1.015-.917v1.134h1.274v-7.672h-1.274v4.214c0 .803-.196 1.414-.588 1.834-.392.42-.929.63-1.61.63-.663 0-1.185-.203-1.568-.609-.383-.406-.574-.987-.574-1.743v-4.326h-1.26v4.494c0 .71.138 1.311.413 1.806.275.495.651.866 1.127 1.113s1.013.371 1.61.371zm8.596.014c.55 0 1.038-.096 1.463-.287.425-.191.754-.455.987-.791.233-.336.35-.714.35-1.134-.01-.467-.138-.845-.385-1.134-.247-.29-.544-.506-.889-.651-.345-.145-.793-.292-1.344-.441-.439-.121-.782-.231-1.029-.329-.247-.098-.453-.229-.616-.392-.163-.163-.245-.371-.245-.623 0-.317.135-.574.406-.77.27-.196.635-.294 1.092-.294.495 0 .889.121 1.183.364.294.243.455.565.483.966h1.274c-.037-.747-.317-1.335-.84-1.764-.523-.43-1.209-.644-2.058-.644-.55 0-1.04.096-1.47.287-.43.191-.76.45-.994.777-.233.327-.35.686-.35 1.078 0 .495.128.894.385 1.197.257.303.565.532.924.686.36.154.824.306 1.393.455.625.159 1.087.32 1.386.483.299.163.448.413.448.749 0 .327-.14.597-.42.812-.28.215-.663.322-1.148.322-.523 0-.945-.121-1.267-.364-.322-.243-.502-.555-.539-.938h-1.316c.028.467.177.88.448 1.239.27.36.64.64 1.106.84.467.2.994.301 1.582.301zm-74.55 15.874v-9.758h-1.274v9.758h1.274zm3.444 0v-4.228c0-.803.196-1.416.588-1.841.392-.425.92-.637 1.582-.637.644 0 1.155.203 1.533.609.378.406.567.992.567 1.757v4.34h1.26v-4.228c0-.803.196-1.416.588-1.841.392-.425.92-.637 1.582-.637.644 0 1.155.203 1.533.609.378.406.567.992.567 1.757v4.34h1.26v-4.522c0-.71-.135-1.311-.406-1.806-.27-.495-.64-.866-1.106-1.113-.467-.247-.999-.371-1.596-.371-.607 0-1.157.15-1.652.448-.495.299-.85.719-1.064 1.26-.243-.56-.611-.985-1.106-1.274-.495-.29-1.064-.434-1.708-.434-.513 0-.982.107-1.407.322-.425.215-.763.523-1.015.924v-1.106h-1.274v7.672h1.274zm14.42 3.64v-5.054c.261.439.642.805 1.141 1.099.5.294 1.076.441 1.729.441.681 0 1.3-.168 1.855-.504.555-.336.992-.807 1.309-1.414.317-.607.476-1.297.476-2.072 0-.784-.159-1.472-.476-2.065-.317-.593-.754-1.052-1.309-1.379-.555-.327-1.174-.49-1.855-.49-.663 0-1.244.147-1.743.441-.5.294-.875.66-1.127 1.099v-1.414h-1.274v11.312h1.274zm2.604-4.634c-.467 0-.898-.114-1.295-.343-.397-.229-.714-.56-.952-.994-.238-.434-.357-.94-.357-1.519 0-.57.119-1.071.357-1.505.238-.434.555-.765.952-.994.397-.229.828-.343 1.295-.343.476 0 .912.112 1.309.336.397.224.712.55.945.98.233.43.35.933.35 1.512 0 .588-.117 1.099-.35 1.533-.233.434-.548.765-.945.994-.397.229-.833.343-1.309.343zm6.86.994v-4.172c0-1.55.714-2.324 2.142-2.324h.336v-1.316c-.597 0-1.104.121-1.519.364-.415.243-.735.583-.959 1.022v-1.246h-1.274v7.672H229zm7.294.126c.728 0 1.39-.163 1.988-.49.597-.327 1.071-.791 1.421-1.393.35-.602.525-1.3.525-2.093 0-.793-.17-1.489-.511-2.086-.34-.597-.805-1.057-1.393-1.379-.588-.322-1.246-.483-1.974-.483s-1.386.161-1.974.483c-.588.322-1.052.784-1.393 1.386-.34.602-.511 1.295-.511 2.079 0 .793.166 1.491.497 2.093.331.602.789 1.066 1.372 1.393.583.327 1.234.49 1.953.49zm0-1.12c-.457 0-.877-.105-1.26-.315-.383-.21-.688-.53-.917-.959-.229-.43-.343-.957-.343-1.582 0-.616.117-1.139.35-1.568.233-.43.544-.749.931-.959.387-.21.814-.315 1.281-.315.457 0 .882.105 1.274.315.392.21.71.53.952.959.243.43.364.952.364 1.568 0 .616-.124 1.139-.371 1.568-.247.43-.572.751-.973.966-.401.215-.83.322-1.288.322zm9.198.994l3.01-7.672h-1.358l-2.38 6.496-2.394-6.496h-1.372l3.01 7.672h1.484zm7.588.126c.915 0 1.68-.231 2.296-.693.616-.462 1.027-1.062 1.232-1.799h-1.372c-.15.43-.408.772-.777 1.029-.369.257-.828.385-1.379.385-.672 0-1.244-.212-1.715-.637-.471-.425-.73-1.015-.777-1.771h6.132c.028-.27.042-.527.042-.77 0-.7-.152-1.328-.455-1.883-.303-.555-.735-.992-1.295-1.309-.56-.317-1.204-.476-1.932-.476-.747 0-1.407.161-1.981.483-.574.322-1.02.782-1.337 1.379-.317.597-.476 1.293-.476 2.086 0 .793.163 1.491.49 2.093.327.602.777 1.066 1.351 1.393.574.327 1.225.49 1.953.49zm2.366-4.522h-4.844c.065-.728.324-1.297.777-1.708.453-.41 1.001-.616 1.645-.616.448 0 .856.091 1.225.273.369.182.66.448.875.798.215.35.322.768.322 1.253zm4.27 4.396v-4.228c0-.803.196-1.416.588-1.841.392-.425.92-.637 1.582-.637.644 0 1.155.203 1.533.609.378.406.567.992.567 1.757v4.34h1.26v-4.228c0-.803.196-1.416.588-1.841.392-.425.92-.637 1.582-.637.644 0 1.155.203 1.533.609.378.406.567.992.567 1.757v4.34h1.26v-4.522c0-.71-.135-1.311-.406-1.806-.27-.495-.64-.866-1.106-1.113-.467-.247-.999-.371-1.596-.371-.607 0-1.157.15-1.652.448-.495.299-.85.719-1.064 1.26-.243-.56-.611-.985-1.106-1.274-.495-.29-1.064-.434-1.708-.434-.513 0-.982.107-1.407.322-.425.215-.763.523-1.015.924v-1.106h-1.274v7.672h1.274zm16.464.126c.915 0 1.68-.231 2.296-.693.616-.462 1.027-1.062 1.232-1.799h-1.372c-.15.43-.408.772-.777 1.029-.369.257-.828.385-1.379.385-.672 0-1.244-.212-1.715-.637-.471-.425-.73-1.015-.777-1.771h6.132c.028-.27.042-.527.042-.77 0-.7-.152-1.328-.455-1.883-.303-.555-.735-.992-1.295-1.309-.56-.317-1.204-.476-1.932-.476-.747 0-1.407.161-1.981.483-.574.322-1.02.782-1.337 1.379-.317.597-.476 1.293-.476 2.086 0 .793.163 1.491.49 2.093.327.602.777 1.066 1.351 1.393.574.327 1.225.49 1.953.49zm2.366-4.522h-4.844c.065-.728.324-1.297.777-1.708.453-.41 1.001-.616 1.645-.616.448 0 .856.091 1.225.273.369.182.66.448.875.798.215.35.322.768.322 1.253zm4.27 4.396v-4.242c0-.803.198-1.414.595-1.834.397-.42.931-.63 1.603-.63.663 0 1.185.203 1.568.609.383.406.574.992.574 1.757v4.34h1.26v-4.522c0-1.064-.29-1.878-.868-2.443-.579-.565-1.335-.847-2.268-.847-.523 0-1.001.107-1.435.322-.434.215-.777.518-1.029.91v-1.092h-1.274v7.672h1.274zm11.242 0v-1.078h-.938c-.392 0-.667-.077-.826-.231-.159-.154-.238-.418-.238-.791v-4.522h2.002v-1.05h-2.002v-1.932h-1.274v1.932h-.994v1.05h.994v4.522c0 .747.177 1.283.532 1.61.355.327.887.49 1.596.49h1.148z" transform="translate(-24 -2060) translate(24.68 2060.346)"/>
                <path fill="#599CB1" d="M90.576 128.75c1.216 0 2.277-.29 3.184-.872.907-.581 1.568-1.405 1.984-2.472H94c-.31.672-.755 1.187-1.336 1.544-.581.357-1.277.536-2.088.536-.779 0-1.477-.181-2.096-.544-.619-.363-1.104-.877-1.456-1.544-.352-.667-.528-1.443-.528-2.328 0-.896.176-1.677.528-2.344.352-.667.837-1.181 1.456-1.544s1.317-.544 2.096-.544c.81 0 1.507.181 2.088.544.581.363 1.027.88 1.336 1.552h1.744c-.416-1.077-1.077-1.91-1.984-2.496-.907-.587-1.968-.88-3.184-.88-1.035 0-1.976.245-2.824.736-.848.49-1.517 1.17-2.008 2.04-.49.87-.736 1.848-.736 2.936 0 1.088.245 2.064.736 2.928.49.864 1.16 1.539 2.008 2.024.848.485 1.79.728 2.824.728zm11.152.048c.832 0 1.59-.187 2.272-.56.683-.373 1.224-.904 1.624-1.592.4-.688.6-1.485.6-2.392 0-.907-.195-1.701-.584-2.384-.39-.683-.92-1.208-1.592-1.576-.672-.368-1.424-.552-2.256-.552-.832 0-1.584.184-2.256.552-.672.368-1.203.896-1.592 1.584-.39.688-.584 1.48-.584 2.376 0 .907.19 1.704.568 2.392.379.688.901 1.219 1.568 1.592s1.41.56 2.232.56zm0-1.28c-.523 0-1.003-.12-1.44-.36-.437-.24-.787-.605-1.048-1.096-.261-.49-.392-1.093-.392-1.808 0-.704.133-1.301.4-1.792.267-.49.621-.856 1.064-1.096.443-.24.93-.36 1.464-.36.523 0 1.008.12 1.456.36.448.24.81.605 1.088 1.096.277.49.416 1.088.416 1.792s-.141 1.301-.424 1.792c-.283.49-.653.859-1.112 1.104-.459.245-.95.368-1.472.368zm7.872 1.136v-11.84h-1.456v11.84h1.456zm3.936 0v-11.84h-1.456v11.84h1.456zm6.08.144c.757 0 1.421-.168 1.992-.504.57-.336 1-.76 1.288-1.272v1.632h1.472v-8.768h-1.472v1.6c-.277-.501-.699-.917-1.264-1.248-.565-.33-1.232-.496-2-.496-.779 0-1.485.187-2.12.56-.635.373-1.133.899-1.496 1.576s-.544 1.464-.544 2.36c0 .885.181 1.675.544 2.368.363.693.859 1.232 1.488 1.616.63.384 1.333.576 2.112.576zm.304-1.28c-.544 0-1.04-.13-1.488-.392-.448-.261-.805-.64-1.072-1.136-.267-.496-.4-1.08-.4-1.752 0-.661.133-1.237.4-1.728.267-.49.624-.864 1.072-1.12.448-.256.944-.384 1.488-.384s1.043.13 1.496.392c.453.261.813.637 1.08 1.128.267.49.4 1.067.4 1.728s-.133 1.24-.4 1.736-.627.875-1.08 1.136c-.453.261-.952.392-1.496.392zm11.648 1.28c.779 0 1.485-.192 2.12-.576.635-.384 1.133-.923 1.496-1.616.363-.693.544-1.483.544-2.368 0-.896-.181-1.683-.544-2.36-.363-.677-.859-1.203-1.488-1.576-.63-.373-1.339-.56-2.128-.56-.736 0-1.392.165-1.968.496-.576.33-1.013.757-1.312 1.28v-4.704h-1.456v11.84h1.456v-1.616c.288.512.717.933 1.288 1.264.57.33 1.235.496 1.992.496zm-.304-1.28c-.533 0-1.027-.13-1.48-.392-.453-.261-.816-.64-1.088-1.136-.272-.496-.408-1.075-.408-1.736 0-.65.136-1.224.408-1.72.272-.496.635-.875 1.088-1.136.453-.261.947-.392 1.48-.392.544 0 1.043.128 1.496.384.453.256.813.63 1.08 1.12.267.49.4 1.067.4 1.728 0 .672-.133 1.256-.4 1.752s-.627.875-1.08 1.136c-.453.261-.952.392-1.496.392zm10.208 1.28c.832 0 1.59-.187 2.272-.56.683-.373 1.224-.904 1.624-1.592.4-.688.6-1.485.6-2.392 0-.907-.195-1.701-.584-2.384-.39-.683-.92-1.208-1.592-1.576-.672-.368-1.424-.552-2.256-.552-.832 0-1.584.184-2.256.552-.672.368-1.203.896-1.592 1.584-.39.688-.584 1.48-.584 2.376 0 .907.19 1.704.568 2.392.379.688.901 1.219 1.568 1.592s1.41.56 2.232.56zm0-1.28c-.523 0-1.003-.12-1.44-.36-.437-.24-.787-.605-1.048-1.096-.261-.49-.392-1.093-.392-1.808 0-.704.133-1.301.4-1.792.267-.49.621-.856 1.064-1.096.443-.24.93-.36 1.464-.36.523 0 1.008.12 1.456.36.448.24.81.605 1.088 1.096.277.49.416 1.088.416 1.792s-.141 1.301-.424 1.792c-.283.49-.653.859-1.112 1.104-.459.245-.95.368-1.472.368zm7.872 1.136v-4.768c0-1.77.816-2.656 2.448-2.656h.384v-1.504c-.683 0-1.261.139-1.736.416-.475.277-.84.667-1.096 1.168v-1.424h-1.456v8.768h1.456zm8.112.144c.757 0 1.421-.168 1.992-.504.57-.336 1-.76 1.288-1.272v1.632h1.472v-8.768h-1.472v1.6c-.277-.501-.699-.917-1.264-1.248-.565-.33-1.232-.496-2-.496-.779 0-1.485.187-2.12.56-.635.373-1.133.899-1.496 1.576s-.544 1.464-.544 2.36c0 .885.181 1.675.544 2.368.363.693.859 1.232 1.488 1.616.63.384 1.333.576 2.112.576zm.304-1.28c-.544 0-1.04-.13-1.488-.392-.448-.261-.805-.64-1.072-1.136-.267-.496-.4-1.08-.4-1.752 0-.661.133-1.237.4-1.728.267-.49.624-.864 1.072-1.12.448-.256.944-.384 1.488-.384s1.043.13 1.496.392c.453.261.813.637 1.08 1.128.267.49.4 1.067.4 1.728s-.133 1.24-.4 1.736-.627.875-1.08 1.136c-.453.261-.952.392-1.496.392zm10.976 1.136v-1.232h-1.072c-.448 0-.763-.088-.944-.264-.181-.176-.272-.477-.272-.904v-5.168h2.288v-1.2h-2.288v-2.208h-1.456v2.208h-1.136v1.2h1.136v5.168c0 .853.203 1.467.608 1.84.405.373 1.013.56 1.824.56h1.312zm2.512-10.192c.267 0 .493-.096.68-.288.187-.192.28-.427.28-.704 0-.277-.093-.512-.28-.704-.187-.192-.413-.288-.68-.288-.277 0-.512.096-.704.288-.192.192-.288.427-.288.704 0 .277.096.512.288.704.192.192.427.288.704.288zm.704 10.192v-8.768h-1.456v8.768h1.456zm6.304.144c.832 0 1.59-.187 2.272-.56.683-.373 1.224-.904 1.624-1.592.4-.688.6-1.485.6-2.392 0-.907-.195-1.701-.584-2.384-.39-.683-.92-1.208-1.592-1.576-.672-.368-1.424-.552-2.256-.552-.832 0-1.584.184-2.256.552-.672.368-1.203.896-1.592 1.584-.39.688-.584 1.48-.584 2.376 0 .907.19 1.704.568 2.392.379.688.901 1.219 1.568 1.592s1.41.56 2.232.56zm0-1.28c-.523 0-1.003-.12-1.44-.36-.437-.24-.787-.605-1.048-1.096-.261-.49-.392-1.093-.392-1.808 0-.704.133-1.301.4-1.792.267-.49.621-.856 1.064-1.096.443-.24.93-.36 1.464-.36.523 0 1.008.12 1.456.36.448.24.81.605 1.088 1.096.277.49.416 1.088.416 1.792s-.141 1.301-.424 1.792c-.283.49-.653.859-1.112 1.104-.459.245-.95.368-1.472.368zm7.872 1.136v-4.848c0-.917.227-1.616.68-2.096.453-.48 1.064-.72 1.832-.72.757 0 1.355.232 1.792.696.437.464.656 1.133.656 2.008v4.96h1.44v-5.168c0-1.216-.33-2.147-.992-2.792-.661-.645-1.525-.968-2.592-.968-.597 0-1.144.123-1.64.368s-.888.592-1.176 1.04v-1.248h-1.456v8.768h1.456z" transform="translate(-24 -2060) translate(24.68 2060.346)"/>
                <path fill="#1D7691" d="M5.36 103.654v-20.91H2.63v20.91h2.73zm7.38 0v-9.09c0-1.72.425-3.03 1.275-3.93.85-.9 1.995-1.35 3.435-1.35 1.42 0 2.54.435 3.36 1.305.82.87 1.23 2.125 1.23 3.765v9.3h2.7v-9.69c0-2.28-.62-4.025-1.86-5.235-1.24-1.21-2.86-1.815-4.86-1.815-1.12 0-2.145.23-3.075.69-.93.46-1.665 1.11-2.205 1.95v-2.34h-2.73v16.44h2.73zm19.2 0v-9.09c0-1.72.425-3.03 1.275-3.93.85-.9 1.995-1.35 3.435-1.35 1.42 0 2.54.435 3.36 1.305.82.87 1.23 2.125 1.23 3.765v9.3h2.7v-9.69c0-2.28-.62-4.025-1.86-5.235-1.24-1.21-2.86-1.815-4.86-1.815-1.12 0-2.145.23-3.075.69-.93.46-1.665 1.11-2.205 1.95v-2.34h-2.73v16.44h2.73zm23.64.27c1.56 0 2.98-.35 4.26-1.05 1.28-.7 2.295-1.695 3.045-2.985.75-1.29 1.125-2.785 1.125-4.485 0-1.7-.365-3.19-1.095-4.47-.73-1.28-1.725-2.265-2.985-2.955-1.26-.69-2.67-1.035-4.23-1.035-1.56 0-2.97.345-4.23 1.035-1.26.69-2.255 1.68-2.985 2.97-.73 1.29-1.095 2.775-1.095 4.455 0 1.7.355 3.195 1.065 4.485.71 1.29 1.69 2.285 2.94 2.985 1.25.7 2.645 1.05 4.185 1.05zm0-2.4c-.98 0-1.88-.225-2.7-.675-.82-.45-1.475-1.135-1.965-2.055-.49-.92-.735-2.05-.735-3.39 0-1.32.25-2.44.75-3.36.5-.92 1.165-1.605 1.995-2.055.83-.45 1.745-.675 2.745-.675.98 0 1.89.225 2.73.675.84.45 1.52 1.135 2.04 2.055.52.92.78 2.04.78 3.36 0 1.32-.265 2.44-.795 3.36-.53.92-1.225 1.61-2.085 2.07-.86.46-1.78.69-2.76.69zm19.71 2.13l6.45-16.44h-2.91l-5.1 13.92-5.13-13.92h-2.94l6.45 16.44h3.18zm15.9.27c1.42 0 2.665-.315 3.735-.945 1.07-.63 1.875-1.425 2.415-2.385v3.06h2.76v-16.44h-2.76v3c-.52-.94-1.31-1.72-2.37-2.34-1.06-.62-2.31-.93-3.75-.93-1.46 0-2.785.35-3.975 1.05-1.19.7-2.125 1.685-2.805 2.955-.68 1.27-1.02 2.745-1.02 4.425 0 1.66.34 3.14 1.02 4.44.68 1.3 1.61 2.31 2.79 3.03 1.18.72 2.5 1.08 3.96 1.08zm.57-2.4c-1.02 0-1.95-.245-2.79-.735-.84-.49-1.51-1.2-2.01-2.13-.5-.93-.75-2.025-.75-3.285 0-1.24.25-2.32.75-3.24.5-.92 1.17-1.62 2.01-2.1.84-.48 1.77-.72 2.79-.72s1.955.245 2.805.735c.85.49 1.525 1.195 2.025 2.115.5.92.75 2 .75 3.24 0 1.24-.25 2.325-.75 3.255-.5.93-1.175 1.64-2.025 2.13-.85.49-1.785.735-2.805.735zm20.58 2.13v-2.31h-2.01c-.84 0-1.43-.165-1.77-.495-.34-.33-.51-.895-.51-1.695v-9.69h4.29v-2.25h-4.29v-4.14h-2.73v4.14h-2.13v2.25h2.13v9.69c0 1.6.38 2.75 1.14 3.45.76.7 1.9 1.05 3.42 1.05h2.46zm4.71-19.11c.5 0 .925-.18 1.275-.54.35-.36.525-.8.525-1.32s-.175-.96-.525-1.32c-.35-.36-.775-.54-1.275-.54-.52 0-.96.18-1.32.54-.36.36-.54.8-.54 1.32s.18.96.54 1.32c.36.36.8.54 1.32.54zm1.32 19.11v-16.44h-2.73v16.44h2.73zm11.82.27c1.56 0 2.98-.35 4.26-1.05 1.28-.7 2.295-1.695 3.045-2.985.75-1.29 1.125-2.785 1.125-4.485 0-1.7-.365-3.19-1.095-4.47-.73-1.28-1.725-2.265-2.985-2.955-1.26-.69-2.67-1.035-4.23-1.035-1.56 0-2.97.345-4.23 1.035-1.26.69-2.255 1.68-2.985 2.97-.73 1.29-1.095 2.775-1.095 4.455 0 1.7.355 3.195 1.065 4.485.71 1.29 1.69 2.285 2.94 2.985 1.25.7 2.645 1.05 4.185 1.05zm0-2.4c-.98 0-1.88-.225-2.7-.675-.82-.45-1.475-1.135-1.965-2.055-.49-.92-.735-2.05-.735-3.39 0-1.32.25-2.44.75-3.36.5-.92 1.165-1.605 1.995-2.055.83-.45 1.745-.675 2.745-.675.98 0 1.89.225 2.73.675.84.45 1.52 1.135 2.04 2.055.52.92.78 2.04.78 3.36 0 1.32-.265 2.44-.795 3.36-.53.92-1.225 1.61-2.085 2.07-.86.46-1.78.69-2.76.69zm14.76 2.13v-9.09c0-1.72.425-3.03 1.275-3.93.85-.9 1.995-1.35 3.435-1.35 1.42 0 2.54.435 3.36 1.305.82.87 1.23 2.125 1.23 3.765v9.3h2.7v-9.69c0-2.28-.62-4.025-1.86-5.235-1.24-1.21-2.86-1.815-4.86-1.815-1.12 0-2.145.23-3.075.69-.93.46-1.665 1.11-2.205 1.95v-2.34h-2.73v16.44h2.73zM210.032 41.654V30.91h12.07v10.744h3.094V17.956h-3.094V28.36h-12.07V17.956h-3.094v23.698h3.094zm28.492.306c2.221 0 4.08-.561 5.576-1.683 1.496-1.122 2.493-2.578 2.992-4.369h-3.332c-.363 1.043-.992 1.876-1.887 2.499-.895.623-2.012.935-3.349.935-1.632 0-3.02-.516-4.165-1.547s-1.774-2.465-1.887-4.301h14.892c.068-.657.102-1.28.102-1.87 0-1.7-.368-3.224-1.105-4.573-.737-1.349-1.785-2.408-3.145-3.179-1.36-.77-2.924-1.156-4.692-1.156-1.813 0-3.417.391-4.811 1.173-1.394.782-2.476 1.898-3.247 3.349-.77 1.45-1.156 3.14-1.156 5.066 0 1.927.397 3.621 1.19 5.083.793 1.462 1.887 2.59 3.281 3.383 1.394.793 2.975 1.19 4.743 1.19zm5.746-10.982h-11.764c.159-1.768.788-3.15 1.887-4.148 1.1-.997 2.431-1.496 3.995-1.496 1.088 0 2.08.221 2.975.663.895.442 1.604 1.088 2.125 1.938.521.85.782 1.864.782 3.043zm14.926 10.982c1.61 0 3.02-.357 4.233-1.071 1.213-.714 2.125-1.615 2.737-2.703v3.468h3.128V23.022h-3.128v3.4c-.59-1.065-1.485-1.95-2.686-2.652-1.201-.703-2.618-1.054-4.25-1.054-1.655 0-3.156.397-4.505 1.19-1.349.793-2.408 1.91-3.179 3.349-.77 1.44-1.156 3.111-1.156 5.015 0 1.881.385 3.559 1.156 5.032.77 1.473 1.825 2.618 3.162 3.434 1.337.816 2.833 1.224 4.488 1.224zm.646-2.72c-1.156 0-2.21-.278-3.162-.833-.952-.555-1.711-1.36-2.278-2.414s-.85-2.295-.85-3.723c0-1.405.283-2.63.85-3.672.567-1.043 1.326-1.836 2.278-2.38.952-.544 2.006-.816 3.162-.816 1.156 0 2.216.278 3.179.833.963.555 1.728 1.354 2.295 2.397.567 1.043.85 2.267.85 3.672 0 1.405-.283 2.635-.85 3.689-.567 1.054-1.332 1.859-2.295 2.414-.963.555-2.023.833-3.179.833zm17.782 2.414v-25.16h-3.094v25.16h3.094zm13.906 0v-2.618h-2.278c-.952 0-1.62-.187-2.006-.561-.385-.374-.578-1.014-.578-1.921V25.572h4.862v-2.55h-4.862V18.33h-3.094v4.692h-2.414v2.55h2.414v10.982c0 1.813.43 3.117 1.292 3.91.861.793 2.153 1.19 3.876 1.19h2.788zm6.834 0V31.352c0-1.95.482-3.434 1.445-4.454.963-1.02 2.261-1.53 3.893-1.53 1.61 0 2.879.493 3.808 1.479.93.986 1.394 2.408 1.394 4.267v10.54h3.06V30.672c0-1.723-.323-3.185-.969-4.386-.646-1.201-1.536-2.102-2.669-2.703-1.133-.6-2.403-.901-3.808-.901-1.337 0-2.544.26-3.621.782-1.077.521-1.921 1.258-2.533 2.21v-9.18h-3.094v25.16h3.094z" transform="translate(-24 -2060) translate(24.68 2060.346)"/>
                <path fill="#2B7991" d="M6.436 10.654c1.064 0 1.986-.194 2.765-.581.78-.387 1.377-.947 1.792-1.68.415-.733.623-1.598.623-2.597 0-.999-.208-1.867-.623-2.604-.415-.737-1.013-1.304-1.792-1.701C8.421 1.094 7.5.896 6.436.896H3.398v9.758h3.038zm0-1.05H4.672V1.932h1.764c1.25 0 2.21.34 2.877 1.022.667.681 1.001 1.629 1.001 2.842 0 1.204-.331 2.14-.994 2.807-.663.667-1.624 1.001-2.884 1.001zm7.518-7.868c.233 0 .432-.084.595-.252.163-.168.245-.373.245-.616s-.082-.448-.245-.616C14.386.084 14.187 0 13.954 0c-.243 0-.448.084-.616.252-.168.168-.252.373-.252.616s.084.448.252.616c.168.168.373.252.616.252zm.616 8.918V2.982h-1.274v7.672h1.274zm5.754 0l3.01-7.672h-1.358l-2.38 6.496-2.394-6.496H15.83l3.01 7.672h1.484zm7.588.126c.915 0 1.68-.231 2.296-.693.616-.462 1.027-1.062 1.232-1.799h-1.372c-.15.43-.408.772-.777 1.029-.369.257-.828.385-1.379.385-.672 0-1.244-.212-1.715-.637-.471-.425-.73-1.015-.777-1.771h6.132c.028-.27.042-.527.042-.77 0-.7-.152-1.328-.455-1.883-.303-.555-.735-.992-1.295-1.309-.56-.317-1.204-.476-1.932-.476-.747 0-1.407.161-1.981.483-.574.322-1.02.782-1.337 1.379-.317.597-.476 1.293-.476 2.086 0 .793.163 1.491.49 2.093.327.602.777 1.066 1.351 1.393.574.327 1.225.49 1.953.49zm2.366-4.522h-4.844c.065-.728.324-1.297.777-1.708.453-.41 1.001-.616 1.645-.616.448 0 .856.091 1.225.273.369.182.66.448.875.798.215.35.322.768.322 1.253zm4.27 4.396V6.482c0-1.55.714-2.324 2.142-2.324h.336V2.842c-.597 0-1.104.121-1.519.364-.415.243-.735.583-.959 1.022V2.982h-1.274v7.672h1.274zm6.664.126c.55 0 1.038-.096 1.463-.287.425-.191.754-.455.987-.791.233-.336.35-.714.35-1.134-.01-.467-.138-.845-.385-1.134-.247-.29-.544-.506-.889-.651-.345-.145-.793-.292-1.344-.441-.439-.121-.782-.231-1.029-.329-.247-.098-.453-.229-.616-.392-.163-.163-.245-.371-.245-.623 0-.317.135-.574.406-.77.27-.196.635-.294 1.092-.294.495 0 .889.121 1.183.364.294.243.455.565.483.966h1.274c-.037-.747-.317-1.335-.84-1.764-.523-.43-1.209-.644-2.058-.644-.55 0-1.04.096-1.47.287-.43.191-.76.45-.994.777-.233.327-.35.686-.35 1.078 0 .495.128.894.385 1.197.257.303.565.532.924.686.36.154.824.306 1.393.455.625.159 1.087.32 1.386.483.299.163.448.413.448.749 0 .327-.14.597-.42.812-.28.215-.663.322-1.148.322-.523 0-.945-.121-1.267-.364-.322-.243-.502-.555-.539-.938h-1.316c.028.467.177.88.448 1.239.27.36.64.64 1.106.84.467.2.994.301 1.582.301zm5.25-9.044c.233 0 .432-.084.595-.252.163-.168.245-.373.245-.616S47.22.42 47.057.252C46.894.084 46.695 0 46.462 0c-.243 0-.448.084-.616.252-.168.168-.252.373-.252.616s.084.448.252.616c.168.168.373.252.616.252zm.616 8.918V2.982h-1.274v7.672h1.274zm5.726 0V9.576h-.938c-.392 0-.667-.077-.826-.231-.159-.154-.238-.418-.238-.791V4.032h2.002v-1.05h-2.002V1.05h-1.274v1.932h-.994v1.05h.994v4.522c0 .747.177 1.283.532 1.61.355.327.887.49 1.596.49h1.148zm3.528 3.612l4.62-11.284h-1.316l-2.38 6.216-2.408-6.216h-1.414l3.094 7.588-1.512 3.696h1.316zM6.254 26.822c.681 0 1.293-.119 1.834-.357.541-.238 1.05-.604 1.526-1.099l1.274 1.288h1.666l-2.198-2.198c.215-.308.401-.602.56-.882l1.148-1.988h-1.372l-.952 1.596-.252.392-2.912-2.926c-.364-.383-.623-.705-.777-.966-.154-.261-.231-.532-.231-.812 0-.327.114-.595.343-.805.229-.21.53-.315.903-.315.355 0 .644.11.868.329.224.22.331.52.322.903h1.274c.019-.43-.065-.819-.252-1.169-.187-.35-.467-.623-.84-.819-.373-.196-.812-.294-1.316-.294-.513 0-.966.093-1.358.28-.392.187-.693.446-.903.777-.21.331-.315.702-.315 1.113 0 .355.065.681.196.98.13.299.345.625.644.98-.756.299-1.328.707-1.715 1.225-.387.518-.581 1.118-.581 1.799 0 .597.142 1.12.427 1.568.285.448.686.793 1.204 1.036.518.243 1.113.364 1.785.364zm0-1.092c-.635 0-1.15-.182-1.547-.546-.397-.364-.595-.821-.595-1.372 0-.99.597-1.713 1.792-2.17l2.87 2.884c-.364.41-.749.714-1.155.91-.406.196-.861.294-1.365.294zm12.502.924v-9.758h-1.274v9.758h1.274zm3.444 0v-4.242c0-.803.198-1.414.595-1.834.397-.42.931-.63 1.603-.63.663 0 1.185.203 1.568.609.383.406.574.992.574 1.757v4.34h1.26v-4.522c0-1.064-.29-1.878-.868-2.443-.579-.565-1.335-.847-2.268-.847-.523 0-1.001.107-1.435.322-.434.215-.777.518-1.029.91v-1.092h-1.274v7.672H22.2zm10.948.126c.924 0 1.694-.236 2.31-.707.616-.471 1.027-1.099 1.232-1.883h-1.372c-.14.485-.397.859-.77 1.12-.373.261-.84.392-1.4.392-.728 0-1.316-.252-1.764-.756-.448-.504-.672-1.218-.672-2.142 0-.915.224-1.622.672-2.121.448-.5 1.036-.749 1.764-.749.56 0 1.029.135 1.407.406.378.27.632.64.763 1.106h1.372c-.196-.812-.6-1.447-1.211-1.904-.611-.457-1.388-.686-2.331-.686-.728 0-1.374.163-1.939.49-.565.327-1.006.786-1.323 1.379-.317.593-.476 1.286-.476 2.079 0 .803.159 1.503.476 2.1.317.597.758 1.06 1.323 1.386.565.327 1.211.49 1.939.49zm6.51-.126v-10.36h-1.274v10.36h1.274zm5.25.112c.523 0 1.001-.11 1.435-.329.434-.22.772-.525 1.015-.917v1.134h1.274v-7.672h-1.274v4.214c0 .803-.196 1.414-.588 1.834-.392.42-.929.63-1.61.63-.663 0-1.185-.203-1.568-.609-.383-.406-.574-.987-.574-1.743v-4.326h-1.26v4.494c0 .71.138 1.311.413 1.806.275.495.651.866 1.127 1.113s1.013.371 1.61.371zm8.596.014c.55 0 1.038-.096 1.463-.287.425-.191.754-.455.987-.791.233-.336.35-.714.35-1.134-.01-.467-.138-.845-.385-1.134-.247-.29-.544-.506-.889-.651-.345-.145-.793-.292-1.344-.441-.439-.121-.782-.231-1.029-.329-.247-.098-.453-.229-.616-.392-.163-.163-.245-.371-.245-.623 0-.317.135-.574.406-.77.27-.196.635-.294 1.092-.294.495 0 .889.121 1.183.364.294.243.455.565.483.966h1.274c-.037-.747-.317-1.335-.84-1.764-.523-.43-1.209-.644-2.058-.644-.55 0-1.04.096-1.47.287-.43.191-.76.45-.994.777-.233.327-.35.686-.35 1.078 0 .495.128.894.385 1.197.257.303.565.532.924.686.36.154.824.306 1.393.455.625.159 1.087.32 1.386.483.299.163.448.413.448.749 0 .327-.14.597-.42.812-.28.215-.663.322-1.148.322-.523 0-.945-.121-1.267-.364-.322-.243-.502-.555-.539-.938h-1.316c.028.467.177.88.448 1.239.27.36.64.64 1.106.84.467.2.994.301 1.582.301zm5.25-9.044c.233 0 .432-.084.595-.252.163-.168.245-.373.245-.616s-.082-.448-.245-.616c-.163-.168-.362-.252-.595-.252-.243 0-.448.084-.616.252-.168.168-.252.373-.252.616s.084.448.252.616c.168.168.373.252.616.252zm.616 8.918v-7.672h-1.274v7.672h1.274zm5.516.126c.728 0 1.39-.163 1.988-.49.597-.327 1.071-.791 1.421-1.393.35-.602.525-1.3.525-2.093 0-.793-.17-1.489-.511-2.086-.34-.597-.805-1.057-1.393-1.379-.588-.322-1.246-.483-1.974-.483s-1.386.161-1.974.483c-.588.322-1.052.784-1.393 1.386-.34.602-.511 1.295-.511 2.079 0 .793.166 1.491.497 2.093.331.602.789 1.066 1.372 1.393.583.327 1.234.49 1.953.49zm0-1.12c-.457 0-.877-.105-1.26-.315-.383-.21-.688-.53-.917-.959-.229-.43-.343-.957-.343-1.582 0-.616.117-1.139.35-1.568.233-.43.544-.749.931-.959.387-.21.814-.315 1.281-.315.457 0 .882.105 1.274.315.392.21.71.53.952.959.243.43.364.952.364 1.568 0 .616-.124 1.139-.371 1.568-.247.43-.572.751-.973.966-.401.215-.83.322-1.288.322zm6.888.994v-4.242c0-.803.198-1.414.595-1.834.397-.42.931-.63 1.603-.63.663 0 1.185.203 1.568.609.383.406.574.992.574 1.757v4.34h1.26v-4.522c0-1.064-.29-1.878-.868-2.443-.579-.565-1.335-.847-2.268-.847-.523 0-1.001.107-1.435.322-.434.215-.777.518-1.029.91v-1.092H70.5v7.672h1.274z" transform="translate(-24 -2060) translate(24.68 2060.346)"/>
                <path fill="#599CB1" d="M156.264 70.654v-1.65h-6.248v-5.28h5.588v-1.65h-5.588v-5.126h6.248v-1.65h-8.25v15.356h8.25zm5.038 0V64.01c0-1.261.308-2.226.924-2.893.616-.667 1.445-1.001 2.486-1.001 1.012 0 1.815.319 2.409.957.594.638.891 1.558.891 2.761v6.82h1.98V64.01c0-1.261.308-2.226.924-2.893.616-.667 1.445-1.001 2.486-1.001 1.012 0 1.815.319 2.409.957.594.638.891 1.558.891 2.761v6.82h1.98v-7.106c0-1.115-.213-2.06-.638-2.838-.425-.777-1.005-1.36-1.738-1.749-.733-.389-1.57-.583-2.508-.583-.953 0-1.819.235-2.596.704-.777.47-1.335 1.13-1.672 1.98-.381-.88-.96-1.547-1.738-2.002-.777-.455-1.672-.682-2.684-.682-.807 0-1.544.169-2.211.506-.667.337-1.199.821-1.595 1.452v-1.738H159.3v12.056h2.002zm22.66 5.72v-7.942c.41.69 1.008 1.265 1.793 1.727.785.462 1.69.693 2.717.693 1.07 0 2.042-.264 2.915-.792.873-.528 1.558-1.269 2.057-2.222.499-.953.748-2.039.748-3.256 0-1.232-.25-2.314-.748-3.245-.499-.931-1.184-1.654-2.057-2.167-.873-.513-1.844-.77-2.915-.77-1.041 0-1.954.231-2.739.693-.785.462-1.375 1.038-1.771 1.727v-2.222h-2.002v17.776h2.002zm4.092-7.282c-.733 0-1.412-.18-2.035-.539-.623-.36-1.122-.88-1.496-1.562-.374-.682-.561-1.478-.561-2.387 0-.895.187-1.683.561-2.365.374-.682.873-1.203 1.496-1.562.623-.36 1.302-.539 2.035-.539.748 0 1.434.176 2.057.528.623.352 1.118.865 1.485 1.54s.55 1.467.55 2.376c0 .924-.183 1.727-.55 2.409-.367.682-.862 1.203-1.485 1.562-.623.36-1.309.539-2.057.539zm14.036 1.76c1.144 0 2.185-.257 3.124-.77.939-.513 1.683-1.243 2.233-2.189s.825-2.042.825-3.289c0-1.247-.268-2.34-.803-3.278-.535-.939-1.265-1.661-2.189-2.167-.924-.506-1.958-.759-3.102-.759s-2.178.253-3.102.759c-.924.506-1.654 1.232-2.189 2.178-.535.946-.803 2.035-.803 3.267 0 1.247.26 2.343.781 3.289.52.946 1.24 1.676 2.156 2.189.917.513 1.94.77 3.069.77zm0-1.76c-.719 0-1.379-.165-1.98-.495-.601-.33-1.082-.832-1.441-1.507-.36-.675-.539-1.503-.539-2.486 0-.968.183-1.79.55-2.464.367-.675.854-1.177 1.463-1.507.609-.33 1.28-.495 2.013-.495.719 0 1.386.165 2.002.495.616.33 1.115.832 1.496 1.507.381.675.572 1.496.572 2.464s-.194 1.79-.583 2.464c-.389.675-.898 1.18-1.529 1.518-.63.337-1.305.506-2.024.506zm13.244 1.562l2.904-9.57 2.904 9.57h2.068l3.762-12.056h-1.98l-2.728 10.142-2.926-10.142h-2.046l-2.992 10.12-2.772-10.12h-2.046l3.784 12.056h2.068zm18.832.198c1.437 0 2.64-.363 3.608-1.089s1.613-1.668 1.936-2.827h-2.156c-.235.675-.642 1.214-1.221 1.617-.58.403-1.302.605-2.167.605-1.056 0-1.954-.334-2.695-1.001-.74-.667-1.148-1.595-1.221-2.783h9.636c.044-.425.066-.829.066-1.21 0-1.1-.238-2.086-.715-2.959-.477-.873-1.155-1.558-2.035-2.057-.88-.499-1.892-.748-3.036-.748-1.173 0-2.211.253-3.113.759-.902.506-1.602 1.228-2.101 2.167-.499.939-.748 2.031-.748 3.278 0 1.247.257 2.343.77 3.289.513.946 1.221 1.676 2.123 2.189.902.513 1.925.77 3.069.77zm3.718-7.106h-7.612c.103-1.144.51-2.039 1.221-2.684.711-.645 1.573-.968 2.585-.968.704 0 1.346.143 1.925.429.58.286 1.038.704 1.375 1.254.337.55.506 1.206.506 1.969zm6.71 6.908v-6.556c0-2.435 1.122-3.652 3.366-3.652h.528v-2.068c-.939 0-1.734.19-2.387.572-.653.381-1.155.917-1.507 1.606v-1.958h-2.002v12.056h2.002zm8.206 0V64.01c0-1.261.308-2.226.924-2.893.616-.667 1.445-1.001 2.486-1.001 1.012 0 1.815.319 2.409.957.594.638.891 1.558.891 2.761v6.82h1.98V64.01c0-1.261.308-2.226.924-2.893.616-.667 1.445-1.001 2.486-1.001 1.012 0 1.815.319 2.409.957.594.638.891 1.558.891 2.761v6.82h1.98v-7.106c0-1.115-.213-2.06-.638-2.838-.425-.777-1.005-1.36-1.738-1.749-.733-.389-1.57-.583-2.508-.583-.953 0-1.819.235-2.596.704-.777.47-1.335 1.13-1.672 1.98-.381-.88-.96-1.547-1.738-2.002-.777-.455-1.672-.682-2.684-.682-.807 0-1.544.169-2.211.506-.667.337-1.199.821-1.595 1.452v-1.738h-2.002v12.056h2.002zm25.872.198c1.437 0 2.64-.363 3.608-1.089s1.613-1.668 1.936-2.827h-2.156c-.235.675-.642 1.214-1.221 1.617-.58.403-1.302.605-2.167.605-1.056 0-1.954-.334-2.695-1.001-.74-.667-1.148-1.595-1.221-2.783h9.636c.044-.425.066-.829.066-1.21 0-1.1-.238-2.086-.715-2.959-.477-.873-1.155-1.558-2.035-2.057-.88-.499-1.892-.748-3.036-.748-1.173 0-2.211.253-3.113.759-.902.506-1.602 1.228-2.101 2.167-.499.939-.748 2.031-.748 3.278 0 1.247.257 2.343.77 3.289.513.946 1.221 1.676 2.123 2.189.902.513 1.925.77 3.069.77zm3.718-7.106h-7.612c.103-1.144.51-2.039 1.221-2.684.711-.645 1.573-.968 2.585-.968.704 0 1.346.143 1.925.429.58.286 1.038.704 1.375 1.254.337.55.506 1.206.506 1.969zm6.71 6.908v-6.666c0-1.261.312-2.222.935-2.882.623-.66 1.463-.99 2.519-.99 1.041 0 1.863.319 2.464.957.601.638.902 1.558.902 2.761v6.82h1.98v-7.106c0-1.672-.455-2.952-1.364-3.839-.91-.887-2.097-1.331-3.564-1.331-.821 0-1.573.169-2.255.506-.682.337-1.221.814-1.617 1.43v-1.716h-2.002v12.056h2.002zm17.666 0V68.96h-1.474c-.616 0-1.049-.121-1.298-.363-.25-.242-.374-.656-.374-1.243v-7.106h3.146v-1.65h-3.146v-3.036h-2.002v3.036h-1.562v1.65h1.562v7.106c0 1.173.279 2.017.836 2.53.557.513 1.393.77 2.508.77h1.804z" transform="translate(-24 -2060) translate(24.68 2060.346)"/>
                <path fill="#44B7DA" d="M5.64 53.654v-12.46h3.8v-1.48H0v1.48h3.82v12.46h1.82zm7.86 0v-5.96c0-2.213 1.02-3.32 3.06-3.32h.48v-1.88c-.853 0-1.577.173-2.17.52-.593.347-1.05.833-1.37 1.46v-1.78h-1.82v10.96h1.82zm10.14.18c.947 0 1.777-.21 2.49-.63.713-.42 1.25-.95 1.61-1.59v2.04h1.84v-10.96h-1.84v2c-.347-.627-.873-1.147-1.58-1.56-.707-.413-1.54-.62-2.5-.62-.973 0-1.857.233-2.65.7-.793.467-1.417 1.123-1.87 1.97-.453.847-.68 1.83-.68 2.95 0 1.107.227 2.093.68 2.96.453.867 1.073 1.54 1.86 2.02.787.48 1.667.72 2.64.72zm.38-1.6c-.68 0-1.3-.163-1.86-.49-.56-.327-1.007-.8-1.34-1.42-.333-.62-.5-1.35-.5-2.19 0-.827.167-1.547.5-2.16.333-.613.78-1.08 1.34-1.4.56-.32 1.18-.48 1.86-.48.68 0 1.303.163 1.87.49.567.327 1.017.797 1.35 1.41.333.613.5 1.333.5 2.16 0 .827-.167 1.55-.5 2.17-.333.62-.783 1.093-1.35 1.42-.567.327-1.19.49-1.87.49zm10.46 1.42v-6.06c0-1.147.283-2.02.85-2.62.567-.6 1.33-.9 2.29-.9.947 0 1.693.29 2.24.87.547.58.82 1.417.82 2.51v6.2h1.8v-6.46c0-1.52-.413-2.683-1.24-3.49-.827-.807-1.907-1.21-3.24-1.21-.747 0-1.43.153-2.05.46-.62.307-1.11.74-1.47 1.3v-1.56h-1.82v10.96h1.82zm14.86.18c.787 0 1.483-.137 2.09-.41.607-.273 1.077-.65 1.41-1.13.333-.48.5-1.02.5-1.62-.013-.667-.197-1.207-.55-1.62-.353-.413-.777-.723-1.27-.93-.493-.207-1.133-.417-1.92-.63-.627-.173-1.117-.33-1.47-.47-.353-.14-.647-.327-.88-.56-.233-.233-.35-.53-.35-.89 0-.453.193-.82.58-1.1.387-.28.907-.42 1.56-.42.707 0 1.27.173 1.69.52.42.347.65.807.69 1.38h1.82c-.053-1.067-.453-1.907-1.2-2.52-.747-.613-1.727-.92-2.94-.92-.787 0-1.487.137-2.1.41-.613.273-1.087.643-1.42 1.11-.333.467-.5.98-.5 1.54 0 .707.183 1.277.55 1.71.367.433.807.76 1.32.98.513.22 1.177.437 1.99.65.893.227 1.553.457 1.98.69.427.233.64.59.64 1.07 0 .467-.2.853-.6 1.16-.4.307-.947.46-1.64.46-.747 0-1.35-.173-1.81-.52-.46-.347-.717-.793-.77-1.34h-1.88c.04.667.253 1.257.64 1.77.387.513.913.913 1.58 1.2.667.287 1.42.43 2.26.43zm8.38 5.02v-7.22c.373.627.917 1.15 1.63 1.57.713.42 1.537.63 2.47.63.973 0 1.857-.24 2.65-.72.793-.48 1.417-1.153 1.87-2.02.453-.867.68-1.853.68-2.96 0-1.12-.227-2.103-.68-2.95-.453-.847-1.077-1.503-1.87-1.97-.793-.467-1.677-.7-2.65-.7-.947 0-1.777.21-2.49.63-.713.42-1.25.943-1.61 1.57v-2.02H55.9v16.16h1.82zm3.72-6.62c-.667 0-1.283-.163-1.85-.49-.567-.327-1.02-.8-1.36-1.42-.34-.62-.51-1.343-.51-2.17 0-.813.17-1.53.51-2.15.34-.62.793-1.093 1.36-1.42.567-.327 1.183-.49 1.85-.49.68 0 1.303.16 1.87.48.567.32 1.017.787 1.35 1.4.333.613.5 1.333.5 2.16 0 .84-.167 1.57-.5 2.19-.333.62-.783 1.093-1.35 1.42-.567.327-1.19.49-1.87.49zm12.48 1.6c.947 0 1.777-.21 2.49-.63.713-.42 1.25-.95 1.61-1.59v2.04h1.84v-10.96h-1.84v2c-.347-.627-.873-1.147-1.58-1.56-.707-.413-1.54-.62-2.5-.62-.973 0-1.857.233-2.65.7-.793.467-1.417 1.123-1.87 1.97-.453.847-.68 1.83-.68 2.95 0 1.107.227 2.093.68 2.96.453.867 1.073 1.54 1.86 2.02.787.48 1.667.72 2.64.72zm.38-1.6c-.68 0-1.3-.163-1.86-.49-.56-.327-1.007-.8-1.34-1.42-.333-.62-.5-1.35-.5-2.19 0-.827.167-1.547.5-2.16.333-.613.78-1.08 1.34-1.4.56-.32 1.18-.48 1.86-.48.68 0 1.303.163 1.87.49.567.327 1.017.797 1.35 1.41.333.613.5 1.333.5 2.16 0 .827-.167 1.55-.5 2.17-.333.62-.783 1.093-1.35 1.42-.567.327-1.19.49-1.87.49zm10.46 1.42v-5.96c0-2.213 1.02-3.32 3.06-3.32h.48v-1.88c-.853 0-1.577.173-2.17.52-.593.347-1.05.833-1.37 1.46v-1.78h-1.82v10.96h1.82zm10.38.18c1.307 0 2.4-.33 3.28-.99.88-.66 1.467-1.517 1.76-2.57h-1.96c-.213.613-.583 1.103-1.11 1.47-.527.367-1.183.55-1.97.55-.96 0-1.777-.303-2.45-.91-.673-.607-1.043-1.45-1.11-2.53h8.76c.04-.387.06-.753.06-1.1 0-1-.217-1.897-.65-2.69-.433-.793-1.05-1.417-1.85-1.87-.8-.453-1.72-.68-2.76-.68-1.067 0-2.01.23-2.83.69-.82.46-1.457 1.117-1.91 1.97-.453.853-.68 1.847-.68 2.98s.233 2.13.7 2.99c.467.86 1.11 1.523 1.93 1.99.82.467 1.75.7 2.79.7zm3.38-6.46H91.6c.093-1.04.463-1.853 1.11-2.44s1.43-.88 2.35-.88c.64 0 1.223.13 1.75.39.527.26.943.64 1.25 1.14.307.5.46 1.097.46 1.79zm6.1 6.28v-6.06c0-1.147.283-2.02.85-2.62.567-.6 1.33-.9 2.29-.9.947 0 1.693.29 2.24.87.547.58.82 1.417.82 2.51v6.2h1.8v-6.46c0-1.52-.413-2.683-1.24-3.49-.827-.807-1.907-1.21-3.24-1.21-.747 0-1.43.153-2.05.46-.62.307-1.11.74-1.47 1.3v-1.56h-1.82v10.96h1.82zm15.64.18c1.32 0 2.42-.337 3.3-1.01.88-.673 1.467-1.57 1.76-2.69h-1.96c-.2.693-.567 1.227-1.1 1.6-.533.373-1.2.56-2 .56-1.04 0-1.88-.36-2.52-1.08-.64-.72-.96-1.74-.96-3.06 0-1.307.32-2.317.96-3.03.64-.713 1.48-1.07 2.52-1.07.8 0 1.47.193 2.01.58.54.387.903.913 1.09 1.58h1.96c-.28-1.16-.857-2.067-1.73-2.72s-1.983-.98-3.33-.98c-1.04 0-1.963.233-2.77.7-.807.467-1.437 1.123-1.89 1.97-.453.847-.68 1.837-.68 2.97 0 1.147.227 2.147.68 3 .453.853 1.083 1.513 1.89 1.98.807.467 1.73.7 2.77.7zm10.32 4.98l6.6-16.12h-1.88l-3.4 8.88-3.44-8.88h-2.02l4.42 10.84-2.16 5.28h1.88z" opacity=".383" transform="translate(-24 -2060) translate(24.68 2060.346)"/>
            </g>
        </g>
    </g>
</svg>
