<svg xmlns="http://www.w3.org/2000/svg" width="932" height="217" viewBox="0 0 932 217">
    <g fill="none" fill-rule="evenodd">
        <g fill-rule="nonzero">
            <g>
                <path fill="#6ED4F3" d="M91.79 129.21c1.96 0 3.74-.455 5.34-1.365 1.6-.91 2.86-2.175 3.78-3.795.92-1.62 1.38-3.46 1.38-5.52 0-2.06-.46-3.9-1.38-5.52-.92-1.62-2.18-2.885-3.78-3.795-1.6-.91-3.38-1.365-5.34-1.365-1.94 0-3.71.455-5.31 1.365-1.6.91-2.865 2.18-3.795 3.81-.93 1.63-1.395 3.465-1.395 5.505s.465 3.875 1.395 5.505c.93 1.63 2.195 2.9 3.795 3.81 1.6.91 3.37 1.365 5.31 1.365zm0-2.37c-1.46 0-2.775-.34-3.945-1.02-1.17-.68-2.09-1.65-2.76-2.91-.67-1.26-1.005-2.72-1.005-4.38 0-1.68.335-3.145 1.005-4.395.67-1.25 1.585-2.215 2.745-2.895 1.16-.68 2.48-1.02 3.96-1.02s2.8.34 3.96 1.02c1.16.68 2.075 1.645 2.745 2.895.67 1.25 1.005 2.715 1.005 4.395 0 1.66-.335 3.12-1.005 4.38-.67 1.26-1.59 2.23-2.76 2.91-1.17.68-2.485 1.02-3.945 1.02zm16.83 9.96v-10.83c.56.94 1.375 1.725 2.445 2.355 1.07.63 2.305.945 3.705.945 1.46 0 2.785-.36 3.975-1.08 1.19-.72 2.125-1.73 2.805-3.03.68-1.3 1.02-2.78 1.02-4.44 0-1.68-.34-3.155-1.02-4.425-.68-1.27-1.615-2.255-2.805-2.955-1.19-.7-2.515-1.05-3.975-1.05-1.42 0-2.665.315-3.735.945-1.07.63-1.875 1.415-2.415 2.355v-3.03h-2.73v24.24h2.73zm5.58-9.93c-1 0-1.925-.245-2.775-.735-.85-.49-1.53-1.2-2.04-2.13-.51-.93-.765-2.015-.765-3.255 0-1.22.255-2.295.765-3.225.51-.93 1.19-1.64 2.04-2.13.85-.49 1.775-.735 2.775-.735 1.02 0 1.955.24 2.805.72.85.48 1.525 1.18 2.025 2.1.5.92.75 2 .75 3.24 0 1.26-.25 2.355-.75 3.285-.5.93-1.175 1.64-2.025 2.13-.85.49-1.785.735-2.805.735zm19.08 2.4c1.96 0 3.6-.495 4.92-1.485 1.32-.99 2.2-2.275 2.64-3.855h-2.94c-.32.92-.875 1.655-1.665 2.205s-1.775.825-2.955.825c-1.44 0-2.665-.455-3.675-1.365-1.01-.91-1.565-2.175-1.665-3.795h13.14c.06-.58.09-1.13.09-1.65 0-1.5-.325-2.845-.975-4.035-.65-1.19-1.575-2.125-2.775-2.805-1.2-.68-2.58-1.02-4.14-1.02-1.6 0-3.015.345-4.245 1.035s-2.185 1.675-2.865 2.955c-.68 1.28-1.02 2.77-1.02 4.47 0 1.7.35 3.195 1.05 4.485.7 1.29 1.665 2.285 2.895 2.985 1.23.7 2.625 1.05 4.185 1.05zm5.07-9.69h-10.38c.14-1.56.695-2.78 1.665-3.66.97-.88 2.145-1.32 3.525-1.32.96 0 1.835.195 2.625.585.79.39 1.415.96 1.875 1.71.46.75.69 1.645.69 2.685zm9.15 9.42v-9.09c0-1.72.425-3.03 1.275-3.93.85-.9 1.995-1.35 3.435-1.35 1.42 0 2.54.435 3.36 1.305.82.87 1.23 2.125 1.23 3.765v9.3h2.7v-9.69c0-2.28-.62-4.025-1.86-5.235-1.24-1.21-2.86-1.815-4.86-1.815-1.12 0-2.145.23-3.075.69-.93.46-1.665 1.11-2.205 1.95v-2.34h-2.73V129h2.73zm19.2 0v-9.09c0-1.72.425-3.03 1.275-3.93.85-.9 1.995-1.35 3.435-1.35 1.42 0 2.54.435 3.36 1.305.82.87 1.23 2.125 1.23 3.765v9.3h2.7v-9.69c0-2.28-.62-4.025-1.86-5.235-1.24-1.21-2.86-1.815-4.86-1.815-1.12 0-2.145.23-3.075.69-.93.46-1.665 1.11-2.205 1.95v-2.34h-2.73V129h2.73zm23.58.27c1.96 0 3.6-.495 4.92-1.485 1.32-.99 2.2-2.275 2.64-3.855h-2.94c-.32.92-.875 1.655-1.665 2.205s-1.775.825-2.955.825c-1.44 0-2.665-.455-3.675-1.365-1.01-.91-1.565-2.175-1.665-3.795h13.14c.06-.58.09-1.13.09-1.65 0-1.5-.325-2.845-.975-4.035-.65-1.19-1.575-2.125-2.775-2.805-1.2-.68-2.58-1.02-4.14-1.02-1.6 0-3.015.345-4.245 1.035s-2.185 1.675-2.865 2.955c-.68 1.28-1.02 2.77-1.02 4.47 0 1.7.35 3.195 1.05 4.485.7 1.29 1.665 2.285 2.895 2.985 1.23.7 2.625 1.05 4.185 1.05zm5.07-9.69h-10.38c.14-1.56.695-2.78 1.665-3.66.97-.88 2.145-1.32 3.525-1.32.96 0 1.835.195 2.625.585.79.39 1.415.96 1.875 1.71.46.75.69 1.645.69 2.685zm12.24 9.69c1.18 0 2.225-.205 3.135-.615.91-.41 1.615-.975 2.115-1.695.5-.72.75-1.53.75-2.43-.02-1-.295-1.81-.825-2.43-.53-.62-1.165-1.085-1.905-1.395-.74-.31-1.7-.625-2.88-.945-.94-.26-1.675-.495-2.205-.705-.53-.21-.97-.49-1.32-.84-.35-.35-.525-.795-.525-1.335 0-.68.29-1.23.87-1.65.58-.42 1.36-.63 2.34-.63 1.06 0 1.905.26 2.535.78.63.52.975 1.21 1.035 2.07h2.73c-.08-1.6-.68-2.86-1.8-3.78-1.12-.92-2.59-1.38-4.41-1.38-1.18 0-2.23.205-3.15.615-.92.41-1.63.965-2.13 1.665-.5.7-.75 1.47-.75 2.31 0 1.06.275 1.915.825 2.565.55.65 1.21 1.14 1.98 1.47.77.33 1.765.655 2.985.975 1.34.34 2.33.685 2.97 1.035.64.35.96.885.96 1.605 0 .7-.3 1.28-.9 1.74-.6.46-1.42.69-2.46.69-1.12 0-2.025-.26-2.715-.78s-1.075-1.19-1.155-2.01h-2.82c.06 1 .38 1.885.96 2.655.58.77 1.37 1.37 2.37 1.8 1 .43 2.13.645 3.39.645zm15.66 0c1.18 0 2.225-.205 3.135-.615.91-.41 1.615-.975 2.115-1.695.5-.72.75-1.53.75-2.43-.02-1-.295-1.81-.825-2.43-.53-.62-1.165-1.085-1.905-1.395-.74-.31-1.7-.625-2.88-.945-.94-.26-1.675-.495-2.205-.705-.53-.21-.97-.49-1.32-.84-.35-.35-.525-.795-.525-1.335 0-.68.29-1.23.87-1.65.58-.42 1.36-.63 2.34-.63 1.06 0 1.905.26 2.535.78.63.52.975 1.21 1.035 2.07h2.73c-.08-1.6-.68-2.86-1.8-3.78-1.12-.92-2.59-1.38-4.41-1.38-1.18 0-2.23.205-3.15.615-.92.41-1.63.965-2.13 1.665-.5.7-.75 1.47-.75 2.31 0 1.06.275 1.915.825 2.565.55.65 1.21 1.14 1.98 1.47.77.33 1.765.655 2.985.975 1.34.34 2.33.685 2.97 1.035.64.35.96.885.96 1.605 0 .7-.3 1.28-.9 1.74-.6.46-1.42.69-2.46.69-1.12 0-2.025-.26-2.715-.78s-1.075-1.19-1.155-2.01h-2.82c.06 1 .38 1.885.96 2.655.58.77 1.37 1.37 2.37 1.8 1 .43 2.13.645 3.39.645zM525.79 30.21c1.96 0 3.74-.455 5.34-1.365 1.6-.91 2.86-2.175 3.78-3.795.92-1.62 1.38-3.46 1.38-5.52 0-2.06-.46-3.9-1.38-5.52-.92-1.62-2.18-2.885-3.78-3.795-1.6-.91-3.38-1.365-5.34-1.365-1.94 0-3.71.455-5.31 1.365-1.6.91-2.865 2.18-3.795 3.81-.93 1.63-1.395 3.465-1.395 5.505s.465 3.875 1.395 5.505c.93 1.63 2.195 2.9 3.795 3.81 1.6.91 3.37 1.365 5.31 1.365zm0-2.37c-1.46 0-2.775-.34-3.945-1.02-1.17-.68-2.09-1.65-2.76-2.91-.67-1.26-1.005-2.72-1.005-4.38 0-1.68.335-3.145 1.005-4.395.67-1.25 1.585-2.215 2.745-2.895 1.16-.68 2.48-1.02 3.96-1.02s2.8.34 3.96 1.02c1.16.68 2.075 1.645 2.745 2.895.67 1.25 1.005 2.715 1.005 4.395 0 1.66-.335 3.12-1.005 4.38-.67 1.26-1.59 2.23-2.76 2.91-1.17.68-2.485 1.02-3.945 1.02zm16.83 9.96V26.97c.56.94 1.375 1.725 2.445 2.355 1.07.63 2.305.945 3.705.945 1.46 0 2.785-.36 3.975-1.08 1.19-.72 2.125-1.73 2.805-3.03.68-1.3 1.02-2.78 1.02-4.44 0-1.68-.34-3.155-1.02-4.425-.68-1.27-1.615-2.255-2.805-2.955-1.19-.7-2.515-1.05-3.975-1.05-1.42 0-2.665.315-3.735.945-1.07.63-1.875 1.415-2.415 2.355v-3.03h-2.73V37.8h2.73zm5.58-9.93c-1 0-1.925-.245-2.775-.735-.85-.49-1.53-1.2-2.04-2.13-.51-.93-.765-2.015-.765-3.255 0-1.22.255-2.295.765-3.225.51-.93 1.19-1.64 2.04-2.13.85-.49 1.775-.735 2.775-.735 1.02 0 1.955.24 2.805.72.85.48 1.525 1.18 2.025 2.1.5.92.75 2 .75 3.24 0 1.26-.25 2.355-.75 3.285-.5.93-1.175 1.64-2.025 2.13-.85.49-1.785.735-2.805.735zm19.08 2.4c1.96 0 3.6-.495 4.92-1.485 1.32-.99 2.2-2.275 2.64-3.855h-2.94c-.32.92-.875 1.655-1.665 2.205s-1.775.825-2.955.825c-1.44 0-2.665-.455-3.675-1.365-1.01-.91-1.565-2.175-1.665-3.795h13.14c.06-.58.09-1.13.09-1.65 0-1.5-.325-2.845-.975-4.035-.65-1.19-1.575-2.125-2.775-2.805-1.2-.68-2.58-1.02-4.14-1.02-1.6 0-3.015.345-4.245 1.035S560.85 16 560.17 17.28c-.68 1.28-1.02 2.77-1.02 4.47 0 1.7.35 3.195 1.05 4.485.7 1.29 1.665 2.285 2.895 2.985 1.23.7 2.625 1.05 4.185 1.05zm5.07-9.69h-10.38c.14-1.56.695-2.78 1.665-3.66.97-.88 2.145-1.32 3.525-1.32.96 0 1.835.195 2.625.585.79.39 1.415.96 1.875 1.71.46.75.69 1.645.69 2.685zM581.5 30v-9.09c0-1.72.425-3.03 1.275-3.93.85-.9 1.995-1.35 3.435-1.35 1.42 0 2.54.435 3.36 1.305.82.87 1.23 2.125 1.23 3.765V30h2.7v-9.69c0-2.28-.62-4.025-1.86-5.235-1.24-1.21-2.86-1.815-4.86-1.815-1.12 0-2.145.23-3.075.69-.93.46-1.665 1.11-2.205 1.95v-2.34h-2.73V30h2.73zm19.2 0v-9.09c0-1.72.425-3.03 1.275-3.93.85-.9 1.995-1.35 3.435-1.35 1.42 0 2.54.435 3.36 1.305.82.87 1.23 2.125 1.23 3.765V30h2.7v-9.69c0-2.28-.62-4.025-1.86-5.235-1.24-1.21-2.86-1.815-4.86-1.815-1.12 0-2.145.23-3.075.69-.93.46-1.665 1.11-2.205 1.95v-2.34h-2.73V30h2.73zm23.58.27c1.96 0 3.6-.495 4.92-1.485 1.32-.99 2.2-2.275 2.64-3.855h-2.94c-.32.92-.875 1.655-1.665 2.205s-1.775.825-2.955.825c-1.44 0-2.665-.455-3.675-1.365-1.01-.91-1.565-2.175-1.665-3.795h13.14c.06-.58.09-1.13.09-1.65 0-1.5-.325-2.845-.975-4.035-.65-1.19-1.575-2.125-2.775-2.805-1.2-.68-2.58-1.02-4.14-1.02-1.6 0-3.015.345-4.245 1.035S617.85 16 617.17 17.28c-.68 1.28-1.02 2.77-1.02 4.47 0 1.7.35 3.195 1.05 4.485.7 1.29 1.665 2.285 2.895 2.985 1.23.7 2.625 1.05 4.185 1.05zm5.07-9.69h-10.38c.14-1.56.695-2.78 1.665-3.66.97-.88 2.145-1.32 3.525-1.32.96 0 1.835.195 2.625.585.79.39 1.415.96 1.875 1.71.46.75.69 1.645.69 2.685zm12.24 9.69c1.18 0 2.225-.205 3.135-.615.91-.41 1.615-.975 2.115-1.695.5-.72.75-1.53.75-2.43-.02-1-.295-1.81-.825-2.43-.53-.62-1.165-1.085-1.905-1.395-.74-.31-1.7-.625-2.88-.945-.94-.26-1.675-.495-2.205-.705-.53-.21-.97-.49-1.32-.84-.35-.35-.525-.795-.525-1.335 0-.68.29-1.23.87-1.65.58-.42 1.36-.63 2.34-.63 1.06 0 1.905.26 2.535.78.63.52.975 1.21 1.035 2.07h2.73c-.08-1.6-.68-2.86-1.8-3.78-1.12-.92-2.59-1.38-4.41-1.38-1.18 0-2.23.205-3.15.615-.92.41-1.63.965-2.13 1.665-.5.7-.75 1.47-.75 2.31 0 1.06.275 1.915.825 2.565.55.65 1.21 1.14 1.98 1.47.77.33 1.765.655 2.985.975 1.34.34 2.33.685 2.97 1.035.64.35.96.885.96 1.605 0 .7-.3 1.28-.9 1.74-.6.46-1.42.69-2.46.69-1.12 0-2.025-.26-2.715-.78s-1.075-1.19-1.155-2.01h-2.82c.06 1 .38 1.885.96 2.655.58.77 1.37 1.37 2.37 1.8 1 .43 2.13.645 3.39.645zm15.66 0c1.18 0 2.225-.205 3.135-.615.91-.41 1.615-.975 2.115-1.695.5-.72.75-1.53.75-2.43-.02-1-.295-1.81-.825-2.43-.53-.62-1.165-1.085-1.905-1.395-.74-.31-1.7-.625-2.88-.945-.94-.26-1.675-.495-2.205-.705-.53-.21-.97-.49-1.32-.84-.35-.35-.525-.795-.525-1.335 0-.68.29-1.23.87-1.65.58-.42 1.36-.63 2.34-.63 1.06 0 1.905.26 2.535.78.63.52.975 1.21 1.035 2.07h2.73c-.08-1.6-.68-2.86-1.8-3.78-1.12-.92-2.59-1.38-4.41-1.38-1.18 0-2.23.205-3.15.615-.92.41-1.63.965-2.13 1.665-.5.7-.75 1.47-.75 2.31 0 1.06.275 1.915.825 2.565.55.65 1.21 1.14 1.98 1.47.77.33 1.765.655 2.985.975 1.34.34 2.33.685 2.97 1.035.64.35.96.885.96 1.605 0 .7-.3 1.28-.9 1.74-.6.46-1.42.69-2.46.69-1.12 0-2.025-.26-2.715-.78s-1.075-1.19-1.155-2.01h-2.82c.06 1 .38 1.885.96 2.655.58.77 1.37 1.37 2.37 1.8 1 .43 2.13.645 3.39.645zM150.688 42v-8.88l5.856 8.88H158V30.832h-1.456v8.864l-5.856-8.864h-1.456V42h1.456zm13.312.128c.597 0 1.144-.125 1.64-.376.496-.25.883-.6 1.16-1.048V42h1.456v-8.768H166.8v4.816c0 .917-.224 1.616-.672 2.096-.448.48-1.061.72-1.84.72-.757 0-1.355-.232-1.792-.696-.437-.464-.656-1.128-.656-1.992v-4.944h-1.44v5.136c0 .81.157 1.499.472 2.064.315.565.744.99 1.288 1.272.544.283 1.157.424 1.84.424zm8.176-.128v-4.768c0-1.77.816-2.656 2.448-2.656h.384v-1.504c-.683 0-1.261.139-1.736.416-.475.277-.84.667-1.096 1.168v-1.424h-1.456V42h1.456zm8.576 0v-1.232h-1.072c-.448 0-.763-.088-.944-.264-.181-.176-.272-.477-.272-.904v-5.168h2.288v-1.2h-2.288v-2.208h-1.456v2.208h-1.136v1.2h1.136V39.6c0 .853.203 1.467.608 1.84.405.373 1.013.56 1.824.56h1.312zm5.28.128c.597 0 1.144-.125 1.64-.376.496-.25.883-.6 1.16-1.048V42h1.456v-8.768h-1.456v4.816c0 .917-.224 1.616-.672 2.096-.448.48-1.061.72-1.84.72-.757 0-1.355-.232-1.792-.696-.437-.464-.656-1.128-.656-1.992v-4.944h-1.44v5.136c0 .81.157 1.499.472 2.064.315.565.744.99 1.288 1.272.544.283 1.157.424 1.84.424zm8.176-.128v-4.768c0-1.77.816-2.656 2.448-2.656h.384v-1.504c-.683 0-1.261.139-1.736.416-.475.277-.84.667-1.096 1.168v-1.424h-1.456V42h1.456zm5.264-10.192c.267 0 .493-.096.68-.288.187-.192.28-.427.28-.704 0-.277-.093-.512-.28-.704-.187-.192-.413-.288-.68-.288-.277 0-.512.096-.704.288-.192.192-.288.427-.288.704 0 .277.096.512.288.704.192.192.427.288.704.288zM200.176 42v-8.768h-1.456V42h1.456zm3.936 0v-4.848c0-.917.227-1.616.68-2.096.453-.48 1.064-.72 1.832-.72.757 0 1.355.232 1.792.696.437.464.656 1.133.656 2.008V42h1.44v-5.168c0-1.216-.33-2.147-.992-2.792-.661-.645-1.525-.968-2.592-.968-.597 0-1.144.123-1.64.368s-.888.592-1.176 1.04v-1.248h-1.456V42h1.456zm12.944 4.32c.843 0 1.581-.176 2.216-.528.635-.352 1.123-.84 1.464-1.464.341-.624.512-1.336.512-2.136v-8.96h-1.472v1.6c-.277-.501-.701-.917-1.272-1.248-.57-.33-1.235-.496-1.992-.496-.779 0-1.485.187-2.12.56-.635.373-1.133.899-1.496 1.576s-.544 1.464-.544 2.36c0 .885.181 1.675.544 2.368.363.693.861 1.232 1.496 1.616.635.384 1.341.576 2.12.576.757 0 1.419-.17 1.984-.512.565-.341.992-.768 1.28-1.28v1.84c0 .907-.253 1.61-.76 2.112-.507.501-1.16.752-1.96.752-.704 0-1.307-.163-1.808-.488-.501-.325-.832-.755-.992-1.288h-1.44c.139.939.592 1.68 1.36 2.224.768.544 1.728.816 2.88.816zm-.256-5.456c-.544 0-1.04-.13-1.488-.392-.448-.261-.805-.64-1.072-1.136-.267-.496-.4-1.08-.4-1.752 0-.661.133-1.237.4-1.728.267-.49.624-.864 1.072-1.12.448-.256.944-.384 1.488-.384s1.043.13 1.496.392c.453.261.813.637 1.08 1.128.267.49.4 1.067.4 1.728s-.133 1.24-.4 1.736-.627.875-1.08 1.136c-.453.261-.952.392-1.496.392zM396.36 210v-5.7h2.2l3.32 5.7h2.18l-3.5-5.84c1.107-.24 1.937-.727 2.49-1.46.553-.733.83-1.58.83-2.54 0-.787-.18-1.487-.54-2.1-.36-.613-.903-1.1-1.63-1.46-.727-.36-1.617-.54-2.67-.54h-4.5V210h1.82zm2.68-7.16h-2.68v-5.28h2.68c1 0 1.743.227 2.23.68.487.453.73 1.093.73 1.92 0 .813-.247 1.463-.74 1.95-.493.487-1.233.73-2.22.73zm12.4 7.34c1.307 0 2.4-.33 3.28-.99.88-.66 1.467-1.517 1.76-2.57h-1.96c-.213.613-.583 1.103-1.11 1.47-.527.367-1.183.55-1.97.55-.96 0-1.777-.303-2.45-.91-.673-.607-1.043-1.45-1.11-2.53h8.76c.04-.387.06-.753.06-1.1 0-1-.217-1.897-.65-2.69-.433-.793-1.05-1.417-1.85-1.87-.8-.453-1.72-.68-2.76-.68-1.067 0-2.01.23-2.83.69-.82.46-1.457 1.117-1.91 1.97-.453.853-.68 1.847-.68 2.98s.233 2.13.7 2.99c.467.86 1.11 1.523 1.93 1.99.82.467 1.75.7 2.79.7zm3.38-6.46h-6.92c.093-1.04.463-1.853 1.11-2.44s1.43-.88 2.35-.88c.64 0 1.223.13 1.75.39.527.26.943.64 1.25 1.14.307.5.46 1.097.46 1.79zm8.3 6.28l2.64-8.7 2.64 8.7h1.88l3.42-10.96h-1.8l-2.48 9.22-2.66-9.22h-1.86l-2.72 9.2-2.52-9.2h-1.86l3.44 10.96h1.88zm16.88.18c.947 0 1.777-.21 2.49-.63.713-.42 1.25-.95 1.61-1.59V210h1.84v-10.96h-1.84v2c-.347-.627-.873-1.147-1.58-1.56-.707-.413-1.54-.62-2.5-.62-.973 0-1.857.233-2.65.7-.793.467-1.417 1.123-1.87 1.97-.453.847-.68 1.83-.68 2.95 0 1.107.227 2.093.68 2.96.453.867 1.073 1.54 1.86 2.02.787.48 1.667.72 2.64.72zm.38-1.6c-.68 0-1.3-.163-1.86-.49-.56-.327-1.007-.8-1.34-1.42-.333-.62-.5-1.35-.5-2.19 0-.827.167-1.547.5-2.16.333-.613.78-1.08 1.34-1.4.56-.32 1.18-.48 1.86-.48.68 0 1.303.163 1.87.49.567.327 1.017.797 1.35 1.41.333.613.5 1.333.5 2.16 0 .827-.167 1.55-.5 2.17-.333.62-.783 1.093-1.35 1.42-.567.327-1.19.49-1.87.49zm10.46 1.42v-5.96c0-2.213 1.02-3.32 3.06-3.32h.48v-1.88c-.853 0-1.577.173-2.17.52-.593.347-1.05.833-1.37 1.46v-1.78h-1.82V210h1.82zm10.16.18c.947 0 1.773-.21 2.48-.63.707-.42 1.24-.957 1.6-1.61V210h1.84v-14.8h-1.84v5.8c-.387-.64-.947-1.157-1.68-1.55s-1.527-.59-2.38-.59c-.987 0-1.877.233-2.67.7-.793.467-1.417 1.123-1.87 1.97-.453.847-.68 1.83-.68 2.95 0 1.107.227 2.093.68 2.96.453.867 1.077 1.54 1.87 2.02.793.48 1.677.72 2.65.72zm.36-1.6c-.68 0-1.3-.163-1.86-.49-.56-.327-1.007-.8-1.34-1.42-.333-.62-.5-1.35-.5-2.19 0-.827.167-1.547.5-2.16.333-.613.78-1.08 1.34-1.4.56-.32 1.18-.48 1.86-.48.68 0 1.303.163 1.87.49.567.327 1.017.797 1.35 1.41.333.613.5 1.333.5 2.16 0 .827-.167 1.55-.5 2.17-.333.62-.783 1.093-1.35 1.42-.567.327-1.19.49-1.87.49zm9.58-11.32c.333 0 .617-.12.85-.36.233-.24.35-.533.35-.88s-.117-.64-.35-.88c-.233-.24-.517-.36-.85-.36-.347 0-.64.12-.88.36s-.36.533-.36.88.12.64.36.88.533.36.88.36zm.88 12.74v-10.96H470V210h1.82zm4.92 0v-6.06c0-1.147.283-2.02.85-2.62.567-.6 1.33-.9 2.29-.9.947 0 1.693.29 2.24.87.547.58.82 1.417.82 2.51v6.2h1.8v-6.46c0-1.52-.413-2.683-1.24-3.49-.827-.807-1.907-1.21-3.24-1.21-.747 0-1.43.153-2.05.46-.62.307-1.11.74-1.47 1.3v-1.56h-1.82V210h1.82zm16.18 5.4c1.053 0 1.977-.22 2.77-.66.793-.44 1.403-1.05 1.83-1.83.427-.78.64-1.67.64-2.67v-11.2h-1.84v2c-.347-.627-.877-1.147-1.59-1.56-.713-.413-1.543-.62-2.49-.62-.973 0-1.857.233-2.65.7-.793.467-1.417 1.123-1.87 1.97-.453.847-.68 1.83-.68 2.95 0 1.107.227 2.093.68 2.96.453.867 1.077 1.54 1.87 2.02.793.48 1.677.72 2.65.72.947 0 1.773-.213 2.48-.64.707-.427 1.24-.96 1.6-1.6v2.3c0 1.133-.317 2.013-.95 2.64-.633.627-1.45.94-2.45.94-.88 0-1.633-.203-2.26-.61-.627-.407-1.04-.943-1.24-1.61h-1.8c.173 1.173.74 2.1 1.7 2.78.96.68 2.16 1.02 3.6 1.02zm-.32-6.82c-.68 0-1.3-.163-1.86-.49-.56-.327-1.007-.8-1.34-1.42-.333-.62-.5-1.35-.5-2.19 0-.827.167-1.547.5-2.16.333-.613.78-1.08 1.34-1.4.56-.32 1.18-.48 1.86-.48.68 0 1.303.163 1.87.49.567.327 1.017.797 1.35 1.41.333.613.5 1.333.5 2.16 0 .827-.167 1.55-.5 2.17-.333.62-.783 1.093-1.35 1.42-.567.327-1.19.49-1.87.49z" transform="translate(-217 -2062) translate(217 2062)"/>
                <path fill="#33869F" d="M235.696 150v-6.908h5.412v-1.628h-5.412v-5.17h6.666v-1.628h-8.668V150h2.002zm10.12-14.014c.367 0 .678-.132.935-.396s.385-.587.385-.968-.128-.704-.385-.968-.568-.396-.935-.396c-.381 0-.704.132-.968.396s-.396.587-.396.968.132.704.396.968.587.396.968.396zm.968 14.014v-12.056h-2.002V150h2.002zm8.998 0v-1.694h-1.474c-.616 0-1.049-.121-1.298-.363-.25-.242-.374-.656-.374-1.243v-7.106h3.146v-1.65h-3.146v-3.036h-2.002v3.036h-1.562v1.65h1.562v7.106c0 1.173.279 2.017.836 2.53.557.513 1.393.77 2.508.77h1.804zm4.422 0v-6.666c0-1.261.312-2.222.935-2.882.623-.66 1.463-.99 2.519-.99 1.041 0 1.863.319 2.464.957.601.638.902 1.558.902 2.761V150h1.98v-7.106c0-1.672-.455-2.952-1.364-3.839-.91-.887-2.097-1.331-3.564-1.331-.821 0-1.573.169-2.255.506-.682.337-1.221.814-1.617 1.43v-1.716h-2.002V150h2.002zm17.292.198c1.437 0 2.64-.363 3.608-1.089s1.613-1.668 1.936-2.827h-2.156c-.235.675-.642 1.214-1.221 1.617-.58.403-1.302.605-2.167.605-1.056 0-1.954-.334-2.695-1.001-.74-.667-1.148-1.595-1.221-2.783h9.636c.044-.425.066-.829.066-1.21 0-1.1-.238-2.086-.715-2.959-.477-.873-1.155-1.558-2.035-2.057-.88-.499-1.892-.748-3.036-.748-1.173 0-2.211.253-3.113.759-.902.506-1.602 1.228-2.101 2.167-.499.939-.748 2.031-.748 3.278 0 1.247.257 2.343.77 3.289.513.946 1.221 1.676 2.123 2.189.902.513 1.925.77 3.069.77zm3.718-7.106h-7.612c.103-1.144.51-2.039 1.221-2.684.711-.645 1.573-.968 2.585-.968.704 0 1.346.143 1.925.429.58.286 1.038.704 1.375 1.254.337.55.506 1.206.506 1.969zm8.976 7.106c.865 0 1.632-.15 2.299-.451.667-.3 1.184-.715 1.551-1.243.367-.528.55-1.122.55-1.782-.015-.733-.216-1.327-.605-1.782-.389-.455-.854-.796-1.397-1.023-.543-.227-1.247-.458-2.112-.693-.69-.19-1.228-.363-1.617-.517-.389-.154-.711-.36-.968-.616-.257-.257-.385-.583-.385-.979 0-.499.213-.902.638-1.21.425-.308.997-.462 1.716-.462.777 0 1.397.19 1.859.572.462.381.715.887.759 1.518h2.002c-.059-1.173-.499-2.097-1.32-2.772-.821-.675-1.9-1.012-3.234-1.012-.865 0-1.635.15-2.31.451-.675.3-1.195.708-1.562 1.221-.367.513-.55 1.078-.55 1.694 0 .777.202 1.404.605 1.881.403.477.887.836 1.452 1.078.565.242 1.294.48 2.189.715.983.25 1.709.502 2.178.759.47.257.704.649.704 1.177 0 .513-.22.939-.66 1.276-.44.337-1.041.506-1.804.506-.821 0-1.485-.19-1.991-.572-.506-.381-.788-.873-.847-1.474h-2.068c.044.733.279 1.382.704 1.947.425.565 1.005 1.005 1.738 1.32.733.315 1.562.473 2.486.473zm11.484 0c.865 0 1.632-.15 2.299-.451.667-.3 1.184-.715 1.551-1.243.367-.528.55-1.122.55-1.782-.015-.733-.216-1.327-.605-1.782-.389-.455-.854-.796-1.397-1.023-.543-.227-1.247-.458-2.112-.693-.69-.19-1.228-.363-1.617-.517-.389-.154-.711-.36-.968-.616-.257-.257-.385-.583-.385-.979 0-.499.213-.902.638-1.21.425-.308.997-.462 1.716-.462.777 0 1.397.19 1.859.572.462.381.715.887.759 1.518h2.002c-.059-1.173-.499-2.097-1.32-2.772-.821-.675-1.9-1.012-3.234-1.012-.865 0-1.635.15-2.31.451-.675.3-1.195.708-1.562 1.221-.367.513-.55 1.078-.55 1.694 0 .777.202 1.404.605 1.881.403.477.887.836 1.452 1.078.565.242 1.294.48 2.189.715.983.25 1.709.502 2.178.759.47.257.704.649.704 1.177 0 .513-.22.939-.66 1.276-.44.337-1.041.506-1.804.506-.821 0-1.485-.19-1.991-.572-.506-.381-.788-.873-.847-1.474h-2.068c.044.733.279 1.382.704 1.947.425.565 1.005 1.005 1.738 1.32.733.315 1.562.473 2.486.473z" transform="translate(-217 -2062) translate(217 2062)"/>
                <path fill="#33869F" d="M665.032 115v-6.984h3.216c1.952 0 3.404-.46 4.356-1.38.952-.92 1.428-2.076 1.428-3.468 0-1.44-.492-2.616-1.476-3.528-.984-.912-2.42-1.368-4.308-1.368h-5.4V115h2.184zm3.216-8.784h-3.216v-6.144h3.216c2.368 0 3.552 1.032 3.552 3.096 0 .976-.288 1.728-.864 2.256-.576.528-1.472.792-2.688.792zm13.896 9c1.136 0 2.132-.252 2.988-.756.856-.504 1.5-1.14 1.932-1.908V115h2.208v-13.152h-2.208v2.4c-.416-.752-1.048-1.376-1.896-1.872-.848-.496-1.848-.744-3-.744-1.168 0-2.228.28-3.18.84-.952.56-1.7 1.348-2.244 2.364-.544 1.016-.816 2.196-.816 3.54 0 1.328.272 2.512.816 3.552.544 1.04 1.288 1.848 2.232 2.424.944.576 2 .864 3.168.864zm.456-1.92c-.816 0-1.56-.196-2.232-.588-.672-.392-1.208-.96-1.608-1.704-.4-.744-.6-1.62-.6-2.628 0-.992.2-1.856.6-2.592.4-.736.936-1.296 1.608-1.68.672-.384 1.416-.576 2.232-.576.816 0 1.564.196 2.244.588.68.392 1.22.956 1.62 1.692.4.736.6 1.6.6 2.592s-.2 1.86-.6 2.604c-.4.744-.94 1.312-1.62 1.704-.68.392-1.428.588-2.244.588zm15.024 1.92c.944 0 1.78-.164 2.508-.492.728-.328 1.292-.78 1.692-1.356.4-.576.6-1.224.6-1.944-.016-.8-.236-1.448-.66-1.944-.424-.496-.932-.868-1.524-1.116-.592-.248-1.36-.5-2.304-.756-.752-.208-1.34-.396-1.764-.564-.424-.168-.776-.392-1.056-.672s-.42-.636-.42-1.068c0-.544.232-.984.696-1.32.464-.336 1.088-.504 1.872-.504.848 0 1.524.208 2.028.624.504.416.78.968.828 1.656h2.184c-.064-1.28-.544-2.288-1.44-3.024-.896-.736-2.072-1.104-3.528-1.104-.944 0-1.784.164-2.52.492-.736.328-1.304.772-1.704 1.332-.4.56-.6 1.176-.6 1.848 0 .848.22 1.532.66 2.052.44.52.968.912 1.584 1.176.616.264 1.412.524 2.388.78 1.072.272 1.864.548 2.376.828.512.28.768.708.768 1.284 0 .56-.24 1.024-.72 1.392-.48.368-1.136.552-1.968.552-.896 0-1.62-.208-2.172-.624-.552-.416-.86-.952-.924-1.608h-2.256c.048.8.304 1.508.768 2.124.464.616 1.096 1.096 1.896 1.44.8.344 1.704.516 2.712.516zm12.528 0c.944 0 1.78-.164 2.508-.492.728-.328 1.292-.78 1.692-1.356.4-.576.6-1.224.6-1.944-.016-.8-.236-1.448-.66-1.944-.424-.496-.932-.868-1.524-1.116-.592-.248-1.36-.5-2.304-.756-.752-.208-1.34-.396-1.764-.564-.424-.168-.776-.392-1.056-.672s-.42-.636-.42-1.068c0-.544.232-.984.696-1.32.464-.336 1.088-.504 1.872-.504.848 0 1.524.208 2.028.624.504.416.78.968.828 1.656h2.184c-.064-1.28-.544-2.288-1.44-3.024-.896-.736-2.072-1.104-3.528-1.104-.944 0-1.784.164-2.52.492-.736.328-1.304.772-1.704 1.332-.4.56-.6 1.176-.6 1.848 0 .848.22 1.532.66 2.052.44.52.968.912 1.584 1.176.616.264 1.412.524 2.388.78 1.072.272 1.864.548 2.376.828.512.28.768.708.768 1.284 0 .56-.24 1.024-.72 1.392-.48.368-1.136.552-1.968.552-.896 0-1.62-.208-2.172-.624-.552-.416-.86-.952-.924-1.608h-2.256c.048.8.304 1.508.768 2.124.464.616 1.096 1.096 1.896 1.44.8.344 1.704.516 2.712.516zm9-15.504c.4 0 .74-.144 1.02-.432.28-.288.42-.64.42-1.056 0-.416-.14-.768-.42-1.056-.28-.288-.62-.432-1.02-.432-.416 0-.768.144-1.056.432-.288.288-.432.64-.432 1.056 0 .416.144.768.432 1.056.288.288.64.432 1.056.432zM720.208 115v-13.152h-2.184V115h2.184zm9.456.216c1.248 0 2.384-.28 3.408-.84 1.024-.56 1.836-1.356 2.436-2.388.6-1.032.9-2.228.9-3.588 0-1.36-.292-2.552-.876-3.576-.584-1.024-1.38-1.812-2.388-2.364-1.008-.552-2.136-.828-3.384-.828-1.248 0-2.376.276-3.384.828-1.008.552-1.804 1.344-2.388 2.376-.584 1.032-.876 2.22-.876 3.564 0 1.36.284 2.556.852 3.588.568 1.032 1.352 1.828 2.352 2.388 1 .56 2.116.84 3.348.84zm0-1.92c-.784 0-1.504-.18-2.16-.54-.656-.36-1.18-.908-1.572-1.644-.392-.736-.588-1.64-.588-2.712 0-1.056.2-1.952.6-2.688.4-.736.932-1.284 1.596-1.644.664-.36 1.396-.54 2.196-.54.784 0 1.512.18 2.184.54.672.36 1.216.908 1.632 1.644.416.736.624 1.632.624 2.688 0 1.056-.212 1.952-.636 2.688-.424.736-.98 1.288-1.668 1.656-.688.368-1.424.552-2.208.552zM741.472 115v-7.272c0-1.376.34-2.424 1.02-3.144.68-.72 1.596-1.08 2.748-1.08 1.136 0 2.032.348 2.688 1.044.656.696.984 1.7.984 3.012V115h2.16v-7.752c0-1.824-.496-3.22-1.488-4.188-.992-.968-2.288-1.452-3.888-1.452-.896 0-1.716.184-2.46.552-.744.368-1.332.888-1.764 1.56v-1.872h-2.184V115h2.184zM774.82 130.12c1.52 0 2.847-.363 3.98-1.09 1.133-.727 1.96-1.757 2.48-3.09h-2.18c-.387.84-.943 1.483-1.67 1.93-.727.447-1.597.67-2.61.67-.973 0-1.847-.227-2.62-.68-.773-.453-1.38-1.097-1.82-1.93-.44-.833-.66-1.803-.66-2.91 0-1.12.22-2.097.66-2.93.44-.833 1.047-1.477 1.82-1.93.773-.453 1.647-.68 2.62-.68 1.013 0 1.883.227 2.61.68.727.453 1.283 1.1 1.67 1.94h2.18c-.52-1.347-1.347-2.387-2.48-3.12-1.133-.733-2.46-1.1-3.98-1.1-1.293 0-2.47.307-3.53.92-1.06.613-1.897 1.463-2.51 2.55-.613 1.087-.92 2.31-.92 3.67 0 1.36.307 2.58.92 3.66s1.45 1.923 2.51 2.53c1.06.607 2.237.91 3.53.91zm13.94.06c1.04 0 1.987-.233 2.84-.7.853-.467 1.53-1.13 2.03-1.99.5-.86.75-1.857.75-2.99 0-1.133-.243-2.127-.73-2.98-.487-.853-1.15-1.51-1.99-1.97-.84-.46-1.78-.69-2.82-.69-1.04 0-1.98.23-2.82.69-.84.46-1.503 1.12-1.99 1.98-.487.86-.73 1.85-.73 2.97 0 1.133.237 2.13.71 2.99.473.86 1.127 1.523 1.96 1.99.833.467 1.763.7 2.79.7zm0-1.6c-.653 0-1.253-.15-1.8-.45-.547-.3-.983-.757-1.31-1.37-.327-.613-.49-1.367-.49-2.26 0-.88.167-1.627.5-2.24.333-.613.777-1.07 1.33-1.37.553-.3 1.163-.45 1.83-.45.653 0 1.26.15 1.82.45.56.3 1.013.757 1.36 1.37.347.613.52 1.36.52 2.24 0 .88-.177 1.627-.53 2.24-.353.613-.817 1.073-1.39 1.38-.573.307-1.187.46-1.84.46zm9.84 1.42v-6.04c0-1.147.28-2.023.84-2.63.56-.607 1.313-.91 2.26-.91.92 0 1.65.29 2.19.87.54.58.81 1.417.81 2.51v6.2h1.8v-6.04c0-1.147.28-2.023.84-2.63.56-.607 1.313-.91 2.26-.91.92 0 1.65.29 2.19.87.54.58.81 1.417.81 2.51v6.2h1.8v-6.46c0-1.013-.193-1.873-.58-2.58-.387-.707-.913-1.237-1.58-1.59s-1.427-.53-2.28-.53c-.867 0-1.653.213-2.36.64-.707.427-1.213 1.027-1.52 1.8-.347-.8-.873-1.407-1.58-1.82-.707-.413-1.52-.62-2.44-.62-.733 0-1.403.153-2.01.46-.607.307-1.09.747-1.45 1.32v-1.58h-1.82V130h1.82zm20.6 0v-6.04c0-1.147.28-2.023.84-2.63.56-.607 1.313-.91 2.26-.91.92 0 1.65.29 2.19.87.54.58.81 1.417.81 2.51v6.2h1.8v-6.04c0-1.147.28-2.023.84-2.63.56-.607 1.313-.91 2.26-.91.92 0 1.65.29 2.19.87.54.58.81 1.417.81 2.51v6.2h1.8v-6.46c0-1.013-.193-1.873-.58-2.58-.387-.707-.913-1.237-1.58-1.59s-1.427-.53-2.28-.53c-.867 0-1.653.213-2.36.64-.707.427-1.213 1.027-1.52 1.8-.347-.8-.873-1.407-1.58-1.82-.707-.413-1.52-.62-2.44-.62-.733 0-1.403.153-2.01.46-.607.307-1.09.747-1.45 1.32v-1.58h-1.82V130h1.82zm19.72-12.74c.333 0 .617-.12.85-.36.233-.24.35-.533.35-.88s-.117-.64-.35-.88c-.233-.24-.517-.36-.85-.36-.347 0-.64.12-.88.36s-.36.533-.36.88.12.64.36.88.533.36.88.36zm.88 12.74v-10.96h-1.82V130h1.82zm8.18 0v-1.54h-1.34c-.56 0-.953-.11-1.18-.33-.227-.22-.34-.597-.34-1.13v-6.46h2.86v-1.5h-2.86v-2.76h-1.82v2.76h-1.42v1.5h1.42V127c0 1.067.253 1.833.76 2.3.507.467 1.267.7 2.28.7h1.64zm4.02 0v-6.04c0-1.147.28-2.023.84-2.63.56-.607 1.313-.91 2.26-.91.92 0 1.65.29 2.19.87.54.58.81 1.417.81 2.51v6.2h1.8v-6.04c0-1.147.28-2.023.84-2.63.56-.607 1.313-.91 2.26-.91.92 0 1.65.29 2.19.87.54.58.81 1.417.81 2.51v6.2h1.8v-6.46c0-1.013-.193-1.873-.58-2.58-.387-.707-.913-1.237-1.58-1.59s-1.427-.53-2.28-.53c-.867 0-1.653.213-2.36.64-.707.427-1.213 1.027-1.52 1.8-.347-.8-.873-1.407-1.58-1.82-.707-.413-1.52-.62-2.44-.62-.733 0-1.403.153-2.01.46-.607.307-1.09.747-1.45 1.32v-1.58h-1.82V130H852zm23.52.18c1.307 0 2.4-.33 3.28-.99.88-.66 1.467-1.517 1.76-2.57h-1.96c-.213.613-.583 1.103-1.11 1.47-.527.367-1.183.55-1.97.55-.96 0-1.777-.303-2.45-.91-.673-.607-1.043-1.45-1.11-2.53h8.76c.04-.387.06-.753.06-1.1 0-1-.217-1.897-.65-2.69-.433-.793-1.05-1.417-1.85-1.87-.8-.453-1.72-.68-2.76-.68-1.067 0-2.01.23-2.83.69-.82.46-1.457 1.117-1.91 1.97-.453.853-.68 1.847-.68 2.98s.233 2.13.7 2.99c.467.86 1.11 1.523 1.93 1.99.82.467 1.75.7 2.79.7zm3.38-6.46h-6.92c.093-1.04.463-1.853 1.11-2.44s1.43-.88 2.35-.88c.64 0 1.223.13 1.75.39.527.26.943.64 1.25 1.14.307.5.46 1.097.46 1.79zM885 130v-6.06c0-1.147.283-2.02.85-2.62.567-.6 1.33-.9 2.29-.9.947 0 1.693.29 2.24.87.547.58.82 1.417.82 2.51v6.2h1.8v-6.46c0-1.52-.413-2.683-1.24-3.49-.827-.807-1.907-1.21-3.24-1.21-.747 0-1.43.153-2.05.46-.62.307-1.11.74-1.47 1.3v-1.56h-1.82V130H885zm16.06 0v-1.54h-1.34c-.56 0-.953-.11-1.18-.33-.227-.22-.34-.597-.34-1.13v-6.46h2.86v-1.5h-2.86v-2.76h-1.82v2.76h-1.42v1.5h1.42V127c0 1.067.253 1.833.76 2.3.507.467 1.267.7 2.28.7h1.64z" opacity=".553" transform="translate(-217 -2062) translate(217 2062)"/>
                <path fill="#6ED4F3" d="M347.294 173.204c2.584 0 4.84-.618 6.766-1.853 1.927-1.235 3.332-2.986 4.216-5.253h-3.706c-.657 1.428-1.604 2.522-2.839 3.281-1.235.76-2.714 1.139-4.437 1.139-1.655 0-3.14-.385-4.454-1.156-1.315-.77-2.346-1.864-3.094-3.281-.748-1.417-1.122-3.066-1.122-4.947 0-1.904.374-3.564 1.122-4.981.748-1.417 1.78-2.51 3.094-3.281 1.315-.77 2.8-1.156 4.454-1.156 1.723 0 3.202.385 4.437 1.156 1.235.77 2.182 1.87 2.839 3.298h3.706c-.884-2.29-2.29-4.057-4.216-5.304-1.927-1.247-4.182-1.87-6.766-1.87-2.199 0-4.199.521-6.001 1.564-1.802 1.043-3.224 2.488-4.267 4.335-1.043 1.847-1.564 3.927-1.564 6.239s.521 4.386 1.564 6.222c1.043 1.836 2.465 3.27 4.267 4.301 1.802 1.031 3.802 1.547 6.001 1.547zm23.698.102c1.768 0 3.377-.397 4.828-1.19 1.45-.793 2.601-1.921 3.451-3.383.85-1.462 1.275-3.156 1.275-5.083s-.414-3.615-1.241-5.066c-.827-1.45-1.955-2.567-3.383-3.349s-3.026-1.173-4.794-1.173c-1.768 0-3.366.391-4.794 1.173-1.428.782-2.556 1.904-3.383 3.366-.827 1.462-1.241 3.145-1.241 5.049 0 1.927.402 3.621 1.207 5.083.805 1.462 1.915 2.59 3.332 3.383 1.417.793 2.998 1.19 4.743 1.19zm0-2.72c-1.11 0-2.13-.255-3.06-.765-.93-.51-1.672-1.286-2.227-2.329-.555-1.043-.833-2.323-.833-3.842 0-1.496.283-2.765.85-3.808.567-1.043 1.32-1.819 2.261-2.329.94-.51 1.978-.765 3.111-.765 1.11 0 2.142.255 3.094.765s1.723 1.286 2.312 2.329c.59 1.043.884 2.312.884 3.808s-.3 2.765-.901 3.808c-.6 1.043-1.388 1.825-2.363 2.346-.975.521-2.017.782-3.128.782zM387.72 173v-10.302c0-1.95.482-3.434 1.445-4.454.963-1.02 2.261-1.53 3.893-1.53 1.61 0 2.879.493 3.808 1.479.93.986 1.394 2.408 1.394 4.267V173h3.06v-10.982c0-2.584-.703-4.562-2.108-5.933-1.405-1.371-3.241-2.057-5.508-2.057-1.27 0-2.431.26-3.485.782-1.054.521-1.887 1.258-2.499 2.21v-2.652h-3.094V173h3.094zm27.302 0v-2.618h-2.278c-.952 0-1.62-.187-2.006-.561-.385-.374-.578-1.014-.578-1.921v-10.982h4.862v-2.55h-4.862v-4.692h-3.094v4.692h-2.414v2.55h2.414V167.9c0 1.813.43 3.117 1.292 3.91.861.793 2.153 1.19 3.876 1.19h2.788zm5.338-21.658c.567 0 1.048-.204 1.445-.612.397-.408.595-.907.595-1.496 0-.59-.198-1.088-.595-1.496-.397-.408-.878-.612-1.445-.612-.59 0-1.088.204-1.496.612-.408.408-.612.907-.612 1.496 0 .59.204 1.088.612 1.496.408.408.907.612 1.496.612zM421.856 173v-18.632h-3.094V173h3.094zm8.364 0v-10.302c0-1.95.482-3.434 1.445-4.454.963-1.02 2.261-1.53 3.893-1.53 1.61 0 2.879.493 3.808 1.479.93.986 1.394 2.408 1.394 4.267V173h3.06v-10.982c0-2.584-.703-4.562-2.108-5.933-1.405-1.371-3.241-2.057-5.508-2.057-1.27 0-2.431.26-3.485.782-1.054.521-1.887 1.258-2.499 2.21v-2.652h-3.094V173h3.094zm26.146.272c1.27 0 2.431-.266 3.485-.799 1.054-.533 1.876-1.275 2.465-2.227V173h3.094v-18.632h-3.094v10.234c0 1.95-.476 3.434-1.428 4.454-.952 1.02-2.255 1.53-3.91 1.53-1.61 0-2.879-.493-3.808-1.479-.93-.986-1.394-2.397-1.394-4.233v-10.506h-3.06v10.914c0 1.723.334 3.185 1.003 4.386.669 1.201 1.581 2.102 2.737 2.703 1.156.6 2.46.901 3.91.901zm22.406.034c1.768 0 3.377-.397 4.828-1.19 1.45-.793 2.601-1.921 3.451-3.383.85-1.462 1.275-3.156 1.275-5.083s-.414-3.615-1.241-5.066c-.827-1.45-1.955-2.567-3.383-3.349s-3.026-1.173-4.794-1.173c-1.768 0-3.366.391-4.794 1.173-1.428.782-2.556 1.904-3.383 3.366-.827 1.462-1.241 3.145-1.241 5.049 0 1.927.402 3.621 1.207 5.083.805 1.462 1.915 2.59 3.332 3.383 1.417.793 2.998 1.19 4.743 1.19zm0-2.72c-1.11 0-2.13-.255-3.06-.765-.93-.51-1.672-1.286-2.227-2.329-.555-1.043-.833-2.323-.833-3.842 0-1.496.283-2.765.85-3.808.567-1.043 1.32-1.819 2.261-2.329.94-.51 1.978-.765 3.111-.765 1.11 0 2.142.255 3.094.765s1.723 1.286 2.312 2.329c.59 1.043.884 2.312.884 3.808s-.3 2.765-.901 3.808c-.6 1.043-1.388 1.825-2.363 2.346-.975.521-2.017.782-3.128.782zm21.114 2.686c1.27 0 2.431-.266 3.485-.799 1.054-.533 1.876-1.275 2.465-2.227V173h3.094v-18.632h-3.094v10.234c0 1.95-.476 3.434-1.428 4.454-.952 1.02-2.255 1.53-3.91 1.53-1.61 0-2.879-.493-3.808-1.479-.93-.986-1.394-2.397-1.394-4.233v-10.506h-3.06v10.914c0 1.723.334 3.185 1.003 4.386.669 1.201 1.581 2.102 2.737 2.703 1.156.6 2.46.901 3.91.901zm20.876.034c1.337 0 2.522-.232 3.553-.697 1.031-.465 1.83-1.105 2.397-1.921.567-.816.85-1.734.85-2.754-.023-1.133-.334-2.051-.935-2.754-.6-.703-1.32-1.23-2.159-1.581-.839-.351-1.927-.708-3.264-1.071-1.065-.295-1.898-.561-2.499-.799-.6-.238-1.1-.555-1.496-.952-.397-.397-.595-.901-.595-1.513 0-.77.329-1.394.986-1.87.657-.476 1.541-.714 2.652-.714 1.201 0 2.159.295 2.873.884.714.59 1.105 1.371 1.173 2.346h3.094c-.09-1.813-.77-3.241-2.04-4.284-1.27-1.043-2.935-1.564-4.998-1.564-1.337 0-2.527.232-3.57.697-1.043.465-1.847 1.094-2.414 1.887-.567.793-.85 1.666-.85 2.618 0 1.201.312 2.17.935 2.907.623.737 1.371 1.292 2.244 1.666.873.374 2 .742 3.383 1.105 1.519.385 2.64.776 3.366 1.173.725.397 1.088 1.003 1.088 1.819 0 .793-.34 1.45-1.02 1.972-.68.521-1.61.782-2.788.782-1.27 0-2.295-.295-3.077-.884-.782-.59-1.218-1.349-1.309-2.278h-3.196c.068 1.133.43 2.136 1.088 3.009.657.873 1.553 1.553 2.686 2.04 1.133.487 2.414.731 3.842.731zm23.324-.306v-23.698h-3.094V173h3.094zm8.364 0v-10.268c0-1.95.476-3.44 1.428-4.471.952-1.031 2.233-1.547 3.842-1.547 1.564 0 2.805.493 3.723 1.479.918.986 1.377 2.408 1.377 4.267V173h3.06v-10.268c0-1.95.476-3.44 1.428-4.471.952-1.031 2.233-1.547 3.842-1.547 1.564 0 2.805.493 3.723 1.479.918.986 1.377 2.408 1.377 4.267V173h3.06v-10.982c0-1.723-.329-3.185-.986-4.386s-1.553-2.102-2.686-2.703c-1.133-.6-2.425-.901-3.876-.901-1.473 0-2.81.363-4.012 1.088-1.201.725-2.063 1.745-2.584 3.06-.59-1.36-1.485-2.391-2.686-3.094-1.201-.703-2.584-1.054-4.148-1.054-1.247 0-2.386.26-3.417.782-1.031.521-1.853 1.27-2.465 2.244v-2.686h-3.094V173h3.094zm35.02 8.84v-12.274c.635 1.065 1.558 1.955 2.771 2.669 1.213.714 2.612 1.071 4.199 1.071 1.655 0 3.156-.408 4.505-1.224 1.349-.816 2.408-1.96 3.179-3.434.77-1.473 1.156-3.15 1.156-5.032 0-1.904-.385-3.576-1.156-5.015-.77-1.44-1.83-2.556-3.179-3.349-1.349-.793-2.85-1.19-4.505-1.19-1.61 0-3.02.357-4.233 1.071-1.213.714-2.125 1.604-2.737 2.669v-3.434h-3.094v27.472h3.094zm6.324-11.254c-1.133 0-2.182-.278-3.145-.833-.963-.555-1.734-1.36-2.312-2.414-.578-1.054-.867-2.284-.867-3.689 0-1.383.289-2.601.867-3.655.578-1.054 1.349-1.859 2.312-2.414.963-.555 2.012-.833 3.145-.833 1.156 0 2.216.272 3.179.816.963.544 1.728 1.337 2.295 2.38s.85 2.267.85 3.672c0 1.428-.283 2.669-.85 3.723-.567 1.054-1.332 1.859-2.295 2.414-.963.555-2.023.833-3.179.833zm16.66 2.414v-10.132c0-3.763 1.734-5.644 5.202-5.644h.816v-3.196c-1.45 0-2.68.295-3.689.884-1.009.59-1.785 1.417-2.329 2.482v-3.026h-3.094V173h3.094zm17.714.306c1.768 0 3.377-.397 4.828-1.19 1.45-.793 2.601-1.921 3.451-3.383.85-1.462 1.275-3.156 1.275-5.083s-.414-3.615-1.241-5.066c-.827-1.45-1.955-2.567-3.383-3.349s-3.026-1.173-4.794-1.173c-1.768 0-3.366.391-4.794 1.173-1.428.782-2.556 1.904-3.383 3.366-.827 1.462-1.241 3.145-1.241 5.049 0 1.927.402 3.621 1.207 5.083.805 1.462 1.915 2.59 3.332 3.383 1.417.793 2.998 1.19 4.743 1.19zm0-2.72c-1.11 0-2.13-.255-3.06-.765-.93-.51-1.672-1.286-2.227-2.329-.555-1.043-.833-2.323-.833-3.842 0-1.496.283-2.765.85-3.808.567-1.043 1.32-1.819 2.261-2.329.94-.51 1.978-.765 3.111-.765 1.11 0 2.142.255 3.094.765s1.723 1.286 2.312 2.329c.59 1.043.884 2.312.884 3.808s-.3 2.765-.901 3.808c-.6 1.043-1.388 1.825-2.363 2.346-.975.521-2.017.782-3.128.782zM650.506 173l7.31-18.632h-3.298l-5.78 15.776-5.814-15.776h-3.332l7.31 18.632h3.604zm18.428.306c2.221 0 4.08-.561 5.576-1.683 1.496-1.122 2.493-2.578 2.992-4.369h-3.332c-.363 1.043-.992 1.876-1.887 2.499-.895.623-2.012.935-3.349.935-1.632 0-3.02-.516-4.165-1.547s-1.774-2.465-1.887-4.301h14.892c.068-.657.102-1.28.102-1.87 0-1.7-.368-3.224-1.105-4.573-.737-1.349-1.785-2.408-3.145-3.179-1.36-.77-2.924-1.156-4.692-1.156-1.813 0-3.417.391-4.811 1.173-1.394.782-2.476 1.898-3.247 3.349-.77 1.45-1.156 3.14-1.156 5.066 0 1.927.397 3.621 1.19 5.083.793 1.462 1.887 2.59 3.281 3.383 1.394.793 2.975 1.19 4.743 1.19zm5.746-10.982h-11.764c.159-1.768.788-3.15 1.887-4.148 1.1-.997 2.431-1.496 3.995-1.496 1.088 0 2.08.221 2.975.663.895.442 1.604 1.088 2.125 1.938.521.85.782 1.864.782 3.043zM685.05 173v-10.268c0-1.95.476-3.44 1.428-4.471.952-1.031 2.233-1.547 3.842-1.547 1.564 0 2.805.493 3.723 1.479.918.986 1.377 2.408 1.377 4.267V173h3.06v-10.268c0-1.95.476-3.44 1.428-4.471.952-1.031 2.233-1.547 3.842-1.547 1.564 0 2.805.493 3.723 1.479.918.986 1.377 2.408 1.377 4.267V173h3.06v-10.982c0-1.723-.329-3.185-.986-4.386s-1.553-2.102-2.686-2.703c-1.133-.6-2.425-.901-3.876-.901-1.473 0-2.81.363-4.012 1.088-1.201.725-2.063 1.745-2.584 3.06-.59-1.36-1.485-2.391-2.686-3.094-1.201-.703-2.584-1.054-4.148-1.054-1.247 0-2.386.26-3.417.782-1.031.521-1.853 1.27-2.465 2.244v-2.686h-3.094V173h3.094zm39.984.306c2.221 0 4.08-.561 5.576-1.683 1.496-1.122 2.493-2.578 2.992-4.369h-3.332c-.363 1.043-.992 1.876-1.887 2.499-.895.623-2.012.935-3.349.935-1.632 0-3.02-.516-4.165-1.547s-1.774-2.465-1.887-4.301h14.892c.068-.657.102-1.28.102-1.87 0-1.7-.368-3.224-1.105-4.573-.737-1.349-1.785-2.408-3.145-3.179-1.36-.77-2.924-1.156-4.692-1.156-1.813 0-3.417.391-4.811 1.173-1.394.782-2.476 1.898-3.247 3.349-.77 1.45-1.156 3.14-1.156 5.066 0 1.927.397 3.621 1.19 5.083.793 1.462 1.887 2.59 3.281 3.383 1.394.793 2.975 1.19 4.743 1.19zm5.746-10.982h-11.764c.159-1.768.788-3.15 1.887-4.148 1.1-.997 2.431-1.496 3.995-1.496 1.088 0 2.08.221 2.975.663.895.442 1.604 1.088 2.125 1.938.521.85.782 1.864.782 3.043zM741.15 173v-10.302c0-1.95.482-3.434 1.445-4.454.963-1.02 2.261-1.53 3.893-1.53 1.61 0 2.879.493 3.808 1.479.93.986 1.394 2.408 1.394 4.267V173h3.06v-10.982c0-2.584-.703-4.562-2.108-5.933-1.405-1.371-3.241-2.057-5.508-2.057-1.27 0-2.431.26-3.485.782-1.054.521-1.887 1.258-2.499 2.21v-2.652h-3.094V173h3.094zm27.302 0v-2.618h-2.278c-.952 0-1.62-.187-2.006-.561-.385-.374-.578-1.014-.578-1.921v-10.982h4.862v-2.55h-4.862v-4.692h-3.094v4.692h-2.414v2.55h2.414V167.9c0 1.813.43 3.117 1.292 3.91.861.793 2.153 1.19 3.876 1.19h2.788z" transform="translate(-217 -2062) translate(217 2062)"/>
                <path fill="#599CB1" d="M402.384 74.144c1.824 0 3.416-.436 4.776-1.308 1.36-.872 2.352-2.108 2.976-3.708h-2.616c-.464 1.008-1.132 1.78-2.004 2.316-.872.536-1.916.804-3.132.804-1.168 0-2.216-.272-3.144-.816-.928-.544-1.656-1.316-2.184-2.316-.528-1-.792-2.164-.792-3.492 0-1.344.264-2.516.792-3.516s1.256-1.772 2.184-2.316c.928-.544 1.976-.816 3.144-.816 1.216 0 2.26.272 3.132.816.872.544 1.54 1.32 2.004 2.328h2.616c-.624-1.616-1.616-2.864-2.976-3.744-1.36-.88-2.952-1.32-4.776-1.32-1.552 0-2.964.368-4.236 1.104-1.272.736-2.276 1.756-3.012 3.06-.736 1.304-1.104 2.772-1.104 4.404 0 1.632.368 3.096 1.104 4.392.736 1.296 1.74 2.308 3.012 3.036 1.272.728 2.684 1.092 4.236 1.092zm16.728.072c1.248 0 2.384-.28 3.408-.84 1.024-.56 1.836-1.356 2.436-2.388.6-1.032.9-2.228.9-3.588 0-1.36-.292-2.552-.876-3.576-.584-1.024-1.38-1.812-2.388-2.364-1.008-.552-2.136-.828-3.384-.828-1.248 0-2.376.276-3.384.828-1.008.552-1.804 1.344-2.388 2.376-.584 1.032-.876 2.22-.876 3.564 0 1.36.284 2.556.852 3.588.568 1.032 1.352 1.828 2.352 2.388 1 .56 2.116.84 3.348.84zm0-1.92c-.784 0-1.504-.18-2.16-.54-.656-.36-1.18-.908-1.572-1.644-.392-.736-.588-1.64-.588-2.712 0-1.056.2-1.952.6-2.688.4-.736.932-1.284 1.596-1.644.664-.36 1.396-.54 2.196-.54.784 0 1.512.18 2.184.54.672.36 1.216.908 1.632 1.644.416.736.624 1.632.624 2.688 0 1.056-.212 1.952-.636 2.688-.424.736-.98 1.288-1.668 1.656-.688.368-1.424.552-2.208.552zM430.92 74V56.24h-2.184V74h2.184zm5.904 0V56.24h-2.184V74h2.184zm9.12.216c1.136 0 2.132-.252 2.988-.756.856-.504 1.5-1.14 1.932-1.908V74h2.208V60.848h-2.208v2.4c-.416-.752-1.048-1.376-1.896-1.872-.848-.496-1.848-.744-3-.744-1.168 0-2.228.28-3.18.84-.952.56-1.7 1.348-2.244 2.364-.544 1.016-.816 2.196-.816 3.54 0 1.328.272 2.512.816 3.552.544 1.04 1.288 1.848 2.232 2.424.944.576 2 .864 3.168.864zm.456-1.92c-.816 0-1.56-.196-2.232-.588-.672-.392-1.208-.96-1.608-1.704-.4-.744-.6-1.62-.6-2.628 0-.992.2-1.856.6-2.592.4-.736.936-1.296 1.608-1.68.672-.384 1.416-.576 2.232-.576.816 0 1.564.196 2.244.588.68.392 1.22.956 1.62 1.692.4.736.6 1.6.6 2.592s-.2 1.86-.6 2.604c-.4.744-.94 1.312-1.62 1.704-.68.392-1.428.588-2.244.588zm17.472 1.92c1.168 0 2.228-.288 3.18-.864.952-.576 1.7-1.384 2.244-2.424.544-1.04.816-2.224.816-3.552 0-1.344-.272-2.524-.816-3.54-.544-1.016-1.288-1.804-2.232-2.364-.944-.56-2.008-.84-3.192-.84-1.104 0-2.088.248-2.952.744-.864.496-1.52 1.136-1.968 1.92V56.24h-2.184V74h2.184v-2.424c.432.768 1.076 1.4 1.932 1.896.856.496 1.852.744 2.988.744zm-.456-1.92c-.8 0-1.54-.196-2.22-.588-.68-.392-1.224-.96-1.632-1.704-.408-.744-.612-1.612-.612-2.604 0-.976.204-1.836.612-2.58.408-.744.952-1.312 1.632-1.704.68-.392 1.42-.588 2.22-.588.816 0 1.564.192 2.244.576.68.384 1.22.944 1.62 1.68.4.736.6 1.6.6 2.592 0 1.008-.2 1.884-.6 2.628-.4.744-.94 1.312-1.62 1.704-.68.392-1.428.588-2.244.588zm15.312 1.92c1.248 0 2.384-.28 3.408-.84 1.024-.56 1.836-1.356 2.436-2.388.6-1.032.9-2.228.9-3.588 0-1.36-.292-2.552-.876-3.576-.584-1.024-1.38-1.812-2.388-2.364-1.008-.552-2.136-.828-3.384-.828-1.248 0-2.376.276-3.384.828-1.008.552-1.804 1.344-2.388 2.376-.584 1.032-.876 2.22-.876 3.564 0 1.36.284 2.556.852 3.588.568 1.032 1.352 1.828 2.352 2.388 1 .56 2.116.84 3.348.84zm0-1.92c-.784 0-1.504-.18-2.16-.54-.656-.36-1.18-.908-1.572-1.644-.392-.736-.588-1.64-.588-2.712 0-1.056.2-1.952.6-2.688.4-.736.932-1.284 1.596-1.644.664-.36 1.396-.54 2.196-.54.784 0 1.512.18 2.184.54.672.36 1.216.908 1.632 1.644.416.736.624 1.632.624 2.688 0 1.056-.212 1.952-.636 2.688-.424.736-.98 1.288-1.668 1.656-.688.368-1.424.552-2.208.552zM490.536 74v-7.152c0-2.656 1.224-3.984 3.672-3.984h.576v-2.256c-1.024 0-1.892.208-2.604.624-.712.416-1.26 1-1.644 1.752v-2.136h-2.184V74h2.184zm12.168.216c1.136 0 2.132-.252 2.988-.756.856-.504 1.5-1.14 1.932-1.908V74h2.208V60.848h-2.208v2.4c-.416-.752-1.048-1.376-1.896-1.872-.848-.496-1.848-.744-3-.744-1.168 0-2.228.28-3.18.84-.952.56-1.7 1.348-2.244 2.364-.544 1.016-.816 2.196-.816 3.54 0 1.328.272 2.512.816 3.552.544 1.04 1.288 1.848 2.232 2.424.944.576 2 .864 3.168.864zm.456-1.92c-.816 0-1.56-.196-2.232-.588-.672-.392-1.208-.96-1.608-1.704-.4-.744-.6-1.62-.6-2.628 0-.992.2-1.856.6-2.592.4-.736.936-1.296 1.608-1.68.672-.384 1.416-.576 2.232-.576.816 0 1.564.196 2.244.588.68.392 1.22.956 1.62 1.692.4.736.6 1.6.6 2.592s-.2 1.86-.6 2.604c-.4.744-.94 1.312-1.62 1.704-.68.392-1.428.588-2.244.588zM519.624 74v-1.848h-1.608c-.672 0-1.144-.132-1.416-.396s-.408-.716-.408-1.356v-7.752h3.432v-1.8h-3.432v-3.312h-2.184v3.312h-1.704v1.8h1.704V70.4c0 1.28.304 2.2.912 2.76.608.56 1.52.84 2.736.84h1.968zm3.768-15.288c.4 0 .74-.144 1.02-.432.28-.288.42-.64.42-1.056 0-.416-.14-.768-.42-1.056-.28-.288-.62-.432-1.02-.432-.416 0-.768.144-1.056.432-.288.288-.432.64-.432 1.056 0 .416.144.768.432 1.056.288.288.64.432 1.056.432zM524.448 74V60.848h-2.184V74h2.184zm9.456.216c1.248 0 2.384-.28 3.408-.84 1.024-.56 1.836-1.356 2.436-2.388.6-1.032.9-2.228.9-3.588 0-1.36-.292-2.552-.876-3.576-.584-1.024-1.38-1.812-2.388-2.364-1.008-.552-2.136-.828-3.384-.828-1.248 0-2.376.276-3.384.828-1.008.552-1.804 1.344-2.388 2.376-.584 1.032-.876 2.22-.876 3.564 0 1.36.284 2.556.852 3.588.568 1.032 1.352 1.828 2.352 2.388 1 .56 2.116.84 3.348.84zm0-1.92c-.784 0-1.504-.18-2.16-.54-.656-.36-1.18-.908-1.572-1.644-.392-.736-.588-1.64-.588-2.712 0-1.056.2-1.952.6-2.688.4-.736.932-1.284 1.596-1.644.664-.36 1.396-.54 2.196-.54.784 0 1.512.18 2.184.54.672.36 1.216.908 1.632 1.644.416.736.624 1.632.624 2.688 0 1.056-.212 1.952-.636 2.688-.424.736-.98 1.288-1.668 1.656-.688.368-1.424.552-2.208.552zM545.712 74v-7.272c0-1.376.34-2.424 1.02-3.144.68-.72 1.596-1.08 2.748-1.08 1.136 0 2.032.348 2.688 1.044.656.696.984 1.7.984 3.012V74h2.16v-7.752c0-1.824-.496-3.22-1.488-4.188-.992-.968-2.288-1.452-3.888-1.452-.896 0-1.716.184-2.46.552-.744.368-1.332.888-1.764 1.56v-1.872h-2.184V74h2.184z" transform="translate(-217 -2062) translate(217 2062)"/>
                <path fill="#1D7691" d="M9.072 190v-37.638H4.158V190h4.914zm13.284 0v-16.362c0-3.096.765-5.454 2.295-7.074 1.53-1.62 3.591-2.43 6.183-2.43 2.556 0 4.572.783 6.048 2.349 1.476 1.566 2.214 3.825 2.214 6.777V190h4.86v-17.442c0-4.104-1.116-7.245-3.348-9.423-2.232-2.178-5.148-3.267-8.748-3.267-2.016 0-3.861.414-5.535 1.242-1.674.828-2.997 1.998-3.969 3.51v-4.212h-4.914V190h4.914zm34.56 0v-16.362c0-3.096.765-5.454 2.295-7.074 1.53-1.62 3.591-2.43 6.183-2.43 2.556 0 4.572.783 6.048 2.349 1.476 1.566 2.214 3.825 2.214 6.777V190h4.86v-17.442c0-4.104-1.116-7.245-3.348-9.423-2.232-2.178-5.148-3.267-8.748-3.267-2.016 0-3.861.414-5.535 1.242-1.674.828-2.997 1.998-3.969 3.51v-4.212h-4.914V190h4.914zm42.552.486c2.808 0 5.364-.63 7.668-1.89 2.304-1.26 4.131-3.051 5.481-5.373 1.35-2.322 2.025-5.013 2.025-8.073 0-3.06-.657-5.742-1.971-8.046-1.314-2.304-3.105-4.077-5.373-5.319-2.268-1.242-4.806-1.863-7.614-1.863s-5.346.621-7.614 1.863-4.059 3.024-5.373 5.346-1.971 4.995-1.971 8.019c0 3.06.639 5.751 1.917 8.073s3.042 4.113 5.292 5.373c2.25 1.26 4.761 1.89 7.533 1.89zm0-4.32c-1.764 0-3.384-.405-4.86-1.215-1.476-.81-2.655-2.043-3.537-3.699-.882-1.656-1.323-3.69-1.323-6.102 0-2.376.45-4.392 1.35-6.048.9-1.656 2.097-2.889 3.591-3.699 1.494-.81 3.141-1.215 4.941-1.215 1.764 0 3.402.405 4.914 1.215 1.512.81 2.736 2.043 3.672 3.699.936 1.656 1.404 3.672 1.404 6.048s-.477 4.392-1.431 6.048c-.954 1.656-2.205 2.898-3.753 3.726-1.548.828-3.204 1.242-4.968 1.242zM134.946 190l11.61-29.592h-5.238l-9.18 25.056-9.234-25.056h-5.292L129.222 190h5.724zm28.62.486c2.556 0 4.797-.567 6.723-1.701 1.926-1.134 3.375-2.565 4.347-4.293V190h4.968v-29.592h-4.968v5.4c-.936-1.692-2.358-3.096-4.266-4.212-1.908-1.116-4.158-1.674-6.75-1.674-2.628 0-5.013.63-7.155 1.89-2.142 1.26-3.825 3.033-5.049 5.319-1.224 2.286-1.836 4.941-1.836 7.965 0 2.988.612 5.652 1.836 7.992 1.224 2.34 2.898 4.158 5.022 5.454 2.124 1.296 4.5 1.944 7.128 1.944zm1.026-4.32c-1.836 0-3.51-.441-5.022-1.323-1.512-.882-2.718-2.16-3.618-3.834-.9-1.674-1.35-3.645-1.35-5.913 0-2.232.45-4.176 1.35-5.832.9-1.656 2.106-2.916 3.618-3.78 1.512-.864 3.186-1.296 5.022-1.296 1.836 0 3.519.441 5.049 1.323 1.53.882 2.745 2.151 3.645 3.807.9 1.656 1.35 3.6 1.35 5.832 0 2.232-.45 4.185-1.35 5.859-.9 1.674-2.115 2.952-3.645 3.834-1.53.882-3.213 1.323-5.049 1.323zM201.636 190v-4.158h-3.618c-1.512 0-2.574-.297-3.186-.891-.612-.594-.918-1.611-.918-3.051v-17.442h7.722v-4.05h-7.722v-7.452H189v7.452h-3.834v4.05H189V181.9c0 2.88.684 4.95 2.052 6.21 1.368 1.26 3.42 1.89 6.156 1.89h4.428zm8.478-34.398c.9 0 1.665-.324 2.295-.972.63-.648.945-1.44.945-2.376 0-.936-.315-1.728-.945-2.376-.63-.648-1.395-.972-2.295-.972-.936 0-1.728.324-2.376.972-.648.648-.972 1.44-.972 2.376 0 .936.324 1.728.972 2.376.648.648 1.44.972 2.376.972zM212.49 190v-29.592h-4.914V190h4.914zm21.276.486c2.808 0 5.364-.63 7.668-1.89 2.304-1.26 4.131-3.051 5.481-5.373 1.35-2.322 2.025-5.013 2.025-8.073 0-3.06-.657-5.742-1.971-8.046-1.314-2.304-3.105-4.077-5.373-5.319-2.268-1.242-4.806-1.863-7.614-1.863s-5.346.621-7.614 1.863-4.059 3.024-5.373 5.346-1.971 4.995-1.971 8.019c0 3.06.639 5.751 1.917 8.073s3.042 4.113 5.292 5.373c2.25 1.26 4.761 1.89 7.533 1.89zm0-4.32c-1.764 0-3.384-.405-4.86-1.215-1.476-.81-2.655-2.043-3.537-3.699-.882-1.656-1.323-3.69-1.323-6.102 0-2.376.45-4.392 1.35-6.048.9-1.656 2.097-2.889 3.591-3.699 1.494-.81 3.141-1.215 4.941-1.215 1.764 0 3.402.405 4.914 1.215 1.512.81 2.736 2.043 3.672 3.699.936 1.656 1.404 3.672 1.404 6.048s-.477 4.392-1.431 6.048c-.954 1.656-2.205 2.898-3.753 3.726-1.548.828-3.204 1.242-4.968 1.242zM260.334 190v-16.362c0-3.096.765-5.454 2.295-7.074 1.53-1.62 3.591-2.43 6.183-2.43 2.556 0 4.572.783 6.048 2.349 1.476 1.566 2.214 3.825 2.214 6.777V190h4.86v-17.442c0-4.104-1.116-7.245-3.348-9.423-2.232-2.178-5.148-3.267-8.748-3.267-2.016 0-3.861.414-5.535 1.242-1.674.828-2.997 1.998-3.969 3.51v-4.212h-4.914V190h4.914zM615.752 83V62.776h22.72V83h5.824V38.392h-5.824v19.584h-22.72V38.392h-5.824V83h5.824zm53.632.576c4.181 0 7.68-1.056 10.496-3.168 2.816-2.112 4.693-4.853 5.632-8.224h-6.272c-.683 1.963-1.867 3.53-3.552 4.704-1.685 1.173-3.787 1.76-6.304 1.76-3.072 0-5.685-.97-7.84-2.912-2.155-1.941-3.339-4.64-3.552-8.096h28.032c.128-1.237.192-2.41.192-3.52 0-3.2-.693-6.07-2.08-8.608-1.387-2.539-3.36-4.533-5.92-5.984-2.56-1.45-5.504-2.176-8.832-2.176-3.413 0-6.432.736-9.056 2.208-2.624 1.472-4.661 3.573-6.112 6.304-1.45 2.73-2.176 5.91-2.176 9.536 0 3.627.747 6.816 2.24 9.568 1.493 2.752 3.552 4.875 6.176 6.368 2.624 1.493 5.6 2.24 8.928 2.24zM680.2 62.904h-22.144c.299-3.328 1.483-5.93 3.552-7.808 2.07-1.877 4.576-2.816 7.52-2.816 2.048 0 3.915.416 5.6 1.248 1.685.832 3.019 2.048 4 3.648.981 1.6 1.472 3.51 1.472 5.728zm28.096 20.672c3.03 0 5.685-.672 7.968-2.016 2.283-1.344 4-3.04 5.152-5.088V83h5.888V47.928h-5.888v6.4c-1.11-2.005-2.795-3.67-5.056-4.992-2.261-1.323-4.928-1.984-8-1.984-3.115 0-5.941.747-8.48 2.24-2.539 1.493-4.533 3.595-5.984 6.304-1.45 2.71-2.176 5.856-2.176 9.44 0 3.541.725 6.699 2.176 9.472 1.45 2.773 3.435 4.928 5.952 6.464 2.517 1.536 5.333 2.304 8.448 2.304zm1.216-5.12c-2.176 0-4.16-.523-5.952-1.568-1.792-1.045-3.221-2.56-4.288-4.544-1.067-1.984-1.6-4.32-1.6-7.008 0-2.645.533-4.95 1.6-6.912 1.067-1.963 2.496-3.456 4.288-4.48 1.792-1.024 3.776-1.536 5.952-1.536s4.17.523 5.984 1.568c1.813 1.045 3.253 2.55 4.32 4.512 1.067 1.963 1.6 4.267 1.6 6.912 0 2.645-.533 4.96-1.6 6.944-1.067 1.984-2.507 3.499-4.32 4.544-1.813 1.045-3.808 1.568-5.984 1.568zM742.984 83V35.64h-5.824V83h5.824zm26.176 0v-4.928h-4.288c-1.792 0-3.05-.352-3.776-1.056-.725-.704-1.088-1.91-1.088-3.616V52.728h9.152v-4.8h-9.152v-8.832h-5.824v8.832h-4.544v4.8h4.544V73.4c0 3.413.81 5.867 2.432 7.36 1.621 1.493 4.053 2.24 7.296 2.24h5.248zm12.864 0V63.608c0-3.67.907-6.464 2.72-8.384 1.813-1.92 4.256-2.88 7.328-2.88 3.03 0 5.419.928 7.168 2.784 1.75 1.856 2.624 4.533 2.624 8.032V83h5.76V62.328c0-3.243-.608-5.995-1.824-8.256-1.216-2.261-2.89-3.957-5.024-5.088-2.133-1.13-4.523-1.696-7.168-1.696-2.517 0-4.79.49-6.816 1.472-2.027.981-3.616 2.368-4.768 4.16V35.64H776.2V83h5.824z" transform="translate(-217 -2062) translate(217 2062)"/>
                <path fill="#2B7991" d="M90.82 82c2.28 0 4.255-.415 5.925-1.245 1.67-.83 2.95-2.03 3.84-3.6.89-1.57 1.335-3.425 1.335-5.565 0-2.14-.445-4-1.335-5.58-.89-1.58-2.17-2.795-3.84-3.645-1.67-.85-3.645-1.275-5.925-1.275h-6.51V82h6.51zm0-2.25h-3.78V63.31h3.78c2.68 0 4.735.73 6.165 2.19 1.43 1.46 2.145 3.49 2.145 6.09 0 2.58-.71 4.585-2.13 6.015-1.42 1.43-3.48 2.145-6.18 2.145zm16.11-16.86c.5 0 .925-.18 1.275-.54.35-.36.525-.8.525-1.32s-.175-.96-.525-1.32c-.35-.36-.775-.54-1.275-.54-.52 0-.96.18-1.32.54-.36.36-.54.8-.54 1.32s.18.96.54 1.32c.36.36.8.54 1.32.54zM108.25 82V65.56h-2.73V82h2.73zm12.33 0l6.45-16.44h-2.91l-5.1 13.92-5.13-13.92h-2.94L117.4 82h3.18zm16.26.27c1.96 0 3.6-.495 4.92-1.485 1.32-.99 2.2-2.275 2.64-3.855h-2.94c-.32.92-.875 1.655-1.665 2.205s-1.775.825-2.955.825c-1.44 0-2.665-.455-3.675-1.365-1.01-.91-1.565-2.175-1.665-3.795h13.14c.06-.58.09-1.13.09-1.65 0-1.5-.325-2.845-.975-4.035-.65-1.19-1.575-2.125-2.775-2.805-1.2-.68-2.58-1.02-4.14-1.02-1.6 0-3.015.345-4.245 1.035S130.41 68 129.73 69.28c-.68 1.28-1.02 2.77-1.02 4.47 0 1.7.35 3.195 1.05 4.485.7 1.29 1.665 2.285 2.895 2.985 1.23.7 2.625 1.05 4.185 1.05zm5.07-9.69h-10.38c.14-1.56.695-2.78 1.665-3.66.97-.88 2.145-1.32 3.525-1.32.96 0 1.835.195 2.625.585.79.39 1.415.96 1.875 1.71.46.75.69 1.645.69 2.685zm9.15 9.42v-8.94c0-3.32 1.53-4.98 4.59-4.98h.72v-2.82c-1.28 0-2.365.26-3.255.78-.89.52-1.575 1.25-2.055 2.19v-2.67h-2.73V82h2.73zm14.28.27c1.18 0 2.225-.205 3.135-.615.91-.41 1.615-.975 2.115-1.695.5-.72.75-1.53.75-2.43-.02-1-.295-1.81-.825-2.43-.53-.62-1.165-1.085-1.905-1.395-.74-.31-1.7-.625-2.88-.945-.94-.26-1.675-.495-2.205-.705-.53-.21-.97-.49-1.32-.84-.35-.35-.525-.795-.525-1.335 0-.68.29-1.23.87-1.65.58-.42 1.36-.63 2.34-.63 1.06 0 1.905.26 2.535.78.63.52.975 1.21 1.035 2.07h2.73c-.08-1.6-.68-2.86-1.8-3.78-1.12-.92-2.59-1.38-4.41-1.38-1.18 0-2.23.205-3.15.615-.92.41-1.63.965-2.13 1.665-.5.7-.75 1.47-.75 2.31 0 1.06.275 1.915.825 2.565.55.65 1.21 1.14 1.98 1.47.77.33 1.765.655 2.985.975 1.34.34 2.33.685 2.97 1.035.64.35.96.885.96 1.605 0 .7-.3 1.28-.9 1.74-.6.46-1.42.69-2.46.69-1.12 0-2.025-.26-2.715-.78s-1.075-1.19-1.155-2.01h-2.82c.06 1 .38 1.885.96 2.655.58.77 1.37 1.37 2.37 1.8 1 .43 2.13.645 3.39.645zm11.25-19.38c.5 0 .925-.18 1.275-.54.35-.36.525-.8.525-1.32s-.175-.96-.525-1.32c-.35-.36-.775-.54-1.275-.54-.52 0-.96.18-1.32.54-.36.36-.54.8-.54 1.32s.18.96.54 1.32c.36.36.8.54 1.32.54zM177.91 82V65.56h-2.73V82h2.73zm12.27 0v-2.31h-2.01c-.84 0-1.43-.165-1.77-.495-.34-.33-.51-.895-.51-1.695v-9.69h4.29v-2.25h-4.29v-4.14h-2.73v4.14h-2.13v2.25h2.13v9.69c0 1.6.38 2.75 1.14 3.45.76.7 1.9 1.05 3.42 1.05h2.46zm7.56 7.74l9.9-24.18h-2.82l-5.1 13.32-5.16-13.32h-3.03l6.63 16.26-3.24 7.92h2.82zm26.76-7.38c1.46 0 2.77-.255 3.93-.765 1.16-.51 2.25-1.295 3.27-2.355l2.73 2.76H238l-4.71-4.71c.46-.66.86-1.29 1.2-1.89l2.46-4.26h-2.94l-2.04 3.42-.54.84-6.24-6.27c-.78-.82-1.335-1.51-1.665-2.07-.33-.56-.495-1.14-.495-1.74 0-.7.245-1.275.735-1.725.49-.45 1.135-.675 1.935-.675.76 0 1.38.235 1.86.705.48.47.71 1.115.69 1.935h2.73c.04-.92-.14-1.755-.54-2.505s-1-1.335-1.8-1.755c-.8-.42-1.74-.63-2.82-.63-1.1 0-2.07.2-2.91.6-.84.4-1.485.955-1.935 1.665-.45.71-.675 1.505-.675 2.385 0 .76.14 1.46.42 2.1.28.64.74 1.34 1.38 2.1-1.62.64-2.845 1.515-3.675 2.625-.83 1.11-1.245 2.395-1.245 3.855 0 1.28.305 2.4.915 3.36.61.96 1.47 1.7 2.58 2.22 1.11.52 2.385.78 3.825.78zm0-2.34c-1.36 0-2.465-.39-3.315-1.17-.85-.78-1.275-1.76-1.275-2.94 0-2.12 1.28-3.67 3.84-4.65l6.15 6.18c-.78.88-1.605 1.53-2.475 1.95-.87.42-1.845.63-2.925.63zM251.29 82V61.09h-2.73V82h2.73zm7.38 0v-9.09c0-1.72.425-3.03 1.275-3.93.85-.9 1.995-1.35 3.435-1.35 1.42 0 2.54.435 3.36 1.305.82.87 1.23 2.125 1.23 3.765V82h2.7v-9.69c0-2.28-.62-4.025-1.86-5.235-1.24-1.21-2.86-1.815-4.86-1.815-1.12 0-2.145.23-3.075.69-.93.46-1.665 1.11-2.205 1.95v-2.34h-2.73V82h2.73zm23.46.27c1.98 0 3.63-.505 4.95-1.515 1.32-1.01 2.2-2.355 2.64-4.035h-2.94c-.3 1.04-.85 1.84-1.65 2.4-.8.56-1.8.84-3 .84-1.56 0-2.82-.54-3.78-1.62s-1.44-2.61-1.44-4.59c0-1.96.48-3.475 1.44-4.545.96-1.07 2.22-1.605 3.78-1.605 1.2 0 2.205.29 3.015.87.81.58 1.355 1.37 1.635 2.37h2.94c-.42-1.74-1.285-3.1-2.595-4.08-1.31-.98-2.975-1.47-4.995-1.47-1.56 0-2.945.35-4.155 1.05-1.21.7-2.155 1.685-2.835 2.955-.68 1.27-1.02 2.755-1.02 4.455 0 1.72.34 3.22 1.02 4.5.68 1.28 1.625 2.27 2.835 2.97 1.21.7 2.595 1.05 4.155 1.05zm13.95-.27V59.8h-2.73V82h2.73zm11.25.24c1.12 0 2.145-.235 3.075-.705.93-.47 1.655-1.125 2.175-1.965V82h2.73V65.56h-2.73v9.03c0 1.72-.42 3.03-1.26 3.93-.84.9-1.99 1.35-3.45 1.35-1.42 0-2.54-.435-3.36-1.305-.82-.87-1.23-2.115-1.23-3.735v-9.27h-2.7v9.63c0 1.52.295 2.81.885 3.87.59 1.06 1.395 1.855 2.415 2.385 1.02.53 2.17.795 3.45.795zm18.42.03c1.18 0 2.225-.205 3.135-.615.91-.41 1.615-.975 2.115-1.695.5-.72.75-1.53.75-2.43-.02-1-.295-1.81-.825-2.43-.53-.62-1.165-1.085-1.905-1.395-.74-.31-1.7-.625-2.88-.945-.94-.26-1.675-.495-2.205-.705-.53-.21-.97-.49-1.32-.84-.35-.35-.525-.795-.525-1.335 0-.68.29-1.23.87-1.65.58-.42 1.36-.63 2.34-.63 1.06 0 1.905.26 2.535.78.63.52.975 1.21 1.035 2.07h2.73c-.08-1.6-.68-2.86-1.8-3.78-1.12-.92-2.59-1.38-4.41-1.38-1.18 0-2.23.205-3.15.615-.92.41-1.63.965-2.13 1.665-.5.7-.75 1.47-.75 2.31 0 1.06.275 1.915.825 2.565.55.65 1.21 1.14 1.98 1.47.77.33 1.765.655 2.985.975 1.34.34 2.33.685 2.97 1.035.64.35.96.885.96 1.605 0 .7-.3 1.28-.9 1.74-.6.46-1.42.69-2.46.69-1.12 0-2.025-.26-2.715-.78s-1.075-1.19-1.155-2.01h-2.82c.06 1 .38 1.885.96 2.655.58.77 1.37 1.37 2.37 1.8 1 .43 2.13.645 3.39.645zM337 62.89c.5 0 .925-.18 1.275-.54.35-.36.525-.8.525-1.32s-.175-.96-.525-1.32c-.35-.36-.775-.54-1.275-.54-.52 0-.96.18-1.32.54-.36.36-.54.8-.54 1.32s.18.96.54 1.32c.36.36.8.54 1.32.54zM338.32 82V65.56h-2.73V82h2.73zm11.82.27c1.56 0 2.98-.35 4.26-1.05 1.28-.7 2.295-1.695 3.045-2.985.75-1.29 1.125-2.785 1.125-4.485 0-1.7-.365-3.19-1.095-4.47-.73-1.28-1.725-2.265-2.985-2.955-1.26-.69-2.67-1.035-4.23-1.035-1.56 0-2.97.345-4.23 1.035-1.26.69-2.255 1.68-2.985 2.97-.73 1.29-1.095 2.775-1.095 4.455 0 1.7.355 3.195 1.065 4.485.71 1.29 1.69 2.285 2.94 2.985 1.25.7 2.645 1.05 4.185 1.05zm0-2.4c-.98 0-1.88-.225-2.7-.675-.82-.45-1.475-1.135-1.965-2.055-.49-.92-.735-2.05-.735-3.39 0-1.32.25-2.44.75-3.36.5-.92 1.165-1.605 1.995-2.055.83-.45 1.745-.675 2.745-.675.98 0 1.89.225 2.73.675.84.45 1.52 1.135 2.04 2.055.52.92.78 2.04.78 3.36 0 1.32-.265 2.44-.795 3.36-.53.92-1.225 1.61-2.085 2.07-.86.46-1.78.69-2.76.69zM364.9 82v-9.09c0-1.72.425-3.03 1.275-3.93.85-.9 1.995-1.35 3.435-1.35 1.42 0 2.54.435 3.36 1.305.82.87 1.23 2.125 1.23 3.765V82h2.7v-9.69c0-2.28-.62-4.025-1.86-5.235-1.24-1.21-2.86-1.815-4.86-1.815-1.12 0-2.145.23-3.075.69-.93.46-1.665 1.11-2.205 1.95v-2.34h-2.73V82h2.73z" transform="translate(-217 -2062) translate(217 2062)"/>
                <path fill="#599CB1" d="M335.888 129v-3.3h-12.496v-10.56h11.176v-3.3h-11.176v-10.252h12.496v-3.3h-16.5V129h16.5zm10.076 0v-13.288c0-2.523.616-4.451 1.848-5.786 1.232-1.335 2.89-2.002 4.972-2.002 2.024 0 3.63.638 4.818 1.914 1.188 1.276 1.782 3.117 1.782 5.522V129h3.96v-13.288c0-2.523.616-4.451 1.848-5.786 1.232-1.335 2.89-2.002 4.972-2.002 2.024 0 3.63.638 4.818 1.914 1.188 1.276 1.782 3.117 1.782 5.522V129h3.96v-14.212c0-2.23-.425-4.121-1.276-5.676-.85-1.555-2.01-2.72-3.476-3.498-1.467-.777-3.139-1.166-5.016-1.166-1.907 0-3.637.47-5.192 1.408-1.555.939-2.67 2.259-3.344 3.96-.763-1.76-1.921-3.095-3.476-4.004-1.555-.91-3.344-1.364-5.368-1.364-1.613 0-3.087.337-4.422 1.012-1.335.675-2.398 1.643-3.19 2.904v-3.476h-4.004V129h4.004zm45.32 11.44v-15.884c.821 1.379 2.017 2.53 3.586 3.454 1.57.924 3.38 1.386 5.434 1.386 2.141 0 4.085-.528 5.83-1.584s3.117-2.537 4.114-4.444c.997-1.907 1.496-4.077 1.496-6.512 0-2.464-.499-4.627-1.496-6.49-.997-1.863-2.369-3.307-4.114-4.334-1.745-1.027-3.689-1.54-5.83-1.54-2.083 0-3.909.462-5.478 1.386-1.57.924-2.75 2.075-3.542 3.454v-4.444h-4.004v35.552h4.004zm8.184-14.564c-1.467 0-2.823-.36-4.07-1.078-1.247-.719-2.244-1.76-2.992-3.124-.748-1.364-1.122-2.955-1.122-4.774 0-1.79.374-3.366 1.122-4.73.748-1.364 1.745-2.405 2.992-3.124 1.247-.719 2.603-1.078 4.07-1.078 1.496 0 2.867.352 4.114 1.056 1.247.704 2.237 1.73 2.97 3.08.733 1.35 1.1 2.933 1.1 4.752 0 1.848-.367 3.454-1.1 4.818-.733 1.364-1.723 2.405-2.97 3.124-1.247.719-2.618 1.078-4.114 1.078zm28.072 3.52c2.288 0 4.37-.513 6.248-1.54 1.877-1.027 3.366-2.486 4.466-4.378s1.65-4.085 1.65-6.578c0-2.493-.535-4.679-1.606-6.556-1.07-1.877-2.53-3.322-4.378-4.334-1.848-1.012-3.916-1.518-6.204-1.518s-4.356.506-6.204 1.518c-1.848 1.012-3.307 2.464-4.378 4.356-1.07 1.892-1.606 4.07-1.606 6.534 0 2.493.52 4.686 1.562 6.578 1.041 1.892 2.479 3.351 4.312 4.378 1.833 1.027 3.88 1.54 6.138 1.54zm0-3.52c-1.437 0-2.757-.33-3.96-.99-1.203-.66-2.163-1.665-2.882-3.014-.719-1.35-1.078-3.007-1.078-4.972 0-1.936.367-3.579 1.1-4.928.733-1.35 1.709-2.354 2.926-3.014 1.217-.66 2.56-.99 4.026-.99 1.437 0 2.772.33 4.004.99 1.232.66 2.23 1.665 2.992 3.014.763 1.35 1.144 2.992 1.144 4.928s-.389 3.579-1.166 4.928c-.777 1.35-1.797 2.361-3.058 3.036-1.261.675-2.61 1.012-4.048 1.012zM454.028 129l5.808-19.14 5.808 19.14h4.136l7.524-24.112h-3.96l-5.456 20.284-5.852-20.284h-4.092l-5.984 20.24-5.544-20.24h-4.092L449.892 129h4.136zm37.664.396c2.875 0 5.28-.726 7.216-2.178s3.227-3.337 3.872-5.654h-4.312c-.47 1.35-1.283 2.427-2.442 3.234-1.159.807-2.603 1.21-4.334 1.21-2.112 0-3.909-.667-5.39-2.002-1.481-1.335-2.295-3.19-2.442-5.566h19.272c.088-.85.132-1.657.132-2.42 0-2.2-.477-4.173-1.43-5.918s-2.31-3.117-4.07-4.114c-1.76-.997-3.784-1.496-6.072-1.496-2.347 0-4.422.506-6.226 1.518-1.804 1.012-3.205 2.457-4.202 4.334-.997 1.877-1.496 4.063-1.496 6.556 0 2.493.513 4.686 1.54 6.578 1.027 1.892 2.442 3.351 4.246 4.378 1.804 1.027 3.85 1.54 6.138 1.54zm7.436-14.212h-15.224c.205-2.288 1.02-4.077 2.442-5.368 1.423-1.29 3.146-1.936 5.17-1.936 1.408 0 2.691.286 3.85.858 1.159.572 2.075 1.408 2.75 2.508.675 1.1 1.012 2.413 1.012 3.938zM512.548 129v-13.112c0-4.87 2.244-7.304 6.732-7.304h1.056v-4.136c-1.877 0-3.469.381-4.774 1.144-1.305.763-2.31 1.833-3.014 3.212v-3.916h-4.004V129h4.004zm16.412 0v-13.288c0-2.523.616-4.451 1.848-5.786 1.232-1.335 2.89-2.002 4.972-2.002 2.024 0 3.63.638 4.818 1.914 1.188 1.276 1.782 3.117 1.782 5.522V129h3.96v-13.288c0-2.523.616-4.451 1.848-5.786 1.232-1.335 2.89-2.002 4.972-2.002 2.024 0 3.63.638 4.818 1.914 1.188 1.276 1.782 3.117 1.782 5.522V129h3.96v-14.212c0-2.23-.425-4.121-1.276-5.676-.85-1.555-2.01-2.72-3.476-3.498-1.467-.777-3.139-1.166-5.016-1.166-1.907 0-3.637.47-5.192 1.408-1.555.939-2.67 2.259-3.344 3.96-.763-1.76-1.921-3.095-3.476-4.004-1.555-.91-3.344-1.364-5.368-1.364-1.613 0-3.087.337-4.422 1.012-1.335.675-2.398 1.643-3.19 2.904v-3.476h-4.004V129h4.004zm51.744.396c2.875 0 5.28-.726 7.216-2.178s3.227-3.337 3.872-5.654h-4.312c-.47 1.35-1.283 2.427-2.442 3.234-1.159.807-2.603 1.21-4.334 1.21-2.112 0-3.909-.667-5.39-2.002-1.481-1.335-2.295-3.19-2.442-5.566h19.272c.088-.85.132-1.657.132-2.42 0-2.2-.477-4.173-1.43-5.918s-2.31-3.117-4.07-4.114c-1.76-.997-3.784-1.496-6.072-1.496-2.347 0-4.422.506-6.226 1.518-1.804 1.012-3.205 2.457-4.202 4.334-.997 1.877-1.496 4.063-1.496 6.556 0 2.493.513 4.686 1.54 6.578 1.027 1.892 2.442 3.351 4.246 4.378 1.804 1.027 3.85 1.54 6.138 1.54zm7.436-14.212h-15.224c.205-2.288 1.02-4.077 2.442-5.368 1.423-1.29 3.146-1.936 5.17-1.936 1.408 0 2.691.286 3.85.858 1.159.572 2.075 1.408 2.75 2.508.675 1.1 1.012 2.413 1.012 3.938zM601.56 129v-13.332c0-2.523.623-4.444 1.87-5.764 1.247-1.32 2.926-1.98 5.038-1.98 2.083 0 3.725.638 4.928 1.914 1.203 1.276 1.804 3.117 1.804 5.522V129h3.96v-14.212c0-3.344-.91-5.903-2.728-7.678-1.819-1.775-4.195-2.662-7.128-2.662-1.643 0-3.146.337-4.51 1.012-1.364.675-2.442 1.628-3.234 2.86v-3.432h-4.004V129h4.004zm35.332 0v-3.388h-2.948c-1.232 0-2.097-.242-2.596-.726-.499-.484-.748-1.313-.748-2.486v-14.212h6.292v-3.3H630.6v-6.072h-4.004v6.072h-3.124v3.3h3.124V122.4c0 2.347.557 4.033 1.672 5.06 1.115 1.027 2.787 1.54 5.016 1.54h3.608z" transform="translate(-217 -2062) translate(217 2062)"/>
                <path fill="#44B7DA" d="M250.744 35V13.818h6.46v-2.516h-16.048v2.516h6.494V35h3.094zm13.362 0V24.868c0-3.763 1.734-5.644 5.202-5.644h.816v-3.196c-1.45 0-2.68.295-3.689.884-1.009.59-1.785 1.417-2.329 2.482v-3.026h-3.094V35h3.094zm17.238.306c1.61 0 3.02-.357 4.233-1.071 1.213-.714 2.125-1.615 2.737-2.703V35h3.128V16.368h-3.128v3.4c-.59-1.065-1.485-1.95-2.686-2.652-1.201-.703-2.618-1.054-4.25-1.054-1.655 0-3.156.397-4.505 1.19-1.349.793-2.408 1.91-3.179 3.349-.77 1.44-1.156 3.111-1.156 5.015 0 1.881.385 3.559 1.156 5.032.77 1.473 1.825 2.618 3.162 3.434 1.337.816 2.833 1.224 4.488 1.224zm.646-2.72c-1.156 0-2.21-.278-3.162-.833-.952-.555-1.711-1.36-2.278-2.414s-.85-2.295-.85-3.723c0-1.405.283-2.63.85-3.672.567-1.043 1.326-1.836 2.278-2.38.952-.544 2.006-.816 3.162-.816 1.156 0 2.216.278 3.179.833.963.555 1.728 1.354 2.295 2.397.567 1.043.85 2.267.85 3.672 0 1.405-.283 2.635-.85 3.689-.567 1.054-1.332 1.859-2.295 2.414-.963.555-2.023.833-3.179.833zM299.772 35V24.698c0-1.95.482-3.434 1.445-4.454.963-1.02 2.261-1.53 3.893-1.53 1.61 0 2.879.493 3.808 1.479.93.986 1.394 2.408 1.394 4.267V35h3.06V24.018c0-2.584-.703-4.562-2.108-5.933-1.405-1.371-3.241-2.057-5.508-2.057-1.27 0-2.431.26-3.485.782-1.054.521-1.887 1.258-2.499 2.21v-2.652h-3.094V35h3.094zm25.262.306c1.337 0 2.522-.232 3.553-.697 1.031-.465 1.83-1.105 2.397-1.921.567-.816.85-1.734.85-2.754-.023-1.133-.334-2.051-.935-2.754-.6-.703-1.32-1.23-2.159-1.581-.839-.351-1.927-.708-3.264-1.071-1.065-.295-1.898-.561-2.499-.799-.6-.238-1.1-.555-1.496-.952-.397-.397-.595-.901-.595-1.513 0-.77.329-1.394.986-1.87.657-.476 1.541-.714 2.652-.714 1.201 0 2.159.295 2.873.884.714.59 1.105 1.371 1.173 2.346h3.094c-.09-1.813-.77-3.241-2.04-4.284-1.27-1.043-2.935-1.564-4.998-1.564-1.337 0-2.527.232-3.57.697-1.043.465-1.847 1.094-2.414 1.887-.567.793-.85 1.666-.85 2.618 0 1.201.312 2.17.935 2.907.623.737 1.371 1.292 2.244 1.666.873.374 2 .742 3.383 1.105 1.519.385 2.64.776 3.366 1.173.725.397 1.088 1.003 1.088 1.819 0 .793-.34 1.45-1.02 1.972-.68.521-1.61.782-2.788.782-1.27 0-2.295-.295-3.077-.884-.782-.59-1.218-1.349-1.309-2.278h-3.196c.068 1.133.43 2.136 1.088 3.009.657.873 1.553 1.553 2.686 2.04 1.133.487 2.414.731 3.842.731zm14.246 8.534V31.566c.635 1.065 1.558 1.955 2.771 2.669 1.213.714 2.612 1.071 4.199 1.071 1.655 0 3.156-.408 4.505-1.224 1.349-.816 2.408-1.96 3.179-3.434.77-1.473 1.156-3.15 1.156-5.032 0-1.904-.385-3.576-1.156-5.015-.77-1.44-1.83-2.556-3.179-3.349-1.349-.793-2.85-1.19-4.505-1.19-1.61 0-3.02.357-4.233 1.071-1.213.714-2.125 1.604-2.737 2.669v-3.434h-3.094V43.84h3.094zm6.324-11.254c-1.133 0-2.182-.278-3.145-.833-.963-.555-1.734-1.36-2.312-2.414-.578-1.054-.867-2.284-.867-3.689 0-1.383.289-2.601.867-3.655.578-1.054 1.349-1.859 2.312-2.414.963-.555 2.012-.833 3.145-.833 1.156 0 2.216.272 3.179.816.963.544 1.728 1.337 2.295 2.38s.85 2.267.85 3.672c0 1.428-.283 2.669-.85 3.723-.567 1.054-1.332 1.859-2.295 2.414-.963.555-2.023.833-3.179.833zm21.216 2.72c1.61 0 3.02-.357 4.233-1.071 1.213-.714 2.125-1.615 2.737-2.703V35h3.128V16.368h-3.128v3.4c-.59-1.065-1.485-1.95-2.686-2.652-1.201-.703-2.618-1.054-4.25-1.054-1.655 0-3.156.397-4.505 1.19-1.349.793-2.408 1.91-3.179 3.349-.77 1.44-1.156 3.111-1.156 5.015 0 1.881.385 3.559 1.156 5.032.77 1.473 1.825 2.618 3.162 3.434 1.337.816 2.833 1.224 4.488 1.224zm.646-2.72c-1.156 0-2.21-.278-3.162-.833-.952-.555-1.711-1.36-2.278-2.414s-.85-2.295-.85-3.723c0-1.405.283-2.63.85-3.672.567-1.043 1.326-1.836 2.278-2.38.952-.544 2.006-.816 3.162-.816 1.156 0 2.216.278 3.179.833.963.555 1.728 1.354 2.295 2.397.567 1.043.85 2.267.85 3.672 0 1.405-.283 2.635-.85 3.689-.567 1.054-1.332 1.859-2.295 2.414-.963.555-2.023.833-3.179.833zM385.248 35V24.868c0-3.763 1.734-5.644 5.202-5.644h.816v-3.196c-1.45 0-2.68.295-3.689.884-1.009.59-1.785 1.417-2.329 2.482v-3.026h-3.094V35h3.094zm17.646.306c2.221 0 4.08-.561 5.576-1.683 1.496-1.122 2.493-2.578 2.992-4.369h-3.332c-.363 1.043-.992 1.876-1.887 2.499-.895.623-2.012.935-3.349.935-1.632 0-3.02-.516-4.165-1.547s-1.774-2.465-1.887-4.301h14.892c.068-.657.102-1.28.102-1.87 0-1.7-.368-3.224-1.105-4.573-.737-1.349-1.785-2.408-3.145-3.179-1.36-.77-2.924-1.156-4.692-1.156-1.813 0-3.417.391-4.811 1.173-1.394.782-2.476 1.898-3.247 3.349-.77 1.45-1.156 3.14-1.156 5.066 0 1.927.397 3.621 1.19 5.083.793 1.462 1.887 2.59 3.281 3.383 1.394.793 2.975 1.19 4.743 1.19zm5.746-10.982h-11.764c.159-1.768.788-3.15 1.887-4.148 1.1-.997 2.431-1.496 3.995-1.496 1.088 0 2.08.221 2.975.663.895.442 1.604 1.088 2.125 1.938.521.85.782 1.864.782 3.043zM419.01 35V24.698c0-1.95.482-3.434 1.445-4.454.963-1.02 2.261-1.53 3.893-1.53 1.61 0 2.879.493 3.808 1.479.93.986 1.394 2.408 1.394 4.267V35h3.06V24.018c0-2.584-.703-4.562-2.108-5.933-1.405-1.371-3.241-2.057-5.508-2.057-1.27 0-2.431.26-3.485.782-1.054.521-1.887 1.258-2.499 2.21v-2.652h-3.094V35h3.094zm26.588.306c2.244 0 4.114-.572 5.61-1.717 1.496-1.145 2.493-2.669 2.992-4.573h-3.332c-.34 1.179-.963 2.085-1.87 2.72-.907.635-2.04.952-3.4.952-1.768 0-3.196-.612-4.284-1.836-1.088-1.224-1.632-2.958-1.632-5.202 0-2.221.544-3.938 1.632-5.151 1.088-1.213 2.516-1.819 4.284-1.819 1.36 0 2.499.329 3.417.986.918.657 1.536 1.553 1.853 2.686h3.332c-.476-1.972-1.456-3.513-2.941-4.624-1.485-1.11-3.372-1.666-5.661-1.666-1.768 0-3.338.397-4.709 1.19-1.371.793-2.442 1.91-3.213 3.349-.77 1.44-1.156 3.122-1.156 5.049 0 1.95.385 3.65 1.156 5.1.77 1.45 1.842 2.573 3.213 3.366 1.371.793 2.941 1.19 4.709 1.19zm17.544 8.466l11.22-27.404h-3.196l-5.78 15.096-5.848-15.096h-3.434l7.514 18.428-3.672 8.976h3.196z" opacity=".383" transform="translate(-217 -2062) translate(217 2062)"/>
            </g>
        </g>
    </g>
</svg>
