<svg xmlns="http://www.w3.org/2000/svg" xmlns:xlink="http://www.w3.org/1999/xlink" width="619" height="233" viewBox="0 0 619 233">
    <defs>
        <path id="gfm5jb9e8a" d="M.92 17.739c0 9.39 138.002 17 308.241 17 170.236 0 308.241-7.61 308.241-17 0-9.387-138.005-17-308.241-17C138.922.739.92 8.352.92 17.739z"/>
        <path id="cjqr993u1c" d="M.56 7.489c0 4.013 24.393 7.265 54.481 7.265 30.09 0 54.48-3.252 54.48-7.265S85.131.225 55.041.225C24.953.225.561 3.476.561 7.489z"/>
        <path id="lok1n27sye" d="M8.3 0C5.721.03 2.757 3.207 1.397 7.575-.09 12.365.912 16.772 3.64 17.42c2.725.648 6.144-2.707 7.63-7.496 1.49-4.788.486-9.195-2.24-9.845C8.814.028 8.594.002 8.37 0H8.3z"/>
    </defs>
    <g fill="none" fill-rule="evenodd">
        <g fill-rule="nonzero" transform="matrix(-1 0 0 1 539.25 32.5)">
            <path fill="#30516C" d="M255 42.5L217.655 1.814C216.597.661 215.068 0 213.46 0h-81.065c-6.156 0-11.146 4.757-11.146 10.625V42.5H255z"/>
            <path fill="#F4F4F4" d="M122.321 41.25H15.641c-2.199 0-4.208 1.261-5.191 3.257l-3.587 7.284c-.403.819-.613 1.721-.613 2.636v63.43h17.41l4.104 4.167c1.089 1.105 2.565 1.726 4.104 1.726h285.37c1.54 0 3.016-.62 4.105-1.726l8.207-8.334c1.089-1.105 1.7-2.604 1.7-4.167V86.142c0-2.232-1.242-4.273-3.208-5.27l-20.006-10.158-5.804-23.571-40.625-5.893H122.321z"/>
            <path fill="#CCCBCB" d="M6 97.5h18c3.314 0 6 2.938 6 6.563v19.687H9.708c-2.272 0-4.35-1.404-5.366-3.628l-3.709-8.111c-.416-.912-.633-1.916-.633-2.935v-5.013c0-3.625 2.686-6.563 6-6.563z"/>
            <path fill="#F5822D" d="M3.75 68.75L30 68.75 30 75 3.75 75z"/>
            <path fill="#CCCBCB" d="M178.75 41.25L185 41.25 185 123.75 178.75 123.75z"/>
            <path fill="#000" d="M178.75 0L185 0 185 42.5 178.75 42.5z"/>
            <path fill="#FFF" d="M311.25 95l-10 12v18h17.93c1.325 0 2.597-.632 3.535-1.757l7.07-8.486c.938-1.125 1.465-2.651 1.465-4.242V95h-20z"/>
            <path fill="#F5822D" d="M305.938 45h-13.125c-3.625 0-6.563 2.938-6.563 6.563v13.124c0 3.625 2.938 6.563 6.563 6.563H312.5L305.937 45z"/>
            <path fill="#25313B" d="M205 68.75L223.75 68.75 223.75 75 205 75z"/>
            <path fill="#CCCBCB" d="M122.5 41.25L128.75 41.25 128.75 123.75 122.5 123.75z"/>
            <ellipse cx="79.375" cy="121.25" fill="#EFE8E0" rx="30.625" ry="28.75"/>
            <path fill="#25313B" d="M81.875 152.5C61.509 152.5 45 136.83 45 117.5s16.51-35 36.875-35 36.875 15.67 36.875 35c-.022 19.321-16.519 34.979-36.875 35zm0-58.333c-13.577 0-24.583 10.446-24.583 23.333 0 12.887 11.006 23.333 24.583 23.333 13.577 0 24.583-10.446 24.583-23.333-.014-12.881-11.012-23.32-24.583-23.333z"/>
            <circle cx="81.25" cy="116.25" r="10" fill="#F5822D"/>
        </g>
        <g transform="translate(.75 197.124)">
            <mask id="jfjn66dadb" fill="#fff">
                <use xlink:href="#gfm5jb9e8a"/>
            </mask>
            <path fill="#CCCBCB" d="M-10.564 69.427L755.809 69.427 755.809 -4.572 -10.564 -4.572z" mask="url(#jfjn66dadb)" opacity=".207"/>
        </g>
        <g transform="translate(93 199.624)">
            <mask id="nkaigosc4d" fill="#fff">
                <use xlink:href="#cjqr993u1c"/>
            </mask>
            <path fill="#CCCBCB" d="M-2.009 20.809L112.091 20.809 112.091 -5.831 -2.009 -5.831z" mask="url(#nkaigosc4d)" opacity=".207"/>
        </g>
        <g transform="translate(284.25 18.374)">
            <mask id="ob15rtvtof" fill="#fff">
                <use xlink:href="#lok1n27sye"/>
            </mask>
            <path fill="#FFF" d="M-5.541 23.333L18.209 23.333 18.209 -5.833 -5.541 -5.833z" mask="url(#ob15rtvtof)"/>
        </g>
        <path fill="#FA8A4A" d="M209.57 76.468c5.217-3.305 10.76 8.01 13.395 13.685 2.634 5.677 10.035 23.98 10.035 23.98l-5.857 1.741s-11.906-12.32-20.18-27.473c-1.946-3.565-2.702-8.572 2.606-11.933"/>
        <path fill="#FA8A4A" d="M199.354 40.944c-5.879.662-7.06 5.557-6.01 11.096 1.048 5.537 12.49 32.762 14.141 33.63 1.652.866 9.925-1.146 10.48-3.709.553-2.56-5.514-27.13-7.196-31.54-1.682-4.407-4.527-10.252-11.415-9.477"/>
        <path fill="#FFF" d="M207.667 41.468c2.005 1.016 2.024 5.696 2.786 9.887 1.078 5.94 5.047 21.301 5.047 21.301s-3.475 2.985-8.736 4.027c-6.104 1.21-10.18-.452-10.18-.452s-5.92-23.356-4.657-28.11c.377-1.42 10.177-9.472 15.74-6.653"/>
        <path fill="#FFB37B" d="M215.953 12.124s-13.922 8.953-15.086 9.489c-4.338 1.991-5.887.544-10.682 1.627-5.812 1.314-24.369 14.383-34.725 23.808-6.043 5.5-17.606 19.97-20.535 27.28-3.916 9.771 10.456 19.422 11.015 20.13.558.705 8.747-1.032 11.703-1.418 2.955-.385 9.612-16.77 13.663-19.895 4.05-3.127 23.036-9.253 24.106-9.789 7.15-3.584 10.793-8.938 11.917-10.184 1.124-1.248 3.371-2.87 3.694-4.169.645-2.582-2.843-11.483-2.102-12.243.741-.763 11.579-10.706 11.579-10.706l-4.547-13.93z"/>
        <path fill="#FFF" d="M200.267 21.2l4.137 17.848 3.849-2.535s2.963 10.078 2.084 12.377c-.88 2.3-4.095 5.599-5.171 6.977-1.077 1.377-7.073 6.408-12.809 10.078-3.356 2.147-9.938 2.557-15.619 6.26-4.864 3.172-7.538 11.17-7.538 11.17s-6.017-4.538-14.222-6.947c-9.893-2.903-19.49-6.156-19.478-6.735.057-2.481 21.046-25.061 22.165-26.384 1.12-1.323 18.682-15.728 22.022-17.654 4.844-2.793 10.36-5.441 15.755-4.634 3.214.482 4.825.179 4.825.179"/>
        <path fill="#FFF" d="M199.25 22.944s-8.067 3.534-8 15.451c.03 5.144-3.429 9.589-2.021 13.164 5.028 12.778-26.75 27.934-29.49 28.062-2.74.13-9.062-4.449-9.062-4.449l-14.896-4.124c-3.082-2.606 20.19-24.138 22.517-27.805 2.325-3.667 17.918-14.032 20.472-15.784 11.935-8.184 20.48-4.515 20.48-4.515"/>
        <path fill="#FA8A4A" d="M214.25 29.624L209.436 14.624 201.75 19.755 203.091 25.081z"/>
        <path fill="#FFB37B" d="M236.72 17.228c.426-4.913-3.786-15.253-12.75-15.102-8.965.15-13.15 6.219-14.854 11.096-1.33 3.803-1.49 6.638-.377 11.18.226.926 4.042 7.987 5.458 8.907.968.628 7.822-3.51 7.993-3.242.17.266 1.092.672 1.637.32.79-.515 4.72-4.752 5.342-4.936.622-.185 7.064-2.595 7.552-8.223"/>
        <path fill="#504D74" d="M234.47 20.874s-1.021-6.646-11.262-8.356c-2.205-.368-5.37 5.691-6.074 5.71-.755.02-.013-7.295-.456-6.708-4.51 5.973-9.232 6.518-9.684 6.035-1.365-1.461 3.052-12.28 11.674-14.832 8.62-2.553 14.84 3.766 15.808 5.659.97 1.892 4.596 7.09-.006 12.492"/>
        <path fill="#FFB37B" d="M217.98 14.286c-1.621 2.284-4.252 4.789-5.482 3.907-1.228-.885-.911-3.452.712-5.735 1.62-2.283 3.933-3.418 5.162-2.534 1.23.885 1.23 2.08-.392 4.362"/>
        <path fill="#25313B" d="M169.169 207.124L159.25 206.645 159.332 204.624 169.25 205.103z"/>
        <path fill="#25313B" d="M160.58 192.192c-1.342 1.611-2.35 4.795-2.545 6.272-.234 1.78.722 5.595 1.973 5.647 3.648.152 8.001.472 11.742 1.105 3.741.633 5.051 2.723 14.676 3.103 2.808.111 7.768.158 7.82-.922.22-4.682-9.09-3.404-11.9-6.063-7.107-6.726-11.97-8.483-11.97-8.483s-9.521-.99-9.797-.66M125.487 208.374L115.5 208.346 115.511 207.124 125.5 207.153z"/>
        <path fill="#25313B" d="M115.287 194.732c-1.265 1.767-2.137 5.198-2.271 6.778-.161 1.905.937 5.928 2.178 5.933 3.62.016 7.949.185 11.68.709 3.73.526 5.113 2.7 14.663 2.722 2.787.005 7.78-.145 7.712-1.294-.343-5.79-9.14-3.262-12.03-5.981-7.31-6.878-12.2-8.555-12.2-8.555s-9.472-.676-9.732-.312"/>
        <path fill="#132750" d="M150.623 75.364S139.19 87.112 139.25 92.118c.062 5.005 5.258 18.262 8.838 30.515 3.581 12.253 4.588 16.022 4.494 19.01-.094 2.988-1.902 16.544-.315 24.411 1.589 7.868 3.546 28.363 3.546 28.363s6.342.27 11.065.193c4.722-.08 8.622-3.93 8.622-3.93s-2.365-46.67-2.42-51.615c-.033-3.2.04-25.306-1.408-43.176-.464-5.75-2.96-18.9-3.27-21.265l-17.779.74z"/>
        <path fill="#1D3C80" d="M134.836 72.124s-4.184 7.011-4.982 13.144c-.647 4.972-.392 14.266-.331 26.912.062 12.646-1.436 24.219-2.328 27.095-.893 2.878-6.566 14.844-7.665 22.772-1.29 9.314-5.28 30.634-5.28 30.634s3.9 1.693 8.347 2.622c4.449.926 10.63.447 10.63.447s11.416-48.666 14.11-52.977c4.297-6.883 8.111-29.718 12.623-45.062 1.82-6.19 5.54-20.045 5.54-20.045l-30.664-5.542zM140.352 70.843L160.5 40.874s-15.9 14.298-23.303 24.216c-.615.823-2.515 2.969-1.3 4.375 1.503 1.738 4.455 1.378 4.455 1.378"/>
        <path fill="#D0D0D0" d="M207.875 37.116L206.75 40.874 209.168 39.688 209.25 35.874z"/>
        <path fill="#1D3C80" d="M171.262 78.371c1.807.079 8.748-1.615 12.073-4.272 9.044-7.223 17.165-14.34 17.165-14.34l-13.568-15.135L145.5 72.762s11.456 4.987 25.762 5.61"/>
        <path fill="#FB845E" d="M171.75 77.889l-1.171 5.485s-14.834-1.504-25.813-5.832c-10.978-4.329-10.513-5.065-10.513-5.065l1.72-4.103s3.329 1.398 11.096 4.14c7.547 2.661 24.681 5.375 24.681 5.375"/>
        <path fill="#132750" d="M145.5 71.769L138 93.374 139.269 69.624z"/>
        <path fill="#1D3C80" d="M188.603 46.836c2.825-2.764 12.677-21.963-1.342-25.05l5.497-.912s5.685.813 6.402 9.48c.665 8.05-2.41 14.968-7.483 19.742-5.072 4.775-6.46.053-3.074-3.26M201.246 59.157s10.417-8.97 9.147-13.89c-.544-2.106-.657-3.143-.657-3.143s-3.09 6.676-7.002 10.58c-3.915 3.903-6.898 6.436-5.727 7.79 1.17 1.353 4.24-1.337 4.24-1.337"/>
        <path fill="#FFB37B" d="M190.351 28.738c-5.385-1.613-8.284 2.35-9.48 7.73-1.195 5.38-2.266 41.303-1.154 42.704 1.112 1.402 9.103 2.698 10.563.6 1.46-2.097 6.21-33.612 6.423-38.212.212-4.601-.043-10.932-6.352-12.822"/>
        <path fill="#FFF" d="M192.095 27.303c2.544 1.662 5.077 8.633 4.596 12.847-.682 5.972-1.272 21.749-1.272 21.749s-4.35 1.874-9.903 1.397c-6.443-.555-10.016-3.282-10.016-3.282s1.9-23.544 3.676-28.137c1.221-3.157 6.76-8.603 12.919-4.574"/>
        <path fill="#FFB37B" d="M180.012 75.304c-6.28 2.05-1.996 15.585.478 21.586 2.473 6 11.507 22.734 11.507 22.734l6.003-2.048s-3.104-17.55-7.685-34.81c-.472-1.778-.597-10.633-10.303-7.462"/>
        <path fill="#FA8A4A" d="M226.619 112.124s-2.555 4.119.056 6.755c2.611 2.635 7.23 3.254 8.272 3.627 4.303 1.542 6.573 6.5 9.021 7.787 2.447 1.286 3.248.134 2.528-.545-4.037-3.8-4.989-7.2-6.98-8.712-1.993-1.512-7.766-8.585-7.766-8.585l-5.131-.327z"/>
        <path fill="#FA8A4A" d="M225.806 115.874s-1.334 2.137 1.568 5.46c1.59 1.821 4.86 2.352 6.358 3.8 1.499 1.448 1.725.377 1.767.075.043-.301-1.824-2.068-2.543-2.956-.72-.89-1.933-5.742-7.15-6.379"/>
        <path fill="#FFB37B" d="M198.094 115.874s3.739 3.7 1.895 7.037c-1.844 3.34-5.726 5.307-6.626 5.938-3.715 2.602-5.551 7.726-7.564 9.628-2.015 1.903-3.197 1.056-2.676.187 2.917-4.878 3.347-8.519 4.875-10.55 1.526-2.032 5.302-10.7 5.302-10.7l4.794-1.54z"/>
        <path fill="#D0D0D0" d="M199.268 38.374L198 20.967 203.361 20.874 205.5 36.35"/>
        <path fill="#1D3C80" d="M214.25 3.739s9.588-7.46 18.416 1.694c8.826 9.154.597 19.191.597 19.191s-5.735-3.937-12.29-10.732c-6.557-6.799-6.723-10.153-6.723-10.153"/>
        <path fill="#132750" d="M219.25 12.153s14.05 20.444 14.425 20.533c.376.09 2.225.284 2.927.558.704.274.911 1.533 1.364 1.365.452-.167-3.697-9.582-3.697-9.582s-4.237-2.857-6.286-4.324c-2.05-1.465-8.138-9.102-8.733-8.55"/>
        <path fill="#25313B" d="M184.25 152.75c0 17.603 14.271 31.874 31.875 31.874 17.605 0 31.875-14.27 31.875-31.874 0-17.605-14.27-31.876-31.875-31.876-17.604 0-31.875 14.271-31.875 31.876"/>
        <path fill="#EFE8E0" d="M193 152.124c0 12.426 10.074 22.5 22.5 22.5s22.5-10.074 22.5-22.5c0-12.425-10.074-22.5-22.5-22.5S193 139.7 193 152.124"/>
        <path fill="#F5822D" d="M204.5 151.375c0 6.074 4.925 11 11 11s11-4.926 11-11c0-6.076-4.925-11-11-11s-11 4.924-11 11"/>
        <path fill="#D8D8D8" d="M270.5 156.25H281.75V200.5H270.5z"/>
    </g>
</svg>
