<svg xmlns="http://www.w3.org/2000/svg" xmlns:xlink="http://www.w3.org/1999/xlink" width="140" height="140" viewBox="0 0 140 140">
    <defs>
        <path id="1cslev4l6c" d="M0.039 0.011L40.51 0.011 40.51 30.878 0.039 30.878z"/>
        <path id="8rpzt5swze" d="M0.088 0.044L58.575 0.044 58.575 46.278 0.088 46.278z"/>
        <circle id="dmyc2ain5a" cx="70" cy="70" r="70"/>
    </defs>
    <g fill="none" fill-rule="evenodd">
        <g>
            <g transform="translate(-1019 -874) translate(1019 874)">
                <mask id="3gdp1epuzb" fill="#fff">
                    <use xlink:href="#dmyc2ain5a"/>
                </mask>
                <use fill="#F6F6F6" xlink:href="#dmyc2ain5a"/>
                <g mask="url(#3gdp1epuzb)">
                    <g>
                        <g>
                            <g>
                                <path fill="#C1DEE2" d="M33.994 48.788s9.268-5.236 4.943-12.343c0 0-3.46-4.365-7.167-5.487 0 0 1.977 10.599 0 10.848-1.977.25-1.36-11.97-1.36-11.97s-9.762-4.738-13.592-4.364c0 0 6.055 10.35 4.078 10.1-1.977-.25-8.774-10.723-8.774-10.723S2.113 22.979.507 28.963c-1.607 5.985.988 8.978 2.471 9.352 1.483.374 10.998.25 10.75 1.496-.246 1.247-6.672 3.242-10.256 2.12 0 0 3.955 9.85 9.145 9.351 5.19-.498 6.796-3.74 10.009-3.99 3.212-.25 5.56.624 3.954 1.496-1.607.873-7.044.287-9.639 2.513-2.594 2.226-4.695 3.597.124 4.595 4.82.997 13.469.374 15.199-3.367l1.73-3.74z" transform="matrix(-1 0 0 1 183.077 4.308) translate(1) matrix(-1 0 0 1 97.521 46.31)"/>
                                <g transform="matrix(-1 0 0 1 183.077 4.308) translate(1) matrix(-1 0 0 1 97.521 46.31) translate(51.725 40.88)">
                                    <mask id="qaz7cvanyd" fill="#fff">
                                        <use xlink:href="#1cslev4l6c"/>
                                    </mask>
                                    <path fill="#C1DEE2" d="M1.3 13.118S-2.378 2.906 5.603.34c0 0 5.518-1.038 9.099.577 0 0-8.47 6.815-7.116 8.327 1.354 1.513 8.895-8.28 8.895-8.28s10.6 2.885 13.294 5.732c0 0-11.436 3.898-9.755 5.028 1.681 1.13 13.767-2.37 13.767-2.37s8.908 5.252 6.215 10.92c-2.694 5.668-6.648 6.231-8.031 5.528-1.384-.704-8.604-7.157-9.232-6.035-.628 1.122 2.994 6.947 6.48 8.48 0 0-9.496 4.92-13.152 1.069-3.655-3.85-2.761-7.412-5.063-9.75-2.302-2.339-4.676-3.237-4.016-1.494.66 1.743 5.218 4.926 5.749 8.368.53 3.443 1.243 5.9-3.11 3.445C5.276 27.431-.953 21.173.173 17.145L1.3 13.119z" mask="url(#qaz7cvanyd)"/>
                                </g>
                                <path fill="#C1DEE2" d="M86.854 59.646s-25.372-10.875-33.83-5.56c0 0-2.676 3.351-7.836 5.359l-1.222 1.441s6.232-3.078 7.936-2.756c0 0 .938-10.24 34.952 1.516" transform="matrix(-1 0 0 1 183.077 4.308) translate(1) matrix(-1 0 0 1 97.521 46.31)"/>
                                <path fill="#C1DEE2" d="M45.092 59.313s-7.05 2.05-10.178 9.36l.967.476s4.599-7.032 8.892-8.82c4.294-1.79.319-1.016.319-1.016M4.957 30.878s26.015 8.477 28.988 17.95c0 0-.124 4.24 2.478 9.101v1.87s-2.726-6.358-4.212-7.23c0 0 5.822-8.228-27.254-21.691" transform="matrix(-1 0 0 1 183.077 4.308) translate(1) matrix(-1 0 0 1 97.521 46.31)"/>
                                <path fill="#C8DBF4" d="M36.585 57.92s4.003 6.144 1.72 13.621l-1.029-.28s1-8.235-1.094-12.378c-2.094-4.142.403-.962.403-.962" transform="matrix(-1 0 0 1 183.077 4.308) translate(1) matrix(-1 0 0 1 97.521 46.31)"/>
                                <g transform="matrix(-1 0 0 1 183.077 4.308) translate(1) matrix(-1 0 0 1 97.521 46.31) translate(35.776)">
                                    <mask id="ms32yyjnjf" fill="#fff">
                                        <use xlink:href="#8rpzt5swze"/>
                                    </mask>
                                    <path fill="#C1DEE2" d="M8.977 35.31s-13.521-7.626-7.211-17.976c0 0 5.048-6.355 10.457-7.99 0 0-2.885 15.435 0 15.798 2.884.363 1.983-17.432 1.983-17.432S28.449.81 34.037 1.355c0 0-8.834 15.071-5.95 14.708C30.974 15.7 40.889.447 40.889.447S55.492-2.277 57.836 6.44c2.343 8.716-1.443 13.074-3.606 13.619-2.164.545-16.046.363-15.685 2.179.36 1.816 9.735 4.72 14.964 3.087 0 0-5.77 14.345-13.342 13.618-7.572-.726-9.916-5.447-14.603-5.81-4.688-.364-8.113.908-5.77 2.179 2.344 1.27 10.277.416 14.063 3.658 3.786 3.242 6.851 5.24-.18 6.692s-19.652.544-22.176-4.903l-2.524-5.447z" mask="url(#ms32yyjnjf)"/>
                                </g>
                                <path fill="#C1DEE2" d="M86.854 9.133S49.08 21.498 44.762 35.317c0 0 .18 6.182-3.598 13.274v2.727s3.958-9.273 6.116-10.546c0 0-8.454-12.001 39.574-31.64" transform="matrix(-1 0 0 1 183.077 4.308) translate(1) matrix(-1 0 0 1 97.521 46.31)"/>
                                <path fill="#C1DEE2" d="M41.065 48.667s-5.886 8.943-2.53 19.83l1.514-.407s-1.47-11.991 1.61-18.022c3.079-6.03-.594-1.4-.594-1.4" transform="matrix(-1 0 0 1 183.077 4.308) translate(1) matrix(-1 0 0 1 97.521 46.31)"/>
                            </g>
                            <path fill="#E0E0E0" d="M65.399 97.252c.084.007.166.021.246.042.16.03.388.08.667.144.56.127 1.325.318 2.167.537l2.15.57.652.182c.082.017.16.04.236.07-.085-.006-.169-.02-.25-.04-.159-.03-.384-.082-.663-.147-.56-.131-1.321-.327-2.164-.55l-2.153-.557-.652-.168c-.083-.02-.163-.048-.236-.083" transform="matrix(-1 0 0 1 183.077 4.308) translate(1)"/>
                            <path fill="#E0E0E0" d="M69.989 98.796c-.02 0 .306-1.397.728-3.1.422-1.702.78-3.08.8-3.075.02.006-.307 1.398-.729 3.103-.422 1.706-.78 3.079-.8 3.072M73.047 106.515c.034-.087.074-.169.12-.246l.35-.643c.294-.546.697-1.3 1.115-2.153.419-.853.78-1.641 1.037-2.21l.317-.681c.033-.085.074-.166.12-.242-.02.092-.049.18-.085.265-.064.165-.156.404-.276.696-.241.58-.593 1.376-1.015 2.234-.421.857-.833 1.603-1.144 2.138-.155.265-.282.48-.374.622-.048.081-.103.155-.165.22M76.106 111.146c.03-.088.065-.173.108-.254.09-.166.208-.384.348-.649.293-.548.696-1.305 1.117-2.157.422-.852.79-1.632 1.054-2.2.124-.275.23-.501.309-.674.034-.085.076-.166.124-.241-.025.088-.057.174-.095.256-.064.164-.161.399-.288.688-.247.575-.606 1.364-1.03 2.216-.424.852-.833 1.609-1.138 2.148-.153.27-.28.485-.372.634-.04.082-.086.16-.137.233M148.139 10.3c-.79-2.174-3.174-3.291-5.328-2.495-2.153.796-3.26 3.204-2.47 5.378.786 2.168 3.16 3.285 5.311 2.5 2.156-.785 3.272-3.186 2.494-5.362l-.007-.022zm5.54.415c.078.85.042 1.705-.106 2.544l1.849 1.448-1.633 3.542-2.288-.499c-.541.656-1.167 1.236-1.861 1.725l.305 2.34-3.64 1.34-1.263-1.983c-.843.076-1.691.038-2.523-.111l-1.444 1.866-3.512-1.65.495-2.31c-.65-.546-1.223-1.177-1.706-1.876l-2.322.308-1.327-3.671 1.965-1.273c-.078-.849-.042-1.704.107-2.544l-1.843-1.46 1.632-3.542 2.289.5c.54-.658 1.166-1.238 1.86-1.725l-.304-2.344 3.64-1.34 1.272 1.984c.842-.077 1.69-.04 2.523.11l1.431-1.87 3.512 1.652-.494 2.307c.648.547 1.222 1.179 1.705 1.878l2.322-.308 1.328 3.672-1.968 1.281v.01z" transform="matrix(-1 0 0 1 183.077 4.308) translate(1)"/>
                            <path fill="#EBEBEB" d="M168.004 22.147c-.62-1.747-2.524-2.655-4.254-2.03-1.73.627-2.629 2.55-2.009 4.296.62 1.747 2.525 2.655 4.254 2.03l.024-.01c1.723-.634 2.611-2.558 1.985-4.299v.013zm4.433.311c.063.68.034 1.366-.086 2.04l1.483 1.157-1.307 2.84-1.832-.402c-.433.525-.934.99-1.489 1.382l.238 1.868-2.914 1.074-1.014-1.59c-.674.061-1.353.032-2.02-.088l-1.146 1.495-2.809-1.32.395-1.85c-.52-.437-.98-.943-1.366-1.503l-1.85.24-1.072-2.924 1.575-1.027c-.061-.68-.032-1.365.087-2.036l-1.48-1.159 1.307-2.839 1.83.402c.434-.526.935-.991 1.49-1.383l-.237-1.868 2.913-1.074 1.014 1.591c.674-.062 1.353-.032 2.02.087l1.146-1.497 2.809 1.323-.395 1.85c.52.437.98.943 1.366 1.503l1.85-.24 1.06 2.94-1.575 1.024.01-.016z" transform="matrix(-1 0 0 1 183.077 4.308) translate(1)"/>
                            <path fill="#F5F5F5" d="M150.131 32.24c-.585-1.594-2.34-2.409-3.92-1.819-1.58.59-2.388 2.362-1.803 3.956.584 1.593 2.334 2.408 3.913 1.823 1.58-.587 2.39-2.355 1.81-3.95v-.01zm4.073.3c.055.624.028 1.253-.08 1.87l1.357 1.061-1.198 2.606-1.663-.37c-.399.481-.858.907-1.368 1.266l.217 1.723-2.662.984-.932-1.458c-.618.057-1.242.029-1.853-.084l-1.052 1.374-2.578-1.212.363-1.68c-.477-.4-.899-.863-1.255-1.376l-1.704.218-.974-2.686 1.444-.94c-.056-.625-.029-1.253.08-1.87l-1.361-1.062 1.2-2.602 1.664.366c.399-.481.858-.907 1.368-1.266l-.216-1.72 2.661-.983.932 1.457c.619-.055 1.242-.029 1.853.08l1.052-1.372 2.578 1.212-.362 1.695c.477.402.898.866 1.254 1.38l1.704-.221.975 2.686-1.444.924z" transform="matrix(-1 0 0 1 183.077 4.308) translate(1)"/>
                            <path fill="#89C5CC" d="M139.362 101.884c-.629.175-1.169.641-1.496 1.29-.322.646-.512 1.37-.554 2.116-.118 1.434.307 3.015.838 4.312 1.198-.777 1.758-2.514 1.995-3.413.376-1.425.307-4.263-.789-4.305M134.084 112.68c.259-.67.176-1.443-.218-2.026-.4-.571-.99-.94-1.636-1.024-.294-.074-.604 0-.844.203-.195.23-.262.56-.176.86.089.295.246.558.455.763.684.737 1.47 1.316 2.419 1.224" transform="matrix(-1 0 0 1 183.077 4.308) translate(1)"/>
                            <path fill="#4F4F4F" d="M137.29 104.97c-.01.04-.017.081-.024.123l-.058.356c-.05.305-.118.755-.198 1.31-.164 1.108-.377 2.643-.588 4.349-.212 1.705-.383 3.258-.497 4.385-.059.564-.102 1.017-.13 1.334l-.03.362c-.003.044-.003.088 0 .131.01-.04.016-.082.02-.124.01-.095.023-.214.041-.363l.15-1.328c.123-1.12.302-2.67.513-4.376.211-1.706.417-3.24.57-4.355.074-.545.136-.993.182-1.316l.047-.36c.004-.042.005-.084.002-.127" transform="matrix(-1 0 0 1 183.077 4.308) translate(1)"/>
                            <path fill="#89C5CC" d="M87.579 83.36c.422 0 .764.345.764.771 0 .426-.342.772-.764.772-.423 0-.765-.346-.765-.772 0-.426.342-.772.765-.772M94.462 90.858c.119 0 .215.099.215.22 0 .12-.096.22-.215.22s-.215-.1-.215-.22c0-.121.096-.22.215-.22" transform="matrix(-1 0 0 1 183.077 4.308) translate(1)"/>
                            <path fill="#FAFAFA" d="M117.407 108.83c0 .43-7.19.772-16.062.772s-16.06-.348-16.06-.772c0-.424 7.188-.772 16.06-.772 8.873 0 16.062.342 16.062.772" transform="matrix(-1 0 0 1 183.077 4.308) translate(1)"/>
                            <path fill="#2026A2" d="M77.636 117.045l3.553-8.987h39.195l4.67 8.987s-47.418.605-47.418.021" transform="matrix(-1 0 0 1 183.077 4.308) translate(1)"/>
                            <path fill="#455A64" d="M119.151 112.69c-.222-1.014-.366-2.047-.43-3.088.136.5.233 1.013.289 1.532.088.513.136 1.033.141 1.555" transform="matrix(-1 0 0 1 183.077 4.308) translate(1)"/>
                            <path fill="#4F4F4F" d="M179.929 53.491c.016-.02.035-.04.056-.056l.177-.152.135-.108.174-.112.207-.128.247-.115c1.025-.425 2.162-.446 3.2-.058.72.244 1.38.65 1.932 1.192.625.633 1.091 1.417 1.359 2.282.59 1.816.437 4.04-.413 6.046-.85 2.007-2.206 3.615-3.48 4.948-1.275 1.333-2.527 2.44-3.513 3.434-.788.769-1.528 1.588-2.218 2.454-.241.31-.42.557-.541.727l-.138.19c-.031.041-.048.065-.05.062.01-.026.023-.05.039-.07.03-.053.073-.12.126-.2.11-.175.28-.43.52-.744.674-.885 1.406-1.72 2.192-2.499.977-1.001 2.21-2.118 3.487-3.453 1.277-1.336 2.593-2.93 3.444-4.91.85-1.98.982-4.163.42-5.938-.258-.845-.709-1.613-1.313-2.238-.538-.53-1.18-.93-1.883-1.172-1.014-.395-2.13-.395-3.144 0-.363.163-.706.37-1.022.618" transform="matrix(-1 0 0 1 183.077 4.308) translate(1)"/>
                            <path fill="#89C5CC" d="M157.177 100.34V89.964c0-3.677 2.019-6.17 4.544-6.21l25.949-.394c1.724-.026 3.138 1.659 3.16 3.761v13.03l-33.653.189z" transform="matrix(-1 0 0 1 183.077 4.308) translate(1)"/>
                            <path fill="#FABE2C" d="M178.592 94.165L189.3 94.165 189.3 87.99 178.592 87.99z" transform="matrix(-1 0 0 1 183.077 4.308) translate(1)"/>
                            <path fill="#4F4F4F" d="M175.533 100.34c-.06 0-.112-3.801-.112-8.49 0-4.69.052-8.49.112-8.49.06 0 .112 3.8.112 8.49 0 4.689-.052 8.49-.112 8.49" transform="matrix(-1 0 0 1 183.077 4.308) translate(1)"/>
                            <path fill="#4F4F4F" d="M174.003 83.592c.11-.044.233-.075.363-.093.33-.069.677-.112 1.028-.127 2.356-.134 4.461.82 4.701 2.13.01.053.017.106.02.16.021.195-.007.391-.083.583-.02.07-.061.138-.12.202.07-.259.093-.52.069-.782-.148-1.31-2.178-2.305-4.534-2.222l-.046.001c-.474.023-.942.072-1.398.148" transform="matrix(-1 0 0 1 183.077 4.308) translate(1)"/>
                            <path fill="#89C5CC" d="M158.707 85.513L172.912 47.854 183.181 52.658 171.131 87.99z" transform="matrix(-1 0 0 1 183.077 4.308) translate(1)"/>
                            <path fill="#69A1AC" d="M159.226 90.686c2.326-1.841 5.691-1.432 7.517.916 1.825 2.347 1.419 5.743-.907 7.585-2.326 1.842-5.691 1.432-7.517-.915-1.825-2.347-1.419-5.744.907-7.586" transform="matrix(-1 0 0 1 183.077 4.308) translate(1)"/>
                            <path fill="#4F4F4F" d="M159.194 89.602c1.23-2.713 4.406-3.906 7.094-2.664 2.688 1.241 3.87 4.447 2.64 7.16-1.23 2.712-4.406 3.905-7.095 2.663-2.688-1.241-3.87-4.447-2.64-7.16" transform="matrix(-1 0 0 1 183.077 4.308) translate(1)"/>
                            <path fill="#455A64" d="M163.366 90.616c.253-.814 1.111-1.266 1.917-1.01.806.254 1.254 1.12 1.002 1.934-.253.813-1.112 1.265-1.918 1.01-.805-.255-1.253-1.121-1-1.934" transform="matrix(-1 0 0 1 183.077 4.308) translate(1)"/>
                            <path fill="#4F4F4F" d="M167.885 87.99c.018-.077.041-.153.068-.228l.223-.651c.203-.577.489-1.385.848-2.38.729-2.019 1.726-4.781 2.826-7.836l2.012-5.497.04.087-3.982-1.442-1.114-.418-.283-.113c-.034-.01-.066-.025-.096-.046.036.005.071.013.105.026l.283.095 1.13.378 3.999 1.384.06.02-.023.064c-.566 1.603-1.263 3.493-1.979 5.503l-2.874 7.821-.884 2.362-.249.64c-.027.082-.065.16-.11.231M180.122 69.465c0 .03-2.423-.64-5.381-1.492s-5.341-1.564-5.327-1.593c.014-.03 2.426.64 5.381 1.494 2.956.853 5.344 1.57 5.327 1.591M167.885 98.795s.136-.136.388-.375c.354-.338.69-.697 1.006-1.075 1.029-1.26 1.878-2.675 2.52-4.2.637-1.53 1.178-3.104 1.618-4.712l.416-1.456c.048-.158.085-.288.12-.397.033-.109.045-.136.05-.133 0 .048-.008.096-.022.142-.026.11-.057.242-.091.403-.085.348-.21.854-.374 1.475-.413 1.621-.942 3.207-1.584 4.742-.645 1.54-1.515 2.962-2.576 4.211-.324.376-.674.725-1.046 1.045-.1.09-.202.173-.31.251-.073.058-.112.086-.115.08M159.626 95.709s-.027 0-.075-.02c-.07-.03-.138-.073-.2-.128-.229-.207-.404-.503-.503-.849-.136-.513-.174-1.064-.112-1.603.058-.65.14-1.295.246-1.934.19-1.16.452-2.298.786-3.398.128-.423.245-.757.326-.984.039-.122.086-.238.143-.346-.025.127-.059.25-.102.37-.07.236-.175.573-.292.999-.309 1.105-.56 2.239-.75 3.392-.199 1.342-.419 2.617-.17 3.466.088.33.245.622.452.837.147.147.255.183.25.198" transform="matrix(-1 0 0 1 183.077 4.308) translate(1)"/>
                            <path fill="#69A1AC" d="M157.942 101.884c2.957 0 5.354 2.418 5.354 5.402s-2.397 5.403-5.354 5.403c-2.957 0-5.354-2.419-5.354-5.403 0-2.984 2.397-5.402 5.354-5.402" transform="matrix(-1 0 0 1 183.077 4.308) translate(1)"/>
                            <path fill="#4F4F4F" d="M157.177 108.058c.845 0 1.53.691 1.53 1.544 0 .852-.685 1.544-1.53 1.544s-1.53-.692-1.53-1.544c0-.853.685-1.544 1.53-1.544" transform="matrix(-1 0 0 1 183.077 4.308) translate(1)"/>
                            <path fill="#69A1AC" d="M174.768 101.884c2.957 0 5.354 2.418 5.354 5.402s-2.397 5.403-5.354 5.403c-2.957 0-5.354-2.419-5.354-5.403 0-2.984 2.397-5.402 5.354-5.402" transform="matrix(-1 0 0 1 183.077 4.308) translate(1)"/>
                            <path fill="#4F4F4F" d="M175.533 108.058c.845 0 1.53.691 1.53 1.544 0 .852-.685 1.544-1.53 1.544s-1.53-.692-1.53-1.544c0-.853.685-1.544 1.53-1.544" transform="matrix(-1 0 0 1 183.077 4.308) translate(1)"/>
                            <path fill="#4F4F4F" d="M156.956 103.124c-2.757-.002-4.993 2.55-4.995 5.702-.002 3.152 2.232 5.708 4.988 5.71H189.521c2.757.003 4.993-2.55 4.995-5.703.001-3.151-2.232-5.707-4.989-5.71h-32.571zm32.565 14.196h-32.565c-4.102 0-7.427-3.8-7.427-8.49s3.325-8.49 7.427-8.49h32.565c4.101 0 7.427 3.8 7.427 8.49s-3.326 8.49-7.427 8.49z" transform="matrix(-1 0 0 1 183.077 4.308) translate(1)"/>
                            <path fill="#455A64" d="M174.005 101.884c-.091-.514-.091-1.03 0-1.544.086.514.086 1.03 0 1.544M180.122 101.884c-.092-.514-.092-1.03 0-1.544.092.513.092 1.03 0 1.544M167.882 101.884c-.085-.514-.085-1.03 0-1.544.092.514.092 1.03 0 1.544M163.296 101.884c-.092-.514-.092-1.03 0-1.544.091.514.091 1.03 0 1.544M157.177 101.884c-.348-.248-.635-.503-.858-.764-.286-.255-.51-.515-.671-.78.347.247.633.502.857.763.287.255.51.516.672.78M151.059 106.515c-.269-.2-.529-.438-.78-.714-.26-.24-.51-.518-.75-.83.269.2.53.442.779.722.26.236.511.511.75.822" transform="matrix(-1 0 0 1 183.077 4.308) translate(1)"/>
                            <path fill="#E0E0E0" d="M143.41 64.993L162.223 57.117 163.296 61.33 145.325 69.466z" transform="matrix(-1 0 0 1 183.077 4.308) translate(1)"/>
                            <path fill="#89C5CC" d="M177.063 58.725L163.432 64.835 160.237 55.157 175.674 47.854z" transform="matrix(-1 0 0 1 183.077 4.308) translate(1)"/>
                            <path fill="#E0E0E0" d="M181.216 52.485L189.3 48.612 187.968 44.767 180.122 48.413z" transform="matrix(-1 0 0 1 183.077 4.308) translate(1)"/>
                            <path fill="#69A1AC" d="M179.357 49.398c2.957 0 5.354 2.42 5.354 5.403 0 2.984-2.397 5.403-5.354 5.403-2.957 0-5.354-2.42-5.354-5.403 0-2.984 2.397-5.403 5.354-5.403" transform="matrix(-1 0 0 1 183.077 4.308) translate(1)"/>
                            <path fill="#4F4F4F" d="M180.225 49.585c2.01 2.19 1.88 5.607-.289 7.635-2.169 2.028-5.556 1.898-7.565-.29-2.01-2.19-1.88-5.608.288-7.636 2.17-2.028 5.556-1.898 7.566.291" transform="matrix(-1 0 0 1 183.077 4.308) translate(1)"/>
                            <path fill="#FABE2C" d="M179.729 51.452c.565.634.515 1.61-.113 2.18-.628.571-1.595.52-2.16-.113-.557-.624-.518-1.582.087-2.157.615-.585 1.584-.556 2.163.065l.023.025" transform="matrix(-1 0 0 1 183.077 4.308) translate(1)"/>
                            <path fill="#4F4F4F" d="M163.296 55.573c.083.061.161.13.232.205.159.16.366.363.61.608l2.098 2.14-.082-.018 1.926-.735c1.63-.617 3.105-1.17 4.177-1.56l1.273-.456c.154-.06.312-.108.473-.146-.143.08-.293.147-.448.202l-1.255.503c-1.063.416-2.531.983-4.159 1.598l-1.932.729-.05.017-.033-.035-2.055-2.177c-.238-.258-.43-.471-.583-.638-.074-.071-.138-.15-.192-.237" transform="matrix(-1 0 0 1 183.077 4.308) translate(1)"/>
                            <path fill="#89C5CC" d="M128.114 70.523L142.402 64.835 146.47 72.738 131.661 78.728z" transform="matrix(-1 0 0 1 183.077 4.308) translate(1)"/>
                            <path fill="#69A1AC" d="M128.241 71.474c.591-2.487 3.068-4.02 5.531-3.423 2.465.596 3.983 3.095 3.392 5.582-.59 2.486-3.066 4.02-5.53 3.423-2.464-.596-3.983-3.095-3.393-5.582" transform="matrix(-1 0 0 1 183.077 4.308) translate(1)"/>
                            <path fill="#4F4F4F" d="M128.332 71.147c.77-2.436 3.35-3.781 5.764-3.005 2.414.777 3.747 3.381 2.978 5.817-.77 2.437-3.35 3.782-5.764 3.006-2.414-.777-3.748-3.381-2.978-5.818" transform="matrix(-1 0 0 1 183.077 4.308) translate(1)"/>
                            <path fill="#FABE2C" d="M132.112 71.13c.78-.33 1.675.041 2.002.827.326.786-.041 1.69-.82 2.02-.776.328-1.667-.037-1.997-.818-.332-.784.029-1.69.805-2.025l.01-.004z" transform="matrix(-1 0 0 1 183.077 4.308) translate(1)"/>
                            <path fill="#4F4F4F" d="M137.984 77.184c-.037-.131-.06-.268-.071-.407l-.15-1.145c-.122-1.009-.297-2.378-.471-3.963v-.068l.053-.026 1.665-.825c1.63-.807 3.109-1.524 4.182-2.035l1.275-.598c.153-.082.311-.147.473-.195-.145.103-.296.19-.452.263l-1.254.652c-1.065.54-2.535 1.28-4.165 2.086l-1.668.818.045-.094c.165 1.578.31 2.947.417 3.963.044.468.08.854.106 1.153.017.14.021.28.015.421" transform="matrix(-1 0 0 1 183.077 4.308) translate(1)"/>
                            <path fill="#2F3676" d="M123.441 75.641L123.525 76.399 120.55 77.184 120.466 76.425z" transform="matrix(-1 0 0 1 183.077 4.308) translate(1)"/>
                            <path fill="#4F4F4F" d="M130.288 71.702L127.748 72.053 127.527 71.01 126.55 71.145 126.836 72.512 125.055 72.758 125.2 73.441 125.772 76.138 127.553 75.892 127.828 77.184 128.698 77.064 128.522 76.239 131.173 75.873z" transform="matrix(-1 0 0 1 183.077 4.308) translate(1)"/>
                            <path fill="#2F3676" d="M123.525 73.189L126.274 72.553 126.584 75.005 123.835 75.641z" transform="matrix(-1 0 0 1 183.077 4.308) translate(1)"/>
                            <path fill="#E0E0E0" d="M102.11 108.058L103.64 108.058 103.64 77.184 102.11 77.184z" transform="matrix(-1 0 0 1 183.077 4.308) translate(1)"/>
                            <path fill="#4F4F4F" d="M195.418 117.32c0 .062-42.807.115-95.597.115-52.79 0-95.608-.053-95.608-.115 0-.061 42.798-.114 95.608-.114s95.597.049 95.597.114" transform="matrix(-1 0 0 1 183.077 4.308) translate(1)"/>
                            <path fill="#4F4F4F" d="M135.73 117.32c.009-.094.012-.189.01-.284 0-.196.009-.447.014-.752.03-.83-.025-1.663-.162-2.467-.147-.806-.428-1.536-.812-2.115-.118-.17-.248-.317-.387-.44-.038-.035-.077-.065-.117-.092-.027-.02-.042-.028-.043-.022.185.171.359.375.516.605.37.582.639 1.302.784 2.092.136.795.197 1.617.18 2.44v.75c0 .096.005.191.016.285" transform="matrix(-1 0 0 1 183.077 4.308) translate(1)"/>
                            <path fill="#89C5CC" d="M138.822 110.958c.777-1.415 2.46-2.474 4.518-2.845.517-.089 1.161-.102 1.456.209.295.31.091.743-.2 1.061-1.275 1.342-3.55 2.005-5.77 1.682" transform="matrix(-1 0 0 1 183.077 4.308) translate(1)"/>
                            <path fill="#4F4F4F" d="M140.351 109.602c-.063.012-.126.035-.187.07-.07.032-.14.07-.209.115-.095.052-.188.116-.279.189-.11.08-.22.174-.324.277-.115.108-.234.243-.354.386-.263.324-.506.702-.723 1.125-.213.431-.397.906-.552 1.415-.066.223-.125.453-.177.69-.047.201-.088.409-.12.62-.031.175-.056.352-.076.532-.02.132-.032.268-.04.405-.013.115-.019.233-.018.35.015 0 .044-.497.18-1.256.037-.189.074-.386.128-.61.054-.23.114-.455.181-.674.155-.496.338-.96.546-1.383.214-.415.45-.789.706-1.114.12-.143.233-.281.348-.385.102-.107.208-.203.316-.29.392-.327.658-.42.654-.462" transform="matrix(-1 0 0 1 183.077 4.308) translate(1)"/>
                            <path fill="#455A64" d="M102.108 117.32c-.047 0-.086-1.384-.086-3.088 0-1.705.039-3.086.086-3.086.047 0 .09 1.381.09 3.086 0 1.704-.038 3.088-.09 3.088M123.525 111.146l-.149.027-.433.053-1.621.182-5.57.581.045-.028-1.166 2.06-.017.03h-.489l-7.41.152-2.249.03h-.826.213l.61-.028 2.248-.07 7.411-.188h.458l-.048.03c.402-.71.796-1.4 1.167-2.058l.016-.025h.029l5.57-.539 1.624-.145.435-.03.152-.034zM86.814 117.32c-.03-.024-.052-.051-.069-.08l-.162-.228-.554-.825.047.017-2.975-.135c-1.51-.072-2.877-.14-3.867-.19l-1.171-.065c-.144-.006-.286-.017-.427-.032.144-.007.289-.007.433 0l1.174.045c.993.042 2.36.103 3.874.176l2.968.146h.037v.017c.209.337.383.621.511.83l.134.233c.023.029.039.06.047.091" transform="matrix(-1 0 0 1 183.077 4.308) translate(1)"/>
                            <path fill="#455A64" d="M103.64 111.393L103.593 111.393 103.453 111.393 102.906 111.393 100.882 111.414 94.017 111.437 94.038 111.437 92.175 112.249 91.166 112.689 91.151 112.689 91.134 112.689 83.702 111.624 81.485 111.285 80.9 111.189 80.745 111.162 80.695 111.146 80.748 111.146 80.903 111.146 81.505 111.217 83.725 111.508 91.163 112.526 91.134 112.526 92.143 112.085 94.009 111.274 94.029 111.274 100.893 111.298 102.917 111.318 103.464 111.318 103.605 111.318zM174.003 115.777c.092.514.092 1.03 0 1.543-.092-.513-.092-1.03 0-1.543M180.12 115.777c.092.513.092 1.03 0 1.543-.086-.513-.086-1.03 0-1.543M167.882 115.777c.092.514.092 1.03 0 1.543-.085-.513-.085-1.03 0-1.543M160.234 115.777c.092.514.092 1.03 0 1.543-.086-.513-.086-1.03 0-1.543M157.177 112.691c-.161.265-.386.525-.671.78-.227.26-.514.514-.858.762.383-.526.894-1.042 1.53-1.544v.002zM151.059 109.602c-.24.31-.49.587-.75.826-.251.274-.512.514-.78.718.24-.314.49-.591.752-.83.25-.275.51-.514.778-.714" transform="matrix(-1 0 0 1 183.077 4.308) translate(1)"/>
                        </g>
                        <g>
                            <g>
                                <path fill="#575757" d="M10.288 17.46c-3.945 0-7.154-3.217-7.154-7.17s3.209-7.169 7.154-7.169c3.946 0 7.156 3.216 7.156 7.17 0 3.952-3.21 7.168-7.156 7.168m10.05-7.072l-.23-.023c0-.025.003-.05.003-.074l-.002-.073.23-.025c.145-.015.252-.146.237-.293l-.144-1.369c-.015-.147-.147-.253-.293-.238l-.227.024c-.01-.048-.023-.095-.033-.143l.22-.072c.14-.045.216-.196.17-.337l-.424-1.308c-.045-.14-.196-.217-.336-.172l-.22.072-.06-.133.201-.117c.127-.074.171-.237.097-.365l-.686-1.192c-.074-.128-.237-.171-.365-.098l-.204.118c-.028-.04-.055-.08-.084-.119l.174-.156c.11-.1.118-.268.02-.378l-.92-1.023c-.098-.11-.267-.118-.376-.02l-.175.158c-.035-.033-.072-.064-.108-.097l.138-.19c.087-.12.06-.287-.059-.374l-1.111-.81c-.12-.086-.287-.06-.374.06l-.137.19c-.041-.025-.084-.049-.126-.073l.095-.215c.06-.135 0-.292-.135-.352L13.839.61c-.134-.06-.292 0-.352.135l-.094.212-.14-.047.049-.225c.03-.144-.061-.286-.206-.317L11.752.082c-.144-.031-.285.061-.316.205l-.048.227-.146-.016v-.23c0-.148-.12-.268-.267-.268H9.601c-.147 0-.266.12-.266.268v.23l-.146.016L9.14.288C9.11.143 8.968.051 8.825.082L7.48.368c-.144.03-.236.173-.206.317l.048.225-.139.047L7.09.746C7.03.61 6.873.55 6.738.61l-1.255.56c-.134.06-.195.218-.135.352l.095.215-.126.072-.138-.189c-.086-.12-.253-.146-.372-.06l-1.112.81c-.12.087-.145.254-.059.373l.139.191-.11.097-.173-.158c-.11-.098-.279-.09-.377.02l-.92 1.023c-.098.11-.09.279.02.378l.174.156-.084.12L2.1 4.45c-.128-.073-.291-.03-.365.098L1.05 5.74c-.074.128-.03.291.097.365l.202.117c-.02.044-.041.088-.06.133l-.22-.072c-.14-.045-.291.032-.337.172L.307 7.764c-.045.14.031.292.172.337l.22.072c-.011.048-.024.095-.034.143L.44 8.292c-.147-.015-.278.091-.294.238L.001 9.898c-.015.148.091.279.238.294l.23.025-.002.073.001.074-.23.023c-.146.015-.252.147-.237.294l.144 1.369c.016.146.147.253.294.237l.226-.023c.01.048.023.095.033.143l-.219.071c-.14.046-.217.196-.171.337l.424 1.308c.046.141.196.218.336.172l.22-.071.06.133-.2.116c-.128.074-.172.237-.098.366l.687 1.191c.074.128.236.172.364.098l.204-.118c.028.04.055.08.084.119l-.173.157c-.11.098-.119.267-.02.377l.92 1.023c.098.11.266.118.376.02l.174-.157.11.096-.14.191c-.086.12-.06.286.06.373l1.111.81c.12.086.286.06.373-.06l.137-.19c.042.026.084.05.126.074l-.095.214c-.06.134 0 .292.135.352l1.256.56c.134.06.292 0 .352-.135l.094-.212.138.047-.047.225c-.03.144.061.286.205.317l1.344.286c.144.03.286-.062.316-.206l.048-.226c.049.005.097.012.146.016v.231c0 .147.119.267.266.267h1.374c.147 0 .267-.12.267-.267v-.23l.145-.017.048.226c.031.145.172.237.317.206l1.344-.286c.144-.03.235-.173.205-.317l-.047-.225.138-.047.094.212c.06.135.218.195.352.135l1.255-.56c.135-.06.196-.217.135-.352l-.094-.214.126-.073.137.19c.087.119.254.145.373.058l1.111-.808c.12-.087.146-.254.059-.374l-.138-.19.109-.097.174.157c.11.098.278.09.377-.02l.92-1.023c.098-.109.089-.278-.02-.377l-.175-.157c.03-.04.057-.08.085-.119l.204.118c.127.074.29.03.364-.098l.687-1.191c.074-.129.03-.292-.098-.366l-.2-.116.06-.133.22.07c.14.047.29-.03.336-.17l.424-1.31c.046-.14-.03-.29-.17-.336l-.22-.071c.01-.048.023-.095.033-.143l.226.023c.147.016.278-.09.294-.237l.144-1.369c.015-.147-.092-.279-.238-.294" transform="matrix(-1 0 0 1 183.077 4.308) translate(94.77 66.77)"/>
                                <path fill="#6D7080" d="M10.289 2.903c-4.073 0-7.374 3.307-7.374 7.387s3.301 7.387 7.374 7.387c4.072 0 7.374-3.308 7.374-7.387 0-4.08-3.302-7.387-7.374-7.387m0 .476c3.803 0 6.898 3.1 6.898 6.91 0 3.811-3.095 6.911-6.898 6.911-3.804 0-6.899-3.1-6.899-6.91s3.095-6.91 6.899-6.91" transform="matrix(-1 0 0 1 183.077 4.308) translate(94.77 66.77)"/>
                                <path fill="#6D7080" d="M10.288 20.058c-5.377 0-9.75-4.382-9.75-9.768C.537 4.903 4.91.52 10.287.52s9.752 4.382 9.752 9.769c0 5.386-4.375 9.768-9.752 9.768m8.073-3.772l-.174-.156c.03-.04.057-.08.085-.12l.204.118c.127.074.29.03.364-.098l.688-1.191c.073-.129.03-.291-.099-.365l-.2-.117.06-.133.22.071c.14.046.29-.03.336-.171l.424-1.31c.046-.14-.03-.29-.17-.336l-.22-.071c.01-.048.023-.095.033-.143l.226.024c.147.015.278-.092.294-.238l.144-1.369c.015-.147-.092-.278-.238-.293l-.23-.025c0-.025.003-.048.003-.073l-.002-.074.23-.024c.145-.015.252-.147.237-.293l-.144-1.37c-.015-.146-.147-.252-.293-.237l-.227.024c-.01-.048-.023-.095-.033-.143l.22-.072c.14-.045.216-.196.17-.337l-.424-1.308c-.045-.14-.196-.217-.336-.172l-.22.072-.06-.134.2-.116c.128-.074.172-.237.099-.365l-.687-1.192c-.074-.128-.237-.171-.365-.097l-.204.117c-.028-.04-.055-.08-.084-.119l.174-.157c.11-.098.118-.267.02-.377l-.92-1.023c-.098-.11-.267-.118-.376-.02l-.175.158c-.035-.033-.072-.064-.108-.097l.138-.19c.087-.12.06-.287-.059-.374l-1.111-.809c-.12-.087-.287-.06-.373.059l-.137.19-.127-.074.095-.214c.06-.134 0-.292-.135-.352L13.839.61c-.134-.06-.292 0-.352.135l-.095.212-.138-.047.048-.225c.03-.144-.062-.286-.206-.317L11.752.082c-.144-.031-.285.061-.316.206l-.048.226-.146-.016v-.23c0-.148-.12-.268-.267-.268H9.601c-.147 0-.266.12-.266.267v.231l-.146.016L9.14.288C9.11.144 8.968.05 8.825.082L7.48.368c-.144.03-.236.173-.206.317l.048.225-.139.047L7.09.746C7.03.61 6.873.55 6.738.61l-1.255.56c-.134.06-.195.218-.135.352l.095.214-.126.073-.138-.189c-.086-.12-.253-.146-.372-.059l-1.112.809c-.12.087-.145.254-.059.373l.139.191-.11.097-.173-.157c-.11-.1-.279-.09-.377.02l-.92 1.022c-.098.11-.09.279.02.377l.174.157-.084.119-.204-.117c-.128-.074-.291-.03-.365.097L1.05 5.741c-.074.128-.03.29.097.365l.202.116-.06.134-.22-.072c-.14-.045-.291.032-.337.172L.307 7.764c-.045.14.031.292.172.337l.22.071c-.011.049-.024.096-.034.144L.44 8.292c-.147-.015-.279.091-.294.238L.001 9.898c-.015.147.091.279.238.294l.23.024-.002.074.001.073-.23.025c-.146.015-.252.146-.237.293l.144 1.369c.015.146.147.253.294.237l.226-.024.033.144-.219.071c-.14.046-.217.197-.171.337l.424 1.309c.046.14.196.217.336.171l.22-.071.06.133-.2.116c-.128.074-.172.237-.098.366l.687 1.191c.073.128.236.172.364.098l.204-.118c.028.04.055.08.084.119l-.173.157c-.11.098-.119.268-.02.377l.92 1.023c.098.11.266.118.376.02l.174-.158.11.097-.14.19c-.086.12-.06.287.06.375l1.111.808c.12.087.286.06.373-.059l.137-.19c.042.026.084.05.126.074l-.095.214c-.06.134 0 .292.135.352l1.255.56c.135.06.293 0 .353-.135l.094-.212.138.047-.047.225c-.03.144.061.286.205.317l1.344.286c.144.03.286-.062.316-.206l.048-.226.146.017v.23c0 .147.119.267.266.267h1.374c.147 0 .267-.12.267-.267v-.23l.145-.017.048.226c.031.145.173.237.317.206l1.344-.286c.144-.03.235-.173.205-.317l-.047-.225.138-.047.094.212c.06.135.218.196.352.135l1.255-.56c.135-.06.195-.217.136-.352l-.095-.214.126-.073.137.19c.087.118.254.145.373.058l1.111-.808c.12-.087.146-.254.059-.373l-.138-.192.109-.097.174.158c.11.098.278.09.377-.02l.92-1.023c.098-.11.089-.278-.02-.377" transform="matrix(-1 0 0 1 183.077 4.308) translate(94.77 66.77)"/>
                                <path fill="#2B2C33" d="M10.288 17.46c-3.945 0-7.154-3.217-7.154-7.17s3.209-7.169 7.154-7.169c3.946 0 7.156 3.216 7.156 7.17 0 3.952-3.21 7.168-7.156 7.168m0-16.938C4.911.521.537 4.904.537 10.29s4.374 9.768 9.751 9.768 9.752-4.382 9.752-9.768c0-5.386-4.375-9.769-9.752-9.769" transform="matrix(-1 0 0 1 183.077 4.308) translate(94.77 66.77)"/>
                                <path fill="#FFF" d="M14.756 14.078c-.063.077-.156.121-.254.121-.1 0-.195-.046-.262-.126l-2.64-3.125c-.07-.083-.094-.18-.066-.268.028-.087.105-.153.211-.18l3.972-.975c.213-.05.406.093.421.303.013.148.02.294.02.447 0 1.39-.498 2.74-1.402 3.803zM12.715 15.5c-.03.093-.1.17-.194.208-.711.295-1.463.443-2.233.443s-1.52-.148-2.232-.443c-.092-.038-.163-.113-.194-.205-.03-.095-.016-.2.038-.288l2.154-3.483c.113-.187.356-.187.47 0l2.151 3.483c.055.086.07.19.04.285zm-6.64-1.302c-.099 0-.19-.043-.256-.121-.902-1.061-1.399-2.412-1.399-3.803 0-.153.006-.3.02-.449.014-.208.21-.35.418-.3l3.973.973c.107.028.184.094.213.181.027.088.003.185-.067.268l-2.64 3.126c-.068.08-.164.125-.262.125zm-.78-7.007c.81-1.311 2.125-2.27 3.61-2.63.209-.05.4.098.416.308l.3 4.084c.01.09-.015.17-.067.227-.047.051-.112.079-.185.079-.041 0-.084-.009-.127-.026L5.457 7.683c-.095-.04-.167-.117-.198-.21-.03-.094-.018-.194.035-.281zm5.962-2.322c.015-.21.211-.357.414-.309 1.485.361 2.8 1.32 3.61 2.63.053.086.067.188.038.28-.031.095-.104.172-.201.212l-3.782 1.55c-.044.018-.087.027-.128.027-.072 0-.138-.028-.184-.078-.052-.056-.077-.137-.07-.227l.303-4.085zm-.969-1.547c-3.831 0-6.938 3.112-6.938 6.951 0 3.839 3.107 6.95 6.938 6.95 3.833 0 6.94-3.111 6.94-6.95s-3.107-6.95-6.94-6.95z" transform="matrix(-1 0 0 1 183.077 4.308) translate(94.77 66.77)"/>
                                <path fill="#CDCED0" d="M10.288 9.501c.198 0 .359-.16.359-.358 0-.198-.161-.36-.36-.36-.197 0-.359.162-.359.36 0 .199.162.358.36.358M11.213 9.555c-.188.06-.291.263-.231.45.062.19.264.293.451.232.188-.061.292-.264.232-.453-.062-.188-.264-.291-.452-.23M10.639 11.325c.115.161.34.197.5.079.16-.116.195-.34.08-.5-.116-.162-.34-.197-.501-.08-.16.117-.195.34-.08.501M9.594 10.008c.062-.189-.041-.391-.23-.453-.187-.06-.389.041-.452.232-.061.188.042.39.23.45.19.063.392-.04.452-.23M11.461 5.278c1.352.32 2.497 1.18 3.197 2.339l-3.41 1.399c-.02.007-.033.009-.04.009l-.012-.003c-.004-.004-.01-.02-.008-.05l.273-3.694zm-.253 3.982c.041 0 .084-.009.128-.026l3.782-1.551c.097-.04.17-.117.2-.211.03-.093.016-.195-.037-.281-.81-1.31-2.125-2.269-3.61-2.63-.203-.048-.4.1-.414.309l-.304 4.085c-.007.09.019.171.07.228.047.05.113.077.185.077zM9.116 5.278l.272 3.695c.003.03-.004.045-.007.05-.004.004-.022.005-.05-.007L5.919 7.617c.7-1.16 1.844-2.019 3.197-2.339M5.457 7.683l3.785 1.55c.044.018.086.027.127.027.073 0 .138-.028.185-.079.052-.056.076-.138.068-.227L9.32 4.87c-.014-.21-.206-.358-.415-.308-1.485.36-2.801 1.32-3.61 2.63-.054.087-.067.187-.036.28.031.094.103.171.198.21M8.798 10.796l-2.366 2.8c-.776-.897-1.249-2.064-1.249-3.341 0-.136.007-.27.017-.404l3.574.877c.035.008.045.021.046.024.001.005-.002.021-.022.044m.246-.115c-.029-.089-.106-.154-.213-.181l-3.973-.975c-.207-.049-.404.093-.418.301-.014.149-.02.296-.02.448 0 1.392.497 2.743 1.4 3.804.066.078.156.121.255.121.098 0 .194-.046.262-.125l2.64-3.126c.07-.083.094-.18.067-.267M14.146 13.597l-2.367-2.8c-.019-.023-.023-.04-.021-.045 0-.003.012-.015.044-.024l3.576-.877c.01.134.017.268.017.403 0 1.278-.474 2.445-1.25 3.343m1.993-3.77c-.015-.209-.208-.352-.421-.302l-3.972.975c-.106.027-.183.093-.211.18-.028.088-.004.186.066.268l2.64 3.125c.067.08.162.126.262.126.098 0 .19-.044.254-.121.904-1.062 1.402-2.413 1.402-3.803 0-.153-.007-.3-.02-.447M10.289 15.369c-.696 0-1.358-.142-1.962-.396l1.927-3.117c.018-.03.033-.035.035-.035.001 0 .017.006.035.036l1.925 3.117c-.604.253-1.266.395-1.96.395zm.236-3.635c-.115-.188-.358-.188-.471-.001L7.9 15.216c-.054.088-.068.193-.038.288.031.092.102.168.194.205.712.295 1.463.443 2.232.443.77 0 1.522-.148 2.233-.443.093-.038.164-.114.194-.208.03-.095.015-.2-.04-.285l-2.15-3.482zM9.36 10.903c-.117.162-.082.385.08.503.158.116.383.08.499-.08.118-.16.08-.385-.08-.501-.16-.116-.383-.08-.498.078" transform="matrix(-1 0 0 1 183.077 4.308) translate(94.77 66.77)"/>
                            </g>
                            <g>
                                <path fill="#575757" d="M10.288 17.46c-3.945 0-7.154-3.217-7.154-7.17s3.209-7.169 7.154-7.169c3.946 0 7.156 3.216 7.156 7.17 0 3.952-3.21 7.168-7.156 7.168m10.05-7.072l-.23-.023c0-.025.003-.05.003-.074l-.002-.073.23-.025c.145-.015.252-.146.237-.293l-.144-1.369c-.015-.147-.147-.253-.293-.238l-.227.024c-.01-.048-.023-.095-.033-.143l.22-.072c.14-.045.216-.196.17-.337l-.424-1.308c-.045-.14-.196-.217-.336-.172l-.22.072-.06-.133.201-.117c.127-.074.171-.237.097-.365l-.686-1.192c-.074-.128-.237-.171-.365-.098l-.204.118c-.028-.04-.055-.08-.084-.119l.174-.156c.11-.1.118-.268.02-.378l-.92-1.023c-.098-.11-.267-.118-.376-.02l-.175.158c-.035-.033-.072-.064-.108-.097l.138-.19c.087-.12.06-.287-.059-.374l-1.111-.81c-.12-.086-.287-.06-.374.06l-.137.19c-.041-.025-.084-.049-.126-.073l.095-.215c.06-.135 0-.292-.135-.352L13.839.61c-.134-.06-.292 0-.352.135l-.094.212-.14-.047.049-.225c.03-.144-.061-.286-.206-.317L11.752.082c-.144-.031-.285.061-.316.205l-.048.227-.146-.016v-.23c0-.148-.12-.268-.267-.268H9.601c-.147 0-.266.12-.266.268v.23l-.146.016L9.14.288C9.11.143 8.968.051 8.825.082L7.48.368c-.144.03-.236.173-.206.317l.048.225-.139.047L7.09.746C7.03.61 6.873.55 6.738.61l-1.255.56c-.134.06-.195.218-.135.352l.095.215-.126.072-.138-.189c-.086-.12-.253-.146-.372-.06l-1.112.81c-.12.087-.145.254-.059.373l.139.191-.11.097-.173-.158c-.11-.098-.279-.09-.377.02l-.92 1.023c-.098.11-.09.279.02.378l.174.156-.084.12L2.1 4.45c-.128-.073-.291-.03-.365.098L1.05 5.74c-.074.128-.03.291.097.365l.202.117c-.02.044-.041.088-.06.133l-.22-.072c-.14-.045-.291.032-.337.172L.307 7.764c-.045.14.031.292.172.337l.22.072c-.011.048-.024.095-.034.143L.44 8.292c-.147-.015-.278.091-.294.238L.001 9.898c-.015.148.091.279.238.294l.23.025-.002.073.001.074-.23.023c-.146.015-.252.147-.237.294l.144 1.369c.016.146.147.253.294.237l.226-.023c.01.048.023.095.033.143l-.219.071c-.14.046-.217.196-.171.337l.424 1.308c.046.141.196.218.336.172l.22-.071.06.133-.2.116c-.128.074-.172.237-.098.366l.687 1.191c.074.128.236.172.364.098l.204-.118c.028.04.055.08.084.119l-.173.157c-.11.098-.119.267-.02.377l.92 1.023c.098.11.266.118.376.02l.174-.157.11.096-.14.191c-.086.12-.06.286.06.373l1.111.81c.12.086.286.06.373-.06l.137-.19c.042.026.084.05.126.074l-.095.214c-.06.134 0 .292.135.352l1.256.56c.134.06.292 0 .352-.135l.094-.212.138.047-.047.225c-.03.144.061.286.205.317l1.344.286c.144.03.286-.062.316-.206l.048-.226c.049.005.097.012.146.016v.231c0 .147.119.267.266.267h1.374c.147 0 .267-.12.267-.267v-.23l.145-.017.048.226c.031.145.172.237.317.206l1.344-.286c.144-.03.235-.173.205-.317l-.047-.225.138-.047.094.212c.06.135.218.195.352.135l1.255-.56c.135-.06.196-.217.135-.352l-.094-.214.126-.073.137.19c.087.119.254.145.373.058l1.111-.808c.12-.087.146-.254.059-.374l-.138-.19.109-.097.174.157c.11.098.278.09.377-.02l.92-1.023c.098-.109.089-.278-.02-.377l-.175-.157c.03-.04.057-.08.085-.119l.204.118c.127.074.29.03.364-.098l.687-1.191c.074-.129.03-.292-.098-.366l-.2-.116.06-.133.22.07c.14.047.29-.03.336-.17l.424-1.31c.046-.14-.03-.29-.17-.336l-.22-.071c.01-.048.023-.095.033-.143l.226.023c.147.016.278-.09.294-.237l.144-1.369c.015-.147-.092-.279-.238-.294" transform="matrix(-1 0 0 1 183.077 4.308) translate(94.77 66.77)"/>
                                <path fill="#6D7080" d="M10.289 2.903c-4.073 0-7.374 3.307-7.374 7.387s3.301 7.387 7.374 7.387c4.072 0 7.374-3.308 7.374-7.387 0-4.08-3.302-7.387-7.374-7.387m0 .476c3.803 0 6.898 3.1 6.898 6.91 0 3.811-3.095 6.911-6.898 6.911-3.804 0-6.899-3.1-6.899-6.91s3.095-6.91 6.899-6.91" transform="matrix(-1 0 0 1 183.077 4.308) translate(94.77 66.77)"/>
                                <path fill="#6D7080" d="M10.288 20.058c-5.377 0-9.75-4.382-9.75-9.768C.537 4.903 4.91.52 10.287.52s9.752 4.382 9.752 9.769c0 5.386-4.375 9.768-9.752 9.768m8.073-3.772l-.174-.156c.03-.04.057-.08.085-.12l.204.118c.127.074.29.03.364-.098l.688-1.191c.073-.129.03-.291-.099-.365l-.2-.117.06-.133.22.071c.14.046.29-.03.336-.171l.424-1.31c.046-.14-.03-.29-.17-.336l-.22-.071c.01-.048.023-.095.033-.143l.226.024c.147.015.278-.092.294-.238l.144-1.369c.015-.147-.092-.278-.238-.293l-.23-.025c0-.025.003-.048.003-.073l-.002-.074.23-.024c.145-.015.252-.147.237-.293l-.144-1.37c-.015-.146-.147-.252-.293-.237l-.227.024c-.01-.048-.023-.095-.033-.143l.22-.072c.14-.045.216-.196.17-.337l-.424-1.308c-.045-.14-.196-.217-.336-.172l-.22.072-.06-.134.2-.116c.128-.074.172-.237.099-.365l-.687-1.192c-.074-.128-.237-.171-.365-.097l-.204.117c-.028-.04-.055-.08-.084-.119l.174-.157c.11-.098.118-.267.02-.377l-.92-1.023c-.098-.11-.267-.118-.376-.02l-.175.158c-.035-.033-.072-.064-.108-.097l.138-.19c.087-.12.06-.287-.059-.374l-1.111-.809c-.12-.087-.287-.06-.373.059l-.137.19-.127-.074.095-.214c.06-.134 0-.292-.135-.352L13.839.61c-.134-.06-.292 0-.352.135l-.095.212-.138-.047.048-.225c.03-.144-.062-.286-.206-.317L11.752.082c-.144-.031-.285.061-.316.206l-.048.226-.146-.016v-.23c0-.148-.12-.268-.267-.268H9.601c-.147 0-.266.12-.266.267v.231l-.146.016L9.14.288C9.11.144 8.968.05 8.825.082L7.48.368c-.144.03-.236.173-.206.317l.048.225-.139.047L7.09.746C7.03.61 6.873.55 6.738.61l-1.255.56c-.134.06-.195.218-.135.352l.095.214-.126.073-.138-.189c-.086-.12-.253-.146-.372-.059l-1.112.809c-.12.087-.145.254-.059.373l.139.191-.11.097-.173-.157c-.11-.1-.279-.09-.377.02l-.92 1.022c-.098.11-.09.279.02.377l.174.157-.084.119-.204-.117c-.128-.074-.291-.03-.365.097L1.05 5.741c-.074.128-.03.29.097.365l.202.116-.06.134-.22-.072c-.14-.045-.291.032-.337.172L.307 7.764c-.045.14.031.292.172.337l.22.071c-.011.049-.024.096-.034.144L.44 8.292c-.147-.015-.279.091-.294.238L.001 9.898c-.015.147.091.279.238.294l.23.024-.002.074.001.073-.23.025c-.146.015-.252.146-.237.293l.144 1.369c.015.146.147.253.294.237l.226-.024.033.144-.219.071c-.14.046-.217.197-.171.337l.424 1.309c.046.14.196.217.336.171l.22-.071.06.133-.2.116c-.128.074-.172.237-.098.366l.687 1.191c.073.128.236.172.364.098l.204-.118c.028.04.055.08.084.119l-.173.157c-.11.098-.119.268-.02.377l.92 1.023c.098.11.266.118.376.02l.174-.158.11.097-.14.19c-.086.12-.06.287.06.375l1.111.808c.12.087.286.06.373-.059l.137-.19c.042.026.084.05.126.074l-.095.214c-.06.134 0 .292.135.352l1.255.56c.135.06.293 0 .353-.135l.094-.212.138.047-.047.225c-.03.144.061.286.205.317l1.344.286c.144.03.286-.062.316-.206l.048-.226.146.017v.23c0 .147.119.267.266.267h1.374c.147 0 .267-.12.267-.267v-.23l.145-.017.048.226c.031.145.173.237.317.206l1.344-.286c.144-.03.235-.173.205-.317l-.047-.225.138-.047.094.212c.06.135.218.196.352.135l1.255-.56c.135-.06.195-.217.136-.352l-.095-.214.126-.073.137.19c.087.118.254.145.373.058l1.111-.808c.12-.087.146-.254.059-.373l-.138-.192.109-.097.174.158c.11.098.278.09.377-.02l.92-1.023c.098-.11.089-.278-.02-.377" transform="matrix(-1 0 0 1 183.077 4.308) translate(94.77 66.77)"/>
                                <path fill="#2B2C33" d="M10.288 17.46c-3.945 0-7.154-3.217-7.154-7.17s3.209-7.169 7.154-7.169c3.946 0 7.156 3.216 7.156 7.17 0 3.952-3.21 7.168-7.156 7.168m0-16.938C4.911.521.537 4.904.537 10.29s4.374 9.768 9.751 9.768 9.752-4.382 9.752-9.768c0-5.386-4.375-9.769-9.752-9.769" transform="matrix(-1 0 0 1 183.077 4.308) translate(94.77 66.77)"/>
                                <path fill="#FFF" d="M14.756 14.078c-.063.077-.156.121-.254.121-.1 0-.195-.046-.262-.126l-2.64-3.125c-.07-.083-.094-.18-.066-.268.028-.087.105-.153.211-.18l3.972-.975c.213-.05.406.093.421.303.013.148.02.294.02.447 0 1.39-.498 2.74-1.402 3.803zM12.715 15.5c-.03.093-.1.17-.194.208-.711.295-1.463.443-2.233.443s-1.52-.148-2.232-.443c-.092-.038-.163-.113-.194-.205-.03-.095-.016-.2.038-.288l2.154-3.483c.113-.187.356-.187.47 0l2.151 3.483c.055.086.07.19.04.285zm-6.64-1.302c-.099 0-.19-.043-.256-.121-.902-1.061-1.399-2.412-1.399-3.803 0-.153.006-.3.02-.449.014-.208.21-.35.418-.3l3.973.973c.107.028.184.094.213.181.027.088.003.185-.067.268l-2.64 3.126c-.068.08-.164.125-.262.125zm-.78-7.007c.81-1.311 2.125-2.27 3.61-2.63.209-.05.4.098.416.308l.3 4.084c.01.09-.015.17-.067.227-.047.051-.112.079-.185.079-.041 0-.084-.009-.127-.026L5.457 7.683c-.095-.04-.167-.117-.198-.21-.03-.094-.018-.194.035-.281zm5.962-2.322c.015-.21.211-.357.414-.309 1.485.361 2.8 1.32 3.61 2.63.053.086.067.188.038.28-.031.095-.104.172-.201.212l-3.782 1.55c-.044.018-.087.027-.128.027-.072 0-.138-.028-.184-.078-.052-.056-.077-.137-.07-.227l.303-4.085zm-.969-1.547c-3.831 0-6.938 3.112-6.938 6.951 0 3.839 3.107 6.95 6.938 6.95 3.833 0 6.94-3.111 6.94-6.95s-3.107-6.95-6.94-6.95z" transform="matrix(-1 0 0 1 183.077 4.308) translate(94.77 66.77)"/>
                                <path fill="#CDCED0" d="M10.288 9.501c.198 0 .359-.16.359-.358 0-.198-.161-.36-.36-.36-.197 0-.359.162-.359.36 0 .199.162.358.36.358M11.213 9.555c-.188.06-.291.263-.231.45.062.19.264.293.451.232.188-.061.292-.264.232-.453-.062-.188-.264-.291-.452-.23M10.639 11.325c.115.161.34.197.5.079.16-.116.195-.34.08-.5-.116-.162-.34-.197-.501-.08-.16.117-.195.34-.08.501M9.594 10.008c.062-.189-.041-.391-.23-.453-.187-.06-.389.041-.452.232-.061.188.042.39.23.45.19.063.392-.04.452-.23M11.461 5.278c1.352.32 2.497 1.18 3.197 2.339l-3.41 1.399c-.02.007-.033.009-.04.009l-.012-.003c-.004-.004-.01-.02-.008-.05l.273-3.694zm-.253 3.982c.041 0 .084-.009.128-.026l3.782-1.551c.097-.04.17-.117.2-.211.03-.093.016-.195-.037-.281-.81-1.31-2.125-2.269-3.61-2.63-.203-.048-.4.1-.414.309l-.304 4.085c-.007.09.019.171.07.228.047.05.113.077.185.077zM9.116 5.278l.272 3.695c.003.03-.004.045-.007.05-.004.004-.022.005-.05-.007L5.919 7.617c.7-1.16 1.844-2.019 3.197-2.339M5.457 7.683l3.785 1.55c.044.018.086.027.127.027.073 0 .138-.028.185-.079.052-.056.076-.138.068-.227L9.32 4.87c-.014-.21-.206-.358-.415-.308-1.485.36-2.801 1.32-3.61 2.63-.054.087-.067.187-.036.28.031.094.103.171.198.21M8.798 10.796l-2.366 2.8c-.776-.897-1.249-2.064-1.249-3.341 0-.136.007-.27.017-.404l3.574.877c.035.008.045.021.046.024.001.005-.002.021-.022.044m.246-.115c-.029-.089-.106-.154-.213-.181l-3.973-.975c-.207-.049-.404.093-.418.301-.014.149-.02.296-.02.448 0 1.392.497 2.743 1.4 3.804.066.078.156.121.255.121.098 0 .194-.046.262-.125l2.64-3.126c.07-.083.094-.18.067-.267M14.146 13.597l-2.367-2.8c-.019-.023-.023-.04-.021-.045 0-.003.012-.015.044-.024l3.576-.877c.01.134.017.268.017.403 0 1.278-.474 2.445-1.25 3.343m1.993-3.77c-.015-.209-.208-.352-.421-.302l-3.972.975c-.106.027-.183.093-.211.18-.028.088-.004.186.066.268l2.64 3.125c.067.08.162.126.262.126.098 0 .19-.044.254-.121.904-1.062 1.402-2.413 1.402-3.803 0-.153-.007-.3-.02-.447M10.289 15.369c-.696 0-1.358-.142-1.962-.396l1.927-3.117c.018-.03.033-.035.035-.035.001 0 .017.006.035.036l1.925 3.117c-.604.253-1.266.395-1.96.395zm.236-3.635c-.115-.188-.358-.188-.471-.001L7.9 15.216c-.054.088-.068.193-.038.288.031.092.102.168.194.205.712.295 1.463.443 2.232.443.77 0 1.522-.148 2.233-.443.093-.038.164-.114.194-.208.03-.095.015-.2-.04-.285l-2.15-3.482zM9.36 10.903c-.117.162-.082.385.08.503.158.116.383.08.499-.08.118-.16.08-.385-.08-.501-.16-.116-.383-.08-.498.078" transform="matrix(-1 0 0 1 183.077 4.308) translate(94.77 66.77)"/>
                            </g>
                        </g>
                    </g>
                </g>
            </g>
        </g>
    </g>
</svg>
