<svg xmlns="http://www.w3.org/2000/svg" xmlns:xlink="http://www.w3.org/1999/xlink" width="260" height="101" viewBox="0 0 260 101">
    <defs>
        <path id="9gahx4z95a" d="M75.254 1.816c21.551 2.668 41.153 8.126 56.914 15.243 2.693 1.216 5.275 2.48 7.734 3.787-18.172-.512-73.337-2.088-105.807-3.252-14.068-.505-23.875-.932-24.57-1.162-.672-.224-1.79-1.09-3.084-2.313C4.39 12.18 1.896 9.345.023 6.745 11.186 3.105 24.74.84 39.728.245"/>
    </defs>
    <g fill="none" fill-rule="evenodd">
        <g>
            <g>
                <g fill="#FFF">
                    <path d="M.671 53.847c.933-1.696 4.802-5.58 4.802-6.292v-6.84c-1.153-.41-.576-5.417 0-8.782.576-3.366 2.551-8.783 6.667-11.41 0 0 14.103-19.151 16.407-19.698 2.305-.548 38.247-1.15 63.27-.493 25.022.657 49.112 1.697 58.66 3.776 9.548 2.08 23.157 12.147 37.314 23.31 1.153.164 13.006.821 34.735 3.12 21.73 2.297 25.846 3.282 29.468 7.386 2.524 1.204 5.68 6.074 6.036 11.929 2.085 2.626 1.866 5.144 1.866 12.202 0 7.059-4.28 8.7-7.573 10.835-3.292 2.134-9.63 3.2-12.758 3.447l-1.111.09c-.287-6.817-.46-14.008-5.129-19.789-5.037-6.238-15.408-8.208-27.096-7.551-11.688.656-15.968 9.52-18.108 19.206-1.089 4.926-1.58 8.868-1.8 11.56h-.011c-6.256-.425-57.892-.561-80.72-.342-6.1.058-14.276-.079-23.06-.31-.624-3.266-1.27-7.99-2.401-13.772-1.976-10.086-8.56-15.357-23.212-16.342-14.651-.985-19.096 2.462-23.326 9.029-3.682 5.715-4.486 13.915-6.695 19.097h-.105c-9.767-.548-24.254-3.393-25.68-4.707C-.318 71.193-.263 55.544.67 53.847" transform="translate(-209 -430) translate(209 430)"/>
                </g>
                <path fill="#FF7A00" d="M258 50c-3.84-2.732-13.386-4.206-18.228-7.21-5.328-3.306-6.923-5.126-6.761-6.309.27-1.014 11.834-.342 19.04 1.24C254.537 38.96 257.647 43.972 258 50" transform="translate(-209 -430) translate(209 430)"/>
                <path fill="#30516C" d="M182 32S47.948 28.23 45.311 27.343c-2.637-.887-12.086-11.754-12.306-15.302-.22-3.549 7.252-7.208 8.57-7.818 1.996-.426 18.684-.135 34.386 0 6.778.059 13.343.034 18.512 0 17.14-.11 32.632.047 42.756 1.054 10.124 1.006 14.528 2.175 21.202 5.97C165.104 15.042 179.5 26.677 182 32" transform="translate(-209 -430) translate(209 430)"/>
                <path fill="#30516C" d="M126 31c-20.384-.616-42.202-1.306-58-1.884.48-1.061.82-1.76.82-1.76C69.925 22.72 77.22 5 77.22 5h42.893L126 31z" transform="translate(-209 -430) translate(209 430)"/>
                <path fill="#FFF" d="M67.82 27.357C68.925 22.72 76.22 5 76.22 5h.664s-7.296 17.72-8.402 22.357c0 0-.34.698-.82 1.76 15.626.571 37.14 1.252 57.333 1.863L125 31c-20.384-.616-42.202-1.306-58-1.884.48-1.061.82-1.76.82-1.76" transform="translate(-209 -430) translate(209 430)"/>
                <path fill="#30516C" d="M120 29.317s.055-10.395 0-25.317c0 0 19.866.503 29.69 3.018C159.514 9.533 176.76 23.728 182 32c0 0-29.979-.855-61.768-1.85-.072-.31-.15-.589-.232-.833" transform="translate(-209 -430) translate(209 430)"/>
                <g transform="translate(-209 -430) translate(209 430) translate(36 11)">
                    <mask id="yafnc1msab" fill="#fff">
                        <use xlink:href="#9gahx4z95a"/>
                    </mask>
                    <path d="M139.902 20.846c-18.172-.512-73.337-2.088-105.807-3.252-14.068-.505-23.875-.932-24.57-1.162-.672-.224-1.79-1.09-3.084-2.313C4.39 12.18 1.896 9.345.023 6.745 11.186 3.105 24.74.84 39.728.245c11.179-.444 23.154.04 35.526 1.57 21.551 2.669 41.153 8.127 56.914 15.244 2.693 1.216 5.275 2.48 7.734 3.787" mask="url(#yafnc1msab)"/>
                </g>
                <path fill="#FFF" d="M119 4s.239.006.655.02c.054 14.911 0 25.297 0 25.297.083.244.16.524.232.833 29.022.908 56.531 1.7 61.1 1.83L181 32s-29.979-.856-61.768-1.85c-.072-.31-.15-.589-.232-.833 0 0 .055-10.395 0-25.317" transform="translate(-209 -430) translate(209 430)"/>
                <path fill="#FF7A00" d="M19.325 20.377c1.117 3.116-1.898 5.341-2.01 9.681C17.205 34.398 21 40.964 21 40.964s-12.338.111-15.325-.056c-.138-.128-.257-.276-.382-.418-.629-1.356-.125-5.555.382-8.512.586-3.422 2.596-8.93 6.783-11.601 2.178-.445 6.532-.557 6.867 0" transform="translate(-209 -430) translate(209 430)"/>
                <path fill="#EDEDED" d="M83 79.867v.534c0 .858.828 1.553 1.855 1.553 29.003.002 79.472.046 85.466.046 6.124 0 9.742-1.508 9.679-2.133-1.15-1.02-22.309-.746-52.82-.746-30.513 0-44.18-.564-44.18.746" transform="translate(-209 -430) translate(209 430)"/>
                <path fill="#22313C" d="M190 77.5c0 12.426 10.074 22.5 22.5 22.5S235 89.926 235 77.5 224.926 55 212.5 55 190 65.074 190 77.5M33 78.5C33 90.926 43.074 101 55.5 101S78 90.926 78 78.5 67.926 56 55.5 56 33 66.074 33 78.5" transform="translate(-209 -430) translate(209 430)"/>
                <path fill="#22313C" d="M73 78.5C73 88.165 65.165 96 55.5 96S38 88.165 38 78.5 45.835 61 55.5 61 73 68.835 73 78.5" transform="translate(-209 -430) translate(209 430)"/>
                <path fill="#6F7375" d="M72 78.5C72 87.06 64.837 94 56 94s-16-6.94-16-15.5C40 69.94 47.163 63 56 63s16 6.94 16 15.5" transform="translate(-209 -430) translate(209 430)"/>
                <path fill="#F2F2F2" d="M72 78.5C72 87.06 64.837 94 56 94s-16-6.94-16-15.5C40 69.94 47.163 63 56 63s16 6.94 16 15.5" transform="translate(-209 -430) translate(209 430)"/>
                <path fill="#1A202B" d="M62 78.5c0 3.59-2.91 6.5-6.5 6.5S49 82.09 49 78.5s2.91-6.5 6.5-6.5 6.5 2.91 6.5 6.5" transform="translate(-209 -430) translate(209 430)"/>
                <path fill="#F5822D" d="M60 78c0 2.21-1.79 4-4 4-2.209 0-4-1.79-4-4s1.791-4 4-4c2.21 0 4 1.79 4 4" transform="translate(-209 -430) translate(209 430)"/>
                <path fill="#C3C3C3" d="M123.942 39h12.116c.52 0 .942-.448.942-1s-.422-1-.942-1h-12.116c-.52 0-.942.448-.942 1s.422 1 .942 1M69.942 38h12.116c.52 0 .942-.448.942-1s-.422-1-.942-1H69.942c-.52 0-.942.448-.942 1s.422 1 .942 1" transform="translate(-209 -430) translate(209 430)"/>
                <path fill="#CBCACA" d="M175.993 27c1.387 1.52 3.186 3.638 2.993 5.322-2.381 1.411-6.196.312-5.977-.523.717-1.052.219-2.736.219-2.736 1.716-1.086 2.765-2.063 2.765-2.063" transform="translate(-209 -430) translate(209 430)"/>
                <path fill="#CBCACA" d="M166.73 20c4.472 0 8.326 1.446 9.742 4.346 1.416 2.9-.213 5.44-2.555 5.573-3.067.174-6.468.08-7.187-.4-.719-.48-1.199-9.579 0-9.519" transform="translate(-209 -430) translate(209 430)"/>
                <path fill="#22313C" d="M230 77.5c0 9.665-7.835 17.5-17.5 17.5S195 87.165 195 77.5 202.835 60 212.5 60 230 67.835 230 77.5" transform="translate(-209 -430) translate(209 430)"/>
                <path fill="#6F7375" d="M228 76.5c0 8.56-7.163 15.5-16 15.5s-16-6.94-16-15.5c0-8.56 7.163-15.5 16-15.5s16 6.94 16 15.5" transform="translate(-209 -430) translate(209 430)"/>
                <path fill="#F2F2F2" d="M228 76.5c0 8.56-7.163 15.5-16 15.5s-16-6.94-16-15.5c0-8.56 7.163-15.5 16-15.5s16 6.94 16 15.5" transform="translate(-209 -430) translate(209 430)"/>
                <path fill="#1A202B" d="M219 77.5c0 3.59-2.91 6.5-6.5 6.5s-6.5-2.91-6.5-6.5 2.91-6.5 6.5-6.5 6.5 2.91 6.5 6.5" transform="translate(-209 -430) translate(209 430)"/>
                <path fill="#F5822D" d="M216 77c0 2.21-1.79 4-4 4s-4-1.79-4-4 1.79-4 4-4 4 1.79 4 4" transform="translate(-209 -430) translate(209 430)"/>
            </g>
        </g>
    </g>
</svg>
