<svg xmlns="http://www.w3.org/2000/svg" xmlns:xlink="http://www.w3.org/1999/xlink" width="140" height="140" viewBox="0 0 140 140">
    <defs>
        <circle id="jjwsjxzqia" cx="70" cy="70" r="70"/>
    </defs>
    <g fill="none" fill-rule="evenodd">
        <g>
            <g transform="translate(-489 -882) translate(489 882)">
                <mask id="m0gkvhlebb" fill="#fff">
                    <use xlink:href="#jjwsjxzqia"/>
                </mask>
                <use fill="#F6F6F6" xlink:href="#jjwsjxzqia"/>
                <g mask="url(#m0gkvhlebb)">
                    <g>
                        <g>
                            <path fill="#DDE3E9" d="M305.647 148.837c0 76.518-61.98 138.551-138.436 138.551-76.457 0-138.437-62.033-138.437-138.55 0-76.519 61.98-138.552 138.437-138.552 76.456 0 138.436 62.033 138.436 138.551" opacity=".134" transform="translate(-236.923 -86.154)"/>
                            <path fill="#69A1AC" d="M306.818 203.415c-3.708-2.465-7.434-4.978-10.55-7.09 4.18-1.827 4.582-7.236 3.015-8.746 2.379.946 5.083 1.986 7.852 3.026 6.772 2.55 13.929 5.12 17.64 6.443 1.614.577 2.576.915 2.576.915s1.113-.703 2.931-1.806c2.189-1.328 5.397-3.233 8.897-5.185v-.002c7.662-4.27 16.722-8.756 19.592-7.862.698.217 1.334.455 1.921.712 7.17 3.19 6.37 9.483 3.283 14.207-1.639 2.505-3.914 4.57-5.992 5.499-6.3 2.828-29.667 12.617-33.972 10.755-1.967-.85-9.539-5.77-17.193-10.866" transform="translate(-236.923 -86.154)"/>
                            <path fill="#707BE0" d="M354.71 159.086c.105.278-.593 2.518-1.573 3.322l-2.234-1.6c1.087-.505 1.723-2.386 1.893-3.43 0 0 1.807 1.427 1.913 1.708" transform="translate(-236.923 -86.154)"/>
                            <path fill="#1F28CF" d="M338.562 143.158c1.647 1.531 14.333 12.855 14.277 13.844-.007.108-.018.235-.042.376-.172 1.044-.809 2.925-1.895 3.43-.166.077-.34.122-.523.13-1.575.056-6.034-2.2-9.124-3.621-3.094-1.415-6.507-3.24-6.507-3.24.822-.506 1.541-1.188 2.128-2.082 1.393-2.1 2.466-6.822 2.096-8.084-.085-.296-.201-.545-.41-.753" transform="translate(-236.923 -86.154)"/>
                            <path fill="#DDAF90" d="M344.227 159.603c-.634 8.697-2.273 17.252-3.953 25.795-.31.032-4.023.342-3.479-2.423.064-.304.053-.74-.013-1.27-.46-3.776-3.687-12.355-3.917-12.79-.166-.321-1.718-.898-3.055-1.408-.753-.288-1.438-.553-1.768-.743-.917-.527-.944-2.532-.941-4.077 0-1.264.233-3.663.238-5.356v-.003c.262.022.418-.029.634-.063.452-.069.106-.873.685-1.293.13-.093.301-.133.502-.133.7 0 1.758.474 2.519.693.978.278 8.314 1.854 10.413 2.447.56.159 1.31.384 2.135.624" transform="translate(-236.923 -86.154)"/>
                            <path fill="#707BE0" d="M335.834 150.69c-.774 1.32-1.723 2.431-2.767 2.937-3.512 1.695-12.31 1.243-13.355.124-.906-.97.508-5.608 2.318-8.023.285-.378.579-.703.875-.95 2.188-1.82 10.64-2.512 14.475-1.73 1.132.23.278 4.524-1.546 7.643m3.137-6.777c-.087-.296-.198-.55-.41-.757l-.02-.018c-.172-.164-.405-.302-.735-.418-.328-.117-.75-.212-1.303-.286-.687-.092-1.573-.159-2.717-.2-4.197-.16-8.915 1.02-10.067 1.544-.653.299-1.316.841-2.017 1.822-.536.754-1.096 1.77-1.678 3.137-1.409 3.283-1.33 5.045-.225 5.74l.006.006c.018.01.045.023.071.04.032.015.06.034.098.052.148.074.312.13.491.172 1.687.386 5.833.58 8.69.534.656-.005 1.243-.031 1.718-.063 1.46-.106 2.762-.46 3.875-1.143.822-.508 1.54-1.19 2.13-2.084.17-.254.333-.545.49-.865 1.138-2.322 1.926-6.105 1.603-7.213" transform="translate(-236.923 -86.154)"/>
                            <path fill="#1F28CF" d="M337.383 143.05c1.604.327-.804 8.884-4.316 10.577-3.513 1.693-12.308 1.243-13.355.124-1.047-1.124 1.004-7.155 3.19-8.972 2.194-1.817 10.643-2.513 14.48-1.73" transform="translate(-236.923 -86.154)"/>
                            <path fill="#F6981E" d="M353.137 162.408l-2.239-1.6c-.163.077-.338.122-.523.13-1.075.103-3.893-.677-6.147-1.333-.635 8.697-2.27 17.248-3.954 25.792-.365 1.86-.735 3.714-1.097 5.57 7.662-4.269 16.727-8.75 19.595-7.86.698.219 1.335.457 1.919.714-7.06-9.092-8.569-19.069-7.554-21.413m2.368-8.945c-.106-1.706-.415-3.283-.782-4.069-1.234-2.624-4.728-5.245-4.728-5.245-.632-1.225-3.743-1.928-3.743-1.928-.663-.635-2.458-.381-2.458-.381-1.9-.873-5.056.315-7.292.595.553.074.976.17 1.303.286.33.116.563.254.738.418l.018.018c1.081 1.003 6.909 6.219 10.776 9.97 2.03 1.97 3.523 3.536 3.504 3.877-.008.106-.021.23-.045.376 0 0 1.808 1.426 1.916 1.706.748-1.251.923-3.531.793-5.623m-18.836 27.48c-.027-.138-.056-.275-.085-.416-.024-.145-.058-.288-.092-.439-.035-.153-.066-.304-.106-.455-.037-.156-.074-.312-.116-.473-.037-.159-.082-.323-.127-.487-.307-1.15-.682-2.396-1.073-3.6l-.164-.51c-.951-2.886-1.916-5.415-2.04-5.648-.167-.32-1.718-.896-3.056-1.407.006 1.661-1.247 8.438-2.563 15.553-.939 5.063-1.903 10.295-2.469 13.988l2.572.915s1.115-.704 2.933-1.81c.981-4.633 3.64-12.249 6.394-14.436l.108-.016c-.029-.236-.069-.49-.116-.76" transform="translate(-236.923 -86.154)"/>
                            <path fill="#707BE0" d="M341.254 157.317c-3.095-1.415-6.507-3.24-6.507-3.24-1.11.682-2.413 1.037-3.874 1.143-.474.034-1.063.055-1.718.066-2.855.042-7.004-.151-8.688-.54-.182-.04-.346-.095-.494-.172 1.2.635 4.509 1.812 5.904 2.341.764.291 1.177.394 1.462.413.262.02.418-.03.634-.064.452-.069.106-.873.685-1.293.13-.093.301-.13.502-.13.7 0 1.758.47 2.519.69.978.28 8.314 1.855 10.413 2.45.56.156 1.31.38 2.135.621 2.257.66 5.072 1.437 6.15 1.336-1.575.053-6.03-2.203-9.123-3.62" transform="translate(-236.923 -86.154)"/>
                            <path fill="#89C5CC" d="M357.984 203.527c-6.303 2.825-29.67 12.615-33.972 10.753-.117 2.851 3.726 6.845 2.677 11.86-.338 1.63-.65 3.807-.877 5.581 11.837.138 23.437-2.917 33.946-9.308.832-8.702 2.246-19.47 4.22-24.385-1.64 2.5-3.919 4.57-5.994 5.5m-21.188-20.55c.06-.308.05-.744-.01-1.276l-.11.016c-2.753 2.188-5.412 9.803-6.393 14.437 2.191-1.328 5.397-3.23 8.894-5.184v-.003c.362-1.857.732-3.714 1.097-5.57-.307.031-4.023.34-3.478-2.42m-29.535 7.295l-4.932-19.59c-1.24-1.714-7.646-.839-8.83.717.018 4.041.058 9.104.137 13.812 1.443.662 3.402 1.474 5.648 2.368 2.376.947 5.083 1.984 7.852 3.026 6.772 2.547 13.926 5.12 17.642 6.443.566-3.692 1.53-8.924 2.469-13.987-8.574 2.037-19.83 7.107-19.986 7.21m-10.995 6.053c-.838-.566-1.639-1.109-2.376-1.609.111 2.38.24 4.082.404 4.632.688 2.259 2.886 4.862 12.523 4.065-3.708-2.465-7.43-4.978-10.551-7.088" transform="translate(-236.923 -86.154)"/>
                            <path fill="#DDAF90" d="M290.406 156.863s-2.035-1.016-2.352-3.052c-.318-2.034 2.413-5.023 3.75-5.978 1.335-.952 3.304-.997 3.304-.997s-1.46-2.884-2.413-3.772c-.954-.892-2.923-2.418-2.228-4.008 0 0 1.102-.317 2.204.656 1.102.976 4.11 3.352 4.493 3.817.38.466 3.132 4.113 3.346 5.214.211 1.103-.426 13.016-.426 13.016l2.247 8.922c-1.242-1.714-7.649-.838-8.833.717-.024-4.579-.021-7.859-.021-7.859s-1.229-.634-2.247-2.925c-1.012-2.288-.824-3.75-.824-3.75M293.637 185.212c1.443.659 3.399 1.474 5.648 2.368 1.565 1.507 1.163 6.917-3.018 8.744-.838-.568-1.636-1.108-2.374-1.61-3.266-2.217-5.436-3.704-5.452-3.717-.772-.614-1.2-.957-1.2-.957-1.68-1.14-2.455-1.812-3.581-2.952-.426-.442-.983-1.201-1.409-1.815-.57-.825-1.223-1.592-1.956-2.285-1.702-1.63-4.078-3.865-3.16-5.108 1.223-1.645 5.425 3.576 5.803 3.28.389-.296.548-3.301-.6-5.547-1.15-2.248-5.92-4.396-5.38-5.547.544-1.156 2.49.177 2.671-.299.183-.473-3.237-3.814-2.352-4.555.883-.743 2.543.823 2.532.633-.013-.188 1.007-.852 1.62-.593.61.26 2.242 1.476 4.51 5.095 1.167 1.864 1.973 3.973 2.748 6.017.41 1.082.798 2.175 1.168 3.267.396 1.148.653 2.373 1.187 3.468.253.531.594 1.037 1.023 1.436l.055-.058c.404.217.917.463 1.517.735" transform="translate(-236.923 -86.154)"/>
                            <path fill="#B78D70" d="M293.477 160.417c-.074 0-.15-.037-.193-.108-1.245-2.037-.182-5.722.175-6.804-2.152-.031-3.457-.394-3.888-1.079-.185-.299-.196-.653-.024-1.005.315-.648 2.593-1.508 4.086-1.838 1.483-.328 1.792-.077 1.892.002.68.556 3.46 3.418 3.579 3.54.087.087.085.23-.005.317-.087.087-.233.087-.317-.003-.03-.031-2.881-2.965-3.542-3.502-.087-.071-.505-.135-1.51.088-1.733.383-3.599 1.224-3.779 1.595-.1.211-.1.402.003.568.204.323.967.868 3.82.868.073 0 .142.034.187.095.04.06.05.138.024.206-.014.048-1.642 4.547-.315 6.716.066.106.032.246-.074.312-.04.022-.077.032-.119.032" transform="translate(-236.923 -86.154)"/>
                            <path fill="#89C5CC" d="M325.812 231.72s-5.656 7.798-3.322 27.875c0 0 18.347 10.832 44.071-2.01 0 0 5.175-11.806-.597-20.44 0 0-6.753-9.527-6.206-14.732l-33.946 9.308z" transform="translate(-236.923 -86.154)"/>
                        </g>
                        <g>
                            <path fill="#575757" d="M41.952 69.47c-15.513 0-28.137-12.627-28.137-28.146 0-15.521 12.624-28.148 28.137-28.148 15.52 0 28.148 12.627 28.148 28.148 0 15.52-12.629 28.146-28.148 28.146m39.53-27.765l-.903-.095c0-.097.006-.191.006-.288 0-.097-.006-.192-.006-.29l.903-.094c.573-.06.993-.574.932-1.152l-.564-5.373c-.06-.575-.578-.995-1.153-.935l-.895.095c-.039-.19-.086-.376-.128-.562l.86-.28c.555-.18.854-.773.675-1.324l-1.67-5.137c-.175-.551-.768-.853-1.322-.675l-.866.281c-.074-.176-.155-.349-.234-.522l.79-.46c.501-.288.675-.929.386-1.43l-2.704-4.68c-.289-.502-.929-.675-1.43-.384l-.804.462c-.113-.155-.218-.312-.33-.467l.682-.614c.433-.389.465-1.05.079-1.48l-3.615-4.02c-.388-.428-1.05-.464-1.483-.076l-.685.617c-.142-.129-.286-.252-.428-.378l.546-.75c.339-.468.236-1.124-.234-1.465l-4.37-3.177c-.47-.34-1.126-.236-1.468.231l-.538.746c-.165-.097-.33-.192-.496-.286l.373-.843c.236-.528-.005-1.147-.533-1.383l-4.938-2.2c-.527-.236-1.147.003-1.383.533l-.373.832c-.178-.06-.36-.126-.543-.184l.189-.884c.12-.567-.242-1.124-.809-1.245l-5.286-1.123c-.565-.124-1.121.241-1.242.806l-.192.89c-.189-.021-.38-.045-.572-.063v-.906c0-.578-.47-1.05-1.05-1.05h-5.402c-.58 0-1.05.472-1.05 1.05v.906c-.192.018-.38.042-.572.063l-.19-.888c-.12-.567-.68-.929-1.24-.808l-5.288 1.123c-.567.121-.929.678-.808 1.245l.189.884c-.187.058-.365.124-.546.184l-.37-.83c-.237-.53-.856-.769-1.386-.532l-4.935 2.197c-.53.236-.767.855-.533 1.383l.373.843c-.163.092-.331.189-.494.286l-.54-.743c-.342-.47-.998-.575-1.468-.234l-4.37 3.177c-.47.34-.576.997-.232 1.464l.544.751c-.142.126-.286.25-.428.378l-.688-.617c-.428-.388-1.092-.352-1.48.079L10.127 16.3c-.386.428-.354 1.092.079 1.48l.682.615c-.113.155-.22.312-.33.467l-.804-.462c-.501-.291-1.142-.118-1.433.383l-2.701 4.68c-.289.502-.118 1.143.386 1.431l.79.46c-.079.173-.16.346-.236.522l-.867-.28c-.548-.18-1.142.123-1.32.674l-1.672 5.137c-.179.551.123 1.145.674 1.323l.864.278c-.042.19-.09.376-.131.565l-.89-.095c-.58-.06-1.095.36-1.155.935l-.564 5.37c-.06.58.36 1.095.931 1.155l.906.095c-.003.097-.008.192-.008.289 0 .097.005.191.008.288l-.903.095c-.575.06-.995.577-.934 1.152l.564 5.374c.06.575.575.995 1.155.932l.89-.092c.042.189.09.375.131.561l-.86.281c-.552.179-.857.772-.676 1.32l1.67 5.14c.178.552.772.854 1.32.672l.867-.278c.078.176.157.347.236.523l-.79.456c-.504.292-.675.932-.386 1.434l2.701 4.677c.291.504.934.675 1.433.386l.803-.464c.113.154.218.315.334.467l-.685.617c-.43.386-.465 1.05-.076 1.48l3.614 4.016c.386.431 1.05.465 1.48.077l.686-.617c.142.128.286.254.43.38l-.546.748c-.34.47-.236 1.127.234 1.468l4.37 3.173c.47.342 1.127.24 1.468-.23l.538-.743c.163.097.33.191.496.286l-.373.84c-.236.527.003 1.15.533 1.383l4.935 2.2c.53.236 1.147-.003 1.384-.533l.37-.83c.184.06.362.126.546.184l-.19.882c-.12.567.245 1.124.81 1.244l5.286 1.124c.564.12 1.124-.242 1.244-.809l.187-.887c.191.021.38.045.572.066v.903c0 .58.47 1.05 1.05 1.05h5.402c.58 0 1.05-.47 1.05-1.05v-.903c.192-.021.38-.045.57-.066l.191.887c.121.57.678.93 1.245.809l5.284-1.124c.57-.118.93-.677.811-1.241l-.192-.885c.187-.058.365-.123.546-.184l.37.833c.237.527.856.766 1.386.53l4.935-2.197c.53-.237.767-.856.53-1.386l-.37-.84c.166-.095.334-.19.497-.286l.538.742c.341.47.997.573 1.47.234l4.368-3.176c.47-.341.575-.998.23-1.465l-.543-.75c.142-.127.29-.253.428-.381l.688.62c.43.385 1.095.351 1.48-.08l3.615-4.016c.386-.428.355-1.092-.076-1.48l-.685-.615c.113-.154.22-.312.33-.467l.804.462c.501.292 1.142.118 1.433-.386l2.704-4.677c.286-.502.115-1.142-.389-1.434l-.787-.456c.079-.176.16-.347.234-.523l.866.278c.551.182 1.144-.12 1.323-.672l1.67-5.14c.178-.548-.124-1.141-.675-1.32l-.861-.28c.042-.187.089-.373.128-.562l.893.094c.577.06 1.092-.36 1.155-.934l.564-5.374c.06-.575-.36-1.092-.932-1.152" transform="translate(-236.923 -86.154) translate(213.23 73.23)"/>
                            <path fill="#6D7080" d="M41.955 12.32c-16.018 0-29 12.986-29 29 0 16.019 12.982 29.002 29 29.002 16.02 0 29.004-12.983 29.004-29.001 0-16.015-12.984-29.001-29.004-29.001m0 1.872c14.96 0 27.132 12.169 27.132 27.129S56.915 68.453 41.955 68.453c-14.957 0-27.13-12.172-27.13-27.132s12.173-27.13 27.13-27.13" transform="translate(-236.923 -86.154) translate(213.23 73.23)"/>
                            <path fill="#6D7080" d="M41.955 79.673c-21.147 0-38.349-17.205-38.349-38.352s17.202-38.35 38.35-38.35c21.146 0 38.35 17.203 38.35 38.35 0 21.147-17.204 38.352-38.35 38.352m31.751-14.81l-.685-.615c.113-.155.22-.312.33-.467l.804.462c.501.291 1.142.118 1.433-.383l2.704-4.678c.286-.504.115-1.145-.389-1.436l-.787-.454c.079-.176.16-.35.234-.525l.866.278c.551.181 1.144-.12 1.323-.672l1.67-5.137c.178-.551-.124-1.142-.675-1.323l-.861-.278c.042-.19.089-.373.128-.565l.893.095c.577.06 1.092-.357 1.155-.935l.564-5.373c.06-.575-.36-1.092-.932-1.152l-.903-.095c0-.097.006-.191.006-.289 0-.094-.006-.191-.006-.288l.903-.092c.573-.063.993-.578.932-1.155l-.564-5.374c-.06-.574-.578-.992-1.153-.934l-.895.094c-.039-.189-.086-.372-.128-.561l.86-.281c.555-.179.854-.772.675-1.323l-1.67-5.137c-.175-.552-.768-.853-1.322-.672l-.866.278c-.074-.173-.155-.35-.234-.522l.79-.457c.501-.292.675-.932.386-1.433l-2.704-4.68c-.289-.502-.929-.673-1.43-.384l-.804.462c-.113-.152-.218-.312-.33-.467l.682-.615c.433-.388.465-1.05.079-1.48l-3.615-4.016c-.388-.43-1.05-.468-1.483-.08l-.685.62c-.142-.13-.286-.252-.428-.38l.546-.75c.339-.468.236-1.124-.234-1.466l-4.37-3.176c-.47-.341-1.126-.236-1.468.231l-.538.746c-.165-.098-.33-.192-.496-.287l.373-.842c.236-.528-.005-1.147-.533-1.384l-4.938-2.2c-.527-.236-1.147.003-1.383.534l-.373.832c-.178-.06-.36-.126-.543-.184l.189-.885c.12-.567-.242-1.123-.809-1.244l-5.286-1.123c-.565-.121-1.121.241-1.242.805l-.192.89c-.189-.02-.38-.044-.572-.063v-.903c0-.58-.47-1.05-1.05-1.05h-5.402c-.58 0-1.05.47-1.05 1.05v.903c-.192.019-.38.042-.572.063l-.19-.887c-.12-.567-.68-.93-1.24-.808l-5.288 1.123c-.567.12-.929.677-.808 1.244l.189.885c-.187.058-.365.123-.546.184l-.37-.83c-.237-.53-.856-.769-1.386-.533l-4.935 2.197c-.53.237-.767.856-.533 1.384l.373.842c-.163.095-.331.19-.494.287l-.54-.743c-.342-.47-.998-.575-1.468-.234l-4.37 3.176c-.47.342-.576.998-.232 1.465l.544.75c-.142.13-.286.25-.428.381l-.688-.62c-.428-.385-1.092-.35-1.48.08L10.127 16.3c-.386.428-.354 1.092.079 1.48l.682.615c-.113.155-.22.315-.33.467l-.804-.462c-.501-.289-1.142-.118-1.433.383l-2.701 4.68c-.289.502-.118 1.142.386 1.434l.79.457c-.079.173-.16.349-.236.522l-.864-.278c-.551-.181-1.145.12-1.323.672l-1.672 5.137c-.176.551.123 1.144.674 1.323l.864.28c-.042.19-.09.373-.131.562l-.89-.094c-.58-.058-1.095.36-1.155.934l-.564 5.374c-.06.577.36 1.092.931 1.152l.906.095c-.003.097-.008.194-.008.288 0 .098.005.192.008.29l-.903.094c-.575.06-.995.577-.934 1.152l.564 5.373c.06.575.575.995 1.155.932l.89-.092c.042.19.09.376.131.565l-.86.278c-.552.181-.854.772-.676 1.323l1.67 5.137c.178.551.772.853 1.323.672l.864-.278c.078.176.157.35.236.522l-.79.457c-.504.291-.675.932-.386 1.436L8.32 63.86c.291.501.934.672 1.433.383l.803-.465c.113.155.218.315.334.468l-.685.616c-.43.386-.462 1.05-.076 1.484l3.614 4.013c.386.43 1.05.465 1.48.076l.686-.614c.142.129.286.252.43.378l-.546.75c-.34.468-.236 1.124.234 1.466l4.37 3.173c.47.344 1.127.24 1.468-.23l.538-.744c.163.097.33.192.496.286l-.373.84c-.236.528.003 1.15.533 1.384l4.935 2.2c.53.236 1.147-.003 1.384-.533l.37-.83c.184.06.362.126.546.184l-.19.882c-.12.567.245 1.123.81 1.244l5.286 1.124c.564.123 1.124-.242 1.244-.806l.19-.887c.188.02.377.044.569.063v.905c0 .578.47 1.048 1.05 1.048h5.402c.58 0 1.05-.47 1.05-1.048v-.905c.192-.019.38-.042.57-.063l.191.887c.121.567.678.93 1.245.808l5.284-1.123c.57-.12.93-.677.811-1.244l-.192-.885c.187-.058.365-.123.546-.184l.37.832c.237.528.856.767 1.386.53l4.935-2.197c.53-.236.767-.855.53-1.383l-.37-.843c.166-.094.334-.189.497-.286l.538.743c.341.47.997.575 1.47.234l4.368-3.176c.47-.342.575-.995.23-1.465l-.543-.748c.142-.129.29-.252.428-.38l.688.616c.43.386 1.095.352 1.48-.079l3.615-4.013c.386-.43.355-1.095-.076-1.484" transform="translate(-236.923 -86.154) translate(213.23 73.23)"/>
                            <path fill="#2B2C33" d="M41.952 69.47c-15.513 0-28.137-12.627-28.137-28.146 0-15.521 12.624-28.148 28.137-28.148 15.52 0 28.148 12.627 28.148 28.148 0 15.52-12.629 28.146-28.148 28.146m.003-66.5c-21.147 0-38.349 17.205-38.349 38.352s17.202 38.35 38.35 38.35c21.146.001 38.35-17.203 38.35-38.35 0-21.147-17.204-38.352-38.35-38.352" transform="translate(-236.923 -86.154) translate(213.23 73.23)"/>
                            <path fill="#FF9B21" d="M59.528 56.195c-.252.302-.615.477-1 .477-.392 0-.77-.183-1.03-.498L47.115 43.907c-.273-.325-.37-.709-.26-1.05.113-.346.415-.606.832-.711l15.616-3.825c.843-.2 1.602.362 1.662 1.187.05.582.076 1.157.076 1.756 0 5.457-1.958 10.76-5.512 14.93zm-8.03 5.586c-.118.367-.394.666-.761.816-2.799 1.158-5.752 1.74-8.784 1.74-3.026 0-5.977-.582-8.775-1.737-.368-.15-.643-.444-.764-.809-.118-.37-.066-.782.15-1.129l8.468-13.676c.446-.732 1.399-.732 1.853.005l8.458 13.671c.215.336.273.749.155 1.119zm-26.116-5.109c-.384 0-.743-.17-1.006-.477-3.543-4.166-5.496-9.469-5.496-14.931 0-.601.018-1.179.073-1.762.058-.819.83-1.375 1.646-1.18l15.627 3.824c.42.105.721.365.834.711.108.341.013.725-.26 1.05l-10.387 12.27c-.265.314-.64.495-1.031.495zM22.313 29.16c3.187-5.148 8.363-8.91 14.201-10.327.822-.197 1.578.386 1.633 1.21l1.19 16.036c.028.35-.064.67-.269.89-.183.2-.44.31-.727.31-.162 0-.328-.034-.501-.105l-14.886-6.087c-.373-.158-.657-.457-.777-.825-.121-.367-.071-.758.136-1.102zm23.452-9.117c.058-.821.83-1.402 1.63-1.213 5.838 1.418 11.012 5.182 14.193 10.325.21.338.268.74.153 1.102-.124.373-.41.672-.79.83l-14.876 6.087c-.171.07-.34.105-.502.105-.283 0-.54-.108-.727-.305-.202-.22-.302-.538-.276-.895l1.195-16.036zm-3.81-6.071c-15.07 0-27.286 12.219-27.286 27.29 0 15.07 12.217 27.289 27.287 27.289 15.073 0 27.29-12.22 27.29-27.29 0-15.07-12.217-27.29-27.29-27.29z" transform="translate(-236.923 -86.154) translate(213.23 73.23)"/>
                        </g>
                    </g>
                </g>
            </g>
        </g>
    </g>
</svg>
