<svg xmlns="http://www.w3.org/2000/svg" xmlns:xlink="http://www.w3.org/1999/xlink" width="80" height="80" viewBox="0 0 80 80">
    <defs>
        <circle id="vtustyvlaa" cx="40" cy="40" r="40"/>
    </defs>
    <g fill="none" fill-rule="evenodd">
        <g>
            <g transform="translate(-24 -823) translate(24 823)">
                <mask id="7mvzet4pnb" fill="#fff">
                    <use xlink:href="#vtustyvlaa"/>
                </mask>
                <use fill="#F0F0F0" xlink:href="#vtustyvlaa"/>
                <g fill-rule="nonzero" mask="url(#7mvzet4pnb)">
                    <g>
                        <path fill="#5B5D6E" d="M21.907 3L19.093 3 1.5 3 1.5 19.1 1.5 21.9 1.5 38 19.093 38 21.907 38 39.5 38 39.5 21.9 39.5 19.1 39.5 3z" transform="translate(44 -7)"/>
                        <path fill="#7383BF" d="M4.5 6H19.5V19H4.5zM4.5 22H19.5V35H4.5zM21.5 22H36.5V35H21.5zM21.5 6H36.5V19H21.5z" transform="translate(44 -7)"/>
                        <path fill="#86869C" d="M0.5 38H41.5V41H0.5z" transform="translate(44 -7)"/>
                        <path fill="#93A3D8" d="M28.1 5L21.5 11.6 21.5 16 32.5 5z" transform="translate(44 -7)"/>
                    </g>
                </g>
                <g mask="url(#7mvzet4pnb)">
                    <g>
                        <g>
                            <path fill="#C7CAC7" fill-rule="nonzero" d="M26.577 7.43c-.005-.058-.016-.112-.033-.167-.014-.05-.03-.097-.054-.143-.024-.048-.054-.09-.087-.133-.033-.041-.065-.08-.105-.114-.04-.034-.082-.06-.128-.087-.047-.028-.095-.051-.149-.068-.022-.008-.04-.025-.065-.03l-10.636-2.5c-.439-.101-.88.175-.982.625-.102.449.172.895.613 1l.134.031c-.192.013-.38.085-.528.234-.32.326-.32.853 0 1.179l2.455 2.5c.16.161.37.243.579.243.21 0 .419-.082.578-.244.32-.326.32-.853 0-1.178l-2.454-2.5c-.057-.059-.127-.095-.195-.132l9.435 2.217v1.004c0 .46.366.833.818.833.451 0 .818-.373.818-.833V7.5c0-.025-.012-.046-.014-.07zM14.318.833c0-.46-.366-.833-.818-.833-.452 0-.818.373-.818.833v3.334c0 .46.366.833.818.833.452 0 .818-.373.818-.833V.833zM11.914 5.843l.134-.031c.44-.105.715-.551.613-1-.102-.45-.543-.728-.981-.625l-10.637 2.5c-.024.005-.042.022-.065.03-.053.017-.1.04-.15.068-.045.027-.088.053-.127.087-.04.035-.072.073-.105.115-.033.042-.063.084-.087.132-.024.046-.04.094-.054.144-.016.054-.028.108-.033.166-.001.025-.013.046-.013.071v1.667c0 .46.367.833.818.833.452 0 .818-.373.818-.833V8.163l9.435-2.217c-.068.037-.138.073-.195.131l-2.454 2.5c-.32.326-.32.853 0 1.179.16.162.369.244.578.244.21 0 .419-.082.579-.244l2.454-2.5c.32-.326.32-.853 0-1.179-.146-.149-.335-.221-.528-.234z" transform="translate(15.5 38) translate(10.5 33)"/>
                        </g>
                        <path fill="#AFB6BB" fill-rule="nonzero" d="M22.5 38H25.5V41H22.5z" transform="translate(15.5 38)"/>
                        <path fill="#89C5CC" fill-rule="nonzero" d="M42.5 13H44.5V20H42.5z" transform="translate(15.5 38)"/>
                        <path fill="#AFB9D2" fill-rule="nonzero" d="M44.5 10H46.5V20H44.5z" transform="translate(15.5 38)"/>
                        <path fill="#38454F" fill-rule="nonzero" d="M22.5 31H25.5V34H22.5z" transform="translate(15.5 38)"/>
                        <path fill="#A9C83A" fill-rule="nonzero" d="M17.096 5H30c1.163 0 2.161.838 2.373 1.991l3.087 21.131C35.734 29.62 34.595 31 33.086 31H13.915c-1.51 0-2.65-1.381-2.374-2.878l3.182-21.13C14.935 5.837 15.933 5 17.096 5z" transform="translate(15.5 38)"/>
                        <g>
                            <path fill="#C7CAC7" fill-rule="nonzero" d="M5.152 0L.405 0 .405 4 4.536 4zM23.746 0L24.343 4 28.595 4 28.595 0z" transform="translate(15.5 38) translate(9.5 13)"/>
                        </g>
                        <path fill="#556080" fill-rule="nonzero" d="M9.5 0v13h4.716l.923-6.134c.08-.433.269-.82.537-1.137.446-.527 1.11-.854 1.836-.854h12.901c.727 0 1.39.327 1.836.854.267.316.457.704.537 1.137L33.683 13H38.5V0h-29z" transform="translate(15.5 38)"/>
                        <g>
                            <path fill="#F0DCBE" fill-rule="nonzero" d="M.407 6.588h.813V28h2.441V10.706c0-2.274 1.822-4.118 4.068-4.118h4.289L13.006 0H.406v6.588zM33.858 0l.959 6.588h4.454c2.246 0 4.068 1.844 4.068 4.118V28h2.44V6.588h.814V0H33.858z" transform="translate(15.5 38) translate(.5 20)"/>
                        </g>
                        <path fill="#5B5D6E" fill-rule="nonzero" d="M9.722 25H4.278c-.43 0-.778-.447-.778-1 0-.553.348-1 .778-1h5.444c.43 0 .778.447.778 1 0 .553-.348 1-.778 1zM43.722 25h-5.444c-.43 0-.778-.447-.778-1 0-.553.348-1 .778-1h5.444c.43 0 .778.447.778 1 0 .553-.348 1-.778 1z" transform="translate(15.5 38)"/>
                    </g>
                </g>
            </g>
        </g>
    </g>
</svg>
