<svg xmlns="http://www.w3.org/2000/svg" width="46" height="46" viewBox="0 0 46 46">
    <defs>
        <filter id="bh2atovr1a">
            <feColorMatrix in="SourceGraphic" values="0 0 0 0 1.000000 0 0 0 0 1.000000 0 0 0 0 1.000000 0 0 0 1.000000 0"/>
        </filter>
    </defs>
    <g fill="none" fill-rule="evenodd">
        <g>
            <g transform="translate(-759 -624) translate(759 624)">
                <circle cx="23" cy="23" r="23" fill="#3375BD"/>
                <g filter="url(#bh2atovr1a)">
                    <g fill="#000" fill-rule="nonzero">
                        <path d="M13.272 0C10.568 0 8.28 5.951 8.28 13s2.288 13 4.992 13 4.986-5.951 4.986-13-2.282-13-4.986-13zm.618 22.262c-.63 0-1.554-.405-2.34-2.317-.12-.293-.225-.592-.312-.896-.008-.014-.014-.03-.018-.046-.553-1.968-.821-4.005-.797-6.05-.024-2.045.244-4.084.797-6.054.006-.012.006-.03.012-.047.098-.312.202-.612.312-.884.792-1.924 1.716-2.322 2.346-2.322 2.253 0 3.472 4.795 3.472 9.308 0 4.512-1.219 9.308-3.472 9.308zM6.725 23.614l-1.831-.555c.593 1.022 1.47 1.849 2.525 2.38.45.193.921.333 1.404.417-.844-.598-1.558-1.36-2.098-2.242zM6.113 22.522c-.311-.64-.576-1.303-.792-1.982l-1.802-.572c.207.687.466 1.357.774 2.005l1.82.549zM2.848 16.97c.104.698.237 1.369.393 2.004l1.791.566c-.161-.612-.3-1.26-.41-1.93l-1.774-.64zM4.478 16.64c-.075-.607-.127-1.236-.168-1.884l-1.727-.745c.023.682.075 1.346.144 1.993l1.75.636zM2.56 12.954c0 .034.005.07.005.104l1.705.74c-.006-.284-.012-.561-.012-.844 0-.399.012-.774.023-1.156L2.63 11.07c-.04.601-.07 1.225-.07 1.884zM4.536 8.886l-1.532-.872c-.132.664-.23 1.38-.306 2.143l1.635.717c.047-.694.11-1.364.203-1.988zM3.842 5.079c-.258.669-.472 1.354-.641 2.05l1.496.85c.134-.732.311-1.456.532-2.167L3.842 5.08z" transform="translate(14 10)"/>
                        <path d="M11.116.07c-.342.076-.675.19-.993.34-.752.372-1.416.9-1.947 1.549l.19-.04c.112-.03.231-.01.33.05.097.061.166.16.19.273.027.112.008.23-.053.327-.06.098-.158.168-.27.193L7.4 3.033c-.37.62-.685 1.272-.941 1.947l.837-.208c.231-.052.461.09.518.32.057.23-.08.463-.31.524l-1.38.335c-.214.69-.392 1.39-.532 2.097l1.08-.3c.15-.048.315-.01.43.098.115.109.16.271.12.424-.04.153-.16.272-.313.31l-1.485.416c-.098.641-.173 1.288-.22 1.924l1.127-.295c.152-.046.317-.005.43.107.113.111.156.275.112.428-.044.152-.167.269-.322.303l-1.404.37c-.017.381-.023.757-.023 1.12 0 .324.011.63.017.937l1.133-.33c.229-.06.464.073.53.3.066.228-.062.467-.288.538l-1.334.387c.04.7.098 1.37.185 2l1.172-.307c.232-.06.468.078.53.31.06.23-.079.467-.31.528l-1.254.33c.118.683.272 1.36.462 2.027l.925-.248c.233-.06.47.079.531.312.061.233-.079.47-.312.531l-.884.232c.268.778.606 1.53 1.012 2.247l.676-.179c.11-.03.228-.015.327.042.099.058.17.153.198.264.062.232-.075.47-.306.532l-.404.104c.56.859 1.337 1.554 2.253 2.016.357.162.728.29 1.11.382C8.92 23.903 7.412 18.945 7.412 13c0-5.968 1.52-10.937 3.703-12.93zM7.02 2.068C7.565 1.277 8.248.59 9.036.04c-.51.058-1.009.2-1.473.422-.5.242-.96.56-1.363.942l.82.664zM6.546 2.796l-.942-.762c-.57.683-1.048 1.439-1.42 2.247l1.334.7c.274-.759.618-1.49 1.028-2.185z" transform="translate(14 10)"/>
                        <path d="M3.75 22.834l-.393.104c-.233.059-.47-.082-.529-.315-.059-.233.082-.47.315-.529l.214-.052c-.328-.744-.603-1.51-.82-2.294l-.596.15c-.15.039-.308-.006-.416-.116-.108-.11-.149-.27-.107-.42.042-.148.16-.263.31-.301l.595-.15c-.145-.653-.272-1.335-.37-2.04l-.607.173c-.15.049-.315.01-.43-.098-.114-.109-.16-.271-.12-.424.04-.152.16-.271.313-.31L1.855 16c-.07-.676-.122-1.375-.139-2.092l-.584.145c-.15.038-.308-.007-.416-.117-.108-.11-.148-.27-.107-.42.042-.148.16-.263.31-.301l.78-.197c0-.023-.006-.046-.006-.063 0-.688.029-1.335.07-1.965l-.567.145c-.15.037-.308-.009-.415-.12-.107-.11-.146-.27-.104-.418.043-.149.161-.263.311-.3l.844-.214c.075-.74.179-1.433.306-2.091l-.462.144c-.147.048-.308.013-.422-.09-.115-.103-.165-.26-.133-.41.032-.15.142-.273.289-.32l.942-.307c.153-.646.344-1.282.572-1.906l-.416.104c-.232.059-.467-.081-.526-.312-.06-.235.083-.473.318-.532l1.028-.26c.31-.69.686-1.35 1.12-1.97-.2.006-.378-.129-.427-.324-.056-.232.086-.467.318-.525L5.35 1.04C5.716.658 6.125.321 6.57.035c-.544.046-1.075.19-1.566.427C2.583 1.606 0 5.49 0 12.954c0 6.251 1.907 11.15 4.86 12.486.498.212 1.022.36 1.56.439-1.138-.768-2.058-1.817-2.67-3.045zM13.89 4.512c-.514 0-1.075.648-1.543 1.786-.087.208-.167.433-.243.664.384.734.703 1.5.954 2.288.32 1.206.477 2.45.468 3.698.017 1.353-.172 2.702-.56 3.998-.24.684-.529 1.35-.862 1.994.076.236.162.462.249.676.462 1.132 1.023 1.78 1.537 1.78 1.23 0 2.606-3.468 2.606-8.442 0-4.975-1.376-8.442-2.606-8.442z" transform="translate(14 10)"/>
                        <path d="M12.66 12.948c.01-1.168-.138-2.332-.44-3.46-.124-.422-.278-.833-.462-1.232-.32 1.546-.477 3.12-.468 4.698-.01 1.576.148 3.148.468 4.691.144-.314.272-.636.381-.965.363-1.21.539-2.469.52-3.732z" transform="translate(14 10)"/>
                    </g>
                </g>
            </g>
        </g>
    </g>
</svg>
