<svg xmlns="http://www.w3.org/2000/svg" width="46" height="46" viewBox="0 0 46 46">
    <defs>
        <filter id="i28mst5j9a">
            <feColorMatrix in="SourceGraphic" values="0 0 0 0 1.000000 0 0 0 0 1.000000 0 0 0 0 1.000000 0 0 0 1.000000 0"/>
        </filter>
        <filter id="ru7c8ol05b">
            <feColorMatrix in="SourceGraphic" values="0 0 0 0 0.184314 0 0 0 0 0.184314 0 0 0 0 0.184314 0 0 0 1.000000 0"/>
        </filter>
    </defs>
    <g fill="none" fill-rule="evenodd">
        <g>
            <g transform="translate(-1088 -730) translate(1088 730)">
                <circle cx="23" cy="23" r="23" fill="#0053AD" opacity=".8"/>
                <g filter="url(#i28mst5j9a)">
                    <g fill="#000" fill-rule="nonzero" filter="url(#ru7c8ol05b)" transform="translate(15 13)">
                        <path d="M16.143 2.133L9.311.117c-.53-.156-1.091-.156-1.622 0L.857 2.133C.352 2.283 0 2.753 0 3.28v5.66c0 2.62.78 5.143 2.254 7.295 1.44 2.102 3.444 3.719 5.794 4.676.146.06.299.089.452.089.153 0 .306-.03.452-.089 2.35-.957 4.354-2.574 5.794-4.676C16.22 14.083 17 11.56 17 8.94V3.28c0-.527-.352-.998-.857-1.147zm-.099 6.807c0 2.426-.721 4.762-2.086 6.755-1.334 1.947-3.19 3.444-5.367 4.33-.058.024-.123.024-.182 0-2.177-.886-4.033-2.383-5.366-4.33C1.677 13.702.956 11.366.956 8.94V3.28c0-.106.07-.2.171-.23L7.96 1.034c.177-.052.36-.078.541-.078.182 0 .364.026.54.078l6.833 2.016c.101.03.171.124.171.23v5.66z"/>
                        <path d="M13.651 4.386L8.546 2.893c-.133-.039-.274-.04-.407 0L3.034 4.386c-.304.089-.515.37-.515.683v3.98c0 2.104.641 4.12 1.855 5.834.94 1.329 2.198 2.426 3.636 3.172.104.054.218.081.333.081.114 0 .228-.027.332-.08 1.438-.747 2.695-1.844 3.636-3.173 1.214-1.713 1.856-3.73 1.856-5.833V5.07c0-.314-.212-.595-.516-.684zM13.21 9.05c0 1.906-.582 3.735-1.682 5.287-.829 1.17-1.928 2.143-3.184 2.817-1.257-.675-2.356-1.646-3.185-2.817-1.1-1.552-1.681-3.38-1.681-5.287V5.247l4.866-1.423 4.866 1.423V9.05z"/>
                    </g>
                </g>
            </g>
        </g>
    </g>
</svg>
