<svg id="svg" version="1.1" xmlns="http://www.w3.org/2000/svg" xmlns:xlink="http://www.w3.org/1999/xlink" width="400" height="378.1818181818182" viewBox="0, 0, 400,378.1818181818182"><g id="svgg"><path id="path4" d="M187.701 14.195 C 184.267 14.455,178.562 15.121,175.024 15.675 C 171.485 16.228,166.973 16.934,164.995 17.242 C 163.018 17.551,160.293 18.153,158.940 18.580 C 157.588 19.006,154.144 19.938,151.288 20.650 C 148.432 21.361,144.686 22.520,142.963 23.224 C 141.239 23.929,138.893 24.801,137.748 25.163 C 126.644 28.674,106.889 39.413,93.283 49.335 C 68.712 67.254,43.975 100.678,34.195 129.176 C 33.277 131.851,32.274 134.526,31.965 135.122 C 31.657 135.718,30.891 138.384,30.263 141.045 C 29.635 143.707,28.708 147.162,28.202 148.723 C 27.220 151.753,26.794 153.976,26.098 159.697 C 25.857 161.675,25.325 164.910,24.916 166.887 C 22.762 177.285,22.523 199.191,24.447 209.839 C 24.748 211.504,25.493 216.228,26.102 220.337 C 26.753 224.731,27.669 229.250,28.327 231.311 C 28.941 233.239,29.807 236.499,30.251 238.557 C 30.694 240.615,31.628 243.681,32.327 245.369 C 33.025 247.058,33.856 249.315,34.174 250.386 C 35.964 256.423,42.946 270.819,48.649 280.232 C 62.149 302.515,77.694 319.127,99.527 334.606 C 109.611 341.755,129.421 351.957,139.827 355.360 C 141.282 355.836,143.402 356.636,144.538 357.138 C 145.673 357.640,148.399 358.457,150.595 358.953 C 152.792 359.449,156.256 360.369,158.294 360.997 C 160.332 361.625,164.589 362.494,167.755 362.929 C 170.920 363.364,175.358 364.048,177.618 364.448 C 189.849 366.613,209.866 366.589,221.263 364.395 C 223.384 363.986,227.641 363.328,230.724 362.930 C 234.195 362.483,237.986 361.707,240.681 360.892 C 243.075 360.167,246.395 359.282,248.061 358.923 C 249.726 358.565,252.365 357.767,253.926 357.150 C 255.487 356.533,258.553 355.379,260.738 354.587 C 293.302 342.776,325.166 317.839,344.633 288.931 C 347.301 284.969,355.724 270.589,355.724 269.996 C 355.724 269.878,356.423 268.385,357.278 266.679 C 359.635 261.974,362.671 254.873,363.863 251.277 C 364.449 249.508,365.392 246.937,365.958 245.563 C 366.524 244.189,367.360 241.464,367.817 239.508 C 368.273 237.552,369.220 233.967,369.922 231.543 C 370.623 229.119,371.468 225.287,371.800 223.028 C 372.132 220.770,372.816 216.282,373.320 213.056 C 375.514 199.012,375.661 181.604,373.693 168.969 C 373.401 167.096,372.722 162.617,372.185 159.016 C 371.648 155.416,370.621 150.449,369.903 147.979 C 369.185 145.509,368.262 142.047,367.852 140.286 C 367.441 138.525,366.656 135.914,366.106 134.484 C 365.557 133.053,364.458 130.009,363.663 127.720 C 352.416 95.312,324.754 60.798,295.364 42.504 C 293.699 41.468,290.634 39.561,288.553 38.268 C 278.716 32.154,259.760 24.053,247.682 20.803 C 244.768 20.018,240.766 18.934,238.789 18.393 C 236.812 17.852,233.236 17.144,230.842 16.819 C 228.448 16.495,224.532 15.894,222.138 15.485 C 212.421 13.823,199.163 13.326,187.701 14.195 M210.974 16.506 C 214.305 16.810,219.073 17.380,221.570 17.773 C 224.068 18.167,227.304 18.598,228.761 18.733 C 232.960 19.120,235.698 19.663,239.371 20.838 C 241.252 21.440,244.416 22.267,246.401 22.676 C 248.387 23.084,251.361 23.959,253.010 24.620 C 254.658 25.280,257.455 26.294,259.224 26.871 C 266.736 29.324,279.372 35.105,286.423 39.315 C 287.333 39.858,289.376 41.075,290.964 42.019 C 295.344 44.623,306.775 52.656,309.934 55.348 C 321.731 65.405,337.697 83.298,344.795 94.418 C 347.797 99.120,353.566 109.271,354.474 111.447 C 354.821 112.280,355.816 114.324,356.684 115.989 C 357.552 117.654,358.566 119.953,358.937 121.097 C 359.309 122.242,359.996 123.945,360.463 124.882 C 360.931 125.818,361.692 127.862,362.153 129.423 C 362.615 130.984,363.586 133.787,364.312 135.652 C 365.037 137.516,365.959 140.769,366.359 142.879 C 366.759 144.990,367.597 148.227,368.221 150.074 C 368.845 151.920,369.538 154.969,369.761 156.848 C 369.985 158.727,370.505 162.649,370.918 165.563 C 373.585 184.387,373.703 195.827,371.382 210.407 C 371.067 212.384,370.484 216.758,370.085 220.126 C 369.574 224.448,369.014 227.288,368.185 229.776 C 367.539 231.715,366.670 235.087,366.254 237.268 C 365.839 239.450,365.063 242.260,364.530 243.513 C 363.997 244.765,363.007 247.493,362.329 249.574 C 357.234 265.217,344.492 287.647,332.878 301.419 C 313.922 323.897,286.448 343.047,259.035 352.889 C 256.537 353.785,253.642 354.888,252.602 355.338 C 251.561 355.789,248.581 356.663,245.979 357.280 C 243.377 357.897,239.662 358.909,237.722 359.530 C 235.427 360.263,232.388 360.855,229.018 361.223 C 226.171 361.534,222.382 362.036,220.599 362.339 C 206.022 364.816,194.985 364.913,180.700 362.692 C 178.827 362.400,174.314 361.817,170.672 361.396 C 165.567 360.806,163.139 360.329,160.075 359.313 C 157.889 358.588,154.396 357.670,152.313 357.273 C 150.229 356.876,147.505 356.092,146.258 355.530 C 145.012 354.969,142.630 354.039,140.965 353.463 C 128.890 349.287,109.639 339.335,99.418 331.986 C 97.709 330.757,94.863 328.744,93.094 327.513 C 80.950 319.062,68.332 305.556,56.167 287.985 C 48.610 277.071,39.801 260.158,35.767 248.817 C 34.878 246.320,33.782 243.467,33.330 242.478 C 32.878 241.489,32.177 238.935,31.772 236.802 C 31.367 234.669,30.437 231.188,29.706 229.068 C 28.665 226.049,28.251 223.995,27.796 219.607 C 27.477 216.524,26.889 212.044,26.490 209.650 C 24.070 195.138,24.116 183.801,26.657 168.837 C 26.963 167.036,27.467 163.079,27.778 160.043 C 28.218 155.755,28.636 153.673,29.654 150.715 C 30.375 148.621,31.314 145.191,31.742 143.094 C 32.170 140.996,33.098 137.871,33.805 136.149 C 34.512 134.427,35.391 132.081,35.759 130.937 C 43.875 105.676,72.904 65.250,92.145 52.412 C 94.017 51.164,96.841 49.184,98.422 48.013 C 107.907 40.988,127.205 31.038,139.451 26.859 C 141.741 26.078,144.558 25.012,145.711 24.490 C 146.864 23.969,149.631 23.173,151.858 22.722 C 154.086 22.271,157.400 21.398,159.222 20.781 C 161.252 20.094,164.368 19.438,167.266 19.087 C 169.868 18.772,174.210 18.180,176.916 17.771 C 181.174 17.128,190.027 16.209,196.216 15.767 C 198.720 15.588,203.575 15.831,210.974 16.506 M189.593 117.570 C 159.058 120.700,132.887 144.970,127.057 175.565 C 125.844 181.931,125.846 196.423,127.062 202.855 C 132.691 232.640,159.709 258.151,189.193 261.519 C 200.019 262.755,210.005 261.731,220.568 258.300 C 228.169 255.831,228.043 255.810,228.257 259.602 C 228.591 265.506,233.116 267.073,244.087 265.083 C 249.738 264.058,266.040 263.830,268.747 264.739 C 278.411 267.984,288.792 256.483,284.998 246.736 C 282.585 240.536,278.901 237.421,272.714 236.349 C 271.079 236.066,269.552 235.644,269.319 235.412 C 267.750 233.843,277.309 226.912,292.337 218.722 C 295.459 217.020,298.865 215.057,299.905 214.359 C 300.946 213.661,303.018 212.756,304.509 212.349 C 314.825 209.531,320.777 199.105,318.050 188.632 C 316.252 181.725,309.171 175.568,300.985 173.791 C 292.467 171.943,282.549 177.707,274.965 188.912 C 271.470 194.077,270.979 193.784,270.536 186.269 C 270.191 180.423,270.077 179.742,267.977 171.050 C 259.448 135.750,227.159 113.719,189.593 117.570 M204.541 119.227 C 241.337 121.985,267.386 151.278,268.628 191.296 C 268.956 201.880,269.633 201.976,275.289 192.242 C 283.781 177.628,295.783 172.365,307.013 178.331 C 321.325 185.936,318.347 208.578,302.904 209.569 C 300.097 209.749,300.093 209.751,298.108 211.754 C 296.811 213.062,294.347 214.770,291.012 216.671 C 273.983 226.379,261.189 236.339,263.184 238.334 C 263.330 238.480,265.973 238.622,269.058 238.650 C 278.172 238.731,281.691 241.510,283.458 250.023 C 285.043 257.657,275.374 265.382,268.874 261.675 C 267.055 260.637,252.860 260.888,246.736 262.066 C 234.940 264.334,231.199 263.860,230.916 260.062 C 230.727 257.521,232.320 256.147,240.009 252.223 C 252.077 246.064,253.561 244.622,250.491 242.039 C 248.160 240.077,246.902 240.511,240.175 245.601 C 219.686 261.102,191.693 263.998,168.590 253.005 C 132.889 236.019,117.997 192.768,135.747 157.616 C 146.890 135.547,168.816 120.642,192.242 119.211 C 198.902 118.804,198.897 118.804,204.541 119.227 M192.242 127.164 C 155.613 131.628,131.586 163.857,137.754 200.253 C 143.338 233.207,172.753 254.855,206.600 250.920 C 241.614 246.849,267.328 209.598,258.670 175.488 C 255.424 162.702,250.271 153.977,239.452 142.948 C 228.628 131.913,208.499 125.183,192.242 127.164 M203.406 129.445 C 221.637 131.021,233.347 137.941,246.823 155.104 C 255.834 166.581,260.319 187.872,256.600 201.514 C 250.302 224.610,236.519 240.181,216.574 246.732 C 181.413 258.281,143.867 234.248,139.429 197.351 C 134.743 158.397,165.137 126.137,203.406 129.445 M193.311 143.418 C 171.350 145.545,155.856 161.146,153.280 183.728 C 150.567 207.511,165.759 229.430,188.201 234.109 C 192.077 234.918,205.073 234.896,208.992 234.074 C 234.232 228.784,250.360 200.410,242.219 175.618 C 234.977 153.563,216.201 141.202,193.311 143.418 M209.264 146.422 C 231.423 151.167,247.137 178.375,240.466 200.451 C 234.649 219.706,219.864 232.001,201.351 232.979 C 160.539 235.137,139.245 186.636,167.959 156.923 C 170.982 153.795,180.342 148.560,185.676 147.014 C 192.170 145.132,202.078 144.883,209.264 146.422 M194.259 154.194 C 189.947 156.070,193.831 166.351,198.799 166.210 C 201.730 166.127,205.798 158.167,204.176 155.690 C 202.907 153.754,197.238 152.898,194.259 154.194 M200.862 156.502 C 202.880 157.916,200.865 163.103,198.297 163.103 C 196.594 163.103,194.891 160.643,194.891 158.180 C 194.891 156.731,196.120 155.913,198.297 155.913 C 199.245 155.913,200.399 156.178,200.862 156.502 M213.288 161.164 C 212.320 162.234,211.969 164.824,212.838 164.491 C 213.200 164.352,213.563 164.238,213.645 164.238 C 213.726 164.238,214.053 163.736,214.371 163.122 C 215.508 160.922,214.749 159.549,213.288 161.164 M221.406 168.700 C 214.802 175.629,215.905 180.798,223.805 179.944 C 230.729 179.194,231.896 177.420,229.118 171.868 C 226.549 166.733,224.201 165.769,221.406 168.700 M170.269 168.122 C 166.219 170.852,164.610 177.010,167.505 178.701 C 173.896 182.434,181.002 178.784,178.195 173.211 C 175.715 168.287,172.801 166.416,170.269 168.122 M226.017 170.956 C 229.273 174.369,228.303 177.246,223.734 177.724 C 218.844 178.235,218.149 175.684,222.014 171.406 C 223.614 169.635,224.646 169.519,226.017 170.956 M173.357 170.691 C 175.914 172.060,177.173 176.169,175.392 177.336 C 173.763 178.403,169.431 177.425,168.940 175.879 C 168.041 173.046,171.082 169.474,173.357 170.691 M293.094 183.867 C 288.929 185.766,284.269 191.009,279.766 198.866 C 267.265 220.675,267.205 222.691,279.281 215.137 C 288.675 209.259,291.391 208.039,295.640 207.788 C 299.275 207.572,299.429 207.527,300.218 206.431 C 300.667 205.808,302.263 203.980,303.764 202.368 C 308.342 197.453,309.324 194.999,308.225 191.219 C 306.443 185.090,298.682 181.319,293.094 183.867 M301.041 185.830 C 303.798 187.496,306.124 191.099,306.141 193.731 C 306.167 197.817,300.239 203.741,294.898 204.966 C 290.937 205.874,289.275 206.557,284.579 209.208 C 282.185 210.559,279.376 212.144,278.335 212.731 C 273.322 215.560,274.057 212.740,281.692 199.840 C 288.928 187.615,295.781 182.653,301.041 185.830 M197.000 187.917 C 195.458 189.459,197.253 191.999,199.360 191.258 C 200.771 190.762,201.308 189.107,200.389 188.091 C 199.561 187.176,197.830 187.087,197.000 187.917 M227.861 188.421 C 227.080 188.916,227.710 189.593,228.950 189.593 C 229.550 189.593,230.157 189.404,230.301 189.172 C 230.590 188.704,229.825 188.091,228.950 188.091 C 228.638 188.091,228.148 188.240,227.861 188.421 M166.131 188.814 C 166.131 189.409,166.879 189.677,167.855 189.432 C 169.231 189.087,168.973 188.458,167.455 188.458 C 166.727 188.458,166.131 188.618,166.131 188.814 M170.245 198.660 C 165.918 199.445,164.932 201.704,167.036 206.006 C 170.201 212.475,174.497 212.190,177.896 205.286 C 180.377 200.247,177.105 197.415,170.245 198.660 M220.057 198.853 C 219.224 199.165,218.520 199.424,218.492 199.427 C 217.839 199.499,217.241 202.329,217.628 203.515 C 218.781 207.049,222.270 211.164,224.114 211.164 C 227.388 211.164,231.711 203.227,230.088 200.195 C 229.290 198.704,222.775 197.833,220.057 198.853 M175.238 201.338 C 176.856 202.204,175.586 206.042,173.247 207.355 C 171.241 208.481,168.082 204.860,169.107 202.609 C 169.794 201.102,173.400 200.354,175.238 201.338 M226.679 201.434 C 228.928 202.568,226.914 208.136,224.255 208.136 C 222.769 208.136,220.246 204.950,220.246 203.074 C 220.246 201.185,224.191 200.180,226.679 201.434 M196.366 212.772 C 193.398 214.738,191.266 221.326,192.997 223.184 C 196.237 226.662,205.153 224.577,204.605 220.470 C 203.832 214.671,199.546 210.667,196.366 212.772 M212.677 214.973 C 212.677 216.074,213.359 217.219,214.015 217.219 C 214.741 217.219,214.723 216.092,213.980 215.032 C 213.242 213.978,212.677 213.952,212.677 214.973 M199.456 215.339 C 201.189 216.266,202.325 220.394,201.123 221.392 C 200.156 222.194,196.939 222.327,195.843 221.609 C 193.185 219.868,196.657 213.841,199.456 215.339 M267.423 245.250 C 265.336 245.757,258.092 249.543,256.382 251.021 C 253.925 253.145,254.906 253.989,260.638 254.684 C 262.462 254.905,264.786 255.357,265.802 255.688 C 269.101 256.764,273.859 255.538,275.177 253.272 C 278.055 248.327,273.626 243.745,267.423 245.250 M272.819 248.094 C 274.728 249.700,274.321 252.335,272.042 253.130 C 269.787 253.916,262.141 253.210,261.046 252.115 C 258.691 249.760,270.148 245.847,272.819 248.094 " stroke="none" fill="#6094cc" fill-rule="evenodd"></path><path id="path0" d="M0.000 189.215 L 0.000 378.430 200.000 378.430 L 400.000 378.430 400.000 189.215 L 400.000 0.000 200.000 0.000 L 0.000 0.000 0.000 189.215 M221.003 11.497 C 235.577 13.711,251.197 17.474,259.550 20.785 C 261.556 21.580,263.623 22.356,264.144 22.509 C 265.862 23.015,273.700 26.549,279.659 29.507 C 313.610 46.355,343.322 76.395,360.198 110.932 C 363.525 117.739,366.209 123.737,366.555 125.135 C 366.701 125.724,367.398 127.643,368.104 129.398 C 371.224 137.163,374.733 151.281,377.139 165.752 C 378.557 174.288,378.780 201.781,377.506 211.164 C 375.856 223.320,371.569 241.343,368.504 249.007 C 367.880 250.568,367.033 252.867,366.623 254.115 C 363.830 262.606,355.406 278.723,348.029 289.688 C 327.134 320.746,295.675 345.638,261.873 357.860 C 252.775 361.150,243.175 363.882,236.750 365.008 C 233.994 365.491,229.451 366.333,226.655 366.879 C 213.565 369.432,184.099 369.248,169.982 366.525 C 166.303 365.815,161.686 364.957,159.722 364.618 C 157.759 364.279,154.609 363.512,152.722 362.913 C 150.834 362.314,147.868 361.465,146.129 361.026 C 144.390 360.588,141.581 359.657,139.885 358.958 C 138.190 358.259,136.064 357.490,135.162 357.250 C 131.026 356.148,115.222 348.585,108.231 344.363 C 77.658 325.898,51.985 297.941,38.058 267.950 C 33.564 258.271,32.640 256.116,31.979 253.761 C 31.631 252.525,30.784 250.141,30.096 248.463 C 29.407 246.785,28.569 244.182,28.233 242.680 C 27.897 241.177,27.109 238.367,26.482 236.435 C 25.855 234.504,24.997 230.880,24.575 228.382 C 24.153 225.885,23.487 222.477,23.096 220.809 C 19.881 207.112,19.470 175.740,22.332 162.535 C 22.738 160.662,23.514 156.660,24.056 153.642 C 24.598 150.624,25.477 146.623,26.008 144.749 C 26.540 142.876,27.520 139.385,28.186 136.991 C 28.853 134.598,29.919 131.357,30.556 129.790 C 31.193 128.223,31.911 126.179,32.152 125.249 C 33.429 120.321,40.989 105.171,47.892 93.709 C 57.237 78.192,73.791 60.377,91.391 46.897 C 99.677 40.550,100.080 40.276,109.524 34.537 C 115.577 30.859,130.231 23.855,135.478 22.132 C 136.623 21.756,138.751 20.956,140.208 20.354 C 142.567 19.380,148.744 17.531,156.481 15.483 C 162.196 13.970,178.101 11.305,183.349 10.980 C 191.341 10.487,216.637 10.833,221.003 11.497 M210.302 152.558 C 209.475 153.021,209.454 154.348,210.269 154.661 C 211.021 154.949,212.067 154.347,212.227 153.533 C 212.387 152.720,211.141 152.089,210.302 152.558 M220.877 158.057 C 220.421 158.513,220.613 160.730,221.146 161.173 C 221.796 161.712,223.565 161.119,223.899 160.251 C 224.347 159.083,221.742 157.192,220.877 158.057 M172.426 158.968 C 171.159 159.965,171.122 161.120,172.347 161.427 C 173.699 161.767,174.801 161.285,175.064 160.241 C 175.579 158.186,174.241 157.540,172.426 158.968 M193.247 171.364 C 192.376 172.327,192.465 172.889,193.531 173.156 C 195.358 173.615,196.683 172.199,195.364 171.199 C 194.461 170.513,193.983 170.550,193.247 171.364 M201.650 171.404 C 200.576 172.285,200.999 172.913,203.311 173.876 L 204.730 174.466 204.730 173.168 C 204.730 170.582,203.507 169.882,201.650 171.404 M210.028 174.853 C 209.092 175.236,207.942 175.559,207.474 175.571 C 207.006 175.582,206.623 175.750,206.623 175.944 C 206.623 176.300,212.765 180.889,213.242 180.889 C 213.625 180.889,213.026 175.100,212.586 174.551 C 212.130 173.983,212.165 173.979,210.028 174.853 M185.446 175.384 C 184.522 176.496,185.137 177.297,186.885 177.260 C 188.807 177.219,190.610 175.852,189.593 175.206 C 188.709 174.645,185.961 174.763,185.446 175.384 M159.346 181.130 C 158.504 182.200,158.242 185.188,158.952 185.627 C 159.443 185.930,162.697 184.050,162.987 183.295 C 163.190 182.765,161.043 180.132,160.407 180.132 C 160.255 180.132,159.778 180.581,159.346 181.130 M233.586 181.901 C 232.526 182.641,232.498 183.385,233.510 183.927 C 234.776 184.605,236.310 184.243,236.453 183.234 C 236.704 181.462,235.210 180.768,233.586 181.901 M213.818 184.058 C 213.827 187.323,214.108 187.623,216.026 186.413 C 216.882 185.873,217.729 185.430,217.909 185.430 C 218.452 185.430,219.564 184.008,219.198 183.782 C 219.011 183.666,217.723 183.160,216.336 182.656 L 213.813 181.740 213.818 184.058 M178.496 182.952 C 176.529 183.654,176.396 183.868,177.416 184.694 C 179.453 186.346,182.025 185.914,182.025 183.920 C 182.025 182.439,180.843 182.115,178.496 182.952 M214.197 192.148 C 214.204 194.491,214.584 195.113,215.657 194.539 C 216.699 193.981,216.671 193.483,215.502 191.762 C 214.275 189.957,214.190 189.982,214.197 192.148 M158.700 193.259 C 157.970 196.167,160.317 198.512,162.194 196.749 C 163.533 195.491,163.324 194.733,161.272 193.417 C 159.050 191.991,159.018 191.989,158.700 193.259 M179.959 193.351 C 179.680 193.804,180.391 194.253,180.895 193.941 C 181.319 193.680,181.041 192.999,180.511 192.999 C 180.327 192.999,180.079 193.158,179.959 193.351 M233.927 194.460 C 233.125 194.983,233.583 196.163,234.747 196.573 C 235.944 196.994,236.597 196.414,236.426 195.080 C 236.320 194.254,234.816 193.880,233.927 194.460 M211.703 198.979 C 209.495 200.825,209.309 202.250,211.133 203.327 C 212.452 204.107,212.852 203.746,213.233 201.435 C 213.683 198.708,213.115 197.798,211.703 198.979 M185.565 201.140 C 185.073 202.423,187.365 203.400,188.774 202.507 C 189.161 202.261,189.040 201.999,188.250 201.377 C 187.047 200.431,185.877 200.328,185.565 201.140 M192.000 204.164 C 191.696 204.958,192.125 206.451,192.872 207.199 C 194.011 208.338,197.765 206.770,196.972 205.486 C 196.179 204.203,192.374 203.190,192.000 204.164 M202.554 204.629 C 200.922 205.448,200.960 206.461,202.653 207.268 C 204.284 208.046,204.809 207.657,204.874 205.621 C 204.928 203.936,204.392 203.708,202.554 204.629 M220.597 217.859 C 219.688 220.250,220.949 221.853,222.580 220.378 C 223.947 219.140,224.123 218.447,223.282 217.606 C 222.196 216.520,221.065 216.626,220.597 217.859 M209.663 223.627 C 208.376 226.032,210.852 227.783,213.037 226.014 C 214.094 225.158,213.777 224.334,212.080 223.525 C 210.399 222.723,210.141 222.734,209.663 223.627 M256.737 223.937 C 256.378 224.484,255.958 225.964,255.805 227.225 C 255.651 228.486,255.304 230.485,255.032 231.667 C 253.950 236.375,255.992 237.107,259.811 233.380 C 262.978 230.290,263.044 229.455,260.360 226.490 C 259.319 225.341,258.467 224.165,258.467 223.878 C 258.467 222.886,257.401 222.923,256.737 223.937 M184.098 224.179 C 183.129 224.887,183.987 226.013,185.369 225.847 C 186.544 225.706,186.794 225.069,185.988 224.263 C 185.241 223.517,185.017 223.507,184.098 224.179 " stroke="none" fill="#ffffff" fill-rule="evenodd"></path><path id="path1" d="M187.701 12.936 C 180.657 13.370,162.197 16.294,157.048 17.792 C 154.863 18.427,151.681 19.278,149.978 19.682 C 129.262 24.596,99.697 41.171,80.468 58.652 C 60.296 76.991,39.173 108.047,33.509 127.696 C 33.152 128.932,32.298 131.316,31.610 132.994 C 30.922 134.672,29.999 137.601,29.559 139.503 C 29.119 141.405,28.238 144.641,27.602 146.693 C 26.967 148.746,26.033 153.150,25.527 156.481 C 25.021 159.811,24.267 164.277,23.850 166.406 C 21.678 177.507,21.678 202.058,23.850 213.158 C 24.267 215.287,25.021 219.754,25.527 223.084 C 26.033 226.414,26.974 230.842,27.620 232.923 C 28.265 235.005,29.115 238.180,29.508 239.978 C 29.901 241.777,30.809 244.672,31.525 246.412 C 32.242 248.151,33.103 250.533,33.440 251.704 C 37.591 266.132,53.048 291.553,67.685 308.022 C 86.169 328.821,114.832 348.334,138.316 356.105 C 139.773 356.587,142.093 357.447,143.471 358.015 C 144.850 358.582,147.234 359.328,148.769 359.671 C 150.305 360.014,153.605 360.883,156.102 361.602 C 158.600 362.321,163.368 363.333,166.698 363.851 C 170.028 364.370,174.626 365.132,176.916 365.546 C 187.774 367.508,211.574 367.423,222.618 365.383 C 225.471 364.856,230.064 364.095,232.824 363.692 C 235.585 363.289,239.376 362.502,241.249 361.945 C 243.122 361.387,246.528 360.461,248.817 359.886 C 251.107 359.311,254.513 358.246,256.386 357.519 C 258.259 356.792,260.473 355.984,261.306 355.725 C 276.037 351.127,300.985 336.155,315.799 323.020 C 337.679 303.621,357.069 275.612,364.809 252.223 C 365.291 250.766,366.177 248.383,366.777 246.926 C 367.377 245.470,368.298 242.575,368.823 240.493 C 369.349 238.411,370.346 234.749,371.039 232.356 C 371.732 229.962,372.588 226.131,372.942 223.841 C 373.295 221.552,373.986 217.280,374.478 214.348 C 377.461 196.543,376.822 176.647,372.528 153.642 C 361.988 97.180,316.902 44.319,262.252 24.351 C 260.274 23.628,257.124 22.465,255.251 21.766 C 253.377 21.067,250.057 20.042,247.871 19.489 C 245.686 18.936,242.450 18.064,240.681 17.551 C 238.912 17.038,235.336 16.282,232.734 15.871 C 230.132 15.459,225.449 14.705,222.327 14.196 C 212.828 12.647,199.996 12.180,187.701 12.936 M210.218 14.185 C 214.380 14.490,219.745 15.075,222.138 15.485 C 224.532 15.894,228.448 16.495,230.842 16.819 C 233.236 17.144,236.812 17.852,238.789 18.393 C 240.766 18.934,244.768 20.018,247.682 20.803 C 259.760 24.053,278.716 32.154,288.553 38.268 C 290.634 39.561,293.699 41.468,295.364 42.504 C 310.377 51.850,327.706 68.008,339.520 83.679 C 349.514 96.934,358.957 114.161,363.663 127.720 C 364.458 130.009,365.557 133.053,366.106 134.484 C 366.656 135.914,367.441 138.525,367.852 140.286 C 368.262 142.047,369.185 145.509,369.903 147.979 C 370.621 150.449,371.648 155.416,372.185 159.016 C 372.722 162.617,373.401 167.096,373.693 168.969 C 375.661 181.604,375.514 199.012,373.320 213.056 C 372.816 216.282,372.132 220.770,371.800 223.028 C 371.468 225.287,370.623 229.119,369.922 231.543 C 369.220 233.967,368.273 237.552,367.817 239.508 C 367.360 241.464,366.524 244.189,365.958 245.563 C 365.392 246.937,364.449 249.508,363.863 251.277 C 362.671 254.873,359.635 261.974,357.278 266.679 C 356.423 268.385,355.724 269.878,355.724 269.996 C 355.724 270.589,347.301 284.969,344.633 288.931 C 325.166 317.839,293.302 342.776,260.738 354.587 C 258.553 355.379,255.487 356.533,253.926 357.150 C 252.365 357.767,249.726 358.565,248.061 358.923 C 246.395 359.282,243.075 360.167,240.681 360.892 C 237.986 361.707,234.195 362.483,230.724 362.930 C 227.641 363.328,223.384 363.986,221.263 364.395 C 209.866 366.589,189.849 366.613,177.618 364.448 C 175.358 364.048,170.920 363.364,167.755 362.929 C 164.589 362.494,160.332 361.625,158.294 360.997 C 156.256 360.369,152.792 359.449,150.595 358.953 C 148.399 358.457,145.673 357.640,144.538 357.138 C 143.402 356.636,141.282 355.836,139.827 355.360 C 116.425 347.708,87.925 328.703,69.720 308.609 C 54.783 292.123,38.775 265.902,34.174 250.386 C 33.856 249.315,33.025 247.058,32.327 245.369 C 31.628 243.681,30.694 240.615,30.251 238.557 C 29.807 236.499,28.941 233.239,28.327 231.311 C 27.669 229.250,26.753 224.731,26.102 220.337 C 25.493 216.228,24.748 211.504,24.447 209.839 C 22.523 199.191,22.762 177.285,24.916 166.887 C 25.325 164.910,25.857 161.675,26.098 159.697 C 26.794 153.976,27.220 151.753,28.202 148.723 C 28.708 147.162,29.635 143.707,30.263 141.045 C 30.891 138.384,31.657 135.718,31.965 135.122 C 32.274 134.526,33.277 131.851,34.195 129.176 C 43.975 100.678,68.712 67.254,93.283 49.335 C 106.889 39.413,126.644 28.674,137.748 25.163 C 138.893 24.801,141.239 23.929,142.963 23.224 C 144.686 22.520,148.432 21.361,151.288 20.650 C 154.144 19.938,157.588 19.006,158.940 18.580 C 160.293 18.153,163.018 17.551,164.995 17.242 C 166.973 16.934,171.485 16.228,175.024 15.675 C 187.394 13.740,198.023 13.290,210.218 14.185 M192.242 119.211 C 147.765 121.929,117.258 169.102,132.114 212.187 C 147.645 257.227,202.421 274.164,240.175 245.601 C 246.902 240.511,248.160 240.077,250.491 242.039 C 253.561 244.622,252.077 246.064,240.009 252.223 C 232.320 256.147,230.727 257.521,230.916 260.062 C 231.199 263.860,234.940 264.334,246.736 262.066 C 252.860 260.888,267.055 260.637,268.874 261.675 C 275.374 265.382,285.043 257.657,283.458 250.023 C 281.691 241.510,278.172 238.731,269.058 238.650 C 265.973 238.622,263.330 238.480,263.184 238.334 C 261.189 236.339,273.983 226.379,291.012 216.671 C 294.347 214.770,296.811 213.062,298.108 211.754 C 300.093 209.751,300.097 209.749,302.904 209.569 C 318.347 208.578,321.325 185.936,307.013 178.331 C 295.783 172.365,283.781 177.628,275.289 192.242 C 269.633 201.976,268.956 201.880,268.628 191.296 C 267.386 151.278,241.337 121.985,204.541 119.227 C 198.897 118.804,198.902 118.804,192.242 119.211 M207.094 120.514 C 242.654 124.744,268.658 156.739,266.928 194.134 C 266.251 208.745,267.729 208.611,276.190 193.290 C 281.945 182.867,289.330 177.483,297.870 177.483 C 314.070 177.483,321.287 198.115,307.935 206.256 C 303.740 208.814,302.872 206.443,306.385 202.020 C 311.734 195.284,311.724 190.525,306.351 185.498 C 297.800 177.499,287.366 182.298,278.524 198.297 C 277.588 199.992,276.047 202.686,275.100 204.284 C 264.005 223.020,264.839 226.203,278.607 217.668 C 285.489 213.401,291.867 210.028,293.053 210.028 C 295.365 210.028,294.962 212.372,292.428 213.666 C 281.976 219.005,266.716 230.331,260.500 237.364 C 256.740 241.618,254.591 242.214,251.277 239.921 C 249.005 238.349,246.886 238.669,243.898 241.035 C 235.354 247.798,231.197 250.324,223.846 253.217 C 177.866 271.314,129.968 238.635,130.040 189.215 C 130.089 155.051,153.352 127.001,186.670 120.929 C 192.398 119.886,200.435 119.722,207.094 120.514 M190.728 125.888 C 144.218 131.873,119.919 185.557,145.970 224.773 C 172.394 264.551,232.560 260.991,254.443 218.354 C 268.148 191.650,262.353 162.308,239.075 140.543 C 227.879 130.075,207.113 123.780,190.728 125.888 M209.082 127.904 C 225.965 130.711,237.727 138.682,250.219 155.783 C 270.159 183.080,259.398 225.899,228.082 243.875 C 194.833 262.960,148.541 243.870,139.127 207.190 C 127.294 161.085,163.287 120.291,209.082 127.904 M191.468 145.709 C 185.556 146.531,181.605 148.079,174.078 152.525 C 147.928 167.969,148.734 210.399,175.485 226.577 C 209.967 247.430,252.082 214.649,240.016 176.348 C 233.338 155.152,213.522 142.646,191.468 145.709 M207.303 147.623 C 226.190 151.001,240.311 168.931,240.305 189.525 L 240.303 196.458 238.604 201.394 C 230.599 224.657,209.665 236.412,187.133 230.298 C 164.473 224.148,150.324 198.242,157.668 176.350 C 160.670 167.398,167.670 157.596,173.097 154.742 C 174.365 154.075,176.935 152.630,178.808 151.531 C 186.267 147.154,196.689 145.724,207.303 147.623 M194.015 152.656 C 190.105 154.108,189.558 156.837,192.098 162.222 C 194.015 166.289,197.227 168.653,199.747 167.854 C 203.178 166.765,207.266 157.852,205.713 154.848 C 204.483 152.470,197.858 151.229,194.015 152.656 M202.253 154.178 C 205.104 155.369,205.312 157.438,203.036 161.943 C 201.070 165.832,199.176 167.032,196.914 165.822 C 193.921 164.220,191.333 157.941,192.650 155.479 C 193.570 153.760,199.371 152.974,202.253 154.178 M212.714 158.846 C 210.876 160.684,208.126 168.462,208.744 170.073 C 209.793 172.807,217.718 163.235,217.074 160.013 C 216.577 157.532,214.566 156.994,212.714 158.846 M180.530 159.299 C 179.051 160.778,179.932 163.563,182.896 166.778 C 185.749 169.874,187.506 169.855,187.247 166.732 C 186.839 161.823,182.647 157.183,180.530 159.299 M214.948 161.230 C 214.948 161.964,213.963 164.238,213.645 164.238 C 213.563 164.238,213.200 164.352,212.838 164.491 C 212.261 164.712,212.208 164.565,212.412 163.309 C 212.778 161.054,214.948 159.275,214.948 161.230 M222.706 165.584 C 221.338 166.288,220.825 166.894,218.080 171.050 C 213.221 178.409,215.851 181.968,225.364 180.907 C 232.258 180.139,233.564 177.935,230.685 171.928 C 228.178 166.695,225.179 164.311,222.706 165.584 M169.576 166.587 C 166.751 168.396,163.778 174.656,164.454 177.372 C 165.895 183.153,180.647 182.136,180.633 176.257 C 180.619 170.210,173.560 164.037,169.576 166.587 M226.383 168.033 C 230.954 171.801,231.624 178.283,227.551 179.326 C 216.756 182.089,213.693 176.792,221.406 168.700 C 223.465 166.541,224.418 166.413,226.383 168.033 M173.688 167.828 C 177.357 169.725,180.065 176.024,178.220 178.369 C 176.678 180.330,170.616 180.518,167.505 178.701 C 163.103 176.130,169.156 165.484,173.688 167.828 M301.798 183.872 C 304.244 184.997,307.497 188.715,308.225 191.219 C 309.324 194.999,308.342 197.453,303.764 202.368 C 302.263 203.980,300.667 205.808,300.218 206.431 C 299.429 207.527,299.275 207.572,295.640 207.788 C 291.391 208.039,288.675 209.259,279.281 215.137 C 267.205 222.691,267.265 220.675,279.766 198.866 C 287.287 185.743,294.778 180.646,301.798 183.872 M196.341 186.388 C 195.032 187.098,194.287 189.206,194.912 190.426 C 196.750 194.010,202.253 193.102,202.253 189.215 C 202.253 186.351,199.146 184.865,196.341 186.388 M163.770 186.945 C 160.524 188.970,163.010 191.666,168.055 191.591 C 174.503 191.495,178.340 189.043,174.551 187.441 C 172.795 186.698,164.757 186.328,163.770 186.945 M223.652 186.918 C 218.982 187.851,219.705 190.173,225.018 191.298 C 228.766 192.092,230.500 192.018,232.016 191.000 C 236.301 188.122,230.875 185.473,223.652 186.918 M200.389 188.091 C 201.308 189.107,200.771 190.762,199.360 191.258 C 197.253 191.999,195.458 189.459,197.000 187.917 C 197.830 187.087,199.561 187.176,200.389 188.091 M230.039 188.421 C 230.819 188.916,230.190 189.593,228.950 189.593 C 228.350 189.593,227.742 189.404,227.599 189.172 C 227.310 188.704,228.075 188.091,228.950 188.091 C 229.262 188.091,229.752 188.240,230.039 188.421 M168.780 188.829 C 168.780 189.298,167.064 189.747,166.530 189.417 C 165.723 188.918,166.166 188.458,167.455 188.458 C 168.184 188.458,168.780 188.625,168.780 188.829 M170.353 197.173 C 163.785 198.073,162.510 202.055,166.751 208.421 C 170.566 214.148,174.140 214.058,178.030 208.136 C 183.046 200.500,179.809 195.877,170.353 197.173 M220.711 197.137 C 216.358 197.856,214.905 201.469,217.222 205.813 C 222.057 214.876,226.171 215.124,230.635 206.623 C 233.512 201.143,232.429 197.884,227.559 197.368 C 223.175 196.904,222.301 196.875,220.711 197.137 M177.505 199.643 C 180.347 202.365,176.471 210.785,172.376 210.785 C 168.853 210.785,164.420 202.895,166.521 200.364 C 168.381 198.122,175.435 197.659,177.505 199.643 M228.480 199.098 C 232.598 200.418,228.709 211.164,224.114 211.164 C 222.270 211.164,218.781 207.049,217.628 203.515 C 217.241 202.329,217.839 199.499,218.492 199.427 C 218.520 199.424,219.224 199.165,220.057 198.853 C 221.703 198.235,226.194 198.365,228.480 199.098 M208.892 208.895 C 207.649 211.218,212.335 220.246,214.784 220.246 C 217.479 220.246,217.550 216.830,214.937 212.923 C 212.007 208.543,209.850 207.105,208.892 208.895 M183.476 211.069 C 179.261 214.858,178.385 219.489,181.882 219.489 C 184.055 219.489,186.152 216.491,187.121 212.000 C 187.685 209.386,185.865 208.921,183.476 211.069 M196.216 211.036 C 191.755 213.387,188.918 221.887,191.749 224.416 C 196.565 228.719,206.613 226.173,206.112 220.777 C 205.503 214.234,200.148 208.962,196.216 211.036 M200.440 212.653 C 203.110 214.281,205.479 221.091,204.019 222.942 C 202.192 225.261,195.077 225.416,192.997 223.184 C 189.653 219.594,196.330 210.147,200.440 212.653 M213.980 215.032 C 214.723 216.092,214.741 217.219,214.015 217.219 C 213.359 217.219,212.677 216.074,212.677 214.973 C 212.677 213.952,213.242 213.978,213.980 215.032 M275.307 240.347 C 278.176 241.139,280.756 245.319,282.079 251.321 C 282.769 254.451,279.743 258.774,275.910 260.132 C 271.290 261.769,268.458 259.741,272.255 257.516 C 281.850 251.893,277.055 241.424,266.163 244.214 C 263.924 244.787,255.186 249.188,252.837 250.924 C 249.653 253.279,252.058 255.393,258.861 256.218 C 263.538 256.785,264.572 257.327,263.182 258.480 C 262.794 258.802,260.985 259.003,257.789 259.081 C 252.200 259.216,249.070 259.658,244.087 261.017 C 235.737 263.295,230.264 261.547,233.775 257.725 C 234.991 256.401,239.856 253.649,244.549 251.629 C 249.007 249.711,253.125 247.058,254.455 245.247 C 255.057 244.426,256.079 243.548,256.725 243.296 C 257.371 243.044,259.076 242.335,260.514 241.720 C 264.523 240.004,271.668 239.341,275.307 240.347 M273.732 245.861 C 276.023 247.035,276.722 250.618,275.177 253.272 C 273.859 255.538,269.101 256.764,265.802 255.688 C 264.786 255.357,262.462 254.905,260.638 254.684 C 252.999 253.758,253.302 252.083,261.904 247.683 C 267.616 244.762,270.668 244.291,273.732 245.861 " stroke="none" fill="#7fa9d5" fill-rule="evenodd"></path><path id="path2" d="M196.216 15.767 C 190.027 16.209,181.174 17.128,176.916 17.771 C 174.210 18.180,169.868 18.772,167.266 19.087 C 164.368 19.438,161.252 20.094,159.222 20.781 C 157.400 21.398,154.086 22.271,151.858 22.722 C 149.631 23.173,146.864 23.969,145.711 24.490 C 144.558 25.012,141.741 26.078,139.451 26.859 C 127.205 31.038,107.907 40.988,98.422 48.013 C 96.841 49.184,94.017 51.164,92.145 52.412 C 72.904 65.250,43.875 105.676,35.759 130.937 C 35.391 132.081,34.512 134.427,33.805 136.149 C 33.098 137.871,32.170 140.996,31.742 143.094 C 31.314 145.191,30.375 148.621,29.654 150.715 C 28.636 153.673,28.218 155.755,27.778 160.043 C 27.467 163.079,26.963 167.036,26.657 168.837 C 24.116 183.801,24.070 195.138,26.490 209.650 C 26.889 212.044,27.477 216.524,27.796 219.607 C 28.251 223.995,28.665 226.049,29.706 229.068 C 30.437 231.188,31.367 234.669,31.772 236.802 C 32.177 238.935,32.878 241.489,33.330 242.478 C 33.782 243.467,34.878 246.320,35.767 248.817 C 46.177 278.080,70.974 312.120,93.094 327.513 C 94.863 328.744,97.709 330.757,99.418 331.986 C 109.639 339.335,128.890 349.287,140.965 353.463 C 142.630 354.039,145.012 354.969,146.258 355.530 C 147.505 356.092,150.229 356.876,152.313 357.273 C 154.396 357.670,157.889 358.588,160.075 359.313 C 163.139 360.329,165.567 360.806,170.672 361.396 C 174.314 361.817,178.827 362.400,180.700 362.692 C 194.985 364.913,206.022 364.816,220.599 362.339 C 222.382 362.036,226.171 361.534,229.018 361.223 C 232.388 360.855,235.427 360.263,237.722 359.530 C 239.662 358.909,243.377 357.897,245.979 357.280 C 248.581 356.663,251.561 355.789,252.602 355.338 C 253.642 354.888,256.537 353.785,259.035 352.889 C 286.448 343.047,313.922 323.897,332.878 301.419 C 344.492 287.647,357.234 265.217,362.329 249.574 C 363.007 247.493,363.997 244.765,364.530 243.513 C 365.063 242.260,365.839 239.450,366.254 237.268 C 366.670 235.087,367.539 231.715,368.185 229.776 C 369.014 227.288,369.574 224.448,370.085 220.126 C 370.484 216.758,371.067 212.384,371.382 210.407 C 373.703 195.827,373.585 184.387,370.918 165.563 C 370.505 162.649,369.985 158.727,369.761 156.848 C 369.538 154.969,368.845 151.920,368.221 150.074 C 367.597 148.227,366.759 144.990,366.359 142.879 C 365.959 140.769,365.037 137.516,364.312 135.652 C 363.586 133.787,362.615 130.984,362.153 129.423 C 361.692 127.862,360.931 125.818,360.463 124.882 C 359.996 123.945,359.309 122.242,358.937 121.097 C 358.566 119.953,357.552 117.654,356.684 115.989 C 355.816 114.324,354.821 112.280,354.474 111.447 C 353.892 110.052,351.739 106.139,347.983 99.652 C 335.652 78.353,312.193 54.642,290.964 42.019 C 289.376 41.075,287.333 39.858,286.423 39.315 C 279.372 35.105,266.736 29.324,259.224 26.871 C 257.455 26.294,254.658 25.280,253.010 24.620 C 251.361 23.959,248.387 23.084,246.401 22.676 C 244.416 22.267,241.252 21.440,239.371 20.838 C 235.698 19.663,232.960 19.120,228.761 18.733 C 227.304 18.598,224.068 18.167,221.570 17.773 C 213.781 16.547,200.267 15.477,196.216 15.767 M209.164 117.896 C 237.396 121.181,261.106 142.610,267.977 171.050 C 270.077 179.742,270.191 180.423,270.536 186.269 C 270.979 193.784,271.470 194.077,274.965 188.912 C 284.463 174.879,295.464 170.418,306.997 175.923 C 323.666 183.878,322.048 207.558,304.509 212.349 C 303.018 212.756,300.946 213.661,299.905 214.359 C 298.865 215.057,295.459 217.020,292.337 218.722 C 277.309 226.912,267.750 233.843,269.319 235.412 C 269.552 235.644,271.079 236.066,272.714 236.349 C 278.901 237.421,282.585 240.536,284.998 246.736 C 288.792 256.483,278.411 267.984,268.747 264.739 C 266.040 263.830,249.738 264.058,244.087 265.083 C 233.116 267.073,228.591 265.506,228.257 259.602 C 228.043 255.810,228.169 255.831,220.568 258.300 C 210.005 261.731,200.019 262.755,189.193 261.519 C 159.709 258.151,132.691 232.640,127.062 202.855 C 125.846 196.423,125.844 181.931,127.057 175.565 C 132.887 144.970,159.058 120.700,189.593 117.570 C 193.356 117.184,204.667 117.373,209.164 117.896 M191.261 129.629 C 158.343 133.224,135.332 163.290,139.429 197.351 C 143.867 234.248,181.413 258.281,216.574 246.732 C 236.519 240.181,250.302 224.610,256.600 201.514 C 260.319 187.872,255.834 166.581,246.823 155.104 C 230.809 134.709,214.252 127.117,191.261 129.629 M208.893 144.153 C 225.928 147.110,241.594 164.561,244.117 183.390 C 247.158 206.093,230.958 229.471,208.992 234.074 C 205.073 234.896,192.077 234.918,188.201 234.109 C 155.992 227.394,142.051 187.070,162.563 159.952 C 172.683 146.573,189.598 140.805,208.893 144.153 M195.732 156.502 C 193.714 157.916,195.729 163.103,198.297 163.103 C 200.001 163.103,201.703 160.643,201.703 158.180 C 201.703 156.731,200.475 155.913,198.297 155.913 C 197.349 155.913,196.195 156.178,195.732 156.502 M222.014 171.406 C 218.149 175.684,218.844 178.235,223.734 177.724 C 227.556 177.324,228.548 176.067,227.412 173.062 C 226.199 169.850,224.023 169.183,222.014 171.406 M170.268 171.456 C 168.383 173.473,168.330 176.228,170.160 177.061 C 174.975 179.256,178.064 176.560,175.225 172.640 C 173.301 169.985,171.945 169.660,170.268 171.456 M295.812 185.090 C 291.948 185.997,286.545 191.641,281.692 199.840 C 274.057 212.740,273.322 215.560,278.335 212.731 C 279.376 212.144,282.185 210.559,284.579 209.208 C 289.275 206.557,290.937 205.874,294.898 204.966 C 298.868 204.056,303.609 200.280,305.382 196.616 C 308.068 191.068,301.915 183.659,295.812 185.090 M170.385 201.337 C 168.270 202.187,168.842 206.097,171.273 207.397 C 173.080 208.365,175.970 205.650,175.970 202.985 C 175.970 201.104,173.084 200.253,170.385 201.337 M221.087 201.535 C 219.187 202.866,221.716 208.136,224.255 208.136 C 225.906 208.136,228.048 204.863,227.751 202.792 C 227.505 201.071,222.970 200.216,221.087 201.535 M196.711 215.989 C 193.526 219.403,194.511 222.453,198.669 222.053 C 201.804 221.752,202.502 220.268,200.945 217.216 C 199.692 214.760,198.248 214.341,196.711 215.989 M264.411 248.849 C 259.638 251.282,259.558 252.156,264.029 253.022 C 270.648 254.303,273.983 253.357,273.983 250.200 C 273.983 246.779,269.668 246.169,264.411 248.849 " stroke="none" fill="#3474bc" fill-rule="evenodd"></path><path id="path3" d="M183.349 10.980 C 178.101 11.305,162.196 13.970,156.481 15.483 C 148.744 17.531,142.567 19.380,140.208 20.354 C 138.751 20.956,136.623 21.756,135.478 22.132 C 130.231 23.855,115.577 30.859,109.524 34.537 C 100.080 40.276,99.677 40.550,91.391 46.897 C 67.713 65.032,49.560 87.049,38.148 111.473 C 33.726 120.939,32.597 123.532,32.152 125.249 C 31.911 126.179,31.193 128.223,30.556 129.790 C 29.919 131.357,28.853 134.598,28.186 136.991 C 27.520 139.385,26.540 142.876,26.008 144.749 C 25.477 146.623,24.598 150.624,24.056 153.642 C 23.514 156.660,22.738 160.662,22.332 162.535 C 21.199 167.764,20.859 171.835,20.594 183.349 C 20.203 200.341,20.963 211.720,23.096 220.809 C 23.487 222.477,24.153 225.885,24.575 228.382 C 24.997 230.880,25.855 234.504,26.482 236.435 C 27.109 238.367,27.897 241.177,28.233 242.680 C 28.569 244.182,29.407 246.785,30.096 248.463 C 30.784 250.141,31.631 252.525,31.979 253.761 C 32.640 256.116,33.564 258.271,38.058 267.950 C 51.985 297.941,77.658 325.898,108.231 344.363 C 115.222 348.585,131.026 356.148,135.162 357.250 C 136.064 357.490,138.190 358.259,139.885 358.958 C 141.581 359.657,144.390 360.588,146.129 361.026 C 147.868 361.465,150.834 362.314,152.722 362.913 C 154.609 363.512,157.759 364.279,159.722 364.618 C 161.686 364.957,166.303 365.815,169.982 366.525 C 184.099 369.248,213.565 369.432,226.655 366.879 C 229.451 366.333,233.994 365.491,236.750 365.008 C 246.340 363.327,261.394 358.522,271.523 353.910 C 301.541 340.243,321.810 324.090,342.140 297.635 C 347.845 290.210,349.062 288.392,355.062 278.335 C 359.000 271.736,364.879 259.419,366.623 254.115 C 367.033 252.867,367.880 250.568,368.504 249.007 C 371.569 241.343,375.856 223.320,377.506 211.164 C 378.780 201.781,378.557 174.288,377.139 165.752 C 374.733 151.281,371.224 137.163,368.104 129.398 C 367.398 127.643,366.701 125.724,366.555 125.135 C 365.507 120.902,357.410 104.920,351.186 94.797 C 334.715 68.010,307.873 43.509,279.659 29.507 C 273.700 26.549,265.862 23.015,264.144 22.509 C 263.623 22.356,261.556 21.580,259.550 20.785 C 251.197 17.474,235.577 13.711,221.003 11.497 C 216.637 10.833,191.341 10.487,183.349 10.980 M209.678 12.879 C 213.513 13.094,219.205 13.687,222.327 14.196 C 225.449 14.705,230.132 15.459,232.734 15.871 C 235.336 16.282,238.912 17.038,240.681 17.551 C 242.450 18.064,245.686 18.936,247.871 19.489 C 250.057 20.042,253.377 21.067,255.251 21.766 C 257.124 22.465,260.274 23.628,262.252 24.351 C 316.902 44.319,361.988 97.180,372.528 153.642 C 376.822 176.647,377.461 196.543,374.478 214.348 C 373.986 217.280,373.295 221.552,372.942 223.841 C 372.588 226.131,371.732 229.962,371.039 232.356 C 370.346 234.749,369.349 238.411,368.823 240.493 C 368.298 242.575,367.377 245.470,366.777 246.926 C 366.177 248.383,365.291 250.766,364.809 252.223 C 357.069 275.612,337.679 303.621,315.799 323.020 C 300.985 336.155,276.037 351.127,261.306 355.725 C 260.473 355.984,258.259 356.792,256.386 357.519 C 254.513 358.246,251.107 359.311,248.817 359.886 C 246.528 360.461,243.122 361.387,241.249 361.945 C 239.376 362.502,235.585 363.289,232.824 363.692 C 230.064 364.095,225.471 364.856,222.618 365.383 C 211.574 367.423,187.774 367.508,176.916 365.546 C 174.626 365.132,170.028 364.370,166.698 363.851 C 163.368 363.333,158.600 362.321,156.102 361.602 C 153.605 360.883,150.305 360.014,148.769 359.671 C 147.234 359.328,144.850 358.582,143.471 358.015 C 142.093 357.447,139.773 356.587,138.316 356.105 C 114.832 348.334,86.169 328.821,67.685 308.022 C 53.048 291.553,37.591 266.132,33.440 251.704 C 33.103 250.533,32.242 248.151,31.525 246.412 C 30.809 244.672,29.901 241.777,29.508 239.978 C 29.115 238.180,28.265 235.005,27.620 232.923 C 26.974 230.842,26.033 226.414,25.527 223.084 C 25.021 219.754,24.267 215.287,23.850 213.158 C 21.678 202.058,21.678 177.507,23.850 166.406 C 24.267 164.277,25.021 159.811,25.527 156.481 C 26.033 153.150,26.967 148.746,27.602 146.693 C 28.238 144.641,29.119 141.405,29.559 139.503 C 29.999 137.601,30.922 134.672,31.610 132.994 C 32.298 131.316,33.152 128.932,33.509 127.696 C 39.173 108.047,60.296 76.991,80.468 58.652 C 99.697 41.171,129.262 24.596,149.978 19.682 C 151.681 19.278,154.863 18.427,157.048 17.792 C 169.899 14.053,192.686 11.926,209.678 12.879 M191.485 120.228 C 186.048 120.656,176.229 123.381,170.086 126.167 C 128.981 144.810,116.866 197.833,145.535 233.618 C 165.794 258.906,203.863 265.668,232.577 249.079 C 236.029 247.085,238.234 245.518,243.898 241.035 C 246.886 238.669,249.005 238.349,251.277 239.921 C 254.591 242.214,256.740 241.618,260.500 237.364 C 266.716 230.331,281.976 219.005,292.428 213.666 C 294.962 212.372,295.365 210.028,293.053 210.028 C 291.867 210.028,285.489 213.401,278.607 217.668 C 264.839 226.203,264.005 223.020,275.100 204.284 C 276.047 202.686,277.588 199.992,278.524 198.297 C 287.366 182.298,297.800 177.499,306.351 185.498 C 311.724 190.525,311.734 195.284,306.385 202.020 C 302.872 206.443,303.740 208.814,307.935 206.256 C 321.287 198.115,314.070 177.483,297.870 177.483 C 289.330 177.483,281.945 182.867,276.190 193.290 C 267.729 208.611,266.251 208.745,266.928 194.134 C 268.952 150.381,234.702 116.829,191.485 120.228 M210.785 126.731 C 228.455 130.627,242.138 140.411,252.596 156.629 C 269.200 182.377,262.521 218.960,237.576 238.898 C 205.624 264.435,157.759 253.023,141.030 215.880 C 123.393 176.719,148.461 131.327,190.728 125.888 C 194.414 125.414,207.260 125.954,210.785 126.731 M190.439 147.397 C 185.739 148.249,182.344 149.456,178.808 151.531 C 176.935 152.630,174.365 154.075,173.097 154.742 C 165.964 158.493,157.576 172.313,156.314 182.393 C 153.549 204.483,166.565 224.716,187.133 230.298 C 209.665 236.412,230.599 224.657,238.604 201.394 L 240.303 196.458 240.305 189.525 C 240.313 162.292,216.987 142.585,190.439 147.397 M203.872 153.008 C 208.959 155.699,203.508 168.943,197.758 167.864 C 192.866 166.946,188.582 156.802,191.841 153.852 C 193.836 152.047,201.093 151.537,203.872 153.008 M212.227 153.533 C 212.067 154.347,211.021 154.949,210.269 154.661 C 209.454 154.348,209.475 153.021,210.302 152.558 C 211.141 152.089,212.387 152.720,212.227 153.533 M216.413 158.314 C 218.041 160.276,216.755 163.739,212.820 167.989 C 209.803 171.247,208.515 171.466,208.515 168.720 C 208.515 167.296,211.660 159.900,212.714 158.846 C 213.850 157.710,215.692 157.445,216.413 158.314 M223.255 158.732 C 224.284 159.827,224.081 160.688,222.669 161.225 C 221.353 161.725,220.624 161.120,220.624 159.525 C 220.624 157.518,221.786 157.168,223.255 158.732 M175.076 158.752 C 175.440 159.699,174.881 161.145,174.049 161.409 C 172.827 161.797,171.429 161.298,171.429 160.474 C 171.429 158.949,174.581 157.461,175.076 158.752 M183.917 159.670 C 186.137 161.236,188.341 168.308,186.794 168.901 C 185.353 169.455,182.161 166.717,180.538 163.534 C 178.635 159.805,180.723 157.417,183.917 159.670 M225.497 165.538 C 228.283 166.979,231.977 173.096,231.977 176.268 C 231.977 179.467,230.785 180.303,225.364 180.907 C 215.851 181.968,213.221 178.409,218.080 171.050 C 221.894 165.275,223.163 164.332,225.497 165.538 M174.473 166.329 C 178.611 168.468,181.959 176.453,179.722 178.847 C 177.246 181.498,169.500 181.937,166.055 179.622 C 160.722 176.038,168.746 163.367,174.473 166.329 M195.364 171.199 C 196.683 172.199,195.358 173.615,193.531 173.156 C 192.465 172.889,192.376 172.327,193.247 171.364 C 193.983 170.550,194.461 170.513,195.364 171.199 M204.501 171.270 C 204.627 171.600,204.730 172.453,204.730 173.168 L 204.730 174.466 203.311 173.876 C 200.999 172.913,200.576 172.285,201.650 171.404 C 202.731 170.518,204.186 170.450,204.501 171.270 M212.586 174.551 C 213.026 175.100,213.625 180.889,213.242 180.889 C 212.765 180.889,206.623 176.300,206.623 175.944 C 206.623 175.750,207.006 175.582,207.474 175.571 C 207.942 175.559,209.092 175.236,210.028 174.853 C 212.165 173.979,212.130 173.983,212.586 174.551 M189.593 175.206 C 190.610 175.852,188.807 177.219,186.885 177.260 C 185.137 177.297,184.522 176.496,185.446 175.384 C 185.961 174.763,188.709 174.645,189.593 175.206 M161.944 181.432 C 163.466 183.002,163.329 183.531,161.056 184.863 C 158.987 186.075,158.562 185.886,158.562 183.756 C 158.562 180.563,160.086 179.516,161.944 181.432 M236.123 181.815 C 237.424 183.382,235.459 184.970,233.510 183.927 C 232.498 183.385,232.526 182.641,233.586 181.901 C 234.666 181.148,235.544 181.118,236.123 181.815 M219.198 183.782 C 219.564 184.008,218.452 185.430,217.909 185.430 C 217.729 185.430,216.882 185.873,216.026 186.413 C 214.108 187.623,213.827 187.323,213.818 184.058 L 213.813 181.740 216.336 182.656 C 217.723 183.160,219.011 183.666,219.198 183.782 M181.570 182.857 C 182.853 184.139,181.566 186.020,179.652 185.661 C 178.200 185.389,176.370 184.150,176.793 183.725 C 177.745 182.769,180.908 182.195,181.570 182.857 M201.200 186.715 C 203.672 188.841,201.976 192.630,198.560 192.612 C 195.838 192.598,194.133 190.565,194.899 188.246 C 195.698 185.826,199.182 184.979,201.200 186.715 M174.551 187.441 C 178.340 189.043,174.503 191.495,168.055 191.591 C 163.010 191.666,160.524 188.970,163.770 186.945 C 164.757 186.328,172.795 186.698,174.551 187.441 M232.515 187.367 C 234.636 189.035,232.528 191.871,229.178 191.857 C 223.470 191.833,218.632 189.187,221.476 187.644 C 223.884 186.338,230.980 186.159,232.515 187.367 M215.502 191.762 C 216.671 193.483,216.699 193.981,215.657 194.539 C 214.584 195.113,214.204 194.491,214.197 192.148 C 214.190 189.982,214.275 189.957,215.502 191.762 M161.272 193.417 C 163.324 194.733,163.533 195.491,162.194 196.749 C 160.317 198.512,157.970 196.167,158.700 193.259 C 159.018 191.989,159.050 191.991,161.272 193.417 M181.062 193.351 C 181.342 193.804,180.630 194.253,180.126 193.941 C 179.703 193.680,179.981 192.999,180.511 192.999 C 180.694 192.999,180.943 193.158,181.062 193.351 M236.426 195.080 C 236.597 196.414,235.944 196.994,234.747 196.573 C 233.583 196.163,233.125 194.983,233.927 194.460 C 234.816 193.880,236.320 194.254,236.426 195.080 M177.888 197.979 C 181.323 199.909,181.367 203.056,178.030 208.136 C 174.140 214.058,170.566 214.148,166.751 208.421 C 163.621 203.722,163.551 199.786,166.571 198.219 C 169.512 196.693,175.378 196.568,177.888 197.979 M227.559 197.368 C 232.429 197.884,233.512 201.143,230.635 206.623 C 226.171 215.124,222.057 214.876,217.222 205.813 C 214.905 201.469,216.358 197.856,220.711 197.137 C 222.301 196.875,223.175 196.904,227.559 197.368 M213.250 199.070 C 214.023 201.506,212.666 204.233,211.133 203.327 C 209.309 202.250,209.495 200.825,211.703 198.979 C 212.725 198.124,212.954 198.138,213.250 199.070 M188.250 201.377 C 189.040 201.999,189.161 202.261,188.774 202.507 C 187.365 203.400,185.073 202.423,185.565 201.140 C 185.877 200.328,187.047 200.431,188.250 201.377 M195.128 204.321 C 197.111 205.221,197.437 205.758,196.544 206.651 C 194.856 208.340,192.560 207.833,192.013 205.651 C 191.486 203.552,192.491 203.123,195.128 204.321 M204.874 205.621 C 204.809 207.657,204.284 208.046,202.653 207.268 C 200.960 206.461,200.922 205.448,202.554 204.629 C 204.392 203.708,204.928 203.936,204.874 205.621 M211.880 209.107 C 216.535 213.023,218.418 220.246,214.784 220.246 C 212.920 220.246,210.224 216.106,208.909 211.224 C 208.127 208.320,209.653 207.232,211.880 209.107 M186.931 210.202 C 187.796 211.244,186.045 216.546,184.240 218.351 C 182.190 220.401,179.754 219.785,179.754 217.217 C 179.754 213.770,185.352 208.299,186.931 210.202 M201.528 211.606 C 206.788 216.224,207.510 224.311,202.787 225.713 C 196.383 227.615,190.539 225.518,190.539 221.318 C 190.539 214.141,197.455 208.029,201.528 211.606 M223.282 217.606 C 224.123 218.447,223.947 219.140,222.580 220.378 C 220.949 221.853,219.688 220.250,220.597 217.859 C 221.065 216.626,222.196 216.520,223.282 217.606 M212.080 223.525 C 213.777 224.334,214.094 225.158,213.037 226.014 C 210.852 227.783,208.376 226.032,209.663 223.627 C 210.141 222.734,210.399 222.723,212.080 223.525 M258.467 223.878 C 258.467 224.165,259.319 225.341,260.360 226.490 C 263.044 229.455,262.978 230.290,259.811 233.380 C 255.992 237.107,253.950 236.375,255.032 231.667 C 255.304 230.485,255.651 228.486,255.805 227.225 C 256.187 224.085,258.467 221.218,258.467 223.878 M185.988 224.263 C 186.794 225.069,186.544 225.706,185.369 225.847 C 183.987 226.013,183.129 224.887,184.098 224.179 C 185.017 223.507,185.241 223.517,185.988 224.263 M264.866 240.307 C 263.910 240.469,261.952 241.105,260.514 241.720 C 259.076 242.335,257.371 243.044,256.725 243.296 C 256.079 243.548,255.057 244.426,254.455 245.247 C 253.125 247.058,249.007 249.711,244.549 251.629 C 239.856 253.649,234.991 256.401,233.775 257.725 C 230.264 261.547,235.737 263.295,244.087 261.017 C 249.070 259.658,252.200 259.216,257.789 259.081 C 260.985 259.003,262.794 258.802,263.182 258.480 C 264.572 257.327,263.538 256.785,258.861 256.218 C 252.058 255.393,249.653 253.279,252.837 250.924 C 255.186 249.188,263.924 244.787,266.163 244.214 C 277.055 241.424,281.850 251.893,272.255 257.516 C 268.458 259.741,271.290 261.769,275.910 260.132 C 279.743 258.774,282.769 254.451,282.079 251.321 C 279.842 241.176,275.637 238.485,264.866 240.307 " stroke="none" fill="#9dbcdd" fill-rule="evenodd"></path><path id="path4" d="M187.701 14.195 C 184.267 14.455,178.562 15.121,175.024 15.675 C 171.485 16.228,166.973 16.934,164.995 17.242 C 163.018 17.551,160.293 18.153,158.940 18.580 C 157.588 19.006,154.144 19.938,151.288 20.650 C 148.432 21.361,144.686 22.520,142.963 23.224 C 141.239 23.929,138.893 24.801,137.748 25.163 C 126.644 28.674,106.889 39.413,93.283 49.335 C 68.712 67.254,43.975 100.678,34.195 129.176 C 33.277 131.851,32.274 134.526,31.965 135.122 C 31.657 135.718,30.891 138.384,30.263 141.045 C 29.635 143.707,28.708 147.162,28.202 148.723 C 27.220 151.753,26.794 153.976,26.098 159.697 C 25.857 161.675,25.325 164.910,24.916 166.887 C 22.762 177.285,22.523 199.191,24.447 209.839 C 24.748 211.504,25.493 216.228,26.102 220.337 C 26.753 224.731,27.669 229.250,28.327 231.311 C 28.941 233.239,29.807 236.499,30.251 238.557 C 30.694 240.615,31.628 243.681,32.327 245.369 C 33.025 247.058,33.856 249.315,34.174 250.386 C 35.964 256.423,42.946 270.819,48.649 280.232 C 62.149 302.515,77.694 319.127,99.527 334.606 C 109.611 341.755,129.421 351.957,139.827 355.360 C 141.282 355.836,143.402 356.636,144.538 357.138 C 145.673 357.640,148.399 358.457,150.595 358.953 C 152.792 359.449,156.256 360.369,158.294 360.997 C 160.332 361.625,164.589 362.494,167.755 362.929 C 170.920 363.364,175.358 364.048,177.618 364.448 C 189.849 366.613,209.866 366.589,221.263 364.395 C 223.384 363.986,227.641 363.328,230.724 362.930 C 234.195 362.483,237.986 361.707,240.681 360.892 C 243.075 360.167,246.395 359.282,248.061 358.923 C 249.726 358.565,252.365 357.767,253.926 357.150 C 255.487 356.533,258.553 355.379,260.738 354.587 C 293.302 342.776,325.166 317.839,344.633 288.931 C 347.301 284.969,355.724 270.589,355.724 269.996 C 355.724 269.878,356.423 268.385,357.278 266.679 C 359.635 261.974,362.671 254.873,363.863 251.277 C 364.449 249.508,365.392 246.937,365.958 245.563 C 366.524 244.189,367.360 241.464,367.817 239.508 C 368.273 237.552,369.220 233.967,369.922 231.543 C 370.623 229.119,371.468 225.287,371.800 223.028 C 372.132 220.770,372.816 216.282,373.320 213.056 C 375.514 199.012,375.661 181.604,373.693 168.969 C 373.401 167.096,372.722 162.617,372.185 159.016 C 371.648 155.416,370.621 150.449,369.903 147.979 C 369.185 145.509,368.262 142.047,367.852 140.286 C 367.441 138.525,366.656 135.914,366.106 134.484 C 365.557 133.053,364.458 130.009,363.663 127.720 C 352.416 95.312,324.754 60.798,295.364 42.504 C 293.699 41.468,290.634 39.561,288.553 38.268 C 278.716 32.154,259.760 24.053,247.682 20.803 C 244.768 20.018,240.766 18.934,238.789 18.393 C 236.812 17.852,233.236 17.144,230.842 16.819 C 228.448 16.495,224.532 15.894,222.138 15.485 C 212.421 13.823,199.163 13.326,187.701 14.195 M210.974 16.506 C 214.305 16.810,219.073 17.380,221.570 17.773 C 224.068 18.167,227.304 18.598,228.761 18.733 C 232.960 19.120,235.698 19.663,239.371 20.838 C 241.252 21.440,244.416 22.267,246.401 22.676 C 248.387 23.084,251.361 23.959,253.010 24.620 C 254.658 25.280,257.455 26.294,259.224 26.871 C 266.736 29.324,279.372 35.105,286.423 39.315 C 287.333 39.858,289.376 41.075,290.964 42.019 C 295.344 44.623,306.775 52.656,309.934 55.348 C 321.731 65.405,337.697 83.298,344.795 94.418 C 347.797 99.120,353.566 109.271,354.474 111.447 C 354.821 112.280,355.816 114.324,356.684 115.989 C 357.552 117.654,358.566 119.953,358.937 121.097 C 359.309 122.242,359.996 123.945,360.463 124.882 C 360.931 125.818,361.692 127.862,362.153 129.423 C 362.615 130.984,363.586 133.787,364.312 135.652 C 365.037 137.516,365.959 140.769,366.359 142.879 C 366.759 144.990,367.597 148.227,368.221 150.074 C 368.845 151.920,369.538 154.969,369.761 156.848 C 369.985 158.727,370.505 162.649,370.918 165.563 C 373.585 184.387,373.703 195.827,371.382 210.407 C 371.067 212.384,370.484 216.758,370.085 220.126 C 369.574 224.448,369.014 227.288,368.185 229.776 C 367.539 231.715,366.670 235.087,366.254 237.268 C 365.839 239.450,365.063 242.260,364.530 243.513 C 363.997 244.765,363.007 247.493,362.329 249.574 C 357.234 265.217,344.492 287.647,332.878 301.419 C 313.922 323.897,286.448 343.047,259.035 352.889 C 256.537 353.785,253.642 354.888,252.602 355.338 C 251.561 355.789,248.581 356.663,245.979 357.280 C 243.377 357.897,239.662 358.909,237.722 359.530 C 235.427 360.263,232.388 360.855,229.018 361.223 C 226.171 361.534,222.382 362.036,220.599 362.339 C 206.022 364.816,194.985 364.913,180.700 362.692 C 178.827 362.400,174.314 361.817,170.672 361.396 C 165.567 360.806,163.139 360.329,160.075 359.313 C 157.889 358.588,154.396 357.670,152.313 357.273 C 150.229 356.876,147.505 356.092,146.258 355.530 C 145.012 354.969,142.630 354.039,140.965 353.463 C 128.890 349.287,109.639 339.335,99.418 331.986 C 97.709 330.757,94.863 328.744,93.094 327.513 C 80.950 319.062,68.332 305.556,56.167 287.985 C 48.610 277.071,39.801 260.158,35.767 248.817 C 34.878 246.320,33.782 243.467,33.330 242.478 C 32.878 241.489,32.177 238.935,31.772 236.802 C 31.367 234.669,30.437 231.188,29.706 229.068 C 28.665 226.049,28.251 223.995,27.796 219.607 C 27.477 216.524,26.889 212.044,26.490 209.650 C 24.070 195.138,24.116 183.801,26.657 168.837 C 26.963 167.036,27.467 163.079,27.778 160.043 C 28.218 155.755,28.636 153.673,29.654 150.715 C 30.375 148.621,31.314 145.191,31.742 143.094 C 32.170 140.996,33.098 137.871,33.805 136.149 C 34.512 134.427,35.391 132.081,35.759 130.937 C 43.875 105.676,72.904 65.250,92.145 52.412 C 94.017 51.164,96.841 49.184,98.422 48.013 C 107.907 40.988,127.205 31.038,139.451 26.859 C 141.741 26.078,144.558 25.012,145.711 24.490 C 146.864 23.969,149.631 23.173,151.858 22.722 C 154.086 22.271,157.400 21.398,159.222 20.781 C 161.252 20.094,164.368 19.438,167.266 19.087 C 169.868 18.772,174.210 18.180,176.916 17.771 C 181.174 17.128,190.027 16.209,196.216 15.767 C 198.720 15.588,203.575 15.831,210.974 16.506 M189.593 117.570 C 159.058 120.700,132.887 144.970,127.057 175.565 C 125.844 181.931,125.846 196.423,127.062 202.855 C 132.691 232.640,159.709 258.151,189.193 261.519 C 200.019 262.755,210.005 261.731,220.568 258.300 C 228.169 255.831,228.043 255.810,228.257 259.602 C 228.591 265.506,233.116 267.073,244.087 265.083 C 249.738 264.058,266.040 263.830,268.747 264.739 C 278.411 267.984,288.792 256.483,284.998 246.736 C 282.585 240.536,278.901 237.421,272.714 236.349 C 271.079 236.066,269.552 235.644,269.319 235.412 C 267.750 233.843,277.309 226.912,292.337 218.722 C 295.459 217.020,298.865 215.057,299.905 214.359 C 300.946 213.661,303.018 212.756,304.509 212.349 C 314.825 209.531,320.777 199.105,318.050 188.632 C 316.252 181.725,309.171 175.568,300.985 173.791 C 292.467 171.943,282.549 177.707,274.965 188.912 C 271.470 194.077,270.979 193.784,270.536 186.269 C 270.191 180.423,270.077 179.742,267.977 171.050 C 259.448 135.750,227.159 113.719,189.593 117.570 M204.541 119.227 C 241.337 121.985,267.386 151.278,268.628 191.296 C 268.956 201.880,269.633 201.976,275.289 192.242 C 283.781 177.628,295.783 172.365,307.013 178.331 C 321.325 185.936,318.347 208.578,302.904 209.569 C 300.097 209.749,300.093 209.751,298.108 211.754 C 296.811 213.062,294.347 214.770,291.012 216.671 C 273.983 226.379,261.189 236.339,263.184 238.334 C 263.330 238.480,265.973 238.622,269.058 238.650 C 278.172 238.731,281.691 241.510,283.458 250.023 C 285.043 257.657,275.374 265.382,268.874 261.675 C 267.055 260.637,252.860 260.888,246.736 262.066 C 234.940 264.334,231.199 263.860,230.916 260.062 C 230.727 257.521,232.320 256.147,240.009 252.223 C 252.077 246.064,253.561 244.622,250.491 242.039 C 248.160 240.077,246.902 240.511,240.175 245.601 C 219.686 261.102,191.693 263.998,168.590 253.005 C 132.889 236.019,117.997 192.768,135.747 157.616 C 146.890 135.547,168.816 120.642,192.242 119.211 C 198.902 118.804,198.897 118.804,204.541 119.227 M192.242 127.164 C 155.613 131.628,131.586 163.857,137.754 200.253 C 143.338 233.207,172.753 254.855,206.600 250.920 C 241.614 246.849,267.328 209.598,258.670 175.488 C 255.424 162.702,250.271 153.977,239.452 142.948 C 228.628 131.913,208.499 125.183,192.242 127.164 M203.406 129.445 C 221.637 131.021,233.347 137.941,246.823 155.104 C 255.834 166.581,260.319 187.872,256.600 201.514 C 250.302 224.610,236.519 240.181,216.574 246.732 C 181.413 258.281,143.867 234.248,139.429 197.351 C 134.743 158.397,165.137 126.137,203.406 129.445 M193.311 143.418 C 171.350 145.545,155.856 161.146,153.280 183.728 C 150.567 207.511,165.759 229.430,188.201 234.109 C 192.077 234.918,205.073 234.896,208.992 234.074 C 234.232 228.784,250.360 200.410,242.219 175.618 C 234.977 153.563,216.201 141.202,193.311 143.418 M209.264 146.422 C 231.423 151.167,247.137 178.375,240.466 200.451 C 234.649 219.706,219.864 232.001,201.351 232.979 C 160.539 235.137,139.245 186.636,167.959 156.923 C 170.982 153.795,180.342 148.560,185.676 147.014 C 192.170 145.132,202.078 144.883,209.264 146.422 M194.259 154.194 C 189.947 156.070,193.831 166.351,198.799 166.210 C 201.730 166.127,205.798 158.167,204.176 155.690 C 202.907 153.754,197.238 152.898,194.259 154.194 M200.862 156.502 C 202.880 157.916,200.865 163.103,198.297 163.103 C 196.594 163.103,194.891 160.643,194.891 158.180 C 194.891 156.731,196.120 155.913,198.297 155.913 C 199.245 155.913,200.399 156.178,200.862 156.502 M213.288 161.164 C 212.320 162.234,211.969 164.824,212.838 164.491 C 213.200 164.352,213.563 164.238,213.645 164.238 C 213.726 164.238,214.053 163.736,214.371 163.122 C 215.508 160.922,214.749 159.549,213.288 161.164 M221.406 168.700 C 214.802 175.629,215.905 180.798,223.805 179.944 C 230.729 179.194,231.896 177.420,229.118 171.868 C 226.549 166.733,224.201 165.769,221.406 168.700 M170.269 168.122 C 166.219 170.852,164.610 177.010,167.505 178.701 C 173.896 182.434,181.002 178.784,178.195 173.211 C 175.715 168.287,172.801 166.416,170.269 168.122 M226.017 170.956 C 229.273 174.369,228.303 177.246,223.734 177.724 C 218.844 178.235,218.149 175.684,222.014 171.406 C 223.614 169.635,224.646 169.519,226.017 170.956 M173.357 170.691 C 175.914 172.060,177.173 176.169,175.392 177.336 C 173.763 178.403,169.431 177.425,168.940 175.879 C 168.041 173.046,171.082 169.474,173.357 170.691 M293.094 183.867 C 288.929 185.766,284.269 191.009,279.766 198.866 C 267.265 220.675,267.205 222.691,279.281 215.137 C 288.675 209.259,291.391 208.039,295.640 207.788 C 299.275 207.572,299.429 207.527,300.218 206.431 C 300.667 205.808,302.263 203.980,303.764 202.368 C 308.342 197.453,309.324 194.999,308.225 191.219 C 306.443 185.090,298.682 181.319,293.094 183.867 M301.041 185.830 C 303.798 187.496,306.124 191.099,306.141 193.731 C 306.167 197.817,300.239 203.741,294.898 204.966 C 290.937 205.874,289.275 206.557,284.579 209.208 C 282.185 210.559,279.376 212.144,278.335 212.731 C 273.322 215.560,274.057 212.740,281.692 199.840 C 288.928 187.615,295.781 182.653,301.041 185.830 M197.000 187.917 C 195.458 189.459,197.253 191.999,199.360 191.258 C 200.771 190.762,201.308 189.107,200.389 188.091 C 199.561 187.176,197.830 187.087,197.000 187.917 M227.861 188.421 C 227.080 188.916,227.710 189.593,228.950 189.593 C 229.550 189.593,230.157 189.404,230.301 189.172 C 230.590 188.704,229.825 188.091,228.950 188.091 C 228.638 188.091,228.148 188.240,227.861 188.421 M166.131 188.814 C 166.131 189.409,166.879 189.677,167.855 189.432 C 169.231 189.087,168.973 188.458,167.455 188.458 C 166.727 188.458,166.131 188.618,166.131 188.814 M170.245 198.660 C 165.918 199.445,164.932 201.704,167.036 206.006 C 170.201 212.475,174.497 212.190,177.896 205.286 C 180.377 200.247,177.105 197.415,170.245 198.660 M220.057 198.853 C 219.224 199.165,218.520 199.424,218.492 199.427 C 217.839 199.499,217.241 202.329,217.628 203.515 C 218.781 207.049,222.270 211.164,224.114 211.164 C 227.388 211.164,231.711 203.227,230.088 200.195 C 229.290 198.704,222.775 197.833,220.057 198.853 M175.238 201.338 C 176.856 202.204,175.586 206.042,173.247 207.355 C 171.241 208.481,168.082 204.860,169.107 202.609 C 169.794 201.102,173.400 200.354,175.238 201.338 M226.679 201.434 C 228.928 202.568,226.914 208.136,224.255 208.136 C 222.769 208.136,220.246 204.950,220.246 203.074 C 220.246 201.185,224.191 200.180,226.679 201.434 M196.366 212.772 C 193.398 214.738,191.266 221.326,192.997 223.184 C 196.237 226.662,205.153 224.577,204.605 220.470 C 203.832 214.671,199.546 210.667,196.366 212.772 M212.677 214.973 C 212.677 216.074,213.359 217.219,214.015 217.219 C 214.741 217.219,214.723 216.092,213.980 215.032 C 213.242 213.978,212.677 213.952,212.677 214.973 M199.456 215.339 C 201.189 216.266,202.325 220.394,201.123 221.392 C 200.156 222.194,196.939 222.327,195.843 221.609 C 193.185 219.868,196.657 213.841,199.456 215.339 M267.423 245.250 C 265.336 245.757,258.092 249.543,256.382 251.021 C 253.925 253.145,254.906 253.989,260.638 254.684 C 262.462 254.905,264.786 255.357,265.802 255.688 C 269.101 256.764,273.859 255.538,275.177 253.272 C 278.055 248.327,273.626 243.745,267.423 245.250 M272.819 248.094 C 274.728 249.700,274.321 252.335,272.042 253.130 C 269.787 253.916,262.141 253.210,261.046 252.115 C 258.691 249.760,270.148 245.847,272.819 248.094 " stroke="none" fill="#6094cc" fill-rule="evenodd"></path></g></svg>