<svg xmlns="http://www.w3.org/2000/svg" width="46" height="46" viewBox="0 0 46 46">
    <defs>
        <filter id="7zr0k27e7a">
            <feColorMatrix in="SourceGraphic" values="0 0 0 0 1.000000 0 0 0 0 1.000000 0 0 0 0 1.000000 0 0 0 1.000000 0"/>
        </filter>
    </defs>
    <g fill="none" fill-rule="evenodd">
        <g>
            <g>
                <g fill="#3375BD" transform="translate(-796.000000, -715.000000) translate(796.000000, 715.000000)">
                    <circle cx="23" cy="23" r="23"/>
                </g>
                <g filter="url(#7zr0k27e7a)" transform="translate(-796.000000, -715.000000) translate(796.000000, 715.000000)">
                    <g>
                        <path fill="#000" fill-rule="nonzero" d="M22.58 18.288l-2.673-1.525 2.316-1.349c.427-.249.57-.793.317-1.215-.252-.422-.802-.562-1.23-.314l-3.19 1.86L13.31 13l4.81-2.744 3.19 1.859c.144.083.3.123.456.123.307 0 .607-.157.774-.437.252-.422.11-.966-.317-1.215l-2.317-1.35 2.673-1.524c.43-.245.577-.788.329-1.212-.248-.425-.797-.57-1.227-.325L19.01 7.7l-.024-2.657c-.005-.49-.412-.886-.906-.88-.496.005-.895.406-.89.896l.033 3.66-4.81 2.744V5.975l3.225-1.8c.432-.242.584-.783.34-1.21-.244-.426-.792-.577-1.223-.336l-2.342 1.308V.887c0-.49-.402-.887-.898-.887s-.898.397-.898.887v3.05L8.276 2.63c-.433-.242-.98-.091-1.224.335-.244.427-.092.968.34 1.21l3.224 1.8v5.488L5.806 8.72l.034-3.66c.004-.49-.394-.891-.89-.895h-.008c-.492 0-.894.391-.898.879L4.02 7.7 1.347 6.175C.917 5.93.37 6.075.121 6.5c-.248.424-.101.967.328 1.212l2.673 1.525-2.317 1.349c-.427.249-.569.793-.317 1.215.167.28.467.437.774.437.155 0 .312-.04.455-.123l3.192-1.859L9.72 13l-4.81 2.744-3.192-1.859c-.427-.248-.977-.108-1.23.314-.251.422-.109.966.318 1.215l2.317 1.35-2.673 1.524c-.43.245-.576.788-.329 1.212.167.285.469.444.779.444.152 0 .307-.039.448-.12L4.02 18.3l.024 2.657c.004.487.405.88.898.88h.008c.496-.005.894-.406.89-.896l-.034-3.66 4.81-2.744v5.488l-3.225 1.8c-.431.242-.583.783-.34 1.21.166.288.47.45.783.45.15 0 .302-.037.441-.115l2.341-1.307v3.05c0 .49.402.887.898.887s.898-.397.898-.887v-3.05l2.342 1.307c.14.078.29.115.44.115.314 0 .618-.162.783-.45.244-.427.092-.968-.34-1.21l-3.225-1.8v-5.488l4.81 2.744-.034 3.66c-.005.49.394.891.89.895h.008c.492 0 .893-.391.898-.879l.025-2.657 2.673 1.525c.141.08.295.119.448.119.31 0 .612-.16.778-.444.248-.424.1-.967-.329-1.212z" transform="translate(11.000000, 10.000000)"/>
                    </g>
                </g>
            </g>
        </g>
    </g>
</svg>
