<svg xmlns="http://www.w3.org/2000/svg" width="46" height="46" viewBox="0 0 46 46">
    <defs>
        <filter id="4dlbuebtaa">
            <feColorMatrix in="SourceGraphic" values="0 0 0 0 1.000000 0 0 0 0 1.000000 0 0 0 0 1.000000 0 0 0 1.000000 0"/>
        </filter>
    </defs>
    <g fill="none" fill-rule="evenodd">
        <g>
            <g transform="translate(-862.000000, -715.000000) translate(862.000000, 715.000000)">
                <circle cx="23" cy="23" r="23" fill="#3375BD"/>
                <g filter="url(#4dlbuebtaa)">
                    <g fill="#000" fill-rule="nonzero">
                        <path d="M3.224 12.668l.253-1.154 10.879 2.384-.253 1.154c-.117.535.223 1.064.756 1.181l1.265.277c.07.016.14.023.21.023.464 0 .871-.327.97-.779l1.012-4.622c.145-.662.168-1.743.05-2.41l-.071-.41.116.025c.07.016.141.023.212.023.462 0 .87-.327.969-.779l.119-.542c.056-.26.006-.506-.143-.691-.157-.195-.4-.297-.684-.282l-.975.051-.445-2.536c-.126-.718-.808-1.43-1.52-1.586L7.009.037C6.897.012 6.777 0 6.654 0c-.652 0-1.346.346-1.69.842L3.504 2.956l-.853-.449c-.134-.07-.271-.106-.41-.106-.368 0-.662.253-.748.645l-.119.542c-.116.534.223 1.064.756 1.18l.104.023-.236.342c-.385.557-.817 1.55-.962 2.211L.023 11.966c-.117.534.222 1.064.756 1.181l1.265.277c.07.016.14.023.21.023.464 0 .871-.328.97-.779zm13.246-2.023l-.289 1.317c-.046.213-.259.35-.472.303l-2.743-.602c-.213-.046-.349-.259-.302-.472l.288-1.317c.047-.213.26-.35.472-.303l2.743.602c.213.046.35.259.303.472zM3.87 4.599l2.215-3.203c.248-.359.8-.576 1.226-.482l7.992 1.751c.426.094.836.522.912.951l.673 3.836c.076.43-.211.705-.637.612L4.194 5.42c-.426-.093-.572-.463-.323-.822zM2.603 8.986l.288-1.317c.047-.213.26-.35.472-.303l2.744.601c.213.047.349.26.302.473L6.12 9.757c-.047.213-.26.349-.472.302l-2.744-.601c-.213-.047-.35-.26-.302-.472z" transform="translate(11.000000, 11.000000)"/>
                        <path d="M19.519 16.145c-1.352 0-2.09.59-2.63 1.022-.448.357-.698.556-1.283.556h-.024c-.602-.005-.848-.21-1.294-.58-.537-.447-1.272-1.058-2.65-1.07h-.044c-1.351 0-2.09.59-2.63 1.021-.448.358-.697.557-1.282.557h-.024c-.602-.006-.848-.21-1.294-.58-.537-.447-1.272-1.058-2.65-1.07L3.702 16c-.568 0-1.03.427-1.036.96-.006.534.453.972 1.026.977.602.006.848.21 1.294.58.537.447 1.272 1.058 2.65 1.07l.044.001c1.351 0 2.09-.59 2.63-1.021.447-.358.697-.557 1.282-.557h.024c.602.005.848.21 1.294.58.537.447 1.272 1.058 2.65 1.07h.044c1.351 0 2.09-.589 2.63-1.02.448-.358.697-.558 1.282-.558h.024c.603.006.848.21 1.295.581.536.446 1.272 1.058 2.65 1.07h.011c.568 0 1.03-.427 1.036-.959.006-.535-.453-.973-1.026-.978-.602-.006-.848-.21-1.294-.58-.537-.447-1.272-1.058-2.651-1.07h-.043zM23.507 22.063c-.602-.006-.848-.21-1.294-.58-.537-.447-1.272-1.058-2.651-1.07l-.043-.001c-1.352 0-2.09.59-2.63 1.021-.448.358-.698.557-1.283.557h-.024c-.602-.005-.848-.21-1.294-.58-.537-.447-1.272-1.058-2.65-1.07h-.044c-1.351 0-2.09.589-2.63 1.02-.448.358-.697.558-1.282.558h-.024c-.602-.006-.848-.21-1.294-.581-.537-.446-1.272-1.058-2.65-1.07h-.011c-.568 0-1.03.427-1.036.959-.006.535.453.973 1.026.978.602.005.848.21 1.294.58.537.447 1.272 1.058 2.65 1.07h.044c1.351 0 2.09-.589 2.63-1.02.447-.358.697-.558 1.282-.558h.024c.602.006.848.21 1.294.581.537.446 1.272 1.058 2.65 1.07h.044c1.351 0 2.09-.59 2.63-1.02.448-.359.697-.558 1.282-.558h.024c.603.006.848.21 1.295.58.536.447 1.272 1.058 2.65 1.07l.011.001c.568 0 1.03-.427 1.036-.96.006-.534-.453-.972-1.026-.977z" transform="translate(11.000000, 11.000000)"/>
                    </g>
                </g>
            </g>
        </g>
    </g>
</svg>
