<svg xmlns="http://www.w3.org/2000/svg" width="46" height="46" viewBox="0 0 46 46">
    <defs>
        <filter id="4i2s5pwq9a">
            <feColorMatrix in="SourceGraphic" values="0 0 0 0 1.000000 0 0 0 0 1.000000 0 0 0 0 1.000000 0 0 0 1.000000 0"/>
        </filter>
    </defs>
    <g fill="none" fill-rule="evenodd">
        <g>
            <g>
                <g fill="#3375BD" transform="translate(-796.000000, -704.000000) translate(796.000000, 704.000000)">
                    <circle cx="23" cy="23" r="23"/>
                </g>
                <g filter="url(#4i2s5pwq9a)" transform="translate(-796.000000, -704.000000) translate(796.000000, 704.000000)">
                    <g fill="#000" fill-rule="nonzero" transform="translate(12.000000, 11.000000)">
                        <path d="M15.725 7.52c-.867-.755-1.9-1.258-2.963-1.51.195 1.846-.7 3.467-2.097 3.69-1.398.224-2.74-1.062-3.13-2.879-.476.28-.923.615-1.315 1.035-.391.39-.755.838-1.034 1.313 1.817.392 3.075 1.734 2.88 3.132-.224 1.397-1.846 2.292-3.69 2.096.25 1.063.754 2.069 1.509 2.963.922-1.62 2.6-2.404 3.858-1.76 1.258.642 1.621 2.46.838 4.165 1.118.084 2.237-.084 3.271-.531-1.258-1.37-1.482-3.215-.475-4.222 1.006-1.006 2.851-.755 4.221.475.447-1.034.615-2.18.531-3.27-1.705.754-3.522.391-4.165-.839-.643-1.258.14-2.935 1.761-3.858zm-2.991 6.877c-.867.867-2.293.867-3.16 0-.866-.866-.866-2.292 0-3.159.867-.866 2.293-.866 3.16 0 .866.867.866 2.265 0 3.16z"/>
                        <circle cx="11.14" cy="12.804" r="1.37"/>
                        <g>
                            <path d="M18.8 13.978c-.223 1.398-.95 3.103-2.18 4.333-3.02 3.02-7.912 2.991-10.931 0-3.02-3.02-2.991-7.911.028-10.93 1.23-1.23 2.712-1.958 4.389-2.181V1.677c-2.516.252-4.92 1.314-6.821 3.215-4.361 4.361-4.39 11.462-.028 15.823 4.361 4.361 11.434 4.39 15.795.028 1.929-1.9 2.991-4.25 3.215-6.765H18.8z"/>
                            <path d="M20.058 3.83C17.458 1.23 14.02 0 10.665 0v4.082c2.516 0 4.697.838 6.486 2.627 1.789 1.79 2.712 4.194 2.712 6.43h4.081c0-3.355-1.314-6.71-3.886-9.31zm-8.051-1.342c-.308 0-.531-.252-.531-.531 0-.28.251-.531.531-.531s.531.251.531.53c0 .28-.251.532-.531.532zm9.784 9.505c-.307 0-.53-.252-.53-.531 0-.28.25-.531.53-.531s.532.251.532.53c0 .28-.252.532-.532.532z"/>
                        </g>
                    </g>
                </g>
            </g>
        </g>
    </g>
</svg>
