<svg xmlns="http://www.w3.org/2000/svg" width="46" height="46" viewBox="0 0 46 46">
    <defs>
        <filter id="vamlp7jsla">
            <feColorMatrix in="SourceGraphic" values="0 0 0 0 1.000000 0 0 0 0 1.000000 0 0 0 0 1.000000 0 0 0 1.000000 0"/>
        </filter>
    </defs>
    <g fill="none" fill-rule="evenodd">
        <g>
            <g>
                <g fill="#3375BD" transform="translate(-862.000000, -704.000000) translate(862.000000, 704.000000)">
                    <circle cx="23" cy="23" r="23"/>
                </g>
                <g filter="url(#vamlp7jsla)" transform="translate(-862.000000, -704.000000) translate(862.000000, 704.000000)">
                    <g fill="#000" fill-rule="nonzero">
                        <path d="M8.068 11.348c0-.374-.307-.646-.647-.646H4.085c-.375 0-.647.306-.647.646 0 .375.306.647.647.647H7.42c.374 0 .647-.272.647-.647zM5.719 13.153h-3.37c-.375 0-.647.306-.647.646 0 .375.306.647.647.647h3.336c.374 0 .646-.306.646-.647.035-.34-.238-.646-.612-.646zM4.017 15.637H.647c-.375 0-.647.307-.647.647 0 .375.306.647.647.647h3.37c.374 0 .647-.306.647-.647 0-.34-.273-.647-.647-.647zM19.13 8.932l1.532-2.009.613 1.464c.136.374.51.613.92.613h2.212c.544 0 .987-.443.987-.988 0-.544-.443-.987-.987-.987H22.84l-.613-1.532c-.17-.442-.578-.85-.919-1.089-.34-.238-.647-.476-.647-.476-.783-.545-1.872-.375-2.45.408L16.407 6.72l-.749.953c-.544.68-.408 1.668.239 2.213l3.166 2.689-.375 3.778c-.068.545.272 1.09.783 1.26.68.204 1.328-.273 1.43-.92l.646-4.867c.034-.272-.068-.545-.238-.749l-2.178-2.144z" transform="translate(7.000000, 13.000000)"/>
                        <path d="M18.075 13.05l-2.825-2.382c-.477-.409-.783-.954-.851-1.532-1.634-.647-4.017-.851-5.072-.885-.238 0-.408.238-.272.476l.919 1.498c.102.17.272.306.476.375l.885.34 1.362.476c1.26.34 2.315 1.192 2.927 2.315l-.85.307c-.818-1.294-2.35-2.11-4.051-1.839-1.566.273-2.86 1.498-3.166 3.064-.477 2.485 1.43 4.698 3.846 4.698 2.145 0 3.915-1.77 3.915-3.915 0-.204-.034-.409-.034-.613l.851-.306c.068.306.102.613.102.919 0 .34-.034.68-.102.987h1.702c-.068-.238-.068-.476-.034-.715l.272-3.268zm-6.672 5.447c-1.327 0-2.416-1.09-2.416-2.417 0-1.328 1.089-2.417 2.416-2.417.783 0 1.464.375 1.907.953l-2.179.783c-.374.136-.579.545-.442.953.102.307.374.477.68.477.069 0 .17 0 .239-.034l2.178-.783v.102c.034 1.294-1.055 2.383-2.383 2.383zM28.424 12.165c-.239 0-.443.034-.681.068l-.34-.85c.306-.069.646-.103.987-.103.612 0 1.19.102 1.702.307.136.034.272.034.34-.068 1.191-1.09.783-2.86-4.119-5.48-.34-.171-.783-.103-1.021.203-.034.034-.068.102-.102.137.68.34 1.123 1.123 1.02 1.94-.135.953-.986 1.6-1.94 1.6h-2.144c-.136 0-.545.136-.613.204l.34.374c.41.409.58.954.511 1.498l-.612 4.868c0 .068-.034.136-.034.204h1.974c-.068-.306-.102-.647-.102-.987 0-1.77.987-3.336 2.417-4.187l.374.851c-1.293.817-2.076 2.349-1.804 4.05.272 1.567 1.532 2.826 3.064 3.133 2.485.476 4.697-1.43 4.697-3.847 0-2.179-1.77-3.915-3.914-3.915zm0 6.332c-1.328 0-2.417-1.09-2.417-2.417 0-.783.374-1.43.919-1.906l.817 2.144c.102.307.408.477.68.477.103 0 .17 0 .273-.034.374-.136.579-.579.442-.953l-.817-2.145h.137c1.327 0 2.416 1.09 2.416 2.417 0 1.328-1.089 2.417-2.45 2.417zM23.011 2.294c-.102.034-.17.136-.204.238-.034.102-.034.204.034.306.136.273.34.443.545.613l.578.375c.102-.239.239-.511.307-.783-.375-.239-.647-.477-.817-.647-.102-.136-.273-.17-.443-.102z" transform="translate(7.000000, 13.000000)"/>
                        <path d="M21.275 3.723l1.396.885c.374.239.817.103 1.055-.272.034-.034.034-.068.068-.136l-.613-.409c-.272-.17-.544-.442-.68-.748-.137-.239-.137-.477-.069-.681.069-.204.239-.409.443-.51.306-.137.68-.103.92.135.135.137.34.307.612.477.068-1.123-.409-1.872-1.43-2.315-.442-.204-.953-.204-1.396.034-1.6.851-1.531 2.757-.306 3.54z" transform="translate(7.000000, 13.000000)"/>
                    </g>
                </g>
            </g>
        </g>
    </g>
</svg>
