<svg xmlns="http://www.w3.org/2000/svg" width="46" height="46" viewBox="0 0 46 46">
    <defs>
        <filter id="4atqitr36a">
            <feColorMatrix in="SourceGraphic" values="0 0 0 0 1.000000 0 0 0 0 1.000000 0 0 0 0 1.000000 0 0 0 1.000000 0"/>
        </filter>
    </defs>
    <g fill="none" fill-rule="evenodd">
        <g>
            <g transform="translate(-928.000000, -704.000000) translate(928.000000, 704.000000)">
                <circle cx="23" cy="23" r="23" fill="#3375BD"/>
                <g filter="url(#4atqitr36a)">
                    <g fill="#000" fill-rule="nonzero">
                        <path d="M17.203 11.33c-.809 0-1.467.658-1.467 1.467s.658 1.467 1.467 1.467c.81 0 1.468-.658 1.468-1.467 0-.81-.659-1.468-1.468-1.468zM18.175 6.881v2.646c.754.225 1.399.703 1.836 1.336l2.517-.818c-.856-1.65-2.456-2.853-4.353-3.164zM23.13 11.893l-2.518.818c.001.029.003.057.003.086 0 .779-.263 1.497-.705 2.072l1.555 2.14c1.07-1.084 1.733-2.572 1.733-4.212 0-.307-.023-.61-.068-.904z" transform="translate(7.000000, 10.000000)"/>
                        <path d="M17.203 0H5.378c-.537 0-.972.435-.972.972 0 .537.435.972.972.972h5.053c-1.066.667-2.027 1.487-2.853 2.43H.972c-.537 0-.972.435-.972.971 0 .537.435.972.972.972h5.2c-1.121 1.902-1.766 4.117-1.766 6.48 0 2.75.872 5.299 2.353 7.387H4.002c-.537 0-.972.435-.972.972 0 .537.435.972.972.972h4.454c.606.569 1.267 1.079 1.975 1.522H1.072c-.537 0-.972.435-.972.972 0 .536.435.972.972.972h16.131C24.26 25.594 30 19.853 30 12.797 30 5.74 24.26 0 17.203 0zm4.722 19.175l-.055.045-.067.044c-1.298.926-2.887 1.472-4.6 1.472-1.713 0-3.301-.546-4.6-1.472l-.066-.044c-.02-.014-.037-.03-.055-.045-1.951-1.447-3.218-3.768-3.218-6.378 0-4.378 3.562-7.94 7.94-7.94 4.377 0 7.938 3.562 7.938 7.94 0 2.61-1.267 4.93-3.217 6.378z" transform="translate(7.000000, 10.000000)"/>
                        <path d="M11.878 10.045l2.517.818c.437-.633 1.083-1.111 1.836-1.336V6.881c-1.897.31-3.497 1.514-4.353 3.164zM18.339 16.013c-.356.126-.738.195-1.136.195-.398 0-.78-.069-1.135-.195l-1.555 2.14c.81.409 1.723.639 2.69.639.967 0 1.881-.23 2.69-.639l-1.554-2.14zM13.792 12.797l.002-.086-2.518-.818c-.045.295-.068.597-.068.904 0 1.64.662 3.128 1.733 4.212l1.555-2.14c-.441-.575-.704-1.293-.704-2.072z" transform="translate(7.000000, 10.000000)"/>
                    </g>
                </g>
            </g>
        </g>
    </g>
</svg>
