<svg xmlns="http://www.w3.org/2000/svg" width="16" height="20" viewBox="0 0 16 20">
    <defs>
        <filter id="r8w9nw9dva">
            <feColorMatrix in="SourceGraphic" values="0 0 0 0 0.000000 0 0 0 0 0.000000 0 0 0 0 0.000000 0 0 0 1.000000 0"/>
        </filter>
    </defs>
    <g fill="none" fill-rule="evenodd">
        <g filter="url(#r8w9nw9dva)" transform="translate(-1179 -272)">
            <g fill="#000" fill-rule="nonzero">
                <path d="M10.74.155C10.648.058 10.523 0 10.393 0H2.62C1.184 0 0 1.184 0 2.623v14.754C0 18.817 1.184 20 2.619 20H13.17c1.434 0 2.618-1.184 2.618-2.623V5.662c0-.126-.057-.247-.14-.338L10.74.154zm.14 1.55l3.287 3.464H12.03c-.636 0-1.15-.512-1.15-1.15V1.705zm2.29 17.329H2.62c-.9 0-1.656-.749-1.656-1.657V2.623c0-.903.75-1.657 1.656-1.657h7.298V4.02c0 1.174.943 2.116 2.113 2.116h2.797v11.242c0 .908-.751 1.657-1.656 1.657z" transform="translate(1179 272)"/>
                <path d="M12.142 15.79H4.17c-.267 0-.485.236-.485.526 0 .29.218.526.485.526h7.978c.267 0 .485-.237.485-.526 0-.29-.218-.527-.49-.527zM7.791 14.058c.095.095.225.153.364.153.14 0 .27-.058.365-.153l2.925-2.998c.19-.19.175-.496-.025-.672-.2-.181-.52-.167-.704.024l-2.061 2.111V7.32c0-.263-.225-.477-.5-.477-.274 0-.499.214-.499.477v5.204L5.6 10.412c-.19-.19-.505-.205-.704-.024-.2.181-.215.482-.025.672l2.92 2.998z" transform="translate(1179 272)"/>
            </g>
        </g>
    </g>
</svg>
