<svg xmlns="http://www.w3.org/2000/svg" width="21" height="18" viewBox="0 0 21 18">
    <g fill="none" fill-rule="evenodd">
        <g fill="#000">
            <path d="M1264.348 288.143c-1.51 0-2.74-1.154-2.74-2.572 0-1.417 1.23-2.571 2.74-2.571 1.51 0 2.739 1.154 2.739 2.571 0 1.418-1.229 2.572-2.74 2.572M1250.653 283c-1.51 0-2.739-1.154-2.739-2.571 0-1.418 1.229-2.572 2.74-2.572 1.51 0 2.738 1.154 2.738 2.572 0 1.417-1.229 2.571-2.739 2.571m13.696-11.143c1.51 0 2.739 1.154 2.739 2.572 0 1.417-1.229 2.571-2.74 2.571-1.51 0-2.738-1.154-2.738-2.571 0-1.418 1.229-2.572 2.739-2.572m-.023 10.143c-1.373 0-2.56.73-3.19 1.796l-6.883-2.522c.06-.25.098-.507.098-.774 0-.346-.07-.674-.168-.99l7.066-3.107c.657.959 1.788 1.597 3.077 1.597 2.026 0 3.675-1.57 3.675-3.5s-1.649-3.5-3.675-3.5-3.675 1.57-3.675 3.5c0 .346.07.674.168.99l-7.067 3.107c-.656-.959-1.787-1.597-3.076-1.597-2.026 0-3.675 1.57-3.675 3.5s1.649 3.5 3.675 3.5c1.373 0 2.56-.73 3.19-1.796l6.883 2.522c-.06.25-.098.507-.098.774 0 1.93 1.649 3.5 3.675 3.5s3.675-1.57 3.675-3.5-1.649-3.5-3.675-3.5" transform="translate(-1247 -271)"/>
        </g>
    </g>
</svg>
