<svg xmlns="http://www.w3.org/2000/svg" width="46" height="46" viewBox="0 0 46 46">
    <defs>
        <filter id="i6pgli25ta">
            <feColorMatrix in="SourceGraphic" values="0 0 0 0 1.000000 0 0 0 0 1.000000 0 0 0 0 1.000000 0 0 0 1.000000 0"/>
        </filter>
    </defs>
    <g fill="none" fill-rule="evenodd">
        <g>
            <g>
                <g fill="#3375BD">
                    <path d="M23 46c12.703 0 23-10.297 23-23S35.703 0 23 0 0 10.297 0 23c0 6.863 3.006 13.023 7.772 17.237C11.828 43.823 17.16 46 23 46z" transform="translate(-693 -623) translate(693 623)"/>
                </g>
                <g filter="url(#i6pgli25ta)" transform="translate(-693 -623) translate(693 623)">
                    <g>
                        <path fill="#000" fill-rule="nonzero" d="M19.488 0c-1.172.023-2.35.487-3.242 1.376l-2.858 2.866c-.567.566-.963 1.245-1.183 1.966-.72.219-1.4.606-1.966 1.167l-2.883 2.874c-.666.66-1.101 1.472-1.292 2.325.029-.126.061-.26.1-.383-.709.216-1.377.604-1.933 1.158l-2.858 2.866c-1.783 1.778-1.855 4.7-.066 6.483 1.788 1.783 4.716 1.71 6.499-.067l2.858-2.866c.572-.571.968-1.263 1.183-1.992.702-.222 1.363-.618 1.916-1.166l2.9-2.866c.582-.577.982-1.274 1.2-2.008.687-.224 1.332-.61 1.874-1.15l2.875-2.867c1.782-1.776 1.87-4.668.1-6.432C21.827.402 20.66-.021 19.488.001zm.033 2.692c.466-.01.921.173 1.266.517.69.688.697 1.796-.1 2.591l-2.874 2.866c-.027.027-.056.05-.084.075-.215-.529-.534-1.021-.966-1.45-.461-.457-1-.786-1.575-1 .037-.042.067-.092.108-.133l2.875-2.866c.398-.397.883-.59 1.35-.6zM14.855 6.8c.54.18 1.045.482 1.475.908 1.543 1.53 1.472 4.041-.1 5.6l-2.892 2.874c-.395.391-.854.689-1.341.891.074-.561.042-1.132-.092-1.683.12-.085.241-.183.35-.291l2.883-2.858c1.012-1.003 1.048-2.535.117-3.458-.058-.058-.12-.108-.184-.158l-.008-.009c-.4-.508-.484-1.195-.208-1.816zm-2.808.1c-.081.562-.061 1.14.067 1.691-.123.087-.239.181-.35.292l-2.9 2.866c-1.013 1.004-1.033 2.542-.1 3.466.058.058.12.108.183.159.414.517.496 1.202.217 1.824-.546-.178-1.06-.48-1.492-.908-1.542-1.528-1.471-4.058.1-5.616l2.9-2.866c.404-.4.875-.705 1.375-.908zm.258 2.3c.212.541.529 1.046.967 1.483.457.456.995.788 1.566 1-.037.043-.075.091-.116.133l-2.9 2.866c-.034.033-.074.061-.108.092-.217-.538-.546-1.039-.984-1.475-.456-.455-.983-.791-1.55-1.008.036-.04.07-.079.109-.117l2.9-2.874c.038-.039.076-.066.116-.1zm5.608.108c.022.086.041.171.058.258-.017-.087-.036-.172-.058-.258zm.083.408c.013.083.025.167.033.25-.008-.082-.02-.168-.033-.25zm.05.425c.008.123.01.243.008.367-.001.089-.01.178-.016.266.007-.088.015-.178.016-.266.003-.124 0-.244-.008-.367zm-2.725.108c.006.053.008.106.009.159-.001-.052-.003-.107-.009-.159zm-.025.517c-.008.045-.02.089-.033.133-.014.054-.03.106-.05.159.02-.054.035-.104.05-.159.012-.043.025-.09.033-.133zm-9.323 2.4c-.01.106-.015.21-.017.316-.002.108.003.218.008.325-.005-.108-.01-.216-.008-.325.002-.106.007-.21.017-.316zm0 .833c.01.12.03.239.05.358.025.144.052.284.091.425.033.116.075.236.117.35-.042-.115-.084-.232-.117-.35-.038-.14-.067-.283-.091-.425-.02-.118-.04-.239-.05-.358zm.291 1.225c.214.543.533 1.045.975 1.483.465.46 1.012.796 1.592 1.008-.034.038-.063.08-.1.117l-2.875 2.85c-.796.793-1.925.788-2.625.09-.7-.696-.72-1.832.075-2.624l2.875-2.85c.026-.025.057-.05.083-.074z" transform="translate(11.005 11)"/>
                    </g>
                </g>
            </g>
        </g>
    </g>
</svg>
