<svg xmlns="http://www.w3.org/2000/svg" width="46" height="46" viewBox="0 0 46 46">
    <defs>
        <filter id="0yqwhv378a">
            <feColorMatrix in="SourceGraphic" values="0 0 0 0 1.000000 0 0 0 0 1.000000 0 0 0 0 1.000000 0 0 0 1.000000 0"/>
        </filter>
    </defs>
    <g fill="none" fill-rule="evenodd">
        <g>
            <g>
                <g fill="#3375BD" transform="translate(-161 -1090) translate(161 1090)">
                    <circle cx="23" cy="23" r="23"/>
                </g>
                <g filter="url(#0yqwhv378a)" transform="translate(-161 -1090) translate(161 1090)">
                    <g fill="#000" fill-rule="nonzero">
                        <path d="M14.08 10.084l-.598-.618c-.348-.363-.751-.665-1.193-.895l-.496.513c-.505.526-.568 1.352-.149 1.953.06.053.116.105.173.164l.597.617c.42.434.656 1.023.656 1.637 0 .614-.236 1.203-.656 1.637l-5.61 5.793c-.876.901-2.291.901-3.167 0l-.612-.617c-.871-.906-.871-2.369 0-3.274l4.734-4.91c-.359-1.008-.43-2.1-.203-3.148-.213.154-.413.328-.597.518l-5.61 5.79c-1.798 1.864-1.798 4.881 0 6.746l.611.617c1.803 1.857 4.718 1.857 6.52 0l5.6-5.78c1.798-1.863 1.798-4.88 0-6.743z" transform="translate(11 11)"/>
                        <path d="M12.228 14.932c.507-.524.572-1.351.153-1.952-.06-.053-.12-.105-.174-.16l-.596-.633c-.872-.905-.872-2.368 0-3.272l5.586-5.79c.876-.9 2.291-.9 3.167 0l.597.617c.871.905.871 2.368 0 3.273l-4.719 4.907c.36 1.006.433 2.098.21 3.146.212-.155.411-.327.596-.515l5.605-5.79c1.796-1.863 1.796-4.876 0-6.739l-.597-.632c-1.803-1.856-4.718-1.856-6.52 0l-5.618 5.79c-1.796 1.862-1.796 4.875 0 6.738l.612.617c.349.362.752.664 1.194.892l.504-.497zM16.286 17.143L15.855 20.571 15.429 17.143zM17.143 15.429L20.571 15.857 17.143 16.286zM16.633 16.286L19.714 18.857 16.286 16.683zM7.714 6.857L8.145 3.429 8.571 6.857zM6.857 8.571L3.429 8.14 6.857 7.714zM7.37 7.714L4.286 5.143 7.714 7.317z" transform="translate(11 11)"/>
                    </g>
                </g>
            </g>
        </g>
    </g>
</svg>
