<svg xmlns="http://www.w3.org/2000/svg" width="46" height="46" viewBox="0 0 46 46">
    <defs>
        <filter id="tfuku8zlma">
            <feColorMatrix in="SourceGraphic" values="0 0 0 0 1.000000 0 0 0 0 1.000000 0 0 0 0 1.000000 0 0 0 1.000000 0"/>
        </filter>
    </defs>
    <g fill="none" fill-rule="evenodd">
        <g>
            <g>
                <g fill="#3375BD" transform="translate(-561 -623) translate(561 623)">
                    <circle cx="23" cy="23" r="23"/>
                </g>
                <g filter="url(#tfuku8zlma)" transform="translate(-561 -623) translate(561 623)">
                    <g>
                        <path fill="#000" fill-rule="nonzero" d="M26 12.999c0-.47-.254-.901-.663-1.131l-2.639-1.47 2.639-1.468c.407-.231.659-.663.659-1.132 0-.468-.252-.9-.659-1.13L13.637.166c-.396-.223-.878-.223-1.274 0l-11.7 6.5c-.407.231-.659.663-.659 1.131 0 .469.252.9.659 1.132l2.639 1.469-2.639 1.469c-.407.23-.659.663-.659 1.13 0 .469.252.901.659 1.132l2.639 1.47-2.639 1.468c-.409.23-.662.662-.663 1.131.004.472.256.907.663 1.144l11.7 6.5c.4.209.875.209 1.274 0l11.7-6.5c.407-.237.66-.672.663-1.144 0-.469-.254-.901-.663-1.13l-2.639-1.47 2.639-1.47c.409-.229.662-.661.663-1.13zM13 23.218l-9.022-5.019 2.002-1.118 6.383 3.55c.395.225.88.225 1.274 0l6.383-3.55 2.002 1.118L13 23.218zm0-10.401L3.978 7.798 13 2.778l9.022 5.02L13 12.817z" transform="translate(10 10)"/>
                    </g>
                </g>
            </g>
        </g>
    </g>
</svg>
