<svg xmlns="http://www.w3.org/2000/svg" width="46" height="46" viewBox="0 0 46 46">
    <defs>
        <filter id="6doe31s0sa">
            <feColorMatrix in="SourceGraphic" values="0 0 0 0 1.000000 0 0 0 0 1.000000 0 0 0 0 1.000000 0 0 0 1.000000 0"/>
        </filter>
    </defs>
    <g fill="none" fill-rule="evenodd">
        <g>
            <g>
                <g fill="#3375BD" transform="translate(-161 -1089) translate(161 1089)">
                    <circle cx="23" cy="23" r="23"/>
                </g>
                <g filter="url(#6doe31s0sa)" transform="translate(-161 -1089) translate(161 1089)">
                    <g fill="#000" fill-rule="nonzero">
                        <path d="M23.716 7.771l-.51 1.123-1.237-.24c-.162-.028-.323.053-.404.213l-.51 1.123-1.237-.214c-.161-.027-.322.053-.403.214l-.51 1.123-1.21-.268c-.162-.027-.323.054-.404.214l-.51 1.123-1.237-.24c-.161-.028-.323.053-.403.213l-.511 1.123-1.237-.24c-.161-.028-.322.053-.403.213l-.51 1.123-1.237-.24c-.162-.028-.323.053-.404.213l-.51 1.123-1.237-.24c-.161-.028-.322.053-.403.213l-.51 1.123-1.237-.24c-.162-.028-.323.053-.404.213l-.51 1.123-1.237-.24c-.161-.028-.323.053-.403.213l-.511 1.123-1.237-.24c-.16-.028-.322.053-.403.213l-.51 1.123-1.237-.24c-.161-.028-.323.053-.403.213l-.135.348v1.496c.08-.026.135-.106.188-.187l.511-1.122 1.237.24c.161.027.322-.053.403-.214l.51-1.122 1.237.24c.162.027.323-.053.404-.214l.51-1.122 1.237.24c.161.027.322-.053.403-.214l.51-1.122 1.237.24c.162.027.323-.053.404-.214l.51-1.122 1.237.24c.161.027.323-.053.403-.214l.511-1.122 1.237.24c.08.027.16 0 .242-.026.08-.027.134-.107.16-.16l.512-1.124 1.236.241c.161.027.323-.053.403-.214l.511-1.123 1.237.241c.161.027.322-.053.403-.214l.51-1.123 1.237.241c.162.027.323-.053.404-.214l.51-1.123 1.237.241c.161.027.322-.053.403-.214l.51-1.123 1.237.241c.162.027.323-.053.404-.214l.403-.909v-.989h-.027c-.215 0-.376.08-.457.214z" transform="translate(10 11)"/>
                        <path d="M22.99 6.329l-.51 1.122-1.237-.24c-.161-.027-.323.053-.403.214l-.511 1.122-1.237-.24c-.161-.027-.322.053-.403.214l-.51 1.122-1.237-.24c-.162-.027-.323.053-.404.214l-.51 1.122-1.237-.24c-.161-.027-.322.053-.403.214l-.51 1.122-1.237-.24c-.162-.027-.323.053-.404.214l-.51 1.122-1.21-.267c-.161-.027-.323.053-.403.214L9.603 14l-1.237-.241c-.161-.027-.322.053-.403.214l-.51 1.123-1.237-.241c-.162-.027-.323.053-.403.214l-.511 1.123-1.237-.241c-.161-.027-.322.053-.403.214l-.484 1.123-1.236-.241c-.162-.027-.323.053-.404.214l-.51 1.123-1.076-.214v.722l1.21.24c.161.027.323-.053.403-.214l.51-1.123 1.238.241c.16.027.322-.053.403-.214l.51-1.123 1.237.241c.161.027.323-.053.403-.214l.511-1.123 1.237.241c.16.027.322-.053.403-.214l.51-1.123 1.237.241c.161.027.323-.053.403-.214l.511-1.123 1.237.241c.08.027.161 0 .242-.027.08-.026.134-.107.161-.16l.51-1.123 1.237.24c.162.028.323-.053.404-.213l.51-1.123 1.237.24c.161.027.322-.053.403-.213l.51-1.123 1.237.24c.162.027.323-.053.404-.213l.51-1.123 1.237.24c.161.027.323-.053.403-.213l.511-1.123 1.237.24c.16.027.322-.053.403-.213l.51-1.123.619.134v-.722l-.753-.16c-.215-.027-.376.053-.457.214z" transform="translate(10 11)"/>
                        <path d="M22.668 4.958c-.162-.027-.323.053-.404.215l-.51 1.129-1.237-.242c-.161-.027-.323.053-.403.215l-.511 1.129-1.237-.242c-.16-.027-.322.053-.403.215l-.51 1.129-1.237-.242c-.161-.027-.323.053-.403.215l-.511 1.129-1.237-.242c-.161-.027-.322.053-.403.215l-.51 1.129-1.237-.242c-.162-.027-.323.053-.403.215L11 11.812l-1.237-.242c-.161-.027-.322.053-.403.215l-.51 1.129-1.237-.242c-.162-.027-.323.053-.404.215l-.51 1.129-1.237-.242c-.161-.027-.323.053-.403.215l-.51 1.129-1.184-.27c-.161-.026-.322.055-.403.216l-.538 1.129-1.236-.242c-.161-.027-.323.054-.403.215l-.511 1.129-.323-.08v.725l.484.107c.161.027.323-.053.403-.188l.511-1.129 1.237.242c.161.027.322-.054.403-.215l.51-1.129 1.237.242c.162.027.323-.054.403-.215l.511-1.129 1.237.242c.161.027.322-.054.403-.215l.51-1.129 1.237.242c.162.027.323-.054.404-.215l.51-1.129 1.237.242c.08.027.161 0 .242-.027.08-.027.134-.107.161-.161l.51-1.129 1.238.242c.16.027.322-.054.403-.215l.51-1.129 1.237.242c.161.027.323-.054.403-.215l.511-1.129 1.237.242c.16.027.322-.054.403-.215l.51-1.129 1.237.242c.162.027.323-.054.403-.215l.511-1.129 1.237.242c.161.027.322-.054.403-.215l.51-1.129 1.237.242h.108V4.662l-.242.564-1.29-.268z" transform="translate(10 11)"/>
                        <path d="M23.69 2.71l-.512 1.127-1.236-.242c-.162-.026-.323.054-.403.215l-.511 1.127-1.237-.242c-.161-.027-.322.054-.403.215l-.51 1.126-1.237-.241c-.162-.027-.323.054-.404.215l-.51 1.126-1.237-.241c-.161-.027-.323.053-.403.214l-.51 1.127-1.237-.242c-.162-.026-.323.054-.404.215l-.51 1.127-1.237-.242c-.161-.027-.323.054-.403.215l-.511 1.126-1.237-.241c-.16-.027-.322.054-.403.215l-.51 1.126-1.237-.241c-.161-.027-.323.053-.403.214l-.511 1.127-1.237-.241c-.161-.027-.322.053-.403.214l-.51 1.127-1.237-.242c-.162-.027-.323.054-.404.215l-.51 1.126-1.183-.268c-.161-.027-.323.054-.403.215l-.135.268v1.556c.054-.027.108-.08.135-.161l.51-1.127 1.237.242c.161.027.323-.054.403-.215l.511-1.126 1.237.24c.16.028.322-.053.403-.214l.51-1.126 1.237.241c.161.027.323-.053.403-.214l.511-1.127 1.237.241c.161.027.322-.053.403-.214l.51-1.127 1.237.242c.08.026.162 0 .242-.027.08-.027.135-.107.161-.161l.511-1.127 1.237.242c.161.027.322-.054.403-.215l.51-1.126 1.237.24c.162.028.323-.053.404-.214l.51-1.126 1.237.241c.161.027.323-.053.403-.214l.51-1.127 1.238.241c.16.027.322-.053.403-.214l.51-1.127 1.237.242c.161.026.323-.054.403-.215l.511-1.127 1.237.242c.16.027.322-.054.403-.215l.457-.965v-.912h-.054c-.215-.027-.403.053-.457.214zM31.04 8.197L30.75 7.919 30.75 8.281zM23.823 10.452L22.664 10.48 21.937 11.402 22.206 12.27 21.667 11.565 20.509 11.592 19.781 12.514 20.051 13.382 19.512 12.677 18.354 12.704 17.626 13.626 17.895 14.494 17.357 13.789 16.198 13.816 15.471 14.738 15.74 15.606 15.201 14.901 14.043 14.928 13.315 15.85 13.585 16.718 13.046 16.013 11.887 16.04 11.16 16.962 11.456 17.912 10.864 17.125 9.705 17.179 8.978 18.102 9.22 18.888 8.708 18.237 7.55 18.264 6.849 19.187 7.092 19.973 6.58 19.322 5.421 19.377 4.721 20.299 4.936 21.004 4.478 20.407 3.32 20.462 2.619 21.384 2.862 22.252 2.323 21.519 1.165 21.574.437 22.496.76 23.527.087 22.686-.048 22.686-.048 24.205 24.2 11.7 24.2 10.941zM.033 13.71L1.192 13.683 1.892 12.771 1.677 11.994 2.161 12.637 3.32 12.584 4.02 11.672 3.805 10.895 4.29 11.538 5.448 11.511 6.149 10.6 5.879 9.662 6.472 10.439 7.631 10.385 8.358 9.474 8.089 8.643 8.628 9.34 9.786 9.286 10.513 8.375 10.244 7.544 10.783 8.241 11.941 8.187 12.669 7.276 12.399 6.445 12.938 7.142 14.097 7.088 14.824 6.177 14.555 5.346 15.094 6.043 16.252 5.989 16.979 5.077 16.71 4.246 17.249 4.943 18.407 4.89 19.135 3.978 18.865 3.147 19.404 3.844 20.563 3.791 21.29 2.879 21.021 2.048 21.56 2.745 22.718 2.692 23.446 1.78 23.176.949 23.715 1.646 24.2 1.619 24.2-.043-.048 12.316-.048 13.629z" transform="translate(10 11)"/>
                    </g>
                </g>
            </g>
        </g>
    </g>
</svg>
