<svg xmlns="http://www.w3.org/2000/svg" width="46" height="46" viewBox="0 0 46 46">
    <defs>
        <filter id="ns84h75sda">
            <feColorMatrix in="SourceGraphic" values="0 0 0 0 1.000000 0 0 0 0 1.000000 0 0 0 0 1.000000 0 0 0 1.000000 0"/>
        </filter>
    </defs>
    <g fill="none" fill-rule="evenodd">
        <g>
            <g>
                <g fill="#3375BD" transform="translate(-1027 -624) translate(1027 624)">
                    <circle cx="23" cy="23" r="23"/>
                </g>
                <g filter="url(#ns84h75sda)" transform="translate(-1027 -624) translate(1027 624)">
                    <g>
                        <path fill="#000" fill-rule="nonzero" d="M28.284 14.986l-.11-.565-.17-.545-.24-.525-.29-.485-.35-.451-.408-.405-.441-.353.244-.395-1.461-1.473-.732.232-.552.173-.57.09-.57.03-.58-.05-.558-.11-.55-.183-.52-.252-.88.475.09-.506v-.524l-.09-.504-.54-1.05-.59-1.009-.66-.97-.719-.928-.846-.975-.743-.74.118-.374.06-.384-.01-.395-.07-.382-.089-.311-.14-.303-.21-.264-.25-.222-.28-.16-.311-.112-.33-.05L13.568 0l-.37.05-.35.133-.31.201-.288.292-.23.344-.18.363-.13.394-.06.401h.47l.06.687.05.221.099.214.148.17.19.132.211.08.23.029h.21l.15.566-2.931 3.08-.68-.214-.69-.14-.71-.061h-.71l-.708.081-.69.15-.68.214.419 2.684 1.061.474-.58.798-.511-.232-.54-.182-.55-.1-.57-.04-.56.02-.59.1v.485l-.54.181-.51.252-.479.313-.43.372-.379.435-.31.474-.26.516-.18.544-.119.555-.04.575.04.576.11.564.179.545.249.514.31.476.38.432.43.375.471.323.51.25.54.183.55.112.568.038.57-.038.56-.112.531-.183.51-.26.48-.313.42-.384.37-.433.32-.475.25-.514h.498l.16-.564.101-.565.03-.587-.04-.585-.11-.565-.18-.555-.24-.534-.309-.496-.359-.453.64-.636 2.238 1.987-.07.405v.402l.06.403.13.384.1.394.17.374.23.333.28.293.33.23.367.183.451.12 6.69.03v.002l.252.514.319.486.38.432.43.374.468.324.51.252.551.192.56.11.57.029.57-.037.56-.112.54-.192.51-.263.471-.323.42-.384.377-.443.31-.484.24-.514.18-.555h.48l.09-.565.03-.575-.05-.567zm-21.392.874l-.06.392-.128.384-.19.364-.231.322-.288.282-.32.242-.36.183-.381.12-.4.071h-.398l-.39-.06-.38-.13-.36-.183-.33-.232-.29-.283-.23-.323-.189-.353-.13-.383-.07-.402-.01-.405.06-.404.12-.384.169-.362.228-.332.271-.294.321-.242.35-.191.379-.142.4-.068.4-.02.39.049.39.11-.509.717h-.001l-.351-.05-.35.03-.33.091-.31.16-.28.222-.22.273-.168.304-.1.343-.04.34.03.353.11.344.16.303.23.272.268.223.31.161.34.101.34.02.35-.04.33-.112.31-.17.258-.234.21-.282.15-.313.091-.344.019-.35-.05-.354-.117-.333-.181-.302.588-.586.231.333.169.362.12.383.06.404-.01.405zm7.164-6.5l-2.08-1.263 1.62-1.12 1.38 1.736-.92.646zm5.16 6.622h-1.19l-.82-.95h2.05l-.059.476.02.474zm6.869-.02l-.09.404-.151.394-.2.362-.27.315-.309.282-.349.22-.38.163-.4.09-.42.03-.411-.03-.4-.1-.38-.161-.35-.232-.308-.272-.26-.323-.201-.364.7-.445.161.303.21.272.26.223.3.161.32.102.34.038.328-.02.331-.09.309-.15.26-.213.23-.252.17-.303.11-.323.049-.333-.02-.344-.079-.333-.14-.311-.24-.323.66-.484.308.348.111.36.17.5.05.426-.02.413z" transform="translate(9 13)"/>
                    </g>
                </g>
            </g>
        </g>
    </g>
</svg>
