<svg xmlns="http://www.w3.org/2000/svg" width="46" height="46" viewBox="0 0 46 46">
    <defs>
        <filter id="qe9p8u9pta">
            <feColorMatrix in="SourceGraphic" values="0 0 0 0 1.000000 0 0 0 0 1.000000 0 0 0 0 1.000000 0 0 0 1.000000 0"/>
        </filter>
    </defs>
    <g fill="none" fill-rule="evenodd">
        <g>
            <g>
                <g fill="#3375BD" transform="translate(-627 -624) translate(627 624)">
                    <circle cx="23" cy="23" r="23"/>
                </g>
                <g filter="url(#qe9p8u9pta)" transform="translate(-627 -624) translate(627 624)">
                    <g fill="#000" fill-rule="nonzero">
                        <path d="M21.6 2.4h-1.2V1.2c0-.72-.48-1.2-1.2-1.2S18 .48 18 1.2v1.2H6V1.2C6 .48 5.52 0 4.8 0S3.6.48 3.6 1.2v1.2H1.2C.6 2.4 0 2.88 0 3.6v16.8c0 .72.6 1.2 1.2 1.2h7.32c-.84-1.44-1.32-3.12-1.32-4.8 0-5.28 4.32-9.6 9.6-9.6 2.28 0 4.32.84 6 2.16V3.6c0-.6-.6-1.2-1.2-1.2z" transform="translate(11 11)"/>
                        <path d="M16.8 9.6c-3.96 0-7.2 3.24-7.2 7.2s3.24 7.2 7.2 7.2 7.2-3.24 7.2-7.2-3.24-7.2-7.2-7.2zm2.4 8.4h-2.4c-.72 0-1.2-.48-1.2-1.2v-3.6c0-.72.48-1.2 1.2-1.2s1.2.48 1.2 1.2v2.4h1.2c.72 0 1.2.48 1.2 1.2s-.48 1.2-1.2 1.2z" transform="translate(11 11)"/>
                    </g>
                </g>
            </g>
        </g>
    </g>
</svg>
