<svg xmlns="http://www.w3.org/2000/svg" width="46" height="46" viewBox="0 0 46 46">
    <defs>
        <filter id="bacjjm84ya">
            <feColorMatrix in="SourceGraphic" values="0 0 0 0 1.000000 0 0 0 0 1.000000 0 0 0 0 1.000000 0 0 0 1.000000 0"/>
        </filter>
    </defs>
    <g fill="none" fill-rule="evenodd">
        <g>
            <g>
                <g fill="#3375BD" transform="translate(-961 -624) translate(961 624)">
                    <circle cx="23" cy="23" r="23"/>
                </g>
                <g>
                    <path fill="#FFF" fill-rule="nonzero" d="M20.75 22.193c-4.176 2.41-9.324 2.41-13.5 0C3.212 19.865.674 15.63.508 11h4.193c.142 3.15 1.876 6.026 4.624 7.62 2.89 1.676 6.457 1.676 9.347 0 2.748-1.594 4.482-4.47 4.624-7.62h4.194c-.166 4.63-2.704 8.865-6.74 11.193zm-5.285-8.456l2.575 3.54c-2.403 1.432-5.379 1.481-7.822.148l-.26-.149 2.575-3.54c.932.423 2 .423 2.932 0zm-4.082-.835l-2.575 3.54C7.201 15.038 6.258 13.069 6.13 11h4.36c.097.702.405 1.368.894 1.902zm7.808 3.54l-2.575-3.54c.489-.534.797-1.2.895-1.903L21.87 11c-.129 2.068-1.072 4.038-2.68 5.442zm-4.128-4.086c-.658.38-1.47.38-2.127 0-.514-.297-.873-.791-1.004-1.355h4.135c-.13.564-.49 1.058-1.004 1.355z" transform="translate(-961 -624) translate(961 624) translate(9 13)"/>
                    <g filter="url(#bacjjm84ya)" transform="translate(-961 -624) translate(961 624) translate(9 13)">
                        <g>
                            <path fill="#000" fill-rule="nonzero" d="M.125 5.005h8.744c.244 0 .47-.135.57-.352l1.03-2.214 1.276 5.109c.062.24.275.417.531.452h.081c.225 0 .444-.117.55-.311l1.75-3.142h2c.282 0 .526-.17.6-.422l.47-1.527.787 2.284c.081.24.319.405.594.405h6.054c.272.862 1.113 1.497 2.118 1.497 1.224 0 2.22-.936 2.22-2.085 0-1.15-.996-2.086-2.22-2.086-1.006 0-1.848.636-2.12 1.5h-5.596L18.289.408C18.2.16 17.97.003 17.683.003c-.275.005-.513.176-.588.422l-.906 2.948h-1.907c-.23 0-.443.123-.556.317l-1.144 2.055-1.325-5.29c-.062-.247-.281-.429-.55-.452-.269-.024-.525.117-.631.352L8.456 3.83H.126c-.35 0-.625.264-.625.587 0 .323.275.587.625.587zM27.28 3.788c.535 0 .97.408.97.91 0 .503-.435.912-.97.912-.535 0-.97-.409-.97-.911 0-.503.435-.911.97-.911z"/>
                        </g>
                    </g>
                </g>
            </g>
        </g>
    </g>
</svg>
