<svg xmlns="http://www.w3.org/2000/svg" width="46" height="46" viewBox="0 0 46 46">
    <defs>
        <filter id="l45tdg038a">
            <feColorMatrix in="SourceGraphic" values="0 0 0 0 1.000000 0 0 0 0 1.000000 0 0 0 0 1.000000 0 0 0 1.000000 0"/>
        </filter>
    </defs>
    <g fill="none" fill-rule="evenodd">
        <g>
            <g transform="translate(-227 -624) translate(227 624)">
                <circle cx="23" cy="23" r="23" fill="#3375BD"/>
                <g filter="url(#l45tdg038a)">
                    <g fill="#000" fill-rule="nonzero">
                        <path d="M17.103 11.33c-.81 0-1.468.658-1.468 1.467s.659 1.467 1.468 1.467c.81 0 1.467-.658 1.467-1.467 0-.81-.658-1.468-1.467-1.468zM18.075 6.881v2.646c.754.225 1.399.703 1.836 1.336l2.517-.818c-.856-1.65-2.456-2.853-4.353-3.164zM23.03 11.893l-2.518.818.002.086c0 .779-.263 1.497-.704 2.072l1.555 2.14c1.07-1.084 1.733-2.572 1.733-4.212 0-.307-.023-.61-.068-.904z" transform="translate(7.1 10)"/>
                        <path d="M17.103 0c-2.802 0-5.06.648-6.773 1.944-1.066.667-2.027 1.487-2.852 2.43L6.072 6.316c-1.121 1.902-1.766 4.117-1.766 6.48 0 2.75.872 5.299 2.353 7.387H3.901c-.536 0-.972.435-.972.972 0 .537.436.972.972.972h4.455c.606.569 1.267 1.079 1.974 1.522H.972c-.537 0-.972.435-.972.972 0 .536.435.972.972.972h16.13c7.057 0 12.798-5.741 12.798-12.797C29.9 5.74 24.16 0 17.103 0zm4.721 19.175c-.018.015-.035.03-.055.045l-.066.044c-1.299.926-2.887 1.472-4.6 1.472-1.713 0-3.302-.546-4.6-1.472l-.067-.044c-.019-.014-.037-.03-.054-.045-1.951-1.447-3.218-3.768-3.218-6.378 0-4.378 3.561-7.94 7.939-7.94s7.939 3.562 7.939 7.94c0 2.61-1.267 4.93-3.218 6.378z" transform="translate(7.1 10)"/>
                        <path d="M11.778 10.045l2.517.818c.437-.633 1.082-1.111 1.836-1.336V6.881c-1.897.31-3.497 1.514-4.353 3.164zM18.238 16.013c-.355.126-.737.195-1.135.195s-.78-.069-1.136-.195l-1.554 2.14c.81.409 1.723.639 2.69.639.967 0 1.88-.23 2.69-.639l-1.555-2.14zM13.691 12.797c0-.029.002-.057.003-.086l-2.518-.818c-.045.295-.068.597-.068.904 0 1.64.662 3.128 1.733 4.212l1.555-2.14c-.441-.575-.705-1.293-.705-2.072z" transform="translate(7.1 10)"/>
                    </g>
                </g>
            </g>
        </g>
    </g>
</svg>
