<svg xmlns="http://www.w3.org/2000/svg" width="46" height="46" viewBox="0 0 46 46">
    <defs>
        <filter id="tt548quy2a">
            <feColorMatrix in="SourceGraphic" values="0 0 0 0 1.000000 0 0 0 0 1.000000 0 0 0 0 1.000000 0 0 0 1.000000 0"/>
        </filter>
    </defs>
    <g fill="none" fill-rule="evenodd">
        <g>
            <g>
                <g fill="#3375BD" transform="translate(-693 -1090) translate(693 1090)">
                    <circle cx="23" cy="23" r="23"/>
                </g>
                <g filter="url(#tt548quy2a)" transform="translate(-693 -1090) translate(693 1090)">
                    <g fill="#000" fill-rule="nonzero">
                        <path d="M19.312 21.696c.315-.757.814-1.392 1.42-1.878-.202.026-.402.042-.599.042-1.024 0-1.96-.354-2.758-1.056-1.177 1.095-2.69 1.796-4.357 1.91.035.35.118.677.237.982h6.057zM18.804 12.777c0-3.59-2.92-6.51-6.51-6.51-3.589 0-6.508 2.92-6.508 6.51 0 3.589 2.92 6.509 6.509 6.509 3.589 0 6.509-2.92 6.509-6.51zm-11.624 0c0-2.825 2.29-5.114 5.115-5.114 2.824 0 5.114 2.29 5.114 5.114s-2.29 5.114-5.114 5.114c-2.825 0-5.115-2.29-5.115-5.114zM12.054 21.696c-.093-.315-.155-.645-.184-.99-1.67-.105-3.19-.803-4.374-1.902-.627.823-.858 1.794-.696 2.892h5.254zM24.755 7.112l-.746.745-.665-.665.996-.997c-.166-.326-.347-.643-.542-.95l-1.2 1.2-.666-.666 1.32-1.32c-.214-.281-.44-.552-.68-.812l-1.386 1.386-.666-.665 1.386-1.387c-.26-.239-.53-.466-.812-.68l-1.32 1.32-.665-.665 1.2-1.2c-.307-.196-.624-.377-.95-.543l-.997.997-.665-.666.745-.745C17.208.306 15.867.024 14.464 0l11.09 11.09c-.025-1.403-.306-2.744-.8-3.978zM4.982 13.5c-1.74.208-2.616 1.7-3.053 3.025.345 1.185.866 2.306 1.554 3.33.967.229 1.82.891 2.324 1.841-.157-1.344.167-2.562.943-3.574-1.013-1.248-1.661-2.853-1.768-4.622zM25.071 11.998L13.555.482c-.287.217-.489.54-.537.913l11.14 11.14c.374-.048.697-.25.913-.537z" transform="translate(10 10)"/>
                        <path d="M13.031 5.646c3.776.22 6.805 3.184 7.052 6.89.82-.087 1.522-.417 2.096-.987l-9.787-9.62c-.608.01-1.204.067-1.785.168 1.449.818 2.289 2.04 2.424 3.549zM21.906 23.143l1.185-2.445 3.909.448c-.674-1.155-1.862-1.86-3.17-1.86-1.577 0-2.992 1.033-3.52 2.571l-.11.322H5.46l-.127-.275c-.463-1.005-1.456-1.654-2.53-1.654C1.258 20.25 0 21.547 0 23.143c0 1.595 1.257 2.893 2.804 2.893 1.073 0 2.066-.65 2.53-1.654l.126-.275H20.2l.11.322C20.838 25.967 22.252 27 23.83 27c1.308 0 2.496-.705 3.17-1.86l-3.91.448-1.184-2.445zM2.803 24.589c-.774 0-1.402-.647-1.402-1.446 0-.8.628-1.447 1.402-1.447.774 0 1.402.648 1.402 1.447s-.628 1.446-1.402 1.446zM7.605 7.232c1.202-1.01 2.746-1.658 4.449-1.766-.16-1.42-1.136-2.446-2.918-3.055-2.354.716-4.37 2.15-5.761 4.03 1.598-.407 3.059-.139 4.23.791zM5.012 12.517c.096-1.72.734-3.285 1.738-4.506-1.111-.956-2.493-1.034-4.118-.223-.756 1.553-1.186 3.313-1.186 5.179 0 .671.06 1.332.166 1.98.784-1.452 1.954-2.294 3.4-2.43zM23.625 13.511l-.963-.975c-.708.728-1.58 1.136-2.6 1.224-.097 1.642-.735 3.135-1.74 4.3 1.113.913 2.496.987 4.124.213.747-1.469 1.151-3.093 1.179-4.762zM13.375 14.513l1.396 1.396.657-.657-1.396-1.396c.086-.181.139-.382.139-.597 0-.215-.053-.416-.14-.597l1.398-1.397-.657-.657-1.397 1.397c-.182-.087-.383-.14-.598-.14-.214 0-.416.053-.597.14l-1.398-1.398-.657.657 1.398 1.398c-.087.182-.14.383-.14.597 0 .215.053.416.14.598l-1.397 1.397.657.657 1.397-1.397c.181.087.383.14.597.14.215-.001.416-.054.598-.14z" transform="translate(10 10)"/>
                    </g>
                </g>
            </g>
        </g>
    </g>
</svg>
