<svg xmlns="http://www.w3.org/2000/svg" width="46" height="46" viewBox="0 0 46 46">
    <defs>
        <filter id="mevhqrciia">
            <feColorMatrix in="SourceGraphic" values="0 0 0 0 1.000000 0 0 0 0 1.000000 0 0 0 0 1.000000 0 0 0 1.000000 0"/>
        </filter>
    </defs>
    <g fill="none" fill-rule="evenodd">
        <g>
            <g>
                <g fill="#3375BD" transform="translate(-227 -1090) translate(227 1090)">
                    <circle cx="23" cy="23" r="23"/>
                </g>
                <g filter="url(#mevhqrciia)" transform="translate(-227 -1090) translate(227 1090)">
                    <g fill="#000" fill-rule="nonzero">
                        <path d="M25.58 26C23.606 26 22 24.393 22 22.418c0-1.975 1.606-3.582 3.582-3.582 1.975 0 3.582 1.607 3.582 3.582 0 1.975-1.607 3.582-3.582 3.582zm0-5.707c-1.171 0-2.124.954-2.124 2.125 0 1.172.953 2.125 2.125 2.125 1.172 0 2.125-.953 2.125-2.125 0-1.172-.953-2.125-2.125-2.125z" transform="translate(9 8)"/>
                        <path d="M20.832 23.043c-.345 0-.625-.28-.625-.625 0-2.963 2.411-5.373 5.374-5.373 1.436 0 2.785.559 3.8 1.574.244.244.244.64 0 .883-.244.244-.64.244-.884 0-.779-.779-1.814-1.208-2.916-1.208-2.274 0-4.124 1.85-4.124 4.124 0 .346-.28.625-.625.625zM10.806 3.901c-.103-.217-.169-.458-.2-.723-.088-.774.115-1.473.609-2.093.493-.621 1.127-.976 1.902-1.065.66-.075 1.265.06 1.813.41.547.35.94.816 1.18 1.401l-.737.084c.025.055.06.28.105.678.058.509-.074.974-.4 1.395-.324.42-.752.66-1.28.72-.643.074-1.194-.14-1.654-.643-.091-.123-.16-.22-.205-.293l-1.133.13zM22.719 8.636c-1.122.052-2.012.78-2.012 1.674 0 .894.89 1.622 2.012 1.674V8.636z" transform="translate(9 8)"/>
                        <path d="M22.472 15.366c-.112-.374-1.615-3.603-2.074-4.584-.102-.22-.323-.36-.565-.36h-1.096c.221-.159.366-.417.366-.71 0-.483-.391-.875-.874-.875l-3.116.002-1.076-2.964c-.025-.069-.06-.13-.098-.189-.096-.194-.236-.36-.438-.47-.458-.25-1.142-.324-1.583-.199-.437.125-1.015.375-1.265 1.203l-1.371 5.821c-.053.244-.03.615.075.901.166.458.687 1.041 1.313 1.125l3.718.332c-.14-.001-.327-.002-.56.001H4.233c-.397 0-.731.344-.72.72.011.322.435.984.756 1.441-2.32 1.347-4.222 5.107-4.222 5.107s-.05.116-.047.25c.01.345.28.625.625.625h1.262C1.953 24.46 3.529 26 5.462 26c1.933 0 3.51-1.54 3.576-3.457h8.191c.057 0 1.399-.015 2.262-1.308.204-.278 2.815-3.84 2.989-4.538.151-.606.15-.805-.008-1.331zm-17.01 9.177c-1.13 0-2.053-.886-2.118-2H7.58c-.064 1.114-.989 2-2.118 2zm4.704-3.744c-.056.151-.199.245-.351.245-.043 0-.087-.008-.13-.024-.194-.072-.293-.287-.221-.482.004-.013.524-1.478-.29-2.655-.51-.737-2.025-.736-2.565-.674-.205.024-.392-.124-.415-.33-.024-.205.123-.39.33-.414.097-.012 2.398-.262 3.266.992 1.04 1.502.404 3.268.376 3.342zm11.108-4.428c-.157.427-1.931 2.956-2.799 4.136l-.018.026c-.483.732-1.206.76-1.228.76h-2.972c-.9-.655-1.898-1.744-1.714-3.29.208-1.75 2.307-2.72 2.416-3.208.05-.225-.065-.32-.166-.36l2.035.182-1.66 4.927c-.167.666.353 1.208.666 1.312.556.186 1.457.104 1.79-1.312.072-.3 1.771-5.498 1.771-5.498.25-.812-.437-1.729-1.373-1.864l-4.82-.793.12-.56c-.014-.017-1.365-2.74-1.365-2.74-.092-.186-.016-.41.17-.502.185-.093.41-.016.502.17l1.26 2.546c.103.195.39.285.611.285l3.037-.001c-.125.114-.204.277-.204.46 0 .345.28.624.625.624h1.476c.862 1.85 1.76 3.813 1.84 4.053.088.291.088.291 0 .647z" transform="translate(9 8)"/>
                    </g>
                </g>
            </g>
        </g>
    </g>
</svg>
