<svg xmlns="http://www.w3.org/2000/svg" width="46" height="46" viewBox="0 0 46 46">
    <defs>
        <filter id="29tdwo465a">
            <feColorMatrix in="SourceGraphic" values="0 0 0 0 1.000000 0 0 0 0 1.000000 0 0 0 0 1.000000 0 0 0 1.000000 0"/>
        </filter>
    </defs>
    <g fill="none" fill-rule="evenodd">
        <g>
            <g>
                <g fill="#3375BD" transform="translate(-994 -1090) translate(994 1090)">
                    <circle cx="23" cy="23" r="23"/>
                </g>
                <g filter="url(#29tdwo465a)" transform="translate(-994 -1090) translate(994 1090)">
                    <g>
                        <path fill="#000" fill-rule="nonzero" d="M6.943 11.077H.441c-.243 0-.441.199-.441.445v12.033c0 .246.198.445.441.445h6.502c.117 0 .23-.047.312-.13.083-.084.13-.197.13-.315V11.522c0-.118-.047-.231-.13-.315-.082-.083-.195-.13-.312-.13zM3.69 22.51c-.836-.003-1.512-.688-1.51-1.531.002-.843.68-1.524 1.517-1.523.836 0 1.513.684 1.513 1.527-.003.844-.683 1.527-1.52 1.527zM25.687 13.74c-.008-.235-.054-.466-.137-.686-.049-.107-.105-.211-.17-.311-.03-.017-.058-.038-.081-.063-.124-.122-.124-.317 0-.438.364-.358.561-.843.546-1.344 0-.928-.448-1.72-.978-1.72H18.31c-.086.002-.169-.03-.23-.089-.06-.058-.094-.138-.093-.221 0-.09.547-2.636.596-3.105.12-1.129.366-3.47-.546-4.745C17.73.6 17.036 0 16.566 0h-.093c-1.099.253-1.137 1.308-1.077 2.826.036.432.036.865 0 1.297-.213 1.232-.722 2.398-1.487 3.406-.732.996-1.551 1.931-2.448 2.794-.694.685-1.77 1.582-3.066 1.582h-.087v8.71h3.011c.061.009.12.032.17.068 2.185 1.307 5.42 1.47 6.71 1.47H21.753c.446 0 .869-.194 1.153-.526.334-.378.515-.86.508-1.355 0-.308-.066-.613-.19-.897-.04-.099-.03-.21.028-.3.058-.09.157-.149.266-.158h.18c1.018-.07 1.785-.922 1.717-1.904.003-.467-.161-.922-.465-1.286-.11-.132-.09-.324.044-.432.456-.396.71-.964.694-1.556z" transform="translate(10 10)"/>
                    </g>
                </g>
            </g>
        </g>
    </g>
</svg>
