<svg xmlns="http://www.w3.org/2000/svg" width="46" height="46" viewBox="0 0 46 46">
    <defs>
        <filter id="lczggcvula">
            <feColorMatrix in="SourceGraphic" values="0 0 0 0 1.000000 0 0 0 0 1.000000 0 0 0 0 1.000000 0 0 0 1.000000 0"/>
        </filter>
    </defs>
    <g fill="none" fill-rule="evenodd">
        <g>
            <g>
                <g fill="#3375BD">
                    <path d="M23 46c12.703 0 23-10.297 23-23S35.703 0 23 0 0 10.297 0 23c0 6.863 3.006 13.023 7.772 17.237C11.828 43.823 17.16 46 23 46z" transform="translate(-627 -1090) translate(627 1090)"/>
                </g>
                <g>
                    <path stroke="#FFF" stroke-linecap="round" stroke-width="2" d="M1.92 24.022L14.92 24.022" transform="translate(-627 -1090) translate(627 1090) translate(12.08 9.478)"/>
                    <g filter="url(#lczggcvula)" transform="translate(-627 -1090) translate(627 1090) translate(12.08 9.478)">
                        <g fill="#000" fill-rule="nonzero">
                            <path d="M9.22 2.437C9.22 1.091 8.127 0 6.781 0S4.344 1.091 4.344 2.437c0 1.347 1.092 2.438 2.438 2.438 1.345-.001 2.436-1.092 2.437-2.438zM6.876 8.625h-.188c-.207 0-.375.168-.375.375s.168.375.375.375h.188c.207 0 .375-.168.375-.375s-.168-.375-.375-.375zM2.844 7.053c0-1.05.814-1.784 1.978-1.784h.503c-.35-.181-.664-.426-.925-.72-1.352.171-2.296 1.162-2.305 2.486.283.063.543.204.75.408v-.39zM11.468 7.018c-.017-1.316-.959-2.299-2.304-2.47-.262.295-.575.54-.925.721h.503c1.164 0 1.977.734 1.977 1.784v.31c.213-.182.472-.301.749-.345zM6.782 16.5c-1.051.017-1.89.882-1.875 1.933v3.634c-.02.684.332 1.324.92 1.672.59.348 1.32.348 1.91 0 .588-.348.94-.988.92-1.672v-3.634c.014-1.051-.824-1.916-1.875-1.933z" transform="rotate(40 7.713 21.193)"/>
                            <path d="M11.657 11.92c.207 0 .375-.169.375-.376s-.168-.375-.375-.375h-.722l-.347-.688.84-.482h1.198c.465 0 .844-.436.844-.975v-.3c0-.538-.379-.975-.844-.975h-.937c-.465 0-.844.437-.844.975v.747l-.596.339L9.15 7.631c-.105-.192-.306-.314-.525-.318H4.939c-.22.004-.421.126-.525.32l-1.12 2.218-.669-.38v-.747c0-.538-.379-.975-.844-.975H.844c-.465 0-.844.437-.844.975v.3c0 .539.379.975.844.975h1.198l.913.524-.326.646h-.722c-.207 0-.375.168-.375.375s.168.375.375.375h.757c.199.342.28.739.233 1.131-.071.422-.349.799-.825 1.121-.103.07-.165.187-.165.312.019.93.13 1.858.334 2.767h-.334c-.207 0-.375.168-.375.375S1.7 18 1.907 18h.523c.326 1.153.86 2.393 1.727 3.396v-2.963c-.021-.951.475-1.84 1.295-2.322.821-.481 1.839-.481 2.66 0 .82.482 1.316 1.37 1.295 2.322v2.963c.866-1.003 1.4-2.243 1.727-3.396h.523c.207 0 .375-.168.375-.375s-.168-.375-.375-.375h-.334c.203-.91.315-1.836.334-2.767 0-.125-.062-.241-.165-.312-.474-.322-.754-.7-.825-1.121-.048-.392.034-.79.232-1.13h.758zm-.062-3.196c-.01-.086.026-.17.094-.225h.935c.07.053.106.139.096.225v.3c.01.087-.026.171-.094.225h-1.031v-.525zm-9.72.525H.845C.822 9.246.75 9.17.75 9.024v-.3c-.01-.086.026-.17.094-.225h.937c.068.054.104.14.094.225v.525zm1.907 6.876c-.207 0-.375-.168-.375-.375s.168-.375.375-.375.375.168.375.375-.168.374-.375.375zm3-2.25c-.622 0-1.125-.504-1.125-1.125s.504-1.125 1.125-1.125 1.125.504 1.125 1.125c0 .298-.119.585-.33.796-.21.21-.497.329-.795.329zM4.125 9.868l.913-1.805h3.488l.913 1.805H4.125zm5.657 6.257c-.207 0-.375-.168-.375-.375s.168-.375.375-.375.375.168.375.375-.168.374-.375.375z" transform="rotate(40 7.713 21.193)"/>
                        </g>
                    </g>
                </g>
            </g>
        </g>
    </g>
</svg>
