<svg xmlns="http://www.w3.org/2000/svg" xmlns:xlink="http://www.w3.org/1999/xlink" width="46" height="46" viewBox="0 0 46 46">
    <defs>
        <filter id="f2jg2wyyka">
            <feColorMatrix in="SourceGraphic" values="0 0 0 0 1.000000 0 0 0 0 1.000000 0 0 0 0 1.000000 0 0 0 1.000000 0"/>
        </filter>
        <path id="29oeecexnb" d="M0 0L10.714 0 10.714 10.714 0 10.714z"/>
    </defs>
    <g fill="none" fill-rule="evenodd">
        <g>
            <g transform="translate(-1093 -1090) translate(1093 1090)">
                <circle cx="23" cy="23" r="23" fill="#3375BD"/>
                <g filter="url(#f2jg2wyyka)">
                    <g>
                        <path fill="#000" d="M16.714 6.045c-.245-1.095-.486-2.103-.692-3.119-.113-.557-.461-.832-1.005-.911-2.55-.372-5.098-.75-7.653-1.09-.272-.036-.715.077-.844.27-.662.982-1.247 2.012-1.898 3.09l12.092 1.76M3.481 4.109c.048-.04.235-.136.327-.286.53-.868 1.037-1.75 1.553-2.625C6.006.104 6.474-.126 7.76.056c1.521.215 3.04.444 4.559.669.949.14 1.898.283 2.847.426 1.02.153 1.493.58 1.72 1.543.244 1.043.496 2.086.731 3.131.053.235.13.363.406.42.564.114.793.482.71 1.028l-.537 3.5c-.1.654-.443.914-1.136.813-3.039-.442-6.076-.894-9.114-1.342L2.63 9.459c-.68-.1-.926-.432-.821-1.1.18-1.151.356-2.302.532-3.454.09-.582.38-.827 1.14-.796" transform="translate(10 11)"/>
                        <g transform="translate(10 11) translate(0 14.286)">
                            <mask id="zh0h5h6anc" fill="#fff">
                                <use xlink:href="#29oeecexnb"/>
                            </mask>
                            <path fill="#000" d="M3.516 10.7c.42-.317.736-.536 1.03-.783.356-.3.723-.597 1.034-.945.668-.747.69-1.46.037-2.217-.362-.42-.787-.798-1.232-1.124-.97-.709-1.986-1.352-2.953-2.065-.406-.3-.778-.675-1.093-1.076-.554-.706-.43-1.36.381-1.707C1.52.443 2.381.255 3.215 0l.055.14c-.15.14-.31.27-.45.418-.442.464-.459.93.008 1.36.318.294.684.548 1.063.749.7.37 1.426.687 2.14 1.029 1.405.672 2.688 1.538 3.683 2.774.397.493.678 1.11.912 1.713.207.532.03 1.079-.328 1.508-.518.619-1.115 1.053-1.988 1.022-1.41-.05-2.823-.013-4.234-.013h-.56z" mask="url(#zh0h5h6anc)"/>
                        </g>
                        <path fill="#000" d="M19.78 25c.283-.195.454-.303.616-.425.81-.613.865-1.272.113-1.971-.366-.34-.777-.658-1.218-.874-1.227-.6-2.47-1.167-3.725-1.698-1.134-.48-2.214-1.044-3.135-1.89-.456-.42-.954-.874-.793-1.598.15-.675.757-.864 1.303-1.043.528-.173 1.077-.275 1.643-.322-.25.157-.517.293-.748.477-.395.314-.427.68-.04.995.346.283.739.545 1.151.694 1.735.623 3.508 1.135 5.222 1.812 1.591.629 3.141 1.381 4.677 2.15.504.252.937.693 1.343 1.11.24.246.423.594.526.932.275.895-.285 1.652-1.17 1.65-1.726-.001-3.452 0-5.178.001h-.587zM2.928 9.821l2.43.442c-.096.713-.157 1.382-.278 2.034-.137.739-.748 1.195-1.36 1.077-.622-.119-1.093-.805-1.037-1.589.046-.634.155-1.261.245-1.964" transform="translate(10 11)"/>
                        <path fill="#000" d="M13.645 11.607l2.426.432c-.118.77-.185 1.515-.356 2.221-.163.67-.78 1.027-1.327.89-.591-.15-1.009-.789-.995-1.533.003-.16.02-.32.041-.478.065-.49.134-.978.211-1.532" transform="translate(10 11)"/>
                    </g>
                </g>
            </g>
        </g>
    </g>
</svg>
