<svg xmlns="http://www.w3.org/2000/svg" width="46" height="46" viewBox="0 0 46 46">
    <defs>
        <filter id="bv68i9cb6a">
            <feColorMatrix in="SourceGraphic" values="0 0 0 0 1.000000 0 0 0 0 1.000000 0 0 0 0 1.000000 0 0 0 1.000000 0"/>
        </filter>
    </defs>
    <g fill="none" fill-rule="evenodd">
        <g>
            <g>
                <g fill="#3375BD" transform="translate(-759 -623) translate(759 623)">
                    <circle cx="23" cy="23" r="23"/>
                </g>
                <g>
                    <path stroke="#FFF" stroke-linecap="round" stroke-width="2" d="M2.5 26.5L15.5 26.5" transform="translate(-759 -623) translate(759 623) translate(13 10)"/>
                    <path fill="#FFF" d="M18.422 26.678c1.152-5.76 2.592-8.639 4.32-8.639 2.591 0 3.455 2.592 1.727 3.456-1.152.576-3.167 2.303-6.047 5.183z" transform="translate(-759 -623) translate(759 623) translate(13 10) rotate(24 21.895 22.359)"/>
                    <path fill="#FFF" d="M15.966 28.377c.576-2.88 1.296-4.32 2.16-4.32 1.295 0 1.727 1.296.863 1.728-.575.288-1.583 1.152-3.023 2.592z" transform="translate(-759 -623) translate(759 623) translate(13 10) rotate(64 17.702 26.217)"/>
                    <g filter="url(#bv68i9cb6a)" transform="translate(-759 -623) translate(759 623) translate(13 10)">
                        <g fill="#000" fill-rule="nonzero">
                            <path d="M1.864 8.535L.53 8.167C.38 8.802.263 9.46.178 10.136l1.355.386c.08-.681.19-1.346.331-1.987zm-.47 5.035L0 13.02c0 .63.029 1.25.077 1.858l1.457.616c-.074-.627-.121-1.27-.14-1.924zm1.144-7.387l-1.28-.312c-.276.665-.504 1.442-.63 1.88l1.332.367c.163-.672.356-1.32.578-1.935zM1.384 13c.001-.696.036-1.38.101-2.049l-1.357-.388c-.068.653-.107 1.322-.119 2.003l1.377.542L1.384 13zM6.391.587c-.693.258-1.324.6-1.898 1.012h.73c.372-.392.764-.727 1.168-1.012zm-2.905 3.46L2.362 3.81c-.35.514-.659 1.071-.928 1.664l1.255.307c.24-.612.505-1.194.797-1.735zM1.599 15.982l-1.48-.624c.071.703.176 1.387.314 2.048l1.577.681c-.17-.675-.308-1.38-.411-2.105zM4.845 2.024h-.893c-.486.416-.926.886-1.319 1.407l1.073.226c.35-.602.732-1.148 1.14-1.633zM4.688 13C4.702 6.928 7.083 1.761 10.144.12 8.557.264 6.94 1.61 5.7 3.814 4.386 6.148 3.515 9.403 3.516 13c-.001 3.597.87 6.853 2.184 9.186 1.24 2.205 2.856 3.55 4.443 3.694-3.06-1.64-5.441-6.807-5.455-12.88zm.455 9.5c-1.377-2.449-2.266-5.799-2.267-9.5.001-3.7.89-7.051 2.267-9.5C5.968 2.04 6.973.89 8.085.196 6.635.65 5.242 1.91 4.138 3.766 2.735 6.118 1.81 9.388 1.81 13c0 3.612.924 6.882 2.327 9.234 1.104 1.854 2.498 3.115 3.947 3.57-1.113-.692-2.118-1.842-2.942-3.303zm4.973-1.05C8.933 19.267 8.172 16.29 8.17 13c.001-3.288.762-6.267 1.945-8.45 1.181-2.172 2.8-3.61 4.61-3.621.746.004 1.423.256 2.03.697C15.706.594 14.39 0 12.786 0h-.868.227c-1.183-.003-2.377.647-3.437 1.803h2.266c-.13.136-.258.276-.382.426h-2.25c-.364.451-.71.963-1.03 1.532-.059.105-.112.221-.168.33l2.267-.13c-.08.144-.16.29-.236.441l-2.258.13c-.286.59-.541 1.229-.768 1.905l2.213-.15c-.051.144-.1.29-.149.437l-2.208.15c-.177.575-.325 1.18-.453 1.804l2.182-.201c-.031.144-.06.29-.09.436l-2.185.202c-.115.638-.195 1.301-.253 1.977l2.157-.313c-.014.145-.029.29-.041.437l-2.156.312c-.031.484-.051.974-.051 1.472 0 .178.01.35.015.526l2.117-.438c0 .145.003.29.007.433l-2.111.437c.03.678.087 1.34.174 1.984l2.069-.513c.015.143.034.284.053.425l-2.058.51c.108.69.243 1.358.41 1.997l2.02-.511c.033.139.068.276.104.413l-2.01.51c.206.719.446 1.398.717 2.034l1.952-.531c.053.134.109.265.164.396l-1.948.53c.165.362.338.71.522 1.037.144.254.292.495.444.726l1.868-.56c.077.128.156.252.236.374l-1.849.555c.43.599.892 1.107 1.375 1.515l1.589-.565c.108.114.218.222.329.325l-1.532.543c.767.55 1.573.85 2.375.848h.64c1.604 0 2.919-.594 3.97-1.627-.608.442-1.285.694-2.031.698-1.81-.012-3.429-1.448-4.61-3.62zm-7.964-2.835L.55 17.922c.175.727.4 1.417.664 2.072l1.664.688c-.276-.65-.519-1.342-.725-2.067zm12.432-12.97c-.775 0-1.468.613-2.006 1.63 1.186.96 1.936 3.504 1.936 6.504 0 2.453-.501 4.602-1.333 5.83l-.01-.009c.422.478.899.754 1.414.754 1.802 0 3.022-3.292 3.022-7.354s-1.22-7.354-3.023-7.354zM4.601 23.677l-1.594-.632c.906 1.054 2.031 1.865 3.384 2.37-.638-.45-1.24-1.03-1.79-1.738zm-1.47-2.429l-1.686-.697c.3.658.645 1.272 1.045 1.832l1.649.653c-.366-.544-.704-1.142-1.008-1.788zm15.113-16.37c-.913-2.065-2.159-3.216-3.517-3.206h-.023c-1.363 0-2.826 1.182-3.936 3.233C9.654 6.955 8.913 9.828 8.914 13c-.001 3.173.74 6.045 1.855 8.097 1.116 2.062 2.588 3.244 3.958 3.232 1.358.01 2.604-1.14 3.517-3.206.908-2.05 1.443-4.934 1.442-8.123.001-3.188-.534-6.073-1.442-8.123zM14.6 21.525c-2.238 0-3.925-3.817-3.925-8.525s1.687-8.525 3.925-8.525c2.238 0 3.752 3.817 3.752 8.525s-1.514 8.525-3.752 8.525z"/>
                        </g>
                    </g>
                </g>
            </g>
        </g>
    </g>
</svg>
