<svg xmlns="http://www.w3.org/2000/svg" width="46" height="46" viewBox="0 0 46 46">
    <defs>
        <filter id="ds9zlu299a">
            <feColorMatrix in="SourceGraphic" values="0 0 0 0 1.000000 0 0 0 0 1.000000 0 0 0 0 1.000000 0 0 0 1.000000 0"/>
        </filter>
    </defs>
    <g fill="none" fill-rule="evenodd">
        <g>
            <g>
                <g fill="#3375BD" transform="translate(-293 -624) translate(293 624)">
                    <circle cx="23" cy="23" r="23"/>
                </g>
                <g>
                    <g fill="#000" fill-rule="nonzero" filter="url(#ds9zlu299a)" transform="translate(-293 -624) translate(293 624) translate(11 11)">
                        <path d="M12.094 4.031c-4.445 0-8.063 3.618-8.063 8.063 0 4.446 3.618 8.063 8.063 8.063 4.446 0 8.063-3.617 8.063-8.063 0-4.445-3.617-8.063-8.063-8.063zm4.125 3.012c.091-.1.219-.16.355-.166.117-.013.268.044.366.138 1.045.99 1.756 2.25 2.053 3.643.047.222-.06.449-.262.553-.493.255-1.078.379-1.64.379-.73 0-1.424-.21-1.825-.612-.855-.854-.498-2.324.953-3.935zM7.97 17.224c-.09.101-.218.161-.354.167h-.02c-.128 0-.252-.05-.346-.138-1.045-.99-1.756-2.25-2.053-3.643-.047-.223.06-.45.262-.553 1.136-.587 2.756-.477 3.465.232.854.854.497 2.325-.953 3.935zm.954-6.246c-.401.402-1.094.612-1.826.612-.56 0-1.145-.124-1.64-.379-.201-.104-.308-.33-.261-.553.297-1.394 1.008-2.654 2.053-3.643.098-.094.243-.152.366-.137.136.005.264.064.354.165 1.452 1.61 1.809 3.081.954 3.935zm5.32 7.836c-.699.223-1.421.336-2.149.336-.727 0-1.45-.113-2.147-.336-.222-.07-.366-.283-.35-.515.125-1.813 1.2-3.18 2.497-3.18 1.299 0 2.372 1.367 2.498 3.18.016.232-.128.445-.35.515zm-4.164-6.72c0-1.111.904-2.015 2.015-2.015 1.112 0 2.016.904 2.016 2.015 0 1.112-.904 2.016-2.016 2.016-1.11 0-2.015-.904-2.015-2.016zm4.513-6.164c-.126 1.813-1.2 3.18-2.498 3.18-1.298 0-2.372-1.367-2.498-3.18-.015-.232.128-.445.35-.515 1.396-.446 2.901-.446 4.297 0 .222.07.365.283.35.515zm4.401 7.6c-.297 1.394-1.008 2.654-2.053 3.643-.094.089-.218.138-.346.138h-.02c-.136-.006-.264-.065-.355-.166-1.451-1.61-1.808-3.082-.953-3.936.71-.71 2.328-.818 3.465-.233.202.105.31.331.262.553z"/>
                        <path d="M12.094 0C5.425 0 0 5.426 0 12.094c0 6.67 5.425 12.095 12.094 12.095 6.67 0 12.095-5.426 12.095-12.095C24.189 5.426 18.764 0 12.094 0zm0 21.165c-5.001 0-9.07-4.069-9.07-9.07 0-5.002 4.069-9.071 9.07-9.071 5.002 0 9.071 4.069 9.071 9.07 0 5.002-4.069 9.071-9.07 9.071z"/>
                    </g>
                    <path fill="#FFF" d="M21.597 24.189c1.152-5.76 2.592-8.639 4.32-8.639 2.591 0 3.455 2.592 1.727 3.456-1.151.576-3.167 2.303-6.047 5.183z" transform="translate(-293 -624) translate(293 624) translate(11 11) rotate(24 25.07 19.87)"/>
                    <path fill="#FFF" d="M19.141 25.888c.576-2.88 1.296-4.32 2.16-4.32 1.296 0 1.728 1.296.864 1.728-.576.288-1.584 1.152-3.024 2.592z" transform="translate(-293 -624) translate(293 624) translate(11 11) rotate(64 20.878 23.728)"/>
                </g>
            </g>
        </g>
    </g>
</svg>
