<svg xmlns="http://www.w3.org/2000/svg" width="46" height="46" viewBox="0 0 46 46">
    <defs>
        <filter id="wc3x4t3x2a">
            <feColorMatrix in="SourceGraphic" values="0 0 0 0 1.000000 0 0 0 0 1.000000 0 0 0 0 1.000000 0 0 0 1.000000 0"/>
        </filter>
    </defs>
    <g fill="none" fill-rule="evenodd">
        <g>
            <g>
                <g fill="#3375BD" transform="translate(-359 -624) translate(359 624)">
                    <circle cx="23" cy="23" r="23"/>
                </g>
                <g filter="url(#wc3x4t3x2a)" transform="translate(-359 -624) translate(359 624)">
                    <g fill="#000" fill-rule="nonzero">
                        <path d="M11.464 3.266L8.683 0 5.211 0 7.958 3.266 5.211 6.488 8.683 6.488z" transform="translate(12 12)"/>
                        <path d="M13.839 0L10.368 0 13.114 3.266 10.368 6.488 13.839 6.488 16.62 3.266zM1.934 6.488h1.593l2.78-3.222L3.528 0H1.934C.866 0 0 .866 0 1.934v2.62c0 1.069.866 1.934 1.934 1.934z" transform="translate(12 12)"/>
                        <path d="M20.066 0h-4.542l2.746 3.266-2.746 3.222h4.542c1.068 0 1.934-.865 1.934-1.933V1.934C22 .866 21.134 0 20.066 0zM7.958 11L5.211 14.223 8.683 14.223 11.464 11 8.683 7.777 5.211 7.777z" transform="translate(12 12)"/>
                        <path d="M13.839 7.777L10.368 7.777 13.114 11 10.368 14.223 13.839 14.223 16.62 11zM1.934 14.223h1.593L6.307 11l-2.78-3.223H1.934C.866 7.777 0 8.643 0 9.711v2.578c0 1.068.866 1.934 1.934 1.934z" transform="translate(12 12)"/>
                        <path d="M20.066 7.777h-4.542L18.27 11l-2.746 3.223h4.542c1.068 0 1.934-.866 1.934-1.934V9.711c0-1.068-.866-1.934-1.934-1.934zM7.958 18.734L5.211 22 8.683 22 11.464 18.734 8.683 15.512 5.211 15.512z" transform="translate(12 12)"/>
                        <path d="M16.62 18.734L13.839 15.512 10.368 15.512 13.114 18.734 10.368 22 13.839 22zM1.934 22h1.593l2.78-3.266-2.78-3.222H1.934C.866 15.512 0 16.377 0 17.445v2.621C0 21.134.866 22 1.934 22z" transform="translate(12 12)"/>
                        <path d="M20.066 15.512h-4.542l2.746 3.222L15.524 22h4.542C21.134 22 22 21.134 22 20.066v-2.62c0-1.069-.866-1.934-1.934-1.934z" transform="translate(12 12)"/>
                    </g>
                </g>
            </g>
        </g>
    </g>
</svg>
