<svg xmlns="http://www.w3.org/2000/svg" width="46" height="46" viewBox="0 0 46 46">
    <defs>
        <filter id="5w0dfcz9ba">
            <feColorMatrix in="SourceGraphic" values="0 0 0 0 1.000000 0 0 0 0 1.000000 0 0 0 0 1.000000 0 0 0 1.000000 0"/>
        </filter>
        <filter id="racjvk3tyb">
            <feColorMatrix in="SourceGraphic" values="0 0 0 0 1.000000 0 0 0 0 1.000000 0 0 0 0 1.000000 0 0 0 1.000000 0"/>
        </filter>
        <filter id="57btl1zspc">
            <feColorMatrix in="SourceGraphic" values="0 0 0 0 1.000000 0 0 0 0 1.000000 0 0 0 0 1.000000 0 0 0 1.000000 0"/>
        </filter>
        <filter id="jv9algof9d">
            <feColorMatrix in="SourceGraphic" values="0 0 0 0 1.000000 0 0 0 0 1.000000 0 0 0 0 1.000000 0 0 0 1.000000 0"/>
        </filter>
    </defs>
    <g fill="none" fill-rule="evenodd">
        <g>
            <g transform="translate(-359 -1088) translate(359 1088)">
                <circle cx="23" cy="23" r="23" fill="#3375BD"/>
                <g>
                    <g filter="url(#5w0dfcz9ba)" transform="translate(14.24 10.807)">
                        <g>
                            <path fill="#000" fill-rule="nonzero" d="M12.33.145c-.988 0-1.528.59-1.924 1.022-.327.357-.51.556-.938.556H9.45c-.44-.005-.62-.21-.946-.58C8.11.696 7.573.085 6.564.073h-.032c-.989 0-1.529.59-1.924 1.021-.328.358-.51.557-.938.557h-.018c-.44-.006-.62-.21-.947-.58C2.313.623 1.775.012.765 0L.759 0C.343 0 .004.427 0 .96c-.004.534.332.972.75.977.441.006.621.21.948.58.392.447.93 1.058 1.94 1.07l.03.001c.99 0 1.53-.59 1.925-1.021.328-.358.51-.557.938-.557h.018c.44.005.62.21.947.58.393.447.93 1.058 1.94 1.07h.03c.99 0 1.53-.589 1.926-1.02.327-.358.51-.558.938-.558h.017c.441.006.62.21.947.581.393.446.931 1.058 1.94 1.07h.008c.415 0 .754-.427.758-.959.004-.535-.332-.973-.75-.978-.442-.006-.621-.21-.948-.58-.393-.447-.93-1.058-1.94-1.07h-.031zM15.25 6.063c-.442-.006-.621-.21-.948-.58-.393-.447-.93-1.058-1.94-1.07l-.031-.001c-.99 0-1.53.59-1.925 1.021-.327.358-.51.557-.938.557H9.45c-.44-.005-.62-.21-.946-.58-.393-.447-.931-1.058-1.94-1.07h-.032c-.989 0-1.529.589-1.924 1.02-.328.358-.51.558-.938.558h-.018c-.44-.006-.62-.21-.947-.581-.392-.446-.93-1.058-1.94-1.07H.759c-.415 0-.754.427-.758.959-.004.535.332.973.75.978.441.005.621.21.948.58.392.447.93 1.058 1.94 1.07h.03c.99 0 1.53-.589 1.925-1.02.328-.358.51-.558.938-.558h.018c.44.006.62.21.947.581.393.446.93 1.058 1.94 1.07h.03c.99 0 1.53-.59 1.926-1.02.327-.359.51-.558.938-.558h.017c.441.006.62.21.947.58.393.447.931 1.058 1.94 1.07l.008.001c.415 0 .754-.427.758-.96.004-.534-.332-.972-.75-.977z" transform="translate(1.426 17.193)"/>
                        </g>
                    </g>
                    <g filter="url(#racjvk3tyb)" transform="translate(14.24 10.807)">
                        <g fill="#000" fill-rule="nonzero">
                            <path d="M5.913 10.435c-.956 0-1.74.622-1.74 1.382v2.8c0 .76.784 1.383 1.74 1.383.957 0 1.74-.622 1.74-1.383v-2.8c0-.76-.783-1.382-1.74-1.382z" transform="rotate(14 1.935 15.762)"/>
                            <path d="M11.074 1.77h-2.76C7.992.743 7.024 0 5.877 0 4.73 0 3.763.743 3.44 1.77H.717C.323 1.77 0 2.09 0 2.478c0 .39.323.708.717.708h2.76c.178.602.573 1.098 1.11 1.416-1.935.567-3.369 2.337-3.369 4.426v3.717c0 .637.538 1.168 1.183 1.168h.968v-2.018c0-1.38 1.146-2.513 2.544-2.513 1.398 0 2.544 1.132 2.544 2.513v2.018h.968c.645 0 1.183-.531 1.183-1.168V9.063c0-2.089-1.434-3.894-3.369-4.425.538-.319.932-.815 1.11-1.416h2.76c.395 0 .717-.319.717-.708-.036-.425-.358-.744-.752-.744zM5.877 3.93c-.788 0-1.433-.638-1.433-1.416 0-.78.645-1.417 1.433-1.417.789 0 1.434.638 1.434 1.417.036.778-.61 1.416-1.434 1.416z" transform="rotate(14 1.935 15.762)"/>
                        </g>
                    </g>
                </g>
                <g>
                    <g filter="url(#57btl1zspc)" transform="translate(14.24 10.807)">
                        <g>
                            <path fill="#000" fill-rule="nonzero" d="M12.33.145c-.988 0-1.528.59-1.924 1.022-.327.357-.51.556-.938.556H9.45c-.44-.005-.62-.21-.946-.58C8.11.696 7.573.085 6.564.073h-.032c-.989 0-1.529.59-1.924 1.021-.328.358-.51.557-.938.557h-.018c-.44-.006-.62-.21-.947-.58C2.313.623 1.775.012.765 0L.759 0C.343 0 .004.427 0 .96c-.004.534.332.972.75.977.441.006.621.21.948.58.392.447.93 1.058 1.94 1.07l.03.001c.99 0 1.53-.59 1.925-1.021.328-.358.51-.557.938-.557h.018c.44.005.62.21.947.58.393.447.93 1.058 1.94 1.07h.03c.99 0 1.53-.589 1.926-1.02.327-.358.51-.558.938-.558h.017c.441.006.62.21.947.581.393.446.931 1.058 1.94 1.07h.008c.415 0 .754-.427.758-.959.004-.535-.332-.973-.75-.978-.442-.006-.621-.21-.948-.58-.393-.447-.93-1.058-1.94-1.07h-.031zM15.25 6.063c-.442-.006-.621-.21-.948-.58-.393-.447-.93-1.058-1.94-1.07l-.031-.001c-.99 0-1.53.59-1.925 1.021-.327.358-.51.557-.938.557H9.45c-.44-.005-.62-.21-.946-.58-.393-.447-.931-1.058-1.94-1.07h-.032c-.989 0-1.529.589-1.924 1.02-.328.358-.51.558-.938.558h-.018c-.44-.006-.62-.21-.947-.581-.392-.446-.93-1.058-1.94-1.07H.759c-.415 0-.754.427-.758.959-.004.535.332.973.75.978.441.005.621.21.948.58.392.447.93 1.058 1.94 1.07h.03c.99 0 1.53-.589 1.925-1.02.328-.358.51-.558.938-.558h.018c.44.006.62.21.947.581.393.446.93 1.058 1.94 1.07h.03c.99 0 1.53-.59 1.926-1.02.327-.359.51-.558.938-.558h.017c.441.006.62.21.947.58.393.447.931 1.058 1.94 1.07l.008.001c.415 0 .754-.427.758-.96.004-.534-.332-.972-.75-.977z" transform="translate(1.426 17.193)"/>
                        </g>
                    </g>
                    <g filter="url(#jv9algof9d)" transform="translate(14.24 10.807)">
                        <g fill="#000" fill-rule="nonzero">
                            <path d="M5.913 10.435c-.956 0-1.74.622-1.74 1.382v2.8c0 .76.784 1.383 1.74 1.383.957 0 1.74-.622 1.74-1.383v-2.8c0-.76-.783-1.382-1.74-1.382z" transform="rotate(14 1.935 15.762)"/>
                            <path d="M11.074 1.77h-2.76C7.992.743 7.024 0 5.877 0 4.73 0 3.763.743 3.44 1.77H.717C.323 1.77 0 2.09 0 2.478c0 .39.323.708.717.708h2.76c.178.602.573 1.098 1.11 1.416-1.935.567-3.369 2.337-3.369 4.426v3.717c0 .637.538 1.168 1.183 1.168h.968v-2.018c0-1.38 1.146-2.513 2.544-2.513 1.398 0 2.544 1.132 2.544 2.513v2.018h.968c.645 0 1.183-.531 1.183-1.168V9.063c0-2.089-1.434-3.894-3.369-4.425.538-.319.932-.815 1.11-1.416h2.76c.395 0 .717-.319.717-.708-.036-.425-.358-.744-.752-.744zM5.877 3.93c-.788 0-1.433-.638-1.433-1.416 0-.78.645-1.417 1.433-1.417.789 0 1.434.638 1.434 1.417.036.778-.61 1.416-1.434 1.416z" transform="rotate(14 1.935 15.762)"/>
                        </g>
                    </g>
                </g>
            </g>
        </g>
    </g>
</svg>
