<svg xmlns="http://www.w3.org/2000/svg" width="46" height="46" viewBox="0 0 46 46">
    <defs>
        <filter id="4l4ek0a39a">
            <feColorMatrix in="SourceGraphic" values="0 0 0 0 1.000000 0 0 0 0 1.000000 0 0 0 0 1.000000 0 0 0 1.000000 0"/>
        </filter>
    </defs>
    <g fill="none" fill-rule="evenodd">
        <g>
            <g>
                <g fill="#3375BD" transform="translate(-1093 -624) translate(1093 624)">
                    <circle cx="23" cy="23" r="23"/>
                </g>
                <g filter="url(#4l4ek0a39a)" transform="translate(-1093 -624) translate(1093 624)">
                    <g>
                        <path fill="#000" d="M9.887 6.072c.87.08 1.74.408 2.572.802l2.17 1.027c.094.045.09.15.09.255-.003.508-.212.962-.644 1.359-.077.071-.16.136-.254.09l-2.19-1.036c-.164-1.121-.993-1.746-1.744-2.497zm6.232 3.46c-.047-.094-.151-.09-.256-.085-.554.028-.979.291-1.341.668-.073.076-.133.162-.086.257.547 1.097 1.532 2.754 1.619 3.922.048.65-.187 1.15-.705 1.53-.184-.186-.37-.37-.555-.556-.31-.31.163-.782.473-.473l.198.198c.1-.199.131-.42.113-.664-.037-.497-.245-1.042-.465-1.515-.618-.023-1.215.21-1.653.647-.432.433-.649 1.002-.649 1.57 0 .263.046.525.138.774.15.404.342.628.644.93l6.617 6.616c.432.432 1.001.649 1.57.649.568 0 1.138-.217 1.57-.649.432-.433.649-1.001.649-1.57 0-.569-.217-1.138-.649-1.57l-4.993-4.994c-.111.636-.373 1.22-.799 1.743l4.538 4.52c.405.404-.206 1.017-.612.612L16.978 17.6c-.087-.086-.303-.304-.285-.434.92-.785 1.327-1.796 1.238-3.008-.117-1.581-1.097-3.19-1.812-4.625zM14.847 4.4c-.238 0-.433-.194-.433-.433V1.554c0-.238.195-.433.433-.433.239 0 .433.195.433.433v2.412c0 .239-.195.433-.433.433zm2.44.654c-.206-.12-.278-.385-.16-.592l1.207-2.09c.119-.205.385-.277.592-.158.205.12.277.385.158.592l-1.206 2.089c-.12.207-.385.278-.591.159zm1.785 1.785c.119.206.385.278.591.159l2.09-1.206c.206-.119.277-.386.158-.592-.118-.206-.385-.277-.59-.158l-2.09 1.206c-.207.119-.278.385-.159.591zm.654 2.44c0-.239.194-.433.433-.433h2.412c.239 0 .433.194.433.432 0 .239-.195.433-.433.433H20.16c-.239 0-.433-.194-.433-.433zm-.654 2.439c.119-.207.385-.278.591-.16l2.09 1.207c.206.12.277.385.158.591-.118.206-.385.278-.59.16l-2.09-1.207c-.207-.12-.278-.386-.159-.591zm-6.664-6.664c-.206.118-.472.047-.591-.16l-1.206-2.088c-.12-.207-.048-.473.158-.592.206-.118.472-.047.591.159l1.207 2.09c.119.206.048.472-.159.59zM3.786.645c-.86-.86-2.28-.86-3.14 0-.861.861-.861 2.28 0 3.141l4.906 4.907c.17-.61.466-1.18.876-1.672L1.92 2.53c-.405-.404.206-1.017.612-.612l4.507 4.491c.087.087.281.28.257.414-.91.758-1.43 1.893-1.43 3.077 0 1.03.39 2.06 1.173 2.841l4.206 4.207c.809.808 1.916 1.227 3.055 1.167-.793-.792-1.781-1.538-1.94-2.72l-3.988-3.988c-.413-.414-.62-.96-.62-1.507 0-.658.327-1.368.893-1.728l.556.557c.31.31-.163.782-.473.472l-.223-.223c-.18.27-.277.59-.277.922 0 .44.17.859.481 1.17l.11.11c.048.003.097.004.146.004.568 0 1.137-.216 1.57-.649.433-.432.649-1.002.649-1.57 0-.696-.286-1.208-.737-1.658L3.787.645z" transform="translate(11 11)"/>
                    </g>
                </g>
            </g>
        </g>
    </g>
</svg>
