<svg xmlns="http://www.w3.org/2000/svg" width="46" height="46" viewBox="0 0 46 46">
    <defs>
        <filter id="x5wy6gd9ia">
            <feColorMatrix in="SourceGraphic" values="0 0 0 0 1.000000 0 0 0 0 1.000000 0 0 0 0 1.000000 0 0 0 1.000000 0"/>
        </filter>
    </defs>
    <g fill="none" fill-rule="evenodd">
        <g>
            <g>
                <g fill="#3375BD" transform="translate(-1126 -1090) translate(1126 1090)">
                    <circle cx="23" cy="23" r="23"/>
                </g>
                <g filter="url(#x5wy6gd9ia)" transform="translate(-1126 -1090) translate(1126 1090)">
                    <g fill="#000" fill-rule="nonzero" transform="translate(12 11)">
                        <path d="M15.43 8.792c2.425 0 4.396-1.97 4.396-4.396C19.826 1.97 17.856 0 15.43 0c-2.425 0-4.396 1.97-4.396 4.396 0 2.425 1.97 4.396 4.396 4.396zm-2.097-4.75c.253-.227.657-.227.884.025l.632.682 1.617-1.743c.227-.252.631-.278.884-.025.253.227.278.632.025.884l-2.071 2.249c-.127.126-.278.202-.455.202s-.354-.076-.455-.202l-1.086-1.188c-.227-.252-.227-.631.025-.884zM21.013 19.882l-3.688-4.623c-.278-.354-.708-.556-1.162-.556h-3.36l-.784-1.819h3.158c.581 0 1.137-.404 1.213-.985.126-.733-.455-1.364-1.162-1.364h-3.36S10.73 9.474 10.2 8.994c-.809-.733-1.491-.935-2.35-.682-.632.202-1.137.631-1.415 1.212s-.303 1.263-.05 1.87l2.248 5.355c.228.556.758.91 1.364.91h5.129c.202 0 .404.101.53.253l3.108 3.915c.303.354.732.556 1.162.556.328 0 .631-.1.91-.303.656-.53.707-1.541.176-2.198z"/>
                        <circle cx="6.695" cy="5.441" r="2.45" transform="rotate(-60.954 6.695 5.441)"/>
                        <path d="M14.824 19.554c-.177-.202-.43-.329-.708-.329h-4.32c-1.111 0-2.097-.657-2.526-1.692L3.86 9.272c-.405-.96-1.44-1.44-2.426-1.163-.556.152-1.01.556-1.238 1.062-.252.505-.252 1.111-.05 1.642l4.977 11.974C5.426 23.52 6.133 24 6.942 24h9.6c.353 0 .682-.202.833-.53.152-.329.101-.708-.126-.986l-2.425-2.93z"/>
                    </g>
                </g>
            </g>
        </g>
    </g>
</svg>
