<svg xmlns="http://www.w3.org/2000/svg" width="33" height="25" viewBox="0 0 33 25">
    <g fill="none" fill-rule="evenodd">
        <g>
            <g>
                <path fill="#0050A8" fill-rule="nonzero" d="M31.982 17.321v-2.934c0-1.833-.924-3.455-2.33-4.427h.958c.913 0 1.656-.741 1.656-1.657 0-.912-.743-1.654-1.656-1.654h-2.39l-1.05-3.952c0-.005-.003-.01-.004-.016l-.002-.005C26.736 1.099 25.298 0 23.66 0H13.256c-.625 0-.625.965 0 .965H23.66c.985 0 1.87.542 2.332 1.373H7.008C7.47 1.507 8.355.965 9.34.965h1.38c.626 0 .626-.965 0-.965H9.34C7.702 0 6.265 1.1 5.836 2.676l-.002.006-.005.015L4.781 6.65H2.41c-.913 0-1.656.742-1.656 1.658 0 .912.743 1.653 1.657 1.653h.937c-1.407.972-2.331 2.593-2.331 4.427v2.934c-.583.14-1.018.665-1.018 1.29v1.408c0 .732.596 1.327 1.33 1.327h1.484v1.714c0 .692.564 1.256 1.258 1.256h3.662c.694 0 1.258-.564 1.258-1.256v-1.714h15.016v1.714c0 .692.564 1.256 1.258 1.256h3.662c.694 0 1.258-.564 1.258-1.256v-1.714h1.485c.733 0 1.329-.595 1.329-1.327V18.61c0-.624-.435-1.148-1.018-1.289zM6.669 3.304H26.33l1.556 5.86c-.415-.102-.848-.157-1.293-.157H6.406c-.446 0-.878.055-1.293.158L6.67 3.304zm23.94 4.31c.38 0 .69.31.69.693 0 .38-.31.688-.69.688h-1.767l-.366-1.38h2.134zm-28.887.689c0-.38.31-.688.69-.688h2.112l-.366 1.38H2.412c-.38 0-.69-.309-.69-.692zM8.025 23.06c0 .16-.13.29-.29.29H4.071c-.16 0-.291-.13-.291-.29v-1.714h4.244v1.714zm21.194 0c0 .16-.13.29-.29.29h-3.663c-.161 0-.292-.13-.292-.29v-1.714h4.245v1.714zm2.814-3.04c0 .199-.162.361-.362.361H1.329c-.2 0-.362-.162-.362-.362V18.61c0-.2.162-.361.362-.361h23.965c.625 0 .625-.966 0-.966H1.984v-2.896c0-2.434 1.984-4.415 4.422-4.415h20.188c2.438 0 4.421 1.98 4.421 4.415v2.896h-3.17c-.626 0-.626.966 0 .966h3.826c.2 0 .362.162.362.361v1.41z" transform="translate(-703 -185) translate(703 185)"/>
                <path fill="#FF7B00" d="M6.669 3.304H26.33l1.556 5.86c-.415-.102-.848-.157-1.293-.157H6.406c-.446 0-.878.055-1.293.158L6.67 3.304z" transform="translate(-703 -185) translate(703 185)"/>
                <path fill="#0050A8" fill-rule="nonzero" d="M6.513 12.158c-1.197 0-2.17.974-2.17 2.17 0 1.198.973 2.172 2.17 2.172s2.171-.974 2.171-2.171c0-1.197-.974-2.171-2.17-2.171zm0 3.464c-.71 0-1.289-.58-1.289-1.293s.578-1.294 1.29-1.294c.71 0 1.288.58 1.288 1.294 0 .713-.578 1.293-1.289 1.293zM28.658 14.329c0-1.197-.974-2.171-2.171-2.171-1.197 0-2.171.974-2.171 2.17 0 1.198.974 2.172 2.17 2.172 1.198 0 2.172-.974 2.172-2.171zm-2.171 1.293c-.711 0-1.29-.58-1.29-1.293s.579-1.294 1.29-1.294c.71 0 1.289.58 1.289 1.294 0 .713-.578 1.293-1.29 1.293zM21.234 12.026H10.897c-.263 0-.476.238-.476.531v2.412c0 .293.213.531.476.531h10.337c.263 0 .477-.238.477-.53v-2.413c0-.293-.214-.53-.477-.53zm-.476 2.413h-9.385v-1.351h9.385v1.35z" transform="translate(-703 -185) translate(703 185)"/>
            </g>
        </g>
    </g>
</svg>
