<svg xmlns="http://www.w3.org/2000/svg" width="32" height="32" viewBox="0 0 32 32">
    <g fill="none" fill-rule="evenodd">
        <g fill-rule="nonzero">
            <g>
                <g>
                    <path fill="#FF7B00" d="M13.825 3.88C14.974 1.576 17.325 0 20.038 0 23.883 0 27 3.168 27 7.077c0 2.478-1.253 4.659-3.15 5.923H13.824V3.88z" transform="translate(-409 -181) translate(409 181) translate(0 5)"/>
                    <path fill="#FFF" d="M5.247 8.333c0-3.006 2.447-5.431 5.427-5.33 2.837.096 5.067 2.511 5.067 5.397 0 1.141.91 2.067 2.033 2.067h2.102c2.307 0 4.23 1.865 4.26 4.21.03 2.382-1.86 4.323-4.197 4.323H5.313C2.42 19 .022 16.648 0 13.707c-.021-2.964 2.336-5.374 5.247-5.374z" transform="translate(-409 -181) translate(409 181) translate(0 5)"/>
                </g>
                <g fill="#0050A8">
                    <path d="M27.858 11.858c0-1.714-.55-3.337-1.59-4.693-.158-.205-.452-.244-.658-.087-.205.158-.244.452-.086.658.914 1.191 1.397 2.617 1.397 4.122 0 2.099-.96 4.052-2.595 5.334-.742-1.587-2.372-2.696-4.246-2.696h-2.074c-.848 0-1.537-.69-1.537-1.537 0-1.48-.561-2.886-1.58-3.958-.19-.201-.393-.386-.606-.554 1.214-2.087 3.423-3.368 5.859-3.368 1.513 0 2.944.488 4.139 1.41.204.158.499.12.657-.085.158-.205.12-.499-.085-.657-1.36-1.05-2.989-1.605-4.711-1.605-2.755 0-5.256 1.439-6.643 3.788-.757-.414-1.602-.65-2.483-.679-1.545-.051-3.008.511-4.118 1.584-1 .968-1.596 2.236-1.703 3.608-1.346.105-2.595.682-3.556 1.65C.57 15.17-.011 16.597 0 18.113c.023 3.09 2.585 5.604 5.71 5.604h10.857c.259 0 .469-.21.469-.47 0-.258-.21-.468-.47-.468H5.712c-2.613 0-4.754-2.096-4.773-4.673-.01-1.264.476-2.455 1.366-3.352.89-.897 2.078-1.392 3.342-1.392.259 0 .469-.21.469-.468 0-1.288.51-2.49 1.435-3.385.925-.895 2.144-1.365 3.435-1.32 2.507.083 4.546 2.223 4.546 4.77 0 1.364 1.11 2.474 2.475 2.474h2.074c2.033 0 3.708 1.626 3.734 3.624.013.991-.363 1.925-1.058 2.63-.696.704-1.624 1.092-2.614 1.092h-1.7c-.26 0-.469.21-.469.469s.21.469.469.469h1.7c1.243 0 2.408-.488 3.281-1.372.873-.885 1.345-2.056 1.329-3.3-.004-.315-.041-.623-.107-.92 2.018-1.451 3.213-3.769 3.213-6.267zM20.142 3.008c.259 0 .468-.21.468-.468V.469c0-.26-.21-.469-.468-.469-.26 0-.469.21-.469.469v2.07c0 .26.21.47.469.47z" transform="translate(-409 -181) translate(409 181)"/>
                    <path d="M13.22 5.6c.092.092.212.138.332.138.12 0 .24-.046.332-.138.183-.183.183-.48 0-.663L12.42 3.473c-.184-.183-.48-.183-.663 0-.183.183-.183.48 0 .663L13.22 5.6zM27.063 18.116c-.184-.183-.48-.183-.663 0-.183.183-.183.48 0 .663l1.464 1.464c.091.092.211.138.331.138.12 0 .24-.046.332-.138.183-.183.183-.48 0-.663l-1.464-1.464zM31.531 11.39h-2.07c-.26 0-.47.21-.47.468 0 .26.21.469.47.469h2.07c.26 0 .469-.21.469-.469s-.21-.468-.469-.468zM27.864 3.473L26.4 4.937c-.183.184-.183.48 0 .663.091.092.211.138.331.138.12 0 .24-.046.332-.138l1.464-1.464c.183-.183.183-.48 0-.663-.183-.183-.48-.183-.663 0zM9.997 24.9c-.232-.117-.513-.023-.629.209l-1.035 2.07c-.116.232-.022.514.21.63.067.033.138.05.209.05.172 0 .337-.096.42-.26l1.035-2.07c.116-.232.022-.514-.21-.63zM15.174 24.9c-.231-.117-.513-.023-.629.209l-1.035 2.07c-.116.232-.022.514.21.63.067.033.138.05.209.05.172 0 .337-.096.42-.26l1.035-2.07c.116-.232.022-.514-.21-.63zM17.245 29.041c-.232-.116-.513-.022-.629.21l-1.035 2.07c-.116.232-.022.514.21.63.067.033.138.049.209.049.172 0 .337-.095.42-.26l1.035-2.07c.115-.232.022-.513-.21-.629zM12.068 29.041c-.232-.116-.513-.022-.629.21l-1.035 2.07c-.116.232-.022.514.21.63.067.033.138.049.209.049.172 0 .337-.095.42-.26l1.035-2.07c.115-.232.022-.513-.21-.629zM20.351 24.9c-.231-.117-.513-.023-.629.209l-1.035 2.07c-.116.232-.022.514.21.63.067.033.139.05.209.05.172 0 .337-.096.42-.26l1.035-2.07c.116-.232.022-.514-.21-.63z" transform="translate(-409 -181) translate(409 181)"/>
                </g>
            </g>
        </g>
    </g>
</svg>
