<svg xmlns="http://www.w3.org/2000/svg" width="340" height="350" viewBox="0 0 340 350">
    <g fill="none" fill-rule="evenodd">
        <g>
            <g transform="translate(-776 -974) translate(776 974)">
                <ellipse cx="168.444" cy="340.841" fill="#CBE0F4" fill-rule="nonzero" rx="168.189" ry="8.605"/>
                <g>
                    <g>
                        <path d="M70.286 74.096L67.161 77.219 72.997 71.387z" transform="translate(17.54) translate(210.156)"/>
                        <path fill="#FCB030" fill-rule="nonzero" d="M108.267 106.57l-3.827-3.824c-.287-.287-.765-.287-1.084 0l-.096.096-4.624 4.62-.095.096c-.287.287-.287.765 0 1.084l3.826 3.824c.925.925 2.392.925 3.317 0l2.583-2.581c.925-.892.925-2.39 0-3.314z" transform="translate(17.54) translate(210.156)"/>
                        <path fill="#414042" fill-rule="nonzero" d="M88.368 87.959l-3.923-3.92-3.922-3.92L76.6 76.2l-2.136-2.135c-.766-.765-1.212-1.69-1.436-2.645l-5.835 5.832c.956.191 1.913.67 2.646 1.434l2.137 2.135 3.923 3.92 3.922 3.92 3.923 3.92 14.892 14.883 4.624-4.621-14.892-14.883z" transform="translate(17.54) translate(210.156)"/>
                        <path fill="#FCB030" fill-rule="nonzero" d="M51.216 59.755l19.102 14.34 2.71-2.708-26.66-26.643c-5.644-5.64-11.13-11.44-16.423-17.368L6.315.924C5.484 0 4.05-.032 3.188.83L1.882 2.135c12.022 22.564 28.86 42.227 49.334 57.62z" transform="translate(17.54) translate(210.156)"/>
                        <path fill="#F67D21" fill-rule="nonzero" d="M51.216 59.755C30.742 44.362 13.904 24.699 1.85 2.135l-.192.191C.128 3.856-.223 6.183.798 8.095l5.867 11.154c7.175 13.64 17.285 25.527 29.594 34.77L67.161 77.25l3.125-3.123-19.07-14.373z" transform="translate(17.54) translate(210.156)"/>
                    </g>
                    <g>
                        <path d="M30.2 134.552L28.733 133.659 28.701 133.659z" transform="translate(17.54) translate(0 194.083)"/>
                        <path fill="#FFF" fill-rule="nonzero" stroke="#231F20" d="M47.548 144.782L30.2 134.552 47.197 144.782z" transform="translate(17.54) translate(0 194.083)"/>
                        <path fill="#353535" fill-rule="nonzero" d="M0 144.782h47.166L30.2 134.552l-1.499-.893h.032l-17.508-10.58C6.027 129.389 2.2 136.782 0 144.782z" transform="translate(17.54) translate(0 194.083)"/>
                        <path fill="#2F3676" fill-rule="nonzero" d="M256.46 70.495c6.73-14.31 1.18-31.36-12.66-39.008L187.004.127l-61.708 2.996-36.641 71.483-61.006 34.61c-6.346 3.6-11.927 8.318-16.456 13.895l17.508 10.58 75.899-33.08c7.59-3.314 14.574-7.808 20.76-13.321l41.394-37.032 9.248-10.422L225.4 59.691l-28.446 72.247h30.614l28.893-61.443z" transform="translate(17.54) translate(0 194.083)"/>
                        <path fill="#132750" fill-rule="nonzero" d="M166.754 50.194L225.368 59.627 176.002 39.773z" transform="translate(17.54) translate(0 194.083)"/>
                        <path fill="#353535" fill-rule="nonzero" d="M227.568 131.938L196.954 131.938 191.915 144.782 257.386 144.782z" transform="translate(17.54) translate(0 194.083)"/>
                    </g>
                    <g fill-rule="nonzero">
                        <path fill="#B28B67" d="M40.405 6.406l-9.089 9.847-18.4-8.286L.223 24.093l17.859 8.414c11.448 5.385 25.097 1.083 31.38-9.848l4.21-7.362-13.267-8.891z" transform="translate(17.54) translate(244.598 110.905)"/>
                        <path fill="#F1F2F2" d="M57.881 7.967L46.209 0.127 40.405 6.406 53.671 15.297z" transform="translate(17.54) translate(244.598 110.905)"/>
                    </g>
                    <path fill="#DBE0E4" fill-rule="nonzero" d="M316.637 97.105L302.478 118.872 290.806 111.032 288.893 99.655 290.806 93.855z" transform="translate(17.54)"/>
                    <path fill="#FFF" fill-rule="nonzero" d="M189.268 106.762c-11.99 0-22.96 6.788-28.286 17.528l-35.686 72.916 10.939 5.131c20.984 9.816 45.826 5.832 62.664-10.038 4.943-4.653 9.025-10.199 11.99-16.317l24.843-50.927 12.948-11.41c-7.814-4.525-16.647-6.883-25.672-6.883h-33.74z" transform="translate(17.54)"/>
                    <g fill-rule="nonzero">
                        <path fill="#B28B67" d="M2.998 26.898c-1.69 0-2.966 1.53-2.68 3.186l.766 4.43c.51 2.837 2.966 4.908 5.868 4.908V26.898H2.998zM39.895 26.898c1.69 0 2.965 1.53 2.678 3.186l-.765 4.43c-.51 2.837-2.966 4.908-5.868 4.908V26.898h3.955z" transform="translate(17.54) translate(184.963 65.97)"/>
                        <path fill="#B28B67" d="M4.88 20.747l1.69 19.95c.19 2.295 1.147 4.43 2.678 6.119l3.572 3.888c1.275 1.402 3.093 2.199 4.975 2.199h7.334c1.882 0 3.7-.797 4.975-2.2l3.572-3.887c1.53-1.69 2.487-3.824 2.679-6.12l1.69-19.95H4.879z" transform="translate(17.54) translate(184.963 65.97)"/>
                        <path fill="#2F3676" d="M24.396.127h-5.9c-8.387 0-15.18 6.789-15.18 15.17v5.482h36.26v-5.482c0-8.381-6.793-15.17-15.18-15.17z" transform="translate(17.54) translate(184.963 65.97)"/>
                        <path fill="#191847" d="M30.933 28.364H11.96c-2.615 0-5.039-1.403-6.346-3.665l-2.296-3.952h36.259l-2.296 3.952c-1.34 2.262-3.732 3.665-6.347 3.665z" transform="translate(17.54) translate(184.963 65.97)"/>
                        <path fill="#FFF" d="M40.405 20.81c.032-.477-.32-.892-.797-.892-.479-.032-.893.319-.893.797L37.79 36.14l-8.483 1.976-7.877.223-7.877-.223-8.482-1.976-.925-15.425c-.032-.478-.447-.829-.893-.797-.479.032-.83.446-.797.893l.956 16.062v.032l.223 2.358.383 4.08c.032.222.128.413.287.573l9.408 8.063c.032 0 .032.031.064.031.031 0 .031.032.063.032s.032.032.064.032.064.032.064.032c.032 0 .032 0 .064.032.032 0 .063.032.095.032h14.606c.032 0 .064 0 .096-.032.032 0 .032 0 .063-.032.032 0 .064-.032.064-.032.032 0 .032-.032.064-.032s.032-.032.064-.032.032-.031.064-.031l9.407-8.063c.16-.16.287-.35.287-.574l.383-4.08.223-2.357v-.032l.957-16.062zM21.43 50.48h-6.378l-.638-5.13h14.032l-.638 5.13H21.43zM5.294 38.69l-.064-.766 7.367 1.721v3.347l-7.303-4.303zm16.104 1.37c.032 0 .032 0 0 0 .032 0 .032 0 0 0 .032 0 .032 0 0 0 .032 0 .032 0 0 0 .032 0 .032 0 0 0h.064l7.112-.192v3.76H14.287v-3.76l7.111.192zm8.866-.415l7.366-1.72-.063.764-7.271 4.303v-3.347h-.032zM5.485 40.793l7.144 4.206.542 4.239-7.463-6.406-.223-2.04zm24.205 8.445l.542-4.239 7.143-4.206-.191 2.04-7.494 6.405z" transform="translate(17.54) translate(184.963 65.97)"/>
                    </g>
                    <path fill="#FFF" fill-rule="nonzero" d="M275.914 89.712L275.914 75.594 285.417 68.551 297.79 79.131 297.79 85.505 286.948 98.476z" transform="translate(17.54)"/>
                    <path fill="#FFF" fill-rule="nonzero" d="M290.806 93.855l6.984-8.382 5.9-.956 12.947 12.556-6.6 7.65c-1.595 1.816-4.338 2.007-6.156.445l-13.075-11.313z" transform="translate(17.54)"/>
                    <path fill="#F1F2F2" fill-rule="nonzero" d="M288.893 99.655l1.913-5.8 7.973 6.883c.957.83 1.18 2.2.574 3.315-.797 1.402-2.679 1.785-3.954.765l-6.506-5.163z" transform="translate(17.54)"/>
                    <g fill-rule="nonzero">
                        <path fill="#B28B67" d="M27.84 35.502l-16.742-2.007L.287 55.197l22.642-.924c11.162-.446 21.622-5.481 28.893-13.927l20.76-23.997-12.086-9.593L27.84 35.502z" transform="translate(17.54) translate(207.924 89.552)"/>
                        <path fill="#F1F2F2" d="M67.99 0.159L60.496 6.756 72.614 16.349 79.024 8.923z" transform="translate(17.54) translate(207.924 89.552)"/>
                    </g>
                    <path fill="#FFF" fill-rule="nonzero" d="M117.643 270.856c-9.248-6.437-21.303-7.33-31.412-2.263l-75.612 37.893c-2.583 1.306-3.635 4.111-3.03 6.565l77.398-38.785c10.078-5.067 22.132-4.175 31.412 2.263 2.902 2.008 4.433 5.099 4.624 8.254 2.456-4.621 1.308-10.676-3.38-13.927z" transform="translate(17.54)"/>
                    <g fill-rule="nonzero">
                        <path fill="#DBE0E4" d="M82.117 7.234l9.12-7.138c-4.623.031-9.28 1.115-13.584 3.25L.255 42.131c.35 1.402 1.212 2.677 2.615 3.538l.574.35 70.541-33.717c2.902-1.403 5.613-3.092 8.132-5.068z" transform="translate(17.54) translate(7.335 270.888)"/>
                        <path fill="#F1F2F2" d="M86.964 11.569l13.075-10.23C97.17.509 94.204.096 91.238.127l-9.12 7.14c-2.52 1.975-5.263 3.664-8.133 5.035L3.476 46.05l5.326 3.219 69.616-32.475c3.03-1.402 5.9-3.155 8.546-5.226z" transform="translate(17.54) translate(7.335 270.888)"/>
                        <path fill="#DBE0E4" d="M91.876 15.839l14.892-11.664c-2.136-1.211-4.4-2.167-6.729-2.836l-13.075 10.23c-2.646 2.071-5.517 3.824-8.546 5.226L8.802 49.27l5.07 3.06 68.883-31.01c3.253-1.466 6.314-3.314 9.12-5.481z" transform="translate(17.54) translate(7.335 270.888)"/>
                        <path fill="#F1F2F2" d="M96.819 20.046L111.775 8.35c-.702-1.02-1.626-1.944-2.71-2.71-.766-.51-1.531-1.019-2.297-1.465L91.876 15.839c-2.807 2.199-5.836 4.015-9.09 5.481L13.905 52.33l4.816 2.9 68.34-29.416c3.476-1.466 6.76-3.41 9.759-5.768z" transform="translate(17.54) translate(7.335 270.888)"/>
                        <path fill="#DBE0E4" d="M96.819 20.046c-2.998 2.326-6.283 4.27-9.759 5.768L18.72 55.229l4.145 2.518 67.64-26.802c3.922-1.562 7.621-3.665 10.938-6.278l9.343-7.33c1.244-.988 2.2-2.167 2.902-3.442-.095-1.944-.733-3.888-1.913-5.545L96.819 20.046z" transform="translate(17.54) translate(7.335 270.888)"/>
                    </g>
                    <path fill="#A7A9AC" fill-rule="nonzero" d="M196.954 317.768L202.056 304.765 220.776 304.765 220.776 317.863z" transform="translate(17.54)"/>
                    <g fill-rule="nonzero">
                        <path fill="#FFF" d="M37.056 27.184c0-11.982 9.727-21.67 21.686-21.67h.287V.286c-14.638 0-26.533 11.855-26.533 26.515v19.44L.287 122.378h3.954l32.815-75.052V27.184z" transform="translate(17.54) translate(200.27 203.644)"/>
                        <g>
                            <path fill="#DBE0E4" d="M38.81 39.613V6.916c-3.635 3.888-5.9 9.082-5.9 14.85V41.94L.097 116.96h4.879l31.412-66.511c1.594-3.378 2.423-7.075 2.423-10.836z" transform="translate(17.54) translate(200.27 203.644) translate(4.146 5.418)"/>
                            <path fill="#F1F2F2" d="M44.295 41.334V2.677c-2.072 1.115-3.922 2.55-5.517 4.239v32.697c0 3.76-.829 7.458-2.423 10.836l-31.412 66.51h6.314L41.84 52.17c1.626-3.377 2.455-7.106 2.455-10.835z" transform="translate(17.54) translate(200.27 203.644) translate(4.146 5.418)"/>
                            <path fill="#DBE0E4" d="M49.812 43.023V.606c-1.945.446-3.794 1.147-5.517 2.071v38.657c0 3.76-.829 7.458-2.423 10.836l-30.583 64.79h6.314L47.39 53.859c1.594-3.378 2.423-7.075 2.423-10.836z" transform="translate(17.54) translate(200.27 203.644) translate(4.146 5.418)"/>
                            <path fill="#F1F2F2" d="M54.596.064c-1.658 0-3.253.191-4.815.542v42.417c0 3.76-.83 7.458-2.424 10.836l-29.786 63.1h5.581L52.46 54.848c1.595-3.378 2.424-7.107 2.424-10.836V.064h-.287z" transform="translate(17.54) translate(200.27 203.644) translate(4.146 5.418)"/>
                        </g>
                        <g>
                            <path fill="#DBE0E4" d="M3.922 5.481L1.818 11.409 36.642 23.679 39.735 17.082z" transform="translate(17.54) translate(200.27 203.644) translate(16.583 50.672)"/>
                            <path fill="#F1F2F2" d="M0.255 15.871L33.74 29.861 36.642 23.679 1.818 11.409z" transform="translate(17.54) translate(200.27 203.644) translate(16.583 50.672)"/>
                            <path fill="#FFF" d="M42.478 11.314L5.868 0 3.922 5.481 39.735 17.082z" transform="translate(17.54) translate(200.27 203.644) translate(16.583 50.672)"/>
                        </g>
                    </g>
                    <g fill-rule="nonzero">
                        <path fill="#C5CFD6" d="M13.936 2.9L6.633 6.374 26.373 39.358 34.059 36.172z" transform="translate(17.54) translate(47.197 276.306)"/>
                        <path fill="#FFF" d="M0 9.529L18.815 42.482 26.373 39.358 6.633 6.374zM42.254 32.793L19.995.032 13.936 2.9 34.059 36.172z" transform="translate(17.54) translate(47.197 276.306)"/>
                    </g>
                    <g fill-rule="nonzero">
                        <path fill="#FFF" d="M17.093.16C10.715-.607 4.56 2.772 1.754 8.572c-4.88 10.198 2.838 21.926 14.16 21.48l18.655-.765L47.293 3.76 17.093.159z" transform="translate(17.54) translate(166.467 117.279)"/>
                        <path fill="#191847" d="M53.225 4.462L47.325 3.729 34.601 29.288 40.979 29.033z" transform="translate(17.54) translate(166.467 117.279)"/>
                    </g>
                </g>
            </g>
        </g>
    </g>
</svg>
