<svg xmlns="http://www.w3.org/2000/svg" xmlns:xlink="http://www.w3.org/1999/xlink" width="127" height="199" viewBox="0 0 127 199">
    <defs>
        <path id="0wupzc5uda" d="M0 0.791L80.543 0.791 80.543 8.134 0 8.134z"/>
        <path id="rp5g7030gc" d="M0.546 0.838L12.478 0.838 12.478 29.774 0.546 29.774z"/>
        <path id="ipnv63ic7e" d="M0.817 182.181L81.817 182.181 81.817 0.181 0.817 0.181z"/>
    </defs>
    <g fill="none" fill-rule="evenodd">
        <g>
            <g transform="translate(-694 -1977) rotate(15 -7139.644 3804.362)">
                <g transform="translate(.714 1.298)">
                    <mask id="w6pgicynob" fill="#fff">
                        <use xlink:href="#0wupzc5uda"/>
                    </mask>
                    <path fill="#30516C" d="M77.445 8.134H3.098C1.387 8.134 0 6.49 0 4.463 0 2.435 1.387.79 3.098.79h74.347c1.71 0 3.098 1.644 3.098 3.672 0 2.027-1.387 3.67-3.098 3.67" mask="url(#w6pgicynob)"/>
                </g>
                <path fill="#C5CFD6" d="M17.614 152.553l-3.25 18.685H7.865l-3.251-18.685V28.343c0-1.715 1.455-3.105 3.25-3.105h6.5c1.795 0 3.25 1.39 3.25 3.105v124.21z"/>
                <g transform="translate(3.343 151.907)">
                    <mask id="19fmfzl41d" fill="#fff">
                        <use xlink:href="#rp5g7030gc"/>
                    </mask>
                    <path fill="#CCCBCB" d="M.546.838L3.618 27.34c.331 1.431 1.525 2.436 2.894 2.436 1.368 0 2.562-1.005 2.894-2.436L12.478.84H.546z" mask="url(#19fmfzl41d)"/>
                </g>
                <mask id="g6uc5n7hmf" fill="#fff">
                    <use xlink:href="#ipnv63ic7e"/>
                </mask>
                <path fill="#F5822D" d="M3.722 58.908L16.722 58.908 16.722 45.908 3.722 45.908z" mask="url(#g6uc5n7hmf)"/>
                <path fill="#C5CFD6" d="M47.696 152.774l-3.25 18.686h-6.498l-3.252-18.686V28.565c0-1.715 1.456-3.105 3.25-3.105h6.5c1.795 0 3.25 1.39 3.25 3.105v124.21z" mask="url(#g6uc5n7hmf)"/>
                <path fill="#CCCBCB" d="M34.78 154.819l3.347 24.727c.361 1.336 1.661 2.273 3.153 2.273 1.49 0 2.791-.937 3.153-2.273l3.347-24.727h-13z" mask="url(#g6uc5n7hmf)"/>
                <path fill="#F5822D" d="M34.77 58.871L47.77 58.871 47.77 45.871 34.77 45.871z" mask="url(#g6uc5n7hmf)"/>
                <path fill="#C5CFD6" d="M78.098 152.698l-3.25 15.81h-6.5l-3.25-15.81V26.658c0-1.74 1.455-3.15 3.25-3.15h6.5c1.794 0 3.25 1.41 3.25 3.15v126.04z" mask="url(#g6uc5n7hmf)"/>
                <path fill="#CCCBCB" d="M65.828 154.782l3.347 24.727c.361 1.335 1.662 2.273 3.153 2.273s2.791-.938 3.153-2.273l3.347-24.727h-13z" mask="url(#g6uc5n7hmf)"/>
                <path fill="#F5822D" d="M65.818 58.833L78.818 58.833 78.818 45.833 65.818 45.833zM18.008-.166h11.5c3.176 0 5.75 2.91 5.75 6.5s-2.574 6.5-5.75 6.5h-11.5c-3.175 0-5.75-2.91-5.75-6.5s2.575-6.5 5.75-6.5M54.404.435h11.5c3.175 0 5.75 2.91 5.75 6.5s-2.575 6.5-5.75 6.5h-11.5c-3.175 0-5.75-2.91-5.75-6.5s2.574-6.5 5.75-6.5" mask="url(#g6uc5n7hmf)"/>
            </g>
        </g>
    </g>
</svg>
