<svg xmlns="http://www.w3.org/2000/svg" xmlns:xlink="http://www.w3.org/1999/xlink" width="140" height="140" viewBox="0 0 140 140">
    <defs>
        <circle id="bvb9502z0a" cx="70" cy="70" r="70"/>
        <path id="mdm03s9spc" d="M0.066 0.168L51.466 0.168 51.466 71.088 0.066 71.088z"/>
    </defs>
    <g fill="none" fill-rule="evenodd">
        <g>
            <g transform="translate(-120 -639) translate(120 639)">
                <mask id="bfnbyzvelb" fill="#fff">
                    <use xlink:href="#bvb9502z0a"/>
                </mask>
                <use fill="#F8F8F8" xlink:href="#bvb9502z0a"/>
                <g mask="url(#bfnbyzvelb)">
                    <g>
                        <path fill="#72AEAE" d="M119.097 156.407c-6.539 9.02-15.544 16.353-22.038 22.486-5.55 5.236-9.259 9.606-8.032 13.404 2.666 8.244 10.426 45.83 8.73 48.984-1.7 3.154-14.187 2.667-14.187 2.667s-19.52-56.744-19.52-63.776c0-5.579 24.56-33.882 34.72-45.356h.005c.694-.786 1.319-1.494 1.871-2.112 1.538-1.725 2.445-2.73 2.445-2.73s22.28-6.41 26.676-5.334c.087.019.169.047.251.081 4.02 1.548.965 15.283-10.92 31.686" transform="translate(17.5 11.667)"/>
                        <path fill="#DBE0E4" d="M52.813 83.415s-19.722-4.526-21.42.727c-1.699 5.254-2.344 15.681 2.586 16.733 4.93 1.051 17.54.08 20.694-3.638 3.152-3.719 4.058-12.729-1.86-13.822" transform="translate(17.5 11.667)"/>
                        <path fill="#3A3A3A" d="M54.248 65.938s-1.315.3-3.34-5.633c-2.027-5.936-.139-12.55 2.392-10.637 2.531 1.916 4.4 17.194.948 16.27" transform="translate(17.5 11.667)"/>
                        <g transform="translate(17.5 11.667) translate(99.504 118.565)">
                            <mask id="kkrp2pxp8d" fill="#fff">
                                <use xlink:href="#mdm03s9spc"/>
                            </mask>
                            <path fill="#9AD8DC" d="M39.318 42.208c0 4.204-5.015 12.449-9.54 18.268-4.525 5.82-4.724 8.353-5.141 8.73-.456.409-.932.747-1.426 1.019C13.56 75.502-2.867 55.201.518 46.898c3.555-8.732 13.254-34.6 27.645-43.49C35.302-1.002 40.927-.6 44.86 2.743c4.001 3.394 6.256 9.821 6.582 17.314.645 14.875-12.125 17.946-12.125 22.15" mask="url(#kkrp2pxp8d)"/>
                        </g>
                        <path fill="#9AD8DC" d="M143.225 120.455l-13.207 4.267-22.426 7.246c-.131.043-.262.082-.389.12l-8.428 2.727h-.006s-13.622-11.713-23.323-13.813c-2.561-.553-5.063-2.313-7.323-4.767-6.286-6.844-10.632-19.08-8.846-25.628 2.43-8.89 13.919-34.59 13.919-34.59l1.037.723s.747-.32 7.028 3.24c.423.232.868.484 1.34.761 7.516 4.365 28.492 30.07 29.098 31.04.554.884 26.186 23.886 30.813 28.033.422.379.669.602.709.635l.004.006z" transform="translate(17.5 11.667)"/>
                        <path fill="#FFD77B" d="M46.831 118.731C46.346 118.416-1.345 2.016 1.726 1.37 4.799.723 11.104-2.188 18.54 8.16c7.437 10.347 28.291 103.467 28.291 103.467v7.105z" transform="translate(17.5 11.667)"/>
                        <path fill="#B28B67" d="M55.158 101.926s-4.022 6.061-6.69 6.79l-7.7-3.8s-4.04 5.82-1.939 10.427c0 0 13.903 12.126 16.814 11.318 2.909-.81 10.589-12.773 10.589-12.773l-11.074-11.962z" transform="translate(17.5 11.667)"/>
                        <path fill="#E8ECEF" d="M30.146 100.095s-4.532 10.54-3.38 12.298c1.15 1.758 6.91 5.335 10.305 5.76 3.396.424 4.85 0 4.85 0s-1.257-8.516 3.16-11.11c0 0 1.812-3.561 1.205-5.44-.606-1.88-2.061-.33-2.061-.33s-2.425 1.178-4.244-.095c-1.82-1.274-8.696-3.902-9.835-1.083" transform="translate(17.5 11.667)"/>
                        <path fill="#B28B67" d="M51.336 53.774s.829.364 2.365 6.184c1.535 5.82 2.485 9.256 6.041 12.408 3.558 3.151 6.629 5.497 10.59 1.131 3.961-4.364 6.791-11.047 6.346-15.466-.446-4.419-1.19-7.224-1.19-7.224l-24.152 2.967z" transform="translate(17.5 11.667)"/>
                        <path fill="#83BCBD" d="M64.958 78.807L58.4 87.052c-6.559 8.245-2.294 6.972-4.52 8.364-2.915 1.824-1.35 1.64-2.078 2.852-.727 1.212-3.334 2.363-3.334 2.363s7.032 14.98 16.43 18.1c0 0 5.819-4.337 9.335-12.157 3.516-7.821 2.639-26.14-7.276-27.287" transform="translate(17.5 11.667)"/>
                        <path fill="#030105" d="M72.723 51.987s1.657 4.268 2.143 4.39c.484.12.686-.607.686-.607s-.185-3.391.15-3.595c.335-.205.861-1.66-.231-2.831-1.091-1.172-2.748 2.505-2.748 2.505" transform="translate(17.5 11.667)"/>
                        <path fill="#FCB62F" d="M76.712 44.77l-27.408 8.493s-6.955-18.024 6.79-21.42c2.221-.546 4.24-.75 6.063-.668 8.604.385 12.968 7.086 14.555 13.595.16.65-.106-.64 0 0" transform="translate(17.5 11.667)"/>
                        <path fill="#FCB62F" d="M76.127 49.526c.843-3.581.259-5.557.259-5.557l-26.694 7.679-.856.209s-4.04 5.631-1.291 5.792c2.748.162 27.485-3.452 28.582-8.123" transform="translate(17.5 11.667)"/>
                        <path fill="#E39F23" d="M76.712 44.77c-6.077 5.136-26.554 7.421-27.418 7.202-.96-.242-1.05-1.092 6.287-1.979 7.334-.892 10.753-2.02 12.757-4.772 4.545-6.243-3.03-12.154-6.181-14.046 8.604.385 12.968 7.086 14.555 13.595" transform="translate(17.5 11.667)"/>
                        <path fill="#B28B67" d="M75.61 52.347s-.058-2.008 1.76-1.536c1.819.472 1.431 6.462.364 7.142-1.067.678-1.152.512-1.152.512l-.971-6.118z" transform="translate(17.5 11.667)"/>
                        <path fill="#5D5D5D" d="M51.862 63.06c-.59 0-1.301-.115-1.636-.601-.185-.27-.317-.747.112-1.478 1.011-1.725 2.449-3.904 2.458-3.925l.323.834c-.235.461-.918 1.83-1.944 3.581-.17.291-.161.422-.149.439.116.169.875.226 1.534.121 7.828-.905 20.682-3.023 21.946-4.867 1.108-1.62 1.738-4.384 1.772-7.784l.001-.079.97.013-.001.076c-.036 3.591-.726 6.546-1.942 8.322-1.93 2.814-20.501 5.036-22.613 5.28-.161.026-.474.067-.831.067" transform="translate(17.5 11.667)"/>
                        <path fill="#5D5D5D" d="M53.63 69.37c-.564 0-1.245-.109-1.566-.577-.179-.262-.307-.721.104-1.422.95-1.621 2.474-3.917 2.483-3.938l.303 1c-.01.02-.982 1.779-1.949 3.427-.14.237-.147.361-.14.387.089.129.773.203 1.416.1 7.364-.852 19.457-2.842 20.641-4.571 1.04-1.52 1.63-4.116 1.664-7.311v-.075l.97.012-.001.073c-.034 3.435-.668 6.149-1.834 7.85-1.822 2.659-19.319 4.751-21.308 4.982-.151.025-.447.063-.783.063" transform="translate(17.5 11.667)"/>
                        <path fill="#5D5D5D" d="M64.36 75.792c-2.794-1.619-3.825-6.324-4-6.892l-3.533-6.967.85-.467 3.581 7.076c.02.062 1.523 5.632 4.075 7.111l-.974.139zM68.444 75.263l-.804-.04c.479-.488.31-4.166.035-7.773l-.002-7.478h.97v7.44c.185 2.4.885 6.95-.199 7.851" transform="translate(17.5 11.667)"/>
                        <path fill="#E8ECEF" d="M51.115 89.8s-13.903 1.051-15.357-1.292c-1.455-2.345 1.029-4.84 4.515-5.087 3.487-.249 10.842-.33 10.842-.33s6.224 4.77 0 6.71" transform="translate(17.5 11.667)"/>
                        <path fill="#DBE0E4" d="M34.1 89.183s8.501.833 9.215 2.497c.714 1.665 5.417 8.027 3.095 8.62-2.323.596-10.35.18-12.31-2.258-1.963-2.438 0-8.86 0-8.86" transform="translate(17.5 11.667)"/>
                        <path fill="#EFC370" d="M35.758 88.507S4.886 3.238 8.87 1.52C12.854-.198 1.385-1.05.104 2.23c-2.247 5.757 32.69 88.805 35.654 86.277" transform="translate(17.5 11.667)"/>
                        <path fill="#E9EAE9" d="M41.844 90.035s4.852.86 4.566 3.17c-.285 2.31-3.484 1.066-3.484 1.066s3.089 1.086 3.055 2.083c-.034.997-1.848 2.39-1.848 2.39s1.336 1.478.213 1.998c-1.124.518 3.357-.37 3.357-.37s3.276-.128 4.1-2.104c.823-1.977-.057-1.55 2.403-3.07 0 0-3.462-1.383-6.72-3.761-3.257-2.378-4.226-1.253-5.642-1.402" transform="translate(17.5 11.667)"/>
                        <path fill="#5D5D5D" d="M61.885 76.03c-1.99 0-3.452-.195-3.731-.317-.312-.137-.523-.391-.596-.714-.235-1.054 1.124-2.716 1.546-3.2l.715.622c-.718.824-1.425 1.973-1.336 2.372.765.321 9.212.925 13.85-2.207 4.519-3.05 3.102-8.073 3.039-8.287l.833-.8c.018.06 1.763 6.428-3.341 9.872-3.183 2.15-7.767 2.66-10.979 2.66" transform="translate(17.5 11.667)"/>
                    </g>
                </g>
            </g>
        </g>
    </g>
</svg>
