<svg xmlns="http://www.w3.org/2000/svg" xmlns:xlink="http://www.w3.org/1999/xlink" width="140" height="140" viewBox="0 0 140 140">
    <defs>
        <path id="wi8hsnptgc" d="M0.177 0.184L67.273 0.184 67.273 91.679 0.177 91.679z"/>
        <path id="nx7rf5s8ve" d="M0 0.115L93.302 0.115 93.302 93.416 0 93.416z"/>
        <circle id="1cheu1xyfa" cx="70" cy="70" r="70"/>
    </defs>
    <g fill="none" fill-rule="evenodd">
        <g>
            <g transform="translate(-614 -644) translate(614 644)">
                <mask id="sn2w9lyihb" fill="#fff">
                    <use xlink:href="#1cheu1xyfa"/>
                </mask>
                <use fill="#F8F8F8" xlink:href="#1cheu1xyfa"/>
                <g mask="url(#sn2w9lyihb)">
                    <g>
                        <g transform="translate(17.5 44.333) translate(36.828 13.206)">
                            <mask id="j0dy4f0kvd" fill="#fff">
                                <use xlink:href="#wi8hsnptgc"/>
                            </mask>
                            <path fill="#FCB62F" d="M56.09 91.68H11.36C5.193 91.68.177 86.662.177 80.496V27.632c0-.66.213-1.301.61-1.83L19.085 1.405c.577-.768 1.48-1.22 2.441-1.22h24.398c.96 0 1.865.452 2.44 1.22l18.3 24.399c.395.528.61 1.17.61 1.83v52.864c0 6.166-5.017 11.182-11.183 11.182" mask="url(#j0dy4f0kvd)"/>
                        </g>
                        <path fill="#E39F23" d="M103.492 39.009l-18.3-24.4c-.575-.767-1.48-1.218-2.44-1.218H70.554v91.495H92.92c6.166 0 11.183-5.017 11.183-11.183V40.839c0-.66-.214-1.302-.61-1.83" transform="translate(17.5 44.333)"/>
                        <g transform="translate(17.5 44.333) translate(0 .67)">
                            <mask id="9ge1fz2asf" fill="#fff">
                                <use xlink:href="#nx7rf5s8ve"/>
                            </mask>
                            <path fill="#FCB62F" d="M34.9 90.146L3.27 58.517c-4.36-4.36-4.36-11.454 0-15.816l37.38-37.38c.468-.467 1.073-.768 1.726-.862L72.568.146c.95-.136 1.91.183 2.588.862L92.409 18.26c.678.679.998 1.638.863 2.587l-4.314 30.193c-.093.654-.396 1.258-.862 1.725l-37.38 37.38c-4.361 4.36-11.456 4.36-15.816 0" mask="url(#9ge1fz2asf)"/>
                        </g>
                        <path fill="#FDB13E" d="M88.958 51.71l4.313-30.192c.136-.95-.183-1.909-.863-2.588l-8.625-8.626-64.698 64.697L34.9 90.816c4.36 4.36 11.455 4.36 15.815 0l37.38-37.381c.467-.466.77-1.071.863-1.725" transform="translate(17.5 44.333)"/>
                        <path fill="#ECECEC" d="M36.339 72.128c-.792-.792-1.116-1.99-.738-3.123l14.377-43.132c.533-1.598 2.26-2.462 3.858-1.929 1.599.532 2.461 2.26 1.929 3.858L41.387 70.933c-.532 1.598-2.259 2.462-3.856 1.929-.465-.155-.868-.41-1.192-.734M66.53 50.56c-1.189 1.191-3.124 1.191-4.315 0-1.188-1.19-1.188-3.124 0-4.314 1.19-1.19 3.126-1.19 4.315 0 1.19 1.19 1.19 3.124 0 4.315m4.316-8.63c-3.57-3.57-9.377-3.57-12.946 0-3.568 3.569-3.568 9.376 0 12.945 3.57 3.57 9.376 3.57 12.946 0 3.57-3.57 3.57-9.376 0-12.946M29.15 50.56c-1.19 1.191-3.125 1.191-4.315 0-1.19-1.19-1.19-3.124 0-4.314s3.125-1.19 4.315 0c1.19 1.19 1.19 3.124 0 4.315m4.316-8.63c-3.57-3.57-9.377-3.57-12.946 0-3.57 3.569-3.57 9.376 0 12.945 3.57 3.57 9.376 3.57 12.946 0 3.569-3.57 3.569-9.376 0-12.946" transform="translate(17.5 44.333)"/>
                        <path fill="#ECECEC" d="M41.388 70.933l9.117-27.352-9.645 9.644-5.259 15.779c-.378 1.134-.053 2.333.738 3.123.324.324.726.58 1.19.735 1.599.533 3.326-.331 3.859-1.929" transform="translate(17.5 44.333)"/>
                        <path fill="#E39F23" d="M92.409 1.677c-1.192-1.19-3.122-1.19-4.313 0L70.844 18.93l4.312 4.312L92.409 5.99c1.191-1.191 1.191-3.122 0-4.313" transform="translate(17.5 44.333)"/>
                        <path fill="#E39F23" d="M92.409 5.99c1.191-1.191 1.191-3.122 0-4.313l-19.41 19.41 2.157 2.156L92.409 5.99z" transform="translate(17.5 44.333)"/>
                        <path fill="#FDB13E" d="M77.313 28.449c-.781 0-1.562-.298-2.157-.893l-8.627-8.626c-1.19-1.192-1.19-3.123 0-4.314 1.192-1.19 3.123-1.19 4.314 0l8.627 8.626c1.19 1.192 1.19 3.123 0 4.314-.596.595-1.376.893-2.157.893" transform="translate(17.5 44.333)"/>
                        <path fill="#FDB13E" d="M79.47 23.242l-4.314-4.312-4.313 4.312 4.313 4.314c.596.596 1.377.893 2.157.893s1.561-.297 2.156-.893c1.192-1.191 1.192-3.122 0-4.314" transform="translate(17.5 44.333)"/>
                    </g>
                </g>
            </g>
        </g>
    </g>
</svg>
