<svg xmlns="http://www.w3.org/2000/svg" width="10" height="13" viewBox="0 0 10 13">
    <g fill="none" fill-rule="evenodd">
        <g fill="#DE2704">
            <g>
                <path d="M4.533.2L.192 4.714c-.124.129-.192.3-.192.484 0 .183.068.355.192.484l.394.41c.124.128.289.2.465.2.176 0 .347-.072.47-.2l2.54-2.634v8.367c0 .377.283.675.646.675h.557c.363 0 .676-.298.676-.675V3.428l2.552 2.663c.124.13.285.2.461.2.176 0 .339-.07.463-.2l.393-.41c.124-.128.191-.3.191-.483s-.068-.355-.192-.484L5.467.2C5.342.07 5.177 0 5 0c-.177 0-.343.07-.467.2" transform="translate(-423 -471) matrix(1 0 0 -1 423 484)"/>
            </g>
        </g>
    </g>
</svg>
