<?xml version="1.0" encoding="UTF-8"?>
<svg width="80px" height="80px" viewBox="0 0 80 80" version="1.1" xmlns="http://www.w3.org/2000/svg" xmlns:xlink="http://www.w3.org/1999/xlink">
    <title>english</title>
    <defs>
        <rect id="path-1" x="0" y="0" width="80" height="80"></rect>
        <polygon id="path-3" points="0.588369825 0.545411264 89.8572983 0.545411264 89.8572983 61.7037717 0.588369825 61.7037717"></polygon>
        <polygon id="path-5" points="0.559799562 0.138526947 82.6922267 0.138526947 82.6922267 59.1665697 0.559799562 59.1665697"></polygon>
    </defs>
    <g id="desktop" stroke="none" stroke-width="1" fill="none" fill-rule="evenodd">
        <g id="02.4_rsults-copy" transform="translate(-994.000000, -292.000000)">
            <g id="english" transform="translate(994.000000, 292.000000)">
                <mask id="mask-2" fill="white">
                    <use xlink:href="#path-1"></use>
                </mask>
                <g id="Mask"></g>
                <g id="Group-2" mask="url(#mask-2)">
                    <g transform="translate(8.000000, 26.000000)" id="Group-25-Copy">
                        <g transform="translate(0.000000, 0.000000)">
                            <path d="M8.53426318,2.23784687 L5.55664125,0.313647131 C2.89864742,-1.41054388 -2.43856303,4.41543388 1.2689943,7.1158733 C1.6709411,7.40913369 2.49927308,7.98536463 3.60414445,8.74424019 C3.96814748,6.35635462 5.47367943,3.64176667 8.53426318,2.23784687" id="Fill-1" fill="#353535"></path>
                            <path d="M13.5629714,5.4885997 L12.8073114,4.99983238 C9.58401961,6.2879915 7.96272698,8.98135665 7.50675853,11.4084722 C7.75757333,11.5788977 8.0109606,11.7512525 8.26884967,11.9261797 C8.71452829,9.49263299 10.3326053,6.7844762 13.5629714,5.4885997" id="Fill-5" fill="#353535"></path>
                            <path d="M17.0485898,17.8679825 C20.4686748,20.1767649 23.0771488,21.9311823 23.0771488,21.9311823 L32.1881574,17.5264885 L23.1530363,11.6870053 C19.5734589,12.7204909 17.6891322,15.3656225 17.0485898,17.8679825" id="Fill-7" fill="#353535"></path>
                            <path d="M18.8234583,8.88823362 L17.8620015,8.26698464 C14.4682843,9.43488127 12.7183686,12.1076667 12.1730072,14.5727261 C12.4913491,14.7888127 12.8103341,15.0042562 13.1280328,15.2190566 C13.6669631,12.7462798 15.4175218,10.0593458 18.8234583,8.88823362" id="Fill-9" fill="#353535"></path>
                            <g id="Group-13" transform="translate(21.222791, 16.010988)">
                                <mask id="mask-4" fill="white">
                                    <use xlink:href="#path-3"></use>
                                </mask>
                                <g id="Clip-12"></g>
                                <path d="M85.8732016,49.6716858 C88.2070655,51.2981233 89.760188,53.5380925 87.3337155,54.7027735 C84.9078862,55.8687408 78.3075981,59.0373679 78.3075981,59.0373679 C78.3075981,59.0373679 84.5773251,55.4294934 86.0410546,54.2493775 C87.504141,53.0686186 86.8481638,51.9508849 84.9921342,50.5726897 C83.1361046,49.1951376 56.5220812,30.0869081 56.5220812,30.0869081 C56.5220812,30.0869081 83.5393377,48.0458913 85.8732016,49.6716858 M1.33639274,9.83457717 L69.5123589,60.1448117 C71.9742027,61.9616113 75.2573042,62.2104967 77.9654609,60.7859973 L88.4327989,55.2796476 C90.2007217,54.3490604 90.3569986,51.8807854 88.7125538,50.7469739 C74.5768886,41.0005677 23.3605052,5.70835205 15.8502095,0.839972355 C15.3112792,0.490760971 14.6347224,0.450244733 14.055919,0.728070364 L9.92583518,2.71079356 L42.3362531,27.0121758 L5.05874171,5.04851618 L1.6328687,6.69424718 C0.381367128,7.29427337 0.219945292,9.01010389 1.33639274,9.83457717" id="Fill-11" fill="#DBA670" mask="url(#mask-4)"></path>
                            </g>
                            <polygon id="Fill-14" fill="#353535" points="3.42889565 8.62378477 17.867468 18.4158521 18.2038171 18.1766133 3.47327057 8.13308812"></polygon>
                            <polygon id="Fill-16" fill="#353535" points="7.71024008 2.22279799 22.9887205 12.0296569 23.3237833 11.7897751 7.75397189 1.73145821"></polygon>
                            <polygon id="Fill-18" fill="#DBA670" points="34.5992594 17.0653108 26.0464745 21.1728856 63.5587228 43.0227139"></polygon>
                            <g id="Group-22" transform="translate(21.222791, 18.583448)">
                                <mask id="mask-6" fill="white">
                                    <use xlink:href="#path-5"></use>
                                </mask>
                                <g id="Clip-21"></g>
                                <path d="M82.2092475,55.3177843 C82.2092475,55.3177843 14.815309,2.43058841 9.92570655,0.138526947 L1.63274008,4.12198056 C1.63274008,4.12198056 0.189590269,4.75737807 0.650703643,6.25519264 C0.650703643,6.25519264 0.624979048,7.06873298 2.14530264,7.85847806 L69.5122302,57.5725451 C69.5122302,57.5725451 73.5085462,60.9482552 78.6084472,57.8754522 L82.4954336,55.83099 L82.6922267,55.7274485 L82.2092475,55.3177843 Z" id="Fill-20" fill="#E8B581" mask="url(#mask-6)"></path>
                            </g>
                            <polygon id="Fill-23" fill="#353535" points="22.970456 11.7426347 7.16655075 1.73190839 2.91170265 8.26724188 19.2429621 18.9628856"></polygon>
                        </g>
                    </g>
                </g>
            </g>
        </g>
    </g>
</svg>