<svg xmlns="http://www.w3.org/2000/svg" xmlns:xlink="http://www.w3.org/1999/xlink" width="21" height="16" viewBox="0 0 21 16">
    <defs>
        <path id="wjrtv5zs9a" d="M0 0.51L4.535 0.51 4.535 1.379 0 1.379z"/>
    </defs>
    <g fill="none" fill-rule="evenodd">
        <g>
            <g>
                <path fill="#000" d="M9.26 3.874h10.432H9.26z" transform="translate(-1066 -213) translate(1066 213)"/>
                <g>
                    <path fill="#000" d="M19.692 3.985H9.26c-.241 0-.436-.195-.436-.434 0-.24.195-.435.436-.435h10.432c.24 0 .436.195.436.435s-.196.434-.436.434M.436 3.551L4.099 3.551" transform="translate(-1066 -213) translate(1066 213) translate(0 .324)"/>
                    <g transform="translate(-1066 -213) translate(1066 213) translate(0 .324) translate(0 2.606)">
                        <mask id="c0fjtyajyb" fill="#fff">
                            <use xlink:href="#wjrtv5zs9a"/>
                        </mask>
                        <path fill="#000" d="M4.099 1.379H.436C.196 1.379 0 1.184 0 .944S.195.51.436.51h3.663c.24 0 .436.194.436.434s-.195.435-.436.435" mask="url(#c0fjtyajyb)"/>
                    </g>
                    <path fill="#000" d="M6.68 1.414c-1.183 0-2.145.959-2.145 2.136 0 1.178.962 2.137 2.144 2.137 1.183 0 2.145-.959 2.145-2.137 0-1.177-.962-2.136-2.145-2.136m0 5.142c-1.663 0-3.016-1.348-3.016-3.006C3.663 1.893 5.016.545 6.68.545c1.664 0 3.017 1.348 3.017 3.005 0 1.658-1.353 3.006-3.017 3.006M10.868 10.026L.436 10.026M10.868 11.691H.436c-.241 0-.436-.194-.436-.434s.195-.434.436-.434h10.432c.24 0 .436.194.436.434s-.196.434-.436.434M19.692 11.691h-3.663c-.241 0-.436-.194-.436-.434s.195-.434.436-.434h3.663c.24 0 .436.194.436.434s-.196.434-.436.434" transform="translate(-1066 -213) translate(1066 213) translate(0 .324)"/>
                    <path fill="#000" d="M13.448 9.12c-1.182 0-2.144.959-2.144 2.137s.962 2.136 2.144 2.136c1.183 0 2.145-.958 2.145-2.136 0-1.178-.962-2.136-2.145-2.136m0 5.141c-1.663 0-3.016-1.347-3.016-3.005 0-1.657 1.353-3.005 3.016-3.005 1.664 0 3.016 1.348 3.016 3.005 0 1.658-1.352 3.005-3.016 3.005" transform="translate(-1066 -213) translate(1066 213) translate(0 .324)"/>
                </g>
            </g>
        </g>
    </g>
</svg>
