<?xml version="1.0" encoding="UTF-8"?>
<svg width="250px" height="230px" viewBox="0 0 250 230" version="1.1" xmlns="http://www.w3.org/2000/svg" xmlns:xlink="http://www.w3.org/1999/xlink">
    <title>gully</title>
    <defs>
        <rect id="path-1" x="0" y="0" width="250" height="230"></rect>
    </defs>
    <g id="desktop" stroke="none" stroke-width="1" fill="none" fill-rule="evenodd">
        <g id="02.1_pick-a-bat-copy" transform="translate(-223.000000, -297.000000)">
            <g id="gully" transform="translate(223.000000, 297.000000)">
                <mask id="mask-2" fill="white">
                    <use xlink:href="#path-1"></use>
                </mask>
                <g id="Mask"></g>
                <g id="Group-46" mask="url(#mask-2)">
                    <g transform="translate(3.000000, 63.000000)">
                        <polygon id="Fill-1" fill="#9BA2AB" points="145.659039 112.410319 145.659039 125.33879 157.970437 125.33879 157.970437 110.31045"></polygon>
                        <polygon id="Fill-2" fill="#9BA2AB" points="98.8078341 107.637672 98.8078341 124.077279 87.3559127 124.077279"></polygon>
                        <polygon id="Fill-3" fill="#D7DBDE" points="153.205284 19.2682707 153.205284 123.287572 176.079039 126.013031 210.809476 122.511546 210.809476 28.4170917 204.665415 28.4170917 204.665415 19.2682707"></polygon>
                        <polygon id="Fill-4" fill="#9BA2AB" points="95.2764323 123.741834 57.6031135 123.741834 57.6031135 25.7740611 98.8080044 25.7740611 98.8080044 107.637729 95.2764323 113.019389"></polygon>
                        <polygon id="Fill-5" fill="#83BCBD" points="64.117476 10.7713231 57.6027162 10.7713231 52.2210568 53.797917 57.6038515 122.46914 64.117476 121.554598"></polygon>
                        <polygon id="Fill-6" fill="#9AD8DC" points="6.14326638 -0.000227074236 6.14326638 10.771607 -0.000227074236 10.771607 -0.000227074236 121.554314 34.7296419 125.677415 57.6039651 122.468856 57.6039651 -0.000227074236"></polygon>
                        <polygon id="Fill-7" fill="#F1FFFA" points="18.8369432 36.6219651 26.4047598 36.6219651 26.4047598 25.8586463 18.8369432 25.8586463"></polygon>
                        <polygon id="Fill-8" fill="#F1FFFA" points="37.6733188 36.6219651 45.2411354 36.6219651 45.2411354 25.8586463 37.6733188 25.8586463"></polygon>
                        <polygon id="Fill-9" fill="#F1FFFA" points="18.8369432 58.1491703 26.4047598 58.1491703 26.4047598 47.3858515 18.8369432 47.3858515"></polygon>
                        <polygon id="Fill-10" fill="#F1FFFA" points="37.6733188 58.1491703 45.2411354 58.1491703 45.2411354 47.3858515 37.6733188 47.3858515"></polygon>
                        <polygon id="Fill-11" fill="#F1FFFA" points="18.8369432 79.6775109 26.4047598 79.6775109 26.4047598 68.9141921 18.8369432 68.9141921"></polygon>
                        <polygon id="Fill-12" fill="#F1FFFA" points="37.6733188 79.6775109 45.2411354 79.6775109 45.2411354 68.9141921 37.6733188 68.9141921"></polygon>
                        <polygon id="Fill-13" fill="#F1FFFA" points="18.8369432 101.204716 26.4047598 101.204716 26.4047598 90.4413974 18.8369432 90.4413974"></polygon>
                        <polygon id="Fill-14" fill="#F1FFFA" points="37.6733188 101.204716 45.2411354 101.204716 45.2411354 90.4413974 37.6733188 90.4413974"></polygon>
                        <polygon id="Fill-15" fill="#D7DBDE" points="73.8331878 58.1491703 81.4010044 58.1491703 81.4010044 47.3858515 73.8331878 47.3858515"></polygon>
                        <polygon id="Fill-16" fill="#D7DBDE" points="73.8331878 79.6775109 81.4010044 79.6775109 81.4010044 68.9141921 73.8331878 68.9141921"></polygon>
                        <polygon id="Fill-17" fill="#8C9BA7" points="45.9707817 121.554598 40.4477686 126.474162 45.9707817 129.124118 156.457157 129.124118 156.457157 121.554598"></polygon>
                        <polygon id="Fill-18" fill="#A9B8C6" points="0 129.124061 57.6030568 129.124061 57.6030568 121.555109 0 121.555109"></polygon>
                        <polygon id="Fill-19" fill="#9BA2AB" points="149.191009 116.30924 145.658869 112.410376 145.658869 53.1031266 186.864328 53.1031266 186.864328 124.07745 149.191009 124.07745"></polygon>
                        <polygon id="Fill-20" fill="#9AD8DC" points="186.863306 9.88959389 186.863306 123.048633 209.737061 126.013655 244.46693 122.203349 244.46693 19.8422576 238.324004 19.8422576 238.324004 9.88959389"></polygon>
                        <polygon id="Fill-21" fill="#F1FFFA" points="218.062795 36.9574672 225.630611 36.9574672 225.630611 26.1941485 218.062795 26.1941485"></polygon>
                        <polygon id="Fill-22" fill="#F1FFFA" points="199.225852 36.9574672 206.793668 36.9574672 206.793668 26.1941485 199.225852 26.1941485"></polygon>
                        <polygon id="Fill-23" fill="#F1FFFA" points="218.062795 58.4846725 225.630611 58.4846725 225.630611 47.7213537 218.062795 47.7213537"></polygon>
                        <polygon id="Fill-24" fill="#F1FFFA" points="199.225852 58.4846725 206.793668 58.4846725 206.793668 47.7213537 199.225852 47.7213537"></polygon>
                        <polygon id="Fill-25" fill="#F1FFFA" points="218.062795 80.0130131 225.630611 80.0130131 225.630611 69.2496943 218.062795 69.2496943"></polygon>
                        <polygon id="Fill-26" fill="#F1FFFA" points="199.225852 80.0130131 206.793668 80.0130131 206.793668 69.2496943 199.225852 69.2496943"></polygon>
                        <polygon id="Fill-27" fill="#F1FFFA" points="218.062795 101.540218 225.630611 101.540218 225.630611 90.7768996 218.062795 90.7768996"></polygon>
                        <polygon id="Fill-28" fill="#F1FFFA" points="199.225852 101.540218 206.793668 101.540218 206.793668 90.7768996 199.225852 90.7768996"></polygon>
                        <polygon id="Fill-29" fill="#D7DBDE" points="163.06655 73.6168996 170.634367 73.6168996 170.634367 62.8535808 163.06655 62.8535808"></polygon>
                        <polygon id="Fill-30" fill="#D7DBDE" points="163.06655 95.1446725 170.634367 95.1446725 170.634367 84.3813537 163.06655 84.3813537"></polygon>
                        <polygon id="Fill-31" fill="#8C9BA7" points="133.044838 121.890271 133.044838 129.459223 186.864271 129.459223 189.554533 126.809834 186.864271 121.890271"></polygon>
                        <polygon id="Fill-32" fill="#A9B8C6" points="186.864498 129.458996 244.467555 129.458996 244.467555 121.890044 186.864498 121.890044"></polygon>
                        <g id="Group-45" stroke-width="1" fill="none" transform="translate(113.537118, 90.856376)">
                            <path d="M2.07784279,32.8970961 L0.521816594,30.6876638 C0.375353712,30.4810262 0.293606987,30.2000218 0.293606987,29.9065284 L0.293606987,3.76290393 C0.293606987,1.93552402 1.34041921,0.448755459 2.62793013,0.448755459 C3.91487336,0.448755459 4.96168559,1.93552402 4.96168559,3.76290393 L4.96168559,29.9065284 C4.96168559,30.2000218 4.88050655,30.4810262 4.73404367,30.6876638 L3.17744978,32.8970961 C2.87373799,33.3291048 2.38155459,33.3285371 2.07784279,32.8970961" id="Fill-33" fill="#FCB62F"></path>
                            <path d="M2.62781659,0.448925764 L2.62781659,33.2208472 C2.82707424,33.2208472 3.02633188,33.1135546 3.17847162,32.8972664 L4.73449782,30.6884017 C4.88039301,30.4806288 4.96157205,30.2001921 4.96157205,29.9066987 L4.96157205,3.76307424 C4.96157205,1.93626201 3.91475983,0.448925764 2.62781659,0.448925764" id="Fill-35" fill="#FBBD2A"></path>
                            <path d="M9.08024454,32.8970961 L7.52421834,30.6876638 C7.37832314,30.4810262 7.29600873,30.2000218 7.29600873,29.9065284 L7.29600873,3.76290393 C7.29600873,1.93552402 8.34338865,0.448755459 9.63033188,0.448755459 C10.9172751,0.448755459 11.964655,1.93552402 11.964655,3.76290393 L11.964655,29.9065284 C11.964655,30.2000218 11.8829083,30.4810262 11.7370131,30.6876638 L10.1804192,32.8970961 C9.87670742,33.3291048 9.38395633,33.3285371 9.08024454,32.8970961" id="Fill-37" fill="#FCB62F"></path>
                            <path d="M9.63016157,0.448925764 L9.63016157,33.2208472 C9.8299869,33.2208472 10.0286769,33.1135546 10.1808166,32.8972664 L11.7368428,30.6884017 C11.882738,30.4806288 11.9644847,30.2001921 11.9644847,29.9066987 L11.9644847,3.76307424 C11.9644847,1.93626201 10.9176725,0.448925764 9.63016157,0.448925764" id="Fill-39" fill="#FBBD2A"></path>
                            <path d="M16.0825895,32.8970961 L14.5265633,30.6876638 C14.3806681,30.4810262 14.2983537,30.2000218 14.2983537,29.9065284 L14.2983537,3.76290393 C14.2983537,1.93552402 15.3457336,0.448755459 16.6332445,0.448755459 C17.9196201,0.448755459 18.967,1.93552402 18.967,3.76290393 L18.967,29.9065284 C18.967,30.2000218 18.8852533,30.4810262 18.7393581,30.6876638 L17.1827642,32.8970961 C16.8790524,33.3291048 16.3863013,33.3285371 16.0825895,32.8970961" id="Fill-41" fill="#FCB62F"></path>
                            <path d="M16.633131,0.448925764 L16.633131,33.2208472 C16.8323886,33.2208472 17.0310786,33.1135546 17.183786,32.8972664 L18.7398122,30.6884017 C18.8851397,30.4806288 18.9668865,30.2001921 18.9668865,29.9066987 L18.9668865,3.76307424 C18.9668865,1.93626201 17.9200742,0.448925764 16.633131,0.448925764" id="Fill-43" fill="#FBBD2A"></path>
                        </g>
                    </g>
                </g>
            </g>
        </g>
    </g>
</svg>