<?xml version="1.0" encoding="UTF-8"?>
<svg width="80px" height="80px" viewBox="0 0 80 80" version="1.1" xmlns="http://www.w3.org/2000/svg" xmlns:xlink="http://www.w3.org/1999/xlink">
    <title>gully cricket</title>
    <defs>
        <rect id="path-1" x="0" y="0" width="80" height="80"></rect>
    </defs>
    <g id="desktop" stroke="none" stroke-width="1" fill="none" fill-rule="evenodd">
        <g id="02.4_rsults-copy" transform="translate(-642.000000, -292.000000)">
            <g id="gully-cricket" transform="translate(642.000000, 292.000000)">
                <mask id="mask-2" fill="white">
                    <use xlink:href="#path-1"></use>
                </mask>
                <g id="Mask"></g>
                <g id="Group-46" mask="url(#mask-2)">
                    <g transform="translate(-38.000000, 21.000000)">
                        <polygon id="Fill-1" fill="#9BA2AB" points="67.2272489 51.8816856 67.2272489 57.8486725 72.9094323 57.8486725 72.9094323 50.9125153"></polygon>
                        <polygon id="Fill-2" fill="#9BA2AB" points="45.6036157 49.6789258 45.6036157 57.2664367 40.3181135 57.2664367"></polygon>
                        <polygon id="Fill-3" fill="#D7DBDE" points="70.710131 8.89304803 70.710131 56.9019563 81.2672489 58.1598603 97.2966812 56.5437904 97.2966812 13.1155808 94.4609607 13.1155808 94.4609607 8.89304803"></polygon>
                        <polygon id="Fill-4" fill="#9BA2AB" points="43.973738 57.1116157 26.5860524 57.1116157 26.5860524 11.8957205 45.6036943 11.8957205 45.6036943 49.678952 43.973738 52.1627948"></polygon>
                        <polygon id="Fill-17" fill="#8C9BA7" points="21.2172838 56.1021223 18.6682009 58.37269 21.2172838 59.5957467 72.2109956 59.5957467 72.2109956 56.1021223"></polygon>
                        <polygon id="Fill-19" fill="#9BA2AB" points="68.8573886 53.6811878 67.2271703 51.8817118 67.2271703 24.5091354 86.2450742 24.5091354 86.2450742 57.2665153 68.8573886 57.2665153"></polygon>
                        <polygon id="Fill-20" fill="#9AD8DC" points="86.2446026 4.56442795 86.2446026 56.7916769 96.8017205 58.1601485 112.830891 56.4015459 112.830891 9.15796507 109.995694 9.15796507 109.995694 4.56442795"></polygon>
                        <polygon id="Fill-21" fill="#F1FFFA" points="100.644367 17.0572926 104.137205 17.0572926 104.137205 12.089607 100.644367 12.089607"></polygon>
                        <polygon id="Fill-22" fill="#F1FFFA" points="91.950393 17.0572926 95.4432314 17.0572926 95.4432314 12.089607 91.950393 12.089607"></polygon>
                        <polygon id="Fill-23" fill="#F1FFFA" points="100.644367 26.9929258 104.137205 26.9929258 104.137205 22.0252402 100.644367 22.0252402"></polygon>
                        <polygon id="Fill-24" fill="#F1FFFA" points="91.950393 26.9929258 95.4432314 26.9929258 95.4432314 22.0252402 91.950393 22.0252402"></polygon>
                        <polygon id="Fill-25" fill="#F1FFFA" points="100.644367 36.929083 104.137205 36.929083 104.137205 31.9613974 100.644367 31.9613974"></polygon>
                        <polygon id="Fill-26" fill="#F1FFFA" points="91.950393 36.929083 95.4432314 36.929083 95.4432314 31.9613974 91.950393 31.9613974"></polygon>
                        <polygon id="Fill-27" fill="#F1FFFA" points="100.644367 46.8647162 104.137205 46.8647162 104.137205 41.8970306 100.644367 41.8970306"></polygon>
                        <polygon id="Fill-28" fill="#F1FFFA" points="91.950393 46.8647162 95.4432314 46.8647162 95.4432314 41.8970306 91.950393 41.8970306"></polygon>
                        <polygon id="Fill-29" fill="#D7DBDE" points="75.2614847 33.9770306 78.7543231 33.9770306 78.7543231 29.009345 75.2614847 29.009345"></polygon>
                        <polygon id="Fill-30" fill="#D7DBDE" points="75.2614847 43.9129258 78.7543231 43.9129258 78.7543231 38.9452402 75.2614847 38.9452402"></polygon>
                        <polygon id="Fill-31" fill="#8C9BA7" points="61.40531 56.257048 61.40531 59.7504105 86.245048 59.7504105 87.4867074 58.5276157 86.245048 56.257048"></polygon>
                        <polygon id="Fill-32" fill="#A9B8C6" points="86.2451528 59.7503057 112.831179 59.7503057 112.831179 56.2569432 86.2451528 56.2569432"></polygon>
                        <g id="Group-45" stroke-width="1" fill="none" transform="translate(52.401747, 41.933712)">
                            <path d="M0.959004367,15.1832751 L0.240838428,14.1635371 C0.173240175,14.0681659 0.135510917,13.9384716 0.135510917,13.8030131 L0.135510917,1.73672489 C0.135510917,0.893318777 0.618655022,0.207117904 1.21289083,0.207117904 C1.80686463,0.207117904 2.29000873,0.893318777 2.29000873,1.73672489 L2.29000873,13.8030131 C2.29000873,13.9384716 2.25254148,14.0681659 2.18494323,14.1635371 L1.46651528,15.1832751 C1.32634061,15.3826638 1.09917904,15.3824017 0.959004367,15.1832751" id="Fill-33" fill="#FCB62F"></path>
                            <path d="M1.21283843,0.207196507 L1.21283843,15.3326987 C1.30480349,15.3326987 1.39676856,15.283179 1.4669869,15.1833537 L2.18515284,14.1638777 C2.25248908,14.0679825 2.28995633,13.9385502 2.28995633,13.8030917 L2.28995633,1.73680349 C2.28995633,0.893659389 1.80681223,0.207196507 1.21283843,0.207196507" id="Fill-35" fill="#FBBD2A"></path>
                            <path d="M4.1908821,15.1832751 L3.47271616,14.1635371 C3.40537991,14.0681659 3.36738865,13.9384716 3.36738865,13.8030131 L3.36738865,1.73672489 C3.36738865,0.893318777 3.85079476,0.207117904 4.44476856,0.207117904 C5.03874236,0.207117904 5.52214847,0.893318777 5.52214847,1.73672489 L5.52214847,13.8030131 C5.52214847,13.9384716 5.48441921,14.0681659 5.41708297,14.1635371 L4.69865502,15.1832751 C4.55848035,15.3826638 4.33105677,15.3824017 4.1908821,15.1832751" id="Fill-37" fill="#FCB62F"></path>
                            <path d="M4.44468996,0.207196507 L4.44468996,15.3326987 C4.53691703,15.3326987 4.62862009,15.283179 4.69883843,15.1833537 L5.41700437,14.1638777 C5.48434061,14.0679825 5.52206987,13.9385502 5.52206987,13.8030917 L5.52206987,1.73680349 C5.52206987,0.893659389 5.03892576,0.207196507 4.44468996,0.207196507" id="Fill-39" fill="#FBBD2A"></path>
                            <path d="M7.42273362,15.1832751 L6.70456769,14.1635371 C6.63723144,14.0681659 6.59924017,13.9384716 6.59924017,13.8030131 L6.59924017,1.73672489 C6.59924017,0.893318777 7.08264629,0.207117904 7.6768821,0.207117904 C8.27059389,0.207117904 8.754,0.893318777 8.754,1.73672489 L8.754,13.8030131 C8.754,13.9384716 8.71627074,14.0681659 8.6489345,14.1635371 L7.93050655,15.1832751 C7.79033188,15.3826638 7.5629083,15.3824017 7.42273362,15.1832751" id="Fill-41" fill="#FCB62F"></path>
                            <path d="M7.67682969,0.207196507 L7.67682969,15.3326987 C7.76879476,15.3326987 7.86049782,15.283179 7.93097817,15.1833537 L8.6491441,14.1638777 C8.71621834,14.0679825 8.7539476,13.9385502 8.7539476,13.8030917 L8.7539476,1.73680349 C8.7539476,0.893659389 8.27080349,0.207196507 7.67682969,0.207196507" id="Fill-43" fill="#FBBD2A"></path>
                        </g>
                    </g>
                </g>
            </g>
        </g>
    </g>
</svg>