<?xml version="1.0" encoding="UTF-8"?>
<svg width="80px" height="80px" viewBox="0 0 80 80" version="1.1" xmlns="http://www.w3.org/2000/svg" xmlns:xlink="http://www.w3.org/1999/xlink">
    <title>hard tennis</title>
    <defs>
        <rect id="path-1" x="0" y="0" width="80" height="80"></rect>
    </defs>
    <g id="desktop" stroke="none" stroke-width="1" fill="none" fill-rule="evenodd">
        <g id="02.4_rsults-copy" transform="translate(-962.000000, -180.000000)">
            <g id="hard-tennis" transform="translate(962.000000, 180.000000)">
                <mask id="mask-2" fill="white">
                    <use xlink:href="#path-1"></use>
                </mask>
                <g id="Mask"></g>
                <g id="Group-5-Copy" mask="url(#mask-2)">
                    <g transform="translate(-8.000000, 36.000000)" id="sport">
                        <g transform="translate(0.857143, 0.000000)">
                            <path d="M56.5714286,28.2857143 C56.5714286,28.7038899 56.5714286,29.1466235 56.5468707,29.5646838 C55.8599434,44.1725841 44.1726094,55.859942 29.5647388,56.5468707 C29.1465641,56.5714286 28.7038314,56.5714286 28.2857719,56.5714286 C27.8675971,56.5714286 27.4986533,56.5714286 27.1051516,56.5468707 C12.4298336,55.9110177 0.673898999,44.1656664 0.0245578249,29.4910102 C0,29.0973924 0,28.6793321 0,28.2857143 C0,27.8920965 0,27.4494783 0.0245578249,27.0313026 C0.686581444,12.3988445 12.3988192,0.686582843 27.0312476,0.024557875 C27.4494223,0 27.8675971,0 28.2856566,0 C28.7038314,0 29.0973331,0 29.4908348,0.024557875 C44.1575057,0.670672107 55.9007578,12.4138329 56.5467555,27.0805337 C56.5714286,27.4740362 56.5714286,27.8922118 56.5714286,28.2857143 Z" id="Path" fill="#D0C93D" fill-rule="nonzero"></path>
                            <g id="Group" fill="#FAFAFA" fill-rule="nonzero">
                                <path d="M29.4709491,0.0245411696 C29.8237428,8.10330986 26.6907687,15.944732 20.8680594,21.5562491 C15.5962013,26.6604667 8.54228571,29.5083945 1.20436078,29.4955339 C0.811125982,29.4955339 0.417775967,29.4955339 0.0245411696,29.4709491 C0,29.0775991 0,28.6598231 0,28.2664731 C0,27.8731231 0,27.4308059 0.0245411696,27.0129148 C7.12511958,27.3602933 14.0511446,24.7430294 19.1474123,19.7865196 C24.5098307,14.6507326 27.3795345,7.44058307 27.0129148,0.0245411696 C27.4308059,0 27.8486971,0 28.2664731,0 C28.6843643,0 29.0775991,0 29.4709491,0.0245411696 Z" id="Path"></path>
                                <path d="M56.5330614,28.2664731 C56.5330614,28.6843643 56.5330614,29.1267966 56.5085202,29.5445726 C42.2954961,28.8659459 30.2234297,39.8376922 29.5446878,54.0507163 C29.5056293,54.8694466 29.5056293,55.6895595 29.5446878,56.5082898 C29.1267966,56.532831 28.6843643,56.532831 28.2665883,56.532831 C27.8486971,56.532831 27.4800035,56.532831 27.0867687,56.5082898 C26.4003072,40.932597 38.4702997,27.7494955 54.0459924,27.063034 C54.866451,27.026856 55.6880617,27.0265103 56.5085202,27.0619971 C56.5330614,27.4553471 56.5330614,27.8732383 56.5330614,28.2664731 Z" id="Path"></path>
                            </g>
                        </g>
                    </g>
                </g>
            </g>
        </g>
    </g>
</svg>