<?xml version="1.0" encoding="UTF-8"?>
<svg width="198px" height="140px" viewBox="0 0 198 140" version="1.1" xmlns="http://www.w3.org/2000/svg" xmlns:xlink="http://www.w3.org/1999/xlink">
    <title>Group 20</title>
    <defs>
        <polygon id="path-1" points="0 7.63303286e-05 52.6828111 7.63303286e-05 52.6828111 97.7028206 0 97.7028206"></polygon>
        <polygon id="path-3" points="3.81651643e-05 0.156973321 121.649591 0.156973321 121.649591 57.6293981 3.81651643e-05 57.6293981"></polygon>
        <polygon id="path-5" points="0 137.933484 195.405641 137.933484 195.405641 -2.16943842e-14 0 -2.16943842e-14"></polygon>
    </defs>
    <g id="desktop" stroke="none" stroke-width="1" fill="none" fill-rule="evenodd">
        <g id="02.6_pick-a-bat" transform="translate(-846.000000, -263.000000)">
            <g id="Group-20" transform="translate(846.000000, 263.000000)">
                <g id="Group-3" transform="translate(0.000000, 40.230663)">
                    <mask id="mask-2" fill="white">
                        <use xlink:href="#path-1"></use>
                    </mask>
                    <g id="Clip-2"></g>
                    <path d="M0,7.63303286e-05 L0,51.7249418 C0,77.1181339 20.5851447,97.7028969 45.9779551,97.7028969 L48.8514103,97.7028969 L52.6828111,63.2191444 L48.8514103,40.2303577 L0,7.63303286e-05 Z" id="Fill-1" fill="#EBA023" mask="url(#mask-2)"></path>
                </g>
                <path d="M48.8514103,-2.16943842e-14 C36.037838,-2.16943842e-14 23.938336,4.03405787 14.7817498,11.3594795 C5.24961835,18.9856426 0,29.2383324 0,40.230663 C0,51.222612 5.24961835,61.476065 14.7817498,69.1022281 C23.938336,76.4272681 36.037838,80.4609443 48.8514103,80.4609443 L52.6828111,40.230663 L48.8514103,-2.16943842e-14 Z" id="Fill-4" fill="#FFA20A"></path>
                <path d="M48.8514103,80.4610588 L74.7140339,84.2928413 L97.7028206,80.4610588 L97.7028206,40.2307775 C97.7028206,29.2384469 92.4532022,18.9853755 82.9210708,11.3592123 C73.7644846,4.03417236 61.6649826,0.000114495493 48.8514103,0.000114495493 L48.8514103,22.9889012 L52.6828111,40.2307775 L48.8514103,57.4722721 L48.8514103,80.4610588 Z" id="Fill-6" fill="#EBA023"></path>
                <path d="M48.8514103,57.4723103 C42.2198313,57.4723103 35.8947187,55.7220558 31.0408731,52.5436609 C25.9236878,49.1927595 22.9887867,44.7049179 22.9887867,40.2308156 C22.9887867,35.7563318 25.9236878,31.2684901 31.0408731,27.9175887 C35.8947187,24.7391938 42.2198313,22.9889394 48.8514103,22.9889394 L52.6828111,40.2308156 L48.8514103,57.4723103 Z" id="Fill-8" fill="#FFF3C9"></path>
                <path d="M48.8514103,22.9889394 C55.4829892,22.9889394 61.8081019,24.7391938 66.6619475,27.9175887 C71.7791327,31.2684901 74.7140339,35.7563318 74.7140339,40.2308156 C74.7140339,44.7049179 71.7791327,49.1927595 66.6619475,52.5436609 C61.8081019,55.7220558 55.4829892,57.4723103 48.8514103,57.4723103 L48.8514103,22.9889394 Z" id="Fill-10" fill="#F0CE97"></path>
                <g id="Group-14" transform="translate(48.851410, 80.304085)">
                    <mask id="mask-4" fill="white">
                        <use xlink:href="#path-3"></use>
                    </mask>
                    <g id="Clip-13"></g>
                    <polygon id="Fill-12" fill="#FFA20A" mask="url(#mask-4)" points="117.81819 0.156973321 3.81651643e-05 0.156973321 3.81651643e-05 57.6295126 20.1153697 57.6295126 25.8626617 53.7981117 31.6099538 57.6295126 48.8514485 57.6295126 54.5987405 53.7981117 60.345651 57.6295126 77.5875273 57.6295126 83.3344377 53.7981117 89.0821114 57.6295126 117.81819 57.6295126 121.649591 28.8934338"></polygon>
                </g>
                <mask id="mask-6" fill="white">
                    <use xlink:href="#path-5"></use>
                </mask>
                <g id="Clip-16"></g>
                <polygon id="Fill-15" fill="#C07D0F" mask="url(#mask-6)" points="97.7028206 137.933484 109.197023 137.933484 109.197023 109.197405 97.7028206 109.197405"></polygon>
                <polygon id="Fill-17" fill="#C07D0F" mask="url(#mask-6)" points="126.438899 137.933484 137.933484 137.933484 137.933484 114.944697 126.438899 114.944697"></polygon>
                <polygon id="Fill-18" fill="#C07D0F" mask="url(#mask-6)" points="68.9667418 137.933484 80.461326 137.933484 80.461326 114.944697 68.9667418 114.944697"></polygon>
                <polygon id="Fill-19" fill="#181818" mask="url(#mask-6)" points="166.669562 137.933484 195.405641 137.933484 195.405641 80.4609443 166.669562 80.4609443"></polygon>
            </g>
        </g>
    </g>
</svg>