<?xml version="1.0" encoding="UTF-8"?>
<svg width="159px" height="120px" viewBox="0 0 159 120" version="1.1" xmlns="http://www.w3.org/2000/svg" xmlns:xlink="http://www.w3.org/1999/xlink">
    <title>Group</title>
    <defs>
        <polygon id="path-1" points="0.830639753 0.769992372 126.857362 0.769992372 126.857362 87.111207 0.830639753 87.111207"></polygon>
        <polygon id="path-3" points="0.790305264 0.195567454 116.741967 0.195567454 116.741967 83.5292748 0.790305264 83.5292748"></polygon>
    </defs>
    <g id="desktop" stroke="none" stroke-width="1" fill="none" fill-rule="evenodd">
        <g id="02.4_rsults-copy-2" transform="translate(-870.000000, -345.000000)">
            <g id="Group" transform="translate(870.000000, 345.000000)">
                <ellipse id="Oval" fill="#D2DFED" cx="79.9195171" cy="116.37827" rx="77.7464789" ry="3.62173038"></ellipse>
                <g id="Group-25">
                    <path d="M12.0483716,3.15931323 L7.84467,0.442795949 C4.09220812,-1.99135607 -3.44267722,6.23355372 1.79152136,10.0459388 C2.35897567,10.4599534 3.52838552,11.2734559 5.08820393,12.3448097 C5.60209056,8.9736771 7.72754743,5.14131766 12.0483716,3.15931323" id="Fill-1" fill="#2B1A62"></path>
                    <path d="M146.021702,104.331151 C146.021702,104.331151 156.497362,99.8977442 156.177772,97.3582726 C156.177772,97.3582726 154.305627,94.2059504 152.673174,93.2607985 L104.522179,60.737949 L146.021702,104.331151 Z" id="Fill-3" fill="#CB955D"></path>
                    <path d="M19.1477244,7.74861134 L18.0809103,7.05858689 C13.5303806,8.87716447 11.2414969,12.6795623 10.5977767,16.1060785 C10.9518682,16.3466791 11.3095914,16.5900035 11.6736701,16.8369596 C12.3028635,13.4013642 14.5872075,9.57808404 19.1477244,7.74861134" id="Fill-5" fill="#353535"></path>
                    <path d="M24.0685974,25.225387 C28.8969526,28.4848446 32.5795041,30.9616692 32.5795041,30.9616692 L45.4421045,24.7432778 L32.6866395,16.4993016 C27.6331184,17.9583401 24.9728926,21.6926435 24.0685974,25.225387" id="Fill-7" fill="#2B1A62"></path>
                    <path d="M26.574294,12.5480945 L25.2169433,11.6710371 C20.4258131,13.3198324 17.955344,17.0931766 17.185422,20.5732604 C17.6348458,20.8783238 18.0851775,21.1824793 18.5336934,21.4857269 C19.2945361,17.994748 21.7659132,14.2014294 26.574294,12.5480945" id="Fill-9" fill="#353535"></path>
                    <g id="Group-13" transform="translate(29.961588, 22.603748)">
                        <mask id="mask-2" fill="white">
                            <use xlink:href="#path-1"></use>
                        </mask>
                        <g id="Clip-12"></g>
                        <path d="M121.232755,70.1247329 C124.527622,72.42088 126.720265,75.5831894 123.294657,77.227445 C119.869957,78.8735165 110.551903,83.3468723 110.551903,83.3468723 C110.551903,83.3468723 119.403283,78.2534024 121.469724,76.5873565 C123.535258,74.9204027 122.609172,73.3424258 119.988895,71.3967384 C117.368618,69.451959 79.7958794,42.475635 79.7958794,42.475635 C79.7958794,42.475635 117.937888,67.8294937 121.232755,70.1247329 M1.8866721,13.884109 L98.1350949,84.9103224 C101.610639,87.4752159 106.245606,87.8265836 110.068886,85.8155255 L124.846304,78.0418554 C127.342195,76.7280852 127.562822,73.2434618 125.241252,71.6427866 C105.285019,57.8831545 32.9795367,8.05884996 22.3767664,1.18584332 C21.6159236,0.692839018 20.6607845,0.635639623 19.8436503,1.02786404 L14.0129438,3.82700268 L59.7688278,38.1348365 L7.141753,7.12731696 L2.3052264,9.4507019 C0.538400652,10.2977977 0.310511,12.7201467 1.8866721,13.884109" id="Fill-11" fill="#CB955D" mask="url(#mask-2)"></path>
                    </g>
                    <polygon id="Fill-14" fill="#353535" points="4.84079385 12.174755 25.2246607 25.99885 25.6995065 25.6611012 4.90344081 11.4820068"></polygon>
                    <polygon id="Fill-16" fill="#353535" points="10.8850448 3.13806775 32.4546642 16.983045 32.9276941 16.6443883 10.9467838 2.44441159"></polygon>
                    <polygon id="Fill-18" fill="#CB955D" points="48.8460133 24.0922035 36.7714934 29.8911326 89.7299616 60.737949"></polygon>
                    <g id="Group-22" transform="translate(29.961588, 26.235456)">
                        <mask id="mask-4" fill="white">
                            <use xlink:href="#path-3"></use>
                        </mask>
                        <g id="Clip-21"></g>
                        <path d="M116.060114,78.0956955 C116.060114,78.0956955 20.9157304,3.43141893 14.0127622,0.195567454 L2.30504481,5.81926667 C2.30504481,5.81926667 0.26765685,6.71629845 0.918640438,8.8308602 C0.918640438,8.8308602 0.882323362,9.97938773 3.02866255,11.094322 L98.1349133,81.2788872 C98.1349133,81.2788872 103.776771,86.0445955 110.976631,81.7065208 L116.464142,78.8202212 L116.741967,78.6740449 L116.060114,78.0956955 Z" id="Fill-20" fill="#D7A36D" mask="url(#mask-4)"></path>
                    </g>
                    <polygon id="Fill-23" fill="#2B1A62" points="32.4288791 16.5778373 10.1174834 2.44504714 4.11063904 11.6714003 27.1665347 26.7711326"></polygon>
                </g>
            </g>
        </g>
    </g>
</svg>