<?xml version="1.0" encoding="UTF-8"?>
<svg width="79px" height="80px" viewBox="0 0 79 80" version="1.1" xmlns="http://www.w3.org/2000/svg" xmlns:xlink="http://www.w3.org/1999/xlink">
    <title>leather</title>
    <g id="desktop" stroke="none" stroke-width="1" fill="none" fill-rule="evenodd">
        <g id="02.4_rsults-copy-2" transform="translate(-418.000000, -488.000000)">
            <g id="Group-4-Copy" transform="translate(418.000000, 488.000000)">
                <ellipse id="Oval" fill="#D2DFED" opacity="0.341587612" cx="39.5157385" cy="77.094431" rx="38.3535109" ry="2.90556901"></ellipse>
                <g id="cricket-(1)" transform="translate(-0.000000, -0.000000)" fill-rule="nonzero">
                    <path d="M65.4770208,65.4776378 C53.8002217,77.1462546 35.9681038,80.0381302 21.2015108,72.6581177 C20.3684275,72.248117 19.5485273,71.8117516 18.7418102,71.3225071 C17.8293285,70.7803834 16.9432131,70.1985629 16.0704306,69.5770456 C15.3431119,69.0612866 14.6553425,68.5323452 13.9545398,67.9373424 L13.9413567,67.9373424 C13.3463186,67.4480979 12.7511306,66.9323389 12.1824588,66.3902152 C11.8650152,66.0993049 11.5475717,65.7952123 11.2302779,65.4777876 C10.9129842,65.1603629 10.6088736,64.843088 10.3177963,64.5256632 C9.77564042,63.9570251 9.27303396,63.3752046 8.78376042,62.7802018 C8.20190542,62.0792908 7.65974959,61.3785297 7.14396001,60.651254 C6.50922272,59.7785233 5.92736772,58.8792781 5.38506209,57.9668505 C4.89878471,57.1654242 4.45295555,56.3401799 4.04937229,55.4939636 C-3.33287553,40.7300438 -0.437982132,22.8988335 11.2361204,11.2284191 C22.910223,-0.441995293 40.7430899,-3.33207326 55.5059377,4.05363162 C56.339021,4.46363231 57.1589212,4.89999769 57.9656383,5.38924221 C58.87812,5.93136589 59.7774185,6.51318639 60.650201,7.14803584 C61.3775198,7.66379484 62.0784723,8.20591853 62.779275,8.77455668 C63.3743131,9.27698355 63.9563179,9.77956021 64.52484,10.3216839 C64.8422835,10.6125941 65.1597271,10.9166867 65.4770208,11.2341115 C65.7943145,11.5515362 66.0984252,11.8688111 66.3895025,12.1862358 C66.9316583,12.754874 67.4474479,13.3498768 67.9367214,13.9450295 C68.5185764,14.6459404 69.0607322,15.3467015 69.5765218,16.0739772 C70.198076,16.9467079 70.779931,17.8327708 71.3220868,18.7451984 C71.8083642,19.5466246 72.2541934,20.371869 72.6577766,21.2180853 C80.0385264,35.9793087 77.1460299,53.806774 65.4770208,65.4776378 Z" id="Path" fill="#CC4B4C"></path>
                    <g id="Group" transform="translate(3.196126, 4.794189)" fill="#F5EFCA">
                        <path d="M65.4909142,12.0221301 C64.9754641,11.29529 64.433665,10.5947988 63.8521929,9.89445726 C63.7885664,9.9449094 63.7309282,10.0025476 63.6803263,10.0663239 C55.7641317,19.5155448 47.1209473,28.9252424 38.0286341,38.0308797 C28.9361712,47.123193 19.5266233,55.7530532 10.0640782,63.682572 C10.0012002,63.7297305 9.94745446,63.7879675 9.90553577,63.8544386 C10.606027,64.4490851 11.2931941,64.9777097 12.0200342,65.4931599 C21.4560806,57.5636411 30.8261052,48.9602795 39.8920695,39.8943151 C48.9712083,30.8282011 57.5747197,21.4450021 65.4909142,12.0221301 Z" id="Path"></path>
                        <path d="M29.8215538,55.7662277 C29.1475611,56.3345253 28.4735685,56.8763244 27.7864014,57.4314476 C27.3541898,57.7858102 27.1904075,58.3729712 27.3769457,58.899949 C27.5634838,59.4267771 28.0600706,59.7802415 28.6190862,59.7838754 C28.9179066,59.7862299 29.2080438,59.6833794 29.4384469,59.4930985 C30.1389381,58.9379753 30.8261052,58.3698273 31.5132722,57.8015297 C32.0697428,57.3329386 32.1435497,56.5029486 31.6785516,55.9434838 C31.2135536,55.3840191 30.3840127,55.3049724 29.8215538,55.7662277 L29.8215538,55.7662277 Z" id="Path"></path>
                        <path d="M35.7819421,50.6253497 C35.1342984,51.2199962 34.4868043,51.801618 33.8259862,52.3697659 C33.2810432,52.8492858 33.2252015,53.678677 33.7008289,54.2270633 C34.1764563,54.7754495 35.0055481,54.8371299 35.557228,54.3653949 C36.2312206,53.7839228 36.8920388,53.1891266 37.552857,52.5944801 C37.8142499,52.3615319 37.9723433,52.0342667 37.9922547,51.6846948 C38.0120163,51.3351229 37.8920989,50.9919885 37.6587017,50.7310446 C37.1681033,50.1865508 36.3303284,50.1393923 35.7819421,50.6253497 L35.7819421,50.6253497 Z" id="Path"></path>
                        <path d="M23.6499251,60.6561924 C22.9494339,61.184817 22.2490924,61.7134416 21.5486012,62.2288917 C21.2644524,62.4359401 21.0752194,62.7482343 21.0229708,63.0960097 C20.9708718,63.4437852 21.0600988,63.7978484 21.2710396,64.0791527 C21.4744949,64.3640501 21.7846932,64.5541813 22.1308218,64.6065796 C22.4769504,64.6588283 22.8295165,64.5687031 23.1079764,64.3567143 C23.8216421,63.8412641 24.5353077,63.2994651 25.2489734,62.7708405 C25.6266907,62.4851946 25.8234091,62.0197474 25.7648727,61.549809 C25.7063362,61.0798705 25.4015275,60.6768523 24.9652737,60.4925598 C24.5290199,60.3082673 24.0276425,60.3705465 23.6499251,60.6561924 L23.6499251,60.6561924 Z" id="Path"></path>
                        <path d="M17.2799313,65.2816202 C16.5530912,65.7837462 15.8394255,66.2728475 15.1257599,66.761799 C15.0580911,66.7903936 14.9989558,66.8359053 14.9538932,66.8939926 C14.8475994,66.9932501 14.7582228,67.109275 14.6895061,67.2375762 C15.4956923,67.7265277 16.3150529,68.1626318 17.147588,68.572387 C17.6893871,68.2023048 18.2445103,67.8323724 18.7863093,67.4491158 C19.1734584,67.179938 19.3876928,66.7248208 19.3481695,66.2548823 C19.3086461,65.7850936 19.0215031,65.3718951 18.5948307,65.1711345 C18.1683081,64.970374 17.6670803,65.0124424 17.2799313,65.2816202 L17.2799313,65.2816202 Z" id="Path"></path>
                        <path d="M62.2266461,21.5506971 C61.7111959,22.2511883 61.1825713,22.9515299 60.6539467,23.6520211 C60.2181421,24.2364874 60.336263,25.0631838 60.9183339,25.502282 C61.1452936,25.6771429 61.4248015,25.7702622 61.7113456,25.7666692 C62.1266401,25.7639744 62.5172324,25.5686034 62.7685949,25.2380446 C63.2972195,24.5375534 63.8390185,23.8238877 64.3544687,23.1103717 C64.5648106,22.8289177 64.6538879,22.4748545 64.6017889,22.1273785 C64.54969,21.7797528 64.3606068,21.4676083 64.0769071,21.2602605 C63.4848056,20.8326899 62.6590074,20.9624881 62.2266461,21.5506971 Z" id="Path"></path>
                        <path d="M41.5439652,45.2465831 C40.9096457,45.8545538 40.2751764,46.4623748 39.6408568,47.0703455 C39.388147,47.3119768 39.2418807,47.6441824 39.2343952,47.993904 C39.2269097,48.3434759 39.3589536,48.6816699 39.6011838,48.9337809 C39.8465578,49.198168 40.1919378,49.3469794 40.552738,49.3435361 C40.8910817,49.345632 41.2174486,49.2179297 41.4646192,48.9867781 C42.1122629,48.3788074 42.7465825,47.7576623 43.3809021,47.1365171 C43.9027897,46.629301 43.9146168,45.7949694 43.4074007,45.2730817 C42.9001845,44.751194 42.0658529,44.739367 41.5439652,45.2465831 L41.5439652,45.2465831 Z" id="Path"></path>
                        <path d="M57.4293516,27.7884974 C56.8875526,28.46249 56.3324294,29.1496571 55.7774559,29.8236497 C55.5497476,30.0896836 55.4395613,30.4365608 55.4720483,30.7850847 C55.5043856,31.1337584 55.6765516,31.4542867 55.9493225,31.6739106 C56.1852648,31.8740724 56.485732,31.982013 56.7951818,31.9778211 C57.1886186,31.9803662 57.5624435,31.8056551 57.8127579,31.502044 C58.3810556,30.814877 58.9360291,30.1275602 59.4911523,29.4402434 C59.7122733,29.1670234 59.815573,28.8170023 59.778445,28.4674304 C59.741317,28.1178585 59.5666059,27.7974799 59.2929367,27.576808 C58.7179022,27.1273798 57.8888104,27.2215471 57.4293516,27.7884974 L57.4293516,27.7884974 Z" id="Path"></path>
                        <path d="M67.2353305,14.6917517 C67.1190062,14.7558274 67.0122632,14.8359221 66.9180959,14.9296403 C66.8547687,14.9814398 66.801023,15.0441681 66.7595534,15.1146814 C66.2706018,15.8415215 65.7816503,16.5551871 65.2793746,17.2688528 C64.8684217,17.872931 65.0151371,18.6945373 65.6097837,19.1191138 C65.8319527,19.2707696 66.0940942,19.353559 66.3631224,19.3570305 C66.7965317,19.3598468 67.2028435,19.14681 67.4468702,18.7887047 C67.8301268,18.2469056 68.2000592,17.7051066 68.5701413,17.1631578 C68.1668237,16.3174483 67.7214376,15.4926981 67.2353305,14.6917517 L67.2353305,14.6917517 Z" id="Path"></path>
                        <path d="M52.36767,33.8149077 C51.7993724,34.4757258 51.2179003,35.136544 50.6364282,35.784038 C50.4012344,36.0431854 50.2787719,36.3854215 50.2961383,36.7349934 C50.3135046,37.0845654 50.4692026,37.4128785 50.7289487,37.6474735 C50.9719274,37.8669477 51.2870661,37.9892605 51.614481,37.9910837 C51.9881562,37.9934523 52.3446147,37.8344607 52.5923841,37.5549529 C53.1870307,36.8941347 53.7818269,36.2201421 54.363299,35.5593239 C54.8407229,35.0077938 54.7827853,34.1742107 54.2336505,33.694092 C53.6843659,33.214123 52.8503338,33.2680185 52.36767,33.8149077 Z" id="Path"></path>
                        <path d="M47.0680998,39.6431024 C46.4734533,40.277422 45.8654826,40.9117416 45.2575119,41.5328867 C44.8925199,41.9144965 44.7881723,42.4759075 44.9917774,42.9632123 C45.1952327,43.4503673 45.6680156,43.7708956 46.1958917,43.7795787 C46.5532485,43.779429 46.8957841,43.6367558 47.1474459,43.3831477 C47.7685911,42.735504 48.3765617,42.1011844 48.9843827,41.4536904 C49.2266129,41.2015794 49.3586567,40.8633854 49.3511712,40.5138135 C49.3436858,40.1642416 49.1975692,39.8318862 48.9447097,39.5902549 C48.4108452,39.0894763 47.5730703,39.1131304 47.0680998,39.6431024 L47.0680998,39.6431024 Z" id="Path"></path>
                        <path d="M26.1211815,23.7048686 C26.4623697,23.7081622 26.7906829,23.5749206 27.0330627,23.3347864 C27.6673823,22.7269655 28.3017019,22.1189948 28.9361712,21.5110241 C29.4618016,21.0066524 29.4808147,20.1723208 28.9786887,19.6445945 C28.476413,19.1168681 27.6420814,19.0945614 27.1124088,19.5947412 C26.4647651,20.2027119 25.8304455,20.823857 25.1961259,21.4450021 C24.9422184,21.6867831 24.7964013,22.0206356 24.7914609,22.3711057 C24.7865204,22.7217256 24.9227562,23.0594705 25.169777,23.3084375 C25.4214389,23.5620456 25.7638247,23.7047189 26.1211815,23.7048686 L26.1211815,23.7048686 Z" id="Path"></path>
                        <path d="M31.9097033,18.286429 C32.2351719,18.2871775 32.5498615,18.1698052 32.7950859,17.9560199 C33.4427296,17.3613733 34.0902236,16.7797515 34.7510418,16.2116036 C35.1092969,15.9027527 35.2750254,15.4260773 35.1857985,14.9616781 C35.0965716,14.497279 34.7657133,14.1159686 34.3185308,13.9620671 C33.8713482,13.8081657 33.3759591,13.9050278 33.0198,14.2161243 C32.3458073,14.7975964 31.6849892,15.3923927 31.024171,15.9870392 C30.6136673,16.351133 30.4721917,16.9318565 30.6693592,17.4438633 C30.8666765,17.9558702 31.3610176,18.2918185 31.9097033,18.286429 Z" id="Path"></path>
                        <path d="M44.1342408,8.18956432 C44.419737,8.18686955 44.6971489,8.09449873 44.9272525,7.92517717 C45.6277438,7.39655256 46.3280853,6.86792796 47.0285765,6.3524778 C47.4086892,6.07386824 47.6112463,5.61366092 47.5600456,5.14521958 C47.5088449,4.67677824 47.2116713,4.27121493 46.780358,4.08138315 C46.3490446,3.89155138 45.849314,3.94619538 45.4692013,4.22465524 C44.7555356,4.7401054 44.0418699,5.28190445 43.3282043,5.81052905 C42.8780275,6.15650794 42.6979269,6.75070534 42.8801234,7.28831252 C43.06232,7.82636883 43.566542,8.18851636 44.1342408,8.18956432 L44.1342408,8.18956432 Z" id="Path"></path>
                        <path d="M50.5439076,3.53763969 C50.8135346,3.53808701 51.0767241,3.45499818 51.2972464,3.29974932 C52.0240865,2.79762332 52.7377521,2.30852205 53.4514178,1.81957049 C53.5190865,1.79097596 53.5782218,1.74546424 53.6232844,1.68737692 C53.7295782,1.58811945 53.8189549,1.47209451 53.8876716,1.34379338 C53.0814854,0.854841824 52.2621247,0.418737755 51.4295896,0.00898257608 C50.8877906,0.379064711 50.3326674,0.748997136 49.7908683,1.13225372 C49.3176363,1.46206397 49.1129833,2.06075266 49.285299,2.61123487 C49.4574651,3.16186678 49.9670765,3.53688933 50.5439076,3.53763969 L50.5439076,3.53763969 Z" id="Path"></path>
                        <path d="M20.5441995,29.3480223 C20.9087423,29.3516153 21.2583143,29.2031034 21.5089281,28.9382671 C22.1035747,28.3039475 22.7115454,27.6696279 23.3195161,27.0483331 C23.8270316,26.5258466 23.8165519,25.691515 23.2960116,25.1820532 C22.7756211,24.6725914 21.9411398,24.6797775 21.429582,25.1982218 C20.8084369,25.8458656 20.2004662,26.4801852 19.5926452,27.1276792 C19.3504151,27.3797902 19.2185209,27.7179841 19.2258567,28.0675561 C19.2333422,28.417128 19.3794588,28.7493336 19.6321686,28.9911146 C19.8806865,29.22032 20.2061552,29.3477229 20.5441995,29.3480223 Z" id="Path"></path>
                        <path d="M37.909615,13.1190524 C38.217867,13.1168067 38.5162383,13.0096146 38.7554742,12.8151419 C39.4294668,12.2468442 40.1034595,11.7050452 40.7906265,11.149922 C41.0642957,10.9322442 41.2393062,10.6139616 41.2765839,10.2663359 C41.3138616,9.91856051 41.2102625,9.57048569 40.988842,9.29981073 C40.535222,8.73241134 39.7085255,8.63794458 39.1385811,9.08842077 C38.4380899,9.64354397 37.7509228,10.2116919 37.0637557,10.7799896 C36.5075845,11.2445384 36.4307835,12.0710852 36.8918891,12.6302505 C37.1429521,12.9347598 37.5151302,13.1136628 37.909615,13.1190524 L37.909615,13.1190524 Z" id="Path"></path>
                        <path d="M15.2049562,35.2158914 C15.5879134,35.2136445 15.9523066,35.0506107 16.209358,34.7666116 C16.7776556,34.1057934 17.3591277,33.4449752 17.9405998,32.7974812 C18.2579841,32.4482087 18.3645774,31.9561132 18.2202573,31.5068347 C18.0759373,31.0575562 17.7027112,30.7196616 17.2413062,30.6205539 C16.7799012,30.5214461 16.3008305,30.6762459 15.9846438,31.026716 C15.3899973,31.6875342 14.7952011,32.3615268 14.213729,33.022345 C13.9836253,33.2867322 13.8683489,33.6318128 13.893051,33.9815344 C13.9179028,34.3311064 14.0807868,34.656575 14.3457728,34.8857804 C14.581266,35.0985178 14.8875719,35.2163392 15.2049562,35.2158914 L15.2049562,35.2158914 Z" id="Path"></path>
                        <path d="M2.9672443,49.4624055 C2.36795676,49.0501052 1.54844641,49.1975692 1.13030749,49.7928146 C0.747050911,50.3346136 0.377118486,50.8765624 0.00703635126,51.4183614 C0.410354017,52.2639213 0.855889791,53.0888212 1.34184716,53.8897675 C1.461016,53.8301831 1.56835778,53.7496393 1.6590818,53.651879 C1.72240896,53.6000794 1.77615471,53.5373511 1.81762427,53.4668379 C2.30657583,52.7399978 2.79552739,52.0263321 3.2978031,51.3126664 C3.70845654,50.7085882 3.56174113,49.8869819 2.9672443,49.4624055 L2.9672443,49.4624055 Z" id="Path"></path>
                        <path d="M5.27995822,47.5724929 C5.70288784,47.5736692 6.10096567,47.37216 6.35038187,47.0306724 C6.86583203,46.3301812 7.39445663,45.62969 7.92308123,44.9293485 C8.2063318,44.5516311 8.26666477,44.0514514 8.08117457,43.6172935 C7.89568438,43.1831357 7.49266613,42.880872 7.02392537,42.8242818 C6.5551846,42.7678412 6.09183339,42.9657573 5.80858282,43.3434747 C5.27995822,44.0439659 4.73815917,44.7574818 4.22270902,45.4711475 C3.9231401,45.8699739 3.87553245,46.4041377 4.09964772,46.8496735 C4.32391271,47.295359 4.78127554,47.575316 5.27995822,47.5724929 L5.27995822,47.5724929 Z" id="Path"></path>
                        <path d="M10.1169257,41.2949982 C10.5190457,41.2933514 10.8985596,41.10846 11.147826,40.7928722 C11.6896251,40.1188796 12.2447483,39.4317125 12.7997218,38.7577199 C13.0272804,38.4916859 13.1374666,38.1448087 13.1051294,37.7962848 C13.0727921,37.4477608 12.9006261,37.1270829 12.6278552,36.9074589 C12.3582282,36.6824454 12.0101533,36.5742053 11.6604317,36.6063929 C11.3107101,36.6385804 10.9883853,36.8088003 10.7644198,37.0791758 C10.1961221,37.7663429 9.64114862,38.4536597 9.08602542,39.1408267 C8.86490433,39.4140467 8.76160471,39.7640678 8.79873269,40.1136397 C8.83586067,40.4632116 9.01057178,40.7835902 9.28424093,41.0042621 C9.52377629,41.187357 9.8155603,41.2893092 10.1169257,41.2949982 L10.1169257,41.2949982 Z" id="Path"></path>
                        <path d="M58.5262739,4.91212173 C58.5934935,4.86062163 58.6515808,4.79804301 58.6981405,4.72708066 C57.9976493,4.15878302 57.2973078,3.61698397 56.5704676,3.10153381 C47.1344212,11.0177284 37.7643967,19.6344142 28.6984323,28.7003785 C19.632468,37.7663429 11.0156325,47.1363674 3.09943788,56.5724139 C3.61488803,57.299254 4.15668708,57.9997452 4.73815917,58.7000867 C4.80178575,58.6496346 4.85957366,58.5919964 4.9100258,58.5282201 C12.8395445,49.065675 21.4694048,39.6561272 30.561718,30.5636642 C39.6540312,21.4712013 49.0637288,12.8414908 58.5262739,4.91212173 Z" id="Path"></path>
                        <path d="M61.3939613,7.18516261 C61.0767266,6.86792796 60.7596417,6.56401747 60.4424071,6.27328143 L6.27118549,60.4446527 C6.56192154,60.7618874 6.86583203,61.0789723 7.18306667,61.3962069 C7.50030132,61.7134416 7.81738625,62.0173521 8.1346209,62.3080881 L62.3058425,8.13671683 C62.0151064,7.8196319 61.7111959,7.50239725 61.3939613,7.18516261 Z" id="Path"></path>
                    </g>
                </g>
            </g>
        </g>
    </g>
</svg>