<?xml version="1.0" encoding="UTF-8"?>
<svg width="80px" height="80px" viewBox="0 0 80 80" version="1.1" xmlns="http://www.w3.org/2000/svg" xmlns:xlink="http://www.w3.org/1999/xlink">
    <title>leather</title>
    <defs>
        <rect id="path-1" x="0" y="0" width="80" height="80"></rect>
    </defs>
    <g id="desktop" stroke="none" stroke-width="1" fill="none" fill-rule="evenodd">
        <g id="02.4_rsults-copy" transform="translate(-752.000000, -180.000000)">
            <g id="leather" transform="translate(752.000000, 180.000000)">
                <mask id="mask-2" fill="white">
                    <use xlink:href="#path-1"></use>
                </mask>
                <g id="Mask"></g>
                <g id="Group-4-Copy-2" mask="url(#mask-2)">
                    <g transform="translate(-10.000000, 36.000000)" id="Group-4-Copy">
                        <g id="cricket-(1)" transform="translate(-0.000000, -0.000000)" fill-rule="nonzero">
                            <path d="M49.1077656,49.1082284 C40.3501663,57.859691 26.9760778,60.0285976 15.9011331,54.4935882 C15.2763206,54.1860877 14.6613955,53.8588137 14.0563577,53.4918803 C13.3719964,53.0852875 12.7074098,52.6489222 12.052823,52.1827842 C11.5073339,51.7959649 10.9915069,51.3992589 10.4659048,50.9530068 L10.4560175,50.9530068 C10.0097389,50.5860734 9.56334797,50.1992541 9.13684406,49.7926614 C8.8987614,49.5744787 8.66067874,49.3464093 8.42270844,49.1083407 C8.18473813,48.8702722 7.95665517,48.632316 7.73834719,48.3942474 C7.33173032,47.9677688 6.95477547,47.5314034 6.58782031,47.0851513 C6.15142907,46.5594681 5.7448122,46.0338972 5.35797001,45.4884405 C4.88191704,44.8338925 4.44552579,44.1594586 4.03879657,43.4751379 C3.67408853,42.8740682 3.33971666,42.2551349 3.03702922,41.6204727 C-2.49965665,30.5475329 -0.328486599,17.1741251 8.42709033,8.42131431 C17.1826673,-0.331496469 30.5573175,-2.49905495 41.6294533,3.04022371 C42.2542658,3.34772424 42.8691909,3.67499826 43.4742287,4.04193166 C44.15859,4.44852442 44.8330639,4.88488979 45.4876508,5.36102688 C46.0331398,5.74784613 46.5588542,6.15443889 47.0844562,6.58091751 C47.5307348,6.95773766 47.9672384,7.33467016 48.39363,7.74126292 C48.6317126,7.95944561 48.8697953,8.18751505 49.1077656,8.42558359 C49.3457359,8.66365214 49.5738189,8.90160833 49.7921268,9.13967687 C50.1987437,9.56615549 50.5855859,10.0124076 50.9525411,10.4587721 C51.3889323,10.9844553 51.7955492,11.5100262 52.1823914,12.0554829 C52.648557,12.7100309 53.0849482,13.3745781 53.4915651,14.0588988 C53.8562731,14.6599685 54.190645,15.2789017 54.4933325,15.913564 C60.0288948,26.9844815 57.8595224,40.3550805 49.1077656,49.1082284 Z" id="Path" fill="#CC4B4C"></path>
                            <g id="Group" transform="translate(2.397094, 3.595642)" fill="#F5EFCA">
                                <path d="M49.1181857,9.01659759 C48.7315981,8.4714675 48.3252488,7.94609908 47.8891447,7.42084295 C47.8414248,7.45868205 47.7981961,7.5019107 47.7602447,7.54974291 C41.8230988,14.6366586 35.3407105,21.6939318 28.5214756,28.5231598 C21.7021284,35.3423947 14.6449675,41.8147899 7.54805868,47.761929 C7.50090016,47.7972979 7.46059085,47.8409756 7.42915183,47.8908289 C7.95452025,48.3368138 8.46989555,48.7332823 9.01502564,49.1198699 C16.0920605,43.1727309 23.1195789,36.7202096 29.9190521,29.9207364 C36.7284062,23.1211508 43.1810397,16.0837516 49.1181857,9.01659759 Z" id="Path"></path>
                                <path d="M26.8364566,37.9690122 C26.3507238,38.4149972 25.8651033,38.8512135 25.3694896,39.2773245 C24.9607824,39.6369643 24.9189012,40.2590077 25.2756217,40.6702974 C25.6323423,41.0815871 26.2541611,41.1278474 26.667921,40.7740462 C27.1734155,40.3379421 27.6690291,39.8918449 28.1646427,39.44586 C28.3606875,39.2711489 28.4792575,39.0257 28.494191,38.7635211 C28.5090122,38.5013422 28.4190742,38.2439914 28.2440263,38.0482835 C27.8760775,37.6399131 27.2477463,37.6045442 26.8364566,37.9690122 L26.8364566,37.9690122 Z" id="Path"></path>
                                <path d="M46.6699846,16.1630228 C46.283397,16.6883913 45.8869285,17.2136474 45.49046,17.7390158 C45.1636066,18.1773655 45.2521972,18.7973878 45.6887504,19.1267115 C45.8589702,19.2578571 46.0686011,19.3276967 46.2835092,19.3250019 C46.5949801,19.3229808 46.8879243,19.1764525 47.0764461,18.9285334 C47.4729146,18.403165 47.8792639,17.8679158 48.2658515,17.3327788 C48.423608,17.1216883 48.4904159,16.8561409 48.4513417,16.5955339 C48.4122675,16.3348146 48.2704551,16.1007062 48.0576803,15.9451954 C47.6136042,15.6245174 46.9942556,15.7218661 46.6699846,16.1630228 Z" id="Path"></path>
                                <path d="M31.1579739,33.9349373 C30.6822342,34.3909153 30.2063823,34.8467811 29.7306426,35.3027591 C29.5411102,35.4839826 29.4314105,35.7331368 29.4257964,35.995428 C29.4201823,36.2576069 29.5192152,36.5112524 29.7008878,36.7003357 C29.8849183,36.898626 30.1439534,37.0102345 30.4145535,37.007652 C30.6683113,37.009224 30.9130865,36.9134473 31.0984644,36.7400836 C31.5841972,36.2841055 32.0599369,35.8182467 32.5356765,35.3523878 C32.9270923,34.9719757 32.9359626,34.346227 32.5555505,33.9548113 C32.1751384,33.5633955 31.5493897,33.5545252 31.1579739,33.9349373 L31.1579739,33.9349373 Z" id="Path"></path>
                                <path d="M43.0720137,20.841373 C42.6656644,21.3468675 42.249322,21.8622428 41.8330919,22.3677373 C41.6623107,22.5672627 41.579671,22.8274206 41.6040362,23.0888136 C41.6282892,23.3503188 41.7574137,23.590715 41.9619919,23.755433 C42.1389486,23.9055543 42.364299,23.9865098 42.5963863,23.9833659 C42.8914639,23.9852747 43.1718326,23.8542413 43.3595684,23.626533 C43.7857917,23.1111577 44.2020218,22.5956701 44.6183642,22.0801825 C44.784205,21.8752675 44.8616797,21.6127517 44.8338337,21.3505728 C44.8059878,21.0883939 44.6749544,20.84811 44.4697026,20.682606 C44.0384266,20.3455348 43.4166078,20.4161603 43.0720137,20.841373 L43.0720137,20.841373 Z" id="Path"></path>
                                <path d="M50.4264979,11.0188138 C50.3392546,11.0668706 50.2591974,11.1269416 50.1885719,11.1972302 C50.1410765,11.2360799 50.1007672,11.2831261 50.0696651,11.336011 C49.7029514,11.8811411 49.3362377,12.4163904 48.9595309,12.9516396 C48.6513163,13.4046983 48.7613528,14.020903 49.2073377,14.3393353 C49.3739645,14.4530772 49.5705707,14.5151693 49.7723418,14.5177728 C50.0973988,14.5198851 50.4021326,14.3601075 50.5851526,14.0915285 C50.8725951,13.6851792 51.1500444,13.2788299 51.427606,12.8723684 C51.1251177,12.2380862 50.7910782,11.6195236 50.4264979,11.0188138 L50.4264979,11.0188138 Z" id="Path"></path>
                                <path d="M39.2757525,25.3611807 C38.8495293,25.8567944 38.4134252,26.352408 37.9773211,26.8380285 C37.8009258,27.032389 37.709079,27.2890661 37.7221037,27.5512451 C37.7351284,27.813424 37.8519019,28.0596589 38.0467115,28.2356051 C38.2289455,28.4002108 38.4652996,28.4919454 38.7108608,28.4933128 C38.9911171,28.4950893 39.258461,28.3758456 39.4442881,28.1662147 C39.890273,27.6706011 40.3363702,27.1651066 40.7724742,26.6694929 C41.1305422,26.2558453 41.087089,25.630658 40.6752379,25.270569 C40.2632745,24.9105923 39.6377503,24.9510139 39.2757525,25.3611807 Z" id="Path"></path>
                                <path d="M35.3010749,29.7323268 C34.85509,30.2080665 34.3991119,30.6838062 33.9431339,31.1496651 C33.6693899,31.4358724 33.5911292,31.8569306 33.743833,32.2224092 C33.8964245,32.5877755 34.2510117,32.8281717 34.6469188,32.834684 C34.9149364,32.8345718 35.1718381,32.7275668 35.3605844,32.5373608 C35.8264433,32.051628 36.2824213,31.5758883 36.738287,31.0902678 C36.9199596,30.9011845 37.0189925,30.647539 37.0133784,30.3853601 C37.0077643,30.1231812 36.8981769,29.8739147 36.7085323,29.6926912 C36.3081339,29.3171072 35.6798027,29.3348478 35.3010749,29.7323268 L35.3010749,29.7323268 Z" id="Path"></path>
                                <path d="M19.5908862,17.7786514 C19.8467773,17.7811216 20.0930122,17.6811905 20.274797,17.5010898 C20.7505367,17.0452241 21.2262764,16.5892461 21.7021284,16.1332681 C22.0963512,15.7549893 22.110611,15.1292406 21.7340165,14.7334459 C21.3573097,14.3376511 20.731561,14.320921 20.3343066,14.6960559 C19.8485738,15.1520339 19.3728341,15.6178928 18.8970944,16.0837516 C18.7066638,16.2650874 18.597301,16.5154767 18.5935956,16.7783293 C18.5898903,17.0412942 18.6920671,17.2946029 18.8773328,17.4813282 C19.0660791,17.6715342 19.3228685,17.7785391 19.5908862,17.7786514 L19.5908862,17.7786514 Z" id="Path"></path>
                                <path d="M23.9322775,13.7148217 C24.176379,13.7153831 24.4123961,13.6273539 24.5963144,13.4670149 C25.0820472,13.02103 25.5676677,12.5848137 26.0632813,12.1587027 C26.3319727,11.9270645 26.456269,11.569558 26.3893489,11.2212586 C26.3224287,10.8729592 26.074285,10.5869765 25.7388981,10.4715503 C25.4035111,10.3561242 25.0319693,10.4287708 24.76485,10.6620932 C24.2593555,11.0981973 23.7637419,11.5442945 23.2681282,11.9902794 C22.9602504,12.2633497 22.8541438,12.6988924 23.0020194,13.0828975 C23.1500074,13.4669026 23.5207632,13.7188639 23.9322775,13.7148217 Z" id="Path"></path>
                                <path d="M33.1006806,6.14217324 C33.3148027,6.14015216 33.5228617,6.07087404 33.6954394,5.94388288 C34.2208078,5.54741442 34.746064,5.15094597 35.2714324,4.76435835 C35.5565169,4.55540118 35.7084347,4.21024569 35.6700342,3.85891468 C35.6316337,3.50758368 35.4087535,3.20341119 35.0852685,3.06103736 C34.7617835,2.91866353 34.3869855,2.95964654 34.101901,3.16849143 C33.5666517,3.55507905 33.0314025,3.96142833 32.4961532,4.35789679 C32.1585206,4.61738095 32.0234451,5.06302901 32.1600926,5.46623439 C32.29674,5.86977662 32.6749065,6.14138727 33.1006806,6.14217324 L33.1006806,6.14217324 Z" id="Path"></path>
                                <path d="M37.9079307,2.65322977 C38.110151,2.65356526 38.3075431,2.59124864 38.4729348,2.47481199 C39.0180649,2.09821749 39.5533141,1.73139154 40.0885634,1.36467787 C40.1393149,1.34323197 40.1836664,1.30909818 40.2174633,1.26553269 C40.2971837,1.19108959 40.3642162,1.10407088 40.4157537,1.00784504 C39.811114,0.641131368 39.1965936,0.314053316 38.5721922,0.00673693206 C38.1658429,0.284298533 37.7495005,0.561747852 37.3431513,0.849190286 C36.9882272,1.09654798 36.8347375,1.5455645 36.9639743,1.95842615 C37.0930988,2.37140009 37.4753074,2.652667 37.9079307,2.65322977 L37.9079307,2.65322977 Z" id="Path"></path>
                                <path d="M15.4081496,22.0110167 C15.6815568,22.0137115 15.9437357,21.9023275 16.1316961,21.7037003 C16.577681,21.2279606 17.033659,20.752221 17.489637,20.2862498 C17.8702737,19.8943849 17.8624139,19.2686362 17.4720087,18.8865399 C17.0817158,18.5044436 16.4558548,18.5098331 16.0721865,18.8986664 C15.6063277,19.3843992 15.1503497,19.8601389 14.6944839,20.3457594 C14.5128113,20.5348426 14.4138907,20.7884881 14.4193925,21.050667 C14.4250066,21.312846 14.5345941,21.5620002 14.7241264,21.7433359 C14.9105149,21.91524 15.1546164,22.0107921 15.4081496,22.0110167 Z" id="Path"></path>
                                <path d="M28.4322112,9.83928928 C28.6634003,9.83760504 28.8871787,9.75721099 29.0666057,9.61135641 C29.5721001,9.18513317 30.0775946,8.77878389 30.5929699,8.36244149 C30.7982218,8.19918316 30.9294797,7.96047121 30.9574379,7.69975193 C30.9853962,7.43892038 30.9076969,7.17786426 30.7416315,6.97485804 C30.4014165,6.5493085 29.7813942,6.47845843 29.3539358,6.81631558 C28.8285674,7.23265798 28.3131921,7.65876893 27.7978168,8.08499217 C27.3806884,8.43340384 27.3230876,9.05331387 27.6689168,9.47268789 C27.8572141,9.70106989 28.1363476,9.83524712 28.4322112,9.83928928 L28.4322112,9.83928928 Z" id="Path"></path>
                                <path d="M11.4037172,26.4119185 C11.6909351,26.4102333 11.9642299,26.287958 12.1570185,26.0749587 C12.5832417,25.5793451 13.0193458,25.0837314 13.4554498,24.5981109 C13.6934881,24.3361565 13.773433,23.9670849 13.665193,23.6301261 C13.556953,23.2931672 13.2770334,23.0397462 12.9309797,22.9654154 C12.5849259,22.8910846 12.2256229,23.0071844 11.9884829,23.270037 C11.542498,23.7656507 11.0964008,24.2711451 10.6602967,24.7667588 C10.487719,24.9650491 10.4012617,25.2238596 10.4197883,25.4861508 C10.4384271,25.7483298 10.5605901,25.9924313 10.7593296,26.1643353 C10.9359495,26.3238883 11.1656789,26.4122544 11.4037172,26.4119185 L11.4037172,26.4119185 Z" id="Path"></path>
                                <path d="M7.5876943,30.9712486 C7.88928429,30.9700135 8.17391967,30.831345 8.36086953,30.5946541 C8.76721882,30.0891597 9.18356122,29.5737844 9.59979134,29.0682899 C9.77046029,28.8687644 9.85309999,28.6086066 9.82884703,28.3472136 C9.80459407,28.0858206 9.67546954,27.8453122 9.47089137,27.6805942 C9.26867113,27.511834 9.00761501,27.430654 8.74532379,27.4547947 C8.48303257,27.4789353 8.24128899,27.6066002 8.07331482,27.8093819 C7.64709158,28.3247572 7.23086146,28.8402447 6.81451906,29.35562 C6.64867825,29.5605351 6.57120353,29.8230508 6.59904952,30.0852298 C6.6268955,30.3474087 6.75792883,30.5876926 6.9631807,30.7531966 C7.14283222,30.8905177 7.36167023,30.9669819 7.5876943,30.9712486 L7.5876943,30.9712486 Z" id="Path"></path>
                                <path d="M43.8947054,3.6840913 C43.9451201,3.64546622 43.9886856,3.59853226 44.0236054,3.5453105 C43.498237,3.11908726 42.9729808,2.71273798 42.4278507,2.32615036 C35.3508159,8.2632963 28.3232975,14.7258107 21.5238242,21.5252839 C14.724351,28.3247572 8.26172435,35.3522756 2.32457841,42.4293104 C2.71116603,42.9744405 3.11751531,43.4998089 3.55361938,44.025065 C3.60133932,43.9872259 3.64468024,43.9439973 3.68251935,43.8961651 C9.62965841,36.7992563 16.1020536,29.7420954 22.9212885,22.9227482 C29.7405234,16.103401 36.7977966,9.63111807 43.8947054,3.6840913 Z" id="Path"></path>
                                <path d="M46.045471,5.38887196 C45.807545,5.15094597 45.5697313,4.9230131 45.3318053,4.70496107 L4.70338912,45.3334895 C4.92144115,45.5714155 5.14937402,45.8092292 5.3873,46.0471552 C5.62522599,46.2850812 5.86303969,46.5130141 6.10096567,46.7310661 L46.7293819,6.10253763 C46.5113298,5.86472392 46.283397,5.62679794 46.045471,5.38887196 Z" id="Path"></path>
                            </g>
                        </g>
                    </g>
                </g>
            </g>
        </g>
    </g>
</svg>