<?xml version="1.0" encoding="UTF-8"?>
<svg width="80px" height="80px" viewBox="0 0 80 80" version="1.1" xmlns="http://www.w3.org/2000/svg" xmlns:xlink="http://www.w3.org/1999/xlink">
    <title>net</title>
    <defs>
        <rect id="path-1" x="0" y="0" width="80" height="80"></rect>
        <polygon id="path-3" points="0.0384931507 0.115931507 2.77356164 0.115931507 2.77356164 19.3150685 0.0384931507 19.3150685"></polygon>
        <polygon id="path-5" points="0.0314109589 0.115931507 2.76634247 0.115931507 2.76634247 19.3150685 0.0314109589 19.3150685"></polygon>
        <polygon id="path-7" points="0.0241780822 0.115931507 2.75924658 0.115931507 2.75924658 19.3150685 0.0241780822 19.3150685"></polygon>
    </defs>
    <g id="desktop" stroke="none" stroke-width="1" fill="none" fill-rule="evenodd">
        <g id="02.4_rsults-copy" transform="translate(-642.000000, -389.000000)">
            <g id="net" transform="translate(642.000000, 389.000000)">
                <mask id="mask-2" fill="white">
                    <use xlink:href="#path-1"></use>
                </mask>
                <g id="Mask"></g>
                <g id="Group-32" mask="url(#mask-2)">
                    <g transform="translate(-17.000000, 11.000000)">
                        <polyline id="Fill-1" fill="#DBE0E4" points="0.410945205 69.178589 0.410945205 0.411054795 70.7382055 0.411054795 70.7768356 69.2142055"></polyline>
                        <polygon id="Fill-2" fill="#9AA1AA" points="0 0.000123287671 0 69.1786164 0.821917808 69.1786164 0.821917808 0.82190411 70.3272603 0.82190411 70.3657534 69.2142329 71.1878082 69.2142329 71.1490411 0.000123287671"></polygon>
                        <polygon id="Fill-3" fill="#9AA1AA" points="57.8210548 57.4336164 56.999137 57.4336164 56.999137 14.1555342 14.1500959 14.1555342 14.1500959 56.4470411 13.3281781 56.4470411 13.3281781 13.3336164 57.8210548 13.3336164"></polygon>
                        <polygon id="Fill-4" fill="#9AA1AA" points="50.6411781 50.250726 49.8192603 50.250726 49.8192603 21.3383973 21.3299452 21.3383973 21.3299452 49.5886712 20.5080274 49.5886712 20.5080274 20.5164795 50.6411781 20.5164795"></polygon>
                        <polygon id="Fill-5" fill="#9AA1AA" points="47.0129041 46.6210685 46.1909863 46.6210685 46.1909863 24.9680548 24.9581096 24.9680548 24.9581096 46.1228493 24.1361918 46.1228493 24.1361918 24.146137 47.0129041 24.146137"></polygon>
                        <polygon id="Fill-6" fill="#9AA1AA" points="0.613219178 55.9983425 0.20869863 55.282863 24.344863 41.6365616 24.7493836 42.3519041"></polygon>
                        <polygon id="Fill-7" fill="#9AA1AA" points="0.418972603 36.9936986 0.402945205 36.1719178 24.5391096 35.7013699 24.555137 36.5231507"></polygon>
                        <polygon id="Fill-8" fill="#9AA1AA" points="24.3165342 29.5264658 0.180369863 13.1594795 0.64160274 12.4793425 24.7777671 28.8461918"></polygon>
                        <polygon id="Fill-9" fill="#9AA1AA" points="70.3722877 55.9983425 46.2361233 42.3519041 46.6406438 41.6365616 70.7768082 55.282863"></polygon>
                        <polygon id="Fill-10" fill="#9AA1AA" points="70.5665342 36.9936986 46.4303699 36.5231507 46.4463973 35.7013699 70.5825616 36.1719178"></polygon>
                        <polygon id="Fill-11" fill="#9AA1AA" points="46.8325753 29.4155068 46.3713425 28.7352329 70.3439452 12.4793425 70.8051781 13.1596164"></polygon>
                        <polygon id="Fill-12" fill="#9AA1AA" points="35.9194521 24.5571233 36.7413699 24.5571233 36.7413699 0.410958904 35.9194521 0.410958904"></polygon>
                        <polygon id="Fill-13" fill="#9AA1AA" points="27.4627945 24.8130137 8.24567123 0.666849315 8.88882192 0.155068493 28.1059452 24.3012329"></polygon>
                        <polygon id="Fill-14" fill="#9AA1AA" points="43.272411 24.8130137 42.6292603 24.3012329 61.8463836 0.155068493 62.4895342 0.666849315"></polygon>
                        <polygon id="Fill-15" fill="#78C2A4" points="26.5001918 43.9400959 0.0397808219 69.1653014 70.7769041 69.2142055 44.5073151 43.9400959"></polygon>
                        <g id="Group-31" stroke-width="1" fill="none" transform="translate(30.821918, 50.637123)">
                            <g id="Group-18">
                                <mask id="mask-4" fill="white">
                                    <use xlink:href="#path-3"></use>
                                </mask>
                                <g id="Clip-17"></g>
                                <path d="M1.08369863,19.1255205 L0.172191781,17.831137 C0.0865753425,17.7099041 0.0384931507,17.5452466 0.0384931507,17.3736027 L0.0384931507,2.05743836 C0.0384931507,0.986890411 0.652054795,0.115931507 1.40616438,0.115931507 C2.16,0.115931507 2.77356164,0.986890411 2.77356164,2.05743836 L2.77356164,17.3736027 C2.77356164,17.5452466 2.72547945,17.7099041 2.64,17.831137 L1.72835616,19.1255205 C1.55027397,19.3782603 1.26178082,19.3782603 1.08369863,19.1255205" id="Fill-16" fill="#FBB42F" mask="url(#mask-4)"></path>
                            </g>
                            <path d="M1.40610959,0.116 L1.40610959,19.3150411 C1.52282192,19.3150411 1.63939726,19.2520274 1.72857534,19.125726 L2.64008219,17.8313425 C2.72556164,17.7096986 2.77350685,17.5451781 2.77350685,17.3735342 L2.77350685,2.05750685 C2.77350685,0.986958904 2.15994521,0.116 1.40610959,0.116" id="Fill-19" fill="#FABC2A"></path>
                            <g id="Group-23" transform="translate(4.109589, 0.000000)">
                                <mask id="mask-6" fill="white">
                                    <use xlink:href="#path-5"></use>
                                </mask>
                                <g id="Clip-22"></g>
                                <path d="M1.07661644,19.1255205 L0.164972603,17.831137 C0.0794931507,17.7099041 0.0314109589,17.5452466 0.0314109589,17.3736027 L0.0314109589,2.05743836 C0.0314109589,0.986890411 0.644972603,0.115931507 1.39894521,0.115931507 C2.15278082,0.115931507 2.76634247,0.986890411 2.76634247,2.05743836 L2.76634247,17.3736027 C2.76634247,17.5452466 2.71826027,17.7099041 2.63278082,17.831137 L1.72113699,19.1255205 C1.54319178,19.3782603 1.25456164,19.3782603 1.07661644,19.1255205" id="Fill-21" fill="#FBB42F" mask="url(#mask-6)"></path>
                            </g>
                            <path d="M5.50846575,0.116 L5.50846575,19.3150411 C5.62517808,19.3150411 5.74189041,19.2520274 5.83093151,19.125726 L6.74257534,17.8313425 C6.82791781,17.7096986 6.87586301,17.5451781 6.87586301,17.3735342 L6.87586301,2.05750685 C6.87586301,0.986958904 6.26243836,0.116 5.50846575,0.116" id="Fill-24" fill="#FABC2A"></path>
                            <g id="Group-28" transform="translate(8.219178, 0.000000)">
                                <mask id="mask-8" fill="white">
                                    <use xlink:href="#path-7"></use>
                                </mask>
                                <g id="Clip-27"></g>
                                <path d="M1.06938356,19.1255205 L0.157739726,17.831137 C0.072260274,17.7099041 0.0241780822,17.5452466 0.0241780822,17.3736027 L0.0241780822,2.05743836 C0.0241780822,0.986890411 0.637739726,0.115931507 1.39171233,0.115931507 C2.14568493,0.115931507 2.75924658,0.986890411 2.75924658,2.05743836 L2.75924658,17.3736027 C2.75924658,17.5452466 2.71116438,17.7099041 2.62554795,17.831137 L1.7140411,19.1255205 C1.5359589,19.3782603 1.24746575,19.3782603 1.06938356,19.1255205" id="Fill-26" fill="#FBB42F" mask="url(#mask-8)"></path>
                            </g>
                            <path d="M9.61083562,0.116 L9.61083562,19.3150411 C9.72768493,19.3150411 9.84426027,19.2520274 9.93330137,19.125726 L10.8449452,17.8313425 C10.9304247,17.7096986 10.9783699,17.5451781 10.9783699,17.3735342 L10.9783699,2.05750685 C10.9783699,0.986958904 10.3648082,0.116 9.61083562,0.116" id="Fill-29" fill="#FABC2A"></path>
                        </g>
                    </g>
                </g>
            </g>
        </g>
    </g>
</svg>