<?xml version="1.0" encoding="UTF-8"?>
<svg width="250px" height="230px" viewBox="0 0 250 230" version="1.1" xmlns="http://www.w3.org/2000/svg" xmlns:xlink="http://www.w3.org/1999/xlink">
    <title>nets</title>
    <defs>
        <rect id="path-1" x="0" y="0" width="250" height="230"></rect>
        <polygon id="path-3" points="0.120978474 0.364356164 8.71690802 0.364356164 8.71690802 60.704501 0.120978474 60.704501"></polygon>
        <polygon id="path-5" points="0.0987201566 0.364356164 8.69421918 0.364356164 8.69421918 60.704501 0.0987201566 60.704501"></polygon>
        <polygon id="path-7" points="0.0759882583 0.364356164 8.67191781 0.364356164 8.67191781 60.704501 0.0759882583 60.704501"></polygon>
    </defs>
    <g id="desktop" stroke="none" stroke-width="1" fill="none" fill-rule="evenodd">
        <g id="02.1_pick-a-bat-copy" transform="translate(-1065.000000, -154.000000)">
            <g id="nets" transform="translate(1065.000000, 154.000000)">
                <mask id="mask-2" fill="white">
                    <use xlink:href="#path-1"></use>
                </mask>
                <g id="Mask"></g>
                <g id="Group-32" mask="url(#mask-2)">
                    <g transform="translate(12.000000, 5.000000)">
                        <polyline id="Fill-1" fill="#DBE0E4" points="1.29154207 217.418423 1.29154207 1.2918865 222.320074 1.2918865 222.441483 217.53036"></polyline>
                        <polygon id="Fill-2" fill="#9AA1AA" points="0 0.000387475538 0 217.418509 2.58317025 217.418509 2.58317025 2.5831272 221.028532 2.5831272 221.149511 217.530446 223.733112 217.530446 223.611272 0.000387475538"></polygon>
                        <polygon id="Fill-3" fill="#9AA1AA" points="181.723315 180.505652 179.140145 180.505652 179.140145 44.4888219 44.4717299 44.4888219 44.4717299 177.404986 41.8885597 177.404986 41.8885597 41.9056517 181.723315 41.9056517"></polygon>
                        <polygon id="Fill-4" fill="#9AA1AA" points="159.157988 157.930853 156.574818 157.930853 156.574818 67.0635342 67.0369706 67.0635342 67.0369706 155.85011 64.4538004 155.85011 64.4538004 64.480364 159.157988 64.480364"></polygon>
                        <polygon id="Fill-5" fill="#9AA1AA" points="147.754841 146.523358 145.171671 146.523358 145.171671 78.4710294 78.439773 78.4710294 78.439773 144.957526 75.8566027 144.957526 75.8566027 75.8878591 147.754841 75.8878591"></polygon>
                        <polygon id="Fill-6" fill="#9AA1AA" points="1.92726027 175.994791 0.65590998 173.746141 76.5124266 130.857765 77.7837769 133.105984"></polygon>
                        <polygon id="Fill-7" fill="#9AA1AA" points="1.31677104 116.26591 1.26639922 113.68317 77.1229159 112.204305 77.1732877 114.787045"></polygon>
                        <polygon id="Fill-8" fill="#9AA1AA" points="76.4233933 92.7974638 0.566876712 41.358364 2.01646575 39.2207906 77.8729824 90.6594599"></polygon>
                        <polygon id="Fill-9" fill="#9AA1AA" points="221.170047 175.994791 145.31353 133.105984 146.584881 130.857765 222.441397 173.746141"></polygon>
                        <polygon id="Fill-10" fill="#9AA1AA" points="221.780536 116.26591 145.92402 114.787045 145.974391 112.204305 221.830908 113.68317"></polygon>
                        <polygon id="Fill-11" fill="#9AA1AA" points="147.188094 92.4487358 145.738505 90.3107319 221.080971 39.2207906 222.53056 41.3587945"></polygon>
                        <polygon id="Fill-12" fill="#9AA1AA" points="112.889706 77.1795303 115.472877 77.1795303 115.472877 1.29158513 112.889706 1.29158513"></polygon>
                        <polygon id="Fill-13" fill="#9AA1AA" points="86.3116399 77.9837573 25.9149667 2.09581213 27.9362975 0.487358121 88.3329706 76.3753033"></polygon>
                        <polygon id="Fill-14" fill="#9AA1AA" points="135.999006 77.9837573 133.977675 76.3753033 194.374348 0.487358121 196.395679 2.09581213"></polygon>
                        <polygon id="Fill-15" fill="#78C2A4" points="83.286317 138.097444 0.12502544 217.376661 222.441699 217.53036 139.880133 138.097444"></polygon>
                        <g id="Group-31" stroke-width="1" fill="none" transform="translate(96.868885, 159.145245)">
                            <g id="Group-18">
                                <mask id="mask-4" fill="white">
                                    <use xlink:href="#path-3"></use>
                                </mask>
                                <g id="Clip-17"></g>
                                <path d="M3.40590998,60.1087789 L0.541174168,56.0407162 C0.272093933,55.6596986 0.120978474,55.1422035 0.120978474,54.6027515 L0.120978474,6.46623483 C0.120978474,3.10165558 2.04931507,0.364356164 4.41937378,0.364356164 C6.78857143,0.364356164 8.71690802,3.10165558 8.71690802,6.46623483 L8.71690802,54.6027515 C8.71690802,55.1422035 8.56579256,55.6596986 8.29714286,56.0407162 L5.43197652,60.1087789 C4.87228963,60.9031037 3.96559687,60.9031037 3.40590998,60.1087789" id="Fill-16" fill="#FBB42F" mask="url(#mask-4)"></path>
                            </g>
                            <path d="M4.41920157,0.364571429 L4.41920157,60.7044149 C4.78601174,60.7044149 5.15239139,60.5063718 5.43266536,60.1094247 L8.29740117,56.041362 C8.56605088,55.6590528 8.71673581,55.1419883 8.71673581,54.6025362 L8.71673581,6.4664501 C8.71673581,3.10187084 6.78839922,0.364571429 4.41920157,0.364571429" id="Fill-19" fill="#FABC2A"></path>
                            <g id="Group-23" transform="translate(12.915851, 0.000000)">
                                <mask id="mask-6" fill="white">
                                    <use xlink:href="#path-5"></use>
                                </mask>
                                <g id="Clip-22"></g>
                                <path d="M3.38365166,60.1087789 L0.518485323,56.0407162 C0.249835616,55.6596986 0.0987201566,55.1422035 0.0987201566,54.6027515 L0.0987201566,6.46623483 C0.0987201566,3.10165558 2.02705675,0.364356164 4.39668493,0.364356164 C6.76588258,0.364356164 8.69421918,3.10165558 8.69421918,6.46623483 L8.69421918,54.6027515 C8.69421918,55.1422035 8.54310372,55.6596986 8.27445401,56.0407162 L5.40928767,60.1087789 C4.85003131,60.9031037 3.94290802,60.9031037 3.38365166,60.1087789" id="Fill-21" fill="#FBB42F" mask="url(#mask-6)"></path>
                            </g>
                            <path d="M17.3123209,0.364571429 L17.3123209,60.7044149 C17.6791311,60.7044149 18.0459413,60.5063718 18.3257847,60.1094247 L21.1909511,56.041362 C21.4591703,55.6590528 21.6098552,55.1419883 21.6098552,54.6025362 L21.6098552,6.4664501 C21.6098552,3.10187084 19.6819491,0.364571429 17.3123209,0.364571429" id="Fill-24" fill="#FABC2A"></path>
                            <g id="Group-28" transform="translate(25.831703, 0.000000)">
                                <mask id="mask-8" fill="white">
                                    <use xlink:href="#path-7"></use>
                                </mask>
                                <g id="Clip-27"></g>
                                <path d="M3.36091977,60.1087789 L0.495753425,56.0407162 C0.227103718,55.6596986 0.0759882583,55.1422035 0.0759882583,54.6027515 L0.0759882583,6.46623483 C0.0759882583,3.10165558 2.00432485,0.364356164 4.37395303,0.364356164 C6.74358121,0.364356164 8.67191781,3.10165558 8.67191781,6.46623483 L8.67191781,54.6027515 C8.67191781,55.1422035 8.52080235,55.6596986 8.25172211,56.0407162 L5.3869863,60.1087789 C4.82729941,60.9031037 3.92060665,60.9031037 3.36091977,60.1087789" id="Fill-26" fill="#FBB42F" mask="url(#mask-8)"></path>
                            </g>
                            <path d="M30.2054834,0.364571429 L30.2054834,60.7044149 C30.5727241,60.7044149 30.9391037,60.5063718 31.2189472,60.1094247 L34.0841135,56.041362 C34.3527632,55.6590528 34.5034481,55.1419883 34.5034481,54.6025362 L34.5034481,6.4664501 C34.5034481,3.10187084 32.5751115,0.364571429 30.2054834,0.364571429" id="Fill-29" fill="#FABC2A"></path>
                        </g>
                    </g>
                </g>
            </g>
        </g>
    </g>
</svg>