<?xml version="1.0" encoding="UTF-8"?>
<svg width="250px" height="230px" viewBox="0 0 250 230" version="1.1" xmlns="http://www.w3.org/2000/svg" xmlns:xlink="http://www.w3.org/1999/xlink">
    <title>college/office</title>
    <defs>
        <rect id="path-1" x="0" y="0" width="250" height="230"></rect>
        <polygon id="path-3" points="2.7423831e-05 0 243.333635 0 243.333635 82.6149404 2.7423831e-05 82.6149404"></polygon>
        <polygon id="path-5" points="0.000271876166 0.252665996 215.122525 0.252665996 215.122525 80.4762859 0.000271876166 80.4762859"></polygon>
        <path d="M3.61680365,0.554649896 C0.954136772,0.561597493 0.963400236,2.80277677 0.963400236,2.80277677 L0.963400236,2.80277677 L0.218849332,26.6336164 C0.210164835,26.9092044 0.426119335,27.1384752 0.70228635,27.1471597 L0.70228635,27.1471597 C0.977295432,27.1558442 1.20772409,26.9398897 1.21582962,26.6643016 L1.21582962,26.6643016 L1.95459086,3.01873127 C1.95459086,3.01873127 1.96501226,1.92274771 3.57338116,2.04143584 L3.57338116,2.04143584 C4.69310235,2.12364908 4.83958087,2.64356098 4.87605576,3.06446962 L4.87605576,3.06446962 L4.14482109,27.9959245 C4.13555762,28.2801971 4.35151212,28.5187313 4.62710017,28.5276289 L4.62710017,28.5276289 C4.90210925,28.5355213 5.13253792,28.3114613 5.14180138,28.0266098 L5.14180138,28.0266098 L5.91240578,3.35279493 C5.94772273,2.87977931 6.02472527,0.667548361 3.87965444,0.561018527 L3.87965444,0.561018527 C3.79802016,0.556965762 3.71928072,0.555228862 3.64227818,0.554649896 L3.64227818,0.554649896 L3.61680365,0.554649896 Z" id="path-7"></path>
        <path d="M0.909556353,2.89946417 L0.123898828,28.0329784 C0.114635365,28.3224616 0.330589865,28.5650486 0.606177913,28.5737331 L0.606177913,28.5737331 C0.881765961,28.5818386 1.11277359,28.3537258 1.12087912,28.0636636 L1.12087912,28.0636636 L1.90016801,3.12641904 C1.90016801,3.12641904 1.91232631,1.96964399 3.52127418,2.09180592 L3.52127418,2.09180592 C4.63983744,2.17749296 4.78573699,2.72577423 4.82221188,3.16926256 L4.82221188,3.16926256 L4.04755472,29.4624466 C4.03771229,29.7629303 4.25366679,30.0136227 4.52925484,30.0225097 L4.52925484,30.0225097 C4.80484288,30.0304128 5.03527155,29.7941944 5.04453501,29.4937108 L5.04453501,29.4937108 L5.85798293,3.47148306 C5.89387885,2.97241395 5.97493416,0.639179003 3.82986332,0.53091227 L3.82986332,0.53091227 C3.74649214,0.526859504 3.6660158,0.524543638 3.58727636,0.524543638 L3.58727636,0.524543638 C0.903766688,0.524543638 0.909556353,2.89946417 0.909556353,2.89946417 L0.909556353,2.89946417 Z" id="path-9"></path>
    </defs>
    <g id="desktop" stroke="none" stroke-width="1" fill="none" fill-rule="evenodd">
        <g id="02.1_pick-a-bat-copy" transform="translate(-229.000000, -21.000000)">
            <g id="college/office" transform="translate(229.000000, 21.000000)">
                <mask id="mask-2" fill="white">
                    <use xlink:href="#path-1"></use>
                </mask>
                <g id="Mask"></g>
                <g id="Group-2" mask="url(#mask-2)">
                    <g transform="translate(3.000000, 81.000000)">
                        <g id="Group-3" transform="translate(-0.000000, 0.000000)">
                            <mask id="mask-4" fill="white">
                                <use xlink:href="#path-3"></use>
                            </mask>
                            <g id="Clip-2"></g>
                            <path d="M243.291872,31.7188476 C245.040988,53.9040153 192.005243,76.1814072 124.834039,81.4769645 C57.6623099,86.7725218 1.7911937,73.0814154 0.0420773056,50.8962477 C-1.70703908,28.7110801 51.328706,6.43316415 118.499911,1.13760686 C185.671639,-4.15795044 241.542755,9.53367993 243.291872,31.7188476" id="Fill-1" fill="#80C7A7" mask="url(#mask-4)"></path>
                        </g>
                        <g id="Group-12" transform="translate(13.246753, 1.128213)">
                            <g id="Group-3" transform="translate(0.000000, 1.736899)">
                                <mask id="mask-6" fill="white">
                                    <use xlink:href="#path-5"></use>
                                </mask>
                                <g id="Clip-2"></g>
                            </g>
                            <path d="M202.141575,34.6405492 L168.045081,22.7914211 C168.038133,22.7873683 168.030028,22.7850524 168.021343,22.7833155 L168.017291,22.7815786 C168.007448,22.7781048 167.998764,22.7792628 167.990079,22.7781048 C167.987763,22.7781048 167.986026,22.7766007 167.983132,22.7766007 L167.982553,22.7766007 C167.971552,22.7766007 167.96171,22.7766007 167.952446,22.7781048 C148.64623,23.57071 129.354488,24.8571735 110.070851,26.0712662 C92.0580454,27.2048826 74.0475559,28.3836584 56.0393822,29.5925404 C54.2445861,29.7129654 52.44979,29.8333905 50.6549939,29.9555524 C50.5872548,29.9601841 33.012727,29.1959484 33.012727,29.2683192 C33.1638373,37.875235 40.7812994,48.6608017 40.9324096,57.2677175 C40.9341465,57.3580363 38.0225241,57.8449471 38.1035794,57.8335709 C45.8113602,56.7541742 66.5568874,53.8668684 74.2646683,52.7870959 C91.303652,50.4023329 108.342636,48.016412 125.38162,45.6310701 C142.626136,43.2167798 159.870653,40.8024896 177.11517,38.3881993 C185.438392,37.2227398 193.762193,36.0572802 202.085995,34.8923996 C202.104522,34.8900838 202.123049,34.8871889 202.141575,34.8842941 C202.277054,34.8657672 202.246947,34.6770241 202.141575,34.6405492" id="Fill-4" fill="#F7C469"></path>
                            <path d="M199.036694,33.9035249 C198.443832,33.6296737 197.538329,32.9158081 196.868464,32.9986003 C196.421502,33.0536021 195.975119,33.1091829 195.528157,33.1641847 L189.183842,33.9492632 L166.395721,36.7676721 C149.884755,38.8102659 133.373789,40.8522807 116.862822,42.8948744 C114.991024,43.126461 113.118646,43.3580476 111.247426,43.5890553 C110.948101,43.6261091 110.648196,43.663163 110.34887,43.7002168 C110.459453,43.6869006 110.233077,43.5832656 110.087178,43.4657354 C109.6489,43.1119869 109.21178,42.7588173 108.774082,42.4062267 C105.498289,39.7644026 102.223655,37.1219996 98.9484413,34.4801755 C97.4257595,33.2516086 95.9030776,32.0224628 94.3798168,30.7944748 C93.9247491,30.4274101 93.4696815,30.0597664 93.0140348,29.6927016 C92.9051891,29.6041197 92.7957645,29.5155379 92.6857608,29.427535 C104.833057,28.6656151 116.980353,27.9036952 129.12707,27.1417753 C143.14269,26.2623252 157.158311,25.3828751 171.173353,24.503425 L171.795163,24.4646342 C171.932378,24.4559497 171.95901,24.2706805 171.827585,24.226679 C170.246427,23.6998195 169.284764,23.3038064 167.712291,23.4010728 C165.525535,23.5371299 163.338778,23.6726081 161.151443,23.8080862 C153.25434,24.2978919 145.357237,24.7882765 137.460134,25.2780821 C122.016203,26.2356927 106.572272,27.1938823 91.128341,28.1514928 C90.333999,28.2012839 89.5396569,28.2504961 88.7453149,28.2997082 C88.7047873,28.3020241 88.67526,28.32113 88.6561541,28.3466045 C88.6162054,28.3853953 88.6040471,28.4432919 88.6474696,28.4907672 C88.657891,28.5098731 88.6723651,28.5255052 88.6943659,28.5341897 C94.2941297,33.020022 99.7300461,37.7055978 105.307809,42.2186416 C106.557219,43.2289381 107.815313,44.2282343 109.086724,45.2107404 C109.316573,45.3884831 109.774536,45.9413961 110.093546,45.8991316 C110.458295,45.8504984 110.823044,45.8024441 111.188372,45.753811 C116.379385,45.0665777 121.570399,44.3793445 126.761412,43.6915323 C144.334782,41.364666 161.908152,39.0372207 179.481522,36.7103544 L198.975903,34.1287428 C199.078959,34.1148477 199.159435,33.9602636 199.036694,33.9035249" id="Fill-6" fill="#FFFFFF"></path>
                            <path d="M181.284655,4.05062324 L180.471207,30.072851 C180.462523,30.3727557 180.231515,30.6095529 179.956506,30.6016494 C179.680339,30.592184 179.464963,30.3420704 179.474806,30.0415868 L180.248884,3.74782377 C180.212409,3.30433544 180.06651,2.75663314 178.947946,2.6709461 C177.339577,2.54878417 177.32684,3.70498025 177.32684,3.70498025 L176.547551,28.6428038 C176.539446,28.932866 176.308438,29.1609788 176.033429,29.1522943 C175.757841,29.1436098 175.541887,28.9016018 175.55115,28.6115396 L176.336229,3.47860435 C176.336229,3.47860435 176.32986,0.962415993 179.257114,1.10947348 C181.401606,1.21774021 181.320551,3.55155413 181.284655,4.05062324" id="Fill-8" fill="#FFFFFF"></path>
                            <path d="M176.128495,3.35291073 L175.357312,28.0267255 C175.349206,28.3115771 175.118778,28.5356371 174.84319,28.5271968 C174.567602,28.5182681 174.351647,28.2808918 174.360911,27.9960403 L175.092145,3.06458541 C175.055091,2.64367678 174.909192,2.12376487 173.79005,2.04097266 C172.181102,1.92228453 172.17068,3.01884706 172.17068,3.01884706 L171.431919,26.6644174 C171.423814,26.9400054 171.193385,27.1559599 170.917797,27.1472755 C170.642209,27.138591 170.426254,26.9087413 170.434939,26.6337322 L171.17949,2.80289256 C171.17949,2.80289256 171.169068,0.416392698 174.095744,0.56113432 C176.240815,0.667085188 176.163812,2.8798951 176.128495,3.35291073" id="Fill-10" fill="#FFFFFF"></path>
                        </g>
                        <g id="Group-15" transform="translate(183.462901, 1.128213)">
                            <mask id="mask-8" fill="white">
                                <use xlink:href="#path-7"></use>
                            </mask>
                            <g id="Clip-14"></g>
                            <polygon id="Fill-13" fill="#F7C469" mask="url(#mask-8)" points="13.3934055 18.1626419 -1.62556421 16.864599 -0.98406934 9.44456453 14.0343214 10.7426074"></polygon>
                        </g>
                        <g id="Group-18" transform="translate(188.673599, 1.707179)">
                            <mask id="mask-10" fill="white">
                                <use xlink:href="#path-9"></use>
                            </mask>
                            <g id="Clip-17"></g>
                            <polygon id="Fill-16" fill="#F7C469" mask="url(#mask-10)" points="8.18270707 17.5836754 -6.8362626 16.2856325 -6.19476773 8.86559804 8.82362297 10.1636409"></polygon>
                        </g>
                    </g>
                </g>
            </g>
        </g>
    </g>
</svg>