<?xml version="1.0" encoding="UTF-8"?>
<svg width="80px" height="80px" viewBox="0 0 80 80" version="1.1" xmlns="http://www.w3.org/2000/svg" xmlns:xlink="http://www.w3.org/1999/xlink">
    <title>office/college team</title>
    <defs>
        <rect id="path-1" x="0" y="0" width="80" height="80"></rect>
        <polygon id="path-3" points="2.48427646e-05 0 220.431646 0 220.431646 74.8394166 2.48427646e-05 74.8394166"></polygon>
        <polygon id="path-5" points="0.000246287821 0.228885667 194.875699 0.228885667 194.875699 72.9020472 0.000246287821 72.9020472"></polygon>
        <path d="M3.2763986,0.502447552 C0.864335664,0.508741259 0.872727273,2.53898601 0.872727273,2.53898601 L0.872727273,2.53898601 L0.198251748,24.1269231 C0.190384615,24.3765734 0.386013986,24.5842657 0.636188811,24.5921329 L0.636188811,24.5921329 C0.885314685,24.6 1.09405594,24.4043706 1.1013986,24.1547203 L1.1013986,24.1547203 L1.77062937,2.73461538 C1.77062937,2.73461538 1.78006993,1.74178322 3.23706294,1.8493007 L3.23706294,1.8493007 C4.2513986,1.92377622 4.38409091,2.39475524 4.41713287,2.77604895 L4.41713287,2.77604895 L3.75472028,25.361014 C3.74632867,25.6185315 3.94195804,25.8346154 4.19160839,25.8426756 L4.19160839,25.8426756 C4.44073427,25.8498252 4.64947552,25.6468531 4.65786713,25.3888112 L4.65786713,25.3888112 L5.35594406,3.03723776 C5.38793706,2.60874126 5.45769231,0.60472028 3.51451049,0.508216783 L3.51451049,0.508216783 C3.44055944,0.504545455 3.36923077,0.502972028 3.29947552,0.502447552 L3.29947552,0.502447552 L3.2763986,0.502447552 Z" id="path-7"></path>
        <path d="M0.823951049,2.62657343 L0.112237762,25.3945804 C0.103846154,25.6568182 0.299475524,25.8765734 0.549125874,25.8844406 L0.549125874,25.8844406 C0.798776224,25.8917832 1.00804196,25.6851399 1.01538462,25.4223776 L1.01538462,25.4223776 L1.72132867,2.83216783 C1.72132867,2.83216783 1.73234266,1.78426573 3.18986014,1.89493007 L3.18986014,1.89493007 C4.20314685,1.97255245 4.33531469,2.46923077 4.36835664,2.87097902 L4.36835664,2.87097902 L3.66660839,26.6895105 C3.65769231,26.9617133 3.85332168,27.1888112 4.10297203,27.1968618 L4.10297203,27.1968618 C4.35262238,27.204021 4.56136364,26.990035 4.56975524,26.7178322 L4.56975524,26.7178322 L5.30664336,3.14475524 C5.33916084,2.69265734 5.41258741,0.579020979 3.46940559,0.480944056 L3.46940559,0.480944056 C3.39388112,0.477272727 3.32097902,0.475174825 3.24965035,0.475174825 L3.24965035,0.475174825 C0.818706294,0.475174825 0.823951049,2.62657343 0.823951049,2.62657343 L0.823951049,2.62657343 Z" id="path-9"></path>
    </defs>
    <g id="desktop" stroke="none" stroke-width="1" fill="none" fill-rule="evenodd">
        <g id="02.4_rsults-copy" transform="translate(-623.000000, -68.000000)">
            <g id="office/college-team" transform="translate(623.000000, 68.000000)">
                <mask id="mask-2" fill="white">
                    <use xlink:href="#path-1"></use>
                </mask>
                <g id="Mask"></g>
                <g id="Group-2" mask="url(#mask-2)">
                    <g transform="translate(-130.000000, 25.000000)">
                        <g id="Group-3" transform="translate(-0.000000, 0.000000)">
                            <mask id="mask-4" fill="white">
                                <use xlink:href="#path-3"></use>
                            </mask>
                            <g id="Clip-2"></g>
                            <path d="M220.393813,28.7335443 C221.978307,48.8306962 173.934161,69.0113924 113.084953,73.8085443 C52.235269,78.6056962 1.62261076,66.2031646 0.0381170886,46.1060127 C-1.54637658,26.0088608 46.497769,5.82768987 107.346978,1.03053797 C168.196661,-3.76661392 218.80932,8.63639241 220.393813,28.7335443" id="Fill-1" fill="#80C7A7" mask="url(#mask-4)"></path>
                        </g>
                        <g id="Group-12" transform="translate(12.000000, 1.022028)">
                            <g id="Group-3" transform="translate(0.000000, 1.573427)">
                                <mask id="mask-6" fill="white">
                                    <use xlink:href="#path-5"></use>
                                </mask>
                                <g id="Clip-2"></g>
                            </g>
                            <path d="M183.116486,31.3802622 L152.229073,20.6463462 C152.22278,20.6426748 152.215437,20.6405769 152.20757,20.6390035 L152.203899,20.6374301 C152.194983,20.6342832 152.187115,20.6353322 152.179248,20.6342832 C152.17715,20.6342832 152.175577,20.6329206 152.172955,20.6329206 L152.17243,20.6329206 C152.162465,20.6329206 152.153549,20.6329206 152.145157,20.6342832 C134.655997,21.3522902 117.179948,22.5176748 99.7112413,23.6175 C83.3937587,24.6444231 67.0783741,25.7122552 50.7650874,26.8073601 C49.1392133,26.916451 47.5133392,27.025542 45.887465,27.1362063 C45.8261014,27.1404021 29.9056469,26.4480944 29.9056469,26.5136538 C30.042535,34.310507 36.9430594,44.0809615 37.0799476,51.8778147 C37.081521,51.9596329 34.4439336,52.4007168 34.5173601,52.3904113 C41.4997028,51.4126049 60.2927098,48.7970455 67.2750524,47.8188986 C82.7103671,45.6585839 98.1456818,43.4972203 113.580997,41.3363811 C129.2025,39.1493182 144.824003,36.9622552 160.445507,34.7751923 C167.985367,33.7194231 175.525752,32.6636538 183.066136,31.6084091 C183.08292,31.6063112 183.099703,31.6036888 183.116486,31.6010664 C183.239213,31.5842832 183.211941,31.4133042 183.116486,31.3802622" id="Fill-4" fill="#F7C469"></path>
                            <path d="M180.303829,30.7126049 C179.766766,30.464528 178.946486,29.8178497 178.339668,29.8928497 C177.934773,29.9426748 177.530402,29.9930245 177.125507,30.0428497 L171.378304,30.7540385 L150.734948,33.3071853 C135.777955,35.157535 120.820962,37.0073601 105.863969,38.8577098 C104.168339,39.0675 102.472185,39.2772902 100.77708,39.4865559 C100.505927,39.5201224 100.234248,39.5536888 99.9630944,39.5872552 C100.063269,39.5751923 99.8581993,39.4813112 99.7260315,39.3748427 C99.3290035,39.0543881 98.9330245,38.734458 98.536521,38.4150524 C95.5690385,36.0218706 92.6026049,33.6281643 89.6356469,31.2349825 C88.2562762,30.1220455 86.8769056,29.0085839 85.4970105,27.8961713 C85.0847727,27.5636538 84.672535,27.2306119 84.2597727,26.8980944 C84.1611713,26.8178497 84.0620455,26.7376049 83.9623951,26.6578846 C94.9664161,25.9676748 105.970437,25.277465 116.973934,24.5872552 C129.670437,23.7905769 142.366941,22.9938986 155.06292,22.1972203 L155.626206,22.1620804 C155.750507,22.1542133 155.774633,21.9863811 155.655577,21.946521 C154.223234,21.4692483 153.35208,21.110507 151.927605,21.1986189 C149.946661,21.3218706 147.965717,21.4445979 145.984248,21.5673252 C138.830402,22.0110315 131.676556,22.4552622 124.52271,22.8989685 C110.532325,23.766451 96.5419406,24.634458 82.5515559,25.5019406 C81.8319755,25.5470455 81.1123951,25.5916259 80.3928147,25.6362063 C80.3561014,25.6383042 80.3293531,25.6556119 80.3120455,25.6786888 C80.2758566,25.7138287 80.2648427,25.7662762 80.3041783,25.8092832 C80.3136189,25.8265909 80.3267308,25.8407517 80.3466608,25.8486189 C85.4193881,29.9122552 90.3436888,34.1568357 95.396486,38.2451224 C96.5283042,39.1603322 97.6679895,40.0655769 98.8197378,40.9556119 C99.0279545,41.1166259 99.4428147,41.6175 99.7318007,41.5792133 C100.06222,41.5351573 100.39264,41.4916259 100.723584,41.4475699 C105.426031,40.8250175 110.128479,40.202465 114.830927,39.5793881 C130.750332,37.471521 146.669738,35.3631294 162.589143,33.2552622 L180.248759,30.9166259 C180.342115,30.9040385 180.415017,30.7640035 180.303829,30.7126049" id="Fill-6" fill="#FFFFFF"></path>
                            <path d="M164.22257,3.66938811 L163.485682,27.242465 C163.477815,27.5141434 163.268549,27.7286538 163.019423,27.7214942 C162.769248,27.7129196 162.574143,27.4863462 162.583059,27.2141434 L163.284283,3.39508741 C163.251241,2.99333916 163.119073,2.49718531 162.105787,2.41956294 C160.648794,2.3088986 160.637255,3.35627622 160.637255,3.35627622 L159.931311,25.9470105 C159.923969,26.2097727 159.714703,26.4164161 159.465577,26.408549 C159.215927,26.4006818 159.020297,26.181451 159.028689,25.9186888 L159.739878,3.15120629 C159.739878,3.15120629 159.734108,0.871835664 162.385857,1.00505245 C164.328514,1.10312937 164.255087,3.21729021 164.22257,3.66938811" id="Fill-8" fill="#FFFFFF"></path>
                            <path d="M159.551696,3.03734266 L158.853094,25.3889161 C158.845752,25.646958 158.63701,25.8499301 158.38736,25.8422841 C158.13771,25.8341958 157.94208,25.6191608 157.950472,25.3611189 L158.612885,2.77615385 C158.579318,2.39486014 158.44715,1.92388112 157.433339,1.84888112 C155.975822,1.74136364 155.966381,2.73472028 155.966381,2.73472028 L155.29715,24.1548252 C155.289808,24.4044755 155.081066,24.6001049 154.831416,24.5922378 C154.581766,24.5843706 154.386136,24.3761538 154.394003,24.127028 L155.068479,2.53909091 C155.068479,2.53909091 155.059038,0.377202797 157.710262,0.508321678 C159.653444,0.604300699 159.583689,2.60884615 159.551696,3.03734266" id="Fill-10" fill="#FFFFFF"></path>
                        </g>
                        <g id="Group-15" transform="translate(166.195804, 1.022028)">
                            <mask id="mask-8" fill="white">
                                <use xlink:href="#path-7"></use>
                            </mask>
                            <g id="Clip-14"></g>
                            <polygon id="Fill-13" fill="#F7C469" mask="url(#mask-8)" points="12.1328497 16.4532168 -1.47256993 15.2773427 -0.891451049 8.55566434 12.7134441 9.73153846"></polygon>
                        </g>
                        <g id="Group-18" transform="translate(170.916084, 1.546503)">
                            <mask id="mask-10" fill="white">
                                <use xlink:href="#path-9"></use>
                            </mask>
                            <g id="Clip-17"></g>
                            <polygon id="Fill-16" fill="#F7C469" mask="url(#mask-10)" points="7.41256993 15.9287413 -6.19284965 14.7528671 -5.61173077 8.03118881 7.99316434 9.20706294"></polygon>
                        </g>
                    </g>
                </g>
            </g>
        </g>
    </g>
</svg>