<?xml version="1.0" encoding="UTF-8"?>
<svg width="80px" height="80px" viewBox="0 0 80 80" version="1.1" xmlns="http://www.w3.org/2000/svg" xmlns:xlink="http://www.w3.org/1999/xlink">
    <title>park</title>
    <defs>
        <rect id="path-1" x="0" y="0" width="80" height="80"></rect>
        <polygon id="path-3" points="0.15558 0.173 44.76638 0.173 44.76638 44.90198 0.15558 44.90198"></polygon>
        <polygon id="path-5" points="0.14728 0.05724 102.54708 0.05724 102.54708 15.2 0.14728 15.2"></polygon>
    </defs>
    <g id="desktop" stroke="none" stroke-width="1" fill="none" fill-rule="evenodd">
        <g id="02.4_rsults-copy" transform="translate(-623.000000, -185.000000)">
            <g id="park" transform="translate(623.000000, 185.000000)">
                <mask id="mask-2" fill="white">
                    <use xlink:href="#path-1"></use>
                </mask>
                <g id="Mask"></g>
                <g id="Group-45" mask="url(#mask-2)">
                    <g transform="translate(-47.000000, 1.000000)">
                        <g id="Group-3" stroke-width="1" fill="none" transform="translate(23.800000, 0.027000)">
                            <mask id="mask-4" fill="white">
                                <use xlink:href="#path-3"></use>
                            </mask>
                            <g id="Clip-2"></g>
                            <path d="M22.46098,44.90198 C34.74398,44.90198 44.76638,34.85898 44.76638,22.54018 C44.76638,10.22118 34.74398,0.17278 22.46098,0.17278 C10.17298,0.17278 0.15558,10.22118 0.15558,22.54018 C0.15558,34.85898 10.17298,44.90198 22.46098,44.90198" id="Fill-1" fill="#78C2A4" mask="url(#mask-4)"></path>
                        </g>
                        <path d="M54.12036,49.3579 C64.43236,49.3579 72.84636,40.9265 72.84636,30.5845 C72.84636,20.2425 64.43236,11.8069 54.12036,11.8069 C43.80436,11.8069 35.39436,20.2425 35.39436,30.5845 C35.39436,40.9265 43.80436,49.3579 54.12036,49.3579" id="Fill-4" fill="#78C2A4"></path>
                        <path d="M32.96938,49.44638 C42.46018,49.44638 50.20438,41.68618 50.20438,32.16778 C50.20438,22.64918 42.46018,14.88518 32.96938,14.88518 C23.47478,14.88518 15.73458,22.64918 15.73458,32.16778 C15.73458,41.68618 23.47478,49.44638 32.96938,49.44638" id="Fill-6" fill="#78C2A4"></path>
                        <path d="M44.75846,22.56718 C44.75846,21.73938 45.43306,21.06478 46.26106,21.06478 C47.08866,21.06478 47.75766,21.73958 47.75766,22.56718 L47.75766,31.09938 L53.22866,26.76798 C53.88046,26.25778 54.81586,26.36558 55.32606,27.01178 C55.84206,27.66378 55.72886,28.59918 55.08226,29.10938 L47.75746,34.90918 L47.75746,64.68418 C47.75746,65.51198 47.08846,66.18098 46.26086,66.18098 C45.43286,66.18098 44.75826,65.51198 44.75826,64.68418 L44.75826,22.56718 L44.75846,22.56718 Z" id="Fill-8" fill="#917D52"></path>
                        <g id="Group-22" stroke-width="1" fill="none" transform="translate(0.600000, 64.627000)">
                            <mask id="mask-6" fill="white">
                                <use xlink:href="#path-5"></use>
                            </mask>
                            <g id="Clip-21"></g>
                            <path d="M7.71588,15.20004 L94.97848,15.20004 C99.13988,15.20004 102.54708,11.79284 102.54708,7.62584 C102.54708,3.46464 99.13968,0.05724 94.97848,0.05724 L7.71588,0.05724 C3.55468,0.05744 0.14728,3.46464 0.14728,7.62604 C0.14728,11.79284 3.55468,15.20004 7.71588,15.20004" id="Fill-20" fill="#95D6A4" mask="url(#mask-6)"></path>
                        </g>
                        <path d="M35.219,79.82684 L122.4814,79.82684 C126.643,79.82684 130.0502,76.41964 130.0502,72.25264 C130.0502,68.09144 126.6428,64.68404 122.4814,64.68404 L35.219,64.68404 C31.0576,64.68424 27.6504,68.09144 27.6504,72.25284 C27.6504,76.41964 31.0576,79.82684 35.219,79.82684" id="Fill-23" fill="#95D6A4"></path>
                        <path d="M81.85122,66.59892 L80.73042,65.10472 C80.62542,64.96472 80.56642,64.77472 80.56642,64.57652 L80.56642,46.89492 C80.56642,45.65932 81.32062,44.65372 82.24722,44.65372 C83.17422,44.65372 83.92842,45.65932 83.92842,46.89492 L83.92842,64.57652 C83.92842,64.77472 83.86942,64.96472 83.76422,65.10472 L82.64362,66.59892 C82.42462,66.89072 82.07002,66.89072 81.85122,66.59892" id="Fill-25" fill="#B2A17D"></path>
                        <path d="M82.24732,44.6538 L82.24732,66.8178 C82.39092,66.8178 82.53432,66.745 82.64372,66.5992 L83.76432,65.105 C83.86932,64.9646 83.92832,64.7746 83.92832,64.5764 L83.92832,46.895 C83.92832,45.6592 83.17412,44.6538 82.24732,44.6538" id="Fill-27" fill="#917D52"></path>
                        <path d="M75.85122,66.59892 L74.73042,65.10472 C74.62542,64.96472 74.56642,64.77472 74.56642,64.57652 L74.56642,46.89492 C74.56642,45.65932 75.32062,44.65372 76.24722,44.65372 C77.17422,44.65372 77.92842,45.65932 77.92842,46.89492 L77.92842,64.57652 C77.92842,64.77472 77.86942,64.96472 77.76422,65.10472 L76.64362,66.59892 C76.42462,66.89072 76.07002,66.89072 75.85122,66.59892" id="Fill-29" fill="#B2A17D"></path>
                        <path d="M76.24732,44.6538 L76.24732,66.8178 C76.39092,66.8178 76.53432,66.745 76.64372,66.5992 L77.76432,65.105 C77.86932,64.9646 77.92832,64.7746 77.92832,64.5764 L77.92832,46.895 C77.92832,45.6592 77.17412,44.6538 76.24732,44.6538" id="Fill-31" fill="#917D52"></path>
                        <path d="M69.85122,66.59892 L68.73042,65.10472 C68.62542,64.96472 68.56642,64.77472 68.56642,64.57652 L68.56642,46.89492 C68.56642,45.65932 69.32062,44.65372 70.24722,44.65372 C71.17422,44.65372 71.92842,45.65932 71.92842,46.89492 L71.92842,64.57652 C71.92842,64.77472 71.86942,64.96472 71.76422,65.10472 L70.64362,66.59892 C70.42462,66.89072 70.07002,66.89072 69.85122,66.59892" id="Fill-33" fill="#B2A17D"></path>
                        <path d="M70.24732,44.6538 L70.24732,66.8178 C70.39092,66.8178 70.53432,66.745 70.64372,66.5992 L71.76432,65.105 C71.86932,64.9646 71.92832,64.7746 71.92832,64.5764 L71.92832,46.895 C71.92832,45.6592 71.17412,44.6538 70.24732,44.6538" id="Fill-35" fill="#917D52"></path>
                        <path d="M74.93834,42.06376 L74.18854,42.06376 C74.16294,41.67456 73.83994,41.36656 73.44394,41.36656 C73.04834,41.36656 72.72534,41.67456 72.69954,42.06376 L72.69434,42.06376 C72.66854,41.67456 72.34554,41.36656 71.94994,41.36656 C71.55394,41.36656 71.23094,41.67456 71.20534,42.06376 L70.45574,42.06376 C70.04294,42.06376 69.70854,42.39836 69.70854,42.81076 C69.70854,43.22356 70.04294,43.55816 70.45574,43.55816 L71.20534,43.55816 C71.23114,43.94736 71.55414,44.25536 71.94994,44.25536 C72.34554,44.25536 72.66854,43.94736 72.69434,43.55816 L72.69954,43.55816 C72.72534,43.94736 73.04834,44.25536 73.44394,44.25536 C73.83974,44.25536 74.16294,43.94736 74.18854,43.55816 L74.93834,43.55816 C75.35094,43.55816 75.68534,43.22356 75.68534,42.81076 C75.68534,42.39836 75.35094,42.06376 74.93834,42.06376" id="Fill-37" fill="#E2E2E2"></path>
                        <path d="M81.74868,39.53836 L81.12788,39.12256 C81.35748,38.77976 81.26568,38.31576 80.92288,38.08596 C80.58008,37.85656 80.11608,37.94836 79.88628,38.29116 C80.11608,37.94836 80.02428,37.48416 79.68148,37.25456 C79.33868,37.02496 78.87468,37.11676 78.64488,37.45936 L78.02428,37.04376 C77.68148,36.81416 77.21748,36.90596 76.98768,37.24876 C76.75808,37.59156 76.84988,38.05556 77.19268,38.28516 L77.81348,38.70096 C77.58388,39.04376 77.67568,39.50796 78.01848,39.73756 C78.36128,39.96716 78.82528,39.87536 79.05488,39.53256 C78.82528,39.87536 78.91708,40.33936 79.25988,40.56896 C79.60268,40.79876 80.06668,40.70696 80.29628,40.36416 L80.91708,40.77976 C81.25988,41.00936 81.72388,40.91756 81.95348,40.57496 C82.18328,40.23216 82.09148,39.76796 81.74868,39.53836" id="Fill-39" fill="#E2E2E2"></path>
                        <path d="M112.44126,58.2118 C111.60886,58.1206 110.81486,58.2432 110.10286,58.5276 C109.06106,57.2992 107.50726,56.5184 105.77026,56.5184 C104.94766,56.5184 104.16646,56.6948 103.46066,57.0092 C102.16526,54.584 99.55826,52.9654 96.58646,53.103 C92.79146,53.2788 89.71006,56.3766 89.55286,60.1726 C89.45046,62.6438 90.56346,64.8582 92.34146,66.2726 L115.50306,66.2726 C116.34686,65.3356 116.83086,64.068 116.73606,62.6876 C116.57706,60.3714 114.74906,58.4646 112.44126,58.2118" id="Fill-41" fill="#78C2A4"></path>
                        <path d="M112.44106,58.2118 C111.60886,58.1206 110.81466,58.2432 110.10286,58.5276 C109.06106,57.2992 107.50726,56.5186 105.77026,56.5186 C104.94746,56.5186 104.16646,56.695 103.46066,57.0094 C102.21666,54.6804 99.76266,53.095 96.93766,53.095 C94.16426,53.095 91.74906,54.6234 90.48466,56.8828 C91.01646,56.7614 91.56906,56.695 92.13766,56.695 C94.34566,56.695 96.32686,57.6634 97.68106,59.1986 C98.32506,59.9286 99.29806,60.2828 100.26386,60.1624 C100.49526,60.1334 100.73086,60.1186 100.97026,60.1186 C102.22466,60.1186 103.38366,60.5256 104.32326,61.2148 C104.95986,61.6816 105.73786,61.9106 106.52186,61.8164 C106.71146,61.794 106.90446,61.7822 107.10026,61.7822 C109.65726,61.7822 111.75046,63.7624 111.93346,66.2728 L115.50306,66.2728 C116.34686,65.3358 116.83106,64.068 116.73606,62.6876 C116.57686,60.3714 114.74886,58.4646 112.44106,58.2118" id="Fill-43" fill="#95D6A4"></path>
                    </g>
                </g>
            </g>
        </g>
    </g>
</svg>