<?xml version="1.0" encoding="UTF-8"?>
<svg width="250px" height="230px" viewBox="0 0 250 230" version="1.1" xmlns="http://www.w3.org/2000/svg" xmlns:xlink="http://www.w3.org/1999/xlink">
    <title>park</title>
    <defs>
        <rect id="path-1" x="0" y="0" width="250" height="230"></rect>
        <polygon id="path-3" points="0.2917125 0.324375 83.9369625 0.324375 83.9369625 84.1912125 0.2917125 84.1912125"></polygon>
        <polygon id="path-5" points="0.27615 0.107325 192.275775 0.107325 192.275775 28.5 0.27615 28.5"></polygon>
    </defs>
    <g id="desktop" stroke="none" stroke-width="1" fill="none" fill-rule="evenodd">
        <g id="02.1_pick-a-bat-copy" transform="translate(-780.000000, -26.000000)">
            <g id="park" transform="translate(780.000000, 26.000000)">
                <mask id="mask-2" fill="white">
                    <use xlink:href="#path-1"></use>
                </mask>
                <g id="Mask"></g>
                <g id="Group-45" mask="url(#mask-2)">
                    <g transform="translate(3.000000, 40.000000)">
                        <g id="Group-3" stroke-width="1" fill="none" transform="translate(44.625000, 0.050625)">
                            <mask id="mask-4" fill="white">
                                <use xlink:href="#path-3"></use>
                            </mask>
                            <g id="Clip-2"></g>
                            <path d="M42.1143375,84.1912125 C65.1449625,84.1912125 83.9369625,65.3605875 83.9369625,42.2628375 C83.9369625,19.1647125 65.1449625,0.3239625 42.1143375,0.3239625 C19.0743375,0.3239625 0.2917125,19.1647125 0.2917125,42.2628375 C0.2917125,65.3605875 19.0743375,84.1912125 42.1143375,84.1912125" id="Fill-1" fill="#78C2A4" mask="url(#mask-4)"></path>
                        </g>
                        <path d="M101.475675,92.5460625 C120.810675,92.5460625 136.586925,76.7371875 136.586925,57.3459375 C136.586925,37.9546875 120.810675,22.1379375 101.475675,22.1379375 C82.133175,22.1379375 66.364425,37.9546875 66.364425,57.3459375 C66.364425,76.7371875 82.133175,92.5460625 101.475675,92.5460625" id="Fill-4" fill="#78C2A4"></path>
                        <path d="M61.8175875,92.7119625 C79.6128375,92.7119625 94.1332125,78.1615875 94.1332125,60.3145875 C94.1332125,42.4672125 79.6128375,27.9097125 61.8175875,27.9097125 C44.0152125,27.9097125 29.5023375,42.4672125 29.5023375,60.3145875 C29.5023375,78.1615875 44.0152125,92.7119625 61.8175875,92.7119625" id="Fill-6" fill="#78C2A4"></path>
                        <path d="M83.9221125,42.3134625 C83.9221125,40.7613375 85.1869875,39.4964625 86.7394875,39.4964625 C88.2912375,39.4964625 89.5456125,40.7617125 89.5456125,42.3134625 L89.5456125,58.3113375 L99.8037375,50.1899625 C101.025863,49.2333375 102.779738,49.4354625 103.736363,50.6470875 C104.703863,51.8695875 104.491613,53.6234625 103.279238,54.5800875 L89.5452375,65.4547125 L89.5452375,121.282838 C89.5452375,122.834963 88.2908625,124.089338 86.7391125,124.089338 C85.1866125,124.089338 83.9217375,122.834963 83.9217375,121.282838 L83.9217375,42.3134625 L83.9221125,42.3134625 Z" id="Fill-8" fill="#917D52"></path>
                        <path d="M38.61705,96.70695 C57.5598,96.70695 73.015425,81.26145 73.015425,62.3082 C73.015425,43.365825 57.5598,27.909825 38.61705,27.909825 C19.663425,27.909825 4.2183,43.365825 4.2183,62.3082 C4.2183,81.26145 19.6638,96.70695 38.61705,96.70695" id="Fill-10" fill="#B3E59F"></path>
                        <path d="M38.61705,96.70695 C57.5598,96.70695 73.015425,81.26145 73.015425,62.3082 C73.015425,43.365825 57.5598,27.909825 38.61705,27.909825 C19.663425,27.909825 4.2183,43.365825 4.2183,62.3082 C4.2183,81.26145 19.6638,96.70695 38.61705,96.70695" id="Fill-12" fill="#B3E59F"></path>
                        <path d="M21.932475,97.1211375 C34.0101,97.1211375 43.864725,87.2728875 43.864725,75.1888875 C43.864725,63.1112625 34.0101,53.2566375 21.932475,53.2566375 C9.84735,53.2566375 0.000225,63.1112625 0.000225,75.1888875 C0.000225,87.2732625 9.847725,97.1211375 21.932475,97.1211375" id="Fill-14" fill="#B3E59F"></path>
                        <path d="M49.9377375,102.202687 C62.0157375,102.202687 71.8699875,92.3548125 71.8699875,80.2704375 C71.8699875,68.1928125 62.0157375,58.3381875 49.9377375,58.3381875 C37.8529875,58.3381875 28.0054875,68.1928125 28.0054875,80.2704375 C28.0054875,92.3548125 37.8533625,102.202687 49.9377375,102.202687" id="Fill-16" fill="#B3E59F"></path>
                        <path d="M41.423325,72.7893375 L47.9292,67.6443375 C49.151325,66.6768375 50.9052,66.8898375 51.861825,68.1014625 C52.829325,69.3130875 52.6167,71.0782125 51.4047,72.0344625 L41.423325,79.9327125 L41.423325,121.283213 C41.423325,122.835338 40.16895,124.089713 38.6172,124.089713 C37.0647,124.089713 35.8002,122.835338 35.8002,121.283213 L35.8002,62.3084625 C35.8002,60.7567125 37.0647,59.5023375 38.6172,59.5023375 C40.16895,59.5023375 41.423325,60.7567125 41.423325,62.3084625 L41.423325,72.7893375 Z" id="Fill-18" fill="#917D52"></path>
                        <g id="Group-22" stroke-width="1" fill="none" transform="translate(1.125000, 121.175625)">
                            <mask id="mask-6" fill="white">
                                <use xlink:href="#path-5"></use>
                            </mask>
                            <g id="Clip-21"></g>
                            <path d="M14.467275,28.500075 L178.08465,28.500075 C185.887275,28.500075 192.275775,22.111575 192.275775,14.29845 C192.275775,6.4962 185.8869,0.107325 178.08465,0.107325 L14.467275,0.107325 C6.665025,0.1077 0.27615,6.4962 0.27615,14.298825 C0.27615,22.111575 6.665025,28.500075 14.467275,28.500075" id="Fill-20" fill="#95D6A4" mask="url(#mask-6)"></path>
                        </g>
                        <path d="M66.035625,149.675325 L229.652625,149.675325 C237.455625,149.675325 243.844125,143.286825 243.844125,135.4737 C243.844125,127.67145 237.45525,121.282575 229.652625,121.282575 L66.035625,121.282575 C58.233,121.28295 51.8445,127.67145 51.8445,135.474075 C51.8445,143.286825 58.233,149.675325 66.035625,149.675325" id="Fill-23" fill="#95D6A4"></path>
                        <path d="M153.471038,124.872975 L151.369538,122.07135 C151.172663,121.80885 151.062038,121.4526 151.062038,121.080975 L151.062038,87.927975 C151.062038,85.611225 152.476163,83.725725 154.213538,83.725725 C155.951663,83.725725 157.365788,85.611225 157.365788,87.927975 L157.365788,121.080975 C157.365788,121.4526 157.255163,121.80885 157.057913,122.07135 L154.956788,124.872975 C154.546163,125.4201 153.881288,125.4201 153.471038,124.872975" id="Fill-25" fill="#B2A17D"></path>
                        <path d="M154.213725,83.725875 L154.213725,125.283375 C154.482975,125.283375 154.75185,125.146875 154.956975,124.8735 L157.0581,122.071875 C157.254975,121.808625 157.3656,121.452375 157.3656,121.08075 L157.3656,87.928125 C157.3656,85.611 155.951475,83.725875 154.213725,83.725875" id="Fill-27" fill="#917D52"></path>
                        <path d="M142.221038,124.872975 L140.119538,122.07135 C139.922663,121.80885 139.812038,121.4526 139.812038,121.080975 L139.812038,87.927975 C139.812038,85.611225 141.226163,83.725725 142.963538,83.725725 C144.701663,83.725725 146.115788,85.611225 146.115788,87.927975 L146.115788,121.080975 C146.115788,121.4526 146.005163,121.80885 145.807913,122.07135 L143.706788,124.872975 C143.296163,125.4201 142.631288,125.4201 142.221038,124.872975" id="Fill-29" fill="#B2A17D"></path>
                        <path d="M142.963725,83.725875 L142.963725,125.283375 C143.232975,125.283375 143.50185,125.146875 143.706975,124.8735 L145.8081,122.071875 C146.004975,121.808625 146.1156,121.452375 146.1156,121.08075 L146.1156,87.928125 C146.1156,85.611 144.701475,83.725875 142.963725,83.725875" id="Fill-31" fill="#917D52"></path>
                        <path d="M130.971038,124.872975 L128.869538,122.07135 C128.672663,121.80885 128.562038,121.4526 128.562038,121.080975 L128.562038,87.927975 C128.562038,85.611225 129.976163,83.725725 131.713538,83.725725 C133.451663,83.725725 134.865788,85.611225 134.865788,87.927975 L134.865788,121.080975 C134.865788,121.4526 134.755163,121.80885 134.557913,122.07135 L132.456788,124.872975 C132.046163,125.4201 131.381288,125.4201 130.971038,124.872975" id="Fill-33" fill="#B2A17D"></path>
                        <path d="M131.713725,83.725875 L131.713725,125.283375 C131.982975,125.283375 132.25185,125.146875 132.456975,124.8735 L134.5581,122.071875 C134.754975,121.808625 134.8656,121.452375 134.8656,121.08075 L134.8656,87.928125 C134.8656,85.611 133.451475,83.725875 131.713725,83.725875" id="Fill-35" fill="#917D52"></path>
                        <path d="M140.509388,78.86955 L139.103513,78.86955 C139.055513,78.1398 138.449888,77.5623 137.707388,77.5623 C136.965638,77.5623 136.360013,78.1398 136.311638,78.86955 L136.301888,78.86955 C136.253513,78.1398 135.647888,77.5623 134.906138,77.5623 C134.163638,77.5623 133.558013,78.1398 133.510013,78.86955 L132.104513,78.86955 C131.330513,78.86955 130.703513,79.496925 130.703513,80.270175 C130.703513,81.044175 131.330513,81.67155 132.104513,81.67155 L133.510013,81.67155 C133.558388,82.4013 134.164013,82.9788 134.906138,82.9788 C135.647888,82.9788 136.253513,82.4013 136.301888,81.67155 L136.311638,81.67155 C136.360013,82.4013 136.965638,82.9788 137.707388,82.9788 C138.449513,82.9788 139.055513,82.4013 139.103513,81.67155 L140.509388,81.67155 C141.283013,81.67155 141.910013,81.044175 141.910013,80.270175 C141.910013,79.496925 141.283013,78.86955 140.509388,78.86955" id="Fill-37" fill="#E2E2E2"></path>
                        <path d="M153.278775,74.134425 L152.114775,73.3548 C152.545275,72.71205 152.37315,71.84205 151.7304,71.411175 C151.08765,70.98105 150.21765,71.153175 149.786775,71.795925 C150.21765,71.153175 150.045525,70.2828 149.402775,69.8523 C148.760025,69.4218 147.890025,69.593925 147.45915,70.2363 L146.295525,69.45705 C145.652775,69.02655 144.782775,69.198675 144.3519,69.841425 C143.9214,70.484175 144.093525,71.354175 144.736275,71.784675 L145.900275,72.5643 C145.469775,73.20705 145.6419,74.077425 146.28465,74.507925 C146.9274,74.938425 147.7974,74.7663 148.2279,74.12355 C147.7974,74.7663 147.969525,75.6363 148.612275,76.0668 C149.255025,76.497675 150.125025,76.32555 150.555525,75.6828 L151.719525,76.46205 C152.362275,76.89255 153.232275,76.720425 153.662775,76.07805 C154.09365,75.4353 153.921525,74.564925 153.278775,74.134425" id="Fill-39" fill="#E2E2E2"></path>
                        <path d="M210.827362,109.147125 C209.266612,108.976125 207.777863,109.206 206.442862,109.73925 C204.489488,107.436 201.576113,105.972 198.319237,105.972 C196.776863,105.972 195.312112,106.30275 193.988737,106.89225 C191.559863,102.345 186.671738,99.310125 181.099613,99.568125 C173.983988,99.89775 168.206363,105.706125 167.911613,112.823625 C167.719613,117.457125 169.806488,121.609125 173.140238,124.261125 L216.568237,124.261125 C218.150362,122.50425 219.057862,120.1275 218.880112,117.53925 C218.581987,113.196375 215.154487,109.621125 210.827362,109.147125" id="Fill-41" fill="#78C2A4"></path>
                        <path d="M210.826988,109.147125 C209.266613,108.976125 207.777488,109.206 206.442862,109.73925 C204.489488,107.436 201.576113,105.972375 198.319238,105.972375 C196.776488,105.972375 195.312113,106.303125 193.988738,106.892625 C191.656238,102.52575 187.054988,99.553125 181.758113,99.553125 C176.557988,99.553125 172.029488,102.418875 169.658738,106.65525 C170.655863,106.427625 171.691988,106.303125 172.758113,106.303125 C176.898113,106.303125 180.612863,108.118875 183.151988,110.997375 C184.359488,112.366125 186.183863,113.03025 187.994738,112.8045 C188.428613,112.750125 188.870363,112.722375 189.319238,112.722375 C191.671238,112.722375 193.844363,113.4855 195.606113,114.77775 C196.799738,115.653 198.258488,116.082375 199.728488,115.90575 C200.083988,115.86375 200.445863,115.841625 200.812988,115.841625 C205.607363,115.841625 209.532113,119.5545 209.875237,124.2615 L216.568237,124.2615 C218.150362,122.504625 219.058238,120.1275 218.880112,117.53925 C218.581613,113.196375 215.154112,109.621125 210.826988,109.147125" id="Fill-43" fill="#95D6A4"></path>
                    </g>
                </g>
            </g>
        </g>
    </g>
</svg>