<svg xmlns="http://www.w3.org/2000/svg" xmlns:xlink="http://www.w3.org/1999/xlink" width="105" height="128" viewBox="0 0 105 128">
    <defs>
        <path id="rjzgre5q7a" d="M0 0.611L104.857 0.611 104.857 61.013 0 61.013z"/>
        <path id="rwzh0yyg7c" d="M0 0.495L104.857 0.495 104.857 49.391 0 49.391z"/>
        <path id="yfchqrs3le" d="M0 0.127L19.932 0.127 19.932 35.832 0 35.832z"/>
    </defs>
    <g fill="none" fill-rule="evenodd">
        <g>
            <g>
                <g>
                    <g transform="translate(-150 -1973) translate(120 1935) translate(30 38.849) translate(0 63.918)">
                        <mask id="1oiy68w1kb" fill="#fff">
                            <use xlink:href="#rjzgre5q7a"/>
                        </mask>
                        <path fill="#F5822D" d="M89.493 16.552l-12.616-4.03c-.867.66-1.78 1.353-2.732 2.058l.382-.428c-4.51-2.9-3.95-11.527-3.95-13.54H34.28c0 2.013.503 10.64-4.006 13.54l.276.307c-.894-.663-1.754-1.314-2.571-1.937l-12.616 4.03C6.914 19.252 0 28.709 0 37.568v17.405c0 3.336 2.708 6.04 6.05 6.04h92.757c3.342 0 6.05-2.704 6.05-6.04V37.568c0-8.86-6.914-18.316-15.364-21.016" mask="url(#1oiy68w1kb)"/>
                    </g>
                    <path fill="#F5822D" d="M70.972 74.276c-1.235-3.603-.982-8.022-.982-9.39H34.028c2.142 6.206 14.264 16.1 25.37 20.338l11.574-10.948z" transform="translate(-150 -1973) translate(120 1935) translate(30 38.849)"/>
                    <path fill="#CCCBCB" d="M79.722 37.536c0 16.046-9.286 36.066-28.194 36.066s-28.195-20.02-28.195-36.066c0-16.047 12.624-22.04 28.195-22.04 15.57 0 28.194 5.993 28.194 22.04" transform="translate(-150 -1973) translate(120 1935) translate(30 38.849)"/>
                    <g transform="translate(-150 -1973) translate(120 1935) translate(30 38.849) translate(0 75.54)">
                        <mask id="ybe797wied" fill="#fff">
                            <use xlink:href="#rwzh0yyg7c"/>
                        </mask>
                        <path fill="#89C5CC" d="M0 43.3V25.75C0 16.818 6.914 7.282 15.364 4.56L27.98.495c6.787 5.224 24.449 12.352 24.449 12.352S70.09 5.72 76.877.495l12.616 4.064c8.45 2.723 15.364 12.259 15.364 21.191V43.3c0 3.364-2.708 6.091-6.05 6.091H6.05c-3.342 0-6.05-2.727-6.05-6.09" mask="url(#ybe797wied)"/>
                    </g>
                    <path fill="#89C5CC" d="M53.472 118.151h-3.889c-2.147 0-3.889-1.858-3.889-4.15V89.098h11.667V114c0 2.292-1.741 4.15-3.889 4.15" transform="translate(-150 -1973) translate(120 1935) translate(30 38.849)"/>
                    <path fill="#CCCBCB" d="M53.472 88.892l-8.737 8.336c-.91.869-2.417.756-3.175-.237L26.25 76.904l4.877-4.653c.788-.752 2.053-.783 2.882-.073l19.463 16.714z" transform="translate(-150 -1973) translate(120 1935) translate(30 38.849)"/>
                    <path fill="#CCCBCB" d="M51.528 88.892l8.737 8.336c.91.869 2.417.756 3.175-.237l15.31-20.087-4.877-4.653c-.788-.752-2.053-.783-2.882-.073L51.528 88.892z" transform="translate(-150 -1973) translate(120 1935) translate(30 38.849)"/>
                    <path fill="#89C5CC" d="M51.528 106.53c1.074 0 1.944.867 1.944 1.937s-.87 1.937-1.944 1.937c-1.074 0-1.945-.867-1.945-1.937s.87-1.937 1.945-1.937M51.528 97.814c1.074 0 1.944.867 1.944 1.937s-.87 1.937-1.944 1.937c-1.074 0-1.945-.868-1.945-1.937 0-1.07.87-1.937 1.945-1.937" transform="translate(-150 -1973) translate(120 1935) translate(30 38.849)"/>
                    <g transform="translate(-150 -1973) translate(120 1935) translate(30 38.849) translate(0 89.098)">
                        <mask id="ckzumkkghf" fill="#fff">
                            <use xlink:href="#yfchqrs3le"/>
                        </mask>
                        <path fill="#69A1AC" d="M15.261 11.16L4.261.127C1.63 3.85 0 8.27 0 12.557v17.28c0 3.31 2.677 5.995 5.98 5.995h13.952V22.468c0-4.241-1.68-8.31-4.67-11.308" mask="url(#ckzumkkghf)"/>
                    </g>
                    <path fill="#69A1AC" d="M89.367 100.17l11.27-11.072C103.33 92.834 105 97.27 105 101.572v17.341c0 3.323-2.742 6.018-6.125 6.018H84.583v-13.413c0-4.256 1.721-8.338 4.784-11.348" transform="translate(-150 -1973) translate(120 1935) translate(30 38.849)"/>
                    <path fill="#30516C" d="M51.528 71.564c-18.017 0-26.12-19.762-26.12-33.794h-4.02c0 15.684 9.352 37.77 30.14 37.77s30.139-22.086 30.139-37.77h-4.02c0 14.032-8.103 33.794-26.12 33.794" transform="translate(-150 -1973) translate(120 1935) translate(30 38.849)"/>
                    <path fill="#F5822D" d="M52.014 0c-23.187 0-32.57 14.075-32.57 33.896h65.14C84.583 14.075 75.2 0 52.013 0M19.45 33.896l-2.71 3.924c-.556.806.043 1.887 1.046 1.887H85.27c1.003 0 1.602-1.08 1.046-1.887l-2.708-3.924H19.449z" transform="translate(-150 -1973) translate(120 1935) translate(30 38.849)"/>
                    <path fill="#E5E6E7" d="M82.467 64.718H65.295l.78-10.316h16.392v10.316zM64.295 77.91l.687-9.064h16.311c-2.495 4.01-8.843 7.348-16.998 9.064zm-3.073-13.19H42.806l-.78-10.317h19.977l-.781 10.316zm-1.051 13.893c-2.611.349-5.342.549-8.158.549-2.815 0-5.545-.2-8.155-.549l-.74-9.767h17.791l-.738 9.767zm-37.436-9.767h16.311l.686 9.064c-8.155-1.716-14.5-5.054-16.997-9.064zm-1.174-4.127V54.402h16.391l.781 10.316H21.561zM84.416 37.32c-.313-1.092-1.438-1.723-2.515-1.404-1.077.318-1.696 1.463-1.383 2.556.018.062 1.58 5.622 1.891 11.804H21.62c.312-6.182 1.874-11.742 1.891-11.804.313-1.093-.307-2.238-1.384-2.556-1.078-.32-2.202.312-2.514 1.404-.087.302-2.112 7.462-2.112 15.019v12.766c0 10.195 15.16 18.182 34.514 18.182 19.353 0 34.514-7.987 34.514-18.182V52.339c0-7.557-2.025-14.717-2.112-15.019z" transform="translate(-150 -1973) translate(120 1935) translate(30 38.849)"/>
                </g>
            </g>
        </g>
    </g>
</svg>
