<?xml version="1.0" encoding="UTF-8"?>
<svg width="76px" height="80px" viewBox="0 0 76 80" version="1.1" xmlns="http://www.w3.org/2000/svg" xmlns:xlink="http://www.w3.org/1999/xlink">
    <title>soft tennis</title>
    <g id="desktop" stroke="none" stroke-width="1" fill="none" fill-rule="evenodd">
        <g id="02.4_rsults-copy-2" transform="translate(-747.000000, -476.000000)">
            <g id="soft-tennis" transform="translate(747.000000, 476.000000)">
                <ellipse id="Oval" fill="#D2DFED" cx="37.7142857" cy="76.1904762" rx="37.7142857" ry="2.85714286"></ellipse>
                <g id="sport-copy" transform="translate(-0.000000, -0.000000)" fill-rule="nonzero">
                    <path d="M75.4285714,37.7142857 C75.4285714,38.2718532 75.4285714,38.8621646 75.3958277,39.4195784 C74.4799246,58.8967788 58.8968125,74.4799226 39.4196518,75.3958276 C38.8620854,75.4285714 38.2717752,75.4285714 37.7143626,75.4285714 C37.1567962,75.4285714 36.6648711,75.4285714 36.1402022,75.3958276 C16.5731114,74.5480236 0.898531998,58.8875552 0.0327437666,39.3213469 C0,38.7965232 0,38.2391094 0,37.7142857 C0,37.189462 0,36.5993044 0.0327437666,36.0417369 C0.915441925,16.5317926 16.531759,0.91544379 36.0416634,0.0327438333 C36.5992298,0 37.1567962,0 37.7142089,0 C38.2717752,0 38.7964441,0 39.321113,0.0327438333 C58.8766743,0.894229476 74.5343438,16.5517771 75.3956739,36.1073783 C75.4285714,36.6320482 75.4285714,37.1896157 75.4285714,37.7142857 Z" id="Path" fill="#8BC34A"></path>
                    <g id="Group" fill="#FAFAFA">
                        <path d="M39.2945988,0.0327215595 C39.7649904,10.8044132 35.5876916,21.2596427 27.8240791,28.7416654 C20.7949351,35.5472889 11.3897143,39.344526 1.60581437,39.3273786 C1.08150131,39.3273786 0.557034623,39.3273786 0.0327215595,39.2945988 C0,38.7701321 0,38.2130975 0,37.6886308 C0,37.1641641 0,36.5744079 0.0327215595,36.0172197 C9.50015944,36.480391 18.7348595,32.9907058 25.529883,26.3820262 C32.6797742,19.5343102 36.506046,9.92077742 36.0172197,0.0327215595 C36.5744079,0 37.1315962,0 37.6886308,0 C38.245819,0 38.7701321,0 39.2945988,0.0327215595 Z" id="Path"></path>
                        <path d="M75.3774152,37.6886308 C75.3774152,38.245819 75.3774152,38.8357288 75.3446936,39.3927635 C56.3939948,38.4879278 40.2979063,53.1169229 39.3929171,72.0676218 C39.3408391,73.1592621 39.3408391,74.252746 39.3929171,75.3443864 C38.8357288,75.3771079 38.245819,75.3771079 37.6887844,75.3771079 C37.1315962,75.3771079 36.6400047,75.3771079 36.1156916,75.3443864 C35.2004097,54.576796 51.2937329,36.9993273 72.0613232,36.0840454 C73.155268,36.035808 74.2507489,36.0353471 75.3446936,36.0826628 C75.3774152,36.6071295 75.3774152,37.1643177 75.3774152,37.6886308 Z" id="Path"></path>
                    </g>
                </g>
            </g>
        </g>
    </g>
</svg>