<svg xmlns="http://www.w3.org/2000/svg" xmlns:xlink="http://www.w3.org/1999/xlink" width="209" height="181" viewBox="0 0 209 181">
    <defs>
        <path id="kjlo7p93da" d="M0 0.175L208.405 0.175 208.405 73.271 0 73.271z"/>
        <path id="ek9gzo2src" d="M0 0.175L208.405 0.175 208.405 56.234 0 56.234z"/>
    </defs>
    <g fill="none" fill-rule="evenodd">
        <g>
            <g>
                <path fill="#E4EAF8" d="M131.004 167c-17.285.921-35.619.922-52.93 0l-4.668 8.41c-1.154 2.077.28 4.63 2.688 4.775 18.56 1.109 38.131 1.09 56.772-.079 2.441-.153 3.892-2.744 2.722-4.85L131.004 167z" transform="translate(-824 -257) translate(824 257)"/>
                <path fill="#D8DCE5" d="M81.618 177.422L86 167.354c-2.728-.097-5.422-.213-8.07-.354l-4.536 8.116c-1.12 2.003.273 4.468 2.612 4.607 1.74.103 3.498.194 5.267.277-.115-.84-.02-1.74.345-2.578" transform="translate(-824 -257) translate(824 257)"/>
                <path fill="#C5CFD6" d="M104 98.604C46.562 98.604 0 88.932 0 77v69.089c0 10.05 33.04 18.497 77.787 20.911v-32.224c0-1.97 1.565-3.569 3.495-3.569h45.436c1.93 0 3.495 1.598 3.495 3.57V167C174.961 164.586 208 156.14 208 146.089V77c0 11.932-46.562 21.604-104 21.604" transform="translate(-824 -257) translate(824 257)"/>
                <g transform="translate(-824 -257) translate(824 257) translate(0 77)">
                    <mask id="q08qxw5aab" fill="#fff">
                        <use xlink:href="#kjlo7p93da"/>
                    </mask>
                    <path fill="#9BA7B1" d="M77.653 73.27V57.563c0-1.959 1.585-3.548 3.54-3.548h46.02c1.955 0 3.54 1.589 3.54 3.548V73.27c44.687-2.436 77.65-10.871 77.652-20.906V.176c0 5.969-11.664 11.372-30.52 15.284-1.178.244-2.385.483-3.619.715-1.234.233-2.494.46-3.78.68-1.93.33-3.92.647-5.962.948-36.002 5.311-84.507 5.33-120.643 0C33.644 16.293 0 10.587 0 .175v52.19c0 10.034 32.964 18.47 77.653 20.906" mask="url(#q08qxw5aab)"/>
                </g>
                <g transform="translate(-824 -257) translate(824 257) translate(0 77)">
                    <mask id="7amua9f3zd" fill="#fff">
                        <use xlink:href="#ek9gzo2src"/>
                    </mask>
                    <path fill="#B0B9C0" d="M77.823 56.234c.458-1.422 1.793-2.45 3.37-2.45h46.02c1.576 0 2.911 1.028 3.369 2.45 44.774-2.413 77.821-10.822 77.823-20.825V.175c0 5.943-11.664 11.324-30.52 15.218-1.178.244-2.385.481-3.619.713-1.234.232-2.494.458-3.78.677-1.93.329-3.92.644-5.962.944-36.002 5.288-84.507 5.308-120.643 0C33.644 16.223 0 10.542 0 .175v35.233C0 45.412 33.048 53.82 77.823 56.234" mask="url(#7amua9f3zd)"/>
                </g>
                <path fill="#C5CFD6" d="M104 98.924C64.255 98.924 0 89.785 0 78v17.66C0 107.446 46.562 117 104 117c57.437 0 104-9.554 104-21.34V78c0 11.785-60.595 20.924-104 20.924" transform="translate(-824 -257) translate(824 257)"/>
                <path fill="#CAD6E0" d="M127.467 131H81.533c-1.95 0-3.533 1.593-3.533 3.557v32.732c17.309.947 35.666.949 53 0v-32.732c0-1.964-1.582-3.557-3.533-3.557" transform="translate(-824 -257) translate(824 257)"/>
                <path fill="#BECDD9" d="M86.602 133.828c0-1.14.545-2.159 1.398-2.828h-6.37c-2.004 0-3.63 1.564-3.63 3.492v32.136c2.822.148 5.694.27 8.602.372v-33.172z" transform="translate(-824 -257) translate(824 257)"/>
                <path fill="#89C5CC" d="M116 167.856v-15.201c0-1.466-1.179-2.655-2.633-2.655H94.633C93.18 150 92 151.189 92 152.655v15.2c7.816.186 15.598.2 24 0" transform="translate(-824 -257) translate(824 257)"/>
                <path fill="#89C5CC" d="M101.136 152.103c0-.83.334-1.575.864-2.103h-6.48c-1.392 0-2.52 1.19-2.52 2.658v15.22c2.68.065 5.399.101 8.136.122v-15.897z" transform="translate(-824 -257) translate(824 257)"/>
                <path fill="#E4EAF8" d="M104 56c57.438 0 104 9.626 104 21.5S161.438 99 104 99 0 89.374 0 77.5 46.562 56 104 56" transform="translate(-824 -257) translate(824 257)"/>
                <path fill="#D8DCE5" d="M8.356 77.5c0-11.584 44.242-21.027 99.644-21.481-1.387-.011-2.778-.019-4.178-.019C46.482 56 0 65.626 0 77.5S46.483 99 103.822 99c1.4 0 2.791-.008 4.178-.019C52.598 98.527 8.356 89.084 8.356 77.5" transform="translate(-824 -257) translate(824 257)"/>
                <path fill="#80C7A7" d="M104 72c35.346 0 64 6.044 64 13.5S139.346 99 104 99c-35.346 0-64-6.044-64-13.5S68.654 72 104 72" transform="translate(-824 -257) translate(824 257)"/>
                <path fill="#68AE8E" d="M48.348 85.5c0-7.16 26.348-13.016 59.652-13.47-1.38-.02-2.77-.03-4.174-.03C68.576 72 40 78.044 40 85.5S68.576 99 103.826 99c1.403 0 2.794-.01 4.174-.03-33.304-.454-59.652-6.31-59.652-13.47" transform="translate(-824 -257) translate(824 257)"/>
                <path fill="#707487" d="M82 81c-1.657 0-3-1.415-3-3.161V3.16C79 1.416 80.343 0 82 0s3 1.415 3 3.161V77.84C85 79.585 83.657 81 82 81M126 81c-1.656 0-3-1.415-3-3.161V3.16C123 1.416 124.343 0 126 0s3 1.415 3 3.161V77.84c0 1.746-1.343 3.161-3 3.161" transform="translate(-824 -257) translate(824 257)"/>
                <path fill="#89C5CC" d="M133.885 44h-58.77C73.948 44 73 43.066 73 41.914V12.086c0-1.152.947-2.086 2.116-2.086h58.768c1.169 0 2.116.934 2.116 2.086v29.828c0 1.152-.947 2.086-2.115 2.086" transform="translate(-824 -257) translate(824 257)"/>
                <path fill="#CAE6ED" d="M92.908 36h-6.816C84.385 36 83 34.657 83 33s1.384-3 3.092-3h6.816C94.615 30 96 31.343 96 33s-1.384 3-3.092 3M122.908 36h-6.816c-1.707 0-3.092-1.343-3.092-3s1.384-3 3.092-3h6.816c1.707 0 3.092 1.343 3.092 3s-1.384 3-3.092 3M119.725 25h-1.451c-1.808 0-3.274-1.343-3.274-3s1.466-3 3.274-3h1.451c1.809 0 3.275 1.343 3.275 3s-1.466 3-3.275 3M89.726 25h-1.452C86.466 25 85 23.657 85 22s1.466-3 3.274-3h1.452C91.534 19 93 20.343 93 22s-1.466 3-3.274 3" transform="translate(-824 -257) translate(824 257)"/>
            </g>
        </g>
    </g>
</svg>
