<?xml version="1.0" encoding="UTF-8"?>
<svg width="80px" height="80px" viewBox="0 0 80 80" version="1.1" xmlns="http://www.w3.org/2000/svg" xmlns:xlink="http://www.w3.org/1999/xlink">
    <title>stadium</title>
    <defs>
        <rect id="path-1" x="0" y="0" width="80" height="80"></rect>
        <polygon id="path-3" points="0 0.0774848889 92.1129105 0.0774848889 92.1129105 32.3847895 0 32.3847895"></polygon>
        <polygon id="path-5" points="0 0.0771708347 92.1129105 0.0771708347 92.1129105 24.854771 0 24.854771"></polygon>
    </defs>
    <g id="desktop" stroke="none" stroke-width="1" fill="none" fill-rule="evenodd">
        <g id="02.4_rsults-copy" transform="translate(-643.000000, -488.000000)">
            <g id="stadium" transform="translate(643.000000, 488.000000)">
                <mask id="mask-2" fill="white">
                    <use xlink:href="#path-1"></use>
                </mask>
                <g id="Mask"></g>
                <g id="Group-51" mask="url(#mask-2)">
                    <g transform="translate(-37.000000, 11.000000)">
                        <path d="M45.9668508,43.5817682 C20.5800414,43.5817682 0,39.3067458 0,34.0331492 L0,64.5696666 C0,69.0117187 14.6030939,72.745291 34.3808702,73.8121547 L34.3808702,59.5695878 C34.3808702,58.6984029 35.0725276,57.9920855 35.9256077,57.9920855 L56.0080939,57.9920855 C56.861174,57.9920855 57.5528315,58.6984029 57.5528315,59.5695878 L57.5528315,73.8121547 C77.3306077,72.745291 91.9337017,69.0118988 91.9337017,64.5696666 L91.9337017,34.0331492 C91.9337017,39.3067458 71.3536602,43.5817682 45.9668508,43.5817682" id="Fill-5" fill="#C5CFD6"></path>
                        <g id="Group-9" stroke-width="1" fill="none" transform="translate(0.000000, 34.033149)">
                            <mask id="mask-4" fill="white">
                                <use xlink:href="#path-3"></use>
                            </mask>
                            <g id="Clip-8"></g>
                            <path d="M34.3216959,32.3847895 L34.3216959,25.441617 C34.3216959,24.5759064 35.0222565,23.8737108 35.8863532,23.8737108 L56.2265393,23.8737108 C57.090636,23.8737108 57.7911966,24.5759064 57.7911966,25.441617 L57.7911966,32.3847895 C77.5425447,31.30833 92.111831,27.5799331 92.1129105,23.1448337 L92.1129105,0.0778454514 C92.1129105,2.71590124 86.9574751,5.10426748 78.6232503,6.83316484 C78.1024175,6.94097304 77.5689911,7.04643758 77.0236909,7.14937818 C76.4783906,7.25231879 75.9212164,7.35237489 75.3525281,7.44972677 C74.4995857,7.5957546 73.6207365,7.73547258 72.7177797,7.86888072 C56.8051225,10.2161428 35.3665999,10.2247963 19.3949329,7.86888072 C14.870074,7.20147947 -1.79907712e-05,4.67934453 -1.79907712e-05,0.0774848889 L-1.79907712e-05,23.1444731 C-1.79907712e-05,27.5797529 14.5696282,31.30833 34.3216959,32.3847895" id="Fill-7" fill="#9BA7B1" mask="url(#mask-4)"></path>
                        </g>
                        <g id="Group-14" stroke-width="1" fill="none" transform="translate(0.000000, 34.033149)">
                            <mask id="mask-6" fill="white">
                                <use xlink:href="#path-5"></use>
                            </mask>
                            <g id="Clip-13"></g>
                            <path d="M34.3970772,24.854771 C34.5994734,24.2264902 35.1893908,23.7716149 35.8863532,23.7716149 L56.2265393,23.7716149 C56.9235017,23.7716149 57.5134191,24.2264902 57.7158153,24.854771 C77.5054837,23.7883092 92.111831,20.0717589 92.1129105,15.6502776 L92.1129105,0.0775298523 C92.1129105,2.70428218 86.9574751,5.08241481 78.6232503,6.80372472 C78.1024175,6.9112505 77.5689911,7.01626315 77.0236909,7.11876267 C76.4783906,7.2212622 75.9212164,7.32088959 75.3525281,7.41782434 C74.4995857,7.56322647 73.6207365,7.70234579 72.7177797,7.8350028 C56.8051225,10.1723869 35.3665999,10.1810034 19.3949329,7.8350028 C14.870074,7.17046121 -1.79907712e-05,4.65931256 -1.79907712e-05,0.0771708347 L-1.79907712e-05,15.6497391 C-1.79907712e-05,20.0715794 14.6066892,23.7883092 34.3970772,24.854771" id="Fill-12" fill="#B0B9C0" mask="url(#mask-6)"></path>
                        </g>
                        <path d="M45.9668508,43.7234454 C28.3999724,43.7234454 0,39.6841411 0,34.4751381 L0,42.2807223 C0,47.4897252 20.5800414,51.7127072 45.9668508,51.7127072 C71.3534807,51.7127072 91.9337017,47.4897252 91.9337017,42.2807223 L91.9337017,34.4751381 C91.9337017,39.6841411 65.1511878,43.7234454 45.9668508,43.7234454" id="Fill-15" fill="#C5CFD6"></path>
                        <path d="M56.3389899,57.9005525 L36.0368803,57.9005525 C35.1743935,57.9005525 34.4751381,58.6045897 34.4751381,59.4725708 L34.4751381,73.939767 C42.125466,74.3585743 50.2392706,74.3592973 57.9005525,73.939767 L57.9005525,59.4725708 C57.9005525,58.6045897 57.2014767,57.9005525 56.3389899,57.9005525" id="Fill-17" fill="#CAD6E0"></path>
                        <path d="M38.2772432,59.1505952 C38.2772432,58.646248 38.5180463,58.1963817 38.8950276,57.9005525 L36.0799383,57.9005525 C35.1936723,57.9005525 34.4751381,58.5917672 34.4751381,59.4439399 L34.4751381,73.6476474 C35.7225164,73.7131309 36.9918531,73.7672568 38.2772432,73.8121547 L38.2772432,59.1505952 Z" id="Fill-19" fill="#BECDD9"></path>
                        <path d="M51.2707182,74.1904709 L51.2707182,67.4717627 C51.2707182,66.8237243 50.7496333,66.2983425 50.1068951,66.2983425 L41.8268066,66.2983425 C41.1840683,66.2983425 40.6629834,66.8237243 40.6629834,67.4717627 L40.6629834,74.1904709 C44.117428,74.2721193 47.5572815,74.2785555 51.2707182,74.1904709" id="Fill-21" fill="#89C5CC"></path>
                        <path d="M44.7011746,67.2277345 C44.7011746,66.8611696 44.8484784,66.5316111 45.0828729,66.2983425 L42.2186519,66.2983425 C41.6036062,66.2983425 41.1049724,66.8245316 41.1049724,67.4731543 L41.1049724,74.1998309 C42.2891622,74.2291046 43.4911542,74.2449381 44.7011746,74.2541436 L44.7011746,67.2277345 Z" id="Fill-23" fill="#89C5CC"></path>
                        <path d="M45.9668508,24.7513812 C71.3536602,24.7513812 91.9337017,29.0059139 91.9337017,34.2541436 C91.9337017,39.5023734 71.3536602,43.7569061 45.9668508,43.7569061 C20.5800414,43.7569061 0,39.5023734 0,34.2541436 C0,29.0059139 20.5800414,24.7513812 45.9668508,24.7513812" id="Fill-25" fill="#E4EAF8"></path>
                        <path d="M3.6932804,34.2541436 C3.6932804,29.1340548 23.2479131,24.9604697 47.7348066,24.7597448 C47.1219487,24.7547622 46.5069397,24.7513812 45.8881664,24.7513812 C20.5448133,24.7513812 0,29.0059325 0,34.2541436 C0,39.5023548 20.5448133,43.7569061 45.8881664,43.7569061 C46.5069397,43.7569061 47.1219487,43.7535251 47.7348066,43.7485425 C23.2479131,43.5479955 3.6932804,39.3742325 3.6932804,34.2541436" id="Fill-27" fill="#D8DCE5"></path>
                        <path d="M45.9668508,31.8232044 C61.5894165,31.8232044 74.2541436,34.4946875 74.2541436,37.7900552 C74.2541436,41.085423 61.5894165,43.7569061 45.9668508,43.7569061 C30.3442852,43.7569061 17.679558,41.085423 17.679558,37.7900552 C17.679558,34.4946875 30.3442852,31.8232044 45.9668508,31.8232044" id="Fill-29" fill="#80C7A7"></path>
                        <path d="M21.3692873,37.790146 C21.3692873,34.6258258 33.0149284,32.0372822 47.7348066,31.8362779 C47.1246869,31.8279254 46.5100901,31.8232044 45.890121,31.8232044 C30.3097716,31.8232044 17.679558,34.4945465 17.679558,37.7899645 C17.679558,41.0853824 30.3099506,43.7569061 45.890121,43.7569061 C46.5100901,43.7569061 47.1248659,43.7521851 47.7348066,43.7438326 C33.0147493,43.5431914 21.3692873,40.9544663 21.3692873,37.790146" id="Fill-31" fill="#68AE8E"></path>
                        <path d="M36.2430939,35.801105 C35.5108692,35.801105 34.9171271,35.1756484 34.9171271,34.4039084 L34.9171271,1.39719656 C34.9171271,0.625637387 35.5106976,0 36.2430939,0 C36.9753187,0 37.5690608,0.625456567 37.5690608,1.39719656 L37.5690608,34.4040892 C37.5690608,35.1756484 36.9753187,35.801105 36.2430939,35.801105" id="Fill-33" fill="#707487"></path>
                        <path d="M55.6906935,35.801105 C54.9585162,35.801105 54.3646409,35.1756484 54.3646409,34.4039084 L54.3646409,1.39719656 C54.3646409,0.625637387 54.958173,0 55.6906935,0 C56.4230425,0 57.0165746,0.625456567 57.0165746,1.39719656 L57.0165746,34.4040892 C57.0165746,35.1756484 56.4228709,35.801105 55.6906935,35.801105" id="Fill-35" fill="#707487"></path>
                        <path d="M59.1755567,19.4475138 L33.2003136,19.4475138 C32.6837779,19.4475138 32.2651934,19.034555 32.2651934,18.5253573 L32.2651934,5.34204602 C32.2651934,4.83267108 32.6839576,4.4198895 33.2003136,4.4198895 L59.1753769,4.4198895 C59.6919127,4.4198895 60.1104972,4.83284831 60.1104972,5.34204602 L60.1104972,18.5253573 C60.1104972,19.0347322 59.6919127,19.4475138 59.1755567,19.4475138" id="Fill-37" fill="#89C5CC"></path>
                        <path d="M41.064209,15.9116022 L38.0518131,15.9116022 C37.297078,15.9116022 36.6850829,15.3180317 36.6850829,14.5856354 C36.6850829,13.853239 37.2969012,13.2596685 38.0518131,13.2596685 L41.064209,13.2596685 C41.8189441,13.2596685 42.4309392,13.853239 42.4309392,14.5856354 C42.4309392,15.3180317 41.8191209,15.9116022 41.064209,15.9116022" id="Fill-41" fill="#CAE6ED"></path>
                        <path d="M54.3237848,15.9116022 L51.3115744,15.9116022 C50.5567089,15.9116022 49.9447514,15.3180317 49.9447514,14.5856354 C49.9447514,13.853239 50.556532,13.2596685 51.3115744,13.2596685 L54.3237848,13.2596685 C55.0786502,13.2596685 55.6906077,13.853239 55.6906077,14.5856354 C55.6906077,15.3180317 55.0788271,15.9116022 54.3237848,15.9116022" id="Fill-43" fill="#CAE6ED"></path>
                        <path d="M52.9173144,11.0497238 L52.2756812,11.0497238 C51.47673,11.0497238 50.8287293,10.4561532 50.8287293,9.72375691 C50.8287293,8.99136057 51.4765427,8.39779006 52.2756812,8.39779006 L52.9173144,8.39779006 C53.7166401,8.39779006 54.3646409,8.99136057 54.3646409,9.72375691 C54.3646409,10.4561532 53.7166401,11.0497238 52.9173144,11.0497238" id="Fill-47" fill="#CAE6ED"></path>
                        <path d="M39.6578331,11.0497238 L39.0162,11.0497238 C38.2170615,11.0497238 37.5690608,10.4561532 37.5690608,9.72375691 C37.5690608,8.99136057 38.2168742,8.39779006 39.0162,8.39779006 L39.6578331,8.39779006 C40.4569716,8.39779006 41.1049724,8.99136057 41.1049724,9.72375691 C41.1049724,10.4561532 40.4569716,11.0497238 39.6578331,11.0497238" id="Fill-49" fill="#CAE6ED"></path>
                    </g>
                </g>
            </g>
        </g>
    </g>
</svg>