<svg xmlns="http://www.w3.org/2000/svg" width="14" height="14" viewBox="0 0 14 14">
    <g fill="none" fill-rule="evenodd">
        <g fill="#000" fill-rule="nonzero">
            <g>
                <path d="M7.82 7.004l6.002-6.002c.232-.223.238-.592.014-.824-.223-.232-.592-.238-.824-.014l-.014.014-6.002 6.001-6-6.001C.763-.046.393-.039.17.192c-.219.226-.219.584 0 .81l6 6.002-6 6c-.228.229-.228.598 0 .825.227.228.596.228.824 0l6.001-6 6.002 6c.231.224.6.218.824-.014.218-.226.218-.584 0-.81L7.821 7.004z" transform="translate(-1039.000000, -201.000000) translate(1039.000000, 201.000000)"/>
            </g>
        </g>
    </g>
</svg>
