<svg xmlns="http://www.w3.org/2000/svg" width="59" height="57" viewBox="0 0 59 57">
    <defs>
        <filter id="9ktdgc497a">
            <feColorMatrix in="SourceGraphic" values="0 0 0 0 1.000000 0 0 0 0 1.000000 0 0 0 0 1.000000 0 0 0 1.000000 0"/>
        </filter>
    </defs>
    <g fill="none" fill-rule="evenodd">
        <g filter="url(#9ktdgc497a)" transform="translate(-155.000000, -2725.000000)">
            <g>
                <path fill="#000" fill-rule="nonzero" d="M56.715 39.78c.017-.034.033-.07.045-.108 3.495-8.119 2.87-18.072-1.67-25.68 2.425-2.916-.724-7.092-4.167-5.476-.605-.622-1.24-1.219-1.898-1.783C50.317 3.2 46.005.3 43.319 2.94c-7.807-3.967-17.516-3.917-25.279.134-2.762-2.945-7.4.213-5.727 3.908-.958.843-1.864 1.753-2.7 2.715-.722.832.585 1.97 1.302 1.145.778-.895 1.62-1.742 2.51-2.527 1.72 1.249 4.215.613 5.16-1.294 3.115.903 6.09 2.198 8.862 3.86-.233.842-.138 1.783.26 2.56-2.281 1.983-4.336 4.227-6.12 6.686-1.647-.501-3.463.337-4.179 1.907-3.632.02-7.276.413-10.853 1.174-.316-.593-.795-1.084-1.376-1.412.672-2.638 1.737-5.147 3.171-7.467.571-.925-.87-1.886-1.468-.92-1.525 2.467-2.657 5.135-3.374 7.939-4.142.07-4.837 5.837-.894 6.946-.058 8.208 3.468 16.187 9.583 21.623-1.276 3.467 2.865 6.327 5.598 3.882 7.976 4.268 18.055 4.268 26.03.001 2.78 2.767 7.232-.324 5.666-3.94 3.152-2.819 5.6-6.266 7.224-10.08zm-1.09-1.945c-2.393-2.393-5.012-4.564-7.809-6.47.397-1.252.052-2.66-.875-3.584 2.351-3.935 4.197-8.154 5.497-12.562.433.002.85-.078 1.233-.224 3.982 6.768 4.71 15.493 1.955 22.84zM15.838 47.67c-.728-7.172.549-14.328 3.71-20.795 1.963.616 4.085-.683 4.466-2.711 5.962.74 11.704 2.501 17.093 5.244-.26 1.014-.045 2.132.573 2.975-6.074 7.744-14.092 13.572-23.269 16.911-.556-.886-1.49-1.505-2.573-1.624zm26.888-17.38c0-.986.791-1.788 1.764-1.788 2.34.098 2.34 3.479 0 3.576-.973 0-1.764-.802-1.764-1.788zm11.485-18.6c0 .986-.792 1.788-1.764 1.788-2.34-.098-2.34-3.478 0-3.576.972 0 1.764.802 1.764 1.788zm-4.608-2.046c-1.195 1.69-.64 4.133 1.161 5.137-1.259 4.252-3.043 8.321-5.314 12.117-.474-.137-1.001-.171-1.49-.096-2.372-5.1-5.825-9.693-10.043-13.362.398-.778.493-1.716.26-2.56 2.67-1.6 5.53-2.862 8.521-3.759.994 1.931 3.66 2.476 5.316 1.03.549.476 1.08.975 1.589 1.493zm-20.554 2.18c0-.985.79-1.787 1.764-1.787 2.34.098 2.34 3.478 0 3.576-.973 0-1.764-.802-1.764-1.788zm16.724-8.164c.973 0 1.764.802 1.764 1.788-.097 2.372-3.431 2.371-3.528 0 0-.986.791-1.788 1.764-1.788zM15.458 7.237c-.972 0-1.764-.802-1.764-1.788.097-2.373 3.432-2.372 3.528 0 0 .986-.791 1.788-1.764 1.788zm3.49-1.922c-.009-.241-.041-.477-.096-.703C26.09.845 35.132.779 42.426 4.436c-.094.316-.145.65-.147.995-3.145.936-6.153 2.26-8.962 3.94-1.35-1.405-3.66-1.406-5.011 0-2.926-1.752-6.068-3.113-9.358-4.056zm9.904 9.43c1.17.803 2.75.804 3.919 0 4.027 3.5 7.326 7.88 9.598 12.744-.154.12-.298.251-.43.394-5.681-2.9-11.744-4.744-18.041-5.486-.17-.517-.456-.982-.826-1.363 1.69-2.31 3.63-4.42 5.78-6.289zm-8.27 6.973c.972 0 1.764.802 1.764 1.788-.097 2.372-3.432 2.371-3.528 0 0-.986.791-1.788 1.764-1.788zm-18.87 3.157c0-.986.792-1.788 1.765-1.788 2.34.098 2.34 3.479 0 3.576-.973 0-1.764-.802-1.764-1.788zm2.631 3.419s2.627-.577 2.627-3.396c0 0 6.739-1.084 10.13-1.122.063.843.421 1.604.97 2.178-3.37 6.822-4.729 14.385-3.947 21.965-.337.14-.647.334-.92.569-5.642-5.086-8.86-13.607-8.86-20.194zm11.115 24.673c-.972 0-1.764-.802-1.764-1.788s.792-1.789 1.764-1.789c.96 0 1.764.837 1.764 1.789 0 .986-.791 1.788-1.764 1.788zm15.354 2.306c-4.197 0-8.347-1.012-12.056-2.932.15-.434.217-.929.188-1.39 9.492-3.443 17.787-9.46 24.071-17.462.516.244 1.09.356 1.659.326.384 1.434.687 2.898.902 4.362.165 1.12 1.876.87 1.711-.255-.228-1.554-.552-3.108-.962-4.63.207-.13.399-.281.574-.45 2.885 1.971 5.575 4.234 8.012 6.739-1.511 3.362-3.711 6.407-6.506 8.922-.276-.209-.584-.377-.915-.496.17-1.618.244-3.251.219-4.867-.018-1.136-1.747-1.11-1.73.027.025 1.553-.047 3.123-.21 4.678-2.04.327-3.374 2.455-2.812 4.449-3.732 1.95-7.914 2.979-12.145 2.979zm15.505-2.155c-.973 0-1.764-.802-1.764-1.788.097-2.373 3.431-2.372 3.528 0 0 .986-.792 1.788-1.764 1.788z" transform="translate(155.000000, 2725.000000)"/>
            </g>
        </g>
    </g>
</svg>
