<svg xmlns="http://www.w3.org/2000/svg" width="70" height="69" viewBox="0 0 70 69">
    <defs>
        <filter id="claemc65da">
            <feColorMatrix in="SourceGraphic" values="0 0 0 0 0.000000 0 0 0 0 0.329412 0 0 0 0 0.690196 0 0 0 1.000000 0"/>
        </filter>
    </defs>
    <g fill="none" fill-rule="evenodd">
        <g>
            <g>
                <g filter="url(#claemc65da)" transform="translate(-601.000000, -1626.000000) translate(601.000000, 1627.000000)">
                    <g fill-rule="nonzero">
                        <path fill="#0054B0" stroke="#0054B0" stroke-width=".5" d="M43 2.929c.003-.785-.3-1.522-.853-2.076C41.593.3 40.855-.003 40.07 0c-.783.003-1.52.311-2.075.866-.235.235-.663.743-.897 1.025-.246.296-.205.736.09.981.297.246.736.205.982-.09.366-.442.67-.79.81-.93.294-.294.683-.457 1.096-.459h.007c.408 0 .79.158 1.078.445.288.289.446.674.445 1.085-.002.413-.165.802-.459 1.096-.263.263-1.166.98-2.461 1.885-.766-1.31-2.187-2.192-3.81-2.192H24.674c-1.377 0-2.671.536-3.645 1.51L.64 25.612c-.413.413-.64.961-.64 1.544 0 .583.227 1.132.64 1.544L14.3 42.362c.426.425.985.638 1.544.638.56 0 1.118-.213 1.544-.638l20.39-20.391c.974-.974 1.51-2.269 1.51-3.646V8.124c0-.301-.03-.595-.088-.88 1.474-1.014 2.556-1.862 2.934-2.24.555-.555.863-1.292.866-2.075zm-5.105 15.396c0 1.005-.391 1.95-1.102 2.66l-20.39 20.392c-.308.307-.81.307-1.117 0L1.625 27.715c-.15-.15-.232-.348-.232-.559 0-.21.082-.409.232-.558l20.39-20.391c.71-.71 1.655-1.102 2.66-1.102h10.201c1.146 0 2.144.642 2.656 1.584-.823.545-1.745 1.124-2.722 1.694l-.094-.099c-1.14-1.14-2.997-1.14-4.138 0-1.14 1.141-1.14 2.997 0 4.138.57.57 1.32.856 2.069.856.75 0 1.498-.285 2.069-.856.761-.761 1.014-1.841.759-2.815.85-.495 1.666-1 2.42-1.49v10.208h0zm-5.87-7.659c.122.244.368.384.623.384.105 0 .212-.024.312-.074.409-.206.816-.42 1.218-.638.004.397-.144.796-.447 1.1-.598.597-1.57.597-2.168 0-.597-.599-.597-1.57 0-2.168.3-.3.692-.449 1.084-.449.31 0 .62.096.885.283-.394.214-.794.424-1.198.627-.344.173-.482.592-.31.935z" transform="translate(38.500000, 21.500000) scale(-1, 1) translate(-38.500000, -21.500000) translate(17.000000, 0.000000)"/>
                        <path fill="#000" d="M16.64 17.76c-.475 0-.86.316-.86.707v14.926c0 .39.385.707.86.707s.86-.316.86-.707V18.467c0-.39-.385-.707-.86-.707z" transform="translate(38.500000, 21.500000) scale(-1, 1) translate(-38.500000, -21.500000) translate(17.000000, 0.000000) translate(16.640000, 25.930000) rotate(-45.000000) translate(-16.640000, -25.930000)"/>
                        <path fill="#000" d="M14.64 19.76c-.475 0-.86.316-.86.707v14.926c0 .39.385.707.86.707s.86-.316.86-.707V20.467c0-.39-.385-.707-.86-.707z" transform="translate(38.500000, 21.500000) scale(-1, 1) translate(-38.500000, -21.500000) translate(17.000000, 0.000000) translate(14.640000, 27.930000) rotate(-45.000000) translate(-14.640000, -27.930000)"/>
                    </g>
                </g>
                <path fill="#0051B4" fill-rule="nonzero" d="M5.5 41c-.828 0-1.5.672-1.5 1.5S4.672 44 5.5 44 7 43.328 7 42.5 6.328 41 5.5 41z" transform="translate(-601.000000, -1626.000000) translate(601.000000, 1627.000000)"/>
                <g>
                    <path fill="#0054B0" fill-rule="nonzero" d="M7.007 31H.976C.436 31 0 30.55 0 29.995V1.005C0 .45.437 0 .976 0h6.03C9.765.005 11.997 2.307 12 5.146v20.708c-.003 2.84-2.236 5.141-4.993 5.146zM1.95 28.99h5.056c1.68-.004 3.04-1.406 3.042-3.136V5.146c-.002-1.73-1.363-3.132-3.042-3.136H1.95v26.98z" transform="translate(-601.000000, -1626.000000) translate(601.000000, 1627.000000) translate(0.000000, 35.000000)"/>
                    <path fill="#FF7B00" d="M1.951 28.99h5.056c1.68-.004 3.04-1.406 3.042-3.136V5.146c-.002-1.73-1.363-3.132-3.042-3.136H1.95v26.98z" transform="translate(-601.000000, -1626.000000) translate(601.000000, 1627.000000) translate(0.000000, 35.000000)"/>
                    <path fill="#0054B0" fill-rule="nonzero" d="M44.208 20H26.635c-.56 0-1.014-.432-1.014-.965 0-.533.454-.965 1.014-.965h17.573c1.53 0 2.77-1.18 2.77-2.637s-1.24-2.637-2.77-2.637h-9.274c-.292 0-.57-.12-.762-.33C31.52 9.585 27.69 7.93 23.665 7.93H12.014c-.56 0-1.014-.432-1.014-.965 0-.533.454-.965 1.014-.965h11.65c4.448 0 8.694 1.763 11.72 4.865h8.82c2.648 0 4.796 2.045 4.796 4.568C49 17.955 46.852 20 44.203 20h.005z" transform="translate(-601.000000, -1626.000000) translate(601.000000, 1627.000000) translate(0.000000, 35.000000)"/>
                    <path fill="#0054B0" fill-rule="nonzero" d="M35.23 33c-2.456 0-4.89-.453-7.18-1.336L11.631 25.33c-.509-.197-.761-.766-.564-1.273.197-.506.77-.757 1.279-.561l16.42 6.332c4.836 1.867 10.249 1.551 14.832-.865L67.765 16.23c-2.275-2.15-5.577-2.836-8.527-1.77l-12.897 4.69c-.332.12-.703.056-.974-.17-.27-.225-.4-.577-.34-.923.061-.346.303-.634.635-.754l12.898-4.69c3.736-1.351 7.92-.431 10.738 2.36l.236.234c.357.355.523.858.448 1.355-.074.496-.382.928-.828 1.163l-24.63 12.98C41.66 32.212 38.468 33 35.228 33z" transform="translate(-601.000000, -1626.000000) translate(601.000000, 1627.000000) translate(0.000000, 35.000000)"/>
                </g>
                <g fill="#FF7B00" fill-rule="nonzero" stroke="#0054B0" stroke-width="1.5">
                    <path d="M11.591 6c0-.372.11-.753.216-1.121.143-.498.278-.969.125-1.336-.16-.39-.6-.63-1.065-.884-.326-.178-.664-.363-.913-.613-.25-.249-.435-.587-.613-.913C9.086.668 8.846.229 8.457.067 8.09-.085 7.62.05 7.121.193 6.753.3 6.371.41 6 .41c-.372 0-.753-.11-1.121-.216C4.38.05 3.91-.086 3.543.067c-.39.162-.63.6-.884 1.066-.179.326-.364.664-.613.913-.25.25-.587.435-.914.613-.465.255-.904.495-1.065.884-.152.367-.017.838.126 1.336.106.368.216.75.216 1.121 0 .372-.11.753-.216 1.121-.143.498-.278.969-.125 1.336.16.39.6.63 1.065.884.326.178.664.363.914.613.25.249.434.587.612.914.255.464.495.903.884 1.065.368.153.838.017 1.336-.126.368-.106.75-.215 1.121-.215.372 0 .753.109 1.121.215.498.143.969.279 1.337.126.388-.161.629-.6.883-1.066.179-.326.364-.664.613-.913.25-.25.587-.435.914-.613.464-.255.904-.495 1.065-.884.152-.367.017-.838-.126-1.336-.106-.368-.216-.75-.216-1.121h0z" transform="translate(-601.000000, -1626.000000) translate(601.000000, 1627.000000) translate(30.000000, 13.000000)"/>
                </g>
            </g>
        </g>
    </g>
</svg>
