<svg xmlns="http://www.w3.org/2000/svg" width="64" height="69" viewBox="0 0 64 69">
    <defs>
        <filter id="kcb1d3sbia">
            <feColorMatrix in="SourceGraphic" values="0 0 0 0 0.000000 0 0 0 0 0.329412 0 0 0 0 0.690196 0 0 0 1.000000 0"/>
        </filter>
    </defs>
    <g fill="none" fill-rule="evenodd">
        <g>
            <g>
                <g>
                    <g filter="url(#kcb1d3sbia)" transform="translate(-605.000000, -1813.000000) translate(605.000000, 1816.000000)">
                        <g fill="#000" fill-rule="nonzero">
                            <path d="M37.136 1.006C25.61-2.08 13.36 2.076 6.096 11.54c-7.263 9.464-8.11 22.37-2.143 32.701 3.895 6.788 10.345 11.736 17.911 13.741 2.506.674 5.09 1.016 7.684 1.018 10.532-.021 20.255-5.652 25.513-14.776 5.257-9.123 5.252-20.357-.013-29.476C51.152 7.96 44.702 3.012 37.136 1.006zm18.96 35.613c-2.883 10.754-11.96 18.712-23.002 20.166-11.04 1.453-21.87-3.886-27.438-13.527C.748 34.746.746 24.265 5.65 15.752 10.556 7.24 19.626 1.982 29.453 1.956c2.422.002 4.833.321 7.171.95 7.054 1.889 13.068 6.502 16.72 12.825 3.651 6.322 4.64 13.836 2.75 20.888h.002z" transform="translate(0.000000, 7.000000)"/>
                            <path d="M41.034 44.718c.014-.01.03-.01.043-.02.022-.021.044-.044.064-.068 5.021-4.243 7.497-10.893 6.515-17.5 0-.012-.007-.022-.007-.033-.673-4.597-2.995-8.769-6.51-11.694-.024-.02-.037-.05-.063-.069-.01-.006-.024-.007-.034-.014-5.093-4.217-11.978-5.341-18.09-2.954-.01.005-.02 0-.032.009l-.012.01c-1.798.68-3.47 1.67-4.943 2.93-.013.01-.029.01-.043.02-.022.021-.044.044-.063.068-5.022 4.243-7.497 10.894-6.515 17.5 0 .012.007.022.007.033.966 6.699 5.36 12.345 11.504 14.784 6.143 2.438 13.087 1.291 18.18-3.002zM33.327 34.63c-.027.015-.054.032-.08.05l-.826.499-1.692 1.005c-.262.16-.434.44-.462.752-.63.068-1.265.047-1.889-.063-.14-.483-.454-.893-.877-1.147l-1.808-1.074c-.428-.25-.933-.325-1.411-.206-.243-.295-.461-.612-.652-.945-.183-.333-.339-.682-.465-1.042.34-.37.53-.86.528-1.368v-2.15c.001-.507-.188-.995-.527-1.362.22-.605.52-1.177.893-1.698.276.138.6.123.863-.039l.717-.427c.011-.006.024-.007.034-.014.028-.015.054-.032.08-.05l.826-.498 1.692-1.005c.262-.16.434-.44.463-.753.626-.068 1.259-.047 1.88.062.144.484.46.894.888 1.146l1.802 1.077c.43.254.937.329 1.419.21.24.294.457.609.647.94.184.333.34.682.465 1.042-.34.37-.53.86-.528 1.369v2.15c0 .506.188.994.527 1.361-.22.607-.522 1.178-.894 1.7-.277-.13-.597-.116-.862.037l-.706.42c-.015.01-.03.013-.045.021zm-13.453 8.928l4.851-7.185 1.809 1.073-3.626 7.91-3.034-1.798zM13.167 28.2l8.59.74v2.155l-8.601.737c-.124-1.207-.12-2.425.01-3.632zm26.035-11.844l-4.93 7.302-1.808-1.074 3.683-8.034c1.08.489 2.104 1.096 3.057 1.81l-.002-.004zm6.631 15.471l-8.59-.736v-2.155l8.601-.737c.124 1.208.121 2.425-.01 3.632l-.001-.004zm-5.134 10.568l-4.507-6.67c.624-.774 1.118-1.651 1.46-2.594l7.858.675c-.732 3.293-2.408 6.285-4.81 8.589zm3.051-20.84c.819 1.46 1.421 3.036 1.786 4.678l-7.884.676c-.162-.474-.363-.934-.603-1.372-.25-.435-.535-.848-.853-1.234l4.51-6.668c1.2 1.143 2.225 2.465 3.044 3.92zm-14.278-8.46c1.647.003 3.284.259 4.857.759l-3.37 7.35c-.967-.172-1.955-.175-2.922-.01l-3.37-7.35c1.557-.494 3.176-.746 4.805-.75zm-8.199 2.267c.51-.3 1.036-.572 1.575-.814l3.678 8.038-.928.555-.871.516-4.936-7.301c.476-.359.971-.69 1.482-.994zm-2.972 2.275l4.506 6.674c-.623.775-1.116 1.652-1.458 2.594l-7.86-.674c.733-3.296 2.409-6.289 4.812-8.594zm-3.05 20.839c-.82-1.459-1.422-3.036-1.787-4.678l7.884-.676c.164.474.367.932.607 1.37.25.433.535.845.852 1.229l-4.512 6.68c-1.2-1.145-2.226-2.468-3.045-3.925zm9.424 7.69l3.364-7.342c.492.093.991.142 1.49.148.482-.005.961-.051 1.435-.138l3.366 7.344c-3.147.99-6.51.986-9.655-.012zm11.479-.678l-3.678-8.043.928-.555.871-.515 4.937 7.3c-.95.719-1.973 1.327-3.052 1.813h-.006z" transform="translate(0.000000, 7.000000)"/>
                            <path d="M30.508 25.737c-1.796-.481-3.68.374-4.503 2.04-.821 1.668-.35 3.684 1.124 4.815 1.475 1.13 3.543 1.063 4.94-.163 1.398-1.226 1.734-3.268.805-4.878-.514-.896-1.366-1.55-2.366-1.814zm.876 4.267c-.261.975-1.224 1.589-2.219 1.414-.994-.175-1.69-1.08-1.603-2.086.087-1.006.928-1.779 1.938-1.78.171 0 .342.022.507.066.5.134.925.461 1.183.908.258.448.328.98.194 1.479v-.001z" transform="translate(0.000000, 7.000000)"/>
                        </g>
                    </g>
                    <g fill="#FF7B00" fill-rule="nonzero" stroke="#FFF" stroke-width="3">
                        <path d="M13-1.5c.578 0 1.127.173 1.589.478.46.305.833.742 1.062 1.276h0l2.616 6.144 6.61.602c.577.052 1.11.274 1.541.62.432.346.765.817.941 1.366.178.55.184 1.124.038 1.657-.147.533-.447 1.024-.88 1.404h0l-5.003 4.402 1.476 6.525c.128.563.081 1.137-.113 1.654-.194.519-.537.98-1.005 1.32-.468.341-1.014.525-1.567.549-.553.024-1.114-.111-1.606-.409h0L13 22.67l-5.701 3.42c-.457.274-.967.411-1.48.411-.595 0-1.186-.184-1.69-.55-.469-.34-.812-.802-1.007-1.32-.194-.518-.24-1.091-.113-1.657h0l1.476-6.524-5.001-4.4c-.434-.38-.734-.872-.881-1.407-.146-.533-.14-1.108.038-1.657.178-.55.51-1.018.94-1.364.431-.346.962-.567 1.54-.621h0l6.612-.602L10.35.253c.227-.532.6-.97 1.06-1.274.462-.306 1.012-.479 1.59-.479z" transform="translate(-605.000000, -1813.000000) translate(605.000000, 1816.000000) translate(35.000000, 0.000000)"/>
                    </g>
                </g>
                <path fill="#FF7B00" fill-rule="nonzero" stroke="#0054B0" stroke-width="1.8" d="M47.737.98c.36-.08.45-.051.527 0 .078.051.141.126.179.214h0l3.178 7.464 8.04.732c.096.009.185.046.257.103.072.058.128.138.158.231.03.094.031.192.006.282-.024.09-.075.174-.15.24h0l-6.073 5.343 1.79 7.913c.022.097.014.195-.019.283-.033.087-.09.165-.17.223-.077.056-.168.087-.26.091-.09.004-.183-.018-.266-.069h0L48 19.87l-6.936 4.16c-.076.046-.16.07-.245.07-.1 0-.198-.032-.281-.093-.079-.057-.137-.134-.17-.221-.033-.09-.04-.187-.018-.283h0l1.79-7.914-6.075-5.346c-.073-.064-.123-.146-.147-.236-.025-.09-.024-.189.006-.282.03-.093.086-.173.159-.231.072-.058.16-.095.255-.104h0l8.041-.732 3.178-7.462c.039-.09.101-.165.18-.217z" transform="translate(-605.000000, -1813.000000) translate(605.000000, 1816.000000)"/>
            </g>
        </g>
    </g>
</svg>
