<svg xmlns="http://www.w3.org/2000/svg" width="61" height="68" viewBox="0 0 61 68">
    <g fill="none" fill-rule="evenodd">
        <g>
            <g>
                <path fill="#FF7B00" d="M50.54 34.53c-3.293 10.57-9.922 18.454-19.71 23.44-9.787-4.986-16.416-12.87-19.709-23.44-2.456-7.887-2.2-14.733-1.924-17.622 2.536-.013 6.304-.225 10.295-1.126 4.393-.992 8.203-2.61 11.339-4.812 3.135 2.203 6.945 3.82 11.338 4.812 3.991.9 7.759 1.113 10.295 1.126.276 2.89.532 9.735-1.924 17.621z" transform="translate(-605.000000, -1969.000000) translate(605.000000, 1969.000000)"/>
                <g fill-rule="nonzero">
                    <path fill="#0A5AB3" d="M59.74 9.008c-.155-.514-.66-.841-1.192-.775-.046.006-4.62.562-10.283-.147C43.1 7.44 35.97 5.576 31.338.37c-.218-.245-.52-.37-.824-.37h-.028c-.303 0-.606.125-.824.37-4.62 5.193-11.727 7.06-16.875 7.71-5.67.717-10.29.159-10.335.153-.533-.067-1.037.26-1.192.775-1.715 5.688-2.034 16.79 1.319 27.723 1.99 6.487 5.05 12.295 9.097 17.263 4.797 5.889 10.973 10.568 18.356 13.908.142.065.297.098.454.098h.028c.157 0 .312-.033.455-.098 7.382-3.34 13.558-8.02 18.355-13.908 4.047-4.968 7.108-10.776 9.097-17.263 3.353-10.933 3.034-22.035 1.319-27.723zm-3.426 27.078c-1.906 6.213-4.832 11.77-8.7 16.517-4.484 5.505-10.24 9.907-17.114 13.09-6.874-3.183-12.63-7.585-17.115-13.09-3.867-4.747-6.793-10.304-8.699-16.517-3.231-10.538-2.746-20.67-1.55-25.574 1.69.137 5.436.316 9.873-.24 7.432-.93 13.449-3.543 17.491-7.581 4.042 4.038 10.06 6.651 17.49 7.581 4.444.557 8.194.376 9.881.24 2.098 8.16.26 19.648-1.557 25.574z" transform="translate(-605.000000, -1969.000000) translate(605.000000, 1969.000000)"/>
                    <path fill="#FFF" d="M36.322 28.567c0 .465.375.841.839.841.463 0 .839-.376.839-.84 0-1.604-.874-3.088-2.461-4.182-.84-.578-1.832-1.01-2.91-1.278v-1.267c0-.465-.375-.841-.839-.841-.463 0-.839.376-.839.84v.995c-.314-.026-.63-.041-.951-.041-.32 0-.637.015-.951.041v-.994c0-.465-.376-.841-.84-.841-.463 0-.838.376-.838.84v1.268c-1.078.267-2.07.7-2.91 1.278C22.874 25.48 22 26.964 22 28.567c0 1.603.874 3.088 2.461 4.181.84.579 1.832 1.011 2.91 1.278v8.113c-2.157-.66-3.693-2.091-3.693-3.706 0-.465-.375-.841-.839-.841-.463 0-.839.376-.839.84 0 1.604.874 3.088 2.461 4.182.84.578 1.832 1.01 2.91 1.278v1.267c0 .465.375.841.839.841.463 0 .839-.376.839-.84v-.995c.314.026.63.041.951.041.32 0 .637-.015.951-.041v.994c0 .465.376.841.84.841.463 0 .838-.376.838-.84v-1.268c1.078-.267 2.07-.7 2.91-1.278C37.126 41.52 38 40.036 38 38.433c0-1.603-.874-3.088-2.461-4.181-.84-.579-1.832-1.011-2.91-1.278V24.86c2.157.66 3.693 2.091 3.693 3.706zM24 28.5c0-1.525 1.663-2.877 4-3.5v7c-2.337-.623-4-1.975-4-3.5zM30 42c-.339 0-.673-.016-1-.047V34c.33.026.663.04 1 .04.339 0 .673.016 1 .048v7.865c-.327.03-.66.047-1 .047zm6-3.5c0 1.525-1.663 2.877-4 3.5v-7c2.337.623 4 1.975 4 3.5zM31 33c-.33-.026-.663-.04-1-.04-.339 0-.673-.016-1-.048v-7.865c.327-.03.661-.047 1-.047.339 0 .673.016 1 .047V33z" transform="translate(-605.000000, -1969.000000) translate(605.000000, 1969.000000)"/>
                    <path fill="#0A5AB3" d="M52.728 15.892c-.201.002-.41.004-.623.004-4.785 0-13.813-.741-20.51-5.7-.352-.261-.838-.261-1.19 0-6.697 4.96-15.725 5.7-20.51 5.7-.214 0-.422-.002-.623-.004h-.013c-.494 0-.912.358-.974.837-.348 2.69-.867 9.875 1.832 18.445 3.387 10.756 10.265 18.738 20.441 23.724.14.068.29.102.442.102.151 0 .303-.034.442-.102 10.176-4.986 17.054-12.968 20.441-23.724 2.699-8.57 2.18-15.754 1.832-18.445-.062-.483-.483-.845-.987-.837zm-2.745 18.665C46.81 44.677 40.426 52.226 31 57c-9.426-4.774-15.811-12.322-18.983-22.443-2.365-7.55-2.118-14.106-1.853-16.871 2.443-.013 6.072-.216 9.916-1.08C24.31 15.658 27.98 14.11 31 12c3.02 2.109 6.69 3.657 10.92 4.607 3.844.863 7.473 1.066 9.916 1.079.265 2.765.512 9.32-1.853 16.87z" transform="translate(-605.000000, -1969.000000) translate(605.000000, 1969.000000)"/>
                </g>
            </g>
        </g>
    </g>
</svg>
