<svg xmlns="http://www.w3.org/2000/svg" width="50" height="64" viewBox="0 0 50 64">
    <defs>
        <filter id="fadok5qcsa">
            <feColorMatrix in="SourceGraphic" values="0 0 0 0 1.000000 0 0 0 0 1.000000 0 0 0 0 1.000000 0 0 0 1.000000 0"/>
        </filter>
    </defs>
    <g fill="none" fill-rule="evenodd">
        <g filter="url(#fadok5qcsa)" transform="translate(-661.000000, -2718.000000)">
            <g fill="#000" fill-rule="nonzero">
                <path d="M50 4.076c.005-.655-.518-1.19-1.169-1.195-.17 0-.338.035-.492.105C40.919 6.46 32.184 5.418 25.778.295c-.445-.393-1.11-.393-1.556 0-6.433 5.058-15.13 6.095-22.56 2.69-.594-.268-1.291-.001-1.558.596-.07.155-.105.324-.104.495 0 .249.083 24.69 0 32.787-.047 4.326 9.99 18.373 24.4 26.978.364.212.813.212 1.177 0C40.01 55.236 50.047 41.19 50 36.863c-.083-8.096 0-32.538 0-32.787zm-2.357 32.799c0 2.607-8.246 15.705-22.643 24.56-14.444-8.843-22.667-21.94-22.643-24.549.07-6.839.023-25.247 0-31.056C9.957 8.628 18.44 7.447 25 2.677c6.559 4.77 15.044 5.951 22.643 3.153 0 5.797-.058 24.217 0 31.045z" transform="translate(661.000000, 2718.000000)"/>
                <path d="M44 11.282c.005-.655-.523-1.19-1.18-1.195-.17-.001-.34.035-.496.104-5.434 2.548-11.844 1.814-16.557-1.896-.449-.393-1.12-.393-1.57 0-4.713 3.667-11.08 4.416-16.52 1.944-.6-.269-1.303-.002-1.572.595-.07.156-.106.325-.105.495 0 .178.06 18.28 0 24.277-.035 3.26 7.524 13.81 18.376 20.235.368.212.82.212 1.189 0C36.44 49.416 44 38.866 44 35.56c-.06-5.998 0-24.087 0-24.277zm-2.377 24.277c0 1.671-5.943 11.309-16.64 17.781C14.367 46.832 8.341 37.195 8.341 35.559c.083-4.836 0-17.781 0-22.523 5.602 1.966 11.814 1.08 16.64-2.37 4.827 3.45 11.038 4.336 16.64 2.37V35.56z" transform="translate(661.000000, 2718.000000)"/>
            </g>
        </g>
    </g>
</svg>
