<svg xmlns="http://www.w3.org/2000/svg" width="11" height="20" viewBox="0 0 11 20">
    <g fill="none" fill-rule="evenodd">
        <g fill="#8C8C8C" fill-rule="nonzero">
            <g>
                <path d="M10.328.004L7.758 0C4.87 0 3.004 1.914 3.004 4.878v2.248H.42c-.223 0-.404.181-.404.405v3.258c0 .223.18.404.404.404h2.584v8.222c0 .223.18.404.404.404H6.78c.223 0 .404-.18.404-.404v-8.222h3.021c.224 0 .404-.18.404-.404l.002-3.258c0-.107-.043-.21-.119-.286-.075-.076-.178-.119-.286-.119H7.184V5.22c0-.916.218-1.381 1.412-1.381l1.731-.001c.223 0 .404-.181.404-.404V.408c0-.223-.18-.403-.403-.404z" transform="translate(-1236.000000, -458.000000) translate(1236.000000, 458.000000)"/>
            </g>
        </g>
    </g>
</svg>
