<svg xmlns="http://www.w3.org/2000/svg" width="20" height="20" viewBox="0 0 20 20">
    <g fill="none" fill-rule="evenodd">
        <g fill="#8C8C8C" fill-rule="nonzero">
            <g transform="translate(-431.000000, -619.000000) translate(431.000000, 619.000000)">
                <path d="M14.19 0H5.81C2.606 0 0 2.606 0 5.81v8.38C0 17.394 2.606 20 5.81 20h8.38c3.204 0 5.81-2.606 5.81-5.81V5.81C20 2.606 17.394 0 14.19 0zm4.248 14.19c0 2.342-1.906 4.248-4.248 4.248H5.81c-2.342 0-4.247-1.906-4.247-4.248V5.81c0-2.342 1.905-4.247 4.247-4.247h8.38c2.342 0 4.248 1.905 4.248 4.247v8.38z"/>
                <path d="M10 4.545c-3.008 0-5.455 2.447-5.455 5.455S6.992 15.455 10 15.455s5.455-2.447 5.455-5.455S13.008 4.545 10 4.545zm0 9.329c-2.136 0-3.874-1.738-3.874-3.874S7.864 6.126 10 6.126 13.874 7.864 13.874 10 12.136 13.874 10 13.874z"/>
                <circle cx="15.568" cy="4.432" r="1"/>
            </g>
        </g>
    </g>
</svg>
