<svg xmlns="http://www.w3.org/2000/svg" width="20" height="20" viewBox="0 0 20 20">
    <g fill="none" fill-rule="evenodd">
        <g fill="#8C8C8C" fill-rule="nonzero">
            <g>
                <path d="M20 11.4c0-.498-.2-.962-.543-1.305.39-.423.588-.991.534-1.582-.098-1.054-1.052-1.88-2.174-1.88H12.67c.255-.77.663-2.182.663-3.317 0-1.798-1.536-3.316-2.5-3.316-.865 0-1.484.485-1.51.505-.099.079-.156.198-.156.324v2.812L6.766 8.814l-.1.05v-.158c0-.23-.186-.415-.416-.415H2.083C.934 8.291 0 9.221 0 10.364v6.633c0 1.143.934 2.073 2.083 2.073h2.5c.901 0 1.671-.572 1.961-1.37.694.354 1.627.54 2.206.54h7.65c.907 0 1.7-.608 1.888-1.447.095-.433.04-.868-.15-1.246.614-.308 1.029-.94 1.029-1.66 0-.293-.068-.574-.195-.828.615-.308 1.028-.94 1.028-1.659zm-1.758 1.024c-.16.019-.296.127-.348.28-.05.154-.008.322.11.433.212.199.33.466.33.75 0 .524-.398.963-.924 1.024-.16.019-.297.128-.348.281-.051.153-.009.322.11.433.274.257.384.617.301.989-.102.463-.554.798-1.074.798H8.75c-.677 0-1.812-.316-2.205-.709-.12-.117-.3-.152-.454-.09-.156.065-.258.217-.258.384 0 .686-.56 1.244-1.25 1.244h-2.5c-.689 0-1.25-.558-1.25-1.244v-6.633c0-.686.561-1.244 1.25-1.244h3.75v.415c0 .143.075.277.199.353.121.073.275.08.405.018l.833-.415c.084-.042.152-.111.192-.197l2.5-5.389c.025-.055.038-.114.038-.174V1.054c.173-.096.474-.225.833-.225.457 0 1.667 1.13 1.667 2.487 0 1.46-.798 3.563-.806 3.584-.048.127-.032.27.046.383.078.112.207.18.343.18h5.734c.695 0 1.285.494 1.344 1.126.044.472-.184.922-.594 1.173-.127.078-.203.219-.197.369.006.15.092.284.226.353.352.179.57.53.57.916 0 .524-.397.963-.924 1.024z" transform="translate(-115.000000, -574.000000) translate(115.000000, 574.000000)"/>
                <path d="M6.047 8.837c-.257 0-.466.188-.466.419v7.535c0 .23.209.418.466.418.256 0 .465-.187.465-.418V9.256c0-.231-.209-.419-.465-.419z" transform="translate(-115.000000, -574.000000) translate(115.000000, 574.000000)"/>
            </g>
        </g>
    </g>
</svg>
